<svg xmlns="http://www.w3.org/2000/svg" viewBox="0 0 24 24" fill="none"><path d="M22.2295 11.7874H22.2314H22.2305C22.2261 11.7899 22.2196 11.7943 22.211 11.7996C22.1831 11.8168 22.1348 11.8485 22.0728 11.8957C21.9481 11.9906 21.7719 12.147 21.5922 12.375C21.2423 12.819 20.85 13.5735 20.85 14.7857C20.85 15.3183 20.4247 15.75 19.9001 15.75C19.3754 15.75 18.9501 15.3183 18.9501 14.7857C18.9501 13.4215 19.3173 12.391 19.7767 11.6443C16.0413 10.7161 13.2502 7.28255 13.2502 3.21429C13.2502 2.68173 13.6755 2.25 14.2002 2.25C14.7248 2.25 15.1501 2.68173 15.1501 3.21429C15.1501 6.17862 17.0623 8.71301 19.695 9.61304C19.6447 9.52467 19.5915 9.43479 19.541 9.34089C18.7714 7.90857 18.0001 5.82203 18.0001 3.21429C18.0001 2.68173 18.4254 2.25 18.9501 2.25C19.4747 2.25 19.9001 2.68173 19.9001 3.21429C19.9001 5.42781 20.5538 7.19858 21.2091 8.41804C21.5365 9.0274 21.8623 9.49559 22.1024 9.80702C22.2224 9.96255 22.3211 10.0785 22.3863 10.1526C22.4188 10.1895 22.443 10.2159 22.4578 10.2317C22.4645 10.239 22.4691 10.2441 22.4717 10.2468C22.6876 10.466 22.7868 10.7771 22.7379 11.083C22.6893 11.387 22.4999 11.6481 22.2295 11.7874Z" fill="currentColor"/><path d="M1.77082 11.7874C1.7752 11.7899 1.7808 11.7943 1.78937 11.7996C1.81725 11.8168 1.8656 11.8485 1.9276 11.8957C2.05229 11.9906 2.22844 12.147 2.40816 12.375C2.75811 12.819 3.15033 13.5735 3.15033 14.7857C3.15033 15.3183 3.57565 15.75 4.10032 15.75C4.62498 15.75 5.0503 15.3183 5.0503 14.7857C5.0503 13.4215 4.68307 12.391 4.2237 11.6443C7.95903 10.7161 10.7502 7.28255 10.7502 3.21429C10.7502 2.68173 10.3249 2.25 9.8002 2.25C9.27554 2.25 8.85022 2.68173 8.85022 3.21429C8.85022 6.17862 6.93808 8.71301 4.30534 9.61304C4.35564 9.52467 4.40888 9.43479 4.45934 9.34089C5.22897 7.90857 6.00028 5.82203 6.00028 3.21429C6.00028 2.68173 5.57496 2.25 5.0503 2.25C4.52564 2.25 4.10032 2.68173 4.10032 3.21429C4.10032 5.42781 3.4466 7.19858 2.79131 8.41804C2.46384 9.0274 2.13802 9.49559 1.89792 9.80702C1.77801 9.96255 1.67927 10.0785 1.61404 10.1526C1.58161 10.1895 1.55733 10.2159 1.5426 10.2317C1.53586 10.239 1.53128 10.2441 1.52869 10.2468C1.31277 10.466 1.21354 10.7771 1.26243 11.083C1.31103 11.387 1.50047 11.6481 1.77082 11.7874Z" fill="currentColor"/><path opacity="0.4" d="M18.0406 17.25L18.0001 17.25L17.9595 17.25C17.5218 17.25 17.1557 17.25 16.8546 17.2705C16.5375 17.2922 16.2377 17.3387 15.9473 17.459C15.5847 17.6092 15.2641 17.8359 15.0001 18.1162C14.736 17.8359 14.4155 17.6092 14.0528 17.459C13.7624 17.3387 13.4626 17.2922 13.1456 17.2705C12.8445 17.25 12.4783 17.25 12.0406 17.25L12.0001 17.25L11.9595 17.25C11.5218 17.25 11.1557 17.25 10.8546 17.2705C10.5375 17.2922 10.2377 17.3387 9.94733 17.459C9.58467 17.6092 9.26413 17.8359 9.00006 18.1162C8.736 17.8359 8.41546 17.6092 8.0528 17.459C7.76245 17.3387 7.46263 17.2922 7.14557 17.2705C6.84447 17.25 6.47832 17.25 6.04063 17.25L6.00006 17.25L5.95949 17.25C5.52181 17.25 5.15566 17.25 4.85456 17.2705C4.5375 17.2922 4.23768 17.3387 3.94733 17.459C3.27365 17.7381 2.73815 18.2736 2.45905 18.9473C2.33878 19.2376 2.29221 19.5374 2.27057 19.8545C2.25003 20.1556 2.25004 20.5217 2.25006 20.9594L2.25006 21C2.25006 21.4142 2.58585 21.75 3.00006 21.75H21.0001C21.4143 21.75 21.7501 21.4142 21.7501 21V20.9595C21.7501 20.5218 21.7501 20.1556 21.7296 19.8545C21.7079 19.5374 21.6613 19.2376 21.5411 18.9473C21.262 18.2736 20.7265 17.7381 20.0528 17.459C19.7624 17.3387 19.4626 17.2922 19.1456 17.2705C18.8445 17.25 18.4783 17.25 18.0406 17.25Z" fill="currentColor"/></svg>
