<svg xmlns="http://www.w3.org/2000/svg" viewBox="0 0 24 24" fill="none"><path d="M22.2284 11.7874H22.2303H22.2294C22.225 11.7899 22.2185 11.7943 22.2099 11.7996C22.182 11.8168 22.1337 11.8485 22.0717 11.8957C21.947 11.9906 21.7708 12.147 21.5911 12.375C21.2412 12.819 20.8489 13.5735 20.8489 14.7857C20.8489 15.3183 20.4236 15.75 19.899 15.75C19.3743 15.75 18.949 15.3183 18.949 14.7857C18.949 13.4215 19.3162 12.391 19.7756 11.6443C16.0402 10.7161 13.2491 7.28255 13.2491 3.21429C13.2491 2.68173 13.6744 2.25 14.1991 2.25C14.7237 2.25 15.149 2.68173 15.149 3.21429C15.149 6.17862 17.0612 8.71301 19.6939 9.61304C19.6436 9.52467 19.5904 9.43479 19.5399 9.34089C18.7703 7.90857 17.999 5.82203 17.999 3.21429C17.999 2.68173 18.4243 2.25 18.949 2.25C19.4736 2.25 19.899 2.68173 19.899 3.21429C19.899 5.42781 20.5527 7.19858 21.208 8.41804C21.5354 9.0274 21.8612 9.49559 22.1013 9.80702C22.2213 9.96255 22.32 10.0785 22.3852 10.1526C22.4177 10.1895 22.4419 10.2159 22.4567 10.2317C22.4634 10.239 22.468 10.2441 22.4706 10.2468C22.6865 10.466 22.7857 10.7771 22.7368 11.083C22.6882 11.387 22.4988 11.6481 22.2284 11.7874Z" fill="currentColor"/><path d="M1.77021 11.7874C1.77459 11.7899 1.78019 11.7943 1.78876 11.7996C1.81664 11.8168 1.86499 11.8485 1.92699 11.8957C2.05168 11.9906 2.22783 12.147 2.40755 12.375C2.7575 12.819 3.14972 13.5735 3.14972 14.7857C3.14972 15.3183 3.57504 15.75 4.0997 15.75C4.62436 15.75 5.04969 15.3183 5.04969 14.7857C5.04969 13.4215 4.68246 12.391 4.22309 11.6443C7.95842 10.7161 10.7496 7.28255 10.7496 3.21429C10.7496 2.68173 10.3243 2.25 9.79959 2.25C9.27493 2.25 8.84961 2.68173 8.84961 3.21429C8.84961 6.17862 6.93747 8.71301 4.30473 9.61304C4.35503 9.52467 4.40827 9.43479 4.45873 9.34089C5.22836 7.90857 5.99967 5.82203 5.99967 3.21429C5.99967 2.68173 5.57435 2.25 5.04969 2.25C4.52503 2.25 4.0997 2.68173 4.0997 3.21429C4.0997 5.42781 3.44599 7.19858 2.7907 8.41804C2.46323 9.0274 2.13741 9.49559 1.89731 9.80702C1.7774 9.96255 1.67866 10.0785 1.61343 10.1526C1.581 10.1895 1.55672 10.2159 1.54199 10.2317C1.53525 10.239 1.53067 10.2441 1.52808 10.2468C1.31216 10.466 1.21293 10.7771 1.26182 11.083C1.31042 11.387 1.49986 11.6481 1.77021 11.7874Z" fill="currentColor"/><path d="M18.04 17.25L17.9995 17.25L17.9589 17.25C17.5212 17.25 17.1551 17.25 16.8539 17.2705C16.5369 17.2922 16.2371 17.3387 15.9467 17.459C15.5841 17.6092 15.2635 17.8359 14.9995 18.1162C14.7354 17.8359 14.4149 17.6092 14.0522 17.459C13.7618 17.3387 13.462 17.2922 13.145 17.2705C12.8439 17.25 12.4777 17.25 12.04 17.25L11.9995 17.25L11.9589 17.25C11.5212 17.25 11.1551 17.25 10.8539 17.2705C10.5369 17.2922 10.2371 17.3387 9.94672 17.459C9.58406 17.6092 9.26352 17.8359 8.99945 18.1162C8.73539 17.8359 8.41485 17.6092 8.05219 17.459C7.76184 17.3387 7.46202 17.2922 7.14496 17.2705C6.84385 17.25 6.47771 17.25 6.04002 17.25L5.99945 17.25L5.95888 17.25C5.5212 17.25 5.15505 17.25 4.85395 17.2705C4.53689 17.2922 4.23707 17.3387 3.94672 17.459C3.27304 17.7381 2.73754 18.2736 2.45844 18.9473C2.33817 19.2376 2.2916 19.5374 2.26996 19.8545C2.24942 20.1556 2.24943 20.5217 2.24945 20.9594L2.24945 21C2.24945 21.4142 2.58524 21.75 2.99945 21.75H20.9995C21.4137 21.75 21.7495 21.4142 21.7495 21V20.9595C21.7495 20.5218 21.7495 20.1556 21.7289 19.8545C21.7073 19.5374 21.6607 19.2376 21.5405 18.9473C21.2614 18.2736 20.7259 17.7381 20.0522 17.459C19.7618 17.3387 19.462 17.2922 19.145 17.2705C18.8439 17.25 18.4777 17.25 18.04 17.25Z" fill="currentColor"/></svg>
