<svg xmlns="http://www.w3.org/2000/svg" fill="none" viewBox="0 0 48 48">
  <g>
    <path stroke="currentColor" stroke-linejoin="round" d="M16.2728 34.1328c-1.2761 0.0617 -2.2249 0.9026 -2.263 2.1797 -0.0063 0.2089 -0.0098 0.4376 -0.0098 0.6875s0.0035 0.4786 0.0098 0.6875c0.0381 1.2771 0.9869 2.118 2.263 2.1797 1.017 0.0492 2.5211 0.0958 4.7272 0.1185L21 40c0 1.7248 0.0343 2.952 0.0797 3.821 0.0671 1.2827 0.9732 2.1515 2.2574 2.1736 0.2022 0.0034 0.4228 0.0054 0.6629 0.0054 0.2401 0 0.4607 -0.002 0.6629 -0.0054 1.2842 -0.0221 2.1903 -0.8909 2.2574 -2.1736C26.9657 42.952 27 41.7248 27 40l0 -0.0143c2.2061 -0.0227 3.7102 -0.0693 4.7272 -0.1185 1.2761 -0.0617 2.2249 -0.9026 2.263 -2.1797 0.0063 -0.2089 0.0098 -0.4376 0.0098 -0.6875s-0.0035 -0.4786 -0.0098 -0.6875c-0.0381 -1.2771 -0.9869 -2.118 -2.263 -2.1797C30.3032 34.0639 27.9242 34 24 34s-6.3032 0.0639 -7.7272 0.1328Z" stroke-width="3.429"></path>
    <path stroke="currentColor" stroke-linejoin="round" d="M3.71631 45.9176c-0.961 -0.1374 -1.45984 -1.0008 -1.49798 -1.9708C2.1295 41.6871 2 36.286 2 24s0.1295 -17.68711 0.21833 -19.9468c0.03813 -0.97001 0.53698 -1.83339 1.49797 -1.97076C4.06342 2.03283 4.48694 2 5 2c0.51306 0 0.93658 0.03283 1.28369 0.08244 0.961 0.13737 1.45985 1.00075 1.49798 1.97076 0.02144 0.54537 0.04525 1.27373 0.06903 2.2377C10.2842 6.15388 15.0168 6 24 6s13.7158 0.15388 16.1493 0.2909c0.0238 -0.96397 0.0476 -1.69233 0.069 -2.2377 0.0382 -0.97001 0.537 -1.83339 1.498 -1.97076C42.0634 2.03283 42.4869 2 43 2c0.5131 0 0.9366 0.03283 1.2837 0.08244 0.961 0.13737 1.4598 1.00075 1.498 1.97076C45.8705 6.31289 46 11.714 46 24s-0.1295 17.6871 -0.2183 19.9468c-0.0382 0.97 -0.537 1.8334 -1.498 1.9708C43.9366 45.9672 43.5131 46 43 46c-0.5131 0 -0.9366 -0.0328 -1.2837 -0.0824 -0.961 -0.1374 -1.4598 -1.0008 -1.498 -1.9708C40.1295 41.6871 40 36.286 40 24c0 -3.2087 0.0088 -5.9478 0.0235 -8.2839C37.554 15.8513 32.8308 16 24 16c-8.8308 0 -13.554 -0.1487 -16.02347 -0.2839C7.99117 18.0522 8 20.7913 8 24c0 12.286 -0.1295 17.6871 -0.21833 19.9468 -0.03813 0.97 -0.53698 1.8334 -1.49797 1.9708C5.93658 45.9672 5.51306 46 5 46c-0.51306 0 -0.93658 -0.0328 -1.28369 -0.0824Z" stroke-width="3.429"></path>
  </g>
</svg>
