<svg xmlns="http://www.w3.org/2000/svg" fill="none" viewBox="0 0 48 48">
  <g>
    <path fill="currentColor" fill-rule="evenodd" d="M5 0c-0.59797 0 -1.11663 0.0382379 -1.56668 0.102565L3.4333 0.102568C1.134 0.431236 0.278391 2.48611 0.219874 3.97464 0.129484 6.27391 0 11.706 0 24s0.129486 17.7261 0.219875 20.0254c0.058518 1.4885 0.914125 3.5434 3.213425 3.872C3.88336 47.9618 4.40203 48 5 48s1.11664 -0.0382 1.5667 -0.1026c2.29931 -0.3286 3.15491 -2.3835 3.21343 -3.872C9.87052 41.7261 10 36.294 10 24c0 -2.2953 -0.00451 -4.3511 -0.01244 -6.1918C12.7983 17.9118 17.1891 18 24 18s11.2017 -0.0882 14.0124 -0.1918C38.0045 19.6489 38 21.7047 38 24c0 12.294 0.1295 17.7261 0.2199 20.0254 0.0585 1.4885 0.9141 3.5434 3.2134 3.872 0.4501 0.0644 0.9687 0.1026 1.5667 0.1026s1.1166 -0.0382 1.5667 -0.1026c2.2993 -0.3286 3.1549 -2.3835 3.2134 -3.872C47.8705 41.7261 48 36.294 48 24s-0.1295 -17.72609 -0.2199 -20.02537C47.7216 2.48611 46.866 0.431235 44.5667 0.102568l-0.283 1.979662 0.283 -1.979665C44.1166 0.0382378 43.598 0 43 0s-1.1166 0.0382379 -1.5667 0.102565l0.2829 1.978905 -0.2829 -1.978902C39.134 0.431236 38.2784 2.48611 38.2199 3.97464l-0.0086 0.2246C35.41 4.09247 30.9733 4 24 4s-11.41 0.09247 -14.2113 0.19924l-0.00858 -0.2246C9.72161 2.48611 8.866 0.431236 6.5667 0.102568L6.56668 0.102565C6.11663 0.0382378 5.59797 0 5 0m-0.78321 4.13176c0.00141 -0.03597 0.00454 -0.06823 0.00864 -0.09665C4.4359 4.01418 4.69216 4 5 4s0.5641 0.01418 0.77457 0.03511c0.0041 0.02842 0.00723 0.06068 0.00864 0.09665 0.02099 0.53389 0.04451 1.25232 0.0681 2.20847 0.01335 0.54122 0.24555 1.05391 0.64354 1.42093s0.92776 0.55701 1.46829 0.52658C10.3432 8.15372 15.0339 8 24 8s13.6568 0.15372 16.0369 0.28774c0.5405 0.03043 1.0703 -0.15956 1.4683 -0.52658 0.3979 -0.36702 0.6301 -0.87971 0.6435 -1.42093 0.0236 -0.95615 0.0471 -1.67459 0.0681 -2.20847 0.0014 -0.03597 0.0045 -0.06823 0.0086 -0.09665C42.4359 4.01417 42.6922 4 43 4s0.5641 0.01418 0.7746 0.03511c0.0041 0.02842 0.0072 0.06069 0.0086 0.09666C43.8705 6.35187 44 11.722 44 24s-0.1295 17.6481 -0.2168 19.8682c-0.0014 0.036 -0.0045 0.0683 -0.0086 0.0967 -0.2105 0.0209 -0.4668 0.0351 -0.7746 0.0351s-0.5641 -0.0142 -0.7746 -0.0351c-0.0041 -0.0284 -0.0072 -0.0607 -0.0086 -0.0967C42.1295 41.6481 42 36.278 42 24c0 -3.2051 0.0088 -5.9399 0.0234 -8.2714 0.0035 -0.5516 -0.221 -1.0801 -0.6204 -1.4606 -0.3993 -0.3804 -0.9381 -0.5791 -1.4889 -0.5489C37.4964 13.8515 32.8138 14 24 14s-13.4964 -0.1485 -15.91412 -0.2809c-0.55077 -0.0302 -1.08954 0.1685 -1.4889 0.5489 -0.39936 0.3805 -0.62386 0.909 -0.62041 1.4606C5.99118 18.0601 6 20.7949 6 24c0 12.278 -0.12951 17.6481 -0.21679 19.8682 -0.00141 0.036 -0.00454 0.0683 -0.00863 0.0967C5.56411 43.9858 5.30784 44 5 44s-0.5641 -0.0142 -0.77457 -0.0351c-0.0041 -0.0284 -0.00723 -0.0607 -0.00864 -0.0967C4.12951 41.6481 4 36.278 4 24s0.12951 -17.64814 0.21679 -19.86824M16.2003 32.6345C17.657 32.5641 20.0619 32.5 24 32.5s6.343 0.0641 7.7997 0.1345c1.9473 0.0942 3.6252 1.4673 3.6899 3.6332 0.0067 0.2246 0.0104 0.4682 0.0104 0.7323s-0.0037 0.5077 -0.0104 0.7323c-0.0647 2.1659 -1.7426 3.539 -3.6899 3.6332 -0.7923 0.0383 -1.864 0.0747 -3.3088 0.0999 -0.0132 1.0118 -0.04 1.8079 -0.0727 2.4339 -0.0514 0.9844 -0.4347 1.8933 -1.1304 2.5624 -0.6951 0.6685 -1.617 1.0158 -2.5991 1.0326 -0.2113 0.0037 -0.4404 0.0057 -0.6887 0.0057s-0.4774 -0.002 -0.6887 -0.0057c-0.9821 -0.0168 -1.904 -0.3641 -2.5991 -1.0326 -0.6957 -0.6691 -1.079 -1.578 -1.1304 -2.5624 -0.0327 -0.626 -0.0595 -1.4221 -0.0727 -2.4339 -1.4448 -0.0252 -2.5165 -0.0616 -3.3088 -0.0999 -1.9473 -0.0942 -3.6252 -1.4673 -3.6899 -3.6332 -0.0067 -0.2246 -0.0104 -0.4682 -0.0104 -0.7323s0.0037 -0.5077 0.0104 -0.7323c0.0647 -2.1659 1.7426 -3.539 3.6899 -3.6332" clip-rule="evenodd" stroke-width="1"></path>
  </g>
</svg>
