<svg xmlns="http://www.w3.org/2000/svg" fill="none" viewBox="0 0 48 48">
  <g>
    <path fill="currentColor" fill-rule="evenodd" d="M5 1c-0.55551 0 -1.02661 0.03553 -1.42519 0.0925l-0.00001 0.00001c-1.63015 0.23301 -2.30737 1.69214 -2.3557 2.92141C1.12949 6.2934 1 11.71 1 24c0 12.29 0.12949 17.7066 0.2191 19.9861 0.04833 1.2293 0.72555 2.6884 2.35571 2.9214C3.97339 46.9645 4.44449 47 5 47s1.02661 -0.0355 1.4252 -0.0925c1.63015 -0.233 2.30737 -1.6921 2.3557 -2.9214C8.87051 41.7066 9 36.29 9 24c0 -2.7388 -0.00643 -5.1361 -0.01742 -7.2332C11.6852 16.8865 16.2808 17 24 17s12.3148 -0.1135 15.0174 -0.2332C39.0064 18.8639 39 21.2612 39 24c0 12.29 0.1295 17.7066 0.2191 19.9861 0.0483 1.2292 0.7256 2.6884 2.3557 2.9214 0.3986 0.057 0.8697 0.0925 1.4252 0.0925s1.0266 -0.0355 1.4252 -0.0925c1.6301 -0.233 2.3074 -1.6921 2.3557 -2.9214C46.8705 41.7066 47 36.29 47 24s-0.1295 -17.7066 -0.2191 -19.98608c-0.0483 -1.22927 -0.7256 -2.6884 -2.3557 -2.92141l-0.1414 0.98939 0.1414 -0.9894C44.0266 1.03553 43.5555 1 43 1s-1.0266 0.03553 -1.4252 0.0925l0.1415 0.98985 -0.1415 -0.98984c-1.6301 0.23301 -2.3074 1.69214 -2.3557 2.92141 -0.0132 0.3368 -0.0273 0.74164 -0.0417 1.22648C36.4973 5.11804 31.8734 5 24 5s-12.4973 0.11804 -15.17736 0.2404c-0.01441 -0.48484 -0.0285 -0.88968 -0.04174 -1.22648 -0.04833 -1.22927 -0.72555 -2.6884 -2.3557 -2.92141l-0.00001 -0.00001C6.0266 1.03553 5.55551 1 5 1Zm19 32c-3.9335 0 -6.3297 0.0641 -7.7755 0.134 -1.7236 0.0833 -3.1585 1.279 -3.2143 3.1486C13.0037 36.502 13 36.7407 13 37c0 0.2593 0.0037 0.498 0.0102 0.7174 0.0558 1.8696 1.4907 3.0653 3.2143 3.1486 0.872 0.0422 2.0891 0.0822 3.7794 0.1073 0.0102 1.2422 0.0398 2.1852 0.0772 2.8999 0.0455 0.87 0.3821 1.6553 0.9777 2.2281 0.5952 0.5724 1.3923 0.8782 2.2611 0.8931 0.2083 0.0036 0.4345 0.0056 0.6801 0.0056 0.2456 0 0.4718 -0.002 0.6801 -0.0056 0.8688 -0.0149 1.6659 -0.3207 2.2611 -0.8931 0.5956 -0.5728 0.9322 -1.358 0.9777 -2.2281 0.0374 -0.7147 0.067 -1.6577 0.0772 -2.8999 1.6903 -0.0251 2.9074 -0.0651 3.7794 -0.1073 1.7236 -0.0833 3.1585 -1.279 3.2143 -3.1486C34.9963 37.498 35 37.2593 35 37c0 -0.2593 -0.0037 -0.498 -0.0102 -0.7174 -0.0558 -1.8696 -1.4907 -3.0653 -3.2143 -3.1486C30.3297 33.0641 27.9335 33 24 33Z" clip-rule="evenodd" stroke-width="3.429"></path>
  </g>
</svg>
