<svg xmlns="http://www.w3.org/2000/svg" viewBox="0 0 24 24" fill="none"><path opacity="0.4" d="M17.0001 2.74997C20.3485 2.74997 22.75 5.45199 22.7501 8.69431C22.7501 10.4254 21.9753 12.1618 20.8995 13.749H14.0001C12.7574 13.749 11.7501 14.7564 11.7501 15.999C11.7501 17.2416 12.7574 18.249 14.0001 18.249H16.8565C16.0562 18.9725 15.2804 19.6118 14.6075 20.1347L14.0381 20.5683C12.8985 21.4204 11.3812 21.474 10.1944 20.7285L9.96198 20.5683C8.52916 19.4969 6.3796 17.7279 4.58112 15.6601C2.81016 13.624 1.25006 11.153 1.25006 8.69431C1.25011 5.45199 3.65162 2.74997 7.00006 2.74997C8.5919 2.74997 10.1339 3.26264 12.0001 4.96481C13.8662 3.26264 15.4082 2.74997 17.0001 2.74997Z" fill="currentColor"/><path d="M21.0001 14.999C21.5523 14.999 22.0001 15.4467 22.0001 15.999C22.0001 16.5512 21.5523 16.999 21.0001 16.999H14.0001C13.4478 16.999 13.0001 16.5512 13.0001 15.999C13.0001 15.4467 13.4478 14.999 14.0001 14.999H21.0001Z" fill="currentColor"/></svg>
