<svg xmlns="http://www.w3.org/2000/svg" viewBox="0 0 24 24" fill="none"><path opacity="0.4" d="M21.5 5.75C21.9142 5.75 22.25 6.08579 22.25 6.5V13.5498C22.25 14.559 22.2479 15.4533 22.2227 16.2432C21.9964 16.0041 21.7314 15.7426 21.4268 15.4814C20.3758 14.5807 18.676 13.5001 16.5 13.5C14.324 13.5 12.6242 14.5807 11.5732 15.4814C11.0323 15.9452 10.6111 16.4055 10.3232 16.751C10.1661 16.9396 9.89332 17.3129 9.83594 17.3906C9.38432 18.068 9.38863 18.9517 9.84668 19.625C9.9048 19.7024 10.1789 20.0727 10.3369 20.2598C10.6271 20.6032 11.052 21.0609 11.5938 21.5225C11.8723 21.7598 12.1975 22.0096 12.5645 22.25H10.4502C8.60939 22.25 7.15129 22.25 6.01074 22.0967C4.83844 21.939 3.88991 21.6067 3.1416 20.8584C2.39329 20.1101 2.06096 19.1616 1.90332 17.9893C1.74998 16.8487 1.74999 15.3906 1.75 13.5498V6.5C1.75 6.08579 2.08579 5.75 2.5 5.75H21.5Z" fill="currentColor"/><path d="M16.5 14.75C18.2534 14.75 19.6722 15.624 20.6133 16.4307C21.0895 16.8389 21.4625 17.2456 21.7168 17.5508C21.8444 17.7039 22.0996 18.0113 22.1797 18.1826C22.2904 18.4196 22.2703 18.701 22.1201 18.9219C22.0509 19.0141 21.8371 19.3004 21.708 19.4531C21.4507 19.7576 21.074 20.1637 20.5957 20.5713C19.6524 21.3749 18.2337 22.25 16.5 22.25C14.7663 22.25 13.3476 21.3749 12.4043 20.5713C11.926 20.1638 11.5493 19.7576 11.292 19.4531C11.163 19.3004 10.9492 19.0142 10.8799 18.9219C10.7081 18.6694 10.7066 18.338 10.876 18.084C10.9443 17.9914 11.1556 17.7039 11.2832 17.5508C11.5375 17.2456 11.9105 16.8389 12.3867 16.4307C13.3278 15.624 14.7466 14.75 16.5 14.75ZM16.4932 17C15.6684 17.0001 15 17.6716 15 18.5C15 19.3284 15.6684 19.9999 16.4932 20H16.5068C17.3315 19.9998 18 19.3283 18 18.5C18 17.6717 17.3315 17.0002 16.5068 17H16.4932Z" fill="currentColor"/><path d="M14.4396 1.75015C16.2576 1.75015 17.4963 1.72803 18.5753 2.23452C19.6541 2.74115 20.3782 3.68443 21.4689 5.04995L22.0538 5.78432C22.2046 5.97314 22.2643 6.19838 22.2433 6.41616C22.2014 6.04161 21.8849 5.75014 21.4991 5.75014H19.5822C18.6143 4.5477 18.2183 4.11649 17.7023 3.87417C17.1323 3.60657 16.4537 3.58413 14.4396 3.58413H9.55871C7.54495 3.58413 6.86688 3.60668 6.297 3.87417C5.78092 4.11647 5.38493 4.54777 4.41711 5.75014H2.49914C2.1134 5.75017 1.79585 6.04157 1.75403 6.41616C1.73303 6.19848 1.79382 5.97307 1.94446 5.78432L2.53039 5.04995C3.62088 3.68462 4.34437 2.74115 5.42297 2.23452C6.50198 1.72791 7.74064 1.75014 9.55871 1.75015H14.4396Z" fill="currentColor"/></svg>
