<svg xmlns="http://www.w3.org/2000/svg" viewBox="0 0 24 24" fill="none"><path d="M21.4999 5.75C21.9141 5.75 22.2499 6.08579 22.2499 6.5V13.5498C22.2499 14.559 22.2478 15.4533 22.2225 16.2432C21.9963 16.0041 21.7313 15.7426 21.4266 15.4814C20.3757 14.5807 18.6759 13.5001 16.4999 13.5C14.3239 13.5 12.6241 14.5807 11.5731 15.4814C11.0321 15.9452 10.611 16.4055 10.3231 16.751C10.1659 16.9396 9.8932 17.3129 9.83582 17.3906C9.3842 18.068 9.38851 18.9517 9.84656 19.625C9.90468 19.7024 10.1788 20.0727 10.3368 20.2598C10.627 20.6032 11.0519 21.0609 11.5936 21.5225C11.8722 21.7598 12.1974 22.0096 12.5643 22.25H10.4501C8.60927 22.25 7.15117 22.25 6.01062 22.0967C4.83832 21.939 3.88979 21.6067 3.14148 20.8584C2.39317 20.1101 2.06084 19.1616 1.9032 17.9893C1.74986 16.8487 1.74987 15.3906 1.74988 13.5498V6.5C1.74988 6.08579 2.08566 5.75 2.49988 5.75H21.4999Z" fill="currentColor"/><path d="M14.4404 1.75015C16.2586 1.75015 17.4969 1.72783 18.576 2.23445C19.6548 2.7411 20.3787 3.68426 21.4694 5.04986L22.0547 5.78392C22.3781 6.18893 22.2906 6.76302 21.8593 7.06674C21.428 7.37038 20.8166 7.2882 20.4932 6.88323L19.9069 6.15006C18.6985 4.63721 18.2726 4.14114 17.7027 3.87356C17.1328 3.60597 16.4546 3.58352 14.4404 3.58352H9.55934C7.54517 3.58352 6.86696 3.60597 6.29702 3.87356C5.72711 4.14114 5.30123 4.63721 4.0929 6.15006L3.5066 6.88323C3.18315 7.2882 2.57178 7.37038 2.14047 7.06674C1.7092 6.76302 1.62168 6.18893 1.94504 5.78392L2.53039 5.04986C3.62109 3.68426 4.34496 2.7411 5.42376 2.23445C6.50281 1.72783 7.74117 1.75015 9.55934 1.75015H14.4404Z" fill="currentColor"/><path d="M16.4999 14.75C18.2533 14.75 19.6721 15.624 20.6132 16.4307C21.0894 16.8389 21.4623 17.2456 21.7167 17.5508C21.8443 17.7039 22.0995 18.0113 22.1796 18.1826C22.2903 18.4196 22.2702 18.701 22.12 18.9219C22.0507 19.0141 21.8369 19.3004 21.7079 19.4531C21.4506 19.7576 21.0739 20.1637 20.5956 20.5713C19.6523 21.3749 18.2336 22.25 16.4999 22.25C14.7662 22.25 13.3475 21.3749 12.4042 20.5713C11.9259 20.1638 11.5492 19.7576 11.2919 19.4531C11.1628 19.3004 10.9491 19.0142 10.8798 18.9219C10.708 18.6694 10.7065 18.338 10.8759 18.084C10.9442 17.9914 11.1555 17.7039 11.2831 17.5508C11.5374 17.2456 11.9103 16.8389 12.3866 16.4307C13.3277 15.624 14.7465 14.75 16.4999 14.75ZM16.493 17C15.6683 17.0001 14.9999 17.6716 14.9999 18.5C14.9999 19.3284 15.6683 19.9999 16.493 20H16.5067C17.3313 19.9998 17.9999 19.3283 17.9999 18.5C17.9999 17.6717 17.3313 17.0002 16.5067 17H16.493Z" fill="currentColor"/></svg>
