<svg xmlns="http://www.w3.org/2000/svg" viewBox="0 0 24 24" fill="none"><path d="M16.0645 5.25C17.4275 5.24997 18.5267 5.24995 19.3916 5.36621C20.2917 5.48723 21.0494 5.74672 21.6514 6.34864L21.7607 6.46289C22.2856 7.04541 22.5203 7.76456 22.6338 8.6084C22.7501 9.47331 22.75 10.5725 22.75 11.9356V13.0645C22.75 14.4275 22.75 15.5267 22.6338 16.3916C22.5203 17.2354 22.2856 17.9546 21.7607 18.5371L21.6514 18.6514C21.1904 19.1123 20.6377 19.3706 20 19.5215V20.75C20 21.3023 19.5523 21.75 19 21.75C18.4477 21.75 18 21.3023 18 20.75V19.7324C17.4249 19.7493 16.7812 19.75 16.0645 19.75H7.93555C7.21884 19.75 6.5751 19.7493 6 19.7324V20.75C6 21.3023 5.55229 21.75 5 21.75C4.44772 21.75 4 21.3023 4 20.75V19.5234C3.41407 19.385 2.9 19.1546 2.46289 18.7607L2.34863 18.6514C1.74672 18.0495 1.48723 17.2917 1.36621 16.3916C1.24995 15.5267 1.24997 14.4275 1.25 13.0645V11.9356C1.24997 10.5725 1.24995 9.47331 1.36621 8.6084C1.48723 7.70829 1.74672 6.95055 2.34863 6.34864C2.95055 5.74672 3.70829 5.48723 4.6084 5.36621C5.47331 5.24995 6.57249 5.24997 7.93555 5.25H16.0645ZM5 9.25C4.58579 9.25 4.25 9.58579 4.25 10V15L4.25391 15.0772C4.29253 15.4551 4.61184 15.75 5 15.75C5.38816 15.75 5.70747 15.4551 5.74609 15.0772L5.75 15V10C5.75 9.58579 5.41421 9.25 5 9.25ZM12.25 9.25C11.1454 9.25 10.25 10.1454 10.25 11.25V13.75L10.2607 13.9541C10.363 14.9628 11.2144 15.75 12.25 15.75L12.4541 15.7393C13.4628 15.637 14.25 14.7857 14.25 13.75V11.25C14.25 10.1454 13.3546 9.25 12.25 9.25ZM17.75 9.25C16.6454 9.25 15.75 10.1454 15.75 11.25V13.75L15.7607 13.9541C15.863 14.9628 16.7144 15.75 17.75 15.75L17.9541 15.7393C18.9628 15.637 19.75 14.7857 19.75 13.75V11.25C19.75 10.1454 18.8546 9.25 17.75 9.25ZM7.99024 13.25C7.57603 13.25 7.24024 13.5858 7.24024 14C7.24024 14.4142 7.57603 14.75 7.99024 14.75H7.99902L8.07617 14.7461C8.45424 14.7076 8.74902 14.3882 8.74902 14C8.74902 13.6118 8.45424 13.2924 8.07617 13.2539L7.99902 13.25H7.99024ZM12.25 10.75C12.5261 10.75 12.75 10.9739 12.75 11.25V13.75C12.75 13.9917 12.5786 14.1937 12.3506 14.2402L12.25 14.25C12.0083 14.25 11.8063 14.0786 11.7598 13.8506L11.75 13.75V11.25C11.75 10.9739 11.9739 10.75 12.25 10.75ZM17.75 10.75C18.0261 10.75 18.25 10.9739 18.25 11.25V13.75C18.25 13.9917 18.0786 14.1937 17.8506 14.2402L17.75 14.25C17.5083 14.25 17.3063 14.0786 17.2598 13.8506L17.25 13.75V11.25C17.25 10.9739 17.4739 10.75 17.75 10.75ZM7.99902 10.25C7.58489 10.2501 7.24902 10.5858 7.24902 11C7.24902 11.4142 7.58489 11.7499 7.99902 11.75H8.00781L8.08496 11.7461C8.4631 11.7076 8.75781 11.3883 8.75781 11C8.75781 10.6117 8.4631 10.2924 8.08496 10.2539L8.00781 10.25H7.99902ZM13.167 2.25C13.8231 2.24997 14.3781 2.24994 14.832 2.30176C15.3168 2.35711 15.7612 2.47851 16.165 2.76953L16.3105 2.88282C16.6325 3.1573 16.8503 3.49975 17.0303 3.88672C17.0475 3.92385 17.0621 3.96304 17.0791 4.00196C16.7308 3.9998 16.37 4 15.999 4H7.99902C7.62762 4 7.26659 4.00074 6.91797 4.00293C6.93519 3.96361 6.95033 3.92423 6.96777 3.88672C7.17359 3.4443 7.42915 3.06063 7.83301 2.76953L7.98633 2.66797C8.34859 2.44921 8.74191 2.35019 9.16602 2.30176C9.63161 2.24861 10.2035 2.25 10.8818 2.25H13.167Z" fill="currentColor" fill-rule="evenodd" clip-rule="evenodd"/></svg>
