<svg xmlns="http://www.w3.org/2000/svg" viewBox="0 0 24 24" fill="none"><path d="M19.3 9.54902C19.3 8.39743 19.2994 7.58762 19.2514 6.95442C19.2043 6.33161 19.1151 5.95868 18.9801 5.66902C18.641 4.94217 18.0569 4.35798 17.33 4.01895C17.0403 3.88387 16.6674 3.79477 16.0446 3.74758C15.4114 3.69963 14.6016 3.69902 13.45 3.69902H11.5C9.40415 3.69902 7.93014 3.7015 6.81543 3.85137C5.72893 3.99747 5.13091 4.26763 4.69976 4.69878C4.26861 5.12993 3.99845 5.72795 3.85234 6.81445C3.70248 7.92916 3.7 9.40317 3.7 11.499V13.449C3.7 14.6006 3.70061 15.4104 3.74856 16.0436C3.79575 16.6664 3.88485 17.0394 4.01992 17.329C4.35896 18.0559 4.94315 18.6401 5.67 18.9791C5.95966 19.1142 6.33258 19.2033 6.9554 19.2505C7.5886 19.2984 8.39841 19.299 9.55 19.299C10.0885 19.299 10.525 19.7355 10.525 20.274C10.525 20.8125 10.0885 21.249 9.55 21.249C8.42824 21.249 7.53264 21.2496 6.80876 21.1947C6.0747 21.1392 5.43821 21.0223 4.84639 20.7463C3.70377 20.2135 2.78555 19.2952 2.25274 18.1526C1.97677 17.5608 1.85986 16.9243 1.80427 16.1903C1.74947 15.4664 1.75 14.5708 1.75 13.449V11.499C1.75 9.4583 1.74808 7.82936 1.91948 6.55452C2.09467 5.25177 2.46723 4.17388 3.32105 3.32007C4.17486 2.46626 5.25275 2.09369 6.55549 1.91851C7.83034 1.74711 9.45928 1.74902 11.5 1.74902H13.45C14.5718 1.74902 15.4674 1.74849 16.1912 1.8033C16.9253 1.85888 17.5618 1.97579 18.1536 2.25176C19.2962 2.78457 20.2145 3.70279 20.7473 4.84541C21.0232 5.43723 21.1401 6.07373 21.1957 6.80779C21.2505 7.53166 21.25 8.42727 21.25 9.54902C21.25 10.0875 20.8135 10.524 20.275 10.524C19.7365 10.524 19.3 10.0875 19.3 9.54902Z" fill="currentColor"/><path opacity="0.4" d="M21.6192 21.4417C22.0233 21.0375 22.25 20.4888 22.25 19.9172C22.25 19.3456 22.0233 18.797 21.6192 18.3928L19.6045 16.3792C19.6959 16.3221 19.8041 16.2568 19.9341 16.1783L19.9492 16.1692L19.9828 16.1489C20.4384 15.8739 20.8392 15.632 21.125 15.4085C21.405 15.1895 21.7565 14.8538 21.8086 14.342C21.8244 14.1868 21.8153 14.0303 21.7832 13.8782L21.7442 13.7278L21.6738 13.5549C21.4852 13.1759 21.1338 12.9631 20.8545 12.8264C20.5206 12.663 20.0649 12.5064 19.5469 12.3264L14.4043 10.5393C13.4594 10.2109 12.6703 9.93459 12.0557 9.81665C11.45 9.70044 10.7444 9.68306 10.2139 10.2131C9.68344 10.7434 9.70107 11.4486 9.8174 12.054C9.93358 12.6585 10.2028 13.4319 10.5246 14.3563L10.5401 14.4006L12.333 19.551L12.3443 19.5833C12.5177 20.0817 12.6701 20.5196 12.8281 20.843C12.9824 21.1588 13.2338 21.5678 13.7158 21.7278C13.9241 21.7969 14.1453 21.82 14.3633 21.7952C14.8677 21.7377 15.198 21.3898 15.4141 21.1126C15.6343 20.83 15.8723 20.4351 16.1431 19.9859L16.1651 19.9495C16.2434 19.8196 16.3083 19.711 16.3653 19.6194L18.3535 21.6077C18.7645 22.0185 19.3222 22.2493 19.9033 22.2493C20.4843 22.2491 21.0413 22.0183 21.4522 21.6077L21.6192 21.4417Z" fill="currentColor"/></svg>
