<svg xmlns="http://www.w3.org/2000/svg" viewBox="0 0 24 24" fill="none"><path d="M19.2995 9.54902C19.2995 8.39743 19.2989 7.58762 19.2509 6.95442C19.2038 6.33161 19.1147 5.95868 18.9796 5.66902C18.6406 4.94217 18.0564 4.35798 17.3295 4.01895C17.0399 3.88387 16.6669 3.79477 16.0441 3.74758C15.4109 3.69963 14.6011 3.69902 13.4495 3.69902H11.4995C9.40366 3.69902 7.92965 3.7015 6.81494 3.85137C5.72844 3.99747 5.13042 4.26763 4.69927 4.69878C4.26812 5.12993 3.99796 5.72795 3.85186 6.81445C3.70199 7.92916 3.69951 9.40317 3.69951 11.499V13.449C3.69951 14.6006 3.70012 15.4104 3.74807 16.0436C3.79526 16.6664 3.88436 17.0394 4.01943 17.329C4.35847 18.0559 4.94266 18.6401 5.66951 18.9791C5.95917 19.1142 6.3321 19.2033 6.95491 19.2505C7.58811 19.2984 8.39792 19.299 9.54951 19.299C10.088 19.299 10.5245 19.7355 10.5245 20.274C10.5245 20.8125 10.088 21.249 9.54951 21.249C8.42775 21.249 7.53215 21.2496 6.80828 21.1947C6.07422 21.1392 5.43772 21.0223 4.8459 20.7463C3.70328 20.2135 2.78506 19.2952 2.25225 18.1526C1.97628 17.5608 1.85937 16.9243 1.80379 16.1903C1.74898 15.4664 1.74951 14.5708 1.74951 13.449V11.499C1.74951 9.4583 1.7476 7.82936 1.919 6.55452C2.09418 5.25177 2.46674 4.17388 3.32056 3.32007C4.17437 2.46626 5.25226 2.09369 6.55501 1.91851C7.82985 1.74711 9.45879 1.74902 11.4995 1.74902H13.4495C14.5713 1.74902 15.4669 1.74849 16.1907 1.8033C16.9248 1.85888 17.5613 1.97579 18.1531 2.25176C19.2957 2.78457 20.214 3.70279 20.7468 4.84541C21.0227 5.43723 21.1397 6.07373 21.1952 6.80779C21.25 7.53166 21.2495 8.42727 21.2495 9.54902C21.2495 10.0875 20.813 10.524 20.2745 10.524C19.736 10.524 19.2995 10.0875 19.2995 9.54902Z" fill="currentColor"/><path d="M21.6187 21.4417C22.0229 21.0375 22.2495 20.4888 22.2495 19.9172C22.2495 19.3456 22.0228 18.797 21.6187 18.3928L19.604 16.3792C19.6954 16.3221 19.8036 16.2568 19.9336 16.1783L19.9487 16.1692L19.9823 16.1489C20.4379 15.8739 20.8387 15.632 21.1245 15.4085C21.4045 15.1895 21.756 14.8538 21.8081 14.342C21.8239 14.1868 21.8148 14.0303 21.7827 13.8782L21.7437 13.7278L21.6734 13.5549C21.4847 13.1759 21.1333 12.9631 20.854 12.8264C20.5201 12.663 20.0644 12.5064 19.5464 12.3264L14.4038 10.5393C13.4589 10.2109 12.6698 9.93459 12.0552 9.81665C11.4495 9.70044 10.7439 9.68306 10.2134 10.2131C9.68295 10.7434 9.70058 11.4486 9.81691 12.054C9.93309 12.6585 10.2023 13.4319 10.5241 14.3563L10.5396 14.4006L12.3325 19.551L12.3438 19.5833C12.5172 20.0817 12.6696 20.5196 12.8277 20.843C12.9819 21.1588 13.2333 21.5678 13.7153 21.7278C13.9236 21.7969 14.1448 21.82 14.3628 21.7952C14.8672 21.7377 15.1975 21.3898 15.4136 21.1126C15.6338 20.83 15.8718 20.4351 16.1426 19.9859L16.1646 19.9495C16.2429 19.8196 16.3078 19.711 16.3648 19.6194L18.353 21.6077C18.764 22.0185 19.3218 22.2493 19.9029 22.2493C20.4838 22.2491 21.0408 22.0183 21.4517 21.6077L21.6187 21.4417Z" fill="currentColor"/></svg>
