<svg xmlns="http://www.w3.org/2000/svg" fill="none" viewBox="0 0 48 48">
  <path fill="#8fbffa" d="M2.87275 33.1196c0.13303 0.951 0.74505 1.7413 1.61131 2.1556 3.11651 1.4909 10.83694 4.9715 14.98624 4.9715 4.1492 0 20.9291 -7.9568 24.0456 -9.4476 0.8663 -0.4144 1.4783 -1.2047 1.6114 -2.1557 0.0977 -3.2719 0.0977 -8.1712 0 -11.4431 -0.1331 -0.951 -0.7451 -1.7412 -1.6114 -2.1556 -3.1165 -1.4908 -10.8369 -4.9715 -14.9862 -4.9715 -4.1492 0 -20.92912 7.9568 -24.04564 9.4476 -0.86625 0.4144 -1.47828 1.2047 -1.61131 2.1557 -0.09775 3.2719 -0.09775 8.1712 0 11.4431Z" stroke-width="3.429"></path>
  <path fill="currentColor" fill-opacity="0.4" fill-rule="evenodd" d="M19.6955 26.7336c2.8927 0 21.8681 -9.0425 24.3981 -10.2882l0.645 -0.3173c-0.288 -0.4628 -0.711 -0.8387 -1.2227 -1.0834 -3.1165 -1.4908 -10.8369 -4.9715 -14.9862 -4.9715 -4.1492 0 -20.92912 7.9568 -24.04564 9.4476 -0.35879 0.1717 -0.67397 0.4078 -0.92957 0.6931l0.34419 0.2544C6.4287 21.714 16.8027 26.7336 19.6955 26.7336Z" clip-rule="evenodd" stroke-width="3.429"></path>
  <path fill="#8fbffa" d="M22.6274 16.7524c0 2.0323 -3.5513 3.1596 -7.0637 3.1596s-7.06364 -1.1273 -7.06364 -3.1596 3.55124 -3.1596 7.06364 -3.1596c3.5124 0 7.0637 1.1273 7.0637 3.1596Z" stroke-width="3.429"></path>
  <path fill="#8fbffa" d="M38.1273 10.9135c0 2.0323 -3.5512 3.1597 -7.0636 3.1597S24 12.9458 24 10.9135c0 -2.03222 3.5513 -3.15959 7.0637 -3.15959s7.0636 1.12737 7.0636 3.15959Z" stroke-width="3.429"></path>
  <path stroke="currentColor" stroke-linejoin="round" d="M37.4061 12.3803c2.4647 0.9624 4.7352 2.0071 6.1098 2.6647 0.8663 0.4144 1.4783 1.2047 1.6114 2.1557 0.0977 3.2719 0.0977 8.1712 0 11.4431 -0.1331 0.951 -0.7451 1.7412 -1.6114 2.1556 -3.1165 1.4908 -19.8964 9.4476 -24.0456 9.4476 -4.1493 0 -11.86973 -3.4806 -14.98624 -4.9714 -0.86626 -0.4144 -1.47828 -1.2046 -1.61131 -2.1556 -0.09775 -3.2719 -0.09775 -8.1712 0 -11.4431 0.13303 -0.9511 0.74506 -1.7413 1.61131 -2.1557 0.74426 -0.356 2.26777 -1.0808 4.21239 -1.9779m15.31965 -6.3939c-1.9661 0.6633 -4.282 1.5729 -6.6281 2.5534" stroke-width="3.429"></path>
  <path stroke="currentColor" stroke-linecap="round" stroke-linejoin="round" d="m44.7322 16.127 -0.6386 0.318c-2.53 1.2457 -21.5054 10.2882 -24.3981 10.2882 -2.8928 0 -13.2668 -5.0196 -15.79682 -6.2653l-0.40001 -0.1929" stroke-width="3.429"></path>
  <path stroke="currentColor" stroke-linecap="round" stroke-linejoin="round" d="m19.6954 26.7344 0 13.4965" stroke-width="3.429"></path>
  <path stroke="currentColor" stroke-linejoin="round" d="M22.6274 16.7524c0 2.0323 -3.5513 3.1596 -7.0637 3.1596s-7.06364 -1.1273 -7.06364 -3.1596c0 -2.0322 3.55124 -3.1596 7.06364 -3.1596 3.5124 0 7.0637 1.1274 7.0637 3.1596Z" stroke-width="3.429"></path>
  <path stroke="currentColor" stroke-linejoin="round" d="M38.1273 10.9135c0 2.0323 -3.5512 3.1597 -7.0636 3.1597S24 12.9458 24 10.9135c0 -2.03222 3.5513 -3.15959 7.0637 -3.15959s7.0636 1.12737 7.0636 3.15959Z" stroke-width="3.429"></path>
</svg>
