<svg xmlns="http://www.w3.org/2000/svg" fill="none" viewBox="0 0 48 48">
  <path fill="currentColor" fill-opacity="0.4" d="M1.30189 33.5226c0.14292 1.0217 0.80045 1.8707 1.73111 2.3159 3.34824 1.6017 11.6427 5.3411 16.1005 5.3411 4.4577 0 22.4853 -8.5484 25.8335 -10.1501 0.9307 -0.4452 1.5882 -1.2942 1.7311 -2.3159 0.105 -3.5152 0.105 -8.7787 0 -12.2939 -0.1429 -1.0217 -0.8004 -1.8708 -1.7311 -2.3159 -3.3482 -1.6017 -11.6427 -5.3411 -16.1005 -5.3411 -4.4577 0 -22.48525 8.5484 -25.83349 10.1501 -0.93067 0.4451 -1.5882 1.2941 -1.73112 2.3159 -0.10501 3.5152 -0.10502 8.7787 0 12.2939Z" stroke-width="3.429"></path>
  <path fill="currentColor" fill-rule="evenodd" d="M1.34454 20.993c0.11295 0.1126 0.24592 0.209 0.39695 0.2833 1.36702 0.6731 4.85916 2.3688 8.40821 3.8992 1.7726 0.7643 3.5806 1.4966 5.1554 2.0405 0.8868 0.3063 1.7738 0.5803 2.5703 0.7535v13.0244c0 0.0347 0.0012 0.0692 0.0035 0.1033 0.4437 0.0535 0.8639 0.0822 1.2546 0.0822 0.4513 0 1.0417 -0.0876 1.7419 -0.2468V27.9203c0.2807 -0.073 0.5683 -0.1576 0.8537 -0.2466 0.9073 -0.283 2.0054 -0.6816 3.2155 -1.1532 2.4235 -0.9445 5.3733 -2.2118 8.2937 -3.5134 5.8429 -2.604 11.6363 -5.3755 13.0119 -6.0528 0.177 -0.0872 0.3293 -0.2046 0.4535 -0.3429 -0.0018 -0.0645 -0.0037 -0.1285 -0.0056 -0.1919 -0.1349 -0.9642 -0.728 -1.7745 -1.5765 -2.2369 -0.0664 0.0218 -0.1321 0.0485 -0.1966 0.0803 -1.3425 0.661 -7.1013 3.4161 -12.908 6.004 -2.9044 1.2945 -5.8038 2.5395 -8.1617 3.4584 -1.1806 0.46 -2.2064 0.8308 -3.0194 1.0844 -0.4067 0.1268 -0.7438 0.2191 -1.0102 0.2785 -0.1325 0.0295 -0.2384 0.0489 -0.3202 0.0605 -0.0403 0.0057 -0.0717 0.0091 -0.0948 0.011 -0.0114 0.001 -0.0201 0.0015 -0.0262 0.0017 -0.0062 0.0003 -0.0091 0.0003 -0.0091 0.0003 -0.4913 0 -1.5459 -0.2477 -3.091 -0.7813 -1.474 -0.5091 -3.205 -1.2086 -4.9469 -1.9598 -3.23085 -1.3931 -6.42678 -2.9321 -7.94911 -3.6777 -0.13218 0.063 -0.25093 0.1197 -0.35539 0.1697 -0.85816 0.4105 -1.48409 1.1644 -1.68846 2.0804Z" clip-rule="evenodd" stroke-width="3.429"></path>
  <path fill="currentColor" d="M23.5804 15.8917c0 2.3278 -4.0678 3.6192 -8.0911 3.6192 -4.0233 0 -8.09114 -1.2914 -8.09114 -3.6192 0 -2.3279 4.06784 -3.6192 8.09114 -3.6192 4.0233 0 8.0911 1.2913 8.0911 3.6192Z" stroke-width="3.429"></path>
  <path fill="currentColor" d="M38.8987 10.4405c0 2.3279 -4.0678 3.6192 -8.0911 3.6192 -4.0233 0 -8.0911 -1.2913 -8.0911 -3.6192 0 -2.32785 4.0678 -3.61921 8.0911 -3.61921 4.0233 0 8.0911 1.29136 8.0911 3.61921Z" stroke-width="3.429"></path>
</svg>
