<svg xmlns="http://www.w3.org/2000/svg" fill="none" viewBox="0 0 48 48">
  <path fill="currentColor" fill-rule="evenodd" d="m26.6631 10.5703 0 0.0006c0.0002 0 0.0016 -0.0026 0.0036 -0.0081 -0.0021 0.004 -0.0033 0.0065 -0.0036 0.0075Zm0.983 -0.61295c-0.5041 0.20355 -0.7549 0.37735 -0.8762 0.48745 0.1213 0.1101 0.3721 0.2839 0.8762 0.4874 1.0252 0.4141 2.5215 0.6722 4.1 0.6722 1.5786 0 3.0749 -0.2581 4.1001 -0.6722 0.504 -0.2035 0.7549 -0.3773 0.8762 -0.4874 -0.1213 -0.1101 -0.3722 -0.2839 -0.8762 -0.48745 -1.0252 -0.41403 -2.5215 -0.67219 -4.1001 -0.67219 -1.5785 0 -3.0748 0.25816 -4.1 0.67219Zm9.1831 0.61355c-0.0002 0 -0.0017 -0.0026 -0.0037 -0.0081 0.0029 0.0052 0.0039 0.008 0.0037 0.0081Zm-0.0037 -0.2441c0.002 -0.0055 0.0035 -0.0081 0.0037 -0.0081 0.0002 0.0001 -0.0008 0.0028 -0.0037 0.0081Zm-10.1624 -0.0076c0.0003 0.001 0.0014 0.0036 0.0036 0.0076 -0.002 -0.0055 -0.0034 -0.0081 -0.0036 -0.0081l0 0.0005Zm5.083 -5.03404c-1.9338 0 -3.9693 0.30552 -5.5979 0.96325 -1.3453 0.54332 -3.1764 1.66973 -3.4349 3.70264 -1.1531 0.40415 -2.3983 0.87685 -3.6802 1.38745 -0.9152 -0.1447 -1.8626 -0.2145 -2.7869 -0.2145 -1.9338 0 -3.9694 0.3055 -5.5979 0.9633 -1.45056 0.5858 -3.46577 1.8495 -3.46577 4.1964 0 0.075 0.00206 0.149 0.0061 0.2219 -1.63582 0.7588 -2.90753 1.3641 -3.56762 1.6798 -1.43056 0.6843 -2.49694 2.024 -2.728975 3.6828 -0.01008 0.0721 -0.01622 0.1446 -0.018393 0.2173 -0.098938 3.3118 -0.098938 8.2509 0 11.5626 0.002173 0.0727 0.008313 0.1453 0.018393 0.2173 0.232035 1.6588 1.298405 2.9985 2.728965 3.6828 1.58378 0.7576 4.35334 2.0288 7.2712 3.1149 2.8347 1.0552 6.1059 2.0523 8.5781 2.0523 0.7763 0 1.6892 -0.1762 2.5922 -0.4071 0.9371 -0.2397 2.0034 -0.576 3.1358 -0.971 2.2665 -0.7906 4.8972 -1.8515 7.4664 -2.9468 5.1437 -2.1928 10.1489 -4.5697 11.7143 -5.3185 1.4306 -0.6843 2.4969 -2.024 2.729 -3.6827 0.0101 -0.0721 0.0162 -0.1447 0.0184 -0.2174 0.0989 -3.3117 0.0989 -8.2508 0 -11.5626 -0.0022 -0.0727 -0.0083 -0.1452 -0.0184 -0.2173 -0.2321 -1.6588 -1.2984 -2.9984 -2.729 -3.6828 -0.9451 -0.4521 -2.3125 -1.0871 -3.8817 -1.7565 0.1965 -0.444 0.3125 -0.9448 0.3125 -1.5079 0 -2.34691 -2.0152 -3.61058 -3.4657 -4.19639 -1.6286 -0.65773 -3.6641 -0.96325 -5.598 -0.96325Zm5.1671 9.51864c-1.5486 0.5456 -3.4003 0.8006 -5.1671 0.8006 -1.9338 0 -3.9693 -0.3055 -5.5979 -0.9632 -0.5669 -0.229 -1.2201 -0.5615 -1.8055 -1.0217 -0.0325 0.0112 -0.065 0.0224 -0.0977 0.0337 0.621 0.6662 1.0649 1.529 1.0649 2.6305 0 2.3469 -2.0153 3.6105 -3.4658 4.1963 -1.6285 0.6578 -3.6641 0.9633 -5.5979 0.9633 -1.9338 0 -3.9694 -0.3055 -5.5979 -0.9633 -0.3803 -0.1535 -0.79929 -0.3537 -1.21064 -0.6077 -0.57317 0.2647 -1.10854 0.5138 -1.59659 0.7421 1.36561 0.6424 2.98433 1.3845 4.61193 2.0863 1.6151 0.6964 3.2108 1.341 4.5625 1.8078 1.4345 0.4954 2.3227 0.6909 2.6713 0.6942l0.2965 -0.0539 0.8919 -0.2464 2.7709 -0.9955 7.5703 -3.2079 9.3499 -4.349c-1.0792 -0.4852 -2.3356 -1.0264 -3.6531 -1.5462Zm6.2572 4.7769c-2.3372 1.116 -6.3189 2.9861 -10.3257 4.7718 -2.7215 1.213 -5.4772 2.3971 -7.7462 3.2813 -1.1323 0.4413 -2.1689 0.8179 -3.0325 1.0872 -0.6704 0.2091 -1.4199 0.4151 -2.066 0.4685v9.4734c0.274 -0.0435 0.6288 -0.1167 1.0713 -0.2299 0.787 -0.2013 1.7368 -0.4983 2.8096 -0.8725 2.1441 -0.7479 4.6812 -1.7694 7.2152 -2.8496 5.0626 -2.1583 10.0057 -4.5053 11.5568 -5.2473 0.2713 -0.1298 0.4261 -0.3374 0.4794 -0.5546 0.0758 -2.6504 0.0885 -6.3327 0.0381 -9.3283Zm-32.0073 -3.171c-0.0002 0 0.0008 -0.0028 0.0037 -0.0081 -0.002 0.0055 -0.0035 0.0082 -0.0037 0.0081Zm0.1068 -0.126c0.1213 -0.1101 0.3722 -0.2839 0.8763 -0.4875 1.0251 -0.414 2.5214 -0.6722 4.1 -0.6722 1.5786 0 3.0749 0.2582 4.1 0.6722 0.5041 0.2036 0.7549 0.3774 0.8763 0.4875 -0.1214 0.11 -0.3722 0.2838 -0.8763 0.4874 -1.0251 0.414 -2.5214 0.6722 -4.1 0.6722 -1.5786 0 -3.0749 -0.2582 -4.1 -0.6722 -0.5041 -0.2036 -0.755 -0.3774 -0.8763 -0.4874Zm10.0594 0.126c-0.0003 0.0001 -0.0017 -0.0026 -0.0037 -0.0081 0.0029 0.0053 0.0039 0.0081 0.0037 0.0081Zm-0.0037 -0.244c0.002 -0.0055 0.0034 -0.0082 0.0037 -0.0081 0.0002 0 -0.0008 0.0028 -0.0037 0.0081Zm-10.1588 0c-0.0029 -0.0053 -0.0039 -0.0081 -0.0037 -0.0081 0.0002 -0.0001 0.0017 0.0026 0.0037 0.0081Z" clip-rule="evenodd" stroke-width="3.429"></path>
</svg>
