<svg xmlns="http://www.w3.org/2000/svg" fill="none" viewBox="0 0 48 48">
  <path fill="currentColor" fill-rule="evenodd" d="M25.2695 11.8592c0 -0.116 0.0628 -0.5486 1.1122 -1.0613 0.9986 -0.488 2.4624 -0.795 4.0134 -0.795 1.5509 0 3.0147 0.307 4.0133 0.795 1.0494 0.5127 1.1122 0.9453 1.1122 1.0613 0 0.1161 -0.0628 0.5487 -1.1122 1.0614 -0.9986 0.488 -2.4624 0.795 -4.0133 0.795 -1.551 0 -3.0148 -0.307 -4.0134 -0.795 -1.0494 -0.5127 -1.1122 -0.9453 -1.1122 -1.0614Zm5.1256 -5.85627c-1.9923 0 -4.0913 0.381 -5.7695 1.20108 -1.4097 0.68883 -2.895 1.90296 -3.2675 3.75179 -0.0357 0.0135 -0.0715 0.0271 -0.1073 0.0407 -1.309 -0.3863 -2.7429 -0.5697 -4.1253 -0.5697 -1.9922 0 -4.0912 0.381 -5.7695 1.201C9.72838 12.4232 8 13.9188 8 16.2831c0 0.1274 0.00502 0.2523 0.01478 0.3747 -2.025 0.9308 -3.67385 1.7111 -4.62604 2.1651 1.52247 0.7457 4.71816 2.2846 7.94876 3.6776 1.7419 0.7511 3.4729 1.4507 4.9469 1.9598 1.5452 0.5336 2.5997 0.7813 3.091 0.7813l0.0022 0 0.0069 -0.0003c0.0061 -0.0002 0.0148 -0.0007 0.0262 -0.0017 0.0231 -0.0019 0.0545 -0.0053 0.0948 -0.011 0.0818 -0.0116 0.1878 -0.031 0.3202 -0.0605 0.2665 -0.0594 0.6035 -0.1517 1.0102 -0.2785 0.813 -0.2536 1.8388 -0.6244 3.0194 -1.0845 2.3579 -0.9188 5.2573 -2.1638 8.1617 -3.4583 5.8067 -2.5879 11.5655 -5.343 12.908 -6.004 0.0644 -0.0317 0.13 -0.0584 0.1962 -0.0802 -0.0505 -0.0275 -0.1019 -0.0538 -0.1542 -0.0788 -1.2665 -0.6058 -3.2407 -1.5175 -5.4473 -2.417 -0.0444 -2.31091 -1.7488 -3.77789 -3.3552 -4.56279 -1.6782 -0.82008 -3.7772 -1.20108 -5.7694 -1.20108ZM1.30189 33.6027c0.14292 1.0217 0.80045 1.8707 1.73111 2.3159 3.05479 1.4613 10.2268 4.702 14.8459 5.2588 -0.0023 -0.0342 -0.0035 -0.0688 -0.0035 -0.1036V28.0494c-0.7965 -0.1732 -1.6835 -0.4472 -2.5703 -0.7535 -1.5748 -0.5439 -3.3828 -1.2762 -5.1554 -2.0405 -3.54904 -1.5304 -7.04119 -3.2261 -8.4082 -3.8992 -0.15101 -0.0743 -0.28396 -0.1707 -0.39689 -0.2833 -0.01729 0.0775 -0.03157 0.1562 -0.04272 0.2358 -0.10501 3.5152 -0.10502 8.7788 0 12.294Zm19.57351 -5.6025v13.0127c6.2157 -1.413 21.0823 -8.4638 24.0916 -9.9033 0.9307 -0.4452 1.5882 -1.2942 1.7311 -2.3159 0.1031 -3.4519 0.105 -8.5898 0.0056 -12.1024 -0.1242 0.1383 -0.2765 0.2557 -0.4535 0.3429 -1.3756 0.6773 -7.169 3.4488 -13.0119 6.0528 -2.9204 1.3016 -5.8701 2.5689 -8.2937 3.5134 -1.2101 0.4716 -2.3082 0.8702 -3.2155 1.1532 -0.2854 0.089 -0.573 0.1736 -0.8537 0.2466Zm-7.7633 -12.7785C12.0628 15.7345 12 16.167 12 16.2831c0 0.116 0.0628 0.5486 1.1121 1.0613 0.9987 0.488 2.4625 0.795 4.0134 0.795 1.551 0 3.0147 -0.307 4.0134 -0.795 1.0493 -0.5127 1.1121 -0.9453 1.1121 -1.0613 0 -0.1161 -0.0628 -0.5486 -1.1121 -1.0614 -0.9987 -0.488 -2.4624 -0.7949 -4.0134 -0.7949 -1.5509 0 -3.0147 0.3069 -4.0134 0.7949Z" clip-rule="evenodd" stroke-width="3.429"></path>
</svg>
