<svg xmlns="http://www.w3.org/2000/svg" viewBox="0 0 24 24" fill="none"><path opacity="0.4" d="M12.7698 3.23749C13.8381 2.62133 15.2769 1.80781 17.0864 2.53759C19.3412 3.44701 21.1705 5.12976 22.191 7.2448C22.554 7.99711 22.7622 8.70783 22.7494 9.36754C22.7359 10.0627 22.4758 10.6615 21.9934 11.1192C21.5386 11.5507 20.9466 11.8002 20.3511 11.9525C19.749 12.1064 19.0686 12.1797 18.3628 12.2086L7.01514 12.6727H7.01511C5.54721 12.7328 4.35771 12.7815 3.51066 12.7229C3.083 12.6934 2.65157 12.6322 2.28381 12.4851C1.89092 12.328 1.4778 12.0307 1.30706 11.504C1.1959 11.1611 1.26884 10.8515 1.34141 10.658C1.41681 10.4568 1.52997 10.2777 1.6392 10.13C1.85892 9.83303 2.16613 9.52674 2.49896 9.23385C3.17347 8.64029 4.09105 7.98235 5.02956 7.39359C5.96766 6.80508 6.96779 6.2599 7.81548 5.9067C8.2343 5.73219 8.65733 5.5869 9.03833 5.51787C9.22872 5.48337 9.4468 5.46063 9.66874 5.48015C9.8862 5.49927 10.1857 5.5663 10.4501 5.78217C10.6228 5.92318 10.8421 6.00668 11.0834 6.00668C11.6281 6.00668 12.077 5.57232 12.077 5.02772C12.077 5.00263 12.0739 4.96952 12.0627 4.85987L12.0623 4.85642L12.0623 4.85638C12.0535 4.77023 12.0382 4.62108 12.0441 4.46299C12.0503 4.29731 12.0805 4.06978 12.1986 3.83427C12.3237 3.58478 12.5196 3.38177 12.7698 3.23749Z" fill="currentColor"/><path d="M15.9999 6.99931C16.5522 6.99931 16.9999 7.44703 16.9999 7.99931C16.9999 8.5516 16.5522 8.99931 15.9999 8.99931C15.4823 8.99931 15.0562 8.60598 15.0048 8.10185L14.9999 7.99931L15.0048 7.89677C15.0562 7.39265 15.4823 6.99931 15.9999 6.99931Z" fill="currentColor"/><path d="M22.7099 9.76103C22.7354 9.83668 22.7499 9.91707 22.7499 10.0003V13.762C22.75 15.0604 22.75 16.1048 22.6474 16.9329C22.5411 17.7906 22.3148 18.5165 21.79 19.1194C21.3194 19.6599 20.7253 19.9671 20.0146 20.1683C19.3258 20.3631 18.4749 20.472 17.4531 20.5823C16.8843 20.6437 16.4432 20.3218 16.205 19.9544L16.0253 19.636C15.7943 19.2839 15.4145 19.0667 14.9999 19.0667C14.4409 19.0667 13.9396 19.4652 13.7919 20.0501C13.6766 20.5073 13.2926 21.0158 12.6523 21.0823L8.61517 21.5022C7.12508 21.6572 5.92461 21.7816 4.9765 21.7435C3.99088 21.7038 3.15039 21.4856 2.4726 20.8479C1.79988 20.215 1.51382 19.3815 1.37982 18.3811C1.24981 17.4104 1.24992 16.1618 1.24994 14.5999V11.0403C1.24994 10.9251 1.27612 10.8138 1.32416 10.7142C1.25935 10.9087 1.20535 11.1929 1.30658 11.5052C1.47734 12.0319 1.89124 12.3285 2.28412 12.4856C2.65186 12.6327 3.08306 12.6944 3.51068 12.7239C4.35773 12.7825 5.54768 12.7342 7.01556 12.6741L18.3632 12.2093C19.0689 12.1804 19.7495 12.1073 20.3515 11.9534C20.9468 11.8011 21.5384 11.5517 21.9931 11.1204C22.382 10.7515 22.6227 10.2899 22.7099 9.76103ZM8.49994 13.9603C7.2573 13.9603 6.24994 14.9676 6.24994 16.2103C6.24994 17.4529 7.2573 18.4603 8.49994 18.4603C9.74258 18.4603 10.7499 17.4529 10.7499 16.2103C10.7499 14.9676 9.74258 13.9603 8.49994 13.9603ZM16.9999 13.9993C16.4823 13.9993 16.0562 14.3926 16.0048 14.8968L15.9999 14.9993L16.0048 15.1019C16.0562 15.606 16.4823 15.9993 16.9999 15.9993C17.5522 15.9993 17.9999 15.5516 17.9999 14.9993C17.9999 14.447 17.5522 13.9993 16.9999 13.9993Z" fill="currentColor"/></svg>
