<svg xmlns="http://www.w3.org/2000/svg" viewBox="0 0 24 24" fill="none"><path d="M12.7694 3.23819C13.8377 2.62203 15.2774 1.80822 17.0868 2.53799C19.3414 3.44743 21.1708 5.13017 22.1913 7.24503C22.5543 7.99733 22.7617 8.70838 22.7489 9.36807C22.7463 9.50287 22.7308 9.63342 22.7098 9.76065C22.7354 9.83629 22.7499 9.9167 22.7499 9.99991V13.7616C22.7499 15.06 22.75 16.1044 22.6473 16.9325C22.541 17.7902 22.3148 18.5162 21.7899 19.119C21.3194 19.6595 20.7253 19.9668 20.0145 20.1679C19.3257 20.3628 18.4748 20.4717 17.453 20.5819C16.8843 20.6433 16.4432 20.3214 16.205 19.954L16.0253 19.6357C15.7942 19.2835 15.4144 19.0663 14.9999 19.0663C14.4408 19.0663 13.9395 19.4648 13.7919 20.0497C13.6766 20.5069 13.2925 21.0154 12.6522 21.0819L8.61511 21.5009C7.12502 21.6558 5.92455 21.7812 4.97644 21.7431C3.99083 21.7034 3.15033 21.4852 2.47253 20.8476C1.79981 20.2146 1.51376 19.3811 1.37976 18.3808C1.24974 17.41 1.24986 16.1614 1.24988 14.5995V11.0399C1.24988 10.9247 1.27601 10.8135 1.3241 10.7138C1.33045 10.6947 1.3352 10.6754 1.34168 10.6581C1.41708 10.4572 1.53038 10.2783 1.63953 10.1308C1.85925 9.8338 2.1661 9.52715 2.4989 9.23428C3.17331 8.64081 4.09082 7.98312 5.02918 7.39444C5.96726 6.80595 6.96762 6.26034 7.81531 5.90714C8.23401 5.73268 8.65705 5.58752 9.03796 5.51846C9.22836 5.48396 9.44688 5.46086 9.66882 5.48038C9.88627 5.49951 10.1857 5.56728 10.4501 5.78311C10.6226 5.92394 10.8419 6.00762 11.0829 6.00772C11.6276 6.00772 12.077 5.57283 12.077 5.02823C12.077 5.00315 12.0736 4.96983 12.0624 4.86026V4.85733C12.0535 4.77123 12.0379 4.62181 12.0438 4.46378C12.05 4.29814 12.0801 4.07031 12.1981 3.83487C12.3232 3.58548 12.5194 3.38246 12.7694 3.23819ZM8.49988 13.9608C7.25724 13.9608 6.24988 14.9682 6.24988 16.2108C6.24991 17.4535 7.25726 18.4608 8.49988 18.4608C9.7425 18.4608 10.7498 17.4535 10.7499 16.2108C10.7499 14.9682 9.74252 13.9608 8.49988 13.9608ZM16.9999 13.9999C16.4822 13.9999 16.0561 14.3932 16.0048 14.8974L15.9999 14.9999L16.0048 15.1024C16.0561 15.6065 16.4822 15.9999 16.9999 15.9999C17.5521 15.9999 17.9998 15.5522 17.9999 14.9999C17.9999 14.4476 17.5522 13.9999 16.9999 13.9999ZM16.3407 4.30264C15.578 3.99505 14.9765 4.20159 14.0145 4.73917C14.0171 4.76536 14.02 4.79428 14.0223 4.82217C14.0271 4.87985 14.0311 4.95096 14.0311 5.02823C14.0311 6.61931 12.7151 7.91592 11.0829 7.91592C10.4554 7.91584 9.87236 7.72301 9.39441 7.39542C9.21652 7.42772 8.94334 7.5124 8.58191 7.66299C7.86849 7.96028 6.96883 8.44694 6.08582 9.00089C5.20316 9.55462 4.37856 10.1507 3.8075 10.6532C3.74209 10.7108 3.68134 10.7652 3.62585 10.8173C3.63327 10.8178 3.64074 10.8187 3.64832 10.8192C4.37117 10.8692 5.44884 10.8262 7.00378 10.7626L18.2811 10.3017C18.9148 10.2757 19.442 10.2123 19.8563 10.1064C20.2769 9.99877 20.5107 9.86564 20.6317 9.75089C20.7251 9.66227 20.7905 9.55076 20.7948 9.33194C20.7997 9.07761 20.7174 8.67018 20.4227 8.05948C19.6153 6.38606 18.1574 5.03544 16.3407 4.30264ZM15.9999 6.99991C16.5522 6.99991 16.9999 7.44763 16.9999 7.99991C16.9999 8.5522 16.5522 8.99991 15.9999 8.99991C15.4822 8.99991 15.0561 8.60658 15.0048 8.10245L14.9999 7.99991L15.0048 7.89737C15.0561 7.39324 15.4822 6.99991 15.9999 6.99991Z" fill="currentColor" fill-rule="evenodd" clip-rule="evenodd"/></svg>
