<svg xmlns="http://www.w3.org/2000/svg" fill="none" viewBox="0 0 48 48">
  <g>
    <path fill="#8fbffa" d="M3.25088 24.9427c-0.17974 -0.6102 -0.18 -1.2599 -0.00074 -1.8702C5.80484 14.3747 14.1282 8 24.0019 8c9.8679 0 18.1873 6.3673 20.7472 15.0573 0.1798 0.6102 0.18 1.2599 0.0008 1.8702C42.1952 33.6254 33.8718 40 23.9981 40c-9.8679 0 -18.18731 -6.3673 -20.74722 -15.0573" stroke-width="1"></path>
    <path stroke="currentColor" d="M3.25088 24.9427c-0.17974 -0.6102 -0.18 -1.2599 -0.00074 -1.8702C5.80484 14.3747 14.1282 8 24.0019 8c9.8679 0 18.1873 6.3673 20.7472 15.0573 0.1798 0.6102 0.18 1.2599 0.0008 1.8702C42.1952 33.6254 33.8718 40 23.9981 40c-9.8679 0 -18.18731 -6.3673 -20.74722 -15.0573Z" stroke-width="1"></path>
    <path fill="currentColor" fill-opacity="0.4" d="M15 24a9 9 0 1 0 18 0 9 9 0 1 0 -18 0" stroke-width="1"></path>
    <path stroke="currentColor" stroke-linejoin="round" d="M33 24c0 4.9706 -4.0294 9 -9 9s-9 -4.0294 -9 -9 4.0294 -9 9 -9 9 4.0294 9 9Z" stroke-width="1"></path>
  </g>
</svg>
