<svg xmlns="http://www.w3.org/2000/svg" fill="none" viewBox="0 0 48 48">
  <g>
    <path fill="currentColor" fill-rule="evenodd" d="M24.0023 6c10.7312 0.00022 19.849 6.9293 22.666 16.4922 0.2882 0.9785 0.2884 2.0203 0.001 2.999C43.858 35.0627 34.7358 41.9998 23.9984 42 13.267 42 4.14943 35.0707 1.33235 25.5078c-0.28824 -0.9785 -0.28846 -2.0202 -0.00097 -2.999C4.14277 12.9372 13.2647 6 24.0023 6m0 4c-9.0095 0 -16.53485 5.8119 -18.83303 13.6357 -0.07103 0.2419 -0.07122 0.5005 0 0.7422C7.47214 32.1948 14.9942 38 23.9984 38c9.0093 -0.0002 16.5349 -5.812 18.833 -13.6357 0.071 -0.2418 0.0712 -0.5005 0 -0.7422C40.5286 15.8052 33.0063 10.0002 24.0023 10m-0.002 4c5.5227 0.0002 10 4.4773 10 10s-4.4773 9.9998 -10 10c-5.5228 0 -10 -4.4772 -10 -10s4.4772 -10 10 -10" clip-rule="evenodd" stroke-width="1"></path>
  </g>
</svg>
