<svg xmlns="http://www.w3.org/2000/svg" viewBox="0 0 24 24" fill="none"><path d="M1.25 11.9953C1.25 5.55206 7.11543 0.654618 13.2646 1.30878C13.8306 1.36899 14.5211 1.52057 14.8066 2.19159C14.9259 2.47184 14.9317 2.76114 14.9209 2.98358C14.9112 3.1844 14.8708 3.49763 14.8418 3.72187C14.7394 4.51988 15.0209 5.25493 15.4678 5.60273C15.5657 5.67893 15.6833 5.77211 15.7803 5.87323C15.8839 5.98134 16.0148 6.1485 16.0693 6.38691C16.1234 6.62336 16.0801 6.82975 16.0371 6.96796C15.9965 7.09829 15.9341 7.23273 15.8828 7.34296C15.7362 7.65861 15.7846 8.06394 16.0645 8.44745C16.3451 8.83213 16.7967 9.09686 17.2666 9.1164C17.4341 9.12336 17.6139 9.1318 17.7725 9.15644C17.939 9.18232 18.1468 9.23469 18.3447 9.37226C18.5478 9.51341 18.6716 9.69557 18.7549 9.86054C18.8324 10.0142 18.8933 10.1907 18.9473 10.3576C19.1663 11.0346 19.7623 11.487 20.4395 11.6057C20.6186 11.6344 21.1483 11.7206 21.2881 11.7482C21.5353 11.7971 21.8436 11.8722 22.1104 12.0441C22.4206 12.2442 22.6272 12.542 22.709 12.9211C22.7811 13.2555 22.7497 13.6233 22.6787 13.9982C21.7345 18.9835 17.3365 22.7502 12.0576 22.7502C6.09257 22.75 1.25024 17.9387 1.25 11.9953ZM11.999 17.0002C11.4467 17.0002 10.999 17.4479 10.999 18.0002C10.9991 18.5524 11.4468 19.0002 11.999 19.0002H12.0078C12.5601 19.0002 13.0077 18.5524 13.0078 18.0002C13.0078 17.4479 12.5601 17.0002 12.0078 17.0002H11.999ZM7.53027 14.4699C7.23738 14.177 6.76262 14.177 6.46973 14.4699C6.17689 14.7628 6.17685 15.2376 6.46973 15.5305L7.46973 16.5305C7.7626 16.8233 8.2374 16.8233 8.53027 16.5305C8.82315 16.2376 8.82311 15.7628 8.53027 15.4699L7.53027 14.4699ZM17.5303 13.4699C17.2374 13.177 16.7626 13.177 16.4697 13.4699L15.4697 14.4699C15.1769 14.7628 15.1769 15.2376 15.4697 15.5305C15.7626 15.8233 16.2374 15.8233 16.5303 15.5305L17.5303 14.5305C17.8231 14.2376 17.8231 13.7628 17.5303 13.4699ZM10.999 11.0002C10.4467 11.0002 9.99902 11.4479 9.99902 12.0002C9.99909 12.5524 10.4468 13.0002 10.999 13.0002H11.0078C11.5601 13.0002 12.0077 12.5524 12.0078 12.0002C12.0078 11.4479 11.5601 11.0002 11.0078 11.0002H10.999ZM5.99902 9.00019C5.44674 9.00019 4.99902 9.4479 4.99902 10.0002C4.99909 10.5524 5.44678 11.0002 5.99902 11.0002H6.00781C6.56006 11.0002 7.00775 10.5524 7.00781 10.0002C7.00781 9.4479 6.5601 9.00019 6.00781 9.00019H5.99902ZM10.5303 5.46991C10.2374 5.17702 9.76262 5.17702 9.46973 5.46991L8.46973 6.46991C8.17689 6.76281 8.17685 7.23759 8.46973 7.53046C8.7626 7.82327 9.2374 7.82327 9.53027 7.53046L10.5303 6.53046C10.8231 6.23759 10.8231 5.76281 10.5303 5.46991Z" fill="currentColor" fill-rule="evenodd" clip-rule="evenodd"/></svg>
