<svg xmlns="http://www.w3.org/2000/svg" viewBox="0 0 24 24" fill="none"><path d="M3 8.75V3.75C3 3.19772 3.44772 2.75 4 2.75C4.55228 2.75 5 3.19772 5 3.75V8.75C5 9.30228 4.55228 9.75 4 9.75C3.44772 9.75 3 9.30228 3 8.75ZM11 5.75C11 5.19772 10.5523 4.75 10 4.75C9.44772 4.75 9 5.19772 9 5.75V6.75C9 7.30228 9.44772 7.75 10 7.75C10.5523 7.75 11 7.30228 11 6.75V5.75ZM15 8.75V3.75C15 3.19772 15.4477 2.75 16 2.75C16.5523 2.75 17 3.19772 17 3.75V8.75C17 9.30228 16.5523 9.75 16 9.75C15.4477 9.75 15 9.30228 15 8.75ZM19 8.75V3.75C19 3.19772 19.4477 2.75 20 2.75C20.5523 2.75 21 3.19772 21 3.75V8.75C21 9.30228 20.5523 9.75 20 9.75C19.4477 9.75 19 9.30228 19 8.75ZM13 6.75C13 8.40685 11.6569 9.75 10 9.75C8.34315 9.75 7 8.40685 7 6.75V5.75C7 4.09315 8.34315 2.75 10 2.75C11.6569 2.75 13 4.09315 13 5.75V6.75Z" fill="currentColor"/><path d="M6 11.75C7.9087 11.75 9.55357 12.8762 10.3086 14.5H20.3359C20.7446 14.5 20.9491 14.5001 21.1328 14.5762C21.3165 14.6523 21.4611 14.797 21.75 15.0859C22.4166 15.7525 22.75 16.0858 22.75 16.5C22.75 16.9142 22.4166 17.2475 21.75 17.9141L21.1123 18.5518C20.7963 18.8678 20.6381 19.0264 20.4561 19.1025C20.2546 19.1866 20.0306 19.2022 19.8193 19.1475C19.6282 19.0979 19.4495 18.9636 19.0918 18.6953C18.7789 18.4606 18.622 18.3431 18.4521 18.292C18.2643 18.2355 18.0638 18.2355 17.876 18.292C17.7061 18.3431 17.5493 18.4606 17.2363 18.6953L17.1348 18.7715C16.7456 19.0634 16.5512 19.2097 16.332 19.2549C16.2173 19.2785 16.0992 19.2818 15.9834 19.2646C15.762 19.2317 15.5591 19.097 15.1543 18.8271L15.1133 18.7998C14.9175 18.6693 14.8194 18.604 14.7109 18.5635C14.6714 18.5487 14.6309 18.536 14.5898 18.5264C14.4772 18.4999 14.3594 18.5 14.124 18.5H10.3086C9.55357 20.1238 7.9087 21.25 6 21.25C3.37665 21.25 1.25 19.1234 1.25 16.5C1.25 13.8766 3.37665 11.75 6 11.75ZM6 15C5.17157 15 4.5 15.6716 4.5 16.5C4.5 17.3284 5.17157 18 6 18C6.82842 18 7.5 17.3284 7.5 16.5C7.5 15.6716 6.82843 15 6 15Z" fill="currentColor" fill-rule="evenodd" clip-rule="evenodd"/></svg>
