<svg xmlns="http://www.w3.org/2000/svg" viewBox="0 0 24 24" fill="none"><path opacity="0.4" d="M16.9375 9.25049C17.9062 9.25496 18.7196 9.27539 19.3916 9.36572C20.2917 9.48674 21.0494 9.74623 21.6514 10.3481C22.2533 10.9501 22.5128 11.7078 22.6338 12.6079C22.7501 13.4728 22.75 14.572 22.75 15.9351V16.064C22.75 17.427 22.7501 18.5262 22.6338 19.3911C22.5128 20.2912 22.2533 21.049 21.6514 21.6509C21.0494 22.2528 20.2917 22.5123 19.3916 22.6333C18.5267 22.7496 17.4275 22.7495 16.0645 22.7495H7.93555C6.57249 22.7495 5.47331 22.7496 4.6084 22.6333C3.70829 22.5123 2.95055 22.2528 2.34863 21.6509C1.74672 21.049 1.48723 20.2912 1.36621 19.3911C1.24995 18.5262 1.24997 17.427 1.25 16.064V15.9351C1.24997 14.572 1.24995 13.4728 1.36621 12.6079C1.48723 11.7078 1.74672 10.9501 2.34863 10.3481C2.95055 9.74623 3.70829 9.48674 4.6084 9.36572C5.28017 9.27542 6.09325 9.25497 7.06152 9.25049C7.39936 9.77495 7.77816 10.2289 8.13867 10.605C9.15961 11.6697 10.2814 12.3841 10.79 12.6763C11.5405 13.1071 12.4605 13.1071 13.2109 12.6763C13.7196 12.3841 14.8404 11.6697 15.8613 10.605C16.2217 10.2291 16.5997 9.77476 16.9375 9.25049Z" fill="currentColor"/><path d="M7 15.2505C7.41421 15.2505 7.75 15.5863 7.75 16.0005C7.75 16.4147 7.41421 16.7505 7 16.7505H5C4.58579 16.7505 4.25 16.4147 4.25 16.0005C4.25 15.5863 4.58579 15.2505 5 15.2505H7ZM13 15.2505C13.4142 15.2505 13.75 15.5863 13.75 16.0005C13.75 16.4147 13.4142 16.7505 13 16.7505H11C10.5858 16.7505 10.25 16.4147 10.25 16.0005C10.25 15.5863 10.5858 15.2505 11 15.2505H13ZM19 15.2505C19.4142 15.2505 19.75 15.5863 19.75 16.0005C19.75 16.4147 19.4142 16.7505 19 16.7505H17C16.5858 16.7505 16.25 16.4147 16.25 16.0005C16.25 15.5863 16.5858 15.2505 17 15.2505H19Z" fill="currentColor"/><path d="M12 1.25049C14.6059 1.25049 16.75 3.36905 16.75 5.85107C16.75 7.46929 15.8594 8.80153 14.959 9.74072C14.0494 10.6893 13.0377 11.3349 12.5879 11.5933C12.2228 11.803 11.7772 11.803 11.4121 11.5933C10.9623 11.3349 9.9506 10.6893 9.04102 9.74072C8.14059 8.80153 7.25 7.46929 7.25 5.85107C7.25 3.36905 9.39409 1.25049 12 1.25049ZM12.0098 4.50049C11.1813 4.50049 10.5098 5.17207 10.5098 6.00049C10.5098 6.82892 11.1813 7.50049 12.0098 7.50049C12.8382 7.50049 13.5098 6.82892 13.5098 6.00049C13.5098 5.17206 12.8382 4.50049 12.0098 4.50049Z" fill="currentColor"/></svg>
