<svg xmlns="http://www.w3.org/2000/svg" viewBox="0 0 24 24" fill="none"><path d="M5.50098 18.25H4.76465C4.49965 18.2531 4.219 18.2734 3.95508 18.3857C3.78473 18.4583 3.63587 18.5624 3.50098 18.6787V9.75H5.50098V18.25Z" fill="currentColor"/><path d="M9.83398 18.25H7.83398V9.75H9.83398V18.25Z" fill="currentColor"/><path d="M16.168 12C16.168 12.5522 15.7201 12.9998 15.168 13C14.6157 13 14.168 12.5523 14.168 12V9.75H16.168V12Z" fill="currentColor"/><path d="M20.501 12C20.501 12.5523 20.0533 13 19.501 13C18.9487 13 18.501 12.5523 18.501 12V9.75H20.501V12Z" fill="currentColor"/><path opacity="0.4" d="M21.3525 9.75C22.1326 9.75 22.7508 9.11291 22.751 8.34473C22.751 7.87279 22.5151 7.42891 22.1182 7.16797L15.6826 2.93848L15.6246 2.90036C14.8711 2.40496 14.2551 2.00004 13.7168 1.72363C13.1488 1.432 12.6073 1.25 12.001 1.25C11.3946 1.25 10.8532 1.432 10.2852 1.72363C9.74684 2.00004 9.13088 2.40497 8.37731 2.90037L8.31934 2.93848L1.88379 7.16797C1.53652 7.39626 1.31236 7.7644 1.26172 8.16895L1.25098 8.34473L1.25781 8.4873C1.32876 9.19018 1.91819 9.75 2.64941 9.75H21.3525Z" fill="currentColor"/><path d="M12.001 4.75C12.5533 4.75 13.001 5.19772 13.001 5.75C13.001 6.30229 12.5533 6.75 12.001 6.75C11.4487 6.75 11.001 6.30228 11.001 5.75C11.001 5.19772 11.4487 4.75 12.001 4.75Z" fill="currentColor"/><path opacity="0.4" d="M2.40053 22.7041C2.73301 22.7524 3.17476 22.75 3.64858 22.75H10.001C10.9438 22.75 11.4152 22.75 11.7081 22.4571C12.001 22.1642 12.001 21.6928 12.001 20.75V20.25C12.001 19.3072 12.001 18.8358 11.7081 18.5429C11.4152 18.25 10.9438 18.25 10.001 18.25H4.76479C4.49975 18.2531 4.21918 18.2734 3.95522 18.3857C3.60534 18.5347 3.34778 18.8186 3.11049 19.0625L2.42299 19.7695C2.087 20.1149 1.77525 20.4328 1.57533 20.7061C1.39075 20.9584 1.1097 21.4268 1.32924 21.9717C1.55295 22.5267 2.09084 22.6591 2.40053 22.7041Z" fill="currentColor"/><path d="M20.751 20.75C21.3033 20.75 21.751 21.1977 21.751 21.75C21.751 22.3023 21.3033 22.75 20.751 22.75C20.1987 22.75 19.751 22.3023 19.751 21.75C19.751 21.1977 20.1987 20.75 20.751 20.75ZM14.751 14.75C15.3033 14.75 15.751 15.1977 15.751 15.75C15.751 16.3023 15.3033 16.75 14.751 16.75C14.1987 16.75 13.751 16.3023 13.751 15.75C13.751 15.1977 14.1987 14.75 14.751 14.75Z" fill="currentColor"/><path d="M20.0439 15.043C20.4345 14.6524 21.0675 14.6524 21.458 15.043C21.8485 15.4335 21.8485 16.0665 21.458 16.457L15.458 22.457C15.0675 22.8476 14.4345 22.8476 14.0439 22.457C13.6534 22.0665 13.6534 21.4335 14.0439 21.043L20.0439 15.043Z" fill="currentColor"/></svg>
