<svg xmlns="http://www.w3.org/2000/svg" viewBox="0 0 24 24" fill="none"><path d="M12.001 1.25C12.6073 1.25 13.1488 1.432 13.7168 1.72363C14.2551 2.00004 14.8714 2.405 15.625 2.90039L15.6826 2.93848L22.1182 7.16797C22.5151 7.42891 22.751 7.87279 22.751 8.34473C22.7508 9.11291 22.1326 9.75 21.3525 9.75H2.64941C1.91819 9.75 1.32876 9.19018 1.25781 8.4873L1.25098 8.34473L1.26172 8.16895C1.31236 7.7644 1.53652 7.39626 1.88379 7.16797L8.31934 2.93848L8.37695 2.90039C9.13053 2.40499 9.74684 2.00004 10.2852 1.72363C10.8532 1.432 11.3946 1.25 12.001 1.25ZM12.001 4.75C11.4487 4.75 11.001 5.19772 11.001 5.75C11.001 6.30228 11.4487 6.75 12.001 6.75C12.5533 6.75 13.001 6.30229 13.001 5.75C13.001 5.19772 12.5533 4.75 12.001 4.75Z" fill="currentColor"/><path d="M3.50098 19V9C3.50098 8.44772 3.94869 8 4.50098 8C5.05326 8 5.50098 8.44772 5.50098 9V19C5.50098 19.5523 5.05326 20 4.50098 20C3.94869 20 3.50098 19.5523 3.50098 19ZM7.83398 19V9C7.83398 8.44782 8.28185 8.00018 8.83398 8C9.38627 8 9.83398 8.44772 9.83398 9V19C9.83398 19.5523 9.38627 20 8.83398 20C8.28185 19.9998 7.83398 19.5522 7.83398 19ZM14.168 12V9C14.168 8.44772 14.6157 8 15.168 8C15.7201 8.00018 16.168 8.44782 16.168 9V12C16.168 12.5522 15.7201 12.9998 15.168 13C14.6157 13 14.168 12.5523 14.168 12ZM18.501 12V9C18.501 8.44772 18.9487 8 19.501 8C20.0533 8 20.501 8.44772 20.501 9V12C20.501 12.5523 20.0533 13 19.501 13C18.9487 13 18.501 12.5523 18.501 12Z" fill="currentColor"/><path d="M2.40053 22.7041C2.73301 22.7524 3.17476 22.75 3.64858 22.75H10.001C10.9438 22.75 11.4152 22.75 11.7081 22.4571C12.001 22.1642 12.001 21.6928 12.001 20.75V20.25C12.001 19.3072 12.001 18.8358 11.7081 18.5429C11.4152 18.25 10.9438 18.25 10.001 18.25H4.76479C4.49975 18.2531 4.21918 18.2734 3.95522 18.3857C3.60534 18.5347 3.34778 18.8186 3.11049 19.0625L2.42299 19.7695C2.087 20.1149 1.77525 20.4328 1.57533 20.7061C1.39075 20.9584 1.1097 21.4268 1.32924 21.9717C1.55295 22.5267 2.09084 22.6591 2.40053 22.7041Z" fill="currentColor"/><path d="M20.751 20.75C21.3033 20.75 21.751 21.1977 21.751 21.75C21.751 22.3023 21.3033 22.75 20.751 22.75C20.1987 22.75 19.751 22.3023 19.751 21.75C19.751 21.1977 20.1987 20.75 20.751 20.75ZM14.751 14.75C15.3033 14.75 15.751 15.1977 15.751 15.75C15.751 16.3023 15.3033 16.75 14.751 16.75C14.1987 16.75 13.751 16.3023 13.751 15.75C13.751 15.1977 14.1987 14.75 14.751 14.75Z" fill="currentColor"/><path d="M20.0439 15.043C20.4345 14.6524 21.0675 14.6524 21.458 15.043C21.8485 15.4335 21.8485 16.0665 21.458 16.457L15.458 22.457C15.0675 22.8476 14.4345 22.8476 14.0439 22.457C13.6534 22.0665 13.6534 21.4335 14.0439 21.043L20.0439 15.043Z" fill="currentColor"/></svg>
