<svg xmlns="http://www.w3.org/2000/svg" viewBox="0 0 24 24" fill="none"><path opacity="0.4" d="M7.01747 6.25025C7.1101 7.04324 7.64414 7.78524 8.62196 7.9856C9.32327 8.12909 9.87207 8.6788 10.0155 9.38013C10.458 11.5401 13.5437 11.5391 13.9862 9.37915C14.1297 8.67787 14.6795 8.12913 15.3808 7.9856C16.3584 7.78532 16.8926 7.04335 16.9852 6.25025H17.5419C17.7821 6.25022 17.9524 6.25021 18.1737 6.27661C18.3926 6.30274 18.4979 6.32841 18.6552 6.36646C19.3928 6.54499 20.0211 6.84187 20.5575 7.33716C21.2864 8.01029 21.6625 8.87801 21.9022 9.96118C22.1346 11.011 22.2569 12.3568 22.411 14.053L22.7411 17.6799L22.7421 17.6946C22.896 19.8763 21.1878 21.7501 19.0028 21.7502H18.2557C16.7176 21.7501 15.3412 20.8021 14.7743 19.3674L14.0321 17.4875C13.9046 17.1647 13.8297 16.9783 13.7606 16.8469C13.7295 16.7878 13.7076 16.7575 13.6962 16.7434C13.6918 16.738 13.6881 16.7343 13.6874 16.7336L13.6854 16.7317L13.6737 16.7278C13.6578 16.7227 13.6241 16.7135 13.5595 16.7063C13.4147 16.6902 13.2165 16.6897 12.872 16.6897H11.1317C10.7873 16.6897 10.589 16.6902 10.4442 16.7063C10.3798 16.7135 10.346 16.7227 10.33 16.7278L10.3183 16.7317L10.3163 16.7336C10.3163 16.7336 10.3124 16.7375 10.3075 16.7434C10.2961 16.7575 10.2743 16.7877 10.2431 16.8469C10.1739 16.9783 10.0991 17.1646 9.97157 17.4875L9.22938 19.3674C8.6625 20.802 7.28606 21.75 5.74794 21.7502H5.00087C2.81581 21.7502 1.10769 19.8764 1.26161 17.6946C1.26197 17.6894 1.26211 17.6841 1.26259 17.679L1.58973 14.1116L1.59462 14.0598C1.75042 12.3587 1.87382 11.01 2.10731 9.95825C2.34766 8.87572 2.72409 8.00873 3.45302 7.33618C3.98894 6.84176 4.61492 6.54485 5.35145 6.36646C5.50908 6.32828 5.61523 6.30283 5.83485 6.27661C6.05621 6.25023 6.22626 6.25022 6.46669 6.25025H7.01747Z" fill="currentColor"/><path d="M7.25197 10.7502C7.80425 10.7502 8.25197 11.198 8.25197 11.7502C8.25197 12.3025 7.80425 12.7502 7.25197 12.7502C6.69968 12.7502 6.25197 12.3025 6.25197 11.7502C6.25197 11.198 6.69968 10.7502 7.25197 10.7502Z" fill="currentColor"/><path d="M16.752 10.7502C17.3043 10.7502 17.752 11.198 17.752 11.7502C17.752 12.3025 17.3042 12.7502 16.752 12.7502C16.1997 12.7502 15.752 12.3025 15.752 11.7502C15.752 11.198 16.1997 10.7502 16.752 10.7502Z" fill="currentColor"/><path d="M12.7197 2.72577C12.4674 2.09174 11.5364 2.09173 11.2841 2.72577L11.2412 2.87128C11.0127 3.98896 10.1793 4.87821 9.0937 5.18573L8.87299 5.23944C8.04497 5.40894 8.04495 6.59143 8.87299 6.76093C10.0652 7.0046 10.9975 7.93688 11.2412 9.12909C11.4107 9.95712 12.5931 9.95713 12.7626 9.12909C13.0063 7.93688 13.9386 7.0046 15.1308 6.76093C15.9588 6.59143 15.9588 5.40894 15.1308 5.23944C14.0131 5.011 13.1239 4.17757 12.8164 3.09198L12.7626 2.87128L12.7197 2.72577Z" fill="currentColor"/></svg>
