<svg xmlns="http://www.w3.org/2000/svg" viewBox="0 0 24 24" fill="none"><path d="M7.01735 6.25025C7.10999 7.04323 7.64403 7.78525 8.62184 7.9856C9.32304 8.12917 9.87197 8.67888 10.0154 9.38013C10.4579 11.54 13.5436 11.5391 13.9861 9.37915C14.1296 8.6779 14.6794 8.12913 15.3806 7.9856C16.3581 7.78525 16.8925 7.04329 16.9851 6.25025H17.5418C17.7819 6.25022 17.9523 6.25022 18.1736 6.27661C18.3924 6.30273 18.4979 6.32842 18.655 6.36646C19.3925 6.545 20.021 6.84192 20.5574 7.33716C21.2862 8.01027 21.6624 8.87807 21.9021 9.96118C22.1345 11.011 22.2568 12.3568 22.4109 14.053L22.741 17.6799L22.742 17.6946C22.8958 19.8762 21.1875 21.75 19.0027 21.7502H18.2556C16.7175 21.7501 15.3411 20.802 14.7742 19.3674L14.032 17.4875C13.9045 17.1647 13.8296 16.9783 13.7605 16.8469C13.7294 16.7879 13.7075 16.7576 13.6961 16.7434C13.6919 16.7383 13.6882 16.7346 13.6873 16.7336L13.6853 16.7317L13.6736 16.7278C13.6577 16.7227 13.6238 16.7135 13.5593 16.7063C13.4146 16.6902 13.2162 16.6897 12.8718 16.6897H11.1316C10.7873 16.6897 10.5888 16.6903 10.4441 16.7063C10.3799 16.7134 10.346 16.7227 10.3298 16.7278L10.3181 16.7317L10.3162 16.7336C10.3162 16.7336 10.3122 16.7375 10.3074 16.7434C10.296 16.7575 10.2741 16.7877 10.2429 16.8469C10.1738 16.9782 10.099 17.1647 9.97145 17.4875L9.22926 19.3674C8.66241 20.802 7.28584 21.7499 5.74782 21.7502H5.00075C2.81568 21.7502 1.10757 19.8764 1.26149 17.6946C1.26185 17.6894 1.26199 17.6841 1.26247 17.679L1.58961 14.1116L1.5945 14.0598C1.7503 12.3587 1.8737 11.01 2.10719 9.95825C2.34754 8.87575 2.72398 8.00872 3.45289 7.33618C3.98879 6.84184 4.61486 6.54484 5.35133 6.36646C5.50883 6.32831 5.61522 6.30282 5.83473 6.27661C6.05597 6.25026 6.22623 6.25022 6.46657 6.25025H7.01735ZM7.25172 10.7502C6.69944 10.7502 6.25172 11.198 6.25172 11.7502C6.25172 12.3025 6.69944 12.7502 7.25172 12.7502C7.80395 12.7502 8.25172 12.3025 8.25172 11.7502C8.25172 11.198 7.80395 10.7503 7.25172 10.7502ZM16.7517 10.7502C16.1994 10.7502 15.7517 11.198 15.7517 11.7502C15.7517 12.3025 16.1994 12.7502 16.7517 12.7502C17.3039 12.7502 17.7517 12.3025 17.7517 11.7502C17.7517 11.198 17.3039 10.7503 16.7517 10.7502Z" fill="currentColor" fill-rule="evenodd" clip-rule="evenodd"/><path d="M12.7197 2.72577C12.4674 2.09174 11.5364 2.09173 11.2841 2.72577L11.2412 2.87128C11.0127 3.98896 10.1793 4.87821 9.0937 5.18573L8.87299 5.23944C8.04497 5.40894 8.04495 6.59143 8.87299 6.76093C10.0652 7.0046 10.9975 7.93688 11.2412 9.12909C11.4107 9.95712 12.5931 9.95713 12.7626 9.12909C13.0063 7.93688 13.9386 7.0046 15.1308 6.76093C15.9588 6.59143 15.9588 5.40894 15.1308 5.23944C14.0131 5.011 13.1239 4.17757 12.8164 3.09198L12.7626 2.87128L12.7197 2.72577Z" fill="currentColor"/></svg>
