<svg xmlns="http://www.w3.org/2000/svg" viewBox="0 0 24 24" fill="none"><path d="M11.9492 1.75C14.0204 1.74999 15.7465 1.75005 17.0244 1.90527C18.3303 2.06392 19.3755 2.39441 20.2344 3.12793C20.4633 3.32348 20.6765 3.53668 20.8721 3.76562C21.6056 4.62447 21.9361 5.66971 22.0947 6.97559C22.25 8.25346 22.25 9.97956 22.25 12.0508C22.25 14.1222 22.25 15.7464 22.0947 17.0244C21.9361 18.3303 21.6056 19.3755 20.8721 20.2344C20.6765 20.4633 20.4633 20.6765 20.2344 20.8721C19.3755 21.6056 18.3303 21.9361 17.0244 22.0947C15.7464 22.25 14.1222 22.25 12.0508 22.25C9.97956 22.25 8.25346 22.25 6.97559 22.0947C5.66971 21.9361 4.62447 21.6056 3.76562 20.8721C3.53668 20.6765 3.32348 20.4633 3.12793 20.2344C2.39441 19.3755 2.06392 18.3303 1.90527 17.0244C1.75004 15.7464 1.74999 14.1222 1.75 12.0508C1.74999 9.97956 1.75005 8.25346 1.90527 6.97559C2.06392 5.66971 2.39441 4.62447 3.12793 3.76562C3.32348 3.53669 3.53669 3.32348 3.76562 3.12793C4.62447 2.39441 5.66971 2.06392 6.97559 1.90527C8.25356 1.75004 9.87778 1.74999 11.9492 1.75ZM12 5.25C8.27208 5.25 5.25 8.27208 5.25 12C5.25 15.7279 8.27208 18.75 12 18.75C15.7279 18.75 18.75 15.7279 18.75 12C18.75 8.27208 15.7279 5.25 12 5.25Z" fill="currentColor"/><path d="M8.5 12C8.5 11.4477 8.94772 11 9.5 11H9.50897C10.0613 11 10.509 11.4477 10.509 12C10.509 12.5523 10.0613 13 9.50897 13H9.5C8.94772 13 8.5 12.5523 8.5 12ZM13.4912 12C13.4912 11.4477 13.9389 11 14.4912 11H14.5002C15.0525 11 15.5002 11.4477 15.5002 12C15.5002 12.5523 15.0525 13 14.5002 13H14.4912C13.9389 13 13.4912 12.5523 13.4912 12Z" fill="currentColor" fill-rule="evenodd" clip-rule="evenodd"/></svg>
