<svg xmlns="http://www.w3.org/2000/svg" viewBox="0 0 24 24" fill="none"><path opacity="0.4" d="M19.3916 3.36621C18.5267 3.24995 17.4275 3.24997 16.0645 3.25H7.93555C6.57249 3.24997 5.47331 3.24995 4.6084 3.36621C3.70829 3.48723 2.95055 3.74672 2.34863 4.34863C1.74672 4.95055 1.48723 5.70829 1.36621 6.6084C1.24995 7.47331 1.24997 8.57249 1.25 9.93555V12.0645C1.24997 13.4275 1.24995 14.5267 1.36621 15.3916C1.48723 16.2917 1.74672 17.0495 2.34863 17.6514L2.46289 17.7607C3.04541 18.2856 3.76456 18.5203 4.6084 18.6338C5.47331 18.7501 6.57248 18.75 7.93552 18.75H7.93555H14.002C14.0025 18.3897 14.0064 17.988 14.0537 17.6357C14.1202 17.1414 14.2992 16.4586 14.8789 15.8789C14.9205 15.8374 14.9651 15.8004 15.0078 15.7627C15.1306 13.6641 16.8706 12 19 12C20.6818 12.0001 22.1199 13.0384 22.7109 14.5088C22.7486 13.812 22.75 13.0005 22.75 12.0645V9.93555C22.75 8.57249 22.7501 7.47331 22.6338 6.6084C22.5128 5.70829 22.2533 4.95055 21.6514 4.34863C21.0494 3.74672 20.2917 3.48723 19.3916 3.36621Z" fill="currentColor"/><path d="M19 13.25C20.5188 13.25 21.75 14.4812 21.75 16V16.4365C21.9215 16.5091 22.0873 16.6127 22.2373 16.7627C22.5463 17.0717 22.6592 17.4473 22.707 17.8027C22.7519 18.1366 22.75 18.5498 22.75 19C22.75 19.4502 22.7519 19.8634 22.707 20.1973C22.6592 20.5527 22.5463 20.9283 22.2373 21.2373C21.9283 21.5463 21.5528 21.6592 21.1973 21.707C20.8634 21.7519 20.4502 21.75 20 21.75H18C17.5498 21.75 17.1366 21.7519 16.8027 21.707C16.4473 21.6592 16.0717 21.5463 15.7627 21.2373C15.4537 20.9283 15.3408 20.5527 15.293 20.1973C15.2481 19.8634 15.25 19.4502 15.25 19C15.25 18.5498 15.2481 18.1366 15.293 17.8027C15.3408 17.4473 15.4537 17.0717 15.7627 16.7627C15.9127 16.6127 16.0785 16.5091 16.25 16.4365V16C16.25 14.4812 17.4812 13.25 19 13.25ZM19 14.75C18.3097 14.75 17.75 15.3096 17.75 16V16.251C17.8318 16.2508 17.9153 16.25 18 16.25H20C20.0847 16.25 20.1682 16.2508 20.25 16.251V16C20.25 15.3096 19.6904 14.75 19 14.75Z" fill="currentColor" fill-rule="evenodd" clip-rule="evenodd"/><path d="M12 14C13.6569 14 15 12.6569 15 11C15 9.34315 13.6569 8 12 8C10.3431 8 9 9.34315 9 11C9 12.6569 10.3431 14 12 14Z" fill="currentColor"/><path d="M21.6514 4.34961C21.0495 3.74769 20.2917 3.4882 19.3916 3.36718C18.9962 3.31403 18.5518 3.28519 18.0557 3.26953C18.0557 5.84111 20.1592 7.92578 22.7308 7.92578C22.715 7.43748 22.6862 6.99958 22.6338 6.60937C22.5128 5.70926 22.2533 4.95152 21.6514 4.34961Z" fill="currentColor"/><path d="M2.32946 4.34961C2.93137 3.74769 3.68911 3.4882 4.58922 3.36718C4.98463 3.31403 5.429 3.28519 5.92516 3.26953C5.92516 5.84111 3.82158 7.92578 1.25 7.92578C1.2658 7.43748 1.29458 6.99958 1.34703 6.60937C1.46805 5.70926 1.72754 4.95152 2.32946 4.34961Z" fill="currentColor"/><path d="M2.32945 17.6504C2.93137 18.2523 3.68911 18.5118 4.58922 18.6328C4.98463 18.686 5.42899 18.7148 5.92515 18.7305C5.92515 16.1589 3.82157 14.0742 1.25 14.0742C1.26579 14.5625 1.29458 15.0004 1.34703 15.3906C1.46804 16.2907 1.72754 17.0485 2.32945 17.6504Z" fill="currentColor"/></svg>
