<svg xmlns="http://www.w3.org/2000/svg" viewBox="0 0 24 24" fill="none"><path d="M19 13.25C20.5188 13.25 21.75 14.4812 21.75 16V16.4365C21.9215 16.5091 22.0873 16.6127 22.2373 16.7627C22.5463 17.0717 22.6592 17.4473 22.707 17.8027C22.7519 18.1366 22.75 18.5498 22.75 19C22.75 19.4502 22.7519 19.8634 22.707 20.1973C22.6592 20.5527 22.5463 20.9283 22.2373 21.2373C21.9283 21.5463 21.5527 21.6592 21.1973 21.707C20.8634 21.7519 20.4502 21.75 20 21.75H18C17.5498 21.75 17.1366 21.7519 16.8027 21.707C16.4473 21.6592 16.0717 21.5463 15.7627 21.2373C15.4537 20.9283 15.3408 20.5527 15.293 20.1973C15.2481 19.8634 15.25 19.4502 15.25 19C15.25 18.5498 15.2481 18.1366 15.293 17.8027C15.3408 17.4473 15.4537 17.0717 15.7627 16.7627C15.9127 16.6127 16.0785 16.5091 16.25 16.4365V16C16.25 14.4812 17.4812 13.25 19 13.25ZM19 14.75C18.3097 14.75 17.75 15.3097 17.75 16V16.251H20.25V16C20.25 15.3096 19.6904 14.75 19 14.75Z" fill="currentColor" fill-rule="evenodd" clip-rule="evenodd"/><path d="M16.0645 3.25C17.4275 3.24997 18.5267 3.24995 19.3916 3.36621C20.2917 3.48723 21.0494 3.74672 21.6514 4.34863C22.2533 4.95055 22.5128 5.70829 22.6338 6.6084C22.7501 7.47331 22.75 8.57249 22.75 9.93555V12.0645C22.75 13.0005 22.7486 13.812 22.7109 14.5088C22.1199 13.0384 20.6818 12.0001 19 12C16.8706 12 15.1306 13.6641 15.0078 15.7627C14.9651 15.8004 14.9205 15.8374 14.8789 15.8789C14.2992 16.4586 14.1202 17.1414 14.0537 17.6357C14.0064 17.988 14.0025 18.3897 14.002 18.75H7.93555C6.57249 18.75 5.47331 18.7501 4.6084 18.6338C3.76456 18.5203 3.04541 18.2856 2.46289 17.7607L2.34863 17.6514C1.74672 17.0495 1.48723 16.2917 1.36621 15.3916C1.24995 14.5267 1.24997 13.4275 1.25 12.0645V9.93555C1.24997 8.57249 1.24995 7.47331 1.36621 6.6084C1.48723 5.70829 1.74672 4.95055 2.34863 4.34863C2.95055 3.74672 3.70829 3.48723 4.6084 3.36621C5.47331 3.24995 6.57249 3.24997 7.93555 3.25H16.0645ZM2.77051 14.0703C2.78514 14.4986 2.81007 14.867 2.85352 15.1904C2.95216 15.9241 3.13246 16.3131 3.40918 16.5898L3.51856 16.6895C3.78837 16.9107 4.16663 17.0592 4.80859 17.1455C5.13201 17.189 5.50041 17.2149 5.92871 17.2295C5.62343 15.6338 4.36609 14.3758 2.77051 14.0703ZM12 8C10.3431 8 9 9.34315 9 11C9 12.6569 10.3431 14 12 14C13.6569 14 15 12.6569 15 11C15 9.34315 13.6569 8 12 8ZM5.92871 4.76953C5.50046 4.78416 5.13199 4.80909 4.80859 4.85254C4.07504 4.95116 3.68593 5.13158 3.40918 5.4082C3.13246 5.68493 2.95218 6.07406 2.85352 6.80762C2.81005 7.13108 2.78514 7.50034 2.77051 7.92871C4.36612 7.62327 5.62342 6.3652 5.92871 4.76953ZM18.0713 4.76953C18.3783 6.35971 19.6389 7.6139 21.2295 7.92481C21.2148 7.49791 21.1898 7.1302 21.1465 6.80762C21.0478 6.07403 20.8675 5.68493 20.5908 5.4082C20.3141 5.1315 19.925 4.95119 19.1914 4.85254C18.8681 4.8091 18.4994 4.78417 18.0713 4.76953Z" fill="currentColor" fill-rule="evenodd" clip-rule="evenodd"/></svg>
