<svg xmlns="http://www.w3.org/2000/svg" viewBox="0 0 24 24" fill="none"><path d="M15.125 2.25024C16.3627 2.2491 17.3041 2.24848 18.1318 2.66235C18.9595 3.07627 19.6431 3.98997 20.3848 4.98071L21.5547 6.54028C21.6812 6.709 21.75 6.91435 21.75 7.12524V13.0471C21.75 14.8248 21.7501 16.2581 21.5986 17.385C21.4413 18.5549 21.1047 19.5401 20.3223 20.3225C19.5399 21.1049 18.5547 21.4415 17.3848 21.5989C16.2577 21.7504 14.8238 21.7503 13.0459 21.7502H10.9541C9.1765 21.7503 7.74319 21.7503 6.61621 21.5989C5.44607 21.4416 4.46023 21.105 3.67773 20.3225C2.89534 19.5401 2.55871 18.5549 2.40137 17.385C2.24985 16.2581 2.24997 14.8248 2.25 13.0471V7.12524C2.25004 6.91435 2.31877 6.709 2.44531 6.54028L3.61523 4.98071C4.35687 3.98997 5.04051 3.07627 5.86816 2.66235C6.69591 2.24848 7.63731 2.2491 8.875 2.25024H15.125ZM12 9.50024C11.6674 9.50024 11.384 9.61514 11.1826 9.7229C10.9733 9.83493 10.7801 9.97855 10.6113 10.1223C10.2746 10.4091 9.94005 10.7763 9.64355 11.1262C9.38656 11.4534 8.38661 12.6962 8.2832 12.803C7.89836 13.1989 7.90698 13.8321 8.30273 14.217C8.69867 14.6019 9.33183 14.5933 9.7168 14.1975C9.90977 13.999 10.7704 12.9146 11 12.6223V17.5002C11 18.0525 11.4477 18.5002 12 18.5002C12.5523 18.5002 13 18.0525 13 17.5002V12.6223C13.1932 12.8575 14.1037 13.9689 14.2832 14.1975C14.6682 14.5933 15.3013 14.6019 15.6973 14.217C16.093 13.8321 16.1016 13.1989 15.7168 12.803C15.4885 12.5122 14.6333 11.453 14.3564 11.1262C14.0599 10.7763 13.7254 10.4091 13.3887 10.1223C13.2199 9.97855 13.0267 9.83493 12.8174 9.7229C12.616 9.61514 12.3326 9.50024 12 9.50024ZM9.0752 4.20142C7.54199 4.20142 7.1036 4.22579 6.74023 4.40747C6.377 4.58918 6.0945 4.92537 5.1748 6.15161H18.8252C17.9054 4.92528 17.623 4.58918 17.2598 4.40747C16.8964 4.22579 16.458 4.20142 14.9248 4.20142H9.0752Z" fill="currentColor"/></svg>
