<svg xmlns="http://www.w3.org/2000/svg" viewBox="0 0 24 24" fill="none"><path opacity="0.4" d="M21.75 16.0387V16V15.9613C21.75 14.8218 21.75 13.8913 21.6514 13.1572C21.5487 12.3933 21.3265 11.7308 20.7979 11.2021C20.2692 10.6735 19.6067 10.4513 18.8428 10.3486C18.1087 10.25 17.1782 10.25 16.0387 10.25H16C14.9976 10.25 14.362 11.0577 14.127 11.7363C13.8216 12.6183 12.9835 13.25 12 13.25C11.0164 13.25 10.1784 12.6183 9.87305 11.7363C9.63803 11.0577 9.00236 10.25 8 10.25H7.96128C6.82178 10.25 5.89126 10.25 5.15723 10.3486C4.39328 10.4513 3.73084 10.6735 3.20215 11.2021C2.67346 11.7308 2.45134 12.3933 2.34863 13.1572C2.24998 13.8913 2.24999 14.8218 2.25 15.9613V16V16.0387C2.24999 17.1782 2.24998 18.1087 2.34863 18.8428C2.45134 19.6067 2.67346 20.2692 3.20215 20.7979C3.73084 21.3265 4.39328 21.5487 5.15723 21.6514C5.89126 21.75 6.82177 21.75 7.96127 21.75H8H16H16.0387C17.1782 21.75 18.1087 21.75 18.8428 21.6514C19.6067 21.5487 20.2692 21.3265 20.7979 20.7979C21.3265 20.2692 21.5487 19.6067 21.6514 18.8428C21.75 18.1087 21.75 17.1782 21.75 16.0387Z" fill="currentColor"/><path d="M2.24994 16.0391C2.24993 16.3146 2.24952 16.5779 2.25091 16.8291C2.25043 16.8168 2.24994 16.8044 2.24994 16.792V16.0391Z" fill="currentColor"/><path d="M21.7499 16.792C21.7499 16.8044 21.7485 16.8168 21.748 16.8291C21.7494 16.5779 21.7499 16.3146 21.7499 16.0391V16.792Z" fill="currentColor"/><path d="M15.9609 6.25C17.0553 6.24997 17.9738 6.25022 18.704 6.34668C19.4758 6.44867 20.1817 6.67402 20.7499 7.23242C21.3182 7.79102 21.5485 8.48545 21.6523 9.24414C21.7504 9.96186 21.75 10.8649 21.7499 11.9404V15.9609C21.75 14.8216 21.75 13.8912 21.6513 13.1572C21.5486 12.3933 21.3265 11.7308 20.7978 11.2021C20.2691 10.6735 19.6066 10.4513 18.8427 10.3486C18.1087 10.25 17.1783 10.25 16.039 10.25H15.9999C14.9976 10.25 14.3619 11.0577 14.1269 11.7363C13.8215 12.6183 12.9835 13.25 11.9999 13.25C11.0164 13.25 10.1783 12.6182 9.87298 11.7363C9.63796 11.0577 9.00229 10.25 7.99994 10.25H7.96088C6.82156 10.25 5.89111 10.25 5.15716 10.3486C4.39324 10.4513 3.73077 10.6735 3.20209 11.2021C2.67341 11.7308 2.45128 12.3933 2.34857 13.1572C2.24992 13.8912 2.24992 14.8216 2.24994 15.9609V11.9404C2.24991 10.8649 2.24951 9.96186 2.34759 9.24414C2.45137 8.48545 2.68162 7.79102 3.24994 7.23242C3.81818 6.67401 4.5241 6.44868 5.29584 6.34668C6.02608 6.25023 6.94463 6.24997 8.039 6.25H15.9609Z" fill="currentColor"/><path opacity="0.4" d="M15.9609 2.25C17.0553 2.24997 17.9738 2.25022 18.7041 2.34668C19.4758 2.44867 20.1817 2.67402 20.75 3.23242C21.3183 3.79102 21.5486 4.48545 21.6523 5.24414C21.7504 5.96186 21.75 6.86491 21.75 7.94043V11.8516C21.75 10.8151 21.7477 9.942 21.6523 9.24414C21.5486 8.48547 21.3183 7.79102 20.75 7.23242C20.1818 6.67404 19.4758 6.44867 18.7041 6.34668C17.9739 6.25023 17.0553 6.24997 15.9609 6.25H8.03906C6.94472 6.24997 6.02613 6.25023 5.2959 6.34668C4.52418 6.44868 3.81824 6.67403 3.25 7.23242C2.68169 7.79102 2.45144 8.48546 2.34766 9.24414C2.25987 9.88652 2.25088 10.6773 2.25 11.6074V7.94043C2.24997 6.8649 2.24957 5.96186 2.34766 5.24414C2.45143 4.48545 2.68169 3.79102 3.25 3.23242C3.81826 2.67402 4.52415 2.44867 5.2959 2.34668C6.02615 2.25022 6.94467 2.24997 8.03906 2.25H15.9609Z" fill="currentColor"/></svg>
