<svg xmlns="http://www.w3.org/2000/svg" viewBox="0 0 24 24" fill="none"><path d="M19.7998 12.7917V8C19.7998 6.8435 19.7973 6.07213 19.7188 5.49841C19.6441 4.95259 19.5169 4.7309 19.3713 4.58781C19.2257 4.44473 19.0002 4.31965 18.4448 4.24622C17.8611 4.16908 17.0764 4.16667 15.8998 4.16667H8.09976C6.92315 4.16667 6.13836 4.16908 5.55466 4.24622C4.99935 4.31965 4.7738 4.44473 4.62822 4.58781C4.48265 4.7309 4.3554 4.95259 4.28069 5.49841C4.20221 6.07213 4.19976 6.8435 4.19976 8V12.7917C4.19976 13.3209 3.76324 13.75 3.22476 13.75C2.68628 13.75 2.24976 13.3209 2.24976 12.7917V8C2.24976 6.89789 2.24788 5.97491 2.34783 5.24386C2.45161 4.48517 2.6812 3.79127 3.24951 3.23267C3.81783 2.67407 4.5238 2.4484 5.29568 2.3464C6.03945 2.24816 6.97848 2.25 8.09976 2.25H15.8998C17.021 2.25 17.9601 2.24816 18.7038 2.3464C19.4757 2.4484 20.1817 2.67407 20.75 3.23267C21.3183 3.79127 21.5479 4.48517 21.6517 5.24386C21.7516 5.97491 21.7498 6.89789 21.7498 8V12.7917C21.7498 13.3209 21.3132 13.75 20.7748 13.75C20.2363 13.75 19.7998 13.3209 19.7998 12.7917Z" fill="currentColor"/><path d="M19.7998 16.7917V12C19.7998 10.8435 19.7973 10.0721 19.7188 9.49841C19.6441 8.95259 19.5169 8.7309 19.3713 8.58781C19.2257 8.44473 19.0002 8.31965 18.4448 8.24622C17.8611 8.16908 17.0764 8.16667 15.8998 8.16667H8.09976C6.92315 8.16667 6.13836 8.16908 5.55466 8.24622C4.99935 8.31965 4.7738 8.44473 4.62822 8.58781C4.48265 8.7309 4.3554 8.95259 4.28069 9.49841C4.20221 10.0721 4.19976 10.8435 4.19976 12V16.7917C4.19976 17.3209 3.76324 17.75 3.22476 17.75C2.68628 17.75 2.24976 17.3209 2.24976 16.7917V12C2.24976 10.8979 2.24788 9.97491 2.34783 9.24386C2.45161 8.48517 2.6812 7.79127 3.24951 7.23267C3.81783 6.67407 4.5238 6.4484 5.29568 6.3464C6.03945 6.24816 6.97848 6.25 8.09976 6.25H15.8998C17.021 6.25 17.9601 6.24816 18.7038 6.3464C19.4757 6.4484 20.1817 6.67407 20.75 7.23267C21.3183 7.79127 21.5479 8.48517 21.6517 9.24386C21.7516 9.97491 21.7498 10.8979 21.7498 12V16.7917C21.7498 17.3209 21.3132 17.75 20.7748 17.75C20.2363 17.75 19.7998 17.3209 19.7998 16.7917Z" fill="currentColor"/><path d="M21.7498 16.0387V16V15.9613C21.7498 14.8218 21.7498 13.8913 21.6511 13.1572C21.5484 12.3933 21.3263 11.7308 20.7976 11.2021C20.2689 10.6735 19.6065 10.4513 18.8425 10.3486C18.1085 10.25 17.178 10.25 16.0385 10.25H15.9998C14.9974 10.25 14.3617 11.0577 14.1267 11.7363C13.8214 12.6183 12.9833 13.25 11.9998 13.25C11.0162 13.25 10.1781 12.6183 9.8728 11.7363C9.63778 11.0577 9.00212 10.25 7.99976 10.25H7.96103C6.82153 10.25 5.89102 10.25 5.15698 10.3486C4.39303 10.4513 3.7306 10.6735 3.2019 11.2021C2.67321 11.7308 2.4511 12.3933 2.34839 13.1572C2.24973 13.8913 2.24974 14.8218 2.24976 15.9613V16V16.0387C2.24974 17.1782 2.24973 18.1087 2.34839 18.8428C2.4511 19.6067 2.67321 20.2692 3.2019 20.7979C3.7306 21.3265 4.39303 21.5487 5.15698 21.6514C5.89102 21.75 6.82152 21.75 7.96102 21.75H7.99976H15.9998H16.0385C17.178 21.75 18.1085 21.75 18.8425 21.6514C19.6065 21.5487 20.2689 21.3265 20.7976 20.7979C21.3263 20.2692 21.5484 19.6067 21.6511 18.8428C21.7498 18.1087 21.7498 17.1782 21.7498 16.0387Z" fill="currentColor"/></svg>
