<svg xmlns="http://www.w3.org/2000/svg" fill="none" viewBox="0 0 48 48">
  <g>
    <path fill="currentColor" fill-opacity="0.4" fill-rule="evenodd" d="M15.2863 0.4951C15.6682 0.4853 16.0704 0.48 16.4936 0.48c0.4233 0 0.8254 0.0053 1.2074 0.0151 4.8787 0.1256 7.8098 3.9731 8.035 8.4802 0.1471 2.9452 0.2657 7.1425 0.2657 13.023 0 0.8347 -0.0024 1.6355 -0.0069 2.4035 2.4744 2.4476 4.0103 5.8486 4.0103 9.6067 0 7.4622 -6.0493 13.5115 -13.5115 13.5115S2.9821 41.4707 2.9821 34.0085c0 -3.7581 1.536 -7.1591 4.0103 -9.6067 -0.0045 -0.768 -0.0069 -1.5688 -0.0069 -2.4035 0 -5.8805 0.1187 -10.0778 0.2658 -13.023 0.2251 -4.5071 3.1562 -8.3546 8.035 -8.4802Z" clip-rule="evenodd" stroke-width="1"></path>
    <path fill="currentColor" fill-rule="evenodd" d="M16.4936 6.4851c1.3819 0 2.5021 1.1202 2.5021 2.5021V29.104c1.7824 0.9112 3.0026 2.7654 3.0026 4.9045 0 3.0402 -2.4645 5.5047 -5.5047 5.5047s-5.5047 -2.4645 -5.5047 -5.5047c0 -2.1391 1.2203 -3.9933 3.0026 -4.9045V8.9872c0 -1.3819 1.1202 -2.5021 2.5021 -2.5021Z" clip-rule="evenodd" stroke-width="1"></path>
    <path fill="currentColor" fill-rule="evenodd" d="M41.0145 14.4919c0 -5.5275 -4.481 -10.0085 -10.0085 -10.0085 -1.1056 0 -2.0017 -0.8962 -2.0017 -2.0017S29.9004 0.48 31.006 0.48c7.7385 0 14.0119 6.2733 14.0119 14.0119 0 1.1056 -0.8962 2.0017 -2.0017 2.0017s-2.0017 -0.8961 -2.0017 -2.0017Zm-6.0051 0c0 -2.211 -1.7925 -4.0034 -4.0034 -4.0034 -1.1056 0 -2.0017 -0.8962 -2.0017 -2.0017s0.8961 -2.0017 2.0017 -2.0017c4.422 0 8.0068 3.5848 8.0068 8.0068 0 1.1056 -0.8962 2.0017 -2.0017 2.0017s-2.0017 -0.8961 -2.0017 -2.0017Z" clip-rule="evenodd" stroke-width="1"></path>
  </g>
</svg>
