<svg xmlns="http://www.w3.org/2000/svg" fill="none" viewBox="0 0 48 48">
  <g>
    <path stroke="currentColor" stroke-linejoin="round" d="M24.9895 25.0464c2.4637 2.1995 4.0148 5.3997 4.0148 8.9621 0 6.6331 -5.3772 12.0102 -12.0103 12.0102S4.9838 40.6416 4.9838 34.0085c0 -3.5624 1.5511 -6.7626 4.0147 -8.9621 -0.0073 -0.9613 -0.0113 -1.9765 -0.0113 -3.0481 0 -5.8611 0.1183 -10.0328 0.264 -12.9481 0.1954 -3.9132 2.6573 -6.9535 6.574 -7.0543 0.3688 -0.0095 0.7581 -0.0146 1.1688 -0.0146s0.8001 0.0051 1.1688 0.0146c3.9168 0.1008 6.3788 3.1411 6.5742 7.0543 0.1456 2.9153 0.2639 7.087 0.2639 12.9481 0 1.0716 -0.004 2.0868 -0.0114 3.0481Z" stroke-width="3.429"></path>
    <path stroke="currentColor" stroke-linejoin="round" d="M20.9975 34.0085c0 2.211 -1.7925 4.0034 -4.0034 4.0034 -2.211 0 -4.0034 -1.7924 -4.0034 -4.0034 0 -2.211 1.7924 -4.0034 4.0034 -4.0034 2.2109 0 4.0034 1.7924 4.0034 4.0034Z" stroke-width="3.429"></path>
    <path stroke="currentColor" stroke-linecap="round" stroke-linejoin="round" d="M16.994 8.9872v21.0179" stroke-width="3.429"></path>
    <path stroke="currentColor" stroke-linecap="round" d="M43.0162 13.9915c0 -6.6331 -5.3772 -12.0102 -12.0102 -12.0102" stroke-width="3.429"></path>
    <path stroke="currentColor" stroke-linecap="round" d="M37.0111 13.9915c0 -3.3165 -2.6886 -6.0051 -6.0051 -6.0051" stroke-width="3.429"></path>
  </g>
</svg>
