<svg xmlns="http://www.w3.org/2000/svg" fill="none" viewBox="0 0 48 48">
  <g>
    <path fill="currentColor" fill-rule="evenodd" d="M16.0991 4.5136c0.341 -0.00881 0.7025 -0.0136 1.0854 -0.0136 0.383 0 0.7445 0.00479 1.0854 0.0136 2.5235 0.06518 4.299 1.95205 4.4501 4.98833 0.1396 2.80687 0.2542 6.84647 0.2542 12.54377 0 1.0415 -0.0038 2.0277 -0.0109 2.9611 -0.0044 0.5738 0.2379 1.1218 0.6652 1.5047 1.9904 1.7835 3.2405 4.3739 3.2405 7.2617 0 5.3792 -4.3428 9.7274 -9.6845 9.7274 -5.3417 0 -9.6845 -4.3482 -9.6845 -9.7274 0 -2.8878 1.25016 -5.4782 3.2405 -7.2617 0.4274 -0.3829 0.6697 -0.9309 0.6653 -1.5047 -0.0071 -0.9334 -0.011 -1.9196 -0.011 -2.9611 0 -5.6973 0.1146 -9.7369 0.2543 -12.54377 0.1511 -3.03628 1.9266 -4.92315 4.45 -4.98833ZM17.1845 0.5c-0.4163 0 -0.8122 0.005208 -1.1887 0.014932C10.8981 0.646613 7.88326 4.69723 7.65403 9.3031c-0.14364 2.8863 -0.25919 6.9938 -0.25919 12.7426 0 0.7367 0.0019 1.4464 0.00551 2.13C4.98877 26.6497 3.5 30.0387 3.5 33.7732c0 7.5745 6.11986 13.7274 13.6845 13.7274 7.5647 0 13.6845 -6.1529 13.6845 -13.7274 0 -3.7345 -1.4887 -7.1235 -3.9003 -9.5975 0.0036 -0.6836 0.0055 -1.3933 0.0055 -2.13 0 -5.7488 -0.1155 -9.8563 -0.2592 -12.7426 -0.2292 -4.60587 -3.2441 -8.656485 -8.3418 -8.788167C17.9968 0.505208 17.6008 0.5 17.1845 0.5Zm0.001 6.83984c1.1046 0 2 0.89543 2 2V28.7476c1.9905 0.7978 3.3932 2.7497 3.3932 5.0248 0 2.9822 -2.4101 5.4092 -5.3948 5.4092s-5.3948 -2.427 -5.3948 -5.4092c0 -2.2763 1.4043 -4.2292 3.3964 -5.0261V9.33984c0 -1.10457 0.8955 -2 2 -2ZM28.8164 2.5c0 -1.10457 0.8954 -2 2 -2 7.5647 0 13.6845 6.1529 13.6845 13.7274 0 1.1046 -0.8954 2 -2 2 -1.1045 0 -2 -0.8954 -2 -2 0 -5.3792 -4.3428 -9.7274 -9.6845 -9.7274 -1.1046 0 -2 -0.89543 -2 -2Zm2 3.86328c-1.1046 0 -2 0.89543 -2 2s0.8954 2.00002 2 2.00002c2.1148 0 3.8423 1.723 3.8423 3.8646 0 1.1046 0.8954 2 2 2 1.1045 0 2 -0.8954 2 -2 0 -4.33631 -3.5039 -7.86462 -7.8423 -7.86462Z" clip-rule="evenodd" stroke-width="3.429"></path>
  </g>
</svg>
