<svg xmlns="http://www.w3.org/2000/svg" viewBox="0 0 24 24" fill="none"><path opacity="0.4" d="M12.0681 5.25C13.3738 5.24997 14.4506 5.24994 15.3027 5.36451C16.1974 5.4848 16.9876 5.74706 17.6203 6.37973C18.2529 7.01241 18.5152 7.80257 18.6355 8.69726C18.7501 9.54946 18.75 10.7623 18.75 12.0681C18.75 13.3738 18.7501 14.4505 18.6355 15.3027C18.5152 16.1974 18.2529 16.9876 17.6203 17.6203C16.9876 18.2529 16.1974 18.5152 15.3027 18.6355C14.4505 18.7501 13.3738 18.75 12.0681 18.75C10.7623 18.75 9.54946 18.7501 8.69726 18.6355C7.80257 18.5152 7.01241 18.2529 6.37973 17.6203C5.74706 16.9876 5.4848 16.1974 5.36451 15.3027C5.24994 14.4506 5.24997 13.3738 5.25 12.0681V12.068C5.24997 10.7623 5.24994 9.54946 5.36451 8.69726C5.4848 7.80257 5.74706 7.01241 6.37973 6.37973C7.01241 5.74706 7.80257 5.4848 8.69726 5.36451C9.54946 5.24994 10.7623 5.24997 12.068 5.25H12.0681Z" fill="currentColor"/><path d="M7.2755 15.0456C7.36704 15.7264 7.52843 16.0418 7.74305 16.2564C7.95768 16.471 8.27302 16.6324 8.95385 16.724C9.66243 16.8192 10.6087 16.8213 11.9996 16.8213C13.3906 16.8213 14.3368 16.8192 15.0454 16.724C15.7262 16.6324 16.0416 16.471 16.2562 16.2564C16.4708 16.0418 16.6322 15.7264 16.7237 15.0456C16.7798 14.6287 16.8036 14.1295 16.8136 13.5058L15.6285 12.0505C15.0309 11.3165 13.9684 11.3165 13.3708 12.0505L11.9619 13.7808C11.4411 14.4204 10.5255 14.4532 9.96632 13.8522C9.43242 13.2785 8.56681 13.2785 8.03291 13.8522L7.23828 14.7062C7.24876 14.8253 7.26106 14.9382 7.2755 15.0456Z" fill="currentColor"/><path d="M10.25 8.75C10.8023 8.75 11.25 9.19772 11.25 9.75C11.25 10.3023 10.8023 10.75 10.25 10.75C9.69772 10.75 9.25 10.3023 9.25 9.75C9.25 9.19772 9.69771 8.75 10.25 8.75Z" fill="currentColor"/><path d="M1.75001 17.369C1.75001 16.8299 2.18707 16.3929 2.7262 16.3929C3.26534 16.3929 3.70239 16.8299 3.70239 17.369C3.70239 17.8489 3.70385 18.0083 3.71764 18.1307C3.84526 19.2619 4.73809 20.1547 5.86926 20.2824C5.99173 20.2962 6.15108 20.2976 6.63096 20.2976C7.17009 20.2976 7.60715 20.7347 7.60715 21.2738C7.60715 21.8129 7.17009 22.25 6.63096 22.25C6.20421 22.25 5.90983 22.2515 5.65096 22.2223C3.6144 21.9928 2.00716 20.3856 1.77766 18.349C1.74849 18.0902 1.75001 17.7958 1.75001 17.369ZM20.2976 17.369C20.2976 16.8299 20.7347 16.3929 21.2738 16.3929C21.8129 16.3929 22.25 16.8299 22.25 17.369C22.25 17.7958 22.2515 18.0902 22.2223 18.349C21.9928 20.3856 20.3856 21.9928 18.349 22.2223C18.0902 22.2515 17.7958 22.25 17.369 22.25C16.8299 22.25 16.3929 21.8129 16.3929 21.2738C16.3929 20.7347 16.8299 20.2976 17.369 20.2976C17.8489 20.2976 18.0083 20.2962 18.1307 20.2824C19.2619 20.1547 20.1547 19.2619 20.2824 18.1307C20.2962 18.0083 20.2976 17.8489 20.2976 17.369ZM1.75001 6.63096C1.75001 6.20421 1.74849 5.90984 1.77766 5.65096C2.00716 3.6144 3.6144 2.00716 5.65096 1.77766C5.90984 1.74849 6.20421 1.75001 6.63096 1.75001C7.17009 1.75001 7.60715 2.18707 7.60715 2.7262C7.60715 3.26534 7.17009 3.70239 6.63096 3.70239C6.15108 3.70239 5.99172 3.70385 5.86926 3.71764C4.73809 3.84526 3.84526 4.73809 3.71764 5.86926C3.70385 5.99172 3.70239 6.15108 3.70239 6.63096C3.70239 7.17009 3.26534 7.60715 2.7262 7.60715C2.18707 7.60715 1.75001 7.17009 1.75001 6.63096ZM20.2976 6.63096C20.2976 6.15108 20.2962 5.99173 20.2824 5.86926C20.1547 4.73809 19.2619 3.84526 18.1307 3.71764C18.0083 3.70385 17.8489 3.70239 17.369 3.70239C16.8299 3.70239 16.3929 3.26534 16.3929 2.7262C16.3929 2.18707 16.8299 1.75001 17.369 1.75001C17.7958 1.75001 18.0902 1.74849 18.349 1.77766C20.3856 2.00716 21.9928 3.6144 22.2223 5.65096C22.2515 5.90983 22.25 6.20421 22.25 6.63096C22.25 7.17009 21.8129 7.60715 21.2738 7.60715C20.7347 7.60715 20.2976 7.17009 20.2976 6.63096Z" fill="currentColor"/></svg>
