<svg xmlns="http://www.w3.org/2000/svg" viewBox="0 0 24 24" fill="none"><path d="M12.0684 5.25C13.374 5.24997 14.4506 5.2497 15.3027 5.36426C16.1974 5.48455 16.9874 5.74721 17.6201 6.37988C18.2528 7.01256 18.5155 7.80257 18.6357 8.69727C18.7503 9.54946 18.75 10.7626 18.75 12.0684C18.75 13.374 18.7503 14.4506 18.6357 15.3027C18.5155 16.1974 18.2528 16.9874 17.6201 17.6201C16.9874 18.2528 16.1974 18.5155 15.3027 18.6357C14.4506 18.7503 13.374 18.75 12.0684 18.75C10.7626 18.75 9.54946 18.7503 8.69727 18.6357C7.80257 18.5155 7.01256 18.2528 6.37988 17.6201C5.74721 16.9874 5.48455 16.1974 5.36426 15.3027C5.2497 14.4506 5.24997 13.374 5.25 12.0684C5.24997 10.7626 5.24969 9.54946 5.36426 8.69727C5.48455 7.80257 5.74721 7.01256 6.37988 6.37988C7.01256 5.74721 7.80257 5.48455 8.69727 5.36426C9.54946 5.24969 10.7626 5.24997 12.0684 5.25ZM15.6289 12.0508C15.0313 11.3168 13.9687 11.3168 13.3711 12.0508L11.9619 13.7813C11.4412 14.4205 10.526 14.453 9.9668 13.8525C9.4329 13.2788 8.5671 13.2788 8.0332 13.8525L7.23828 14.7061C7.24876 14.8251 7.26095 14.9385 7.27539 15.0459C7.36693 15.7265 7.52857 16.0422 7.74317 16.2568C7.95778 16.4713 8.27355 16.6321 8.9541 16.7236C9.66266 16.8189 10.6092 16.8213 12 16.8213C13.3905 16.8213 14.3365 16.8188 15.0449 16.7236C15.7254 16.6322 16.0412 16.4713 16.2559 16.2568C16.4705 16.0422 16.6321 15.7265 16.7236 15.0459C16.7797 14.629 16.8034 14.1295 16.8135 13.5059L15.6289 12.0508ZM10.25 8.75C9.69772 8.75 9.25 9.19772 9.25 9.75C9.25 10.3023 9.69772 10.75 10.25 10.75C10.8023 10.75 11.25 10.3023 11.25 9.75C11.25 9.19772 10.8023 8.75 10.25 8.75Z" fill="currentColor" fill-rule="evenodd" clip-rule="evenodd"/><path d="M1.75001 17.369C1.75001 16.8299 2.18707 16.3929 2.7262 16.3929C3.26534 16.3929 3.70239 16.8299 3.70239 17.369C3.70239 17.8489 3.70385 18.0083 3.71764 18.1307C3.84526 19.2619 4.73809 20.1547 5.86926 20.2824C5.99173 20.2962 6.15108 20.2976 6.63096 20.2976C7.17009 20.2976 7.60715 20.7347 7.60715 21.2738C7.60715 21.8129 7.17009 22.25 6.63096 22.25C6.20421 22.25 5.90983 22.2515 5.65096 22.2223C3.6144 21.9928 2.00716 20.3856 1.77766 18.349C1.74849 18.0902 1.75001 17.7958 1.75001 17.369ZM20.2976 17.369C20.2976 16.8299 20.7347 16.3929 21.2738 16.3929C21.8129 16.3929 22.25 16.8299 22.25 17.369C22.25 17.7958 22.2515 18.0902 22.2223 18.349C21.9928 20.3856 20.3856 21.9928 18.349 22.2223C18.0902 22.2515 17.7958 22.25 17.369 22.25C16.8299 22.25 16.3929 21.8129 16.3929 21.2738C16.3929 20.7347 16.8299 20.2976 17.369 20.2976C17.8489 20.2976 18.0083 20.2962 18.1307 20.2824C19.2619 20.1547 20.1547 19.2619 20.2824 18.1307C20.2962 18.0083 20.2976 17.8489 20.2976 17.369ZM1.75001 6.63096C1.75001 6.20421 1.74849 5.90984 1.77766 5.65096C2.00716 3.6144 3.6144 2.00716 5.65096 1.77766C5.90984 1.74849 6.20421 1.75001 6.63096 1.75001C7.17009 1.75001 7.60715 2.18707 7.60715 2.7262C7.60715 3.26534 7.17009 3.70239 6.63096 3.70239C6.15108 3.70239 5.99172 3.70385 5.86926 3.71764C4.73809 3.84526 3.84526 4.73809 3.71764 5.86926C3.70385 5.99172 3.70239 6.15108 3.70239 6.63096C3.70239 7.17009 3.26534 7.60715 2.7262 7.60715C2.18707 7.60715 1.75001 7.17009 1.75001 6.63096ZM20.2976 6.63096C20.2976 6.15108 20.2962 5.99173 20.2824 5.86926C20.1547 4.73809 19.2619 3.84526 18.1307 3.71764C18.0083 3.70385 17.8489 3.70239 17.369 3.70239C16.8299 3.70239 16.3929 3.26534 16.3929 2.7262C16.3929 2.18707 16.8299 1.75001 17.369 1.75001C17.7958 1.75001 18.0902 1.74849 18.349 1.77766C20.3856 2.00716 21.9928 3.6144 22.2223 5.65096C22.2515 5.90983 22.25 6.20421 22.25 6.63096C22.25 7.17009 21.8129 7.60715 21.2738 7.60715C20.7347 7.60715 20.2976 7.17009 20.2976 6.63096Z" fill="currentColor"/></svg>
