<svg xmlns="http://www.w3.org/2000/svg" viewBox="0 0 24 24" fill="none"><path opacity="0.4" d="M21.75 13.05V13V11V10.95C21.75 9.10922 21.75 7.65129 21.5967 6.51074C21.439 5.33844 21.1067 4.38991 20.3584 3.6416C19.6101 2.89329 18.6616 2.56096 17.4893 2.40332C16.3487 2.24998 14.8908 2.24999 13.0499 2.25H13H11H10.9501C9.10924 2.24999 7.6513 2.24998 6.51074 2.40332C5.33844 2.56096 4.38991 2.89329 3.6416 3.6416C2.89329 4.38991 2.56096 5.33844 2.40332 6.51074C2.24998 7.6513 2.24999 9.10924 2.25 10.9501V11V13V13.0499C2.24999 14.8908 2.24998 16.3487 2.40332 17.4893C2.56096 18.6616 2.89329 19.6101 3.6416 20.3584C4.38991 21.1067 5.33844 21.439 6.51074 21.5967C7.65129 21.75 9.10922 21.75 10.95 21.75H11H13H13.05C14.8908 21.75 16.3487 21.75 17.4893 21.5967C18.6616 21.439 19.6101 21.1067 20.3584 20.3584C21.1067 19.6101 21.439 18.6616 21.5967 17.4893C21.75 16.3487 21.75 14.8908 21.75 13.05Z" fill="currentColor"/><path d="M13.9951 9.89746C13.9438 9.39332 13.5177 9 13 9H11C10.4477 9 10 9.44771 10 10V14C10 14.5523 10.4477 15 11 15H13C13.5177 15 13.9438 14.6067 13.9951 14.1025L14.0049 13.8975C14.0562 13.3933 14.4823 13 15 13C15.5523 13 16 13.4477 16 14C16 15.6569 14.6569 17 13 17H11C9.34315 17 8 15.6569 8 14V10C8 8.34315 9.34315 7 11 7H13C14.6569 7 16 8.34315 16 10C16 10.5523 15.5523 11 15 11C14.4823 11 14.0562 10.6067 14.0049 10.1025L13.9951 9.89746Z" fill="currentColor"/></svg>
