<svg xmlns="http://www.w3.org/2000/svg" viewBox="0 0 24 24" fill="none"><path d="M13.0498 2.25C14.8906 2.24999 16.3487 2.24998 17.4893 2.40332C18.6616 2.56096 19.6101 2.89329 20.3584 3.6416C21.1067 4.38991 21.439 5.33844 21.5967 6.51074C21.75 7.65129 21.75 9.10939 21.75 10.9502V13.0498C21.75 14.8906 21.75 16.3487 21.5967 17.4893C21.439 18.6616 21.1067 19.6101 20.3584 20.3584C19.6101 21.1067 18.6616 21.439 17.4893 21.5967C16.3487 21.75 14.8906 21.75 13.0498 21.75H10.9502C9.10939 21.75 7.65129 21.75 6.51074 21.5967C5.33844 21.439 4.38991 21.1067 3.6416 20.3584C2.89329 19.6101 2.56096 18.6616 2.40332 17.4893C2.24998 16.3487 2.24999 14.8906 2.25 13.0498V10.9502C2.24999 9.10937 2.24998 7.65129 2.40332 6.51074C2.56096 5.33844 2.89329 4.38991 3.6416 3.6416C4.38991 2.89329 5.33844 2.56096 6.51074 2.40332C7.65129 2.24998 9.10937 2.24999 10.9502 2.25H13.0498ZM11 7C9.34315 7 8 8.34315 8 10V14C8 15.6569 9.34315 17 11 17H13C14.6569 17 16 15.6569 16 14C16 13.4477 15.5523 13 15 13C14.4823 13 14.0562 13.3933 14.0049 13.8975L13.9951 14.1025C13.9438 14.6067 13.5177 15 13 15H11C10.4477 15 10 14.5523 10 14V10C10 9.44771 10.4477 9 11 9H13C13.5177 9 13.9438 9.39332 13.9951 9.89746L14.0049 10.1025C14.0562 10.6067 14.4823 11 15 11C15.5523 11 16 10.5523 16 10C16 8.34315 14.6569 7 13 7H11Z" fill="currentColor"/></svg>
