<svg xmlns="http://www.w3.org/2000/svg" viewBox="0 0 24 24" fill="none"><path d="M13.9854 3.64026C13.5281 2.90648 12.926 2.24965 12.0001 2.24963C11.0741 2.24963 10.472 2.90648 10.0147 3.64026C9.55467 4.37852 9.0818 5.45697 8.49734 6.7899L8.47175 6.84827L5.19733 14.3151L5.17478 14.3665C4.41749 16.0935 3.82111 17.4535 3.50886 18.4694C3.35114 18.9825 3.2463 19.4675 3.25007 19.903C3.25403 20.3556 3.37803 20.8128 3.73444 21.1696C3.86973 21.305 4.02192 21.4226 4.18659 21.5201C4.61438 21.7736 5.08511 21.7902 5.52741 21.6989C5.95747 21.6099 6.41799 21.409 6.90046 21.149C7.85406 20.6353 9.09296 19.7792 10.6706 18.6889L10.7198 18.6549C11.1223 18.3767 11.3794 18.2001 11.5889 18.0846C11.7837 17.9772 11.8806 17.9559 11.9503 17.9518C11.9832 17.9499 12.0169 17.9499 12.0499 17.9518C12.1195 17.9559 12.2164 17.9772 12.4112 18.0846C12.6207 18.2001 12.8778 18.3767 13.2803 18.6549L13.3294 18.6888C14.9071 19.7791 16.1461 20.6353 17.0997 21.149C17.5821 21.409 18.0427 21.6099 18.4727 21.6989C18.915 21.7902 19.3858 21.7735 19.8135 21.5201C19.9782 21.4226 20.1304 21.305 20.2657 21.1696C20.6221 20.8127 20.7461 20.3556 20.7501 19.903C20.7538 19.4675 20.649 18.9825 20.4913 18.4694C20.1799 17.4565 19.5859 16.1019 18.8317 14.3821L18.8028 14.316L15.5284 6.84827L15.5026 6.78956C14.9183 5.45679 14.4454 4.37846 13.9854 3.64026Z" fill="currentColor"/></svg>
