<svg xmlns="http://www.w3.org/2000/svg" viewBox="0 0 24 24" fill="none"><path d="M2.54289 2.54302C2.93342 2.15249 3.56643 2.15249 3.95696 2.54302L21.457 20.043C21.8475 20.4335 21.8475 21.0666 21.457 21.4571C21.0664 21.8476 20.4334 21.8476 20.0429 21.4571L2.54289 3.95708C2.15237 3.56655 2.15237 2.93354 2.54289 2.54302Z" fill="currentColor"/><path d="M4.57721 11.876C5.06001 11.6083 5.66862 11.782 5.93658 12.2646C6.20447 12.7475 6.02972 13.357 5.54694 13.625C4.62235 14.1382 4.00013 15.1221 4.00006 16.25C4.00006 17.9069 5.34321 19.25 7.00006 19.25C8.65683 19.2499 10.0001 17.9068 10.0001 16.25C10.0002 15.6978 10.4478 15.25 11.0001 15.25H15.2501L17.8028 17.8027C17.5621 17.9274 17.2898 18 17.0001 18C16.4056 18 15.8808 17.7031 15.5645 17.25H11.9005C11.4372 19.5322 9.41894 21.2499 7.00006 21.25C4.23864 21.25 2.00006 19.0114 2.00006 16.25C2.00013 14.3662 3.04271 12.7275 4.57721 11.876Z" fill="currentColor"/><path d="M13.7198 18.7471C14.0653 18.3163 14.6952 18.2474 15.126 18.5928C15.6397 19.0044 16.2899 19.25 17.0001 19.25C17.6367 19.25 18.2254 19.0492 18.711 18.7109L20.1397 20.1396C19.2814 20.8334 18.1897 21.25 17.0001 21.25C15.8188 21.25 14.7308 20.8391 13.8751 20.1533C13.4441 19.8079 13.3743 19.178 13.7198 18.7471Z" fill="currentColor"/><path d="M11.0186 11.0186C10.998 11.0914 10.97 11.1634 10.9317 11.2324L8.57037 15.4814C8.68422 15.7137 8.75006 15.9739 8.75006 16.25C8.75006 17.2164 7.96648 17.9999 7.00006 18C6.03356 18 5.25006 17.2165 5.25006 16.25C5.25006 15.3431 5.93977 14.5964 6.8233 14.5078L8.74713 11.0469C7.67896 10.1307 7.00006 8.77 7.00006 7.25C7.00006 7.16783 7.00102 7.08608 7.00494 7.00488L11.0186 11.0186Z" fill="currentColor"/><path opacity="0.4" d="M12.0001 5.50006C12.9665 5.50016 13.7501 6.28362 13.7501 7.25006C13.7501 7.52581 13.684 7.78563 13.5704 8.01764L15.4952 11.4815C15.9707 11.3316 16.4765 11.2501 17.0001 11.2501C19.7613 11.2502 22 13.4888 22.0001 16.2501C22.0001 16.9063 21.8715 17.5323 21.6417 18.1065L19.9913 16.4561C19.9959 16.388 20.0001 16.3194 20.0001 16.2501C20 14.5934 18.6568 13.2502 17.0001 13.2501C16.9302 13.2501 16.8607 13.2522 16.7921 13.2569L10.3145 6.77936C10.5201 6.04156 11.1967 5.50006 12.0001 5.50006Z" fill="currentColor"/><path opacity="0.4" d="M12.0001 2.25006C14.7614 2.25016 17.0001 4.4887 17.0001 7.25006C17.0001 7.80228 16.5523 8.24996 16.0001 8.25006C15.4479 8.24996 15.0001 7.80229 15.0001 7.25006C15.0001 5.59327 13.6568 4.25016 12.0001 4.25006C10.8593 4.25013 9.86677 4.88679 9.35944 5.82428L7.90924 4.37408C8.81417 3.08938 10.3093 2.25012 12.0001 2.25006Z" fill="currentColor"/></svg>
