<svg xmlns="http://www.w3.org/2000/svg" viewBox="0 0 24 24" fill="none"><path d="M2.54265 2.54302C2.93317 2.15249 3.56619 2.15249 3.95671 2.54302L21.4567 20.043C21.8472 20.4335 21.8472 21.0666 21.4567 21.4571C21.0662 21.8476 20.4332 21.8476 20.0426 21.4571L2.54265 3.95708C2.15212 3.56655 2.15212 2.93354 2.54265 2.54302Z" fill="currentColor"/><path d="M4.57697 11.876C5.05976 11.6083 5.66837 11.782 5.93634 12.2646C6.20422 12.7475 6.02948 13.357 5.54669 13.625C4.62211 14.1382 3.99988 15.1221 3.99982 16.25C3.99982 17.9069 5.34296 19.25 6.99982 19.25C8.65659 19.2499 9.99982 17.9068 9.99982 16.25C9.99992 15.6978 10.4476 15.25 10.9998 15.25H15.2498L17.8026 17.8027C17.5619 17.9274 17.2896 18 16.9998 18C16.4053 18 15.8805 17.7031 15.5643 17.25H11.9002C11.4369 19.5322 9.41869 21.2499 6.99982 21.25C4.23839 21.25 1.99982 19.0114 1.99982 16.25C1.99988 14.3662 3.04246 12.7275 4.57697 11.876Z" fill="currentColor"/><path d="M13.7195 18.7471C14.065 18.3163 14.6949 18.2474 15.1258 18.5928C15.6395 19.0044 16.2896 19.25 16.9998 19.25C17.6365 19.25 18.2252 19.0492 18.7108 18.7109L20.1395 20.1396C19.2811 20.8334 18.1894 21.25 16.9998 21.25C15.8186 21.25 14.7305 20.8391 13.8748 20.1533C13.4439 19.8079 13.3741 19.178 13.7195 18.7471Z" fill="currentColor"/><path d="M11.9998 5.5C12.9662 5.5001 13.7498 6.28356 13.7498 7.25C13.7498 7.52575 13.6837 7.78557 13.5701 8.01758L15.4949 11.4814C15.9705 11.3315 16.4762 11.25 16.9998 11.25C19.7611 11.2501 21.9997 13.4887 21.9998 16.25C21.9998 16.9063 21.8713 17.5323 21.6414 18.1064L19.991 16.4561C19.9957 16.3879 19.9998 16.3193 19.9998 16.25C19.9997 14.5933 18.6565 13.2501 16.9998 13.25C16.9299 13.25 16.8604 13.2521 16.7918 13.2568L10.3143 6.7793C10.5199 6.04149 11.1964 5.5 11.9998 5.5Z" fill="currentColor"/><path d="M11.0184 11.0186C10.9978 11.0914 10.9698 11.1634 10.9315 11.2324L8.57013 15.4814C8.68398 15.7137 8.74982 15.9739 8.74982 16.25C8.74982 17.2164 7.96623 17.9999 6.99982 18C6.03332 18 5.24982 17.2165 5.24982 16.25C5.24982 15.3431 5.93952 14.5964 6.82306 14.5078L8.74689 11.0469C7.67871 10.1307 6.99982 8.77 6.99982 7.25C6.99982 7.16783 7.00078 7.08608 7.0047 7.00488L11.0184 11.0186Z" fill="currentColor"/><path d="M11.9998 2.25C14.7612 2.2501 16.9998 4.48864 16.9998 7.25C16.9998 7.80222 16.552 8.2499 15.9998 8.25C15.4476 8.2499 14.9998 7.80222 14.9998 7.25C14.9998 5.59321 13.6566 4.2501 11.9998 4.25C10.8591 4.25007 9.86653 4.88673 9.35919 5.82422L7.909 4.37402C8.81392 3.08932 10.309 2.25006 11.9998 2.25Z" fill="currentColor"/></svg>
