<svg xmlns="http://www.w3.org/2000/svg" viewBox="0 0 24 24" fill="none"><path d="M11.0602 6.51561C10.7987 7.56201 11.4137 8.62752 12.4509 8.92381L15.9509 9.92381C16.9746 10.2163 18.0401 9.65508 18.3874 8.66307C18.4989 8.98588 18.5742 9.33387 18.6257 9.70604C18.7499 10.6046 18.7497 11.7476 18.7497 13.166V14.834C18.7497 16.2524 18.7499 17.3954 18.6257 18.2939C18.4965 19.2282 18.2205 20.0097 17.5856 20.6269C16.9537 21.2413 16.1585 21.5056 15.2077 21.6299C14.2878 21.7501 13.1163 21.75 11.654 21.75H8.3454C6.88312 21.75 5.71159 21.7501 4.79169 21.6299C3.8409 21.5056 3.0457 21.2413 2.41376 20.6269C1.77886 20.0097 1.50292 19.2282 1.37372 18.2939C1.2495 17.3954 1.24967 16.2524 1.2497 14.834V13.166C1.24967 11.7476 1.2495 10.6046 1.37372 9.70604C1.50292 8.77175 1.77886 7.99029 2.41376 7.37303C3.0457 6.75865 3.84091 6.49438 4.79169 6.3701C5.71158 6.24991 6.88313 6.24997 8.3454 6.24999H11.1266L11.0602 6.51561ZM12.7526 13C12.5075 13 12.2726 13.0883 12.0993 13.2451L8.42255 16.5713L6.71649 15.0283C6.545 14.8732 6.31253 14.7861 6.07001 14.7861C5.80879 14.7861 5.55996 14.8868 5.38641 15.0635L2.8161 17.6797C2.82864 17.8235 2.84316 17.9597 2.86102 18.0889C2.96613 18.8489 3.15927 19.2568 3.46161 19.5508C3.76689 19.8476 4.19517 20.039 4.987 20.1426C5.79842 20.2486 6.87211 20.25 8.40106 20.25H11.6013C13.1303 20.25 14.2039 20.2486 15.0153 20.1426C15.8073 20.039 16.2364 19.8476 16.5417 19.5508C16.8439 19.2568 17.0362 18.8486 17.1413 18.0889C17.1846 17.7757 17.2113 17.4216 17.2272 17.0146L13.4343 13.2715C13.2592 13.0987 13.0117 13 12.7526 13ZM13.2722 2.81835C13.3727 2.41651 13.7805 2.17195 14.1823 2.27245C14.5841 2.37298 14.8287 2.7808 14.7282 3.1826L14.2917 4.92674C15.0986 4.49506 16.0213 4.24999 17.0007 4.24999C20.176 4.25023 22.7506 6.82458 22.7507 9.99999C22.7507 11.2937 22.3223 12.49 21.6003 13.4512C21.3515 13.7823 20.8807 13.8494 20.5495 13.6006C20.2183 13.3518 20.1523 12.881 20.4011 12.5498C20.9345 11.8396 21.2507 10.9576 21.2507 9.99999C21.2506 7.65301 19.3476 5.75023 17.0007 5.74999C16.0291 5.74999 15.133 6.0758 14.4167 6.62499L16.7067 7.27928C17.1046 7.39326 17.335 7.80798 17.2214 8.20604C17.1076 8.60416 16.6928 8.83513 16.2946 8.72167L12.7936 7.72167C12.4048 7.61053 12.1741 7.2107 12.2722 6.81835L13.2722 2.81835ZM7.49188 10.4922C6.9396 10.4922 6.49188 10.9399 6.49188 11.4922V11.5019C6.49188 12.0542 6.9396 12.5019 7.49188 12.5019C8.04417 12.5019 8.49188 12.0542 8.49188 11.5019V11.4922C8.49188 10.9399 8.04417 10.4922 7.49188 10.4922Z" fill="currentColor" fill-rule="evenodd" clip-rule="evenodd"/></svg>
