<svg xmlns="http://www.w3.org/2000/svg" viewBox="0 0 24 24" fill="none"><path opacity="0.4" d="M12 22.7498C17.9371 22.7498 22.75 17.9368 22.75 11.9998C22.75 6.0627 17.9371 1.24976 12 1.24976C6.06294 1.24976 1.25 6.0627 1.25 11.9998C1.25 17.9368 6.06294 22.7498 12 22.7498Z" fill="currentColor"/><path d="M17.9078 13.2921C17.5173 13.1541 17.0889 13.3587 16.9508 13.7491C16.2298 15.7891 14.2842 17.249 11.9996 17.2491C9.71491 17.2491 7.76854 15.7892 7.04747 13.7491C6.90938 13.3587 6.48093 13.1541 6.09044 13.2921C5.70008 13.4302 5.49541 13.8587 5.63341 14.2491C5.70037 14.4386 5.77699 14.6235 5.85997 14.8048L4.18712 17.7589C3.28913 19.3438 3.81644 21.3765 5.38634 22.2999C6.9559 23.2231 8.95302 22.677 9.8629 21.1046L11.4215 18.7237C11.612 18.7399 11.805 18.7491 11.9996 18.7491C14.9396 18.749 17.4386 16.8696 18.3649 14.2491C18.5029 13.8586 18.2983 13.4302 17.9078 13.2921Z" fill="currentColor"/><path d="M8.49998 7.24872C9.37979 7.24872 10.1442 7.70068 10.6133 8.36688C10.8517 8.70556 10.7703 9.17333 10.4316 9.4118C10.0929 9.65025 9.62517 9.56883 9.3867 9.23016C9.1717 8.92497 8.84682 8.74872 8.49998 8.74872C8.15314 8.74872 7.82827 8.92497 7.61326 9.23016C7.3748 9.56883 6.90702 9.65025 6.56834 9.4118C6.22966 9.17333 6.14823 8.70556 6.3867 8.36688C6.85579 7.70068 7.62017 7.24872 8.49998 7.24872Z" fill="currentColor"/><path d="M16.125 7.24872C16.6652 7.24872 16.9526 7.66689 17.0605 7.88251C17.1907 8.14282 17.25 8.45042 17.25 8.74872C17.25 9.04701 17.1907 9.35462 17.0605 9.61493C16.9526 9.83054 16.6652 10.2487 16.125 10.2487C15.5848 10.2487 15.2974 9.83054 15.1895 9.61493C15.0593 9.35462 15 9.04701 15 8.74872C15 8.45042 15.0593 8.14282 15.1895 7.88251C15.2974 7.6669 15.5848 7.24872 16.125 7.24872Z" fill="currentColor"/></svg>
