<svg xmlns="http://www.w3.org/2000/svg" viewBox="0 0 24 24" fill="none"><path d="M6.14748 21.0078C5.29453 20.5061 4.99159 19.3826 5.4922 18.499L6.76173 16.2578C7.55768 17.2359 8.62281 17.9851 9.84377 18.3965L8.59962 20.2988C8.59087 20.3122 8.58211 20.3259 8.57423 20.3398C8.07804 21.2154 6.99199 21.5044 6.14748 21.0078Z" fill="currentColor"/><path d="M12 22.7498C17.9371 22.7498 22.75 17.9369 22.75 11.9998C22.75 6.06276 17.9371 1.24982 12 1.24982C6.06294 1.24982 1.25 6.06276 1.25 11.9998C1.25 14.6412 2.20437 17.0611 3.78516 18.9324C3.84362 18.5303 3.97623 18.1325 4.1875 17.7596L5.86035 14.8055C5.77738 14.6242 5.70075 14.4393 5.63379 14.2498C5.49579 13.8594 5.70046 13.4309 6.09082 13.2928C6.48121 13.155 6.9098 13.3595 7.04785 13.7498C7.76893 15.7899 9.71529 17.2498 12 17.2498C14.2844 17.2495 16.2302 15.7897 16.9512 13.7498C17.0893 13.3595 17.5178 13.1548 17.9082 13.2928C18.2984 13.4309 18.5031 13.8595 18.3652 14.2498C17.439 16.8702 14.9398 18.7495 12 18.7498C11.8055 18.7498 11.6122 18.7406 11.4219 18.7244L9.86328 21.1053C9.58369 21.5885 9.20072 21.9743 8.75977 22.2508C9.78322 22.574 10.8718 22.7498 12 22.7498ZM10.4316 9.4129C10.093 9.65132 9.62518 9.56992 9.38672 9.23126C9.17172 8.92608 8.84683 8.74982 8.5 8.74982C8.15318 8.74983 7.82827 8.92608 7.61328 9.23126C7.37481 9.56991 6.90703 9.65134 6.56836 9.4129C6.22971 9.17443 6.14827 8.70665 6.38672 8.36798C6.8558 7.70179 7.62021 7.24983 8.5 7.24982C9.3798 7.24982 10.1442 7.70179 10.6133 8.36798C10.8518 8.70666 10.7703 9.17443 10.4316 9.4129ZM16.125 10.2498C15.5848 10.2498 15.2974 9.83164 15.1895 9.61603C15.0593 9.35572 15 9.04811 15 8.74982C15 8.45152 15.0593 8.14392 15.1895 7.88361C15.2974 7.66799 15.5848 7.24982 16.125 7.24982C16.6652 7.24982 16.9526 7.66799 17.0605 7.88361C17.1907 8.14392 17.25 8.45152 17.25 8.74982C17.25 9.04811 17.1907 9.35572 17.0605 9.61603C16.9526 9.83164 16.6652 10.2498 16.125 10.2498Z" fill="currentColor" fill-rule="evenodd" clip-rule="evenodd"/></svg>
