<svg xmlns="http://www.w3.org/2000/svg" fill="none" viewBox="0 0 48 48">
  <g>
    <path fill="currentColor" d="M35.2191 16.323c-1.042 -1.4236 -2.531 -2.2624 -4.1461 -2.2625 -1.6152 0 -3.1043 0.8386 -4.1463 2.2622 -1.2599 1.7212 -2.8797 4.2529 -4.8619 7.9654 -0.8483 -1.1618 -1.5959 -2.0871 -2.2432 -2.8232 -1.0221 -1.1625 -2.3831 -1.8189 -3.8221 -1.8189 -1.4389 -0.0001 -2.8 0.6561 -3.8222 1.8186 -1.2928 1.4702 -2.98729 3.6969 -5.08647 7.0589 -2.63084 4.2136 -4.26078 7.2095 -5.23036 9.1444 -0.55376 1.105 -0.58663 2.3501 -0.05144 3.4004 0.54039 1.0605 1.5818 1.7659 2.84323 1.9193 2.16088 0.2628 5.69734 0.5127 11.34724 0.5127H31.073c6.5371 0 10.4293 -0.3742 12.6773 -0.7396 1.1759 -0.1912 2.1279 -0.8756 2.6418 -1.8617 0.507 -0.9729 0.5301 -2.1248 0.1047 -3.1785 -0.9527 -2.3596 -2.7563 -6.4463 -5.9529 -12.5567 -2.1945 -4.1947 -3.9683 -6.9876 -5.3248 -8.8408Z" stroke-width="3.429"></path>
    <path fill="currentColor" fill-opacity="0.4" d="M6.31641 29.7748C8.55595 31.7759 12.3988 34.6798 13.9996 35c2 0.4 8 -3.5 8 -3.5s6.5833 5.2593 10 4.5c2.982 -0.6627 7.2814 -5.2776 9.8427 -8.3156 -0.405 -0.7986 -0.8374 -1.6385 -1.2989 -2.5206 -2.1944 -4.1947 -3.9683 -6.9876 -5.3247 -8.8408 -1.042 -1.4236 -2.5311 -2.2624 -4.1462 -2.2625 -1.6151 0 -3.1042 0.8386 -4.1463 2.2622 -1.2599 1.7212 -2.8797 4.2529 -4.8618 7.9654 -0.8484 -1.1618 -1.596 -2.0871 -2.2432 -2.8232 -1.0222 -1.1625 -2.3831 -1.8189 -3.8221 -1.8189 -1.439 -0.0001 -2.8 0.6561 -3.8222 1.8186 -1.2928 1.4702 -2.98732 3.6969 -5.0865 7.0589 -0.26829 0.4297 -0.52616 0.8467 -0.77399 1.2513Z" stroke-width="3.429"></path>
    <path fill="currentColor" fill-opacity="0.4" d="M7.5 10c0 -3.03757 2.46243 -5.5 5.5 -5.5 3.0376 0 5.5 2.46243 5.5 5.5 0 3.0376 -2.4624 5.5 -5.5 5.5 -3.03757 0 -5.5 -2.4624 -5.5 -5.5Z" stroke-width="3.429"></path>
  </g>
</svg>
