<svg xmlns="http://www.w3.org/2000/svg" fill="none" viewBox="0 0 48 48">
  <g>
    <path stroke="currentColor" stroke-linecap="round" stroke-linejoin="round" d="M17 10c0 2.2091 -1.7909 4 -4 4 -2.2091 0 -4 -1.7909 -4 -4 0 -2.20914 1.7909 -4 4 -4 2.2091 0 4 1.79086 4 4Z" stroke-width="3.429"></path>
    <path stroke="currentColor" stroke-linecap="round" stroke-linejoin="round" d="M45.1214 38.282c0.553 1.3697 -0.1382 2.7611 -1.5962 2.9981 -2.144 0.3486 -5.9509 0.7202 -12.4366 0.7202H16.0151c-5.6095 0 -9.08249 -0.2483 -11.16617 -0.5017 -1.60209 -0.1948 -2.35487 -1.7158 -1.63184 -3.1587 0.94599 -1.8878 2.55233 -4.8428 5.16167 -9.0219 2.06604 -3.3089 3.71294 -5.4668 4.94054 -6.8628 1.5351 -1.7458 3.8564 -1.7456 5.3915 0.0002 0.941 1.0702 2.1284 2.588 3.5623 4.7288 0.2137 -0.433 0.4381 -0.8747 0.6737 -1.3251 2.1683 -4.1455 3.9036 -6.8714 5.2058 -8.6504 1.6087 -2.1977 4.263 -2.1975 5.8717 0.0002 1.3021 1.779 3.0374 4.5049 5.206 8.6502 3.177 6.0728 4.9593 10.1148 5.8911 12.4229Z" stroke-width="3.429"></path>
    <path stroke="currentColor" stroke-linecap="round" stroke-linejoin="round" d="M7.46875 30.7661c2.23316 1.8547 5.18005 3.9643 6.53065 4.2344 2 0.4 8 -3.5 8 -3.5s6.5834 5.2593 10 4.5c2.6014 -0.578 6.2052 -4.1636 8.7832 -7.0864" stroke-width="3.429"></path>
  </g>
</svg>
