<svg xmlns="http://www.w3.org/2000/svg" fill="none" viewBox="0 0 48 48">
  <g>
    <path fill="currentColor" fill-rule="evenodd" d="M7 10c0 -3.31371 2.68629 -6 6 -6 3.3137 0 6 2.68629 6 6 0 3.3137 -2.6863 6 -6 6 -3.31371 0 -6 -2.6863 -6 -6Zm28.5441 6.0277c-1.1244 -1.5319 -2.759 -2.4671 -4.5623 -2.4672 -1.8033 0 -3.4381 0.935 -4.5626 2.4669 -1.1992 1.6337 -2.711 3.9767 -4.5382 7.331 -0.6675 -0.8826 -1.2693 -1.6154 -1.8056 -2.2237 -1.1102 -1.259 -2.6076 -1.9887 -4.2093 -1.9887 -1.6018 -0.0001 -3.0993 0.7294 -4.2096 1.9885 -1.3181 1.4948 -3.0333 3.7445 -5.14945 7.1242 -2.64541 4.225 -4.28781 7.2346 -5.26799 9.1852 -0.619575 1.2329 -0.666013 2.646 -0.05007 3.8514 0.62291 1.219 1.81856 2.0166 3.23743 2.1887 2.19274 0.2659 5.76028 0.5163 11.43968 0.5163h15.1157c6.5726 0 10.5042 -0.375 12.7933 -0.7461 1.3286 -0.2154 2.4219 -0.9923 3.0134 -2.1241 0.5823 -1.1144 0.6017 -2.4201 0.1253 -3.5968 -0.9623 -2.3767 -2.7781 -6.4784 -5.9903 -12.6013 -2.2093 -4.2111 -4.001 -7.0264 -5.3794 -8.9043ZM29.656 18.39c0.4887 -0.6658 0.9914 -0.8295 1.3256 -0.8295 0.3342 0.0001 0.8369 0.1638 1.3257 0.8297 1.2331 1.68 2.9218 4.3165 5.062 8.396 0.6139 1.1702 1.1749 2.2634 1.687 3.2817 -0.9465 1.0056 -1.9657 2.0135 -2.9829 2.8899 -1.5424 1.3288 -3.0126 2.2947 -4.1824 2.5546 -0.6532 0.1452 -1.4985 0.0343 -2.4611 -0.2758 -0.9524 -0.3068 -1.965 -0.7905 -2.9265 -1.3273 -1.922 -1.0732 -3.5836 -2.3271 -4.0589 -2.6953 -0.258 -0.1998 -0.6027 -0.2049 -0.8649 -0.0383 -0.4675 0.297 -1.9609 1.2283 -3.5572 2.0385 -0.7991 0.4055 -1.6115 0.7743 -2.3269 1.0187 -0.7418 0.2534 -1.2873 0.3395 -1.598 0.2773 -0.2654 -0.053 -0.6515 -0.2081 -1.1407 -0.4665 -0.4807 -0.254 -1.0299 -0.5909 -1.6136 -0.9817 -0.6931 -0.4639 -1.42638 -0.998 -2.1395 -1.5478 0.22649 -0.3681 0.46166 -0.7471 0.7058 -1.137 2.0275 -3.2381 3.6153 -5.304 4.7593 -6.6013 0.4292 -0.4867 0.8652 -0.63 1.1971 -0.6299 0.3318 0 0.768 0.1433 1.1972 0.6301 0.8763 0.9937 2.0143 2.44 3.4121 4.5211 0.3985 0.5932 1.0838 0.9296 1.7982 0.8826 0.7144 -0.0469 1.3496 -0.4701 1.6665 -1.1103 0.2074 -0.4188 0.4254 -0.8467 0.6545 -1.2834 2.1398 -4.0797 3.8285 -6.7162 5.0616 -8.3961Z" clip-rule="evenodd" stroke-width="3.429"></path>
  </g>
</svg>
