<svg xmlns="http://www.w3.org/2000/svg" viewBox="0 0 24 24" fill="none"><path d="M15.2501 4.95679C15.2501 4.23884 15.5354 3.55039 16.0431 3.04272L16.6896 2.39624C17.1033 1.98249 17.665 1.74976 18.2501 1.74976C18.8349 1.74986 19.396 1.98185 19.8097 2.39526L21.6036 4.18921C22.0175 4.60312 22.25 5.16443 22.2501 5.74976C22.2501 6.33525 22.0176 6.89727 21.6036 7.31128L20.9571 7.95776C20.4495 8.46526 19.7609 8.74978 19.0431 8.74976H16.6642L8.95714 16.4568C8.56661 16.8473 7.9336 16.8473 7.54308 16.4568C7.15255 16.0663 7.15255 15.4332 7.54308 15.0427L15.2501 7.33569V4.95679ZM17.2501 6.74976H19.0431C19.2306 6.74978 19.4105 6.67533 19.5431 6.54272L20.1896 5.89722C20.2285 5.85828 20.2501 5.80482 20.2501 5.74976C20.25 5.69487 20.2283 5.64212 20.1896 5.60327L18.3956 3.8103C18.357 3.77173 18.3047 3.74986 18.2501 3.74976C18.1954 3.74976 18.1423 3.77162 18.1036 3.8103L17.4571 4.45679C17.3245 4.58938 17.2501 4.76928 17.2501 4.95679V6.74976Z" fill="currentColor"/><path opacity="0.4" d="M9.11826 10.9086C8.6869 10.5688 8.23218 10.315 7.67881 10.2621C7.50667 10.2456 7.33336 10.2456 7.16123 10.2621C6.60794 10.3151 6.15304 10.5688 5.72178 10.9086C5.30358 11.2382 4.83665 11.7076 4.27549 12.2689C2.65871 13.8857 1.7501 16.0783 1.7501 18.3646V18.5473L1.75008 18.5882C1.74988 19.2453 1.74971 19.8129 1.81064 20.267C1.87578 20.7519 2.02293 21.2184 2.40146 21.5971C2.78021 21.9759 3.24736 22.1236 3.73252 22.1889C4.18381 22.2495 4.74709 22.2495 5.39902 22.2494L5.45224 22.2494H5.63486C7.92142 22.2494 10.1147 21.3408 11.7315 19.724L11.7633 19.6922C12.3105 19.1448 12.7677 18.6873 13.0909 18.2768C13.4308 17.845 13.6858 17.3901 13.7384 16.8363C13.7546 16.6656 13.7546 16.4934 13.7384 16.3227C13.6857 15.7689 13.4308 15.3138 13.0909 14.8822C12.7685 14.4728 12.3124 14.0167 11.767 13.4714L11.7306 13.435L10.5645 12.268L10.5327 12.2361C9.98573 11.6891 9.52851 11.2318 9.11826 10.9086Z" fill="currentColor"/></svg>
