<svg xmlns="http://www.w3.org/2000/svg" viewBox="0 0 24 24" fill="none"><path d="M7.67883 10.2623C8.2322 10.3153 8.68692 10.569 9.11828 10.9088C9.50527 11.2137 9.93306 11.6388 10.4396 12.1451L7.54308 15.0426C7.15259 15.4331 7.15259 16.0661 7.54308 16.4567C7.9336 16.8472 8.56662 16.8472 8.95715 16.4567L11.8536 13.5592C12.3604 14.0662 12.7858 14.4951 13.0909 14.8824C13.4308 15.314 13.6858 15.7692 13.7384 16.3229C13.7546 16.4935 13.7546 16.6659 13.7384 16.8365C13.6858 17.3902 13.4307 17.8453 13.0909 18.277C12.7677 18.6874 12.3107 19.1448 11.7638 19.692L11.7316 19.7242C10.1147 21.3409 7.92135 22.2496 5.63488 22.2496H5.39953C4.7476 22.2497 4.18383 22.2497 3.73254 22.1891C3.24744 22.1239 2.7802 21.976 2.40148 21.5973C2.02304 21.2187 1.87582 20.752 1.81066 20.2672C1.74974 19.8132 1.74991 19.2454 1.75011 18.5885V18.3649C1.75011 16.0786 2.65885 13.8859 4.27551 12.2692C4.83658 11.7079 5.30365 11.2384 5.72179 10.9088C6.15304 10.569 6.60799 10.3153 7.16125 10.2623C7.33338 10.2459 7.50669 10.2459 7.67883 10.2623ZM18.2501 1.74963C18.8349 1.74973 19.3961 1.98174 19.8097 2.39514L21.6036 4.18909C22.0175 4.603 22.25 5.16431 22.2501 5.74963C22.2501 6.33513 22.0176 6.89715 21.6036 7.31116L20.9571 7.95764C20.4495 8.46513 19.7609 8.74966 19.0431 8.74963H16.6642L11.8536 13.5592C11.8248 13.5304 11.7961 13.5007 11.7667 13.4713L11.7306 13.4352L10.5646 12.2682L10.5323 12.236C10.5015 12.2051 10.4699 12.1754 10.4396 12.1451L15.2501 7.33557V4.95667C15.2501 4.23873 15.5354 3.55026 16.0431 3.0426L16.6896 2.39612C17.1033 1.98238 17.665 1.74965 18.2501 1.74963ZM18.2501 3.74963C18.1954 3.74965 18.1423 3.77151 18.1036 3.81018L17.4571 4.45667C17.3246 4.58925 17.2501 4.76917 17.2501 4.95667V6.74963H19.0431C19.2306 6.74966 19.4105 6.67519 19.5431 6.5426L20.1896 5.89709C20.2285 5.85816 20.2501 5.80469 20.2501 5.74963C20.25 5.69475 20.2283 5.642 20.1896 5.60315L18.3956 3.81018C18.357 3.77162 18.3047 3.74973 18.2501 3.74963Z" fill="currentColor" fill-rule="evenodd" clip-rule="evenodd"/></svg>
