<svg xmlns="http://www.w3.org/2000/svg" viewBox="0 0 24 24" fill="none"><path d="M12.6374 1.41795C12.7354 1.45271 12.8314 1.49271 12.9252 1.53777C13.38 1.75644 13.7363 2.11551 14.1387 2.52116L18.9216 7.32881L18.9216 7.32882C19.3889 7.79717 19.8037 8.21283 20.0278 8.75658C20.1266 8.99631 20.1816 9.24478 20.2122 9.50453H18.2314C16.8638 9.50455 16.2153 9.50377 15.3483 9.38721C14.4482 9.26619 13.6903 9.0073 13.0884 8.40538C12.4865 7.80346 12.2276 7.04559 12.1066 6.14548C11.9903 5.2803 11.9903 4.63259 11.9903 3.27075V3.27072V1.2793C12.2137 1.30237 12.4283 1.34379 12.6374 1.41795Z" fill="currentColor"/><path d="M19.5346 16.0438C19.9247 15.653 20.5578 15.6518 20.9486 16.0419C21.3394 16.432 21.3397 17.0651 20.9496 17.4559L19.1635 19.245L20.9584 21.0438C21.3482 21.4347 21.3472 22.0678 20.9565 22.4579C20.5656 22.8477 19.9325 22.8466 19.5424 22.4559L17.7504 20.661L15.9584 22.4559C15.5683 22.8466 14.9352 22.8477 14.5444 22.4579C14.1536 22.0678 14.1526 21.4347 14.5424 21.0438L16.3363 19.245L14.5512 17.4559C14.1611 17.0651 14.1614 16.432 14.5522 16.0419C14.943 15.6518 15.5761 15.653 15.9662 16.0438L17.7504 17.8299L19.5346 16.0438Z" fill="currentColor"/><path opacity="0.4" d="M11.0894 1.2501L11.088 1.2501C9.56247 1.25008 8.15456 1.25052 7.17584 1.36534C6.1632 1.4842 5.29463 1.73742 4.55963 2.33311C4.29009 2.55162 4.04457 2.79849 3.82721 3.06944C3.23466 3.80819 2.98258 4.68056 2.86432 5.69835C2.75006 6.68207 2.75004 7.91884 2.75006 9.45225V14.0265C2.75004 15.8083 2.75037 17.2445 2.90143 18.3741C3.05828 19.5468 3.39387 20.5342 4.17389 21.3185C4.95411 22.1027 5.93685 22.441 7.10358 22.5987C8.22437 22.7502 9.79045 22.7501 11.5572 22.7501H11.5714C12.1632 22.7501 12.7168 22.7479 13.2335 22.7423C12.8207 21.9032 12.9598 20.8608 13.6573 20.1612L14.5704 19.2442L13.6671 18.339C12.79 17.4602 12.7893 16.0357 13.669 15.1573C14.5493 14.2791 15.9739 14.2826 16.8506 15.1603L17.7501 16.0606L18.6505 15.1612C19.0913 14.7197 19.6702 14.5007 20.2491 14.5021C20.2492 14.3464 20.2501 14.1878 20.2501 14.0265V10.5519C20.2511 9.88856 20.2514 9.29967 20.0274 8.75596C19.8033 8.21244 19.3891 7.79642 18.9219 7.32823L14.1387 2.52061C13.7363 2.11502 13.3797 1.75586 12.9249 1.53721C12.8313 1.49226 12.7355 1.45179 12.6378 1.4171C12.1629 1.24866 11.6585 1.24934 11.0894 1.2501Z" fill="currentColor"/></svg>
