<svg xmlns="http://www.w3.org/2000/svg" viewBox="0 0 24 24" fill="none"><path d="M19.5346 16.0438C19.9247 15.653 20.5578 15.6518 20.9486 16.0419C21.3394 16.432 21.3397 17.0651 20.9496 17.4559L19.1635 19.245L20.9584 21.0438C21.3482 21.4347 21.3472 22.0678 20.9565 22.4579C20.5656 22.8477 19.9325 22.8466 19.5424 22.4559L17.7504 20.661L15.9584 22.4559C15.5683 22.8466 14.9352 22.8477 14.5444 22.4579C14.1536 22.0678 14.1526 21.4347 14.5424 21.0438L16.3363 19.245L14.5512 17.4559C14.1611 17.0651 14.1614 16.432 14.5522 16.0419C14.943 15.6518 15.5761 15.653 15.9662 16.0438L17.7504 17.8299L19.5346 16.0438Z" fill="currentColor"/><path d="M11.088 1.2501C11.6577 1.24934 12.1625 1.24852 12.6378 1.4171C12.7355 1.45179 12.8313 1.49226 12.9249 1.53721C13.3797 1.75586 13.7363 2.11502 14.1387 2.52061L18.9219 7.32823C19.3891 7.79642 19.8033 8.21244 20.0274 8.75596C20.2514 9.29967 20.2511 9.88856 20.2501 10.5519V14.0265C20.2501 14.1878 20.2492 14.3464 20.2491 14.5021C19.6702 14.5007 19.0913 14.7197 18.6505 15.1612L17.7501 16.0606L16.8506 15.1603C15.9739 14.2826 14.5493 14.2791 13.669 15.1573C12.7893 16.0357 12.79 17.4602 13.6671 18.339L14.5704 19.2442L13.6573 20.1612C12.9598 20.8608 12.8207 21.9032 13.2335 22.7423C12.7168 22.7479 12.1632 22.7501 11.5714 22.7501C9.7988 22.7501 8.22736 22.7506 7.10358 22.5987C5.93685 22.441 4.95411 22.1027 4.17389 21.3185C3.39387 20.5342 3.05828 19.5468 2.90143 18.3741C2.75037 17.2445 2.75004 15.8083 2.75006 14.0265V9.45225C2.75004 7.91884 2.75006 6.68207 2.86432 5.69835C2.98258 4.68056 3.23466 3.80819 3.82721 3.06944C4.04457 2.79849 4.29009 2.55162 4.55963 2.33311C5.29463 1.73742 6.1632 1.4842 7.17584 1.36534C8.15456 1.25052 9.56247 1.25008 11.088 1.2501ZM11.9903 3.27061C11.9903 4.63195 11.9903 5.27976 12.1065 6.14463C12.2275 7.04446 12.4864 7.80258 13.088 8.4044C13.6898 9.00629 14.4486 9.2658 15.3487 9.38682C16.2154 9.50333 16.8642 9.50403 18.2315 9.50401C18.1747 9.36623 18.0691 9.23546 17.4512 8.61436L12.8467 3.98545C12.3139 3.44983 12.1719 3.31651 11.9903 3.26182V3.27061Z" fill="currentColor" fill-rule="evenodd" clip-rule="evenodd"/></svg>
