<svg xmlns="http://www.w3.org/2000/svg" viewBox="0 0 24 24" fill="none"><path opacity="0.4" d="M12.75 21.75V19.75C12.75 19.1977 13.1977 18.75 13.75 18.75C14.3023 18.75 14.75 19.1977 14.75 19.75V21.75C14.75 22.3023 14.3023 22.75 13.75 22.75C13.1977 22.75 12.75 22.3023 12.75 21.75ZM17.043 18.043C17.4335 17.6524 18.0665 17.6524 18.457 18.043L20.457 20.043C20.8476 20.4335 20.8476 21.0665 20.457 21.457C20.0665 21.8476 19.4335 21.8476 19.043 21.457L17.043 19.457C16.6524 19.0665 16.6524 18.4335 17.043 18.043ZM20.75 13.75C21.3023 13.75 21.75 14.1977 21.75 14.75C21.75 15.3023 21.3023 15.75 20.75 15.75H18.75C18.1977 15.75 17.75 15.3023 17.75 14.75C17.75 14.1977 18.1977 13.75 18.75 13.75H20.75Z" fill="currentColor"/><path d="M16.2314 9.03516C17.1239 9.25847 17.75 10.0605 17.75 10.9805C17.7499 11.5121 17.539 12.0225 17.1631 12.3984L11.3984 18.1631C11.0225 18.539 10.5121 18.7499 9.98047 18.75C9.06051 18.75 8.2585 18.1238 8.03516 17.2314L7.59375 15.4658L14.4658 8.59375L16.2314 9.03516Z" fill="currentColor"/><path d="M8 9.25C8.55228 9.25 9 8.80228 9 8.25V3.99566V2.25C9 1.69772 8.55228 1.25 8 1.25C7.44772 1.25 7 1.69772 7 2.25V3.2583V8.25C7 8.80228 7.44772 9.25 8 9.25Z" fill="currentColor"/><path opacity="0.4" d="M13 7.93945L9.41406 4.35352C9.28412 4.22358 9.14566 4.10411 9 3.99566C8.41995 3.56377 7.72569 3.30653 7 3.2583C6.91704 3.25278 6.83366 3.25 6.75 3.25C5.75077 3.25 4.79252 3.64698 4.08594 4.35352L3.35352 5.08594C2.64698 5.79252 2.25 6.75077 2.25 7.75C2.25 8.74923 2.64698 9.70748 3.35352 10.4141L6.93945 14L13 7.93945Z" fill="currentColor"/></svg>
