<svg xmlns="http://www.w3.org/2000/svg" viewBox="0 0 24 24" fill="none"><path d="M12.7495 21.75V19.75C12.7495 19.1977 13.1972 18.75 13.7495 18.75C14.3018 18.75 14.7495 19.1977 14.7495 19.75V21.75C14.7495 22.3023 14.3018 22.75 13.7495 22.75C13.1972 22.75 12.7495 22.3023 12.7495 21.75ZM17.0425 18.043C17.433 17.6524 18.066 17.6524 18.4565 18.043L20.4565 20.043C20.8471 20.4335 20.8471 21.0665 20.4565 21.457C20.066 21.8476 19.433 21.8476 19.0425 21.457L17.0425 19.457C16.652 19.0665 16.652 18.4335 17.0425 18.043ZM20.7495 13.75C21.3018 13.75 21.7495 14.1977 21.7495 14.75C21.7495 15.3023 21.3018 15.75 20.7495 15.75H18.7495C18.1972 15.75 17.7495 15.3023 17.7495 14.75C17.7495 14.1977 18.1972 13.75 18.7495 13.75H20.7495Z" fill="currentColor"/><path d="M16.231 9.03516C17.1234 9.25847 17.7495 10.0605 17.7495 10.9805C17.7494 11.5121 17.5385 12.0225 17.1626 12.3984L11.3979 18.1631C11.022 18.539 10.5116 18.7499 9.97998 18.75C9.06002 18.75 8.25801 18.1238 8.03467 17.2314L7.59326 15.4658L14.4653 8.59375L16.231 9.03516Z" fill="currentColor"/><path d="M7.99951 9.25C8.5518 9.25 8.99951 8.80228 8.99951 8.25V3.99566C9.14517 4.10411 9.28363 4.22358 9.41357 4.35352L12.9995 7.93945L6.93896 14L3.35303 10.4141C2.64649 9.70748 2.24951 8.74923 2.24951 7.75C2.24951 6.75077 2.64649 5.79252 3.35303 5.08594L4.08545 4.35352C4.79203 3.64698 5.75028 3.25 6.74951 3.25C6.83317 3.25 6.91655 3.25278 6.99951 3.2583V8.25C6.99951 8.80228 7.44723 9.25 7.99951 9.25Z" fill="currentColor"/><path d="M7.99951 1.25C7.44723 1.25 6.99951 1.69772 6.99951 2.25V3.2583C7.72521 3.30653 8.41946 3.56377 8.99951 3.99566V2.25C8.99951 1.69772 8.5518 1.25 7.99951 1.25Z" fill="currentColor"/></svg>
