<svg xmlns="http://www.w3.org/2000/svg" viewBox="0 0 24 24" fill="none"><path opacity="0.4" d="M10.369 18.5957C10.2644 17.8711 10.2524 16.9135 10.2509 15.75L9.9481 15.75C9.28425 15.7501 8.71198 15.7501 8.25379 15.6885C7.76224 15.6224 7.29125 15.473 6.90906 15.0908C6.52688 14.7087 6.37752 14.2377 6.31141 13.7461C6.2498 13.2879 6.24984 12.7157 6.24988 12.0518V11.9482C6.24984 11.2844 6.2498 10.7121 6.31141 10.2539C6.37752 9.76237 6.52688 9.29138 6.90906 8.9092C7.29125 8.52701 7.76224 8.37766 8.25379 8.31154C8.72385 8.24834 9.31398 8.25002 9.99988 8.25002H10.2509C10.2524 7.08653 10.2644 6.1289 10.369 5.40432C10.4873 4.58547 10.763 3.76268 11.5887 3.39943C12.4124 3.03716 13.2067 3.38574 13.8944 3.84865C14.5883 4.31581 15.4278 5.07459 16.4626 6.01002L19.2689 8.54714C19.9922 9.2009 20.5931 9.74404 21.0057 10.2363C21.4401 10.7545 21.7499 11.3121 21.7499 12C21.7499 12.688 21.4401 13.2455 21.0057 13.7637C20.5931 14.256 19.9922 14.7991 19.2689 15.4529L16.4626 17.99C15.4277 18.9255 14.5883 19.6842 13.8944 20.1514C13.2067 20.6143 12.4124 20.9629 11.5887 20.6006C10.763 20.2374 10.4873 19.4146 10.369 18.5957Z" fill="currentColor"/><path d="M2.25 14.75C2.25 15.3023 2.69772 15.75 3.25 15.75C3.80228 15.75 4.25 15.3023 4.25 14.75L4.25 9.25003C4.25 8.69775 3.80228 8.25003 3.25 8.25003C2.69772 8.25003 2.25 8.69775 2.25 9.25003L2.25 14.75Z" fill="currentColor"/></svg>
