<svg xmlns="http://www.w3.org/2000/svg" viewBox="0 0 24 24" fill="none"><path d="M10.3685 18.5962C10.2639 17.8716 10.2519 16.914 10.2504 15.7505L9.94761 15.7505C9.28376 15.7506 8.71149 15.7506 8.2533 15.689C7.76175 15.6229 7.29076 15.4735 6.90857 15.0913C6.52639 14.7091 6.37703 14.2382 6.31092 13.7466C6.24932 13.2884 6.24935 12.7161 6.24939 12.0523V11.9487C6.24935 11.2849 6.24932 10.7126 6.31092 10.2544C6.37703 9.76286 6.52639 9.29187 6.90857 8.90969C7.29076 8.5275 7.76175 8.37815 8.2533 8.31203C8.72336 8.24883 9.31349 8.25051 9.99939 8.25051H10.2504C10.2519 7.08702 10.2639 6.12939 10.3685 5.4048C10.4868 4.58596 10.7625 3.76317 11.5883 3.39992C12.4119 3.03765 13.2062 3.38623 13.8939 3.84914C14.5879 4.31629 15.4273 5.07507 16.4621 6.01051L19.2684 8.54763C19.9917 9.20139 20.5926 9.74453 21.0053 10.2368C21.4396 10.755 21.7494 11.3125 21.7494 12.0005C21.7494 12.6885 21.4396 13.246 21.0053 13.7642C20.5926 14.2565 19.9917 14.7996 19.2684 15.4534L16.4621 17.9905C15.4272 18.926 14.5878 19.6847 13.8939 20.1519C13.2062 20.6148 12.4119 20.9634 11.5883 20.6011C10.7625 20.2378 10.4868 19.4151 10.3685 18.5962Z" fill="currentColor"/><path d="M2.24951 14.7505C2.24951 15.3028 2.69723 15.7505 3.24951 15.7505C3.8018 15.7505 4.24951 15.3028 4.24951 14.7505L4.24951 9.25052C4.24951 8.69823 3.8018 8.25052 3.24951 8.25052C2.69723 8.25052 2.24951 8.69823 2.24951 9.25052L2.24951 14.7505Z" fill="currentColor"/></svg>
