<svg xmlns="http://www.w3.org/2000/svg" viewBox="0 0 24 24" fill="none"><path d="M12.0674 2.24982C14.0766 2.2498 15.6836 2.25025 16.9443 2.41974C18.2471 2.59493 19.3249 2.9673 20.1787 3.82111C21.0325 4.67492 21.4049 5.75274 21.5801 7.05548C21.7496 8.31625 21.75 9.92326 21.75 11.9324V12.0672C21.75 14.0764 21.7496 15.6834 21.5801 16.9442C21.4049 18.2469 21.0325 19.3247 20.1787 20.1785C19.3249 21.0323 18.2471 21.4047 16.9443 21.5799C15.6836 21.7494 14.0766 21.7498 12.0674 21.7498H11.9326C9.92344 21.7498 8.31643 21.7494 7.05566 21.5799C5.75292 21.4047 4.6751 21.0323 3.82129 20.1785C2.96748 19.3247 2.59511 18.2469 2.41992 16.9442C2.25043 15.6834 2.24998 14.0764 2.25 12.0672V11.9324C2.24998 9.92326 2.25043 8.31625 2.41992 7.05548C2.59511 5.75274 2.96748 4.67492 3.82129 3.82111C4.6751 2.9673 5.75292 2.59493 7.05566 2.41974C8.31643 2.25025 9.92344 2.2498 11.9326 2.24982H12.0674ZM4.28027 7.99982C4.20067 9.01966 4.19922 10.3069 4.19922 11.9998C4.19922 14.0957 4.20169 15.5697 4.35156 16.6844C4.49766 17.7708 4.76812 18.3685 5.19922 18.7996C5.63034 19.2307 6.22809 19.5012 7.31445 19.6473C8.42913 19.7971 9.90328 19.7996 11.999 19.7996C14.0948 19.7996 15.5689 19.7971 16.6836 19.6473C17.7701 19.5012 18.3687 19.2308 18.7998 18.7996C19.2307 18.3685 19.5004 17.7705 19.6465 16.6844C19.7964 15.5697 19.7988 14.0957 19.7988 11.9998C19.7988 10.3069 19.7974 9.01966 19.7178 7.99982H4.28027Z" fill="currentColor" fill-rule="evenodd" clip-rule="evenodd"/><path d="M8 14.8983C8.55228 14.8983 9 15.3461 9 15.8983C9 16.4506 8.55228 16.8983 8 16.8983H7C6.44772 16.8983 6 16.4506 6 15.8983C6 15.3461 6.44772 14.8983 7 14.8983H8ZM17 14.8983C17.5523 14.8983 18 15.3461 18 15.8983C18 16.4506 17.5523 16.8983 17 16.8983H12C11.4477 16.8983 11 16.4506 11 15.8983C11 15.3461 11.4477 14.8983 12 14.8983H17Z" fill="currentColor"/><path d="M8 10.8983C8.55228 10.8983 9 11.3461 9 11.8983C9 12.4506 8.55228 12.8983 8 12.8983H7C6.44772 12.8983 6 12.4506 6 11.8983C6 11.3461 6.44772 10.8983 7 10.8983H8ZM17 10.8983C17.5523 10.8983 18 11.3461 18 11.8983C18 12.4506 17.5523 12.8983 17 12.8983H12C11.4477 12.8983 11 12.4506 11 11.8983C11 11.3461 11.4477 10.8983 12 10.8983H17Z" fill="currentColor"/></svg>
