<svg xmlns="http://www.w3.org/2000/svg" viewBox="0 0 24 24" fill="none"><path d="M9.92577 2.11034C11.0709 0.963384 12.9291 0.963384 14.0742 2.11034L15.084 3.12108C15.3527 3.39021 15.7173 3.54129 16.0976 3.541L17.5264 3.54002C19.147 3.53872 20.4613 4.85292 20.4599 6.47362L20.459 7.90233C20.4587 8.28266 20.6098 8.64727 20.8789 8.916L21.8896 9.92577C23.0366 11.0709 23.0366 12.9291 21.8896 14.0742L20.8789 15.084C20.6098 15.3527 20.4587 15.7173 20.459 16.0976L20.4599 17.5264C20.4613 19.147 19.1471 20.4613 17.5264 20.4599L16.0976 20.459C15.7173 20.4587 15.3527 20.6098 15.084 20.8789L14.0742 21.8896C12.9291 23.0366 11.0709 23.0366 9.92577 21.8896L8.916 20.8789C8.64727 20.6098 8.28266 20.4587 7.90233 20.459L6.47362 20.4599C4.85292 20.4613 3.53872 19.1471 3.54002 17.5264L3.541 16.0976C3.54129 15.7173 3.39022 15.3527 3.12108 15.084L2.11034 14.0742C0.963384 12.9291 0.963384 11.0709 2.11034 9.92577L3.12108 8.916C3.39022 8.64727 3.54129 8.28266 3.541 7.90233L3.54002 6.47362C3.53872 4.85292 4.85292 3.53872 6.47362 3.54002L7.90233 3.541C8.28266 3.54129 8.64727 3.39021 8.916 3.12108L9.92577 2.11034ZM12 15.75C11.4477 15.75 11 16.1977 11 16.75C11 17.3023 11.4477 17.75 12 17.75C12.5523 17.75 13 17.3023 13 16.75C13 16.1977 12.5523 15.75 12 15.75ZM12 5.99998C10.3431 5.99998 8.99998 7.34313 8.99998 8.99998C8.99998 9.55227 9.4477 9.99998 9.99998 9.99998C10.5177 9.99998 10.9438 9.60665 10.9951 9.10252L11.0049 8.89745C11.0562 8.39332 11.4823 7.99998 12 7.99998C12.5523 7.99998 13 8.4477 13 8.99998C13 9.20055 12.9416 9.38489 12.8418 9.54002C12.7237 9.72342 12.5735 9.91675 12.3887 10.1465C12.3598 10.1823 12.3296 10.2198 12.2988 10.2578C12.1438 10.4495 11.9683 10.6662 11.8086 10.8857C11.4325 11.4025 11 12.1184 11 13V13.5C11 14.0523 11.4477 14.5 12 14.5C12.5523 14.5 13 14.0523 13 13.5V13C13 12.777 13.1097 12.4969 13.4258 12.0625C13.5528 11.8879 13.6904 11.7184 13.8447 11.5273C13.8779 11.4862 13.9123 11.4438 13.9473 11.4004C14.1339 11.1684 14.3437 10.9029 14.5244 10.6221C14.8256 10.1539 15 9.5957 15 8.99998C15 7.34313 13.6568 5.99998 12 5.99998Z" fill="currentColor" fill-rule="evenodd" clip-rule="evenodd"/></svg>
