<svg xmlns="http://www.w3.org/2000/svg" viewBox="0 0 24 24" fill="none"><path opacity="0.4" d="M21.75 13.05V13V11V10.95C21.75 9.10922 21.75 7.65129 21.5967 6.51074C21.439 5.33844 21.1067 4.38991 20.3584 3.6416C19.6101 2.89329 18.6616 2.56096 17.4893 2.40332C16.3487 2.24998 14.8908 2.24999 13.0499 2.25H13H11H10.9501C9.10924 2.24999 7.6513 2.24998 6.51074 2.40332C5.33844 2.56096 4.38991 2.89329 3.6416 3.6416C2.89329 4.38991 2.56096 5.33844 2.40332 6.51074C2.24998 7.6513 2.24999 9.10924 2.25 10.9501V11V13V13.0499C2.24999 14.8908 2.24998 16.3487 2.40332 17.4893C2.56096 18.6616 2.89329 19.6101 3.6416 20.3584C4.38991 21.1067 5.33844 21.439 6.51074 21.5967C7.65129 21.75 9.10922 21.75 10.95 21.75H11H13H13.05C14.8908 21.75 16.3487 21.75 17.4893 21.5967C18.6616 21.439 19.6101 21.1067 20.3584 20.3584C21.1067 19.6101 21.439 18.6616 21.5967 17.4893C21.75 16.3487 21.75 14.8908 21.75 13.05Z" fill="currentColor"/><path d="M8.00001 17V10.5C8.00001 9.82118 7.99753 9.21131 8.06349 8.72072C8.13332 8.20138 8.29602 7.66885 8.73243 7.23243C9.16885 6.79602 9.70138 6.63332 10.2207 6.56349C10.7113 6.49753 11.3212 6.50001 12 6.50001H15C15.5523 6.50001 16 6.94773 16 7.50001C16 8.0523 15.5523 8.50001 15 8.50001H12C11.2646 8.50001 10.8137 8.50203 10.4873 8.54591C10.1898 8.58592 10.1494 8.6436 10.1465 8.6465C10.1436 8.6494 10.0859 8.68975 10.0459 8.98732C10.002 9.31367 10 9.76464 10 10.5V11H14C14.5523 11 15 11.4477 15 12C15 12.5523 14.5523 13 14 13H10V17C10 17.5523 9.5523 18 9.00001 18C8.44773 18 8.00001 17.5523 8.00001 17Z" fill="currentColor"/></svg>
