<svg xmlns="http://www.w3.org/2000/svg" viewBox="0 0 24 24" fill="none"><path d="M13.0498 2.25C14.8906 2.24999 16.3487 2.24998 17.4893 2.40332C18.6616 2.56096 19.6101 2.89329 20.3584 3.6416C21.1067 4.38991 21.439 5.33844 21.5967 6.51074C21.75 7.65129 21.75 9.10939 21.75 10.9502V13.0498C21.75 14.8906 21.75 16.3487 21.5967 17.4893C21.439 18.6616 21.1067 19.6101 20.3584 20.3584C19.6101 21.1067 18.6616 21.439 17.4893 21.5967C16.3487 21.75 14.8906 21.75 13.0498 21.75H10.9502C9.10939 21.75 7.65129 21.75 6.51074 21.5967C5.33844 21.439 4.38991 21.1067 3.6416 20.3584C2.89329 19.6101 2.56096 18.6616 2.40332 17.4893C2.24998 16.3487 2.24999 14.8906 2.25 13.0498V10.9502C2.24999 9.10937 2.24998 7.65129 2.40332 6.51074C2.56096 5.33844 2.89329 4.38991 3.6416 3.6416C4.38991 2.89329 5.33844 2.56096 6.51074 2.40332C7.65129 2.24998 9.10937 2.24999 10.9502 2.25H13.0498ZM12 6.5C11.3212 6.5 10.7113 6.49752 10.2207 6.56348C9.70138 6.63331 9.16883 6.79601 8.73242 7.23242C8.29601 7.66883 8.13331 8.20138 8.06348 8.7207C7.99752 9.21129 8 9.82117 8 10.5V17C8 17.5523 8.44772 18 9 18C9.55228 18 10 17.5523 10 17V13H14C14.5523 13 15 12.5523 15 12C15 11.4477 14.5523 11 14 11H10V10.5C10 9.76463 10.002 9.31365 10.0459 8.9873C10.0859 8.68975 10.1436 8.64938 10.1465 8.64648C10.1494 8.64358 10.1898 8.58591 10.4873 8.5459C10.8137 8.50202 11.2646 8.5 12 8.5H15C15.5523 8.5 16 8.05228 16 7.5C16 6.94772 15.5523 6.5 15 6.5H12Z" fill="currentColor"/></svg>
