<svg xmlns="http://www.w3.org/2000/svg" viewBox="0 0 24 24" fill="none"><path d="M19.5 17.25C20.7426 17.25 21.75 18.2574 21.75 19.5C21.75 20.7426 20.7426 21.75 19.5 21.75C18.2574 21.75 17.25 20.7426 17.25 19.5C17.25 18.2574 18.2574 17.25 19.5 17.25Z" fill="currentColor"/><path d="M12 17.25C13.2426 17.25 14.25 18.2574 14.25 19.5C14.25 20.7426 13.2426 21.75 12 21.75C10.7574 21.75 9.75 20.7426 9.75 19.5C9.75 18.2574 10.7574 17.25 12 17.25Z" fill="currentColor"/><path d="M4.5 17.25C5.74264 17.25 6.75 18.2574 6.75 19.5C6.75 20.7426 5.74264 21.75 4.5 21.75C3.25736 21.75 2.25 20.7426 2.25 19.5C2.25 18.2574 3.25736 17.25 4.5 17.25Z" fill="currentColor"/><path d="M19.5 9.75C20.7426 9.75 21.75 10.7574 21.75 12C21.75 13.2426 20.7426 14.25 19.5 14.25C18.2574 14.25 17.25 13.2426 17.25 12C17.25 10.7574 18.2574 9.75 19.5 9.75Z" fill="currentColor"/><path d="M19.5 2.25C20.7426 2.25 21.75 3.25736 21.75 4.5C21.75 5.74264 20.7426 6.75 19.5 6.75C18.2574 6.75 17.25 5.74264 17.25 4.5C17.25 3.25736 18.2574 2.25 19.5 2.25Z" fill="currentColor"/><path d="M12 9.75C13.2426 9.75 14.25 10.7574 14.25 12C14.25 13.2426 13.2426 14.25 12 14.25C10.7574 14.25 9.75 13.2426 9.75 12C9.75 10.7574 10.7574 9.75 12 9.75Z" fill="currentColor"/><path d="M12 2.25C13.2426 2.25 14.25 3.25736 14.25 4.5C14.25 5.74264 13.2426 6.75 12 6.75C10.7574 6.75 9.75 5.74264 9.75 4.5C9.75 3.25736 10.7574 2.25 12 2.25Z" fill="currentColor"/><path d="M4.5 9.75C5.74264 9.75 6.75 10.7574 6.75 12C6.75 13.2426 5.74264 14.25 4.5 14.25C3.25736 14.25 2.25 13.2426 2.25 12C2.25 10.7574 3.25736 9.75 4.5 9.75Z" fill="currentColor"/><path d="M4.5 2.25C5.74264 2.25 6.75 3.25736 6.75 4.5C6.75 5.74264 5.74264 6.75 4.5 6.75C3.25736 6.75 2.25 5.74264 2.25 4.5C2.25 3.25736 3.25736 2.25 4.5 2.25Z" fill="currentColor"/></svg>
