<svg xmlns="http://www.w3.org/2000/svg" viewBox="0 0 24 24" fill="none"><path d="M12.4346 15.6672C12.896 15.3624 13.3724 15.39 13.7431 15.5031C14.0214 15.588 14.3223 15.7478 14.5732 15.881L15.4736 16.3576C15.9615 16.6162 16.1472 17.2212 15.8887 17.7092C15.6301 18.1971 15.0251 18.3837 14.5371 18.1252L13.8096 17.7394C14.001 18.8522 14.7827 19.8293 15.8164 20.3566C16.9195 20.9192 18.1809 20.9109 19.1865 20.1164C19.6198 19.7742 20.2485 19.8482 20.5908 20.2814C20.9329 20.7148 20.859 21.3434 20.4258 21.6857C18.6951 23.053 16.5707 22.9867 14.9082 22.1389C13.2629 21.2998 11.9413 19.6367 11.7803 17.6164L11.7764 17.5637C11.7573 17.3297 11.7311 17.0133 11.7705 16.7346C11.8273 16.3323 12.0209 15.9406 12.4346 15.6672ZM13.998 12.8478C15.7523 11.4657 17.8924 11.4989 19.5762 12.3371C21.2416 13.1663 22.5693 14.8334 22.7216 16.8713L22.7256 16.924C22.7435 17.1589 22.7678 17.4751 22.7275 17.7531C22.6695 18.1537 22.4757 18.5457 22.0605 18.8185C21.5985 19.1221 21.1221 19.0927 20.7529 18.9797C20.4752 18.8946 20.1749 18.7351 19.9238 18.6017L19.0234 18.1252C18.5355 17.8666 18.3499 17.2606 18.6084 16.7726C18.867 16.2849 19.472 16.0991 19.9599 16.3576L20.6943 16.7463C20.5102 15.6221 19.7273 14.6459 18.6855 14.1271C17.5783 13.5759 16.2866 13.5906 15.2353 14.4191C14.8016 14.7607 14.1728 14.6867 13.831 14.2531C13.4892 13.8193 13.5643 13.1897 13.998 12.8478Z" fill="currentColor"/><path opacity="0.4" d="M6.54492 1.46948C6.81982 1.34252 6.95754 1.27904 7.08789 1.34644C7.10278 1.35416 7.12053 1.36545 7.13379 1.37573C7.2496 1.46578 7.25 1.62948 7.25 1.95679V17.3123C7.25 17.5014 7.24981 17.5959 7.20605 17.6677C7.16228 17.7396 7.07164 17.7861 6.89062 17.8796C6.65433 18.0017 6.40125 18.149 6.11816 18.3132C5.49938 18.6722 4.92781 19.0037 4.50195 19.196C4.07119 19.3905 3.60341 19.5389 3.11035 19.4509C2.577 19.3557 2.09848 19.0687 1.75879 18.6472C1.44724 18.2607 1.34375 17.7825 1.29688 17.3064C1.25049 16.835 1.24999 16.2324 1.25 15.5037V7.2644C1.24999 6.71326 1.24962 6.24648 1.28711 5.86011C1.32693 5.44986 1.41356 5.07131 1.62012 4.70874C1.82715 4.34536 2.10818 4.07955 2.44043 3.8396C2.75206 3.61457 3.15106 3.38357 3.61914 3.11206L4.90723 2.36499C5.55418 1.98968 6.08415 1.68232 6.54492 1.46948ZM8.88574 1.29077C9.01451 1.20634 9.1603 1.26215 9.45215 1.37476C9.92536 1.55734 10.4736 1.83019 11.1426 2.16284L13.917 3.54272C14.0789 3.62323 14.1601 3.66349 14.2051 3.73608C14.2499 3.80863 14.25 3.89925 14.25 4.07983V10.6726C14.25 10.7918 14.2497 10.8519 14.2217 10.8992C14.1936 10.9462 14.139 10.9757 14.0303 11.0349C13.7028 11.2132 13.3813 11.4248 13.0693 11.6707C12.3988 12.199 12.0712 13.0017 12.1211 13.7937C12.1317 13.9618 12.1371 14.046 12.1084 14.0974C12.0796 14.1486 12.0067 14.1871 11.8613 14.2644C11.7769 14.3093 11.6926 14.3601 11.6084 14.4158C10.7788 14.9638 10.3918 15.7699 10.2852 16.5251C10.2218 16.9737 10.2602 17.4349 10.2783 17.6531L10.2803 17.6853L10.2852 17.7361C10.292 17.8215 10.2996 17.9067 10.3096 17.991C10.328 18.1479 10.165 18.2684 10.0234 18.198C9.64473 18.0097 9.36378 17.872 9.14258 17.7712C8.94442 17.681 8.84554 17.6354 8.79785 17.5613C8.75024 17.4871 8.75 17.3858 8.75 17.1833V1.89429C8.75 1.5565 8.75 1.38741 8.875 1.29761L8.88574 1.29077ZM18.0527 4.1687C18.9504 4.16867 19.701 4.16787 20.2969 4.24976C20.9276 4.33645 21.4955 4.52815 21.9502 4.99292C22.4026 5.45539 22.5861 6.02901 22.6699 6.66577C22.7496 7.27151 22.75 8.03586 22.75 8.95581V11.8777C22.75 12.3473 22.7497 12.5821 22.6299 12.6345C22.51 12.6868 22.3294 12.5197 21.9678 12.1853C21.446 11.7028 20.8617 11.3009 20.2451 10.9939C19.0517 10.3998 17.6464 10.1189 16.2383 10.3103C16.0045 10.3421 15.8868 10.3582 15.8184 10.2986C15.7499 10.2388 15.75 10.1255 15.75 9.90015V4.3396C15.75 4.24522 15.8266 4.16895 15.9209 4.1687H18.0527Z" fill="currentColor"/></svg>
