<svg xmlns="http://www.w3.org/2000/svg" viewBox="0 0 24 24" fill="none"><path opacity="0.4" d="M8.75 4.25C7.36929 4.25 6.25 5.36929 6.25 6.75V9.55273C5.87468 9.36065 5.45058 9.25 5 9.25C3.48122 9.25 2.25 10.4812 2.25 12V12.9414C2.25012 17.2539 5.74608 20.7499 10.0586 20.75H13.7998C18.1905 20.75 21.75 17.1905 21.75 12.7998V8.75C21.75 7.36929 20.6307 6.25 19.25 6.25C18.8875 6.25 18.5434 6.328 18.2324 6.4668C18.0917 5.21952 17.0349 4.25 15.75 4.25C15.2817 4.25 14.8444 4.38042 14.4697 4.60449C14.0541 3.80066 13.2174 3.25 12.25 3.25C11.2825 3.25 10.4449 3.80044 10.0293 4.60449C9.65476 4.38069 9.21802 4.25 8.75 4.25Z" fill="currentColor"/></svg>
