<svg xmlns="http://www.w3.org/2000/svg" viewBox="0 0 24 24" fill="none"><path d="M8.74951 4.25C7.3688 4.25 6.24951 5.36929 6.24951 6.75V9.55273C5.87419 9.36065 5.45009 9.25 4.99951 9.25C3.48073 9.25 2.24951 10.4812 2.24951 12V12.9414C2.24964 17.2539 5.74559 20.7499 10.0581 20.75H13.7993C18.19 20.75 21.7495 17.1905 21.7495 12.7998V8.75C21.7495 7.36929 20.6302 6.25 19.2495 6.25C18.887 6.25 18.5429 6.328 18.2319 6.4668C18.0912 5.21952 17.0344 4.25 15.7495 4.25C15.2812 4.25 14.8439 4.38042 14.4692 4.60449C14.0536 3.80066 13.2169 3.25 12.2495 3.25C11.282 3.25 10.4444 3.80044 10.0288 4.60449C9.65427 4.38069 9.21753 4.25 8.74951 4.25Z" fill="currentColor"/></svg>
