<svg xmlns="http://www.w3.org/2000/svg" viewBox="0 0 24 24" fill="none"><path d="M2.54288 2.54265C2.9334 2.15212 3.56642 2.15212 3.95694 2.54265L21.4569 20.0426C21.8475 20.4332 21.8475 21.0662 21.4569 21.4567C21.0664 21.8472 20.4334 21.8472 20.0429 21.4567L2.54288 3.95671C2.15235 3.56619 2.15235 2.93317 2.54288 2.54265Z" fill="currentColor"/><path d="M16.9587 16.9581C16.4391 18.2342 16.0054 19.2637 15.6013 20.0099C15.3476 20.4783 15.0781 20.8897 14.7712 21.1915C14.454 21.5033 14.0506 21.7406 13.5544 21.7491C13.3659 21.7523 13.1773 21.7316 12.9939 21.6876C12.5111 21.5715 12.1685 21.2515 11.9265 20.8781C11.6926 20.5168 11.5196 20.0573 11.3738 19.545C11.0855 18.5323 10.8434 17.0846 10.5369 15.2452L10.5271 15.1818C10.4487 14.7111 10.3975 14.4136 10.3367 14.1915C10.2803 13.9857 10.2317 13.9118 10.1941 13.8693C10.1744 13.847 10.1528 13.8255 10.1306 13.8058C10.0881 13.7682 10.014 13.7196 9.80835 13.6632C9.58625 13.6023 9.28875 13.5512 8.81812 13.4728L8.75464 13.462C6.91549 13.1555 5.46753 12.9143 4.45484 12.6261C3.94262 12.4803 3.48303 12.3072 3.12183 12.0734C2.7483 11.8314 2.42835 11.4888 2.31226 11.006C2.26819 10.8225 2.24754 10.6341 2.25073 10.4454C2.25918 9.9491 2.49647 9.54594 2.80835 9.22864C3.11023 8.92166 3.52237 8.65234 3.99097 8.39856C4.73694 7.99465 5.76459 7.55864 7.0398 7.03918L16.9587 16.9581Z" fill="currentColor"/><path opacity="0.4" d="M18.865 2.38878C19.6848 2.18575 20.5753 2.12448 21.2254 2.77452C21.8753 3.42459 21.8142 4.31505 21.6111 5.13487C21.4048 5.96774 20.9669 7.04915 20.4265 8.38585L20.4031 8.44542L17.9783 14.4425L9.55643 6.02061L15.5554 3.59678L15.6258 3.56846C16.9572 3.03018 18.0345 2.59454 18.865 2.38878Z" fill="currentColor"/></svg>
