<svg xmlns="http://www.w3.org/2000/svg" viewBox="0 0 24 24" fill="none"><path opacity="0.4" d="M18.667 2.25001C16.5529 2.2472 14.4968 2.85959 12.75 3.99317V21.75C14.406 20.3951 16.4989 19.6484 18.666 19.6514H18.6807C19.4438 19.6514 20.0544 19.6514 20.5146 19.6221C20.8888 19.5983 21.4275 19.4753 21.7588 19.3125C21.8829 19.2331 22.0067 19.1447 22.125 19.0264C22.2433 18.9081 22.3317 18.7843 22.4111 18.6602C22.6256 18.3249 22.6901 17.9284 22.7197 17.5518C22.75 17.167 22.75 16.6737 22.75 16.0762V6.40235C22.75 5.71199 22.752 5.10712 22.6719 4.60548C22.5853 4.0638 22.3966 3.58943 21.9951 3.16603C21.2086 2.33668 20.3239 2.32137 19.2568 2.26466C19.0615 2.25428 18.8648 2.25002 18.667 2.25001Z" fill="currentColor"/><path d="M19.7743 13.75C20.1881 13.7635 20.5131 14.1105 20.4998 14.5244C20.4864 14.9383 20.1393 15.2633 19.7254 15.25C19.623 15.2467 19.5201 15.2451 19.4168 15.2451H19.4159C18.2436 15.2435 17.0922 15.4603 16.0203 15.875C15.6341 16.0244 15.2001 15.8326 15.0506 15.4463C14.9012 15.06 15.093 14.626 15.4793 14.4766C16.7232 13.9954 18.058 13.7433 19.4168 13.7451C19.5363 13.7451 19.6557 13.7462 19.7743 13.75ZM19.7743 10.2559C20.1881 10.2693 20.5131 10.6164 20.4998 11.0303C20.4863 11.4441 20.1393 11.7682 19.7254 11.7549C19.623 11.7516 19.5201 11.75 19.4168 11.75H19.4159C18.2436 11.7484 17.0922 11.9662 16.0203 12.3809C15.6341 12.5302 15.2001 12.3383 15.0506 11.9522C14.9012 11.5658 15.093 11.1309 15.4793 10.9815C16.7232 10.5003 18.058 10.2482 19.4168 10.25C19.5363 10.25 19.6557 10.2521 19.7743 10.2559ZM19.7743 6.57521C20.188 6.58868 20.5131 6.93481 20.4998 7.34864C20.4866 7.76264 20.1394 8.08751 19.7254 8.07423C19.623 8.07095 19.5201 8.06935 19.4168 8.06935H19.4159C18.8955 8.06862 18.3788 8.11064 17.8719 8.19435C17.4633 8.26179 17.0771 7.98575 17.0096 7.57716C16.9421 7.16848 17.2191 6.78234 17.6278 6.71485C18.2155 6.61781 18.8138 6.56952 19.4168 6.57032C19.5363 6.57033 19.6557 6.5714 19.7743 6.57521Z" fill="currentColor"/><path opacity="0.4" d="M5.33301 2.25001C7.44707 2.2472 9.50317 2.85959 11.25 3.99317V21.75C9.59401 20.3951 7.50111 19.6484 5.33399 19.6514H5.31934C4.55617 19.6514 3.94559 19.6514 3.48536 19.6221C3.11123 19.5983 2.57249 19.4753 2.24122 19.3125C2.11712 19.2331 1.99331 19.1447 1.875 19.0264C1.7567 18.9081 1.6683 18.7843 1.58887 18.6602C1.37443 18.3249 1.30993 17.9284 1.28028 17.5518C1.25001 17.167 1.25 16.6737 1.25 16.0762L1.25 6.40235C1.25 5.71199 1.24799 5.10712 1.32813 4.60548C1.41468 4.0638 1.60339 3.58943 2.00489 3.16603C2.79138 2.33668 3.67611 2.32137 4.74317 2.26466C4.93852 2.25428 5.13519 2.25002 5.33301 2.25001Z" fill="currentColor"/><path d="M4.5823 13.7451C5.94142 13.7432 7.27664 13.9953 8.52078 14.4766C8.90707 14.626 9.09893 15.06 8.94949 15.4463C8.80002 15.8326 8.36605 16.0244 7.97976 15.875C6.90786 15.4603 5.75647 15.2435 4.58425 15.2451C4.48095 15.2451 4.37711 15.2467 4.27468 15.25C3.86078 15.2633 3.5137 14.9383 3.50027 14.5244C3.487 14.1105 3.81203 13.7635 4.22586 13.75C4.3441 13.7462 4.46318 13.7451 4.5823 13.7451ZM4.5823 10.25C5.94133 10.2481 7.27671 10.5002 8.52078 10.9815C8.90709 11.1309 9.09893 11.5658 8.94949 11.9522C8.79997 12.3383 8.36599 12.5302 7.97976 12.3809C6.90786 11.9662 5.75647 11.7484 4.58425 11.75C4.48096 11.75 4.3771 11.7516 4.27468 11.7549C3.86084 11.7682 3.5138 11.4441 3.50027 11.0303C3.487 10.6164 3.81203 10.2693 4.22586 10.2559C4.3441 10.2521 4.46318 10.25 4.5823 10.25ZM4.58328 6.57032C5.18632 6.56952 5.78462 6.61781 6.37234 6.71485C6.78102 6.78234 7.05799 7.16848 6.9905 7.57716C6.92297 7.98575 6.53682 8.26179 6.1282 8.19435C5.62128 8.11064 5.10461 8.06862 4.58425 8.06935C4.48096 8.06935 4.37711 8.07095 4.27468 8.07423C3.86068 8.08751 3.51355 7.76264 3.50027 7.34864C3.48705 6.93481 3.81207 6.58868 4.22586 6.57521C4.3441 6.57141 4.46415 6.57034 4.58328 6.57032Z" fill="currentColor"/></svg>
