<svg xmlns="http://www.w3.org/2000/svg" viewBox="0 0 24 24" fill="none"><path d="M18.6665 2.25001C18.8643 2.25002 19.061 2.25428 19.2563 2.26466C20.3234 2.32137 21.2081 2.33669 21.9946 3.16603C22.3961 3.58943 22.5848 4.06381 22.6714 4.60548C22.7515 5.10712 22.7495 5.712 22.7495 6.40235V16.0762C22.7495 16.6736 22.7495 17.167 22.7192 17.5518C22.6896 17.9284 22.6251 18.3249 22.4106 18.6602C22.3312 18.7843 22.2428 18.9081 22.1245 19.0264C22.0062 19.1447 21.8824 19.2331 21.7583 19.3125C21.427 19.4753 20.8883 19.5983 20.5142 19.6221C20.0539 19.6514 19.4433 19.6514 18.6802 19.6514H18.6655C16.4984 19.6483 14.4055 20.3951 12.7495 21.75V3.99317C14.4963 2.8596 16.5525 2.2472 18.6665 2.25001ZM19.4165 13.7451C18.0577 13.7433 16.7229 13.9954 15.479 14.4766C15.0927 14.626 14.9009 15.06 15.0503 15.4463C15.1998 15.8325 15.6337 16.0244 16.02 15.875C17.0919 15.4604 18.2434 15.2435 19.4155 15.2451H19.4165C19.5197 15.2451 19.6227 15.2467 19.7251 15.25C20.1389 15.2632 20.4861 14.9382 20.4995 14.5244C20.5128 14.1106 20.1877 13.7636 19.7739 13.75C19.6554 13.7462 19.5359 13.7451 19.4165 13.7451ZM19.4165 10.25C18.0578 10.2482 16.7228 10.5003 15.479 10.9815C15.0927 11.1309 14.9008 11.5658 15.0503 11.9522C15.1998 12.3383 15.6338 12.5302 16.02 12.3809C17.0919 11.9662 18.2434 11.7484 19.4155 11.75H19.4165C19.5197 11.75 19.6227 11.7516 19.7251 11.7549C20.1389 11.7681 20.486 11.444 20.4995 11.0303C20.5128 10.6165 20.1877 10.2694 19.7739 10.2559C19.6554 10.2521 19.5359 10.25 19.4165 10.25ZM19.4165 6.57032C18.8135 6.56952 18.2151 6.61783 17.6274 6.71485C17.2188 6.78234 16.9418 7.16848 17.0093 7.57716C17.0768 7.98575 17.463 8.26179 17.8716 8.19435C18.3784 8.11066 18.8952 8.06862 19.4155 8.06935H19.4165C19.5197 8.06935 19.6227 8.07095 19.7251 8.07423C20.139 8.08742 20.4862 7.76259 20.4995 7.34864C20.5127 6.93488 20.1876 6.58876 19.7739 6.5752C19.6554 6.5714 19.5359 6.57033 19.4165 6.57032Z" fill="currentColor" fill-rule="evenodd" clip-rule="evenodd"/><path d="M5.33252 2.25001C7.44658 2.2472 9.50268 2.8596 11.2495 3.99317V21.75C9.59352 20.3951 7.50061 19.6483 5.3335 19.6514H5.31885C4.55568 19.6514 3.9451 19.6514 3.48487 19.6221C3.11074 19.5983 2.572 19.4753 2.24073 19.3125C2.11663 19.2331 1.99282 19.1447 1.87452 19.0264C1.75622 18.9081 1.66781 18.7843 1.58838 18.6602C1.37395 18.3249 1.30945 17.9284 1.27979 17.5518C1.24952 17.167 1.24951 16.6736 1.24952 16.0762V6.40235C1.24952 5.71199 1.2475 5.10712 1.32764 4.60548C1.4142 4.06381 1.6029 3.58943 2.0044 3.16603C2.79089 2.33669 3.67563 2.32137 4.74268 2.26466C4.93803 2.25428 5.1347 2.25002 5.33252 2.25001ZM4.2251 13.75C3.81141 13.7636 3.48626 14.1106 3.49952 14.5244C3.51294 14.9382 3.86014 15.2631 4.27393 15.25C4.37627 15.2467 4.48029 15.2451 4.5835 15.2451C5.75563 15.2435 6.90718 15.4604 7.97901 15.875C8.36527 16.0244 8.79924 15.8325 8.94874 15.4463C9.09818 15.06 8.90632 14.626 8.52002 14.4766C7.27595 13.9953 5.94058 13.7432 4.58155 13.7451C4.46251 13.7451 4.34326 13.7462 4.2251 13.75ZM4.2251 10.2559C3.81141 10.2695 3.48626 10.6165 3.49952 11.0303C3.51304 11.444 3.86021 11.768 4.27393 11.7549C4.37626 11.7516 4.4803 11.75 4.5835 11.75C5.75563 11.7484 6.90718 11.9663 7.97901 12.3809C8.3652 12.5302 8.79919 12.3382 8.94874 11.9522C9.09818 11.5658 8.90634 11.1309 8.52002 10.9815C7.27602 10.5003 5.94049 10.2481 4.58155 10.25C4.46251 10.25 4.34326 10.2521 4.2251 10.2559ZM4.2251 6.5752C3.81145 6.58882 3.48631 6.93491 3.49952 7.34864C3.51279 7.76255 3.86005 8.08736 4.27393 8.07423C4.37626 8.07095 4.48029 8.06935 4.5835 8.06935C5.10377 8.06862 5.62061 8.11067 6.12745 8.19435C6.53606 8.26179 6.9222 7.98573 6.98975 7.57716C7.05723 7.16848 6.78027 6.78234 6.37159 6.71485C5.78395 6.61784 5.18548 6.56952 4.58252 6.57032C4.46349 6.57034 4.34326 6.57142 4.2251 6.5752Z" fill="currentColor" fill-rule="evenodd" clip-rule="evenodd"/></svg>
