<svg xmlns="http://www.w3.org/2000/svg" viewBox="0 0 24 24" fill="none"><path opacity="0.4" d="M22.75 12.9393V12.8749V10.8749V10.8104C22.75 9.44738 22.7501 8.3482 22.6338 7.48328C22.5128 6.58317 22.2533 5.82543 21.6514 5.22351C21.0495 4.6216 20.2917 4.36211 19.3916 4.24109C18.5267 4.12483 17.4275 4.12485 16.0644 4.12488H16H8H7.93561C6.57252 4.12485 5.47333 4.12483 4.6084 4.24109C3.70829 4.36211 2.95055 4.6216 2.34863 5.22351C1.74672 5.82543 1.48723 6.58317 1.36621 7.48328C1.24995 8.34821 1.24997 9.4474 1.25 10.8105V10.8749V12.8749V12.9393C1.24997 14.3024 1.24995 15.4016 1.36621 16.2665C1.48723 17.1666 1.74672 17.9243 2.34863 18.5262C2.95055 19.1282 3.70829 19.3877 4.6084 19.5087C5.47332 19.6249 6.5725 19.6249 7.93557 19.6249H8H16H16.0644C17.4275 19.6249 18.5267 19.6249 19.3916 19.5087C20.2917 19.3877 21.0495 19.1282 21.6514 18.5262C22.2533 17.9243 22.5128 17.1666 22.6338 16.2665C22.7501 15.4016 22.75 14.3024 22.75 12.9393Z" fill="currentColor"/><path d="M21.6518 18.5267C22.2537 17.9248 22.5132 17.1671 22.6343 16.2669C22.6506 16.1454 22.6646 16.0192 22.6767 15.8883C20.7258 16.0445 19.1696 17.6006 19.0134 19.5516C19.1443 19.5395 19.2705 19.5255 19.3921 19.5091C20.2922 19.3881 21.0499 19.1286 21.6518 18.5267Z" fill="currentColor"/><path d="M2.3491 18.5267C2.95101 19.1286 3.70876 19.3881 4.60886 19.5091C4.73044 19.5255 4.85664 19.5395 4.98755 19.5516C4.83129 17.6006 3.27516 16.0445 1.32422 15.8883C1.33629 16.0192 1.35033 16.1454 1.36668 16.2669C1.48769 17.1671 1.74718 17.9248 2.3491 18.5267Z" fill="currentColor"/><path d="M2.3491 5.22398C1.74718 5.82589 1.48769 6.58363 1.36668 7.48374C1.35033 7.60531 1.33629 7.73152 1.32422 7.86243C3.27516 7.70617 4.83129 6.15004 4.98755 4.1991C4.85664 4.21117 4.73044 4.22521 4.60886 4.24155C3.70876 4.36257 2.95101 4.62206 2.3491 5.22398Z" fill="currentColor"/><path d="M21.6518 5.22398C21.0499 4.62206 20.2922 4.36257 19.3921 4.24155C19.2705 4.22521 19.1443 4.21117 19.0134 4.1991C19.1696 6.15004 20.7258 7.70617 22.6767 7.86243C22.6646 7.73152 22.6506 7.60531 22.6343 7.48374C22.5132 6.58363 22.2537 5.82589 21.6518 5.22398Z" fill="currentColor"/><path d="M6 10.8749C6.55228 10.8749 7 11.3226 7 11.8749C7 12.4272 6.55228 12.8749 6 12.8749C5.44772 12.8749 5 12.4272 5 11.8749C5 11.3226 5.44771 10.8749 6 10.8749Z" fill="currentColor"/><path d="M13 10.8749C13.5523 10.8749 14 11.3226 14 11.8749C14 12.4272 13.5523 12.8749 13 12.8749C12.4477 12.8749 12 12.4272 12 11.8749C12 11.3226 12.4477 10.8749 13 10.8749Z" fill="currentColor"/><path d="M16 8.87488C16.5523 8.87488 17 9.32259 17 9.87488C17 10.4272 16.5523 10.8749 16 10.8749C15.4477 10.8749 15 10.4272 15 9.87488C15 9.3226 15.4477 8.87488 16 8.87488Z" fill="currentColor"/><path d="M16 12.8749C16.5523 12.8749 17 13.3226 17 13.8749C17 14.4272 16.5523 14.8749 16 14.8749C15.4477 14.8749 15 14.4272 15 13.8749C15 13.3226 15.4477 12.8749 16 12.8749Z" fill="currentColor"/></svg>
