<svg xmlns="http://www.w3.org/2000/svg" viewBox="0 0 24 24" fill="none"><path d="M16.0645 4.25C17.4275 4.24997 18.5267 4.24995 19.3916 4.36621C20.2917 4.48723 21.0495 4.74672 21.6514 5.34863C22.2533 5.95055 22.5128 6.70829 22.6338 7.6084C22.7501 8.47331 22.75 9.57249 22.75 10.9355V13.0645C22.75 14.4275 22.7501 15.5267 22.6338 16.3916C22.5128 17.2917 22.2533 18.0494 21.6514 18.6514C21.0494 19.2533 20.2917 19.5128 19.3916 19.6338C18.5267 19.7501 17.4275 19.75 16.0645 19.75H7.93555C6.57249 19.75 5.47331 19.7501 4.6084 19.6338C3.70829 19.5128 2.95055 19.2533 2.34863 18.6514C1.74672 18.0495 1.48723 17.2917 1.36621 16.3916C1.24995 15.5267 1.24997 14.4275 1.25 13.0645V10.9355C1.24997 9.57249 1.24995 8.47331 1.36621 7.6084C1.48723 6.70829 1.74672 5.95055 2.34863 5.34863C2.95055 4.74672 3.70829 4.48723 4.6084 4.36621C5.47331 4.24995 6.57249 4.24997 7.93555 4.25H16.0645ZM2.85352 16.1914C2.95217 16.9252 3.13242 17.3141 3.40918 17.5908C3.68594 17.8676 4.07482 18.0478 4.80859 18.1465C4.91574 18.1609 5.02794 18.1719 5.14551 18.1826C4.85054 17.0443 3.9549 16.1481 2.81641 15.8535C2.8271 15.9715 2.83907 16.0839 2.85352 16.1914ZM21.1826 15.8535C20.0445 16.1483 19.1483 17.0445 18.8535 18.1826C18.9714 18.1719 19.084 18.1609 19.1914 18.1465C19.9252 18.0478 20.3141 17.8676 20.5908 17.5908C20.8676 17.3141 21.0478 16.9252 21.1465 16.1914C21.1609 16.084 21.1719 15.9714 21.1826 15.8535ZM16 13C15.4477 13 15 13.4477 15 14C15 14.5523 15.4477 15 16 15C16.5523 15 17 14.5523 17 14C17 13.4477 16.5523 13 16 13ZM6 11C5.44771 11 5 11.4477 5 12C5 12.5523 5.44772 13 6 13C6.55228 13 7 12.5523 7 12C7 11.4477 6.55228 11 6 11ZM13 11C12.4477 11 12 11.4477 12 12C12 12.5523 12.4477 13 13 13C13.5523 13 14 12.5523 14 12C14 11.4477 13.5523 11 13 11ZM16 9C15.4477 9 15 9.44772 15 10C15 10.5523 15.4477 11 16 11C16.5523 11 17 10.5523 17 10C17 9.44772 16.5523 9 16 9ZM4.80859 5.85352C4.07482 5.95217 3.68594 6.13242 3.40918 6.40918C3.13242 6.68594 2.95217 7.07482 2.85352 7.80859C2.83911 7.91576 2.82708 8.02791 2.81641 8.14551C3.95509 7.85081 4.85081 6.95509 5.14551 5.81641C5.02791 5.82708 4.91576 5.83911 4.80859 5.85352ZM18.8535 5.81641C19.1481 6.9549 20.0443 7.85054 21.1826 8.14551C21.1719 8.02794 21.1609 7.91574 21.1465 7.80859C21.0478 7.07482 20.8676 6.68594 20.5908 6.40918C20.3141 6.13242 19.9252 5.95217 19.1914 5.85352C19.0839 5.83907 18.9715 5.8271 18.8535 5.81641Z" fill="currentColor"/></svg>
