<svg xmlns="http://www.w3.org/2000/svg" viewBox="0 0 24 24" fill="none"><path d="M12 7.25C16.2802 7.25 19.75 10.7198 19.75 15C19.75 19.2802 16.2802 22.75 12 22.75C7.71979 22.75 4.25 19.2802 4.25 15C4.25 10.7198 7.71979 7.25 12 7.25ZM10 14C9.44772 14 9 14.4477 9 15C9 15.5523 9.44772 16 10 16H10.0068C10.5591 16 11.0068 15.5523 11.0068 15C11.0068 14.4477 10.5591 14 10.0068 14H10ZM13.9932 14C13.4409 14 12.9932 14.4477 12.9932 15C12.9932 15.5523 13.4409 16 13.9932 16H14C14.5523 16 15 15.5523 15 15C15 14.4477 14.5523 14 14 14H13.9932Z" fill="currentColor"/><path d="M6.5 6.75C6.5 3.71243 8.96243 1.25 12 1.25C15.0376 1.25 17.5 3.71243 17.5 6.75V9.75C17.5 10.3023 17.0523 10.75 16.5 10.75C15.9477 10.75 15.5 10.3023 15.5 9.75V6.75C15.5 4.817 13.933 3.25 12 3.25C10.067 3.25 8.5 4.817 8.5 6.75V9.75C8.5 10.3023 8.05228 10.75 7.5 10.75C6.94772 10.75 6.5 10.3023 6.5 9.75V6.75Z" fill="currentColor" fill-rule="evenodd" clip-rule="evenodd"/></svg>
