<svg xmlns="http://www.w3.org/2000/svg" viewBox="0 0 24 24" fill="none"><path opacity="0.4" d="M22.75 14.05V14V13.95C22.75 12.1092 22.75 10.6513 22.5967 9.51074C22.439 8.33844 22.1067 7.38991 21.3584 6.6416C20.6101 5.89329 19.6616 5.56096 18.4893 5.40332C17.3487 5.24998 15.8908 5.24999 14.0499 5.25H14H10H9.95006C8.10924 5.24999 6.6513 5.24998 5.51074 5.40332C4.33844 5.56096 3.38991 5.89329 2.6416 6.6416C1.89329 7.38991 1.56096 8.33844 1.40332 9.51074C1.24998 10.6513 1.24999 12.1092 1.25 13.9501V14V14.0499C1.24999 15.8908 1.24998 17.3487 1.40332 18.4893C1.56096 19.6616 1.89329 20.6101 2.6416 21.3584C3.38991 22.1067 4.33844 22.439 5.51074 22.5967C6.65129 22.75 8.10922 22.75 9.95003 22.75H10H14H14.05C15.8908 22.75 17.3487 22.75 18.4893 22.5967C19.6616 22.439 20.6101 22.1067 21.3584 21.3584C22.1067 20.6101 22.439 19.6616 22.5967 18.4893C22.75 17.3487 22.75 15.8908 22.75 14.05Z" fill="currentColor"/><path d="M11.4998 9.6707C13.8908 8.29026 16.9483 9.109 18.3289 11.4998C19.7093 13.8908 18.8906 16.9483 16.4998 18.3289C14.1088 19.7093 11.0514 18.8906 9.6707 16.4998C8.29026 14.1088 9.109 11.0514 11.4998 9.6707ZM12.0525 16.2771C12.9916 17.0801 14.3689 17.2504 15.4998 16.5975C16.6303 15.9446 17.1715 14.6673 16.9461 13.4529L12.0525 16.2771ZM15.9461 11.7215C15.0071 10.9193 13.6303 10.7494 12.4998 11.4021C11.3696 12.0548 10.8277 13.3317 11.0525 14.5457L15.9461 11.7215Z" fill="currentColor"/><path d="M6.10254 9.00488C6.60667 9.05621 7 9.48232 7 10C7 10.5523 6.55228 11 6 11C5.44772 11 5 10.5523 5 10C5 9.44772 5.44771 9 6 9L6.10254 9.00488Z" fill="currentColor"/><path d="M16.6445 1.31573C17.1605 1.11928 17.7388 1.37805 17.9355 1.89385C18.1317 2.40965 17.873 2.98813 17.3574 3.18487L11.9385 5.24932H9.95117C8.40588 5.24931 7.13035 5.25041 6.08594 5.34112C6.10515 5.33237 6.12454 5.32335 6.14453 5.31573L16.6445 1.31573Z" fill="currentColor"/></svg>
