<svg xmlns="http://www.w3.org/2000/svg" viewBox="0 0 24 24" fill="none"><path d="M16.6436 1.31562C17.1594 1.11938 17.7378 1.37815 17.9346 1.89374C18.1311 2.40958 17.872 2.98786 17.3564 3.18476L11.9346 5.25019H14.0498C15.8906 5.25017 17.3487 5.25016 18.4893 5.40351C19.6616 5.56115 20.6101 5.89348 21.3584 6.64179C22.1067 7.3901 22.439 8.33863 22.5967 9.51093C22.75 10.6515 22.75 12.1096 22.75 13.9504V14.05C22.75 15.8908 22.75 17.3489 22.5967 18.4894C22.439 19.6617 22.1067 20.6103 21.3584 21.3586C20.6101 22.1069 19.6616 22.4392 18.4893 22.5969C17.3487 22.7502 15.8906 22.7502 14.0498 22.7502H9.9502C8.10939 22.7502 6.65129 22.7502 5.51074 22.5969C4.33844 22.4392 3.38991 22.1069 2.6416 21.3586C1.89329 20.6103 1.56096 19.6617 1.40332 18.4894C1.24998 17.3489 1.24999 15.8908 1.25 14.05V13.9504C1.24999 12.1096 1.24998 10.6515 1.40332 9.51093C1.56096 8.33863 1.89329 7.3901 2.6416 6.64179C3.38991 5.89348 4.33844 5.56115 5.51074 5.40351C5.69355 5.37893 5.8846 5.35931 6.08398 5.34198C6.10348 5.33309 6.12325 5.32336 6.14355 5.31562L16.6436 1.31562ZM18.3291 11.5002C16.9485 9.10941 13.891 8.29069 11.5 9.67109C9.1092 11.0517 8.29046 14.1092 9.6709 16.5002C11.0516 18.8908 14.1091 19.7097 16.5 18.3293C18.8907 16.9487 19.7093 13.8911 18.3291 11.5002ZM16.9463 13.4533C17.1716 14.6676 16.6304 15.9451 15.5 16.5978C14.3691 17.2507 12.9918 17.0803 12.0527 16.2775L16.9463 13.4533ZM12.5 11.4025C13.6305 10.7499 15.0073 10.9197 15.9463 11.7219L11.0527 14.5461C10.8279 13.332 11.3698 12.0552 12.5 11.4025ZM6 9.00019C5.44771 9.00019 5 9.44791 5 10.0002C5 10.5525 5.44772 11.0002 6 11.0002C6.55228 11.0002 7 10.5525 7 10.0002C7 9.48251 6.60667 9.0564 6.10254 9.00507L6 9.00019Z" fill="currentColor" fill-rule="evenodd" clip-rule="evenodd"/></svg>
