<svg xmlns="http://www.w3.org/2000/svg" viewBox="0 0 24 24" fill="none"><path opacity="0.4" d="M17.75 12.0156V12V11.9844C17.75 11.0708 17.75 10.3348 17.6963 9.74219C17.6482 9.21172 17.5539 8.73965 17.3447 8.30762L17.248 8.125C16.9189 7.55493 16.4451 7.08108 15.875 6.75195C15.3939 6.47422 14.864 6.35867 14.2578 6.30371C13.6652 6.25 12.9292 6.25 12.0156 6.25H12H11.9844C11.0708 6.25 10.3348 6.25 9.74219 6.30371C9.13603 6.35867 8.60613 6.47422 8.125 6.75195C7.55493 7.08108 7.08108 7.55493 6.75195 8.125C6.47422 8.60613 6.35867 9.13603 6.30371 9.74219C6.25 10.3348 6.25 11.0708 6.25 11.9844V12V12.0156C6.25 12.9292 6.25 13.6652 6.30371 14.2578C6.35867 14.864 6.47422 15.3939 6.75195 15.875C7.08108 16.4451 7.55493 16.9189 8.125 17.248L8.30762 17.3447C8.73965 17.5539 9.21172 17.6482 9.74219 17.6963C10.3348 17.75 11.0708 17.75 11.9844 17.75H12H12.0156C12.9292 17.75 13.6652 17.75 14.2578 17.6963C14.864 17.6413 15.3939 17.5258 15.875 17.248C16.4451 16.9189 16.9189 16.4451 17.248 15.875C17.5258 15.3939 17.6413 14.864 17.6963 14.2578C17.75 13.6652 17.75 12.9292 17.75 12.0156Z" fill="currentColor"/><path d="M19.0332 15.25C19.5655 15.25 20.0152 15.25 20.3818 15.2832C20.7663 15.3181 21.1327 15.3945 21.4746 15.5918C21.8623 15.8156 22.1844 16.1377 22.4082 16.5254C22.6055 16.8673 22.6819 17.2337 22.7168 17.6182C22.75 17.9848 22.75 18.4345 22.75 18.9668V19.0332C22.75 19.5655 22.75 20.0152 22.7168 20.3818C22.6819 20.7663 22.6055 21.1327 22.4082 21.4746C22.1844 21.8623 21.8623 22.1844 21.4746 22.4082C21.1327 22.6055 20.7663 22.6819 20.3818 22.7168C20.0152 22.75 19.5655 22.75 19.0332 22.75H18.9668C18.4345 22.75 17.9848 22.75 17.6182 22.7168C17.2337 22.6819 16.8673 22.6055 16.5254 22.4082C16.1377 22.1844 15.8156 21.8623 15.5918 21.4746C15.3945 21.1327 15.3181 20.7663 15.2832 20.3818C15.25 20.0152 15.25 19.5655 15.25 19.0332V18.8066C15.6672 18.7129 16.089 18.5683 16.5 18.3311L16.7793 18.1572C17.4153 17.732 17.9471 17.165 18.3311 16.5L18.4707 16.2344C18.6281 15.9084 18.7338 15.5778 18.8076 15.25H19.0332Z" fill="currentColor"/><path d="M5.0332 1.25C5.56554 1.24999 6.01518 1.24997 6.38184 1.2832C6.7663 1.31806 7.13271 1.39446 7.47461 1.5918C7.86226 1.81561 8.18439 2.13774 8.4082 2.52539C8.60554 2.86729 8.68194 3.2337 8.7168 3.61816C8.75003 3.98481 8.75001 4.43448 8.75 4.9668V5.0332C8.75 5.08703 8.74906 5.14025 8.74902 5.19238C8.33208 5.28609 7.91074 5.43187 7.5 5.66895C6.73991 6.10779 6.10779 6.73991 5.66895 7.5C5.43187 7.91074 5.28609 8.33208 5.19238 8.74902C5.14025 8.74906 5.08703 8.75 5.0332 8.75H4.9668C4.43448 8.75001 3.98481 8.75003 3.61816 8.7168C3.2337 8.68194 2.86729 8.60554 2.52539 8.4082C2.13774 8.18439 1.81561 7.86226 1.5918 7.47461C1.39446 7.13271 1.31806 6.7663 1.2832 6.38184C1.24997 6.01518 1.24999 5.56554 1.25 5.0332V4.9668C1.24999 4.43446 1.24997 3.98482 1.2832 3.61816C1.31806 3.2337 1.39446 2.86729 1.5918 2.52539C1.81561 2.13774 2.13774 1.81561 2.52539 1.5918C2.86729 1.39446 3.2337 1.31806 3.61816 1.2832C3.98482 1.24997 4.43446 1.24999 4.9668 1.25H5.0332Z" fill="currentColor"/></svg>
