<svg xmlns="http://www.w3.org/2000/svg" viewBox="0 0 24 24" fill="none"><path d="M17.7495 12.0156V12V11.9844C17.7495 11.0708 17.7495 10.3348 17.6958 9.74219C17.6477 9.21172 17.5534 8.73965 17.3442 8.30762L17.2476 8.125C16.9184 7.55493 16.4446 7.08108 15.8745 6.75195C15.3934 6.47422 14.8635 6.35867 14.2573 6.30371C13.6647 6.25 12.9287 6.25 12.0152 6.25H11.9995H11.9839C11.0703 6.25 10.3344 6.25 9.7417 6.30371C9.13554 6.35867 8.60565 6.47422 8.12451 6.75195C7.55444 7.08108 7.0806 7.55493 6.75146 8.125C6.47373 8.60613 6.35818 9.13603 6.30322 9.74219C6.24951 10.3348 6.24951 11.0708 6.24951 11.9844V12V12.0156C6.24951 12.9292 6.24951 13.6652 6.30322 14.2578C6.35818 14.864 6.47373 15.3939 6.75146 15.875C7.0806 16.4451 7.55444 16.9189 8.12451 17.248L8.30713 17.3447C8.73917 17.5539 9.21124 17.6482 9.7417 17.6963C10.3344 17.75 11.0703 17.75 11.9839 17.75H11.9995H12.0151C12.9287 17.75 13.6647 17.75 14.2573 17.6963C14.8635 17.6413 15.3934 17.5258 15.8745 17.248C16.4446 16.9189 16.9184 16.4451 17.2476 15.875C17.5253 15.3939 17.6408 14.864 17.6958 14.2578C17.7495 13.6652 17.7495 12.9292 17.7495 12.0156Z" fill="currentColor"/><path d="M19.0327 15.25C19.5651 15.25 20.0147 15.25 20.3813 15.2832C20.7658 15.3181 21.1322 15.3945 21.4741 15.5918C21.8618 15.8156 22.1839 16.1377 22.4077 16.5254C22.6051 16.8673 22.6814 17.2337 22.7163 17.6182C22.7495 17.9848 22.7495 18.4345 22.7495 18.9668V19.0332C22.7495 19.5655 22.7495 20.0152 22.7163 20.3818C22.6814 20.7663 22.6051 21.1327 22.4077 21.4746C22.1839 21.8623 21.8618 22.1844 21.4741 22.4082C21.1322 22.6055 20.7658 22.6819 20.3813 22.7168C20.0147 22.75 19.565 22.75 19.0327 22.75H18.9663C18.434 22.75 17.9843 22.75 17.6177 22.7168C17.2332 22.6819 16.8668 22.6055 16.5249 22.4082C16.1373 22.1844 15.8151 21.8623 15.5913 21.4746C15.394 21.1327 15.3176 20.7663 15.2827 20.3818C15.2495 20.0152 15.2495 19.5655 15.2495 19.0332V18.8066C15.6667 18.7129 16.0885 18.5683 16.4995 18.3311L16.7788 18.1572C17.4148 17.732 17.9466 17.165 18.3306 16.5L18.4702 16.2344C18.6276 15.9084 18.7333 15.5778 18.8071 15.25H19.0327Z" fill="currentColor"/><path d="M5.03272 1.25C5.56505 1.24999 6.01469 1.24997 6.38135 1.2832C6.76581 1.31806 7.13222 1.39446 7.47412 1.5918C7.86177 1.81561 8.18391 2.13774 8.40772 2.52539C8.60505 2.86729 8.68145 3.2337 8.71631 3.61816C8.74954 3.98481 8.74953 4.43448 8.74951 4.9668V5.0332C8.74951 5.08703 8.74857 5.14025 8.74854 5.19238C8.33159 5.28609 7.91025 5.43187 7.49951 5.66895C6.73942 6.10779 6.1073 6.73991 5.66846 7.5C5.43138 7.91074 5.2856 8.33208 5.1919 8.74902C5.13977 8.74906 5.08654 8.75 5.03272 8.75H4.96631C4.43399 8.75001 3.98433 8.75003 3.61768 8.7168C3.23322 8.68194 2.8668 8.60554 2.5249 8.4082C2.13725 8.18439 1.81512 7.86226 1.59131 7.47461C1.39397 7.13271 1.31757 6.7663 1.28272 6.38184C1.24948 6.01518 1.2495 5.56554 1.24951 5.0332V4.9668C1.2495 4.43446 1.24948 3.98482 1.28272 3.61816C1.31757 3.2337 1.39397 2.86729 1.59131 2.52539C1.81512 2.13774 2.13725 1.81561 2.5249 1.5918C2.8668 1.39446 3.23322 1.31806 3.61768 1.2832C3.98433 1.24997 4.43397 1.24999 4.96631 1.25H5.03272Z" fill="currentColor"/></svg>
