<svg xmlns="http://www.w3.org/2000/svg" viewBox="0 0 24 24" fill="none"><path d="M1.29295 1.29295C1.68348 0.90243 2.31664 0.90243 2.70717 1.29295L22.7072 21.293C23.0977 21.6835 23.0977 22.3166 22.7072 22.7072C22.3166 23.0977 21.6835 23.0977 21.293 22.7072L1.29295 2.70717C0.90243 2.31664 0.90243 1.68348 1.29295 1.29295Z" fill="currentColor" fill-rule="evenodd" clip-rule="evenodd"/><path d="M13.0001 5.75006C13.6904 5.75006 14.2501 6.30971 14.2501 7.00006C14.2501 7.69042 13.6904 8.25006 13.0001 8.25006C12.3097 8.25006 11.7501 7.69042 11.7501 7.00006C11.7501 6.30971 12.3097 5.75006 13.0001 5.75006Z" fill="currentColor"/><path d="M21.3272 21.3272C20.547 22.1074 19.5643 22.4428 18.3975 22.5997C17.2712 22.7511 15.8379 22.7511 14.0596 22.751H13.9424C12.1642 22.7511 10.7309 22.7511 9.60455 22.5997C8.43779 22.4428 7.4551 22.1074 6.67487 21.3272C6.24976 20.9021 5.95803 20.4164 5.75397 19.8741C6.93862 20.002 8.37711 20.001 10.001 20.001C11.7723 20.001 13.3233 20.0058 14.5645 19.8389C15.8689 19.6635 17.1595 19.2625 18.211 18.211L21.3272 21.3272Z" fill="currentColor"/><path d="M19.8741 5.75397C20.4164 5.95803 20.9021 6.24976 21.3272 6.67487C22.1074 7.4551 22.4428 8.43779 22.5997 9.60455C22.7511 10.7309 22.7511 12.1642 22.751 13.9424V14.0596C22.7511 15.8379 22.7511 17.2712 22.5997 18.3975C22.5734 18.5927 22.5395 18.7821 22.502 18.9669L19.5294 15.9942C19.6774 15.527 19.7741 15.0469 19.8389 14.5645C20.0058 13.3233 20.001 11.7723 20.001 10.001C20.001 8.37711 20.002 6.93862 19.8741 5.75397Z" fill="currentColor"/><path d="M4.04889 4.04889L4.04791 4.04987C3.68916 4.40862 3.4551 4.9122 3.32721 5.86334C3.19557 6.8425 3.19342 8.14032 3.19342 10.001V10.2667C3.41973 10.2572 3.64636 10.2515 3.87311 10.252L3.87213 10.253C6.65954 10.2042 9.39311 10.9632 11.586 12.4171C13.1792 13.4734 14.4185 14.8552 15.1866 16.4278C15.5162 16.3035 15.7551 16.1474 15.9503 15.9522V15.9503L17.3262 17.3262C16.546 18.1065 15.5633 18.4418 14.3965 18.5987C13.2702 18.7501 11.8369 18.7501 10.0587 18.7501H9.94147C8.16322 18.7501 6.72994 18.7501 5.60358 18.5987C4.43682 18.4418 3.45413 18.1065 2.67389 17.3262C1.89365 16.546 1.55831 15.5633 1.40143 14.3965C1.25003 13.2702 1.25004 11.8369 1.25006 10.0587V9.94147C1.25004 8.16322 1.25003 6.72994 1.40143 5.60358C1.55831 4.43682 1.89365 3.45413 2.67389 2.67389L4.04889 4.04889Z" fill="currentColor"/><path d="M10.0587 1.25006C11.8369 1.25004 13.2702 1.25003 14.3965 1.40143C15.5633 1.55831 16.546 1.89365 17.3262 2.67389C18.1065 3.45413 18.4418 4.43682 18.5987 5.60358C18.7501 6.72994 18.7501 8.16322 18.7501 9.94147V10.0587C18.7501 11.8369 18.7501 13.2702 18.5987 14.3965C18.5725 14.5917 18.5385 14.7811 18.501 14.9659L16.753 13.2178C16.8017 12.3737 16.8047 11.3313 16.8047 10.001C16.8047 8.14031 16.8026 6.8425 16.671 5.86334C16.5431 4.9122 16.309 4.40862 15.9503 4.04987C15.5915 3.69111 15.0879 3.45705 14.1368 3.32916C13.1576 3.19752 11.8598 3.19537 9.99908 3.19537C8.66835 3.19537 7.62557 3.19738 6.78131 3.24616L5.03326 1.49811C5.21826 1.46057 5.40817 1.4277 5.60358 1.40143C6.72994 1.25003 8.16322 1.25004 9.94147 1.25006H10.0587Z" fill="currentColor"/></svg>
