<svg xmlns="http://www.w3.org/2000/svg" viewBox="0 0 24 24" fill="none"><path d="M12 8.25C13.5958 8.25 15.0462 8.28395 16.4746 8.34961C18.5327 8.44422 20.204 10.0387 20.4756 12.0557C20.6237 13.1559 20.75 14.312 20.75 15.5C20.75 16.688 20.6237 17.8441 20.4756 18.9443C20.204 20.9613 18.5327 22.5558 16.4746 22.6504C15.0462 22.7161 13.5958 22.75 12 22.75C10.4042 22.75 8.95376 22.7161 7.52539 22.6504C5.46733 22.5558 3.79598 20.9613 3.52441 18.9443C3.37629 17.8441 3.25 16.688 3.25 15.5C3.25 14.312 3.37629 13.1559 3.52441 12.0557C3.79598 10.0387 5.46733 8.44422 7.52539 8.34961C8.95376 8.28395 10.4042 8.25 12 8.25ZM9.5 14.5C8.94772 14.5 8.5 14.9477 8.5 15.5C8.5 16.0523 8.94772 16.5 9.5 16.5H9.50879C10.0611 16.5 10.5088 16.0523 10.5088 15.5C10.5088 14.9477 10.0611 14.5 9.50879 14.5H9.5ZM14.4912 14.5C13.9389 14.5 13.4912 14.9477 13.4912 15.5C13.4912 16.0523 13.9389 16.5 14.4912 16.5H14.5C15.0523 16.5 15.5 16.0523 15.5 15.5C15.5 14.9477 15.0523 14.5 14.5 14.5H14.4912Z" fill="currentColor"/><path d="M12 3.25C10.067 3.25 8.5 4.817 8.5 6.75V9.25C8.5 9.80228 8.05228 10.25 7.5 10.25C6.94772 10.25 6.5 9.80228 6.5 9.25V6.75C6.5 3.71243 8.96243 1.25 12 1.25C15.0376 1.25 17.5 3.71243 17.5 6.75V9.25C17.5 9.80228 17.0523 10.25 16.5 10.25C15.9477 10.25 15.5 9.80228 15.5 9.25V6.75C15.5 4.817 13.933 3.25 12 3.25Z" fill="currentColor" fill-rule="evenodd" clip-rule="evenodd"/></svg>
