<svg xmlns="http://www.w3.org/2000/svg" viewBox="0 0 24 24" fill="none"><path d="M10.3037 5.25196C10.7097 5.25076 11.0416 5.57461 11.0527 5.98047C11.0643 6.40259 10.725 6.75042 10.3027 6.75196C9.50854 6.75484 8.70216 6.76635 8.3047 6.80957C7.79391 6.86516 7.4937 6.96777 7.25197 7.12891C7.01016 7.29012 6.79966 7.5281 6.55177 7.97852C6.29508 8.44498 6.03241 9.07166 5.65334 9.98145L5.02736 11.4844L6.11916 11.751H19.0762L20.3213 10.8223L21.5498 9.90039C21.8811 9.65194 22.3511 9.71959 22.5996 10.0508C22.8481 10.3821 22.7814 10.852 22.4502 11.1006L21.0176 12.1748L21.3438 12.6641C21.9502 13.5732 22.3417 14.1607 22.5459 14.835C22.7501 15.5094 22.7503 16.2164 22.75 17.3096V22.001C22.7499 22.4151 22.4142 22.751 22 22.751H19.75C19.3359 22.751 19.0001 22.4151 19 22.001V21.001C19 20.5087 18.998 20.2146 18.9697 20.0039C18.9556 19.8505 18.8155 19.7906 18.7471 19.7803C18.5356 19.752 17.4924 19.751 17 19.751H7.00001C6.50763 19.751 5.46438 19.752 5.25294 19.7803C5.18484 19.7861 5.04502 19.8396 5.03029 20.0039C5.00201 20.2146 5.00001 20.5087 5.00001 21.001V22.001C4.9999 22.4151 4.66416 22.751 4.25001 22.751H2.00001C1.58589 22.751 1.25013 22.4151 1.25001 22.001V17.3096C1.24978 16.2164 1.2499 15.5094 1.45412 14.835C1.65836 14.1607 2.04988 13.5732 2.65626 12.6641L2.98244 12.1748L1.54982 11.1006C1.21865 10.852 1.15194 10.3821 1.40041 10.0508C1.64894 9.71957 2.1189 9.65198 2.45021 9.90039L3.67873 10.8223L4.28517 9.36621C4.64442 8.50397 4.93767 7.80114 5.2383 7.25489C5.55216 6.68464 5.90612 6.22344 6.41994 5.88086C6.9339 5.53822 7.4963 5.38875 8.14357 5.31836C8.61414 5.26723 9.49724 5.25483 10.3037 5.25196ZM6.00001 15C5.44773 15 5.00001 15.4477 5.00001 16V16.0098C5.00001 16.5621 5.44773 17.0098 6.00001 17.0098C6.5523 17.0098 7.00001 16.5621 7.00001 16.0098V16C7.00001 15.4477 6.5523 15 6.00001 15ZM18 15C17.4477 15 17 15.4477 17 16V16.0098C17 16.5621 17.4477 17.0098 18 17.0098C18.5523 17.0098 19 16.5621 19 16.0098V16C19 15.4477 18.5523 15 18 15Z" fill="currentColor" fill-rule="evenodd" clip-rule="evenodd"/><path d="M17 1.25C19.6234 1.25 21.75 3.37665 21.75 6C21.75 8.62335 19.6234 10.75 17 10.75C14.3766 10.75 12.25 8.62335 12.25 6C12.25 3.37665 14.3766 1.25 17 1.25ZM17 3C16.5858 3 16.25 3.33579 16.25 3.75V6C16.25 6.32282 16.4564 6.60983 16.7627 6.71191L18.2627 7.21191C18.6557 7.3429 19.0809 7.13026 19.2119 6.7373C19.3429 6.34435 19.1303 5.91907 18.7373 5.78809L17.75 5.45898V3.75C17.75 3.33579 17.4142 3 17 3Z" fill="currentColor"/></svg>
