<svg xmlns="http://www.w3.org/2000/svg" viewBox="0 0 24 24" fill="none"><path d="M12 22.75C17.9371 22.75 22.75 17.9371 22.75 12C22.75 6.06294 17.9371 1.25 12 1.25C6.06294 1.25 1.25 6.06294 1.25 12C1.25 17.9371 6.06294 22.75 12 22.75ZM8.375 11.25C7.83479 11.25 7.54739 10.8318 7.43945 10.6162C7.3093 10.3559 7.25 10.0483 7.25 9.75C7.25 9.45171 7.3093 9.1441 7.43945 8.88379C7.54739 8.66817 7.83479 8.25 8.375 8.25C8.91521 8.25 9.20261 8.66818 9.31055 8.88379C9.4407 9.1441 9.5 9.4517 9.5 9.75C9.5 10.0483 9.4407 10.3559 9.31055 10.6162C9.20261 10.8318 8.91522 11.25 8.375 11.25ZM15.625 11.25C15.0848 11.25 14.7974 10.8318 14.6895 10.6162C14.5593 10.3559 14.5 10.0483 14.5 9.75C14.5 9.45171 14.5593 9.1441 14.6895 8.88379C14.7974 8.66817 15.0848 8.25 15.625 8.25C16.1652 8.25 16.4526 8.66818 16.5605 8.88379C16.6907 9.1441 16.75 9.4517 16.75 9.75C16.75 10.0483 16.6907 10.3559 16.5605 10.6162C16.4526 10.8318 16.1652 11.25 15.625 11.25ZM9 17C8.44772 17 8 16.5523 8 16C8 15.4477 8.44772 15 9 15L15 15C15.5523 15 16 15.4477 16 16C16 16.5523 15.5523 17 15 17H9Z" fill="currentColor"/></svg>
