<svg xmlns="http://www.w3.org/2000/svg" viewBox="0 0 24 24" fill="none"><path opacity="0.4" d="M6.25011 9.50014C6.25011 4.9438 9.94376 1.25014 14.5001 1.25014C19.0565 1.25014 22.7501 4.9438 22.7501 9.50014C22.7501 14.0565 19.0565 17.7501 14.5001 17.7501C9.94376 17.7501 6.25011 14.0565 6.25011 9.50014Z" fill="currentColor"/><path d="M8.00297 14.5822C8.4155 15.1088 8.89045 15.5836 9.41703 15.9962L2.95707 22.4572C2.56655 22.8477 1.93353 22.8477 1.54301 22.4572C1.15248 22.0667 1.15248 21.4336 1.54301 21.0431L8.00297 14.5822Z" fill="currentColor" fill-rule="evenodd" clip-rule="evenodd"/><path d="M15.0001 5.75014C13.2052 5.75014 11.7501 7.20522 11.7501 9.00014C11.7501 10.7951 13.2052 12.2501 15.0001 12.2501C16.795 12.2501 18.2501 10.7951 18.2501 9.00014C18.2501 7.20522 16.795 5.75014 15.0001 5.75014ZM10.2501 9.00014C10.2501 6.37679 12.3768 4.25014 15.0001 4.25014C17.6235 4.25014 19.7501 6.37679 19.7501 9.00014C19.7501 11.6235 17.6235 13.7501 15.0001 13.7501C12.3768 13.7501 10.2501 11.6235 10.2501 9.00014Z" fill="currentColor" fill-rule="evenodd" clip-rule="evenodd"/><path d="M16.0079 9.00014C16.0079 9.55243 15.5602 10.0001 15.0079 10.0001H14.9989C14.4467 10.0001 13.9989 9.55243 13.9989 9.00014C13.9989 8.44786 14.4467 8.00014 14.9989 8.00014H15.0079C15.5602 8.00014 16.0079 8.44786 16.0079 9.00014Z" fill="currentColor" fill-rule="evenodd" clip-rule="evenodd"/></svg>
