<svg xmlns="http://www.w3.org/2000/svg" viewBox="0 0 24 24" fill="none"><path d="M14.5 1.25C19.0563 1.25 22.75 4.94365 22.75 9.5C22.75 14.0563 19.0563 17.75 14.5 17.75C9.94365 17.75 6.25 14.0563 6.25 9.5C6.25 4.94365 9.94365 1.25 14.5 1.25ZM15 4.25C12.3766 4.25 10.25 6.37665 10.25 9C10.25 11.6234 12.3766 13.75 15 13.75C17.6234 13.75 19.75 11.6234 19.75 9C19.75 6.37665 17.6234 4.25 15 4.25ZM15 5.75C16.7949 5.75 18.25 7.20507 18.25 9C18.25 10.7949 16.7949 12.25 15 12.25C13.2051 12.25 11.75 10.7949 11.75 9C11.75 7.20507 13.2051 5.75 15 5.75ZM14.999 8C14.4467 8 13.999 8.44772 13.999 9C13.999 9.55228 14.4467 10 14.999 10H15.0078C15.5601 10 16.0078 9.55229 16.0078 9C16.0078 8.44772 15.5601 8 15.0078 8H14.999Z" fill="currentColor"/><path d="M9.95711 14.0429C10.3476 14.4334 10.3476 15.0666 9.95711 15.4571L2.95711 22.4571C2.56658 22.8476 1.93342 22.8476 1.54289 22.4571C1.15237 22.0666 1.15237 21.4334 1.54289 21.0429L8.54289 14.0429C8.93342 13.6524 9.56658 13.6524 9.95711 14.0429Z" fill="currentColor" fill-rule="evenodd" clip-rule="evenodd"/></svg>
