<svg xmlns="http://www.w3.org/2000/svg" viewBox="0 0 24 24" fill="none"><path d="M6.40697 9.19444C6.85164 8.86726 7.47799 8.96276 7.80541 9.40733L7.80638 9.40929C7.80788 9.41132 7.81097 9.4147 7.81419 9.41905C7.82064 9.42775 7.83045 9.4416 7.84349 9.45909C7.86959 9.4941 7.90864 9.54611 7.95873 9.61241C8.05928 9.74554 8.20538 9.93658 8.38451 10.1661C8.74376 10.6265 9.23309 11.2374 9.76048 11.8448C10.2923 12.4573 10.8431 13.0441 11.3249 13.4698C11.5668 13.6835 11.7679 13.8355 11.9226 13.9288C11.9521 13.9466 11.9791 13.9571 11.9997 13.9679C12.0203 13.9571 12.0474 13.9466 12.0769 13.9288C12.2316 13.8355 12.4327 13.6835 12.6745 13.4698C13.1564 13.0441 13.7072 12.4573 14.239 11.8448C14.7664 11.2374 15.2557 10.6265 15.615 10.1661C15.7941 9.93658 15.9402 9.74554 16.0408 9.61241C16.0908 9.5461 16.1299 9.4941 16.156 9.45909C16.169 9.44159 16.1788 9.42775 16.1853 9.41905C16.1885 9.4147 16.1916 9.41132 16.1931 9.40929L16.1941 9.40733C16.5216 8.96264 17.1478 8.8679 17.5925 9.19542C18.037 9.52285 18.1325 10.1482 17.8054 10.5929H17.8044V10.5939L17.8035 10.5948C17.8029 10.5956 17.8024 10.5966 17.8015 10.5978C17.7995 10.6005 17.7964 10.6045 17.7927 10.6095C17.7852 10.6197 17.7737 10.6344 17.7595 10.6534C17.731 10.6917 17.6895 10.7473 17.6365 10.8175C17.5305 10.9578 17.3787 11.1576 17.1921 11.3966C16.8198 11.8737 16.3065 12.513 15.7488 13.1554C15.1953 13.7928 14.5779 14.4561 13.9988 14.9679C13.7103 15.2227 13.4079 15.4616 13.1091 15.6417C12.8378 15.8053 12.4429 16.0001 11.9997 16.0001C11.5566 16.0001 11.1617 15.8053 10.8904 15.6417C10.5916 15.4616 10.2892 15.2227 10.0007 14.9679C9.42155 14.4561 8.80421 13.7929 8.25072 13.1554C7.69294 12.5129 7.17968 11.8737 6.80736 11.3966C6.62082 11.1576 6.46899 10.9578 6.36302 10.8175C6.31002 10.7473 6.26846 10.6917 6.23998 10.6534C6.22576 10.6343 6.21433 10.6197 6.20677 10.6095C6.20303 10.6044 6.20001 10.6005 6.19798 10.5978C6.19713 10.5966 6.19657 10.5956 6.19603 10.5948L6.19505 10.5939V10.5929H6.19408C5.8669 10.1482 5.96239 9.52186 6.40697 9.19444Z" fill="currentColor"/><path d="M10.9998 15V3C10.9998 2.44772 11.4475 2 11.9998 2C12.552 2 12.9998 2.44772 12.9998 3V15C12.9998 15.5523 12.552 16 11.9998 16C11.4475 16 10.9998 15.5523 10.9998 15Z" fill="currentColor"/><path opacity="0.4" d="M9.99976 20C9.99976 18.8954 10.8952 18 11.9998 18C13.1043 18 13.9998 18.8954 13.9998 20C13.9998 21.1046 13.1043 22 11.9998 22C10.8952 22 9.99976 21.1046 9.99976 20Z" fill="currentColor"/></svg>
