<svg xmlns="http://www.w3.org/2000/svg" viewBox="0 0 24 24" fill="none"><path d="M11.9996 18.0005C13.1041 18.0005 13.9996 18.8959 13.9996 20.0005C13.9996 21.1051 13.1041 22.0005 11.9996 22.0005C10.895 22.0004 9.99956 21.105 9.99956 20.0005C9.99956 18.896 10.895 18.0006 11.9996 18.0005ZM11.9996 2.00049C12.5518 2.00049 12.9996 2.4482 12.9996 3.00049V13.1665C13.3959 12.7842 13.8238 12.3232 14.2388 11.8452C14.7662 11.2378 15.2555 10.6268 15.6148 10.1665C15.7939 9.93697 15.94 9.74592 16.0406 9.61279C16.0907 9.54649 16.1297 9.49448 16.1558 9.45947C16.1688 9.44198 16.1787 9.42813 16.1851 9.41943C16.1883 9.41509 16.1914 9.4117 16.1929 9.40967L16.1939 9.40771C16.5214 8.96308 17.1476 8.8684 17.5923 9.1958C18.0368 9.52322 18.1323 10.1486 17.8052 10.5933H17.8042V10.5942L17.8033 10.5952C17.8027 10.5959 17.8022 10.597 17.8013 10.5981C17.7993 10.6009 17.7962 10.6048 17.7925 10.6099C17.785 10.6201 17.7735 10.6348 17.7593 10.6538C17.7308 10.692 17.6893 10.7477 17.6363 10.8179C17.5303 10.9582 17.3785 11.1579 17.1919 11.397C16.8196 11.8741 16.3064 12.5133 15.7486 13.1558C15.1951 13.7932 14.5777 14.4565 13.9986 14.9683C13.7101 15.2231 13.4077 15.462 13.1089 15.6421C12.8597 15.7923 12.5063 15.9668 12.107 15.9946C12.0717 15.9984 12.0358 16.0005 11.9996 16.0005C11.9629 16.0005 11.9268 15.9985 11.8912 15.9946C11.4923 15.9665 11.1392 15.7922 10.8902 15.6421C10.5914 15.462 10.2889 15.2231 10.0005 14.9683C9.42139 14.4565 8.80398 13.7932 8.25053 13.1558C7.69279 12.5134 7.17948 11.874 6.80717 11.397C6.62068 11.158 6.46878 10.9581 6.36284 10.8179C6.30988 10.7478 6.26826 10.692 6.23979 10.6538C6.22561 10.6348 6.21413 10.62 6.20659 10.6099C6.20289 10.6049 6.19981 10.6009 6.1978 10.5981C6.197 10.597 6.19637 10.5959 6.19584 10.5952L6.19487 10.5942V10.5933H6.19389C5.86682 10.1486 5.96226 9.52221 6.40678 9.19482C6.85142 8.86767 7.47778 8.96324 7.80522 9.40771L7.8062 9.40967C7.80768 9.41168 7.81082 9.41514 7.81401 9.41943C7.82044 9.42812 7.83031 9.44204 7.8433 9.45947C7.86938 9.49446 7.9085 9.54654 7.95854 9.61279C8.05907 9.7459 8.20523 9.93702 8.38432 10.1665C8.74356 10.6268 9.23294 11.2378 9.7603 11.8452C10.1752 12.3231 10.6032 12.7842 10.9996 13.1665V3.00049C10.9996 2.44824 11.4473 2.00055 11.9996 2.00049Z" fill="currentColor" fill-rule="evenodd" clip-rule="evenodd"/></svg>
