<svg xmlns="http://www.w3.org/2000/svg" viewBox="0 0 24 24" fill="none"><path opacity="0.4" d="M11.5876 1.2501C12.1575 1.24934 12.662 1.24866 13.1375 1.41733C13.2355 1.45209 13.3315 1.49208 13.4253 1.53715C13.8801 1.75582 14.2364 2.11489 14.6388 2.52054L19.4217 7.32819C19.889 7.79654 20.3038 8.2122 20.5279 8.75596C20.7519 9.29971 20.751 9.88846 20.75 10.5518L20.7499 14.0261C20.7499 15.8081 20.7499 17.2445 20.5988 18.3741C20.442 19.547 20.1064 20.5345 19.3261 21.3188C18.5459 22.1031 17.5635 22.4405 16.3967 22.5982C15.2728 22.75 13.8439 22.75 12.0711 22.75C10.2983 22.75 8.72721 22.75 7.60337 22.5982C6.43658 22.4405 5.45417 22.1031 4.67392 21.3188C3.89367 20.5345 3.55807 19.547 3.4012 18.3741C3.25011 17.2445 3.25013 15.8081 3.25015 14.0262V14.0261V9.45263V9.4526C3.25013 7.91893 3.25012 6.6824 3.36439 5.69856C3.48263 4.6806 3.73433 3.80839 4.32696 3.06954C4.5445 2.79833 4.79027 2.55128 5.06008 2.33261C5.7951 1.7369 6.6628 1.48389 7.67549 1.36504C8.65425 1.25017 10.0619 1.25008 11.5876 1.2501Z" fill="currentColor"/><path d="M13.1372 1.41795C13.2352 1.45271 13.3313 1.49271 13.425 1.53777C13.8798 1.75644 14.2361 2.11551 14.6386 2.52116L19.4214 7.32881L19.4214 7.32882C19.8888 7.79717 20.3036 8.21283 20.5276 8.75658C20.6264 8.99631 20.6815 9.24478 20.7121 9.50453H18.7313C17.3637 9.50455 16.7151 9.50377 15.8482 9.38721C14.9481 9.26619 14.1902 9.0073 13.5883 8.40538C12.9863 7.80346 12.7275 7.04559 12.6064 6.14548C12.4901 5.2803 12.4901 4.63259 12.4901 3.27075V3.27072V1.2793C12.7135 1.30237 12.9282 1.34379 13.1372 1.41795Z" fill="currentColor"/><path d="M14 13.5H13V17C13.5523 17 14 17.4477 14 18C14 18.5523 13.5523 19 13 19H11C10.4477 19 10 18.5523 10 18C10 17.4477 10.4477 17 11 17V13.5H10C10 14.0523 9.55232 14.5 9.00003 14.5C8.44775 14.5 8.00003 14.0523 8.00003 13.5C8.00003 12.3954 8.89546 11.5 10 11.5H14C15.1046 11.5 16 12.3954 16 13.5C16 14.0523 15.5523 14.5 15 14.5C14.4477 14.5 14 14.0523 14 13.5Z" fill="currentColor"/></svg>
