<svg xmlns="http://www.w3.org/2000/svg" viewBox="0 0 24 24" fill="none"><path d="M11.5879 1.2501C12.1577 1.24934 12.6624 1.24848 13.1377 1.4171C13.2355 1.4518 13.3313 1.49224 13.4248 1.53721C13.8796 1.75587 14.2363 2.11499 14.6387 2.52061L19.4219 7.32823C19.8891 7.79643 20.3033 8.21242 20.5274 8.75596C20.7514 9.29967 20.751 9.88856 20.75 10.5519V14.0265C20.7501 15.8082 20.7497 17.2445 20.5987 18.3741C20.4418 19.5468 20.1062 20.5342 19.3262 21.3185C18.546 22.1028 17.5633 22.441 16.3965 22.5987C15.2728 22.7506 13.8439 22.7501 12.0713 22.7501C10.2987 22.7501 8.72736 22.7506 7.60355 22.5987C6.43676 22.441 5.45411 22.1028 4.67386 21.3185C3.89379 20.5342 3.55825 19.5469 3.4014 18.3741C3.25033 17.2445 3.25 15.8083 3.25003 14.0265V9.45225C3.25001 7.91884 3.25003 6.68207 3.36429 5.69835C3.48255 4.68057 3.73463 3.80819 4.32718 3.06944C4.54454 2.7985 4.79007 2.5516 5.0596 2.33311C5.79462 1.73743 6.66315 1.48419 7.67581 1.36534C8.65455 1.25052 10.0624 1.25008 11.5879 1.2501ZM10 11.5001C8.89546 11.5001 8.00003 12.3955 8.00003 13.5001C8.00003 14.0524 8.44775 14.5001 9.00003 14.5001C9.55232 14.5001 10 14.0524 10 13.5001H11V17.0001C10.4477 17.0001 10 17.4478 10 18.0001C10 18.5524 10.4477 19.0001 11 19.0001H13C13.5523 19.0001 14 18.5524 14 18.0001C14 17.4478 13.5523 17.0001 13 17.0001V13.5001H14C14 14.0524 14.4477 14.5001 15 14.5001C15.5523 14.5001 16 14.0524 16 13.5001C16 12.3955 15.1046 11.5001 14 11.5001H10ZM12.4903 3.27061C12.4902 4.63196 12.4902 5.27975 12.6065 6.14463C12.7275 7.04449 12.9864 7.80257 13.5879 8.4044C14.1898 9.00631 14.9486 9.26581 15.8487 9.38682C16.7154 9.50333 17.3641 9.50403 18.7315 9.50401C18.6747 9.36621 18.5692 9.23553 17.9512 8.61436L13.3467 3.98546C12.8138 3.44978 12.6719 3.31651 12.4903 3.26182V3.27061Z" fill="currentColor" fill-rule="evenodd" clip-rule="evenodd"/></svg>
