<svg xmlns="http://www.w3.org/2000/svg" fill="none" viewBox="0 0 48 48">
  <path fill="currentColor" fill-opacity="0.4" d="M17 29.2421c1.8898 0 3.7795 -0.5564 5.4201 -1.6691 0.9362 -0.6351 2.2236 -0.6351 3.1598 0 1.6406 1.1127 3.5303 1.6691 5.4201 1.6691 1.8898 0 3.7795 -0.5564 5.4201 -1.6691 0.9362 -0.6351 2.2236 -0.6351 3.1598 0 1.6406 1.1127 3.5303 1.6691 5.4201 1.6691v17.3664H3V29.2421c1.88976 0 3.77952 -0.5564 5.42006 -1.6691 0.93623 -0.6351 2.22364 -0.6351 3.15984 0 1.6406 1.1127 3.5303 1.6691 5.4201 1.6691Z" stroke-width="1"></path>
  <path fill="#8fbffa" fill-rule="evenodd" d="m23.5726 1.69037 -0.7595 0.0202c-1.274 0.03388 -2.4035 0.86598 -2.6769 2.11073 -1.0344 4.70869 -0.8503 10.3459 0.55 14.2019 0 0 -0.9677 4.2042 -7.1338 5.5294 -0.1296 0.0279 -0.2562 0.0793 -0.3647 0.1556 -0.0463 0.0326 -0.0932 0.066 -0.1406 0.1002 0.2674 0.1329 0.5274 0.2844 0.7782 0.4545 0.9667 0.6557 2.0718 0.9795 3.1747 0.9795 1.103 0 2.2081 -0.3238 3.1747 -0.9795 2.2919 -1.5546 5.3587 -1.5546 7.6506 0L31 25.2424c1.103 0 2.2081 -0.3238 3.1747 -0.9795 0.556 -0.3771 1.1576 -0.6628 1.7827 -0.8569 -0.2077 -0.2617 -0.423 -0.5197 -0.6449 -0.7701 -1.7913 -2.1723 -3.7277 -4.0846 -5.3627 -5.5661 -2.3916 -2.1669 -4.1986 -5.0347 -4.0713 -8.25944 0.0593 -1.5026 0.1966 -2.94063 0.3411 -4.13117 0.1923 -1.58519 -1.0508 -3.03128 -2.647 -2.98882Z" clip-rule="evenodd" stroke-width="1"></path>
  <path fill="#8fbffa" d="M35.2329020798 19.6372560401a6 6 0 1 1 -0.3191481778 -11.9957552676 6 6 0 1 1 0.3191481778 11.9957552676" stroke-width="1"></path>
  <path stroke="currentColor" stroke-linecap="round" stroke-linejoin="round" d="M13.1316 23.165c6.3449 -1.2764 7.5546 -5.142 7.5546 -5.142 -1.4003 -3.856 -1.5844 -9.49318 -0.55 -14.20187 0.2734 -1.24475 1.4029 -2.07685 2.6768 -2.11073l0.7596 -0.0202c1.5962 -0.04246 2.8393 1.40363 2.6469 2.98882 -0.1445 1.19054 -0.2817 2.62857 -0.341 4.13117 -0.1273 3.22471 1.6797 6.09251 4.0712 8.25941 1.6351 1.4815 3.5714 3.3939 5.3628 5.5661" stroke-width="1"></path>
  <path stroke="currentColor" stroke-linejoin="round" d="M35.2329020798 19.6372560401a6 6 0 1 1 -0.3191481778 -11.9957552676 6 6 0 1 1 0.3191481778 11.9957552676" stroke-width="1"></path>
  <path stroke="currentColor" stroke-linecap="round" stroke-linejoin="round" d="M3 29.2421c1.88976 0 3.77952 -0.5564 5.42006 -1.6691 0.93623 -0.6351 2.22364 -0.6351 3.15984 0 1.6406 1.1127 3.5303 1.6691 5.4201 1.6691 1.8898 0 3.7795 -0.5564 5.4201 -1.6691 0.9362 -0.6351 2.2236 -0.6351 3.1598 0 1.6406 1.1127 3.5303 1.6691 5.4201 1.6691 1.8898 0 3.7795 -0.5564 5.4201 -1.6691 0.9362 -0.6351 2.2236 -0.6351 3.1598 0 1.6406 1.1127 3.5303 1.6691 5.4201 1.6691" stroke-width="1"></path>
  <path stroke="currentColor" stroke-linecap="round" stroke-linejoin="round" d="M3 38.6884c1.88976 0 3.77952 -0.5564 5.42006 -1.6692 0.93623 -0.635 2.22364 -0.635 3.15984 0 1.6406 1.1128 3.5303 1.6692 5.4201 1.6692 1.8898 0 3.7795 -0.5564 5.4201 -1.6692 0.9362 -0.635 2.2236 -0.635 3.1598 0 1.6406 1.1128 3.5303 1.6692 5.4201 1.6692 1.8898 0 3.7795 -0.5564 5.4201 -1.6692 0.9362 -0.635 2.2236 -0.635 3.1598 0 1.6406 1.1128 3.5303 1.6692 5.4201 1.6692" stroke-width="1"></path>
</svg>
