<svg xmlns="http://www.w3.org/2000/svg" fill="none" viewBox="0 0 48 48">
  <path fill="currentColor" fill-opacity="0.4" fill-rule="evenodd" d="m23.5726 3.19427 -0.7595 0.0202c-1.274 0.03389 -2.4035 0.86598 -2.6769 2.11074 -1.0344 4.70869 -0.8503 10.34589 0.55 14.20189 0 0 -0.9677 4.2042 -7.1338 5.5295 -0.1296 0.0278 -0.2562 0.0792 -0.3647 0.1555 -0.0463 0.0326 -0.0932 0.066 -0.1406 0.1002 0.2674 0.1329 0.5274 0.2844 0.7782 0.4545 0.9667 0.6557 2.0718 0.9795 3.1747 0.9795 1.103 0 2.2081 -0.3238 3.1747 -0.9795 2.2919 -1.5546 5.3587 -1.5546 7.6506 0L31 26.7463c1.103 0 2.2081 -0.3238 3.1747 -0.9795 0.556 -0.3771 1.1576 -0.6628 1.7827 -0.8569 -0.2077 -0.2617 -0.423 -0.5197 -0.6449 -0.7701 -1.7913 -2.1722 -3.7277 -4.0846 -5.3627 -5.5661 -2.3916 -2.1669 -4.1986 -5.0347 -4.0713 -8.2594 0.0593 -1.50263 0.1966 -2.94066 0.3411 -4.1312 0.1923 -1.5852 -1.0508 -3.03129 -2.647 -2.98883Z" clip-rule="evenodd" stroke-width="1"></path>
  <path fill="currentColor" fill-opacity="0.4" d="M37.4923000697 19.8489470633a6 6 0 1 1 -0.3191481777 -11.9957552676 6 6 0 1 1 0.3191481777 11.9957552676" stroke-width="1"></path>
  <path fill="currentColor" fill-rule="evenodd" d="M23.8234 33.2611c0.0284 -0.0193 0.0892 -0.0453 0.1766 -0.0453s0.1482 0.026 0.1766 0.0453l1.3916 -2.0517 -1.3916 2.0517c2.0617 1.3984 4.4419 2.1001 6.8234 2.1001s4.7617 -0.7017 6.8234 -2.1001c0.0284 -0.0193 0.0892 -0.0453 0.1766 -0.0453s0.1482 0.026 0.1766 0.0453c2.0617 1.3984 4.4419 2.1001 6.8234 2.1001 1.3807 0 2.5 -1.1193 2.5 -2.5s-1.1193 -2.5 -2.5 -2.5c-1.398 0 -2.7974 -0.411 -4.0167 -1.2381 -1.7835 -1.2097 -4.1831 -1.2097 -5.9666 0 -1.2193 0.8271 -2.6187 1.2381 -4.0167 1.2381 -1.398 0 -2.7974 -0.411 -4.0167 -1.2381 -1.7835 -1.2097 -4.1831 -1.2097 -5.9666 0 -1.2193 0.8271 -2.6187 1.2381 -4.0167 1.2381 -1.398 0 -2.7974 -0.411 -4.0167 -1.2381 -1.7835 -1.2097 -4.18305 -1.2097 -5.96659 0C5.79735 29.9502 4.398 30.3612 3 30.3612c-1.38071 0 -2.5 1.1193 -2.5 2.5s1.11929 2.5 2.5 2.5c2.38152 0 4.76168 -0.7017 6.82341 -2.1001 0.0284 -0.0193 0.08919 -0.0453 0.17659 -0.0453 0.0874 0 0.1482 0.026 0.1766 0.0453 2.0617 1.3984 4.4419 2.1001 6.8234 2.1001s4.7617 -0.7017 6.8234 -2.1001l-1.3784 -2.0322 1.3784 2.0322Zm0 9.4462c0.0284 -0.0192 0.0892 -0.0452 0.1766 -0.0452s0.1482 0.026 0.1766 0.0452c2.0617 1.3985 4.4419 2.1002 6.8234 2.1002s4.7617 -0.7017 6.8234 -2.1002c0.0284 -0.0192 0.0892 -0.0452 0.1766 -0.0452s0.1482 0.026 0.1766 0.0452c2.0617 1.3985 4.4419 2.1002 6.8234 2.1002 1.3807 0 2.5 -1.1193 2.5 -2.5s-1.1193 -2.5 -2.5 -2.5c-1.398 0 -2.7974 -0.411 -4.0167 -1.2381 -1.7835 -1.2097 -4.1831 -1.2097 -5.9666 0 -1.2193 0.8271 -2.6187 1.2381 -4.0167 1.2381 -1.398 0 -2.7974 -0.411 -4.0167 -1.2381 -1.7835 -1.2097 -4.1831 -1.2097 -5.9666 0 -1.2193 0.8271 -2.6187 1.2381 -4.0167 1.2381 -1.398 0 -2.7974 -0.411 -4.0167 -1.2381 -1.7835 -1.2097 -4.18305 -1.2097 -5.96659 0C5.79735 39.3965 4.398 39.8075 3 39.8075c-1.38071 0 -2.5 1.1193 -2.5 2.5s1.11929 2.5 2.5 2.5c2.38152 0 4.76168 -0.7017 6.82341 -2.1002 0.0284 -0.0192 0.08919 -0.0452 0.17659 -0.0452 0.0874 0 0.1482 0.026 0.1766 0.0452 2.0617 1.3985 4.4419 2.1002 6.8234 2.1002s4.7617 -0.7017 6.8234 -2.1002Z" clip-rule="evenodd" stroke-width="1"></path>
</svg>
