<svg xmlns="http://www.w3.org/2000/svg" fill="none" viewBox="0 0 48 48">
  <path stroke="currentColor" stroke-linecap="round" stroke-linejoin="round" d="M13.1316 27.1249c6.3449 -1.2763 7.5546 -5.1419 7.5546 -5.1419 -1.4003 -3.856 -1.5844 -9.4932 -0.55 -14.20191 0.2734 -1.24475 1.4029 -2.07685 2.6768 -2.11073l0.7596 -0.0202c1.5962 -0.04246 2.8393 1.40363 2.6469 2.98882 -0.1445 1.19055 -0.2817 2.62862 -0.341 4.13122 -0.1273 3.2247 1.6797 6.0925 4.0712 8.2594 1.6351 1.4815 3.5714 3.3938 5.3628 5.5661" stroke-width="1"></path>
  <path stroke="currentColor" stroke-linejoin="round" d="M35.2332707194 23.5968774624a6 6 0 1 1 -0.3191481778 -11.9957552676 6 6 0 1 1 0.3191481778 11.9957552676" stroke-width="1"></path>
  <path stroke="currentColor" stroke-linecap="round" stroke-linejoin="round" d="M3 33.202c1.88976 0 3.77952 -0.5563 5.42006 -1.6691 0.93623 -0.635 2.22364 -0.635 3.15984 0C13.2205 32.6457 15.1102 33.202 17 33.202c1.8898 0 3.7795 -0.5563 5.4201 -1.6691 0.9362 -0.635 2.2236 -0.635 3.1598 0C27.2205 32.6457 29.1102 33.202 31 33.202c1.8898 0 3.7795 -0.5563 5.4201 -1.6691 0.9362 -0.635 2.2236 -0.635 3.1598 0C41.2205 32.6457 43.1102 33.202 45 33.202" stroke-width="1"></path>
  <path stroke="currentColor" stroke-linecap="round" stroke-linejoin="round" d="M3 42.6483c1.88976 0 3.77952 -0.5563 5.42006 -1.6691 0.93623 -0.635 2.22364 -0.635 3.15984 0 1.6406 1.1128 3.5303 1.6691 5.4201 1.6691 1.8898 0 3.7795 -0.5563 5.4201 -1.6691 0.9362 -0.635 2.2236 -0.635 3.1598 0 1.6406 1.1128 3.5303 1.6691 5.4201 1.6691 1.8898 0 3.7795 -0.5563 5.4201 -1.6691 0.9362 -0.635 2.2236 -0.635 3.1598 0 1.6406 1.1128 3.5303 1.6691 5.4201 1.6691" stroke-width="1"></path>
</svg>
