<svg xmlns="http://www.w3.org/2000/svg" fill="none" viewBox="0 0 48 48">
  <path fill="currentColor" fill-rule="evenodd" d="M36.906 23.4351c0.6458 0.8502 0.5101 2.0663 -0.3211 2.7517 -0.8521 0.7027 -2.1127 0.5816 -2.8154 -0.2706 -1.3506 -1.6378 -2.7951 -3.1297 -4.1239 -4.3927 -0.0494 -0.0456 -0.0983 -0.0919 -0.1465 -0.1387 -0.3049 -0.2877 -0.6031 -0.5631 -0.8922 -0.825 -2.6196 -2.3735 -4.8868 -5.7689 -4.7269 -9.8205 0.062 -1.57057 0.205 -3.06461 0.3541 -4.29322 0.0242 -0.19946 -0.0405 -0.39639 -0.1708 -0.54496 -0.1266 -0.14426 -0.2809 -0.20776 -0.4376 -0.20359l-0.7595 0.0202c-0.4669 0.01242 -0.7235 0.29872 -0.7766 0.54055 -0.9712 4.42142 -0.7684 9.66232 0.4765 13.09012 0.1496 0.4119 0.1597 0.8617 0.0288 1.28l-1.9087 -0.5974c1.9087 0.5974 1.9083 0.5987 1.9079 0.6l-0.0009 0.0028 -0.0018 0.0057 -0.0041 0.0127 -0.0099 0.0297 -0.014 0.0405 -0.0128 0.0359c-0.0212 0.0582 -0.0491 0.1308 -0.085 0.2162 -0.0717 0.1707 -0.1753 0.3928 -0.3195 0.6522 -0.2887 0.5193 -0.7405 1.1885 -1.4244 1.8914 -1.3857 1.4242 -3.6403 2.9004 -7.1956 3.6156 -1.0829 0.2179 -2.1373 -0.4834 -2.3552 -1.5663 -0.2178 -1.0828 0.4834 -2.1373 1.5663 -2.3551 2.7895 -0.5612 4.3122 -1.6559 5.1176 -2.4836 0.311 -0.3197 0.5281 -0.613 0.6745 -0.8432 -1.2946 -4.2106 -1.375 -9.8036 -0.3465 -14.48545 0.4937 -2.24767 2.4961 -3.62556 4.5771 -3.68091l0.7595 -0.0202c2.8912 -0.0769 5.0161 2.50586 4.6856 5.22909 -0.1399 1.15248 -0.2715 2.5345 -0.3281 3.96907 -0.0149 0.3782 0.006 0.755 0.0603 1.1291 1.2871 -2.53152 3.8847 -4.2963 6.9232 -4.37712 4.4167 -0.11748 8.0924 3.36772 8.2098 7.78442 0.1027 3.8601 -2.5464 7.1542 -6.1642 8.0016Zm-4.5293 -4.8342c0.7373 0.673 1.726 1.0726 2.8027 1.0439 2.2084 -0.0587 3.951 -1.8965 3.8922 -4.1049 -0.0587 -2.2084 -1.8965 -3.951 -4.1049 -3.8922 -2.2084 0.0587 -3.951 1.8965 -3.8922 4.1049 0.0287 1.0784 0.4816 2.0457 1.1947 2.7464l0.1075 0.1019ZM24 34.7102c-0.0874 0 -0.1482 0.026 -0.1766 0.0452 -2.0617 1.3985 -4.4419 2.1002 -6.8234 2.1002s-4.7617 -0.7017 -6.8234 -2.1002c-0.0284 -0.0192 -0.0892 -0.0452 -0.1766 -0.0452s-0.14819 0.026 -0.17659 0.0452C7.76168 36.1539 5.38152 36.8556 3 36.8556c-1.38071 0 -2.5 -1.1193 -2.5 -2.5s1.11929 -2.5 2.5 -2.5c1.398 0 2.79735 -0.411 4.01671 -1.2381 1.78354 -1.2098 4.18309 -1.2097 5.96659 0 1.2193 0.8271 2.6187 1.2381 4.0167 1.2381 1.398 0 2.7974 -0.411 4.0167 -1.2381 1.7835 -1.2097 4.1831 -1.2097 5.9666 0 1.2193 0.8271 2.6187 1.2381 4.0167 1.2381 1.398 0 2.7974 -0.411 4.0167 -1.2381 1.7835 -1.2097 4.1831 -1.2097 5.9666 0 1.2193 0.8271 2.6187 1.2381 4.0167 1.2381 1.3807 0 2.5 1.1193 2.5 2.5s-1.1193 2.5 -2.5 2.5c-2.3815 0 -4.7617 -0.7017 -6.8234 -2.1002 -0.0284 -0.0192 -0.0892 -0.0452 -0.1766 -0.0452s-0.1482 0.026 -0.1766 0.0452c-2.0617 1.3985 -4.4419 2.1002 -6.8234 2.1002s-4.7617 -0.7017 -6.8234 -2.1002c-0.0284 -0.0192 -0.0892 -0.0452 -0.1766 -0.0452Zm-0.1766 9.4915c0.0284 -0.0193 0.0892 -0.0452 0.1766 -0.0452s0.1482 0.0259 0.1766 0.0452c2.0617 1.3985 4.4419 2.1002 6.8234 2.1002s4.7617 -0.7017 6.8234 -2.1002c0.0284 -0.0193 0.0892 -0.0452 0.1766 -0.0452s0.1482 0.0259 0.1766 0.0452c2.0617 1.3985 4.4419 2.1002 6.8234 2.1002 1.3807 0 2.5 -1.1193 2.5 -2.5s-1.1193 -2.5 -2.5 -2.5c-1.398 0 -2.7974 -0.411 -4.0167 -1.2381 -1.7835 -1.2098 -4.1831 -1.2098 -5.9666 0 -1.2193 0.8271 -2.6187 1.2381 -4.0167 1.2381 -1.398 0 -2.7974 -0.411 -4.0167 -1.2381 -1.7835 -1.2098 -4.1831 -1.2098 -5.9666 0 -1.2193 0.8271 -2.6187 1.2381 -4.0167 1.2381 -1.398 0 -2.7974 -0.411 -4.0167 -1.2381 -1.7835 -1.2098 -4.18305 -1.2098 -5.96659 0C5.79735 40.8909 4.398 41.3019 3 41.3019c-1.38071 0 -2.5 1.1193 -2.5 2.5s1.11929 2.5 2.5 2.5c2.38152 0 4.76168 -0.7017 6.82341 -2.1002 0.0284 -0.0193 0.08919 -0.0452 0.17659 -0.0452 0.0874 0 0.1482 0.0259 0.1766 0.0452 2.0617 1.3985 4.4419 2.1002 6.8234 2.1002s4.7617 -0.7017 6.8234 -2.1002Z" clip-rule="evenodd" stroke-width="1"></path>
</svg>
