<svg xmlns="http://www.w3.org/2000/svg" viewBox="0 0 24 24" fill="none"><path d="M12.0001 11.25C16.8683 11.25 20.9905 14.4334 22.3585 18.8213C22.5228 19.3477 22.6975 19.9086 22.7384 20.3545C22.7869 20.8834 22.6811 21.369 22.3321 21.8379C21.9604 22.3373 21.4673 22.5627 20.9122 22.6621C20.4202 22.7502 19.8098 22.7501 19.1251 22.75H12.7501V22C12.7501 19.9289 11.0712 18.25 9.00012 18.25C6.92905 18.25 5.25012 19.9289 5.25012 22V22.75H4.87512C4.19051 22.7501 3.57997 22.7502 3.08801 22.6621C2.53294 22.5627 2.03981 22.3373 1.66809 21.8379C1.31913 21.369 1.21238 20.8834 1.26086 20.3545C1.30175 19.9086 1.47745 19.3477 1.64172 18.8213C3.00979 14.4334 7.13186 11.25 12.0001 11.25ZM9.00012 19.75C10.2428 19.75 11.2501 20.7574 11.2501 22V22.75H6.75012V22C6.75012 20.7574 7.75748 19.75 9.00012 19.75ZM15.0001 16C14.4478 16 14.0001 16.4477 14.0001 17C14.0001 17.5523 14.4478 18 15.0001 18H15.0089C15.5612 18 16.0089 17.5523 16.0089 17C16.0089 16.4477 15.5612 16 15.0089 16H15.0001Z" fill="currentColor" fill-rule="evenodd" clip-rule="evenodd"/><path d="M14.9916 1.25L17.2358 1.25C17.7515 1.24996 18.2152 1.24993 18.5954 1.29317C19.0067 1.33994 19.4361 1.44722 19.8209 1.7451C19.9856 1.87256 20.133 2.02124 20.2593 2.18735C20.5546 2.57555 20.661 3.00876 20.7073 3.4236C20.7502 3.8072 20.7502 4.3722 20.7501 4.89238C20.7502 5.41257 20.7502 5.88031 20.7073 6.26392C20.661 6.67875 20.5546 7.11196 20.2593 7.50016C20.133 7.66627 19.9856 7.81495 19.8209 7.94241C19.4361 8.24029 19.0067 8.34757 18.5954 8.39434C18.2152 8.43758 17.7515 8.43755 17.2358 8.43751L13.1501 8.4375V11.7917C13.1501 12.3209 12.7248 12.75 12.2001 12.75C11.6755 12.75 11.2501 12.3209 11.2501 11.7917L11.2501 5.0243C11.2501 4.39743 11.25 3.8342 11.3108 3.37832C11.3771 2.8806 11.5311 2.36998 11.9457 1.95173C12.3604 1.53348 12.8665 1.3781 13.3599 1.31118C13.8118 1.24989 14.3702 1.24994 14.9916 1.25Z" fill="currentColor"/></svg>
