<svg xmlns="http://www.w3.org/2000/svg" fill="none" viewBox="0 0 48 48">
  <g>
    <path fill="currentColor" fill-rule="evenodd" d="M7.79517 3.33872C11.0305 3.17694 16.3237 3 24 3c7.6763 0 12.9695 0.17694 16.2048 0.33872 3.2404 0.16202 6.0416 2.47588 6.4075 5.89194C46.8229 11.1964 47 13.8943 47 17.4091s-0.1771 6.2126 -0.3877 8.1784c-0.3659 3.4161 -3.1671 5.7299 -6.4075 5.892 -3.2353 0.1617 -8.5285 0.3387 -16.2048 0.3387 -7.6763 0 -12.9695 -0.177 -16.20483 -0.3387 -3.24033 -0.1621 -6.04155 -2.4759 -6.40751 -5.892C1.17706 23.6217 1 20.9239 1 17.4091s0.17706 -6.2127 0.38766 -8.17844c0.36596 -3.41605 3.16717 -5.72992 6.40751 -5.89194ZM5.01976 19.3633c0.05026 2.4316 0.18997 4.3498 0.34514 5.7981 0.13627 1.272 1.16138 2.2496 2.63003 2.3231 3.16357 0.1581 8.38987 0.3337 16.00507 0.3337s12.8415 -0.1756 16.0051 -0.3337c1.4686 -0.0735 2.4937 -1.0511 2.63 -2.3231 0.1552 -1.4483 0.2949 -3.3665 0.3451 -5.7981H5.01976Zm31.29844 -6.2497c0 -1.1045 0.8954 -2 2 -2h0.9545c1.1046 0 2 0.8955 2 2 0 1.1046 -0.8954 2 -2 2h-0.9545c-1.1046 0 -2 -0.8954 -2 -2Zm-4.6818 -2c-1.1046 0 -2 0.8955 -2 2 0 1.1046 0.8954 2 2 2h0.9545c1.1046 0 2 -0.8954 2 -2 0 -1.1045 -0.8954 -2 -2 -2h-0.9545ZM7.68164 24.0918c0 -1.1046 0.89543 -2 2 -2H38.318c1.1046 0 2 0.8954 2 2s-0.8954 2 -2 2H9.68164c-1.10457 0 -2 -0.8954 -2 -2ZM12.0002 34c1.1046 0 2 0.8954 2 2 0 3.44 -1.8541 6.3064 -3.8906 7.6641 -0.91904 0.6127 -2.16078 0.3644 -2.77349 -0.5547 -0.6127 -0.9191 -0.36436 -2.1608 0.5547 -2.7735 0.96347 -0.6423 2.10939 -2.2804 2.10939 -4.3359 0 -1.1046 0.8954 -2 2 -2Zm8 0c1.1046 0 2 0.8954 2 2 0 2.2093 -0.5332 5.5385 -1.7111 7.8944 -0.494 0.988 -1.6954 1.3884 -2.6833 0.8945 -0.988 -0.494 -1.3884 -1.6954 -0.8944 -2.6833 0.822 -1.6441 1.2888 -4.3149 1.2888 -6.1056 0 -1.1046 0.8954 -2 2 -2Zm16 0c-1.1046 0 -2 0.8954 -2 2 0 3.44 1.8541 6.3064 3.8906 7.6641 0.9191 0.6127 2.1608 0.3644 2.7735 -0.5547 0.6127 -0.9191 0.3644 -2.1608 -0.5547 -2.7735 -0.9634 -0.6423 -2.1094 -2.2804 -2.1094 -4.3359 0 -1.1046 -0.8954 -2 -2 -2Zm-8 0c-1.1046 0 -2 0.8954 -2 2 0 2.2093 0.5332 5.5385 1.7112 7.8944 0.4939 0.988 1.6953 1.3884 2.6832 0.8945 0.988 -0.494 1.3884 -1.6954 0.8945 -2.6833 -0.8221 -1.6441 -1.2889 -4.3149 -1.2889 -6.1056 0 -1.1046 -0.8954 -2 -2 -2Z" clip-rule="evenodd" stroke-width="1"></path>
  </g>
</svg>
