<svg xmlns="http://www.w3.org/2000/svg" viewBox="0 0 24 24" fill="none"><path opacity="0.4" d="M20 4C20.5523 4 21 4.44772 21 5C21 5.55229 20.5523 6 20 6L8 6C7.44772 6 7 5.55228 7 5C7 4.44772 7.44772 4 8 4L20 4Z" fill="currentColor"/><path opacity="0.4" d="M20 11C20.5523 11 21 11.4477 21 12C21 12.5523 20.5523 13 20 13L8 13C7.44772 13 7 12.5523 7 12C7 11.4477 7.44772 11 8 11L20 11Z" fill="currentColor"/><path opacity="0.4" d="M20 18C20.5523 18 21 18.4477 21 19C21 19.5523 20.5523 20 20 20L8 20C7.44772 20 7 19.5523 7 19C7 18.4477 7.44772 18 8 18L20 18Z" fill="currentColor"/><path d="M4.25 3.75C4.94035 3.75 5.5 4.30965 5.5 5C5.5 5.69036 4.94035 6.25 4.25 6.25C3.55964 6.25 3 5.69036 3 5C3 4.30965 3.55964 3.75 4.25 3.75Z" fill="currentColor"/><path d="M4.25 10.75C4.94035 10.75 5.5 11.3096 5.5 12C5.5 12.6904 4.94035 13.25 4.25 13.25C3.55964 13.25 3 12.6904 3 12C3 11.3096 3.55964 10.75 4.25 10.75Z" fill="currentColor"/><path d="M4.25 17.75C4.94035 17.75 5.5 18.3096 5.5 19C5.5 19.6904 4.94035 20.25 4.25 20.25C3.55964 20.25 3 19.6904 3 19C3 18.3096 3.55964 17.75 4.25 17.75Z" fill="currentColor"/></svg>
