<svg xmlns="http://www.w3.org/2000/svg" viewBox="0 0 24 24" fill="none"><path opacity="0.4" d="M12.3535 6.25C13.4425 6.24999 14.3265 6.24999 15.0371 6.33496C15.7761 6.42334 16.4112 6.61094 16.9658 7.04395C17.5203 7.47696 17.8562 8.04773 18.1211 8.74316C18.3775 9.41627 18.5939 10.2809 18.8604 11.3467L18.8643 11.3633L20.5234 18H3.47656L5.13574 11.3633L5.13965 11.3467C5.40611 10.2808 5.62249 9.41628 5.87891 8.74316C6.14386 8.04771 6.47962 7.47696 7.03418 7.04395C7.58878 6.61096 8.22392 6.42333 8.96289 6.33496C9.67358 6.25 10.5574 6.24999 11.6465 6.25H12.3535Z" fill="currentColor"/><path d="M8.25 14.375V13.375C8.25 12.9608 8.58579 12.625 9 12.625C9.41421 12.625 9.75 12.9608 9.75 13.375V14.375C9.75 14.7892 9.41421 15.125 9 15.125C8.58579 15.125 8.25 14.7892 8.25 14.375ZM14.25 14.375V13.375C14.25 12.9608 14.5858 12.625 15 12.625C15.4142 12.625 15.75 12.9608 15.75 13.375V14.375C15.75 14.7892 15.4142 15.125 15 15.125C14.5858 15.125 14.25 14.7892 14.25 14.375ZM11.25 10.875V9.875C11.25 9.46079 11.5858 9.125 12 9.125C12.4142 9.125 12.75 9.46079 12.75 9.875V10.875C12.75 11.2892 12.4142 11.625 12 11.625C11.5858 11.625 11.25 11.2892 11.25 10.875Z" fill="currentColor"/><path d="M21.5996 22.75C22.2347 22.75 22.75 22.2347 22.75 21.5996C22.7498 20.3831 21.8254 19.3822 20.6406 19.2617L20.4004 19.25H3.59961C2.30205 19.2502 1.25021 20.302 1.25 21.5996C1.25 22.2347 1.76526 22.75 2.40039 22.75H21.5996Z" fill="currentColor"/><path d="M12.001 1.25C12.9398 1.25003 13.7483 1.91253 13.9326 2.83301L14.3711 5.0293C13.9827 5.01047 13.5675 5.00323 13.1318 5.00098L12.3545 5H11.583C10.8834 4.99997 10.2247 5.00139 9.62891 5.03027L10.0693 2.83301C10.2537 1.91251 11.0622 1.25 12.001 1.25Z" fill="currentColor"/></svg>
