<svg xmlns="http://www.w3.org/2000/svg" viewBox="0 0 24 24" fill="none"><path opacity="0.4" d="M19.75 15.0579V15V9V8.94211C19.75 7.34052 19.75 6.06221 19.6152 5.05957C19.4759 4.02332 19.18 3.17025 18.5049 2.49512C17.8298 1.81999 16.9767 1.52409 15.9404 1.38477C14.9378 1.24996 13.6595 1.24998 12.0579 1.25H12H11.9421C10.3405 1.24998 9.06221 1.24996 8.05957 1.38477C7.02332 1.52409 6.17025 1.81999 5.49512 2.49512C4.81999 3.17025 4.52409 4.02332 4.38477 5.05957C4.24996 6.06221 4.24998 7.34053 4.25 8.94213V9V15V15.0579C4.24998 16.6595 4.24996 17.9378 4.38477 18.9404C4.52409 19.9767 4.81999 20.8298 5.49512 21.5049C6.17025 22.18 7.02332 22.4759 8.05957 22.6152C9.06221 22.75 10.3405 22.75 11.9421 22.75H12H12.0579C13.6595 22.75 14.9378 22.75 15.9404 22.6152C16.9767 22.4759 17.8298 22.18 18.5049 21.5049C19.18 20.8298 19.4759 19.9767 19.6152 18.9404C19.75 17.9378 19.75 16.6595 19.75 15.0579Z" fill="currentColor"/><path d="M12.0088 18L12.1113 18.0049C12.6155 18.0561 13.0088 18.4823 13.0088 19C13.0088 19.5177 12.6155 19.9439 12.1113 19.9951L12.0088 20H12C11.4477 20 11 19.5523 11 19C11 18.4477 11.4477 18 12 18H12.0088Z" fill="currentColor"/><path d="M14 11.5C14 11.2239 13.7761 11 13.5 11H11V12.5H13.5C13.7761 12.5 14 12.2761 14 12V11.5ZM13.5 8C13.5 7.72386 13.2761 7.5 13 7.5H11V9H13C13.2761 9 13.5 8.77614 13.5 8.5V8ZM15.5 8.5C15.5 8.92533 15.3924 9.32514 15.2051 9.67578C15.693 10.132 16 10.7793 16 11.5V12C16 13.3807 14.8807 14.5 13.5 14.5H13V15C13 15.5523 12.5523 16 12 16C11.4477 16 11 15.5523 11 15V14.5H9C8.44772 14.5 8 14.0523 8 13.5C8 12.9477 8.44772 12.5 9 12.5V7.5C8.44772 7.5 8 7.05228 8 6.5C8 5.94772 8.44772 5.5 9 5.5H11V5C11 4.44772 11.4477 4 12 4C12.5523 4 13 4.44772 13 5V5.5C14.3807 5.5 15.5 6.61929 15.5 8V8.5Z" fill="currentColor"/></svg>
