<svg xmlns="http://www.w3.org/2000/svg" viewBox="0 0 24 24" fill="none"><path d="M12.0576 1.25C13.6592 1.24998 14.9378 1.24996 15.9404 1.38477C16.9767 1.52409 17.8298 1.81999 18.5049 2.49512C19.18 3.17025 19.4759 4.02332 19.6152 5.05957C19.75 6.06221 19.75 7.34079 19.75 8.94238V15.0576C19.75 16.6592 19.75 17.9378 19.6152 18.9404C19.4759 19.9767 19.18 20.8298 18.5049 21.5049C17.8298 22.18 16.9767 22.4759 15.9404 22.6152C14.9378 22.75 13.6592 22.75 12.0576 22.75H11.9424C10.3408 22.75 9.06221 22.75 8.05957 22.6152C7.02332 22.4759 6.17025 22.18 5.49512 21.5049C4.81999 20.8298 4.52409 19.9767 4.38477 18.9404C4.24996 17.9378 4.24998 16.6592 4.25 15.0576V8.94238C4.24998 7.34078 4.24996 6.06221 4.38477 5.05957C4.52409 4.02332 4.81998 3.17025 5.49512 2.49512C6.17025 1.81998 7.02332 1.52409 8.05957 1.38477C9.06221 1.24996 10.3408 1.24998 11.9424 1.25H12.0576ZM12 18C11.4477 18 11 18.4477 11 19C11 19.5523 11.4477 20 12 20H12.0088L12.1113 19.9951C12.6155 19.9439 13.0088 19.5177 13.0088 19C13.0088 18.4823 12.6155 18.0561 12.1113 18.0049L12.0088 18H12ZM12 4C11.4477 4 11 4.44772 11 5V5.5H9C8.44772 5.5 8 5.94772 8 6.5C8 7.05228 8.44772 7.5 9 7.5V12.5C8.44772 12.5 8 12.9477 8 13.5C8 14.0523 8.44772 14.5 9 14.5H11V15C11 15.5523 11.4477 16 12 16C12.5523 16 13 15.5523 13 15V14.5H13.5C14.8807 14.5 16 13.3807 16 12V11.5C16 10.7793 15.693 10.132 15.2051 9.67578C15.3924 9.32514 15.5 8.92533 15.5 8.5V8C15.5 6.61929 14.3807 5.5 13 5.5V5C13 4.44772 12.5523 4 12 4ZM13.5 11C13.7761 11 14 11.2239 14 11.5V12C14 12.2761 13.7761 12.5 13.5 12.5H11V11H13.5ZM13 7.5C13.2761 7.5 13.5 7.72386 13.5 8V8.5C13.5 8.77614 13.2761 9 13 9H11V7.5H13Z" fill="currentColor"/></svg>
