<svg xmlns="http://www.w3.org/2000/svg" viewBox="0 0 24 24" fill="none"><path opacity="0.4" d="M20 16.625C20.5523 16.625 21 17.0727 21 17.625C21 18.1773 20.5523 18.625 20 18.625L8 18.625C7.44772 18.625 7 18.1773 7 17.625C7 17.0727 7.44772 16.625 8 16.625L20 16.625Z" fill="currentColor"/><path d="M16.2929 13.9179C16.6834 13.5274 17.3164 13.5274 17.707 13.9179L20.707 16.9179C21.0975 17.3084 21.0975 17.9414 20.707 18.332L17.707 21.332C17.3164 21.7225 16.6834 21.7225 16.2929 21.332C15.9024 20.9414 15.9024 20.3084 16.2929 19.9179L18.5859 17.6249L16.2929 15.332C15.9024 14.9414 15.9024 14.3084 16.2929 13.9179Z" fill="currentColor"/><path opacity="0.4" d="M20 2.625C20.5523 2.625 21 3.07272 21 3.625C21 4.17729 20.5523 4.625 20 4.625L8 4.625C7.44772 4.625 7 4.17728 7 3.625C7 3.07272 7.44772 2.625 8 2.625L20 2.625Z" fill="currentColor"/><path opacity="0.4" d="M20 9.625C20.5523 9.625 21 10.0727 21 10.625C21 11.1773 20.5523 11.625 20 11.625L8 11.625C7.44772 11.625 7 11.1773 7 10.625C7 10.0727 7.44772 9.625 8 9.625L20 9.625Z" fill="currentColor"/><path d="M4.25 2.375C4.94035 2.375 5.5 2.93465 5.5 3.625C5.5 4.31536 4.94035 4.875 4.25 4.875C3.55964 4.875 3 4.31536 3 3.625C3 2.93465 3.55964 2.375 4.25 2.375Z" fill="currentColor"/><path d="M4.25 9.375C4.94035 9.375 5.5 9.93465 5.5 10.625C5.5 11.3154 4.94035 11.875 4.25 11.875C3.55964 11.875 3 11.3154 3 10.625C3 9.93465 3.55964 9.375 4.25 9.375Z" fill="currentColor"/><path d="M4.25 16.375C4.94035 16.375 5.5 16.9346 5.5 17.625C5.5 18.3154 4.94035 18.875 4.25 18.875C3.55964 18.875 3 18.3154 3 17.625C3 16.9346 3.55964 16.375 4.25 16.375Z" fill="currentColor"/></svg>
