<svg xmlns="http://www.w3.org/2000/svg" viewBox="0 0 24 24" fill="none"><path d="M16.293 13.918C16.6835 13.5274 17.3165 13.5274 17.707 13.918L20.707 16.918C20.7548 16.9658 20.7976 17.0185 20.835 17.0752C20.8597 17.1127 20.8812 17.1516 20.9004 17.1914C20.9222 17.2366 20.9412 17.2834 20.9561 17.332C20.9623 17.3523 20.9668 17.373 20.9717 17.3936C20.9893 17.4679 21 17.5452 21 17.625C21 17.7802 20.9635 17.9266 20.9004 18.0576C20.8936 18.0718 20.8864 18.0857 20.8789 18.0996C20.851 18.1512 20.8184 18.1995 20.7822 18.2451C20.7586 18.2748 20.7345 18.3046 20.707 18.332L17.707 21.332C17.3165 21.7225 16.6835 21.7225 16.293 21.332C15.9024 20.9415 15.9024 20.3085 16.293 19.918L17.5859 18.625H8C7.44772 18.625 7 18.1773 7 17.625C7 17.0727 7.44772 16.625 8 16.625H17.5859L16.293 15.332C15.9024 14.9415 15.9024 14.3085 16.293 13.918ZM4.25 16.375C4.94035 16.375 5.5 16.9346 5.5 17.625C5.5 18.3154 4.94035 18.875 4.25 18.875C3.55964 18.875 3 18.3154 3 17.625C3 16.9346 3.55964 16.375 4.25 16.375ZM4.25 9.375C4.94035 9.375 5.5 9.93465 5.5 10.625C5.5 11.3154 4.94035 11.875 4.25 11.875C3.55964 11.875 3 11.3154 3 10.625C3 9.93465 3.55964 9.375 4.25 9.375ZM20 9.625C20.5523 9.625 21 10.0727 21 10.625C21 11.1773 20.5523 11.625 20 11.625H8C7.44772 11.625 7 11.1773 7 10.625C7 10.0727 7.44772 9.625 8 9.625H20ZM4.25 2.375C4.94035 2.375 5.5 2.93465 5.5 3.625C5.5 4.31536 4.94035 4.875 4.25 4.875C3.55964 4.875 3 4.31536 3 3.625C3 2.93465 3.55964 2.375 4.25 2.375ZM20 2.625C20.5523 2.625 21 3.07272 21 3.625C21 4.17728 20.5523 4.625 20 4.625H8C7.44772 4.625 7 4.17728 7 3.625C7 3.07272 7.44772 2.625 8 2.625H20Z" fill="currentColor"/></svg>
