<svg xmlns="http://www.w3.org/2000/svg" viewBox="0 0 24 24" fill="none"><path d="M19.75 8.75C20.3023 8.75 20.75 9.19772 20.75 9.75C20.75 10.3023 20.3023 10.75 19.75 10.75C19.1977 10.75 18.75 10.3023 18.75 9.75C18.75 9.19772 19.1977 8.75 19.75 8.75ZM16.8525 7.00488C17.3567 7.05622 17.75 7.48233 17.75 8C17.75 8.55226 17.3023 9 16.75 9C16.2323 9 15.8062 8.60664 15.7549 8.10254L15.75 8L15.7549 7.89746C15.8062 7.39331 16.2323 7 16.75 7L16.8525 7.00488ZM13.8525 5.00488C14.3567 5.05622 14.75 5.48233 14.75 6C14.75 6.55226 14.3023 7 13.75 7C13.2323 7 12.8062 6.60664 12.7549 6.10254L12.75 6L12.7549 5.89746C12.8062 5.39331 13.2323 5 13.75 5L13.8525 5.00488ZM19.8525 5.00488C20.3567 5.05622 20.75 5.48233 20.75 6C20.75 6.55226 20.3023 7 19.75 7C19.2323 7 18.8062 6.60664 18.7549 6.10254L18.75 6L18.7549 5.89746C18.8062 5.39331 19.2323 5 19.75 5L19.8525 5.00488ZM16.8525 3.00488C17.3567 3.05622 17.75 3.48233 17.75 4C17.75 4.55226 17.3023 5 16.75 5C16.2323 5 15.8062 4.60664 15.7549 4.10254L15.75 4L15.7549 3.89746C15.8062 3.39331 16.2323 3 16.75 3L16.8525 3.00488ZM19.75 1.25C20.3023 1.25 20.75 1.69772 20.75 2.25C20.75 2.80229 20.3023 3.25 19.75 3.25C19.1977 3.25 18.75 2.80228 18.75 2.25C18.75 1.69772 19.1977 1.25 19.75 1.25Z" fill="currentColor"/><path d="M7.99991 3.25009C8.41649 3.25009 8.77184 3.24421 9.08194 3.32724C9.85833 3.53527 10.4647 4.14169 10.6728 4.91806C10.7558 5.22814 10.7499 5.58355 10.7499 6.00009V7.25009H5.24991V6.00009C5.24991 5.58355 5.24401 5.22814 5.32706 4.91806C5.53515 4.14168 6.14148 3.53528 6.91788 3.32724C7.22799 3.24418 7.58331 3.25009 7.99991 3.25009Z" fill="currentColor"/><path opacity="0.4" d="M11.4004 8.75C11.9742 9.61078 12.3483 10.1821 12.5459 10.835C12.757 11.5324 12.75 12.2637 12.75 13.4219V18.0469C12.7501 18.9476 12.7501 19.699 12.6699 20.2949C12.5855 20.9225 12.3997 21.489 11.9444 21.9443C11.489 22.3997 10.9225 22.5855 10.2949 22.6699C9.69903 22.75 8.94767 22.75 8.0469 22.75H7.95315C7.05241 22.75 6.301 22.75 5.70511 22.6699C5.07751 22.5855 4.51104 22.3997 4.05569 21.9443C3.60035 21.489 3.41454 20.9225 3.33011 20.2949C3.24999 19.699 3.25 18.9476 3.25003 18.0469V13.4219C3.25003 12.2637 3.24301 11.5324 3.45413 10.835C3.65179 10.1821 4.02583 9.61076 4.59964 8.75H11.4004Z" fill="currentColor"/><path d="M12.6445 11.25C12.7529 11.8341 12.75 12.4895 12.75 13.4219V18.0469C12.75 18.2924 12.7497 18.5268 12.7481 18.75H10.9482C10.2844 18.75 9.7121 18.7501 9.25391 18.6885C8.76236 18.6224 8.29137 18.473 7.90918 18.0908C7.527 17.7086 7.37764 17.2376 7.31153 16.7461C7.24833 16.276 7.25 15.6859 7.25 15C7.25 14.3141 7.24833 13.724 7.31153 13.2539C7.37764 12.7624 7.527 12.2914 7.90918 11.9092C8.29137 11.527 8.76236 11.3776 9.25391 11.3115C9.72397 11.2483 10.3141 11.25 11 11.25H12.6445Z" fill="currentColor"/></svg>
