<svg xmlns="http://www.w3.org/2000/svg" viewBox="0 0 24 24" fill="none"><path d="M19.7495 8.75C20.3018 8.75 20.7495 9.19772 20.7495 9.75C20.7495 10.3023 20.3018 10.75 19.7495 10.75C19.1972 10.75 18.7495 10.3023 18.7495 9.75C18.7495 9.19772 19.1972 8.75 19.7495 8.75ZM16.8521 7.00488C17.3562 7.05622 17.7495 7.48233 17.7495 8C17.7495 8.55226 17.3018 9 16.7495 9C16.2319 9 15.8058 8.60664 15.7544 8.10254L15.7495 8L15.7544 7.89746C15.8057 7.39331 16.2318 7 16.7495 7L16.8521 7.00488ZM13.8521 5.00488C14.3562 5.05622 14.7495 5.48233 14.7495 6C14.7495 6.55226 14.3018 7 13.7495 7C13.2319 7 12.8058 6.60664 12.7544 6.10254L12.7495 6L12.7544 5.89746C12.8057 5.39331 13.2318 5 13.7495 5L13.8521 5.00488ZM19.8521 5.00488C20.3562 5.05622 20.7495 5.48233 20.7495 6C20.7495 6.55226 20.3018 7 19.7495 7C19.2319 7 18.8058 6.60664 18.7544 6.10254L18.7495 6L18.7544 5.89746C18.8057 5.39331 19.2318 5 19.7495 5L19.8521 5.00488ZM16.8521 3.00488C17.3562 3.05622 17.7495 3.48233 17.7495 4C17.7495 4.55226 17.3018 5 16.7495 5C16.2319 5 15.8058 4.60664 15.7544 4.10254L15.7495 4L15.7544 3.89746C15.8057 3.39331 16.2318 3 16.7495 3L16.8521 3.00488ZM19.7495 1.25C20.3018 1.25 20.7495 1.69772 20.7495 2.25C20.7495 2.80229 20.3018 3.25 19.7495 3.25C19.1972 3.25 18.7495 2.80228 18.7495 2.25C18.7495 1.69772 19.1972 1.25 19.7495 1.25Z" fill="currentColor"/><path d="M7.99942 3.25009C8.416 3.25009 8.77135 3.24421 9.08145 3.32724C9.85785 3.53527 10.4642 4.14169 10.6723 4.91806C10.7553 5.22814 10.7494 5.58355 10.7494 6.00009V7.25009H5.24942V6.00009C5.24942 5.58355 5.24352 5.22814 5.32657 4.91806C5.53466 4.14168 6.14099 3.53528 6.91739 3.32724C7.2275 3.24418 7.58282 3.25009 7.99942 3.25009Z" fill="currentColor"/><path d="M11.3999 8.75C11.9737 9.61077 12.3477 10.1821 12.5454 10.835C12.5866 10.9709 12.6178 11.1085 12.644 11.25H10.9995C10.3136 11.25 9.72347 11.2483 9.25342 11.3115C8.76187 11.3776 8.29087 11.527 7.90869 11.9092C7.52651 12.2914 7.37715 12.7624 7.31103 13.2539C7.24783 13.724 7.24951 14.3141 7.24951 15C7.24951 15.6859 7.24783 16.276 7.31103 16.7461C7.37715 17.2376 7.52652 17.7086 7.90869 18.0908C8.29087 18.473 8.76187 18.6224 9.25342 18.6885C9.72347 18.7517 10.3136 18.75 10.9995 18.75H12.7476C12.7432 19.3457 12.7277 19.8614 12.6694 20.2949C12.585 20.9225 12.3992 21.489 11.9438 21.9443C11.4885 22.3997 10.922 22.5855 10.2944 22.6699C9.69852 22.75 8.94712 22.75 8.04638 22.75H7.95263C7.05191 22.75 6.30047 22.75 5.70459 22.6699C5.07702 22.5855 4.51051 22.3997 4.05517 21.9443C3.59985 21.489 3.41402 20.9225 3.32959 20.2949C3.24947 19.699 3.24948 18.9476 3.24951 18.0469V13.4219C3.24951 12.2637 3.2425 11.5324 3.45361 10.835C3.65127 10.1821 4.02532 9.61074 4.59912 8.75H11.3999ZM12.7495 13.4219V17.25H10.9995C10.2713 17.25 9.80047 17.2488 9.45361 17.2021C9.12833 17.1584 9.02633 17.0874 8.96924 17.0303C8.91215 16.9732 8.84109 16.8712 8.79736 16.5459C8.75074 16.199 8.74951 15.7282 8.74951 15C8.74951 14.2718 8.75074 13.801 8.79736 13.4541C8.84109 13.1288 8.91214 13.0268 8.96924 12.9697C9.02633 12.9126 9.12833 12.8416 9.45361 12.7979C9.80047 12.7512 10.2713 12.75 10.9995 12.75H12.7476C12.749 12.9578 12.7495 13.1806 12.7495 13.4219Z" fill="currentColor" fill-rule="evenodd" clip-rule="evenodd"/></svg>
