<svg xmlns="http://www.w3.org/2000/svg" viewBox="0 0 24 24" fill="none"><path opacity="0.4" d="M18.3106 13.4991C19.2166 12.2305 19.7501 10.6766 19.7501 9.00012C19.7501 4.71992 16.2803 1.25012 12.0001 1.25012C7.71989 1.25012 4.2501 4.71992 4.2501 9.00012C4.2501 10.6766 4.78363 12.2305 5.68955 13.4991C5.82014 13.682 5.91421 13.8143 5.98252 13.9122L5.99143 13.925C6.02098 13.9673 6.04378 14 6.06065 14.0255C6.06978 14.0393 6.07634 14.05 6.08115 14.0577C6.08485 14.0636 6.08701 14.0685 6.08701 14.0685C6.16347 14.2033 6.18721 14.2601 6.20029 14.3009C6.21336 14.3417 6.22714 14.401 6.24326 14.5548C6.24898 14.6094 6.2501 14.696 6.2501 14.9904C6.2501 15.8804 6.24326 16.4742 6.37998 16.9796C6.72823 18.2663 7.73391 19.272 9.02061 19.6202C9.526 19.757 10.1198 19.7501 11.0099 19.7501H12.9903C13.8804 19.7501 14.4742 19.757 14.9796 19.6202C16.2663 19.272 17.272 18.2663 17.6202 16.9796C17.7569 16.4742 17.7501 15.8804 17.7501 14.9904C17.7501 14.696 17.7512 14.6094 17.7569 14.5548C17.7731 14.401 17.7868 14.3417 17.7999 14.3009C17.813 14.2601 17.8367 14.2033 17.9132 14.0685C17.9132 14.0685 17.9154 14.0636 17.919 14.0577L17.9216 14.0537C17.9261 14.0465 17.9319 14.0371 17.9396 14.0255C17.9564 14 17.9792 13.9674 18.0087 13.9251L18.0177 13.9122C18.086 13.8143 18.1801 13.682 18.3106 13.4991Z" fill="currentColor"/><path d="M11.0001 12.0001C11.0001 11.4478 11.4478 11.0001 12.0001 11.0001C12.5524 11.0001 13.0001 11.4478 13.0001 12.0001V14.0001C13.5524 14.0001 14.0001 14.4478 14.0001 15.0001C14.0001 15.5524 13.5524 16.0001 13.0001 16.0001H11.0001C10.4478 16.0001 10.0001 15.5524 10.0001 15.0001C10.0001 14.4478 10.4478 14.0001 11.0001 14.0001V12.0001Z" fill="currentColor"/><path d="M14.0001 9.00012C14.0001 7.89555 13.1047 7.00012 12.0001 7.00012C10.8955 7.00012 10.0001 7.89555 10.0001 9.00012C10.0001 9.55241 9.55238 10.0001 9.0001 10.0001C8.44781 10.0001 8.0001 9.55241 8.0001 9.00012C8.0001 6.79098 9.79096 5.00012 12.0001 5.00012C14.2092 5.00012 16.0001 6.79098 16.0001 9.00012C16.0001 9.55241 15.5524 10.0001 15.0001 10.0001C14.4478 10.0001 14.0001 9.55241 14.0001 9.00012Z" fill="currentColor"/><path d="M13 21.7501C13 22.3024 12.5523 22.7501 12 22.7501C11.4477 22.7501 11 22.3024 11 21.7501V19.7491C11.0033 19.7491 11.0065 19.7501 11.0098 19.7501H12.9902C12.9935 19.7501 12.9968 19.7491 13 19.7491V21.7501Z" fill="currentColor"/></svg>
