<svg xmlns="http://www.w3.org/2000/svg" viewBox="0 0 24 24" fill="none"><path d="M11.0001 21.7496V18.7496C11.0001 18.1973 11.4478 17.7496 12.0001 17.7496C12.5524 17.7496 13.0001 18.1973 13.0001 18.7496V21.7496C13.0001 22.3019 12.5524 22.7496 12.0001 22.7496C11.4478 22.7496 11.0001 22.3019 11.0001 21.7496Z" fill="currentColor"/><path d="M12.0001 1.24963C16.2803 1.24963 19.7501 4.71943 19.7501 8.99963C19.7501 10.6761 19.2166 12.23 18.3106 13.4987C18.1801 13.6815 18.086 13.8138 18.0177 13.9117L18.0089 13.9244C17.9794 13.9667 17.9564 13.9995 17.9396 14.025C17.932 14.0365 17.9265 14.0461 17.922 14.0533L17.919 14.0573C17.9154 14.0632 17.9132 14.068 17.9132 14.068C17.8367 14.2028 17.813 14.2596 17.7999 14.3004C17.7868 14.3412 17.7731 14.4005 17.7569 14.5543C17.7512 14.6089 17.7501 14.6955 17.7501 14.9899C17.7501 15.8799 17.7569 16.4737 17.6202 16.9791C17.272 18.2658 16.2663 19.2715 14.9796 19.6198C14.4742 19.7565 13.8804 19.7496 12.9903 19.7496H11.0099C10.1198 19.7496 9.526 19.7565 9.02061 19.6198C7.73391 19.2715 6.72823 18.2658 6.37998 16.9791C6.24326 16.4737 6.2501 15.8799 6.2501 14.9899C6.2501 14.6955 6.24898 14.6089 6.24326 14.5543C6.22714 14.4005 6.21336 14.3412 6.20029 14.3004C6.18721 14.2596 6.16347 14.2028 6.08701 14.068C6.08701 14.068 6.08485 14.0632 6.08115 14.0573C6.07634 14.0496 6.06978 14.0388 6.06065 14.025C6.04378 13.9995 6.02086 13.9668 5.99131 13.9244L5.98252 13.9117C5.91421 13.8138 5.82014 13.6815 5.68955 13.4987C4.78363 12.23 4.2501 10.6761 4.2501 8.99963C4.2501 4.71943 7.71989 1.24963 12.0001 1.24963ZM12.0001 10.9996C11.4478 10.9996 11.0001 11.4473 11.0001 11.9996V13.9996C10.4478 13.9996 10.0001 14.4473 10.0001 14.9996C10.0001 15.5519 10.4478 15.9996 11.0001 15.9996H13.0001C13.5524 15.9996 14.0001 15.5519 14.0001 14.9996C14.0001 14.4473 13.5524 13.9996 13.0001 13.9996V11.9996C13.0001 11.4473 12.5524 10.9996 12.0001 10.9996ZM12.0001 4.99963C9.79096 4.99963 8.0001 6.79049 8.0001 8.99963C8.0001 9.55192 8.44781 9.99963 9.0001 9.99963C9.55238 9.99963 10.0001 9.55192 10.0001 8.99963C10.0001 7.89506 10.8955 6.99963 12.0001 6.99963C13.1047 6.99963 14.0001 7.89506 14.0001 8.99963C14.0001 9.55192 14.4478 9.99963 15.0001 9.99963C15.5524 9.99963 16.0001 9.55192 16.0001 8.99963C16.0001 6.79049 14.2092 4.99963 12.0001 4.99963Z" fill="currentColor"/></svg>
