<svg xmlns="http://www.w3.org/2000/svg" viewBox="0 0 24 24" fill="none"><path opacity="0.4" d="M11.4999 1.75C16.3354 1.75 20.2497 5.68637 20.2499 10.5352C20.2499 11.4249 20.1333 12.2512 19.9081 13.0264C19.4475 13.0955 19.0044 13.3075 18.6503 13.6621L17.7499 14.5615L16.8505 13.6611C15.9737 12.7835 14.5492 12.7799 13.6689 13.6582C12.7892 14.5366 12.79 15.961 13.6669 16.8398L14.5703 17.7451L13.6572 18.6621C12.9509 19.3705 12.8159 20.431 13.248 21.2754C13.1772 21.3614 13.1066 21.4457 13.039 21.5303C12.6436 22.0251 12.0538 22.25 11.4999 22.25C10.9461 22.25 10.3563 22.0251 9.96088 21.5303C8.76709 20.0364 7.04971 18.2927 6.00385 17.3711C3.86564 15.4868 2.74994 13.3171 2.74994 10.5352C2.75015 5.68637 6.66445 1.75 11.4999 1.75Z" fill="currentColor"/><path d="M14.4999 10.5C14.4999 12.1569 13.1568 13.5 11.4999 13.5C9.84308 13.5 8.49994 12.1569 8.49994 10.5C8.49994 8.84315 9.84308 7.5 11.4999 7.5C13.1568 7.5 14.4999 8.84315 14.4999 10.5Z" fill="currentColor"/><path d="M19.5345 14.5445C19.9247 14.1537 20.5577 14.1525 20.9486 14.5426C21.3394 14.9327 21.3396 15.5658 20.9496 15.9566L19.1634 17.7457L20.9583 19.5445C21.3482 19.9354 21.3471 20.5685 20.9564 20.9586C20.5655 21.3484 19.9324 21.3474 19.5423 20.9566L17.7503 19.1617L15.9583 20.9566C15.5683 21.3474 14.9352 21.3484 14.5443 20.9586C14.1536 20.5685 14.1525 19.9354 14.5423 19.5445L16.3363 17.7457L14.5511 15.9566C14.1611 15.5658 14.1613 14.9327 14.5521 14.5426C14.943 14.1525 15.576 14.1537 15.9662 14.5445L17.7503 16.3307L19.5345 14.5445Z" fill="currentColor"/></svg>
