<svg xmlns="http://www.w3.org/2000/svg" viewBox="0 0 24 24" fill="none"><path d="M11.4998 1.75C16.3353 1.75 20.2496 5.68637 20.2498 10.5352C20.2498 11.4249 20.1332 12.2512 19.908 13.0264C19.4473 13.0955 19.0042 13.3075 18.6502 13.6621L17.7498 14.5615L16.8504 13.6611C15.9736 12.7835 14.5491 12.7799 13.6688 13.6582C12.7891 14.5366 12.7898 15.961 13.6668 16.8398L14.5701 17.7451L13.657 18.6621C12.9508 19.3705 12.8158 20.431 13.2479 21.2754C13.1771 21.3614 13.1065 21.4457 13.0389 21.5303C12.6435 22.0251 12.0536 22.25 11.4998 22.25C10.946 22.25 10.3562 22.0251 9.96075 21.5303C8.76697 20.0364 7.04959 18.2927 6.00372 17.3711C3.86552 15.4868 2.74982 13.3171 2.74982 10.5352C2.75003 5.68637 6.66433 1.75 11.4998 1.75ZM11.4998 7.5C9.84296 7.5 8.49982 8.84315 8.49982 10.5C8.49982 12.1569 9.84296 13.5 11.4998 13.5C13.1567 13.5 14.4998 12.1569 14.4998 10.5C14.4998 8.84315 13.1567 7.5 11.4998 7.5Z" fill="currentColor"/><path d="M19.5344 14.5445C19.9246 14.1537 20.5576 14.1525 20.9485 14.5426C21.3393 14.9327 21.3395 15.5658 20.9494 15.9566L19.1633 17.7457L20.9582 19.5445C21.348 19.9354 21.347 20.5685 20.9563 20.9586C20.5654 21.3484 19.9323 21.3474 19.5422 20.9566L17.7502 19.1617L15.9582 20.9566C15.5682 21.3474 14.935 21.3484 14.5442 20.9586C14.1534 20.5685 14.1524 19.9354 14.5422 19.5445L16.3362 17.7457L14.551 15.9566C14.161 15.5658 14.1612 14.9327 14.552 14.5426C14.9428 14.1525 15.5759 14.1537 15.966 14.5445L17.7502 16.3307L19.5344 14.5445Z" fill="currentColor"/></svg>
