<svg xmlns="http://www.w3.org/2000/svg" viewBox="0 0 24 24" fill="none"><path d="M14.1332 22.1194L14.1699 22.1006C15.4398 21.4472 17.2108 20.3499 18.7217 18.7217L3.6069 3.60693C3.31756 3.83762 3.05749 4.12141 2.81151 4.51853C2.22802 5.46056 2.24998 6.40061 2.24999 7.74802V11.2373C2.25012 17.3738 7.15334 20.7234 9.83006 22.1006L9.86676 22.1194C10.5845 22.4889 11.0919 22.75 12 22.75C12.9081 22.75 13.4154 22.4889 14.1332 22.1194Z" fill="currentColor"/><path opacity="0.4" d="M12 1.25C9.39107 1.25 6.96003 1.82764 4.95705 2.82422C4.43095 3.08598 3.99291 3.29922 3.60693 3.60696L18.7217 18.7217C20.3955 16.9179 21.75 14.4626 21.75 11.2373V7.74805C21.75 6.40064 21.772 5.46059 21.1885 4.51855C20.6144 3.59166 19.9635 3.2822 19.043 2.82422C17.04 1.82765 14.609 1.25 12 1.25Z" fill="currentColor"/></svg>
