<svg xmlns="http://www.w3.org/2000/svg" viewBox="0 0 24 24" fill="none"><path d="M18.0144 19.4287C16.6816 20.6733 15.246 21.5468 14.1697 22.1006L14.1335 22.1191C13.4157 22.4886 12.9079 22.75 11.9997 22.75C11.0917 22.75 10.5846 22.4885 9.86693 22.1191L9.82982 22.1006C7.15307 20.7234 2.24988 17.3738 2.24974 11.2373V7.74805C2.24974 6.40067 2.22782 5.46056 2.81126 4.51855C2.84951 4.45681 2.88752 4.39731 2.9265 4.34082L18.0144 19.4287ZM11.9997 1.25C14.6086 1.25 17.0398 1.82768 19.0427 2.82422C19.9632 3.28219 20.6141 3.59172 21.1882 4.51855C21.7717 5.46059 21.7497 6.40064 21.7497 7.74805V11.2373C21.7497 14.0301 20.7319 16.2439 19.3728 17.959L4.48021 3.06641C4.63122 2.98817 4.78902 2.90768 4.95677 2.82422C6.95971 1.82766 9.39085 1.25002 11.9997 1.25Z" fill="currentColor" fill-rule="evenodd" clip-rule="evenodd"/></svg>
