<svg xmlns="http://www.w3.org/2000/svg" viewBox="0 0 24 24" fill="none"><path opacity="0.4" d="M20.7451 15.8711C21.9554 15.0117 22.75 13.6009 22.75 12C22.75 10.399 21.956 8.98653 20.7451 8.12695L20.75 8C20.75 5.37665 18.6234 3.25 16 3.25C15.9569 3.25 15.914 3.25276 15.8711 3.25391C15.0115 2.04392 13.6005 1.25 12 1.25C10.3994 1.25 8.98671 2.04331 8.12695 3.25391C8.08475 3.25279 8.04247 3.25 8 3.25C5.45852 3.25 3.38292 5.24596 3.25586 7.75586L3.25 8C3.25 8.04247 3.25279 8.08475 3.25391 8.12695C2.04331 8.98671 1.25 10.3994 1.25 12C1.25 13.6005 2.04392 15.0115 3.25391 15.8711L3.25 16C3.25 18.6234 5.37665 20.75 8 20.75C8.04259 20.75 8.08485 20.7463 8.12695 20.7451C8.98653 21.956 10.399 22.75 12 22.75C13.6009 22.75 15.0117 21.9554 15.8711 20.7451C15.9139 20.7463 15.9568 20.75 16 20.75C18.6234 20.75 20.75 18.6234 20.75 16C20.75 15.9568 20.7463 15.9139 20.7451 15.8711Z" fill="currentColor"/><path d="M9.70711 15.7071C9.31658 16.0976 8.68357 16.0976 8.29304 15.7071C7.90252 15.3166 7.90252 14.6836 8.29304 14.293L14.293 8.29304C14.6836 7.90252 15.3166 7.90252 15.7071 8.29304C16.0976 8.68357 16.0976 9.31658 15.7071 9.70711L9.70711 15.7071Z" fill="currentColor"/><path d="M9 8C9.55228 8 10 8.44772 10 9C10 9.55229 9.55228 10 9 10C8.44772 10 8 9.55228 8 9C8 8.44772 8.44771 8 9 8Z" fill="currentColor"/><path d="M15 14C15.5523 14 16 14.4477 16 15C16 15.5523 15.5523 16 15 16C14.4477 16 14 15.5523 14 15C14 14.4477 14.4477 14 15 14Z" fill="currentColor"/></svg>
