<svg xmlns="http://www.w3.org/2000/svg" viewBox="0 0 24 24" fill="none"><path d="M12 1.25C13.6005 1.25 15.0115 2.04392 15.8711 3.25391C15.914 3.25276 15.9569 3.25 16 3.25C18.6234 3.25 20.75 5.37665 20.75 8L20.7451 8.12695C21.956 8.98653 22.75 10.399 22.75 12C22.75 13.6009 21.9554 15.0117 20.7451 15.8711C20.7463 15.9139 20.75 15.9568 20.75 16C20.75 18.6234 18.6234 20.75 16 20.75C15.9568 20.75 15.9139 20.7463 15.8711 20.7451C15.0117 21.9554 13.6009 22.75 12 22.75C10.399 22.75 8.98653 21.956 8.12695 20.7451C8.08485 20.7463 8.04259 20.75 8 20.75C5.37665 20.75 3.25 18.6234 3.25 16L3.25391 15.8711C2.04392 15.0115 1.25 13.6005 1.25 12C1.25 10.3994 2.04331 8.98671 3.25391 8.12695C3.25279 8.08475 3.25 8.04247 3.25 8L3.25586 7.75586C3.38292 5.24596 5.45852 3.25 8 3.25C8.04247 3.25 8.08475 3.25279 8.12695 3.25391C8.98671 2.04331 10.3994 1.25 12 1.25ZM15.707 8.29297C15.3165 7.90252 14.6835 7.90247 14.293 8.29297L8.29297 14.293C7.90247 14.6835 7.90252 15.3165 8.29297 15.707C8.68349 16.0976 9.31651 16.0976 9.70703 15.707L15.707 9.70703C16.0976 9.31651 16.0976 8.68349 15.707 8.29297ZM15 14C14.4477 14 14 14.4477 14 15C14 15.5523 14.4477 16 15 16C15.5523 16 16 15.5523 16 15C16 14.4477 15.5523 14 15 14ZM9 8C8.44771 8 8 8.44772 8 9C8 9.55229 8.44772 10 9 10C9.55228 10 10 9.55229 10 9C10 8.44772 9.55228 8 9 8Z" fill="currentColor"/></svg>
