<svg xmlns="http://www.w3.org/2000/svg" viewBox="0 0 24 24" fill="none"><path opacity="0.4" d="M10 12C10 10.8954 10.8954 10 12 10C13.1046 10 14 10.8954 14 12C14 13.1046 13.1046 14 12 14C10.8954 14 10 13.1046 10 12Z" fill="currentColor"/><path d="M2 12C2 6.47715 6.47715 2 12 2C14.136 2 15.8151 2.4034 17.3086 3.25684C18.7788 4.09697 19.9963 5.33271 21.2686 6.85938C21.6221 7.28362 21.5648 7.91498 21.1406 8.26855C20.7164 8.62209 20.085 8.56481 19.7314 8.14062C18.5037 6.66734 17.4711 5.65301 16.3164 4.99316C15.1849 4.3466 13.864 4 12 4C7.58172 4 4 7.58172 4 12C4 16.4183 7.58172 20 12 20C12.5523 20 13 20.4477 13 21C13 21.5523 12.5523 22 12 22C6.47715 22 2 17.5228 2 12Z" fill="currentColor"/><path d="M20.573 2.01147C21.1189 1.92862 21.6286 2.30352 21.7117 2.84936V2.85131C21.7118 2.85202 21.7125 2.8531 21.7126 2.85424C21.713 2.8566 21.713 2.85991 21.7136 2.86401C21.7149 2.87265 21.7172 2.88522 21.7195 2.90112C21.7242 2.93323 21.7308 2.98002 21.739 3.03881C21.7554 3.15661 21.7784 3.32503 21.8035 3.52807C21.8534 3.9327 21.9133 4.48302 21.9538 5.05737C21.9939 5.62529 22.0173 6.24719 21.9841 6.78393C21.9676 7.05071 21.9355 7.32853 21.8728 7.58178C21.8177 7.804 21.7051 8.15569 21.4304 8.43041C21.1557 8.70513 20.804 8.81773 20.5818 8.8728C20.3285 8.93552 20.0507 8.96763 19.7839 8.98412C19.2472 9.01728 18.6253 8.9939 18.0574 8.95385C17.483 8.91334 16.9327 8.85336 16.5281 8.80346C16.325 8.77842 16.1566 8.75543 16.0388 8.73901C15.98 8.73081 15.9332 8.72416 15.9011 8.71948C15.8852 8.71716 15.8726 8.7149 15.864 8.71362C15.8599 8.71301 15.8566 8.71299 15.8542 8.71264C15.8531 8.71247 15.852 8.71177 15.8513 8.71166H15.8494C15.3035 8.62862 14.9286 8.1189 15.0115 7.57299C15.0944 7.02707 15.6042 6.65128 16.1501 6.73412L16.1511 6.7351C16.1526 6.73533 16.1555 6.73557 16.1589 6.73608C16.1658 6.73709 16.1762 6.73892 16.1902 6.74096C16.2184 6.74508 16.2608 6.75095 16.3152 6.75854C16.424 6.77371 16.5813 6.79456 16.7722 6.81811C17.1558 6.86541 17.6697 6.92147 18.198 6.95873C18.733 6.99646 19.2537 7.0132 19.6609 6.98803C19.7793 6.98071 19.8774 6.96842 19.9568 6.95678C19.9684 6.87745 19.9807 6.77932 19.988 6.66088C20.0132 6.25372 19.9965 5.733 19.9587 5.19799C19.9215 4.6697 19.8654 4.15576 19.8181 3.77221C19.7946 3.58126 19.7737 3.424 19.7585 3.31518C19.751 3.26077 19.7441 3.21838 19.74 3.19018L19.7351 3.15112L19.7341 3.15014C19.6513 2.60416 20.027 2.09441 20.573 2.01147Z" fill="currentColor"/></svg>
