<svg xmlns="http://www.w3.org/2000/svg" viewBox="0 0 24 24" fill="none"><path d="M11.9994 2C14.1354 2 15.8145 2.4034 17.308 3.25684C18.2766 3.81036 19.1339 4.53726 19.9711 5.4043C19.9669 5.33601 19.9632 5.26722 19.9584 5.19824C19.9211 4.67005 19.8651 4.15598 19.8177 3.77246C19.7942 3.58164 19.7733 3.42424 19.7582 3.31543C19.7506 3.26116 19.7437 3.21863 19.7396 3.19043L19.7347 3.15137L19.7338 3.15039C19.6509 2.6045 20.0268 2.09478 20.5726 2.01172C21.1185 1.92887 21.6283 2.30377 21.7113 2.84961V2.85156C21.7115 2.85226 21.7121 2.85345 21.7123 2.85449C21.7126 2.85684 21.7127 2.86029 21.7133 2.86426C21.7145 2.87289 21.7168 2.8856 21.7191 2.90137C21.7238 2.93348 21.7305 2.9804 21.7386 3.03906C21.7551 3.15685 21.7781 3.32541 21.8031 3.52832C21.853 3.93293 21.913 4.48337 21.9535 5.05762C21.9935 5.62548 22.0169 6.24751 21.9838 6.78418C21.9673 7.05088 21.9351 7.32886 21.8724 7.58203C21.8173 7.80427 21.7047 8.15606 21.4301 8.43066C21.1554 8.7052 20.8036 8.818 20.5814 8.87305C20.3282 8.93572 20.0503 8.96789 19.7836 8.98438C19.2469 9.0175 18.6248 8.99414 18.057 8.9541C17.4827 8.91359 16.9323 8.85361 16.5277 8.80371C16.3248 8.77868 16.1562 8.75567 16.0385 8.73926C15.9798 8.73108 15.9328 8.72441 15.9008 8.71973C15.885 8.71742 15.8722 8.71515 15.8636 8.71387C15.8596 8.71328 15.8562 8.71324 15.8539 8.71289C15.8528 8.71268 15.8516 8.71202 15.851 8.71191H15.849C15.3034 8.6288 14.9285 8.11898 15.0111 7.57324C15.0941 7.02739 15.6039 6.65165 16.1498 6.73438L16.1508 6.73535C16.1522 6.73558 16.1552 6.73584 16.1586 6.73633C16.1654 6.73734 16.176 6.73919 16.1898 6.74121C16.218 6.74532 16.2605 6.75122 16.3148 6.75879C16.4236 6.77395 16.581 6.79482 16.7719 6.81836C17.1553 6.86566 17.6694 6.92172 18.1976 6.95898C18.3724 6.97131 18.546 6.97921 18.7142 6.98633C17.8995 6.11677 17.1396 5.46393 16.3158 4.99316C15.1843 4.3466 13.8634 4 11.9994 4C7.58111 4 3.99939 7.58172 3.99939 12C3.99939 16.4183 7.58111 20 11.9994 20C12.5517 20 12.9994 20.4477 12.9994 21C12.9994 21.5523 12.5517 22 11.9994 22C6.47654 22 1.99939 17.5228 1.99939 12C1.99939 6.47715 6.47654 2 11.9994 2ZM11.9994 10C13.104 10 13.9994 10.8954 13.9994 12C13.9994 13.1046 13.104 14 11.9994 14C10.8948 14 9.99939 13.1046 9.99939 12C9.99939 10.8954 10.8948 10 11.9994 10Z" fill="currentColor"/></svg>
