<svg xmlns="http://www.w3.org/2000/svg" viewBox="0 0 24 24" fill="none"><path d="M15.9556 1.25C16.8161 1.24995 17.5579 1.24981 18.1519 1.33008C18.7891 1.41623 19.3996 1.61138 19.895 2.10938C20.3903 2.60734 20.5837 3.22092 20.6694 3.86133C20.7493 4.45835 20.7496 5.20438 20.7495 6.06934V17.8633C20.7495 18.403 20.3138 18.8408 19.7769 18.8408H19.687C19.6567 18.8768 19.6239 18.9161 19.5923 18.96C19.4249 19.1924 19.2915 19.4846 19.2915 19.8184C19.2916 20.152 19.425 20.4434 19.5923 20.6758C19.624 20.7198 19.6566 20.7598 19.687 20.7959H19.7769C20.3137 20.7959 20.7494 21.2329 20.7495 21.7725C20.7495 22.3122 20.3138 22.75 19.7769 22.75H6.1665C4.55573 22.75 3.24961 21.4375 3.24951 19.8184V8.03516C3.24949 6.70606 3.24987 5.61063 3.36572 4.74414C3.487 3.8374 3.75128 3.03671 4.38916 2.39551C5.02698 1.7544 5.82316 1.48814 6.7251 1.36621C7.58711 1.24974 8.67723 1.24998 9.99951 1.25H15.9556ZM6.1665 18.8418C5.62956 18.8418 5.19385 19.2796 5.19385 19.8193C5.19409 20.3589 5.62971 20.7959 6.1665 20.7959H17.4995C17.4077 20.5045 17.3462 20.1781 17.3462 19.8193C17.3462 19.4604 17.4076 19.1334 17.4995 18.8418H6.1665ZM15.3794 11.0234C15.0423 11.0235 14.7203 11.164 14.4897 11.4111L9.38135 16.8867H18.8052V14.3213L16.2974 11.4424C16.0657 11.1763 15.7311 11.0234 15.3794 11.0234ZM9.49951 5.5C8.39494 5.5 7.49951 6.39544 7.49951 7.5C7.49951 8.60457 8.39494 9.5 9.49951 9.5C10.6041 9.5 11.4995 8.60458 11.4995 7.5C11.4995 6.39544 10.6041 5.5 9.49951 5.5Z" fill="currentColor" fill-rule="evenodd" clip-rule="evenodd"/></svg>
