<svg xmlns="http://www.w3.org/2000/svg" viewBox="0 0 24 24" fill="none"><path opacity="0.4" d="M11.5874 1.2501C12.1574 1.24934 12.6619 1.24866 13.1373 1.41733C13.2353 1.45209 13.3314 1.49208 13.4251 1.53715C13.8799 1.75582 14.2362 2.11489 14.6387 2.52054L19.4215 7.32819C19.8889 7.79654 20.3036 8.2122 20.5277 8.75596C20.7518 9.29971 20.7509 9.88846 20.7499 10.5518L20.7497 14.0261C20.7498 15.8081 20.7498 17.2445 20.5987 18.3741C20.4418 19.547 20.1062 20.5345 19.326 21.3188C18.5457 22.1031 17.5633 22.4405 16.3965 22.5982C15.2727 22.75 13.8438 22.75 12.071 22.75C10.2982 22.75 8.72705 22.75 7.60322 22.5982C6.43643 22.4405 5.45402 22.1031 4.67377 21.3188C3.89352 20.5345 3.55792 19.547 3.40105 18.3741C3.24995 17.2445 3.24997 15.8081 3.25 14.0262V14.0261V9.45263V9.4526C3.24998 7.91893 3.24997 6.6824 3.36424 5.69856C3.48248 4.6806 3.73418 3.80839 4.32681 3.06954C4.54435 2.79833 4.79012 2.55128 5.05992 2.33261C5.79495 1.7369 6.66265 1.48389 7.67534 1.36504C8.6541 1.25017 10.0617 1.25008 11.5874 1.2501Z" fill="currentColor"/><path d="M13.1373 1.416C13.2353 1.45076 13.3314 1.49075 13.4251 1.53582C13.8799 1.75449 14.2362 2.11356 14.6387 2.51921L19.4215 7.32686L19.4215 7.32686C19.8889 7.79521 20.3036 8.21088 20.5277 8.75463C20.6265 8.99435 20.6816 9.24282 20.7122 9.50258H18.7314C17.3638 9.5026 16.7152 9.50181 15.8483 9.38525C14.9481 9.26424 14.1903 9.00534 13.5884 8.40343C12.9864 7.80151 12.7275 7.04364 12.6065 6.14353C12.4902 5.27834 12.4902 4.63063 12.4902 3.2688V3.26877V1.27734C12.7136 1.30042 12.9283 1.34184 13.1373 1.416Z" fill="currentColor"/><path d="M7 18V16C7 15.4477 7.44772 15 8 15C8.55228 15 9 15.4477 9 16V18C9 18.5523 8.55228 19 8 19C7.44772 19 7 18.5523 7 18ZM11 18V13C11 12.4477 11.4477 12 12 12C12.5523 12 13 12.4477 13 13V18C13 18.5523 12.5523 19 12 19C11.4477 19 11 18.5523 11 18ZM15 18V15C15 14.4477 15.4477 14 16 14C16.5523 14 17 14.4477 17 15V18C17 18.5523 16.5523 19 16 19C15.4477 19 15 18.5523 15 18Z" fill="currentColor"/></svg>
