<svg xmlns="http://www.w3.org/2000/svg" viewBox="0 0 24 24" fill="none"><path opacity="0.5" d="M15.4126 13.25V9.97754L12.5844 11.6113C12.1062 11.8874 11.4944 11.7242 11.2182 11.2461C10.9421 10.7678 11.1062 10.1561 11.5844 9.87988L14.4165 8.24414L11.5893 6.6123C11.1111 6.33618 10.9471 5.72436 11.2231 5.24609C11.4992 4.76786 12.1111 4.60389 12.5893 4.87988L15.4126 6.50977V3.25C15.4126 2.69772 15.8603 2.25 16.4126 2.25C16.9646 2.25026 17.4126 2.69788 17.4126 3.25V6.51465L20.2446 4.87988C20.7229 4.60374 21.3347 4.7678 21.6108 5.24609C21.8867 5.72431 21.7227 6.33523 21.2446 6.61133L18.4155 8.24414L21.2495 9.87988C21.7278 10.156 21.8918 10.7678 21.6157 11.2461C21.3395 11.7244 20.7278 11.8884 20.2495 11.6123L17.4126 9.97363V13.25C17.4126 13.8021 16.9646 14.2497 16.4126 14.25C15.8603 14.25 15.4126 13.8023 15.4126 13.25Z" fill="currentColor"/><path d="M10.7502 17.5432L10.7502 17.5L10.7502 17.4568C10.7502 16.9279 10.7502 16.4913 10.7248 16.1338C10.6982 15.7594 10.6404 15.4146 10.4973 15.085C10.1893 14.3761 9.62405 13.8108 8.91522 13.5029C8.58559 13.3598 8.24079 13.302 7.8664 13.2754C7.50888 13.25 7.07233 13.25 6.54336 13.25L6.50019 13.25L6.45701 13.25C5.92804 13.25 5.49149 13.25 5.13397 13.2754C4.75958 13.302 4.41478 13.3598 4.08515 13.5029C3.37632 13.8108 2.81103 14.3761 2.50311 15.085C2.35994 15.4146 2.30222 15.7594 2.27558 16.1338C2.25015 16.4913 2.25017 16.9279 2.25018 17.4568L2.25019 17.5L2.25018 17.5432C2.25017 18.0721 2.25015 18.5087 2.27558 18.8662C2.30222 19.2406 2.35994 19.5854 2.50311 19.915C2.81103 20.6239 3.37632 21.1892 4.08515 21.4971C4.41478 21.6403 4.75958 21.698 5.13397 21.7246C5.49149 21.75 5.92805 21.75 6.45703 21.75L6.50019 21.75L6.54334 21.75C7.07232 21.75 7.50888 21.75 7.8664 21.7246C8.24079 21.698 8.58559 21.6403 8.91522 21.4971C9.62405 21.1892 10.1893 20.6239 10.4973 19.915C10.6404 19.5854 10.6982 19.2406 10.7248 18.8662C10.7502 18.5087 10.7502 18.0721 10.7502 17.5432Z" fill="currentColor"/></svg>
