<svg xmlns="http://www.w3.org/2000/svg" viewBox="0 0 24 24" fill="none"><path d="M15.4121 13.25V9.97754L12.584 11.6113C12.1057 11.8874 11.494 11.7242 11.2177 11.2461C10.9416 10.7678 11.1058 10.1561 11.584 9.87988L14.416 8.24414L11.5888 6.6123C11.1106 6.33618 10.9466 5.72436 11.2226 5.24609C11.4987 4.76786 12.1106 4.60389 12.5888 4.87988L15.4121 6.50977V3.25C15.4121 2.69772 15.8598 2.25 16.4121 2.25C16.9641 2.25026 17.4121 2.69788 17.4121 3.25V6.51465L20.2441 4.87988C20.7224 4.60374 21.3342 4.7678 21.6103 5.24609C21.8862 5.72431 21.7222 6.33523 21.2441 6.61133L18.415 8.24414L21.249 9.87988C21.7273 10.156 21.8913 10.7678 21.6152 11.2461C21.3391 11.7244 20.7273 11.8884 20.249 11.6123L17.4121 9.97363V13.25C17.4121 13.8021 16.9641 14.2497 16.4121 14.25C15.8598 14.25 15.4121 13.8023 15.4121 13.25Z" fill="currentColor"/><path d="M10.7497 17.5432L10.7497 17.5L10.7497 17.4568C10.7497 16.9279 10.7497 16.4913 10.7243 16.1338C10.6977 15.7594 10.6399 15.4146 10.4968 15.085C10.1889 14.3761 9.62356 13.8108 8.91474 13.5029C8.5851 13.3598 8.24031 13.302 7.86591 13.2754C7.50839 13.25 7.07184 13.25 6.54287 13.25L6.4997 13.25L6.45652 13.25C5.92755 13.25 5.491 13.25 5.13349 13.2754C4.75909 13.302 4.41429 13.3598 4.08466 13.5029C3.37583 13.8108 2.81054 14.3761 2.50263 15.085C2.35945 15.4146 2.30173 15.7594 2.27509 16.1338C2.24966 16.4913 2.24968 16.9279 2.24969 17.4568L2.2497 17.5L2.24969 17.5432C2.24968 18.0721 2.24966 18.5087 2.27509 18.8662C2.30173 19.2406 2.35945 19.5854 2.50263 19.915C2.81054 20.6239 3.37583 21.1892 4.08466 21.4971C4.41429 21.6403 4.75909 21.698 5.13349 21.7246C5.49101 21.75 5.92756 21.75 6.45654 21.75L6.4997 21.75L6.54285 21.75C7.07183 21.75 7.50839 21.75 7.86591 21.7246C8.24031 21.698 8.5851 21.6403 8.91474 21.4971C9.62356 21.1892 10.1889 20.6239 10.4968 19.915C10.6399 19.5854 10.6977 19.2406 10.7243 18.8662C10.7497 18.5087 10.7497 18.0721 10.7497 17.5432Z" fill="currentColor"/></svg>
