<svg xmlns="http://www.w3.org/2000/svg" viewBox="0 0 24 24" fill="none"><path opacity="0.4" d="M21.75 14.5579V14.5V11.9893C21.75 10.3817 21.7674 9.33029 21.3174 8.41016C20.8672 7.49022 20.0266 6.85897 18.7578 5.87207L16.7578 4.31641L16.7266 4.29212C15.7233 3.51183 14.9179 2.88537 14.2119 2.45996C13.4812 2.01973 12.7872 1.75 12 1.75C11.2127 1.75 10.5187 2.01973 9.78805 2.45996C9.08203 2.88537 8.27661 3.51182 7.2734 4.2921L7.24216 4.31641L5.24216 5.87207C3.97329 6.85897 3.1327 7.49022 2.68259 8.41016C2.23256 9.33029 2.24997 10.3817 2.24997 11.9893V14.5L2.24997 14.5579C2.24995 16.1595 2.24993 17.4378 2.38473 18.4404C2.52406 19.4767 2.81995 20.3298 3.49509 21.0049C4.17022 21.68 5.02329 21.9759 6.05954 22.1152C7.06218 22.25 8.34049 22.25 9.94208 22.25H9.99997H14H14.0579C15.6595 22.25 16.9378 22.25 17.9404 22.1152C18.9766 21.9759 19.8297 21.68 20.5049 21.0049C21.18 20.3298 21.4759 19.4767 21.6152 18.4404C21.75 17.4378 21.75 16.1595 21.75 14.5579Z" fill="currentColor"/><path d="M11.2848 17.7494C10.0152 16.7566 7.5 14.4869 7.5 12.4444C7.5 11.0944 8.44737 10 9.75 10C10.425 10 11.1 10.2353 12 11.1765C12.9 10.2353 13.575 10 14.25 10C15.5526 10 16.5 11.0944 16.5 12.4444C16.5 14.4869 13.9848 16.7566 12.7152 17.7494C12.288 18.0835 11.712 18.0835 11.2848 17.7494Z" fill="currentColor"/></svg>
