<svg xmlns="http://www.w3.org/2000/svg" viewBox="0 0 24 24" fill="none"><path d="M11.9996 1.75C12.7868 1.75 13.4809 2.01975 14.2115 2.45996C14.9175 2.88535 15.723 3.51175 16.7262 4.29199L16.7574 4.31641L18.7574 5.87207C20.0263 6.85896 20.8669 7.49024 21.317 8.41016C21.767 9.33029 21.7496 10.3817 21.7496 11.9893V14.5576C21.7496 16.1592 21.7496 17.4378 21.6148 18.4404C21.4755 19.4767 21.1796 20.3298 20.5045 21.0049C19.8294 21.68 18.9763 21.9759 17.94 22.1152C16.9374 22.25 15.6588 22.25 14.0572 22.25H9.94198C8.34039 22.25 7.06181 22.25 6.05917 22.1152C5.02296 21.9759 4.16983 21.68 3.49472 21.0049C2.81962 20.3298 2.52369 19.4767 2.38437 18.4404C2.24957 17.4378 2.24958 16.1592 2.2496 14.5576V11.9893C2.2496 10.3817 2.23221 9.33028 2.68222 8.41016C3.13232 7.49024 3.97295 6.85894 5.24179 5.87207L7.24179 4.31641L7.27304 4.29199C8.27621 3.51173 9.08168 2.88537 9.78769 2.45996C10.5183 2.01974 11.2124 1.75002 11.9996 1.75ZM14.2496 10C13.5746 10 12.8995 10.2356 11.9996 11.1768C11.0996 10.2356 10.4246 10 9.7496 10C8.44706 10.0001 7.49964 11.0944 7.4996 12.4443C7.4996 14.4868 10.0152 16.7562 11.2848 17.749C11.7119 18.0831 12.2872 18.083 12.7144 17.749C13.984 16.7562 16.4996 14.4868 16.4996 12.4443C16.4996 11.0944 15.5522 10 14.2496 10Z" fill="currentColor" fill-rule="evenodd" clip-rule="evenodd"/></svg>
