<svg xmlns="http://www.w3.org/2000/svg" viewBox="0 0 24 24" fill="none"><path d="M12.6767 6.25C13.5802 6.24999 14.3174 6.24956 14.9189 6.31348C15.5471 6.38025 16.0943 6.52201 16.5986 6.84668C17.1029 7.1714 17.4585 7.61095 17.7793 8.15527C18.0863 8.67634 18.3908 9.34749 18.7646 10.1699L19.2968 11.3398L20.5498 10.4004C20.881 10.1519 21.351 10.2187 21.5996 10.5498C21.848 10.8811 21.7813 11.351 21.4501 11.5996L20.0175 12.6738L20.3437 13.1631C20.9503 14.0725 21.3416 14.6605 21.5459 15.335C21.75 16.0094 21.7502 16.7155 21.75 17.8086V21.75C21.75 22.3023 21.3022 22.75 20.75 22.75H19C18.4477 22.75 18 22.3023 18 21.75V20.75C18 20.1977 17.5522 19.75 17 19.75H5.99995C5.44767 19.75 4.99995 20.1977 4.99995 20.75V21.75C4.99995 22.3023 4.55224 22.75 3.99995 22.75H2.24995C1.69769 22.75 1.24995 22.3023 1.24995 21.75V17.9219C1.24972 16.829 1.24993 16.0093 1.45405 15.335C1.65827 14.6605 2.04962 14.0725 2.6562 13.1631L2.98238 12.6738L1.54976 11.5996C1.21868 11.351 1.1519 10.8811 1.40034 10.5498C1.64893 10.2187 2.11888 10.1519 2.45015 10.4004L3.70308 11.3398L4.23531 10.1699C4.6092 9.34732 4.91453 8.6764 5.22163 8.15527C5.54238 7.61105 5.8971 7.17135 6.40132 6.84668C6.90559 6.52198 7.45275 6.38026 8.08101 6.31348C8.68249 6.24955 9.41965 6.24999 10.3232 6.25H12.6767ZM5.99995 15C5.44767 15 4.99995 15.4477 4.99995 16V16.0098C4.99995 16.5621 5.44767 17.0098 5.99995 17.0098C6.55224 17.0098 6.99995 16.5621 6.99995 16.0098V16C6.99995 15.4477 6.55224 15 5.99995 15ZM17 15C16.4477 15 16 15.4477 16 16V16.0098C16 16.5621 16.4477 17.0098 17 17.0098C17.5522 17.0098 18 16.5621 18 16.0098V16C18 15.4477 17.5522 15 17 15ZM10.3632 7.75C9.40957 7.75 8.75216 7.75118 8.23921 7.80566C7.74401 7.8583 7.45039 7.95544 7.21284 8.1084C6.97535 8.26136 6.76544 8.48804 6.51265 8.91699C6.25077 9.36141 5.97761 9.95893 5.58296 10.8271L5.05464 11.9912L6.24507 12.25H16.7529L17.9443 11.9912L17.415 10.8271C17.0204 9.95915 16.7481 9.36135 16.4863 8.91699C16.2336 8.48816 16.0235 8.26136 15.7861 8.1084C15.5485 7.95544 15.2549 7.8583 14.7597 7.80566C14.2467 7.75115 13.5895 7.75 12.6357 7.75H10.3632Z" fill="currentColor" fill-rule="evenodd" clip-rule="evenodd"/><path d="M16.25 5C16.25 4.58579 16.5858 4.25 17 4.25C18.5188 4.25 19.75 5.48122 19.75 7C19.75 7.41421 19.4142 7.75 19 7.75C18.5858 7.75 18.25 7.41421 18.25 7C18.25 6.30964 17.6904 5.75 17 5.75C16.5858 5.75 16.25 5.41421 16.25 5Z" fill="currentColor" fill-rule="evenodd" clip-rule="evenodd"/><path d="M16.25 2C16.25 1.58579 16.5858 1.25 17 1.25C20.1756 1.25 22.75 3.82436 22.75 7C22.75 7.41421 22.4142 7.75 22 7.75C21.5858 7.75 21.25 7.41421 21.25 7C21.25 4.65279 19.3472 2.75 17 2.75C16.5858 2.75 16.25 2.41421 16.25 2Z" fill="currentColor" fill-rule="evenodd" clip-rule="evenodd"/></svg>
