<svg xmlns="http://www.w3.org/2000/svg" viewBox="0 0 24 24" fill="none"><path d="M16 20.75V17.75C16 17.1977 16.4477 16.75 17 16.75C17.5523 16.75 18 17.1977 18 17.75V20.75C18 21.3023 17.5523 21.75 17 21.75C16.4477 21.75 16 21.3023 16 20.75ZM16 10.75V3.25C16 2.69772 16.4477 2.25 17 2.25C17.5523 2.25 18 2.69772 18 3.25V10.75C18 11.3023 17.5523 11.75 17 11.75C16.4477 11.75 16 11.3023 16 10.75Z" fill="currentColor"/><path d="M6 20.75V17.75C6 17.1977 6.44772 16.75 7 16.75C7.55228 16.75 8 17.1977 8 17.75V20.75C8 21.3023 7.55228 21.75 7 21.75C6.44772 21.75 6 21.3023 6 20.75ZM6 5.75V3.25C6 2.69772 6.44772 2.25 7 2.25C7.55228 2.25 8 2.69772 8 3.25V5.75C8 6.30228 7.55228 6.75 7 6.75C6.44772 6.75 6 6.30228 6 5.75Z" fill="currentColor"/><path d="M10.75 15.0406L10.75 15V9L10.75 8.95944C10.75 8.52175 10.75 8.1556 10.7295 7.85449C10.7079 7.53744 10.6613 7.23762 10.541 6.94727C10.2619 6.27359 9.72642 5.73809 9.05274 5.45899C8.76239 5.33872 8.46256 5.29215 8.14551 5.27051C7.8444 5.24997 7.47826 5.24998 7.04057 5.25L7 5.25L6.95943 5.25C6.52175 5.24998 6.1556 5.24997 5.85449 5.27051C5.53744 5.29215 5.23762 5.33872 4.94727 5.45899C4.27359 5.73809 3.73809 6.27359 3.45899 6.94727C3.33872 7.23762 3.29215 7.53744 3.27051 7.85449C3.24997 8.1556 3.24998 8.52175 3.25 8.95943L3.25 9V15L3.25 15.0406C3.24998 15.4783 3.24997 15.8444 3.27051 16.1455C3.29215 16.4626 3.33872 16.7624 3.45899 17.0527C3.73809 17.7264 4.27359 18.2619 4.94727 18.541C5.23762 18.6613 5.53744 18.7079 5.85449 18.7295C6.1556 18.75 6.52174 18.75 6.95941 18.75L7 18.75L7.0406 18.75C7.47827 18.75 7.84441 18.75 8.14551 18.7295C8.46256 18.7079 8.76239 18.6613 9.05274 18.541C9.72642 18.2619 10.2619 17.7264 10.541 17.0527C10.6613 16.7624 10.7079 16.4626 10.7295 16.1455C10.75 15.8444 10.75 15.4783 10.75 15.0406Z" fill="currentColor"/><path d="M20.75 15.0406L20.75 15V14L20.75 13.9594C20.75 13.5217 20.75 13.1556 20.7295 12.8545C20.7079 12.5374 20.6613 12.2376 20.541 11.9473C20.2619 11.2736 19.7264 10.7381 19.0527 10.459C18.7624 10.3387 18.4626 10.2921 18.1455 10.2705C17.8444 10.25 17.4783 10.25 17.0406 10.25L17 10.25L16.9594 10.25C16.5217 10.25 16.1556 10.25 15.8545 10.2705C15.5374 10.2921 15.2376 10.3387 14.9473 10.459C14.2736 10.7381 13.7381 11.2736 13.459 11.9473C13.3387 12.2376 13.2921 12.5374 13.2705 12.8545C13.25 13.1556 13.25 13.5217 13.25 13.9594L13.25 14V15L13.25 15.0406C13.25 15.4783 13.25 15.8444 13.2705 16.1455C13.2921 16.4626 13.3387 16.7624 13.459 17.0527C13.7381 17.7264 14.2736 18.2619 14.9473 18.541C15.2376 18.6613 15.5374 18.7079 15.8545 18.7295C16.1556 18.75 16.5217 18.75 16.9594 18.75L17 18.75L17.0406 18.75C17.4783 18.75 17.8444 18.75 18.1455 18.7295C18.4626 18.7079 18.7624 18.6613 19.0527 18.541C19.7264 18.2619 20.2619 17.7264 20.541 17.0527C20.6613 16.7624 20.7079 16.4626 20.7295 16.1455C20.75 15.8444 20.75 15.4783 20.75 15.0406Z" fill="currentColor"/></svg>
