<svg xmlns="http://www.w3.org/2000/svg" viewBox="0 0 24 24" fill="none"><path opacity="0.4" d="M21.75 13.05V13V11V10.95C21.75 9.10922 21.75 7.65129 21.5967 6.51074C21.439 5.33844 21.1067 4.38991 20.3584 3.6416C19.6101 2.89329 18.6616 2.56096 17.4893 2.40332C16.3487 2.24998 14.8908 2.24999 13.0499 2.25H13H11H10.9501C9.10924 2.24999 7.6513 2.24998 6.51074 2.40332C5.33844 2.56096 4.38991 2.89329 3.6416 3.6416C2.89329 4.38991 2.56096 5.33844 2.40332 6.51074C2.24998 7.6513 2.24999 9.10924 2.25 10.9501V11V13V13.0499C2.24999 14.8908 2.24998 16.3487 2.40332 17.4893C2.56096 18.6616 2.89329 19.6101 3.6416 20.3584C4.38991 21.1067 5.33844 21.439 6.51074 21.5967C7.65129 21.75 9.10922 21.75 10.95 21.75H11H13H13.05C14.8908 21.75 16.3487 21.75 17.4893 21.5967C18.6616 21.439 19.6101 21.1067 20.3584 20.3584C21.1067 19.6101 21.439 18.6616 21.5967 17.4893C21.75 16.3487 21.75 14.8908 21.75 13.05Z" fill="currentColor"/><path d="M15 12C15 10.3431 13.6569 9 12 9C10.3431 9 9 10.3431 9 12C9 13.6569 10.3431 15 12 15C13.6569 15 15 13.6569 15 12ZM17 12C17 14.7614 14.7614 17 12 17C9.23858 17 7 14.7614 7 12C7 9.23858 9.23858 7 12 7C14.7614 7 17 9.23858 17 12Z" fill="currentColor"/><path d="M4.5 15C5.05228 15 5.5 15.4477 5.5 16C5.5 16.5523 5.05228 17 4.5 17H2.34863C2.29397 16.4108 2.2725 15.7465 2.26172 15H4.5Z" fill="currentColor"/><path d="M4.5 7C5.05228 7 5.5 7.44772 5.5 8C5.5 8.55228 5.05228 9 4.5 9H2.26172C2.2725 8.25352 2.29397 7.58925 2.34863 7H4.5Z" fill="currentColor"/></svg>
