<svg xmlns="http://www.w3.org/2000/svg" viewBox="0 0 24 24" fill="none"><path d="M13.0498 2.25C14.8906 2.24999 16.3487 2.24998 17.4893 2.40332C18.6616 2.56096 19.6101 2.89329 20.3584 3.6416C21.1067 4.38991 21.439 5.33844 21.5967 6.51074C21.75 7.65129 21.75 9.10939 21.75 10.9502V13.0498C21.75 14.8906 21.75 16.3487 21.5967 17.4893C21.439 18.6616 21.1067 19.6101 20.3584 20.3584C19.6101 21.1067 18.6616 21.439 17.4893 21.5967C16.3487 21.75 14.8906 21.75 13.0498 21.75H10.9502C9.10939 21.75 7.65129 21.75 6.51074 21.5967C5.33844 21.439 4.38991 21.1067 3.6416 20.3584C2.89329 19.6101 2.56096 18.6616 2.40332 17.4893C2.38221 17.3323 2.36433 17.1692 2.34863 17H4.5C5.05228 17 5.5 16.5523 5.5 16C5.5 15.4477 5.05228 15 4.5 15H2.26172C2.25311 14.4037 2.25 13.7548 2.25 13.0498V10.9502C2.25 10.2452 2.25311 9.59634 2.26172 9H4.5C5.05228 9 5.5 8.55228 5.5 8C5.5 7.44772 5.05228 7 4.5 7H2.34863C2.36433 6.8308 2.38221 6.66775 2.40332 6.51074C2.56096 5.33844 2.89329 4.38991 3.6416 3.6416C4.38991 2.89329 5.33844 2.56096 6.51074 2.40332C7.65129 2.24998 9.10937 2.24999 10.9502 2.25H13.0498ZM12 7C9.23858 7 7 9.23858 7 12C7 14.7614 9.23858 17 12 17C14.7614 17 17 14.7614 17 12C17 9.23858 14.7614 7 12 7ZM12 9C13.6569 9 15 10.3431 15 12C15 13.6569 13.6569 15 12 15C10.3431 15 9 13.6569 9 12C9 10.3431 10.3431 9 12 9Z" fill="currentColor"/></svg>
