<svg xmlns="http://www.w3.org/2000/svg" fill="none" viewBox="0 0 48 48">
  <g>
    <path fill="currentColor" fill-rule="evenodd" d="m4.8026 17.7109 0.0151 -0.0003c0.7156 -0.0154 1.4825 0.0227 2.2988 0.1299 4.5169 0.5932 6.898 4.584 7.2141 8.0519 0.149 1.6348 0.27 3.2054 0.3679 4.6995 2.4575 -0.1638 5.6063 -0.2992 9.3016 -0.2992 3.6954 0 6.8442 0.1354 9.3018 0.2992 0.0978 -1.4941 0.2189 -3.0647 0.3678 -4.6995 0.3161 -3.4679 2.6973 -7.4587 7.2141 -8.0519 0.8162 -0.1072 1.5832 -0.1453 2.2989 -0.1299l0.0154 0.0003c0.0814 -2.5541 0.1427 -5.3915 0.1761 -8.5403 0.038 -3.5754 -2.1778 -6.7818 -5.8054 -7.3483 -3.0351 -0.474 -7.4533 -0.8956 -13.5685 -0.8956 -6.115 0 -10.5333 0.4216 -13.5684 0.8956 -3.6276 0.5665 -5.8434 3.7729 -5.8054 7.3483 0.0334 3.1488 0.0947 5.9862 0.1761 8.5403Zm14.4777 -3.6744c0 -0.8688 -0.7044 -1.5731 -1.5732 -1.5731s-1.5732 0.7043 -1.5732 1.5731v1.0488c0 0.8688 0.7044 1.5732 1.5732 1.5732s1.5732 -0.7044 1.5732 -1.5732v-1.0488Zm12.5854 0c0 -0.8688 -0.7044 -1.5731 -1.5732 -1.5731s-1.5732 0.7043 -1.5732 1.5731v1.0488c0 0.8688 0.7044 1.5732 1.5732 1.5732s1.5732 -0.7044 1.5732 -1.5732v-1.0488Zm-20.0101 32.532 0.001 -0.0192 0.0033 -0.0747c0.003 -0.0657 0.0071 -0.1632 0.012 -0.2911 0.0096 -0.256 0.0221 -0.634 0.0339 -1.1244 0.0232 -0.9807 0.0429 -2.4112 0.0285 -4.2138 -0.0286 -3.6052 -0.1933 -8.7007 -0.737 -14.6673 -0.2265 -2.4853 -1.8641 -4.8729 -4.4905 -5.2179 -0.6587 -0.0865 -1.2662 -0.1158 -1.8219 -0.1039 -1.5046 0.0322 -2.6452 0.7906 -3.3812 1.8874C0.7773 23.826 0.4427 25.2343 0.4833 26.6319c0.0973 3.3468 0.3117 8.7006 0.7845 16.0446 0.1593 2.4752 2.2187 4.3968 4.6966 4.3968H11.83l0.0253 -0.4978v-0.0002l0.0003 -0.0068Zm21.1644 0.5048H14.9804l0.0172 -0.3383 0.0006 -0.0118 0.0012 -0.0242 0.0038 -0.0848c0.0033 -0.0726 0.0077 -0.1769 0.0127 -0.312 0.0103 -0.27 0.0233 -0.6627 0.0353 -1.1683 0.024 -1.0113 0.044 -2.4751 0.0293 -4.3137 -0.0156 -1.9634 -0.0707 -4.3575 -0.2029 -7.0868 2.398 -0.1605 5.4871 -0.2943 9.1215 -0.2943 3.6355 0 6.7253 0.1338 9.1238 0.2944 -0.1323 2.7293 -0.1874 5.1233 -0.2031 7.0867 -0.0145 1.8386 0.0054 3.3024 0.0294 4.3136 0.0121 0.5057 0.0251 0.8984 0.0353 1.1684 0.0051 0.1351 0.0095 0.2394 0.0128 0.312l0.0038 0.0847 0.0012 0.0243 0.0005 0.01v0.0018l0.0172 0.3383Zm3.1247 -0.498 0.0253 0.498h5.8656c2.4779 0 4.5373 -1.9216 4.6966 -4.3969 0.4728 -7.344 0.6873 -12.6977 0.7845 -16.0445 0.0406 -1.3976 -0.2939 -2.8059 -1.0203 -3.8883 -0.7361 -1.0969 -1.8766 -1.8552 -3.3813 -1.8874 -0.5556 -0.0119 -1.1631 0.0174 -1.8219 0.1039 -2.6263 0.3449 -4.2639 2.7326 -4.4904 5.2179 -0.5437 5.9665 -0.7084 11.0621 -0.7371 14.6673 -0.0143 1.8026 0.0053 3.233 0.0286 4.2138 0.0116 0.4904 0.0242 0.8684 0.0339 1.1244 0.0048 0.1279 0.0089 0.2253 0.0118 0.2911l0.0035 0.0747 0.0009 0.0192 0.0003 0.0068Z" clip-rule="evenodd" stroke-width="1"></path>
  </g>
</svg>
