<svg xmlns="http://www.w3.org/2000/svg" fill="none" viewBox="0 0 48 48">
  <g>
    <path fill="currentColor" fill-rule="evenodd" d="M18.3053 1.80503c-0.878 -1.16829 -2.469 -1.680461 -3.812 -0.888842l-0.0007 0.000435 -0.0444 0.026266 -0.0008 0.000437c-1.3181 0.783044 -1.6712 2.391024 -1.1142 3.725654 1.1481 2.75064 2.4528 5.50302 3.4946 7.61292 0.0857 0.1737 0.2641 0.2823 0.4578 0.2786 2.0057 -0.0383 4.2404 -0.0614 6.7141 -0.0614 2.4738 0 4.7085 0.0231 6.7141 0.0614 0.1937 0.0037 0.3721 -0.1049 0.4579 -0.2786 1.0417 -2.1099 2.3465 -4.86228 3.4945 -7.61292 0.557 -1.33463 0.204 -2.94261 -1.1142 -3.725654l-0.0007 -0.000433 -0.0444 -0.026268 -0.0007 -0.000437c-1.3431 -0.791619 -2.9341 -0.279448 -3.812 0.888842 -2.215 2.94734 -4.3441 6.08279 -5.6945 8.12186 -1.3504 -2.03907 -3.4795 -5.17452 -5.6944 -8.12186Z" clip-rule="evenodd" stroke-width="1"></path>
    <path fill="currentColor" fill-opacity="0.4" fill-rule="evenodd" d="M24 10.5c-7.9292 0 -13.4297 0.2357 -16.82864 0.4547 -3.23867 0.2086 -5.86241 2.6154 -6.175092 5.9107C0.741503 19.5504 0.5 23.5364 0.5 29c0 5.4636 0.241504 9.4497 0.496271 12.1346 0.312689 3.2953 2.936429 5.7021 6.175099 5.9108C10.5703 47.2643 16.0708 47.5 24 47.5s13.4297 -0.2357 16.8286 -0.4546c3.2387 -0.2087 5.8624 -2.6155 6.1751 -5.9108 0.2548 -2.6849 0.4963 -6.671 0.4963 -12.1346 0 -5.4636 -0.2415 -9.4497 -0.4963 -12.1346 -0.3127 -3.2953 -2.9364 -5.7021 -6.1751 -5.9108C37.4297 10.7357 31.9292 10.5 24 10.5Z" clip-rule="evenodd" stroke-width="1"></path>
    <path fill="currentColor" d="M6.44659 38.6071c0.18381 1.6752 1.52361 2.8957 3.2052 3.0062C12.3241 41.7889 16.9931 42 24 42s11.6759 -0.2111 14.3482 -0.3867c1.6816 -0.1105 3.0214 -1.331 3.2052 -3.0062C41.7735 36.6011 42 33.4548 42 29c0 -4.4548 -0.2265 -7.6011 -0.4466 -9.6071 -0.1838 -1.6752 -1.5236 -2.8957 -3.2052 -3.0062C35.6759 16.2111 31.0069 16 24 16s-11.6759 0.2111 -14.34821 0.3867c-1.68159 0.1105 -3.02139 1.331 -3.2052 3.0062C6.22647 21.3989 6 24.5452 6 29c0 4.4548 0.22647 7.6011 0.44659 9.6071Z" stroke-width="1"></path>
  </g>
</svg>
