<svg xmlns="http://www.w3.org/2000/svg" fill="none" viewBox="0 0 48 48">
  <g>
    <path stroke="currentColor" stroke-linejoin="round" d="M2.48956 17.0071c0.24005 -2.5298 2.24227 -4.3922 4.77822 -4.5555C10.6321 12.2348 16.1004 12 24 12c7.8996 0 13.3679 0.2348 16.7322 0.4515 2.536 0.1634 4.5382 2.0258 4.7782 4.5556C45.7604 19.6419 46 23.5805 46 29s-0.2396 9.3581 -0.4896 11.9929c-0.24 2.5298 -2.2422 4.3922 -4.7782 4.5556C37.3679 45.7652 31.8996 46 24 46c-7.8996 0 -13.3679 -0.2348 -16.73221 -0.4515 -2.53595 -0.1634 -4.53818 -2.0258 -4.77823 -4.5556C2.23956 38.3581 2 34.4195 2 29s0.23956 -9.3581 0.48956 -11.9929Z" stroke-width="3.429"></path>
    <path stroke="currentColor" stroke-linejoin="round" d="M31.2082 12.0711C29.0764 12.027 26.6779 12 24 12c-2.6781 0 -5.0767 0.027 -7.2087 0.0711 -0.9415 -1.9389 -2.0258 -4.26825 -2.9966 -6.59412 -0.4783 -1.14605 -0.1595 -2.46894 0.9082 -3.1032l0.0443 -0.02627c1.0831 -0.63836 2.4032 -0.24649 3.1584 0.75849 2.4503 3.26043 4.7973 6.7551 6.0942 8.7296 1.2969 -1.9745 3.6439 -5.46917 6.0941 -8.7296 0.7553 -1.00498 2.0754 -1.39685 3.1584 -0.75849l0.0444 0.02627c1.0677 0.63426 1.3865 1.95715 0.9081 3.1032 -0.9707 2.32587 -2.055 4.65522 -2.9966 6.59412Z" stroke-width="3.429"></path>
    <path stroke="currentColor" stroke-linejoin="round" d="M39.4783 19.8985c-0.1186 -0.8302 -0.7944 -1.434 -1.6307 -1.4965C35.7789 18.2472 31.3277 18 24 18s-11.7789 0.2472 -13.8476 0.402c-0.83633 0.0625 -1.51207 0.6663 -1.63065 1.4965C8.29844 21.4622 8 24.4104 8 29s0.29843 7.5378 0.52175 9.1015c0.11858 0.8302 0.79432 1.434 1.63065 1.4965C12.2211 39.7528 16.6723 40 24 40s11.7789 -0.2472 13.8476 -0.402c0.8363 -0.0625 1.5121 -0.6663 1.6306 -1.4965C39.7016 36.5378 40 33.5896 40 29s-0.2984 -7.5378 -0.5217 -9.1015Z" stroke-width="3.429"></path>
  </g>
</svg>
