<svg xmlns="http://www.w3.org/2000/svg" fill="none" viewBox="0 0 48 48">
  <g>
    <path fill="currentColor" fill-rule="evenodd" d="M23.0183 9.50128c0.3232 -0.00085 0.6508 -0.00128 0.9827 -0.00128 0.3308 0 0.6574 0.00043 0.9796 0.00127 1.4633 -2.16835 3.356 -4.89421 5.3079 -7.49155C31.3263 0.628755 33.2248 0.00534484 34.839 0.956816l0.0011 0.000655 0.0502 0.029692 0.0011 0.000649c1.5826 0.940118 1.9944 2.863118 1.3356 4.441428 -0.5985 1.43415 -1.2346 2.86834 -1.8616 4.23137 2.5179 0.08441 4.5462 0.19164 6.1183 0.29525 3.4497 0.22734 6.2031 2.84874 6.5293 6.36644 0.2504 2.7001 0.487 6.7003 0.487 12.1772 0 5.4768 -0.2366 9.4771 -0.487 12.1772 -0.3262 3.5176 -3.0796 6.139 -6.5293 6.3664 -3.3349 0.2198 -8.7227 0.4559 -16.4827 0.4559 -7.7601 0 -13.1479 -0.2361 -16.48276 -0.4559 -3.44968 -0.2274 -6.20314 -2.8488 -6.529329 -6.3664 -0.250377 -2.7001 -0.486958 -6.7004 -0.486958 -12.1772 0 -5.4768 0.236579 -9.4771 0.486956 -12.1772 0.326191 -3.5177 3.079641 -6.1391 6.529331 -6.36643 1.57146 -0.10358 3.59876 -0.21077 6.11536 -0.29516 -0.6271 -1.36306 -1.2632 -2.79728 -1.8617 -4.23147 -0.6588 -1.57831 -0.247 -3.50131 1.3356 -4.441427l0.0011 -0.000654 0.0502 -0.029691 0.0011 -0.000653c1.6142 -0.95147028 3.5127 -0.32806 4.5505 1.052905 1.9519 2.59735 3.8445 5.32321 5.3079 7.49156Zm16.1084 9.89722c-0.1159 -0.8303 -0.7763 -1.434 -1.5936 -1.4965 -2.0215 -0.1548 -6.3714 -0.402 -13.5322 -0.402 -7.1609 0 -11.5107 0.2472 -13.5322 0.402 -0.81736 0.0625 -1.47772 0.6662 -1.5936 1.4965 -0.21823 1.5636 -0.50987 4.5117 -0.50987 9.1012 0 4.5894 0.29164 7.5376 0.50987 9.1012 0.11588 0.8302 0.77624 1.4339 1.5936 1.4965 2.0215 0.1547 6.3713 0.4019 13.5322 0.4019 7.1608 0 11.5106 -0.2472 13.5322 -0.4019 0.8173 -0.0626 1.4777 -0.6663 1.5936 -1.4965 0.2182 -1.5636 0.5098 -4.5118 0.5098 -9.1012 0 -4.5895 -0.2916 -7.5376 -0.5098 -9.1012ZM7.78131 13.9472C11.0219 13.7336 16.3217 13.5 24.001 13.5c7.6792 0 12.979 0.2336 16.2196 0.4472 1.5067 0.0993 2.6665 1.2025 2.8095 2.7444 0.2382 2.5693 0.4699 6.446 0.4699 11.8079s-0.2317 9.2386 -0.4699 11.8078c-0.143 1.5419 -1.3028 2.6451 -2.8095 2.7445 -3.2406 0.2136 -8.5403 0.4472 -16.2196 0.4472s-12.9791 -0.2336 -16.21968 -0.4472c-1.50672 -0.0994 -2.66652 -1.2026 -2.8095 -2.7445 -0.23824 -2.5692 -0.46987 -6.4459 -0.46987 -11.8078s0.23163 -9.2386 0.46987 -11.8079c0.14298 -1.5418 1.30278 -2.6451 2.80949 -2.7444Z" clip-rule="evenodd" stroke-width="1"></path>
  </g>
</svg>
