<svg xmlns="http://www.w3.org/2000/svg" fill="none" viewBox="0 0 48 48">
  <g>
    <path fill="currentColor" fill-rule="evenodd" d="M18.3054 1.80503c-0.878 -1.16829 -2.469 -1.680461 -3.812 -0.888842l-0.0008 0.000435 -0.0444 0.026266 -0.0007 0.000437c-1.3182 0.783044 -1.6712 2.391024 -1.1142 3.725654 0.8607 2.06237 1.8096 4.12572 2.6697 5.91852 -3.805 0.0884 -6.72281 0.2307 -8.83164 0.3666 -3.23867 0.2086 -5.86241 2.6154 -6.175092 5.9107C0.741503 19.5498 0.5 23.5358 0.5 28.9994c0 5.4637 0.241504 9.4497 0.496271 12.1346 0.312689 3.2953 2.936429 5.7022 6.175099 5.9108 3.39893 0.2189 8.89943 0.4546 16.82863 0.4546s13.4297 -0.2357 16.8286 -0.4546c3.2387 -0.2086 5.8624 -2.6155 6.1751 -5.9108 0.2548 -2.6849 0.4963 -6.6709 0.4963 -12.1346 0 -5.4636 -0.2415 -9.4496 -0.4963 -12.1346 -0.3127 -3.2953 -2.9364 -5.7021 -6.1751 -5.9107 -2.1089 -0.1359 -5.0268 -0.2782 -8.832 -0.3666 0.86 -1.79281 1.8089 -3.85616 2.6697 -5.91852 0.557 -1.33463 0.2039 -2.94261 -1.1142 -3.725654l-0.0008 -0.000433 -0.0443 -0.026268 -0.0008 -0.000437c-1.343 -0.791619 -2.934 -0.279448 -3.812 0.888842 -2.2149 2.94734 -4.344 6.08279 -5.6944 8.12186 -1.3504 -2.03907 -3.4795 -5.17452 -5.6944 -8.12186ZM7.86197 42.036c2.87503 0.2037 8.11413 0.4634 16.13803 0.4634 8.0239 0 13.263 -0.2597 16.138 -0.4634 0.9964 -0.0706 1.7249 -0.7729 1.8298 -1.7033 0.251 -2.2256 0.5322 -5.9256 0.5322 -11.3333 0 -5.4077 -0.2812 -9.1077 -0.5322 -11.3333 -0.1049 -0.9304 -0.8335 -1.6327 -1.8298 -1.7033 -2.875 -0.2037 -8.1141 -0.4634 -16.138 -0.4634 -8.0239 0 -13.263 0.2597 -16.13803 0.4634 -0.99632 0.0706 -1.72483 0.7729 -1.82976 1.7033C5.78118 19.8917 5.5 23.5917 5.5 28.9994c0 5.4077 0.28118 9.1077 0.5322 11.3333 0.10494 0.9304 0.83345 1.6327 1.82977 1.7033Z" clip-rule="evenodd" stroke-width="3.429"></path>
  </g>
</svg>
