<svg xmlns="http://www.w3.org/2000/svg" viewBox="0 0 24 24" fill="none"><path d="M13.9999 2.25C14.9664 2.25 15.7499 3.0335 15.7499 4V5.5H8.24994V4C8.24994 3.0335 9.03344 2.25 9.99994 2.25H13.9999Z" fill="currentColor"/><path d="M13.5419 4.75C14.4757 4.74999 15.2367 4.75003 15.8564 4.81738C16.5037 4.88777 17.0661 5.03726 17.58 5.37988C18.0939 5.72243 18.4478 6.18371 18.7617 6.75391C19.0623 7.30012 19.3556 8.00309 19.7148 8.86523L20.3212 10.3213L21.5498 9.40039C21.881 9.15195 22.351 9.21873 22.5996 9.54981C22.848 9.88108 22.7813 10.351 22.4501 10.5996L21.0175 11.6738C21.6241 12.5833 22.3416 13.6605 22.5459 14.335C22.75 15.0094 22.7502 15.7155 22.75 16.8086V20.75C22.75 21.3023 22.3022 21.75 21.75 21.75H20C19.4477 21.75 19 21.3023 19 20.75V19.75C19 19.1977 18.5522 18.75 18 18.75H5.99995C5.44768 18.75 4.99995 19.1977 4.99995 19.75V20.75C4.99995 21.3023 4.55224 21.75 3.99995 21.75H2.24995C1.69769 21.75 1.24995 21.3023 1.24995 20.75V16.8086C1.24972 15.7155 1.24991 15.0094 1.45406 14.335C1.65827 13.6605 2.37578 12.5833 2.98238 11.6738L1.54976 10.5996C1.21869 10.351 1.15191 9.88106 1.40034 9.54981C1.64893 9.21869 2.11888 9.15194 2.45015 9.40039L3.67866 10.3213L4.28511 8.86523C4.64434 8.00305 4.93762 7.30013 5.23823 6.75391C5.55209 6.1837 5.90606 5.72244 6.41988 5.37988C6.93383 5.03724 7.49624 4.88777 8.14351 4.81738C8.76321 4.75002 9.52424 4.74999 10.458 4.75H13.5419ZM5.99995 14C5.44767 14 4.99995 14.4477 4.99995 15V15.0098C4.99995 15.5621 5.44767 16.0098 5.99995 16.0098C6.55224 16.0098 6.99995 15.5621 6.99995 15.0098V15C6.99995 14.4477 6.55224 14 5.99995 14ZM18 14C17.4477 14 17 14.4477 17 15V15.0098C17 15.5621 17.4477 16.0098 18 16.0098C18.5522 16.0098 19 15.5621 19 15.0098V15C19 14.4477 18.5522 14 18 14ZM10.5 6.25C9.5142 6.25 8.83398 6.25103 8.30464 6.30859C7.79391 6.36417 7.49362 6.46683 7.25191 6.62793C7.0101 6.78914 6.79959 7.02713 6.55171 7.47754C6.29501 7.94399 6.03236 8.57066 5.65327 9.48047L5.0273 10.9834L6.24605 11.25H17.7539L18.9726 10.9834L18.3457 9.48047C17.9666 8.57072 17.7039 7.94397 17.4472 7.47754C17.1994 7.02733 16.9897 6.78912 16.748 6.62793C16.5062 6.46673 16.2054 6.36417 15.6943 6.30859C15.165 6.25105 14.4855 6.25 13.5 6.25H10.5Z" fill="currentColor" fill-rule="evenodd" clip-rule="evenodd"/></svg>
