<svg xmlns="http://www.w3.org/2000/svg" viewBox="0 0 24 24" fill="none"><path d="M12.6991 2.75004C13.36 2.75004 13.8698 2.74046 14.3387 2.90434C14.6076 2.99831 14.8604 3.13322 15.0878 3.30473C15.4843 3.604 15.7593 4.03416 16.1259 4.58403L16.1483 4.61821C16.2455 4.76399 16.3575 4.93163 16.4598 5.07915C16.5151 5.15876 16.6259 5.30636 16.6669 5.36137C16.8515 5.55541 17.0934 5.68543 17.3573 5.73149C17.4487 5.74743 17.5553 5.75004 17.9481 5.75005C18.8772 5.75005 19.4972 5.74275 20.0233 5.89165C21.2762 6.24631 22.2555 7.22573 22.6102 8.47856C22.7591 9.00464 22.7518 9.62471 22.7518 10.5538V14.5645C22.7519 15.9275 22.7519 17.0267 22.6356 17.8916C22.5146 18.7917 22.2551 19.5495 21.6532 20.1514C21.0513 20.7533 20.2935 21.0128 19.3934 21.1338C18.5285 21.2501 17.4293 21.2501 16.0663 21.25H7.93738C6.57434 21.2501 5.47513 21.2501 4.61023 21.1338C3.71015 21.0128 2.95236 20.7533 2.35046 20.1514C1.7486 19.5495 1.48905 18.7917 1.36804 17.8916C1.25179 17.0267 1.2518 15.9275 1.25183 14.5645V10.5538C1.25183 9.62471 1.24451 9.00464 1.39343 8.47856C1.74812 7.22572 2.7275 6.24632 3.98034 5.89165C4.50644 5.74272 5.12647 5.75004 6.05554 5.75005C6.44835 5.75005 6.55493 5.74742 6.64636 5.73149C6.91024 5.68544 7.15213 5.55542 7.33679 5.36137C7.37772 5.3064 7.48859 5.15878 7.54382 5.07915C7.65424 4.91994 7.77558 4.73737 7.87781 4.58403C8.24441 4.03413 8.51938 3.60401 8.91589 3.30473C9.14326 3.13319 9.39605 2.99832 9.66492 2.90434C10.1339 2.74044 10.6437 2.75004 11.3046 2.75004H12.6991ZM15.9139 13.8731C15.5679 13.6459 15.1023 13.742 14.8749 14.0879C14.1937 15.1244 13.1433 15.75 12.0018 15.75C10.8604 15.75 9.8099 15.1244 9.12878 14.0879C8.90121 13.7421 8.43575 13.6457 8.08972 13.8731C7.74376 14.1005 7.64767 14.5661 7.87488 14.9122C8.78988 16.3044 10.281 17.25 12.0018 17.25C13.7227 17.25 15.2137 16.3045 16.1288 14.9122C16.3562 14.566 16.26 14.1006 15.9139 13.8731ZM9.00183 9.50004C8.44954 9.50004 8.00183 9.94776 8.00183 10.5V10.5098C8.00183 11.0621 8.44954 11.5098 9.00183 11.5098C9.55411 11.5098 10.0018 11.0621 10.0018 10.5098V10.5C10.0018 9.94776 9.55411 9.50004 9.00183 9.50004ZM15.0018 9.50004C14.4495 9.50004 14.0018 9.94776 14.0018 10.5V10.5098C14.0018 11.0621 14.4495 11.5098 15.0018 11.5098C15.5541 11.5098 16.0018 11.0621 16.0018 10.5098V10.5C16.0018 9.94776 15.5541 9.50004 15.0018 9.50004Z" fill="currentColor" fill-rule="evenodd" clip-rule="evenodd"/></svg>
