<svg xmlns="http://www.w3.org/2000/svg" viewBox="0 0 24 24" fill="none"><path opacity="0.4" d="M20.9092 7.1496C21.4475 6.61114 21.75 5.88074 21.75 5.11932C21.7499 3.53372 20.4645 2.24835 18.8789 2.24823C18.1175 2.24823 17.3871 2.55072 16.8486 3.08905L11.9697 7.96796C11.8291 8.10861 11.75 8.29932 11.75 8.49823C11.75 8.69714 11.8291 8.88785 11.9697 9.0285L14.9697 12.0285C15.2626 12.3214 15.7374 12.3214 16.0303 12.0285L20.9092 7.1496Z" fill="currentColor"/><path d="M20.0605 8.00018L16 3.93964L14.9395 5.00018L19 9.06073L20.0605 8.00018Z" fill="currentColor"/><path opacity="0.4" d="M12.065 11.9363C9.81948 9.69076 6.17965 9.69076 3.93414 11.9363C1.68862 14.1818 1.68862 17.8216 3.93414 20.0671C6.17965 22.3126 9.81948 22.3126 12.065 20.0671C14.3105 17.8216 14.3105 14.1818 12.065 11.9363Z" fill="currentColor"/><path d="M8 14.7482C8.69035 14.7482 9.25 15.3079 9.25 15.9982C9.25 16.6886 8.69035 17.2482 8 17.2482C7.30964 17.2482 6.75 16.6886 6.75 15.9982C6.75 15.3079 7.30964 14.7482 8 14.7482Z" fill="currentColor"/><path d="M15.1939 13.7146C15.3777 14.2352 15.9495 14.5086 16.4703 14.3249C16.9909 14.1411 17.2643 13.5693 17.0806 13.0486C16.5978 11.6796 15.8089 10.395 14.7164 9.30247C13.6238 8.20997 12.3392 7.42103 10.9703 6.93821C10.4495 6.75459 9.8777 7.02794 9.6939 7.54856C9.51025 8.06929 9.78362 8.64112 10.3042 8.82493C11.0949 9.10377 11.849 9.51306 12.5386 10.0486L11.2925 11.2947C11.563 11.4843 11.8233 11.6985 12.065 11.9402C12.3054 12.1806 12.5187 12.4387 12.7076 12.7077L13.9556 11.4597C14.4988 12.1546 14.9124 12.9163 15.1939 13.7146Z" fill="currentColor"/></svg>
