<svg xmlns="http://www.w3.org/2000/svg" viewBox="0 0 24 24" fill="none"><path d="M20.9094 7.14937C21.4476 6.61095 21.7503 5.88038 21.7503 5.1191C21.7501 3.53371 20.4645 2.24835 18.8792 2.24801C18.1179 2.24801 17.3873 2.55067 16.8489 3.08883L16.0003 3.93746L20.0608 7.99801L20.9094 7.14937ZM3.93484 20.0673C6.1804 22.3123 9.82038 22.3127 12.0657 20.0673C14.0697 18.0631 14.2828 14.9489 12.7093 12.706L13.9563 11.4589C14.4986 12.1532 14.9124 12.9136 15.1936 13.7109C15.3775 14.2313 15.9494 14.5047 16.47 14.3213C16.9906 14.1375 17.2638 13.5656 17.0803 13.0449C16.9077 12.5555 16.6953 12.0771 16.4446 11.6142L19.0003 9.05855L14.9397 4.99801L12.3792 7.55855C11.9229 7.31287 11.4518 7.10448 10.97 6.93453C10.4493 6.75092 9.87743 7.02427 9.69363 7.54488C9.51022 8.06552 9.78347 8.63748 10.304 8.82125C11.0955 9.10041 11.8511 9.50948 12.5413 10.0459L11.2952 11.292C9.05236 9.71867 5.93902 9.93256 3.93484 11.9365C1.68932 14.182 1.68932 17.8218 3.93484 20.0673ZM8.00027 17.248C7.30992 17.248 6.75027 16.6884 6.75027 15.998C6.75033 15.3077 7.30996 14.748 8.00027 14.748C8.69038 14.7482 9.25021 15.3079 9.25027 15.998C9.25027 16.6882 8.69042 17.2478 8.00027 17.248Z" fill="currentColor" fill-rule="evenodd" clip-rule="evenodd"/></svg>
