<svg xmlns="http://www.w3.org/2000/svg" viewBox="0 0 24 24" fill="none"><path opacity="0.4" d="M18.9406 2.6171C15.7894 0.83368 11.7533 1.88686 9.92496 4.99112L2.11539 18.2489C1.36024 19.5316 1.81544 21.1651 3.10758 21.8964C4.39118 22.6225 6.039 22.197 6.78922 20.9237L14.5978 7.66593C14.9257 7.10916 15.6656 6.907 16.2492 7.23722C16.8243 7.56271 17.0093 8.27051 16.6867 8.81827C15.9315 10.101 16.3867 11.7345 17.6789 12.4657C18.9625 13.1918 20.6103 12.7663 21.3605 11.4931C23.1942 8.37982 22.1002 4.40536 18.9406 2.6171Z" fill="currentColor"/><path d="M7.40509 19.8751L6.78888 20.923C6.653 21.1535 6.48687 21.3553 6.29962 21.5284L4.37384 14.4132L5.43732 12.6066L7.40509 19.8751Z" fill="currentColor"/><path d="M10.3856 14.8156L9.32599 16.6134L7.3299 9.39465L8.38849 7.5968L10.3856 14.8156Z" fill="currentColor"/><path d="M13.3035 9.86047L12.242 11.6622L10.2684 4.46594C10.6184 3.98354 11.0269 3.56168 11.4774 3.20227L13.3035 9.86047Z" fill="currentColor"/><path d="M17.0057 8.02454C17.0897 8.35074 16.9432 8.67889 16.6707 8.8468C16.6762 8.83722 16.6807 8.82705 16.6863 8.8175C17.009 8.26974 16.824 7.56194 16.2488 7.23645C15.9251 7.05334 15.5532 7.03337 15.2303 7.14758L13.8983 1.98157C14.3835 1.85106 14.8836 1.77558 15.3885 1.75598L17.0057 8.02454Z" fill="currentColor"/></svg>
