<svg xmlns="http://www.w3.org/2000/svg" viewBox="0 0 24 24" fill="none"><path d="M6.29886 21.5292C5.45215 22.3117 4.15826 22.4908 3.10746 21.8964C1.81551 21.1652 1.3605 19.5316 2.11527 18.249L4.37406 14.414L6.29886 21.5292ZM9.32621 16.6142L7.40531 19.8759L5.43754 12.6074L7.33011 9.39545L9.32621 16.6142ZM12.2422 11.663L10.3858 14.8163L8.38871 7.5976L9.92484 4.99115C10.032 4.80914 10.1468 4.63352 10.2686 4.46576L12.2422 11.663ZM15.3887 1.7558C16.592 1.70912 17.8218 1.98406 18.9405 2.61713C22.1001 4.40539 23.194 8.37985 21.3604 11.4931C20.6101 12.766 18.9622 13.1917 17.6787 12.4658C16.3962 11.7399 15.939 10.1249 16.6709 8.84662C16.9432 8.67866 17.0899 8.35138 17.0059 8.02533L15.3887 1.7558ZM15.2305 7.14838C14.9715 7.24002 14.7436 7.41815 14.5977 7.66596L13.3037 9.86127L11.4776 3.20209C12.1957 2.62923 13.022 2.21694 13.8975 1.98139L15.2305 7.14838Z" fill="currentColor" fill-rule="evenodd" clip-rule="evenodd"/></svg>
