<svg xmlns="http://www.w3.org/2000/svg" viewBox="0 0 24 24" fill="none"><path opacity="0.4" d="M11.5 1.75C16.3355 1.75 20.2498 5.68637 20.25 10.5352C20.25 12.3318 19.7816 13.8711 18.876 15.2451H14.25C13.0074 15.2451 12 16.2525 12 17.4951C12 18.7378 13.0074 19.7451 14.25 19.7451H14.5928C14.0428 20.3363 13.5014 20.9517 13.0391 21.5303C12.6436 22.0251 12.0538 22.25 11.5 22.25C10.9462 22.25 10.3564 22.0251 9.96094 21.5303C8.76715 20.0364 7.04977 18.2927 6.00391 17.3711C3.8657 15.4868 2.75 13.3171 2.75 10.5352C2.75021 5.68637 6.66451 1.75 11.5 1.75Z" fill="currentColor"/><path d="M14.5 10.5C14.5 12.1569 13.1569 13.5 11.5 13.5C9.84315 13.5 8.5 12.1569 8.5 10.5C8.5 8.84315 9.84315 7.5 11.5 7.5C13.1569 7.5 14.5 8.84315 14.5 10.5Z" fill="currentColor"/><path d="M20.25 16.4951C20.8023 16.4951 21.25 16.9428 21.25 17.4951C21.25 18.0474 20.8023 18.4951 20.25 18.4951H14.25C13.6977 18.4951 13.25 18.0474 13.25 17.4951C13.25 16.9428 13.6977 16.4951 14.25 16.4951H20.25Z" fill="currentColor"/></svg>
