<svg xmlns="http://www.w3.org/2000/svg" viewBox="0 0 24 24" fill="none"><path d="M11.5001 1.75C16.3356 1.75 20.2499 5.68637 20.2501 10.5352C20.2501 12.3318 19.7817 13.8711 18.8761 15.2451H14.2501C13.0075 15.2451 12.0001 16.2525 12.0001 17.4951C12.0001 18.7378 13.0075 19.7451 14.2501 19.7451H14.5929C14.0429 20.3363 13.5015 20.9517 13.0392 21.5303C12.6438 22.0251 12.0539 22.25 11.5001 22.25C10.9463 22.25 10.3565 22.0251 9.96106 21.5303C8.76727 20.0364 7.0499 18.2927 6.00403 17.3711C3.86583 15.4868 2.75012 13.3171 2.75012 10.5352C2.75033 5.68637 6.66463 1.75 11.5001 1.75ZM11.5001 7.5C9.84327 7.5 8.50012 8.84315 8.50012 10.5C8.50012 12.1569 9.84327 13.5 11.5001 13.5C13.157 13.5 14.5001 12.1569 14.5001 10.5C14.5001 8.84315 13.157 7.5 11.5001 7.5Z" fill="currentColor"/><path d="M20.2501 16.4951C20.8024 16.4951 21.2501 16.9428 21.2501 17.4951C21.2501 18.0474 20.8024 18.4951 20.2501 18.4951H14.2501C13.6978 18.4951 13.2501 18.0474 13.2501 17.4951C13.2501 16.9428 13.6978 16.4951 14.2501 16.4951H20.2501Z" fill="currentColor"/></svg>
