<svg xmlns="http://www.w3.org/2000/svg" viewBox="0 0 24 24" fill="none"><path opacity="0.4" d="M21.751 12.75C21.7489 14.4982 21.732 15.9084 21.5801 17.0381C21.4041 18.3464 21.0354 19.3904 20.2139 20.2119C19.3924 21.0334 18.3484 21.4022 17.04 21.5781C15.7616 21.75 14.1241 21.75 12.0439 21.75H11.96C9.87981 21.75 8.24228 21.75 6.96387 21.5781C5.65551 21.4022 4.61153 21.0334 3.79004 20.2119C2.96855 19.3904 2.59979 18.3464 2.42383 17.0381C2.27194 15.9084 2.25498 14.4982 2.25293 12.75H21.751Z" fill="currentColor"/><path d="M16.999 16.25C17.5513 16.25 17.999 16.6977 17.999 17.25C17.999 17.8023 17.5513 18.25 16.999 18.25L10.999 18.25C10.4467 18.25 9.99902 17.8023 9.99902 17.25C9.99902 16.6977 10.4467 16.25 10.999 16.25L16.999 16.25Z" fill="currentColor"/><path d="M6.99902 16.25C7.55131 16.25 7.99902 16.6977 7.99902 17.25C7.99902 17.8023 7.5513 18.25 6.99902 18.25C6.44674 18.25 5.99902 17.8023 5.99902 17.25C5.99902 16.6977 6.44674 16.25 6.99902 16.25Z" fill="currentColor"/><path opacity="0.4" d="M12.0439 2.25C14.1241 2.24999 15.7616 2.25 17.04 2.42188C18.3484 2.59783 19.3924 2.9666 20.2139 3.78809C21.0354 4.60957 21.4041 5.65356 21.5801 6.96191C21.732 8.09163 21.7489 9.50179 21.751 11.25H2.25293C2.25498 9.50179 2.27194 8.09163 2.42383 6.96191C2.59979 5.65356 2.96855 4.60957 3.79004 3.78809C4.61153 2.9666 5.65551 2.59783 6.96387 2.42188C8.24228 2.25 9.87981 2.24999 11.96 2.25H12.0439Z" fill="currentColor"/><path d="M16.999 5.75C17.5513 5.75 17.999 6.19772 17.999 6.75C17.999 7.30229 17.5513 7.75 16.999 7.75L10.999 7.75C10.4467 7.75 9.99902 7.30228 9.99902 6.75C9.99902 6.19772 10.4467 5.75 10.999 5.75L16.999 5.75Z" fill="currentColor"/><path d="M6.99902 5.75C7.55131 5.75 7.99902 6.19772 7.99902 6.75C7.99902 7.30229 7.5513 7.75 6.99902 7.75C6.44674 7.75 5.99902 7.30228 5.99902 6.75C5.99902 6.19772 6.44674 5.75 6.99902 5.75Z" fill="currentColor"/></svg>
