<svg xmlns="http://www.w3.org/2000/svg" viewBox="0 0 24 24" fill="none"><path d="M4.2543 12C4.2543 11.0335 5.0378 10.25 6.0043 10.25C6.9708 10.25 7.7543 11.0335 7.7543 12C7.7543 12.9665 6.9708 13.75 6.0043 13.75C5.0378 13.75 4.2543 12.9665 4.2543 12ZM10.2543 12C10.2543 11.0335 11.0378 10.25 12.0043 10.25C12.9708 10.25 13.7543 11.0335 13.7543 12C13.7543 12.9665 12.9708 13.75 12.0043 13.75C11.0378 13.75 10.2543 12.9665 10.2543 12ZM16.2543 12C16.2543 11.0335 17.0378 10.25 18.0043 10.25C18.9708 10.25 19.7543 11.0335 19.7543 12C19.7543 12.9665 18.9708 13.75 18.0043 13.75C17.0378 13.75 16.2543 12.9665 16.2543 12Z" fill="currentColor"/></svg>
