<svg xmlns="http://www.w3.org/2000/svg" viewBox="0 0 24 24" fill="none"><path d="M8.10032 1.25C8.6388 1.25 9.07532 1.68754 9.07532 2.22727V3.21284C9.65322 3.20453 10.2787 3.20453 10.954 3.20454H13.0467C13.7219 3.20453 14.3474 3.20453 14.9253 3.21284V2.22727C14.9253 1.68754 15.3618 1.25 15.9003 1.25C16.4388 1.25 16.8753 1.68754 16.8753 2.22727V3.29947C17.0516 3.31556 17.2213 3.33437 17.3846 3.35638C18.5547 3.51407 19.54 3.85141 20.3225 4.63573C21.105 5.42004 21.4415 6.40758 21.5988 7.58045C21.6829 8.20706 21.7203 8.92803 21.737 9.75H2.26367C2.28033 8.92803 2.31775 8.20706 2.4018 7.58045C2.55912 6.40758 2.89569 5.42004 3.67818 4.63573C4.46067 3.85141 5.4459 3.51407 6.61604 3.35638C6.77934 3.33437 6.94906 3.31556 7.12532 3.29947V2.22727C7.12532 1.68754 7.56184 1.25 8.10032 1.25Z" fill="currentColor"/><path opacity="0.4" d="M21.75 11.9285V14.026C21.75 15.808 21.75 17.2444 21.5985 18.3741C21.4412 19.547 21.1046 20.5345 20.3221 21.3188C19.5397 22.1031 18.5544 22.4405 17.3843 22.5982C16.2572 22.75 14.8242 22.75 13.0463 22.75H10.9537C9.17581 22.75 7.74279 22.75 6.61573 22.5982C5.44558 22.4405 4.46035 22.1031 3.67786 21.3188C2.89537 20.5345 2.5588 19.547 2.40148 18.3741C2.24996 17.2444 2.24998 15.8081 2.25 14.0261V14.0261V11.9285V11.9284C2.24999 11.1349 2.24998 10.4099 2.26335 9.75H4.21386C4.20045 10.3958 4.20001 11.1378 4.20001 12V13.9545C4.20001 15.8249 4.20208 17.1294 4.3341 18.1137C4.46235 19.0698 4.69693 19.5761 5.05673 19.9367C5.41652 20.2974 5.92166 20.5325 6.87557 20.6611C7.85752 20.7934 9.15897 20.7955 11.025 20.7955H12.975C14.8411 20.7955 16.1425 20.7934 17.1245 20.6611C18.0784 20.5325 18.5835 20.2974 18.9433 19.9367C19.3031 19.5761 19.5377 19.0698 19.6659 18.1137C19.7979 17.1294 19.8 15.8249 19.8 13.9545V12C19.8 11.1378 19.7996 10.3958 19.7862 9.75H21.7367C21.75 10.4099 21.75 11.1349 21.75 11.9285Z" fill="currentColor"/><path d="M8 15.0809C8.00003 13.7366 8.71943 12.5614 9.78906 11.9168C10.2621 11.632 10.8761 11.7847 11.1611 12.2577C11.4459 12.7306 11.294 13.3447 10.8213 13.6297C10.3272 13.9274 10 14.4665 10 15.0809C10 16.0155 10.7577 16.7733 11.6924 16.7733C12.3068 16.7733 12.8459 16.446 13.1436 15.952C13.4286 15.4793 14.0427 15.3274 14.5156 15.6122C14.9886 15.8971 15.1413 16.5112 14.8564 16.9842C14.2119 18.0539 13.0367 18.7733 11.6924 18.7733C9.65318 18.7733 8 17.1201 8 15.0809Z" fill="currentColor"/><path opacity="0.4" d="M13.6025 12.2783C14.1067 12.3297 14.5 12.7558 14.5 13.2734C14.5 13.8257 14.0523 14.2734 13.5 14.2734C12.9477 14.2734 12.5 13.8257 12.5 13.2734C12.5 12.7212 12.9477 12.2734 13.5 12.2734L13.6025 12.2783Z" fill="currentColor"/></svg>
