<svg xmlns="http://www.w3.org/2000/svg" viewBox="0 0 24 24" fill="none"><path d="M17.5 21.75C18.8807 21.75 20 20.6307 20 19.25V16.25C20 14.8693 18.8807 13.75 17.5 13.75H17V11.75H18.7451C18.9743 11.75 19.1508 11.7501 19.3076 11.7324C20.5826 11.5888 21.5888 10.5826 21.7324 9.30762C21.7501 9.15082 21.75 8.97434 21.75 8.74512V8.65723C21.75 8.04881 21.7501 7.67782 21.7139 7.35645C21.4135 4.69063 19.3094 2.5865 16.6436 2.28613C16.3222 2.24994 15.9512 2.24997 15.3428 2.25H6.95313C6.05236 2.24998 5.30099 2.24996 4.70508 2.33008C4.07747 2.41451 3.51102 2.60031 3.05566 3.05566C2.60031 3.51102 2.41451 4.07747 2.33008 4.70508C2.24996 5.30099 2.24998 6.05236 2.25 6.95312V7.04688C2.24998 7.94764 2.24996 8.69901 2.33008 9.29492C2.41451 9.92253 2.60031 10.489 3.05566 10.9443C3.51102 11.3997 4.07747 11.5855 4.70508 11.6699C5.30099 11.75 6.05236 11.75 6.95313 11.75L15 11.75V13.75H14.5C13.1193 13.75 12 14.8693 12 16.25V19.25C12 20.6307 13.1193 21.75 14.5 21.75L17.5 21.75ZM6 8C5.44772 8 5 7.55228 5 7C5 6.44772 5.44772 6 6 6L10 6C10.5523 6 11 6.44771 11 7C11 7.55228 10.5523 8 10 8L6 8ZM14.5 19.75C14.2239 19.75 14 19.5261 14 19.25V16.25C14 15.9739 14.2239 15.75 14.5 15.75H15V19.75H14.5ZM17 19.75V15.75H17.5C17.7761 15.75 18 15.9739 18 16.25V19.25C18 19.5261 17.7761 19.75 17.5 19.75H17Z" fill="currentColor"/></svg>
