<svg xmlns="http://www.w3.org/2000/svg" viewBox="0 0 24 24" fill="none"><path d="M11.6233 16.3518C11.8957 16.1922 12.246 16.219 12.4924 16.4319C12.7943 16.693 13.1948 16.7803 13.6184 16.7395C14.0633 16.6966 14.4051 16.5243 14.5119 16.4319C14.8252 16.1612 15.2986 16.1959 15.5696 16.509C15.8402 16.8223 15.8055 17.2957 15.4924 17.5667C15.0988 17.907 14.4411 18.1672 13.7619 18.2327C13.2182 18.285 12.5852 18.218 12.0022 17.9036C11.4191 18.218 10.7862 18.285 10.2424 18.2327C9.56322 18.1672 8.90551 17.907 8.51194 17.5667C8.19882 17.2957 8.16413 16.8223 8.43479 16.509C8.7057 16.1959 9.17916 16.1612 9.49241 16.4319C9.59926 16.5243 9.94101 16.6966 10.386 16.7395C10.8095 16.7803 11.2101 16.693 11.5119 16.4319L11.6233 16.3518Z" fill="currentColor"/><path d="M22.3194 12.2348C22.0463 11.8117 21.6396 11.4827 21.1162 11.3354C20.409 11.2034 19.6698 11.4074 19.3887 11.5258C18.9023 11.7857 18.5215 12.2075 18.3057 12.6987L18.2813 12.7632L17.7813 14.2632C17.6505 14.6559 17.8633 15.0813 18.2559 15.2124C18.6487 15.3432 19.073 15.1304 19.2041 14.7378L19.6875 13.2866C19.8371 12.9619 20.1452 12.7501 20.4902 12.7505C20.7771 12.751 20.9419 12.8675 21.0586 13.0483C21.1952 13.26 21.2724 13.586 21.2442 13.9409C21.1633 14.9549 20.908 15.7934 20.4746 16.3618C20.0689 16.8936 19.4632 17.2504 18.4932 17.2505C18.2442 17.2506 18.0135 17.3741 17.875 17.5757L17.8213 17.6674C16.7051 19.9187 14.6406 21.1501 12 21.2485C9.35962 21.1499 7.29482 19.9187 6.17873 17.6674C6.0521 17.4122 5.79176 17.2505 5.50685 17.2505C4.537 17.2503 3.93103 16.8936 3.52541 16.3618C3.09217 15.7934 2.8367 14.9548 2.75587 13.9409C2.72761 13.5862 2.80493 13.26 2.94142 13.0483C3.05806 12.8675 3.22313 12.7512 3.50978 12.7505C3.85483 12.7498 4.16177 12.962 4.31154 13.2866L4.79591 14.7378C4.92691 15.1303 5.35144 15.3429 5.74416 15.2124C6.13713 15.0815 6.34965 14.6561 6.21876 14.2632L5.71876 12.7632L5.69435 12.6987L5.62111 12.5473C5.39703 12.1199 5.04584 11.7555 4.60841 11.5229C4.32739 11.4054 3.58885 11.2034 2.88283 11.3354C2.36018 11.4829 1.95343 11.8121 1.68068 12.2348C1.32728 12.7827 1.21259 13.4557 1.26076 14.06C1.35333 15.2213 1.6554 16.3833 2.33205 17.271C2.95744 18.0912 3.86167 18.6193 5.04494 18.728C6.47911 21.2804 8.98434 22.6474 11.9746 22.7505C11.9914 22.751 12.0087 22.751 12.0254 22.7505C15.0156 22.6475 17.5198 21.2802 18.9541 18.728C20.1379 18.6196 21.0424 18.0914 21.668 17.271C22.3447 16.3833 22.6467 15.2214 22.7393 14.06C22.7875 13.4556 22.6728 12.7828 22.3194 12.2348Z" fill="currentColor"/><path opacity="0.4" d="M21.6592 8.69849C20.5171 4.64727 17.1955 1.24931 12 1.24927C6.80456 1.24939 3.48285 4.6473 2.34081 8.69849C2.18112 9.26516 2.2432 9.84614 2.44725 10.3518C2.45049 10.3598 2.45351 10.3683 2.45702 10.3762L2.8828 11.3342C3.58882 11.2022 4.32736 11.4042 4.60839 11.5217L4.5869 11.4739C6.87701 9.22433 9.85958 8.74929 12.001 8.74927C14.1418 8.74932 17.1223 9.22486 19.4121 11.4729L19.3887 11.5247C19.6698 11.4062 20.4089 11.2022 21.1162 11.3342L21.543 10.3762C21.5465 10.3683 21.5495 10.3598 21.5527 10.3518C21.7568 9.84611 21.8189 9.2652 21.6592 8.69849Z" fill="currentColor"/><path d="M12.0013 5.74927C11.4112 5.7493 10.8451 5.94695 10.4368 6.30981C10.149 6.56575 9.9176 6.92418 9.81281 7.40845C10.604 7.29119 11.3477 7.24927 12.0013 7.24927C12.6547 7.24928 13.3978 7.29222 14.1888 7.40942C14.0841 6.92478 13.8537 6.56589 13.5657 6.30981C13.1575 5.94693 12.5913 5.74933 12.0013 5.74927Z" fill="currentColor" fill-rule="evenodd" clip-rule="evenodd"/><path d="M9.00049 11.9993C9.55277 11.9993 10.0005 12.447 10.0005 12.9993C10.0005 13.5516 9.55277 13.9993 9.00049 13.9993C8.4482 13.9993 8.00049 13.5516 8.00049 12.9993C8.00049 12.447 8.4482 11.9993 9.00049 11.9993Z" fill="currentColor"/><path d="M15.0005 11.9993C15.5528 11.9993 16.0005 12.447 16.0005 12.9993C16.0005 13.5516 15.5528 13.9993 15.0005 13.9993C14.4482 13.9993 14.0005 13.5516 14.0005 12.9993C14.0005 12.447 14.4482 11.9993 15.0005 11.9993Z" fill="currentColor"/></svg>
