<svg xmlns="http://www.w3.org/2000/svg" viewBox="0 0 24 24" fill="none"><path d="M11.9993 1.24976C17.1948 1.24976 20.5164 4.6478 21.6585 8.69897C21.8182 9.26571 21.7562 9.84659 21.5521 10.3523C21.5489 10.3603 21.5458 10.3689 21.5423 10.3767L21.1155 11.3347C21.6388 11.482 22.0456 11.8112 22.3187 12.2341C22.6722 12.7821 22.7868 13.4549 22.7386 14.0593C22.646 15.2207 22.344 16.3826 21.6673 17.2703C21.0417 18.0905 20.1372 18.6189 18.9534 18.7273C17.5191 21.2793 15.0149 22.6468 12.0247 22.7498C12.0081 22.7503 11.9905 22.7503 11.9739 22.7498C8.98389 22.6466 6.47833 21.2796 5.04425 18.7273C3.86124 18.6185 2.95665 18.0903 2.33136 17.2703C1.65486 16.3826 1.35263 15.2205 1.26007 14.0593C1.21192 13.4551 1.32673 12.782 1.67999 12.2341C1.95266 11.8115 2.35974 11.4823 2.88214 11.3347L2.45636 10.3767C2.45289 10.3689 2.44981 10.3603 2.4466 10.3523C2.24263 9.84672 2.18054 9.26552 2.34015 8.69897C3.48215 4.64792 6.80422 1.25013 11.9993 1.24976ZM12.0003 8.74976C9.85897 8.74987 6.87611 9.22505 4.58624 11.4744L4.60773 11.5222C5.04506 11.7548 5.39634 12.1193 5.62042 12.5466L5.69367 12.698L5.71808 12.7625L6.21808 14.2625C6.34897 14.6554 6.13645 15.0808 5.74347 15.2117C5.35093 15.3418 4.92616 15.1294 4.79523 14.7371L4.31085 13.2859C4.16104 12.9615 3.85406 12.7491 3.5091 12.7498C3.22286 12.7507 3.05729 12.8669 2.94074 13.0476C2.80438 13.2593 2.72695 13.5857 2.75519 13.9402C2.836 14.9539 3.09163 15.7927 3.52472 16.3611C3.93025 16.8928 4.53671 17.2494 5.50617 17.2498C5.79098 17.2498 6.05136 17.4117 6.17804 17.6667C7.29404 19.9178 9.35926 21.1491 11.9993 21.2478C14.6398 21.1494 16.7044 19.9179 17.8206 17.6667L17.8743 17.575C18.0127 17.3736 18.2438 17.2502 18.4925 17.2498C19.4623 17.2497 20.0682 16.8927 20.4739 16.3611C20.9073 15.7927 21.1626 14.9542 21.2435 13.9402C21.2718 13.5853 21.1945 13.2593 21.0579 13.0476C20.9412 12.867 20.7763 12.7503 20.4896 12.7498C20.1448 12.7496 19.8363 12.9614 19.6868 13.2859L19.2034 14.7371C19.0722 15.1296 18.6479 15.3425 18.2552 15.2117C17.863 15.0804 17.6501 14.655 17.7806 14.2625L18.2806 12.7625L18.305 12.698C18.5208 12.207 18.9018 11.785 19.388 11.5251L19.4114 11.4734C17.1217 9.22564 14.141 8.74981 12.0003 8.74976ZM14.512 16.4324C14.8253 16.1618 15.2988 16.1964 15.5696 16.5095C15.8402 16.8227 15.8055 17.2962 15.4925 17.5671C15.099 17.9074 14.4411 18.1677 13.762 18.2332C13.2183 18.2855 12.5853 18.2184 12.0023 17.9041C11.4193 18.2185 10.7862 18.2855 10.2425 18.2332C9.56337 18.1677 8.90561 17.9074 8.51203 17.5671C8.19891 17.2962 8.16422 16.8228 8.43488 16.5095C8.7058 16.1965 9.17928 16.1617 9.49249 16.4324C9.59946 16.5248 9.94124 16.6971 10.386 16.74C10.8095 16.7807 11.2102 16.6935 11.512 16.4324L11.6234 16.3523C11.8957 16.1927 12.2461 16.2195 12.4925 16.4324C12.7943 16.6935 13.195 16.7808 13.6185 16.74C14.0633 16.697 14.4052 16.5248 14.512 16.4324ZM9.00031 11.9998C9.55259 11.9998 10.0003 12.4475 10.0003 12.9998C10.0003 13.552 9.55259 13.9998 9.00031 13.9998C8.44806 13.9997 8.00031 13.552 8.00031 12.9998C8.00031 12.4475 8.44806 11.9998 9.00031 11.9998ZM15.0003 11.9998C15.5526 11.9998 16.0003 12.4475 16.0003 12.9998C16.0003 13.552 15.5526 13.9998 15.0003 13.9998C14.4481 13.9997 14.0003 13.552 14.0003 12.9998C14.0003 12.4475 14.4481 11.9998 15.0003 11.9998ZM12.0003 5.74976C11.4105 5.74994 10.844 5.94758 10.4359 6.3103C10.1482 6.56622 9.91658 6.92487 9.81183 7.40894C10.6027 7.29172 11.3469 7.24979 12.0003 7.24976C12.6536 7.24977 13.3971 7.29278 14.1878 7.40991C14.0831 6.92534 13.8527 6.56636 13.5648 6.3103C13.1565 5.94764 12.5902 5.74982 12.0003 5.74976Z" fill="currentColor" fill-rule="evenodd" clip-rule="evenodd"/></svg>
