<svg xmlns="http://www.w3.org/2000/svg" viewBox="0 0 24 24" fill="none"><path d="M1.29293 1.29293C1.68344 0.902399 2.31647 0.902399 2.70699 1.29293L22.707 21.293C23.0975 21.6835 23.0975 22.3165 22.707 22.707C22.3165 23.0975 21.6835 23.0975 21.293 22.707L20.1855 21.5996C19.6084 21.6674 18.8955 21.6689 18.0527 21.6689H15.8594C15.799 21.6688 15.75 21.62 15.75 21.5596V17.1641L14.25 15.6641V20.9209C14.2498 21.1348 14.0295 21.2739 13.8379 21.1787L10.0234 19.2822C9.64472 19.094 9.36372 18.9563 9.14254 18.8555C8.94446 18.7652 8.84552 18.7196 8.7978 18.6455C8.75015 18.5714 8.74996 18.4701 8.74996 18.2676V10.1641L7.24996 8.66401V18.3965C7.24996 18.5855 7.24975 18.6801 7.20601 18.752C7.16222 18.8237 7.0715 18.8704 6.89058 18.9639C6.65432 19.086 6.40118 19.2333 6.11811 19.3975C5.49935 19.7565 4.92775 20.088 4.5019 20.2803C4.07118 20.4748 3.60333 20.623 3.11031 20.5352C2.577 20.44 2.09844 20.1528 1.75875 19.7314C1.44718 19.3449 1.34371 18.8667 1.29684 18.3906C1.25043 17.9191 1.24995 17.3159 1.24996 16.5869V8.34859C1.24995 7.79749 1.24959 7.33066 1.28707 6.9443C1.32688 6.53403 1.41352 6.15551 1.62008 5.79293C1.8271 5.42954 2.10813 5.16374 2.44038 4.92379C2.62729 4.78882 2.84618 4.65251 3.09176 4.50582L1.29293 2.70699C0.902399 2.31647 0.902399 1.68344 1.29293 1.29293Z" fill="currentColor"/><path opacity="0.4" d="M17.8085 5.16925C18.7062 5.16922 19.4568 5.1694 20.0527 5.25129C20.6833 5.33798 21.2513 5.52886 21.706 5.99347C22.1585 6.456 22.3419 7.03043 22.4257 7.6673C22.5054 8.27295 22.5058 9.03662 22.5058 9.95638V16.7992C22.5058 17.7025 22.506 18.4556 22.4306 19.056L15.5058 12.1322V5.34113C15.5058 5.24671 15.5823 5.16944 15.6767 5.16925H17.8085ZM8.64154 2.29132C8.77024 2.20726 8.91628 2.26375 9.20795 2.37629C9.68116 2.55887 10.2294 2.83172 10.8984 3.16437L13.6728 4.54328C13.8346 4.62375 13.9159 4.66413 13.9609 4.73664C14.0058 4.80918 14.0058 4.89982 14.0058 5.08039V10.6322L8.5058 5.13215V2.89582C8.5058 2.55808 8.50585 2.38895 8.6308 2.29914L8.64154 2.29132ZM6.30072 2.47004C6.57556 2.3431 6.71335 2.27959 6.84369 2.34699C6.8587 2.35475 6.87625 2.36689 6.88959 2.37726C7.00543 2.46734 7.0058 2.63083 7.0058 2.95832V3.63215L5.99408 2.62043C6.09981 2.5663 6.20183 2.51571 6.30072 2.47004Z" fill="currentColor"/></svg>
