<svg xmlns="http://www.w3.org/2000/svg" viewBox="0 0 24 24" fill="none"><path opacity="0.4" d="M22.75 11.0645V11V9V8.93551C22.75 7.57247 22.7501 6.47331 22.6338 5.6084C22.5128 4.70829 22.2533 3.95055 21.6514 3.34863C21.0495 2.74672 20.2917 2.48723 19.3916 2.36621C18.5267 2.24995 17.4275 2.24997 16.0644 2.25H16H8H7.93562C6.57252 2.24997 5.47333 2.24995 4.6084 2.36621C3.70829 2.48723 2.95055 2.74672 2.34863 3.34863C1.74672 3.95055 1.48723 4.70829 1.36621 5.6084C1.24995 6.47333 1.24997 7.57252 1.25 8.93562V9V11V11.0644C1.24997 12.4275 1.24995 13.5267 1.36621 14.3916C1.48723 15.2917 1.74672 16.0495 2.34863 16.6514C2.95055 17.2533 3.70829 17.5128 4.6084 17.6338C5.47332 17.7501 6.5725 17.75 7.93557 17.75H8H16H16.0644C17.4275 17.75 18.5267 17.7501 19.3916 17.6338C20.2917 17.5128 21.0495 17.2533 21.6514 16.6514C22.2533 16.0495 22.5128 15.2917 22.6338 14.3916C22.7501 13.5267 22.75 12.4275 22.75 11.0645Z" fill="currentColor"/><path d="M16.6533 7.24256C16.235 6.88201 15.6028 6.92879 15.2422 7.34705C14.8816 7.76536 14.9284 8.3976 15.3467 8.75818L16.5732 9.81482C16.6545 9.88482 16.7243 9.94616 16.7861 10.0004C16.7243 10.0546 16.6545 10.1159 16.5732 10.1859L15.3467 11.2426C14.9284 11.6031 14.8816 12.2354 15.2422 12.6537C15.6028 13.072 16.235 13.1187 16.6533 12.7582L17.8799 11.7006C18.1153 11.4976 18.3713 11.28 18.5557 11.0717C18.7286 10.8763 18.9393 10.5804 18.9893 10.1791L19 10.0004L18.9893 9.82166C18.9393 9.42033 18.7286 9.12445 18.5557 8.92908C18.3713 8.72079 18.1153 8.50312 17.8799 8.30018L16.6533 7.24256Z" fill="currentColor"/><path d="M7.34668 7.24256C7.76499 6.88201 8.39723 6.92879 8.75781 7.34705C9.11836 7.76536 9.07158 8.3976 8.65332 8.75818L7.42676 9.81482C7.34555 9.88482 7.27569 9.94616 7.21387 10.0004C7.27569 10.0546 7.34555 10.1159 7.42676 10.1859L8.65332 11.2426C9.07158 11.6031 9.11836 12.2354 8.75781 12.6537C8.39723 13.072 7.76499 13.1187 7.34668 12.7582L6.12012 11.7006C5.88466 11.4976 5.62872 11.28 5.44434 11.0717C5.2714 10.8763 5.06074 10.5804 5.01074 10.1791L5 10.0004L5.01074 9.82166C5.06074 9.42033 5.2714 9.12445 5.44434 8.92908C5.62872 8.72079 5.88466 8.50312 6.12012 8.30018L7.34668 7.24256Z" fill="currentColor"/><path d="M12.0516 6.68346C12.2264 6.1597 12.7924 5.87701 13.3163 6.05162C13.84 6.22638 14.1227 6.79242 13.9481 7.31627L11.9481 13.3163C11.7733 13.84 11.2073 14.1227 10.6835 13.9481C10.1597 13.7733 9.87701 13.2073 10.0516 12.6835L12.0516 6.68346Z" fill="currentColor"/><path d="M13.5 17.75V19.25C13.5 19.5261 13.7239 19.75 14 19.75H16C16.5523 19.75 17 20.1977 17 20.75C17 21.3023 16.5523 21.75 16 21.75H8C7.44772 21.75 7 21.3023 7 20.75C7 20.1977 7.44772 19.75 8 19.75H10C10.2761 19.75 10.5 19.5261 10.5 19.25V17.75H13.5Z" fill="currentColor"/></svg>
