<svg xmlns="http://www.w3.org/2000/svg" viewBox="0 0 24 24" fill="none"><path d="M12.5 15.75C13.0523 15.75 13.5 16.1977 13.5 16.75V19.25C13.5 19.5261 13.7239 19.75 14 19.75H16C16.5523 19.75 17 20.1977 17 20.75C17 21.3023 16.5523 21.75 16 21.75H8C7.44772 21.75 7 21.3023 7 20.75C7 20.1977 7.44772 19.75 8 19.75H10C10.2761 19.75 10.5 19.5261 10.5 19.25V16.75C10.5 16.1977 10.9477 15.75 11.5 15.75H12.5Z" fill="currentColor"/><path d="M16.0645 2.25C17.4275 2.24997 18.5267 2.24995 19.3916 2.36621C20.2917 2.48723 21.0494 2.74672 21.6514 3.34863C22.2533 3.95055 22.5128 4.70829 22.6338 5.6084C22.7501 6.4733 22.75 7.5725 22.75 8.93555V11.0645C22.75 12.4275 22.7501 13.5267 22.6338 14.3916C22.5128 15.2917 22.2533 16.0495 21.6514 16.6514C21.0494 17.2533 20.2917 17.5128 19.3916 17.6338C18.5267 17.7501 17.4275 17.75 16.0645 17.75H7.93555C6.57249 17.75 5.47331 17.7501 4.6084 17.6338C3.70829 17.5128 2.95055 17.2533 2.34863 16.6514C1.74672 16.0495 1.48723 15.2917 1.36621 14.3916C1.24995 13.5267 1.24997 12.4275 1.25 11.0645V8.93555C1.24997 7.57249 1.24995 6.47331 1.36621 5.6084C1.48723 4.70829 1.74672 3.95055 2.34863 3.34863C2.95055 2.74672 3.70829 2.48723 4.6084 2.36621C5.47331 2.24995 6.57249 2.24997 7.93555 2.25H16.0645ZM13.3164 6.05176C12.7926 5.87714 12.2265 6.15984 12.0518 6.68359L10.0518 12.6836C9.8772 13.2074 10.1599 13.7735 10.6836 13.9482C11.2074 14.1227 11.7735 13.8401 11.9482 13.3164L13.9482 7.31641C14.1228 6.79261 13.8401 6.22658 13.3164 6.05176ZM8.75781 7.34668C8.39725 6.92868 7.76492 6.88187 7.34668 7.24219L6.12012 8.2998C5.88474 8.50268 5.6287 8.72048 5.44434 8.92871C5.27145 9.12402 5.06082 9.42014 5.01074 9.82129L5 10L5.01074 10.1787C5.06072 10.5799 5.27143 10.8759 5.44434 11.0713C5.62867 11.2795 5.88471 11.4973 6.12012 11.7002L7.34668 12.7578C7.76499 13.1184 8.39723 13.0716 8.75781 12.6533C9.11816 12.235 9.07151 11.6027 8.65332 11.2422L7.42676 10.1855C7.34563 10.1156 7.27565 10.0542 7.21387 10C7.27565 9.94583 7.34563 9.88438 7.42676 9.81445L8.65332 8.75781C9.07141 8.3972 9.11831 7.76493 8.75781 7.34668ZM16.6533 7.24219C16.2351 6.88187 15.6028 6.92868 15.2422 7.34668C14.8817 7.76493 14.9286 8.3972 15.3467 8.75781L16.5732 9.81445C16.6544 9.88438 16.7244 9.94583 16.7861 10C16.7244 10.0542 16.6544 10.1156 16.5732 10.1855L15.3467 11.2422C14.9285 11.6027 14.8818 12.235 15.2422 12.6533C15.6028 13.0716 16.235 13.1184 16.6533 12.7578L17.8799 11.7002C18.1153 11.4973 18.3713 11.2795 18.5557 11.0713C18.7286 10.8759 18.9393 10.5799 18.9893 10.1787L19 10L18.9893 9.82129C18.9392 9.42014 18.7285 9.12402 18.5557 8.92871C18.3713 8.72048 18.1153 8.50268 17.8799 8.2998L16.6533 7.24219Z" fill="currentColor"/></svg>
