<svg xmlns="http://www.w3.org/2000/svg" viewBox="0 0 24 24" fill="none"><path opacity="0.4" d="M21.3409 11.1744C22.2061 10.3895 22.7501 9.33211 22.7501 7.99963C22.7501 5.37628 20.6234 3.24963 18.0001 3.24963H8.00009C4.27217 3.24963 1.25009 6.27171 1.25009 9.99963C1.25009 13.7276 4.27217 16.7496 8.00009 16.7496C9.18967 16.7496 10.3092 16.4408 11.2813 15.899C13.6406 14.5842 14.3095 13.6953 18.1817 12.7272C19.3671 12.4308 20.4964 11.9406 21.3409 11.1744Z" fill="currentColor"/><path d="M10.5002 9.99963C10.5002 11.3803 9.38093 12.4996 8.00021 12.4996C6.6195 12.4996 5.50021 11.3803 5.50021 9.99963C5.50021 8.61892 6.6195 7.49963 8.00021 7.49963C9.38093 7.49963 10.5002 8.61892 10.5002 9.99963Z" fill="currentColor"/><path d="M22.7502 11.9996C22.7501 13.332 22.2061 14.3896 21.341 15.1744C20.4964 15.9405 19.3671 16.4308 18.1818 16.7272C14.3096 17.6953 13.6407 18.5842 11.2814 19.899C10.3093 20.4407 9.18969 20.7496 8.00015 20.7496C4.37376 20.7496 1.41544 17.8897 1.25699 14.3024C2.6782 16.525 5.16625 17.9996 8.00015 17.9996C9.40854 17.9996 10.7368 17.6334 11.8898 16.9908C14.3966 15.5938 14.8253 14.855 18.4845 13.9401C19.7854 13.6148 21.1303 13.0532 22.1808 12.1002C22.3849 11.9151 22.5748 11.7163 22.7502 11.5055V11.9996Z" fill="currentColor"/></svg>
