<svg xmlns="http://www.w3.org/2000/svg" fill="none" viewBox="0 0 48 48">
  <g>
    <path fill="currentColor" fill-rule="evenodd" d="M24.0005 1.5c-7.0175 0 -12.0083 0.25558 -15.23072 0.50875 -3.6665 0.28805 -6.40081 3.21099 -6.64297 6.79784 -0.28131 4.16691 -0.6259 10.92991 -0.62664 19.07081 -0.00023 0.0176 -0.00023 0.0351 0 0.0527 0.00083 5.149 0.26951 9.2327 0.52848 11.9743 0.30366 3.2148 2.70956 5.8405 6.02446 6.1978 1.98609 0.2141 4.69879 0.3994 8.13779 0.3994 1.1046 0 2 -0.8955 2 -2v-2.8918c0 -5.3782 -2.7071 -10.1636 -6.8736 -13.009 5.6471 -2.006 10.2158 -6.236 12.6831 -11.6164 2.4673 5.3806 7.0363 9.6107 12.6836 11.6166 -4.1663 2.8455 -6.8733 7.6307 -6.8733 13.0088v2.8918c0 1.1045 0.8954 2 2 2 3.439 0 6.1517 -0.1853 8.1378 -0.3994 3.3149 -0.3573 5.7208 -2.983 6.0245 -6.1978 0.2593 -2.7458 0.5285 -6.8379 0.5285 -11.9981 0 -0.0174 -0.0003 -0.0346 -0.0007 -0.0519 -0.0014 -8.1306 -0.3456 -14.8848 -0.6267 -19.04781 -0.2421 -3.58684 -2.9764 -6.50978 -6.6429 -6.79784C36.0088 1.75558 31.018 1.5 24.0006 1.5h-0.0001Zm-9.8659 17.0431c-0.8516 2.0632 -2.1251 4.1534 -3.9981 6.2305 6.9221 -2.5327 11.8261 -9.1598 11.8639 -16.89252l-0.0002 -0.08986V5.50719c-5.8726 0.04276 -10.115 0.26912 -12.91712 0.48927 -1.60613 0.12618 -2.85128 1.38986 -2.96535 3.07957 -0.22761 3.37137 -0.4981 8.48287 -0.58735 14.66047 2.56585 -2.3452 4.03981 -4.6189 4.90682 -6.7195 1.1868 -2.8754 1.3129 -5.5996 1.3129 -8.14981 0 -1.10457 0.8955 -2 2 -2 1.1046 0 2 0.89543 2 2 0 2.67061 -0.1178 6.04731 -1.6155 9.67591Zm28.336 5.194c-0.0893 -6.1779 -0.3598 -11.2896 -0.5874 -14.66107 -0.1141 -1.68971 -1.3592 -2.95338 -2.9653 -3.07957 -2.8021 -0.22015 -7.0447 -0.44652 -12.9173 -0.48927v2.28403l-0.0002 0.08986c0.0377 7.73252 4.9414 14.35942 11.8632 16.89222 -1.8729 -2.0769 -3.1464 -4.167 -3.9979 -6.2302 -1.4977 -3.6286 -1.6155 -7.0053 -1.6155 -9.67591 0 -1.10457 0.8954 -2 2 -2 1.1045 0 2 0.89543 2 2 0 2.55021 0.1261 5.27441 1.3129 8.14981 0.8671 2.1008 2.3412 4.3747 4.9075 6.7201Z" clip-rule="evenodd" stroke-width="1"></path>
  </g>
</svg>
