<svg xmlns="http://www.w3.org/2000/svg" fill="none" viewBox="0 0 48 48">
  <g>
    <path fill="currentColor" fill-rule="evenodd" d="M8.44145 2.01949C11.7271 1.76134 16.8252 1.5 24.0004 1.5c7.1753 0 12.2734 0.26134 15.559 0.5195 3.4733 0.27289 6.0699 3.03966 6.3003 6.45376 0.2712 4.01624 0.5999 10.39404 0.6372 18.08804 -0.17 0.0265 -0.4205 0.0644 -0.7399 0.11 -0.5298 0.0757 -1.2485 0.1725 -2.1041 0.2729 -5.3869 -6.5572 -7.1525 -13.4361 -7.1526 -17.94422 0 -0.82843 -0.6716 -1.49999 -1.5 -1.49998 -0.8284 0.00001 -1.5 0.6716 -1.5 1.50002 0.0001 4.82498 1.7257 11.66618 6.6186 18.28878 -1.4698 0.1129 -3.0677 0.196 -4.6721 0.2093 -5.2334 -2.3776 -9.3577 -6.7321 -11.4464 -12.0909 -2.0886 5.3588 -6.2129 9.7133 -11.4463 12.0909 -1.6044 -0.0133 -3.2024 -0.0964 -4.67219 -0.2093C12.7748 20.6662 14.5004 13.825 14.5005 9.00002c0 -0.82842 -0.6715 -1.50001 -1.5 -1.50002 -0.8284 -0.00001 -1.5 0.67155 -1.5 1.49998C11.5004 13.5081 9.73479 20.387 4.34791 26.9442c-0.85556 -0.1004 -1.57429 -0.1972 -2.10411 -0.2729 -0.31942 -0.0456 -0.56986 -0.0835 -0.73989 -0.11 0.03729 -7.694 0.36605 -14.0718 0.63717 -18.08804 0.23048 -3.41411 2.82707 -6.18087 6.30037 -6.45377ZM35.6147 30.4967c-3.1514 2.8599 -5.1143 6.9859 -5.1143 11.5418v2.9624c0 0.8284 0.6716 1.5 1.5 1.5 3.5031 0 6.2622 -0.1888 8.2774 -0.406 3.1223 -0.3365 5.3959 -2.807 5.6838 -5.8551 0.2369 -2.5088 0.4823 -6.1251 0.5304 -10.6437 -0.0954 0.0141 -0.1991 0.0291 -0.3107 0.0451 -0.6692 0.0956 -1.6224 0.2226 -2.7652 0.3496 -2.1285 0.2365 -4.9359 0.4751 -7.8014 0.5059Zm-31.02993 -0.5059c2.12845 0.2365 4.9359 0.4751 7.80143 0.5059 3.1514 2.8599 5.1143 6.9859 5.1143 11.5418v2.9624c0 0.8284 -0.6716 1.5 -1.5 1.5 -3.5031 0 -6.26225 -0.1888 -8.27738 -0.406 -3.12237 -0.3365 -5.39588 -2.807 -5.68378 -5.8551 -0.23697 -2.5088 -0.48232 -6.1251 -0.53046 -10.6437 0.09541 0.0141 0.1991 0.0291 0.31065 0.0451 0.66918 0.0956 1.62236 0.2226 2.76524 0.3496Z" clip-rule="evenodd" stroke-width="1"></path>
  </g>
</svg>
