<svg xmlns="http://www.w3.org/2000/svg" viewBox="0 0 24 24" fill="none"><path d="M11.0002 22.6675C10.616 22.5555 10.2754 22.3833 9.86742 22.1733L9.83031 22.1548C7.15354 20.7776 2.25036 17.4279 2.25023 11.2915V7.80225C2.25023 6.45488 2.22833 5.51475 2.81175 4.57275C3.38583 3.64592 4.03688 3.33635 4.95726 2.87842C6.70186 2.0104 8.77142 1.46002 11.0002 1.33252V22.6675ZM13.0002 1.33252C15.2291 1.45997 17.2985 2.01039 19.0432 2.87842C19.9636 3.33638 20.6146 3.64594 21.1887 4.57275C21.7722 5.51479 21.7502 6.45484 21.7502 7.80225V11.2915C21.7501 17.4281 16.8469 20.7776 14.1702 22.1548L14.134 22.1733C13.7259 22.3834 13.3846 22.5556 13.0002 22.6675V1.33252Z" fill="currentColor" fill-rule="evenodd" clip-rule="evenodd"/></svg>
