<svg xmlns="http://www.w3.org/2000/svg" viewBox="0 0 24 24" fill="none"><path opacity="0.4" d="M21.9497 6.0503C20.8827 4.98323 19.1526 4.98323 18.0855 6.0503L16.2141 7.92174L20.0783 11.7859L21.9497 9.91448C23.0168 8.84742 23.0168 7.11736 21.9497 6.0503Z" fill="currentColor"/><path opacity="0.4" d="M19.0176 12.8466L15.1534 8.9824L8.36945 15.7664C7.40084 16.7347 6.80884 17.3266 6.40167 18.0553C5.9945 18.7839 5.80071 19.5983 5.48363 20.9307L5.27041 21.8263C5.21009 22.0796 5.28552 22.3462 5.46969 22.5303C5.65385 22.7145 5.92037 22.7899 6.17373 22.7296L7.06931 22.5164C8.40175 22.1993 9.2161 22.0055 9.94476 21.5983C10.6734 21.1912 11.2653 20.5992 12.2337 19.6306L19.0176 12.8466Z" fill="currentColor"/><path d="M7.87866 9.25684C8.50882 9.32101 9.00073 9.85291 9.00073 10.5C9.00073 11.1903 8.441 11.7499 7.75073 11.75C7.10355 11.75 6.57064 11.2582 6.50659 10.6279L6.50073 10.5L6.50659 10.3721C6.57064 9.74179 7.10355 9.25 7.75073 9.25L7.87866 9.25684ZM7.74976 5.375C9.11955 5.375 10.349 5.96591 11.2273 6.89746C11.6061 7.29931 11.5871 7.93169 11.1853 8.31055C10.7835 8.68933 10.1511 8.67123 9.77222 8.26953C9.2429 7.70809 8.52785 7.375 7.74976 7.375C6.97167 7.375 6.25662 7.70809 5.72729 8.26953C5.34843 8.67123 4.71601 8.68933 4.31421 8.31055C3.91236 7.93169 3.89338 7.29931 4.27222 6.89746C5.15047 5.96591 6.37996 5.375 7.74976 5.375ZM7.74976 1.25C10.1935 1.25 12.3953 2.30243 13.9773 3.98047C14.3562 4.38232 14.3372 5.01567 13.9353 5.39453C13.5335 5.7729 12.9009 5.75414 12.5222 5.35254C11.2891 4.0446 9.60179 3.25 7.74976 3.25C5.89772 3.25 4.2104 4.0446 2.97729 5.35254C2.59857 5.75414 1.96605 5.7729 1.56421 5.39453C1.16236 5.01567 1.14336 4.38232 1.52222 3.98047C3.10425 2.30243 5.30604 1.25 7.74976 1.25Z" fill="currentColor"/></svg>
