<svg xmlns="http://www.w3.org/2000/svg" viewBox="0 0 24 24" fill="none"><path d="M6.5 19.75C6.5 18.5715 6.5 17.9822 6.86612 17.6161C7.23223 17.25 7.82149 17.25 9 17.25C10.1785 17.25 10.7678 17.25 11.1339 17.6161C11.5 17.9822 11.5 18.5715 11.5 19.75C11.5 20.9285 11.5 21.5178 11.1339 21.8839C10.7678 22.25 10.1785 22.25 9 22.25C7.82149 22.25 7.23223 22.25 6.86612 21.8839C6.5 21.5178 6.5 20.9285 6.5 19.75Z" fill="currentColor"/><path d="M12.5 19.75C12.5 18.5715 12.5 17.9822 12.8661 17.6161C13.2322 17.25 13.8215 17.25 15 17.25C16.1785 17.25 16.7678 17.25 17.1339 17.6161C17.5 17.9822 17.5 18.5715 17.5 19.75C17.5 20.9285 17.5 21.5178 17.1339 21.8839C16.7678 22.25 16.1785 22.25 15 22.25C13.8215 22.25 13.2322 22.25 12.8661 21.8839C12.5 21.5178 12.5 20.9285 12.5 19.75Z" fill="currentColor"/><path d="M9.5 13.75C9.5 12.5715 9.5 11.9822 9.86612 11.6161C10.2322 11.25 10.8215 11.25 12 11.25C13.1785 11.25 13.7678 11.25 14.1339 11.6161C14.5 11.9822 14.5 12.5715 14.5 13.75C14.5 14.9285 14.5 15.5178 14.1339 15.8839C13.7678 16.25 13.1785 16.25 12 16.25C10.8215 16.25 10.2322 16.25 9.86612 15.8839C9.5 15.5178 9.5 14.9285 9.5 13.75Z" fill="currentColor"/><path d="M22.75 20.5263L22.75 20.5V11.0898V11.039C22.75 10.2157 22.7501 9.54169 22.6943 8.98828C22.6358 8.40668 22.5116 7.89745 22.2275 7.41895C21.9436 6.94059 21.5552 6.58784 21.0723 6.25684C20.6048 5.93638 20.0007 5.60547 19.2595 5.19943L19.252 5.19531L15.252 3.00391L15.2296 2.99164C14.5451 2.61665 13.9857 2.31023 13.501 2.10156C12.9965 1.88437 12.5225 1.75 12 1.75C11.4775 1.75 11.0036 1.88437 10.499 2.10156C10.0143 2.31023 9.45495 2.61666 8.77043 2.99165L8.74805 3.00391L4.74805 5.19531L4.74058 5.19941C3.99935 5.60546 3.39527 5.93637 2.92774 6.25684C2.44485 6.58784 2.05644 6.94059 1.77247 7.41895C1.48842 7.89745 1.36422 8.40668 1.30567 8.98828C1.24996 9.54169 1.24998 10.2157 1.25001 11.039L1.25001 11.0898V20.5L1.25 20.5263C1.24996 20.7337 1.24991 20.9588 1.2754 21.1484C1.30489 21.3678 1.38042 21.648 1.61622 21.8838C1.85202 22.1196 2.13225 22.1951 2.35157 22.2246C2.54124 22.2501 2.76634 22.25 2.97367 22.25L3.00001 22.25L3.02635 22.25C3.23368 22.25 3.45878 22.2501 3.64845 22.2246C3.86777 22.1951 4.148 22.1196 4.3838 21.8838C4.6196 21.648 4.69513 21.3678 4.72462 21.1484C4.75011 20.9588 4.75006 20.7337 4.75001 20.5263L4.75001 20.5V12.5322C4.75001 11.5719 4.75154 10.9269 4.81641 10.4463C4.87833 9.98778 4.98551 9.79233 5.11524 9.66309C5.24544 9.53341 5.44327 9.42612 5.90528 9.36426C6.38853 9.29958 7.03625 9.29785 8.00001 9.29785H15C15.953 9.29785 16.8726 9.29902 17.626 9.36816C18.0017 9.40265 18.3085 9.45171 18.541 9.5166C18.6558 9.54864 18.7406 9.58155 18.8008 9.61133C18.8301 9.62581 18.8512 9.63792 18.8652 9.64746C18.8721 9.65217 18.8777 9.65656 18.8809 9.65918C18.8837 9.66152 18.8848 9.66309 18.8848 9.66309C19.0145 9.79233 19.1217 9.98778 19.1836 10.4463C19.2485 10.9269 19.25 11.5719 19.25 12.5322V20.5L19.25 20.5263C19.25 20.7337 19.2499 20.9588 19.2754 21.1484C19.3049 21.3678 19.3804 21.648 19.6162 21.8838C19.852 22.1196 20.1322 22.1951 20.3516 22.2246C20.5412 22.2501 20.7663 22.25 20.9737 22.25L21 22.25L21.0263 22.25C21.2337 22.25 21.4588 22.2501 21.6484 22.2246C21.8678 22.1951 22.148 22.1196 22.3838 21.8838C22.6196 21.648 22.6951 21.3678 22.7246 21.1484C22.7501 20.9588 22.7501 20.7337 22.75 20.5263Z" fill="currentColor"/></svg>
