<svg xmlns="http://www.w3.org/2000/svg" fill="none" viewBox="0 0 48 48">
  <g>
    <path fill="currentColor" fill-rule="evenodd" d="m15.5007 41.2109 -5.106 3.7444c-1.44561 1.0601 -3.39132 1.1323 -4.9115 0.1822 -0.77212 -0.4826 -0.91899 -1.5464 -0.30651 -2.2202l3.824 -4.2064 6.50001 2.5Zm17 0 5.106 3.7444c1.4456 1.0601 3.3913 1.1323 4.9115 0.1822 0.7721 -0.4826 0.919 -1.5464 0.3065 -2.2202l-3.824 -4.2064 -6.5 2.5Z" clip-rule="evenodd" stroke-width="3.429"></path>
    <path fill="currentColor" d="M13.6132 3.27617c-2.1202 -1.64905 -5.08185 -1.67503 -7.23067 -0.06342C4.88269 4.33763 4 6.10302 4 7.97782V23.9997c0 1.1045 0.89543 2 2 2s2 -0.8955 2 -2V7.97782c0 -0.61577 0.28992 -1.19561 0.78253 -1.56507 0.70577 -0.52932 1.67847 -0.52079 2.37487 0.02083l1.077 0.83766c-1.1304 2.26108 -0.9275 5.02636 0.4255 7.24616 1.06 1.7391 3.2368 1.7181 4.5149 0.6089 0.7077 -0.6142 1.7088 -1.5352 3.063 -2.8895 1.3543 -1.3542 2.2753 -2.35531 2.8895 -3.063 1.1092 -1.27806 1.1302 -3.45489 -0.6089 -4.51494 -2.3041 -1.40436 -5.1959 -1.56961 -7.5015 -0.29091l-1.4037 -1.09178Z" stroke-width="3.429"></path>
    <path fill="currentColor" fill-opacity="0.4" d="M24 22.5c10.6565 0 17.0633 0.1212 20.3202 0.2097C46.1074 22.7582 47.5 24.2228 47.5 26c0 1.5549 -1.0659 2.8704 -2.5295 3.2078 0.019 0.4505 0.0295 0.9374 0.0295 1.4635 0 0.5845 -0.0129 1.1764 -0.0357 1.7662 -0.2324 6.0092 -5.237 10.3527 -11.13 10.4723C31.2159 42.963 27.968 43 24 43c-3.968 0 -7.2159 -0.037 -9.8343 -0.0902 -5.89301 -0.1196 -10.89765 -4.4631 -11.12998 -10.4723C3.01292 31.8477 3 31.2558 3 30.6713c0 -0.5261 0.01047 -1.013 0.02947 -1.4635C1.56591 28.8704 0.5 27.5549 0.5 26c0 -1.7772 1.39256 -3.2418 3.17978 -3.2903C6.93672 22.6212 13.3435 22.5 24 22.5Z" stroke-width="3.429"></path>
    <path fill="currentColor" fill-rule="evenodd" d="M7.50297 28.9065c0.05168 -0.8268 0.76383 -1.4552 1.59065 -1.4035 9.93328 0.6208 19.87958 0.6208 29.81288 0 0.8268 -0.0517 1.539 0.5767 1.5906 1.4035 0.0517 0.8268 -0.5767 1.539 -1.4035 1.5906 -10.0579 0.6286 -20.1292 0.6286 -30.18712 0 -0.82681 -0.0516 -1.45518 -0.7638 -1.40351 -1.5906Z" clip-rule="evenodd" stroke-width="3.429"></path>
  </g>
</svg>
