<svg xmlns="http://www.w3.org/2000/svg" fill="none" viewBox="0 0 48 48">
  <g>
    <path stroke="currentColor" stroke-linecap="round" stroke-linejoin="round" d="M5.9847 23.4886V7.4531c0 -1.2463 0.5868 -2.4199 1.5839 -3.1677 1.4285 -1.0714 3.3973 -1.0541 4.8068 0.0421l2.1165 1.6462" stroke-width="1"></path>
    <path stroke="currentColor" stroke-linejoin="round" d="M14.5606 6.0427c-1.4969 1.4969 -1.9145 3.6923 -1.2908 5.7096 0.5559 1.7982 2.7356 1.9273 4.1103 0.6416 0.507 -0.4741 1.1018 -1.0478 1.7929 -1.7388 0.691 -0.6911 1.2647 -1.2859 1.7388 -1.7929 1.2857 -1.3746 1.1566 -3.5543 -0.6417 -4.1103 -2.0172 -0.6236 -4.2127 -0.2061 -5.7095 1.2908Z" stroke-width="1"></path>
    <path stroke="currentColor" stroke-linecap="round" stroke-linejoin="round" d="M43.3233 22.689c1.5162 0.0433 2.6954 1.2849 2.6954 2.8016 0 1.2964 -0.8614 2.3918 -2.0584 2.7097 0.0358 0.5783 0.0567 1.2307 0.0567 1.9656 0 0.5704 -0.0126 1.1499 -0.035 1.729 -0.1105 2.8579 -1.4168 5.3155 -3.4219 7.0178l1.8452 2.0297c0.8394 0.9234 0.6381 2.3814 -0.4201 3.0428 -1.1905 0.7441 -2.7143 0.6876 -3.8465 -0.1427l-3.389 -2.4853c-0.3057 0.0316 -0.615 0.0507 -0.9273 0.057 -2.6133 0.053 -5.8571 0.0901 -9.8224 0.0901s-7.2091 -0.0371 -9.8223 -0.0901c-0.3124 -0.0063 -0.6217 -0.0254 -0.9274 -0.057l-3.389 2.4853c-1.1322 0.8303 -2.656 0.8868 -3.8465 0.1427 -1.0582 -0.6614 -1.2595 -2.1194 -0.4201 -3.0428L7.44 38.9127c-2.0051 -1.7023 -3.3115 -4.1599 -3.422 -7.0178 -0.0224 -0.5791 -0.035 -1.1586 -0.035 -1.729 0 -0.7349 0.0209 -1.3873 0.0567 -1.9656 -1.197 -0.3179 -2.0584 -1.4133 -2.0584 -2.7097 0 -1.5167 1.1792 -2.7583 2.6954 -2.8016 3.0576 -0.0875 9.0117 -0.2009 19.3233 -0.2009 10.3115 0 16.2656 0.1134 19.3233 0.2009Z" stroke-width="1"></path>
    <path stroke="currentColor" stroke-linecap="round" d="M39.0128 28.4932s-8.0068 0.5004 -15.0128 0.5004 -15.0128 -0.5004 -15.0128 -0.5004" stroke-width="1"></path>
  </g>
</svg>
