<svg xmlns="http://www.w3.org/2000/svg" fill="none" viewBox="0 0 48 48">
  <g>
    <path fill="currentColor" fill-rule="evenodd" d="M10.0825 6.79127c0.5254 -0.39404 1.2495 -0.38769 1.7679 0.0155l1.5845 1.2324c-0.5458 1.42578 -0.5708 3.02183 -0.1114 4.50803 0.4026 1.3021 1.4332 2.0326 2.5804 2.1732 1.1053 0.1355 2.2817 -0.2711 3.1649 -1.0971 0.5154 -0.482 1.1177 -1.063 1.8154 -1.7606 0.6976 -0.6976 1.2786 -1.3 1.7606 -1.8154 0.8259 -0.88315 1.2326 -2.05956 1.0971 -3.16487 -0.1406 -1.14725 -0.8711 -2.17783 -2.1732 -2.58039 -1.5194 -0.46973 -3.1536 -0.43304 -4.6033 0.14875l-2.0453 -1.59078c-2.2981 -1.78748 -5.50837 -1.81564 -7.83757 -0.06874C5.45679 4.01058 4.5 5.92416 4.5 7.95634V21.3703C2.45384 21.9325 1 23.8146 1 26c0 1.6016 0.7783 3.0391 2.00367 3.9152 -0.06827 3.177 0.38501 6.6886 2.7052 9.5418l-0.57839 0.6363c-1.67772 1.8455 -1.2754 4.7596 0.8396 6.0815 1.88369 1.1773 4.29462 1.0879 6.08592 -0.2257l2.8387 -2.0818C16.6504 43.9046 21.3922 44 24 44s7.3496 -0.0954 9.1053 -0.1327l2.8387 2.0818c1.7913 1.3136 4.2022 1.403 6.0859 0.2257 2.115 -1.3219 2.5173 -4.236 0.8396 -6.0815l-0.5784 -0.6363c2.3202 -2.8532 2.7735 -6.3648 2.7052 -9.5418C46.2217 29.0391 47 27.6016 47 26c0 -2.5717 -2.0133 -4.7235 -4.636 -4.7985C39.2865 21.1135 33.318 21 24 21c-6.8586 0 -11.3534 0.0502 -14.5 0.1096V7.95634c0 -0.4584 0.21582 -0.89004 0.5825 -1.16507ZM24 25c-10.2859 0 -15.21576 0.1131 -18.24971 0.1999C5.34317 25.2115 5 25.5407 5 26c0 0.37 0.22684 0.6573 0.51734 0.7583 0.87726 0.3049 1.5854 1.1748 1.52414 2.2658 -0.20584 3.6661 0.25548 6.668 2.55198 8.7266 0.89874 0.8057 1.03784 2.2381 0.16648 3.1966l-1.6691 1.836c0.49527 0.3091 1.1289 0.2854 1.59973 -0.0599l3.31763 -2.4329c0.3875 -0.2841 0.8682 -0.4464 1.3786 -0.4351 0.775 0.0172 6.6369 0.1446 9.6132 0.1446 2.9763 0 8.8382 -0.1274 9.6132 -0.1446 0.5104 -0.0113 0.9911 0.151 1.3786 0.4351l3.3176 2.4329c0.4709 0.3453 1.1045 0.369 1.5998 0.0599l-1.6691 -1.836c-0.8714 -0.9585 -0.7323 -2.3909 0.1664 -3.1966 2.2966 -2.0586 2.7578 -5.0605 2.552 -8.7266 -0.0612 -1.091 0.6469 -1.9609 1.5242 -2.2658 0.2905 -0.101 0.5173 -0.3884 0.5173 -0.7583 0 -0.4593 -0.3432 -0.7885 -0.7503 -0.8001C39.2171 25.1132 33.2875 25 24 25Zm-12.8466 2.0059c-1.1013 -0.0847 -2.06279 0.7394 -2.14751 1.8407 -0.08472 1.1013 0.7394 2.0628 1.84071 2.1475 8.7476 0.6729 17.5592 0.6729 26.3068 0 1.1013 -0.0847 1.9254 -1.0462 1.8407 -2.1475s-1.0462 -1.9254 -2.1475 -1.8407c-8.5433 0.6572 -17.1499 0.6572 -25.6932 0Z" clip-rule="evenodd" stroke-width="3.429"></path>
  </g>
</svg>
