<svg xmlns="http://www.w3.org/2000/svg" fill="none" viewBox="0 0 48 48">
  <g>
    <path fill="currentColor" fill-rule="evenodd" d="M6.38253 3.21275c2.14882 -1.61161 5.11047 -1.58563 7.23067 0.06342l1.4037 1.09178c2.3056 -1.2787 5.1974 -1.11345 7.5015 0.29091 1.7391 1.06005 1.7181 3.23688 0.6089 4.51494 -0.6142 0.70769 -1.5352 1.7088 -2.8895 3.063 -1.3542 1.3543 -2.3553 2.2753 -3.063 2.8895 -1.2781 1.1092 -3.4549 1.1302 -4.5149 -0.6089 -1.353 -2.2198 -1.5559 -4.98508 -0.4255 -7.24616l-1.077 -0.83766c-0.6964 -0.54162 -1.6691 -0.55015 -2.37487 -0.02083C8.28992 6.78221 8 7.36205 8 7.97782V22.6165c3.654 -0.0624 8.8779 -0.1165 16 -0.1165 10.6565 0 17.0633 0.1212 20.3202 0.2097C46.1074 22.7582 47.5 24.2228 47.5 26c0 1.5549 -1.0659 2.8704 -2.5295 3.2078 0.019 0.4505 0.0295 0.9374 0.0295 1.4635 0 0.5845 -0.0129 1.1764 -0.0357 1.7662 -0.1314 3.3989 -1.7896 6.265 -4.2718 8.1352l2.1315 2.3446c0.6125 0.6738 0.4656 1.7376 -0.3065 2.2202 -1.5202 0.9501 -3.4659 0.8779 -4.9115 -0.1822l-2.8609 -2.098c-0.3009 0.0287 -0.6046 0.0463 -0.9108 0.0525C31.2159 42.963 27.968 43 24 43c-3.968 0 -7.2159 -0.037 -9.8343 -0.0902 -0.3062 -0.0062 -0.6099 -0.0238 -0.9108 -0.0525l-2.8609 2.098c-1.4456 1.0601 -3.39131 1.1323 -4.9115 0.1822 -0.77211 -0.4826 -0.91898 -1.5464 -0.30651 -2.2202l2.13152 -2.3446c-2.48217 -1.8702 -4.14038 -4.7363 -4.27179 -8.1352C3.01292 31.8477 3 31.2558 3 30.6713c0 -0.5261 0.01047 -1.013 0.02947 -1.4635C1.56591 28.8704 0.5 27.5549 0.5 26c0 -1.7772 1.39256 -3.2418 3.17978 -3.2903 0.10354 -0.0028 0.21027 -0.0057 0.32022 -0.0085V7.97782c0 -1.8748 0.88269 -3.64019 2.38253 -4.76507ZM7.50292 28.9064c0.05168 -0.8268 0.76383 -1.4552 1.59065 -1.4035 9.93323 0.6208 19.87963 0.6208 29.81283 0 0.8268 -0.0517 1.539 0.5767 1.5907 1.4035 0.0517 0.8268 -0.5767 1.539 -1.4035 1.5907 -10.0579 0.6286 -20.1293 0.6286 -30.18717 0 -0.82681 -0.0517 -1.45518 -0.7639 -1.40351 -1.5907Z" clip-rule="evenodd" stroke-width="1"></path>
  </g>
</svg>
