<svg xmlns="http://www.w3.org/2000/svg" viewBox="0 0 24 24" fill="none"><path opacity="0.4" d="M13.6309 18.5957C13.7355 17.8711 13.7475 16.9135 13.749 15.75L14.0518 15.75C14.7156 15.7501 15.2879 15.7501 15.7461 15.6885C16.2376 15.6224 16.7086 15.473 17.0908 15.0908C17.473 14.7087 17.6224 14.2377 17.6885 13.7461C17.7501 13.2879 17.75 12.7157 17.75 12.0518V11.9482C17.75 11.2844 17.7501 10.7121 17.6885 10.2539C17.6224 9.76237 17.473 9.29138 17.0908 8.9092C16.7086 8.52701 16.2376 8.37766 15.7461 8.31154C15.276 8.24834 14.6859 8.25002 14 8.25002H13.749C13.7475 7.08653 13.7355 6.1289 13.6309 5.40432C13.5126 4.58547 13.2369 3.76268 12.4111 3.39943C11.5875 3.03716 10.7932 3.38574 10.1055 3.84865C9.41154 4.31581 8.57213 5.07459 7.5373 6.01002L4.73103 8.54714C4.00772 9.2009 3.40681 9.74404 2.99414 10.2363C2.55981 10.7545 2.25 11.3121 2.25 12C2.25 12.688 2.55981 13.2455 2.99414 13.7637C3.40681 14.256 4.00771 14.7991 4.73101 15.4529L7.53733 17.99C8.57215 18.9255 9.41154 19.6842 10.1055 20.1514C10.7932 20.6143 11.5875 20.9629 12.4111 20.6006C13.2369 20.2374 13.5126 19.4146 13.6309 18.5957Z" fill="currentColor"/><path d="M21.75 14.75C21.75 15.3023 21.3023 15.75 20.75 15.75C20.1977 15.75 19.75 15.3023 19.75 14.75L19.75 9.25003C19.75 8.69775 20.1977 8.25003 20.75 8.25003C21.3023 8.25003 21.75 8.69775 21.75 9.25003L21.75 14.75Z" fill="currentColor"/></svg>
