<svg xmlns="http://www.w3.org/2000/svg" viewBox="0 0 24 24" fill="none"><path d="M13.6306 18.5962C13.7353 17.8716 13.7473 16.914 13.7488 15.7505L14.0515 15.7505C14.7154 15.7506 15.2877 15.7506 15.7458 15.689C16.2374 15.6229 16.7084 15.4735 17.0906 15.0913C17.4728 14.7091 17.6221 14.2382 17.6882 13.7466C17.7498 13.2884 17.7498 12.7161 17.7498 12.0523V11.9487C17.7498 11.2849 17.7498 10.7126 17.6882 10.2544C17.6221 9.76286 17.4728 9.29187 17.0906 8.90969C16.7084 8.5275 16.2374 8.37815 15.7458 8.31203C15.2758 8.24883 14.6857 8.25051 13.9998 8.25051H13.7488C13.7473 7.08702 13.7353 6.12939 13.6306 5.4048C13.5123 4.58596 13.2367 3.76317 12.4109 3.39992C11.5873 3.03765 10.793 3.38623 10.1052 3.84914C9.41129 4.31629 8.57189 5.07507 7.53706 6.01051L4.73078 8.54763C4.00748 9.20139 3.40657 9.74453 2.9939 10.2368C2.55957 10.755 2.24976 11.3125 2.24976 12.0005C2.24976 12.6885 2.55957 13.246 2.9939 13.7642C3.40656 14.2565 4.00747 14.7996 4.73077 15.4534L7.53709 17.9905C8.5719 18.926 9.4113 19.6847 10.1052 20.1519C10.793 20.6148 11.5873 20.9634 12.4109 20.6011C13.2367 20.2378 13.5123 19.4151 13.6306 18.5962Z" fill="currentColor"/><path d="M21.7498 14.7505C21.7498 15.3028 21.302 15.7505 20.7498 15.7505C20.1975 15.7505 19.7498 15.3028 19.7498 14.7505L19.7498 9.25052C19.7498 8.69823 20.1975 8.25052 20.7498 8.25052C21.302 8.25052 21.7498 8.69823 21.7498 9.25052L21.7498 14.7505Z" fill="currentColor"/></svg>
