<svg xmlns="http://www.w3.org/2000/svg" viewBox="0 0 24 24" fill="none"><path d="M6.5 6.75C6.5 3.71243 8.96243 1.25 12 1.25C13.9079 1.25 15.5883 2.22228 16.5732 3.69374C16.8804 4.15269 16.7574 4.77379 16.2985 5.08101C15.8395 5.38822 15.2184 5.26521 14.9112 4.80626C14.2817 3.86575 13.2125 3.25 12 3.25C10.067 3.25 8.5 4.817 8.5 6.75V9.75C8.5 10.3023 8.05228 10.75 7.5 10.75C6.94772 10.75 6.5 10.3023 6.5 9.75V6.75Z" fill="currentColor" fill-rule="evenodd" clip-rule="evenodd"/><path d="M12 7.25C16.2802 7.25 19.75 10.7198 19.75 15C19.75 19.2802 16.2802 22.75 12 22.75C7.71979 22.75 4.25 19.2802 4.25 15C4.25 10.7198 7.71979 7.25 12 7.25ZM11.9932 13.5C11.1685 13.5001 10.5 14.1716 10.5 15C10.5 15.8284 11.1685 16.4999 11.9932 16.5H12.0068C12.8315 16.4999 13.5 15.8284 13.5 15C13.5 14.1716 12.8315 13.5001 12.0068 13.5H11.9932Z" fill="currentColor"/></svg>
