<svg xmlns="http://www.w3.org/2000/svg" viewBox="0 0 24 24" fill="none"><path opacity="0.4" d="M14.591 8.50399C14.7592 7.98603 14.7501 7.37217 14.7501 6.50008C14.7501 5.628 14.7592 5.01414 14.591 4.49618C14.2695 3.50676 13.4935 2.73075 12.504 2.40926C11.9861 2.24106 11.3722 2.25008 10.5001 2.25008H7.50014C6.62806 2.25008 6.0142 2.24106 5.49623 2.40926C4.50681 2.73075 3.7308 3.50676 3.40932 4.49618C3.24111 5.01414 3.25014 5.628 3.25014 6.50008C3.25014 7.37217 3.24111 7.98603 3.40932 8.50399C3.7308 9.49341 4.50681 10.2694 5.49623 10.5909C6.0142 10.7591 6.62806 10.7501 7.50014 10.7501H10.5001C11.3722 10.7501 11.9861 10.7591 12.504 10.5909C13.4935 10.2694 14.2695 9.49341 14.591 8.50399Z" fill="currentColor"/><path d="M20.591 19.504C20.7592 18.986 20.7501 18.3722 20.7501 17.5001C20.7501 16.628 20.7592 16.0141 20.591 15.4962C20.2695 14.5068 19.4935 13.7307 18.504 13.4093C17.9861 13.2411 17.3722 13.2501 16.5001 13.2501H13.5001C12.6281 13.2501 12.0142 13.2411 11.4962 13.4093C10.5068 13.7307 9.7308 14.5068 9.40932 15.4962C9.24111 16.0141 9.25014 16.628 9.25014 17.5001C9.25014 18.3722 9.24111 18.986 9.40932 19.504C9.7308 20.4934 10.5068 21.2694 11.4962 21.5909C12.0142 21.7591 12.6281 21.7501 13.5001 21.7501H16.5001C17.3722 21.7501 17.9861 21.7591 18.504 21.5909C19.4935 21.2694 20.2695 20.4934 20.591 19.504Z" fill="currentColor"/></svg>
