<svg xmlns="http://www.w3.org/2000/svg" viewBox="0 0 24 24" fill="none"><path opacity="0.4" d="M11.9998 18.7498C16.8323 18.7498 20.7498 14.8322 20.7498 9.99976V5.99976C20.7498 3.92868 19.0709 2.24976 16.9998 2.24976C15.8468 2.24976 14.748 2.73379 13.9686 3.58179L1.785 15.656C1.44229 15.9957 1.24984 16.4587 1.24984 16.9412C1.24989 17.8836 1.97098 18.6556 2.89144 18.74C2.92692 18.7451 2.96293 18.7498 2.99984 18.7498C3.01287 18.7498 3.02588 18.7478 3.0389 18.7478C3.04541 18.7479 3.05191 18.7498 3.05843 18.7498H11.9998Z" fill="currentColor"/><path d="M12.2498 7.99976V7.39624L2.84164 16.7214C2.78315 16.7794 2.74984 16.8588 2.74984 16.9412C2.74989 17.1073 2.88125 17.2411 3.04574 17.2478C8.13325 17.2231 12.2498 13.0931 12.2498 7.99976Z" fill="currentColor"/><path d="M16.7498 5.49976C17.3021 5.49976 17.7498 5.94747 17.7498 6.49976C17.7498 7.05204 17.3021 7.49976 16.7498 7.49976C16.1976 7.49976 15.7498 7.05204 15.7498 6.49976C15.7498 5.94747 16.1976 5.49976 16.7498 5.49976Z" fill="currentColor"/><path d="M14.4012 20.2498H15.9998C16.4141 20.2498 16.7498 20.5855 16.7498 20.9998C16.7498 21.414 16.4141 21.7498 15.9998 21.7498H10.9998C10.5856 21.7498 10.2498 21.414 10.2498 20.9998C10.2498 20.5855 10.5856 20.2498 10.9998 20.2498H12.5985L11.5985 18.7498H11.9998C12.4534 18.7498 12.8989 18.7147 13.3338 18.6482L14.4012 20.2498Z" fill="currentColor"/><path d="M22.5301 7.46948C22.7445 7.68396 22.8092 8.00666 22.6932 8.28687C22.5771 8.56704 22.3031 8.74976 21.9998 8.74976H20.7498V5.99976C20.7498 5.88982 20.7435 5.78112 20.7342 5.67358L22.5301 7.46948Z" fill="currentColor"/></svg>
