<svg xmlns="http://www.w3.org/2000/svg" viewBox="0 0 24 24" fill="none"><path d="M16.9996 2.24976C18.9607 2.24976 20.5686 3.75531 20.734 5.67358L22.5299 7.46948C22.7443 7.68396 22.809 8.00666 22.693 8.28687C22.5768 8.56704 22.3029 8.74976 21.9996 8.74976H20.7496V9.99976C20.7496 14.3787 17.5329 18.0058 13.3336 18.6482L14.401 20.2498H15.9996C16.4138 20.2498 16.7496 20.5855 16.7496 20.9998C16.7496 21.414 16.4138 21.7498 15.9996 21.7498H10.9996C10.5854 21.7498 10.2496 21.414 10.2496 20.9998C10.2496 20.5855 10.5854 20.2498 10.9996 20.2498H12.5982L11.5982 18.7498H3.05819C3.05166 18.7498 3.04517 18.7479 3.03866 18.7478C3.02564 18.7478 3.01262 18.7498 2.9996 18.7498C2.96269 18.7498 2.92668 18.7451 2.8912 18.74C1.97074 18.6556 1.24965 17.8836 1.2496 16.9412C1.2496 16.4587 1.44204 15.9957 1.78475 15.656L13.9683 3.58179C14.7477 2.73379 15.8465 2.24976 16.9996 2.24976ZM2.84139 16.7214C2.7829 16.7794 2.7496 16.8588 2.7496 16.9412C2.74965 17.1073 2.88101 17.2411 3.04549 17.2478C8.13301 17.2231 12.2496 13.0931 12.2496 7.99976V7.39624L2.84139 16.7214ZM16.7496 5.49976C16.1973 5.49976 15.7496 5.94747 15.7496 6.49976C15.7496 7.05204 16.1973 7.49976 16.7496 7.49976C17.3019 7.49976 17.7496 7.05204 17.7496 6.49976C17.7496 5.94747 17.3019 5.49976 16.7496 5.49976Z" fill="currentColor"/></svg>
