<svg xmlns="http://www.w3.org/2000/svg" viewBox="0 0 24 24" fill="none"><path d="M2 11.9999C2 9.4394 2.964 7.10147 4.54688 5.33295C4.91523 4.92162 5.54753 4.88656 5.95898 5.25483C6.37026 5.62315 6.40527 6.25548 6.03711 6.66693C4.76974 8.08295 4 9.95036 4 11.9999C4 16.4182 7.58172 19.9999 12 19.9999C14.2094 19.9999 16.2084 19.106 17.6572 17.6572C18.0478 17.2666 18.6808 17.2666 19.0713 17.6572C19.4615 18.0477 19.4617 18.6808 19.0713 19.0712C17.2627 20.8798 14.7611 21.9999 12 21.9999C6.47715 21.9999 2 17.5228 2 11.9999Z" fill="currentColor"/><path opacity="0.4" d="M20 11.9999C20 9.95036 19.2303 8.08295 17.9629 6.66693C17.5947 6.25548 17.6297 5.62315 18.041 5.25482C18.4525 4.88656 19.0848 4.92162 19.4531 5.33295C21.036 7.10147 22 9.4394 22 11.9999C22 13.3154 21.7456 14.5743 21.2822 15.7275C21.0762 16.2396 20.4937 16.4879 19.9815 16.2822C19.469 16.0762 19.2208 15.4938 19.4268 14.9814C19.7965 14.0614 20 13.0556 20 11.9999Z" fill="currentColor"/><path d="M2.29297 2.29289C2.68349 1.90237 3.31651 1.90237 3.70703 2.29289L21.707 20.2929C22.0976 20.6834 22.0976 21.3164 21.707 21.707C21.3165 22.0975 20.6835 22.0975 20.293 21.707L2.29297 3.70696C1.90245 3.31643 1.90245 2.68342 2.29297 2.29289Z" fill="currentColor"/><path opacity="0.4" d="M11 7V3C11 2.44772 11.4477 2 12 2C12.5523 2 13 2.44772 13 3V7C13 7.55228 12.5523 8 12 8C11.4477 8 11 7.55228 11 7Z" fill="currentColor"/></svg>
