<svg xmlns="http://www.w3.org/2000/svg" viewBox="0 0 24 24" fill="none"><path d="M1.99951 11.9999C1.99951 9.4394 2.96351 7.10147 4.54639 5.33295C4.91474 4.92162 5.54704 4.88656 5.9585 5.25483C6.36978 5.62315 6.40478 6.25548 6.03662 6.66693C4.76925 8.08295 3.99951 9.95036 3.99951 11.9999C3.99951 16.4182 7.58123 19.9999 11.9995 19.9999C14.2089 19.9999 16.2079 19.106 17.6567 17.6572C18.0473 17.2666 18.6803 17.2666 19.0708 17.6572C19.461 18.0477 19.4612 18.6808 19.0708 19.0712C17.2623 20.8798 14.7607 21.9999 11.9995 21.9999C6.47666 21.9999 1.99951 17.5228 1.99951 11.9999ZM19.9995 11.9999C19.9995 9.95036 19.2298 8.08295 17.9624 6.66693C17.5942 6.25548 17.6292 5.62315 18.0405 5.25483C18.452 4.88656 19.0843 4.92162 19.4526 5.33295C21.0355 7.10147 21.9995 9.4394 21.9995 11.9999C21.9995 13.3154 21.7451 14.5743 21.2817 15.7275C21.0757 16.2396 20.4932 16.4879 19.981 16.2822C19.4685 16.0762 19.2203 15.4938 19.4263 14.9814C19.796 14.0614 19.9995 13.0556 19.9995 11.9999Z" fill="currentColor"/><path d="M2.29248 2.29289C2.68301 1.90237 3.31602 1.90237 3.70654 2.29289L21.7065 20.2929C22.0971 20.6834 22.0971 21.3164 21.7065 21.707C21.316 22.0975 20.683 22.0975 20.2925 21.707L2.29248 3.70696C1.90196 3.31643 1.90196 2.68342 2.29248 2.29289Z" fill="currentColor"/><path d="M10.9995 7V3C10.9995 2.44772 11.4472 2 11.9995 2C12.5518 2 12.9995 2.44772 12.9995 3V7C12.9995 7.55228 12.5518 8 11.9995 8C11.4472 8 10.9995 7.55228 10.9995 7Z" fill="currentColor"/></svg>
