<svg xmlns="http://www.w3.org/2000/svg" viewBox="0 0 24 24" fill="none"><path d="M11.9355 1.75C9.92606 1.74998 8.32788 1.74997 7.06543 1.90332C5.76712 2.06109 4.69324 2.39372 3.80371 3.15332C3.57039 3.35259 3.35259 3.57039 3.15332 3.80371C2.39371 4.69324 2.06108 5.76712 1.90332 7.06543C1.74997 8.32788 1.74998 9.92606 1.75 11.9355V12.0645C1.74998 14.0739 1.74997 15.6721 1.90332 16.9346C2.06108 18.2329 2.39371 19.3068 3.15332 20.1963C3.35259 20.4296 3.57039 20.6474 3.80371 20.8467C4.69324 21.6063 5.76712 21.9389 7.06543 22.0967C8.32787 22.25 9.92609 22.25 11.9355 22.25H12.0645C14.0739 22.25 15.6721 22.25 16.9346 22.0967C18.2329 21.9389 19.3068 21.6063 20.1963 20.8467C20.4296 20.6474 20.6474 20.4296 20.8467 20.1963C21.6063 19.3068 21.9389 18.2329 22.0967 16.9346C22.25 15.6721 22.25 14.0739 22.25 12.0645V11.9355C22.25 9.92609 22.25 8.32787 22.0967 7.06543C21.9389 5.76712 21.6063 4.69324 20.8467 3.80371C20.6474 3.57039 20.4296 3.3526 20.1963 3.15332C19.3068 2.39372 18.2329 2.06108 16.9346 1.90332C15.6721 1.74997 14.0739 1.74998 12.0645 1.75H11.9355ZM11 17.5C11.5523 17.5 12 17.9477 12 18.5C12 19.0523 11.5523 19.5 11 19.5C10.4477 19.5 10 19.0523 10 18.5C10 17.9477 10.4477 17.5 11 17.5ZM7 17.5C7.55228 17.5 8 17.9477 8 18.5C8 19.0523 7.55228 19.5 7 19.5C6.44771 19.5 6 19.0523 6 18.5C6 17.9477 6.44771 17.5 7 17.5ZM12 3.70312C14.0892 3.70312 15.5683 3.7054 16.6992 3.84277C17.8067 3.97738 18.4493 4.22932 18.9287 4.63867C19.0842 4.77148 19.2295 4.91678 19.3623 5.07227C19.7717 5.55168 20.0236 6.19423 20.1582 7.30176C20.2956 8.43263 20.2979 9.91182 20.2979 12.001C20.2979 13.0642 20.2969 13.9693 20.2783 14.751L3.72168 14.751C3.70311 13.9693 3.70215 13.0642 3.70215 12.001C3.70215 9.91182 3.70443 8.43263 3.8418 7.30176C3.9764 6.19423 4.22834 5.55168 4.6377 5.07227C4.7705 4.91678 4.9158 4.77148 5.07129 4.63867C5.5507 4.22932 6.19325 3.97738 7.30078 3.84277C8.43165 3.7054 9.91085 3.70312 12 3.70312Z" fill="currentColor"/><path d="M13.4326 5.729C13.7593 5.70703 14.0767 5.84638 14.2812 6.10205L15.9814 8.22705H17C17.5523 8.22705 18 8.67477 18 9.22705C18 9.77934 17.5523 10.2271 17 10.2271L15.5 10.2271C15.1962 10.2271 14.9085 10.0893 14.7188 9.85205L13.6172 8.4751L11.3574 12.2417C11.189 12.5223 10.8939 12.7031 10.5674 12.7251C10.2407 12.7471 9.92329 12.6077 9.71875 12.3521L8.01855 10.2271H7C6.44772 10.2271 6 9.77934 6 9.22705C6 8.67477 6.44772 8.22705 7 8.22705H8.5C8.80378 8.22705 9.09148 8.36484 9.28125 8.60205L10.3818 9.97803L12.6426 6.2124L12.7119 6.11182C12.8857 5.88917 13.147 5.74829 13.4326 5.729Z" fill="currentColor"/></svg>
