<svg xmlns="http://www.w3.org/2000/svg" fill="none" viewBox="0 0 48 48">
  <path fill="currentColor" fill-opacity="0.4" fill-rule="evenodd" d="M14.9459 13.9282c-0.0543 -2.9626 -2.4729 -5.34769 -5.44862 -5.34769 -3.0094 0.00001 -5.44911 2.43939 -5.44954 5.44879l-0.00086 6.1727c0 7.0896 4.51282 13.1253 10.82262 15.3911l-0.0001 9.8099 18.7424 0.0001v-8.5328c6.0252 -2.1321 10.3413 -7.8796 10.3413 -14.6351l0 -2.253c0.0001 -2.8572 -2.3161 -5.1735 -5.1734 -5.1735 -2.8571 0 -5.1733 2.3162 -5.1734 5.1733l0 2.2532c0 0.0643 -0.0012 0.1284 -0.0035 0.1922 -0.0191 -4.0302 -0.0665 -9.6034 -0.1259 -11.409 -0.1488 -4.52142 -3.4715 -8.27215 -7.9935 -8.40338 -0.4081 -0.01184 -0.8232 -0.01834 -1.2427 -0.01834 -0.438 0 -0.8711 0.00708 -1.2964 0.01993 -4.4961 0.13582 -7.7984 3.85275 -7.9437 8.34859 -0.0198 0.6143 -0.0383 1.6731 -0.0547 2.963Z" clip-rule="evenodd" stroke-width="3.429"></path>
  <path stroke="currentColor" stroke-linejoin="round" d="M14.9459 13.9282c-0.0543 -2.9626 -2.4729 -5.34769 -5.44862 -5.34769 -3.0094 0.00001 -5.44911 2.43939 -5.44954 5.44879l-0.00086 6.1727c0 7.0896 4.51282 13.1253 10.82262 15.3911l-0.0001 9.8099 18.7424 0.0001v-8.5328c6.0252 -2.1321 10.3413 -7.8796 10.3413 -14.6351l0 -2.253c0.0001 -2.8572 -2.3161 -5.1735 -5.1734 -5.1735 -2.8571 0 -5.1733 2.3162 -5.1734 5.1733l0 2.2532c0 0.0643 -0.0012 0.1284 -0.0035 0.1922 -0.0191 -4.0302 -0.0665 -9.6034 -0.1259 -11.409 -0.1488 -4.52143 -3.4715 -8.27215 -7.9935 -8.40338 -0.4081 -0.01184 -0.8232 -0.01834 -1.2427 -0.01834 -0.438 0 -0.8711 0.00708 -1.2964 0.01993 -4.4961 0.13582 -7.7984 3.85275 -7.9437 8.34859 -0.0198 0.6143 -0.0383 1.6731 -0.0547 2.963Z" stroke-width="3.429"></path>
  <path stroke="currentColor" stroke-linecap="round" d="m14.9009 12.5449 0 10.8604" stroke-width="3.429"></path>
  <path stroke="currentColor" stroke-linecap="round" d="M42.98 45.4028H5.57471" stroke-width="3.429"></path>
  <path stroke="currentColor" stroke-linecap="round" d="m21.1606 21.4053 0 -8" stroke-width="3.429"></path>
  <path stroke="currentColor" stroke-linecap="round" d="m27.3247 33.4053 0 -6.7901" stroke-width="3.429"></path>
</svg>
