<svg xmlns="http://www.w3.org/2000/svg" fill="none" viewBox="0 0 48 48">
  <path fill="currentColor" fill-rule="evenodd" d="M22.8839 0.367526c0.4441 -0.013415 0.8973 -0.020846 1.3568 -0.020846 0.4401 0 0.8746 0.00682 1.3007 0.019185l-0.058 1.999155 0.058 -1.999155c5.7129 0.16579 9.7555 4.899725 9.9344 10.336835 0.0187 0.5698 0.0362 1.5007 0.052 2.6337 0.9761 -0.4973 2.0813 -0.7777 3.2519 -0.7777 3.9619 0 7.1735 3.2117 7.1734 7.1735l0 2.253c0 7.1208 -4.2471 13.2451 -10.3413 15.986v4.6816H42.98c1.3807 0 2.5 1.1193 2.5 2.5s-1.1193 2.5 -2.5 2.5H5.57471c-1.38071 0 -2.5 -1.1193 -2.5 -2.5s1.11929 -2.5 2.5 -2.5h7.29469l0.0001 -5.9623C6.4912 33.8182 2.04688 27.4064 2.04688 19.952v-0.0003l0.00086 -6.1727c0.00058 -4.11385 3.33569 -7.44848 7.44954 -7.44849 1.49382 0 2.88482 0.43962 4.05082 1.19656 1.2996 -3.98524 4.787 -7.022134 9.3358 -7.159544ZM31.6118 42.6528H16.8694l0.0001 -7.3097c0 -0.844 -0.5298 -1.5971 -1.3241 -1.8823 -5.5406 -1.9896 -9.49841 -7.2894 -9.49852 -13.5086v-0.0002l0.00086 -6.1724c0.00027 -1.905 1.5446 -3.4491 3.44954 -3.4491 1.71272 0 3.13422 1.2486 3.40362 2.8846v9.9402c0 1.1045 0.8954 2 2 2 1.1045 0 2 -0.8955 2 -2V14.102c0.0277 -0.1286 0.0431 -0.2618 0.0448 -0.3983 0.0165 -1.291 0.0347 -2.3316 0.0539 -2.9239 0.1155 -3.57521 2.6943 -6.31409 6.0051 -6.4141 0.4066 -0.01228 0.8195 -0.01902 1.236 -0.01902 0.3989 0 0.7946 0.00618 1.1847 0.0175 3.331 0.09667 5.9339 2.86418 6.0525 6.47002 0.0583 1.7708 0.1058 7.3113 0.1249 11.3526 0.0052 1.0885 0.8799 1.973 1.9682 1.9903 1.0884 0.0173 1.9907 -0.839 2.0305 -1.9268 0.0032 -0.088 0.0048 -0.1764 0.0048 -0.2651l0 -2.2532c0.0001 -1.7526 1.4208 -3.1733 3.1734 -3.1733 1.7527 0 3.1735 1.4208 3.1734 3.1734l0 2.2531c0 5.8818 -3.7571 10.8913 -9.0085 12.7497 -0.7988 0.2827 -1.3328 1.0381 -1.3328 1.8854v6.0325ZM21.9624 21.25c-0.8284 0 -1.5 -0.6716 -1.5 -1.5v-6.5947c0 -0.8285 0.6716 -1.5 1.5 -1.5s1.5 0.6715 1.5 1.5V19.75c0 0.8284 -0.6716 1.5 -1.5 1.5Zm3.8623 11.9053c0 0.8284 0.6716 1.5 1.5 1.5s1.5 -0.6716 1.5 -1.5V27.187c0 -0.8284 -0.6716 -1.5 -1.5 -1.5s-1.5 0.6716 -1.5 1.5v5.9683Z" clip-rule="evenodd" stroke-width="3.429"></path>
</svg>
