<svg xmlns="http://www.w3.org/2000/svg" fill="none" viewBox="0 0 48 48">
  <path fill="currentColor" fill-opacity="0.4" d="M26.4103 44.7722c-0.0162 0.4115 -0.6664 0.7836 -1.6849 0.8305 -0.2325 0.0107 -0.4779 0.0174 -0.728 0.0174 -0.2502 0 -0.4955 -0.0067 -0.728 -0.0174 -1.0185 -0.0469 -1.6688 -0.4191 -1.6849 -0.8305 -0.0353 -0.8982 -0.0875 -9.8115 -0.0875 -12.6179s0.0522 -11.7197 0.0875 -12.6179c0.0161 -0.4115 0.6664 -0.7836 1.6849 -0.8305 0.2325 -0.0107 0.4778 -0.0174 0.728 -0.0174 0.2501 0 0.4955 0.0067 0.728 0.0174 1.0185 0.0469 1.6687 0.419 1.6849 0.8305 0.0353 0.8982 0.0875 9.8115 0.0875 12.6179s-0.0522 11.7197 -0.0875 12.6179Z" stroke-width="1"></path>
  <path fill="currentColor" fill-opacity="0.4" d="M4.98528 34.1939c-0.42609 0.0162 -0.81147 0.6664 -0.86007 1.6849 -0.0111 0.2325 -0.01803 0.4779 -0.01803 0.7281 0 0.2501 0.00693 0.4955 0.01803 0.728 0.0486 1.0185 0.43398 1.6687 0.86007 1.6849 0.93021 0.0353 2.16092 0.0875 5.06722 0.0875s4.137 -0.0523 5.0672 -0.0875c0.4261 -0.0162 0.8115 -0.6664 0.8601 -1.6849 0.0111 -0.2325 0.018 -0.4779 0.018 -0.728 0 -0.2502 -0.0069 -0.4956 -0.018 -0.7281 -0.0486 -1.0185 -0.434 -1.6687 -0.8601 -1.6849 -0.9302 -0.0352 -2.1609 -0.0875 -5.0672 -0.0875s-4.13701 0.0523 -5.06722 0.0875Z" stroke-width="1"></path>
  <path fill="currentColor" fill-opacity="0.4" d="M43.0577 34.1939c0.4261 0.0162 0.8115 0.6664 0.8601 1.6849 0.0111 0.2325 0.018 0.4779 0.018 0.7281 0 0.2501 -0.0069 0.4955 -0.018 0.728 -0.0486 1.0185 -0.434 1.6687 -0.8601 1.6849 -0.9302 0.0353 -2.1609 0.0875 -5.0672 0.0875s-4.137 -0.0523 -5.0672 -0.0875c-0.4261 -0.0162 -0.8115 -0.6664 -0.8601 -1.6849 -0.0111 -0.2325 -0.018 -0.4779 -0.018 -0.728 0 -0.2502 0.0069 -0.4956 0.018 -0.7281 0.0486 -1.0185 0.434 -1.6687 0.8601 -1.6849 0.9302 -0.0352 2.1609 -0.0875 5.0672 -0.0875s4.137 0.0523 5.0672 0.0875Z" stroke-width="1"></path>
  <path fill="#8fbffa" d="M4.60802 18.2186c-1.6706 -0.1183 -2.44255 -0.8606 -1.72467 -1.5428C7.53078 12.2592 16.6054 5.26173 24 2.37988c7.3947 2.88185 16.4693 9.87932 21.1167 14.29592 0.7179 0.6822 -0.054 1.4245 -1.7246 1.5428 -3.0445 0.2157 -8.8637 0.4696 -19.3921 0.4696 -10.5283 0 -16.34754 -0.2539 -19.39198 -0.4696Z" stroke-width="1"></path>
  <path stroke="currentColor" stroke-linejoin="round" d="M4.98528 34.1939c-0.42609 0.0162 -0.81147 0.6664 -0.86007 1.6849 -0.0111 0.2325 -0.01803 0.4779 -0.01803 0.7281 0 0.2501 0.00693 0.4955 0.01803 0.728 0.0486 1.0185 0.43398 1.6687 0.86007 1.6849 0.93021 0.0353 2.16092 0.0875 5.06722 0.0875s4.137 -0.0523 5.0672 -0.0875c0.4261 -0.0162 0.8115 -0.6664 0.8601 -1.6849 0.0111 -0.2325 0.018 -0.4779 0.018 -0.728 0 -0.2502 -0.0069 -0.4956 -0.018 -0.7281 -0.0486 -1.0185 -0.434 -1.6687 -0.8601 -1.6849 -0.9302 -0.0352 -2.1609 -0.0875 -5.0672 -0.0875s-4.13701 0.0523 -5.06722 0.0875Z" stroke-width="1"></path>
  <path stroke="currentColor" stroke-linejoin="round" d="M43.0577 34.1939c0.4261 0.0162 0.8115 0.6664 0.8601 1.6849 0.0111 0.2325 0.018 0.4779 0.018 0.7281 0 0.2501 -0.0069 0.4955 -0.018 0.728 -0.0486 1.0185 -0.434 1.6687 -0.8601 1.6849 -0.9302 0.0353 -2.1609 0.0875 -5.0672 0.0875s-4.137 -0.0523 -5.0672 -0.0875c-0.4261 -0.0162 -0.8115 -0.6664 -0.8601 -1.6849 -0.0111 -0.2325 -0.018 -0.4779 -0.018 -0.728 0 -0.2502 0.0069 -0.4956 0.018 -0.7281 0.0486 -1.0185 0.434 -1.6687 0.8601 -1.6849 0.9302 -0.0352 2.1609 -0.0875 5.0672 -0.0875s4.137 0.0523 5.0672 0.0875Z" stroke-width="1"></path>
  <path stroke="currentColor" stroke-linecap="round" stroke-linejoin="round" d="m4.10718 36.6064 0 9.0135" stroke-width="1"></path>
  <path stroke="currentColor" stroke-linecap="round" stroke-linejoin="round" d="m43.9358 36.6064 0 9.0135" stroke-width="1"></path>
  <path stroke="currentColor" stroke-linecap="round" stroke-linejoin="round" d="m2.65796 24.8496 1.45012 11.6169" stroke-width="1"></path>
  <path stroke="currentColor" stroke-linecap="round" stroke-linejoin="round" d="m45.385 24.8496 -1.4501 11.6169" stroke-width="1"></path>
  <path stroke="currentColor" stroke-linecap="round" stroke-linejoin="round" d="m15.9978 36.6064 0 9.0137" stroke-width="1"></path>
  <path stroke="currentColor" stroke-linecap="round" stroke-linejoin="round" d="m32.0452 36.6064 0 9.0137" stroke-width="1"></path>
  <path stroke="currentColor" stroke-linecap="round" stroke-linejoin="round" d="M4.60802 18.2186c-1.6706 -0.1183 -2.44255 -0.8606 -1.72467 -1.5428C7.53078 12.2592 16.6054 5.26173 24 2.37988c7.3947 2.88185 16.4693 9.87932 21.1167 14.29592 0.7179 0.6822 -0.054 1.4245 -1.7246 1.5428 -3.0445 0.2157 -8.8637 0.4696 -19.3921 0.4696 -10.5283 0 -16.34754 -0.2539 -19.39198 -0.4696Z" stroke-width="1"></path>
  <path stroke="currentColor" stroke-linejoin="round" d="M26.4103 44.7722c-0.0162 0.4115 -0.6664 0.7836 -1.6849 0.8305 -0.2325 0.0107 -0.4779 0.0174 -0.728 0.0174 -0.2502 0 -0.4955 -0.0067 -0.728 -0.0174 -1.0185 -0.0469 -1.6688 -0.4191 -1.6849 -0.8305 -0.0353 -0.8982 -0.0875 -9.8115 -0.0875 -12.6179s0.0522 -11.7197 0.0875 -12.6179c0.0161 -0.4115 0.6664 -0.7836 1.6849 -0.8305 0.2325 -0.0107 0.4778 -0.0174 0.728 -0.0174 0.2501 0 0.4955 0.0067 0.728 0.0174 1.0185 0.0469 1.6687 0.419 1.6849 0.8305 0.0353 0.8982 0.0875 9.8115 0.0875 12.6179s-0.0522 11.7197 -0.0875 12.6179Z" stroke-width="1"></path>
</svg>
