<svg xmlns="http://www.w3.org/2000/svg" fill="none" viewBox="0 0 48 48">
  <path fill="currentColor" fill-rule="evenodd" d="M27.2726 32.4038c0 2.9219 -0.0417 12.2463 -0.0705 13.203 -0.0191 0.6359 -0.4082 1.1027 -0.815 1.3761 -0.4131 0.2776 -0.9294 0.4264 -1.4725 0.459 -0.2029 0.0122 -0.4194 0.02 -0.6425 0.02 -0.223 0 -0.4396 -0.0078 -0.6424 -0.02 -0.5431 -0.0326 -1.0594 -0.1814 -1.4725 -0.459 -0.4068 -0.2734 -0.7959 -0.7402 -0.815 -1.3761 -0.0288 -0.9567 -0.0705 -10.2811 -0.0705 -13.203 0 -2.9219 0.0417 -12.2463 0.0705 -13.203 0.0191 -0.6359 0.4082 -1.1027 0.815 -1.3761 0.4131 -0.2776 0.9294 -0.4264 1.4725 -0.459 0.2028 -0.0122 0.4194 -0.02 0.6424 -0.02 0.2231 0 0.4397 0.0078 0.6425 0.02 0.5431 0.0326 1.0594 0.1814 1.4725 0.459 0.4068 0.2734 0.7959 0.7402 0.815 1.3761 0.0288 0.9567 0.0705 10.2811 0.0705 13.203Z" clip-rule="evenodd" stroke-width="1"></path>
  <path fill="currentColor" fill-opacity="0.4" fill-rule="evenodd" d="M24.8194 0.639496c-0.3503 -0.136516 -0.7391 -0.136516 -1.0894 0C16.0732 3.62351 6.83285 10.7713 2.12467 15.2457c-0.36364 0.3455 -0.72448 0.8785 -0.73483 1.5773 -0.01056 0.7134 0.34835 1.2573 0.72203 1.5994 0.68362 0.6257 1.70553 0.8818 2.66477 0.9497 3.0918 0.2191 8.94896 0.4733 19.49806 0.4733 10.549 0 16.4062 -0.2542 19.498 -0.4733 0.9593 -0.0679 1.9812 -0.324 2.6648 -0.9498 0.3737 -0.342 0.7326 -0.8859 0.722 -1.5993 -0.0103 -0.6988 -0.3712 -1.2318 -0.7348 -1.5773C41.7165 10.7713 32.4761 3.62351 24.8194 0.639496ZM4.32514 24.2591c-0.13682 -1.0961 -1.13627 -1.8737 -2.23233 -1.7369 -1.096066 0.1369 -1.873686 1.1363 -1.736865 2.2324L1.78988 36.2417l-0.00012 0.022 0 9.0135c0 1.1045 0.89543 2 2 2s2 -0.8955 2 -2l0 -5.06c0.86073 0.0253 2.05275 0.0473 3.94531 0.0473 1.52343 0 2.59293 -0.0143 3.40113 -0.033v5.0458c0 1.1046 0.8954 2 2 2s2 -0.8954 2 -2v-7.8917c0.0112 -0.1067 0.0193 -0.2141 0.0245 -0.322 0.012 -0.2526 0.0197 -0.5221 0.0197 -0.7995 0 -0.2775 -0.0077 -0.5469 -0.0197 -0.7995 -0.0317 -0.6639 -0.1755 -1.3132 -0.4633 -1.8528 -0.2554 -0.4789 -0.8342 -1.2215 -1.8383 -1.2596l-0.1253 -0.0047c-0.9293 -0.0355 -2.1956 -0.0838 -4.99873 -0.0838 -2.25251 0 -3.51266 0.0312 -4.403 0.0619l-1.00693 -8.0665Zm41.58226 -1.7369c-1.0961 -0.1368 -2.0955 0.6408 -2.2324 1.7369l-1.0069 8.0664c-0.8903 -0.0306 -2.1505 -0.0618 -4.403 -0.0618 -2.8031 0 -4.0695 0.0483 -4.9987 0.0838l-0.1254 0.0047c-1.0041 0.0381 -1.5828 0.7807 -1.8382 1.2596 -0.2878 0.5396 -0.4316 1.1889 -0.4633 1.8528 -0.012 0.2526 -0.0197 0.522 -0.0197 0.7995 0 0.2774 0.0077 0.5469 0.0197 0.7995 0.0052 0.1079 0.0133 0.2153 0.0245 0.322v7.8917c0 1.1046 0.8954 2 2 2 1.1045 0 2 -0.8954 2 -2v-5.0458c0.8082 0.0187 1.8777 0.033 3.4011 0.033 1.8926 0 3.0846 -0.022 3.9453 -0.0473v5.06c0 1.1045 0.8954 2 2 2s2 -0.8955 2 -2v-9.0135l-0.0001 -0.0219 1.4339 -11.4872c0.1369 -1.0961 -0.6408 -2.0955 -1.7368 -2.2324Z" clip-rule="evenodd" stroke-width="1"></path>
</svg>
