<svg xmlns="http://www.w3.org/2000/svg" fill="none" viewBox="0 0 48 48">
  <path stroke="currentColor" stroke-linejoin="round" d="M43.1112 34.1939c0.4009 0.0162 0.7634 0.6664 0.8091 1.6849 0.0104 0.2325 0.017 0.4779 0.017 0.7281 0 0.2501 -0.0066 0.4955 -0.017 0.728 -0.0457 1.0185 -0.4083 1.6687 -0.8091 1.6849 -0.875 0.0353 -2.0328 0.0875 -4.7667 0.0875 -2.734 0 -3.8917 -0.0523 -4.7668 -0.0875 -0.4008 -0.0162 -0.7633 -0.6664 -0.809 -1.6849 -0.0105 -0.2325 -0.017 -0.4779 -0.017 -0.728 0 -0.2502 0.0065 -0.4956 0.017 -0.7281 0.0457 -1.0185 0.4082 -1.6687 0.809 -1.6849 0.8751 -0.0352 2.0328 -0.0875 4.7668 -0.0875 2.7339 0 3.8917 0.0523 4.7667 0.0875Z" stroke-width="3.429"></path>
  <path stroke="currentColor" stroke-linejoin="round" d="M4.88829 34.1939c-0.40083 0.0162 -0.76336 0.6664 -0.80907 1.6849 -0.01044 0.2325 -0.01696 0.4779 -0.01696 0.7281 0 0.2501 0.00652 0.4955 0.01696 0.728 0.04571 1.0185 0.40824 1.6687 0.80907 1.6849 0.87505 0.0353 2.03279 0.0875 4.76674 0.0875 2.73397 0 3.89167 -0.0523 4.76677 -0.0875 0.4008 -0.0162 0.7633 -0.6664 0.809 -1.6849 0.0105 -0.2325 0.017 -0.4779 0.017 -0.728 0 -0.2502 -0.0065 -0.4956 -0.017 -0.7281 -0.0457 -1.0185 -0.4082 -1.6687 -0.809 -1.6849 -0.8751 -0.0352 -2.0328 -0.0875 -4.76677 -0.0875 -2.73395 0 -3.89169 0.0523 -4.76674 0.0875Z" stroke-width="3.429"></path>
  <path stroke="currentColor" stroke-linejoin="round" d="M26.4123 44.7722c-0.0162 0.4115 -0.6664 0.7836 -1.6849 0.8305 -0.2325 0.0107 -0.4779 0.0174 -0.7281 0.0174 -0.2501 0 -0.4955 -0.0067 -0.728 -0.0174 -1.0185 -0.0469 -1.6687 -0.4191 -1.6849 -0.8305 -0.0352 -0.8982 -0.0875 -9.8115 -0.0875 -12.6179s0.0523 -11.7197 0.0875 -12.6179c0.0162 -0.4115 0.6664 -0.7836 1.6849 -0.8305 0.2325 -0.0107 0.4779 -0.0174 0.728 -0.0174 0.2502 0 0.4956 0.0067 0.7281 0.0174 1.0185 0.0469 1.6687 0.419 1.6849 0.8305 0.0352 0.8982 0.0875 9.8115 0.0875 12.6179s-0.0523 11.7197 -0.0875 12.6179Z" stroke-width="3.429"></path>
  <path stroke="currentColor" stroke-linecap="round" stroke-linejoin="round" d="m43.9373 36.6064 0 9.0135" stroke-width="3.429"></path>
  <path stroke="currentColor" stroke-linecap="round" stroke-linejoin="round" d="m4.06226 36.6064 0 9.0135" stroke-width="3.429"></path>
  <path stroke="currentColor" stroke-linecap="round" stroke-linejoin="round" d="m45.3865 24.8496 -1.4501 11.6169" stroke-width="3.429"></path>
  <path stroke="currentColor" stroke-linecap="round" stroke-linejoin="round" d="m2.61304 24.8496 1.45012 11.6169" stroke-width="3.429"></path>
  <path stroke="currentColor" stroke-linecap="round" stroke-linejoin="round" d="m32.7517 36.6064 0 9.0137" stroke-width="3.429"></path>
  <path stroke="currentColor" stroke-linecap="round" stroke-linejoin="round" d="m15.2478 36.6064 0 9.0137" stroke-width="3.429"></path>
  <path stroke="currentColor" stroke-linecap="round" stroke-linejoin="round" d="M4.60997 18.2186c-1.6706 -0.1183 -2.44255 -0.8606 -1.72467 -1.5428C7.53273 12.2592 16.6074 5.26173 24.002 2.37988c7.3946 2.88185 16.4693 9.87932 21.1167 14.29592 0.7179 0.6822 -0.0541 1.4245 -1.7247 1.5428 -3.0444 0.2157 -8.8637 0.4696 -19.392 0.4696s-16.34759 -0.2539 -19.39203 -0.4696Z" stroke-width="3.429"></path>
</svg>
