<svg xmlns="http://www.w3.org/2000/svg" fill="none" viewBox="0 0 48 48">
  <path fill="currentColor" fill-rule="evenodd" d="M24.7292 0.516398c-0.4671 -0.18202 -0.9854 -0.18202 -1.4525 0C15.5325 3.53447 6.23692 10.7324 1.50849 15.226c-0.42502 0.4039 -0.877357 1.0564 -0.89033 1.9324 -0.013261 0.8954 0.43816 1.5671 0.88438 1.9756 0.80748 0.739 1.96647 1.0088 2.96703 1.0796 2.69636 0.1911 7.47233 0.4079 15.58453 0.4619 -0.0263 2.7579 -0.0543 9.1908 -0.0543 11.4788 0 2.7899 0.0416 11.7429 0.071 12.6807 0.0342 1.0862 0.7217 1.8051 1.2898 2.1708 0.5885 0.3789 1.2771 0.5553 1.9422 0.5936 0.2183 0.0126 0.4534 0.0207 0.6975 0.0207 0.244 0 0.4791 -0.0081 0.6974 -0.0207 0.6651 -0.0383 1.3537 -0.2147 1.9423 -0.5936 0.5681 -0.3657 1.2556 -1.0846 1.2897 -2.1708 0.0295 -0.9378 0.071 -9.8908 0.071 -12.6807 0 -2.2879 -0.0279 -8.7209 -0.0542 -11.4788 8.1154 -0.054 12.8929 -0.2708 15.5898 -0.4619 1.0006 -0.0708 2.1596 -0.3406 2.9671 -1.0797 0.4462 -0.4084 0.8976 -1.0801 0.8843 -1.9755 -0.013 -0.876 -0.4653 -1.5285 -0.8903 -1.9324C41.769 10.7324 32.4734 3.53447 24.7292 0.516398ZM24.0029 16.6882c-8.9572 0 -14.47131 -0.1843 -17.74921 -0.3696C10.9166 12.2495 18.0188 7.05663 24.0029 4.53789c5.9842 2.51874 13.0863 7.71161 17.7493 11.78071 -3.2779 0.1853 -8.792 0.3696 -17.7493 0.3696Zm-19.91465 -0.5917 -0.0044 -0.0023 0.00004 0.0001 0.00063 0.0003 0.00373 0.0019ZM2.36454 22.865c1.09606 -0.1368 2.09551 0.6408 2.23233 1.7369l1.102 8.8281c0.7739 -0.0201 1.85517 -0.0384 3.62788 -0.0384 2.48895 0 3.61485 0.0361 4.44075 0.0625l0.1104 0.0035c1.0804 0.0344 1.7825 0.7253 2.1305 1.2727 0.3627 0.5706 0.5285 1.2324 0.5644 1.8646 0.0117 0.2047 0.0192 0.4253 0.0192 0.6545 0 0.0922 -0.0012 0.183 -0.0034 0.272 0.0022 0.0391 0.0034 0.0785 0.0034 0.1182v7.9805c0 1.1046 -0.8954 2 -2 2s-2 -0.8954 -2 -2v-4.5425c-0.7443 0.0164 -1.7533 0.0297 -3.26525 0.0297 -1.512 0 -2.52098 -0.0133 -3.26526 -0.0297l0 4.5423c0 1.1046 -0.89543 2 -2 2s-2 -0.8954 -2 -2l0 -8.3697v-0.6438l0.00012 -0.0219L0.627673 25.0973c-0.13682 -1.096 0.640797 -2.0955 1.736867 -2.2323Zm41.03876 1.7369c0.1368 -1.0961 1.1363 -1.8737 2.2323 -1.7369 1.0961 0.1368 1.8737 1.1363 1.7369 2.2323l-1.4339 11.4872 0.0001 0.0219v9.0135c0 1.1046 -0.8954 2 -2 2s-2 -0.8954 -2 -2v-4.5423c-0.7443 0.0164 -1.7533 0.0297 -3.2653 0.0297 -1.512 0 -2.5209 -0.0133 -3.2652 -0.0297v4.5425c0 1.1046 -0.8955 2 -2 2 -1.1046 0 -2 -0.8954 -2 -2v-7.9805c0 -0.0397 0.0011 -0.0791 0.0034 -0.1182 -0.0022 -0.089 -0.0034 -0.1798 -0.0034 -0.272 0 -0.2292 0.0075 -0.4498 0.0192 -0.6545 0.0359 -0.6322 0.2016 -1.294 0.5644 -1.8646 0.348 -0.5474 1.0501 -1.2383 2.1304 -1.2727l0.1105 -0.0035c0.8259 -0.0264 1.9518 -0.0625 4.4407 -0.0625 1.7727 0 2.854 0.0183 3.6279 0.0384l1.102 -8.8281Z" clip-rule="evenodd" stroke-width="1"></path>
</svg>
