<svg xmlns="http://www.w3.org/2000/svg" fill="none" viewBox="0 0 48 48">
  <path fill="currentColor" fill-rule="evenodd" d="M24.8194 0.22934c-0.3503 -0.1365158 -0.7391 -0.1365158 -1.0894 0C16.0732 3.21336 6.83285 10.3612 2.12467 14.8355c-0.36364 0.3456 -0.72448 0.8785 -0.73483 1.5774 -0.01056 0.7134 0.34835 1.2573 0.72203 1.5993 0.68362 0.6257 1.70553 0.8818 2.66477 0.9498 2.79149 0.1977 7.83726 0.4242 16.55506 0.4663 -0.0275 2.3749 -0.0601 9.9788 -0.0601 12.5654 0 2.9219 0.0417 12.2462 0.0705 13.2029 0.0191 0.636 0.4082 1.1028 0.815 1.3762 0.413 0.2776 0.9293 0.4263 1.4725 0.459 0.2028 0.0122 0.4194 0.02 0.6424 0.02 0.2231 0 0.4396 -0.0078 0.6425 -0.02 0.5431 -0.0327 1.0594 -0.1814 1.4724 -0.459 0.4068 -0.2734 0.7959 -0.7402 0.8151 -1.3762 0.0288 -0.9567 0.0704 -10.281 0.0704 -13.2029 0 -2.5866 -0.0326 -10.1905 -0.0601 -12.5654 8.7211 -0.042 13.7684 -0.2685 16.5604 -0.4663 0.9593 -0.068 1.9812 -0.3241 2.6648 -0.9498 0.3737 -0.342 0.7326 -0.8859 0.722 -1.5993 -0.0103 -0.6989 -0.3712 -1.2318 -0.7348 -1.5774C41.7165 10.3612 32.4761 3.21336 24.8194 0.22934ZM4.32514 23.8489c-0.13682 -1.096 -1.13627 -1.8736 -2.23233 -1.7368 -1.096066 0.1368 -1.873686 1.1363 -1.736865 2.2323L1.78988 35.8316l-0.00012 0.0219 0 9.0135c0 1.1046 0.89543 2 2 2s2 -0.8954 2 -2l0 -5.0599c0.86073 0.0252 2.05275 0.0472 3.94531 0.0472 1.52343 0 2.59293 -0.0142 3.40113 -0.033v5.0459c0 1.1046 0.8954 2 2 2s2 -0.8954 2 -2v-7.8917c0.0112 -0.1067 0.0193 -0.2142 0.0245 -0.3221 0.012 -0.2525 0.0197 -0.522 0.0197 -0.7995 0 -0.2774 -0.0077 -0.5469 -0.0197 -0.7995 -0.0317 -0.6639 -0.1755 -1.3132 -0.4633 -1.8527 -0.2554 -0.4789 -0.8342 -1.2215 -1.8383 -1.2596l-0.1253 -0.0048c-0.9293 -0.0355 -2.1956 -0.0838 -4.99873 -0.0838 -2.25251 0 -3.51266 0.0312 -4.403 0.0619l-1.00693 -8.0665Zm41.58226 -1.7368c-1.0961 -0.1368 -2.0955 0.6408 -2.2324 1.7368l-1.0069 8.0665c-0.8903 -0.0307 -2.1505 -0.0619 -4.403 -0.0619 -2.8031 0 -4.0695 0.0483 -4.9987 0.0838l-0.1254 0.0048c-1.0041 0.0381 -1.5828 0.7807 -1.8382 1.2596 -0.2878 0.5395 -0.4316 1.1888 -0.4633 1.8527 -0.012 0.2526 -0.0197 0.5221 -0.0197 0.7995 0 0.2775 0.0077 0.547 0.0197 0.7995 0.0052 0.1079 0.0133 0.2154 0.0245 0.3221v7.8917c0 1.1046 0.8954 2 2 2 1.1045 0 2 -0.8954 2 -2v-5.0459c0.8082 0.0188 1.8777 0.033 3.4011 0.033 1.8926 0 3.0846 -0.022 3.9453 -0.0472v5.0599c0 1.1046 0.8954 2 2 2s2 -0.8954 2 -2v-9.0135l-0.0001 -0.0219 1.4339 -11.4872c0.1369 -1.096 -0.6408 -2.0955 -1.7368 -2.2323Z" clip-rule="evenodd" stroke-width="1"></path>
</svg>
