<svg xmlns="http://www.w3.org/2000/svg" viewBox="0 0 24 24" fill="none"><path opacity="0.4" d="M18.2559 18.6933C20.1046 16.8124 21.75 14.2511 21.75 11.0888C21.7499 5.66194 17.3916 1.24997 12 1.24997C6.60836 1.24997 2.25015 5.66194 2.25 11.0888C2.25 14.2511 3.8954 16.8124 5.74414 18.6933C7.59576 20.5772 9.72135 21.8528 10.8525 22.4599C11.5735 22.8468 12.4265 22.8468 13.1475 22.4599C14.2787 21.8528 16.4042 20.5772 18.2559 18.6933Z" fill="currentColor"/><path d="M12.0095 15C12.5618 15 13.0095 15.4477 13.0095 16C13.0095 16.5523 12.5618 17 12.0095 17H11.9998C11.4475 17 10.9998 16.5523 10.9998 16C10.9998 15.4477 11.4475 15 11.9998 15H12.0095ZM12.0037 10.9922C13.1397 10.9945 14.2414 11.3839 15.1267 12.0957C15.5567 12.4417 15.6249 13.0707 15.2791 13.5009C14.933 13.9314 14.3033 14.0003 13.8728 13.6543C13.3417 13.2273 12.6813 12.9936 11.9998 12.9922C11.3182 12.9908 10.6558 13.2215 10.1228 13.6465C9.69102 13.9906 9.06182 13.92 8.71755 13.4883C8.37331 13.0564 8.44494 12.4273 8.87673 12.083C9.76494 11.3748 10.8677 10.9899 12.0037 10.9922ZM11.9998 6.99997C14.0446 6.99997 16.0285 7.69655 17.6248 8.97458C18.0558 9.31978 18.1252 9.94876 17.7801 10.3799C17.4349 10.8109 16.8059 10.8803 16.3748 10.5351C15.1333 9.54122 13.5901 8.99997 11.9998 8.99997C10.4094 8.99997 8.86627 9.54122 7.62478 10.5351C7.19368 10.8803 6.5647 10.8109 6.21951 10.3799C5.87436 9.94876 5.94375 9.31978 6.37478 8.97458C7.97104 7.69655 9.95493 6.99997 11.9998 6.99997Z" fill="currentColor"/></svg>
