<svg xmlns="http://www.w3.org/2000/svg" viewBox="0 0 24 24" fill="none"><path d="M12 1.24997C17.3916 1.24997 21.7499 5.66194 21.75 11.0888C21.75 14.2511 20.1046 16.8124 18.2559 18.6933C16.4042 20.5772 14.2787 21.8528 13.1475 22.4599C12.4265 22.8468 11.5735 22.8468 10.8525 22.4599C9.72135 21.8528 7.59576 20.5772 5.74414 18.6933C3.8954 16.8124 2.25 14.2511 2.25 11.0888C2.25015 5.66194 6.60836 1.24997 12 1.24997ZM12 15C11.4477 15 11 15.4477 11 16C11 16.5523 11.4477 17 12 17H12.0098C12.5619 16.9999 13.0098 16.5522 13.0098 16C13.0098 15.4478 12.5619 15.0001 12.0098 15H12ZM12.0039 10.9922C10.868 10.9899 9.76513 11.3749 8.87695 12.083C8.44517 12.4273 8.37353 13.0564 8.71777 13.4883C9.06206 13.9199 9.69127 13.9906 10.123 13.6465C10.656 13.2216 11.3184 12.9908 12 12.9922C12.6814 12.9936 13.342 13.2274 13.873 13.6543C14.3035 14.0002 14.9333 13.9313 15.2793 13.5009C15.625 13.0707 15.5568 12.4417 15.127 12.0957C14.2417 11.384 13.1398 10.9945 12.0039 10.9922ZM12 6.99997C9.95521 6.99997 7.97124 7.69662 6.375 8.97458C5.94397 9.31978 5.87458 9.94876 6.21973 10.3799C6.56494 10.8108 7.19394 10.8802 7.625 10.5351C8.86647 9.54129 10.4097 8.99997 12 8.99997C13.5903 9.00002 15.1336 9.54126 16.375 10.5351C16.8061 10.8802 17.4351 10.8108 17.7803 10.3799C18.1253 9.94881 18.0559 9.31977 17.625 8.97458C16.0288 7.69659 14.0448 7.00002 12 6.99997Z" fill="currentColor"/></svg>
