<svg xmlns="http://www.w3.org/2000/svg" viewBox="0 0 24 24" fill="none"><path d="M12 3.24988C10.067 3.24988 8.5 4.81688 8.5 6.74988V9.24988C8.5 9.80216 8.05228 10.2499 7.5 10.2499C6.94772 10.2499 6.5 9.80216 6.5 9.24988V6.74988C6.5 3.71231 8.96243 1.24988 12 1.24988C14.4806 1.24988 16.3437 3.11865 16.9487 4.93365C17.1233 5.45759 16.8402 6.02391 16.3162 6.19856C15.7923 6.37321 15.226 6.09005 15.0513 5.56611C14.6563 4.3811 13.4381 3.24988 12 3.24988Z" fill="currentColor" fill-rule="evenodd" clip-rule="evenodd"/><path d="M12 8.24988C13.5958 8.24988 15.0462 8.28383 16.4746 8.34949C18.5327 8.4441 20.204 10.0385 20.4756 12.0555C20.6237 13.1558 20.75 14.3119 20.75 15.4999C20.75 16.6879 20.6237 17.844 20.4756 18.9442C20.204 20.9612 18.5327 22.5557 16.4746 22.6503C15.0462 22.7159 13.5958 22.7499 12 22.7499C10.4042 22.7499 8.95376 22.7159 7.52539 22.6503C5.46733 22.5557 3.79598 20.9612 3.52441 18.9442C3.37629 17.844 3.25 16.6879 3.25 15.4999C3.25 14.3119 3.37629 13.1558 3.52441 12.0555C3.79598 10.0385 5.46733 8.4441 7.52539 8.34949C8.95376 8.28383 10.4042 8.24988 12 8.24988ZM11.9932 13.9999C11.1685 13.9999 10.5 14.6715 10.5 15.4999C10.5 16.3283 11.1685 16.9998 11.9932 16.9999H12.0068C12.8315 16.9998 13.5 16.3283 13.5 15.4999C13.5 14.6715 12.8315 13.9999 12.0068 13.9999H11.9932Z" fill="currentColor"/></svg>
