<svg xmlns="http://www.w3.org/2000/svg" viewBox="0 0 24 24" fill="none"><path d="M6.12571 6C6.07285 6 6.03255 6.04674 6.03945 6.09915L7.62407 18.132C7.73689 18.9887 7.8101 19.5266 7.91945 19.9186C8.01823 20.2727 8.11563 20.3871 8.20828 20.4607C8.31203 20.5431 8.66172 20.6982 9.33091 20.821C9.95117 20.9348 10.7084 20.9973 11.4824 20.9999C12.2566 21.0026 13.0161 20.9452 13.6414 20.8329C14.3125 20.7124 14.6739 20.5546 14.7921 20.4607C14.8848 20.3871 14.9822 20.2727 15.0809 19.9186C15.1903 19.5266 15.2635 18.9887 15.3763 18.132L16.9609 6.09915C16.9678 6.04674 16.9275 6 16.8747 6H6.12571ZM5.31569 4.06305C5.57392 4.01139 5.8554 4 6.12571 4H16.8747C17.145 4 17.4265 4.01139 17.6847 4.06305C17.945 4.11511 18.2752 4.22589 18.5495 4.49755C18.8368 4.78219 18.947 5.1272 18.9834 5.41995C19.0175 5.69389 18.9942 5.97744 18.9609 6.23042L17.3506 18.458C17.249 19.2302 17.1594 19.911 17.0074 20.4561C16.8405 21.0542 16.5701 21.6026 16.0362 22.0267C15.5056 22.4482 14.7194 22.6713 13.995 22.8014C13.2248 22.9398 12.3411 23.0029 11.4756 22.9999C10.61 22.9969 9.73105 22.9278 8.96996 22.7881C8.25779 22.6575 7.48095 22.4372 6.96423 22.0267C6.4303 21.6026 6.1599 21.0542 5.99302 20.4561C5.84097 19.911 5.75136 19.2302 5.64974 18.4581L4.03947 6.23042C4.00615 5.97744 3.98292 5.69389 4.01697 5.41995C4.05337 5.1272 4.16357 4.78219 4.45091 4.49755C4.72514 4.22589 5.05539 4.11511 5.31569 4.06305Z" fill="currentColor" fill-rule="evenodd" clip-rule="evenodd"/><path opacity="0.4" d="M8.09158 8.25C7.31327 8.25 6.62945 8.55616 6.11985 8.88935C5.60973 9.22288 5.21375 9.62259 4.99611 9.90837L4.80884 10.1543L5.89633 18.4122C5.9995 19.1958 6.08709 19.8612 6.2343 20.3889C6.39266 20.9565 6.64144 21.4506 7.12021 21.831C7.5853 22.2005 8.30876 22.4125 9.01555 22.5422C9.75904 22.6787 10.6227 22.747 11.4769 22.7499C12.331 22.7528 13.1992 22.6904 13.9513 22.5554C14.669 22.4264 15.4021 22.2115 15.8811 21.831C16.3599 21.4506 16.6087 20.9565 16.767 20.3889C16.9142 19.8612 17.0018 19.1958 17.105 18.4122L18.2587 9.6515L17.9374 9.38706C17.6778 9.17341 16.4668 8.25 14.7507 8.25C13.7969 8.25 12.8732 8.53979 12.1271 8.78849C12.0458 8.81559 11.9671 8.84206 11.8906 8.86778C11.5996 8.96566 11.3409 9.05265 11.0954 9.12191C10.7846 9.20957 10.5563 9.25 10.387 9.25C10.3081 9.25 10.2662 9.24099 10.2482 9.23584C10.2327 9.23141 10.2256 9.22736 10.2187 9.22267C10.1875 9.20155 10.1722 9.18476 10.1131 9.11975C10.0849 9.08885 10.0469 9.047 9.99255 8.98871C9.84588 8.8313 9.63303 8.62566 9.29699 8.47323C8.96785 8.32393 8.57596 8.25 8.09158 8.25Z" fill="currentColor"/><path d="M12.7893 8.57812C13.3904 8.40082 14.0625 8.25006 14.7502 8.25C14.7664 8.25 14.783 8.25179 14.7991 8.25195L14.9397 3.19434C14.9428 3.08614 15.0316 3 15.1399 3L19.0012 3C19.5535 3 20.0012 2.55228 20.0012 2C20.0012 1.44772 19.5535 1 19.0012 1L14.9446 1C13.8856 1 13.0097 1.82569 12.9475 2.88281V2.89844L12.7893 8.57812Z" fill="currentColor"/><path d="M9.00037 16C9.00037 15.4477 9.44808 15 10.0004 15H10.0093C10.5616 15 11.0093 15.4477 11.0093 16C11.0093 16.5523 10.5616 17 10.0093 17H10.0004C9.44808 17 9.00037 16.5523 9.00037 16Z" fill="currentColor" fill-rule="evenodd" clip-rule="evenodd"/></svg>
