<svg xmlns="http://www.w3.org/2000/svg" viewBox="0 0 24 24" fill="none"><path d="M6.12547 6C6.07261 6 6.0323 6.04674 6.03921 6.09915L7.62383 18.132C7.73665 18.9887 7.80985 19.5266 7.91921 19.9186C8.01799 20.2727 8.11539 20.3871 8.20803 20.4607C8.31178 20.5431 8.66148 20.6982 9.33067 20.821C9.95092 20.9348 10.7082 20.9973 11.4822 20.9999C12.2564 21.0026 13.0159 20.9452 13.6412 20.8329C14.3123 20.7124 14.6737 20.5546 14.7919 20.4607C14.8845 20.3871 14.9819 20.2727 15.0807 19.9186C15.19 19.5266 15.2633 18.9887 15.3761 18.132L16.9607 6.09915C16.9676 6.04674 16.9273 6 16.8744 6H6.12547ZM5.31544 4.06305C5.57368 4.01139 5.85515 4 6.12547 4H16.8744C17.1447 4 17.4262 4.01139 17.6845 4.06305C17.9448 4.11511 18.275 4.22589 18.5492 4.49755C18.8366 4.78219 18.9468 5.1272 18.9832 5.41995C19.0172 5.69389 18.994 5.97744 18.9607 6.23042L17.3504 18.458C17.2488 19.2302 17.1592 19.911 17.0071 20.4561C16.8402 21.0542 16.5698 21.6026 16.0359 22.0267C15.5054 22.4482 14.7191 22.6713 13.9947 22.8014C13.2246 22.9398 12.3408 23.0029 11.4754 22.9999C10.6097 22.9969 9.7308 22.9278 8.96971 22.7881C8.25755 22.6575 7.4807 22.4372 6.96398 22.0267C6.43005 21.6026 6.15965 21.0542 5.99277 20.4561C5.84072 19.911 5.75112 19.2302 5.6495 18.4581L4.03923 6.23042C4.00591 5.97744 3.98267 5.69389 4.01673 5.41995C4.05312 5.1272 4.16332 4.78219 4.45066 4.49755C4.72489 4.22589 5.05515 4.11511 5.31544 4.06305Z" fill="currentColor" fill-rule="evenodd" clip-rule="evenodd"/><path d="M14.9395 3.19445C14.9425 3.08619 15.0311 3 15.1394 3H19.0015C19.5538 3 20.0015 2.55228 20.0015 2C20.0015 1.44772 19.5538 1 19.0015 1H14.9444C13.8854 1 13.01 1.82543 12.9478 2.88256L12.9469 2.89803L12.5005 18.9722C12.4852 19.5243 12.9203 19.9843 13.4724 19.9996C14.0244 20.0149 14.4844 19.5798 14.4997 19.0278L14.9395 3.19445Z" fill="currentColor" fill-rule="evenodd" clip-rule="evenodd"/><path d="M11.4766 22.7499C12.3306 22.7528 13.1991 22.6907 13.9512 22.5556C14.6688 22.4267 15.4019 22.2114 15.8809 21.831C16.3596 21.4506 16.6082 20.9562 16.7666 20.3886C16.9138 19.8609 17.0013 19.1956 17.1045 18.412L18.2588 9.65127L17.9375 9.38662C17.6779 9.17297 16.4662 8.2499 14.75 8.2499C13.7964 8.24999 12.8729 8.53934 12.127 8.78799C12.0457 8.81508 11.9671 8.84235 11.8906 8.86807C11.5996 8.96594 11.3403 9.05271 11.0947 9.12197C10.7841 9.20955 10.5559 9.2499 10.3867 9.2499C10.3078 9.2499 10.2661 9.2404 10.248 9.23525C10.2327 9.23087 10.2256 9.22719 10.2188 9.22256C10.1876 9.20148 10.1721 9.18467 10.1133 9.12002C10.0852 9.08913 10.0465 9.04648 9.99219 8.98818C9.84556 8.83085 9.63256 8.62586 9.29688 8.47353C8.96784 8.32428 8.57597 8.24995 8.0918 8.2499C7.31349 8.2499 6.62874 8.55636 6.11914 8.88955C5.60937 9.22293 5.21371 9.62243 4.99609 9.9081L4.80859 10.1542L5.89648 18.412C5.99964 19.1956 6.08719 19.8609 6.23438 20.3886C6.39274 20.9562 6.64135 21.4506 7.12012 21.831C7.58522 22.2004 8.3089 22.4122 9.01562 22.5419C9.75902 22.6783 10.6225 22.747 11.4766 22.7499ZM10 16.9999C9.44772 16.9999 9 16.5522 9 15.9999C9 15.4476 9.44772 14.9999 10 14.9999H10.0088C10.5611 14.9999 11.0088 15.4476 11.0088 15.9999C11.0088 16.5522 10.5611 16.9999 10.0088 16.9999H10Z" fill="currentColor" fill-rule="evenodd" clip-rule="evenodd"/></svg>
