<svg xmlns="http://www.w3.org/2000/svg" viewBox="0 0 24 24" fill="none"><path opacity="0.4" d="M8.54895 20.048C8.43298 19.6493 8.34642 19.1102 8.21887 18.298L7.17773 11.6651C7.31082 11.6097 7.44975 11.5583 7.59253 11.5119C8.32505 11.2739 9.28312 11.1283 10.1482 11.3869C10.6431 11.535 11.2443 11.8505 11.8044 12.135C12.3994 12.4371 13.0187 12.7443 13.6511 12.9621C14.7707 13.3478 15.7788 13.4099 16.6509 12.7582L15.7814 18.298C15.6538 19.1102 15.5673 19.6493 15.4513 20.048C15.3416 20.4252 15.229 20.5862 15.1036 20.6915C14.9586 20.8133 14.5937 20.971 13.9786 21.088C13.3961 21.1987 12.6929 21.2544 11.9786 21.2511C11.2644 21.2478 10.5637 21.1859 9.98743 21.0733C9.37566 20.9538 9.02475 20.799 8.89661 20.6915C8.77128 20.5862 8.65867 20.4252 8.54895 20.048Z" fill="currentColor"/><path d="M11.9717 22.7499C12.7587 22.7536 13.5611 22.6931 14.2588 22.5605C14.9236 22.4341 15.6142 22.2213 16.0693 21.8388C16.5059 21.4718 16.7364 20.9994 16.8916 20.4657C17.0405 19.9537 17.1413 19.3032 17.2627 18.5302L18.6416 9.7499H19C19.4142 9.7499 19.75 9.41412 19.75 8.9999C19.75 8.58569 19.4142 8.2499 19 8.2499H18.4629L17.7754 6.87588C17.5133 6.35174 17.2927 5.90696 17.0723 5.56045C16.8425 5.19942 16.5805 4.89078 16.209 4.66104C15.8372 4.43127 15.4434 4.33495 15.0176 4.29092C14.6092 4.2487 14.1131 4.2499 13.5273 4.2499H12.75V1.9999C12.75 1.58569 12.4142 1.2499 12 1.2499C11.5858 1.2499 11.25 1.58569 11.25 1.9999V4.2499H10.4707C9.88492 4.2499 9.38888 4.2487 8.98047 4.29092C8.55466 4.33495 8.16084 4.43127 7.78906 4.66104C7.4175 4.89078 7.15551 5.19942 6.92578 5.56045C6.7053 5.90696 6.48473 6.35174 6.22266 6.87588L5.53516 8.2499H5C4.58579 8.2499 4.25 8.58569 4.25 8.9999C4.25 9.41412 4.58579 9.7499 5 9.7499H5.3584L6.7373 18.5302C6.85867 19.3031 6.95952 19.9537 7.1084 20.4657C7.2636 20.9993 7.49434 21.4719 7.93066 21.8388C8.36936 22.2075 9.04901 22.4166 9.7002 22.5439C10.3874 22.6781 11.1845 22.7462 11.9717 22.7499ZM7.56445 7.54678C7.84021 6.99526 8.02214 6.63218 8.19141 6.36612C8.35138 6.1147 8.46659 6.00536 8.57813 5.93643C8.68963 5.86756 8.83854 5.81374 9.13477 5.78311C9.44839 5.75069 9.8542 5.7499 10.4707 5.7499H11.25V8.2499H7.21289L7.56445 7.54678ZM12.75 5.7499H13.5273C14.1438 5.7499 14.5497 5.75069 14.8633 5.78311C15.1595 5.81374 15.3084 5.86756 15.4199 5.93643C15.5315 6.00536 15.6467 6.1147 15.8066 6.36612C15.9759 6.63218 16.1578 6.99526 16.4336 7.54678L16.7852 8.2499H12.75V5.7499ZM11.9785 21.2499C11.2644 21.2466 10.5635 21.1848 9.9873 21.0722C9.37579 20.9526 9.0246 20.7978 8.89648 20.6903C8.77132 20.585 8.65844 20.4236 8.54883 20.0468C8.43292 19.6481 8.34625 19.1088 8.21875 18.2968L6.87598 9.7499L17.1221 9.7499L15.7812 18.2968C15.6537 19.1089 15.5671 19.6481 15.4512 20.0468C15.3414 20.424 15.2288 20.585 15.1035 20.6903C14.9584 20.8121 14.5936 20.9699 13.9785 21.0868C13.3961 21.1975 12.6927 21.2532 11.9785 21.2499ZM10.5 16.9999C11.0523 16.9999 11.5 16.5522 11.5 15.9999C11.5 15.4476 11.0523 14.9999 10.5 14.9999C9.98232 14.9999 9.55621 15.3932 9.50488 15.8974L9.5 15.9999L9.50488 16.1024C9.55621 16.6066 9.98232 16.9999 10.5 16.9999ZM13 19.4999C13.5523 19.4999 14 19.0522 14 18.4999C14 17.9476 13.5523 17.4999 13 17.4999C12.4823 17.4999 12.0562 17.8932 12.0049 18.3974L12 18.4999L12.0049 18.6024C12.0562 19.1066 12.4823 19.4999 13 19.4999Z" fill="currentColor" fill-rule="evenodd" clip-rule="evenodd"/></svg>
