<svg xmlns="http://www.w3.org/2000/svg" viewBox="0 0 24 24" fill="none"><path d="M11.9717 22.7499C12.7586 22.7536 13.5612 22.693 14.2588 22.5605C14.9234 22.4341 15.6142 22.2211 16.0693 21.8388C16.5057 21.4719 16.7364 20.9992 16.8916 20.4657C17.0376 19.9637 17.1376 19.3282 17.2559 18.5751L17.2627 18.5302L18.6406 9.75381H19C19.4142 9.75381 19.75 9.41802 19.75 9.00381C19.75 8.5896 19.4142 8.25381 19 8.25381H18.4629L17.7754 6.87979C17.5133 6.35564 17.2927 5.91086 17.0723 5.56436C16.8425 5.20332 16.5805 4.89468 16.209 4.66494C15.8372 4.43518 15.4434 4.33885 15.0176 4.29483C14.6092 4.2526 14.1131 4.25381 13.5273 4.25381H12.75V1.9999C12.75 1.58569 12.4142 1.2499 12 1.2499C11.5858 1.2499 11.25 1.58569 11.25 1.9999V4.25381H10.4707C9.88492 4.25381 9.38888 4.2526 8.98047 4.29483C8.55466 4.33885 8.16083 4.43518 7.78906 4.66494C7.4175 4.89468 7.15551 5.20332 6.92578 5.56436C6.7053 5.91086 6.48473 6.35564 6.22266 6.87979L5.53516 8.25381H5C4.58579 8.25381 4.25 8.5896 4.25 9.00381C4.25 9.41802 4.58579 9.75381 5 9.75381H5.35938L6.7373 18.5302L6.74512 18.5751C6.86335 19.3282 6.96242 19.9637 7.1084 20.4657C7.2636 20.9993 7.49434 21.4719 7.93066 21.8388C8.36936 22.2075 9.04901 22.4166 9.7002 22.5439C10.3874 22.6781 11.1845 22.7462 11.9717 22.7499ZM7.56445 7.55069C7.84021 6.99917 8.02214 6.63608 8.19141 6.37002C8.35138 6.1186 8.46659 6.00926 8.57813 5.94033C8.68963 5.87147 8.83854 5.81764 9.13477 5.78701C9.44839 5.75459 9.8542 5.75381 10.4707 5.75381H11.25V8.25381H7.21289L7.56445 7.55069ZM12.75 5.75381H13.5273C14.1438 5.75381 14.5497 5.75459 14.8633 5.78701C15.1595 5.81764 15.3084 5.87147 15.4199 5.94033C15.5315 6.00926 15.6467 6.1186 15.8066 6.37002C15.9759 6.63608 16.1578 6.99917 16.4336 7.55069L16.7852 8.25381H12.75V5.75381ZM16.6504 12.7567C15.7654 13.4186 14.7321 13.3476 13.5752 12.9355C12.9552 12.7145 12.3496 12.4114 11.7686 12.1161C11.2208 11.8377 10.6343 11.532 10.1484 11.3866C9.3574 11.1502 8.49071 11.2527 7.79785 11.4491C7.5876 11.5088 7.37771 11.5828 7.17773 11.6659L6.87793 9.75381L17.1221 9.75381L16.6504 12.7567ZM10.5 16.9999C9.98248 16.9999 9.55643 16.6064 9.50488 16.1024L9.5 15.9999L9.50488 15.8974C9.55643 15.3935 9.98248 14.9999 10.5 14.9999C11.0521 14.9999 11.4997 15.4478 11.5 15.9999C11.4997 16.552 11.0521 16.9999 10.5 16.9999ZM13 19.4999C12.4825 19.4999 12.0564 19.1064 12.0049 18.6024L12 18.4999L12.0049 18.3974C12.0564 17.8935 12.4825 17.4999 13 17.4999C13.5521 17.4999 13.9997 17.9478 14 18.4999C13.9997 19.052 13.5521 19.4999 13 19.4999Z" fill="currentColor" fill-rule="evenodd" clip-rule="evenodd"/></svg>
