<svg xmlns="http://www.w3.org/2000/svg" viewBox="0 0 24 24" fill="none"><path d="M12.9772 20.775V19.3125C12.9772 18.774 13.4148 18.3375 13.9545 18.3375C14.4942 18.3375 14.9317 18.774 14.9317 19.3125V20.775C14.9317 21.3135 14.4942 21.75 13.9545 21.75C13.4148 21.75 12.9772 21.3135 12.9772 20.775ZM12.9772 15.4125V13.95C12.9772 13.4115 13.4148 12.975 13.9545 12.975C14.4942 12.975 14.9317 13.4115 14.9317 13.95V15.4125C14.9317 15.951 14.4942 16.3875 13.9545 16.3875C13.4148 16.3875 12.9772 15.951 12.9772 15.4125ZM12.9772 10.05V8.5875C12.9772 8.04902 13.4148 7.6125 13.9545 7.6125C14.4942 7.6125 14.9317 8.04902 14.9317 8.5875V10.05C14.9317 10.5885 14.4942 11.025 13.9545 11.025C13.4148 11.025 12.9772 10.5885 12.9772 10.05ZM12.9772 4.6875V3.225C12.9772 2.68652 13.4148 2.25 13.9545 2.25C14.4942 2.25 14.9317 2.68652 14.9317 3.225V4.6875C14.9317 5.22598 14.4942 5.6625 13.9545 5.6625C13.4148 5.6625 12.9772 5.22598 12.9772 4.6875Z" fill="currentColor"/><path d="M4.18186 3.22461C4.83837 3.22461 5.43852 3.22429 5.98264 3.2373C6.03281 3.22938 6.08454 3.22461 6.13694 3.22461C6.2104 3.22464 6.28198 3.23269 6.35081 3.24805C6.78187 3.26464 7.17432 3.29333 7.52854 3.34082C8.43518 3.46243 9.23602 3.72761 9.87717 4.36719C10.5183 5.00679 10.7845 5.80551 10.9065 6.70996C10.9541 7.06316 10.9816 7.45498 10.9983 7.88477C11.0139 7.95393 11.0227 8.02575 11.0227 8.09961C11.0227 8.15102 11.0177 8.20172 11.01 8.25098C11.0231 8.79441 11.0227 9.39396 11.0227 10.0498V13.9492C11.0227 14.6042 11.0221 15.2032 11.009 15.7461C11.017 15.7963 11.0227 15.8479 11.0227 15.9004C11.0227 15.9739 11.0138 16.0454 10.9983 16.1143C10.9816 16.5441 10.9541 16.9358 10.9065 17.2891C10.7846 18.1936 10.5183 18.9922 9.87717 19.6318C9.236 20.2715 8.43523 20.5366 7.52854 20.6582C7.17433 20.7057 6.78187 20.7334 6.35081 20.75C6.28191 20.7654 6.21049 20.7744 6.13694 20.7744C6.08448 20.7744 6.03286 20.7687 5.98264 20.7607C5.43851 20.7738 4.83838 20.7744 4.18186 20.7744H2.22776C1.6881 20.7744 1.25033 20.3382 1.25022 19.7998C1.25022 19.2613 1.68804 18.8242 2.22776 18.8242H4.18186C4.53483 18.8242 4.85965 18.8239 5.1594 18.8223V16.875H2.22776C1.68817 16.875 1.25043 16.4387 1.25022 15.9004C1.25022 15.3619 1.68804 14.9248 2.22776 14.9248H5.1594V12.9756H2.22776C1.68804 12.9756 1.25022 12.5385 1.25022 12C1.25043 11.4617 1.68817 11.0254 2.22776 11.0254H5.1594V9.0752H2.22776C1.68804 9.0752 1.25022 8.63809 1.25022 8.09961C1.25043 7.56131 1.68817 7.125 2.22776 7.125H5.1594V5.17676C4.85965 5.17508 4.53483 5.1748 4.18186 5.1748H2.22776C1.68804 5.1748 1.25022 4.7377 1.25022 4.19922C1.25043 3.66092 1.68817 3.22461 2.22776 3.22461H4.18186ZM7.1135 16.875V18.7441C7.1663 18.7383 7.21842 18.7333 7.26878 18.7266C7.95847 18.634 8.27788 18.4699 8.49534 18.2529C8.71277 18.036 8.87718 17.7173 8.96995 17.0293C8.97669 16.9793 8.98168 16.9275 8.98753 16.875H7.1135ZM7.1135 14.9248H9.06663C9.06831 14.6257 9.06858 14.3014 9.06858 13.9492V12.9756H7.1135V14.9248ZM7.1135 11.0254H9.06858V10.0498C9.06858 9.69795 9.06831 9.37404 9.06663 9.0752H7.1135V11.0254ZM7.1135 7.125H8.98753C8.98167 7.07239 8.9767 7.02088 8.96995 6.9707C8.87718 6.2823 8.71285 5.9631 8.49534 5.74609C8.27787 5.52915 7.95844 5.36502 7.26878 5.27246C7.21842 5.26571 7.1663 5.26074 7.1135 5.25488V7.125Z" fill="currentColor"/><path d="M21.7434 3.22602C22.2826 3.21003 22.7339 3.63427 22.7502 4.17231C22.7663 4.71036 22.3413 5.15993 21.802 5.17622C20.27 5.22238 19.7404 5.40605 19.4143 5.73188C19.1965 5.9497 19.0315 6.27031 18.9387 6.9604C18.9315 7.01387 18.9263 7.06921 18.9201 7.12544H21.7727C22.3121 7.12569 22.749 7.5619 22.7492 8.10005C22.7492 8.63837 22.3122 9.07538 21.7727 9.07563H18.843C18.8413 9.37382 18.841 9.69664 18.841 10.0473V11.0258H21.7727C22.3121 11.0261 22.749 11.4623 22.7492 12.0004C22.7492 12.5388 22.3122 12.9758 21.7727 12.976H18.841V13.9555C18.841 14.3054 18.8414 14.6276 18.843 14.9252H21.7727C22.3121 14.9255 22.749 15.3617 22.7492 15.8999C22.7492 16.4382 22.3122 16.8752 21.7727 16.8754H18.9201C18.9264 16.9324 18.9314 16.9883 18.9387 17.0424C19.0315 17.7325 19.1965 18.0531 19.4143 18.2709C19.7404 18.5968 20.27 18.7805 21.802 18.8266C22.3413 18.8429 22.7662 19.2925 22.7502 19.8305C22.7339 20.3686 22.2826 20.7928 21.7434 20.7768C20.2397 20.7315 18.9578 20.5751 18.0305 19.6479C17.39 19.0073 17.125 18.2078 17.0032 17.3022C16.9553 16.9463 16.927 16.5514 16.9104 16.1176C16.8944 16.0477 16.886 15.9746 16.886 15.8999C16.886 15.8459 16.8912 15.7932 16.8996 15.7416C16.8869 15.2014 16.886 14.6062 16.886 13.9555V10.0473C16.886 9.39549 16.8869 8.7993 16.8996 8.25825C16.8912 8.20684 16.886 8.15383 16.886 8.10005C16.886 8.02519 16.8943 7.95228 16.9104 7.88227C16.927 7.44969 16.9554 7.05573 17.0032 6.70063C17.125 5.795 17.39 4.99547 18.0305 4.35493C18.9578 3.42772 20.2397 3.27133 21.7434 3.22602Z" fill="currentColor" fill-rule="evenodd" clip-rule="evenodd"/></svg>
