<svg xmlns="http://www.w3.org/2000/svg" viewBox="0 0 24 24" fill="none"><path d="M20.054 1.2497C20.5138 1.24923 20.8977 1.24883 21.2296 1.3469C21.8524 1.53089 22.3865 1.97331 22.6247 2.59162C22.7011 2.79005 22.7277 2.98491 22.7395 3.16809C22.7506 3.33922 22.7506 3.60486 22.7506 3.83085C22.7508 4.0035 22.751 4.17794 22.7187 4.35057C22.6583 4.67269 22.5152 4.97013 22.3093 5.22134C22.2001 5.35455 22.0687 5.46946 21.9274 5.59298C21.5185 5.95226 20.8978 6.49707 20.4382 6.6415C20.2483 6.70118 20.0511 6.73649 19.8521 6.74702C19.377 6.77219 18.9178 6.61064 18.3782 6.42077L17.2398 6.02181C16.9834 5.932 16.7661 5.85587 16.5917 5.78518C16.4125 5.71257 16.2327 5.62811 16.0689 5.50711C15.4059 5.01756 15.0824 4.18674 15.3366 3.37612C15.3997 3.17479 15.5027 3.00171 15.6064 2.84847C15.7068 2.70021 15.8776 2.47578 16.0291 2.27677C16.1525 2.11429 16.2672 1.9633 16.4076 1.83521C16.7349 1.53648 17.1491 1.34687 17.5858 1.27853C17.7711 1.24952 17.9627 1.24963 18.1895 1.24975L20.054 1.2497Z" fill="currentColor"/><path d="M6.78406 4.62285C8.39491 3.79526 10.3447 4.38962 11.2587 5.95488L12.7518 8.51152C12.9416 8.83655 13.0647 9.04615 13.1679 9.19707C13.2818 9.37468 13.5965 9.64361 13.9452 9.30058C14.0801 9.18054 14.2481 9.00878 14.5087 8.74101C16.0394 7.16817 18.5913 7.43429 19.785 9.27422L20.9559 11.0789C21.7255 12.2651 21.9482 13.7359 21.5682 15.1023L21.2264 16.3328C20.8632 17.639 19.9804 18.7358 18.786 19.3494L13.1737 22.2332C11.5927 23.0455 9.70274 22.8921 8.26746 21.8387L3.23328 18.1434C1.56949 16.9221 0.862841 14.7549 1.45887 12.7645L2.77625 8.36601C3.15538 7.09993 4.02398 6.04146 5.18836 5.44316L6.78406 4.62285ZM11.5302 14.9695C11.2373 14.6766 10.7625 14.6766 10.4696 14.9695L8.96961 16.4695C8.67672 16.7624 8.67672 17.2372 8.96961 17.5301C9.2625 17.823 9.73726 17.823 10.0302 17.5301L11.5302 16.0301C11.823 15.7372 11.823 15.2624 11.5302 14.9695ZM15.9999 12.9998C15.4476 12.9998 14.9999 13.4475 14.9999 13.9998C14.9999 14.5521 15.4476 14.9998 15.9999 14.9998H16.0087C16.561 14.9998 17.0087 14.5521 17.0087 13.9998C17.0087 13.4475 16.561 12.9998 16.0087 12.9998H15.9999ZM8.17957 9.42461C7.79817 9.2617 7.34224 9.15997 6.85828 9.36113C6.40104 9.55129 6.12709 9.92821 5.92664 10.2957C5.73249 10.6517 5.54242 11.1276 5.32117 11.6795C5.31566 11.6932 5.30915 11.7067 5.30359 11.7205C5.14949 12.1049 5.33635 12.5418 5.72059 12.6961C6.10505 12.8502 6.54202 12.6636 6.69617 12.2791C6.93908 11.6733 7.09759 11.2819 7.24402 11.0135C7.31391 10.8854 7.36543 10.815 7.40027 10.7771C7.4132 10.7631 7.42236 10.7549 7.42762 10.7508C7.44925 10.7539 7.49907 10.7658 7.58973 10.8045C7.81433 10.9004 8.11045 11.0821 8.6034 11.3895C8.9548 11.6085 9.41741 11.5015 9.6366 11.1502C9.85565 10.7989 9.74843 10.3363 9.39734 10.117C9.38222 10.1076 9.36649 10.0981 9.35145 10.0887C8.91943 9.81922 8.5241 9.57182 8.17957 9.42461Z" fill="currentColor" fill-rule="evenodd" clip-rule="evenodd"/></svg>
