<svg xmlns="http://www.w3.org/2000/svg" viewBox="0 0 24 24" fill="none"><path opacity="0.4" d="M13.5537 1.25C14.6865 1.24998 15.6123 1.24996 16.3431 1.34822C17.1071 1.45093 17.7694 1.67321 18.2981 2.2019C18.8268 2.7306 19.0491 3.39294 19.1518 4.15689C19.25 4.88775 19.25 5.81348 19.25 6.94631V17.0537C19.25 18.1865 19.25 19.1123 19.1518 19.8431C19.0491 20.6071 18.8268 21.2694 18.2981 21.7981C17.7694 22.3268 17.1071 22.5491 16.3431 22.6518C15.6123 22.75 14.6865 22.75 13.5537 22.75H13.5537H10.4463H10.4463C9.31347 22.75 8.38774 22.75 7.65689 22.6518C6.89293 22.5491 6.2306 22.3268 5.7019 21.7981C5.17321 21.2694 4.95093 20.6071 4.84822 19.8431C4.74996 19.1123 4.74998 18.1865 4.75 17.0537V17.0537V6.94631V6.94629C4.74998 5.81346 4.74996 4.88774 4.84822 4.15689C4.95093 3.39294 5.17321 2.7306 5.7019 2.2019C6.2306 1.67321 6.89294 1.45093 7.65689 1.34822C8.38774 1.24996 9.31346 1.24998 10.4463 1.25H10.4463H13.5537H13.5537Z" fill="currentColor"/><path d="M12 18C12.5523 18 13 18.4477 13 19C13 19.5523 12.5523 20 12 20C11.4477 20 11 19.5523 11 19C11 18.4477 11.4477 18 12 18Z" fill="currentColor"/></svg>
