<svg xmlns="http://www.w3.org/2000/svg" viewBox="0 0 24 24" fill="none"><path d="M14.3643 1.25195C15.1368 1.25654 15.7946 1.27495 16.3428 1.34863C17.1067 1.45134 17.7692 1.67346 18.2979 2.20215C18.8265 2.73084 19.0487 3.39328 19.1514 4.15723C19.2496 4.88804 19.25 5.81361 19.25 6.94629V17.0537C19.25 18.1864 19.2496 19.112 19.1514 19.8428C19.0487 20.6067 18.8265 21.2692 18.2979 21.7979C17.7692 22.3265 17.1067 22.5487 16.3428 22.6514C15.612 22.7496 14.6864 22.75 13.5537 22.75H10.4463L9.63574 22.748C8.86316 22.7435 8.20542 22.725 7.65723 22.6514C6.89328 22.5487 6.23084 22.3265 5.70215 21.7979C5.17346 21.2692 4.95134 20.6067 4.84863 19.8428C4.75041 19.112 4.74998 18.1864 4.75 17.0537V6.94629L4.75195 6.13574C4.75654 5.36316 4.77495 4.70542 4.84863 4.15723C4.95134 3.39328 5.17346 2.73084 5.70215 2.20215C6.23084 1.67346 6.89328 1.45134 7.65723 1.34863C8.38804 1.25041 9.31361 1.24998 10.4463 1.25H13.5537L14.3643 1.25195ZM12 18C11.4477 18 11 18.4477 11 19C11 19.5523 11.4477 20 12 20C12.5523 20 13 19.5523 13 19C13 18.4477 12.5523 18 12 18Z" fill="currentColor"/></svg>
