<svg xmlns="http://www.w3.org/2000/svg" viewBox="0 0 24 24" fill="none"><path opacity="0.4" d="M18 10.75C18.9665 10.75 19.75 9.9665 19.75 9V8C19.75 7.0335 18.9665 6.25 18 6.25H8C7.0335 6.25 6.25 7.0335 6.25 8V9C6.25 9.9665 7.0335 10.75 8 10.75H18Z" fill="currentColor"/><path d="M15.75 6.25V10.75H14.25V6.25H15.75Z" fill="currentColor"/><path opacity="0.4" d="M14 17.75C14.9665 17.75 15.75 16.9665 15.75 16V15C15.75 14.0335 14.9665 13.25 14 13.25H8C7.0335 13.25 6.25 14.0335 6.25 15V16C6.25 16.9665 7.0335 17.75 8 17.75H14Z" fill="currentColor"/><path d="M11.75 13.25V17.75H10.25V13.25H11.75Z" fill="currentColor"/><path d="M2 13V3C2 2.44772 2.44772 2 3 2C3.55229 2 4 2.44772 4 3V13C4 14.9139 4.00229 16.2487 4.1377 17.2559C4.26924 18.2342 4.5099 18.7521 4.87891 19.1211C5.24792 19.4901 5.7658 19.7308 6.74414 19.8623C7.75128 19.9977 9.08611 20 11 20H21C21.5523 20 22 20.4477 22 21C22 21.5523 21.5523 22 21 22H11C9.14265 22 7.64892 22.0022 6.47754 21.8447C5.27745 21.6834 4.26738 21.3377 3.46485 20.5352C2.66231 19.7326 2.31664 18.7226 2.15528 17.5225C1.99779 16.3511 2 14.8573 2 13Z" fill="currentColor"/></svg>
