<svg xmlns="http://www.w3.org/2000/svg" viewBox="0 0 24 24" fill="none"><path opacity="0.4" d="M11.5876 1.2501C12.1575 1.24934 12.662 1.24866 13.1375 1.41733C13.2355 1.45209 13.3315 1.49208 13.4253 1.53715C13.8801 1.75582 14.2364 2.11489 14.6388 2.52054L19.4217 7.32819C19.889 7.79654 20.3038 8.2122 20.5279 8.75596C20.7519 9.29971 20.751 9.88846 20.75 10.5518L20.7499 14.0261C20.7499 15.8081 20.7499 17.2445 20.5988 18.3741C20.442 19.547 20.1064 20.5345 19.3261 21.3188C18.5459 22.1031 17.5635 22.4405 16.3967 22.5982C15.2728 22.75 13.8439 22.75 12.0711 22.75C10.2983 22.75 8.72721 22.75 7.60337 22.5982C6.43658 22.4405 5.45417 22.1031 4.67392 21.3188C3.89367 20.5345 3.55807 19.547 3.4012 18.3741C3.25011 17.2445 3.25013 15.8081 3.25015 14.0262V14.0261V9.45263V9.4526C3.25013 7.91893 3.25012 6.6824 3.36439 5.69856C3.48263 4.6806 3.73433 3.80839 4.32696 3.06954C4.5445 2.79833 4.79027 2.55128 5.06008 2.33261C5.7951 1.7369 6.6628 1.48389 7.67549 1.36504C8.65425 1.25017 10.0619 1.25008 11.5876 1.2501Z" fill="currentColor"/><path d="M13.1372 1.41698C13.2352 1.45174 13.3313 1.49173 13.425 1.53679C13.8798 1.75546 14.2361 2.11454 14.6386 2.52018L19.4214 7.32783L19.4214 7.32784C19.8888 7.79619 20.3036 8.21185 20.5276 8.7556C20.6264 8.99533 20.6815 9.2438 20.7121 9.50356H18.7313C17.3637 9.50358 16.7151 9.50279 15.8482 9.38623C14.9481 9.26521 14.1902 9.00632 13.5883 8.4044C12.9863 7.80249 12.7275 7.04461 12.6064 6.14451C12.4901 5.27932 12.4901 4.63161 12.4901 3.26977V3.26974V1.27832C12.7135 1.30139 12.9282 1.34281 13.1372 1.41698Z" fill="currentColor"/><path d="M11 18C11 18.5523 11.4478 19 12 19C12.5523 19 13 18.5523 13 18V14.1094C13.0135 14.1248 13.0276 14.1398 13.0411 14.1553C13.3515 14.5128 13.6416 14.8736 13.8545 15.1465C13.9605 15.2822 14.0463 15.3952 14.1055 15.4736L14.1905 15.5869C14.1922 15.5892 14.1944 15.5918 14.1944 15.5918C14.5218 16.0364 15.1481 16.1328 15.5928 15.8057C16.0374 15.4782 16.1329 14.8519 15.8057 14.4072L15.8047 14.4062L15.8028 14.4033C15.8015 14.4015 15.7992 14.3995 15.7969 14.3965C15.7922 14.3901 15.7852 14.3809 15.7764 14.3691C15.7588 14.3456 15.7336 14.3114 15.7012 14.2686C15.6365 14.1829 15.5441 14.0613 15.4307 13.916C15.2047 13.6265 14.8924 13.2371 14.5518 12.8447C14.2155 12.4574 13.8317 12.0439 13.4649 11.7197C13.2825 11.5586 13.0802 11.3979 12.8721 11.2725C12.6914 11.1636 12.3773 11 12 11C11.6228 11 11.3086 11.1636 11.128 11.2725C10.9199 11.3979 10.7175 11.5586 10.5352 11.7197C10.1684 12.0439 9.78459 12.4574 9.44828 12.8447C9.10764 13.2371 8.79534 13.6265 8.56938 13.916C8.45596 14.0613 8.36353 14.1829 8.29887 14.2686C8.26652 14.3114 8.24124 14.3456 8.22367 14.3691C8.21491 14.3809 8.20792 14.3901 8.20317 14.3965C8.20092 14.3995 8.19862 14.4015 8.19731 14.4033L8.19535 14.4062L8.19438 14.4072C7.86723 14.8519 7.96277 15.4773 8.40727 15.8047C8.85196 16.1322 9.47819 16.0375 9.8057 15.5928C9.8057 15.5928 9.80793 15.5892 9.80961 15.5869L9.89457 15.4736C9.95379 15.3952 10.0396 15.2822 10.1455 15.1465C10.3585 14.8736 10.6486 14.5128 10.959 14.1553C10.9725 14.1398 10.9866 14.1248 11 14.1094V18Z" fill="currentColor"/></svg>
