<svg xmlns="http://www.w3.org/2000/svg" viewBox="0 0 24 24" fill="none"><path d="M11.5879 1.2501C12.1576 1.24934 12.6624 1.24852 13.1377 1.4171C13.2354 1.45179 13.3312 1.49226 13.4248 1.53721C13.8796 1.75586 14.2362 2.11502 14.6386 2.52061L19.4218 7.32823C19.889 7.79642 20.3032 8.21244 20.5273 8.75596C20.7514 9.29967 20.751 9.88856 20.75 10.5519V14.0265C20.75 15.8083 20.7497 17.2445 20.5986 18.3741C20.4418 19.5468 20.1061 20.5342 19.3261 21.3185C18.5459 22.1028 17.5632 22.441 16.3965 22.5987C15.2727 22.7506 13.8438 22.7501 12.0713 22.7501C10.2987 22.7501 8.72727 22.7506 7.60349 22.5987C6.43676 22.441 5.45402 22.1027 4.6738 21.3185C3.89377 20.5342 3.55819 19.5468 3.40134 18.3741C3.25027 17.2445 3.24994 15.8083 3.24997 14.0265V9.45225C3.24995 7.91884 3.24997 6.68207 3.36423 5.69835C3.48249 4.68056 3.73457 3.80819 4.32712 3.06944C4.54448 2.79849 4.79 2.55162 5.05954 2.33311C5.79454 1.73742 6.66311 1.4842 7.67575 1.36534C8.65447 1.25052 10.0624 1.25008 11.5879 1.2501ZM12 11.0001C11.6227 11.0001 11.3086 11.1637 11.1279 11.2726C10.9198 11.398 10.7175 11.5587 10.5351 11.7198C10.1683 12.044 9.78452 12.4575 9.44821 12.8448C9.10758 13.2372 8.79527 13.6266 8.56931 13.9161C8.4559 14.0614 8.36346 14.183 8.2988 14.2687C8.26646 14.3115 8.24117 14.3457 8.2236 14.3692C8.21485 14.381 8.20785 14.3902 8.20309 14.3966C8.20086 14.3996 8.19855 14.4017 8.19724 14.4034L8.19528 14.4064L8.19431 14.4073C7.86716 14.852 7.9627 15.4774 8.4072 15.8048C8.85189 16.1323 9.47813 16.0376 9.80563 15.5929C9.80583 15.5926 9.80794 15.5892 9.80954 15.587L9.8945 15.4737C9.95372 15.3953 10.0396 15.2823 10.1455 15.1466C10.3584 14.8737 10.6485 14.5129 10.959 14.1554C10.9724 14.1399 10.9865 14.1249 11 14.1095V18.0001C11 18.5524 11.4477 19.0001 12 19.0001C12.5522 19.0001 13 18.5524 13 18.0001V14.1095C13.0134 14.1249 13.0275 14.1399 13.041 14.1554C13.3514 14.5129 13.6415 14.8737 13.8545 15.1466C13.9604 15.2823 14.0462 15.3953 14.1054 15.4737L14.1904 15.587C14.1921 15.5893 14.1943 15.5919 14.1943 15.5919C14.5217 16.0365 15.1481 16.1329 15.5927 15.8058C16.0373 15.4783 16.1328 14.852 15.8056 14.4073L15.8047 14.4064L15.8027 14.4034C15.8014 14.4016 15.7991 14.3996 15.7968 14.3966C15.7921 14.3902 15.7851 14.381 15.7763 14.3692C15.7588 14.3457 15.7335 14.3115 15.7011 14.2687C15.6365 14.1831 15.544 14.0614 15.4306 13.9161C15.2047 13.6266 14.8924 13.2372 14.5517 12.8448C14.2154 12.4575 13.8317 12.044 13.4648 11.7198C13.2825 11.5587 13.0801 11.398 12.872 11.2726C12.6914 11.1637 12.3772 11.0001 12 11.0001ZM12.4902 3.27061C12.4902 4.63195 12.4902 5.27976 12.6064 6.14463C12.7274 7.04446 12.9864 7.80258 13.5879 8.4044C14.1897 9.00629 14.9486 9.2658 15.8486 9.38682C16.7153 9.50333 17.3641 9.50403 18.7314 9.50401C18.6746 9.36623 18.569 9.23546 17.9511 8.61436L13.3467 3.98545C12.8138 3.44983 12.6718 3.31651 12.4902 3.26182V3.27061Z" fill="currentColor" fill-rule="evenodd" clip-rule="evenodd"/></svg>
