<svg xmlns="http://www.w3.org/2000/svg" viewBox="0 0 24 24" fill="none"><path d="M18.9513 15.465C19.3939 14.6608 19.7501 13.6345 19.7501 12.4552C19.7501 10.1475 18.4657 8.45333 17.0577 7.55579C18.0457 7.56481 18.9526 7.69721 19.7013 7.86145C20.2505 7.98185 20.8285 7.85447 21.2394 7.50598C21.6817 7.13069 21.897 6.51204 21.6398 5.87024C21.3495 5.14607 20.8414 4.35944 20.0128 3.75403C19.1776 3.14377 18.0611 2.7502 16.6163 2.75012C14.5336 2.75012 13.1551 3.61216 12.3204 4.74231C12.1863 4.92394 12.0674 5.11116 11.962 5.3009C11.6837 4.7666 11.3358 4.23497 10.9044 3.7511C9.88955 2.61264 8.42018 1.75012 6.39661 1.75012C4.49467 1.75016 3.18694 2.56225 2.53821 3.56555L2.41712 3.76868C2.13514 4.28491 2.23507 4.82875 2.52844 5.21497C2.80004 5.57245 3.22233 5.79059 3.6554 5.84778C4.42036 5.94872 5.36205 6.10628 6.36243 6.32629C5.88193 6.56373 5.39834 6.87491 4.95032 7.25793C3.74665 8.28703 2.75015 9.88292 2.75012 12.09C2.75012 12.8977 2.8567 13.6013 3.0304 14.1974C3.12239 14.5131 3.29636 14.8015 3.56848 15.0011C3.84374 15.203 4.16673 15.275 4.47376 15.2433C5.06894 15.1818 5.55455 14.7535 5.80481 14.2179C6.74009 12.2155 8.26431 10.3132 11.8702 9.01575C13.1943 9.95362 15.3022 12.0626 16.0089 14.8243C16.1707 15.4565 16.6233 15.9734 17.1993 16.1691C17.4945 16.2693 17.8373 16.287 18.171 16.1622C18.5095 16.0355 18.7747 15.7858 18.9513 15.465Z" fill="currentColor"/><path d="M11.6628 10.4347C12.2586 10.9326 12.9358 11.6253 13.5241 12.4611C13.2715 15.0073 12.7872 18.1535 11.7185 21.7159C11.6232 22.0329 11.3308 22.2501 10.9997 22.2501H4.99973C4.71582 22.25 4.45582 22.089 4.32883 21.8351C4.20208 21.5812 4.22998 21.277 4.40012 21.0499C6.10496 18.7767 7.66614 15.6429 8.76536 12.1964C9.47466 11.5505 10.4034 10.953 11.6628 10.4347Z" fill="currentColor"/></svg>
