<svg xmlns="http://www.w3.org/2000/svg" fill="none" viewBox="0 0 48 48">
  <g>
    <path fill="#8fbffa" fill-rule="evenodd" d="M43.1828 15.7313c-2.5745 -2.6041 -8.7066 -8.19863 -17.0704 -11.86668 -1.3461 -0.59033 -2.8787 -0.59033 -4.2248 0C13.5238 7.53267 7.39167 13.1272 4.81725 15.7313c-0.89675 0.9071 -1.39382 2.1105 -1.46892 3.3838C3.20698 21.5118 3 25.8702 3 30.8425c0 3.6211 0.10977 6.9165 0.22402 9.3658 0.1158 2.4826 2.08953 4.4301 4.57309 4.5225 3.44089 0.1279 8.89389 0.269 16.20289 0.269 1.1261 0 2.2081 -0.0033 3.2455 -0.0095C24.7504 41.8639 23.5 37.8942 23.5 33.9998c0 -1.9071 0.0944 -3.5992 0.1998 -4.8977 0.2559 -3.1493 2.3551 -6.5749 6.4651 -7.1934 1.5752 -0.237 3.7642 -0.4089 6.8351 -0.4089 3.0709 0 5.2599 0.1719 6.8351 0.4089 0.3367 0.0507 0.6599 0.1202 0.9697 0.2068 -0.0516 -1.1848 -0.106 -2.2015 -0.1531 -3.0004 -0.0751 -1.2733 -0.5722 -2.4767 -1.4689 -3.3838Zm1.7842 11.6c-0.4449 -0.5085 -1.0526 -0.86 -1.8016 -0.9727 -1.2958 -0.195 -3.2515 -0.3588 -6.1654 -0.3588s-4.8696 0.1638 -6.1654 0.3588c-1.5715 0.2365 -2.5209 1.5239 -2.6495 3.1078C28.0873 30.6695 28 32.2376 28 33.9998c0 4.4359 2.1033 8.7194 5.9398 10.9059 2.5322 -0.0502 4.6255 -0.1141 6.2631 -0.1749 0.0564 -0.0021 0.1125 -0.0052 0.1683 -0.0092 1.9877 -1.2219 3.4834 -3.0207 4.4315 -5.1047 0.1041 -2.3766 0.1973 -5.4372 0.1973 -8.7744 0 -1.2135 -0.0123 -2.3904 -0.033 -3.5112Z" clip-rule="evenodd" stroke-width="3.429"></path>
    <path fill="currentColor" fill-opacity="0.4" d="M28.1851 29.4666c0.1286 -1.5839 1.078 -2.8713 2.6495 -3.1078C32.1304 26.1638 34.0861 26 37 26s4.8696 0.1638 6.1654 0.3588c1.5715 0.2365 2.5209 1.5239 2.6495 3.1078C45.9127 30.6696 46 32.2378 46 34c0 4.5271 -2.1907 8.8955 -6.1786 11.0381C38.7653 45.6055 37.7584 46 37 46s-1.7653 -0.3945 -2.8214 -0.9619C30.1907 42.8955 28 38.5271 28 34c0 -1.7622 0.0873 -3.3304 0.1851 -4.5334Z" stroke-width="3.429"></path>
    <path stroke="currentColor" stroke-linecap="round" stroke-linejoin="round" d="M26.0001 44.999c-6.6889 0 -13.8234 -0.1182 -17.28377 -0.2363 -3.00187 -0.1024 -5.38809 -2.4695 -5.51204 -5.4706C3.09745 36.7053 3 33.4107 3 29.999c0 -4.4348 0.16468 -8.4898 0.30058 -11.0812 0.09897 -1.8869 0.89784 -3.66 2.33063 -4.8919 2.83511 -2.4377 8.31939 -6.65574 15.55409 -9.86708 1.7913 -0.79509 3.8383 -0.79509 5.6295 0 7.2347 3.21131 12.7189 7.42928 15.5541 9.86698 1.4328 1.232 2.2317 3.0051 2.3306 4.8922 0.0314 0.5979 0.0642 1.2737 0.0963 2.0141" stroke-width="3.429"></path>
    <path stroke="currentColor" stroke-linejoin="round" d="M28.1851 29.4666c0.1286 -1.5839 1.078 -2.8713 2.6495 -3.1078C32.1304 26.1638 34.0861 26 37 26s4.8696 0.1638 6.1654 0.3588c1.5715 0.2365 2.5209 1.5239 2.6495 3.1078C45.9127 30.6696 46 32.2378 46 34c0 4.5271 -2.1907 8.8955 -6.1786 11.0381C38.7653 45.6055 37.7584 46 37 46s-1.7653 -0.3945 -2.8214 -0.9619C30.1907 42.8955 28 38.5271 28 34c0 -1.7622 0.0873 -3.3304 0.1851 -4.5334Z" stroke-width="3.429"></path>
  </g>
</svg>
