<svg xmlns="http://www.w3.org/2000/svg" fill="none" viewBox="0 0 48 48">
  <g>
    <path fill="currentColor" fill-opacity="0.4" fill-rule="evenodd" d="M21.2852 2.49092c1.73 -0.75873 3.6996 -0.75873 5.4296 0.00001C35.3232 6.26622 41.6102 12.007 44.2495 14.6767c1.1741 1.1877 1.8049 2.7444 1.8996 4.3501 0.0711 1.2063 0.1587 2.9052 0.2286 4.9281 -0.5061 -0.2404 -1.0678 -0.4172 -1.6855 -0.5148C43.1244 23.1924 40.85 23 37.5396 23c-3.3105 0 -5.5849 0.1924 -7.1527 0.4401 -3.2506 0.5136 -4.9488 3.2209 -5.1679 5.8346 -0.1139 1.3584 -0.219 3.1631 -0.219 5.2049 0 4.4181 1.6591 8.8675 4.8992 11.9883 -1.8079 0.0201 -3.7756 0.0319 -5.8992 0.0319 -7.3283 0 -12.7999 -0.1415 -16.25861 -0.2701 -3.25961 -0.1212 -5.86346 -2.6868 -6.01574 -5.9515C1.61061 37.8121 1.5 34.4926 1.5 30.8425c0 -5.011 0.20849 -9.4005 0.35093 -11.8157 0.0947 -1.6057 0.72549 -3.1624 1.8996 -4.3501l1.06672 1.0546 -1.06672 -1.0546C6.38984 12.007 12.6768 6.26622 21.2852 2.49092ZM40.4553 46.2194c-0.0653 0.0044 -0.1309 0.0079 -0.1967 0.0103 -1.4307 0.0532 -3.2059 0.1086 -5.3145 0.1553 -0.1307 -0.0657 -0.2625 -0.1343 -0.395 -0.2055C30.3221 43.9084 28 39.2781 28 34.4796c0 -1.9416 0.1 -3.6608 0.2085 -4.9543 0.1327 -1.5835 1.077 -2.8739 2.6466 -3.122C32.2263 26.1867 34.3369 26 37.5396 26c3.2026 0 5.3132 0.1867 6.6844 0.4033 1.0506 0.166 1.8211 0.7991 2.2555 1.6745 0.0131 0.8933 0.0205 1.8179 0.0205 2.7647 0 3.1095 -0.0803 5.9792 -0.1752 8.2856 -0.9998 2.9674 -2.9727 5.5351 -5.7948 7.0514 -0.0249 0.0134 -0.0498 0.0267 -0.0747 0.0399Z" clip-rule="evenodd" stroke-width="1"></path>
    <path fill="currentColor" d="M28.2085 29.5253c0.1327 -1.5835 1.077 -2.8739 2.6466 -3.122C32.2263 26.1867 34.3369 26 37.5396 26c3.2026 0 5.3132 0.1867 6.6844 0.4033 1.5696 0.2481 2.5139 1.5385 2.6466 3.122 0.1085 1.2935 0.2085 3.0127 0.2085 4.9543 0 4.7985 -2.3221 9.4288 -6.5491 11.6999 -1.1193 0.6014 -2.1866 1.0195 -2.9904 1.0195 -0.8039 0 -1.8712 -0.4181 -2.9905 -1.0195C30.3221 43.9084 28 39.2781 28 34.4796c0 -1.9416 0.1 -3.6608 0.2085 -4.9543Z" stroke-width="1"></path>
  </g>
</svg>
