<svg xmlns="http://www.w3.org/2000/svg" fill="none" viewBox="0 0 48 48">
  <g>
    <path stroke="currentColor" stroke-linecap="round" stroke-linejoin="round" d="M24.0001 44.999c-6.6889 0 -11.8234 -0.1182 -15.28377 -0.2363 -3.00187 -0.1024 -5.38809 -2.4695 -5.51204 -5.4706C3.09745 36.7053 3 33.4107 3 29.999c0 -4.4348 0.16468 -8.4898 0.30058 -11.0812 0.09897 -1.8869 0.89784 -3.66 2.33063 -4.8919 2.83511 -2.4377 8.31939 -6.65574 15.55409 -9.86708 1.7913 -0.79509 3.8383 -0.79509 5.6295 0 7.2347 3.21131 12.7189 7.42928 15.5541 9.86698 1.4328 1.232 2.2317 3.0051 2.3306 4.8922 0.0314 0.5979 0.0642 1.2737 0.0963 2.0141" stroke-width="3.429"></path>
    <path stroke="currentColor" stroke-linejoin="round" d="M28.1851 29.4666c0.1286 -1.5839 1.078 -2.8713 2.6495 -3.1078C32.1304 26.1638 34.0861 26 37 26s4.8696 0.1638 6.1654 0.3588c1.5715 0.2365 2.5209 1.5239 2.6495 3.1078C45.9127 30.6696 46 32.2378 46 34c0 4.5271 -2.1907 8.8955 -6.1786 11.0381C38.7653 45.6055 37.7584 46 37 46s-1.7653 -0.3945 -2.8214 -0.9619C30.1907 42.8955 28 38.5271 28 34c0 -1.7622 0.0873 -3.3304 0.1851 -4.5334Z" stroke-width="3.429"></path>
  </g>
</svg>
