<svg xmlns="http://www.w3.org/2000/svg" fill="none" viewBox="0 0 48 48">
  <g>
    <path fill="currentColor" fill-rule="evenodd" d="M20.3739 2.33081c2.3079 -1.02441 4.9445 -1.02441 7.2523 0 7.4716 3.31646 13.1212 7.66323 16.0466 10.17849 1.8848 1.6206 2.8992 3.9232 3.024 6.3039 0.0316 0.6036 0.0648 1.2855 0.0971 2.0325 0.0478 1.1035 -0.8081 2.0368 -1.9117 2.0845 -1.1035 0.0478 -2.0368 -0.8081 -2.0846 -1.9117 -0.0317 -0.7339 -0.0643 -1.4036 -0.0953 -1.9958 -0.0731 -1.3934 -0.6565 -2.637 -1.6373 -3.4804 -2.7449 -2.36 -8.0638 -6.44931 -15.0616 -9.55548 -1.2746 -0.56576 -2.7321 -0.56576 -4.0067 0 -6.9978 3.1062 -12.31671 7.19548 -15.06158 9.55558 -0.9808 0.8433 -1.56421 2.0869 -1.63728 3.4802C5.16307 21.5922 5 25.6102 5 29.999c0 3.376 0.09649 6.6417 0.20259 9.2106 0.08074 1.9548 1.62462 3.4875 3.58196 3.5543 3.43845 0.1173 8.55015 0.2351 15.21555 0.2351 1.1045 0 2 0.8955 2 2 0 1.1046 -0.8955 2 -2 2 -6.7125 0 -11.8697 -0.1186 -15.35199 -0.2374 -4.04641 -0.1381 -7.27495 -3.3396 -7.44211 -7.3869C1.09842 36.7699 1 33.4463 1 29.999c0 -4.4808 0.16628 -8.5727 0.30333 -11.1859 0.12486 -2.3807 1.1392 -4.6832 3.02396 -6.3037C7.25265 9.99412 12.9022 5.64731 20.3739 2.33081M37 25c-2.9488 0 -4.9563 0.1656 -6.3142 0.3699 -2.1356 0.3214 -3.3405 2.0839 -3.4975 4.0157C27.0889 30.6099 27 32.2056 27 34c0 4.829 2.3386 9.5729 6.7054 11.919C34.772 46.4921 35.9715 47 37 47s2.228 -0.5079 3.2946 -1.081C44.6614 43.5729 47 38.829 47 34c0 -1.7944 -0.0889 -3.3901 -0.1883 -4.6144 -0.157 -1.9317 -1.3619 -3.6943 -3.4975 -4.0157C41.9563 25.1656 39.9488 25 37 25" clip-rule="evenodd" stroke-width="3.429"></path>
  </g>
</svg>
