<svg xmlns="http://www.w3.org/2000/svg" fill="none" viewBox="0 0 48 48">
  <g>
    <path fill="currentColor" fill-rule="evenodd" d="M26.7148 2.49092c-1.73 -0.75873 -3.6996 -0.75873 -5.4296 0C12.6768 6.26622 6.38984 12.007 3.75053 14.6767l1.06672 1.0546 -1.06672 -1.0546c-1.17411 1.1877 -1.8049 2.7444 -1.8996 4.3501C1.70849 21.442 1.5 25.8315 1.5 30.8425c0 3.6501 0.11061 6.9696 0.22565 9.4357 0.15228 3.2647 2.75613 5.8303 6.01574 5.9515 3.45871 0.1286 8.93031 0.2701 16.25861 0.2701 2.1236 0 4.0913 -0.0118 5.8992 -0.0319C26.6591 43.3471 25 38.8977 25 34.4796c0 -2.0418 0.1051 -3.8465 0.219 -5.2049 0.2191 -2.6137 1.9173 -5.321 5.1679 -5.8346C31.9547 23.1924 34.2291 23 37.5396 23c3.3104 0 5.5848 0.1924 7.1526 0.4401 0.6177 0.0976 1.1794 0.2744 1.6855 0.5148 -0.0699 -2.0229 -0.1575 -3.7218 -0.2286 -4.9281 -0.0947 -1.6057 -0.7255 -3.1624 -1.8996 -4.3501 -2.6393 -2.6697 -8.9263 -8.41048 -17.5347 -12.18578ZM40.4553 46.2194c-1.092 0.5799 -2.1298 0.9796 -2.9157 0.9796 -0.7087 0 -1.6222 -0.325 -2.5955 -0.814 -0.1307 -0.0657 -0.2625 -0.1343 -0.395 -0.2055C30.3221 43.9084 28 39.2781 28 34.4796c0 -1.9416 0.1 -3.6608 0.2085 -4.9543 0.1327 -1.5835 1.077 -2.8739 2.6466 -3.122C32.2263 26.1867 34.3369 26 37.5396 26c3.2026 0 5.3132 0.1867 6.6844 0.4033 1.0506 0.166 1.8211 0.7991 2.2555 1.6745 0.2146 0.4324 0.3472 0.9239 0.3911 1.4475 0.1085 1.2935 0.2085 3.0127 0.2085 4.9543 0 1.5949 -0.2565 3.1712 -0.7543 4.6485 -0.9998 2.9674 -2.9727 5.5351 -5.7948 7.0514 -0.0249 0.0134 -0.0498 0.0267 -0.0747 0.0399Z" clip-rule="evenodd" stroke-width="3.429"></path>
  </g>
</svg>
