<svg xmlns="http://www.w3.org/2000/svg" viewBox="0 0 24 24" fill="none"><path d="M19.0001 14.2496C21.0712 14.2496 22.7501 15.9286 22.7501 17.9996C22.7501 20.0707 21.0712 21.7496 19.0001 21.7496H5.00009C2.92902 21.7496 1.25009 20.0707 1.25009 17.9996C1.25009 15.9286 2.92902 14.2496 5.00009 14.2496H19.0001ZM5.25009 16.9996C4.69781 16.9996 4.25009 17.4473 4.25009 17.9996C4.25009 18.5519 4.69781 18.9996 5.25009 18.9996C5.80238 18.9996 6.25009 18.5519 6.25009 17.9996C6.25009 17.4473 5.80238 16.9996 5.25009 16.9996ZM18.7501 16.9996C18.1978 16.9996 17.7501 17.4473 17.7501 17.9996C17.7501 18.5519 18.1978 18.9996 18.7501 18.9996C19.3024 18.9996 19.7501 18.5519 19.7501 17.9996C19.7501 17.4473 19.3024 16.9996 18.7501 16.9996Z" fill="currentColor"/><path d="M4.50009 2.24963C6.8473 2.24963 8.75009 4.15242 8.75009 6.49963V12.9996H5.00009C4.38435 12.9996 3.79482 13.1115 3.25009 13.3151V3.49963C3.25009 2.80928 3.80974 2.24963 4.50009 2.24963Z" fill="currentColor"/><path d="M17.0001 2.24963C17.5524 2.24963 18.0001 2.69735 18.0001 3.24963V4.10901C18.0846 4.16803 18.2164 4.23963 18.4474 4.3551C18.669 4.46594 19.0339 4.64205 19.3282 4.88733C19.6555 5.16006 20.0001 5.60457 20.0001 6.24963C20.0001 6.89469 19.6555 7.33921 19.3282 7.61194C19.0339 7.85722 18.669 8.03333 18.4474 8.14417C18.3686 8.18356 18.3021 8.2194 18.2442 8.24963C18.3021 8.27987 18.3686 8.31571 18.4474 8.3551C18.669 8.46594 19.0339 8.64205 19.3282 8.88733C19.6555 9.16006 20.0001 9.60457 20.0001 10.2496C20.0001 10.8947 19.6555 11.3392 19.3282 11.6119C19.0339 11.8572 18.669 12.0333 18.4474 12.1442C18.3686 12.1836 18.3021 12.2194 18.2442 12.2496C18.3021 12.2799 18.3686 12.3157 18.4474 12.3551C18.669 12.4659 19.0339 12.642 19.3282 12.8873C19.3771 12.928 19.4253 12.9736 19.4737 13.0221C19.3178 13.0074 19.1598 12.9996 19.0001 12.9996H16.1788C16.0723 12.788 16.0001 12.5397 16.0001 12.2496C16.0001 11.6046 16.3447 11.1601 16.672 10.8873C16.9663 10.642 17.3312 10.4659 17.5528 10.3551C17.6313 10.3159 17.6973 10.2798 17.755 10.2496C17.6973 10.2195 17.6313 10.1834 17.5528 10.1442C17.3312 10.0333 16.9663 9.85722 16.672 9.61194C16.3447 9.33921 16.0001 8.89469 16.0001 8.24963C16.0001 7.60457 16.3447 7.16006 16.672 6.88733C16.9663 6.64205 17.3312 6.46594 17.5528 6.3551C17.6313 6.31589 17.6973 6.27977 17.755 6.24963C17.6973 6.2195 17.6313 6.18338 17.5528 6.14417C17.3312 6.03333 16.9663 5.85722 16.672 5.61194C16.3447 5.33921 16.0001 4.89469 16.0001 4.24963V3.24963C16.0001 2.69735 16.4478 2.24963 17.0001 2.24963Z" fill="currentColor"/></svg>
