<svg xmlns="http://www.w3.org/2000/svg" fill="none" viewBox="0 0 48 48">
  <g>
    <path fill="currentColor" fill-opacity="0.4" d="M23.6407 8.4873C12.944 8.5131 4.6751 16.8296 5.186 27.5142c0.1517 3.1742 0.3552 5.8839 0.4872 7.4766 -0.1285 0.0119 -0.1889 0.0186 -0.1889 0.0186 -1.1168 0.3722 -2.5105 2.7884 -3.1511 4.0016 -0.2393 0.4531 -0.3519 0.9588 -0.3519 1.4711 0 1.7336 1.287 3.185 3.0146 3.3298 3.5223 0.2952 10.0323 0.7055 19.0041 0.7055 8.9719 0 15.4818 -0.4103 19.0042 -0.7055 1.7274 -0.1448 3.0145 -1.5962 3.0145 -3.3298 0 -0.5123 -0.1126 -1.018 -0.3519 -1.4711 -0.6406 -1.2132 -2.0343 -3.6294 -3.1511 -4.0016 0 0 -0.0603 -0.0067 -0.1889 -0.0186 0.132 -1.5927 0.3355 -4.3024 0.4872 -7.4766 0.5108 -10.6846 -7.7579 -19.0011 -18.4547 -19.0269 -0.1196 -0.0003 -0.2393 -0.0005 -0.3593 -0.0005s-0.2397 0.0002 -0.3593 0.0005Z" stroke-width="1"></path>
    <path fill="currentColor" fill-opacity="0.4" d="M18.9977 18.4944c0.0152 -5.8956 0.095 -9.9156 0.1577 -12.2142 0.0376 -1.3819 1.0332 -2.5398 2.409 -2.6732 0.7265 -0.0705 1.5664 -0.1244 2.435 -0.1244s1.7086 0.0539 2.435 0.1244c1.3759 0.1334 2.3715 1.2913 2.4091 2.6732 0.0627 2.2986 0.1425 6.3186 0.1577 12.2142 0.0028 1.1056 -0.8937 2.0026 -1.9992 2.0026h-6.0052c-1.1054 0 -2.002 -0.897 -1.9991 -2.0026Z" stroke-width="1"></path>
    <path stroke="currentColor" stroke-linecap="round" stroke-linejoin="round" d="M18.9957 19.4962c0 -6.4441 0.0869 -10.7897 0.1557 -13.2223 0.0394 -1.3913 1.0507 -2.5509 2.4367 -2.6764 0.7212 -0.0652 1.5525 -0.1149 2.4119 -0.1149 0.8594 0 1.6907 0.0497 2.4119 0.115 1.386 0.1254 2.3973 1.285 2.4367 2.6763 0.0688 2.4326 0.1557 6.7782 0.1557 13.2223" stroke-width="1"></path>
    <path stroke="currentColor" stroke-linejoin="round" d="M19.0867 9.0224c-8.3907 1.9972 -14.336 9.3847 -13.9006 18.4935 0.1518 3.1742 0.3553 5.8838 0.4873 7.4766" stroke-width="1"></path>
    <path stroke="currentColor" stroke-linejoin="round" d="M28.9124 9.0185c8.3909 1.997 14.3364 9.3847 13.9009 18.4936 -0.1517 3.1741 -0.3553 5.8838 -0.4872 7.4766" stroke-width="1"></path>
    <path stroke="currentColor" stroke-linejoin="round" d="M43.0042 43.8119c-3.5224 0.2952 -10.0323 0.7055 -19.0042 0.7055 -8.9718 0 -15.4818 -0.4103 -19.0041 -0.7055 -1.7275 -0.1448 -3.0146 -1.5962 -3.0146 -3.3298 0 -0.5123 0.1126 -1.018 0.3519 -1.4711 0.6406 -1.2132 2.0343 -3.6294 3.1511 -4.0016 0 0 4.5038 -0.5005 18.5157 -0.5005 14.0119 0 18.5157 0.5005 18.5157 0.5005 1.1168 0.3722 2.5105 2.7884 3.1511 4.0016 0.2393 0.4531 0.3519 0.9588 0.3519 1.4711 0 1.7336 -1.2871 3.185 -3.0145 3.3298Z" stroke-width="1"></path>
  </g>
</svg>
