<svg xmlns="http://www.w3.org/2000/svg" fill="none" viewBox="0 0 48 48">
  <g>
    <path fill="currentColor" fill-opacity="0.4" fill-rule="evenodd" d="M30.3493 6.2314c0.0133 0.4724 0.0274 1.0162 0.0413 1.6325 8.4581 2.5301 14.3755 10.2634 13.9233 19.7219 -0.1227 2.5666 -0.2791 4.8309 -0.4047 6.4538 -0.047 0.6078 -0.0897 1.1258 -0.1249 1.5366 0.3486 0.1436 0.674 0.4059 0.9616 0.6939 0.3256 0.326 0.6434 0.7267 0.9367 1.1414 0.5873 0.8301 1.108 1.761 1.4316 2.3741 0.2782 0.5273 0.4058 1.1091 0.4058 1.6889 0 1.9863 -1.4973 3.6579 -3.4917 3.8153 -3.7643 0.2972 -10.8177 0.7289 -20.0283 0.7289 -9.2105 0 -16.264 -0.4318 -20.0283 -0.7289C1.9773 45.1324 0.48 43.4607 0.48 41.4745c0 -0.5798 0.1276 -1.1616 0.4059 -1.6889 0.3235 -0.6131 0.8442 -1.544 1.4315 -2.3741 0.2934 -0.4148 0.6111 -0.8154 0.9367 -1.1414 0.2878 -0.2881 0.6133 -0.5505 0.9621 -0.6941 -0.0352 -0.4107 -0.0779 -0.9288 -0.125 -1.5363 -0.1256 -1.6231 -0.2818 -3.8873 -0.4045 -6.4538 -0.4522 -9.4584 5.4648 -17.1916 13.9227 -19.7219 0.0139 -0.6164 0.028 -1.1601 0.0413 -1.6326 0.0593 -2.0912 1.6003 -3.9297 3.8022 -4.129 0.7542 -0.0683 1.6319 -0.1211 2.5471 -0.1211s1.7929 0.0528 2.5472 0.1211c2.2019 0.1993 3.743 2.0378 3.8021 4.129Z" clip-rule="evenodd" stroke-width="1"></path>
    <path fill="currentColor" fill-rule="evenodd" d="M33.5049 17.9947c-0.008 -3.7387 -0.0453 -6.7088 -0.0882 -8.9521 -0.9651 -0.4684 -1.9768 -0.8631 -3.0277 -1.1774 0.0526 2.3221 0.1037 5.6748 0.1133 10.1295 0.0018 0.8291 0.6738 1.5028 1.5029 1.5028s1.5015 -0.6737 1.4997 -1.5028Zm-19.013 0c0.008 -3.7385 0.0453 -6.7086 0.0882 -8.9519 0.9651 -0.4684 1.9768 -0.8631 3.0277 -1.1775 -0.0525 2.3223 -0.1037 5.6754 -0.1133 10.1305 -0.0018 0.8291 -0.6738 1.5017 -1.5029 1.5017s-1.5015 -0.6737 -1.4997 -1.5028ZM4.3236 35.5355c-0.0366 0.0121 -0.0729 0.0257 -0.109 0.0405 -0.0352 -0.4107 -0.0779 -0.9288 -0.125 -1.5364 -0.0349 -0.4515 -0.0722 -0.9526 -0.1105 -1.4961 0.0616 -0.009 0.1235 -0.0163 0.1856 -0.0219l0.0035 -0.0003 0.0097 -0.0009 0.0213 -0.0019 0.0554 -0.0047c0.0518 -0.0043 0.1257 -0.0103 0.2225 -0.0178 0.1935 -0.0148 0.4785 -0.0354 0.8607 -0.0598 0.7643 -0.0489 1.918 -0.1128 3.5079 -0.1764 3.1794 -0.1272 8.1055 -0.253 15.1528 -0.253 7.0472 0 11.9734 0.1258 15.1527 0.253 1.5898 0.0636 2.7436 0.1275 3.508 0.1764 0.3822 0.0244 0.6671 0.045 0.8606 0.0598 0.0968 0.0075 0.1707 0.0135 0.2226 0.0178l0.0046 0.0004 0.0588 0.005 0.018 0.0016 0.0085 0.0008c0.0621 0.0056 0.1242 0.013 0.1859 0.022 -0.0383 0.5434 -0.0755 1.0446 -0.1106 1.496 -0.047 0.6078 -0.0898 1.1258 -0.1249 1.5367 -0.0362 -0.015 -0.0726 -0.0286 -0.1094 -0.0408 -0.0366 -0.0122 -0.0745 -0.0202 -0.113 -0.0236l-0.0049 -0.0005 -0.013 -0.0011 -0.0508 -0.0044c-0.0449 -0.0037 -0.112 -0.0092 -0.2021 -0.0161 -0.18 -0.0139 -0.452 -0.0335 -0.8216 -0.0572 -0.7392 -0.0472 -1.8691 -0.11 -3.4367 -0.1726 -3.135 -0.1254 -8.0208 -0.2506 -15.0327 -0.2506 -7.0119 0 -11.8977 0.1252 -15.0328 0.2506 -1.5675 0.0626 -2.6975 0.1254 -3.4367 0.1726 -0.3696 0.0237 -0.6415 0.0433 -0.8216 0.0572 -0.0901 0.0069 -0.1572 0.0124 -0.2021 0.0161l-0.0507 0.0044 -0.0131 0.0011 -0.0049 0.0005c-0.0385 0.0034 -0.0763 0.0114 -0.113 0.0236Z" clip-rule="evenodd" stroke-width="1"></path>
  </g>
</svg>
