<svg xmlns="http://www.w3.org/2000/svg" fill="none" viewBox="0 0 48 48">
  <g>
    <path stroke="currentColor" stroke-linecap="round" stroke-linejoin="round" d="M18.9957 19.4962c0 -6.4441 0.0869 -10.7897 0.1557 -13.2223 0.0394 -1.3913 1.0507 -2.5509 2.4367 -2.6764 0.7212 -0.0652 1.5525 -0.1149 2.4119 -0.1149 0.8594 0 1.6907 0.0497 2.4119 0.115 1.386 0.1254 2.3973 1.285 2.4367 2.6763 0.0688 2.4326 0.1557 6.7782 0.1557 13.2223" stroke-width="3.429"></path>
    <path stroke="currentColor" stroke-linejoin="round" d="M19.0867 9.0185C10.696 11.0156 4.7507 18.4032 5.1861 27.512c0.1518 3.1742 0.3553 5.8838 0.4873 7.4766" stroke-width="3.429"></path>
    <path stroke="currentColor" stroke-linejoin="round" d="M28.9124 9.0185c8.3909 1.997 14.3364 9.3847 13.9009 18.4936 -0.1517 3.1741 -0.3553 5.8838 -0.4872 7.4766" stroke-width="3.429"></path>
    <path stroke="currentColor" stroke-linejoin="round" d="M43.0042 43.8119c-3.5224 0.2952 -10.0323 0.7055 -19.0042 0.7055 -8.9718 0 -15.4818 -0.4103 -19.0041 -0.7055 -1.7275 -0.1448 -3.0146 -1.5962 -3.0146 -3.3298 0 -0.5123 0.1126 -1.018 0.3519 -1.4711 0.6406 -1.2132 2.0343 -3.6294 3.1511 -4.0016 0 0 4.5038 -0.5005 18.5157 -0.5005 14.0119 0 18.5157 0.5005 18.5157 0.5005 1.1168 0.3722 2.5105 2.7884 3.1511 4.0016 0.2393 0.4531 0.3519 0.9588 0.3519 1.4711 0 1.7336 -1.2871 3.185 -3.0145 3.3298Z" stroke-width="3.429"></path>
  </g>
</svg>
