<svg xmlns="http://www.w3.org/2000/svg" fill="none" viewBox="0 0 48 48">
  <g>
    <path fill="currentColor" fill-rule="evenodd" d="M21.4626 2.12021C22.2108 2.0526 23.0843 2 23.9976 2c0.9132 0 1.7868 0.0526 2.5349 0.12021 2.4378 0.22031 4.1336 2.25257 4.1985 4.544 0.0102 0.36001 0.0208 0.76227 0.0315 1.2074C39.0569 10.5217 44.8101 18.2005 44.3638 27.521c-0.114 2.3798 -0.2575 4.4936 -0.377 6.0591 0.1339 0.1137 0.2534 0.2267 0.3579 0.331 0.3998 0.3994 0.7647 0.8633 1.0779 1.3047 0.628 0.8854 1.1714 1.8573 1.5006 2.4797 0.4012 0.7585 0.5757 1.5778 0.5757 2.3691 0 2.6927 -2.0171 5.008 -4.7768 5.2389 -3.4895 0.2919 -9.9017 0.6947 -18.7226 0.6947 -8.821 0 -15.23316 -0.4028 -18.72274 -0.6947C2.51713 45.0726 0.5 42.7573 0.5 40.0646c0 -0.7913 0.174499 -1.6107 0.57566 -2.3691 0.32924 -0.6224 0.87267 -1.5944 1.50072 -2.4797 0.31314 -0.4415 0.67804 -0.9054 1.07794 -1.3047 0.10399 -0.1039 0.2229 -0.2163 0.35608 -0.3294 -0.11945 -1.5653 -0.26291 -3.6783 -0.37682 -6.0568 -0.4463 -9.3197 5.30577 -16.998 13.59902 -19.64871 0.0106 -0.44696 0.0213 -0.85074 0.0315 -1.21198 0.065 -2.29143 1.7608 -4.32369 4.1985 -4.544ZM40.3684 27.3297c-0.0957 1.9978 -0.2127 3.8055 -0.3179 5.2475 -0.5018 -0.0286 -1.0969 -0.059 -1.7942 -0.0892 -2.8438 -0.1235 -7.3931 -0.2458 -14.2568 -0.2458 -6.8637 0 -11.413 0.1223 -14.25683 0.2458 -0.69815 0.0303 -1.29386 0.0607 -1.79609 0.0893 -0.10511 -1.4414 -0.22198 -3.2477 -0.31758 -5.2438 -0.33246 -6.9425 3.6024 -12.7119 9.5268 -15.1728 -0.0263 2.0571 -0.0445 4.5341 -0.0445 7.4489 0 1.1045 0.8955 2 2 2 1.1046 0 2 -0.8955 2 -2 0 -6.2635 0.0846 -10.48063 0.1512 -12.83206 0.0119 -0.42082 0.291 -0.64925 0.5601 -0.67357C22.4827 6.04432 23.2325 6 23.9976 6c0.765 0 1.5149 0.04432 2.1749 0.10398 0.2691 0.02431 0.5482 0.25274 0.5601 0.67356 0.0667 2.35143 0.1512 6.56846 0.1512 12.83206 0 1.1045 0.8954 2 2 2s2 -0.8955 2 -2c0 -2.917 -0.0182 -5.3956 -0.0445 -7.4537 5.9256 2.4604 9.8616 8.2304 9.5291 15.1738Z" clip-rule="evenodd" stroke-width="1"></path>
  </g>
</svg>
