<svg xmlns="http://www.w3.org/2000/svg" fill="none" viewBox="0 0 48 48">
  <g>
    <path fill="currentColor" fill-rule="evenodd" d="M17.4961 17.9945c0.0006 -0.2783 0.0014 -0.5523 0.0023 -0.8219 0.0137 -4.0481 0.0617 -7.1313 0.111 -9.3086 0.0139 -0.6164 0.028 -1.1601 0.0413 -1.6326 0.0591 -2.0912 1.6003 -3.9297 3.8021 -4.129 0.7543 -0.0683 1.632 -0.1211 2.5472 -0.1211 0.9152 0 1.7929 0.0528 2.5472 0.1211 2.2018 0.1993 3.7429 2.0378 3.8021 4.129 0.0133 0.4724 0.0274 1.0161 0.0413 1.6325 0.0041 0.1818 0.0082 0.37 0.0123 0.5645 0.048 2.2895 0.0922 5.4592 0.101 9.565 0.0018 0.8291 0.6738 1.5028 1.5029 1.5028s1.5015 -0.6737 1.4997 -1.5028c-0.008 -3.7387 -0.0453 -6.7088 -0.0882 -8.9521 6.8026 3.3011 11.2915 10.2613 10.8956 18.5445 -0.0886 1.8526 -0.1947 3.5477 -0.2941 4.9578 -0.0617 -0.009 -0.1238 -0.0163 -0.186 -0.022l-0.0083 -0.0008 -0.0181 -0.0016 -0.0588 -0.005 -0.0047 -0.0004 -0.091 -0.0074 -0.1315 -0.0104c-0.1935 -0.0148 -0.4785 -0.0354 -0.8606 -0.0598 -0.7644 -0.0489 -1.9182 -0.1128 -3.508 -0.1764 -3.1794 -0.1272 -8.1055 -0.253 -15.1528 -0.253 -7.0472 0 -11.9733 0.1258 -15.1527 0.253 -1.5899 0.0636 -2.7436 0.1275 -3.5079 0.1764 -0.3822 0.0244 -0.6672 0.045 -0.8607 0.0598 -0.0968 0.0075 -0.1707 0.0135 -0.2225 0.0178l-0.0554 0.0047 -0.0213 0.0019 -0.0097 0.001 -0.0035 0.0002c-0.0621 0.0056 -0.124 0.013 -0.1856 0.0219 -0.0994 -1.41 -0.2055 -3.1051 -0.294 -4.9576 -0.396 -8.2831 4.0927 -15.2432 10.895 -18.5444 -0.0429 2.2433 -0.0802 5.2134 -0.0882 8.9519 -0.0018 0.8291 0.6706 1.5028 1.4997 1.5028 0.8291 0 1.5011 -0.6726 1.5029 -1.5017Zm26.1788 17.541c-0.0366 -0.0122 -0.0745 -0.0202 -0.113 -0.0236l-0.0049 -0.0005 -0.0131 -0.0011 -0.0507 -0.0044c-0.0449 -0.0037 -0.112 -0.0092 -0.2021 -0.0161 -0.18 -0.0139 -0.452 -0.0335 -0.8216 -0.0572 -0.7392 -0.0472 -1.8692 -0.11 -3.4367 -0.1726 -3.1351 -0.1254 -8.0209 -0.2506 -15.0328 -0.2506 -7.0118 0 -11.8977 0.1252 -15.0327 0.2506 -1.5676 0.0626 -2.6975 0.1254 -3.4367 0.1726 -0.3696 0.0236 -0.6415 0.0433 -0.8216 0.0572 -0.0901 0.0069 -0.1572 0.0124 -0.2021 0.0161l-0.0507 0.0044 -0.0131 0.0011 -0.0049 0.0005c-0.0385 0.0034 -0.0764 0.0114 -0.113 0.0236 -0.39 0.1299 -0.7535 0.4166 -1.0711 0.7346 -0.3256 0.326 -0.6433 0.7266 -0.9367 1.1414 -0.5873 0.8301 -1.108 1.761 -1.4315 2.3741C0.6076 40.3129 0.48 40.8947 0.48 41.4745c0 1.9862 1.4973 3.6579 3.4917 3.8153 3.7643 0.2972 10.8178 0.7289 20.0283 0.7289 9.2106 0 16.264 -0.4318 20.0283 -0.7289 1.9944 -0.1574 3.4917 -1.8291 3.4917 -3.8153 0 -0.5798 -0.1276 -1.1616 -0.4058 -1.6889 -0.3236 -0.6131 -0.8443 -1.544 -1.4316 -2.3741 -0.2933 -0.4148 -0.6111 -0.8154 -0.9367 -1.1414 -0.3174 -0.3179 -0.681 -0.6046 -1.071 -0.7346Z" clip-rule="evenodd" stroke-width="3.429"></path>
  </g>
</svg>
