<svg xmlns="http://www.w3.org/2000/svg" viewBox="0 0 24 24" fill="none"><path opacity="0.4" d="M21.3184 19.3258C22.1027 18.5456 22.4405 17.5636 22.5982 16.3968C22.6905 15.7136 22.7267 14.9175 22.7408 14H20.1423C18.6385 14 17.8867 14 17.2459 13.6684C17.2084 13.649 17.1713 13.6288 17.1346 13.6078C16.5081 13.249 16.091 12.6122 15.2569 11.3386C13.819 9.1431 13.1 8.04535 12.0841 8.0018C12.028 7.9994 11.9719 7.9994 11.9158 8.0018C10.8999 8.04535 10.1809 9.14311 8.74301 11.3386L8.743 11.3386C7.90887 12.6122 7.4918 13.249 6.8653 13.6078C6.82862 13.6288 6.79151 13.649 6.75399 13.6684C6.11322 14 5.36135 14 3.8576 14H3.85759H1.25903C1.27319 14.9175 1.30935 15.7136 1.40169 16.3968C1.55938 17.5636 1.8972 18.5456 2.68149 19.3258C3.46578 20.1061 4.4529 20.4422 5.62572 20.599C6.75477 20.7501 8.19027 20.75 9.97091 20.75H10.0454H13.9545H14.029C15.8096 20.75 17.2451 20.7501 18.3742 20.599C19.547 20.4422 20.5341 20.1061 21.3184 19.3258Z" fill="currentColor"/><path d="M14.0293 3.25C15.8097 3.24997 17.245 3.25038 18.374 3.40137C19.5467 3.55823 20.5341 3.89374 21.3184 4.67383C22.1027 5.45407 22.4409 6.43676 22.5986 7.60352C22.7504 8.72665 22.75 10.1546 22.75 11.9258V12.0742C22.75 12.7681 22.7474 13.4092 22.7383 14H20.1426C18.6388 14 17.8869 13.9996 17.2461 13.668C17.2086 13.6486 17.1714 13.6284 17.1348 13.6074C16.5083 13.2487 16.0909 12.6124 15.2568 11.3389C13.8189 9.14338 13.0999 8.0455 12.084 8.00195C12.028 7.99956 11.972 7.99956 11.916 8.00195C10.9001 8.0455 10.1811 9.1434 8.74317 11.3389C7.90913 12.6123 7.49166 13.2487 6.86524 13.6074C6.82859 13.6284 6.79139 13.6486 6.75391 13.668C6.11313 13.9996 5.36117 14 3.85742 14H1.26172C1.25261 13.4092 1.24999 12.7681 1.25 12.0742V11.9258C1.24997 10.1546 1.24963 8.72665 1.40137 7.60352C1.55906 6.43676 1.89735 5.45407 2.68164 4.67383C3.4659 3.89374 4.45326 3.55823 5.62598 3.40137C6.75495 3.25038 8.19027 3.24997 9.9707 3.25H14.0293Z" fill="currentColor"/></svg>
