<svg xmlns="http://www.w3.org/2000/svg" viewBox="0 0 24 24" fill="none"><path d="M20.7955 12C20.7955 10.1393 20.7932 8.84152 20.6609 7.86236C20.5323 6.9112 20.2971 6.4077 19.9365 6.04894C19.5759 5.69018 19.0698 5.4562 18.1137 5.32832C17.1294 5.19667 15.8249 5.19445 13.9545 5.19445H10.0455C8.17506 5.19445 6.87056 5.19667 5.88632 5.32832C4.93021 5.4562 4.4241 5.69018 4.06348 6.04894C3.70285 6.4077 3.46766 6.9112 3.33911 7.86236C3.20678 8.84152 3.20455 10.1393 3.20455 12C3.20455 13.8607 3.20678 15.1585 3.33911 16.1376C3.46766 17.0888 3.70285 17.5923 4.06348 17.9511C4.4241 18.3098 4.93021 18.5438 5.88632 18.6717C6.87056 18.8033 8.17507 18.8056 10.0455 18.8056H13.9545C15.8249 18.8056 17.1294 18.8033 18.1137 18.6717C19.0698 18.5438 19.5759 18.3098 19.9365 17.9511C20.2971 17.5923 20.5323 17.0888 20.6609 16.1376C20.7932 15.1585 20.7955 13.8607 20.7955 12ZM22.75 12C22.75 13.8058 22.7522 15.258 22.5983 16.3968C22.4406 17.5636 22.1027 18.5456 21.3184 19.3258C20.5342 20.1061 19.547 20.4422 18.3742 20.599C17.2295 20.7522 15.7697 20.75 13.9545 20.75H10.0455C8.23032 20.75 6.77053 20.7522 5.62578 20.599C4.45296 20.4422 3.46584 20.1061 2.68155 19.3258C1.89726 18.5456 1.55944 17.5636 1.40175 16.3968C1.24784 15.258 1.25 13.8058 1.25 12C1.25 10.1942 1.24784 8.742 1.40175 7.60316C1.55944 6.4364 1.89726 5.45439 2.68155 4.67415C3.46584 3.89392 4.45296 3.55784 5.62578 3.40096C6.77053 3.24785 8.23032 3.25 10.0455 3.25H13.9545C15.7697 3.25 17.2295 3.24785 18.3742 3.40096C19.547 3.55784 20.5342 3.89392 21.3184 4.67415C22.1027 5.45439 22.4406 6.4364 22.5983 7.60316C22.7522 8.742 22.75 10.1942 22.75 12Z" fill="currentColor"/><path d="M21.3184 19.3258C22.1027 18.5456 22.4405 17.5636 22.5982 16.3968C22.6905 15.7136 22.7267 14.9175 22.7408 14H20.1423C18.6385 14 17.8867 14 17.2459 13.6684C17.2084 13.649 17.1713 13.6288 17.1346 13.6078C16.5081 13.249 16.091 12.6122 15.2569 11.3386C13.819 9.1431 13.1 8.04535 12.0841 8.0018C12.028 7.9994 11.9719 7.9994 11.9158 8.0018C10.8999 8.04535 10.1809 9.14311 8.74301 11.3386L8.743 11.3386C7.90887 12.6122 7.4918 13.249 6.8653 13.6078C6.82862 13.6288 6.79151 13.649 6.75399 13.6684C6.11322 14 5.36135 14 3.8576 14H3.85759H1.25903C1.27319 14.9175 1.30935 15.7136 1.40169 16.3968C1.55938 17.5636 1.8972 18.5456 2.68149 19.3258C3.46578 20.1061 4.4529 20.4422 5.62572 20.599C6.75477 20.7501 8.19027 20.75 9.97091 20.75H10.0454H13.9545H14.029C15.8096 20.75 17.2451 20.7501 18.3742 20.599C19.547 20.4422 20.5341 20.1061 21.3184 19.3258Z" fill="currentColor"/></svg>
