<svg xmlns="http://www.w3.org/2000/svg" viewBox="0 0 24 24" fill="none"><path opacity="0.4" d="M21.0001 7C21.5524 7 22.0001 7.44772 22.0001 8C22.0001 8.55228 21.5524 9 21.0001 9H12.0001C11.4478 9 11.0001 8.55228 11.0001 8C11.0001 7.44772 11.4478 7 12.0001 7H21.0001Z" fill="currentColor"/><path opacity="0.4" d="M17.0001 11C17.5524 11 18.0001 11.4477 18.0001 12C18.0001 12.5523 17.5524 13 17.0001 13H12.0001C11.4478 13 11.0001 12.5523 11.0001 12C11.0001 11.4477 11.4478 11 12.0001 11H17.0001Z" fill="currentColor"/><path opacity="0.4" d="M17.0001 19C17.5524 19 18.0001 19.4477 18.0001 20C18.0001 20.5523 17.5524 21 17.0001 21H12.0001C11.4478 21 11.0001 20.5523 11.0001 20C11.0001 19.4477 11.4478 19 12.0001 19H17.0001Z" fill="currentColor"/><path opacity="0.4" d="M21.0001 15C21.5524 15 22.0001 15.4477 22.0001 16C22.0001 16.5523 21.5524 17 21.0001 17H12.0001C11.4478 17 11.0001 16.5523 11.0001 16C11.0001 15.4477 11.4478 15 12.0001 15H21.0001Z" fill="currentColor"/><path d="M3 3C3.55228 3 4 3.44772 4 4C4 4.99432 4.00881 5.2953 4.06836 5.51758C4.25329 6.20774 4.79228 6.74669 5.48242 6.93164C5.70469 6.9912 6.00572 7 7 7H8C8.55229 7 9 7.44772 9 8C9 8.55228 8.55229 9 8 9H7C6.13446 9 5.50555 9.00816 4.96484 8.86328C4.62227 8.77148 4.29911 8.63473 4 8.46191V11C4 11.953 4.0007 12.6009 4.0459 13.0996C4.08983 13.5844 4.16919 13.8295 4.26758 14C4.4431 14.304 4.696 14.5569 5 14.7324L5.14453 14.8018C5.30805 14.8677 5.53673 14.9211 5.90039 14.9541C6.39908 14.9993 7.04708 15 8 15C8.55229 15 9 15.4477 9 16C9 16.5523 8.55229 17 8 17C7.08384 17 6.32964 17.0006 5.71973 16.9453C5.17405 16.8958 4.66904 16.7967 4.19922 16.5693L4 16.4639C3.39204 16.1128 2.88717 15.608 2.53613 15C2.2327 14.4744 2.11122 13.9039 2.05469 13.2803C1.99941 12.6703 2 11.9162 2 11V4C2 3.44776 2.44777 3.00007 3 3Z" fill="currentColor"/></svg>
