<svg xmlns="http://www.w3.org/2000/svg" viewBox="0 0 24 24" fill="none"><path opacity="0.4" d="M14.17 22.1006C16.8468 20.7234 21.75 17.3739 21.7501 11.2373V7.74805C21.7501 6.40064 21.7721 5.46059 21.1886 4.51855C20.6145 3.59166 19.9636 3.2822 19.0431 2.82422C17.0401 1.82765 14.6091 1.25 12.0001 1.25C9.39116 1.25 6.96011 1.82764 4.95714 2.82422C4.03666 3.2822 3.38574 3.59166 2.81163 4.51855C2.22814 5.46059 2.25011 6.40064 2.25011 7.74805V11.2373C2.25024 17.3739 7.15346 20.7234 9.83019 22.1006L9.86687 22.1195C10.5847 22.4889 11.092 22.75 12.0001 22.75C12.9082 22.75 13.4155 22.4889 14.1333 22.1195L14.17 22.1006Z" fill="currentColor"/><path d="M13 14.75C13 15.3023 12.5523 15.75 12 15.75C11.4477 15.75 11 15.3023 11 14.75C11 14.1977 11.4477 13.75 12 13.75C12.5523 13.75 13 14.1977 13 14.75Z" fill="currentColor"/><path d="M11 11V7C11 6.44772 11.4477 6 12 6C12.5523 6 13 6.44772 13 7V11C13 11.5523 12.5523 12 12 12C11.4477 12 11 11.5523 11 11Z" fill="currentColor"/></svg>
