<svg xmlns="http://www.w3.org/2000/svg" viewBox="0 0 24 24" fill="none"><path d="M12.0001 1.25C14.609 1.25 17.0401 1.82767 19.0431 2.82422C19.9635 3.28219 20.6145 3.5917 21.1886 4.51855C21.7721 5.46059 21.7501 6.40064 21.7501 7.74805V11.2373C21.75 17.3739 16.8468 20.7234 14.17 22.1006L14.1339 22.1191C13.4161 22.4886 12.9082 22.75 12.0001 22.75C11.0921 22.75 10.585 22.4885 9.86729 22.1191L9.83019 22.1006C7.15344 20.7234 2.25024 17.3738 2.25011 11.2373V7.74805C2.25011 6.40066 2.22817 5.46057 2.81163 4.51855C3.38572 3.59169 4.03671 3.28217 4.95714 2.82422C6.96008 1.82766 9.3912 1.25002 12.0001 1.25ZM12.0001 13.75C11.4478 13.75 11.0001 14.1977 11.0001 14.75C11.0001 15.3023 11.4478 15.75 12.0001 15.75C12.5524 15.75 13.0001 15.3023 13.0001 14.75C13.0001 14.1977 12.5524 13.75 12.0001 13.75ZM12.0001 6C11.4478 6 11.0001 6.44772 11.0001 7V11C11.0001 11.5523 11.4478 12 12.0001 12C12.5524 12 13.0001 11.5523 13.0001 11V7C13.0001 6.44772 12.5524 6 12.0001 6Z" fill="currentColor" fill-rule="evenodd" clip-rule="evenodd"/></svg>
