<svg xmlns="http://www.w3.org/2000/svg" fill="none" viewBox="0 0 48 48">
  <g>
    <path fill="currentColor" fill-opacity="0.4" fill-rule="evenodd" d="M1.5 7.7619C1.5 4.30355 4.30355 1.5 7.7619 1.5c2.20368 0 4.1408 1.13846 5.2564 2.85746C16.2668 2.53747 20.0129 1.5 24 1.5s7.7332 1.03747 10.9817 2.85746C36.0973 2.63846 38.0344 1.5 40.2381 1.5 43.6964 1.5 46.5 4.30355 46.5 7.7619c0 2.20368 -1.1385 4.1408 -2.8575 5.2564C45.4625 16.2668 46.5 20.0129 46.5 24s-1.0375 7.7332 -2.8575 10.9817c1.719 1.1156 2.8575 3.0527 2.8575 5.2564 0 3.4583 -2.8036 6.2619 -6.2619 6.2619 -2.2037 0 -4.1408 -1.1385 -5.2564 -2.8575C31.7332 45.4625 27.9871 46.5 24 46.5s-7.7332 -1.0375 -10.9817 -2.8575C11.9027 45.3615 9.96558 46.5 7.7619 46.5 4.30355 46.5 1.5 43.6964 1.5 40.2381c0 -2.2037 1.13846 -4.1408 2.85746 -5.2564C2.53747 31.7332 1.5 27.9871 1.5 24s1.03747 -7.7332 2.85746 -10.9817C2.63846 11.9027 1.5 9.96558 1.5 7.7619Z" clip-rule="evenodd" stroke-width="3.429"></path>
    <path fill="currentColor" fill-rule="evenodd" d="M8.5 24c0 -8.5604 6.9396 -15.5 15.5 -15.5S39.5 15.4396 39.5 24 32.5604 39.5 24 39.5 8.5 32.5604 8.5 24ZM24 20.5c-1.933 0 -3.5 1.567 -3.5 3.5s1.567 3.5 3.5 3.5 3.5 -1.567 3.5 -3.5 -1.567 -3.5 -3.5 -3.5Z" clip-rule="evenodd" stroke-width="3.429"></path>
  </g>
</svg>
