<svg xmlns="http://www.w3.org/2000/svg" fill="none" viewBox="0 0 48 48">
  <g>
    <path stroke="currentColor" stroke-linejoin="round" d="M45 24c0 3.8883 -1.0567 7.5297 -2.8987 10.6528C43.8269 35.5809 45 37.4034 45 39.5c0 3.0376 -2.4624 5.5 -5.5 5.5 -2.0966 0 -3.9191 -1.1731 -4.8472 -2.8987C31.5297 43.9433 27.8883 45 24 45c-3.8883 0 -7.5297 -1.0567 -10.6528 -2.8987C12.4191 43.8269 10.5966 45 8.5 45 5.46243 45 3 42.5376 3 39.5c0 -2.0966 1.17309 -3.9191 2.8987 -4.8472C4.05674 31.5297 3 27.8883 3 24c0 -3.8883 1.05674 -7.5297 2.8987 -10.6528C4.17309 12.4191 3 10.5966 3 8.5 3 5.46243 5.46243 3 8.5 3c2.0966 0 3.9191 1.17309 4.8472 2.8987C16.4703 4.05674 20.1117 3 24 3c3.8883 0 7.5297 1.05674 10.6528 2.8987C35.5809 4.17309 37.4034 3 39.5 3 42.5376 3 45 5.46243 45 8.5c0 2.0966 -1.1731 3.9191 -2.8987 4.8472C43.9433 16.4703 45 20.1117 45 24Z" stroke-width="3.429"></path>
    <path stroke="currentColor" stroke-linejoin="round" d="M10 24a14 14 0 1 0 28 0 14 14 0 1 0 -28 0" stroke-width="3.429"></path>
    <path stroke="currentColor" stroke-linejoin="round" d="M20 24a4 4 0 1 0 8 0 4 4 0 1 0 -8 0" stroke-width="3.429"></path>
  </g>
</svg>
