<svg xmlns="http://www.w3.org/2000/svg" fill="none" viewBox="0 0 48 48">
  <g>
    <path fill="currentColor" fill-rule="evenodd" d="M5 8.5C5 6.567 6.567 5 8.5 5c1.33144 0 2.4924 0.74276 3.0857 1.84598 0.2577 0.47922 0.6996 0.83274 1.2237 0.97906 0.524 0.14631 1.0851 0.07278 1.5538 -0.20364C17.1869 5.95601 20.4788 5 24 5c3.5212 0 6.8131 0.95601 9.6368 2.6214 0.4687 0.27642 1.0298 0.34995 1.5538 0.20363 0.5241 -0.14631 0.966 -0.49983 1.2237 -0.97905C37.0076 5.74276 38.1686 5 39.5 5 41.433 5 43 6.567 43 8.5c0 1.33144 -0.7428 2.4924 -1.846 3.0857 -0.4792 0.2577 -0.8327 0.6996 -0.979 1.2237 -0.1464 0.524 -0.0728 1.0851 0.2036 1.5538C42.044 17.1869 43 20.4788 43 24c0 3.5212 -0.956 6.8131 -2.6214 9.6368 -0.2764 0.4687 -0.3499 1.0298 -0.2036 1.5538 0.1463 0.5241 0.4998 0.966 0.979 1.2237C42.2572 37.0076 43 38.1686 43 39.5c0 1.933 -1.567 3.5 -3.5 3.5 -1.3314 0 -2.4924 -0.7428 -3.0857 -1.846 -0.2577 -0.4792 -0.6996 -0.8327 -1.2237 -0.979 -0.524 -0.1463 -1.0851 -0.0728 -1.5538 0.2036C30.8131 42.044 27.5212 43 24 43c-3.5212 0 -6.8131 -0.956 -9.6368 -2.6214 -0.4687 -0.2764 -1.0298 -0.35 -1.5538 -0.2036 -0.5241 0.1463 -0.966 0.4998 -1.2237 0.979C10.9924 42.2572 9.83144 43 8.5 43 6.567 43 5 41.433 5 39.5c0 -1.3314 0.74276 -2.4924 1.84598 -3.0857 0.47922 -0.2577 0.83274 -0.6996 0.97905 -1.2237 0.14632 -0.524 0.07279 -1.0851 -0.20363 -1.5538C5.95601 30.8131 5 27.5212 5 24c0 -3.5212 0.95601 -6.8131 2.6214 -9.6368 0.27642 -0.4687 0.34995 -1.0298 0.20364 -1.5538 -0.14632 -0.5241 -0.49984 -0.966 -0.97906 -1.2237C5.74276 10.9924 5 9.83144 5 8.5ZM8.5 1C4.35786 1 1 4.35786 1 8.5c0 2.1345 0.89202 4.0589 2.3197 5.4231C1.83363 16.9678 1 20.3887 1 24s0.83363 7.0322 2.3197 10.0769C1.89202 35.4411 1 37.3655 1 39.5 1 43.6421 4.35786 47 8.5 47c2.1345 0 4.0589 -0.892 5.4231 -2.3197C16.9678 46.1664 20.3887 47 24 47s7.0322 -0.8336 10.0769 -2.3197C35.4411 46.108 37.3655 47 39.5 47c4.1421 0 7.5 -3.3579 7.5 -7.5 0 -2.1345 -0.892 -4.0589 -2.3197 -5.4231C46.1664 31.0322 47 27.6113 47 24s-0.8336 -7.0322 -2.3197 -10.0769C46.108 12.5589 47 10.6345 47 8.5 47 4.35786 43.6421 1 39.5 1c-2.1345 0 -4.0589 0.89202 -5.4231 2.3197C31.0322 1.83363 27.6113 1 24 1s-7.0322 0.83363 -10.0769 2.3197C12.5589 1.89202 10.6345 1 8.5 1Zm29 23c0 7.4558 -6.0442 13.5 -13.5 13.5S10.5 31.4558 10.5 24 16.5442 10.5 24 10.5 37.5 16.5442 37.5 24ZM24 19c-2.7614 0 -5 2.2386 -5 5s2.2386 5 5 5 5 -2.2386 5 -5 -2.2386 -5 -5 -5Z" clip-rule="evenodd" stroke-width="1"></path>
  </g>
</svg>
