<svg xmlns="http://www.w3.org/2000/svg" fill="none" viewBox="0 0 48 48">
  <g>
    <path fill="currentColor" fill-rule="evenodd" d="M1.50037 7.7619c0 -3.45835 2.80355 -6.2619 6.26191 -6.2619 2.20367 0 4.14082 1.13846 5.25642 2.85746C16.2672 2.53747 20.0133 1.5 24.0004 1.5c3.987 0 7.7332 1.03747 10.9817 2.85746C36.0977 2.63846 38.0348 1.5 40.2385 1.5c3.4583 0 6.2619 2.80355 6.2619 6.2619 0 2.20368 -1.1385 4.1408 -2.8575 5.2564 1.82 3.2485 2.8575 6.9946 2.8575 10.9817s-1.0375 7.7333 -2.8575 10.9818c1.7192 1.1156 2.8578 3.0528 2.8578 5.2567 0 3.4583 -2.8035 6.2619 -6.2619 6.2619 -2.2038 0 -4.1411 -1.1387 -5.2566 -2.8579 -3.2486 1.82 -6.9947 2.8575 -10.9818 2.8575s-7.7333 -1.0375 -10.9818 -2.8575c-1.1156 1.7192 -3.05284 2.8579 -5.2567 2.8579 -3.45835 0 -6.2619 -2.8036 -6.2619 -6.2619 0 -2.2039 1.13865 -4.1411 2.85788 -5.2567C2.53787 31.7333 1.50037 27.9871 1.50037 24s1.03748 -7.7332 2.85746 -10.9817c-1.719 -1.1156 -2.85746 -3.05272 -2.85746 -5.2564ZM24 11.5c-6.9036 0 -12.5 5.5964 -12.5 12.5S17.0964 36.5 24 36.5 36.5 30.9036 36.5 24 30.9036 11.5 24 11.5ZM8.5 24c0 -8.5604 6.9396 -15.5 15.5 -15.5S39.5 15.4396 39.5 24 32.5604 39.5 24 39.5 8.5 32.5604 8.5 24ZM24 20.5c-1.933 0 -3.5 1.567 -3.5 3.5s1.567 3.5 3.5 3.5 3.5 -1.567 3.5 -3.5 -1.567 -3.5 -3.5 -3.5Z" clip-rule="evenodd" stroke-width="1"></path>
  </g>
</svg>
