<svg xmlns="http://www.w3.org/2000/svg" fill="none" viewBox="0 0 48 48">
  <g>
    <path fill="currentColor" fill-rule="evenodd" d="M43.677 46.1814c1.5862 -0.0635 2.8485 -1.3796 2.7484 -2.9917 -0.3532 -5.6887 -1.8811 -10.4415 -2.8606 -12.9797 -0.5541 -1.4358 -1.8789 -2.3545 -3.4002 -2.4331C37.7705 27.6531 32.9929 27.5 24 27.5c-8.9928 0 -13.7704 0.1531 -16.16449 0.2769 -1.52133 0.0786 -2.8461 0.9973 -3.40023 2.4331 -0.97953 2.5382 -2.5074 7.291 -2.86062 12.9797 -0.1001 1.6121 1.16223 2.9282 2.74846 2.9917C7.49963 46.3087 13.9467 46.5 24 46.5c10.0534 0 16.5005 -0.1913 19.677 -0.3186Z" clip-rule="evenodd" stroke-width="1"></path>
    <path fill="currentColor" fill-opacity="0.4" fill-rule="evenodd" d="M26 3c0 -1.10457 -0.8954 -2 -2 -2s-2 0.89543 -2 2v3c0 1.10457 0.8954 2 2 2s2 -0.89543 2 -2V3ZM9.50307 23.6965C9.66494 15.8281 16.0933 9.5 24 9.5c7.9067 0 14.335 6.3281 14.4968 14.1965 0.0216 1.0491 -0.8705 1.8555 -1.8827 1.7777C35.3891 25.3799 30.0715 25 24 25c-6.0716 0 -11.3892 0.3799 -12.6142 0.4742 -1.0122 0.0778 -1.90431 -0.7286 -1.88273 -1.7777ZM47 23c0 1.1046 -0.8954 2 -2 2h-3c-1.1046 0 -2 -0.8954 -2 -2s0.8954 -2 2 -2h3c1.1046 0 2 0.8954 2 2ZM6 25c1.10457 0 2 -0.8954 2 -2s-0.89543 -2 -2 -2H3c-1.10457 0 -2 0.8954 -2 2s0.89543 2 2 2h3Zm6.6864 -12.3133c-0.7811 0.781 -2.0474 0.781 -2.82845 0l-2.12132 -2.1213c-0.78105 -0.7811 -0.78105 -2.04742 0 -2.82847 0.78104 -0.78105 2.04737 -0.78105 2.82847 0l2.1213 2.12132c0.781 0.78105 0.781 2.04735 0 2.82845Zm25.4557 0c-0.7811 0.781 -2.0474 0.781 -2.8285 0 -0.781 -0.7811 -0.781 -2.0474 0 -2.82845l2.1213 -2.12132c0.7811 -0.78105 2.0474 -0.78105 2.8285 0 0.781 0.78105 0.781 2.04737 0 2.82847l-2.1213 2.1213Z" clip-rule="evenodd" stroke-width="1"></path>
    <path fill="currentColor" fill-opacity="0.4" fill-rule="evenodd" d="M17.9234 32.8935c-0.0922 0.6654 -0.186 1.3693 -0.2794 2.1065h12.7121c-0.0935 -0.7372 -0.1873 -1.4411 -0.2794 -2.1065 -0.279 -2.0151 -0.5424 -3.6727 -0.7357 -4.8247 -0.0333 -0.1984 -0.0645 -0.3817 -0.0933 -0.5493 1.1021 0.0088 2.1162 0.0201 3.0487 0.0335 0.0011 0.0064 0.0022 0.0129 0.0033 0.0194 0.1973 1.1761 0.4652 2.8623 0.7487 4.9097 0.1091 0.788 0.2206 1.6302 0.3313 2.5179h11.7187c0.2414 0.9287 0.4713 1.933 0.6726 3H33.7292c0.2813 2.6028 0.5331 5.4647 0.6951 8.4234 -0.9413 0.0148 -1.9418 0.028 -3.0024 0.0392 -0.1657 -2.9763 -0.4238 -5.8551 -0.7105 -8.4626H17.2887c-0.2867 2.6075 -0.5448 5.4863 -0.7105 8.4626 -1.0606 -0.0112 -2.0612 -0.0244 -3.0024 -0.0392 0.162 -2.9587 0.4137 -5.8206 0.6951 -8.4234H2.229c0.20128 -1.067 0.43123 -2.0713 0.67258 -3H14.6203c0.1108 -0.8877 0.2223 -1.7299 0.3314 -2.5179 0.2835 -2.0474 0.5514 -3.7336 0.7487 -4.9097 0.0011 -0.0065 0.0022 -0.013 0.0033 -0.0194 0.9324 -0.0134 1.9465 -0.0247 3.0487 -0.0335 -0.0289 0.1676 -0.0601 0.3509 -0.0934 0.5493 -0.1933 1.152 -0.4566 2.8096 -0.7356 4.8247Z" clip-rule="evenodd" stroke-width="1"></path>
  </g>
</svg>
