<svg xmlns="http://www.w3.org/2000/svg" fill="none" viewBox="0 0 48 48">
  <g>
    <path fill="currentColor" fill-rule="evenodd" d="M24 1c1.1046 0 2 0.89543 2 2v3c0 1.10457 -0.8954 2 -2 2s-2 -0.89543 -2 -2V3c0 -1.10457 0.8954 -2 2 -2Zm0 12c-6.0751 0 -11 4.9249 -11 11 0 1.1046 -0.8954 2 -2 2 -1.10457 0 -2 -0.8954 -2 -2 0 -8.2843 6.7157 -15 15 -15s15 6.7157 15 15c0 1.1046 -0.8954 2 -2 2s-2 -0.8954 -2 -2c0 -6.0751 -4.9249 -11 -11 -11Zm21 13c1.1046 0 2 -0.8954 2 -2s-0.8954 -2 -2 -2h-3c-1.1046 0 -2 0.8954 -2 2s0.8954 2 2 2h3ZM8 24c0 1.1046 -0.89543 2 -2 2H3c-1.10457 0 -2 -0.8954 -2 -2s0.89543 -2 2 -2h3c1.10457 0 2 0.8954 2 2Zm1.85776 -11.3133c0.78104 0.781 2.04734 0.781 2.82844 0 0.781 -0.7811 0.781 -2.0474 0 -2.82845l-2.1213 -2.12132c-0.78108 -0.78105 -2.04741 -0.78105 -2.82846 0s-0.78105 2.04738 0 2.82847l2.12132 2.1213Zm25.45604 0c0.7811 0.781 2.0474 0.781 2.8284 0l2.1214 -2.1213c0.781 -0.78109 0.781 -2.04742 0 -2.82847 -0.7811 -0.78105 -2.0474 -0.78105 -2.8285 0l-2.1213 2.12132c-0.781 0.78105 -0.781 2.04735 0 2.82845ZM8.66822 27.2709C11.0065 27.1477 15.5662 27 24.0002 27c8.4339 0 12.9936 0.1477 15.3319 0.2709 1.7358 0.0914 3.2454 1.1626 3.8531 2.8185 0.9197 2.5056 2.3238 7.0928 2.7123 12.6002 0.1533 2.1745 -1.555 3.9316 -3.6655 4.0146 -3.209 0.1264 -9.1974 0.2958 -18.2319 0.2958 -9.0344 0 -15.02276 -0.1694 -18.23181 -0.2958 -2.11049 -0.083 -3.81881 -1.8401 -3.66545 -4.0146 0.38842 -5.5074 1.79254 -10.0946 2.71222 -12.6002 0.60779 -1.6559 2.1173 -2.7271 3.85316 -2.8185ZM41.5 35l-8.6903 0c-0.3915 -2.0516 -0.7843 -3.7419 -1.0622 -4.8614 -0.1996 -0.804 -1.0132 -1.294 -1.8172 -1.0944 -0.804 0.1996 -1.294 1.0132 -1.0944 1.8172 0.2432 0.9798 0.5768 2.4099 0.9178 4.1386H18.2463c0.341 -1.7287 0.6746 -3.1588 0.9178 -4.1386 0.1996 -0.804 -0.2904 -1.6176 -1.0944 -1.8172s-1.6176 0.2904 -1.8172 1.0944c-0.2779 1.1195 -0.6707 2.8098 -1.0622 4.8614H6.5c-0.82843 0 -1.5 0.6716 -1.5 1.5S5.67157 38 6.5 38h8.1684c-0.2631 1.6784 -0.4984 3.494 -0.6627 5.3691 -0.0723 0.8252 0.5381 1.5529 1.3634 1.6252 0.8252 0.0723 1.5529 -0.5381 1.6252 -1.3634 0.173 -1.9752 0.4286 -3.8855 0.7121 -5.6309h12.5872c0.2835 1.7454 0.5391 3.6557 0.7121 5.6309 0.0723 0.8253 0.8 1.4357 1.6252 1.3634 0.8253 -0.0723 1.4357 -0.8 1.3634 -1.6252 -0.1643 -1.8751 -0.3996 -3.6907 -0.6627 -5.3691L41.5 38c0.8284 0 1.5 -0.6716 1.5 -1.5s-0.6716 -1.5 -1.5 -1.5Z" clip-rule="evenodd" stroke-width="1"></path>
  </g>
</svg>
