<svg xmlns="http://www.w3.org/2000/svg" fill="none" viewBox="0 0 48 48">
  <g>
    <path fill="currentColor" fill-rule="evenodd" d="M24 1c1.1046 0 2 0.89543 2 2v3c0 1.10457 -0.8954 2 -2 2s-2 -0.89543 -2 -2V3c0 -1.10457 0.8954 -2 2 -2Zm0 8.5c-7.9067 0 -14.33506 6.3281 -14.49693 14.1965 -0.02158 1.0491 0.87053 1.8555 1.88273 1.7777C12.6108 25.3799 17.9284 25 24 25c6.0715 0 11.3891 0.3799 12.6141 0.4742 1.0122 0.0778 1.9043 -0.7286 1.8827 -1.7777C38.335 15.8281 31.9067 9.5 24 9.5ZM45 25c1.1046 0 2 -0.8954 2 -2s-0.8954 -2 -2 -2h-3c-1.1046 0 -2 0.8954 -2 2s0.8954 2 2 2h3ZM8 23c0 1.1046 -0.89543 2 -2 2H3c-1.10457 0 -2 -0.8954 -2 -2s0.89543 -2 2 -2h3c1.10457 0 2 0.8954 2 2Zm1.85795 -10.3133c0.78105 0.781 2.04735 0.781 2.82845 0 0.781 -0.7811 0.781 -2.0474 0 -2.82845l-2.1213 -2.12132c-0.7811 -0.78105 -2.04743 -0.78105 -2.82847 0 -0.78105 0.78105 -0.78105 2.04737 0 2.82847l2.12132 2.1213Zm25.45565 0c0.7811 0.781 2.0474 0.781 2.8285 0l2.1213 -2.1213c0.781 -0.7811 0.781 -2.04742 0 -2.82847 -0.7811 -0.78105 -2.0474 -0.78105 -2.8285 0l-2.1213 2.12132c-0.781 0.78105 -0.781 2.04735 0 2.82845ZM17.6439 34.9998c0.0935 -0.7372 0.1873 -1.4411 0.2794 -2.1065 0.279 -2.0151 0.5424 -3.6727 0.7357 -4.8247 0.0333 -0.1983 0.0645 -0.3816 0.0933 -0.5491C20.3178 27.5071 22.0609 27.5 24 27.5c1.9391 0 3.6822 0.0071 5.2477 0.0195 0.0288 0.1675 0.06 0.3508 0.0933 0.5491 0.1933 1.152 0.4567 2.8096 0.7357 4.8247 0.0921 0.6654 0.1859 1.3693 0.2794 2.1065H17.6439Zm-1.9435 -7.4276 0.0032 -0.0192c-3.8855 0.0555 -6.35369 0.1456 -7.86809 0.2239 -1.52133 0.0786 -2.8461 0.9973 -3.40023 2.4331 -0.45102 1.1687 -1.01828 2.8069 -1.53361 4.7898H14.6203c0.1107 -0.8877 0.2223 -1.7299 0.3314 -2.518 0.2835 -2.0473 0.5513 -3.7335 0.7487 -4.9096ZM1.57466 43.1897c0.11441 -1.8426 0.35207 -3.5871 0.65442 -5.1899H14.2709c-0.2814 2.6028 -0.5332 5.4648 -0.6952 8.4236 -4.2965 -0.0673 -7.35693 -0.166 -9.25258 -0.242 -1.58623 -0.0635 -2.84856 -1.3796 -2.74846 -2.9917ZM24 46.5c-2.7394 0 -5.2111 -0.0142 -7.4219 -0.0374 0.1657 -2.9763 0.4238 -5.8553 0.7105 -8.4628h13.4228c0.2867 2.6075 0.5448 5.4865 0.7105 8.4628 -2.2107 0.0232 -4.6824 0.0374 -7.4219 0.0374Zm19.677 -0.3186c-1.8957 0.076 -4.9562 0.1747 -9.2527 0.242 -0.162 -2.9588 -0.4138 -5.8208 -0.6952 -8.4236H45.771c0.3024 1.6028 0.54 3.3473 0.6544 5.1899 0.1001 1.6121 -1.1622 2.9282 -2.7484 2.9917ZM43.5648 30.21c0.451 1.1687 1.0183 2.8069 1.5336 4.7898H33.3797c-0.1107 -0.8877 -0.2223 -1.7299 -0.3314 -2.518 -0.2835 -2.0473 -0.5513 -3.7335 -0.7487 -4.9096l-0.0032 -0.0192c3.8856 0.0555 6.3538 0.1456 7.8682 0.2239 1.5213 0.0786 2.8461 0.9973 3.4002 2.4331Z" clip-rule="evenodd" stroke-width="3.429"></path>
  </g>
</svg>
