<svg xmlns="http://www.w3.org/2000/svg" viewBox="0 0 24 24" fill="none"><path opacity="0.4" d="M14.17 22.1006C16.8468 20.7234 21.75 17.3739 21.7501 11.2373V7.74805C21.7501 6.40064 21.7721 5.46059 21.1886 4.51855C20.6145 3.59166 19.9636 3.2822 19.0431 2.82422C17.0401 1.82765 14.6091 1.25 12.0001 1.25C9.39116 1.25 6.96011 1.82764 4.95714 2.82422C4.03666 3.2822 3.38574 3.59166 2.81163 4.51855C2.22814 5.46059 2.25011 6.40064 2.25011 7.74805V11.2373C2.25024 17.3739 7.15346 20.7234 9.83019 22.1006L9.86687 22.1195C10.5847 22.4889 11.092 22.75 12.0001 22.75C12.9082 22.75 13.4155 22.4889 14.1333 22.1195L14.17 22.1006Z" fill="currentColor"/><path d="M16 6.25C16.4142 6.25 16.75 6.58579 16.75 7C16.75 7.41421 16.4142 7.75 16 7.75H14C14.3276 8.18608 14.5623 8.6958 14.6748 9.25H16C16.4142 9.25 16.75 9.58579 16.75 10C16.75 10.4142 16.4142 10.75 16 10.75H14.6748C14.3359 12.4194 12.8882 13.6845 11.1338 13.7461L14.4687 16.4141C14.7922 16.6728 14.8447 17.1453 14.5859 17.4688C14.3272 17.7922 13.8547 17.8447 13.5312 17.5859L8.53125 13.5859C8.2826 13.387 8.18671 13.0524 8.29199 12.752C8.39742 12.4514 8.68148 12.25 9 12.25H11C11.9793 12.25 12.81 11.6234 13.1191 10.75H9C8.58578 10.75 8.25 10.4142 8.25 10C8.25 9.58579 8.58578 9.25 9 9.25H13.1191C12.81 8.37657 11.9793 7.75 11 7.75H9C8.58578 7.75 8.25 7.41421 8.25 7C8.25 6.58579 8.58578 6.25 9 6.25H16Z" fill="currentColor"/></svg>
