<svg xmlns="http://www.w3.org/2000/svg" viewBox="0 0 24 24" fill="none"><path d="M12 1.25C14.6089 1.25 17.04 1.82767 19.043 2.82422C19.9634 3.28219 20.6144 3.5917 21.1885 4.51855C21.772 5.46059 21.75 6.40064 21.75 7.74805V11.2373C21.7499 17.3739 16.8467 20.7234 14.1699 22.1006L14.1338 22.1191C13.416 22.4886 12.9081 22.75 12 22.75C11.092 22.75 10.5849 22.4885 9.86719 22.1191L9.83008 22.1006C7.15333 20.7234 2.25013 17.3738 2.25 11.2373V7.74805C2.25 6.40066 2.22807 5.46057 2.81152 4.51855C3.38562 3.59169 4.0366 3.28217 4.95703 2.82422C6.95998 1.82766 9.39109 1.25002 12 1.25ZM9 6.25C8.58579 6.25 8.25 6.58579 8.25 7C8.25 7.41421 8.58579 7.75 9 7.75H11C11.9793 7.75 12.81 8.37657 13.1191 9.25H9C8.58579 9.25 8.25 9.58579 8.25 10C8.25 10.4142 8.58579 10.75 9 10.75H13.1191C12.81 11.6234 11.9793 12.25 11 12.25H9C8.68148 12.25 8.39742 12.4514 8.29199 12.752C8.18672 13.0524 8.28261 13.387 8.53125 13.5859L13.5312 17.5859C13.8547 17.8447 14.3272 17.7922 14.5859 17.4688C14.8447 17.1453 14.7922 16.6728 14.4688 16.4141L11.1338 13.7461C12.8882 13.6845 14.3359 12.4194 14.6748 10.75H16C16.4142 10.75 16.75 10.4142 16.75 10C16.75 9.58579 16.4142 9.25 16 9.25H14.6748C14.5623 8.6958 14.3276 8.18608 14 7.75H16C16.4142 7.75 16.75 7.41421 16.75 7C16.75 6.58579 16.4142 6.25 16 6.25H9Z" fill="currentColor"/></svg>
