<svg xmlns="http://www.w3.org/2000/svg" viewBox="0 0 24 24" fill="none"><path opacity="0.4" d="M11.5873 1.2501C12.1573 1.24934 12.6618 1.24866 13.1372 1.41733C13.2352 1.45209 13.3313 1.49208 13.425 1.53715C13.8798 1.75582 14.2361 2.11489 14.6386 2.52054L19.4214 7.32819C19.8888 7.79654 20.3036 8.2122 20.5276 8.75596C20.7517 9.29971 20.7508 9.88846 20.7498 10.5518L20.7496 14.0261C20.7497 15.8081 20.7497 17.2445 20.5986 18.3741C20.4417 19.547 20.1061 20.5345 19.3259 21.3188C18.5456 22.1031 17.5632 22.4405 16.3964 22.5982C15.2726 22.75 13.8437 22.75 12.0709 22.75C10.2981 22.75 8.72696 22.75 7.60313 22.5982C6.43634 22.4405 5.45392 22.1031 4.67367 21.3188C3.89342 20.5345 3.55783 19.547 3.40096 18.3741C3.24986 17.2445 3.24988 15.8081 3.24991 14.0262V14.0261V9.45263V9.4526C3.24989 7.91893 3.24987 6.6824 3.36415 5.69856C3.48239 4.6806 3.73409 3.80839 4.32672 3.06954C4.54426 2.79833 4.79002 2.55128 5.05983 2.33261C5.79486 1.7369 6.66256 1.48389 7.67525 1.36504C8.65401 1.25017 10.0616 1.25008 11.5873 1.2501Z" fill="currentColor"/><path d="M13.1372 1.416C13.2352 1.45076 13.3313 1.49075 13.425 1.53582C13.8798 1.75449 14.2361 2.11356 14.6386 2.51921L19.4214 7.32686L19.4214 7.32686C19.8888 7.79521 20.3036 8.21088 20.5276 8.75463C20.6264 8.99435 20.6815 9.24282 20.7121 9.50258H18.7313C17.3637 9.5026 16.7151 9.50181 15.8482 9.38525C14.9481 9.26424 14.1902 9.00534 13.5883 8.40343C12.9863 7.80151 12.7275 7.04364 12.6064 6.14353C12.4901 5.27834 12.4901 4.63063 12.4901 3.2688V3.26877V1.27734C12.7135 1.30042 12.9282 1.34184 13.1372 1.416Z" fill="currentColor"/><path d="M8.59268 12.1944C8.14801 11.8673 7.52166 11.9628 7.19424 12.4073C6.86706 12.852 6.96256 13.4784 7.40714 13.8058L7.41006 13.8077C7.41307 13.81 7.41826 13.8137 7.42471 13.8185C7.43776 13.8282 7.45778 13.8431 7.48331 13.8624C7.53437 13.901 7.60829 13.9571 7.69717 14.0265C7.8763 14.1663 8.1121 14.3558 8.34464 14.5577C8.52339 14.7129 8.68739 14.8648 8.81924 15.0001C8.68739 15.1354 8.52339 15.2873 8.34464 15.4425C8.1121 15.6444 7.8763 15.834 7.69717 15.9737C7.60829 16.0431 7.53437 16.0992 7.48331 16.1378C7.45778 16.1571 7.43776 16.172 7.42471 16.1817C7.41825 16.1866 7.41307 16.1903 7.41006 16.1925L7.40714 16.1944C6.96257 16.5219 6.86707 17.1482 7.19424 17.5929C7.52166 18.0374 8.14801 18.1329 8.59268 17.8058V17.8048H8.59366L8.59561 17.8038C8.59694 17.8028 8.59823 17.8006 8.60049 17.7989C8.60504 17.7956 8.6119 17.7913 8.62003 17.7853C8.63628 17.7732 8.65925 17.7555 8.68839 17.7335C8.74665 17.6895 8.82918 17.6268 8.92764 17.5499C9.12341 17.3971 9.38788 17.1853 9.65518 16.9532C9.91756 16.7254 10.206 16.4581 10.4364 16.1974C10.5506 16.0681 10.6723 15.9167 10.7704 15.754C10.8418 15.6357 10.9636 15.4109 10.9931 15.1261L10.9999 15.0001L10.9931 14.8741C10.9636 14.5893 10.8418 14.3645 10.7704 14.2462C10.6723 14.0836 10.5506 13.9321 10.4364 13.8028C10.206 13.5421 9.91757 13.2748 9.65518 13.047C9.38788 12.8149 9.12342 12.6031 8.92764 12.4503C8.82919 12.3735 8.74665 12.3107 8.68839 12.2667C8.65926 12.2447 8.63628 12.2271 8.62003 12.215C8.6119 12.2089 8.60504 12.2037 8.60049 12.2003C8.59844 12.1988 8.59685 12.1973 8.59561 12.1964L8.59366 12.1954H8.59268V12.1944Z" fill="currentColor"/><path d="M16.9999 18C16.9999 17.4477 16.5522 17 15.9999 17H12.4999C11.9476 17 11.4999 17.4477 11.4999 18C11.4999 18.5523 11.9476 19 12.4999 19H15.9999C16.5522 19 16.9999 18.5523 16.9999 18Z" fill="currentColor"/></svg>
