<svg xmlns="http://www.w3.org/2000/svg" viewBox="0 0 24 24" fill="none"><path d="M11.5873 1.2501C12.1571 1.24934 12.6618 1.24848 13.1371 1.4171C13.2349 1.4518 13.3307 1.49224 13.4242 1.53721C13.879 1.75587 14.2356 2.11499 14.6381 2.52061L19.4213 7.32823C19.8885 7.79643 20.3027 8.21242 20.5268 8.75596C20.7508 9.29967 20.7504 9.88856 20.7494 10.5519V14.0265C20.7494 15.8082 20.7491 17.2445 20.5981 18.3741C20.4412 19.5468 20.1056 20.5342 19.3256 21.3185C18.5453 22.1028 17.5627 22.441 16.3959 22.5987C15.2722 22.7506 13.8433 22.7501 12.0707 22.7501C10.2981 22.7501 8.72675 22.7506 7.60294 22.5987C6.43615 22.441 5.4535 22.1028 4.67325 21.3185C3.89318 20.5342 3.55764 19.5469 3.40079 18.3741C3.24972 17.2445 3.24939 15.8083 3.24942 14.0265V9.45225C3.2494 7.91884 3.24942 6.68207 3.36368 5.69835C3.48194 4.68057 3.73402 3.80819 4.32657 3.06944C4.54393 2.7985 4.78946 2.5516 5.05899 2.33311C5.79401 1.73743 6.66253 1.48419 7.6752 1.36534C8.65394 1.25052 10.0618 1.25008 11.5873 1.2501ZM12.4994 17.0001C11.9471 17.0001 11.4994 17.4478 11.4994 18.0001C11.4994 18.5524 11.9471 19.0001 12.4994 19.0001H15.9994C16.5517 19.0001 16.9994 18.5524 16.9994 18.0001C16.9994 17.4478 16.5517 17.0001 15.9994 17.0001H12.4994ZM8.59219 12.1944C8.14754 11.8673 7.52117 11.9628 7.19376 12.4073C6.86659 12.852 6.96212 13.4783 7.40665 13.8058L7.40958 13.8077C7.41258 13.8099 7.41779 13.8137 7.42423 13.8185C7.43726 13.8282 7.45732 13.8431 7.48282 13.8624C7.53387 13.901 7.60782 13.9571 7.69669 14.0265C7.8758 14.1662 8.11163 14.3558 8.34415 14.5577C8.52288 14.7129 8.68691 14.8648 8.81876 15.0001C8.68692 15.1354 8.52288 15.2873 8.34415 15.4425C8.11164 15.6444 7.8758 15.834 7.69669 15.9737C7.60783 16.0431 7.53388 16.0992 7.48282 16.1378C7.45733 16.1571 7.43727 16.172 7.42423 16.1817C7.4178 16.1865 7.41259 16.1903 7.40958 16.1925L7.40665 16.1944C6.96211 16.5218 6.86665 17.1482 7.19376 17.5929C7.52117 18.0374 8.14752 18.1329 8.59219 17.8058V17.8048H8.59317L8.59512 17.8038C8.59643 17.8028 8.59778 17.8006 8.60001 17.7989C8.60455 17.7956 8.61144 17.7913 8.61954 17.7853C8.63579 17.7731 8.65879 17.7555 8.6879 17.7335C8.74616 17.6895 8.82872 17.6267 8.92716 17.5499C9.12292 17.3971 9.38742 17.1853 9.65469 16.9532C9.91706 16.7254 10.2055 16.4581 10.4359 16.1974C10.5501 16.0682 10.6719 15.9166 10.7699 15.754C10.8413 15.6357 10.9631 15.4108 10.9926 15.1261L10.9994 15.0001L10.9926 14.8741C10.9631 14.5893 10.8413 14.3645 10.7699 14.2462C10.6719 14.0836 10.5501 13.932 10.4359 13.8028C10.2055 13.5421 9.91706 13.2748 9.65469 13.047C9.38741 12.8149 9.12292 12.6031 8.92716 12.4503C8.82872 12.3735 8.74616 12.3107 8.6879 12.2667C8.6588 12.2447 8.63578 12.2271 8.61954 12.2149C8.61143 12.2089 8.60454 12.2037 8.60001 12.2003C8.59798 12.1988 8.59635 12.1973 8.59512 12.1964L8.59317 12.1954H8.59219V12.1944ZM12.4897 3.27061C12.4896 4.63196 12.4896 5.27975 12.6059 6.14463C12.7268 7.04449 12.9858 7.80257 13.5873 8.4044C14.1892 9.00631 14.948 9.26581 15.8481 9.38682C16.7148 9.50333 17.3635 9.50403 18.7309 9.50401C18.6741 9.36621 18.5685 9.23553 17.9506 8.61436L13.3461 3.98546C12.8132 3.44978 12.6713 3.31651 12.4897 3.26182V3.27061Z" fill="currentColor" fill-rule="evenodd" clip-rule="evenodd"/></svg>
