<svg xmlns="http://www.w3.org/2000/svg" viewBox="0 0 24 24" fill="none"><path opacity="0.4" d="M22.25 12.0526V12V11.9474C22.25 9.75475 22.25 8.03277 22.0693 6.68848C21.8842 5.31182 21.4969 4.21953 20.6387 3.36133C19.7805 2.50313 18.6882 2.11575 17.3115 1.93066C15.9672 1.74998 14.2452 1.74999 12.0526 1.75H12H11.9474C9.75476 1.74999 8.03277 1.74998 6.68848 1.93066C5.31182 2.11575 4.21953 2.50313 3.36133 3.36133C2.50313 4.21953 2.11575 5.31182 1.93066 6.68848C1.74998 8.03277 1.74999 9.75476 1.75 11.9474V12V12.0526C1.74999 14.2452 1.74998 15.9672 1.93066 17.3115C2.11575 18.6882 2.50313 19.7805 3.36133 20.6387C4.21953 21.4969 5.31182 21.8842 6.68848 22.0693C8.03277 22.25 9.75475 22.25 11.9474 22.25H12H12.0526C14.2452 22.25 15.9672 22.25 17.3115 22.0693C18.6882 21.8842 19.7805 21.4969 20.6387 20.6387C21.4969 19.7805 21.8842 18.6882 22.0693 17.3115C22.25 15.9672 22.25 14.2452 22.25 12.0526Z" fill="currentColor"/><path d="M5.75 17.5V12.5C5.75 12.0858 6.08579 11.75 6.5 11.75C6.89514 11.75 7.21809 12.0556 7.24707 12.4434C7.58184 12.2844 7.99088 12.1668 8.44824 12.1973C9.00457 12.2344 9.54451 12.484 10.0303 12.9697C10.3232 13.2626 10.3232 13.7374 10.0303 14.0303C9.73738 14.3232 9.26262 14.3232 8.96973 14.0303C8.70553 13.7661 8.49542 13.7032 8.34863 13.6934C8.1853 13.6825 8.00187 13.7316 7.80176 13.8428C7.60178 13.9539 7.42261 14.1067 7.28809 14.2412C7.27436 14.2549 7.26239 14.2693 7.25 14.2822V17.5C7.25 17.9142 6.91421 18.25 6.5 18.25C6.08579 18.25 5.75 17.9142 5.75 17.5Z" fill="currentColor"/><path d="M14.25 14.25C14.25 13.6977 13.8023 13.25 13.25 13.25C12.6977 13.25 12.25 13.6977 12.25 14.25H14.25ZM15.75 15C15.75 15.4142 15.4142 15.75 15 15.75H12.25C12.25 16.3023 12.6977 16.75 13.25 16.75C13.5298 16.75 13.7815 16.6361 13.9639 16.4502C14.2538 16.1543 14.7295 16.1495 15.0254 16.4395C15.3208 16.7294 15.3258 17.2043 15.0361 17.5C14.5833 17.9622 13.9494 18.25 13.25 18.25C11.8693 18.25 10.75 17.1307 10.75 15.75V14.25C10.75 12.8693 11.8693 11.75 13.25 11.75C14.6307 11.75 15.75 12.8693 15.75 14.25V15Z" fill="currentColor"/><path d="M18 12C18.5523 12 19 12.4477 19 13C19 13.5523 18.5523 14 18 14C17.4477 14 17 13.5523 17 13C17 12.4477 17.4477 12 18 12Z" fill="currentColor"/><path d="M18 16C18.5523 16 19 16.4477 19 17C19 17.5523 18.5523 18 18 18C17.4477 18 17 17.5523 17 17C17 16.4477 17.4477 16 18 16Z" fill="currentColor"/></svg>
