<svg xmlns="http://www.w3.org/2000/svg" viewBox="0 0 24 24" fill="none"><path d="M12.0527 1.75C14.2453 1.74999 15.9673 1.74998 17.3115 1.93066C18.6882 2.11575 19.7805 2.50313 20.6387 3.36133C21.4969 4.21953 21.8842 5.31182 22.0693 6.68848C22.25 8.03274 22.25 9.75468 22.25 11.9473V12.0527C22.25 14.2453 22.25 15.9673 22.0693 17.3115C21.8842 18.6882 21.4969 19.7805 20.6387 20.6387C19.7805 21.4969 18.6882 21.8842 17.3115 22.0693C15.9673 22.25 14.2453 22.25 12.0527 22.25H11.9473C9.75468 22.25 8.03274 22.25 6.68848 22.0693C5.31182 21.8842 4.21953 21.4969 3.36133 20.6387C2.50313 19.7805 2.11575 18.6882 1.93066 17.3115C1.74998 15.9673 1.74999 14.2453 1.75 12.0527V11.9473C1.74999 9.75468 1.74998 8.03274 1.93066 6.68848C2.11575 5.31182 2.50313 4.21953 3.36133 3.36133C4.21953 2.50313 5.31182 2.11575 6.68848 1.93066C8.03274 1.74998 9.75468 1.74999 11.9473 1.75H12.0527ZM6.5 11.75C6.08579 11.75 5.75 12.0858 5.75 12.5V17.5C5.75 17.9142 6.08579 18.25 6.5 18.25C6.91421 18.25 7.25 17.9142 7.25 17.5V14.2822C7.26239 14.2693 7.27436 14.2549 7.28809 14.2412C7.42261 14.1067 7.60178 13.9539 7.80176 13.8428C8.00187 13.7316 8.1853 13.6825 8.34863 13.6934C8.49542 13.7032 8.70553 13.7661 8.96973 14.0303C9.26262 14.3232 9.73738 14.3232 10.0303 14.0303C10.3232 13.7374 10.3232 13.2626 10.0303 12.9697C9.54451 12.484 9.00457 12.2344 8.44824 12.1973C7.99088 12.1668 7.58184 12.2844 7.24707 12.4434C7.21809 12.0556 6.89514 11.75 6.5 11.75ZM13.25 11.75C11.8693 11.75 10.75 12.8693 10.75 14.25V15.75C10.75 17.1307 11.8693 18.25 13.25 18.25C13.9494 18.25 14.5833 17.9622 15.0361 17.5C15.3258 17.2043 15.3208 16.7294 15.0254 16.4395C14.7295 16.1495 14.2538 16.1543 13.9639 16.4502C13.7815 16.6361 13.5298 16.75 13.25 16.75C12.6977 16.75 12.25 16.3023 12.25 15.75H15C15.4142 15.75 15.75 15.4142 15.75 15V14.25C15.75 12.8693 14.6307 11.75 13.25 11.75ZM18 16C17.4477 16 17 16.4477 17 17C17 17.5523 17.4477 18 18 18C18.5523 18 19 17.5523 19 17C19 16.4477 18.5523 16 18 16ZM13.25 13.25C13.8023 13.25 14.25 13.6977 14.25 14.25H12.25C12.25 13.6977 12.6977 13.25 13.25 13.25ZM18 12C17.4477 12 17 12.4477 17 13C17 13.5523 17.4477 14 18 14C18.5523 14 19 13.5523 19 13C19 12.4477 18.5523 12 18 12Z" fill="currentColor"/></svg>
