<svg xmlns="http://www.w3.org/2000/svg" viewBox="0 0 24 24" fill="none"><path opacity="0.4" d="M18.1816 20.7274C19.665 20.3566 22.75 18.7028 22.75 14.9999C22.75 11.6623 21.3774 7.09297 20.7051 5.24402C20.6463 5.08231 20.5333 4.94485 20.3857 4.85632C18.2487 3.57421 15.9431 3.24988 15 3.24988C14.7159 3.24988 14.4561 3.41083 14.3291 3.66492L13.8105 4.70007C13.0886 4.5293 12.3671 4.51054 12 4.52722C11.6328 4.51054 10.9108 4.52909 10.1885 4.70007L9.6709 3.66492C9.55979 3.4427 9.34708 3.29198 9.10547 3.25769L9 3.24988C8.05691 3.24988 5.75128 3.57421 3.61426 4.85632C3.50342 4.92282 3.41204 5.0168 3.34863 5.12781L3.29492 5.24402C2.62262 7.09297 1.25 11.6623 1.25 14.9999C1.25 18.7028 4.33505 20.3566 5.81836 20.7274C5.99184 20.7707 6.17499 20.7506 6.33496 20.6708C7.09001 20.2932 7.93873 19.6022 8.89453 18.2499H8.94922C7.79645 17.9689 6.81118 17.5292 6.12109 16.9657C5.86458 16.7561 5.82659 16.3776 6.03613 16.121C6.24577 15.8644 6.62426 15.8264 6.88086 16.036C7.82983 16.8107 9.72349 17.4012 12.001 17.4012C14.2786 17.4012 16.1723 16.8109 17.1211 16.036C17.3777 15.8265 17.7562 15.8645 17.9658 16.121C18.175 16.3776 18.1372 16.7562 17.8809 16.9657C17.1907 17.5294 16.2048 17.9689 15.0518 18.2499H15.1055C16.0613 19.6022 16.91 20.2932 17.665 20.6708C17.825 20.7506 18.0082 20.7707 18.1816 20.7274Z" fill="currentColor"/><path d="M17.3652 11.4999C17.3652 12.6044 16.5817 13.4999 15.6152 13.4999C14.6487 13.4999 13.8652 12.6044 13.8652 11.4999C13.8652 10.3953 14.6487 9.49988 15.6152 9.49988C16.5817 9.49988 17.3652 10.3953 17.3652 11.4999Z" fill="currentColor"/><path d="M10 11.4999C10 12.6044 9.2165 13.4999 8.25 13.4999C7.2835 13.4999 6.5 12.6044 6.5 11.4999C6.5 10.3953 7.2835 9.49988 8.25 9.49988C9.2165 9.49988 10 10.3953 10 11.4999Z" fill="currentColor"/></svg>
