<svg xmlns="http://www.w3.org/2000/svg" viewBox="0 0 24 24" fill="none"><path d="M18.1816 20.7276C19.665 20.3568 22.75 18.703 22.75 15.0001C22.75 11.6625 21.3774 7.09316 20.7051 5.2442C20.6463 5.08249 20.5333 4.94504 20.3857 4.85651C18.2487 3.57439 15.9431 3.25006 15 3.25006C14.7159 3.25006 14.4561 3.41101 14.3291 3.6651L13.8105 4.70026C13.0886 4.52948 12.3671 4.51073 12 4.5274C11.6328 4.51072 10.9108 4.52928 10.1885 4.70026L9.6709 3.6651C9.55979 3.44288 9.34708 3.29216 9.10547 3.25787L9 3.25006C8.05691 3.25006 5.75128 3.57439 3.61426 4.85651C3.50342 4.92301 3.41204 5.01698 3.34863 5.12799L3.29492 5.2442C2.62262 7.09316 1.25 11.6625 1.25 15.0001C1.25 18.703 4.33505 20.3568 5.81836 20.7276C5.99184 20.7709 6.17499 20.7508 6.33496 20.671C7.09001 20.2934 7.93873 19.6024 8.89453 18.2501H8.94922C7.79645 17.9691 6.81118 17.5294 6.12109 16.9659C5.86458 16.7563 5.82659 16.3778 6.03613 16.1212C6.24577 15.8646 6.62426 15.8266 6.88086 16.0362C7.82983 16.8109 9.72349 17.4014 12.001 17.4014C14.2786 17.4014 16.1723 16.8111 17.1211 16.0362C17.3777 15.8266 17.7562 15.8646 17.9658 16.1212C18.175 16.3777 18.1372 16.7563 17.8809 16.9659C17.1907 17.5296 16.2048 17.9691 15.0518 18.2501H15.1055C16.0613 19.6024 16.91 20.2934 17.665 20.671C17.825 20.7508 18.0082 20.7709 18.1816 20.7276ZM8.25 13.5001C7.2835 13.5001 6.5 12.6046 6.5 11.5001C6.5 10.3955 7.2835 9.50006 8.25 9.50006C9.2165 9.50006 10 10.3955 10 11.5001C10 12.6046 9.2165 13.5001 8.25 13.5001ZM15.6152 13.5001C14.6487 13.5001 13.8652 12.6046 13.8652 11.5001C13.8652 10.3955 14.6487 9.50006 15.6152 9.50006C16.5817 9.50006 17.3652 10.3955 17.3652 11.5001C17.3652 12.6046 16.5817 13.5001 15.6152 13.5001Z" fill="currentColor" fill-rule="evenodd" clip-rule="evenodd"/></svg>
