<svg xmlns="http://www.w3.org/2000/svg" viewBox="0 0 24 24" fill="none"><path d="M14.8097 2.57629C11.6855 1.50367 8.27708 3.15881 7.19956 6.27909L4.42516 14.3121C4.09154 15.2782 4.39276 16.3069 5.104 16.9514L4.64033 18.2949C4.37943 19.0504 3.75672 19.6273 2.97893 19.8306C2.458 19.9668 2.14585 20.4998 2.282 21.0208C2.41817 21.5417 2.95118 21.8539 3.47211 21.7177C4.8786 21.3501 6.00923 20.3052 6.48359 18.9318L6.94726 17.5865C7.90602 17.5169 8.77855 16.8915 9.11232 15.925L10.2548 12.6174C10.2564 12.6127 10.2586 12.6088 10.2586 12.6088C10.2604 12.6069 10.264 12.6051 10.2682 12.6031C10.2723 12.6011 10.2764 12.5995 10.2796 12.5993C10.2821 12.5991 10.2857 12.5993 10.291 12.6012L11.2383 12.9268C12.2684 13.2805 13.3944 12.7356 13.7509 11.7033L16.0359 5.08703C16.3927 4.05359 15.8408 2.93052 14.8097 2.57629Z" fill="currentColor"/><path d="M16.2892 10.8198C15.7799 10.6449 15.2254 10.916 15.0505 11.4253C14.8758 11.9345 15.1469 12.4892 15.6561 12.664L18.5 13.6399C19.0092 13.8146 19.5638 13.5436 19.7386 13.0344C19.9133 12.5252 19.6421 11.9706 19.1331 11.7957L16.2892 10.8198Z" fill="currentColor"/><path d="M17.268 7.98433C16.7587 7.80961 16.2041 8.08066 16.0293 8.58988C15.8547 9.09901 16.1258 9.65372 16.6348 9.82859L19.4787 10.8045C19.988 10.9794 20.5426 10.7083 20.7174 10.199C20.8922 9.68971 20.6211 9.1351 20.1119 8.96026L17.268 7.98433Z" fill="currentColor"/><path d="M18.2477 5.14892C17.7384 4.97407 17.1838 5.24518 17.009 5.75447C16.8343 6.26369 17.1053 6.81836 17.6145 6.99318L20.4575 7.9691C20.9667 8.14395 21.5223 7.87284 21.6971 7.36355C21.8718 6.85446 21.6005 6.29982 21.0916 6.12484L18.2477 5.14892Z" fill="currentColor"/></svg>
