<svg xmlns="http://www.w3.org/2000/svg" fill="none" viewBox="0 0 48 48">
  <g>
    <path fill="currentColor" fill-opacity="0.4" d="M36.2211 2.93362c0.6453 0.2396 0.7859 1.06017 0.2992 1.5469l-8.2254 8.22568c-0.1875 0.1876 -0.2929 0.4412 -0.2818 0.7062 0.0358 0.8601 0.1883 2.9436 0.8368 5.1103 0.0903 0.3017 0.3263 0.5378 0.6281 0.6282 2.1664 0.6489 4.2492 0.8015 5.1091 0.8374 0.2649 0.0111 0.5186 -0.0943 0.7061 -0.2818l8.2268 -8.2257c0.4867 -0.4867 1.3073 -0.3461 1.5469 0.2992 0.6034 1.6257 0.9332 3.3843 0.9332 5.22 0 8.2843 -6.7157 15 -15 15 -1.6611 0 -3.2591 -0.27 -4.7526 -0.7685L11.4193 44.7703c-1.3386 1.2222 -3.25873 1.6532 -4.82425 0.7395 -0.78665 -0.4591 -1.62796 -1.0457 -2.34204 -1.7598 -0.71422 -0.7142 -1.30115 -1.556 -1.76064 -2.3431 -0.9142 -1.566 -0.48344 -3.487 0.73925 -4.8261L16.7691 21.754c-0.4988 -1.4938 -0.769 -3.0924 -0.769 -4.754 0 -8.28427 6.7157 -15 15 -15 1.8361 0 3.5951 0.32989 5.221 0.93362Z" stroke-width="3.429"></path>
    <path stroke="currentColor" stroke-linejoin="round" d="M36.2211 2.93362c0.6453 0.2396 0.7859 1.06017 0.2992 1.5469l-8.2254 8.22568c-0.1875 0.1876 -0.2929 0.4412 -0.2818 0.7062 0.0358 0.8601 0.1883 2.9436 0.8368 5.1103 0.0903 0.3017 0.3263 0.5378 0.6281 0.6282 2.1664 0.6489 4.2492 0.8015 5.1091 0.8374 0.2649 0.0111 0.5186 -0.0943 0.7061 -0.2818l8.2268 -8.2257c0.4867 -0.4867 1.3073 -0.3461 1.5469 0.2992 0.6034 1.6257 0.9332 3.3843 0.9332 5.22 0 8.2843 -6.7157 15 -15 15 -1.6611 0 -3.2591 -0.27 -4.7526 -0.7685L11.4193 44.7703c-1.3386 1.2222 -3.25873 1.6532 -4.82425 0.7395 -0.78665 -0.4591 -1.62796 -1.0457 -2.34204 -1.7598 -0.71422 -0.7142 -1.30115 -1.556 -1.76064 -2.3431 -0.9142 -1.566 -0.48344 -3.487 0.73925 -4.8261L16.7691 21.754c-0.4988 -1.4938 -0.769 -3.0924 -0.769 -4.754 0 -8.28427 6.7157 -15 15 -15 1.8361 0 3.5951 0.32989 5.221 0.93362Z" stroke-width="3.429"></path>
  </g>
</svg>
