<svg xmlns="http://www.w3.org/2000/svg" fill="none" viewBox="0 0 48 48">
  <g>
    <path fill="currentColor" d="M31.3319 0.499023c-8.9305 0 -16.1702 7.239637 -16.1702 16.170177 0 1.6864 0.2583 3.3133 0.7379 4.8429L1.86394 36.8845C0.531128 38.3442 0.0162067 40.4968 1.0501 42.3018c0.50281 0.8778 1.16315 1.8441 1.98504 2.6659 0.82174 0.8218 1.7875 1.4818 2.66487 1.9842 1.80451 1.0334 3.95624 0.5182 5.41539 -0.8141l15.3732 -14.0364c1.5297 0.4796 3.1568 0.738 4.8433 0.738 8.9306 0 16.1702 -7.2396 16.1702 -16.1702 0 -1.9999 -0.3633 -3.9161 -1.028 -5.6855 -0.3827 -1.01888 -1.6536 -1.19351 -2.3711 -0.476l-8.6494 8.6483c-0.0945 0.0944 -0.2152 0.1408 -0.3328 0.136 -0.8705 -0.0354 -3.0242 -0.1905 -5.253 -0.8611 -0.1409 -0.0424 -0.2512 -0.1528 -0.2936 -0.2937 -0.6702 -2.2291 -0.8251 -4.3835 -0.8606 -5.2543 -0.0047 -0.1176 0.0417 -0.2384 0.1361 -0.3328l8.6494 -8.64978c0.7173 -0.71738 0.543 -1.98794 -0.4755 -2.37102C35.2525 0.863175 33.3342 0.499023 31.3319 0.499023Z" stroke-width="3.429"></path>
  </g>
</svg>
