<svg xmlns="http://www.w3.org/2000/svg" fill="none" viewBox="0 0 48 48">
  <g>
    <path fill="currentColor" fill-rule="evenodd" d="M30.7093 4.75c-6.9259 0 -12.5403 5.6143 -12.5403 12.5398 0 1.348 0.212 2.6426 0.603 3.8545 0.2449 0.7588 0.0733 1.6051 -0.4796 2.2107L5.26879 37.6184c-0.52088 0.5705 -0.61812 1.179 -0.43671 1.9073 0.20195 0.8109 0.74771 1.6628 1.36404 2.2791 0.6163 0.6163 1.46771 1.1615 2.27783 1.3631 0.72759 0.1811 1.33577 0.0839 1.90615 -0.4368l14.2654 -13.0245c0.6054 -0.5528 1.4516 -0.7243 2.2103 -0.4797 1.2116 0.3908 2.5059 0.6027 3.8535 0.6027 6.9259 0 12.5403 -5.6144 12.5403 -12.5398 0 -0.8991 -0.079 -1.81 -0.2547 -2.6712l-5.7739 5.7731c-0.9911 0.991 -2.3655 1.533 -3.7934 1.4454 -0.7239 -0.0444 -1.6497 -0.1087 -2.4944 -0.1907 -0.7675 -0.0745 -1.6924 -0.1818 -2.2732 -0.3558 -0.9372 -0.2807 -1.6705 -1.0141 -1.951 -1.9514 -0.1739 -0.5808 -0.2811 -1.5059 -0.3555 -2.2735 -0.0819 -0.8449 -0.1461 -1.771 -0.1905 -2.4949 -0.0874 -1.4279 0.4547 -2.8021 1.4457 -3.7931l5.773 -5.77306c-0.8613 -0.1757 -1.7729 -0.25464 -2.6724 -0.25464ZM14.169 17.2898C14.169 8.15504 21.5744 0.75 30.7093 0.75c1.8584 0 3.9735 0.26791 5.8956 1.06754 2.1245 0.88384 2.1831 3.43768 0.8829 4.73792l-7.0506 7.05064c-0.2014 0.2014 -0.2973 0.4649 -0.2816 0.7202 0.0431 0.7043 0.104 1.5769 0.1792 2.3536 0.0318 0.3282 0.0652 0.6286 0.0994 0.8858 0.257 0.0342 0.5573 0.0676 0.8853 0.0994 0.7765 0.0753 1.6489 0.1363 2.353 0.1795 0.2553 0.0157 0.5189 -0.0801 0.7203 -0.2815l7.0514 -7.0504c1.3014 -1.30118 3.856 -1.24046 4.7389 0.8846 0.798 1.9209 1.0665 4.0335 1.0665 5.8925 0 9.1347 -7.4054 16.5398 -16.5403 16.5398 -1.4091 0 -2.7794 -0.1767 -4.0888 -0.5098L13.0771 45.6851c-1.7429 1.5913 -3.8039 1.8038 -5.5692 1.3644 -1.68278 -0.4188 -3.14804 -1.4241 -4.14015 -2.4162 -0.99208 -0.9921 -1.99786 -2.4577 -2.417087 -4.1408 -0.439781 -1.7657 -0.227862 -3.8276 1.364237 -5.5712L14.6791 21.38c-0.3333 -1.3099 -0.5101 -2.6807 -0.5101 -4.0902Z" clip-rule="evenodd" stroke-width="1"></path>
  </g>
</svg>
