<svg xmlns="http://www.w3.org/2000/svg" viewBox="0 0 24 24" fill="none"><path opacity="0.4" d="M14.0001 5.24963C16.6234 5.24963 18.7501 7.37628 18.7501 9.99963V12.2496H9.25009V9.99963C9.25009 7.37628 11.3767 5.24964 14.0001 5.24963Z" fill="currentColor"/><path d="M18.7501 18.0465C18.7501 18.9473 18.7501 19.6986 18.67 20.2946C18.5856 20.9222 18.3998 21.4886 17.9444 21.944C17.4891 22.3993 16.9226 22.5851 16.295 22.6696C15.6991 22.7497 14.9477 22.7497 14.047 22.7496H13.9532C13.0524 22.7497 12.3011 22.7497 11.7052 22.6696C11.0776 22.5851 10.5111 22.3993 10.0558 21.944C9.6004 21.4886 9.4146 20.9222 9.33017 20.2946C9.25005 19.6986 9.25007 18.9473 9.25009 18.0465V13.7496H18.7501V18.0465Z" fill="currentColor"/><path opacity="0.4" d="M14.0186 1.24963C14.371 1.24963 14.6846 1.24963 14.9435 1.27307C15.2172 1.29788 15.5031 1.35408 15.7755 1.51135C16.0715 1.68239 16.3173 1.92819 16.4884 2.22424C16.6456 2.49665 16.7018 2.78252 16.7267 3.05627C16.7501 3.31513 16.7501 3.62871 16.7501 3.98108V4.6676C15.9261 4.24177 14.9916 3.99963 14.0001 3.99963C13.0086 3.99964 12.0741 4.24176 11.2501 4.6676V3.98108C11.2501 3.62871 11.2501 3.31513 11.2735 3.05627C11.2983 2.78252 11.3545 2.49665 11.5118 2.22424C11.6829 1.92819 11.9287 1.68239 12.2247 1.51135C12.4971 1.35408 12.783 1.29788 13.0567 1.27307C13.3156 1.24963 13.6292 1.24963 13.9815 1.24963H14.0186Z" fill="currentColor"/><path d="M11.4981 2.24963C11.3516 2.51446 11.2976 2.79092 11.2735 3.05627C11.2554 3.25697 11.252 3.49057 11.2511 3.74963H11.0001C8.65288 3.74963 6.75009 5.65242 6.75009 7.99963V13.9996C6.75009 15.5184 5.51887 16.7496 4.00009 16.7496C3.58588 16.7496 3.25009 16.4138 3.25009 15.9996C3.25009 15.5854 3.58588 15.2496 4.00009 15.2496C4.69045 15.2496 5.25009 14.69 5.25009 13.9996V7.99963C5.25009 4.824 7.82445 2.24963 11.0001 2.24963H11.4981Z" fill="currentColor"/><path d="M20.0001 2.24963C20.4143 2.24963 20.7501 2.58542 20.7501 2.99963C20.7501 3.41385 20.4143 3.74963 20.0001 3.74963H16.7491C16.7482 3.49057 16.7448 3.25697 16.7267 3.05627C16.7026 2.79092 16.6485 2.51446 16.502 2.24963H20.0001Z" fill="currentColor"/></svg>
