<svg xmlns="http://www.w3.org/2000/svg" fill="none" viewBox="0 0 48 48">
  <g>
    <path fill="currentColor" fill-rule="evenodd" d="M21.1727 2.2697c-0.2877 0 -0.5588 0.0166 -0.8103 0.0442 -1.4846 0.1624 -2.3992 1.4077 -2.7144 2.689 -0.3865 1.571 -0.9783 4.0124 -1.6131 6.7607 -0.043 0.1865 0.021 0.3814 0.1661 0.5059 0.1452 0.1246 0.3475 0.1584 0.5252 0.0875 1.3478 -0.5367 2.8417 -0.8316 4.4463 -0.8316 1.6044 0 3.0984 0.2949 4.4462 0.8317 0.1777 0.0708 0.38 0.037 0.5251 -0.0876 0.1452 -0.1245 0.2092 -0.3194 0.1662 -0.5059 -0.6346 -2.7481 -1.2264 -5.1895 -1.6127 -6.7605 -0.3153 -1.2814 -1.2298 -2.5268 -2.7145 -2.6893 -0.2516 -0.0275 -0.5226 -0.0441 -0.8101 -0.0441Z" clip-rule="evenodd" stroke-width="3.429"></path>
    <path fill="currentColor" fill-rule="evenodd" d="M15.0014 8.9544c-5.853 0 -10.1523 4.5183 -10.2477 10.5891 -0.0229 1.4615 -0.0365 3.0719 -0.0365 4.8371 0 1.136 -0.9209 2.0569 -2.0568 2.0569S0.6035 25.5166 0.6035 24.3806c0 -1.7863 0.0138 -3.4182 0.0371 -4.9017 0.1271 -8.0955 6.0457 -14.6382 14.3608 -14.6382h18.5114c1.136 0 2.0569 0.9209 2.0569 2.0569s-0.9209 2.0568 -2.0569 2.0568H15.0014Z" clip-rule="evenodd" stroke-width="3.429"></path>
    <path fill="currentColor" fill-opacity="0.4" fill-rule="evenodd" d="M47.3965 6.8973c0 -1.5772 -0.2826 -2.9932 -0.5613 -4.011 -0.4949 -1.8075 -2.2903 -2.6487 -3.896 -2.3457 -3.8738 0.731 -6.6076 1.2642 -8.0162 1.5417 -1.1712 0.2308 -2.2784 1.0726 -2.6211 2.4072 -0.1627 0.6338 -0.3317 1.5009 -0.3317 2.4078 0 0.907 0.169 1.7743 0.3317 2.4081 0.3427 1.3347 1.4499 2.1766 2.6212 2.4074 1.4087 0.2776 4.1424 0.8108 8.016 1.5417 1.6058 0.303 3.4012 -0.5384 3.8961 -2.3458 0.2787 -1.018 0.5613 -2.4341 0.5613 -4.0114Z" clip-rule="evenodd" stroke-width="3.429"></path>
    <path fill="currentColor" fill-opacity="0.4" fill-rule="evenodd" d="M21.1719 9.4686c-8.0074 0 -13.7235 6.2897 -13.8467 14.1321 -0.0233 1.4807 -0.037 3.1099 -0.037 4.8936 0 5.6061 0.1354 9.6869 0.2773 12.4249 0.1716 3.3097 2.5995 6.0403 6.006 6.3209 1.8847 0.1551 4.3959 0.2799 7.6003 0.2799s5.7157 -0.1248 7.6003 -0.2799c3.4066 -0.2806 5.8346 -3.0112 6.0061 -6.3209 0.1419 -2.7381 0.2773 -6.8188 0.2773 -12.4249 0 -1.7837 -0.0137 -3.4129 -0.037 -4.8936 -0.1231 -7.8424 -5.8393 -14.1321 -13.8466 -14.1321Z" clip-rule="evenodd" stroke-width="3.429"></path>
    <path fill="currentColor" fill-rule="evenodd" d="M34.8914 21.8141c0.0747 0.5848 0.1176 1.181 0.1272 1.7866 0.0232 1.4807 0.0369 3.1099 0.0369 4.8936 0 4.585 -0.0905 8.1498 -0.2012 10.7941 -0.4311 0.0028 -0.8783 0.0043 -1.3415 0.0043 -3.0958 0 -5.4694 -0.0659 -7.1945 -0.1439 -2.4097 -0.1088 -4.3491 -1.8732 -4.5062 -4.3156 -0.0731 -1.1374 -0.126 -2.5568 -0.126 -4.2821s0.0529 -3.1447 0.126 -4.2821c0.1571 -2.4424 2.0965 -4.2067 4.5062 -4.3155 1.7251 -0.0781 4.0987 -0.1439 7.1946 -0.1439 0.4765 0 0.936 0.0015 1.3785 0.0045Z" clip-rule="evenodd" stroke-width="3.429"></path>
  </g>
</svg>
