<svg xmlns="http://www.w3.org/2000/svg" fill="none" viewBox="0 0 48 48">
  <g>
    <path stroke="currentColor" stroke-linejoin="round" d="M32.9642 23.2651C32.8561 16.3777 27.8883 11 21 11S9.14392 16.3777 9.03575 23.2651C9.01326 24.6969 9 26.2733 9 28c0 5.4271 0.13103 9.3692 0.2676 12.004 0.13059 2.5192 1.9511 4.5218 4.4652 4.7289C15.5223 44.8802 17.923 45 21 45s5.4777 -0.1198 7.2672 -0.2671c2.514 -0.2071 4.3346 -2.2097 4.4652 -4.7289C32.869 37.3692 33 33.4271 33 28c0 -1.7267 -0.0133 -3.3031 -0.0358 -4.7349Z" stroke-width="3.429"></path>
    <path stroke="currentColor" stroke-linejoin="round" d="M25.509 11.8441C24.1382 11.2982 22.6227 11 21.0006 11s-3.1377 0.2982 -4.5084 0.8441c0.6164 -2.66938 1.1914 -5.04096 1.5668 -6.56698 0.2781 -1.13025 1.0512 -2.11053 2.2083 -2.23713 0.2277 -0.02492 0.473 -0.03999 0.7335 -0.03999 0.2604 0 0.5057 0.01507 0.7333 0.03997 1.1571 0.12658 1.9303 1.107 2.2083 2.23737 0.3754 1.52603 0.9502 3.89751 1.5666 6.56676Z" stroke-width="3.429"></path>
    <path stroke="currentColor" stroke-linecap="round" stroke-linejoin="round" d="M3 24c0 -1.7267 0.01327 -3.3031 0.03575 -4.7349C3.14392 12.3777 8.11174 7 15 7l2.5 0" stroke-width="3.429"></path>
    <path stroke="currentColor" stroke-linejoin="round" d="M40.8906 2.58689c1.8209 -0.34592 3.6607 0.62323 3.9504 2.45394 0.0953 0.60237 0.159 1.26478 0.159 1.95907 0 0.69433 -0.0638 1.35681 -0.1591 1.95925 -0.2896 1.83085 -2.1295 2.80005 -3.9505 2.45415 -2.5447 -0.4834 -4.4687 -0.8572 -5.6995 -1.0986 -0.994 -0.1949 -1.8378 -0.88037 -2.036 -1.87371C33.0663 7.99736 33 7.49862 33 6.9999c0 -0.49868 0.0663 -0.99733 0.1549 -1.44086 0.1982 -0.99324 1.0419 -1.67858 2.0358 -1.87351 1.2308 -0.24139 3.155 -0.61519 5.6999 -1.09864Z" stroke-width="3.429"></path>
    <path stroke="currentColor" stroke-linecap="round" d="M33 7h-8" stroke-width="3.429"></path>
    <path stroke="currentColor" stroke-linejoin="round" d="M32.8885 22c0.0436 0.4153 0.069 0.8373 0.0757 1.2651C32.9867 24.6969 33 26.2733 33 28c0 4.192 -0.0782 7.498 -0.1767 9.9999 -2.917 -0.0024 -5.1599 -0.0653 -6.7965 -0.1393 -2.1057 -0.0951 -3.77 -1.6254 -3.9052 -3.7289C22.0512 33.0368 22 31.6673 22 30c0 -1.6674 0.0512 -3.0369 0.1216 -4.1318 0.1352 -2.1035 1.7995 -3.6337 3.9052 -3.7289 1.6488 -0.0745 3.913 -0.1377 6.8617 -0.1393Z" stroke-width="3.429"></path>
  </g>
</svg>
