<svg xmlns="http://www.w3.org/2000/svg" fill="none" viewBox="0 0 48 48">
  <g>
    <path fill="currentColor" fill-rule="evenodd" d="M41.204 1.0844c2.2208 -0.421893 4.7241 0.7481 5.1247 3.28012 0.1021 0.64535 0.1713 1.36058 0.1713 2.11532 0 0.75479 -0.0692 1.47008 -0.1713 2.11551 -0.4006 2.53205 -2.904 3.70225 -5.125 3.28035 -2.5466 -0.4838 -4.4727 -0.858 -5.7052 -1.0997 -1.1879 -0.233 -2.3204 -1.03018 -2.7298 -2.29606h-6.3985c0.1137 0.47939 0.2312 0.97809 0.3512 1.49177 5.2362 2.06949 8.6477 7.22139 8.7426 13.26249 0.0226 1.4425 0.036 3.0293 0.036 4.7663 0 5.4592 -0.1318 9.4358 -0.2703 12.1075 -0.1789 3.4511 -2.7199 6.3238 -6.2984 6.6186 -1.8469 0.1521 -4.3025 0.2739 -7.4313 0.2739s-5.5844 -0.1218 -7.4314 -0.2739c-3.5784 -0.2948 -6.11943 -3.1675 -6.29831 -6.6187C7.63181 37.4363 7.5 33.4597 7.5 28.0005c0 -1.737 0.01334 -3.3238 0.036 -4.7663 0.09489 -6.0416 3.507 -11.1938 8.7439 -13.26301 0.12 -0.51349 0.2374 -1.01201 0.3511 -1.49125H15.5c-5.69119 0 -9.87178 4.39346 -9.96449 10.29656C5.51319 20.1976 5.5 21.7635 5.5 23.4799c0 1.1046 -0.89543 2 -2 2s-2 -0.8954 -2 -2c0 -1.7369 0.01334 -3.3238 0.036 -4.7662C1.65963 10.8419 7.41467 4.47994 15.5 4.47994l2.0976 0c0.3442 -1.35014 1.3469 -2.76653 3.0609 -2.95408 0.2615 -0.02861 0.5433 -0.04592 0.8423 -0.04592 0.2989 0 0.5806 0.0173 0.842 0.0459 1.715 0.18761 2.7179 1.60548 3.0616 2.95635 0.0317 -0.00149 0.0636 -0.00225 0.0956 -0.00225h7.2687c0.4094 -1.26578 1.5419 -2.06283 2.7296 -2.29577 1.2326 -0.24175 3.1587 -0.61593 5.7057 -1.09977ZM21.5 13.0005c-5.6912 0 -9.8718 4.3935 -9.9645 10.2965 -0.0223 1.4211 -0.0355 2.987 -0.0355 4.7035 0 5.395 0.1303 9.3024 0.2649 11.9004 0.0823 1.5873 1.1824 2.7198 2.6321 2.8392 1.732 0.1426 4.0778 0.2604 7.103 0.2604 3.0251 0 5.371 -0.1178 7.103 -0.2604 1.4497 -0.1194 2.5498 -1.2519 2.6321 -2.8392 0.0225 -0.4339 0.0448 -0.9042 0.0665 -1.412 -1.9649 -0.0219 -3.5543 -0.0717 -4.7974 -0.1278 -2.3431 -0.1059 -4.2289 -1.8215 -4.3816 -4.1963C22.0515 33.0587 22 31.6785 22 30.0009s0.0515 -3.0578 0.1226 -4.1638c0.1527 -2.3749 2.0385 -4.0904 4.3816 -4.1963 1.2442 -0.0563 2.8353 -0.106 4.8025 -0.128 -0.818 -4.9826 -4.7056 -8.5123 -9.8067 -8.5123Z" clip-rule="evenodd" stroke-width="3.429"></path>
  </g>
</svg>
