<svg xmlns="http://www.w3.org/2000/svg" fill="none" viewBox="0 0 48 48">
  <g>
    <path fill="currentColor" fill-rule="evenodd" d="M46.8352 2.8863c0.2787 1.0178 0.5613 2.4338 0.5613 4.011 0 1.5773 -0.2826 2.9934 -0.5613 4.0114 -0.4949 1.8074 -2.2903 2.6488 -3.8961 2.3458 -3.8736 -0.7309 -6.6073 -1.2641 -8.016 -1.5417 -1.1713 -0.2308 -2.2785 -1.0727 -2.6212 -2.4074 -0.0283 -0.1103 -0.0568 -0.2276 -0.0845 -0.351H25.652c0.102 0.4295 0.2071 0.8746 0.3143 1.3322 4.5576 1.641 7.7977 5.6002 8.7587 10.498 -0.3912 -0.0022 -0.7951 -0.0034 -1.2122 -0.0034 -3.1104 0 -5.4994 0.0661 -7.2409 0.1449 -2.8982 0.1309 -5.2932 2.2763 -5.486 5.2769 -0.0747 1.1604 -0.1283 2.6018 -0.1283 4.3481 0 1.7463 0.0536 3.1878 0.1283 4.3482 0.1928 3.0006 2.5878 5.146 5.4859 5.2769 1.7416 0.0788 4.1306 0.1449 7.241 0.1449 0.4466 0 0.8783 -0.0014 1.2954 -0.0039 -0.0099 0.2074 -0.0199 0.4081 -0.03 0.602 -0.1715 3.3097 -2.5995 6.0403 -6.006 6.3209 -1.8847 0.1551 -4.3959 0.2799 -7.6003 0.2799s-5.7157 -0.1248 -7.6003 -0.2799c-3.4066 -0.2806 -5.8345 -3.0112 -6.0061 -6.3209 -0.1419 -2.738 -0.2773 -6.8188 -0.2773 -12.4249 0 -1.7837 0.0137 -3.4129 0.037 -4.8936 0.0968 -6.1644 3.6492 -11.3694 9.0536 -13.3146 0.1072 -0.4574 0.2123 -0.9023 0.3142 -1.3317h-1.6916c-5.853 0 -10.1523 4.5183 -10.2477 10.5891 -0.0229 1.4615 -0.0365 3.0719 -0.0365 4.8371 0 1.136 -0.9209 2.0569 -2.0568 2.0569S0.6035 25.5166 0.6035 24.3806c0 -1.7863 0.0138 -3.4182 0.0371 -4.9017 0.1271 -8.0955 6.0457 -14.6382 14.3608 -14.6382h2.6898c0.3504 -1.2224 1.2493 -2.3713 2.6712 -2.5268 0.2515 -0.0276 0.5226 -0.0442 0.8103 -0.0442 0.2875 0 0.5585 0.0166 0.8101 0.0441 1.4219 0.1556 2.3209 1.3044 2.6713 2.5269h7.5632c0.0277 -0.1234 0.0562 -0.2408 0.0846 -0.3512 0.3427 -1.3346 1.4499 -2.1764 2.6211 -2.4072 1.4086 -0.2775 4.1424 -0.8107 8.0162 -1.5417 1.6057 -0.303 3.4011 0.5382 3.896 2.3457ZM35.0227 23.8719c0.0206 1.4078 0.0328 2.947 0.0328 4.6224 0 3.4881 -0.0525 6.3856 -0.1262 8.7367 -0.4539 0.0032 -0.9259 0.0048 -1.4165 0.0048 -3.0667 0 -5.4092 -0.0652 -7.1017 -0.1417 -1.4329 -0.0648 -2.4611 -1.0669 -2.5463 -2.3927 -0.0702 -1.0917 -0.1219 -2.4671 -0.1219 -4.1503 0 -1.6832 0.0517 -3.0586 0.1219 -4.1502 0.0852 -1.3259 1.1134 -2.328 2.5463 -2.3928 1.6925 -0.0765 4.035 -0.1417 7.1018 -0.1417 0.5242 0 1.0274 0.002 1.5098 0.0055Z" clip-rule="evenodd" stroke-width="3.429"></path>
  </g>
</svg>
