<svg xmlns="http://www.w3.org/2000/svg" viewBox="0 0 24 24" fill="none"><path opacity="0.4" d="M16 5.25V3.25C16 2.69772 16.4478 2.25 17 2.25C17.5523 2.25 18 2.69772 18 3.25V5.25C18 5.80228 17.5523 6.25 17 6.25C16.4478 6.25 16 5.80228 16 5.25ZM20 5.25V3.25C20 2.69772 20.4478 2.25 21 2.25C21.5523 2.25 22 2.69772 22 3.25V5.25C22 5.80228 21.5523 6.25 21 6.25C20.4478 6.25 20 5.80228 20 5.25Z" fill="currentColor"/><path d="M8.70707 17.9385C8.75383 17.703 8.75004 17.4373 8.75004 17.125V17C8.75004 16.5642 8.75235 16.2586 8.71 15.9912C8.48963 14.6009 7.39918 13.5104 6.00883 13.2901C5.74151 13.2477 5.43589 13.25 5.00004 13.25C4.5642 13.25 4.25858 13.2477 3.99125 13.2901C2.6009 13.5104 1.51046 14.6009 1.29008 15.9912C1.24774 16.2586 1.25004 16.5642 1.25004 17V17.125C1.25004 17.4373 1.24625 17.703 1.29301 17.9385C1.47055 18.8311 2.16901 19.5295 3.06157 19.7071C3.29705 19.7538 3.56272 19.75 3.87504 19.75H6.12504C6.43736 19.75 6.70304 19.7538 6.93852 19.7071C7.83107 19.5295 8.52953 18.8311 8.70707 17.9385Z" fill="currentColor"/><path opacity="0.4" d="M11 17.5V6.5C11 5.11929 9.88076 4 8.50005 4C7.11933 4 6.00005 5.11929 6.00005 6.5V14C6.00005 14.5523 5.55233 15 5.00005 15C4.44776 15 4.00005 14.5523 4.00005 14V6.5C4.00005 4.01472 6.01476 2 8.50005 2C10.9853 2 13 4.01472 13 6.5V17.5C13 18.8807 14.1193 20 15.5 20C16.8808 20 18 18.8807 18 17.5V10C18 9.44772 18.4478 9 19 9C19.5523 9 20 9.44772 20 10V17.5C20 19.9853 17.9853 22 15.5 22C13.0148 22 11 19.9853 11 17.5Z" fill="currentColor"/><path d="M22.71 8.00886C22.7523 7.74153 22.75 7.43592 22.75 7.00007V6.87507C22.75 6.56275 22.7538 6.29708 22.7071 6.0616C22.5295 5.16904 21.8311 4.47058 20.9385 4.29304C20.703 4.24628 20.4374 4.25007 20.125 4.25007H17.875C17.5627 4.25007 17.2971 4.24628 17.0616 4.29304C16.169 4.47058 15.4706 5.16904 15.293 6.0616C15.2463 6.29708 15.25 6.56276 15.25 6.87507V7.00007C15.25 7.43592 15.2477 7.74154 15.2901 8.00886C15.5105 9.39921 16.6009 10.4897 17.9913 10.71C18.2586 10.7524 18.5642 10.7501 19 10.7501C19.4359 10.7501 19.7415 10.7524 20.0088 10.71C21.3992 10.4897 22.4896 9.39921 22.71 8.00886Z" fill="currentColor"/><path opacity="0.4" d="M2.00005 20.75V18.75C2.00005 18.1977 2.44776 17.75 3.00005 17.75C3.55233 17.75 4.00005 18.1977 4.00005 18.75V20.75C4.00005 21.3023 3.55233 21.75 3.00005 21.75C2.44776 21.75 2.00005 21.3023 2.00005 20.75ZM6.00005 20.75V18.75C6.00005 18.1977 6.44776 17.75 7.00005 17.75C7.55233 17.75 8.00005 18.1977 8.00005 18.75V20.75C8.00005 21.3023 7.55233 21.75 7.00005 21.75C6.44776 21.75 6.00005 21.3023 6.00005 20.75Z" fill="currentColor"/></svg>
