<svg xmlns="http://www.w3.org/2000/svg" viewBox="0 0 24 24" fill="none"><path d="M15.9996 5.25V3.25C15.9996 2.69772 16.4473 2.25 16.9996 2.25C17.5518 2.25 17.9996 2.69772 17.9996 3.25V5.25C17.9996 5.80228 17.5518 6.25 16.9996 6.25C16.4473 6.25 15.9996 5.80228 15.9996 5.25ZM19.9996 5.25V3.25C19.9996 2.69772 20.4473 2.25 20.9996 2.25C21.5518 2.25 21.9996 2.69772 21.9996 3.25V5.25C21.9996 5.80228 21.5518 6.25 20.9996 6.25C20.4473 6.25 19.9996 5.80228 19.9996 5.25Z" fill="currentColor"/><path d="M8.70659 17.9385C8.75335 17.703 8.74956 17.4373 8.74956 17.125V17C8.74956 16.5642 8.75186 16.2586 8.70952 15.9912C8.48914 14.6009 7.39869 13.5104 6.00834 13.2901C5.74102 13.2477 5.4354 13.25 4.99955 13.25C4.56371 13.25 4.25809 13.2477 3.99077 13.2901C2.60042 13.5104 1.50997 14.6009 1.28959 15.9912C1.24725 16.2586 1.24955 16.5642 1.24955 17V17.125C1.24955 17.4373 1.24576 17.703 1.29252 17.9385C1.47006 18.8311 2.16852 19.5295 3.06108 19.7071C3.29656 19.7538 3.56224 19.75 3.87455 19.75H6.12456C6.43687 19.75 6.70255 19.7538 6.93803 19.7071C7.83059 19.5295 8.52905 18.8311 8.70659 17.9385Z" fill="currentColor"/><path d="M10.9996 17.5V6.5C10.9996 5.11929 9.88027 4 8.49956 4C7.11885 4 5.99956 5.11929 5.99956 6.5V14C5.99956 14.5523 5.55184 15 4.99956 15C4.44727 15 3.99956 14.5523 3.99956 14V6.5C3.99956 4.01472 6.01428 2 8.49956 2C10.9848 2 12.9996 4.01472 12.9996 6.5V17.5C12.9996 18.8807 14.1188 20 15.4996 20C16.8803 20 17.9996 18.8807 17.9996 17.5V10C17.9996 9.44772 18.4473 9 18.9996 9C19.5518 9 19.9996 9.44772 19.9996 10V17.5C19.9996 19.9853 17.9848 22 15.4996 22C13.0143 22 10.9996 19.9853 10.9996 17.5Z" fill="currentColor"/><path d="M22.7095 8.00886C22.7519 7.74153 22.7496 7.43592 22.7496 7.00007V6.87507C22.7496 6.56275 22.7533 6.29708 22.7066 6.0616C22.529 5.16904 21.8306 4.47058 20.938 4.29304C20.7025 4.24628 20.4369 4.25007 20.1246 4.25007H17.8746C17.5622 4.25007 17.2966 4.24628 17.0611 4.29304C16.1685 4.47058 15.4701 5.16904 15.2925 6.0616C15.2458 6.29708 15.2496 6.56276 15.2496 6.87507V7.00007C15.2496 7.43592 15.2473 7.74154 15.2896 8.00886C15.51 9.39921 16.6004 10.4897 17.9908 10.71C18.2581 10.7524 18.5637 10.7501 18.9996 10.7501C19.4354 10.7501 19.741 10.7524 20.0083 10.71C21.3987 10.4897 22.4891 9.39921 22.7095 8.00886Z" fill="currentColor"/><path d="M1.99956 20.75V18.75C1.99956 18.1977 2.44727 17.75 2.99956 17.75C3.55184 17.75 3.99956 18.1977 3.99956 18.75V20.75C3.99956 21.3023 3.55184 21.75 2.99956 21.75C2.44727 21.75 1.99956 21.3023 1.99956 20.75ZM5.99956 20.75V18.75C5.99956 18.1977 6.44727 17.75 6.99956 17.75C7.55184 17.75 7.99956 18.1977 7.99956 18.75V20.75C7.99956 21.3023 7.55184 21.75 6.99956 21.75C6.44727 21.75 5.99956 21.3023 5.99956 20.75Z" fill="currentColor"/></svg>
