<svg xmlns="http://www.w3.org/2000/svg" viewBox="0 0 24 24" fill="none"><path opacity="0.4" d="M16.0549 2.25C17.4225 2.24998 18.5248 2.24996 19.3918 2.36652C20.2919 2.48754 21.0497 2.74643 21.6517 3.34835C22.2536 3.95027 22.5125 4.70814 22.6335 5.60825C22.75 6.47522 22.75 7.57754 22.75 8.94513V11.0549C22.75 12.4225 22.75 13.5248 22.6335 14.3918C22.5125 15.2919 22.2536 16.0497 21.6517 16.6517C21.0497 17.2536 20.2919 17.5125 19.3918 17.6335C18.5248 17.75 17.4225 17.75 16.0549 17.75H16.0549H7.94513H7.94512C6.57754 17.75 5.47522 17.75 4.60825 17.6335C3.70814 17.5125 2.95027 17.2536 2.34835 16.6517C1.74643 16.0497 1.48754 15.2919 1.36652 14.3918C1.24996 13.5248 1.24998 12.4225 1.25 11.0549V11.0549V8.94513V8.94511C1.24998 7.57753 1.24996 6.47521 1.36652 5.60825C1.48754 4.70814 1.74643 3.95027 2.34835 3.34835C2.95027 2.74643 3.70814 2.48754 4.60825 2.36652C5.47521 2.24996 6.57753 2.24998 7.94511 2.25H7.94513H16.0549H16.0549Z" fill="currentColor"/><path d="M15.75 10.0406L15.75 10L15.75 9.95944C15.75 9.52175 15.75 9.1556 15.7295 8.85449C15.7079 8.53744 15.6613 8.23762 15.541 7.94727C15.2619 7.27359 14.7264 6.73809 14.0527 6.45899C13.7624 6.33872 13.4626 6.29215 13.1455 6.27051C12.8444 6.24997 12.4783 6.24998 12.0406 6.25L12 6.25L11.9594 6.25C11.5217 6.24998 11.1556 6.24997 10.8545 6.27051C10.5374 6.29215 10.2376 6.33872 9.94727 6.45899C9.27359 6.73809 8.73809 7.27359 8.45899 7.94727C8.33872 8.23762 8.29215 8.53744 8.27051 8.85449C8.24997 9.1556 8.24998 9.52175 8.25 9.95943L8.25 10L8.25 10.0406C8.24998 10.4783 8.24997 10.8444 8.27051 11.1455C8.29215 11.4626 8.33872 11.7624 8.45899 12.0527C8.73809 12.7264 9.27359 13.2619 9.94727 13.541C10.2376 13.6613 10.5374 13.7079 10.8545 13.7295C11.1556 13.75 11.5217 13.75 11.9594 13.75L12 13.75L12.0406 13.75C12.4783 13.75 12.8444 13.75 13.1455 13.7295C13.4626 13.7079 13.7624 13.6613 14.0527 13.541C14.7264 13.2619 15.2619 12.7264 15.541 12.0527C15.6613 11.7624 15.7079 11.4626 15.7295 11.1455C15.75 10.8444 15.75 10.4783 15.75 10.0406Z" fill="currentColor"/><path d="M13.5 19.25C13.5 19.5261 13.7239 19.75 14 19.75H16C16.5523 19.75 17 20.1977 17 20.75C17 21.3023 16.5523 21.75 16 21.75H8C7.44772 21.75 7 21.3023 7 20.75C7 20.1977 7.44772 19.75 8 19.75H10C10.2761 19.75 10.5 19.5261 10.5 19.25V17.75H13.5V19.25Z" fill="currentColor"/></svg>
