<svg xmlns="http://www.w3.org/2000/svg" viewBox="0 0 24 24" fill="none"><path d="M16.0542 2.25C17.4217 2.24998 18.5242 2.24968 19.3911 2.36621C20.2912 2.48723 21.049 2.74672 21.6509 3.34863C22.2528 3.95055 22.5123 4.70829 22.6333 5.6084C22.7498 6.47534 22.7495 7.57782 22.7495 8.94531V11.0547C22.7495 12.4222 22.7498 13.5247 22.6333 14.3916C22.5123 15.2917 22.2528 16.0495 21.6509 16.6514C21.049 17.2533 20.2912 17.5128 19.3911 17.6338C18.5242 17.7503 17.4217 17.75 16.0542 17.75H13.4995V19.25C13.4995 19.5261 13.7234 19.75 13.9995 19.75H15.9995C16.5518 19.75 16.9995 20.1977 16.9995 20.75C16.9995 21.3023 16.5518 21.75 15.9995 21.75H7.99951C7.44723 21.75 6.99951 21.3023 6.99951 20.75C6.99951 20.1977 7.44723 19.75 7.99951 19.75H9.99951C10.2757 19.75 10.4995 19.5261 10.4995 19.25V17.75H7.94482C6.57734 17.75 5.47485 17.7503 4.60791 17.6338C3.7078 17.5128 2.95006 17.2533 2.34814 16.6514C1.74623 16.0495 1.48674 15.2917 1.36572 14.3916C1.24919 13.5247 1.24949 12.4222 1.24951 11.0547V8.94531C1.24949 7.57783 1.24919 6.47533 1.36572 5.6084C1.48674 4.70829 1.74623 3.95055 2.34814 3.34863C2.95006 2.74672 3.7078 2.48723 4.60791 2.36621C5.47484 2.24968 6.57734 2.24998 7.94482 2.25H16.0542ZM11.9585 6.25C11.521 6.24998 11.155 6.24997 10.854 6.27051C10.537 6.29215 10.2371 6.33872 9.94678 6.45898C9.2731 6.73809 8.7376 7.27358 8.4585 7.94727C8.33823 8.23762 8.29166 8.53744 8.27002 8.85449C8.24948 9.1555 8.24949 9.5215 8.24951 9.95898V10.041C8.24949 10.4785 8.24948 10.8445 8.27002 11.1455C8.29166 11.4626 8.33823 11.7624 8.4585 12.0527C8.7376 12.7264 9.2731 13.2619 9.94678 13.541C10.2371 13.6613 10.537 13.7079 10.854 13.7295C11.155 13.75 11.521 13.75 11.9585 13.75H12.0405C12.478 13.75 12.844 13.75 13.145 13.7295C13.4621 13.7079 13.7619 13.6613 14.0522 13.541C14.7259 13.2619 15.2614 12.7264 15.5405 12.0527C15.6608 11.7624 15.7074 11.4626 15.729 11.1455C15.7495 10.8445 15.7495 10.4785 15.7495 10.041V9.95898C15.7495 9.5215 15.7495 9.1555 15.729 8.85449C15.7074 8.53744 15.6608 8.23762 15.5405 7.94727C15.2614 7.27359 14.7259 6.73809 14.0522 6.45898C13.7619 6.33872 13.4621 6.29215 13.145 6.27051C12.844 6.24997 12.478 6.24998 12.0405 6.25H11.9585Z" fill="currentColor"/></svg>
