<svg xmlns="http://www.w3.org/2000/svg" viewBox="0 0 24 24" fill="none"><path d="M8.61909 20.2661C9.0569 20.2834 9.53406 20.2926 10.0557 20.2976C10.5946 20.303 11.0275 20.7443 11.0224 21.2833C11.0171 21.8223 10.5757 22.2551 10.0367 22.25C9.50444 22.2449 9.00641 22.235 8.54187 22.2166C8.00342 22.1951 7.58463 21.7417 7.60572 21.2032C7.62702 20.6646 8.08046 20.2449 8.61909 20.2661ZM15.3799 20.2661C15.9186 20.245 16.372 20.6646 16.3933 21.2032C16.4144 21.7417 15.9956 22.1951 15.4572 22.2166C14.9926 22.235 14.4946 22.2449 13.9624 22.25C13.4234 22.2551 12.9819 21.8223 12.9767 21.2833C12.9715 20.7443 13.4044 20.303 13.9433 20.2976C14.465 20.2926 14.9421 20.2834 15.3799 20.2661ZM2.94405 17.9458C3.43652 17.7264 4.01351 17.9481 4.23292 18.4405C4.37235 18.7535 4.5472 19.0074 4.76963 19.2299C4.99207 19.4523 5.24605 19.6272 5.55897 19.7666C6.05144 19.986 6.27315 20.563 6.05374 21.0555C5.83426 21.5478 5.25726 21.7687 4.76487 21.5493C4.24665 21.3184 3.78963 21.0126 3.38829 20.6112C2.98696 20.2099 2.68112 19.7529 2.45024 19.2346C2.23086 18.7422 2.45173 18.1653 2.94405 17.9458ZM19.7661 18.4405C19.9855 17.9481 20.5625 17.7264 21.055 17.9458C21.5473 18.1653 21.7682 18.7422 21.5488 19.2346C21.3179 19.7529 21.0121 20.2099 20.6107 20.6112C20.2094 21.0126 19.7524 21.3184 19.2342 21.5493C18.7418 21.7687 18.1648 21.5478 17.9453 21.0555C17.7259 20.563 17.9476 19.986 18.4401 19.7666C18.753 19.6272 19.007 19.4523 19.2294 19.2299C19.4518 19.0074 19.6267 18.7535 19.7661 18.4405ZM2.71621 12.9771C3.25519 12.972 3.69657 13.4049 3.70193 13.9438C3.70692 14.4655 3.71608 14.9426 3.73339 15.3804C3.75454 15.919 3.33491 16.3725 2.79629 16.3938C2.25786 16.4149 1.80441 15.9961 1.78292 15.4576C1.76456 14.9931 1.75465 14.4951 1.74956 13.9629C1.7444 13.4238 2.17719 12.9824 2.71621 12.9771ZM21.2828 12.9771C21.8218 12.9824 22.2546 13.4238 22.2495 13.9629C22.2444 14.4951 22.2345 14.9931 22.2161 15.4576C22.1946 15.9961 21.7412 16.4149 21.2027 16.3938C20.6641 16.3725 20.2445 15.919 20.2656 15.3804C20.2829 14.9426 20.2921 14.4655 20.2971 13.9438C20.3025 13.4049 20.7438 12.972 21.2828 12.9771ZM2.79629 7.60621C3.33492 7.6275 3.75456 8.08096 3.73339 8.61957C3.71608 9.0574 3.70692 9.53453 3.70193 10.0562C3.69657 10.5951 3.25519 11.028 2.71621 11.0229C2.17719 11.0176 1.7444 10.5762 1.74956 10.0371C1.75465 9.50492 1.76456 9.00691 1.78292 8.54236C1.80439 8.00392 2.25785 7.58512 2.79629 7.60621ZM21.2027 7.60621C21.7412 7.58512 22.1946 8.00392 22.2161 8.54236C22.2345 9.00689 22.2444 9.50494 22.2495 10.0371C22.2546 10.5762 21.8218 11.0176 21.2828 11.0229C20.7439 11.028 20.3025 10.5951 20.2971 10.0562C20.2921 9.53456 20.2829 9.05738 20.2656 8.61957C20.2445 8.08096 20.6641 7.6275 21.2027 7.60621ZM4.76487 2.45073C5.25726 2.23135 5.83426 2.45222 6.05374 2.94454C6.27315 3.43701 6.05144 4.014 5.55897 4.23341C5.24605 4.37284 4.99207 4.54768 4.76963 4.77012C4.5472 4.99256 4.37235 5.24654 4.23292 5.55946C4.01351 6.05193 3.43652 6.27363 2.94405 6.05423C2.45173 5.83475 2.23086 5.25775 2.45024 4.76535C2.68112 4.24714 2.98696 3.79012 3.38829 3.38878C3.78963 2.98744 4.24665 2.68161 4.76487 2.45073ZM17.9453 2.94454C18.1648 2.45222 18.7418 2.23135 19.2342 2.45073C19.7524 2.68161 20.2094 2.98744 20.6107 3.38878C21.0121 3.79011 21.3179 4.24714 21.5488 4.76535C21.7682 5.25775 21.5473 5.83475 21.055 6.05423C20.5625 6.27363 19.9855 6.05193 19.7661 5.55946C19.6267 5.24654 19.4518 4.99256 19.2294 4.77012C19.007 4.54768 18.753 4.37284 18.4401 4.23341C17.9476 4.014 17.7259 3.43701 17.9453 2.94454ZM10.0367 1.75005C10.5757 1.74492 11.0171 2.1777 11.0224 2.7167C11.0275 3.25566 10.5946 3.69702 10.0557 3.70242C9.53407 3.70741 9.05689 3.71657 8.61909 3.73388C8.08047 3.75505 7.62702 3.33541 7.60572 2.79678C7.58463 2.25833 8.00344 1.80488 8.54187 1.78341C9.0064 1.76504 9.50446 1.75514 10.0367 1.75005ZM13.9624 1.75005C14.4946 1.75514 14.9926 1.76504 15.4572 1.78341C15.9956 1.80488 16.4144 2.25833 16.3933 2.79678C16.372 3.33541 15.9186 3.75505 15.3799 3.73388C14.9421 3.71657 14.465 3.70741 13.9433 3.70242C13.4044 3.69702 12.9715 3.25566 12.9767 2.7167C12.9819 2.1777 13.4234 1.74492 13.9624 1.75005Z" fill="currentColor"/><path d="M12.9995 15C13.5518 15 13.9995 15.4477 13.9995 16C13.9995 16.5523 13.5518 17 12.9995 17H6.99951C6.44723 17 5.99951 16.5523 5.99951 16C5.99951 15.4477 6.44723 15 6.99951 15H12.9995ZM16.9995 11C17.5518 11 17.9995 11.4477 17.9995 12C17.9995 12.5523 17.5518 13 16.9995 13H6.99951C6.44723 13 5.99951 12.5523 5.99951 12C5.99951 11.4477 6.44723 11 6.99951 11H16.9995ZM14.9995 7C15.5518 7 15.9995 7.44772 15.9995 8C15.9995 8.55228 15.5518 9 14.9995 9H6.99951C6.44723 9 5.99951 8.55228 5.99951 8C5.99951 7.44772 6.44723 7 6.99951 7H14.9995Z" fill="currentColor"/></svg>
