<svg xmlns="http://www.w3.org/2000/svg" viewBox="0 0 24 24" fill="none"><path opacity="0.4" d="M19.4121 12.472L12.4727 19.4114L4.58691 11.5257L11.5264 4.58624L19.4121 12.472Z" fill="currentColor"/><path d="M11.4111 20.4712C10.8584 21.0236 10.4046 21.4748 10.0019 21.8121C9.55727 22.1845 9.12183 22.4676 8.61034 22.6119C7.95812 22.7958 7.26742 22.7958 6.61522 22.6119C6.10385 22.4675 5.6682 22.1844 5.22362 21.8121C4.78668 21.446 4.28804 20.9478 3.66991 20.3296C3.05176 19.7115 2.55348 19.2129 2.18748 18.7759C1.81516 18.3314 1.53195 17.8957 1.38768 17.3843C1.2038 16.7322 1.20377 16.0414 1.38768 15.3892C1.53199 14.8778 1.81508 14.4422 2.18748 13.9976C2.52486 13.5948 2.9749 13.1403 3.52733 12.5874L11.4111 20.4712Z" fill="currentColor"/><path d="M15.3896 1.38725C16.0418 1.20333 16.7326 1.20338 17.3848 1.38725C17.8961 1.53151 18.3318 1.81475 18.7764 2.18706C19.2091 2.54957 19.7024 3.04285 20.3125 3.65288L20.3447 3.6851C20.9558 4.29618 21.4495 4.78987 21.8125 5.22319C22.1849 5.66776 22.468 6.10345 22.6123 6.61479C22.7962 7.267 22.7962 7.9577 22.6123 8.60991C22.468 9.12139 22.1849 9.55685 21.8125 10.0015C21.4751 10.4043 21.0241 10.8578 20.4717 11.4107L12.5879 3.5269C13.1408 2.97447 13.5953 2.52443 13.998 2.18706C14.4426 1.81467 14.8782 1.53157 15.3896 1.38725Z" fill="currentColor"/><path d="M15.5004 11.9993C15.5004 12.5516 15.0527 12.9993 14.5004 12.9993C13.9481 12.9993 13.5004 12.5516 13.5004 11.9993C13.5004 11.447 13.9481 10.9993 14.5004 10.9993C15.0527 10.9993 15.5004 11.447 15.5004 11.9993Z" fill="currentColor"/><path d="M13.0004 9.49933C13.0004 10.0516 12.5527 10.4993 12.0004 10.4993C11.4481 10.4993 11.0004 10.0516 11.0004 9.49933C11.0004 8.94704 11.4481 8.49933 12.0004 8.49933C12.5527 8.49933 13.0004 8.94704 13.0004 9.49933Z" fill="currentColor"/><path d="M10.5004 11.9993C10.5004 12.5516 10.0527 12.9993 9.50037 12.9993C8.94808 12.9993 8.50037 12.5516 8.50037 11.9993C8.50037 11.447 8.94808 10.9993 9.50037 10.9993C10.0527 10.9993 10.5004 11.447 10.5004 11.9993Z" fill="currentColor"/><path d="M13.0004 14.4993C13.0004 15.0516 12.5527 15.4993 12.0004 15.4993C11.4481 15.4993 11.0004 15.0516 11.0004 14.4993C11.0004 13.947 11.4481 13.4993 12.0004 13.4993C12.5527 13.4993 13.0004 13.947 13.0004 14.4993Z" fill="currentColor"/></svg>
