<svg xmlns="http://www.w3.org/2000/svg" viewBox="0 0 24 24" fill="none"><path d="M11.4112 20.471C10.8585 21.0234 10.4048 21.4745 10.0021 21.8118C9.55739 22.1843 9.12195 22.4674 8.61046 22.6116C7.95825 22.7955 7.26754 22.7956 6.61534 22.6116C6.10398 22.4673 5.66833 22.1842 5.22374 21.8118C4.78681 21.4458 4.28816 20.9476 3.67003 20.3294C3.05188 19.7113 2.5536 19.2126 2.18761 18.7757C1.81528 18.3311 1.53207 17.8955 1.3878 17.3841C1.20392 16.7319 1.20389 16.0411 1.3878 15.389C1.53212 14.8776 1.8152 14.442 2.18761 13.9974C2.52498 13.5946 2.97502 13.1401 3.52745 12.5872L11.4112 20.471Z" fill="currentColor"/><path d="M19.4122 12.472L12.4728 19.4115L4.58702 11.5257L11.5265 4.58626L19.4122 12.472ZM12.0001 13.4993C11.4479 13.4995 11.0001 13.9471 11.0001 14.4993C11.0001 15.0515 11.4479 15.4992 12.0001 15.4993C12.5524 15.4993 13.0001 15.0516 13.0001 14.4993C13.0001 13.9471 12.5524 13.4993 12.0001 13.4993ZM9.50011 10.9993C8.94793 10.9995 8.50011 11.4471 8.50011 11.9993C8.50011 12.5515 8.94793 12.9992 9.50011 12.9993C10.0524 12.9993 10.5001 12.5516 10.5001 11.9993C10.5001 11.4471 10.0524 10.9993 9.50011 10.9993ZM14.5001 10.9993C13.9479 10.9995 13.5001 11.4471 13.5001 11.9993C13.5001 12.5515 13.9479 12.9992 14.5001 12.9993C15.0524 12.9993 15.5001 12.5516 15.5001 11.9993C15.5001 11.4471 15.0524 10.9993 14.5001 10.9993ZM12.0001 8.49934C11.4479 8.49948 11.0001 8.94714 11.0001 9.49934C11.0001 10.0515 11.4479 10.4992 12.0001 10.4993C12.5524 10.4993 13.0001 10.0516 13.0001 9.49934C13.0001 8.94706 12.5524 8.49934 12.0001 8.49934Z" fill="currentColor" fill-rule="evenodd" clip-rule="evenodd"/><path d="M15.3898 1.38704C16.0419 1.20312 16.7327 1.20316 17.3849 1.38704C17.8962 1.5313 18.3319 1.81454 18.7765 2.18684C19.2093 2.54936 19.7026 3.04264 20.3126 3.65266L20.3448 3.68489C20.9559 4.29596 21.4496 4.78966 21.8126 5.22298C22.185 5.66754 22.4681 6.10323 22.6124 6.61458C22.7963 7.26679 22.7963 7.95749 22.6124 8.60969C22.4681 9.12117 22.185 9.55663 21.8126 10.0013C21.4752 10.4041 21.0242 10.8576 20.4718 11.4105L12.588 3.52669C13.1409 2.97425 13.5954 2.52421 13.9982 2.18684C14.4428 1.81445 14.8784 1.53136 15.3898 1.38704Z" fill="currentColor"/></svg>
