<svg xmlns="http://www.w3.org/2000/svg" viewBox="0 0 24 24" fill="none"><path d="M10 13C10.5523 13 11 13.4477 11 14C11 14.5523 10.5523 15 10 15H4.00003C3.44775 15 3.00003 14.5523 3.00003 14C3.00003 13.4477 3.44775 13 4.00003 13H10Z" fill="currentColor"/><path d="M5.11726 6.32506C5.74977 4.55831 8.25037 4.55832 8.88288 6.32506L12.9415 17.6629C13.1276 18.1829 12.8569 18.7552 12.337 18.9413C11.817 19.1274 11.2448 18.8567 11.0587 18.3368L7.00007 6.99888L2.94148 18.3368C2.75536 18.8567 2.18312 19.1274 1.66316 18.9413C1.14319 18.7552 0.872575 18.1829 1.05866 17.6629L5.11726 6.32506Z" fill="currentColor"/><path opacity="0.4" d="M17.9999 6C18.4101 6 18.7651 6.17919 18.9911 6.31543C19.2444 6.46818 19.4961 6.66809 19.7313 6.87598C20.2044 7.29397 20.7053 7.83224 21.1503 8.34473C21.5995 8.86209 22.0123 9.37645 22.3114 9.75977C22.4614 9.95191 22.5835 10.1126 22.6688 10.2256C22.7115 10.282 22.7454 10.3265 22.7685 10.3574C22.7799 10.3728 22.7887 10.3852 22.7948 10.3936C22.7979 10.3976 22.8009 10.401 22.8026 10.4033C22.8033 10.4042 22.8042 10.4047 22.8046 10.4053V10.4072H22.8056C23.1327 10.8519 23.0372 11.4782 22.5927 11.8057C22.148 12.1328 21.5216 12.0373 21.1942 11.5928L21.1933 11.5908C21.1921 11.5893 21.1897 11.5871 21.1874 11.584C21.1824 11.5772 21.1751 11.5664 21.1649 11.5527C21.1443 11.525 21.113 11.4835 21.0731 11.4307C20.9933 11.3249 20.8777 11.1728 20.7352 10.9902C20.4491 10.6236 20.0594 10.1378 19.6405 9.65527C19.4267 9.409 19.2104 9.16894 18.9999 8.94922V17C18.9999 17.5523 18.5522 18 17.9999 18C17.4477 17.9999 16.9999 17.5522 16.9999 17V8.94922C16.7894 9.16893 16.5731 9.40902 16.3593 9.65527C15.9403 10.1378 15.5506 10.6236 15.2645 10.9902C15.1221 11.1728 15.0065 11.3249 14.9267 11.4307C14.8867 11.4835 14.8555 11.5251 14.8349 11.5527C14.8247 11.5664 14.8174 11.5772 14.8124 11.584C14.81 11.5872 14.8077 11.5893 14.8065 11.5908L14.8056 11.5928L14.7401 11.6719C14.3999 12.0476 13.8241 12.1118 13.4071 11.8047C12.9627 11.4773 12.8672 10.8518 13.1942 10.4072H13.1952V10.4053C13.1957 10.4046 13.1973 10.4044 13.1981 10.4033C13.1998 10.4011 13.202 10.3976 13.205 10.3936C13.2111 10.3852 13.2198 10.3728 13.2313 10.3574C13.2544 10.3265 13.2883 10.2821 13.331 10.2256C13.4163 10.1126 13.5384 9.95193 13.6884 9.75977C13.9875 9.37646 14.4003 8.8621 14.8495 8.34473C15.2945 7.83225 15.7954 7.29397 16.2685 6.87598C16.5037 6.6681 16.7554 6.46819 17.0087 6.31543C17.2347 6.1792 17.5897 6.00004 17.9999 6Z" fill="currentColor" fill-rule="evenodd" clip-rule="evenodd"/></svg>
