<svg xmlns="http://www.w3.org/2000/svg" viewBox="0 0 24 24" fill="none"><path d="M5.1167 6.32506C5.74921 4.55831 8.24982 4.55832 8.88233 6.32506L12.9409 17.6629C13.127 18.1829 12.8564 18.7552 12.3364 18.9413C11.8165 19.1272 11.2442 18.8566 11.0581 18.3368L9.86377 14.9999H4.13526L2.94092 18.3368C2.75474 18.8566 2.18251 19.1273 1.6626 18.9413C1.14276 18.7551 0.872155 18.1828 1.05811 17.6629L5.1167 6.32506ZM17.9995 5.99986C18.4097 5.99986 18.7647 6.17905 18.9907 6.31529C19.2441 6.46804 19.4957 6.66795 19.731 6.87584C20.204 7.29383 20.7049 7.8321 21.1499 8.34459C21.5991 8.86196 22.0119 9.3763 22.311 9.75963C22.461 9.95178 22.5831 10.1125 22.6685 10.2254C22.7111 10.2819 22.745 10.3264 22.7681 10.3573C22.7796 10.3727 22.7883 10.3851 22.7944 10.3934C22.7975 10.3975 22.8006 10.4009 22.8022 10.4032C22.8029 10.4041 22.8038 10.4046 22.8042 10.4051V10.4071H22.8052C23.1324 10.8518 23.0369 11.4781 22.5923 11.8055C22.1476 12.1327 21.5213 12.0372 21.1939 11.5926L21.1929 11.5907C21.1917 11.5891 21.1894 11.587 21.187 11.5838C21.182 11.5771 21.1748 11.5663 21.1646 11.5526C21.1439 11.5249 21.1127 11.4834 21.0728 11.4305C20.9929 11.3248 20.8773 11.1727 20.7349 10.9901C20.4488 10.6235 20.0591 10.1376 19.6401 9.65513C19.4263 9.40886 19.21 9.1688 18.9995 8.94908V16.9999C18.9995 17.5521 18.5518 17.9999 17.9995 17.9999C17.4473 17.9998 16.9995 17.5521 16.9995 16.9999V8.94908C16.789 9.16879 16.5727 9.40888 16.3589 9.65513C15.94 10.1376 15.5503 10.6235 15.2642 10.9901C15.1217 11.1727 15.0061 11.3248 14.9263 11.4305C14.8864 11.4834 14.8551 11.5249 14.8345 11.5526C14.8243 11.5663 14.817 11.5771 14.812 11.5838C14.8097 11.587 14.8073 11.5891 14.8062 11.5907L14.8052 11.5926L14.7397 11.6717C14.3995 12.0475 13.8237 12.1116 13.4067 11.8045C12.9623 11.4771 12.8667 10.8517 13.1939 10.4071H13.1948V10.4051C13.1953 10.4045 13.1969 10.4043 13.1978 10.4032C13.1994 10.4009 13.2016 10.3975 13.2046 10.3934C13.2108 10.3851 13.2195 10.3727 13.231 10.3573C13.254 10.3264 13.2879 10.2819 13.3306 10.2254C13.4159 10.1125 13.538 9.9518 13.688 9.75963C13.9871 9.37632 14.3999 8.86196 14.8491 8.34459C15.2941 7.83211 15.795 7.29383 16.2681 6.87584C16.5033 6.66795 16.755 6.46805 17.0083 6.31529C17.2343 6.17906 17.5893 5.99989 17.9995 5.99986ZM4.85108 12.9999H9.14795L6.99951 6.99888L4.85108 12.9999Z" fill="currentColor" fill-rule="evenodd" clip-rule="evenodd"/></svg>
