<svg xmlns="http://www.w3.org/2000/svg" viewBox="0 0 24 24" fill="none"><path opacity="0.4" d="M22.75 13.0644V13V11V10.9356C22.75 9.5725 22.7501 8.47332 22.6338 7.6084C22.5128 6.70829 22.2533 5.95055 21.6514 5.34863C21.0495 4.74672 20.2917 4.48723 19.3916 4.36621C18.5267 4.24995 17.4275 4.24997 16.0644 4.25H16H8H7.93561C6.57252 4.24997 5.47333 4.24995 4.6084 4.36621C3.70829 4.48723 2.95055 4.74672 2.34863 5.34863C1.74672 5.95055 1.48723 6.70829 1.36621 7.6084C1.24995 8.47333 1.24997 9.57252 1.25 10.9356V11V13V13.0644C1.24997 14.4275 1.24995 15.5267 1.36621 16.3916C1.48723 17.2917 1.74672 18.0495 2.34863 18.6514L2.46289 18.7607C3.04541 19.2856 3.76456 19.5203 4.6084 19.6338C5.47331 19.7501 6.57248 19.75 7.93554 19.75H8H16H16.0645C17.4275 19.75 18.5267 19.7501 19.3916 19.6338C20.2917 19.5128 21.0495 19.2533 21.6514 18.6514L21.7607 18.5371C22.2856 17.9546 22.5203 17.2354 22.6338 16.3916C22.7501 15.5267 22.75 14.4275 22.75 13.0644Z" fill="currentColor"/><path d="M15 12C15 13.6569 13.6569 15 12 15C10.3431 15 9 13.6569 9 12C9 10.3431 10.3431 9 12 9C13.6569 9 15 10.3431 15 12Z" fill="currentColor"/><path d="M5.25 11C5.80228 11 6.25 11.4477 6.25 12C6.25 12.5523 5.80228 13 5.25 13C4.69772 13 4.25 12.5523 4.25 12C4.25 11.4477 4.69771 11 5.25 11Z" fill="currentColor"/><path d="M18.75 11C19.3023 11 19.75 11.4477 19.75 12C19.75 12.5523 19.3023 13 18.75 13C18.1977 13 17.75 12.5523 17.75 12C17.75 11.4477 18.1977 11 18.75 11Z" fill="currentColor"/></svg>
