<svg xmlns="http://www.w3.org/2000/svg" viewBox="0 0 24 24" fill="none"><path d="M16.0645 4.25C17.4275 4.24997 18.5267 4.24995 19.3916 4.36621C20.2917 4.48723 21.0494 4.74672 21.6514 5.34863C22.2533 5.95055 22.5128 6.70829 22.6338 7.6084C22.7501 8.47331 22.75 9.57249 22.75 10.9355V13.0645C22.75 14.4275 22.7501 15.5267 22.6338 16.3916C22.5203 17.2354 22.2856 17.9546 21.7607 18.5371L21.6514 18.6514C21.0494 19.2533 20.2917 19.5128 19.3916 19.6338C18.5267 19.7501 17.4275 19.75 16.0645 19.75H7.93555C6.57249 19.75 5.47331 19.7501 4.6084 19.6338C3.76456 19.5203 3.04541 19.2856 2.46289 18.7607L2.34863 18.6514C1.74672 18.0495 1.48723 17.2917 1.36621 16.3916C1.24995 15.5267 1.24997 14.4275 1.25 13.0645V10.9355C1.24997 9.57249 1.24995 8.47331 1.36621 7.6084C1.48723 6.70829 1.74672 5.95055 2.34863 5.34863C2.95055 4.74672 3.70829 4.48723 4.6084 4.36621C5.47331 4.24995 6.57249 4.24997 7.93555 4.25H16.0645ZM12 9C10.3431 9 9 10.3431 9 12C9 13.6569 10.3431 15 12 15C13.6569 15 15 13.6569 15 12C15 10.3431 13.6569 9 12 9ZM5.25 11C4.69771 11 4.25 11.4477 4.25 12C4.25 12.5523 4.69772 13 5.25 13C5.80228 13 6.25 12.5523 6.25 12C6.25 11.4477 5.80228 11 5.25 11ZM18.75 11C18.1977 11 17.75 11.4477 17.75 12C17.75 12.5523 18.1977 13 18.75 13C19.3023 13 19.75 12.5523 19.75 12C19.75 11.4477 19.3023 11 18.75 11Z" fill="currentColor"/></svg>
