<svg xmlns="http://www.w3.org/2000/svg" viewBox="0 0 24 24" fill="none"><path opacity="0.4" d="M22.75 15.0645V15V14.9355C22.75 13.5725 22.7501 12.4733 22.6338 11.6084C22.5128 10.7083 22.2533 9.95055 21.6514 9.34863C21.0495 8.74672 20.2917 8.48723 19.3916 8.36621C18.5267 8.24995 17.4275 8.24997 16.0644 8.25H16H8H7.93561C6.57252 8.24997 5.47333 8.24995 4.6084 8.36621C3.70829 8.48723 2.95055 8.74672 2.34863 9.34863C1.74672 9.95055 1.48723 10.7083 1.36621 11.6084C1.24995 12.4733 1.24997 13.5725 1.25 14.9356V15V15.0644C1.24997 16.4275 1.24995 17.5267 1.36621 18.3916C1.48723 19.2917 1.74672 20.0495 2.34863 20.6514C2.95055 21.2533 3.70829 21.5128 4.6084 21.6338C5.47332 21.7501 6.5725 21.75 7.93557 21.75H8H16H16.0644C17.4275 21.75 18.5267 21.7501 19.3916 21.6338C20.2917 21.5128 21.0495 21.2533 21.6514 20.6514C22.2533 20.0495 22.5128 19.2917 22.6338 18.3916C22.7501 17.5267 22.75 16.4275 22.75 15.0645Z" fill="currentColor"/><path d="M17 15C17 14.4477 16.5523 14 16 14C15.4477 14 15 14.4477 15 15C15 15.5523 15.4477 16 16 16C16.5523 16 17 15.5523 17 15ZM19 15C19 16.6569 17.6569 18 16 18C14.3431 18 13 16.6569 13 15C13 13.3431 14.3431 12 16 12C17.6569 12 19 13.3431 19 15Z" fill="currentColor"/><path d="M9 15C9 14.4477 8.55228 14 8 14C7.44772 14 7 14.4477 7 15C7 15.5523 7.44772 16 8 16C8.55228 16 9 15.5523 9 15ZM11 15C11 16.6569 9.65685 18 8 18C6.34315 18 5 16.6569 5 15C5 13.3431 6.34315 12 8 12C9.65685 12 11 13.3431 11 15Z" fill="currentColor"/><path d="M13.9443 2.25C15.2917 2.25 16.4004 2.24804 17.2744 2.36133C18.1763 2.47828 18.9726 2.73371 19.6104 3.34864C20.2482 3.96368 20.5125 4.73182 20.6338 5.60156C20.7488 6.4266 20.749 7.46823 20.749 8.73047C20.3411 8.54484 19.8887 8.43304 19.3916 8.36621C19.2065 8.34133 19.0106 8.32201 18.8037 8.30664C18.8019 7.22515 18.7915 6.45086 18.708 5.85156C18.6158 5.19018 18.4525 4.88345 18.2363 4.67481C18.0199 4.46615 17.7011 4.30872 17.0146 4.21973C16.3003 4.12719 15.3464 4.125 13.9443 4.125H10.0557C8.65364 4.125 7.69969 4.12719 6.98535 4.21973C6.29891 4.30872 5.98006 4.46615 5.76367 4.67481C5.54753 4.88345 5.38422 5.19018 5.29199 5.85156C5.20847 6.45086 5.19708 7.22515 5.19531 8.30664C4.98879 8.322 4.79324 8.34137 4.6084 8.36621C4.11101 8.43309 3.65817 8.54462 3.25 8.73047C3.24998 7.46823 3.2512 6.4266 3.36621 5.60156C3.4875 4.73182 3.75182 3.96368 4.38965 3.34864C5.02745 2.73371 5.82371 2.47828 6.72559 2.36133C7.59965 2.24804 8.70832 2.25 10.0557 2.25H13.9443Z" fill="currentColor"/></svg>
