<svg xmlns="http://www.w3.org/2000/svg" viewBox="0 0 24 24" fill="none"><path d="M18.8051 8.8125C18.8051 7.46042 18.8033 6.54054 18.7073 5.85169C18.615 5.18976 18.4518 4.88298 18.2354 4.67432C18.019 4.46566 17.7009 4.30829 17.0144 4.2193C16.3001 4.12673 15.3461 4.125 13.944 4.125H10.0551C8.65291 4.125 7.69896 4.12673 6.98459 4.2193C6.29815 4.30829 5.98001 4.46566 5.76362 4.67432C5.54723 4.88298 5.38404 5.18976 5.29175 5.85169C5.19575 6.54054 5.19396 7.46042 5.19396 8.8125C5.19396 9.33027 4.75868 9.75 4.22174 9.75C3.68479 9.75 3.24951 9.33027 3.24951 8.8125C3.24951 7.51328 3.24785 6.44459 3.36534 5.60175C3.48662 4.73191 3.75095 3.96374 4.38884 3.34863C5.02672 2.73353 5.82334 2.47864 6.7254 2.3617C7.59946 2.2484 8.70772 2.25 10.0551 2.25H13.944C15.2913 2.25 16.3996 2.2484 17.2736 2.3617C18.1757 2.47864 18.9723 2.73353 19.6102 3.34863C20.2481 3.96374 20.5124 4.73191 20.6337 5.60175C20.7512 6.44459 20.7495 7.51328 20.7495 8.8125C20.7495 9.33027 20.3142 9.75 19.7773 9.75C19.2403 9.75 18.8051 9.33027 18.8051 8.8125Z" fill="currentColor"/><path d="M16.064 8.25C17.427 8.24997 18.5262 8.24995 19.3911 8.36621C20.2912 8.48723 21.049 8.74672 21.6509 9.34863C22.2528 9.95055 22.5123 10.7083 22.6333 11.6084C22.7496 12.4733 22.7495 13.5725 22.7495 14.9355V15.0645C22.7495 16.4275 22.7496 17.5267 22.6333 18.3916C22.5123 19.2917 22.2528 20.0495 21.6509 20.6514C21.049 21.2533 20.2912 21.5128 19.3911 21.6338C18.5262 21.7501 17.427 21.75 16.064 21.75H7.93506C6.572 21.75 5.47282 21.7501 4.60791 21.6338C3.7078 21.5128 2.95006 21.2533 2.34814 20.6514C1.74623 20.0495 1.48674 19.2917 1.36572 18.3916C1.24946 17.5267 1.24948 16.4275 1.24951 15.0645V14.9355C1.24948 13.5725 1.24946 12.4733 1.36572 11.6084C1.48674 10.7083 1.74623 9.95055 2.34814 9.34863C2.95006 8.74672 3.7078 8.48723 4.60791 8.36621C5.47282 8.24995 6.572 8.24997 7.93506 8.25H16.064ZM7.99951 12C6.34266 12 4.99951 13.3431 4.99951 15C4.99951 16.6569 6.34266 18 7.99951 18C9.65637 18 10.9995 16.6569 10.9995 15C10.9995 13.3431 9.65637 12 7.99951 12ZM15.9995 12C14.3427 12 12.9995 13.3431 12.9995 15C12.9995 16.6569 14.3427 18 15.9995 18C17.6564 18 18.9995 16.6569 18.9995 15C18.9995 13.3431 17.6564 12 15.9995 12ZM7.99951 14C8.5518 14 8.99951 14.4477 8.99951 15C8.99951 15.5523 8.5518 16 7.99951 16C7.44723 16 6.99951 15.5523 6.99951 15C6.99951 14.4477 7.44723 14 7.99951 14ZM15.9995 14C16.5518 14 16.9995 14.4477 16.9995 15C16.9995 15.5523 16.5518 16 15.9995 16C15.4472 16 14.9995 15.5523 14.9995 15C14.9995 14.4477 15.4472 14 15.9995 14Z" fill="currentColor"/></svg>
