<svg xmlns="http://www.w3.org/2000/svg" viewBox="0 0 24 24" fill="none"><path d="M18.75 20.75C19.3023 20.75 19.75 21.1977 19.75 21.75C19.75 22.3023 19.3023 22.75 18.75 22.75C18.1977 22.75 17.75 22.3023 17.75 21.75C17.75 21.1977 18.1977 20.75 18.75 20.75Z" fill="currentColor"/><path opacity="0.4" d="M11 1.25C14.0376 1.25 16.5 3.71243 16.5 6.75V8.52734C17.6385 8.87577 18.5719 9.69987 19.085 10.7637C18.9744 10.7551 18.8628 10.75 18.75 10.75C16.4028 10.75 14.5 12.6528 14.5 15C14.5 16.2332 15.4921 17.2329 16.7217 17.248C16.5886 17.6161 16.5 18.0345 16.5 18.5C16.5 19.1395 16.768 19.7154 17.1963 20.125C16.768 20.5346 16.5 21.1105 16.5 21.75C16.5 21.9899 16.5388 22.2207 16.6084 22.4375C16.2494 22.5583 15.8692 22.6322 15.4746 22.6504C14.0462 22.7161 12.5958 22.75 11 22.75C9.40423 22.75 7.95376 22.7161 6.52539 22.6504C4.46733 22.5558 2.79598 20.9613 2.52441 18.9443C2.37629 17.8441 2.25 16.688 2.25 15.5C2.25 14.312 2.37629 13.1559 2.52441 12.0557C2.74914 10.3866 3.93236 9.0071 5.5 8.52734V6.75C5.5 3.71243 7.96243 1.25 11 1.25ZM11 3.25C9.067 3.25 7.5 4.817 7.5 6.75V8.31055C8.61773 8.27087 9.76537 8.25 11 8.25C12.2346 8.25 13.3823 8.27087 14.5 8.31055V6.75C14.5 4.817 12.933 3.25 11 3.25Z" fill="currentColor" fill-rule="evenodd" clip-rule="evenodd"/><path d="M12 14.5C12.5523 14.5 13 14.9477 13 15.5C13 16.0523 12.5523 16.5 12 16.5C11.4477 16.5 11 16.0523 11 15.5C11 14.9477 11.4477 14.5 12 14.5Z" fill="currentColor"/><path d="M8 14.5C8.55228 14.5 9 14.9477 9 15.5C9 16.0523 8.55228 16.5 8 16.5C7.44772 16.5 7 16.0523 7 15.5C7 14.9477 7.44771 14.5 8 14.5Z" fill="currentColor"/><path d="M17.75 18.5C17.75 17.7672 18.0871 17.1833 18.4199 16.7627C18.7445 16.3524 19.1597 15.9848 19.4316 15.7314C19.6288 15.5476 19.75 15.2888 19.75 15C19.75 14.4477 19.3023 14 18.75 14C18.2323 14 17.8062 14.3933 17.7549 14.8975L17.7451 15.1025C17.6938 15.6067 17.2677 16 16.75 16C16.1977 16 15.75 15.5523 15.75 15C15.75 13.3431 17.0931 12 18.75 12C20.4069 12 21.75 13.3431 21.75 15C21.75 15.8666 21.3812 16.649 20.7949 17.1953C20.4609 17.5066 20.1937 17.7433 19.9883 18.0029C19.791 18.2522 19.75 18.4046 19.75 18.5C19.75 19.0523 19.3023 19.5 18.75 19.5C18.1977 19.5 17.75 19.0523 17.75 18.5Z" fill="currentColor"/></svg>
