<svg xmlns="http://www.w3.org/2000/svg" viewBox="0 0 24 24" fill="none"><path opacity="0.4" d="M12 2.24951C13.7714 2.24951 15.2848 2.43739 16.5693 2.79248C16.5866 2.86209 16.6068 2.9315 16.6309 2.99951H14.75C13.5851 2.99951 12.6271 3.8846 12.5117 5.01904L12.5 5.24951L12.5117 5.479C12.6269 6.6136 13.585 7.49951 14.75 7.49951H16.6309C16.3554 8.28054 16.5208 9.18417 17.1367 9.81787L17.3057 9.9751C18.1793 10.7079 19.4836 10.6738 20.3184 9.86279L20.3213 9.85986L20.3301 9.85205C20.338 9.84489 20.3493 9.83484 20.3633 9.82275C20.3918 9.79816 20.4293 9.76644 20.4775 9.72705C20.5749 9.64752 20.7025 9.54631 20.8652 9.41846C21.1642 9.18367 21.5573 8.87711 21.9326 8.55908C22.047 8.46211 22.1666 8.35611 22.2891 8.24561C22.6271 9.42768 22.75 10.7035 22.75 11.9995C22.75 14.6247 21.9907 17.0849 20.208 18.8901C18.4216 20.699 15.7071 21.7495 12 21.7495C10.4515 21.7495 9.09789 21.598 7.91992 21.3091C7.58951 21.228 7.18966 21.3202 6.83789 21.5796C6.02979 22.1757 4.78902 22.7495 3 22.7495C2.67 22.7495 2.37843 22.5339 2.28223 22.2183C2.18605 21.9026 2.30807 21.5605 2.58203 21.3765C3.1813 20.9736 3.81966 19.6165 2.7373 17.8999C1.63081 16.2117 1.25 14.1429 1.25 11.9995C1.25 9.42378 1.8005 6.95066 3.50098 5.12451C5.21037 3.2888 7.94704 2.24951 12 2.24951Z" fill="currentColor"/><path d="M8 10.9995C8.55228 10.9995 9 11.4472 9 11.9995C9 12.5518 8.55228 12.9995 8 12.9995C7.44772 12.9995 7 12.5518 7 11.9995C7 11.4472 7.44771 10.9995 8 10.9995ZM12.1025 11.0044C12.6066 11.0558 13 11.4819 13 11.9995C13 12.5517 12.5522 12.9994 12 12.9995C11.4823 12.9995 11.0562 12.6062 11.0049 12.1021L11 11.9995L11.0049 11.897C11.0562 11.3929 11.4823 10.9995 12 10.9995L12.1025 11.0044ZM16 10.9995C16.5523 10.9995 17 11.4472 17 11.9995C17 12.5518 16.5523 12.9995 16 12.9995C15.4477 12.9995 15 12.5518 15 11.9995C15 11.4472 15.4477 10.9995 16 10.9995Z" fill="currentColor"/><path d="M18.0332 1.5521C18.4182 1.15634 19.0513 1.14772 19.4473 1.53257C19.5522 1.63448 19.7656 1.80584 20.0928 2.06284C20.3975 2.30217 20.7699 2.59282 21.124 2.89292C21.4739 3.18941 21.8411 3.52396 22.1279 3.86069C22.2717 4.02949 22.4153 4.22264 22.5273 4.43198C22.6351 4.63339 22.75 4.91675 22.75 5.24936C22.75 5.58197 22.6351 5.86534 22.5273 6.06675C22.4153 6.27609 22.2717 6.46923 22.1279 6.63803C21.8411 6.97477 21.4739 7.30931 21.124 7.60581C20.7699 7.9059 20.3975 8.19655 20.0928 8.43589C19.7656 8.69288 19.5522 8.86424 19.4473 8.96616C19.0513 9.351 18.4182 9.34238 18.0332 8.94663C17.6484 8.55069 17.657 7.91753 18.0527 7.53257C18.2513 7.33953 18.5655 7.0929 18.8574 6.86362C19.1056 6.66871 19.3677 6.46072 19.625 6.24936H14.75C14.1977 6.24936 13.75 5.80165 13.75 5.24936C13.75 4.69708 14.1977 4.24936 14.75 4.24936H19.625C19.3677 4.038 19.1056 3.83002 18.8574 3.6351C18.5655 3.40583 18.2513 3.15919 18.0527 2.96616C17.657 2.5812 17.6484 1.94804 18.0332 1.5521Z" fill="currentColor"/></svg>
