<svg xmlns="http://www.w3.org/2000/svg" viewBox="0 0 24 24" fill="none"><path d="M14.7524 4.28195C14.7524 4.05127 14.6715 3.8329 14.5211 3.65907C14.3829 3.49941 14.2161 3.41098 14.084 3.36045C13.8305 3.26356 13.5455 3.24634 13.3078 3.25026C12.8102 3.25846 12.1887 3.36971 11.588 3.52477C10.9797 3.6818 10.3455 3.89613 9.81435 4.13467C9.54921 4.25375 9.29602 4.38499 9.07973 4.52592C8.87728 4.65781 8.64652 4.83653 8.48979 5.06919C8.4834 5.07867 8.47723 5.0883 8.47128 5.09807C8.44152 5.14692 8.48137 5.20871 8.53822 5.20239C10.31 5.00519 12.1266 5.24364 13.7909 5.91706C14.0735 6.0314 14.2148 6.08857 14.3348 6.0304C14.4547 5.97222 14.4921 5.84337 14.567 5.58567C14.6881 5.16921 14.7524 4.7313 14.7524 4.28195Z" fill="currentColor"/><path d="M1.31748 11.77C4.40692 4.9759 13.8172 4.60792 17.5919 10.6655C17.8442 10.3739 18.1469 10.0658 18.4923 9.77492C19.3488 9.05363 20.5564 8.36183 22.0001 8.36183C22.3042 8.36183 22.5778 8.54546 22.6935 8.82667C22.809 9.10785 22.7435 9.4312 22.5274 9.64503C22.2388 9.93096 21.7384 10.7809 21.463 11.8364C21.1885 12.8886 21.1954 13.9246 21.6417 14.6607C21.7819 14.8922 21.7862 15.1816 21.6534 15.4175C21.5205 15.6533 21.2708 15.7993 21.0001 15.7993C20.4803 15.7993 19.9923 15.5592 19.6056 15.3052C19.2014 15.0397 18.8077 14.6914 18.4581 14.3433C18.1558 14.0422 17.8723 13.7266 17.627 13.438C16.6402 15.0456 15.2554 16.2093 13.6964 16.9243C14.3618 17.7417 14.75 18.777 14.7501 19.8814C14.7501 20.3756 14.3438 20.7494 13.879 20.7476C12.3891 20.741 11.2511 20.6124 10.3927 20.356C9.52437 20.0966 8.88795 19.6888 8.4874 19.0943C8.48109 19.0849 8.47472 19.0756 8.46884 19.0659L7.52646 17.5171C4.94449 16.9004 2.58983 15.189 1.31748 12.3911C1.22778 12.1939 1.22779 11.9673 1.31748 11.77ZM6.00302 10.7495C5.31533 10.7497 4.75791 11.3093 4.75791 11.9995C4.75791 12.6897 5.31533 13.2493 6.00302 13.2495H6.01279C6.70048 13.2493 7.25791 12.6897 7.25791 11.9995C7.25791 11.3093 6.70049 10.7497 6.01279 10.7495H6.00302Z" fill="currentColor" fill-rule="evenodd" clip-rule="evenodd"/></svg>
