<svg xmlns="http://www.w3.org/2000/svg" viewBox="0 0 24 24" fill="none"><path opacity="0.4" d="M6.5 10.25C7.19035 10.25 7.74999 10.8097 7.75 11.5V12.5C7.75 13.1904 7.19035 13.75 6.5 13.75H5.5C4.80965 13.75 4.25 13.1904 4.25 12.5V11.5C4.25 10.8096 4.80965 10.25 5.5 10.25H6.5ZM12.5 10.25C13.1903 10.25 13.75 10.8097 13.75 11.5V12.5C13.75 13.1904 13.1904 13.75 12.5 13.75H11.5C10.8096 13.75 10.25 13.1904 10.25 12.5V11.5C10.25 10.8096 10.8096 10.25 11.5 10.25H12.5ZM18.5 10.25C19.1903 10.25 19.75 10.8097 19.75 11.5V12.5C19.75 13.1904 19.1904 13.75 18.5 13.75H17.5C16.8096 13.75 16.25 13.1904 16.25 12.5V11.5C16.25 10.8096 16.8096 10.25 17.5 10.25H18.5Z" fill="currentColor"/></svg>
