<svg xmlns="http://www.w3.org/2000/svg" viewBox="0 0 24 24" fill="none"><path d="M19.5428 2.04301C19.9334 1.65249 20.5664 1.65249 20.9569 2.04301C21.3474 2.43354 21.3474 3.06655 20.9569 3.45708L3.45689 20.9571C3.06637 21.3476 2.43336 21.3476 2.04283 20.9571C1.65231 20.5666 1.65231 19.9335 2.04283 19.543L19.5428 2.04301Z" fill="currentColor"/><path opacity="0.4" d="M3.38369 3.38411C4.14146 2.62634 5.1894 2.65914 6.25966 2.91048C7.33817 3.16377 8.74414 3.71455 10.5126 4.40658L13.7802 5.68392L5.68447 13.7796L4.40615 10.513C3.71406 8.74443 3.16433 7.33768 2.91103 6.25911C2.65978 5.18909 2.62627 4.1418 3.38369 3.38411Z" fill="currentColor"/><path d="M16.6689 6.81445C18.3584 7.47551 19.6995 8.00081 20.6055 8.5C21.0652 8.75333 21.4741 9.03204 21.7676 9.36426C22.0783 9.71603 22.274 10.1466 22.2471 10.6523C22.2199 11.1601 21.9769 11.5683 21.6289 11.8848C21.3002 12.1837 20.862 12.4175 20.375 12.6211C19.4147 13.0226 18.0157 13.4038 16.252 13.8848C15.6974 14.036 15.2714 14.1532 14.9961 14.2578C14.7358 14.3568 14.6125 14.4402 14.5264 14.5264C14.4403 14.6125 14.3576 14.7361 14.2588 14.9961C14.1542 15.2713 14.0369 15.6968 13.8857 16.251C13.4047 18.015 13.0226 19.4147 12.6211 20.375C12.4175 20.8619 12.1846 21.3002 11.8857 21.6289C11.5693 21.9769 11.161 22.2199 10.6533 22.2471C10.1474 22.2741 9.71612 22.0775 9.36426 21.7666C9.03226 21.4732 8.75418 21.0649 8.50098 20.6055C8.00177 19.6996 7.4765 18.3584 6.81543 16.6689L6.67871 16.3203L16.3213 6.67773L16.6689 6.81445Z" fill="currentColor"/></svg>
