<svg xmlns="http://www.w3.org/2000/svg" viewBox="0 0 24 24" fill="none"><path d="M19.5426 2.04314C19.9332 1.65261 20.5662 1.65261 20.9567 2.04314C21.3472 2.43366 21.3472 3.06668 20.9567 3.4572L3.45671 20.9572C3.06619 21.3477 2.43317 21.3477 2.04265 20.9572C1.65212 20.5667 1.65212 19.9337 2.04265 19.5431L19.5426 2.04314Z" fill="currentColor"/><path d="M16.6687 6.8149C18.3581 7.47596 19.6992 8.00126 20.6052 8.50045C21.0649 8.75378 21.4738 9.03248 21.7673 9.36471C22.078 9.71648 22.2737 10.147 22.2468 10.6528C22.2197 11.1605 21.9766 11.5688 21.6286 11.8852C21.2999 12.1841 20.8617 12.4179 20.3747 12.6215C19.4144 13.023 18.0154 13.4042 16.2517 13.8852C15.6971 14.0365 15.2711 14.1536 14.9958 14.2583C14.7355 14.3572 14.6122 14.4406 14.5261 14.5268C14.44 14.613 14.3573 14.7365 14.2585 14.9965C14.1539 15.2718 14.0366 15.6972 13.8855 16.2514C13.4044 18.0154 13.0223 19.4151 12.6208 20.3754C12.4172 20.8624 12.1843 21.3007 11.8855 21.6294C11.569 21.9773 11.1607 22.2204 10.653 22.2475C10.1471 22.2745 9.71583 22.0779 9.36397 21.767C9.03197 21.4736 8.75389 21.0654 8.50069 20.6059C8.00149 19.7 7.47621 18.3588 6.81514 16.6694L6.67842 16.3208L16.321 6.67818L16.6687 6.8149Z" fill="currentColor"/><path d="M3.3835 3.38424C4.14128 2.62646 5.18921 2.65926 6.25948 2.9106C7.33798 3.16389 8.74395 3.71467 10.5124 4.4067L13.78 5.68404L5.68428 13.7797L4.40596 10.5131C3.71388 8.74455 3.16415 7.3378 2.91085 6.25924C2.6596 5.18921 2.62608 4.14192 3.3835 3.38424Z" fill="currentColor"/></svg>
