<svg xmlns="http://www.w3.org/2000/svg" viewBox="0 0 24 24" fill="none"><path d="M9.9502 20.75H11V15H1.28516C1.30738 15.5477 1.34329 16.0428 1.40332 16.4893C1.56096 17.6616 1.8933 18.6101 2.6416 19.3584C3.3899 20.1067 4.33847 20.439 5.51074 20.5967C6.65127 20.75 8.10946 20.75 9.9502 20.75Z" fill="currentColor"/><path d="M18.4893 20.5967C19.1088 20.5134 19.6651 20.3796 20.1631 20.1631L15 15H13V20.75H14.0498C15.8906 20.75 17.3487 20.75 18.4893 20.5967Z" fill="currentColor"/><path d="M1.25098 13H13L3.83594 3.83594C3.39175 4.02908 2.99434 4.28888 2.6416 4.6416C1.8933 5.38991 1.56096 6.33845 1.40332 7.51074C1.24998 8.65129 1.24999 10.1094 1.25 11.9502V11.9502V12.0498C1.25 12.3786 1.25011 12.6953 1.25098 13Z" fill="currentColor"/><path opacity="0.4" d="M22.5967 16.4893C22.6567 16.0428 22.6926 15.5477 22.7148 15H18.5352L22.0117 18.4766C22.3209 17.9021 22.4954 17.2421 22.5967 16.4893Z" fill="currentColor"/><path opacity="0.4" d="M18.4893 3.40332C17.3487 3.24998 15.8906 3.24999 14.0498 3.25H9.9502H9.93954C8.74728 3.24999 7.71565 3.24998 6.82715 3.29199L16.5352 13H22.749C22.7499 12.6953 22.75 12.3786 22.75 12.0498V11.9502C22.75 10.1094 22.75 8.65129 22.5967 7.51074C22.439 6.33847 22.1067 5.3899 21.3584 4.6416C20.6101 3.89332 19.6615 3.56097 18.4893 3.40332Z" fill="currentColor"/><path d="M1.54292 1.54289C1.93345 1.15237 2.56646 1.15237 2.95699 1.54289L22.457 21.0429C22.8475 21.4334 22.8475 22.0664 22.457 22.457C22.0665 22.8475 21.4334 22.8475 21.0429 22.457L1.54292 2.95696C1.1524 2.56643 1.1524 1.93342 1.54292 1.54289Z" fill="currentColor"/></svg>
