<svg xmlns="http://www.w3.org/2000/svg" viewBox="0 0 24 24" fill="none"><path d="M10.9995 20.75H9.94971C8.10897 20.75 6.65078 20.75 5.51025 20.5967C4.33798 20.439 3.38941 20.1067 2.64111 19.3584C1.89281 18.6101 1.56047 17.6616 1.40283 16.4893C1.34281 16.0428 1.3069 15.5477 1.28467 15H10.9995V20.75Z" fill="currentColor"/><path d="M20.1626 20.1631C19.6646 20.3796 19.1083 20.5134 18.4888 20.5967C17.3482 20.75 15.8901 20.75 14.0493 20.75H12.9995V15H14.9995L20.1626 20.1631Z" fill="currentColor"/><path d="M22.7144 15C22.6921 15.5477 22.6562 16.0428 22.5962 16.4893C22.495 17.2421 22.3205 17.9021 22.0112 18.4766L18.5347 15H22.7144Z" fill="currentColor"/><path d="M12.9995 13H1.25049C1.24962 12.6953 1.24951 12.3786 1.24951 12.0498V11.9502C1.2495 10.1094 1.24949 8.6513 1.40283 7.51074C1.56048 6.33845 1.89281 5.38991 2.64111 4.6416C2.99385 4.28888 3.39127 4.02908 3.83545 3.83594L12.9995 13Z" fill="currentColor"/><path d="M14.0493 3.25C15.8901 3.24999 17.3482 3.24998 18.4888 3.40332C19.661 3.56097 20.6096 3.89332 21.3579 4.6416C22.1062 5.3899 22.4386 6.33847 22.5962 7.51074C22.7495 8.65129 22.7495 10.1094 22.7495 11.9502V12.0498C22.7495 12.3786 22.7494 12.6953 22.7485 13H16.5347L6.82666 3.29199C7.71781 3.24986 8.75293 3.24999 9.94971 3.25H14.0493Z" fill="currentColor"/><path d="M1.54244 1.54289C1.93296 1.15237 2.56597 1.15237 2.9565 1.54289L22.4565 21.0429C22.847 21.4334 22.847 22.0664 22.4565 22.457C22.066 22.8475 21.433 22.8475 21.0424 22.457L1.54244 2.95696C1.15191 2.56643 1.15191 1.93342 1.54244 1.54289Z" fill="currentColor"/></svg>
