<svg xmlns="http://www.w3.org/2000/svg" viewBox="0 0 24 24" fill="none"><path d="M2.54289 2.54289C2.93342 2.15237 3.56658 2.15237 3.95711 2.54289L21.4571 20.0429C21.8476 20.4334 21.8476 21.0666 21.4571 21.4571C21.0666 21.8476 20.4334 21.8476 20.0429 21.4571L2.54289 3.95711C2.15237 3.56658 2.15237 2.93342 2.54289 2.54289Z" fill="currentColor"/><path opacity="0.4" d="M19.3916 4.36621C18.5267 4.24995 17.4275 4.24997 16.0645 4.25H7.78516L21.9004 18.3652C22.3267 17.8147 22.5311 17.1551 22.6338 16.3916C22.75 15.5267 22.75 14.4275 22.75 13.0645V10.9355C22.75 9.57249 22.75 8.47331 22.6338 7.6084C22.5128 6.70829 22.2533 5.95055 21.6514 5.34863C21.0494 4.74672 20.2917 4.48723 19.3916 4.36621Z" fill="currentColor"/><path d="M10.0674 9.70605C9.41486 10.2564 9 11.0796 9 12C9 13.6569 10.3431 15 12 15C12.9205 15 13.7427 14.5842 14.293 13.9316L19.9033 19.542C19.738 19.5779 19.5679 19.6101 19.3916 19.6338C18.5267 19.7501 17.4275 19.75 16.0645 19.75H7.93555C6.5725 19.75 5.4733 19.7501 4.6084 19.6338C3.76456 19.5203 3.04541 19.2856 2.46289 18.7607L2.34863 18.6514C1.74672 18.0495 1.48723 17.2917 1.36621 16.3916C1.24995 15.5267 1.24997 14.4275 1.25 13.0645V10.9355C1.24997 9.57249 1.24995 8.47331 1.36621 7.6084C1.48723 6.70829 1.74672 5.95055 2.34863 5.34863C2.95055 4.74672 3.70829 4.48723 4.6084 4.36621C4.64346 4.3615 4.67901 4.35785 4.71484 4.35352L10.0674 9.70605ZM5.25 11C4.69771 11 4.25 11.4477 4.25 12C4.25 12.5523 4.69772 13 5.25 13C5.80228 13 6.25 12.5523 6.25 12C6.25 11.4477 5.80228 11 5.25 11Z" fill="currentColor"/><path d="M18.75 11C19.3023 11 19.75 11.4477 19.75 12C19.75 12.5523 19.3023 13 18.75 13C18.1977 13 17.75 12.5523 17.75 12C17.75 11.4477 18.1977 11 18.75 11Z" fill="currentColor"/></svg>
