<svg xmlns="http://www.w3.org/2000/svg" viewBox="0 0 24 24" fill="none"><path d="M2.54289 2.54289C2.93342 2.15237 3.56658 2.15237 3.95711 2.54289L21.4571 20.0429C21.8476 20.4334 21.8476 21.0666 21.4571 21.4571C21.0666 21.8476 20.4334 21.8476 20.0429 21.4571L2.54289 3.95711C2.15237 3.56658 2.15237 2.93342 2.54289 2.54289Z" fill="currentColor"/><path d="M10.0674 9.70605C9.4149 10.2564 9 11.0796 9 12C9.00008 13.6568 10.3432 15 12 15C12.9204 15 13.7427 14.5842 14.293 13.9316L19.9033 19.542C19.7381 19.5778 19.5679 19.6101 19.3916 19.6338C18.5267 19.75 17.4275 19.75 16.0645 19.75H7.93555C6.5725 19.75 5.47331 19.75 4.6084 19.6338C3.7646 19.5203 3.0454 19.2855 2.46289 18.7607L2.34863 18.6514C1.74675 18.0495 1.48724 17.2916 1.36621 16.3916C1.24995 15.5267 1.24997 14.4274 1.25 13.0645V10.9355C1.24997 9.57257 1.24997 8.47329 1.36621 7.6084C1.48722 6.70833 1.74677 5.95054 2.34863 5.34863C2.95054 4.74672 3.7083 4.48723 4.6084 4.36621C4.64345 4.3615 4.67902 4.35785 4.71484 4.35352L10.0674 9.70605ZM16.0645 4.25C17.4275 4.24997 18.5267 4.24995 19.3916 4.36621C20.2917 4.48723 21.0495 4.74672 21.6514 5.34863C22.2532 5.95054 22.5128 6.70833 22.6338 7.6084C22.75 8.47329 22.75 9.57257 22.75 10.9355V13.0645C22.75 14.4274 22.75 15.5267 22.6338 16.3916C22.5311 17.1551 22.3267 17.8147 21.9004 18.3652L14.9404 11.4053C14.7031 10.2252 13.774 9.29554 12.5938 9.05859L7.78516 4.25H16.0645ZM5.25 11C4.69771 11 4.25 11.4477 4.25 12C4.25 12.5523 4.69772 13 5.25 13C5.80228 13 6.25 12.5523 6.25 12C6.25 11.4477 5.80228 11 5.25 11ZM18.75 11C18.1977 11 17.75 11.4477 17.75 12C17.75 12.5523 18.1977 13 18.75 13C19.3023 13 19.75 12.5523 19.75 12C19.75 11.4477 19.3023 11 18.75 11Z" fill="currentColor"/></svg>
