<svg xmlns="http://www.w3.org/2000/svg" viewBox="0 0 24 24" fill="none"><path opacity="0.4" d="M7.15637 11.0228C8.76145 11.0228 10.0626 9.7102 10.0626 8.091C10.0626 6.4718 8.76145 5.15918 7.15637 5.15918C5.55129 5.15918 4.25012 6.4718 4.25012 8.091C4.25012 9.7102 5.55129 11.0228 7.15637 11.0228Z" fill="currentColor"/><path d="M18.0968 10.332C18.3739 10.0526 18.7905 9.96886 19.1525 10.1201C19.5141 10.2714 19.75 10.6274 19.7501 11.0225V15.9092C19.7501 19.6873 16.714 22.75 12.9689 22.75C9.22372 22.75 6.18767 19.6873 6.18762 15.9092V10.8506C6.49102 10.9589 6.81617 11.0215 7.15637 11.0215C7.49657 11.0215 7.82172 10.9589 8.12512 10.8506V15.9092C8.12517 18.6078 10.2938 20.7959 12.9689 20.7959C15.644 20.7959 17.8126 18.6078 17.8126 15.9092V13.3818L17.5284 13.668C17.1501 14.0496 16.5376 14.0496 16.1593 13.668C15.781 13.2863 15.781 12.6678 16.1593 12.2861L18.0968 10.332Z" fill="currentColor"/><path d="M7.15637 1.25C7.6914 1.25 8.12512 1.68781 8.12512 2.22754V5.32812C7.82184 5.21986 7.49642 5.1582 7.15637 5.1582C6.81633 5.1582 6.4909 5.21986 6.18762 5.32812V2.22754C6.18762 1.68781 6.62135 1.25 7.15637 1.25Z" fill="currentColor"/></svg>
