<svg xmlns="http://www.w3.org/2000/svg" viewBox="0 0 24 24" fill="none"><path d="M5.11726 6.32506C5.74977 4.55831 8.25037 4.55832 8.88288 6.32506L12.9415 17.6629C13.1276 18.1829 12.8569 18.7552 12.337 18.9413C11.817 19.1274 11.2448 18.8567 11.0587 18.3368L7.00007 6.99888L2.94148 18.3368C2.75536 18.8567 2.18312 19.1274 1.66316 18.9413C1.14319 18.7552 0.872575 18.1829 1.05866 17.6629L5.11726 6.32506Z" fill="currentColor"/><path d="M10 13C10.5523 13 11 13.4477 11 14C11 14.5523 10.5523 15 10 15H4.00003C3.44775 15 3.00003 14.5523 3.00003 14C3.00003 13.4477 3.44775 13 4.00003 13H10Z" fill="currentColor"/><path opacity="0.4" d="M17.9999 6C18.5522 6 18.9999 6.44772 18.9999 7V15.0498C19.2102 14.8302 19.4269 14.5908 19.6405 14.3447C20.0595 13.8622 20.4491 13.3764 20.7352 13.0098C20.8777 12.8272 20.9933 12.6751 21.0731 12.5693C21.1131 12.5165 21.1443 12.475 21.1649 12.4473C21.1751 12.4336 21.1824 12.4228 21.1874 12.416C21.1898 12.4128 21.1921 12.4107 21.1933 12.4092L21.1942 12.4072C21.5216 11.9627 22.148 11.8673 22.5927 12.1943C23.0372 12.5217 23.1327 13.1481 22.8056 13.5928H22.8046V13.5947C22.8042 13.5953 22.8033 13.5958 22.8026 13.5967C22.8009 13.599 22.7979 13.6023 22.7948 13.6064C22.7886 13.6148 22.78 13.6271 22.7684 13.6426C22.7454 13.6735 22.7115 13.7179 22.6688 13.7744C22.5835 13.8874 22.4614 14.0481 22.3114 14.2402C22.0123 14.6236 21.5995 15.1379 21.1503 15.6553C20.7053 16.1678 20.2044 16.706 19.7313 17.124C19.496 17.3319 19.2444 17.5318 18.9911 17.6846C18.7651 17.8208 18.4101 18 17.9999 18C17.5897 18 17.2347 17.8208 17.0087 17.6846C16.7554 17.5318 16.5037 17.3319 16.2684 17.124C15.7954 16.706 15.2944 16.1677 14.8495 15.6553C14.4003 15.1379 13.9875 14.6235 13.6884 14.2402C13.5384 14.0481 13.4162 13.8873 13.3309 13.7744C13.2883 13.718 13.2544 13.6735 13.2313 13.6426C13.2199 13.6272 13.2111 13.6148 13.205 13.6064C13.202 13.6024 13.1998 13.5989 13.1981 13.5967C13.1973 13.5957 13.1957 13.5954 13.1952 13.5947V13.5928H13.1942C12.8672 13.1481 12.9627 12.5227 13.4071 12.1953C13.8518 11.8678 14.478 11.9626 14.8056 12.4072L14.8065 12.4092C14.8077 12.4107 14.81 12.4129 14.8124 12.416C14.8174 12.4228 14.8247 12.4336 14.8349 12.4473C14.8555 12.4749 14.8868 12.5165 14.9266 12.5693C15.0065 12.6751 15.1221 12.8272 15.2645 13.0098C15.5506 13.3764 15.9404 13.8622 16.3593 14.3447C16.5729 14.5908 16.7896 14.8302 16.9999 15.0498V7C16.9999 6.44776 17.4477 6.00008 17.9999 6Z" fill="currentColor" fill-rule="evenodd" clip-rule="evenodd"/></svg>
