<svg xmlns="http://www.w3.org/2000/svg" viewBox="0 0 24 24" fill="none"><path d="M5.1167 6.32506C5.74921 4.55831 8.24982 4.55832 8.88233 6.32506L12.9409 17.6629C13.127 18.1829 12.8564 18.7552 12.3364 18.9413C11.8165 19.1272 11.2442 18.8566 11.0581 18.3368L9.86377 14.9999H4.13526L2.94092 18.3368C2.75474 18.8566 2.18251 19.1273 1.6626 18.9413C1.14276 18.7551 0.872155 18.1828 1.05811 17.6629L5.1167 6.32506ZM17.9995 5.99986C18.5518 5.99986 18.9995 6.44758 18.9995 6.99986V15.0497C19.2099 14.8301 19.4265 14.5907 19.6401 14.3446C20.0591 13.8621 20.4488 13.3762 20.7349 13.0096C20.8773 12.8271 20.9929 12.6749 21.0728 12.5692C21.1127 12.5163 21.1439 12.4748 21.1646 12.4471C21.1748 12.4334 21.182 12.4227 21.187 12.4159C21.1894 12.4127 21.1917 12.4106 21.1929 12.409L21.1939 12.4071C21.5213 11.9626 22.1476 11.8671 22.5923 12.1942C23.0369 12.5216 23.1323 13.148 22.8052 13.5926H22.8042V13.5946C22.8038 13.5951 22.8029 13.5957 22.8022 13.5965C22.8006 13.5988 22.7975 13.6022 22.7944 13.6063C22.7883 13.6146 22.7796 13.627 22.7681 13.6424C22.745 13.6733 22.7111 13.7178 22.6685 13.7743C22.5832 13.8872 22.461 14.0479 22.311 14.2401C22.0119 14.6234 21.5991 15.1378 21.1499 15.6551C20.7049 16.1676 20.204 16.7059 19.731 17.1239C19.4957 17.3318 19.2441 17.5317 18.9907 17.6844C18.7647 17.8207 18.4098 17.9999 17.9995 17.9999C17.5893 17.9998 17.2343 17.8207 17.0083 17.6844C16.755 17.5317 16.5033 17.3318 16.2681 17.1239C15.795 16.7059 15.2941 16.1676 14.8491 15.6551C14.3999 15.1378 13.9871 14.6234 13.688 14.2401C13.538 14.048 13.4159 13.8872 13.3306 13.7743C13.2879 13.7178 13.254 13.6733 13.231 13.6424C13.2195 13.627 13.2107 13.6146 13.2046 13.6063C13.2016 13.6022 13.1994 13.5988 13.1978 13.5965C13.1969 13.5955 13.1953 13.5952 13.1948 13.5946V13.5926H13.1939C12.8668 13.148 12.9623 12.5226 13.4067 12.1952C13.8514 11.8677 14.4776 11.9625 14.8052 12.4071L14.8062 12.409C14.8073 12.4106 14.8097 12.4127 14.812 12.4159C14.817 12.4226 14.8243 12.4334 14.8345 12.4471C14.8551 12.4748 14.8864 12.5164 14.9263 12.5692C15.0061 12.6749 15.1217 12.8271 15.2642 13.0096C15.5503 13.3762 15.94 13.8621 16.3589 14.3446C16.5725 14.5906 16.7892 14.8301 16.9995 15.0497V6.99986C16.9995 6.44762 17.4473 5.99993 17.9995 5.99986ZM4.85108 12.9999H9.14795L6.99951 6.99888L4.85108 12.9999Z" fill="currentColor" fill-rule="evenodd" clip-rule="evenodd"/></svg>
