<svg xmlns="http://www.w3.org/2000/svg" viewBox="0 0 24 24" fill="none"><path opacity="0.4" d="M14.17 22.1006C16.8468 20.7234 21.75 17.3739 21.7501 11.2373V7.74805C21.7501 6.40064 21.7721 5.46059 21.1886 4.51855C20.6145 3.59166 19.9636 3.2822 19.0431 2.82422C17.0401 1.82765 14.6091 1.25 12.0001 1.25C9.39116 1.25 6.96011 1.82764 4.95714 2.82422C4.03666 3.2822 3.38574 3.59166 2.81163 4.51855C2.22814 5.46059 2.25011 6.40064 2.25011 7.74805V11.2373C2.25024 17.3739 7.15346 20.7234 9.83019 22.1006L9.86688 22.1195C10.5847 22.4889 11.092 22.75 12.0001 22.75C12.9082 22.75 13.4156 22.4889 14.1334 22.1195L14.17 22.1006Z" fill="currentColor"/><path d="M10.9962 14.5044V11.9995H8.50012C7.94784 11.9995 7.50012 11.5518 7.50012 10.9995C7.50039 10.4475 7.948 9.99951 8.50012 9.99951H10.9962V7.50439C10.9962 6.95211 11.4439 6.50439 11.9962 6.50439C12.5483 6.50465 12.9962 6.95227 12.9962 7.50439V9.99951L15.5001 10.0005C16.0524 10.0005 16.5001 10.4482 16.5001 11.0005C16.4999 11.5525 16.0522 12.0005 15.5001 12.0005L12.9962 11.9995V14.5044C12.9962 15.0565 12.5483 15.5041 11.9962 15.5044C11.4439 15.5044 10.9962 15.0567 10.9962 14.5044Z" fill="currentColor"/></svg>
