<svg xmlns="http://www.w3.org/2000/svg" viewBox="0 0 24 24" fill="none"><path opacity="0.4" d="M3.25 19.8182V14.9318C3.25 14.3921 3.68528 13.9545 4.22222 13.9545C4.75917 13.9545 5.19444 14.3921 5.19444 14.9318V17.0562C5.4988 16.948 5.82541 16.8864 6.16667 16.8864H7.13889C7.67583 16.8864 8.11111 17.3239 8.11111 17.8636C8.11111 18.4034 7.67583 18.8409 7.13889 18.8409H6.16667C5.62972 18.8409 5.19444 19.2785 5.19444 19.8182C5.19444 20.3579 5.62972 20.7955 6.16667 20.7955H7.13889C7.67583 20.7955 8.11111 21.233 8.11111 21.7727C8.11111 22.3125 7.67583 22.75 7.13889 22.75H6.16667C4.55584 22.75 3.25 21.4374 3.25 19.8182ZM12.9722 20.7955C13.5092 20.7955 13.9444 21.233 13.9444 21.7727C13.9444 22.3125 13.5092 22.75 12.9722 22.75H11.0278C10.4908 22.75 10.0556 22.3125 10.0556 21.7727C10.0556 21.233 10.4908 20.7955 11.0278 20.7955H12.9722ZM17.3472 19.8182C17.3472 19.4591 17.4082 19.1325 17.5001 18.8409H16.8611C16.3242 18.8409 15.8889 18.4034 15.8889 17.8636C15.8889 17.3239 16.3242 16.8864 16.8611 16.8864H18.8056V14.9318C18.8056 14.3921 19.2408 13.9545 19.7778 13.9545C20.3147 13.9545 20.75 14.3921 20.75 14.9318V17.8636C20.75 18.4034 20.3147 18.8409 19.7778 18.8409H19.6876C19.6572 18.877 19.6243 18.9162 19.5926 18.9602C19.4252 19.1927 19.2917 19.4844 19.2917 19.8182C19.2917 20.152 19.4252 20.4437 19.5926 20.6762C19.6243 20.7201 19.6572 20.7594 19.6876 20.7955H19.7778C20.3147 20.7955 20.75 21.233 20.75 21.7727C20.75 22.3125 20.3147 22.75 19.7778 22.75H16.8611C16.3242 22.75 15.8889 22.3125 15.8889 21.7727C15.8889 21.233 16.3242 20.7955 16.8611 20.7955H17.5001C17.4082 20.5039 17.3472 20.1772 17.3472 19.8182ZM12.9722 16.8864C13.5092 16.8864 13.9444 17.3239 13.9444 17.8636C13.9444 18.4034 13.5092 18.8409 12.9722 18.8409H11.0278C10.4908 18.8409 10.0556 18.4034 10.0556 17.8636C10.0556 17.3239 10.4908 16.8864 11.0278 16.8864H12.9722ZM3.25 11.0227V9.06818C3.25 8.52845 3.68528 8.09091 4.22222 8.09091C4.75917 8.09091 5.19444 8.52845 5.19444 9.06818V11.0227C5.19444 11.5625 4.75917 12 4.22222 12C3.68528 12 3.25 11.5625 3.25 11.0227ZM18.8056 11.0227V9.06818C18.8056 8.52845 19.2408 8.09091 19.7778 8.09091C20.3147 8.09091 20.75 8.52845 20.75 9.06818V11.0227C20.75 11.5625 20.3147 12 19.7778 12C19.2408 12 18.8056 11.5625 18.8056 11.0227ZM7.04395 1.32921C7.57822 1.2765 8.05381 1.66921 8.10636 2.20628C8.15877 2.74331 7.76811 3.22139 7.23383 3.27421C6.37122 3.35953 6.00479 3.53524 5.76411 3.77717C5.52343 4.0191 5.34863 4.38743 5.26375 5.25453C5.2112 5.79158 4.73559 6.18427 4.20133 6.13159C3.66704 6.07876 3.27637 5.60071 3.3288 5.06365C3.43043 4.02506 3.67747 3.1108 4.38932 2.39524C5.10118 1.67969 6.01072 1.43137 7.04395 1.32921ZM16.8754 1.25477C18.0131 1.27132 19.1167 1.32611 19.8955 2.10893C20.6743 2.89175 20.7288 4.00112 20.7453 5.14478C20.753 5.68445 20.3242 6.12856 19.7873 6.13636C19.2506 6.14398 18.8096 5.71288 18.8018 5.17341C18.7833 3.89392 18.6588 3.62964 18.5207 3.49086C18.3827 3.35207 18.1197 3.22687 16.8469 3.20836C16.3102 3.20046 15.8813 2.75719 15.8889 2.21773C15.8967 1.67805 16.3385 1.24696 16.8754 1.25477ZM12.9722 1.25C13.5092 1.25 13.9444 1.68754 13.9444 2.22727C13.9444 2.76701 13.5092 3.20455 12.9722 3.20455H11.0278C10.4908 3.20455 10.0556 2.76701 10.0556 2.22727C10.0556 1.68754 10.4908 1.25 11.0278 1.25H12.9722Z" fill="currentColor"/></svg>
