<svg xmlns="http://www.w3.org/2000/svg" viewBox="0 0 24 24" fill="none"><path d="M3.24951 19.8182V14.9318C3.24951 14.3921 3.68479 13.9545 4.22173 13.9545C4.75868 13.9545 5.19396 14.3921 5.19396 14.9318V17.0562C5.49832 16.948 5.82493 16.8864 6.16618 16.8864H7.1384C7.67534 16.8864 8.11062 17.3239 8.11062 17.8636C8.11062 18.4034 7.67534 18.8409 7.1384 18.8409H6.16618C5.62924 18.8409 5.19396 19.2785 5.19396 19.8182C5.19396 20.3579 5.62924 20.7955 6.16618 20.7955H7.1384C7.67534 20.7955 8.11062 21.233 8.11062 21.7727C8.11062 22.3125 7.67534 22.75 7.1384 22.75H6.16618C4.55535 22.75 3.24951 21.4374 3.24951 19.8182ZM12.9717 20.7955C13.5087 20.7955 13.944 21.233 13.944 21.7727C13.944 22.3125 13.5087 22.75 12.9717 22.75H11.0273C10.4903 22.75 10.0551 22.3125 10.0551 21.7727C10.0551 21.233 10.4903 20.7955 11.0273 20.7955H12.9717ZM17.3467 19.8182C17.3467 19.4591 17.4077 19.1325 17.4996 18.8409H16.8606C16.3237 18.8409 15.8884 18.4034 15.8884 17.8636C15.8884 17.3239 16.3237 16.8864 16.8606 16.8864H18.8051V14.9318C18.8051 14.3921 19.2403 13.9545 19.7773 13.9545C20.3142 13.9545 20.7495 14.3921 20.7495 14.9318V17.8636C20.7495 18.4034 20.3142 18.8409 19.7773 18.8409H19.6871C19.6567 18.877 19.6238 18.9162 19.5921 18.9602C19.4247 19.1927 19.2912 19.4844 19.2912 19.8182C19.2912 20.152 19.4247 20.4437 19.5921 20.6762C19.6238 20.7201 19.6567 20.7594 19.6871 20.7955H19.7773C20.3142 20.7955 20.7495 21.233 20.7495 21.7727C20.7495 22.3125 20.3142 22.75 19.7773 22.75H16.8606C16.3237 22.75 15.8884 22.3125 15.8884 21.7727C15.8884 21.233 16.3237 20.7955 16.8606 20.7955H17.4996C17.4077 20.5039 17.3467 20.1772 17.3467 19.8182ZM12.9717 16.8864C13.5087 16.8864 13.944 17.3239 13.944 17.8636C13.944 18.4034 13.5087 18.8409 12.9717 18.8409H11.0273C10.4903 18.8409 10.0551 18.4034 10.0551 17.8636C10.0551 17.3239 10.4903 16.8864 11.0273 16.8864H12.9717ZM3.24951 11.0227V9.06818C3.24951 8.52845 3.68479 8.09091 4.22173 8.09091C4.75868 8.09091 5.19396 8.52845 5.19396 9.06818V11.0227C5.19396 11.5625 4.75868 12 4.22173 12C3.68479 12 3.24951 11.5625 3.24951 11.0227ZM18.8051 11.0227V9.06818C18.8051 8.52845 19.2403 8.09091 19.7773 8.09091C20.3142 8.09091 20.7495 8.52845 20.7495 9.06818V11.0227C20.7495 11.5625 20.3142 12 19.7773 12C19.2403 12 18.8051 11.5625 18.8051 11.0227ZM7.04346 1.32921C7.57773 1.2765 8.05332 1.66921 8.10588 2.20628C8.15828 2.74331 7.76762 3.22139 7.23334 3.27421C6.37073 3.35953 6.0043 3.53524 5.76362 3.77717C5.52294 4.0191 5.34814 4.38743 5.26326 5.25453C5.21071 5.79158 4.7351 6.18427 4.20085 6.13159C3.66655 6.07876 3.27588 5.60071 3.32831 5.06365C3.42995 4.02506 3.67698 3.1108 4.38883 2.39524C5.10069 1.67969 6.01023 1.43137 7.04346 1.32921ZM16.8749 1.25477C18.0126 1.27132 19.1162 1.32611 19.895 2.10893C20.6738 2.89175 20.7283 4.00112 20.7448 5.14478C20.7525 5.68445 20.3237 6.12856 19.7868 6.13636C19.2501 6.14398 18.8091 5.71288 18.8013 5.17341C18.7829 3.89392 18.6583 3.62964 18.5202 3.49086C18.3822 3.35207 18.1193 3.22687 16.8464 3.20836C16.3097 3.20046 15.8808 2.75719 15.8884 2.21773C15.8962 1.67805 16.338 1.24696 16.8749 1.25477ZM12.9717 1.25C13.5087 1.25 13.944 1.68754 13.944 2.22727C13.944 2.76701 13.5087 3.20455 12.9717 3.20455H11.0273C10.4903 3.20455 10.0551 2.76701 10.0551 2.22727C10.0551 1.68754 10.4903 1.25 11.0273 1.25H12.9717Z" fill="currentColor"/></svg>
