<svg xmlns="http://www.w3.org/2000/svg" viewBox="0 0 24 24" fill="none"><path d="M13.083 2.25C14.4345 2.24998 15.5335 2.25 16.4209 2.35156C17.3465 2.45751 18.1439 2.68319 18.8515 3.20117C19.5591 3.71907 20.0078 4.40552 20.3769 5.24707C20.7308 6.05403 21.0472 7.08971 21.4355 8.36328L22.6338 12.293L22.7138 12.6084C22.722 12.6402 22.7262 12.6566 22.7285 12.6729C22.7307 12.689 22.7316 12.7056 22.7324 12.7383L22.75 13.4424C22.75 15.1246 22.7503 16.4573 22.6172 17.5068C22.4803 18.5855 22.1919 19.467 21.54 20.1865C21.4226 20.3161 21.2982 20.4397 21.167 20.5557C20.4381 21.1994 19.5447 21.483 18.4521 21.6182C17.3891 21.7496 16.0388 21.75 14.3349 21.75H9.66501C7.96114 21.75 6.61089 21.7496 5.54782 21.6182C4.45528 21.483 3.56179 21.1994 2.83298 20.5557C2.70173 20.4397 2.57734 20.3161 2.45993 20.1865C1.80806 19.467 1.51965 18.5855 1.38278 17.5068C1.2496 16.4572 1.24996 15.1239 1.24997 13.4414L1.26755 12.7383C1.26837 12.7052 1.26919 12.6882 1.27145 12.6719C1.27374 12.6557 1.27798 12.6392 1.2861 12.6074L1.36618 12.293L2.56442 8.36328C2.95276 7.08974 3.26819 6.05401 3.62204 5.24707C3.99107 4.40558 4.44007 3.71909 5.14743 3.20117C5.85513 2.68316 6.65342 2.45751 7.57907 2.35156C8.46638 2.25002 9.56549 2.24998 10.917 2.25H13.083ZM14 16C13.4477 16 13 16.4477 13 17C13 17.5523 13.4477 18 14 18C14.5523 18 15 17.5523 15 17C15 16.4477 14.5523 16 14 16ZM18 16C17.4477 16 17 16.4477 17 17C17 17.5523 17.4477 18 18 18C18.5522 18 19 17.5523 19 17C19 16.4477 18.5523 16 18 16ZM10.9756 4.17188C9.5509 4.17188 8.56587 4.17362 7.80466 4.26074C7.06891 4.34495 6.64588 4.49957 6.31442 4.74219C5.98306 4.98479 5.71128 5.33889 5.41794 6.00781C5.11439 6.70004 4.82925 7.62733 4.41989 8.96973L3.61325 11.6152C3.50671 11.9646 3.45392 12.1393 3.54391 12.2588C3.63397 12.3783 3.81871 12.3783 4.18845 12.3779L19.8066 12.3623C20.1757 12.3619 20.3603 12.3615 20.4502 12.2422C20.54 12.1227 20.4873 11.9478 20.3808 11.5986L19.5791 8.96973C19.1698 7.62747 18.8855 6.70002 18.582 6.00781C18.2886 5.33872 18.016 4.9848 17.6845 4.74219C17.3531 4.49957 16.9301 4.34495 16.1943 4.26074C15.4332 4.17365 14.4487 4.17188 13.0244 4.17188H10.9756Z" fill="currentColor"/></svg>
