<svg xmlns="http://www.w3.org/2000/svg" viewBox="0 0 24 24" fill="none"><path opacity="0.4" d="M12 22.75C17.9371 22.75 22.75 17.9371 22.75 12C22.75 6.06294 17.9371 1.25 12 1.25C6.06294 1.25 1.25 6.06294 1.25 12C1.25 17.9371 6.06294 22.75 12 22.75Z" fill="currentColor"/><path d="M16.3183 6.2725C16.7201 6.17219 17.1271 6.41663 17.2275 6.8184C17.3278 7.22017 17.0834 7.62714 16.6816 7.72758C16.4372 7.78873 16.0716 7.96014 15.6758 8.2686C16.3034 8.43175 16.9747 8.79492 17.5771 9.52055C17.8416 9.83919 17.798 10.3126 17.4795 10.5772C17.1608 10.8417 16.6874 10.798 16.4228 10.4795C15.6294 9.52366 14.7049 9.59675 14.1816 9.72758C13.8811 9.80262 13.5651 9.6849 13.3867 9.43168C13.2085 9.17845 13.2042 8.84172 13.376 8.58403C14.2631 7.25332 15.444 6.4911 16.3183 6.2725Z" fill="currentColor"/><path d="M15.4003 14.5497C15.649 14.2185 16.1189 14.1516 16.4501 14.4003C16.7812 14.649 16.8481 15.1189 16.5995 15.4501C15.5518 16.845 13.8814 17.7499 11.9999 17.7499C10.1183 17.7499 8.44793 16.845 7.40026 15.4501C7.15159 15.1189 7.2185 14.649 7.54967 14.4003C7.88087 14.1516 8.35075 14.2185 8.59948 14.5497C9.37606 15.5836 10.6101 16.2499 11.9999 16.2499C13.3896 16.2499 14.6237 15.5836 15.4003 14.5497Z" fill="currentColor"/><path d="M8.375 7.25C8.91521 7.25 9.20261 7.66818 9.31055 7.88379C9.4407 8.1441 9.5 8.4517 9.5 8.75C9.5 9.04829 9.4407 9.3559 9.31055 9.61621C9.20261 9.83182 8.91522 10.25 8.375 10.25C7.83479 10.25 7.54739 9.83182 7.43945 9.61621C7.3093 9.3559 7.25 9.04829 7.25 8.75C7.25 8.45171 7.3093 8.1441 7.43945 7.88379C7.54739 7.66817 7.83479 7.25 8.375 7.25Z" fill="currentColor"/></svg>
