<svg xmlns="http://www.w3.org/2000/svg" viewBox="0 0 24 24" fill="none"><path d="M12 22.75C17.9371 22.75 22.75 17.9371 22.75 12C22.75 6.06294 17.9371 1.25 12 1.25C6.06294 1.25 1.25 6.06294 1.25 12C1.25 17.9371 6.06294 22.75 12 22.75ZM17.4795 10.5771C17.1609 10.8416 16.6875 10.798 16.4229 10.4795C15.6294 9.52365 14.705 9.59671 14.1816 9.72754C13.8811 9.80257 13.5652 9.68486 13.3867 9.43164C13.2085 9.1784 13.2042 8.84167 13.376 8.58398C14.2631 7.2533 15.444 6.49105 16.3184 6.27246C16.7201 6.17218 17.1271 6.41662 17.2275 6.81836C17.3278 7.22012 17.0834 7.62708 16.6816 7.72754C16.4372 7.78869 16.0716 7.96012 15.6758 8.26855C16.3034 8.43171 16.9747 8.79489 17.5771 9.52051C17.8416 9.83913 17.798 10.3125 17.4795 10.5771ZM8.375 10.25C7.83479 10.25 7.54739 9.83182 7.43945 9.61621C7.3093 9.3559 7.25 9.04829 7.25 8.75C7.25 8.45171 7.3093 8.1441 7.43945 7.88379C7.54739 7.66817 7.83479 7.25 8.375 7.25C8.91521 7.25 9.20261 7.66818 9.31055 7.88379C9.4407 8.1441 9.5 8.4517 9.5 8.75C9.5 9.04829 9.4407 9.3559 9.31055 9.61621C9.20261 9.83182 8.91522 10.25 8.375 10.25ZM12 17.75C10.1185 17.75 8.44807 16.845 7.40039 15.4502C7.15172 15.119 7.21863 14.6491 7.5498 14.4004C7.881 14.1517 8.35089 14.2186 8.59961 14.5498C9.37619 15.5836 10.6103 16.25 12 16.25C13.3897 16.25 14.6238 15.5837 15.4004 14.5498C15.6491 14.2186 16.119 14.1517 16.4502 14.4004C16.7812 14.6491 16.8482 15.119 16.5996 15.4502C15.552 16.8451 13.8815 17.75 12 17.75Z" fill="currentColor"/></svg>
