<svg xmlns="http://www.w3.org/2000/svg" viewBox="0 0 24 24" fill="none"><path opacity="0.4" d="M2.30975 15.5469C2.2437 15.7934 2.25017 16.0715 2.25018 16.3331V19.667C2.25017 19.9287 2.2437 20.2067 2.30975 20.4532C2.47159 21.057 2.94327 21.5286 3.54705 21.6905C3.79353 21.7565 4.07157 21.7501 4.33318 21.7501C4.90488 21.7501 5.33834 21.7564 5.71209 21.6563C6.66096 21.402 7.40211 20.6608 7.65643 19.712C7.75657 19.3382 7.75018 18.9048 7.75018 18.3331V17.667C7.75018 17.0954 7.75657 16.6619 7.65643 16.2881C7.40211 15.3393 6.66096 14.5981 5.71209 14.3438C5.33834 14.2437 4.90488 14.2501 4.33318 14.2501C4.07157 14.25 3.79353 14.2436 3.54705 14.3096C2.94327 14.4715 2.47159 14.9432 2.30975 15.5469Z" fill="currentColor"/><path opacity="0.4" d="M19.3411 12.7499C20.6716 12.7498 21.7501 11.6712 21.7502 10.3407C21.7502 10.0145 21.6844 9.69132 21.5559 9.39148L19.7288 5.12878L19.7102 5.08547C19.4727 4.53131 19.2713 4.06131 19.0637 3.69226C18.8418 3.29782 18.5812 2.9583 18.1956 2.70398C17.8099 2.44965 17.3946 2.34436 16.9446 2.29578C16.519 2.24986 16.0013 2.24987 15.3899 2.24988H15.3625H12.6379H12.6106C11.9992 2.24987 11.4814 2.24986 11.0559 2.29578C10.6059 2.34436 10.1906 2.44966 9.80493 2.70398C9.41931 2.9583 9.15867 3.29782 8.93677 3.69226C8.72377 4.07088 8.5173 4.55578 8.27173 5.12878L6.44458 9.39148C6.31612 9.69132 6.25024 10.0145 6.25024 10.3407C6.25036 11.6712 7.32892 12.7498 8.65942 12.7499H19.3411Z" fill="currentColor"/><path d="M14.9991 12.7499C14.9961 13.8027 14.9793 14.6934 14.881 15.4247C14.7562 16.3525 14.4843 17.1719 13.8282 17.828C13.1722 18.484 12.3527 18.756 11.4249 18.8807C10.5259 19.0016 9.38584 18.9999 8.00012 18.9999H7.74329C7.74605 18.9158 7.74943 18.8285 7.75012 18.7372V17.2626C7.74943 17.1713 7.74605 17.0839 7.74329 16.9999H8.00012C9.44219 16.9999 10.4236 16.998 11.1583 16.8993C11.8642 16.8044 12.1916 16.6365 12.4142 16.4139C12.6368 16.1914 12.8046 15.8641 12.8995 15.1581C12.9801 14.5584 12.995 13.7945 12.9982 12.7499H14.9991Z" fill="currentColor"/><path d="M20.8516 7.74988H7.1485L7.79108 6.24988H20.209L20.8516 7.74988Z" fill="currentColor"/></svg>
