<svg xmlns="http://www.w3.org/2000/svg" viewBox="0 0 24 24" fill="none"><path d="M21.5559 9.39099C21.6844 9.69083 21.7503 10.014 21.7503 10.3402C21.7501 11.6707 20.6716 12.7493 19.3411 12.7494H14.9993C14.9963 13.8022 14.9794 14.6929 14.8811 15.4242C14.7564 16.352 14.4845 17.1714 13.8284 17.8275C13.1723 18.4835 12.3528 18.7555 11.4251 18.8802C10.5261 19.0011 9.38598 18.9994 8.00027 18.9994H7.74343C7.73467 19.2658 7.71359 19.4983 7.65652 19.7113C7.40221 20.6602 6.66105 21.4013 5.71218 21.6556C5.33846 21.7558 4.90491 21.7494 4.33328 21.7494C4.07172 21.7494 3.79357 21.7558 3.54714 21.6898C2.94346 21.5279 2.47166 21.0562 2.30984 20.4525C2.24385 20.2061 2.25026 19.9279 2.25027 19.6664V16.3324C2.25026 16.0708 2.24381 15.7927 2.30984 15.5463C2.4717 14.9426 2.94346 14.4708 3.54714 14.309C3.79357 14.2429 4.07172 14.2494 4.33328 14.2494C4.90486 14.2494 5.33848 14.2431 5.71218 14.3431C6.66098 14.5974 7.40215 15.3387 7.65652 16.2875C7.71359 16.5005 7.73466 16.7331 7.74343 16.9994H8.00027C9.44233 16.9994 10.4237 16.9975 11.1585 16.8988C11.8644 16.8039 12.1918 16.636 12.4143 16.4135C12.6369 16.1909 12.8048 15.8636 12.8997 15.1576C12.9803 14.5579 12.9951 13.794 12.9983 12.7494H8.65945C7.32906 12.7491 6.25038 11.6706 6.25027 10.3402C6.25027 10.014 6.31617 9.69081 6.4446 9.39099L7.14871 7.74939H20.8518L21.5559 9.39099ZM15.3899 2.24939C16.0012 2.24938 16.5191 2.2494 16.9446 2.29529C17.3946 2.34387 17.8099 2.44925 18.1956 2.70349C18.5812 2.95778 18.8419 3.29737 19.0637 3.69177C19.2714 4.06082 19.4728 4.53117 19.7102 5.08533L19.7288 5.1283L20.2093 6.24939H7.79128L8.27175 5.1283C8.5173 4.55534 8.72381 4.07038 8.93679 3.69177C9.15866 3.29739 9.41943 2.95779 9.80496 2.70349C10.1906 2.44921 10.606 2.34389 11.0559 2.29529C11.4814 2.24938 11.9994 2.24938 12.6106 2.24939H15.3899Z" fill="currentColor" fill-rule="evenodd" clip-rule="evenodd"/></svg>
