<svg xmlns="http://www.w3.org/2000/svg" viewBox="0 0 24 24" fill="none"><path d="M11.0577 1.25C12.6593 1.24998 13.9379 1.24996 14.9405 1.38477C14.9912 1.39158 15.0411 1.40062 15.0909 1.4082C14.9209 2.10102 14.3524 2.80682 13.7608 2.97852L13.5743 3.02539C11.46 3.5015 11.4756 6.54581 13.6202 6.98535C14.3215 7.12884 14.8703 7.67857 15.0137 8.37988C15.4079 10.3038 17.8975 10.5122 18.7501 9.00879V15.0576C18.7501 16.6592 18.7501 17.9378 18.6153 18.9404C18.476 19.9767 18.1801 20.8298 17.505 21.5049C16.8298 22.18 15.9767 22.4759 14.9405 22.6152C13.9379 22.75 12.6593 22.75 11.0577 22.75H10.9425C9.34086 22.75 8.06228 22.75 7.05964 22.6152C6.02339 22.4759 5.17032 22.18 4.49519 21.5049C3.82005 20.8298 3.52416 19.9767 3.38483 18.9404C3.25003 17.9378 3.25005 16.6592 3.25007 15.0576V8.94238C3.25005 7.34078 3.25003 6.06221 3.38483 5.05957C3.52416 4.02332 3.82005 3.17025 4.49519 2.49512C5.17032 1.81998 6.02339 1.52409 7.05964 1.38477C8.06228 1.24996 9.34085 1.24998 10.9425 1.25H11.0577ZM11.0001 18C10.4478 18 10.0001 18.4477 10.0001 19C10.0001 19.5523 10.4478 20 11.0001 20C11.5524 20 12.0001 19.5523 12.0001 19C12.0001 18.4477 11.5524 18 11.0001 18Z" fill="currentColor"/><path d="M17.7178 1.72559C17.4656 1.09156 16.5345 1.09155 16.2823 1.72559L16.2393 1.87109C16.0109 2.98878 15.1775 3.87803 14.0919 4.18555L13.8712 4.23926C13.0431 4.40875 13.0431 5.59124 13.8712 5.76074C15.0634 6.00442 15.9957 6.9367 16.2393 8.12891C16.4088 8.95694 17.5913 8.95694 17.7608 8.12891C18.0045 6.9367 18.9368 6.00442 20.129 5.76074C20.957 5.59125 20.957 4.40876 20.129 4.23926C19.0113 4.01081 18.122 3.17738 17.8145 2.0918L17.7608 1.87109L17.7178 1.72559Z" fill="currentColor"/></svg>
