<svg xmlns="http://www.w3.org/2000/svg" viewBox="0 0 24 24" fill="none"><path opacity="0.4" d="M12 22.75C17.9371 22.75 22.75 17.9371 22.75 12C22.75 6.06294 17.9371 1.25 12 1.25C6.06294 1.25 1.25 6.06294 1.25 12C1.25 17.9371 6.06294 22.75 12 22.75Z" fill="currentColor"/><path d="M11 16V12C11 11.4477 11.4477 11 12 11C12.5523 11 13 11.4477 13 12V16C13 16.5523 12.5523 17 12 17C11.4477 17 11 16.5523 11 16Z" fill="currentColor"/><path d="M12 7.25C12.5523 7.25 13 7.69771 13 8.25C13 8.80228 12.5523 9.25 12 9.25C11.4477 9.25 11 8.80228 11 8.25C11 7.69772 11.4477 7.25 12 7.25Z" fill="currentColor"/></svg>
