<svg xmlns="http://www.w3.org/2000/svg" viewBox="0 0 24 24" fill="none"><path d="M12 1.25C17.9371 1.25 22.75 6.06294 22.75 12C22.75 17.9371 17.9371 22.75 12 22.75C6.06294 22.75 1.25 17.9371 1.25 12C1.25 6.06294 6.06294 1.25 12 1.25ZM12 11C11.4477 11 11 11.4477 11 12V16C11 16.5523 11.4477 17 12 17C12.5523 17 13 16.5523 13 16V12C13 11.4477 12.5523 11 12 11ZM12 7.25C11.4477 7.25 11 7.69772 11 8.25C11 8.80228 11.4477 9.25 12 9.25C12.5523 9.25 13 8.80228 13 8.25C13 7.69771 12.5523 7.25 12 7.25Z" fill="currentColor"/></svg>
