<svg xmlns="http://www.w3.org/2000/svg" viewBox="0 0 24 24" fill="none"><path opacity="0.4" d="M12 22.75C17.9371 22.75 22.75 17.9371 22.75 12C22.75 6.06294 17.9371 1.25 12 1.25C6.06294 1.25 1.25 6.06294 1.25 12C1.25 17.9371 6.06294 22.75 12 22.75Z" fill="currentColor"/><path d="M8.9997 11.25C9.60198 11.25 10.1695 11.5299 10.5769 12.0215C10.841 12.3404 10.797 12.8129 10.4782 13.0771C10.1593 13.3413 9.68684 13.2973 9.42256 12.9785C9.27762 12.8036 9.12119 12.75 8.9997 12.75C8.87822 12.75 8.72179 12.8036 8.57685 12.9785C8.16952 13.4701 7.60198 13.75 6.9997 13.75C6.39743 13.75 5.82989 13.4701 5.42256 12.9785C5.15837 12.6596 5.20242 12.1871 5.52119 11.9229C5.84009 11.6587 6.31257 11.7027 6.57685 12.0215C6.72179 12.1964 6.87822 12.25 6.9997 12.25C7.12119 12.25 7.27762 12.1964 7.42256 12.0215C7.82989 11.5299 8.39743 11.25 8.9997 11.25Z" fill="currentColor"/><path d="M13.3874 14.7267C13.5385 14.341 13.9734 14.1508 14.359 14.3019C14.7447 14.453 14.9348 14.8879 14.7838 15.2735C14.7256 15.4223 14.7518 15.5188 14.7868 15.5763C14.8245 15.6381 14.9182 15.7276 15.1188 15.7599C15.6984 15.8531 16.1997 16.1626 16.4928 16.6437C16.7886 17.1291 16.829 17.7196 16.612 18.2735C16.4609 18.6592 16.026 18.8494 15.6403 18.6984C15.2547 18.5473 15.0645 18.1123 15.2155 17.7267C15.2738 17.578 15.2475 17.4814 15.2126 17.4239C15.1749 17.3621 15.0812 17.2726 14.8805 17.2403C14.3009 17.1471 13.7997 16.8376 13.5065 16.3566C13.2107 15.8712 13.1704 15.2806 13.3874 14.7267Z" fill="currentColor"/><path d="M16.25 8C16.25 7.30964 15.6904 6.75 15 6.75C14.3096 6.75 13.75 7.30964 13.75 8C13.75 8.69036 14.3096 9.25 15 9.25C15.6904 9.25 16.25 8.69036 16.25 8ZM17.75 8C17.75 9.51878 16.5188 10.75 15 10.75C13.4812 10.75 12.25 9.51878 12.25 8C12.25 6.48122 13.4812 5.25 15 5.25C16.5188 5.25 17.75 6.48122 17.75 8Z" fill="currentColor"/><path d="M9 16C9.55228 16 10 16.4477 10 17C10 17.5523 9.55228 18 9 18C8.44772 18 8 17.5523 8 17C8 16.4477 8.44771 16 9 16Z" fill="currentColor"/><path d="M19 12C19.5523 12 20 12.4477 20 13C20 13.5523 19.5523 14 19 14C18.4477 14 18 13.5523 18 13C18 12.4477 18.4477 12 19 12Z" fill="currentColor"/><path d="M8 7C8.55228 7 9 7.44772 9 8C9 8.55229 8.55228 9 8 9C7.44772 9 7 8.55228 7 8C7 7.44772 7.44771 7 8 7Z" fill="currentColor"/></svg>
