<svg xmlns="http://www.w3.org/2000/svg" viewBox="0 0 24 24" fill="none"><path d="M12 1.25C17.9371 1.25 22.75 6.06294 22.75 12C22.75 17.9371 17.9371 22.75 12 22.75C6.06294 22.75 1.25 17.9371 1.25 12C1.25 6.06294 6.06294 1.25 12 1.25ZM14.3594 14.3018C13.9738 14.1507 13.5389 14.341 13.3877 14.7266C13.1707 15.2805 13.2111 15.871 13.5068 16.3564C13.8 16.8374 14.3013 17.147 14.8809 17.2402C15.0813 17.2726 15.1752 17.362 15.2129 17.4238C15.2478 17.4813 15.274 17.578 15.2158 17.7266C15.0648 18.1122 15.255 18.5472 15.6406 18.6982C16.0262 18.8492 16.4612 18.659 16.6123 18.2734C16.8292 17.7196 16.7888 17.1289 16.4932 16.6436C16.2 16.1626 15.6986 15.8531 15.1191 15.7598C14.9186 15.7275 14.8248 15.638 14.7871 15.5762C14.7522 15.5187 14.7259 15.4222 14.7842 15.2734C14.935 14.8879 14.7448 14.4529 14.3594 14.3018ZM9 16C8.44771 16 8 16.4477 8 17C8 17.5523 8.44772 18 9 18C9.55228 18 10 17.5523 10 17C10 16.4477 9.55228 16 9 16ZM19 12C18.4477 12 18 12.4477 18 13C18 13.5523 18.4477 14 19 14C19.5523 14 20 13.5523 20 13C20 12.4477 19.5523 12 19 12ZM9 11.25C8.39778 11.25 7.83018 11.53 7.42285 12.0215C7.27803 12.1963 7.12145 12.2499 7 12.25C6.87855 12.25 6.72205 12.1963 6.57715 12.0215C6.31291 11.7028 5.84038 11.6588 5.52148 11.9229C5.20272 12.1871 5.15867 12.6596 5.42285 12.9785C5.83018 13.47 6.39778 13.75 7 13.75C7.60217 13.7499 8.16988 13.47 8.57715 12.9785C8.72205 12.8037 8.87855 12.75 9 12.75C9.12145 12.7501 9.27803 12.8037 9.42285 12.9785C9.68716 13.2971 10.1597 13.3413 10.4785 13.0771C10.7971 12.8129 10.8412 12.3403 10.5771 12.0215C10.1699 11.53 9.60217 11.2501 9 11.25ZM15 5.25C13.4812 5.25 12.25 6.48122 12.25 8C12.25 9.51878 13.4812 10.75 15 10.75C16.5188 10.75 17.75 9.51878 17.75 8C17.75 6.48122 16.5188 5.25 15 5.25ZM15 6.75C15.6904 6.75 16.25 7.30964 16.25 8C16.25 8.69036 15.6904 9.25 15 9.25C14.3096 9.25 13.75 8.69036 13.75 8C13.75 7.30964 14.3096 6.75 15 6.75ZM8 7C7.44771 7 7 7.44772 7 8C7 8.55228 7.44772 9 8 9C8.55228 9 9 8.55229 9 8C9 7.44772 8.55228 7 8 7Z" fill="currentColor"/></svg>
