<svg xmlns="http://www.w3.org/2000/svg" viewBox="0 0 24 24" fill="none"><path opacity="0.4" d="M11.9487 1.75C14.0202 1.74999 15.7462 1.74998 17.0242 1.90522C18.3302 2.06386 19.3754 2.39411 20.2343 3.12767C20.4634 3.32329 20.6767 3.53662 20.8723 3.76567C21.6059 4.62456 21.9361 5.66982 22.0948 6.97578C22.25 8.25376 22.25 9.97982 22.25 12.0513C22.25 14.1227 22.25 15.7462 22.0948 17.0242C21.9361 18.3302 21.6059 19.3754 20.8723 20.2343C20.6767 20.4634 20.4634 20.6767 20.2343 20.8723C19.3754 21.6059 18.3302 21.9361 17.0242 22.0948C15.7462 22.25 14.0202 22.25 11.9487 22.25C9.87731 22.25 8.25376 22.25 6.97578 22.0948C5.66982 21.9361 4.62456 21.6059 3.76567 20.8723C3.53662 20.6767 3.32329 20.4634 3.12767 20.2343C2.39411 19.3754 2.06386 18.3302 1.90522 17.0242C1.74998 15.7463 1.74999 14.211 1.75 12.1396V12.1396C1.74999 10.0681 1.74998 8.44458 1.90522 7.16661C2.06386 5.86064 2.39411 4.62456 3.12767 3.76567C3.3233 3.53662 3.53662 3.3233 3.76567 3.12767C4.62456 2.39411 5.66982 2.06386 6.97578 1.90522C8.25376 1.74998 9.87731 1.74999 11.9487 1.75Z" fill="currentColor"/><path d="M15.0498 8.25C15.7145 8.24997 16.2874 8.24986 16.7461 8.31153C17.2376 8.37764 17.7086 8.527 18.0908 8.90918C18.473 9.29137 18.6224 9.76236 18.6885 10.2539C18.7502 10.7127 18.75 11.3849 18.75 12.0498C18.75 12.7145 18.7501 13.2874 18.6885 13.7461C18.6224 14.2376 18.473 14.7086 18.0908 15.0908C17.7086 15.473 17.2376 15.6224 16.7461 15.6885C16.2874 15.7501 15.7145 15.75 15.0498 15.75H8.9502C8.28552 15.75 7.71255 15.7501 7.25391 15.6885C6.76236 15.6224 6.29137 15.473 5.90918 15.0908C5.527 14.7086 5.37764 14.2376 5.31153 13.7461C5.24986 13.2874 5.24997 12.7145 5.25 12.0498C5.24997 11.3849 5.24985 10.7127 5.31153 10.2539C5.37764 9.76236 5.527 9.29137 5.90918 8.90918C6.29137 8.527 6.76236 8.37764 7.25391 8.31153C7.71255 8.24986 8.28552 8.24997 8.9502 8.25H15.0498ZM9.5 11C8.94772 11 8.5 11.4477 8.5 12C8.5 12.5523 8.94772 13 9.5 13H9.50879C10.0611 13 10.5088 12.5523 10.5088 12C10.5088 11.4477 10.0611 11 9.50879 11H9.5ZM14.4912 11C13.9389 11 13.4912 11.4477 13.4912 12C13.4912 12.5523 13.9389 13 14.4912 13H14.5C15.0523 13 15.5 12.5523 15.5 12C15.5 11.4477 15.0523 11 14.5 11H14.4912Z" fill="currentColor" fill-rule="evenodd" clip-rule="evenodd"/></svg>
