<svg xmlns="http://www.w3.org/2000/svg" viewBox="0 0 24 24" fill="none"><path d="M11.9492 1.75C14.0204 1.74999 15.7465 1.75005 17.0244 1.90527C18.3303 2.06392 19.3755 2.39441 20.2344 3.12793C20.4633 3.32348 20.6765 3.53668 20.8721 3.76562C21.6056 4.62447 21.9361 5.66971 22.0947 6.97559C22.25 8.25346 22.25 9.97956 22.25 12.0508C22.25 14.1222 22.25 15.7464 22.0947 17.0244C21.9361 18.3303 21.6056 19.3755 20.8721 20.2344C20.6765 20.4633 20.4633 20.6765 20.2344 20.8721C19.3755 21.6056 18.3303 21.9361 17.0244 22.0947C15.7465 22.25 14.0204 22.25 11.9492 22.25C9.87778 22.25 8.25356 22.25 6.97559 22.0947C5.66971 21.9361 4.62447 21.6056 3.76562 20.8721C3.53668 20.6765 3.32348 20.4633 3.12793 20.2344C2.39441 19.3755 2.06392 18.3303 1.90527 17.0244C1.75004 15.7465 1.74999 14.211 1.75 12.1396C1.74999 10.0684 1.75008 8.44491 1.90527 7.16699C2.06391 5.86102 2.39437 4.62451 3.12793 3.76562C3.32348 3.53669 3.53669 3.32348 3.76562 3.12793C4.62447 2.39441 5.66971 2.06392 6.97559 1.90527C8.25356 1.75004 9.87778 1.74999 11.9492 1.75ZM8.9502 8.25C8.28552 8.24996 7.71255 8.24986 7.25391 8.31152C6.76235 8.37764 6.29136 8.52699 5.90918 8.90918C5.52699 9.29136 5.37764 9.76235 5.31152 10.2539C5.24985 10.7127 5.24996 11.3849 5.25 12.0498C5.24996 12.7145 5.24986 13.2874 5.31152 13.7461C5.37764 14.2376 5.527 14.7086 5.90918 15.0908C6.29136 15.473 6.76236 15.6224 7.25391 15.6885C7.71255 15.7501 8.28552 15.75 8.9502 15.75H15.0498C15.7145 15.75 16.2874 15.7501 16.7461 15.6885C17.2376 15.6224 17.7086 15.473 18.0908 15.0908C18.473 14.7086 18.6224 14.2376 18.6885 13.7461C18.7501 13.2874 18.75 12.7145 18.75 12.0498C18.75 11.3849 18.7502 10.7127 18.6885 10.2539C18.6224 9.76235 18.473 9.29136 18.0908 8.90918C17.7086 8.527 17.2376 8.37764 16.7461 8.31152C16.2874 8.24986 15.7145 8.24996 15.0498 8.25H8.9502Z" fill="currentColor"/><path d="M8.5 12C8.5 11.4477 8.94772 11 9.5 11H9.50897C10.0613 11 10.509 11.4477 10.509 12C10.509 12.5523 10.0613 13 9.50897 13H9.5C8.94772 13 8.5 12.5523 8.5 12ZM13.4912 12C13.4912 11.4477 13.9389 11 14.4912 11H14.5002C15.0525 11 15.5002 11.4477 15.5002 12C15.5002 12.5523 15.0525 13 14.5002 13H14.4912C13.9389 13 13.4912 12.5523 13.4912 12Z" fill="currentColor" fill-rule="evenodd" clip-rule="evenodd"/></svg>
