<svg xmlns="http://www.w3.org/2000/svg" fill="none" viewBox="0 0 48 48">
  <g>
    <path stroke="currentColor" stroke-linejoin="round" d="M26.4528 16.4344c-0.0555 -1.059 -0.54 -2.1178 -1.5766 -2.3419C24.6149 14.036 24.3221 14 24 14c-0.3221 0 -0.6149 0.036 -0.8762 0.0925 -1.0365 0.2241 -1.5211 1.2829 -1.5765 2.3419l-0.4388 8.3842c-0.3082 -0.18 -0.6344 -0.3695 -0.9793 -0.5686 -1.5017 -0.8671 -2.6696 -1.5193 -3.5303 -1.9899 -1.153 -0.6302 -2.5299 -0.4528 -3.2107 0.6711 -0.0453 0.0749 -0.0914 0.1528 -0.1382 0.2338 -0.0467 0.081 -0.0912 0.1599 -0.1333 0.2366 -0.633 1.1515 -0.0982 2.4327 1.0241 3.116 0.8379 0.5102 1.9867 1.1955 3.4884 2.0625 1.3113 0.7571 2.3681 1.3505 3.1881 1.802L20 46h8l-1.0276 -19.6352c0.8155 -0.4494 1.8621 -1.0372 3.1567 -1.7847 1.5018 -0.867 2.6506 -1.5523 3.4884 -2.0625 1.1224 -0.6833 1.6571 -1.9645 1.0241 -3.116 -0.0421 -0.0767 -0.0865 -0.1556 -0.1333 -0.2366 -0.0467 -0.081 -0.0928 -0.1589 -0.1382 -0.2338 -0.6808 -1.1239 -2.0577 -1.3013 -3.2107 -0.6711 -0.8607 0.4706 -2.0285 1.1228 -3.5303 1.9899 -0.3331 0.1923 -0.649 0.3757 -0.9479 0.5503l-0.2284 -4.3659Z" stroke-width="1"></path>
    <path stroke="currentColor" stroke-linejoin="round" d="M6.21838 28.7094c-0.51102 4.4667 2.83248 8.2327 7.30252 8.7134 2.0236 0.2177 4.3632 0.4088 6.9015 0.507l0.395 -7.5477c-0.82 -0.4516 -1.8767 -1.0449 -3.1881 -1.802 -1.5017 -0.867 -2.6505 -1.5523 -3.4884 -2.0625 -1.1223 -0.6833 -1.6571 -1.9645 -1.0241 -3.116 0.0421 -0.0767 0.0866 -0.1556 0.1333 -0.2366 0.0468 -0.081 0.0929 -0.1589 0.1382 -0.2338 0.6808 -1.1239 2.0577 -1.3014 3.2107 -0.6711 0.8607 0.4706 2.0286 1.1228 3.5303 1.9899 0.3449 0.1991 0.6711 0.3886 0.9793 0.5686l0.4388 -8.3842c0.0554 -1.059 0.54 -2.1178 1.5765 -2.3419 0.2613 -0.0565 0.5541 -0.0925 0.8762 -0.0925 0.3221 0 0.6149 0.036 0.8762 0.0925 1.0366 0.2241 1.5211 1.2829 1.5766 2.3419l0.2284 4.3659c0.2989 -0.1746 0.6148 -0.358 0.9479 -0.5504 1.5018 -0.867 2.6696 -1.5192 3.5303 -1.9898 1.153 -0.6303 2.5299 -0.4528 3.2107 0.6711 0.0454 0.0749 0.0915 0.1528 0.1382 0.2338 0.0468 0.081 0.0912 0.1599 0.1334 0.2366 0.6329 1.1515 0.0982 2.4327 -1.0242 3.116 -0.8378 0.5102 -1.9866 1.1955 -3.4884 2.0625 -1.2946 0.7475 -2.3411 1.3353 -3.1567 1.7847l0.6053 11.565c2.5383 -0.0982 4.8779 -0.2893 6.9015 -0.507 4.4701 -0.4807 7.8136 -4.2467 7.3025 -8.7134C40.199 14.8738 32.4571 2 24.0001 2S7.80126 14.8738 6.21838 28.7094Z" stroke-width="1"></path>
    <path stroke="currentColor" stroke-linecap="round" stroke-linejoin="round" d="M15 46h18" stroke-width="1"></path>
  </g>
</svg>
