<svg xmlns="http://www.w3.org/2000/svg" fill="none" viewBox="0 0 48 48">
  <g>
    <path fill="currentColor" fill-rule="evenodd" d="M29.4695 39.3407c1.8742 -0.1072 3.6147 -0.2592 5.17 -0.4265 5.2076 -0.5601 9.248 -4.9944 8.6324 -10.3753 -0.8145 -7.1192 -3.2132 -14.0219 -6.5427 -19.18541C33.4476 4.26426 29.0047 0.5 23.9999 0.5 18.995 0.499998 14.5521 4.26426 11.2706 9.35349 7.94106 14.517 5.54235 21.4197 4.72787 28.5389c-0.61561 5.3809 3.42473 9.8152 8.63243 10.3753 2.0376 0.2192 4.3933 0.412 6.9509 0.5124l0.3087 -9.8146c-0.864 -0.4771 -2.0503 -1.1435 -3.5891 -2.0319 -1.9198 -1.1084 -3.266 -1.9144 -4.123 -2.4373 -0.7441 -0.454 -1.1425 -1.285 -0.7603 -2.0684 0.072 -0.1476 0.156 -0.3065 0.2541 -0.4764 0.0981 -0.1698 0.1937 -0.3221 0.2855 -0.4582 0.4873 -0.7227 1.4062 -0.7932 2.1715 -0.3757 0.8813 0.4807 2.2524 1.2435 4.1722 2.3519 0.6394 0.3691 1.2151 0.7047 1.7304 1.0075l0.3359 -10.6783c0.0189 -0.5984 0.3109 -1.1737 0.8893 -1.3279 0.2544 -0.0678 0.5613 -0.1173 0.9151 -0.1173 0.3539 0 0.6607 0.0495 0.9151 0.1173 0.5785 0.1542 0.8705 0.7295 0.8893 1.3279l0.2081 6.6126c0.4863 -0.2854 1.025 -0.5992 1.6184 -0.9418 1.9198 -1.1084 3.2909 -1.8712 4.1722 -2.3519 0.7653 -0.4175 1.6842 -0.347 2.1715 0.3757 0.0918 0.1361 0.1874 0.2884 0.2855 0.4582 0.0981 0.1699 0.1821 0.3288 0.2541 0.4764 0.3822 0.7834 -0.0162 1.6144 -0.7603 2.0684 -0.857 0.5229 -2.2032 1.3289 -4.123 2.4373 -1.4733 0.8506 -2.6235 1.4977 -3.4771 1.97L25.6358 44H15c-0.9665 0 -1.75 0.7835 -1.75 1.75s0.7835 1.75 1.75 1.75h18c0.9665 0 1.75 -0.7835 1.75 -1.75S33.9665 44 33 44h-3.379l-0.1515 -4.6593Z" clip-rule="evenodd" stroke-width="3.429"></path>
  </g>
</svg>
