<svg xmlns="http://www.w3.org/2000/svg" viewBox="0 0 24 24" fill="none"><path d="M18.0011 1.25C19.8641 1.25019 21.6411 2.36371 22.3868 4.12891C23.084 5.77908 22.6962 7.19708 21.9308 8.37109C21.3105 9.32235 20.4029 10.1683 19.628 10.8906C19.4922 11.0173 19.3609 11.1408 19.2355 11.2598C18.9021 11.5759 18.459 11.7499 18.0011 11.75C17.543 11.75 17.0993 11.576 16.7657 11.2598L16.7648 11.2578C16.6326 11.1318 16.4927 11.0009 16.3487 10.8662C15.5816 10.1484 14.6852 9.31045 14.0714 8.37109C13.3049 7.19814 12.9164 5.78108 13.6144 4.12891C14.3602 2.36356 16.1379 1.25 18.0011 1.25ZM17.9923 4.25C17.0301 4.25 16.2501 5.0335 16.2501 6C16.2501 6.9665 17.0301 7.75 17.9923 7.75H18.0079C18.9701 7.75 19.7501 6.9665 19.7501 6C19.7501 5.0335 18.9701 4.25 18.0079 4.25H17.9923Z" fill="currentColor" fill-rule="evenodd" clip-rule="evenodd"/><path d="M1.24988 19C1.24988 16.9289 2.92881 15.25 4.99988 15.25C7.07095 15.25 8.74988 16.9289 8.74988 19C8.74988 21.0711 7.07095 22.75 4.99988 22.75C2.92881 22.75 1.24988 21.0711 1.24988 19Z" fill="currentColor"/><path opacity="0.4" d="M4.99988 10C4.99988 7.65179 7.16477 6 9.49988 6H10.9999C11.5522 6 11.9999 6.44772 11.9999 7C11.9999 7.55228 11.5522 8 10.9999 8H9.49988C7.96899 8 6.99988 9.0345 6.99988 10C6.99988 10.9655 7.96899 12 9.49988 12H12.4999C14.835 12 16.9999 13.6518 16.9999 16C16.9999 18.3482 14.835 20 12.4999 20H10.9999C10.4476 20 9.99988 19.5523 9.99988 19C9.99988 18.4477 10.4476 18 10.9999 18H12.4999C14.0308 18 14.9999 16.9655 14.9999 16C14.9999 15.0345 14.0308 14 12.4999 14H9.49988C7.16477 14 4.99988 12.3482 4.99988 10Z" fill="currentColor" fill-rule="evenodd" clip-rule="evenodd"/></svg>
