<svg xmlns="http://www.w3.org/2000/svg" viewBox="0 0 24 24" fill="none"><path opacity="0.4" d="M15.1103 2.4834C14.1678 1.75371 13.2676 1.30059 12.2187 1.25488C12.073 1.24854 11.927 1.24854 11.7812 1.25488C10.7324 1.30059 9.83217 1.75371 8.88965 2.4834C7.97258 3.19338 6.93749 4.22849 5.62676 5.53925L5.583 5.583L5.53925 5.62676C4.22849 6.93749 3.19338 7.97258 2.4834 8.88965C1.75371 9.83217 1.30059 10.7324 1.25488 11.7812C1.24854 11.927 1.24854 12.073 1.25488 12.2187C1.30059 13.2676 1.75371 14.1678 2.4834 15.1103C3.19339 16.0274 4.2285 17.0625 5.53928 18.3733L5.583 18.417L5.62672 18.4607C6.93747 19.7715 7.97257 20.8066 8.88965 21.5166C9.83217 22.2463 10.7324 22.6994 11.7812 22.7451C11.927 22.7515 12.073 22.7515 12.2187 22.7451C13.2676 22.6994 14.1678 22.2463 15.1103 21.5166C16.0274 20.8066 17.0625 19.7715 18.3733 18.4607L18.417 18.417L18.4607 18.3733C19.7715 17.0625 20.8066 16.0274 21.5166 15.1103C22.2463 14.1678 22.6994 13.2676 22.7451 12.2187C22.7515 12.073 22.7515 11.927 22.7451 11.7812C22.6994 10.7324 22.2463 9.83217 21.5166 8.88965C20.8066 7.97257 19.7715 6.93747 18.4607 5.62672L18.417 5.583L18.3733 5.53928C17.0625 4.2285 16.0274 3.19339 15.1103 2.4834Z" fill="currentColor"/><path d="M10.9952 16.004V12.9991H8.00012C7.44792 12.9991 7.00025 12.5513 7.00012 11.9991C7.00012 11.4469 7.44784 10.9991 8.00012 10.9991H10.9952V8.00403C10.9952 7.45174 11.443 7.00403 11.9952 7.00403C12.5475 7.00409 12.9952 7.45178 12.9952 8.00403V10.9991H16.0001C16.5524 10.9991 17.0001 11.4469 17.0001 11.9991C17 12.5513 16.5523 12.9991 16.0001 12.9991H12.9952V16.004C12.9952 16.5563 12.5475 17.004 11.9952 17.004C11.443 17.004 10.9952 16.5563 10.9952 16.004Z" fill="currentColor"/></svg>
