<svg xmlns="http://www.w3.org/2000/svg" viewBox="0 0 24 24" fill="none"><path d="M12.2183 1.25488C13.2671 1.30062 14.1674 1.75374 15.1099 2.48339C16.0269 3.19336 17.0619 4.2284 18.3726 5.53906L18.4604 5.62695C19.7711 6.93753 20.8062 7.97265 21.5161 8.88964C22.2457 9.83212 22.6989 10.7324 22.7446 11.7812C22.751 11.927 22.751 12.073 22.7446 12.2187C22.6989 13.2675 22.2458 14.1679 21.5161 15.1103C20.8062 16.0274 19.7711 17.0624 18.4604 18.373L18.3726 18.4609C17.0619 19.7716 16.0269 20.8066 15.1099 21.5166C14.1674 22.2463 13.2671 22.6994 12.2183 22.7451C12.0725 22.7515 11.9265 22.7514 11.7808 22.7451C10.732 22.6994 9.83163 22.2462 8.88915 21.5166C7.97216 20.8067 6.93705 19.7715 5.62646 18.4609L5.53857 18.373C4.22791 17.0624 3.19288 16.0274 2.4829 15.1103C1.75325 14.1679 1.30013 13.2675 1.25439 12.2187C1.24805 12.073 1.24805 11.927 1.25439 11.7812C1.3001 10.7324 1.75322 9.83216 2.4829 8.88964C3.19286 7.97262 4.2279 6.93759 5.53857 5.62695L5.62646 5.53906C6.9371 4.22839 7.97214 3.19335 8.88915 2.48339C9.83168 1.75371 10.7319 1.30059 11.7808 1.25488C11.9265 1.24854 12.0725 1.24854 12.2183 1.25488ZM11.9946 7.0039C11.4423 7.0039 10.9946 7.45162 10.9946 8.0039V10.999H7.99951C7.44722 10.999 6.99951 11.4467 6.99951 11.999C6.99963 12.5512 7.4473 12.999 7.99951 12.999H10.9946V16.0039C10.9946 16.5562 11.4423 17.0039 11.9946 17.0039C12.5469 17.0038 12.9946 16.5562 12.9946 16.0039V12.999H15.9995C16.5517 12.999 16.9994 12.5512 16.9995 11.999C16.9995 11.4467 16.5518 10.999 15.9995 10.999H12.9946V8.0039C12.9946 7.45165 12.5469 7.00396 11.9946 7.0039Z" fill="currentColor" fill-rule="evenodd" clip-rule="evenodd"/></svg>
