<svg xmlns="http://www.w3.org/2000/svg" viewBox="0 0 24 24" fill="none"><path opacity="0.4" d="M15.5836 6.74963C15.3867 7.38935 15.2496 8.13134 15.2496 8.99963C15.2496 10.4397 15.9365 11.253 16.7974 12.1754C17.6359 13.0738 18.7496 14.1588 18.7496 15.9996C18.7496 16.8761 18.529 17.7965 18.2418 18.6539C17.7198 20.2117 17.3842 21.3079 16.3619 22.0436C15.8303 22.4261 15.2432 22.5951 14.564 22.6744C13.9195 22.7497 13.1281 22.7497 12.1607 22.7496H11.8384C10.871 22.7497 10.0796 22.7497 9.43512 22.6744C8.75599 22.5951 8.16887 22.4261 7.63727 22.0436C6.61494 21.3079 6.27937 20.2117 5.75739 18.6539C5.4701 17.7965 5.24957 16.8761 5.24957 15.9996C5.24957 14.1588 6.3632 13.0738 7.20172 12.1754C8.06267 11.253 8.74957 10.4397 8.74957 8.99963C8.74957 8.13134 8.61241 7.38935 8.41559 6.74963H15.5836Z" fill="currentColor"/><path opacity="0.4" d="M15.4996 1.24963C16.4661 1.24963 17.2496 2.03314 17.2496 2.99963C17.2496 3.24508 17.1784 3.46764 17.107 3.64026C17.0336 3.81762 16.936 3.99791 16.8384 4.16858C16.6437 4.50937 16.44 4.83278 16.2173 5.24963H7.7818C7.55917 4.83278 7.35544 4.50937 7.16071 4.16858C7.06318 3.99791 6.96555 3.81762 6.89215 3.64026C6.82072 3.46764 6.74957 3.24508 6.74957 2.99963C6.74957 2.03314 7.53307 1.24963 8.49957 1.24963H15.4996Z" fill="currentColor"/><path d="M6.79156 3.33362C6.8186 3.44677 6.85496 3.55037 6.89215 3.64026C6.96555 3.81762 7.06318 3.99791 7.16071 4.16858C7.35544 4.50937 7.55917 4.83278 7.7818 5.24963H9.37946C9.37328 5.24977 9.3671 5.25061 9.3609 5.25061H6.36383C6.17804 5.25097 6.02707 5.41354 6.02692 5.61389C6.02694 5.63492 6.02939 5.65666 6.03278 5.67737L7.11188 12.2711C6.6059 12.8102 6.02043 13.4213 5.64313 14.2223C5.6226 14.1651 5.6075 14.1043 5.59723 14.0416L4.2818 6.01038C4.26041 5.8797 4.2496 5.74659 4.24957 5.61389C4.24973 4.35497 5.1962 3.33398 6.36383 3.33362H6.79156Z" fill="currentColor"/><path d="M17.6363 3.33362C18.804 3.33385 19.7504 4.35489 19.7505 5.61389C19.7505 5.74659 19.7397 5.8797 19.7183 6.01038L18.4038 14.0416C18.3934 14.1051 18.3769 14.1664 18.356 14.2242C17.9789 13.423 17.3943 12.8113 16.8882 12.2721L17.9673 5.67737C17.9707 5.65666 17.9732 5.63492 17.9732 5.61389C17.973 5.41346 17.8222 5.25084 17.6363 5.25061H14.6392C14.633 5.25061 14.6268 5.24977 14.6206 5.24963H16.2173C16.4399 4.83278 16.6437 4.50937 16.8384 4.16858C16.9359 3.99791 17.0336 3.81762 17.107 3.64026C17.1442 3.55037 17.1805 3.44677 17.2076 3.33362H17.6363Z" fill="currentColor"/></svg>
