<svg xmlns="http://www.w3.org/2000/svg" viewBox="0 0 24 24" fill="none"><path d="M4.2496 5.61345C4.24976 4.35441 5.1964 3.33379 6.36419 3.33362L9.36071 3.33362C9.85163 3.33362 10.2496 3.76269 10.2496 4.29197C10.2496 4.82125 9.85163 5.25032 9.36071 5.25032H6.36419C6.17824 5.25049 6.02754 5.41297 6.02738 5.61345C6.02738 5.63462 6.02918 5.65624 6.03259 5.67709L7.34683 13.7089C7.43213 14.2301 7.10973 14.7268 6.62634 14.8189C6.14292 14.9108 5.68219 14.5632 5.59683 14.0421L4.28172 6.01026C4.26031 5.87944 4.2496 5.74629 4.2496 5.61345Z" fill="currentColor"/><path d="M15.5836 6.74963C15.3867 7.38935 15.2496 8.13134 15.2496 8.99963C15.2496 10.4397 15.9365 11.253 16.7974 12.1754C17.6359 13.0738 18.7496 14.1588 18.7496 15.9996C18.7496 16.8761 18.529 17.7965 18.2418 18.6539C17.7198 20.2117 17.3842 21.3079 16.3619 22.0436C15.8303 22.4261 15.2432 22.5951 14.564 22.6744C13.9195 22.7497 13.1281 22.7497 12.1607 22.7496H11.8384C10.871 22.7497 10.0796 22.7497 9.43512 22.6744C8.75599 22.5951 8.16887 22.4261 7.63727 22.0436C6.61494 21.3079 6.27937 20.2117 5.75739 18.6539C5.4701 17.7965 5.24957 16.8761 5.24957 15.9996C5.24957 14.1588 6.3632 13.0738 7.20172 12.1754C8.06267 11.253 8.74957 10.4397 8.74957 8.99963C8.74957 8.13134 8.61241 7.38935 8.41559 6.74963H15.5836Z" fill="currentColor"/><path d="M15.4996 1.24963C16.4661 1.24963 17.2496 2.03314 17.2496 2.99963C17.2496 3.24508 17.1784 3.46764 17.107 3.64026C17.0336 3.81762 16.936 3.99791 16.8384 4.16858C16.6437 4.50937 16.44 4.83278 16.2173 5.24963H7.7818C7.55917 4.83278 7.35544 4.50937 7.16071 4.16858C7.06318 3.99791 6.96555 3.81762 6.89215 3.64026C6.82072 3.46764 6.74957 3.24508 6.74957 2.99963C6.74957 2.03314 7.53307 1.24963 8.49957 1.24963H15.4996Z" fill="currentColor"/><path d="M17.973 5.61284C17.9729 5.41237 17.8222 5.2499 17.6362 5.24971H14.6397C14.1488 5.24971 13.7508 4.82064 13.7508 4.29136C13.7508 3.76208 14.1488 3.33301 14.6397 3.33301H17.6362C18.804 3.33319 19.7507 4.35381 19.7508 5.61284C19.7508 5.74568 19.7401 5.87883 19.7187 6.00965L18.4036 14.0415C18.3182 14.5626 17.8575 14.9102 17.3741 14.8183C16.8907 14.7262 16.5683 14.2295 16.6536 13.7083L17.9678 5.67648C17.9713 5.65563 17.973 5.63401 17.973 5.61284Z" fill="currentColor"/></svg>
