<svg xmlns="http://www.w3.org/2000/svg" viewBox="0 0 24 24" fill="none"><path opacity="0.4" d="M6.67313 19.0821C6.75619 18.772 6.75028 18.4167 6.75028 18.0001V12.0001C6.75028 11.5835 6.75619 11.2282 6.67313 10.9181C6.46508 10.1416 5.85876 9.53529 5.08231 9.32724C4.77218 9.24418 4.4169 9.25009 4.00027 9.25009C3.58365 9.25009 3.22837 9.24418 2.91824 9.32724C2.14179 9.53529 1.53547 10.1416 1.32742 10.9181C1.24436 11.2282 1.25027 11.5835 1.25027 12.0001V18.0001C1.25027 18.4167 1.24436 18.772 1.32742 19.0821C1.53547 19.8586 2.14179 20.4649 2.91824 20.6729C3.22837 20.756 3.58365 20.7501 4.00027 20.7501C4.4169 20.7501 4.77218 20.756 5.08231 20.6729C5.85876 20.4649 6.46508 19.8586 6.67313 19.0821Z" fill="currentColor"/><path d="M7.94147 10.25C8.86309 10.25 9.776 10.4351 10.6231 10.793L15.2159 12.7324C16.2472 13.1681 16.9169 14.1684 16.9171 15.2744C16.9171 15.3576 16.9107 15.4398 16.9014 15.5205H20.3926C21.6945 15.5207 22.7499 16.5614 22.7501 17.8447C22.75 18.8823 22.0522 19.794 21.0401 20.0791L15.9639 21.5098C15.3967 21.6695 14.8087 21.75 14.2188 21.75C13.6665 21.75 13.1158 21.6783 12.5821 21.5381L6.27545 19.8799C6.45682 19.6466 6.59391 19.3769 6.67291 19.082C6.75454 18.7772 6.74926 18.4289 6.74908 18.0215L13.0831 19.6865C13.4533 19.7838 13.8356 19.833 14.2188 19.833C14.6281 19.833 15.0362 19.7768 15.4297 19.666L20.5059 18.2363C20.6831 18.1862 20.8057 18.0264 20.8057 17.8447C20.8056 17.62 20.6207 17.4377 20.3926 17.4375H14.0001C13.9661 17.4375 13.9326 17.435 13.8995 17.4316C13.1372 17.409 12.3839 17.2571 11.6749 16.9775L10.2364 16.4111C9.73796 16.2146 9.49522 15.6564 9.6944 15.165C9.89382 14.6738 10.4597 14.4345 10.9581 14.6309L12.3975 15.1982C12.9377 15.4112 13.514 15.5205 14.0958 15.5205H14.7227C14.8606 15.5204 14.9727 15.4103 14.9727 15.2744C14.9726 14.9354 14.7673 14.6289 14.4512 14.4951L9.85651 12.5537C9.25153 12.2982 8.59964 12.167 7.94147 12.167H6.75006V12C6.75006 11.5834 6.75597 11.2281 6.67291 10.918C6.60821 10.6766 6.50502 10.4517 6.37018 10.25H7.94147Z" fill="currentColor"/><path opacity="0.4" d="M18.0002 11.75C20.6235 11.75 22.7502 9.62335 22.7502 7C22.7502 4.37665 20.6235 2.25 18.0002 2.25C15.3768 2.25 13.2502 4.37665 13.2502 7C13.2502 9.62335 15.3768 11.75 18.0002 11.75Z" fill="currentColor"/></svg>
