<svg xmlns="http://www.w3.org/2000/svg" viewBox="0 0 24 24" fill="none"><path d="M4.00021 9.25009C4.41678 9.25009 4.77215 9.24422 5.08225 9.32724C5.61725 9.4706 6.07151 9.80319 6.37033 10.2501H7.94162C8.86324 10.2501 9.77616 10.4352 10.6233 10.7931L15.216 12.7325C16.2473 13.1682 16.9171 14.1685 16.9172 15.2745C16.9172 15.3577 16.9109 15.4399 16.9016 15.5206H20.3928C21.6946 15.5208 22.7501 16.5615 22.7502 17.8448C22.7502 18.8823 22.0522 19.7941 21.0403 20.0792L15.9631 21.5099C15.3959 21.6695 14.8079 21.7501 14.218 21.7501C13.6658 21.75 13.1158 21.6784 12.5822 21.5382L6.2756 19.88C5.97935 20.2611 5.56388 20.5439 5.08225 20.6729C4.77214 20.756 4.4168 20.7501 4.00021 20.7501C3.58364 20.7501 3.22828 20.756 2.91818 20.6729C2.14179 20.4649 1.5354 19.8585 1.32736 19.0821C1.24433 18.772 1.25021 18.4167 1.25021 18.0001V12.0001C1.25021 11.5835 1.24431 11.2282 1.32736 10.9181C1.53542 10.1417 2.14179 9.53531 2.91818 9.32724C3.22828 9.24419 3.58364 9.25009 4.00021 9.25009ZM6.75021 18.0001C6.75021 18.0072 6.74923 18.0145 6.74924 18.0216L13.0832 19.6866C13.4533 19.7839 13.835 19.833 14.218 19.8331C14.6275 19.8331 15.0362 19.777 15.4299 19.6661L20.5061 18.2364C20.6832 18.1863 20.8058 18.0265 20.8059 17.8448C20.8057 17.6201 20.6208 17.4378 20.3928 17.4376H14.0002C13.9663 17.4376 13.9327 17.4351 13.8996 17.4317C13.1373 17.4091 12.3841 17.2572 11.675 16.9776L10.2365 16.4112C9.73811 16.2147 9.49537 15.6565 9.69455 15.1651C9.89399 14.674 10.4598 14.4346 10.9582 14.631L12.3977 15.1983C12.9378 15.4113 13.5142 15.5206 14.0959 15.5206H14.7229C14.8607 15.5205 14.9719 15.4104 14.9719 15.2745C14.9718 14.9355 14.7674 14.629 14.4514 14.4952L9.85666 12.5538C9.25166 12.2983 8.59983 12.1671 7.94162 12.1671H6.75021V18.0001Z" fill="currentColor" fill-rule="evenodd" clip-rule="evenodd"/><path d="M18.0002 11.75C20.6235 11.75 22.7502 9.62335 22.7502 7C22.7502 4.37665 20.6235 2.25 18.0002 2.25C15.3768 2.25 13.2502 4.37665 13.2502 7C13.2502 9.62335 15.3768 11.75 18.0002 11.75Z" fill="currentColor"/></svg>
