<svg xmlns="http://www.w3.org/2000/svg" viewBox="0 0 24 24" fill="none"><path d="M12 22.75C17.9371 22.75 22.75 17.9371 22.75 12C22.75 10.3909 22.3934 8.86567 21.7598 7.49512H20.9951V8.25C20.9951 9.41496 20.1098 10.3728 18.9756 10.4883L18.7451 10.5C17.5025 10.5 16.4951 9.49264 16.4951 8.25V7.49512H15.75C14.585 7.49512 13.6272 6.60977 13.5117 5.47559L13.5 5.24512L13.5117 5.01465C13.6271 3.88028 14.5852 2.99512 15.75 2.99512H16.4951V2.23633C15.127 1.60542 13.6054 1.25 12 1.25C6.06294 1.25 1.25 6.06294 1.25 12C1.25 17.9371 6.06294 22.75 12 22.75ZM15.832 14.5547C15.5257 15.0142 14.9048 15.1384 14.4453 14.832L11.4453 12.832C11.1671 12.6466 11 12.3344 11 12V7C11 6.44772 11.4477 6 12 6C12.5523 6 13 6.44772 13 7V11.4648L15.5547 13.168C16.0142 13.4743 16.1384 14.0952 15.832 14.5547Z" fill="currentColor"/><path d="M17.7451 8.25V6.24512H15.75C15.1978 6.24512 14.7501 5.79735 14.75 5.24512C14.75 4.69283 15.1977 4.24512 15.75 4.24512H17.7451V2.25C17.7451 1.69772 18.1928 1.25 18.7451 1.25C19.2973 1.25006 19.7451 1.69775 19.7451 2.25V4.24512H21.75C22.3023 4.24512 22.75 4.69283 22.75 5.24512C22.7499 5.79735 22.3022 6.24512 21.75 6.24512H19.7451V8.25C19.7451 8.80225 19.2973 9.24994 18.7451 9.25C18.1928 9.25 17.7451 8.80228 17.7451 8.25Z" fill="currentColor"/></svg>
