<svg xmlns="http://www.w3.org/2000/svg" viewBox="0 0 24 24" fill="none"><path opacity="0.4" d="M9.74994 14.5408V14.5V9.5V9.45919C9.74996 8.79082 9.74998 8.23298 9.70404 7.78125C9.65588 7.30783 9.5506 6.86862 9.28607 6.47266C9.08544 6.17238 8.82756 5.9145 8.52728 5.71387C8.13132 5.44934 7.69211 5.34406 7.21869 5.2959C6.76695 5.24996 6.20909 5.24998 5.5407 5.25H5.49994H5.45918C4.79079 5.24998 4.23293 5.24996 3.78119 5.2959C3.30777 5.34406 2.86856 5.44934 2.4726 5.71387C2.17232 5.9145 1.91444 6.17238 1.71381 6.47266C1.44928 6.86862 1.344 7.30783 1.29584 7.78125C1.2499 8.233 1.24992 8.79085 1.24994 9.45924V9.5V14.5V14.5408C1.24992 15.2092 1.2499 15.767 1.29584 16.2188C1.344 16.6922 1.44928 17.1314 1.71381 17.5273C1.91444 17.8276 2.17233 18.0855 2.4726 18.2861C2.86856 18.5507 3.30777 18.6559 3.78119 18.7041C4.23291 18.75 4.79074 18.75 5.45909 18.75H5.49994H5.54079C6.20914 18.75 6.76697 18.75 7.21869 18.7041C7.69211 18.6559 8.13132 18.5507 8.52728 18.2861C8.82756 18.0855 9.08544 17.8276 9.28607 17.5273C9.5506 17.1314 9.65588 16.6922 9.70404 16.2188C9.74998 15.767 9.74996 15.2092 9.74994 14.5408Z" fill="currentColor"/><path d="M20.75 12C20.75 9.13859 19.9722 6.79821 18.9902 5.65042C18.6312 5.23084 18.6801 4.59935 19.0996 4.24026C19.5192 3.88124 20.1507 3.93016 20.5097 4.34964C21.9189 5.99643 22.75 8.8793 22.75 12C22.75 15.1208 21.9189 18.0036 20.5097 19.6504C20.1507 20.0699 19.5192 20.1188 19.0996 19.7598C18.6801 19.4007 18.6312 18.7692 18.9902 18.3496C19.9722 17.2019 20.75 14.8615 20.75 12ZM16.75 12C16.75 10.0034 16.178 8.41612 15.5058 7.668C15.1371 7.25716 15.1713 6.6249 15.582 6.25589C15.9928 5.8871 16.6251 5.92135 16.9941 6.33206C18.1152 7.58008 18.75 9.72376 18.75 12C18.75 14.2763 18.1152 16.42 16.9941 17.668C16.6251 18.0787 15.9928 18.113 15.582 17.7442C15.1713 17.3752 15.1371 16.7429 15.5058 16.3321C16.178 15.5839 16.75 13.9966 16.75 12ZM12.75 12C12.75 10.8833 12.3923 10.057 12.042 9.70608C11.6522 9.3152 11.6532 8.68209 12.0439 8.29202C12.4348 7.9022 13.0679 7.90324 13.458 8.29397C14.303 9.14074 14.75 10.5531 14.75 12C14.75 13.4469 14.303 14.8593 13.458 15.7061C13.0679 16.0968 12.4348 16.0979 12.0439 15.708C11.6532 15.318 11.6522 14.6849 12.042 14.294C12.3923 13.943 12.75 13.1167 12.75 12Z" fill="currentColor"/></svg>
