<svg xmlns="http://www.w3.org/2000/svg" viewBox="0 0 24 24" fill="none"><path d="M9.74945 14.5408V14.5V9.5V9.45919C9.74947 8.79082 9.74949 8.23298 9.70355 7.78125C9.65539 7.30783 9.55011 6.86862 9.28559 6.47266C9.08495 6.17238 8.82707 5.9145 8.5268 5.71387C8.13084 5.44934 7.69162 5.34406 7.2182 5.2959C6.76646 5.24996 6.20861 5.24998 5.54022 5.25H5.49945H5.45869C4.7903 5.24998 4.23245 5.24996 3.7807 5.2959C3.30728 5.34406 2.86807 5.44934 2.47211 5.71387C2.17184 5.9145 1.91396 6.17238 1.71332 6.47266C1.44879 6.86862 1.34351 7.30783 1.29535 7.78125C1.24942 8.233 1.24943 8.79085 1.24945 9.45924V9.5V14.5V14.5408C1.24943 15.2092 1.24942 15.767 1.29535 16.2188C1.34351 16.6922 1.44879 17.1314 1.71332 17.5273C1.91396 17.8276 2.17184 18.0855 2.47211 18.2861C2.86807 18.5507 3.30728 18.6559 3.7807 18.7041C4.23243 18.75 4.79025 18.75 5.4586 18.75H5.49945H5.5403C6.20865 18.75 6.76648 18.75 7.2182 18.7041C7.69162 18.6559 8.13084 18.5507 8.5268 18.2861C8.82707 18.0855 9.08495 17.8276 9.28559 17.5273C9.55011 17.1314 9.65539 16.6922 9.70355 16.2188C9.74949 15.767 9.74947 15.2092 9.74945 14.5408Z" fill="currentColor"/><path d="M20.7495 12C20.7495 9.13859 19.9718 6.79821 18.9897 5.65042C18.6307 5.23084 18.6796 4.59935 19.0991 4.24026C19.5187 3.88124 20.1502 3.93016 20.5093 4.34964C21.9184 5.99643 22.7495 8.8793 22.7495 12C22.7495 15.1208 21.9184 18.0036 20.5093 19.6504C20.1502 20.0699 19.5187 20.1188 19.0991 19.7598C18.6796 19.4007 18.6307 18.7692 18.9897 18.3496C19.9718 17.2019 20.7495 14.8615 20.7495 12ZM16.7495 12C16.7495 10.0034 16.1775 8.41612 15.5054 7.668C15.1366 7.25716 15.1708 6.6249 15.5815 6.25589C15.9924 5.8871 16.6246 5.92135 16.9936 6.33206C18.1147 7.58008 18.7495 9.72376 18.7495 12C18.7495 14.2763 18.1147 16.42 16.9936 17.668C16.6246 18.0787 15.9924 18.113 15.5815 17.7442C15.1708 17.3752 15.1366 16.7429 15.5054 16.3321C16.1775 15.5839 16.7495 13.9966 16.7495 12ZM12.7495 12C12.7495 10.8833 12.3918 10.057 12.0415 9.70608C11.6517 9.3152 11.6527 8.68209 12.0434 8.29202C12.4343 7.9022 13.0674 7.90324 13.4575 8.29397C14.3025 9.14074 14.7495 10.5531 14.7495 12C14.7495 13.4469 14.3025 14.8593 13.4575 15.7061C13.0674 16.0968 12.4343 16.0979 12.0434 15.708C11.6527 15.318 11.6517 14.6849 12.0415 14.294C12.3918 13.943 12.7495 13.1167 12.7495 12Z" fill="currentColor"/></svg>
