<svg xmlns="http://www.w3.org/2000/svg" viewBox="0 0 24 24" fill="none"><path d="M15.125 2.25024C16.3627 2.2491 17.3041 2.24848 18.1318 2.66235C18.9595 3.07627 19.6431 3.98997 20.3848 4.98071L21.5547 6.54028C21.6812 6.709 21.75 6.91435 21.75 7.12524V13.0471C21.75 14.8248 21.7501 16.2581 21.5986 17.385C21.4413 18.5549 21.1047 19.5401 20.3223 20.3225C19.5399 21.1049 18.5547 21.4415 17.3848 21.5989C16.2577 21.7504 14.8238 21.7503 13.0459 21.7502H10.9541C9.1765 21.7503 7.74319 21.7503 6.61621 21.5989C5.44607 21.4416 4.46023 21.105 3.67773 20.3225C2.89534 19.5401 2.55871 18.5549 2.40137 17.385C2.24985 16.2581 2.24997 14.8248 2.25 13.0471V7.12524C2.25004 6.91435 2.31877 6.709 2.44531 6.54028L3.61523 4.98071C4.35687 3.98997 5.04051 3.07627 5.86816 2.66235C6.69591 2.24848 7.63731 2.2491 8.875 2.25024H15.125ZM12 9.50024C11.4477 9.50024 11 9.94796 11 10.5002V15.3782C10.7704 15.0859 9.90977 14.0015 9.7168 13.803C9.33183 13.4072 8.69867 13.3986 8.30273 13.7834C7.90698 14.1684 7.89836 14.8016 8.2832 15.1975C8.38661 15.3043 9.38656 16.5471 9.64355 16.8743C9.94005 17.2242 10.2746 17.5914 10.6113 17.8782C10.7801 18.0219 10.9733 18.1656 11.1826 18.2776C11.384 18.3853 11.6674 18.5002 12 18.5002C12.3326 18.5002 12.616 18.3853 12.8174 18.2776C13.0267 18.1656 13.2199 18.0219 13.3887 17.8782C13.7254 17.5914 14.0599 17.2242 14.3564 16.8743C14.6333 16.5475 15.4885 15.4883 15.7168 15.1975C16.1016 14.8016 16.093 14.1684 15.6973 13.7834C15.3013 13.3986 14.6682 13.4072 14.2832 13.803C14.1037 14.0316 13.1932 15.143 13 15.3782V10.5002C13 9.94796 12.5523 9.50024 12 9.50024ZM9.0752 4.20142C7.54199 4.20142 7.1036 4.22579 6.74023 4.40747C6.377 4.58918 6.0945 4.92537 5.1748 6.15161H18.8252C17.9054 4.92528 17.623 4.58918 17.2598 4.40747C16.8964 4.22579 16.458 4.20142 14.9248 4.20142H9.0752Z" fill="currentColor"/></svg>
