<svg xmlns="http://www.w3.org/2000/svg" viewBox="0 0 24 24" fill="none"><path d="M20.85 19.7955V19.3145C20.0562 19.9142 19.0707 20.2727 18 20.2727C16.2408 20.2727 14.7063 19.3112 13.8864 17.8873C13.6238 17.4311 13.7786 16.8472 14.2325 16.5832C14.6865 16.3193 15.2676 16.4748 15.5304 16.9309C16.0246 17.7893 16.9463 18.3636 18 18.3636C18.5816 18.3636 19.122 18.1874 19.5734 17.8864H18.95C18.4253 17.8864 18 17.459 18 16.9318C18 16.4046 18.4253 15.9773 18.95 15.9773H19.9C20.321 15.9773 20.7322 15.9756 21.0689 16.0211C21.3873 16.0641 21.7451 16.1607 22.0607 16.4163L22.1934 16.5366L22.313 16.6699C22.5674 16.9869 22.6636 17.3465 22.7064 17.6664C22.7517 18.0047 22.75 18.4179 22.75 18.8409V19.7955C22.75 20.3226 22.3247 20.75 21.8 20.75C21.2753 20.75 20.85 20.3226 20.85 19.7955ZM18 10.7273C19.7592 10.7273 21.2937 11.6888 22.1136 13.1127C22.3762 13.5689 22.2214 14.1528 21.7675 14.4168C21.3135 14.6807 20.7324 14.5252 20.4696 14.0691C19.9754 13.2107 19.0537 12.6364 18 12.6364C17.4184 12.6364 16.878 12.8126 16.4266 13.1136H17.05C17.5747 13.1136 18 13.541 18 14.0682C18 14.5954 17.5747 15.0227 17.05 15.0227H16.1C15.679 15.0227 15.2678 15.0244 14.9311 14.9789C14.567 14.9297 14.1517 14.8101 13.8066 14.4634C13.4616 14.1167 13.3426 13.6994 13.2936 13.3336C13.2483 12.9953 13.25 12.5821 13.25 12.1591V11.2045C13.25 10.6774 13.6753 10.25 14.2 10.25C14.7247 10.25 15.15 10.6774 15.15 11.2045V11.6846C15.9437 11.0851 16.9295 10.7273 18 10.7273Z" fill="currentColor"/><path opacity="0.4" d="M9.65416 13.3602C10.1488 13.1475 10.7257 13.3702 10.9416 13.8576C11.1574 14.3449 10.9311 14.9123 10.4367 15.1251C10.005 15.3108 9.60656 15.5737 9.26382 15.9047C8.87846 16.2768 8.25973 16.271 7.88189 15.8915C7.50416 15.5118 7.51005 14.9022 7.89525 14.5299C8.40935 14.0334 9.00659 13.6387 9.65416 13.3602ZM9.8498 8.27876C10.3786 8.17241 10.8947 8.50819 11.0027 9.02913C11.1106 9.55009 10.7698 10.0586 10.2411 10.165C8.59274 10.4966 7.06237 11.2906 5.84335 12.4678C5.45793 12.8399 4.83921 12.8334 4.46142 12.4537C4.08364 12.074 4.08944 11.4644 4.47478 11.0922C5.9647 9.65328 7.83536 8.68398 9.8498 8.27876ZM12 3.25C15.8462 3.25 19.5578 4.64661 22.4246 7.17296C22.8268 7.5275 22.8607 8.13633 22.5009 8.53265C22.1411 8.9289 21.5232 8.96328 21.1209 8.60881C18.6125 6.39825 15.3654 5.17575 12 5.17575C8.63457 5.17575 5.38752 6.39825 2.87907 8.60881C2.47682 8.96328 1.85888 8.9289 1.49905 8.53265C1.13927 8.13633 1.17324 7.5275 1.5754 7.17296C4.44219 4.64661 8.15379 3.25 12 3.25Z" fill="currentColor"/></svg>
