<svg xmlns="http://www.w3.org/2000/svg" viewBox="0 0 24 24" fill="none"><path d="M20.8495 19.7955V19.3145C20.0557 19.9142 19.0702 20.2727 17.9995 20.2727C16.2403 20.2727 14.7059 19.3112 13.8859 17.8873C13.6233 17.4311 13.7781 16.8472 14.232 16.5832C14.686 16.3193 15.2671 16.4748 15.5299 16.9309C16.0241 17.7893 16.9458 18.3636 17.9995 18.3636C18.5811 18.3636 19.1216 18.1874 19.5729 17.8864H18.9495C18.4248 17.8864 17.9995 17.459 17.9995 16.9318C17.9995 16.4046 18.4248 15.9773 18.9495 15.9773H19.8995C20.3205 15.9773 20.7317 15.9756 21.0685 16.0211C21.3868 16.0641 21.7447 16.1607 22.0602 16.4163L22.1929 16.5366L22.3125 16.6699C22.5669 16.9869 22.6631 17.3465 22.7059 17.6664C22.7512 18.0047 22.7495 18.4179 22.7495 18.8409V19.7955C22.7495 20.3226 22.3242 20.75 21.7995 20.75C21.2748 20.75 20.8495 20.3226 20.8495 19.7955ZM17.9995 10.7273C19.7587 10.7273 21.2932 11.6888 22.1131 13.1127C22.3757 13.5689 22.221 14.1528 21.767 14.4168C21.313 14.6807 20.7319 14.5252 20.4691 14.0691C19.9749 13.2107 19.0532 12.6364 17.9995 12.6364C17.4179 12.6364 16.8775 12.8126 16.4261 13.1136H17.0495C17.5742 13.1136 17.9995 13.541 17.9995 14.0682C17.9995 14.5954 17.5742 15.0227 17.0495 15.0227H16.0995C15.6785 15.0227 15.2673 15.0244 14.9306 14.9789C14.5665 14.9297 14.1512 14.8101 13.8062 14.4634C13.4611 14.1167 13.3421 13.6994 13.2931 13.3336C13.2479 12.9953 13.2495 12.5821 13.2495 12.1591V11.2045C13.2495 10.6774 13.6748 10.25 14.1995 10.25C14.7242 10.25 15.1495 10.6774 15.1495 11.2045V11.6846C15.9432 11.0851 16.929 10.7273 17.9995 10.7273Z" fill="currentColor"/><path d="M9.65367 13.3602C10.1483 13.1475 10.7252 13.3702 10.9411 13.8576C11.1569 14.3449 10.9306 14.9123 10.4363 15.1251C10.0045 15.3108 9.60607 15.5737 9.26333 15.9047C8.87797 16.2768 8.25924 16.271 7.8814 15.8915C7.50367 15.5118 7.50957 14.9022 7.89476 14.5299C8.40886 14.0334 9.0061 13.6387 9.65367 13.3602ZM9.84931 8.27876C10.3781 8.17241 10.8942 8.50819 11.0022 9.02913C11.1101 9.55009 10.7693 10.0586 10.2406 10.165C8.59225 10.4966 7.06188 11.2906 5.84286 12.4678C5.45744 12.8399 4.83872 12.8334 4.46093 12.4537C4.08315 12.074 4.08895 11.4644 4.47429 11.0922C5.96421 9.65328 7.83487 8.68398 9.84931 8.27876ZM11.9995 3.25C15.8457 3.25 19.5573 4.64661 22.4241 7.17296C22.8263 7.5275 22.8602 8.13633 22.5005 8.53265C22.1406 8.9289 21.5227 8.96328 21.1204 8.60881C18.612 6.39825 15.3649 5.17575 11.9995 5.17575C8.63408 5.17575 5.38703 6.39825 2.87858 8.60881C2.47633 8.96328 1.8584 8.9289 1.49856 8.53265C1.13878 8.13633 1.17275 7.5275 1.57491 7.17296C4.44171 4.64661 8.15331 3.25 11.9995 3.25Z" fill="currentColor"/></svg>
