<svg xmlns="http://www.w3.org/2000/svg" viewBox="0 0 24 24" fill="none"><path opacity="0.4" d="M4.25 8.4375C4.25 4.15729 7.71979 0.6875 12 0.6875C16.2802 0.6875 19.75 4.15729 19.75 8.4375C19.75 12.7177 16.2802 16.1875 12 16.1875C7.71979 16.1875 4.25 12.7177 4.25 8.4375Z" fill="currentColor"/><path d="M11.25 6.4375C11.25 7.12786 10.6924 7.6875 10.0045 7.6875H9.99552C9.30764 7.6875 8.75 7.12786 8.75 6.4375C8.75 5.74714 9.30764 5.1875 9.99553 5.1875L10.0045 5.1875C10.6924 5.1875 11.25 5.74714 11.25 6.4375Z" fill="currentColor" fill-rule="evenodd" clip-rule="evenodd"/><path d="M8 18.1875C8 17.6352 8.44772 17.1875 9 17.1875C10.1555 17.1875 11.1898 17.7538 11.917 18.7046C11.9586 18.759 12.0414 18.759 12.083 18.7046C12.8102 17.7538 13.8445 17.1875 15 17.1875C15.5523 17.1875 16 17.6352 16 18.1875C16 18.7398 15.5523 19.1875 15 19.1875C14.2247 19.1875 13 20.0115 13 22.1875C13 22.7398 12.5523 23.1875 12 23.1875C11.4477 23.1875 11 22.7398 11 22.1875C11 20.0115 9.77525 19.1875 9 19.1875C8.44772 19.1875 8 18.7398 8 18.1875Z" fill="currentColor" fill-rule="evenodd" clip-rule="evenodd"/></svg>
