<svg xmlns="http://www.w3.org/2000/svg" viewBox="0 0 24 24" fill="none"><path opacity="0.4" d="M11.707 12.293C12.0976 12.6835 12.0976 13.3167 11.707 13.7072L7.70705 17.7072C7.31652 18.0977 6.68336 18.0977 6.29283 17.7072C5.90231 17.3167 5.90231 16.6835 6.29283 16.293L10.2928 12.293C10.6834 11.9024 11.3165 11.9024 11.707 12.293Z" fill="currentColor" fill-rule="evenodd" clip-rule="evenodd"/><path d="M1.81533 16.0605C3.54584 14.8244 5.91633 15.0206 7.42008 16.5243L7.47573 16.58C8.97948 18.0837 9.17567 20.4542 7.93959 22.1847C7.45469 22.8636 6.47628 22.9446 5.88637 22.3546L1.6454 18.1137C1.0555 17.5238 1.13647 16.5454 1.81533 16.0605Z" fill="currentColor"/><path d="M17.9429 1.27828C18.2385 1.21417 18.4951 1.26913 18.7095 1.35836C18.8787 1.42886 19.0558 1.53696 19.2065 1.62887C19.6916 1.92429 20.3311 2.38428 20.9732 3.02633C21.6152 3.66841 22.0576 4.27955 22.353 4.76461C22.4449 4.91528 22.5706 5.11978 22.6411 5.28902C22.7304 5.50332 22.7852 5.76003 22.7212 6.05563C22.6494 6.38661 22.4509 6.60893 22.2817 6.75777C22.132 6.88953 21.9067 7.04255 21.7163 7.17184C21.0132 7.64952 20.0065 8.51647 19.3462 9.86715C18.7985 10.9874 17.8844 11.9163 16.9214 12.6513C15.9533 13.3902 14.7994 14.007 13.9058 14.4072C13.4576 14.6097 12.9779 14.8267 12.4067 14.7216C12.0849 14.6623 11.832 14.5191 11.6099 14.3447C11.4148 14.1916 11.2114 13.9873 10.9985 13.7744L10.2251 13.0009C10.0122 12.7881 9.80794 12.5846 9.65479 12.3896C9.48034 12.1674 9.33617 11.9147 9.27686 11.5927C9.1717 11.0217 9.38882 10.5418 9.59131 10.0937C9.99157 9.19992 10.6092 8.04534 11.3482 7.07711C12.0832 6.1141 13.012 5.19997 14.1323 4.65231C15.483 3.99203 16.35 2.98631 16.8276 2.28317C16.9569 2.09271 17.1099 1.86748 17.2417 1.71774C17.3905 1.54865 17.612 1.35011 17.9429 1.27828ZM14.4956 8.49996C13.9458 8.49996 13.4996 8.94773 13.4995 9.49996C13.4995 10.0522 13.9458 10.5 14.4956 10.5H14.5044C15.0542 10.4999 15.4995 10.0522 15.4995 9.49996C15.4995 8.94776 15.0541 8.50002 14.5044 8.49996H14.4956Z" fill="currentColor" fill-rule="evenodd" clip-rule="evenodd"/></svg>
