<svg xmlns="http://www.w3.org/2000/svg" viewBox="0 0 24 24" fill="none"><path opacity="0.4" d="M21.75 12.0674V11.9326C21.75 10.8701 21.7499 9.92008 21.7247 9.07423H2.27529C2.25011 9.92008 2.24999 10.8701 2.25 11.9326V12.0674C2.24998 14.0766 2.25043 15.6836 2.41992 16.9444C2.59511 18.2471 2.96748 19.3249 3.82129 20.1787C4.6751 21.0325 5.75292 21.4049 7.05567 21.5801C8.31643 21.7496 9.92344 21.75 11.9326 21.75H12.0674C14.0766 21.75 15.6836 21.7496 16.9443 21.5801C18.2471 21.4049 19.3249 21.0325 20.1787 20.1787C21.0325 19.3249 21.4049 18.2471 21.5801 16.9444C21.7496 15.6836 21.75 14.0766 21.75 12.0674Z" fill="currentColor"/><path d="M16.9443 2.41994C15.6836 2.25044 14.0766 2.24999 12.0674 2.25002H11.9326C9.92345 2.24999 8.31644 2.25044 7.05567 2.41994C5.75292 2.59513 4.67511 2.96749 3.8213 3.8213C2.96748 4.67512 2.59512 5.75293 2.41993 7.05568C2.34007 7.64972 2.29774 8.32062 2.2753 9.07423H21.7247C21.7023 8.32062 21.6599 7.64972 21.5801 7.05568C21.4049 5.75293 21.0325 4.67512 20.1787 3.8213C19.3249 2.96749 18.2471 2.59513 16.9443 2.41994Z" fill="currentColor"/><path d="M15.9004 16.8754C15.9004 14.7215 14.1543 12.9754 12.0004 12.9754C9.84648 12.9754 8.10039 14.7215 8.10039 16.8754C8.10039 17.4139 7.66387 17.8504 7.12539 17.8504C6.58691 17.8504 6.15039 17.4139 6.15039 16.8754C6.15039 13.6445 8.76952 11.0254 12.0004 11.0254C15.2313 11.0254 17.8504 13.6445 17.8504 16.8754C17.8504 17.4139 17.4139 17.8504 16.8754 17.8504C16.3369 17.8504 15.9004 17.4139 15.9004 16.8754Z" fill="currentColor"/><path d="M10.6212 15.9002L12 14.5214C12.3808 14.1406 12.9981 14.1406 13.3789 14.5214C13.7596 14.9021 13.7596 15.5195 13.3789 15.9002L12 17.2791C11.6193 17.6598 11.0019 17.6598 10.6212 17.2791C10.2404 16.8983 10.2404 16.281 10.6212 15.9002Z" fill="currentColor"/></svg>
