<svg xmlns="http://www.w3.org/2000/svg" viewBox="0 0 24 24" fill="none"><path d="M12.0674 2.25003C14.0766 2.25001 15.6836 2.25046 16.9443 2.41995C18.2471 2.59514 19.3249 2.96751 20.1787 3.82132C21.0325 4.67513 21.4049 5.75295 21.5801 7.0557C21.7496 8.31646 21.75 9.92347 21.75 11.9326V12.0674C21.75 14.0766 21.7496 15.6836 21.5801 16.9444C21.4049 18.2471 21.0325 19.3249 20.1787 20.1787C19.3249 21.0326 18.2471 21.4049 16.9443 21.5801C15.6836 21.7496 14.0766 21.7501 12.0674 21.75H11.9326C9.92344 21.7501 8.31643 21.7496 7.05566 21.5801C5.75292 21.4049 4.6751 21.0326 3.82129 20.1787C2.96748 19.3249 2.59511 18.2471 2.41992 16.9444C2.25043 15.6836 2.24998 14.0766 2.25 12.0674V11.9326C2.24998 9.92347 2.25043 8.31646 2.41992 7.0557C2.59511 5.75295 2.96748 4.67513 3.82129 3.82132C4.6751 2.96751 5.75292 2.59514 7.05566 2.41995C8.31643 2.25046 9.92344 2.25001 11.9326 2.25003H12.0674ZM4.22559 9.07425C4.20047 9.89166 4.19922 10.8522 4.19922 11.9991C4.19922 14.0948 4.20172 15.5689 4.35156 16.6836C4.49767 17.7701 4.76807 18.3687 5.19922 18.7998C5.63032 19.2308 6.22836 19.5004 7.31445 19.6465C8.42913 19.7964 9.90328 19.7989 11.999 19.7989C14.0948 19.7989 15.5689 19.7964 16.6836 19.6465C17.7701 19.5004 18.3687 19.231 18.7998 18.7998C19.231 18.3687 19.5004 17.7701 19.6465 16.6836C19.7963 15.5689 19.7988 14.0948 19.7988 11.9991C19.7988 10.8522 19.7976 9.89166 19.7725 9.07425H4.22559Z" fill="currentColor" fill-rule="evenodd" clip-rule="evenodd"/><path d="M15.9004 16.8754C15.9004 14.7215 14.1543 12.9754 12.0004 12.9754C9.84648 12.9754 8.10039 14.7215 8.10039 16.8754C8.10039 17.4139 7.66387 17.8504 7.12539 17.8504C6.58691 17.8504 6.15039 17.4139 6.15039 16.8754C6.15039 13.6445 8.76952 11.0254 12.0004 11.0254C15.2313 11.0254 17.8504 13.6445 17.8504 16.8754C17.8504 17.4139 17.4139 17.8504 16.8754 17.8504C16.3369 17.8504 15.9004 17.4139 15.9004 16.8754Z" fill="currentColor"/><path d="M10.6212 15.9002L12 14.5214C12.3808 14.1406 12.9981 14.1406 13.3789 14.5214C13.7596 14.9021 13.7596 15.5195 13.3789 15.9002L12 17.2791C11.6193 17.6598 11.0019 17.6598 10.6212 17.2791C10.2404 16.8983 10.2404 16.281 10.6212 15.9002Z" fill="currentColor"/></svg>
