<svg xmlns="http://www.w3.org/2000/svg" viewBox="0 0 24 24" fill="none"><path opacity="0.4" d="M5.127 5.28828C5.41387 5.2711 5.5573 5.2625 5.65116 5.34907C5.74503 5.43563 5.7482 5.58625 5.75454 5.88748C5.76883 6.56602 5.81574 7.30487 5.86492 8.07964L6.01079 10.3813C6.04195 10.8801 6.07543 11.4162 6.20899 11.9124C6.7199 13.8106 8.27373 15.2337 10.1881 15.6101C10.2138 15.6151 10.2396 15.6199 10.2654 15.6245C10.345 15.6385 10.3849 15.6455 10.4096 15.6545C10.5067 15.6899 10.5584 15.7428 10.5913 15.8408C10.5997 15.8658 10.6061 15.9083 10.6188 15.9933C10.6739 16.3603 10.89 17.3937 11.962 17.9592C12.3128 18.1442 12.6536 18.2251 12.9643 18.245C13.3689 18.271 13.5712 18.2839 13.6533 18.3777C13.7355 18.4714 13.7245 18.6326 13.7026 18.9549C13.6878 19.1723 13.6684 19.377 13.643 19.5694C13.5316 20.4126 13.2926 21.1312 12.7298 21.7043C12.165 22.2793 11.4539 22.5252 10.6193 22.6394C9.81954 22.7489 8.80474 22.7489 7.55528 22.7489H7.44497C6.19551 22.7489 5.18071 22.7489 4.38091 22.6394C3.54638 22.5252 2.83523 22.2793 2.27049 21.7043C1.70761 21.1312 1.4686 20.4126 1.35726 19.5694C1.25009 18.7578 1.2501 17.7269 1.25012 16.4525V11.5452C1.2501 10.2709 1.25009 9.23997 1.35726 8.42832C1.4686 7.58511 1.70761 6.86656 2.27049 6.29343C2.83523 5.71843 3.54638 5.47255 4.38091 5.35831C4.61157 5.32673 4.8601 5.30427 5.127 5.28828Z" fill="currentColor"/><path d="M6.49231 18.9998C6.49231 18.4475 6.93802 17.9998 7.48784 17.9998H7.49678C8.0466 17.9998 8.49231 18.4475 8.49231 18.9998C8.49231 19.552 8.0466 19.9998 7.49678 19.9998H7.48784C6.93802 19.9998 6.49231 19.552 6.49231 18.9998Z" fill="currentColor" fill-rule="evenodd" clip-rule="evenodd"/><path d="M12.6621 16.6337C13.077 16.8525 13.4714 16.7143 13.6826 16.6161C13.8818 16.5233 14.1092 16.374 14.3261 16.2313L17.3212 14.2635C17.3634 14.2454 17.49 14.2088 17.6581 14.2089C18.7313 14.2093 19.4708 14.21 20.0947 13.9784C21.174 13.5776 21.7853 12.8512 22.1171 12.0028C22.4291 11.2052 22.4906 10.3003 22.539 9.53698L22.6318 8.07702C22.7192 6.69882 22.7899 5.58543 22.7236 4.7069C22.6546 3.79348 22.431 3.01312 21.833 2.38561C21.2365 1.75989 20.4649 1.49406 19.5497 1.36998C18.6666 1.25029 17.5372 1.24985 16.1347 1.24987L13.8652 1.24987C12.4627 1.24985 11.3332 1.25028 10.4501 1.36998C9.53499 1.49406 8.7634 1.75987 8.16694 2.38561C7.56885 3.01312 7.34528 3.79348 7.27631 4.7069C7.20999 5.58543 7.2807 6.69881 7.36811 8.07702L7.50287 10.203C7.53913 10.7774 7.56465 11.1759 7.65815 11.5233C8.01793 12.86 9.11458 13.8714 10.4775 14.1395C10.832 14.2092 11.2343 14.209 11.8203 14.2089C11.9292 14.2139 12.0161 14.3029 12.0185 14.412C12.0257 14.7383 12.0464 15.3973 12.1025 15.7714C12.1373 16.0037 12.2426 16.4124 12.6621 16.6337ZM13.9824 11.1659C13.8907 11.5697 13.4888 11.8228 13.0849 11.7313C12.681 11.6397 12.4278 11.2378 12.5195 10.8339L12.9238 9.04967C12.959 8.89425 12.9767 8.81658 12.9599 8.74791C12.9431 8.67926 12.8828 8.60853 12.7626 8.46666C12.4368 8.08212 12.2544 7.65029 12.2499 7.17663C12.2437 6.49481 12.6137 5.94125 12.9619 5.56334C13.3213 5.17321 13.7543 4.86416 14.0781 4.66002C14.2435 4.5557 14.5698 4.3798 14.6747 4.32311C14.8796 4.22487 15.1183 4.22501 15.3232 4.32311L15.3339 4.32897C15.449 4.39105 15.7597 4.55909 15.9199 4.66002C16.2437 4.86408 16.6773 5.17231 17.0371 5.56237C17.3854 5.94013 17.7557 6.49379 17.7499 7.17565C17.746 7.62591 17.581 8.03814 17.2851 8.40807C17.1591 8.56548 17.0957 8.64471 17.082 8.71862C17.0683 8.79247 17.0946 8.87463 17.1464 9.03795L17.6972 10.7733C17.8222 11.168 17.6036 11.5895 17.2089 11.7147C16.8141 11.84 16.3928 11.6212 16.2675 11.2264L15.7499 9.59655C15.686 9.39505 15.6542 9.29407 15.5751 9.2362C15.4961 9.17833 15.3901 9.17858 15.1787 9.17858H14.9121C14.6824 9.17858 14.5674 9.17845 14.4853 9.24401C14.4033 9.30957 14.3779 9.42155 14.3271 9.64537L13.9824 11.1659Z" fill="currentColor" fill-rule="evenodd" clip-rule="evenodd"/></svg>
