<svg xmlns="http://www.w3.org/2000/svg" viewBox="0 0 24 24" fill="none"><path d="M7.5545 22.7491C8.80392 22.7491 9.81916 22.7492 10.619 22.6397C11.4535 22.5255 12.1646 22.2792 12.7293 21.7042C13.2921 21.1311 13.5311 20.4125 13.6424 19.5694C13.6678 19.3771 13.6872 19.1724 13.702 18.9551C13.7239 18.6329 13.7352 18.4717 13.6531 18.378C13.571 18.2843 13.3683 18.2711 12.9637 18.2452C12.653 18.2252 12.3124 18.144 11.9617 17.959C10.8899 17.3935 10.674 16.3602 10.619 15.9932C10.6062 15.9084 10.599 15.8659 10.5906 15.8409C10.5577 15.7431 10.506 15.6897 10.409 15.6544C10.3842 15.6454 10.3444 15.6389 10.2654 15.6251C10.2397 15.6205 10.2138 15.6154 10.1883 15.6104C8.27405 15.234 6.71984 13.8111 6.2088 11.9131C6.07527 11.417 6.04171 10.8806 6.01056 10.3819L5.86505 8.08014C5.81587 7.30537 5.76899 6.56629 5.7547 5.88776C5.74836 5.58688 5.74473 5.43628 5.65118 5.34967C5.55733 5.26312 5.41357 5.27097 5.12677 5.28815C4.85991 5.30413 4.61131 5.32689 4.38068 5.35846C3.54615 5.4727 2.83506 5.71901 2.27032 6.29401C1.70748 6.86712 1.46858 7.58559 1.35724 8.42877C1.25008 9.2404 1.2498 10.2717 1.24982 11.546L1.24982 16.4532C1.2498 17.7272 1.25011 18.7579 1.35724 19.5694C1.46857 20.4125 1.70755 21.1311 2.27032 21.7042C2.83506 22.2792 3.54615 22.5255 4.38068 22.6397C5.18047 22.7492 6.19571 22.7491 7.44513 22.7491H7.5545ZM7.48712 20.0001C6.9375 19.9998 6.492 19.5522 6.492 19.0001C6.492 18.4479 6.9375 18.0003 7.48712 18.0001H7.49689C8.04651 18.0003 8.492 18.4479 8.492 19.0001C8.492 19.5522 8.04651 19.9998 7.49689 20.0001H7.48712Z" fill="currentColor"/><path d="M12.6615 16.6333C13.0767 16.8524 13.4719 16.714 13.683 16.6158C13.882 16.5231 14.1089 16.3745 14.3255 16.232L17.3207 14.2632C17.3629 14.2451 17.4895 14.2085 17.6576 14.2085C18.7309 14.209 19.4702 14.2097 20.0941 13.9781C21.1735 13.5773 21.7848 12.8509 22.1166 12.0025C22.4284 11.205 22.491 10.3008 22.5394 9.53763L22.6312 8.0767C22.7186 6.69884 22.7893 5.58595 22.723 4.70756C22.6541 3.79428 22.4312 3.01374 21.8334 2.38627C21.2369 1.76051 20.4652 1.49377 19.5502 1.36967C18.667 1.24992 17.5369 1.2505 16.1341 1.25052L13.8656 1.25052C12.4628 1.2505 11.3328 1.24993 10.4496 1.36967C9.53436 1.49375 8.76286 1.76043 8.16637 2.38627C7.5684 3.01377 7.3447 3.79418 7.27574 4.70756C7.20946 5.58604 7.28014 6.69962 7.36754 8.07767L7.50231 10.2036C7.53856 10.7779 7.56409 11.1766 7.65758 11.524C8.01746 12.8606 9.11498 13.8712 10.4779 14.1392C10.8323 14.2088 11.2348 14.2087 11.8207 14.2085C11.9294 14.2138 12.0155 14.3028 12.0179 14.4117C12.0252 14.7379 12.0458 15.3978 12.1019 15.772C12.1368 16.0043 12.2423 16.412 12.6615 16.6333ZM13.9818 11.1656C13.8901 11.5695 13.4883 11.8227 13.0843 11.731C12.6806 11.6393 12.4275 11.2383 12.5189 10.8345L12.9242 9.05033C12.9594 8.89512 12.9769 8.81715 12.9603 8.74857C12.9435 8.6799 12.8833 8.60825 12.763 8.46634C12.4372 8.08171 12.2547 7.6501 12.2504 7.17631C12.2442 6.49448 12.6131 5.94089 12.9613 5.56302C13.3209 5.17276 13.7547 4.86481 14.0785 4.66068C14.2438 4.55644 14.5689 4.38059 14.6742 4.32377C14.8792 4.22541 15.1185 4.22545 15.3236 4.32377L15.3343 4.32963C15.4495 4.39174 15.7591 4.55879 15.9193 4.6597C16.2432 4.86378 16.6767 5.17293 17.0365 5.56302C17.3849 5.94084 17.7553 6.49432 17.7494 7.17631C17.7454 7.62664 17.5806 8.03875 17.2845 8.40873C17.1589 8.56573 17.0963 8.64455 17.0824 8.7183C17.0687 8.79217 17.0941 8.87433 17.1459 9.03763L17.6966 10.773C17.8219 11.1678 17.6032 11.5901 17.2084 11.7154C16.8137 11.8404 16.3923 11.6217 16.267 11.2271L15.7494 9.5972C15.6854 9.39553 15.6536 9.29476 15.5746 9.23685C15.4955 9.17896 15.3897 9.17826 15.1781 9.17826H14.9115C14.682 9.17826 14.5668 9.17913 14.4847 9.24466C14.403 9.31028 14.3773 9.42238 14.3265 9.64603L13.9818 11.1656Z" fill="currentColor" fill-rule="evenodd" clip-rule="evenodd"/></svg>
