<svg xmlns="http://www.w3.org/2000/svg" fill="none" viewBox="0 0 48 48">
  <g>
    <path fill="currentColor" fill-opacity="0.4" d="M17.0071 2.48956c-2.5298 0.24005 -4.3922 2.24227 -4.5556 4.77822C12.2348 10.6321 12 16.1004 12 24c0 7.8996 0.2348 13.3679 0.4515 16.7322 0.1634 2.536 2.0258 4.5382 4.5556 4.7782C19.6419 45.7604 23.5805 46 29 46s9.3581 -0.2396 11.9929 -0.4896c2.5298 -0.24 4.3922 -2.2422 4.5556 -4.7782C45.7652 37.3679 46 31.8996 46 24c0 -7.8996 -0.2348 -13.3679 -0.4515 -16.73222 -0.1634 -2.53595 -2.0258 -4.53817 -4.5556 -4.77822C38.3581 2.23956 34.4195 2 29 2s-9.3581 0.23956 -11.9929 0.48956Z" stroke-width="1"></path>
    <path fill="#8fbffa" fill-rule="evenodd" d="M30 20c3.3137 0 6 -2.6863 6 -6s-2.6863 -6 -6 -6 -6 2.6863 -6 6c0 1.6447 0.6618 3.1349 1.7336 4.2188 -0.8889 -0.8891 -1.8886 -1.8334 -2.9726 -2.7691 -1.1278 -0.9738 -2.5452 -1.5484 -4.0332 -1.6272 -2.7637 -0.1465 -5.5637 -0.0656 -7.4455 0.0296C9.98831 13.9176 9 14.9947 9 16.2904v0.9351c0 1.5665 1.2034 2.8704 2.7636 3.0116 1.5457 0.14 3.5634 0.3351 5.5815 0.5659 0.7499 0.0857 1.1284 0.9397 0.6883 1.553 -1.6344 2.2772 -4.9404 6.8177 -6.7235 8.8087 -0.1953 0.2181 -0.4782 0.3269 -0.7704 0.3106l-5.90083 -0.3278C3.20567 31.0679 2 32.2084 2 33.6437v1.0749c0 1.2927 0.98583 2.3723 2.27318 2.4896 3.30594 0.3012 5.94672 0.5408 7.42482 0.6748 0.8468 0.0767 1.6962 -0.1163 2.417 -0.5675 2.5287 -1.5826 4.8847 -3.2336 4.8847 -3.2336 1.7093 1.2825 2.5358 2.2721 2.847 2.695 0.1057 0.1435 0.1533 0.3172 0.1533 0.4954v6.229c0 1.3807 1.1193 2.4996 2.5 2.4996h1.2162c1.2933 0 2.3735 -0.9869 2.4867 -2.2753 0.3429 -3.9054 0.6076 -7.2165 0.7272 -8.7426 0.0466 -0.5948 -0.0345 -1.1934 -0.2866 -1.7342 -0.8189 -1.7571 -1.9621 -3.3493 -2.4305 -3.9712 -0.1366 -0.1814 -0.213 -0.4004 -0.213 -0.6275V28.5l3 1c2.3865 0.1917 5.7906 0.2367 8.6661 -0.1015C39.0456 29.2362 40 28.0207 40 26.6317v-0.8381c0 -1.4884 -1.2928 -2.6581 -2.7796 -2.5896 -1.8532 0.0855 -4.38 0.1135 -6.7757 -0.1505 -0.2644 -0.0292 -0.5032 -0.1657 -0.6705 -0.3725 -0.5585 -0.6908 -1.9933 -2.4107 -3.9976 -4.4192C26.8609 19.3363 28.3529 20 30 20Z" clip-rule="evenodd" stroke-width="1"></path>
    <path stroke="currentColor" stroke-linejoin="round" d="M9 17.2255c0 1.5665 1.2034 2.8704 2.7636 3.0116 1.5457 0.14 3.5634 0.3351 5.5815 0.5659 0.7499 0.0857 1.1284 0.9397 0.6883 1.553 -1.6344 2.2772 -4.9404 6.8177 -6.7235 8.8087 -0.1953 0.2181 -0.4782 0.3269 -0.7704 0.3106l-5.90083 -0.3278C3.20567 31.0679 2 32.2084 2 33.6437v1.0749c0 1.2927 0.98583 2.3723 2.27318 2.4896 3.30594 0.3012 5.94672 0.5408 7.42482 0.6748 0.8468 0.0767 1.6962 -0.1163 2.417 -0.5675 2.5287 -1.5826 4.8847 -3.2336 4.8847 -3.2336 1.7093 1.2825 2.5358 2.2721 2.847 2.695 0.1057 0.1435 0.1533 0.3172 0.1533 0.4954l0 6.229c0 1.3807 1.1193 2.4996 2.5 2.4996h1.2162c1.2933 0 2.3735 -0.9869 2.4867 -2.2753 0.3429 -3.9054 0.6076 -7.2165 0.7272 -8.7426 0.0466 -0.5948 -0.0345 -1.1934 -0.2866 -1.7342 -0.8189 -1.7571 -1.9621 -3.3493 -2.4305 -3.9712 -0.1366 -0.1814 -0.213 -0.4004 -0.213 -0.6275V28.5l3 1c2.3865 0.1917 5.7906 0.2367 8.6661 -0.1015C39.0456 29.2362 40 28.0207 40 26.6317v-0.8381c0 -1.4884 -1.2928 -2.6581 -2.7796 -2.5896 -1.8532 0.0855 -4.38 0.1135 -6.7757 -0.1505 -0.2644 -0.0292 -0.5032 -0.1657 -0.6705 -0.3725 -0.8092 -1.0009 -3.4578 -4.162 -7.0132 -7.2313 -1.1278 -0.9738 -2.5452 -1.5484 -4.0332 -1.6272 -2.7637 -0.1465 -5.5637 -0.0656 -7.4455 0.0296C9.98831 13.9176 9 14.9947 9 16.2904v0.9351Z" stroke-width="1"></path>
    <path stroke="currentColor" stroke-linejoin="round" d="M24 14a6 6 0 1 0 12 0 6 6 0 1 0 -12 0" stroke-width="1"></path>
    <path stroke="currentColor" stroke-linecap="round" d="M32.9993 45.9538c3.4146 -0.0815 6.055 -0.2595 7.9915 -0.4432 2.5298 -0.2399 4.3943 -2.2424 4.5576 -4.7784C45.7652 37.3679 46 31.8996 46 24c0 -7.8996 -0.2348 -13.3679 -0.4516 -16.73222 -0.1633 -2.53595 -2.0257 -4.53817 -4.5555 -4.77822C38.3581 2.23956 34.4195 2 29 2s-9.3581 0.23956 -11.9929 0.48956c-2.5298 0.24005 -4.3925 2.24564 -4.5558 4.78159 -0.0338 0.52473 -0.068 1.1006 -0.1017 1.72885" stroke-width="1"></path>
  </g>
</svg>
