<svg xmlns="http://www.w3.org/2000/svg" fill="none" viewBox="0 0 48 48">
  <g>
    <path fill="currentColor" fill-rule="evenodd" d="M10.5 24c0 -7.9292 0.2357 -13.4297 0.4547 -16.82864 0.2086 -3.23867 2.6154 -5.8624 5.9107 -6.17509C19.5503 0.741504 23.5364 0.5 29 0.5c5.4636 0 9.4497 0.241503 12.1346 0.49627 3.2953 0.31269 5.7021 2.93642 5.9107 6.1751C47.2643 10.5703 47.5 16.0708 47.5 24s-0.2357 13.4297 -0.4547 16.8286c-0.2086 3.2387 -2.6154 5.8624 -5.9107 6.1751 -2.6849 0.2548 -6.671 0.4963 -12.1346 0.4963 -5.4636 0 -9.4497 -0.2415 -12.1346 -0.4963 -3.2953 -0.3127 -5.7021 -2.9364 -5.9107 -6.1751C10.7357 37.4297 10.5 31.9292 10.5 24Z" clip-rule="evenodd" stroke-width="1"></path>
    <path fill="currentColor" fill-opacity="0.4" fill-rule="evenodd" d="M31 5.5c-3.5899 0 -6.5 2.91015 -6.5 6.5 0 3.5899 2.9101 6.5 6.5 6.5s6.5 -2.9101 6.5 -6.5c0 -3.58985 -2.9101 -6.5 -6.5 -6.5ZM17.8759 33.7763l0.11 -0.076c1.4771 1.1465 2.1936 2.0136 2.4582 2.373 0.0321 0.0437 0.0559 0.1088 0.0559 0.199v6.7305c0 1.3813 1.1199 2.4981 2.5 2.4981h1.7162c1.5518 0 2.8489 -1.1842 2.9848 -2.7315 0.3431 -3.9075 0.6079 -7.2203 0.7276 -8.7473 0.0521 -0.6646 -0.0371 -1.3521 -0.3319 -1.9845 -0.7182 -1.541 -1.6747 -2.9511 -2.2349 -3.7233l1.9801 0.66c0.0382 0.0128 0.0779 0.0209 0.1181 0.0241 2.4094 0.1935 5.8478 0.2397 8.7645 -0.1034 1.6631 -0.1956 2.7755 -1.6541 2.7755 -3.2633v-1.3958c0 -1.4916 -1.2902 -2.6407 -2.7518 -2.5594 -1.8701 0.1041 -4.6436 0.1671 -7.2487 -0.12 -0.1263 -0.0139 -0.2475 -0.0799 -0.3365 -0.1899 -0.8184 -1.0123 -3.4882 -4.1987 -7.0752 -7.2954 -1.2111 -1.0456 -2.7339 -1.6633 -4.3335 -1.748 -3.0238 -0.1603 -6.0847 -0.0507 -7.95783 0.0541C8.48797 12.4505 7.5 13.5395 7.5 14.8325v1.393c0 1.828 1.40349 3.3452 3.2185 3.5096 1.5435 0.1398 3.557 0.3345 5.5698 0.5646 0.3708 0.0424 0.5566 0.4614 0.3389 0.7647 -1.6402 2.2852 -4.9287 6.8003 -6.68979 8.7668 -0.08734 0.0975 -0.21945 0.1533 -0.37021 0.1449l-6.42853 -0.3571C1.70567 29.5393 0.5 30.6799 0.5 32.1151v1.6035c0 1.5513 1.18301 2.8468 2.72781 2.9875 3.30603 0.3012 5.9469 0.5409 7.42499 0.6748 0.9517 0.0863 1.9107 -0.1304 2.7275 -0.6415 1.2708 -0.7954 2.4971 -1.6072 3.4049 -2.2197 0.4542 -0.3063 0.8291 -0.5631 1.0907 -0.7434Z" clip-rule="evenodd" stroke-width="1"></path>
  </g>
</svg>
