<svg xmlns="http://www.w3.org/2000/svg" fill="none" viewBox="0 0 48 48">
  <g>
    <path fill="currentColor" fill-rule="evenodd" d="M17.4599 1.4918C20.1114 1.24021 24.0658 1 29.5 1c5.4342 0 9.3886 0.24021 12.0401 0.4918 2.785 0.26426 4.8289 2.47365 5.0073 5.24384C46.7649 10.1115 47 15.5906 47 23.5s-0.2351 13.3885 -0.4526 16.7644c-0.1784 2.7701 -2.2223 4.9795 -5.0073 5.2438 -2.6089 0.2476 -6.4794 0.4841 -11.7798 0.4916 -0.8388 0.6303 -1.8802 1.0011 -3.0009 1.0011H25.5c-1.2178 0 -2.3342 -0.4352 -3.2017 -1.1589 -1.9374 -0.0907 -3.5433 -0.2109 -4.8384 -0.3338 -2.785 -0.2643 -4.8289 -2.4737 -5.0073 -5.2438 -0.0184 -0.2851 -0.0369 -0.5852 -0.0553 -0.9005 -1.4632 -0.1326 -3.96461 -0.3596 -7.07717 -0.6432C2.87518 38.498 1 36.4478 1 33.9904v-1.0825c0 -2.7269 2.29077 -4.8939 5.01348 -4.7427l5.12772 0.2849c0.27 -0.3256 0.5658 -0.7017 0.8781 -1.1125C12.0068 26.1281 12 24.8494 12 23.5c0 -0.7175 0.0019 -1.4149 0.0056 -2.0926C9.75058 20.8971 8 18.9062 8 16.4488v-0.6835c0 -2.4496 1.78587 -4.5639 4.2364 -4.8881 0.0676 -1.62765 0.1429 -3.004 0.2162 -4.14156 0.1784 -2.77019 2.2223 -4.97958 5.0073 -5.24384Zm2.6634 13.3293c-2.5906 -0.1358 -5.3172 -0.073 -7.2777 0.0142 -0.4512 0.0201 -0.8456 0.3974 -0.8456 0.93v0.6835c0 0.548 0.4665 1.0661 1.1093 1.0851 1.4097 0.0419 3.1734 0.1279 5.0006 0.3024 2.2639 0.2161 3.4094 2.7464 2.1913 4.5949 -1.4677 2.2271 -4.6182 6.9268 -6.4919 9.054 -0.6301 0.7154 -1.5251 1.0346 -2.3808 0.987l-5.6369 -0.3131c-0.4299 -0.0239 -0.7916 0.3183 -0.7916 0.7488v1.0825c0 0.3866 0.29578 0.7116 0.68302 0.7468 3.19876 0.2914 5.75188 0.5231 7.19548 0.654 0.4364 0.0395 0.8257 -0.0621 1.1204 -0.2577 2.0545 -1.3638 4.0137 -2.9899 4.5576 -3.4496 0.8023 -0.6779 1.9793 -0.7168 2.8261 -0.0628 2.0765 1.6037 2.7812 2.9619 3.0106 3.7187 0.0952 0.3141 0.1068 0.5855 0.1068 0.7443v5.9181c0 0.5512 0.4466 0.9987 1 0.9987h1.2594c0.518 0 0.9464 -0.395 0.9909 -0.9048 0.3229 -3.6985 0.5713 -6.8068 0.6859 -8.2694 0.0257 -0.3274 -0.0271 -0.5429 -0.0924 -0.6725 -0.7453 -1.4805 -1.9669 -2.8924 -2.5256 -3.4948 -0.506 -0.5456 -0.8182 -1.2781 -0.8182 -2.0727 0 -1.5266 1.6065 -2.5195 2.972 -1.8368l1.8806 0.9403c0.4753 0.2377 0.9336 0.3582 1.3552 0.3677 1.9928 0.0451 4.5134 -0.1592 6.7718 -0.5104 0.5396 -0.0839 1.0204 -0.5848 1.0204 -1.3107v-0.3084c0 -0.5793 -0.5619 -1.2094 -1.3622 -1.1869 -1.5528 0.0438 -3.4896 0.0173 -5.5136 -0.2125 -0.6912 -0.0785 -1.317 -0.3929 -1.7897 -0.8707 -0.8206 -0.8292 -3.716 -3.702 -7.3305 -6.6862 -0.8388 -0.6926 -1.8468 -1.0968 -2.8807 -1.151ZM32 19c2.7614 0 5 -2.2386 5 -5s-2.2386 -5 -5 -5 -5 2.2386 -5 5 2.2386 5 5 5Z" clip-rule="evenodd" stroke-width="1"></path>
  </g>
</svg>
