<svg xmlns="http://www.w3.org/2000/svg" fill="none" viewBox="0 0 48 48">
  <g>
    <path fill="currentColor" fill-rule="evenodd" d="M17.886 11.8267c-2.6254 -0.1392 -5.2572 -0.083 -7.1692 0.0014 0.0728 -1.85145 0.1562 -3.39817 0.2373 -4.65674 0.2086 -3.23867 2.6154 -5.8624 5.9108 -6.17509C19.5498 0.741504 23.5358 0.5 28.9994 0.5c5.4637 0 9.4497 0.241503 12.1346 0.49627 3.2954 0.31269 5.7022 2.93642 5.9108 6.1751 0.2189 3.39893 0.4546 8.89943 0.4546 16.82863s-0.2357 13.4297 -0.4546 16.8286c-0.2086 3.2387 -2.6154 5.8624 -5.9108 6.1751 -2.6311 0.2497 -6.5117 0.4866 -11.8079 0.496 0.4759 -0.7314 0.7834 -1.5859 0.8647 -2.5116 0.344 -3.9177 0.6095 -7.2388 0.7296 -8.7707 0.0636 -0.8122 -0.0068 -1.701 -0.2993 -2.5837 2.0402 0.0469 4.3246 -0.0123 6.3949 -0.2558 3.0868 -0.3631 4.9834 -3.0423 4.9834 -5.7462v-1.3958c0 -3.0002 -2.5702 -5.2125 -5.3907 -5.0555 -0.0644 0.0036 -0.1299 0.0071 -0.1964 0.0106 2.1787 -1.6426 3.5871 -4.2523 3.5871 -7.191 0 -4.97056 -4.0294 -9 -9 -9 -4.6387 0 -8.4577 3.50934 -8.947 8.0179 -1.2718 -0.7005 -2.6939 -1.1132 -4.1664 -1.1912ZM24.5 14c0 -3.5899 2.9101 -6.5 6.5 -6.5s6.5 2.9101 6.5 6.5 -2.9101 6.5 -6.5 6.5 -6.5 -2.9101 -6.5 -6.5Zm-6.5141 21.7003 -0.11 0.076c-0.2616 0.1803 -0.6365 0.4371 -1.0907 0.7434 -0.9078 0.6125 -2.1341 1.4243 -3.4049 2.2197 -0.8168 0.5111 -1.7758 0.7278 -2.7275 0.6415 -1.47809 -0.1339 -4.11896 -0.3736 -7.42499 -0.6748C1.68301 38.5654 0.5 37.2699 0.5 35.7186v-1.6035c0 -1.4352 1.20567 -2.5758 2.63867 -2.4961l6.42853 0.3571c0.15076 0.0084 0.28287 -0.0474 0.37021 -0.1449 1.76109 -1.9665 5.04959 -6.4816 6.68979 -8.7668 0.2177 -0.3033 0.0319 -0.7223 -0.3389 -0.7647 -2.0128 -0.2301 -4.0263 -0.4248 -5.5698 -0.5646C8.90349 21.5707 7.5 20.0535 7.5 18.2255v-1.393c0 -1.293 0.98797 -2.382 2.29647 -2.4552 1.87313 -0.1048 4.93403 -0.2144 7.95783 -0.0541 1.5996 0.0847 3.1224 0.7024 4.3335 1.748 3.587 3.0967 6.2568 6.2831 7.0752 7.2954 0.089 0.11 0.2102 0.176 0.3365 0.1899 2.6051 0.2871 5.3786 0.2241 7.2487 0.12 1.4616 -0.0813 2.7518 1.0678 2.7518 2.5594v1.3958c0 1.6092 -1.1124 3.0677 -2.7755 3.2633 -2.9167 0.3431 -6.3551 0.2969 -8.7645 0.1034 -0.0402 -0.0032 -0.0799 -0.0113 -0.1181 -0.0241l-1.9801 -0.66c0.5602 0.7722 1.5167 2.1823 2.2349 3.7233 0.2948 0.6324 0.384 1.3199 0.3319 1.9845 -0.1197 1.527 -0.3845 4.8398 -0.7276 8.7473 -0.1359 1.5473 -1.433 2.7315 -2.9848 2.7315H23c-1.3801 0 -2.5 -1.1168 -2.5 -2.4981v-6.7305c0 -0.0902 -0.0238 -0.1553 -0.0559 -0.199 -0.2646 -0.3594 -0.9811 -1.2265 -2.4582 -2.373Z" clip-rule="evenodd" stroke-width="1"></path>
  </g>
</svg>
