<svg xmlns="http://www.w3.org/2000/svg" viewBox="0 0 24 24" fill="none"><path d="M19 8.25C20.7949 8.25 22.25 6.79493 22.25 5C22.25 3.20507 20.7949 1.75 19 1.75C17.2051 1.75 15.75 3.20507 15.75 5C15.75 6.79493 17.2051 8.25 19 8.25Z" fill="currentColor"/><path opacity="0.4" d="M12 1.75C13.1853 1.75 14.3228 1.95317 15.3818 2.32324C14.8275 3.07127 14.5 3.99747 14.5 5C14.5 7.48528 16.5147 9.5 19 9.5C20.0025 9.5 20.9278 9.17143 21.6758 8.61719C22.0461 9.67652 22.25 10.8143 22.25 12C22.25 17.6609 17.6609 22.25 12 22.25C10.2448 22.25 8.59046 21.8084 7.14453 21.0293C6.38511 20.6201 5.78228 20.6112 5.23633 20.7139C4.94458 20.7688 4.66731 20.8556 4.3584 20.9531L4.34082 20.959C4.05369 21.0496 3.7164 21.1558 3.37793 21.207C2.95556 21.2709 2.5542 21.1147 2.2793 20.8398C1.8481 20.4083 1.80203 19.788 2.00293 19.3145L2.07617 19.1318C2.43613 18.1714 2.70956 16.5536 2.27148 15.2363C1.9329 14.2181 1.75 13.1296 1.75 12C1.75 6.33908 6.33908 1.75 12 1.75Z" fill="currentColor"/><path d="M7.99805 11C8.55033 11 8.99805 11.4477 8.99805 12C8.99805 12.5523 8.55033 13 7.99805 13C7.44576 13 6.99805 12.5523 6.99805 12C6.99805 11.4477 7.44576 11 7.99805 11ZM12.1006 11.0049C12.6051 11.0559 12.999 11.4821 12.999 12C12.999 12.5522 12.5512 12.9999 11.999 13C11.4814 13 11.0552 12.6067 11.0039 12.1025L10.999 12L11.0039 11.8975C11.0552 11.3933 11.4814 11 11.999 11L12.1006 11.0049ZM15.998 11C16.5503 11 16.998 11.4477 16.998 12C16.998 12.5523 16.5503 13 15.998 13C15.4458 13 14.998 12.5523 14.998 12C14.998 11.4477 15.4458 11 15.998 11Z" fill="currentColor"/></svg>
