<svg xmlns="http://www.w3.org/2000/svg" viewBox="0 0 24 24" fill="none"><path opacity="0.4" d="M21.7129 21.1805C21.754 20.9739 21.75 20.7427 21.75 20.4999C21.75 20.257 21.754 20.0258 21.7129 19.8192C21.559 19.0458 20.9541 18.4409 20.1806 18.287C19.974 18.2459 19.7428 18.2499 19.5 18.2499H4.49998C4.25714 18.2499 4.02595 18.2459 3.81932 18.287C3.0459 18.4409 2.441 19.0458 2.28709 19.8192C2.24599 20.0258 2.24998 20.257 2.24998 20.4999C2.24998 20.7427 2.24599 20.9739 2.28709 21.1805C2.441 21.9539 3.0459 22.5588 3.81932 22.7128C4.02595 22.7539 4.25714 22.7499 4.49998 22.7499H19.5C19.7428 22.7499 19.974 22.7539 20.1806 22.7128C20.9541 22.5588 21.559 21.9539 21.7129 21.1805Z" fill="currentColor"/><path opacity="0.4" d="M20.3642 8.74988C21.1295 8.74966 21.7497 8.12936 21.75 7.36414C21.75 6.87293 21.4898 6.41787 21.0664 6.16882L13.3115 1.6073C12.9141 1.37352 12.4611 1.24988 12 1.24988C11.5389 1.24988 11.0859 1.37352 10.6884 1.6073L2.93356 6.16882C2.56311 6.38674 2.31724 6.76205 2.26169 7.18152L2.24997 7.36414L2.25681 7.50574C2.32789 8.20446 2.91828 8.74967 3.63571 8.74988H20.3642Z" fill="currentColor"/><path d="M17.9998 9.99988C18.5521 9.99988 18.9998 10.4476 18.9998 10.9999V18.2499H16.9998V10.9999C16.9998 10.4476 17.4476 9.99994 17.9998 9.99988Z" fill="currentColor"/><path d="M13.9998 9.99988C14.5521 9.99988 14.9998 10.4476 14.9998 10.9999V18.2499H12.9998V10.9999C12.9998 10.4476 13.4476 9.99994 13.9998 9.99988Z" fill="currentColor"/><path d="M9.99985 9.99988C10.5521 9.99988 10.9998 10.4476 10.9998 10.9999V18.2499H8.99985V10.9999C8.99985 10.4476 9.44762 9.99994 9.99985 9.99988Z" fill="currentColor"/><path d="M5.99985 9.99988C6.55213 9.99988 6.99985 10.4476 6.99985 10.9999V18.2499H4.99985V10.9999C4.99985 10.4476 5.44762 9.99994 5.99985 9.99988Z" fill="currentColor"/></svg>
