<svg xmlns="http://www.w3.org/2000/svg" viewBox="0 0 24 24" fill="none"><path d="M21.7125 21.1805C21.7536 20.9739 21.7496 20.7427 21.7496 20.4999C21.7496 20.257 21.7536 20.0258 21.7125 19.8192C21.5586 19.0458 20.9537 18.4409 20.1803 18.287C19.9736 18.2459 19.7425 18.2499 19.4996 18.2499H4.49962C4.25677 18.2499 4.02558 18.2459 3.81895 18.287C3.04554 18.4409 2.44064 19.0458 2.28673 19.8192C2.24563 20.0258 2.24962 20.257 2.24962 20.4999C2.24962 20.7427 2.24563 20.9739 2.28673 21.1805C2.44064 21.9539 3.04554 22.5588 3.81895 22.7128C4.02558 22.7539 4.25677 22.7499 4.49962 22.7499H19.4996C19.7425 22.7499 19.9737 22.7539 20.1803 22.7128C20.9537 22.5588 21.5586 21.9539 21.7125 21.1805Z" fill="currentColor"/><path d="M20.3639 8.74988C21.1291 8.74966 21.7494 8.12936 21.7496 7.36414C21.7496 6.87293 21.4894 6.41787 21.066 6.16882L13.3111 1.6073C12.9137 1.37352 12.4607 1.24988 11.9996 1.24988C11.5385 1.24988 11.0855 1.37352 10.6881 1.6073L2.9332 6.16882C2.56274 6.38674 2.31687 6.76205 2.26132 7.18152L2.2496 7.36414L2.25644 7.50574C2.32753 8.20446 2.91791 8.74967 3.63535 8.74988H20.3639Z" fill="currentColor"/><path d="M4.9996 18.9999V10.9999C4.9996 10.4476 5.44732 9.99988 5.9996 9.99988C6.55189 9.99988 6.9996 10.4476 6.9996 10.9999V18.9999C6.9996 19.5522 6.55189 19.9999 5.9996 19.9999C5.44732 19.9999 4.9996 19.5522 4.9996 18.9999ZM8.9996 18.9999V10.9999C8.9996 10.4476 9.44732 9.99988 9.9996 9.99988C10.5519 9.99988 10.9996 10.4476 10.9996 10.9999V18.9999C10.9996 19.5522 10.5519 19.9999 9.9996 19.9999C9.44732 19.9999 8.9996 19.5522 8.9996 18.9999ZM12.9996 18.9999V10.9999C12.9996 10.4476 13.4473 9.99988 13.9996 9.99988C14.5519 9.99988 14.9996 10.4476 14.9996 10.9999V18.9999C14.9996 19.5522 14.5519 19.9999 13.9996 19.9999C13.4473 19.9999 12.9996 19.5522 12.9996 18.9999ZM16.9996 18.9999V10.9999C16.9996 10.4476 17.4473 9.99988 17.9996 9.99988C18.5519 9.99988 18.9996 10.4476 18.9996 10.9999V18.9999C18.9996 19.5522 18.5519 19.9999 17.9996 19.9999C17.4473 19.9999 16.9996 19.5522 16.9996 18.9999Z" fill="currentColor"/></svg>
