<svg xmlns="http://www.w3.org/2000/svg" viewBox="0 0 24 24" fill="none"><path opacity="0.4" d="M21.75 14.7302V14.6859V14.6535C21.75 13.9039 21.75 13.2786 21.6953 12.7755C21.6382 12.2503 21.5136 11.7655 21.2012 11.3405C21.0442 11.127 20.8581 10.9375 20.6484 10.7776C20.2311 10.4595 19.755 10.3326 19.2393 10.2744C18.7452 10.2187 18.1311 10.2187 17.395 10.2188H17.3633H6.63672H6.60496C5.86885 10.2187 5.2548 10.2187 4.76074 10.2744C4.24498 10.3326 3.76894 10.4595 3.35156 10.7776C3.14194 10.9375 2.95581 11.127 2.79883 11.3405C2.48639 11.7655 2.3618 12.2503 2.30469 12.7755C2.24998 13.2786 2.24999 13.904 2.25 14.6536V14.6859V14.7303C2.24999 16.0591 2.24998 17.1199 2.3418 17.9647C2.43631 18.8338 2.63565 19.5667 3.09766 20.1952C3.34054 20.5256 3.62868 20.8191 3.95313 21.0664C4.57032 21.5369 5.2901 21.7399 6.14356 21.8361C6.97306 21.9296 8.01479 21.9296 9.31974 21.9296H9.36328H14.6367H14.6803C15.9852 21.9296 17.0269 21.9296 17.8564 21.8361C18.7099 21.7399 19.4297 21.5369 20.0469 21.0664C20.3713 20.8191 20.6595 20.5256 20.9023 20.1952C21.3643 19.5667 21.5637 18.8338 21.6582 17.9647C21.75 17.1199 21.75 16.0591 21.75 14.7302Z" fill="currentColor"/><path d="M14 14.0371C14.5523 14.0371 15 14.493 15 15.0554C15 15.6179 14.5523 16.0738 14 16.0738H10C9.44772 16.0738 9 15.6179 9 15.0554C9 14.493 9.44772 14.0371 10 14.0371H14Z" fill="currentColor"/><path d="M6.45429 3.26022C6.77359 2.07749 8.25839 1.6648 9.13984 2.54421L9.22675 2.63669L11.0109 4.69225C12.0558 3.11702 13.8537 2.07399 15.8996 2.07382C19.1306 2.07382 21.7502 4.6724 21.7502 7.87753C21.7502 9.00811 21.4224 10.0644 20.8576 10.9574C20.7907 10.8949 20.7215 10.8349 20.6486 10.7794C20.2313 10.4613 19.7551 10.3344 19.2394 10.2762C19.1573 10.2669 19.0714 10.2607 18.9826 10.2543C18.9949 10.2355 19.0079 10.2169 19.0217 10.1986C19.5111 9.55215 19.8 8.7495 19.8 7.87753C19.8 5.74078 18.0536 4.00806 15.8996 4.00806C15.0827 4.00816 14.3246 4.25871 13.6975 4.68529L14.1115 4.64651L14.2385 4.63855C15.5328 4.60446 16.274 6.02231 15.6994 7.075L14.2482 9.72923L14.4621 10.2205H12.3478C12.2126 9.79743 12.2492 9.32933 12.468 8.92868L13.7258 6.62649L11.2277 6.87014C10.6931 6.92221 10.1825 6.70383 9.84589 6.31622L8.2082 4.42972L7.73164 6.89003C7.63452 7.39 7.30535 7.83293 6.81855 8.05455L4.5207 9.09874L5.92597 9.95497C6.04239 10.026 6.13813 10.1182 6.2121 10.2225C5.64764 10.224 5.16431 10.2307 4.76093 10.2762C4.28321 10.3301 3.84001 10.4436 3.4455 10.7128L3.04121 10.4671C1.96942 9.81368 1.95602 8.13927 3.19257 7.57621L5.84687 6.36694L6.42695 3.38155L6.45429 3.26022Z" fill="currentColor"/></svg>
