<svg xmlns="http://www.w3.org/2000/svg" viewBox="0 0 24 24" fill="none"><path d="M6.45459 3.25794C6.77401 2.07547 8.25775 1.663 9.13916 2.54212L9.22607 2.63489L11.0103 4.69056C12.0552 3.11509 13.8537 2.07142 15.8999 2.07142C19.1308 2.07145 21.7494 4.67007 21.7495 7.87513C21.7495 9.0064 21.4223 10.0638 20.8569 10.9572C20.9823 11.0745 21.0985 11.2019 21.2007 11.3409C21.513 11.7659 21.6377 12.2504 21.6948 12.7755C21.7495 13.2786 21.7495 13.904 21.7495 14.6534V14.7306C21.7495 16.0593 21.7495 17.1203 21.6577 17.965C21.5632 18.834 21.3638 19.567 20.9019 20.1954C20.659 20.5258 20.3708 20.8192 20.0464 21.0665C19.4292 21.537 18.7094 21.7398 17.856 21.8361C17.0265 21.9296 15.9849 21.9298 14.6802 21.9298H9.31885C8.01409 21.9298 6.97249 21.9296 6.14307 21.8361C5.28963 21.7398 4.56983 21.537 3.95264 21.0665C3.62821 20.8192 3.34004 20.5258 3.09717 20.1954C2.63521 19.567 2.43583 18.834 2.34131 17.965C2.2495 17.1203 2.2495 16.0593 2.24951 14.7306V14.6534C2.2495 13.904 2.2495 13.2786 2.3042 12.7755C2.36132 12.2504 2.48604 11.7659 2.79834 11.3409C2.95532 11.1275 3.14146 10.9373 3.35107 10.7775C3.38182 10.754 3.41345 10.7325 3.44482 10.7111L3.04053 10.465C1.96909 9.81148 1.95576 8.13751 3.19189 7.57435L5.84717 6.36536L6.42627 3.37903L6.45459 3.25794ZM9.99951 14.0372C9.44724 14.0372 8.99953 14.4934 8.99951 15.0558C8.99958 15.6181 9.44727 16.0743 9.99951 16.0743H13.9995C14.5518 16.0743 14.9994 15.6181 14.9995 15.0558C14.9995 14.4934 14.5518 14.0372 13.9995 14.0372H9.99951ZM15.8999 4.00599C15.0828 4.00599 14.325 4.25709 13.6978 4.68372L14.1118 4.64368L14.2388 4.63587C15.5328 4.60215 16.2733 6.01984 15.6987 7.07239L14.2476 9.72669L14.4624 10.2189H17.395C18.0084 10.2189 18.5369 10.2208 18.9819 10.2531C18.9944 10.234 19.007 10.2149 19.021 10.1964C19.5105 9.54992 19.8003 8.74714 19.8003 7.87513C19.8002 5.73845 18.0538 4.00602 15.8999 4.00599ZM7.73096 6.88782C7.63384 7.38782 7.30471 7.83028 6.81787 8.05189L4.52002 9.09681L5.92627 9.95325C6.04277 10.0244 6.13844 10.1164 6.2124 10.2208C6.33886 10.2205 6.46939 10.2189 6.604 10.2189H12.3481C12.2126 9.79565 12.2494 9.32773 12.4683 8.92689L13.7251 6.62513L11.2271 6.86829C10.6926 6.9202 10.1827 6.70111 9.84619 6.3136L8.2085 4.42786L7.73096 6.88782Z" fill="currentColor" fill-rule="evenodd" clip-rule="evenodd"/></svg>
