<svg xmlns="http://www.w3.org/2000/svg" viewBox="0 0 24 24" fill="none"><path opacity="0.4" d="M19.7498 16.0643V15.9999V10.4852C19.7498 9.32025 19.7633 8.52865 19.4646 7.8075C19.1659 7.08632 18.597 6.53559 17.7732 5.71179L14.2371 2.17664C13.6437 1.58328 12.839 1.24988 11.9998 1.24988C11.1606 1.24988 10.3559 1.58328 9.76248 2.17664L6.22635 5.71179C5.40255 6.53559 4.83367 7.08631 4.53494 7.8075C4.23628 8.52865 4.24979 9.32025 4.24979 10.4852V15.9999L4.24979 16.0643C4.24976 17.4274 4.24974 18.5266 4.366 19.3915C4.48702 20.2916 4.7465 21.0493 5.34842 21.6512C5.95034 22.2532 6.70808 22.5127 7.60819 22.6337C8.4731 22.7499 9.57229 22.7499 10.9354 22.7499H10.9998H12.9998H13.0642C14.4273 22.7499 15.5265 22.7499 16.3914 22.6337C17.2915 22.5127 18.0492 22.2532 18.6512 21.6512C19.2531 21.0493 19.5126 20.2916 19.6336 19.3915C19.7498 18.5266 19.7498 17.4274 19.7498 16.0643Z" fill="currentColor"/><path d="M11.9997 5.74988C12.69 5.74988 13.2497 6.30952 13.2497 6.99988C13.2497 7.69024 12.69 8.24988 11.9997 8.24988C11.3093 8.24988 10.7497 7.69023 10.7497 6.99988C10.7497 6.30953 11.3093 5.74988 11.9997 5.74988Z" fill="currentColor"/><path d="M10.03 18.5302C9.73713 18.8231 9.26237 18.8231 8.96948 18.5302C8.67658 18.2373 8.67658 17.7626 8.96948 17.4697L13.9695 12.4697C14.2624 12.1768 14.7371 12.1768 15.03 12.4697C15.3229 12.7626 15.3229 13.2373 15.03 13.5302L10.03 18.5302Z" fill="currentColor"/><path d="M9.85223 12.2548C10.3564 12.3061 10.7497 12.7322 10.7497 13.2499C10.7497 13.8022 10.302 14.2499 9.74969 14.2499C9.19741 14.2499 8.74969 13.8022 8.74969 13.2499C8.74969 12.6976 9.19741 12.2499 9.74969 12.2499L9.85223 12.2548Z" fill="currentColor"/><path d="M14.2497 16.7499C14.802 16.7499 15.2497 17.1976 15.2497 17.7499C15.2497 18.3022 14.802 18.7499 14.2497 18.7499C13.6974 18.7499 13.2497 18.3022 13.2497 17.7499C13.2497 17.1976 13.6974 16.7499 14.2497 16.7499Z" fill="currentColor"/></svg>
