<svg xmlns="http://www.w3.org/2000/svg" viewBox="0 0 24 24" fill="none"><path d="M13.0642 22.7499C14.4273 22.7499 15.5265 22.7499 16.3914 22.6337C17.2915 22.5127 18.0492 22.2531 18.6512 21.6512C19.2531 21.0493 19.5126 20.2916 19.6336 19.3915C19.7498 18.5266 19.7498 17.4274 19.7498 16.0643V10.4852C19.7498 9.32025 19.7633 8.52865 19.4646 7.80749C19.1659 7.08633 18.597 6.53558 17.7732 5.71179L14.2371 2.17664C13.6437 1.58331 12.8389 1.24988 11.9998 1.24988C11.1607 1.2499 10.3559 1.5833 9.76248 2.17664L6.22635 5.71179C5.40257 6.53557 4.83366 7.08633 4.53494 7.80749C4.23629 8.52864 4.24979 9.32026 4.24979 10.4852L4.24979 16.0643C4.24976 17.4274 4.24974 18.5266 4.366 19.3915C4.48701 20.2916 4.74654 21.0493 5.34842 21.6512C5.95032 22.2531 6.70812 22.5126 7.60819 22.6337C8.47308 22.7499 9.57232 22.7499 10.9353 22.7499H13.0642ZM11.9998 8.24988C11.3094 8.24988 10.7498 7.69023 10.7498 6.99988C10.7498 6.30953 11.3094 5.74988 11.9998 5.74988C12.6901 5.74988 13.2498 6.30952 13.2498 6.99988C13.2498 7.69024 12.6901 8.24988 11.9998 8.24988ZM9.74979 14.2499C9.1975 14.2499 8.74979 13.8022 8.74979 13.2499C8.74979 12.6976 9.1975 12.2499 9.74979 12.2499L9.85233 12.2548C10.3565 12.3061 10.7498 12.7322 10.7498 13.2499C10.7498 13.8022 10.3021 14.2499 9.74979 14.2499ZM10.0301 18.5302C9.73717 18.823 9.26241 18.823 8.96951 18.5302C8.67668 18.2373 8.67664 17.7625 8.96951 17.4696L13.9695 12.4696C14.2624 12.1767 14.7372 12.1768 15.0301 12.4696C15.323 12.7625 15.323 13.2373 15.0301 13.5302L10.0301 18.5302ZM14.2498 18.7499C13.6975 18.7499 13.2498 18.3022 13.2498 17.7499C13.2498 17.1976 13.6975 16.7499 14.2498 16.7499C14.8021 16.7499 15.2498 17.1976 15.2498 17.7499C15.2498 18.3022 14.8021 18.7499 14.2498 18.7499Z" fill="currentColor" fill-rule="evenodd" clip-rule="evenodd"/></svg>
