<svg xmlns="http://www.w3.org/2000/svg" viewBox="0 0 24 24" fill="none"><path opacity="0.4" d="M12.0001 1.875C12.7133 1.875 13.3375 2.11984 13.9835 2.51074C14.5998 2.88378 15.2992 3.43083 16.1602 4.10449L16.21 4.14355L22.462 9.03418C22.6437 9.17633 22.7501 9.3943 22.7501 9.625V15.6895C22.7501 17.0525 22.7501 18.1517 22.6339 19.0166C22.5128 19.9167 22.2533 20.6744 21.6514 21.2764C21.0495 21.8783 20.2918 22.1378 19.3917 22.2588C18.5267 22.3751 17.4276 22.375 16.0645 22.375H7.93561C6.57255 22.375 5.47337 22.3751 4.60846 22.2588C3.70835 22.1378 2.95061 21.8783 2.34869 21.2764C1.74678 20.6744 1.48729 19.9167 1.36627 19.0166C1.25001 18.1517 1.25003 17.0525 1.25006 15.6895V9.625C1.25006 9.3943 1.35645 9.17633 1.53815 9.03418L7.7901 4.14355L7.83991 4.10449C8.70095 3.43083 9.4003 2.88378 10.0167 2.51074C10.6626 2.11984 11.2868 1.875 12.0001 1.875ZM10.3126 4.11133C9.87944 4.41493 9.36826 4.81329 8.71393 5.3252L4.17584 8.875H8.48444L10.1749 4.46582C10.2217 4.34378 10.2686 4.22556 10.3126 4.11133ZM11.5762 5.00293L10.0909 8.875H13.9092L12.4239 5.00293C12.2533 4.55802 12.1161 4.20229 12.0001 3.92188C11.884 4.20229 11.7468 4.55802 11.5762 5.00293ZM13.8253 4.46582L15.5157 8.875H19.8243L15.2862 5.3252C14.6315 4.81304 14.1199 4.41499 13.6866 4.11133C13.7306 4.22567 13.7784 4.34367 13.8253 4.46582Z" fill="currentColor" fill-rule="evenodd" clip-rule="evenodd"/><path d="M12.0001 13.875C13.5188 13.875 14.7501 15.1062 14.7501 16.625V22.375H9.25006V16.625C9.25006 15.1062 10.4813 13.875 12.0001 13.875Z" fill="currentColor"/><path d="M6.75006 22.3691C6.19722 22.3641 5.69822 22.3528 5.25006 22.3213V10.625H6.75006V22.3691Z" fill="currentColor"/><path d="M18.7501 22.3213C18.3019 22.3528 17.8029 22.3641 17.2501 22.3691V10.625H18.7501V22.3213Z" fill="currentColor"/></svg>
