<svg xmlns="http://www.w3.org/2000/svg" viewBox="0 0 24 24" fill="none"><path d="M12.0009 1.75C12.7141 1.75 13.3384 1.99484 13.9843 2.38574C14.6007 2.75878 15.3 3.30583 16.1611 3.97949L16.2109 4.01855L22.4628 8.90918C22.6445 9.05133 22.7509 9.2693 22.7509 9.5V15.5645C22.7509 16.9275 22.751 18.0267 22.6347 18.8916C22.5137 19.7917 22.2542 20.5494 21.6523 21.1514C21.0504 21.7533 20.2926 22.0128 19.3925 22.1338C19.1915 22.1608 18.9777 22.1804 18.7509 22.1963V10.5H17.2509V22.2441C16.8802 22.2475 16.4853 22.25 16.0654 22.25H14.7509V16.5C14.7509 14.9812 13.5197 13.75 12.0009 13.75C10.4821 13.75 9.25092 14.9812 9.25092 16.5V22.25H7.93646C7.51651 22.25 7.12163 22.2475 6.75092 22.2441V10.5H5.25092V22.1963C5.02417 22.1804 4.81037 22.1608 4.60931 22.1338C3.70921 22.0128 2.95146 21.7533 2.34955 21.1514C1.74763 20.5494 1.48814 19.7917 1.36713 18.8916C1.25086 18.0267 1.25089 16.9275 1.25092 15.5645V9.5C1.25092 9.2693 1.3573 9.05133 1.539 8.90918L7.79095 4.01855L7.84076 3.97949C8.70181 3.30583 9.40115 2.75878 10.0175 2.38574C10.6635 1.99484 11.2877 1.75 12.0009 1.75ZM12.0009 15.25C12.6913 15.25 13.2509 15.8096 13.2509 16.5V22.25H10.7509V16.5C10.7509 15.8096 11.3106 15.25 12.0009 15.25ZM10.3134 3.98633C9.88029 4.28993 9.36911 4.6883 8.71478 5.2002L4.1767 8.75H8.48529L10.1757 4.34082C10.2225 4.21878 10.2694 4.10056 10.3134 3.98633ZM11.5771 4.87793L10.0917 8.75H13.9101L12.4247 4.87793C12.2541 4.43302 12.117 4.07729 12.0009 3.79688C11.8848 4.07729 11.7477 4.43302 11.5771 4.87793ZM13.8261 4.34082L15.5165 8.75H19.8251L15.287 5.2002C14.6324 4.68804 14.1207 4.28999 13.6874 3.98633C13.7315 4.10067 13.7793 4.21867 13.8261 4.34082Z" fill="currentColor"/></svg>
