<svg xmlns="http://www.w3.org/2000/svg" viewBox="0 0 24 24" fill="none"><path opacity="0.4" d="M17.0811 14.9801C18.1499 13.9113 18.75 12.4613 18.7501 10.9498C18.7501 7.80195 16.1978 5.24963 13.0499 5.24963C11.5384 5.24975 10.0884 5.8498 9.01962 6.91858L6.91904 9.01917C5.85026 10.088 5.25021 11.538 5.25009 13.0494C5.25009 16.1973 7.8024 18.7496 10.9503 18.7496C12.4618 18.7495 13.9118 18.1495 14.9806 17.0807L17.0811 14.9801Z" fill="currentColor"/><path d="M10.7501 18.7438C10.2293 18.7258 9.72624 18.6404 9.25006 18.4918V6.70081C9.69921 6.29906 10.2062 5.97474 10.7501 5.73499V18.7438Z" fill="currentColor"/><path d="M13.2501 5.25452C13.7707 5.2725 14.274 5.35789 14.7501 5.50647V17.2975C14.3009 17.6993 13.7939 18.0235 13.2501 18.2633V5.25452Z" fill="currentColor"/><path d="M4.27637 14.9918C4.93773 17.2678 6.73103 19.0605 9.00684 19.7223L8.79883 21.5992C8.7258 22.254 8.17253 22.7496 7.51367 22.7496C6.77585 22.7496 6.33887 22.1714 6.20996 21.6823C6.19707 21.6333 6.17854 21.5861 6.14941 21.5358C6.1197 21.4845 6.0725 21.4188 5.99316 21.3395C5.77914 21.1255 5.63259 21.1082 5.27539 21.0807L5.2627 21.0797C4.84623 21.0477 4.22498 20.9999 3.6123 20.3873C3.31632 20.0913 3.136 19.7852 3.03516 19.4674C2.9404 19.1684 2.92808 18.8873 2.91797 18.7086C2.90667 18.509 2.89759 18.4109 2.86816 18.318C2.84457 18.2437 2.79702 18.1434 2.66016 18.0065C2.58573 17.932 2.52276 17.887 2.47168 17.858C2.42102 17.8293 2.37034 17.81 2.31445 17.7955C1.8111 17.665 1.25014 17.2169 1.25 16.4908C1.25014 15.8291 1.74765 15.2731 2.40527 15.1998L4.27637 14.9918Z" fill="currentColor"/><path d="M16.4863 1.24963C17.2243 1.24965 17.6612 1.8278 17.79 2.31702C17.8029 2.36606 17.8214 2.41314 17.8506 2.4635C17.8803 2.51478 17.9274 2.58038 18.0068 2.65979C18.2209 2.87374 18.3674 2.8911 18.7246 2.91858L18.7373 2.91956C19.1538 2.95153 19.775 2.99922 20.3877 3.61194C20.6837 3.90799 20.864 4.21394 20.9648 4.53186C21.0597 4.831 21.0719 5.11199 21.082 5.29065C21.0933 5.49045 21.1024 5.5883 21.1318 5.68127C21.1554 5.75555 21.2029 5.8558 21.3398 5.9928C21.4143 6.06728 21.4772 6.11227 21.5283 6.14124C21.579 6.16995 21.6296 6.18924 21.6855 6.20374C22.189 6.33433 22.75 6.78221 22.75 7.50842C22.7499 8.17013 22.2524 8.72616 21.5947 8.79944L19.7227 9.00647C19.0609 6.73067 17.2682 4.93736 14.9922 4.276L15.2012 2.40002C15.2741 1.74514 15.8274 1.24968 16.4863 1.24963Z" fill="currentColor"/></svg>
