<svg xmlns="http://www.w3.org/2000/svg" viewBox="0 0 24 24" fill="none"><path d="M15.0537 1.25C16.1864 1.24998 17.112 1.25041 17.8428 1.34863C18.6067 1.45134 19.2692 1.67346 19.7979 2.20215C20.3265 2.73084 20.5487 3.39328 20.6514 4.15723C20.7496 4.88804 20.75 5.81361 20.75 6.94629V17.0537C20.75 18.1864 20.7496 19.112 20.6514 19.8428C20.5487 20.6067 20.3265 21.2692 19.7979 21.7979C19.2692 22.3265 18.6067 22.5487 17.8428 22.6514C17.112 22.7496 16.1864 22.75 15.0537 22.75H11.9463C10.8136 22.75 9.88804 22.7496 9.15723 22.6514C8.39328 22.5487 7.73084 22.3265 7.20215 21.7979C6.67346 21.2692 6.45134 20.6067 6.34863 19.8428C6.25414 19.1397 6.25011 18.2561 6.25 17.1816L9.03516 14.3975C9.22286 15.4505 10.143 16.25 11.25 16.25C12.4926 16.25 13.5 15.2426 13.5 14V9C13.5 7.75736 12.4926 6.75 11.25 6.75H6.25C6.25029 5.70618 6.25614 4.84537 6.34863 4.15723C6.45134 3.39328 6.67346 2.73084 7.20215 2.20215C7.73084 1.67346 8.39328 1.45134 9.15723 1.34863C9.88803 1.25041 10.8136 1.24998 11.9463 1.25H15.0537ZM13.5 18.5C12.9477 18.5 12.5 18.9477 12.5 19.5C12.5 20.0523 12.9477 20.5 13.5 20.5H13.5098C14.0621 20.5 14.5098 20.0523 14.5098 19.5C14.5098 18.9477 14.0621 18.5 13.5098 18.5H13.5Z" fill="currentColor"/><path d="M5.25 9C5.25 8.44772 5.69772 8 6.25 8H11.25C11.8023 8 12.25 8.44772 12.25 9V14C12.25 14.5523 11.8023 15 11.25 15C10.6977 15 10.25 14.5523 10.25 14V11.4142L4.95711 16.7071C4.56658 17.0976 3.93342 17.0976 3.54289 16.7071C3.15237 16.3166 3.15237 15.6834 3.54289 15.2929L8.83579 10H6.25C5.69772 10 5.25 9.55228 5.25 9Z" fill="currentColor" fill-rule="evenodd" clip-rule="evenodd"/></svg>
