<svg xmlns="http://www.w3.org/2000/svg" viewBox="0 0 24 24" fill="none"><path opacity="0.4" d="M22.9883 14.9181C23.4861 14.5915 23.75 14.0405 23.75 13.4845C23.75 12.978 23.5302 12.4911 23.1377 12.1574C21.8917 10.8399 19.777 9.80051 18.2373 9.28728C18.1041 9.24288 17.962 9.23774 17.8271 9.2697L17.6953 9.31364C16.4567 9.86321 14.3933 10.2492 12 10.2492C9.60673 10.2492 7.54334 9.86321 6.30469 9.31364C6.17657 9.25679 6.03552 9.23729 5.89844 9.25603L5.7627 9.28728C4.223 9.80051 2.10833 10.8399 0.862305 12.1574C0.469828 12.4911 0.25 12.978 0.25 13.4845C0.250006 14.0405 0.513918 14.5915 1.01172 14.9181C3.68444 16.6715 7.63905 17.7492 12 17.7492C16.3609 17.7492 20.3156 16.6715 22.9883 14.9181Z" fill="currentColor"/><path d="M12 13.1476C12.4693 13.1476 12.8504 13.5279 12.8506 13.9972C12.8506 14.4666 12.4694 14.8478 12 14.8478C11.5307 14.8476 11.1504 14.4665 11.1504 13.9972C11.1506 13.528 11.5309 13.1478 12 13.1476Z" fill="currentColor"/><path d="M17 12.6476C17.4693 12.6476 17.8504 13.0279 17.8506 13.4972C17.8506 13.9666 17.4694 14.3478 17 14.3478C16.5307 14.3476 16.1504 13.9665 16.1504 13.4972C16.1506 13.028 16.5309 12.6478 17 12.6476Z" fill="currentColor"/><path d="M7 12.6476C7.46931 12.6476 7.85037 13.0279 7.85059 13.4972C7.85059 13.9666 7.46944 14.3478 7 14.3478C6.53074 14.3476 6.15039 13.9665 6.15039 13.4972C6.1506 13.028 6.53087 12.6478 7 12.6476Z" fill="currentColor"/><path d="M18.8418 16.7891C17.469 19.1525 14.9224 20.7491 12 20.7491C9.07749 20.7489 6.52988 19.1529 5.15723 16.7891C6.16325 17.0916 7.23901 17.3257 8.36523 17.4883C9.37019 18.2796 10.6321 18.749 12 18.7491C13.3676 18.7491 14.6289 18.2792 15.6338 17.4883C16.76 17.3257 17.8357 17.0915 18.8418 16.7891Z" fill="currentColor"/><path d="M12 3.24907C15.6313 3.24907 18.6158 6.01423 18.9648 9.55376C18.7126 9.45378 18.4685 9.36424 18.2373 9.28716C18.1041 9.24276 17.962 9.23763 17.8271 9.26958L17.6953 9.31352C17.4741 9.41168 17.2261 9.50343 16.9551 9.58989C16.6323 7.14013 14.5379 5.24907 12 5.24907C9.46207 5.24907 7.36664 7.14007 7.04395 9.58989C6.77325 9.50351 6.52569 9.41158 6.30469 9.31352C6.17658 9.25668 6.03551 9.23718 5.89844 9.25591L5.7627 9.28716C5.53119 9.36432 5.28677 9.45364 5.03418 9.55376C5.38322 6.01419 8.36866 3.24907 12 3.24907Z" fill="currentColor"/></svg>
