<svg xmlns="http://www.w3.org/2000/svg" viewBox="0 0 24 24" fill="none"><path d="M12 3.25014C15.6313 3.25014 18.6158 6.0153 18.9648 9.55482C20.3924 10.1205 22.0788 11.0387 23.1377 12.1583C23.5301 12.492 23.7499 12.979 23.75 13.4855C23.75 14.0414 23.486 14.5924 22.9883 14.9191C21.825 15.6822 20.4185 16.3162 18.8418 16.7902C17.469 19.1536 14.9224 20.7501 12 20.7501C9.07749 20.75 6.52988 19.1539 5.15723 16.7902C3.58085 16.3162 2.17477 15.6821 1.01172 14.9191C0.513971 14.5924 0.250006 14.0414 0.25 13.4855C0.250051 12.979 0.469874 12.492 0.862305 12.1583C1.92099 11.039 3.60684 10.1205 5.03418 9.55482C5.38322 6.01526 8.36866 3.25014 12 3.25014ZM15.6338 17.4894C14.4696 17.6575 13.2518 17.7501 12 17.7501C10.7478 17.7501 9.52969 17.6576 8.36523 17.4894C9.37019 18.2807 10.6321 18.75 12 18.7501C13.3676 18.7501 14.6289 18.2803 15.6338 17.4894ZM12 13.1486C11.5309 13.1488 11.1507 13.5291 11.1504 13.9982C11.1504 14.4675 11.5307 14.8486 12 14.8488C12.4694 14.8488 12.8506 14.4676 12.8506 13.9982C12.8503 13.529 12.4693 13.1486 12 13.1486ZM7 12.6486C6.5309 12.6488 6.15066 13.0291 6.15039 13.4982C6.15039 13.9675 6.53074 14.3486 7 14.3488C7.46944 14.3488 7.85059 13.9676 7.85059 13.4982C7.85031 13.029 7.46927 12.6486 7 12.6486ZM17 12.6486C16.5309 12.6488 16.1507 13.0291 16.1504 13.4982C16.1504 13.9675 16.5307 14.3486 17 14.3488C17.4694 14.3488 17.8506 13.9676 17.8506 13.4982C17.8503 13.029 17.4693 12.6486 17 12.6486ZM12 5.25014C9.46207 5.25014 7.36664 7.14114 7.04395 9.59096C8.29044 9.9887 10.0337 10.2501 12 10.2501C13.9658 10.2501 15.7086 9.98854 16.9551 9.59096C16.6323 7.1412 14.5379 5.25014 12 5.25014Z" fill="currentColor"/></svg>
