<svg xmlns="http://www.w3.org/2000/svg" viewBox="0 0 24 24" fill="none"><path d="M20.7502 14.9995C20.7502 14.4472 20.3025 13.9995 19.7502 13.9995C19.2325 13.9995 18.8064 14.3928 18.7551 14.897L18.7453 15.1021C18.694 15.6062 18.2679 15.9995 17.7502 15.9995C17.1979 15.9995 16.7502 15.5518 16.7502 14.9995C16.7502 13.3427 18.0933 11.9995 19.7502 11.9995C21.407 11.9995 22.7502 13.3427 22.7502 14.9995C22.7502 16.1364 22.1175 17.1243 21.1896 17.6323C21.0154 17.7277 20.8836 17.8309 20.8068 17.9204C20.753 17.9831 20.7484 18.0122 20.7492 18.0112L20.7453 18.1021C20.694 18.6062 20.2679 18.9995 19.7502 18.9995C19.1979 18.9995 18.7502 18.5518 18.7502 17.9995C18.7502 17.4191 19.0033 16.9521 19.2892 16.6187C19.5708 16.2904 19.9185 16.0473 20.2287 15.8774C20.5414 15.7062 20.7502 15.3767 20.7502 14.9995Z" fill="currentColor"/><path d="M22.5967 6.51025C22.75 7.6508 22.75 9.10891 22.75 10.9497V11.0493C22.75 11.3739 22.7489 11.6866 22.748 11.9878C21.9795 11.2227 20.9201 10.7495 19.75 10.7495C17.4028 10.7496 15.5 12.6523 15.5 14.9995C15.5 16.1885 16.4226 17.1589 17.5908 17.2407C17.5336 17.4759 17.5 17.7291 17.5 17.9995C17.5 18.6412 17.7703 19.2185 18.2012 19.6284C17.1061 19.7469 15.7392 19.7495 14.0498 19.7495H9.9502C8.10951 19.7495 6.65124 19.7495 5.51074 19.5962C4.33852 19.4385 3.38988 19.1062 2.6416 18.3579C1.89334 17.6096 1.56096 16.661 1.40332 15.4888C1.24998 14.3482 1.24999 12.8901 1.25 11.0493V10.9497C1.24999 9.10889 1.24998 7.6508 1.40332 6.51025C1.41627 6.41395 1.43182 6.31937 1.44727 6.22607L2.10254 6.63525C2.10688 6.63798 2.11181 6.64141 2.11621 6.64404L8.68359 10.561C9.91115 11.2931 10.9226 11.7495 12 11.7495C13.0774 11.7495 14.0888 11.2932 15.3164 10.561L21.8838 6.64404C21.8882 6.6414 21.8931 6.63799 21.8975 6.63525L22.5508 6.22607C22.5662 6.31947 22.5837 6.41385 22.5967 6.51025Z" fill="currentColor"/><path d="M14.0498 2.24951C15.8906 2.2495 17.3487 2.24951 18.4893 2.40283C19.6615 2.56048 20.6101 2.89287 21.3584 3.64111C21.6827 3.96542 21.9285 4.32757 22.1162 4.729L21.1162 5.35498L14.5488 9.27197C13.3557 9.98359 12.6444 10.2495 12 10.2495C11.3556 10.2495 10.6443 9.98356 9.45117 9.27197L2.88379 5.35498L1.88281 4.729C2.07051 4.32744 2.31722 3.96551 2.6416 3.64111C3.38988 2.89287 4.33852 2.56048 5.51074 2.40283C6.65125 2.24951 8.1095 2.2495 9.9502 2.24951H14.0498Z" fill="currentColor"/><path d="M19.7502 19.7495C20.3025 19.7495 20.7502 20.1972 20.7502 20.7495C20.7502 21.3018 20.3025 21.7495 19.7502 21.7495C19.1979 21.7495 18.7502 21.3018 18.7502 20.7495C18.7502 20.1972 19.1979 19.7495 19.7502 19.7495Z" fill="currentColor"/></svg>
