<svg xmlns="http://www.w3.org/2000/svg" viewBox="0 0 24 24" fill="none"><path opacity="0.4" d="M11.5875 1.2501C12.1575 1.24934 12.662 1.24866 13.1374 1.41733C13.2354 1.45209 13.3315 1.49208 13.4252 1.53715C13.88 1.75582 14.2363 2.11489 14.6388 2.52054L19.4216 7.32819C19.889 7.79654 20.3037 8.2122 20.5278 8.75596C20.7519 9.29971 20.751 9.88846 20.75 10.5518L20.7498 14.0261C20.7498 15.8081 20.7499 17.2445 20.5988 18.3741C20.4419 19.547 20.1063 20.5345 19.3261 21.3188C18.5458 22.1031 17.5634 22.4405 16.3966 22.5982C15.2728 22.75 13.8438 22.75 12.0711 22.75C10.2983 22.75 8.72714 22.75 7.60331 22.5982C6.43652 22.4405 5.45411 22.1031 4.67386 21.3188C3.89361 20.5345 3.55801 19.547 3.40114 18.3741C3.25004 17.2445 3.25007 15.8081 3.25009 14.0262V14.0261V9.45263V9.4526C3.25007 7.91893 3.25006 6.6824 3.36433 5.69856C3.48257 4.6806 3.73427 3.80839 4.3269 3.06954C4.54444 2.79833 4.79021 2.55128 5.06001 2.33261C5.79504 1.7369 6.66274 1.48389 7.67543 1.36504C8.65419 1.25017 10.0618 1.25008 11.5875 1.2501Z" fill="currentColor"/><path d="M13.1374 1.41795C13.2354 1.45271 13.3315 1.49271 13.4252 1.53777C13.88 1.75644 14.2363 2.11551 14.6388 2.52116L19.4216 7.32881L19.4216 7.32882C19.889 7.79717 20.3037 8.21283 20.5278 8.75658C20.6266 8.99631 20.6816 9.24478 20.7122 9.50453H18.7314C17.3639 9.50455 16.7153 9.50377 15.8483 9.38721C14.9482 9.26619 14.1904 9.0073 13.5884 8.40538C12.9865 7.80346 12.7276 7.04559 12.6066 6.14548C12.4903 5.2803 12.4903 4.63259 12.4903 3.27075V3.27072V1.2793C12.7137 1.30237 12.9284 1.34379 13.1374 1.41795Z" fill="currentColor"/><path d="M13.7762 12.2938C14.1664 11.903 14.7994 11.9018 15.1903 12.2919C15.5811 12.682 15.5813 13.3151 15.1912 13.7059L13.4051 15.495L15.2 17.2938C15.5898 17.6847 15.5888 18.3178 15.1981 18.7079C14.8072 19.0977 14.1741 19.0966 13.784 18.7059L11.992 16.911L10.2 18.7059C9.80996 19.0966 9.17684 19.0977 8.78596 18.7079C8.39524 18.3178 8.39419 17.6847 8.78401 17.2938L10.578 15.495L8.7928 13.7059C8.40274 13.3151 8.40297 12.682 8.79377 12.2919C9.18463 11.9018 9.81768 11.903 10.2078 12.2938L11.992 14.0799L13.7762 12.2938Z" fill="currentColor"/></svg>
