<svg xmlns="http://www.w3.org/2000/svg" viewBox="0 0 24 24" fill="none"><path d="M11.5879 1.2501C12.1577 1.24934 12.6624 1.24848 13.1377 1.4171C13.2355 1.4518 13.3313 1.49224 13.4248 1.53721C13.8796 1.75587 14.2363 2.11499 14.6387 2.52061L19.4219 7.32823C19.8891 7.79643 20.3033 8.21242 20.5274 8.75596C20.7514 9.29967 20.751 9.88856 20.75 10.5519V14.0265C20.7501 15.8082 20.7497 17.2445 20.5987 18.3741C20.4418 19.5468 20.1062 20.5342 19.3262 21.3185C18.546 22.1028 17.5633 22.441 16.3965 22.5987C15.2728 22.7506 13.8439 22.7501 12.0713 22.7501C10.2987 22.7501 8.72736 22.7506 7.60355 22.5987C6.43676 22.441 5.45411 22.1028 4.67386 21.3185C3.89379 20.5342 3.55825 19.5469 3.4014 18.3741C3.25033 17.2445 3.25 15.8083 3.25003 14.0265V9.45225C3.25001 7.91884 3.25003 6.68207 3.36429 5.69835C3.48255 4.68057 3.73463 3.80819 4.32718 3.06944C4.54454 2.7985 4.79007 2.5516 5.0596 2.33311C5.79462 1.73743 6.66315 1.48419 7.67581 1.36534C8.65455 1.25052 10.0624 1.25008 11.5879 1.2501ZM15.1983 12.2921C14.8074 11.902 14.1744 11.9032 13.7842 12.294L12 14.0802L10.2159 12.294C9.8257 11.9032 9.19265 11.902 8.80179 12.2921C8.41111 12.6823 8.4108 13.3153 8.80081 13.7062L10.586 15.4952L8.79202 17.294C8.40232 17.6849 8.40329 18.3181 8.79398 18.7081C9.18482 19.0979 9.81797 19.0968 10.208 18.7062L12 16.9112L13.792 18.7062C14.1821 19.0968 14.8152 19.0978 15.2061 18.7081C15.5968 18.3181 15.5978 17.6849 15.208 17.294L13.4131 15.4952L15.1993 13.7062C15.5893 13.3153 15.5891 12.6822 15.1983 12.2921ZM12.4903 3.27061C12.4902 4.63196 12.4902 5.27975 12.6065 6.14463C12.7275 7.04449 12.9864 7.80257 13.5879 8.4044C14.1898 9.00631 14.9486 9.26581 15.8487 9.38682C16.7154 9.50333 17.3641 9.50403 18.7315 9.50401C18.6747 9.36621 18.5692 9.23553 17.9512 8.61436L13.3467 3.98546C12.8138 3.44978 12.6719 3.31651 12.4903 3.26182V3.27061Z" fill="currentColor" fill-rule="evenodd" clip-rule="evenodd"/></svg>
