<svg xmlns="http://www.w3.org/2000/svg" viewBox="0 0 24 24" fill="none"><path opacity="0.4" d="M21.4109 8.43506C19.7974 4.76136 16.0732 2.24954 11.7566 2.24951C5.96834 2.24951 1.24996 6.85191 1.24976 12.561C1.24976 15.7388 2.71491 18.578 5.00953 20.4663C6.59509 21.771 8.27566 21.7349 9.93336 21.7349C10.4402 21.7349 11.257 21.7904 11.9685 21.687C12.7181 21.5781 13.5583 21.2728 14.0798 20.4214C14.4971 19.7402 14.5905 19.0136 14.5603 18.3335C14.531 17.6722 14.3788 16.9891 14.2586 16.3989C13.9982 15.1216 13.8922 14.2233 14.4548 13.4761C14.6027 13.2798 14.8165 13.0998 15.2136 12.8774C15.6228 12.6484 16.1672 12.4054 16.9558 12.0552L22.3045 9.68018C22.6829 9.512 22.8534 9.06845 22.6853 8.68994C22.5172 8.31147 22.0736 8.14099 21.6951 8.30908L21.4109 8.43506Z" fill="currentColor"/><path d="M17.171 15.7476C17.2928 15.7459 17.4163 15.7399 17.5401 15.7241L21.9053 15.1675C22.3161 15.1152 22.6918 15.4061 22.7442 15.8169C22.7963 16.2276 22.5056 16.6034 22.0948 16.6558L21.2501 16.7632V20.2505H22.0001C22.4142 20.2506 22.7501 20.5863 22.7501 21.0005C22.7497 21.4143 22.4139 21.7504 22.0001 21.7505H20.5801C19.7491 21.7505 19.0536 21.7523 18.4981 21.6812C17.9215 21.6072 17.3973 21.444 16.9561 21.0493C16.5152 20.6546 16.2955 20.1521 16.1583 19.5874C16.0261 19.0432 15.9512 18.3511 15.8594 17.5249L15.8077 17.061C15.231 16.8932 14.695 16.616 14.2295 16.2495C14.0304 15.2446 13.945 14.4804 14.2413 13.8364C14.4971 14.5006 14.9937 15.039 15.6202 15.3735L15.336 12.814C15.695 12.6225 16.1523 12.4147 16.7696 12.1401L17.171 15.7476ZM17.7295 17.2124C17.5985 17.2291 17.4672 17.2399 17.337 17.2456L17.3497 17.3599C17.4458 18.2252 17.5121 18.8038 17.6163 19.2329C17.7154 19.6408 17.828 19.8174 17.9561 19.9321C18.0843 20.0467 18.2722 20.1394 18.6885 20.1929C18.97 20.2289 19.3113 20.2396 19.7501 20.2446V16.9546L17.7295 17.2124Z" fill="currentColor" fill-rule="evenodd" clip-rule="evenodd"/><path d="M9.99976 15.7495C10.6901 15.7495 11.2498 16.3092 11.2498 16.9995C11.2498 17.6899 10.6901 18.2495 9.99976 18.2495C9.30941 18.2495 8.74976 17.6899 8.74976 16.9995C8.74976 16.3092 9.3094 15.7495 9.99976 15.7495Z" fill="currentColor"/></svg>
