<svg xmlns="http://www.w3.org/2000/svg" viewBox="0 0 24 24" fill="none"><path d="M11.7567 2.24988C16.0733 2.24991 19.7975 4.76172 21.411 8.43542L21.6952 8.30945C22.0737 8.14136 22.5172 8.31184 22.6854 8.69031C22.8535 9.06881 22.683 9.51237 22.3045 9.68054L16.9559 12.0555C16.8921 12.0839 16.83 12.1116 16.7694 12.1385L17.1707 15.7469C17.2928 15.7452 17.416 15.7393 17.5399 15.7235L21.9051 15.1669C22.3159 15.1146 22.6915 15.4056 22.744 15.8163C22.7964 16.2272 22.5055 16.6028 22.0946 16.6552L21.2499 16.7626V20.2499H21.9999C22.414 20.25 22.7499 20.5857 22.7499 20.9999C22.7497 21.4139 22.4139 21.7498 21.9999 21.7499H20.5799C19.7487 21.7499 19.0534 21.7517 18.4979 21.6805C17.9212 21.6066 17.3972 21.4435 16.9559 21.0487C16.5148 20.6539 16.2953 20.1516 16.1581 19.5868C16.0259 19.0424 15.951 18.3506 15.8592 17.5243L15.8075 17.0604C15.2312 16.8927 14.6945 16.6182 14.2293 16.2518C14.239 16.3004 14.2485 16.3496 14.2586 16.3993C14.3789 16.9894 14.531 17.6726 14.5604 18.3339C14.5906 19.0139 14.4972 19.7406 14.0799 20.4218C13.5583 21.2732 12.7182 21.5784 11.9686 21.6874C11.2571 21.7907 10.4403 21.7352 9.93344 21.7352C8.27575 21.7352 6.59518 21.7714 5.00962 20.4667C2.715 18.5783 1.24985 15.7391 1.24985 12.5614C1.25005 6.85228 5.96842 2.24988 11.7567 2.24988ZM17.7293 17.2118C17.5981 17.2285 17.4672 17.2393 17.3368 17.245L17.3495 17.3593C17.4456 18.2248 17.5119 18.8031 17.6161 19.2323C17.7152 19.6406 17.8278 19.8168 17.9559 19.9315C18.0841 20.0462 18.2716 20.1388 18.6883 20.1923C18.9699 20.2283 19.3109 20.239 19.7499 20.244V16.954L17.7293 17.2118ZM9.99985 15.7499C9.30949 15.7499 8.74985 16.3095 8.74985 16.9999C8.74985 17.6902 9.30949 18.2499 9.99985 18.2499C10.6902 18.2499 11.2499 17.6902 11.2499 16.9999C11.2499 16.3095 10.6902 15.7499 9.99985 15.7499ZM15.2137 12.8778C14.8165 13.1001 14.6028 13.2801 14.4549 13.4764C14.3678 13.5921 14.298 13.712 14.2411 13.8358C14.4968 14.5003 14.9934 15.0383 15.62 15.3729L15.3358 12.8134C15.2941 12.8356 15.2528 12.8559 15.2137 12.8778Z" fill="currentColor"/></svg>
