<svg xmlns="http://www.w3.org/2000/svg" viewBox="0 0 24 24" fill="none"><path opacity="0.4" d="M12 17V9C12 8.44772 12.4477 8 13 8C13.5523 8 14 8.44772 14 9V17C14 17.5523 13.5523 18 13 18C12.4477 18 12 17.5523 12 17Z" fill="currentColor"/><path opacity="0.4" d="M7 17V5C7 4.44772 7.44772 4 8 4C8.55228 4 9 4.44772 9 5V17C9 17.5523 8.55228 18 8 18C7.44772 18 7 17.5523 7 17Z" fill="currentColor"/><path opacity="0.4" d="M17 17V13C17 12.4477 17.4477 12 18 12C18.5523 12 19 12.4477 19 13V17C19 17.5523 18.5523 18 18 18C17.4477 18 17 17.5523 17 17Z" fill="currentColor"/><path d="M2 13V3C2 2.44772 2.44772 2 3 2C3.55229 2 4 2.44772 4 3V13C4 14.9139 4.00229 16.2487 4.1377 17.2559C4.26924 18.2342 4.5099 18.7521 4.87891 19.1211C5.24792 19.4901 5.7658 19.7308 6.74414 19.8623C7.75128 19.9977 9.08611 20 11 20H21C21.5523 20 22 20.4477 22 21C22 21.5523 21.5523 22 21 22H11C9.14265 22 7.64892 22.0022 6.47754 21.8447C5.27745 21.6834 4.26738 21.3377 3.46485 20.5352C2.66231 19.7326 2.31664 18.7226 2.15528 17.5225C1.99779 16.3511 2 14.8573 2 13Z" fill="currentColor"/></svg>
