<svg xmlns="http://www.w3.org/2000/svg" viewBox="0 0 24 24" fill="none"><path d="M18.0001 16.75C18.0001 16.1977 18.4478 15.75 19.0001 15.75C19.5524 15.75 20.0001 16.1977 20.0001 16.75V19.4131L20.2042 19.1455C20.5383 18.7058 21.1648 18.6201 21.6046 18.9541C22.0443 19.2882 22.13 19.9147 21.796 20.3545L21.3585 20.9316C21.0172 21.3808 20.6968 21.8061 20.3937 22.1055C20.0749 22.4201 19.6244 22.75 19.0001 22.75C18.3758 22.75 17.9253 22.4201 17.6065 22.1055C17.3034 21.8061 16.983 21.3808 16.6417 20.9316L16.2042 20.3545C15.8702 19.9147 15.9559 19.2882 16.3956 18.9541C16.8354 18.6201 17.4619 18.7058 17.796 19.1455L18.0001 19.4131V16.75Z" fill="currentColor"/><path d="M12 2.25C12.834 2.25 13.5374 2.59581 14.2412 3.13281C14.9172 3.64857 15.6744 4.40584 16.6113 5.34277L18.6572 7.38867C19.5942 8.32556 20.3514 9.08281 20.8672 9.75879C21.4042 10.4626 21.75 11.166 21.75 12C21.75 12.834 21.4042 13.5374 20.8672 14.2412C20.7024 14.4571 20.5118 14.6803 20.2998 14.916C19.9914 14.6971 19.6268 14.552 19.2305 14.5117L19.001 14.5C17.7583 14.5 16.751 15.5074 16.751 16.75V17.5166C16.4323 17.5519 16.1174 17.6536 15.8301 17.8291L15.6396 17.959C14.8794 18.5367 14.591 19.5032 14.8389 20.3691C14.6313 20.5534 14.4334 20.7206 14.2412 20.8672C13.5374 21.4042 12.834 21.75 12 21.75C11.166 21.75 10.4626 21.4042 9.75879 20.8672C9.08281 20.3514 8.32556 19.5942 7.38867 18.6572L5.34277 16.6113C4.40584 15.6744 3.64857 14.9172 3.13281 14.2412C2.59582 13.5374 2.25 12.834 2.25 12C2.25 11.166 2.59581 10.4626 3.13281 9.75879C3.64857 9.08281 4.40584 8.32556 5.34277 7.38867L7.38867 5.34277C8.32556 4.40584 9.08281 3.64857 9.75879 3.13281C10.4626 2.59581 11.166 2.25 12 2.25ZM12 9C10.3431 9 9 10.3431 9 12C9 13.6569 10.3431 15 12 15C13.6569 15 15 13.6569 15 12C15 10.3431 13.6569 9 12 9Z" fill="currentColor"/></svg>
