<svg xmlns="http://www.w3.org/2000/svg" viewBox="0 0 24 24" fill="none"><path d="M12 1.25C17.9371 1.25 22.75 6.06294 22.75 12C22.75 17.9371 17.9371 22.75 12 22.75C6.06294 22.75 1.25 17.9371 1.25 12C1.25 6.06294 6.06294 1.25 12 1.25ZM13 8.5C12.1716 8.5 11.5 9.17157 11.5 10V10.0098C11.5 10.8382 12.1716 11.5098 13 11.5098C13.8284 11.5098 14.5 10.8382 14.5 10.0098V10C14.5 9.17157 13.8284 8.5 13 8.5ZM18 8.5C17.1716 8.5 16.5 9.17157 16.5 10V10.0098C16.5 10.8382 17.1716 11.5098 18 11.5098C18.8284 11.5098 19.5 10.8382 19.5 10.0098V10C19.5 9.17157 18.8284 8.5 18 8.5ZM15 4.5C14.1716 4.5 13.5 5.17157 13.5 6V6.00977C13.5 6.83819 14.1716 7.50977 15 7.50977C15.8284 7.50977 16.5 6.83819 16.5 6.00977V6C16.5 5.17157 15.8284 4.5 15 4.5Z" fill="currentColor"/></svg>
