<svg xmlns="http://www.w3.org/2000/svg" viewBox="0 0 24 24" fill="none"><path d="M22.7501 5.01762V4.99951V4.9814C22.7501 4.62885 22.7501 4.31511 22.7267 4.05615C22.7019 3.7824 22.6457 3.49653 22.4884 3.22412C22.3174 2.92807 22.0716 2.68227 21.7755 2.51123C21.5031 2.35396 21.2172 2.29776 20.9435 2.27295C20.6845 2.2495 20.3708 2.2495 20.0182 2.24951H20.0001H4.00012H3.98204C3.62948 2.2495 3.31573 2.2495 3.05676 2.27295C2.78301 2.29776 2.49714 2.35396 2.22473 2.51123C1.92868 2.68227 1.68288 2.92807 1.51184 3.22412C1.35457 3.49653 1.29837 3.7824 1.27356 4.05615C1.25011 4.31512 1.25012 4.62887 1.25012 4.98143V4.99951V5.01759C1.25012 5.37015 1.25011 5.6839 1.27356 5.94287C1.29837 6.21662 1.35457 6.5025 1.51184 6.7749C1.68288 7.07095 1.92868 7.31675 2.22473 7.48779C2.49714 7.64507 2.78301 7.70126 3.05676 7.72607C3.31573 7.74953 3.62948 7.74952 3.98203 7.74951H4.00012H20.0001H20.0182C20.3708 7.74952 20.6845 7.74953 20.9435 7.72607C21.2172 7.70126 21.5031 7.64507 21.7755 7.48779C22.0716 7.31675 22.3174 7.07095 22.4884 6.7749C22.6457 6.5025 22.7019 6.21662 22.7267 5.94287C22.7501 5.68391 22.7501 5.37017 22.7501 5.01762Z" fill="currentColor"/><path opacity="0.4" d="M20.7501 15.064C20.7502 16.427 20.7502 17.5262 20.6339 18.3911C20.5129 19.2912 20.2534 20.049 19.6515 20.6509C19.0496 21.2528 18.2918 21.5123 17.3917 21.6333C16.5268 21.7496 15.4276 21.7495 14.0646 21.7495H9.93567C8.57261 21.7495 7.47343 21.7496 6.60852 21.6333C5.70842 21.5123 4.95067 21.2528 4.34876 20.6509C3.74685 20.049 3.48735 19.2912 3.36633 18.3911C3.25007 17.5262 3.25009 16.427 3.25012 15.064V8.98975C3.49988 8.99975 3.76124 8.99951 4.00012 8.99951H20.0001C20.2388 8.99951 20.5003 8.99971 20.7501 8.98975V15.064Z" fill="currentColor"/><path d="M12.0001 11.9995C12.3773 11.9995 12.6915 12.1631 12.8721 12.272C13.0802 12.3974 13.2826 12.5581 13.4649 12.7192C13.8318 13.0434 14.2155 13.4569 14.5518 13.8442C14.8925 14.2366 15.2048 14.626 15.4307 14.9155C15.5441 15.0608 15.6366 15.1825 15.7012 15.2681C15.7336 15.3109 15.7589 15.3451 15.7764 15.3687C15.7852 15.3804 15.7922 15.3896 15.7969 15.396C15.7992 15.399 15.8015 15.4011 15.8028 15.4028L15.8047 15.4058L15.8057 15.4067C16.1329 15.8514 16.0374 16.4778 15.5928 16.8052C15.1482 17.1323 14.5218 17.0369 14.1944 16.5923C14.1944 16.5923 14.1922 16.5887 14.1905 16.5864L14.1055 16.4731C14.0463 16.3947 13.9605 16.2817 13.8546 16.146C13.6416 15.8731 13.3515 15.5123 13.0411 15.1548C13.0274 15.1391 13.0137 15.1235 13.0001 15.1079V21.7495H11.0001V15.1079C10.9864 15.1235 10.9727 15.1391 10.959 15.1548C10.6486 15.5123 10.3585 15.8731 10.1456 16.146C10.0396 16.2817 9.95381 16.3947 9.89459 16.4731L9.80963 16.5864C9.80795 16.5887 9.80573 16.5913 9.80573 16.5913L9.7403 16.6714C9.40004 17.0471 8.82423 17.1113 8.40729 16.8042C7.9628 16.4768 7.86726 15.8514 8.1944 15.4067L8.19537 15.4058L8.19733 15.4028C8.19864 15.4011 8.20094 15.399 8.20319 15.396C8.20794 15.3896 8.21493 15.3804 8.22369 15.3687C8.24126 15.3451 8.26654 15.3109 8.29889 15.2681C8.36355 15.1825 8.45599 15.0609 8.5694 14.9155C8.79536 14.626 9.10767 14.2366 9.4483 13.8442C9.78461 13.4569 10.1684 13.0434 10.5352 12.7192C10.7176 12.5581 10.9199 12.3974 11.128 12.272C11.3086 12.1631 11.6228 11.9995 12.0001 11.9995Z" fill="currentColor"/></svg>
