<svg xmlns="http://www.w3.org/2000/svg" viewBox="0 0 24 24" fill="none"><path opacity="0.4" d="M12.0644 1.25H12H11.9356C10.5725 1.24997 9.47333 1.24995 8.6084 1.36621C7.70829 1.48723 6.95055 1.74672 6.34863 2.34863C5.74672 2.95055 5.48723 3.70829 5.36621 4.6084C5.33725 4.82386 5.31516 5.05384 5.29883 5.29883C5.05384 5.31516 4.82386 5.33725 4.6084 5.36621C3.70829 5.48723 2.95055 5.74672 2.34863 6.34863C1.74672 6.95055 1.48723 7.70829 1.36621 8.6084C1.24995 9.47333 1.24997 10.5725 1.25 11.9356V12V12.0644C1.24997 13.4275 1.24995 14.5267 1.36621 15.3916C1.48723 16.2917 1.74672 17.0495 2.34863 17.6514C2.95055 18.2533 3.70829 18.5128 4.6084 18.6338C4.82384 18.6628 5.05386 18.6839 5.29883 18.7002C5.31516 18.9456 5.33721 19.1759 5.36621 19.3916C5.48723 20.2917 5.74672 21.0495 6.34863 21.6514C6.95055 22.2533 7.70829 22.5128 8.6084 22.6338C9.4733 22.7501 10.5725 22.75 11.9355 22.75H12H12.0644C13.4275 22.75 14.5267 22.7501 15.3916 22.6338C16.2917 22.5128 17.0495 22.2533 17.6514 21.6514C18.2533 21.0495 18.5128 20.2917 18.6338 19.3916C18.6628 19.1759 18.6839 18.9455 18.7002 18.7002C18.9455 18.6839 19.1759 18.6628 19.3916 18.6338C20.2917 18.5128 21.0495 18.2533 21.6514 17.6514C22.2533 17.0495 22.5128 16.2917 22.6338 15.3916C22.7501 14.5267 22.75 13.4275 22.75 12.0644V12V11.9356C22.75 10.5725 22.7501 9.47332 22.6338 8.6084C22.5128 7.70829 22.2533 6.95055 21.6514 6.34863C21.0495 5.74672 20.2917 5.48723 19.3916 5.36621C19.1759 5.33721 18.9456 5.31516 18.7002 5.29883C18.6839 5.05386 18.6628 4.82384 18.6338 4.6084C18.5128 3.70829 18.2533 2.95055 17.6514 2.34863C17.0495 1.74672 16.2917 1.48723 15.3916 1.36621C14.5267 1.24995 13.4275 1.24997 12.0644 1.25Z" fill="currentColor"/><path d="M17.1915 5.25391C17.7472 5.25844 18.2492 5.26879 18.7003 5.29883C18.7304 5.74996 18.7407 6.25192 18.7452 6.80762C18.7483 7.1806 18.7501 7.57776 18.7501 8V16C18.7501 16.4219 18.7483 16.8187 18.7452 17.1914C18.7407 17.7471 18.7304 18.249 18.7003 18.7002C18.2492 18.7302 17.7472 18.7406 17.1915 18.7451C16.8188 18.7482 16.422 18.75 16.0001 18.75H8.00012C7.57788 18.75 7.18072 18.7482 6.80774 18.7451C6.25205 18.7406 5.75009 18.7303 5.29895 18.7002C5.26892 18.2491 5.25856 17.7471 5.25403 17.1914C5.25099 16.8187 5.25012 16.4219 5.25012 16V8C5.25012 7.57776 5.25098 7.1806 5.25403 6.80762C5.25857 6.25195 5.26889 5.74995 5.29895 5.29883C5.75007 5.26876 6.25207 5.25845 6.80774 5.25391C7.18072 5.25086 7.57789 5.25 8.00012 5.25H16.0001C16.422 5.25 16.8188 5.25087 17.1915 5.25391ZM8.00012 6.75C7.54307 6.75 7.13007 6.75133 6.755 6.75488C6.75145 7.12995 6.75012 7.54295 6.75012 8V16C6.75012 16.4567 6.75146 16.8693 6.755 17.2441C7.13007 17.2477 7.54307 17.25 8.00012 17.25H16.0001C16.4568 17.25 16.8695 17.2477 17.2443 17.2441C17.2478 16.8693 17.2501 16.4567 17.2501 16V8C17.2501 7.54295 17.2478 7.12995 17.2443 6.75488C16.8695 6.75133 16.4568 6.75 16.0001 6.75H8.00012Z" fill="currentColor" fill-rule="evenodd" clip-rule="evenodd"/></svg>
