<svg xmlns="http://www.w3.org/2000/svg" viewBox="0 0 24 24" fill="none"><path d="M12.0646 1.25C13.4276 1.24997 14.5268 1.24995 15.3917 1.36621C16.2918 1.48723 17.0496 1.74674 17.6515 2.34863C18.2534 2.95054 18.5129 3.70832 18.6339 4.6084C18.6629 4.82384 18.684 5.05386 18.7003 5.29883C18.9456 5.31516 19.176 5.33721 19.3917 5.36621C20.2918 5.48723 21.0496 5.74674 21.6515 6.34863C22.2534 6.95054 22.5129 7.70832 22.6339 8.6084C22.7502 9.47331 22.7502 10.5725 22.7501 11.9355V12.0645C22.7502 13.4275 22.7502 14.5267 22.6339 15.3916C22.5129 16.2917 22.2534 17.0495 21.6515 17.6514C21.0496 18.2533 20.2918 18.5128 19.3917 18.6338C19.176 18.6628 18.9456 18.6839 18.7003 18.7002C18.684 18.9455 18.6629 19.1759 18.6339 19.3916C18.5129 20.2917 18.2534 21.0495 17.6515 21.6514C17.0496 22.2533 16.2918 22.5128 15.3917 22.6338C14.5268 22.75 13.4276 22.75 12.0646 22.75H11.9357C10.5727 22.75 9.47341 22.75 8.60852 22.6338C7.70844 22.5128 6.95066 22.2532 6.34875 21.6514C5.74684 21.0495 5.48735 20.2917 5.36633 19.3916C5.33733 19.1759 5.31528 18.9456 5.29895 18.7002C5.05403 18.6839 4.82393 18.6627 4.60852 18.6338C3.70844 18.5128 2.95066 18.2532 2.34875 17.6514C1.74684 17.0495 1.48735 16.2917 1.36633 15.3916C1.25007 14.5267 1.25009 13.4275 1.25012 12.0645V11.9355C1.25009 10.5725 1.25007 9.47331 1.36633 8.6084C1.48735 7.7083 1.74684 6.95055 2.34875 6.34863C2.95066 5.74676 3.70844 5.48722 4.60852 5.36621C4.82395 5.33726 5.054 5.31515 5.29895 5.29883C5.31528 5.05384 5.33737 4.82386 5.36633 4.6084C5.48735 3.7083 5.74684 2.95055 6.34875 2.34863C6.95066 1.74676 7.70844 1.48722 8.60852 1.36621C9.47343 1.24996 10.5726 1.24997 11.9357 1.25H12.0646ZM8.00012 5.25C7.57789 5.25 7.18072 5.25086 6.80774 5.25391C6.25207 5.25845 5.75007 5.26876 5.29895 5.29883C5.26889 5.74995 5.25857 6.25195 5.25403 6.80762C5.25098 7.1806 5.25012 7.57776 5.25012 8V16C5.25012 16.4219 5.25099 16.8187 5.25403 17.1914C5.25856 17.7471 5.26892 18.2491 5.29895 18.7002C5.75009 18.7303 6.25205 18.7406 6.80774 18.7451C7.18072 18.7482 7.57788 18.75 8.00012 18.75H16.0001C16.422 18.75 16.8188 18.7482 17.1915 18.7451C17.7472 18.7406 18.2492 18.7302 18.7003 18.7002C18.7304 18.249 18.7407 17.7471 18.7452 17.1914C18.7483 16.8187 18.7501 16.4219 18.7501 16V8C18.7501 7.57776 18.7483 7.1806 18.7452 6.80762C18.7407 6.25192 18.7304 5.74996 18.7003 5.29883C18.2492 5.26879 17.7472 5.25844 17.1915 5.25391C16.8188 5.25087 16.422 5.25 16.0001 5.25H8.00012ZM16.0001 6.75C16.4568 6.75 16.8695 6.75133 17.2443 6.75488C17.2478 7.12995 17.2501 7.54295 17.2501 8V16C17.2501 16.4567 17.2478 16.8693 17.2443 17.2441C16.8695 17.2477 16.4568 17.25 16.0001 17.25H8.00012C7.54307 17.25 7.13007 17.2477 6.755 17.2441C6.75146 16.8693 6.75012 16.4567 6.75012 16V8C6.75012 7.54295 6.75145 7.12995 6.755 6.75488C7.13007 6.75133 7.54307 6.75 8.00012 6.75H16.0001Z" fill="currentColor"/></svg>
