<svg xmlns="http://www.w3.org/2000/svg" viewBox="0 0 24 24" fill="none"><path opacity="0.4" d="M9.46298 1.98837C8.7959 1.73823 8.0491 1.75009 6.94443 1.75009H6.92783C6.04083 1.75009 5.32633 1.7501 4.75009 1.80087C4.16042 1.85285 3.6442 1.96273 3.17294 2.22568C2.56572 2.56454 2.06456 3.06572 1.72568 3.67294C1.46273 4.14419 1.35286 4.66044 1.30087 5.25009C1.25009 5.8264 1.25009 6.54146 1.25009 7.42861V7.4288V10.5665C1.25007 12.8704 1.25008 14.6764 1.43955 16.086C1.63378 17.5307 2.03988 18.6707 2.93466 19.5655C3.82947 20.4603 4.96942 20.8664 6.41415 21.0606C7.78608 21.245 9.53359 21.249 11.7501 21.2491V15.5538C10.6961 14.8357 10.0001 13.6271 10.0001 12.2501C10.0001 10.0409 11.791 8.25009 14.0001 8.25009C16.2092 8.25009 18.0001 10.0409 18.0001 12.2501C18.0001 13.4707 17.4515 14.558 16.5929 15.2901C16.6959 15.4291 16.8192 15.5522 16.9581 15.6554C17.6908 14.7968 18.7802 14.2501 20.0001 14.2501C21.0361 14.2501 21.9801 14.644 22.6905 15.2901C22.7486 14.3315 22.7501 13.1797 22.7501 11.7833V11.7267V11.7266C22.7501 10.7001 22.7501 9.87289 22.6827 9.21005C22.6135 8.52967 22.4669 7.93909 22.1183 7.41708C21.8447 7.00764 21.4925 6.65551 21.0831 6.38193C20.5611 6.03324 19.9705 5.88669 19.2901 5.81747C18.6273 5.75008 17.8 5.75008 16.7735 5.75009H12.464L12.0372 4.89755C11.5503 3.92365 10.9535 2.54734 9.46298 1.98837Z" fill="currentColor"/><path d="M14.0001 15C15.5189 15 16.7501 13.7688 16.7501 12.25C16.7501 10.7312 15.5189 9.5 14.0001 9.5C12.4813 9.5 11.2501 10.7312 11.2501 12.25C11.2501 13.7688 12.4813 15 14.0001 15Z" fill="currentColor"/><path d="M20.0001 21C21.5189 21 22.7501 19.7688 22.7501 18.25C22.7501 16.7312 21.5189 15.5 20.0001 15.5C18.4813 15.5 17.2501 16.7312 17.2501 18.25C17.2501 19.7688 18.4813 21 20.0001 21Z" fill="currentColor"/><path d="M13.0001 21.25V14.25C13.0001 13.6977 13.4478 13.25 14.0001 13.25C14.5524 13.25 15.0001 13.6977 15.0001 14.25C15.0001 15.9069 16.3432 17.25 18.0001 17.25C18.5524 17.25 19.0001 17.6977 19.0001 18.25C19.0001 18.8023 18.5524 19.25 18.0001 19.25C16.8742 19.25 15.8359 18.877 15.0001 18.249V21.25C15.0001 21.8023 14.5524 22.25 14.0001 22.25C13.4478 22.25 13.0001 21.8023 13.0001 21.25Z" fill="currentColor"/></svg>
