<svg xmlns="http://www.w3.org/2000/svg" viewBox="0 0 24 24" fill="none"><path opacity="0.4" d="M18.4998 19.5C18.4998 11.768 12.2318 5.5 4.49979 5.5C3.9475 5.5 3.49979 5.05228 3.49979 4.5C3.49979 3.94772 3.9475 3.5 4.49979 3.5C13.3363 3.5 20.4998 10.6634 20.4998 19.5C20.4998 20.0523 20.0521 20.5 19.4998 20.5C18.9475 20.5 18.4998 20.0523 18.4998 19.5Z" fill="currentColor"/><path opacity="0.4" d="M11.4998 19.5C11.4998 15.634 8.36578 12.5 4.49979 12.5C3.9475 12.5 3.49979 12.0523 3.49979 11.5C3.49979 10.9477 3.9475 10.5 4.49979 10.5C9.47035 10.5 13.4998 14.5294 13.4998 19.5C13.4998 20.0523 13.0521 20.5 12.4998 20.5C11.9475 20.5 11.4998 20.0523 11.4998 19.5Z" fill="currentColor"/><path d="M4.99979 17.5C5.82821 17.5 6.49979 18.1716 6.49979 19C6.49979 19.8284 5.82821 20.5 4.99979 20.5C4.17136 20.5 3.49979 19.8284 3.49979 19C3.49979 18.1716 4.17136 17.5 4.99979 17.5Z" fill="currentColor"/></svg>
