<svg xmlns="http://www.w3.org/2000/svg" viewBox="0 0 24 24" fill="none"><path d="M7 18.75V18.25C7 17.6977 7.44772 17.25 8 17.25C8.55228 17.25 9 17.6977 9 18.25V18.75C9 20.4069 7.65685 21.75 6 21.75C5.44772 21.75 5 21.3023 5 20.75C5 20.2323 5.39333 19.8062 5.89746 19.7549L6.10254 19.7451C6.60667 19.6938 7 19.2677 7 18.75ZM11 20.75V18.25C11 17.6977 11.4477 17.25 12 17.25C12.5523 17.25 13 17.6977 13 18.25V20.75C13 21.3023 12.5523 21.75 12 21.75C11.4477 21.75 11 21.3023 11 20.75ZM15 18.75V18.25C15 17.6977 15.4477 17.25 16 17.25C16.5523 17.25 17 17.6977 17 18.25V18.75C17 19.2677 17.3933 19.6938 17.8975 19.7451L18.1025 19.7549C18.6067 19.8062 19 20.2323 19 20.75C19 21.3023 18.5523 21.75 18 21.75C16.3431 21.75 15 20.4069 15 18.75Z" fill="currentColor"/><path opacity="0.4" d="M22.75 9.0505V9V8.9495C22.75 7.81853 22.75 6.91474 22.6797 6.18945C22.6072 5.44206 22.4543 4.8055 22.0986 4.23926C21.7589 3.69864 21.3014 3.24106 20.7607 2.90137C20.1945 2.54566 19.5579 2.39281 18.8105 2.32031C18.0852 2.24997 17.1814 2.24998 16.0504 2.25H16H8H7.94956C6.81856 2.24998 5.91475 2.24997 5.18945 2.32031C4.44206 2.39281 3.8055 2.54566 3.23926 2.90137C2.69864 3.24106 2.24106 3.69864 1.90137 4.23926C1.54566 4.8055 1.39281 5.44206 1.32031 6.18945C1.24997 6.91475 1.24998 7.81856 1.25 8.94956V9V9.05044C1.24998 10.1814 1.24997 11.0852 1.32031 11.8105C1.39281 12.5579 1.54566 13.1945 1.90137 13.7607C2.24106 14.3014 2.69864 14.7589 3.23926 15.0986C3.8055 15.4543 4.44206 15.6072 5.18945 15.6797C5.91474 15.75 6.81853 15.75 7.9495 15.75H8H16H16.0505C17.1815 15.75 18.0853 15.75 18.8105 15.6797C19.5579 15.6072 20.1945 15.4543 20.7607 15.0986C21.3014 14.7589 21.7589 14.3014 22.0986 13.7607C22.4543 13.1945 22.6072 12.5579 22.6797 11.8105C22.75 11.0853 22.75 10.1815 22.75 9.0505Z" fill="currentColor"/><path d="M17 11C17.5523 11 18 11.4477 18 12C18 12.5523 17.5523 13 17 13H7C6.44772 13 6 12.5523 6 12C6 11.4477 6.44772 11 7 11H17Z" fill="currentColor"/><path d="M18.1025 6.00488C18.6067 6.05621 19 6.48232 19 7C19 7.55229 18.5523 8 18 8C17.4477 8 17 7.55228 17 7C17 6.44772 17.4477 6 18 6L18.1025 6.00488Z" fill="currentColor"/></svg>
