<svg xmlns="http://www.w3.org/2000/svg" viewBox="0 0 24 24" fill="none"><path opacity="0.4" d="M12.0002 2.23828C12.5397 2.23846 12.9767 2.67582 12.9767 3.21484V9.0127L15.9953 10.8555L20.2853 8.2373C20.7458 7.95626 21.3476 8.10159 21.6291 8.56152C21.9104 9.02149 21.7652 9.62216 21.3048 9.90332L17.8693 11.999L21.3048 14.0967C21.7652 14.3778 21.9104 14.9785 21.6291 15.4385C21.3476 15.8984 20.7458 16.0437 20.2853 15.7627L15.9953 13.1436L12.9767 14.9863V20.7852C12.9767 21.3242 12.5397 21.7615 12.0002 21.7617C11.4604 21.7617 11.0226 21.3243 11.0226 20.7852V15.002L7.78043 13.127L3.20523 15.7744C2.7383 16.0443 2.14078 15.8851 1.87027 15.4189C1.59992 14.9525 1.75893 14.3552 2.22574 14.085L5.83023 11.999L2.22574 9.91504C1.75893 9.64481 1.59992 9.04751 1.87027 8.58105C2.14078 8.11486 2.7383 7.95569 3.20523 8.22559L7.78043 10.8711L11.0226 8.99707V3.21484C11.0226 2.67571 11.4604 2.23828 12.0002 2.23828ZM9.73062 12L11.9855 13.3037L14.1212 12L11.9855 10.6963L9.73062 12Z" fill="currentColor" fill-rule="evenodd" clip-rule="evenodd"/><path d="M20.7954 11.2335C20.7954 10.569 20.7946 10.1375 20.7629 9.80262C20.7332 9.4881 20.681 9.33223 20.6179 9.21633C20.5548 9.1004 20.4521 8.97225 20.2037 8.7759C19.9391 8.5668 19.5764 8.33067 19.0174 7.96845L14.131 4.80155C13.4673 4.37145 13.033 4.09157 12.6766 3.91116C12.3411 3.74135 12.1541 3.70238 11.9999 3.70238C11.8458 3.70238 11.6587 3.74135 11.3233 3.91116C10.9669 4.09157 10.5325 4.37145 9.86884 4.80155L4.98247 7.96845C4.42352 8.33067 4.06076 8.5668 3.7962 8.7759C3.5478 8.97225 3.44513 9.1004 3.382 9.21633C3.31891 9.33223 3.26666 9.4881 3.23694 9.80262C3.20532 10.1375 3.20449 10.569 3.20449 11.2335V12.7665C3.20449 13.431 3.20532 13.8625 3.23694 14.1974C3.26666 14.5119 3.31891 14.6678 3.382 14.7837C3.44513 14.8996 3.5478 15.0278 3.7962 15.2241C4.06076 15.4332 4.42352 15.6693 4.98247 16.0316L9.86884 19.1985C10.5325 19.6285 10.9669 19.9084 11.3233 20.0888C11.6587 20.2586 11.8458 20.2976 11.9999 20.2976C12.1541 20.2976 12.3411 20.2587 12.6766 20.0888C13.033 19.9084 13.4673 19.6285 14.131 19.1985L19.0174 16.0316C19.5764 15.6693 19.9391 15.4332 20.2037 15.2241C20.4521 15.0278 20.5548 14.8996 20.6179 14.7837C20.681 14.6678 20.7332 14.5119 20.7629 14.1974C20.7946 13.8625 20.7954 13.431 20.7954 12.7665V11.2335ZM22.7499 12.7665C22.7499 13.3951 22.7512 13.9337 22.7089 14.3814C22.6647 14.8492 22.5683 15.2886 22.3357 15.716C22.1031 16.1434 21.7858 16.4633 21.4167 16.7551C21.0634 17.0343 20.6103 17.3277 20.0815 17.6703L15.1952 20.8362C14.5665 21.2437 14.0312 21.5922 13.5603 21.8305C13.0685 22.0795 12.5701 22.25 11.9999 22.25C11.4298 22.25 10.9314 22.0795 10.4395 21.8305C9.96866 21.5922 9.43343 21.2437 8.80472 20.8362L3.91835 17.6703C3.38963 17.3277 2.93645 17.0343 2.58319 16.7551C2.21406 16.4633 1.89677 16.1434 1.66414 15.716C1.43158 15.2886 1.33521 14.8493 1.29098 14.3814C1.24868 13.9337 1.24994 13.3951 1.24994 12.7665V11.2335C1.24994 10.6049 1.24868 10.0663 1.29098 9.61863C1.33521 9.15075 1.43158 8.71139 1.66414 8.28399C1.89677 7.85663 2.21407 7.53667 2.58319 7.24488C2.93645 6.96568 3.38963 6.67234 3.91835 6.32971L8.80472 3.16376C9.43343 2.75633 9.96866 2.40784 10.4395 2.16946C10.9314 1.92047 11.4298 1.75 11.9999 1.75C12.5701 1.75 13.0685 1.92047 13.5603 2.16946C14.0312 2.40784 14.5664 2.75633 15.1952 3.16376L20.0815 6.32971C20.6103 6.67234 21.0634 6.96568 21.4167 7.24488C21.7858 7.53667 22.1031 7.85663 22.3357 8.28399C22.5683 8.71139 22.6647 9.15075 22.7089 9.61863C22.7512 10.0663 22.7499 10.6049 22.7499 11.2335V12.7665Z" fill="currentColor"/></svg>
