<svg xmlns="http://www.w3.org/2000/svg" viewBox="0 0 24 24" fill="none"><path d="M11.9996 1.75C12.5697 1.75 13.0683 1.92094 13.5601 2.16992C14.0309 2.4083 14.5663 2.75673 15.1949 3.16406L20.0816 6.33008C20.6101 6.67258 21.0634 6.966 21.4166 7.24512C21.7856 7.53685 22.1029 7.85691 22.3355 8.28418C22.5679 8.71138 22.6643 9.15053 22.7086 9.61816C22.7509 10.0658 22.7496 10.6048 22.7496 11.2334V12.7666C22.7496 13.3952 22.7509 13.9342 22.7086 14.3818C22.6643 14.8495 22.5679 15.2886 22.3355 15.7158C22.1029 16.1431 21.7856 16.4632 21.4166 16.7549C21.0634 17.034 20.6101 17.3274 20.0816 17.6699L15.1949 20.8359C14.5663 21.2433 14.0309 21.5917 13.5601 21.8301C13.0683 22.0791 12.5697 22.25 11.9996 22.25C11.4294 22.25 10.9309 22.0791 10.439 21.8301C9.96822 21.5917 9.43284 21.2433 8.80426 20.8359L3.91755 17.6699C3.38903 17.3274 2.93573 17.034 2.58258 16.7549C2.21357 16.4632 1.89621 16.1431 1.66364 15.7158C1.43124 15.2886 1.33483 14.8495 1.29059 14.3818C1.24829 13.9342 1.24958 13.3952 1.24958 12.7666V11.2334C1.24958 10.6048 1.24829 10.0658 1.29059 9.61816C1.33483 9.15053 1.43124 8.71138 1.66364 8.28418C1.89621 7.85692 2.21357 7.53685 2.58258 7.24512C2.93573 6.966 3.38903 6.67258 3.91755 6.33008L8.80426 3.16406C9.43284 2.75673 9.96822 2.4083 10.439 2.16992C10.9309 1.92094 11.4294 1.75 11.9996 1.75ZM3.95173 15.3408C4.19995 15.5225 4.52511 15.7352 4.982 16.0312L9.86872 19.1982C10.3579 19.5152 10.7224 19.7507 11.023 19.9248V15.0029L7.77887 13.127L3.95173 15.3408ZM12.9771 14.9873V19.9238C13.2775 19.7498 13.6419 19.5148 14.1304 19.1982L19.0172 16.0312C19.356 15.8117 19.622 15.6373 19.8384 15.4883L15.9966 13.1436L12.9771 14.9873ZM17.8716 11.999L20.7847 13.7773C20.7928 13.5099 20.7955 13.1843 20.7955 12.7666V11.2334C20.7955 10.8147 20.7929 10.4885 20.7847 10.2207L17.8716 11.999ZM3.20368 11.2334V12.7666C3.20368 13.057 3.20477 13.3029 3.20758 13.5156L5.82868 11.999L3.20758 10.4834C3.20475 10.6964 3.20368 10.9426 3.20368 11.2334ZM9.72907 12L11.9849 13.3047L14.1216 12L11.9849 10.6953L9.72907 12ZM11.023 4.07422C10.7223 4.24835 10.3581 4.48462 9.86872 4.80176L4.982 7.96875C4.52539 8.26465 4.19989 8.47659 3.95173 8.6582L7.77887 10.8721L11.023 8.99609V4.07422ZM12.9771 9.01172L15.9966 10.8555L19.8375 8.51074C19.6212 8.36193 19.3554 8.18797 19.0172 7.96875L14.1304 4.80176C13.6417 4.48502 13.2776 4.24926 12.9771 4.0752V9.01172Z" fill="currentColor" fill-rule="evenodd" clip-rule="evenodd"/></svg>
