<svg xmlns="http://www.w3.org/2000/svg" viewBox="0 0 24 24" fill="none"><path opacity="0.4" d="M22.75 12C22.75 7.16751 18.8325 3.25 14 3.25H8H7.93562C6.57253 3.24997 5.47333 3.24995 4.6084 3.36621C3.70829 3.48723 2.95055 3.74672 2.34863 4.34863C1.74672 4.95055 1.48723 5.70829 1.36621 6.6084C1.24995 7.47333 1.24997 8.57253 1.25 9.93562V10V14V14.0644C1.24997 15.4275 1.24995 16.5267 1.36621 17.3916C1.48723 18.2917 1.74672 19.0495 2.34863 19.6514C2.95055 20.2533 3.70829 20.5128 4.6084 20.6338C5.4733 20.7501 6.57247 20.75 7.93551 20.75H8H14C18.8325 20.75 22.75 16.8325 22.75 12Z" fill="currentColor"/><path d="M6.75 12.001C6.75 8.25015 9.59832 5.16435 13.25 4.78906V19.2119C9.59837 18.8366 6.75 15.7518 6.75 12.001Z" fill="currentColor"/></svg>
