<svg xmlns="http://www.w3.org/2000/svg" viewBox="0 0 24 24" fill="none"><path d="M13.9995 3.25C18.832 3.25 22.7495 7.16751 22.7495 12C22.7495 16.8325 18.832 20.75 13.9995 20.75H7.93506C6.57202 20.75 5.47281 20.7501 4.60791 20.6338C3.7078 20.5128 2.95006 20.2533 2.34814 19.6514C1.74623 19.0495 1.48674 18.2917 1.36572 17.3916C1.24946 16.5267 1.24948 15.4275 1.24951 14.0645V9.93555C1.24948 8.57249 1.24946 7.47331 1.36572 6.6084C1.48674 5.70829 1.74623 4.95055 2.34814 4.34863C2.95006 3.74672 3.7078 3.48723 4.60791 3.36621C5.47282 3.24995 6.572 3.24997 7.93506 3.25H13.9995ZM13.2495 4.78906C9.59783 5.16435 6.74951 8.25015 6.74951 12.001C6.74951 15.7518 9.59788 18.8366 13.2495 19.2119V4.78906Z" fill="currentColor"/></svg>
