<svg xmlns="http://www.w3.org/2000/svg" viewBox="0 0 24 24" fill="none"><path opacity="0.4" d="M19.6945 17.5362C19.7509 17.2524 19.7472 16.9286 19.7472 16.5C19.7472 16.0715 19.7509 15.7477 19.6945 15.4639C19.4775 14.373 18.6243 13.5198 17.5334 13.3028C17.2496 13.2464 16.9258 13.25 16.4972 13.25H7.50017C7.07165 13.25 6.74786 13.2464 6.46404 13.3028C5.37314 13.5198 4.5199 14.373 4.3029 15.4639C4.24651 15.7477 4.25017 16.0715 4.25017 16.5C4.25017 16.9286 4.24651 17.2524 4.3029 17.5362C4.5199 18.6271 5.37314 19.4803 6.46404 19.6973C6.74786 19.7537 7.07165 19.75 7.50017 19.75H16.4972C16.9258 19.75 17.2496 19.7537 17.5334 19.6973C18.6243 19.4803 19.4775 18.6271 19.6945 17.5362Z" fill="currentColor"/><path opacity="0.4" d="M16.6945 8.53618C16.7509 8.25236 16.7472 7.92857 16.7472 7.50005C16.7472 7.07153 16.7509 6.74773 16.6945 6.46392C16.4775 5.37302 15.6243 4.51978 14.5334 4.30278C14.2496 4.24638 13.9258 4.25005 13.4972 4.25005H10.5002C10.0717 4.25005 9.74786 4.24639 9.46404 4.30278C8.37314 4.51978 7.5199 5.37302 7.3029 6.46392C7.24651 6.74774 7.25017 7.07153 7.25017 7.50005C7.25017 7.92857 7.24651 8.25236 7.3029 8.53618C7.5199 9.62708 8.37314 10.4803 9.46404 10.6973C9.74786 10.7537 10.0717 10.75 10.5002 10.75H13.4972C13.9258 10.75 14.2496 10.7537 14.5334 10.6973C15.6243 10.4803 16.4775 9.62708 16.6945 8.53618Z" fill="currentColor"/><path d="M2.25012 8.75L21.7501 8.75C22.3024 8.75 22.7501 9.19772 22.7501 9.75C22.7501 10.3023 22.3024 10.75 21.7501 10.75L2.25012 10.75C1.69784 10.75 1.25012 10.3023 1.25012 9.75C1.25012 9.19772 1.69784 8.75 2.25012 8.75Z" fill="currentColor"/><path d="M2.25012 17.75L21.7501 17.75C22.3024 17.75 22.7501 18.1977 22.7501 18.75C22.7501 19.3023 22.3024 19.75 21.7501 19.75L2.25012 19.75C1.69784 19.75 1.25012 19.3023 1.25012 18.75C1.25012 18.1977 1.69784 17.75 2.25012 17.75Z" fill="currentColor"/></svg>
