<svg xmlns="http://www.w3.org/2000/svg" viewBox="0 0 24 24" fill="none"><path opacity="0.4" d="M15 12.25C19.2802 12.25 22.75 8.78022 22.75 4.50001C22.75 3.53351 21.9664 2.75001 21 2.75001H8.99995C8.54975 2.75001 8.13659 2.74809 7.80269 2.79298C7.44721 2.84077 7.07167 2.95369 6.76265 3.26271C6.45363 3.57173 6.34071 3.94727 6.29292 4.30275C6.24803 4.63665 6.24995 5.04981 6.24995 5.50001V7.50001L6.24995 7.54675C6.24993 8.44758 6.24991 9.19899 6.33003 9.79493C6.41446 10.4225 6.60026 10.989 7.05562 11.4443C7.51097 11.8997 8.07742 12.0855 8.70503 12.1699C9.30097 12.2501 10.0524 12.25 10.9532 12.25H11H15Z" fill="currentColor"/><path d="M5.12592 3.75C5.09282 3.88684 5.06967 4.01668 5.05365 4.13574C4.99498 4.5721 4.99994 5.08447 4.99994 5.5V7.5C4.99994 8.38745 4.99551 9.25335 5.09076 9.96191C5.09986 10.0295 5.11135 10.0979 5.12299 10.167C2.91877 9.75538 1.24994 7.82361 1.24994 5.5C1.24994 4.5335 2.03344 3.75 2.99994 3.75H5.12592Z" fill="currentColor"/><path d="M18.9998 15.75C17.7572 15.75 16.7498 14.7426 16.7498 13.5V13.3281C16.1837 13.4397 15.5987 13.5 14.9998 13.5H10.9998C10.3918 13.5 9.79399 13.4991 9.24985 13.4697V13.5C9.24985 14.7426 8.24249 15.75 6.99985 15.75C6.58325 15.75 6.22793 15.7441 5.91782 15.8271C5.14139 16.0352 4.53504 16.6415 4.327 17.418C4.24394 17.7281 4.24985 18.0834 4.24985 18.5C4.24985 18.9166 4.24394 19.2719 4.327 19.582C4.53504 20.3585 5.14139 20.9648 5.91782 21.1729C6.22793 21.2559 6.58325 21.25 6.99985 21.25H8.99985C9.17368 21.25 9.34957 21.251 9.49496 21.2393C9.63902 21.2276 9.8531 21.198 10.0604 21.0752C10.2031 20.9906 10.3013 20.8798 10.3592 20.8076C10.4225 20.7287 10.4805 20.6413 10.5321 20.5576C10.6299 20.3988 10.747 20.1848 10.8845 19.9337L10.8856 19.9316L10.9022 19.9014C11.1155 19.5117 11.5009 18.25 12.9998 18.25C14.4988 18.25 14.8842 19.5117 15.0975 19.9014L15.1141 19.9316L15.1152 19.9336C15.2526 20.1847 15.3698 20.3988 15.4676 20.5576C15.5192 20.6413 15.5772 20.7287 15.6405 20.8076C15.6984 20.8798 15.7966 20.9906 15.9393 21.0752C16.1466 21.198 16.3607 21.2276 16.5047 21.2393C16.6501 21.251 16.826 21.25 16.9998 21.25H18.9998C19.4164 21.25 19.7718 21.2559 20.0819 21.1729C20.8583 20.9648 21.4646 20.3585 21.6727 19.582C21.7558 19.2719 21.7498 18.9166 21.7498 18.5C21.7498 18.0834 21.7558 17.7281 21.6727 17.418C21.4646 16.6415 20.8583 16.0352 20.0819 15.8271C19.7718 15.7441 19.4164 15.75 18.9998 15.75Z" fill="currentColor"/></svg>
