<svg xmlns="http://www.w3.org/2000/svg" viewBox="0 0 24 24" fill="none"><path d="M14.9996 12.25C19.2798 12.25 22.7496 8.78022 22.7496 4.50001C22.7496 3.53351 21.9661 2.75001 20.9996 2.75001H8.99958C8.54938 2.75001 8.13622 2.74809 7.80232 2.79298C7.44684 2.84077 7.0713 2.95369 6.76228 3.26271C6.45326 3.57173 6.34035 3.94727 6.29255 4.30275C6.24766 4.63665 6.24958 5.04981 6.24958 5.50001V7.50001L6.24958 7.54675C6.24956 8.44758 6.24954 9.19899 6.32966 9.79493C6.4141 10.4225 6.59989 10.989 7.05525 11.4443C7.51061 11.8997 8.07705 12.0855 8.70466 12.1699C9.30061 12.2501 10.052 12.25 10.9529 12.25H10.9996H14.9996Z" fill="currentColor"/><path d="M5.12555 3.75C5.09245 3.88684 5.0693 4.01668 5.05328 4.13574C4.99462 4.5721 4.99957 5.08447 4.99957 5.5V7.5C4.99957 8.38745 4.99514 9.25335 5.09039 9.96191C5.09949 10.0295 5.11098 10.0979 5.12262 10.167C2.9184 9.75538 1.24957 7.82361 1.24957 5.5C1.24957 4.5335 2.03307 3.75 2.99957 3.75H5.12555Z" fill="currentColor"/><path d="M18.9995 15.75C17.7569 15.75 16.7495 14.7426 16.7495 13.5V13.3281C16.1833 13.4397 15.5984 13.5 14.9995 13.5H10.9995C10.3914 13.5 9.79362 13.4991 9.24948 13.4697V13.5C9.24948 14.7426 8.24212 15.75 6.99948 15.75C6.58288 15.75 6.22756 15.7441 5.91745 15.8271C5.14102 16.0352 4.53468 16.6415 4.32663 17.418C4.24357 17.7281 4.24948 18.0834 4.24948 18.5C4.24948 18.9166 4.24357 19.2719 4.32663 19.582C4.53468 20.3585 5.14102 20.9648 5.91745 21.1729C6.22756 21.2559 6.58288 21.25 6.99948 21.25H8.99948C9.17331 21.25 9.34921 21.251 9.4946 21.2393C9.63865 21.2276 9.85273 21.198 10.06 21.0752C10.2028 20.9906 10.3009 20.8798 10.3589 20.8076C10.4222 20.7287 10.4802 20.6413 10.5317 20.5576C10.6295 20.3988 10.7467 20.1848 10.8841 19.9337L10.8852 19.9316L10.9018 19.9014C11.1151 19.5117 11.5005 18.25 12.9995 18.25C14.4984 18.25 14.8838 19.5117 15.0971 19.9014L15.1137 19.9316L15.1148 19.9336C15.2522 20.1847 15.3694 20.3988 15.4673 20.5576C15.5188 20.6413 15.5768 20.7287 15.6401 20.8076C15.698 20.8798 15.7962 20.9906 15.9389 21.0752C16.1462 21.198 16.3603 21.2276 16.5044 21.2393C16.6497 21.251 16.8256 21.25 16.9995 21.25H18.9995C19.4161 21.25 19.7714 21.2559 20.0815 21.1729C20.858 20.9648 21.4643 20.3585 21.6723 19.582C21.7554 19.2719 21.7495 18.9166 21.7495 18.5C21.7495 18.0834 21.7554 17.7281 21.6723 17.418C21.4643 16.6415 20.858 16.0352 20.0815 15.8271C19.7714 15.7441 19.4161 15.75 18.9995 15.75Z" fill="currentColor"/></svg>
