<svg xmlns="http://www.w3.org/2000/svg" viewBox="0 0 24 24" fill="none"><path d="M13.0522 1.25195C13.9506 1.25193 14.6998 1.2519 15.2946 1.33187C15.9224 1.41627 16.4892 1.60194 16.9446 2.05741C17.4001 2.51288 17.5858 3.07968 17.6702 3.70748C17.714 4.03334 17.7338 4.70574 17.7427 5.39491C17.7465 5.68126 17.7483 5.82444 17.66 5.91372C17.5717 6.003 17.4268 6.00273 17.1369 6.0022C17.0021 6.00195 16.8646 6.00195 16.7246 6.00195H7.27563C7.13561 6.00195 6.9981 6.00195 6.86327 6.0022C6.5734 6.00273 6.42846 6.003 6.34017 5.91372C6.25187 5.82444 6.25373 5.68126 6.25745 5.39491C6.26639 4.70575 6.28619 4.03334 6.33 3.70748C6.41441 3.07968 6.60008 2.51288 7.05555 2.05741C7.51102 1.60194 8.07782 1.41627 8.70561 1.33187C9.30038 1.2519 10.0496 1.25193 10.9481 1.25195H13.0522Z" fill="currentColor"/><path d="M22.6977 16.4287C22.5212 15.9054 21.9543 15.6243 21.431 15.8007C20.6458 16.0656 19.8979 16.5691 19.2465 17.1132C18.5856 17.6652 17.9691 18.3049 17.4467 18.9013C17.1065 19.2896 16.8017 19.6664 16.5443 19.997C16.3612 19.779 16.1825 19.5958 16.017 19.4453C15.805 19.2525 15.6163 19.1131 15.473 19.0175C15.4015 18.9698 15.2443 18.8804 15.1977 18.8535C14.7037 18.6065 14.1028 18.8067 13.8559 19.3007C13.6096 19.7933 13.8084 20.3913 14.2992 20.6396C14.3668 20.6847 14.5396 20.806 14.6713 20.9257C14.9335 21.1641 15.2917 21.567 15.6059 22.1953C15.7652 22.514 16.0822 22.7238 16.4379 22.746C16.7934 22.7682 17.1346 22.5999 17.3324 22.3037L17.3378 22.2959C17.4188 22.1802 17.6365 21.8688 17.7768 21.6796C18.0645 21.2914 18.4722 20.7669 18.9516 20.2197C19.4327 19.6704 19.9738 19.1119 20.5287 18.6484C21.0932 18.1769 21.6197 17.8471 22.0697 17.6953C22.593 17.5188 22.8741 16.9519 22.6977 16.4287Z" fill="currentColor"/><path opacity="0.4" d="M16.6786 7.25195C17.5366 7.25195 18.2277 7.25207 18.788 7.29883C19.3651 7.34704 19.8684 7.44873 20.3348 7.68848C20.8933 7.97563 21.3734 8.39229 21.7294 8.9043C22.0287 9.33492 22.1863 9.81626 22.2948 10.3711C22.3996 10.9069 22.4685 11.5728 22.5536 12.3926L22.5614 12.4658C22.6555 13.3719 22.7293 14.1165 22.744 14.7295C22.2938 14.508 21.7696 14.4359 21.2528 14.5537L21.0311 14.6162C20.037 14.9516 19.1516 15.5643 18.4452 16.1543C17.7181 16.7616 17.0977 17.4132 16.4296 18.167C16.1944 17.9665 15.7527 17.739 15.5536 17.6465C15.4781 17.3478 15.4413 17.2468 15.3964 17.1719C15.2825 16.9819 15.1229 16.8555 14.9579 16.7939C14.8767 16.7638 14.7536 16.7481 13.9891 16.748H10.0116C9.24558 16.7481 9.12307 16.7637 9.04187 16.7939C8.87704 16.8556 8.71819 16.9821 8.60437 17.1719C8.5376 17.2834 8.48626 17.4523 8.30359 18.2451C8.17059 18.8223 8.08226 19.2065 8.03503 19.5029C7.98864 19.7943 7.99741 19.914 8.00866 19.9717C8.07272 20.2991 8.26594 20.5433 8.49011 20.6621C8.50669 20.6709 8.58006 20.7058 8.83874 20.7266C9.10487 20.7479 9.45988 20.748 10.0116 20.748H12.7382C12.9281 21.1291 13.2264 21.4597 13.6171 21.6875C13.9314 21.9296 14.245 22.2744 14.4823 22.7451C14.3376 22.746 14.1856 22.7481 14.0272 22.748H9.97351C9.47088 22.7481 9.03441 22.7483 8.67859 22.7197C8.30665 22.6898 7.92041 22.6234 7.55456 22.4297C6.75887 22.0084 6.21728 21.2325 6.04577 20.3555C5.96874 19.9613 5.99915 19.5722 6.06042 19.1875C6.08217 19.051 6.10997 18.9039 6.14245 18.7461C5.63396 18.7401 5.1902 18.7274 4.80359 18.6924C4.12865 18.6312 3.54505 18.5022 3.0282 18.1924C2.41635 17.8255 1.9186 17.2976 1.59655 16.667C1.32234 16.1298 1.24584 15.5451 1.24988 14.8848C1.25383 14.2432 1.33616 13.45 1.43835 12.4658L1.44616 12.3926C1.53128 11.5727 1.60017 10.9069 1.70495 10.3711C1.81348 9.81628 1.97203 9.33491 2.27136 8.9043C2.62728 8.39247 3.10669 7.97559 3.66491 7.68848C4.13135 7.44863 4.63458 7.34707 5.21179 7.29883C5.77205 7.25203 6.46302 7.25195 7.32116 7.25195H16.6786Z" fill="currentColor"/></svg>
