<svg xmlns="http://www.w3.org/2000/svg" viewBox="0 0 24 24" fill="none"><path d="M13.0517 1.25195C13.9501 1.25193 14.6993 1.2519 15.2941 1.33187C15.9219 1.41627 16.4887 1.60194 16.9441 2.05741C17.3996 2.51288 17.5853 3.07968 17.6697 3.70748C17.7135 4.03334 17.7333 4.70574 17.7422 5.39491C17.746 5.68126 17.7478 5.82444 17.6595 5.91372C17.5712 6.003 17.4263 6.00273 17.1364 6.0022C17.0016 6.00195 16.8641 6.00195 16.7241 6.00195H7.27514C7.13512 6.00195 6.99761 6.00195 6.86278 6.0022C6.57291 6.00273 6.42798 6.003 6.33968 5.91372C6.25138 5.82444 6.25324 5.68126 6.25696 5.39491C6.2659 4.70575 6.2857 4.03334 6.32952 3.70748C6.41392 3.07968 6.59959 2.51288 7.05506 2.05741C7.51053 1.60194 8.07733 1.41627 8.70512 1.33187C9.29989 1.2519 10.0492 1.25193 10.9476 1.25195H13.0517Z" fill="currentColor"/><path d="M22.6972 16.4287C22.5207 15.9054 21.9538 15.6243 21.4306 15.8007C20.6453 16.0656 19.8974 16.5691 19.246 17.1132C18.5851 17.6652 17.9686 18.3049 17.4462 18.9013C17.106 19.2896 16.8013 19.6664 16.5438 19.997C16.3607 19.779 16.1821 19.5958 16.0165 19.4453C15.8045 19.2525 15.6159 19.1131 15.4726 19.0175C15.401 18.9698 15.2439 18.8804 15.1972 18.8535C14.7032 18.6065 14.1024 18.8067 13.8554 19.3007C13.6091 19.7933 13.8079 20.3913 14.2987 20.6396C14.3664 20.6847 14.5391 20.806 14.6708 20.9257C14.933 21.1641 15.2913 21.567 15.6054 22.1953C15.7647 22.514 16.0818 22.7238 16.4374 22.746C16.7929 22.7682 17.1341 22.5999 17.3319 22.3037L17.3374 22.2959C17.4183 22.1802 17.6361 21.8688 17.7763 21.6796C18.064 21.2914 18.4717 20.7669 18.9511 20.2197C19.4322 19.6704 19.9733 19.1119 20.5282 18.6484C21.0927 18.1769 21.6192 17.8471 22.0692 17.6953C22.5925 17.5188 22.8736 16.9519 22.6972 16.4287Z" fill="currentColor"/><path d="M16.6781 7.25195C17.5361 7.25195 18.2272 7.25207 18.7875 7.29883C19.3646 7.34704 19.8679 7.44873 20.3343 7.68848C20.8928 7.97563 21.3729 8.39229 21.7289 8.9043C22.0282 9.33492 22.1858 9.81626 22.2943 10.3711C22.3991 10.9069 22.468 11.5728 22.5531 12.3926L22.5609 12.4658C22.655 13.3719 22.7288 14.1165 22.7435 14.7295C22.2933 14.508 21.7691 14.4359 21.2523 14.5537L21.0306 14.6162C20.0365 14.9516 19.1511 15.5643 18.4447 16.1543C17.7176 16.7616 17.0972 17.4132 16.4291 18.167C16.1939 17.9665 15.7522 17.739 15.5531 17.6465C15.4776 17.3478 15.4408 17.2468 15.3959 17.1719C15.282 16.9819 15.1224 16.8555 14.9574 16.7939C14.8762 16.7638 14.7531 16.7481 13.9886 16.748H10.0111C9.24509 16.7481 9.12258 16.7637 9.04138 16.7939C8.87655 16.8556 8.7177 16.9821 8.60388 17.1719C8.53711 17.2834 8.48577 17.4523 8.3031 18.2451C8.1701 18.8223 8.08177 19.2065 8.03454 19.5029C7.98815 19.7943 7.99692 19.914 8.00818 19.9717C8.07223 20.2991 8.26545 20.5433 8.48962 20.6621C8.5062 20.6709 8.57958 20.7058 8.83825 20.7266C9.10438 20.7479 9.45939 20.748 10.0111 20.748H12.7377C12.9276 21.1291 13.2259 21.4597 13.6166 21.6875C13.9309 21.9296 14.2445 22.2744 14.4818 22.7451C14.3371 22.746 14.1851 22.7481 14.0267 22.748H9.97302C9.47039 22.7481 9.03392 22.7483 8.6781 22.7197C8.30617 22.6898 7.91992 22.6234 7.55407 22.4297C6.75838 22.0084 6.21679 21.2325 6.04529 20.3555C5.96825 19.9613 5.99866 19.5722 6.05993 19.1875C6.08169 19.051 6.10948 18.9039 6.14196 18.7461C5.63347 18.7401 5.18972 18.7274 4.8031 18.6924C4.12817 18.6312 3.54456 18.5022 3.02771 18.1924C2.41586 17.8255 1.91811 17.2976 1.59607 16.667C1.32185 16.1298 1.24535 15.5451 1.24939 14.8848C1.25334 14.2432 1.33567 13.45 1.43786 12.4658L1.44568 12.3926C1.53079 11.5727 1.59968 10.9069 1.70446 10.3711C1.81299 9.81628 1.97155 9.33491 2.27087 8.9043C2.62679 8.39247 3.10621 7.97559 3.66443 7.68848C4.13086 7.44863 4.6341 7.34707 5.2113 7.29883C5.77156 7.25203 6.46253 7.25195 7.32068 7.25195H16.6781Z" fill="currentColor"/></svg>
