<svg xmlns="http://www.w3.org/2000/svg" viewBox="0 0 24 24" fill="none"><path opacity="0.4" d="M22.75 12.05V12V11.95C22.75 10.1092 22.75 8.65129 22.5967 7.51074C22.439 6.33844 22.1067 5.38991 21.3584 4.6416C20.6101 3.89329 19.6616 3.56096 18.4893 3.40332C17.3487 3.24998 15.8908 3.24999 14.0499 3.25H14H10H9.95006C8.10924 3.24999 6.6513 3.24998 5.51074 3.40332C4.33844 3.56096 3.38991 3.89329 2.6416 4.6416C1.89329 5.38991 1.56096 6.33844 1.40332 7.51074C1.24998 8.6513 1.24999 10.1092 1.25 11.9501V12V12.0499C1.24999 13.8908 1.24998 15.3487 1.40332 16.4893C1.56096 17.6616 1.89329 18.6101 2.6416 19.3584C3.38991 20.1067 4.33844 20.439 5.51074 20.5967C6.65129 20.75 8.10922 20.75 9.95003 20.75H10H14H14.05C15.8908 20.75 17.3487 20.75 18.4893 20.5967C19.6616 20.439 20.6101 20.1067 21.3584 19.3584C22.1067 18.6101 22.439 17.6616 22.5967 16.4893C22.75 15.3487 22.75 13.8908 22.75 12.05Z" fill="currentColor"/><path d="M6.24256 8.34705C6.60315 7.92879 7.23538 7.88201 7.65369 8.24256L9.49354 9.8285C9.85792 10.1426 10.2105 10.4438 10.4594 10.725C10.7215 11.0211 11.0004 11.438 11.0004 12.0004C11.0004 12.5628 10.7215 12.9796 10.4594 13.2758C10.2105 13.5569 9.85792 13.8582 9.49354 14.1722L7.65369 15.7582C7.23538 16.1187 6.60315 16.072 6.24256 15.6537C5.88201 15.2354 5.92879 14.6031 6.34705 14.2426L8.1869 12.6576C8.55199 12.3429 8.77134 12.1488 8.91248 12.0004C8.77134 11.852 8.55199 11.6578 8.1869 11.3431L6.34705 9.75818C5.92879 9.3976 5.88201 8.76536 6.24256 8.34705Z" fill="currentColor"/><path d="M17 15C17.5523 15 18 15.4477 18 16C18 16.5523 17.5523 17 17 17H13C12.4477 17 12 16.5523 12 16C12 15.4477 12.4477 15 13 15H17Z" fill="currentColor"/></svg>
