<svg xmlns="http://www.w3.org/2000/svg" viewBox="0 0 24 24" fill="none"><path d="M14.0498 3.25C15.8906 3.24999 17.3487 3.24998 18.4893 3.40332C19.6616 3.56096 20.6101 3.89329 21.3584 4.6416C22.1067 5.38991 22.439 6.33844 22.5967 7.51074C22.75 8.65129 22.75 10.1094 22.75 11.9502V12.0498C22.75 13.8906 22.75 15.3487 22.5967 16.4893C22.439 17.6616 22.1067 18.6101 21.3584 19.3584C20.6101 20.1067 19.6616 20.439 18.4893 20.5967C17.3487 20.75 15.8906 20.75 14.0498 20.75H9.9502C8.10939 20.75 6.65129 20.75 5.51074 20.5967C4.33844 20.439 3.38991 20.1067 2.6416 19.3584C1.89329 18.6101 1.56096 17.6616 1.40332 16.4893C1.24998 15.3487 1.24999 13.8906 1.25 12.0498V11.9502C1.24999 10.1094 1.24998 8.65129 1.40332 7.51074C1.56096 6.33844 1.89329 5.38991 2.6416 4.6416C3.38991 3.89329 4.33844 3.56096 5.51074 3.40332C6.65129 3.24998 8.10937 3.24999 9.9502 3.25H14.0498ZM13 15C12.4477 15 12 15.4477 12 16C12 16.5523 12.4477 17 13 17H17C17.5523 17 18 16.5523 18 16C18 15.4477 17.5523 15 17 15H13ZM7.65332 8.24219C7.23502 7.88202 6.60266 7.92858 6.24219 8.34668C5.88175 8.76486 5.92879 9.39717 6.34668 9.75781L8.18652 11.3428C8.55131 11.6572 8.77096 11.8517 8.91211 12C8.77097 12.1484 8.55162 12.3425 8.18652 12.6572L6.34668 14.2422C5.92858 14.6027 5.88202 15.235 6.24219 15.6533C6.60277 16.0716 7.23501 16.1183 7.65332 15.7578L9.49316 14.1719C9.85755 13.8578 10.2101 13.5565 10.459 13.2754C10.7211 12.9793 11 12.5624 11 12C10.9999 11.4378 10.721 11.0207 10.459 10.7246C10.2101 10.4436 9.85738 10.1421 9.49316 9.82812L7.65332 8.24219Z" fill="currentColor"/></svg>
