<svg xmlns="http://www.w3.org/2000/svg" viewBox="0 0 24 24" fill="none"><path opacity="0.4" d="M13.6182 1.47369C12.5602 1.17531 11.4398 1.17531 10.3819 1.47369C9.58342 1.69892 8.88187 2.14433 8.12014 2.78228C7.37454 3.40677 6.51973 4.26159 5.42871 5.35262L5.39065 5.39068L5.35259 5.42874C4.26156 6.51976 3.40674 7.37457 2.78225 8.12017C2.1443 8.8819 1.69889 9.58346 1.47366 10.3819C1.17528 11.4399 1.17528 12.5603 1.47366 13.6182C1.69889 14.4167 2.1443 15.1182 2.78225 15.8799C3.40674 16.6256 4.26157 17.4804 5.35261 18.5714L5.39065 18.6094L5.42867 18.6475C6.5197 19.7385 7.37453 20.5933 8.12014 21.2178C8.88187 21.8558 9.58342 22.3012 10.3819 22.5264C11.4398 22.8248 12.5602 22.8248 13.6182 22.5264C14.4166 22.3012 15.1182 21.8558 15.8799 21.2178C16.6255 20.5933 17.4803 19.7385 18.5713 18.6475L18.6094 18.6094L18.6475 18.5714C19.7385 17.4804 20.5933 16.6255 21.2178 15.8799C21.8558 15.1182 22.3012 14.4167 22.5264 13.6182C22.8248 12.5603 22.8248 11.4399 22.5264 10.3819C22.3012 9.58346 21.8558 8.8819 21.2178 8.12017C20.5933 7.37456 19.7385 6.51973 18.6474 5.4287L18.6094 5.39068L18.5714 5.35264C17.4803 4.2616 16.6255 3.40677 15.8799 2.78228C15.1182 2.14433 14.4166 1.69892 13.6182 1.47369Z" fill="currentColor"/><path d="M10.9999 11.9999V7.99991C10.9999 7.44762 11.4476 6.99991 11.9999 6.99991C12.5522 6.99991 12.9999 7.44762 12.9999 7.99991V11.9999C12.9999 12.5522 12.5522 12.9999 11.9999 12.9999C11.4476 12.9999 10.9999 12.5522 10.9999 11.9999Z" fill="currentColor"/><path d="M11.9999 14.7499C12.5522 14.7499 12.9999 15.1976 12.9999 15.7499C12.9999 16.3022 12.5522 16.7499 11.9999 16.7499C11.4476 16.7499 10.9999 16.3022 10.9999 15.7499C10.9999 15.1976 11.4476 14.7499 11.9999 14.7499Z" fill="currentColor"/></svg>
