<svg xmlns="http://www.w3.org/2000/svg" viewBox="0 0 24 24" fill="none"><path d="M10.3818 1.47367C11.4397 1.17531 12.5603 1.17534 13.6182 1.47367C14.4165 1.69888 15.1182 2.14438 15.8799 2.78226C16.6255 3.40671 17.4804 4.26163 18.5713 5.35257L18.6475 5.42874C19.7384 6.5197 20.5933 7.37457 21.2178 8.12015C21.8557 8.88181 22.3011 9.5835 22.5264 10.3819C22.8247 11.4398 22.8247 12.5603 22.5264 13.6182C22.3011 14.4166 21.8557 15.1182 21.2178 15.8799C20.5933 16.6255 19.7385 17.4803 18.6475 18.5713L18.5713 18.6475C17.4803 19.7385 16.6255 20.5933 15.8799 21.2178C15.1182 21.8558 14.4166 22.3012 13.6182 22.5264C12.5602 22.8247 11.4398 22.8248 10.3818 22.5264C9.58347 22.3012 8.88178 21.8557 8.12012 21.2178C7.37454 20.5933 6.51967 19.7385 5.42871 18.6475L5.35254 18.5713C4.26159 17.4804 3.40668 16.6255 2.78223 15.8799C2.14435 15.1183 1.69885 14.4166 1.47363 13.6182C1.17531 12.5603 1.17528 11.4398 1.47363 10.3819C1.69887 9.58347 2.1443 8.88184 2.78223 8.12015C3.40671 7.37455 4.26153 6.51974 5.35254 5.42874L5.42871 5.35257C6.51971 4.26156 7.37452 3.40674 8.12012 2.78226C8.88181 2.14433 9.58344 1.6989 10.3818 1.47367ZM12 14.75C11.4477 14.75 11 15.1978 11 15.75C11 16.3023 11.4477 16.75 12 16.75C12.5523 16.75 13 16.3023 13 15.75C13 15.1977 12.5523 14.75 12 14.75ZM12 7.00003C11.4477 7.00003 11 7.44775 11 8.00003V12C11 12.5523 11.4477 13 12 13C12.5523 13 13 12.5523 13 12V8.00003C13 7.44775 12.5523 7.00003 12 7.00003Z" fill="currentColor" fill-rule="evenodd" clip-rule="evenodd"/></svg>
