<svg xmlns="http://www.w3.org/2000/svg" viewBox="0 0 24 24" fill="none"><path d="M12 2.24994C16.3035 2.24994 19.8379 5.54506 20.2168 9.74994H20.5C21.7426 9.74994 22.75 10.7573 22.75 11.9999C22.75 13.2426 21.7426 14.2499 20.5 14.2499H20.25V19.0556C20.2501 19.6836 20.2505 20.2363 20.1885 20.662C20.1236 21.107 19.9633 21.6242 19.46 21.9335C18.3995 22.5852 17.284 22.0286 16.752 21.7236C16.5853 21.5954 16.0131 21.2083 15.749 21.1181C15.4908 21.03 15.3117 21.0447 15.1719 21.1288C14.9632 21.2544 14.7504 21.4036 14.5195 21.5712C14.3305 21.7091 14.0041 21.9476 13.8027 22.082C13.326 22.4 12.707 22.7499 12 22.7499C11.293 22.7499 10.674 22.4 10.1973 22.082C9.99598 21.9477 9.79255 21.7999 9.60352 21.662C9.37261 21.4944 9.03677 21.2544 8.82813 21.1288C8.68827 21.0447 8.50922 21.03 8.25098 21.1181C7.98688 21.2083 7.41468 21.5954 7.24805 21.7236C6.716 22.0286 5.60055 22.5852 4.54004 21.9335C4.03669 21.6242 3.8764 21.107 3.81152 20.662C3.74951 20.2363 3.74995 19.6836 3.75 19.0556L3.75 14.2499H3.5C2.25736 14.2499 1.25 13.2426 1.25 11.9999C1.25 10.7573 2.25736 9.74994 3.5 9.74994H3.7832C4.16212 5.54506 7.69647 2.24994 12 2.24994ZM11.9902 15.9999C11.4379 15.9999 10.9902 16.4477 10.9902 16.9999C10.9902 17.5522 11.4379 17.9999 11.9902 17.9999H11.999C12.5513 17.9999 12.999 17.5522 12.999 16.9999C12.999 16.4477 12.5513 15.9999 11.999 15.9999H11.9902ZM12 6.24994C9.92893 6.24994 8.25 7.92887 8.25 9.99994C8.25 12.071 9.92893 13.7499 12 13.7499C14.0711 13.7499 15.75 12.071 15.75 9.99994C15.75 7.92887 14.0711 6.24994 12 6.24994Z" fill="currentColor"/><path d="M3.54654 1.26514C4.0753 1.17464 4.58331 1.49745 4.68123 1.98616C4.73719 2.26547 4.92237 2.74693 5.27942 3.16533C5.62227 3.56708 6.09516 3.88246 6.76084 3.95629C7.29475 4.01551 7.67564 4.46356 7.61157 4.95703C7.5475 5.45051 7.06274 5.80255 6.52883 5.74333C5.24718 5.60118 4.34071 4.97164 3.75046 4.27997C3.17441 3.60496 2.87276 2.84452 2.76645 2.31389C2.66853 1.82519 3.01779 1.35564 3.54654 1.26514ZM20.4535 1.26525C20.9822 1.35575 21.3315 1.8253 21.2335 2.314C21.1272 2.84463 20.8256 3.60507 20.2495 4.28008C19.6593 4.97175 18.7528 5.60129 17.4712 5.74344C16.9373 5.80266 16.4525 5.45062 16.3884 4.95714C16.3244 4.46367 16.7052 4.01562 17.2392 3.9564C17.9048 3.88257 18.3777 3.56719 18.7206 3.16544C19.0776 2.74704 19.2628 2.26558 19.3188 1.98627C19.4167 1.49756 19.9247 1.17475 20.4535 1.26525Z" fill="currentColor" fill-rule="evenodd" clip-rule="evenodd"/></svg>
