<svg xmlns="http://www.w3.org/2000/svg" viewBox="0 0 24 24" fill="none"><path opacity="0.4" d="M12 22.75C17.9371 22.75 22.75 17.9371 22.75 12C22.75 6.06294 17.9371 1.25 12 1.25C6.06294 1.25 1.25 6.06294 1.25 12C1.25 17.9371 6.06294 22.75 12 22.75Z" fill="currentColor"/><path d="M8.84668 8.74256C9.26499 8.38201 9.89723 8.42879 10.2578 8.84705C10.6184 9.26536 10.5716 9.8976 10.1533 10.2582L8.62012 11.5795C8.45618 11.7208 8.32547 11.8336 8.21582 11.933C8.18913 11.9572 8.16474 11.9796 8.14258 12.0004C8.16474 12.0211 8.18913 12.0436 8.21582 12.0678C8.32547 12.1672 8.45618 12.28 8.62012 12.4213L10.1533 13.7426C10.5716 14.1031 10.6184 14.7354 10.2578 15.1537C9.89723 15.572 9.26499 15.6187 8.84668 15.2582L7.31348 13.9359C7.01364 13.6775 6.70974 13.4179 6.49316 13.1732C6.26328 12.9135 6 12.5282 6 12.0004C6 11.4725 6.26328 11.0872 6.49316 10.8275C6.70974 10.5829 7.01364 10.3233 7.31348 10.0648L8.84668 8.74256Z" fill="currentColor"/><path d="M15.1533 8.74256C14.735 8.38201 14.1028 8.42879 13.7422 8.84705C13.3816 9.26536 13.4284 9.8976 13.8467 10.2582L15.3799 11.5795C15.5438 11.7208 15.6745 11.8336 15.7842 11.933C15.8109 11.9572 15.8353 11.9796 15.8574 12.0004C15.8353 12.0211 15.8109 12.0436 15.7842 12.0678C15.6745 12.1672 15.5438 12.28 15.3799 12.4213L13.8467 13.7426C13.4284 14.1031 13.3816 14.7354 13.7422 15.1537C14.1028 15.572 14.735 15.6187 15.1533 15.2582L16.6865 13.9359C16.9864 13.6775 17.2903 13.4179 17.5068 13.1732C17.7367 12.9135 18 12.5282 18 12.0004C18 11.4725 17.7367 11.0872 17.5068 10.8275C17.2903 10.5829 16.9864 10.3233 16.6865 10.0648L15.1533 8.74256Z" fill="currentColor"/></svg>
