<svg xmlns="http://www.w3.org/2000/svg" viewBox="0 0 24 24" fill="none"><path opacity="0.4" d="M16.1048 15.3703C15.0087 14.3033 13.5348 13.7049 12 13.7049C10.4652 13.7049 8.99133 14.3033 7.89525 15.3703C7.51005 15.7455 7.50416 16.36 7.88189 16.7428C8.25973 17.1253 8.87846 17.1312 9.26382 16.756C9.99452 16.0448 10.9769 15.6461 12 15.6461C13.0231 15.6461 14.0055 16.0448 14.7362 16.756C15.1215 17.1312 15.7403 17.1253 16.1181 16.7428C16.4958 16.36 16.4899 15.7455 16.1048 15.3703Z" fill="currentColor"/><path opacity="0.4" d="M22.4246 7.95439C19.5578 5.4078 15.8462 4 12 4C8.15379 4 4.44219 5.4078 1.5754 7.95439C1.17324 8.31177 1.13927 8.92547 1.49905 9.32497C1.85888 9.72439 2.47682 9.75904 2.87907 9.40174C5.38752 7.17347 8.63457 5.94118 12 5.94118C15.3654 5.94118 18.6125 7.17347 21.1209 9.40174C21.5232 9.75904 22.1411 9.72439 22.5009 9.32497C22.8607 8.92547 22.8268 8.31177 22.4246 7.95439Z" fill="currentColor"/><path d="M13.2225 19.2868C13.2225 18.6584 12.7412 18.1421 12.125 18.0802L12.001 18.0735C11.3685 18.0735 10.8477 18.5509 10.7851 19.1626L10.7794 19.2868L10.7851 19.4109C10.8477 20.0227 11.3685 20.5 12.001 20.5C12.6754 20.4998 13.2225 19.9567 13.2225 19.2868Z" fill="currentColor"/><path d="M19.5252 11.905C17.5157 9.94876 14.8139 8.85294 12 8.85294C9.18615 8.85294 6.48427 9.94876 4.47478 11.905C4.08944 12.2802 4.08364 12.8947 4.46142 13.2775C4.83921 13.6601 5.45793 13.6668 5.84335 13.2917C7.48748 11.6911 9.69776 10.7941 12 10.7941C14.3022 10.7941 16.5125 11.6911 18.1566 13.2917C18.5421 13.6667 19.1608 13.6601 19.5386 13.2775C19.9164 12.8947 19.9106 12.2802 19.5252 11.905Z" fill="currentColor"/></svg>
