<svg xmlns="http://www.w3.org/2000/svg" viewBox="0 0 24 24" fill="none"><path d="M12.125 18.0802C12.7412 18.1421 13.2225 18.6585 13.2225 19.2868C13.2225 19.9567 12.6754 20.4998 12.001 20.5C11.3685 20.5 10.8477 20.0227 10.7851 19.4109L10.7794 19.2868L10.7851 19.1626C10.8477 18.5509 11.3685 18.0735 12.001 18.0735L12.125 18.0802ZM12 13.7049C13.5348 13.7049 15.0087 14.3033 16.1048 15.3703C16.4899 15.7455 16.4958 16.36 16.1181 16.7428C15.7403 17.1253 15.1215 17.1312 14.7362 16.756C14.0055 16.0448 13.0231 15.6461 12 15.6461C10.9769 15.6461 9.99452 16.0448 9.26382 16.756C8.87846 17.1312 8.25973 17.1253 7.88189 16.7428C7.50416 16.36 7.51005 15.7455 7.89525 15.3703C8.99134 14.3033 10.4652 13.7049 12 13.7049ZM12 8.85294C14.8139 8.85294 17.5157 9.94877 19.5252 11.905C19.9106 12.2802 19.9164 12.8947 19.5386 13.2775C19.1608 13.6601 18.5421 13.6668 18.1566 13.2917C16.5125 11.6911 14.3022 10.7941 12 10.7941C9.69776 10.7941 7.48748 11.6911 5.84335 13.2917C5.45793 13.6668 4.83921 13.6601 4.46142 13.2775C4.08364 12.8947 4.08944 12.2802 4.47478 11.905C6.48427 9.94877 9.18615 8.85294 12 8.85294ZM12 4C15.8462 4 19.5578 5.4078 22.4246 7.95439C22.8268 8.31177 22.8607 8.92547 22.5009 9.32497C22.1411 9.72439 21.5232 9.75904 21.1209 9.40174C18.6125 7.17347 15.3654 5.94118 12 5.94118C8.63457 5.94118 5.38752 7.17347 2.87907 9.40174C2.47682 9.75904 1.85888 9.72439 1.49905 9.32497C1.13927 8.92547 1.17324 8.31177 1.5754 7.95439C4.44219 5.4078 8.15379 4 12 4Z" fill="currentColor"/></svg>
