<svg xmlns="http://www.w3.org/2000/svg" viewBox="0 0 24 24" fill="none"><path d="M15.2183 1.53575C15.5999 1.1541 16.2185 1.1541 16.6002 1.53575C16.9818 1.9174 16.9818 2.53604 16.6002 2.91769L2.91826 16.5996C2.5366 16.9813 1.91797 16.9813 1.53632 16.5996C1.15467 16.218 1.15467 15.5993 1.53632 15.2177L15.2183 1.53575Z" fill="currentColor"/><path d="M21.0819 7.39952C21.4636 7.01787 22.0822 7.01787 22.4638 7.39952C22.8455 7.78117 22.8455 8.3998 22.4638 8.78146L8.7819 22.4634C8.40025 22.845 7.78162 22.845 7.39997 22.4634C7.01831 22.0817 7.01831 21.4631 7.39997 21.0815L21.0819 7.39952Z" fill="currentColor"/><path opacity="0.4" d="M7.39994 7.39944C7.78159 7.01779 8.40022 7.01779 8.78187 7.39944L16.6001 15.2177C16.9818 15.5993 16.9818 16.218 16.6001 16.5996C16.2185 16.9813 15.5998 16.9813 15.2182 16.5996L7.39994 8.78137C7.01828 8.39972 7.01828 7.78109 7.39994 7.39944Z" fill="currentColor"/><path opacity="0.4" d="M10.3318 4.46759C10.7135 4.08594 11.3321 4.08594 11.7138 4.46759L19.532 12.2858C19.9137 12.6675 19.9137 13.2861 19.532 13.6678C19.1504 14.0494 18.5317 14.0494 18.1501 13.6678L10.3318 5.84953C9.95017 5.46788 9.95017 4.84925 10.3318 4.46759Z" fill="currentColor"/><path opacity="0.4" d="M13.2637 1.53575C13.6453 1.1541 14.2639 1.1541 14.6456 1.53575L22.4638 9.354C22.8455 9.73565 22.8455 10.3543 22.4638 10.7359C22.0822 11.1176 21.4636 11.1176 21.0819 10.7359L13.2637 2.91769C12.882 2.53604 12.882 1.9174 13.2637 1.53575Z" fill="currentColor"/><path opacity="0.4" d="M4.46817 10.3313C4.84983 9.94963 5.46846 9.94963 5.85011 10.3313L13.6684 18.1495C14.05 18.5312 14.05 19.1498 13.6684 19.5315C13.2867 19.9131 12.6681 19.9131 12.2864 19.5315L4.46817 11.7132C4.08652 11.3316 4.08652 10.7129 4.46817 10.3313Z" fill="currentColor"/><path opacity="0.4" d="M1.53629 13.2631C1.91794 12.8815 2.53657 12.8815 2.91823 13.2631L10.7365 21.0814C11.1181 21.463 11.1181 22.0817 10.7365 22.4633C10.3548 22.845 9.73619 22.845 9.35454 22.4633L1.53629 14.6451C1.15464 14.2634 1.15464 13.6448 1.53629 13.2631Z" fill="currentColor"/></svg>
