<svg xmlns="http://www.w3.org/2000/svg" viewBox="0 0 24 24" fill="none"><path d="M15.2179 1.53575C15.5996 1.1541 16.2191 1.1541 16.6007 1.53575C16.9821 1.9173 16.982 2.53597 16.6007 2.91759L16.3136 3.20372L20.7951 7.68516L21.0822 7.40001C21.4638 7.01836 22.0823 7.01836 22.464 7.40001C22.8454 7.78168 22.8456 8.40029 22.464 8.78184L22.1769 9.067L22.464 9.35411C22.8456 9.73574 22.8456 10.3543 22.464 10.7359C22.0824 11.1176 21.4638 11.1176 21.0822 10.7359L20.7951 10.4488L19.2452 11.9986L19.5324 12.2858C19.9139 12.6673 19.9137 13.2859 19.5324 13.6676C19.1507 14.0492 18.5322 14.0492 18.1505 13.6676L17.8634 13.3805L16.3136 14.9313L16.5997 15.2174C16.9814 15.599 16.9814 16.2186 16.5997 16.6002C16.2181 16.9814 15.5994 16.9816 15.2179 16.6002L14.9318 16.3141L13.382 17.8639L13.6681 18.15C14.0497 18.5317 14.0497 19.1502 13.6681 19.5318C13.2864 19.9132 12.6678 19.9134 12.2863 19.5318L12.0001 19.2457L10.4503 20.7955L10.7365 21.0816C11.1181 21.4633 11.1181 22.0818 10.7365 22.4635C10.3548 22.845 9.73625 22.8451 9.35462 22.4635L9.06849 22.1774L8.78236 22.4635C8.4007 22.8451 7.78119 22.8451 7.39954 22.4635C7.0182 22.0819 7.01828 21.4633 7.39954 21.0816L7.68568 20.7945L3.20423 16.3131L2.9181 16.6002C2.53648 16.9815 1.91781 16.9816 1.53626 16.6002C1.15461 16.2186 1.15461 15.599 1.53626 15.2174L1.82239 14.9313L1.53626 14.6451C1.15471 14.2635 1.15472 13.6449 1.53626 13.2633C1.91789 12.8817 2.53644 12.8817 2.9181 13.2633L3.20423 13.5494L4.75404 11.9996L4.4679 11.7135C4.08645 11.3319 4.08659 10.7133 4.4679 10.3316C4.84952 9.95003 5.46808 9.95009 5.84974 10.3316L6.13587 10.6178L7.68568 9.06798L7.39954 8.78184C7.0181 8.40034 7.01838 7.78168 7.39954 7.40001C7.78119 7.01836 8.4007 7.01836 8.78236 7.40001L9.06751 7.68516L10.6173 6.13438L10.3322 5.84923C9.95058 5.46757 9.95053 4.84902 10.3322 4.46739C10.7138 4.08605 11.3324 4.08591 11.714 4.46739L11.9992 4.75255L13.549 3.20274L13.2638 2.91759C12.8822 2.53593 12.8822 1.91738 13.2638 1.53575C13.6454 1.15421 14.264 1.1542 14.6456 1.53575L14.9308 1.82091L15.2179 1.53575ZM4.58607 14.9313L9.06751 19.4127L10.6173 17.8629L6.13587 13.3815L4.58607 14.9313ZM7.51771 11.9996L11.9992 16.4811L13.549 14.9313L9.06751 10.4498L7.51771 11.9996ZM10.4503 9.06798L14.9318 13.5494L16.4816 11.9986L12.0001 7.5172L10.4503 9.06798ZM13.382 6.13536L17.8634 10.6168L19.4132 9.067L14.9318 4.58556L13.382 6.13536Z" fill="currentColor" fill-rule="evenodd" clip-rule="evenodd"/></svg>
