<svg xmlns="http://www.w3.org/2000/svg" viewBox="0 0 24 24" fill="none"><path opacity="0.4" d="M6.54514 1.46972C6.82003 1.34275 6.95776 1.27927 7.08811 1.34667C7.10301 1.35439 7.12075 1.36568 7.13401 1.37597C7.24981 1.46601 7.25022 1.62972 7.25022 1.95702V17.3125C7.25022 17.5016 7.25002 17.5961 7.20626 17.6679C7.16249 17.7398 7.07184 17.7864 6.89084 17.8798C6.65456 18.0019 6.40146 18.1492 6.11837 18.3134C5.4996 18.6724 4.92802 19.0039 4.50216 19.1963C4.0714 19.3907 3.60362 19.5391 3.11056 19.4511C2.5772 19.3559 2.09869 19.0688 1.759 18.6474C1.44746 18.2608 1.34396 17.7827 1.29709 17.3066C1.2507 16.8352 1.2502 16.2327 1.25021 15.5039V7.26464C1.2502 6.7135 1.24983 6.24672 1.28732 5.86035C1.32714 5.4501 1.41378 5.07155 1.62033 4.70898C1.82736 4.3456 2.10839 4.07978 2.44064 3.83984C2.75227 3.61481 3.15127 3.38381 3.61935 3.1123L4.90744 2.36523C5.55438 1.98991 6.08437 1.68255 6.54514 1.46972ZM8.88595 1.291C9.01471 1.20657 9.16051 1.26238 9.45236 1.37499C9.92558 1.55757 10.4738 1.83042 11.1428 2.16307L13.9172 3.54296C14.0791 3.62345 14.1603 3.66373 14.2053 3.73632C14.2501 3.80887 14.2502 3.8995 14.2502 4.08007V10.3369C14.2502 10.4517 14.2503 10.5095 14.2238 10.5557C14.1973 10.6018 14.1454 10.632 14.0422 10.6924C12.8431 11.3933 11.851 12.4595 11.2756 13.8047C10.6534 15.2593 10.6355 16.6004 10.9533 17.7851C11.0795 18.2555 11.1425 18.491 11.0432 18.5732C10.9432 18.655 10.7357 18.5531 10.3225 18.3476L10.0237 18.1982C9.64495 18.0099 9.364 17.8723 9.1428 17.7714C8.94462 17.6812 8.84575 17.6357 8.79807 17.5615C8.75045 17.4874 8.75022 17.386 8.75022 17.1836V1.89452C8.75022 1.55673 8.75022 1.38764 8.87522 1.29784L8.88595 1.291ZM18.0529 4.16894C18.9506 4.16891 19.7013 4.16811 20.2971 4.24999C20.9279 4.3367 21.4956 4.5284 21.9504 4.99316C22.4028 5.45563 22.5863 6.02925 22.6701 6.66601C22.7498 7.27175 22.7502 8.0361 22.7502 8.95605V11.0976C22.7502 11.5497 22.7502 11.7762 22.634 11.83C22.5173 11.8835 22.3361 11.7277 21.9748 11.416C20.7411 10.3517 19.1393 9.75009 17.5022 9.74998C17.0835 9.74998 16.6665 9.78889 16.258 9.86522C16.0162 9.91043 15.8948 9.93373 15.8225 9.87401C15.7503 9.81403 15.7502 9.69566 15.7502 9.45994V4.33984C15.7502 4.24531 15.8275 4.16894 15.9221 4.16894H18.0529Z" fill="currentColor"/><path d="M17.501 11.25C19.5553 11.2502 21.5205 12.4636 22.3467 14.3945C23.1187 16.1994 22.692 17.7491 21.8418 19.0371C21.1503 20.0847 20.1378 21.0162 19.2656 21.8193C19.1124 21.9604 18.9634 22.0974 18.8213 22.2305C18.4633 22.5657 17.9896 22.7499 17.501 22.75C17.0123 22.75 16.5379 22.5658 16.1797 22.2305L16.1777 22.2295C16.0279 22.0883 15.8704 21.9421 15.708 21.792L15.042 21.1709C14.3648 20.5262 13.6745 19.813 13.1611 19.0371C12.3098 17.7503 11.8813 16.2017 12.6543 14.3945C13.4806 12.4634 15.4465 11.25 17.501 11.25ZM17.4912 14.5C16.3916 14.5 15.5 15.3954 15.5 16.5C15.5 17.6046 16.3916 18.5 17.4912 18.5H17.5088C18.6084 18.5 19.5 17.6046 19.5 16.5C19.5 15.3954 18.6084 14.5 17.5088 14.5H17.4912Z" fill="currentColor"/></svg>
