<svg xmlns="http://www.w3.org/2000/svg" viewBox="0 0 24 24" fill="none"><path d="M8.75022 17.1839C8.75022 17.3865 8.75022 17.4878 8.79791 17.5619C8.84561 17.6361 8.94472 17.6812 9.14296 17.7716C9.36423 17.8724 9.64501 18.0104 10.0239 18.1988L10.3229 18.3474C10.7361 18.5529 10.9427 18.6556 11.0427 18.5738C11.1427 18.492 11.0795 18.2564 10.9531 17.7853C10.6353 16.6005 10.6538 15.2597 11.276 13.8051C11.8514 12.4599 12.8429 11.3934 14.042 10.6925C14.1454 10.632 14.1972 10.6018 14.2237 10.5555C14.2502 10.5093 14.2502 10.4518 14.2502 10.3368V4.07993C14.2502 3.89908 14.2502 3.80865 14.2052 3.73605C14.1603 3.66346 14.0793 3.6232 13.9174 3.54268L11.1428 2.16308C10.4738 1.83043 9.92574 1.55792 9.45253 1.37534C9.16049 1.26266 9.01447 1.20632 8.88565 1.29083L8.87543 1.29784C8.75022 1.3876 8.75022 1.55659 8.75022 1.89457L8.75022 17.1839Z" fill="currentColor"/><path d="M22.7502 11.0976C22.7502 11.5505 22.7502 11.7769 22.6335 11.8303C22.5168 11.8838 22.336 11.7278 21.9745 11.4159C20.7407 10.3515 19.139 9.75014 17.5017 9.75014C17.0829 9.75014 16.6664 9.78948 16.2579 9.86585C16.0157 9.9111 15.8947 9.93373 15.8224 9.87375C15.7502 9.81377 15.7502 9.69591 15.7502 9.4602L15.7502 4.33978C15.7502 4.24525 15.827 4.16871 15.9216 4.16871L18.0531 4.1687C18.9508 4.16867 19.701 4.16865 20.2969 4.25053C20.9277 4.33721 21.4958 4.52811 21.9505 4.99292C22.4031 5.45544 22.5868 6.02934 22.6706 6.66621C22.7503 7.27195 22.7502 8.03581 22.7502 8.95577V11.0976Z" fill="currentColor"/><path d="M7.25022 1.95751C7.25022 1.62997 7.25022 1.46621 7.13437 1.37613C7.12102 1.36575 7.10303 1.35424 7.08801 1.34647C6.95765 1.27907 6.8202 1.34255 6.5453 1.46952C6.08447 1.68235 5.55453 1.98978 4.90745 2.36516L3.61891 3.11264C3.15084 3.38415 2.75268 3.61511 2.44105 3.84014C2.1087 4.08013 1.82727 4.34564 1.62019 4.70912C1.41361 5.07173 1.32749 5.45037 1.28768 5.86066C1.25019 6.24704 1.2502 6.71337 1.25021 7.26451V15.5036C1.2502 16.2327 1.25019 16.8356 1.29661 17.3071C1.34348 17.7832 1.44697 18.2615 1.75855 18.648C2.09824 19.0695 2.5771 19.356 3.11045 19.4512C3.60356 19.5392 4.07091 19.3912 4.50171 19.1967C4.92763 19.0044 5.4994 18.6727 6.11843 18.3136C6.40155 18.1494 6.65481 18.0025 6.89113 17.8804C7.07217 17.7868 7.16269 17.74 7.20645 17.6682C7.25022 17.5963 7.25022 17.5017 7.25022 17.3126L7.25022 1.95751Z" fill="currentColor"/><path d="M17.501 11.25C19.5553 11.2502 21.5205 12.4635 22.3467 14.3945C23.1187 16.1994 22.6921 17.7491 21.8418 19.0371C21.1503 20.0847 20.1378 21.0162 19.2656 21.8193C19.1124 21.9604 18.9634 22.0974 18.8213 22.2305C18.4633 22.5657 17.9896 22.7499 17.501 22.75C17.0122 22.75 16.5379 22.5658 16.1797 22.2305L16.1777 22.2295C16.0279 22.0883 15.8704 21.9421 15.708 21.792L15.042 21.1709C14.3648 20.5262 13.6745 19.813 13.1611 19.0371C12.3098 17.7503 11.8813 16.2017 12.6543 14.3945C13.4806 12.4634 15.4465 11.25 17.501 11.25ZM17.4912 14.5C16.3916 14.5 15.5 15.3954 15.5 16.5C15.5 17.6046 16.3916 18.5 17.4912 18.5H17.5088C18.6084 18.5 19.5 17.6046 19.5 16.5C19.5 15.3954 18.6084 14.5 17.5088 14.5H17.4912Z" fill="currentColor" fill-rule="evenodd" clip-rule="evenodd"/></svg>
