<svg xmlns="http://www.w3.org/2000/svg" viewBox="0 0 24 24" fill="none"><path opacity="0.4" d="M17.2932 6.29289C17.6838 5.90237 18.3168 5.90237 18.7073 6.29289C19.0978 6.68342 19.0978 7.31643 18.7073 7.70696L12.7073 13.707C12.3168 14.0975 11.6838 14.0975 11.2932 13.707L5.29323 7.70696C4.9027 7.31643 4.9027 6.68342 5.29323 6.29289C5.68375 5.90237 6.31677 5.90237 6.70729 6.29289L12.0003 11.5859L17.2932 6.29289Z" fill="currentColor"/><path opacity="0.4" d="M16.0002 7V5C16.0002 4.44772 16.4479 4 17.0002 4C17.5525 4 18.0002 4.44772 18.0002 5V7C18.0002 7.55228 17.5525 8 17.0002 8C16.4479 8 16.0002 7.55228 16.0002 7Z" fill="currentColor"/><path opacity="0.4" d="M6.00021 7V5C6.00021 4.44772 6.44793 4 7.00021 4C7.5525 4 8.00021 4.44772 8.00021 5V7C8.00021 7.55228 7.5525 8 7.00021 8C6.44793 8 6.00021 7.55228 6.00021 7Z" fill="currentColor"/><path d="M12 2C12.5523 2 13 2.44772 13 3V6H19C19.2411 6 19.389 6.0002 19.501 5.99512C19.5959 5.99079 19.627 5.9841 19.6299 5.9834C19.8021 5.93712 19.9371 5.80213 19.9834 5.62988C19.9834 5.62988 19.9906 5.59943 19.9951 5.50098C20.0002 5.389 20 5.24124 20 5C20 4.44779 20.4478 4.00012 21 4C21.5523 4 22 4.44772 22 5C22 5.4006 22.0088 5.79749 21.915 6.14746C21.6838 7.0099 21.0099 7.68382 20.1474 7.91504C19.7975 8.00875 19.4005 8 19 8H13V21C13 21.5523 12.5523 22 12 22C11.4478 21.9999 11 21.5522 11 21V8H4.99998C4.59945 8 4.20242 8.0088 3.85251 7.91504C2.99015 7.68377 2.31614 7.00985 2.08494 6.14746C1.99118 5.7975 1.99998 5.40058 1.99998 5C1.99998 4.44779 2.44779 4.00012 2.99998 4C3.55226 4 3.99998 4.44772 3.99998 5C3.99998 5.24123 3.99977 5.389 4.00486 5.50098C4.00929 5.5981 4.01658 5.62988 4.01658 5.62988C4.06285 5.80209 4.19792 5.93706 4.37009 5.9834C4.37009 5.9834 4.40072 5.99063 4.499 5.99512C4.61094 6.00021 4.75886 6 4.99998 6H11V3C11 2.4478 11.4478 2.00013 12 2Z" fill="currentColor"/></svg>
