<svg xmlns="http://www.w3.org/2000/svg" viewBox="0 0 24 24" fill="none"><path d="M12.0006 2C12.5526 2.00026 13.0006 2.44788 13.0006 3V6H16.0006V5C16.0006 4.44772 16.4483 4 17.0006 4C17.5526 4.00026 18.0006 4.44788 18.0006 5V6H18.9996C19.2407 6 19.3886 6.0002 19.5006 5.99512C19.5955 5.99079 19.6266 5.9841 19.6295 5.9834C19.8017 5.93712 19.9367 5.80213 19.983 5.62988C19.9832 5.62896 19.9902 5.59943 19.9947 5.50098C19.9998 5.389 19.9996 5.24124 19.9996 5C19.9996 4.44779 20.4474 4.00012 20.9996 4C21.5519 4 21.9996 4.44772 21.9996 5C21.9996 5.4006 22.0084 5.79749 21.9146 6.14746C21.6834 7.0099 21.0095 7.68382 20.147 7.91504C19.7971 8.00875 19.4001 8 18.9996 8H18.4136L13.0006 13.4131V21C13.0006 21.5521 12.5526 21.9997 12.0006 22C11.4483 22 11.0006 21.5523 11.0006 21V13.415L5.58552 8H4.99958C4.59905 8 4.20203 8.0088 3.85212 7.91504C2.98975 7.68377 2.31574 7.00985 2.08454 6.14746C1.99078 5.7975 1.99958 5.40058 1.99958 5C1.99958 4.44779 2.4474 4.00012 2.99958 4C3.55186 4 3.99958 4.44772 3.99958 5C3.99958 5.24123 3.99937 5.389 4.00446 5.50098C4.00889 5.5981 4.01574 5.6282 4.01618 5.62988C4.06245 5.80209 4.19752 5.93706 4.3697 5.9834C4.37063 5.98366 4.40032 5.99063 4.4986 5.99512C4.61054 6.00021 4.75847 6 4.99958 6H6.00056V5C6.00056 4.44772 6.44827 4 7.00056 4C7.55262 4.00026 8.00056 4.44788 8.00056 5V6H11.0006V3C11.0006 2.44772 11.4483 2 12.0006 2ZM11.0006 10.5869V8H8.41364L11.0006 10.5869ZM13.0006 10.585L15.5855 8H13.0006V10.585Z" fill="currentColor" fill-rule="evenodd" clip-rule="evenodd"/></svg>
