<svg xmlns="http://www.w3.org/2000/svg" viewBox="0 0 24 24" fill="none"><path opacity="0.4" d="M4.77165 10.1394C5.77279 8.24578 6.55681 6.76283 7.21974 5.7959C7.55243 5.31064 7.89589 4.89208 8.26821 4.61653C8.66255 4.32467 9.15801 4.1484 9.70462 4.31145C10.2398 4.47108 10.5653 4.87926 10.7605 5.32294C10.9492 5.75195 11.0537 6.29206 11.1194 6.89513C11.25 8.09513 11.25 9.80944 11.25 12.0059L11.25 16.0304C11.25 16.7019 11.25 17.2733 11.1945 17.7295C11.1358 18.2106 11.0046 18.6767 10.6555 19.0618C10.2969 19.4575 9.84618 19.6167 9.37661 19.6864C8.94913 19.7498 8.41878 19.7497 7.81937 19.7497L5.62637 19.7497C4.627 19.7497 3.78391 19.7498 3.14558 19.6452C2.46967 19.5345 1.82112 19.2745 1.46444 18.5893C1.1206 17.9288 1.23856 17.2334 1.47926 16.5699C1.71407 15.9226 2.1334 15.1295 2.6425 14.1666L4.77165 10.1394Z" fill="currentColor"/><path d="M19.2282 10.1394C18.2271 8.24578 17.4431 6.76283 16.7801 5.7959C16.4474 5.31064 16.104 4.89208 15.7317 4.61653C15.3373 4.32467 14.8419 4.1484 14.2952 4.31145C13.7601 4.47108 13.4345 4.87926 13.2394 5.32294C13.0506 5.75195 12.9462 6.29206 12.8805 6.89513C12.7499 8.09513 12.7499 9.80944 12.7499 12.0059L12.7499 16.0304C12.7499 16.702 12.7498 17.2733 12.8054 17.7295C12.864 18.2106 12.9953 18.6767 13.3444 19.0618C13.703 19.4575 14.1537 19.6167 14.6233 19.6864C15.0507 19.7498 15.5811 19.7497 16.1805 19.7497L18.3735 19.7497C19.3729 19.7497 20.216 19.7498 20.8543 19.6452C21.5302 19.5345 22.1787 19.2745 22.5354 18.5893C22.8793 17.9288 22.7613 17.2334 22.5206 16.5699C22.2858 15.9226 21.8665 15.1295 21.3574 14.1666L19.2282 10.1394Z" fill="currentColor"/></svg>
