<svg xmlns="http://www.w3.org/2000/svg" viewBox="0 0 24 24" fill="none"><path opacity="0.4" d="M13.7941 2.27954C13.2048 1.95472 12.6388 1.75024 12.0001 1.75024C11.3615 1.75024 10.7955 1.95472 10.2062 2.27954C9.64102 2.59109 8.99451 3.04844 8.20122 3.60962L8.16809 3.63306L3.56653 6.88794C3.22863 7.12721 3.14868 7.59578 3.38782 7.93384C3.6271 8.27174 4.09566 8.35169 4.43372 8.11255L5.25013 7.53442V22.2502H18.7501V7.53442L19.5665 8.11255C19.9046 8.35169 20.3732 8.27174 20.6124 7.93384C20.8516 7.59578 20.7716 7.12721 20.4337 6.88794L15.8322 3.63306L15.799 3.60964C15.0058 3.04845 14.3592 2.59109 13.7941 2.27954Z" fill="currentColor"/><path d="M14 9.50024C14 10.6048 13.1046 11.5002 12 11.5002C10.8954 11.5002 10 10.6048 10 9.50024C10 8.39567 10.8954 7.50024 12 7.50024C13.1046 7.50024 14 8.39567 14 9.50024Z" fill="currentColor"/><path d="M14.75 17.5002C14.75 15.9815 13.5188 14.7502 12 14.7502C10.4812 14.7502 9.25 15.9815 9.25 17.5002V22.2502H14.75V17.5002Z" fill="currentColor"/><path d="M4 22.2004C3.89785 22.1915 3.79946 22.1819 3.70508 22.1692C3.07751 22.0848 2.51101 21.8989 2.05567 21.4436C1.60035 20.9883 1.41452 20.4217 1.33008 19.7942C1.24997 19.1983 1.24998 18.4468 1.25 17.5461V15.9231C1.24997 15.3581 1.24996 14.878 1.29102 14.4807C1.33504 14.055 1.43143 13.661 1.66113 13.2893C1.89085 12.9178 2.19955 12.6557 2.56055 12.426C2.90704 12.2056 3.35187 11.985 3.87598 11.7229L4 11.6604V22.2004Z" fill="currentColor"/><path d="M20.124 11.7229C20.6481 11.985 21.093 12.2056 21.4395 12.426C21.8005 12.6557 22.1091 12.9178 22.3389 13.2893C22.5686 13.661 22.665 14.055 22.709 14.4807C22.75 14.878 22.75 15.3581 22.75 15.9231V17.5461C22.75 18.4468 22.75 19.1983 22.6699 19.7942C22.5855 20.4217 22.3996 20.9883 21.9443 21.4436C21.489 21.8989 20.9225 22.0848 20.2949 22.1692C20.2005 22.1819 20.1022 22.1915 20 22.2004V11.6604L20.124 11.7229Z" fill="currentColor"/></svg>
