<svg xmlns="http://www.w3.org/2000/svg" viewBox="0 0 24 24" fill="none"><path d="M12 1.75024C12.6386 1.75024 13.2047 1.95477 13.7939 2.27954C14.359 2.59107 15.0056 3.0485 15.7988 3.60962L15.832 3.63306L20.4336 6.88794C20.7715 7.12721 20.8514 7.59578 20.6123 7.93384C20.373 8.27166 19.9044 8.35167 19.5664 8.11255L18.75 7.53442V21.5002C18.75 21.9145 18.4142 22.2502 18 22.2502H14.75V17.5002C14.75 15.9815 13.5188 14.7502 12 14.7502C10.4812 14.7503 9.24998 15.9815 9.24998 17.5002V22.2502H5.99998C5.58585 22.2501 5.24998 21.9144 5.24998 21.5002V7.53442L4.43357 8.11255C4.09552 8.35158 3.62692 8.2717 3.38767 7.93384C3.14864 7.59583 3.22862 7.12722 3.56638 6.88794L8.16795 3.63306L8.20115 3.60962C8.99437 3.04848 9.64091 2.59109 10.206 2.27954C10.7953 1.95475 11.3614 1.75029 12 1.75024ZM12 16.2502C12.6903 16.2502 13.25 16.8099 13.25 17.5002V22.2502H10.75V17.5002C10.75 16.8099 11.3097 16.2503 12 16.2502ZM12 7.50024C10.8954 7.50028 9.99998 8.3957 9.99998 9.50024C9.99998 10.6048 10.8954 11.5002 12 11.5002C13.1045 11.5002 14 10.6048 14 9.50024C14 8.39567 13.1045 7.50024 12 7.50024Z" fill="currentColor" fill-rule="evenodd" clip-rule="evenodd"/><path d="M4 22.2004C3.89785 22.1915 3.79946 22.1819 3.70508 22.1692C3.07751 22.0848 2.51101 21.8989 2.05567 21.4436C1.60035 20.9883 1.41452 20.4217 1.33008 19.7942C1.24997 19.1983 1.24998 18.4468 1.25 17.5461V15.9231C1.24997 15.3581 1.24996 14.878 1.29102 14.4807C1.33504 14.055 1.43143 13.661 1.66113 13.2893C1.89085 12.9178 2.19955 12.6557 2.56055 12.426C2.90704 12.2056 3.35187 11.985 3.87598 11.7229L4 11.6604V22.2004Z" fill="currentColor"/><path d="M20.124 11.7229C20.6481 11.985 21.093 12.2056 21.4395 12.426C21.8005 12.6557 22.1091 12.9178 22.3389 13.2893C22.5686 13.661 22.665 14.055 22.709 14.4807C22.75 14.878 22.75 15.3581 22.75 15.9231V17.5461C22.75 18.4468 22.75 19.1983 22.6699 19.7942C22.5855 20.4217 22.3996 20.9883 21.9443 21.4436C21.489 21.8989 20.9225 22.0848 20.2949 22.1692C20.2005 22.1819 20.1022 22.1915 20 22.2004V11.6604L20.124 11.7229Z" fill="currentColor"/></svg>
