<svg xmlns="http://www.w3.org/2000/svg" fill="none" viewBox="0 0 48 48">
  <g>
    <path stroke="currentColor" stroke-linejoin="round" d="m45 21 0 3c0 1.763 -1.454 2.9259 -3.2166 2.9634C40.7986 26.9843 39.5456 27 38 27c-1.5456 0 -2.7986 -0.0157 -3.7834 -0.0366C32.454 26.9259 31 25.763 31 24l0 -3 7 0 7 0Z" stroke-width="3.429"></path>
    <path stroke="currentColor" stroke-linejoin="round" d="M9.04581 3.00077c-3.21852 0.00004 -5.85041 2.53628 -5.913 5.75419C3.06488 12.2473 3 17.3292 3 24.0008c0 8.8191 0.11338 14.8604 0.19729 18.1241 0.04136 1.6087 1.35844 2.8759 2.9677 2.8759H13.835c1.6093 0 2.9263 -1.2672 2.9677 -2.8759 0.0839 -3.2637 0.1973 -9.305 0.1973 -18.1241 2.6667 -1.5 6.6667 -3.0009 12 -3.0009h16v-4c0 -0.5156 -0.0285 -0.9742 -0.0744 -1.3786 -0.1805 -1.588 -1.6283 -2.4676 -3.2261 -2.5037 -2.3841 -0.0537 -6.5185 -0.1177 -12.6995 -0.1177H17.0165c0.1899 -2.3389 1.9973 -4.25093 4.363 -4.54679l9.8687 -1.23414C32.249 7.09381 33 6.24303 33 5.23443V5c0 -1.10461 -0.8955 -2.00006 -2.0001 -2 -7.318 0.00039 -14.6361 0.00067 -21.95409 0.00077Z" stroke-width="3.429"></path>
    <path stroke="currentColor" stroke-linejoin="round" d="M44 39.4003c0 3.5 -2.6863 5.6 -6 5.6s-6 -2.1 -6 -5.6c0 -2.7581 2.5874 -5.5162 4.364 -7.0849 0.9452 -0.8346 2.3268 -0.8346 3.272 0C41.4126 33.8841 44 36.6422 44 39.4003Z" stroke-width="3.429"></path>
  </g>
</svg>
