<svg xmlns="http://www.w3.org/2000/svg" fill="none" viewBox="0 0 48 48">
  <g>
    <path fill="currentColor" fill-rule="evenodd" d="M9.04579 1.00077C16.3638 1.00067 23.6818 1.00039 30.9998 1 33.209 0.999883 35 2.79078 35 5v0.23443c0 2.0172 -1.502 3.71876 -3.5036 3.96908l-9.8687 1.23419c-0.5278 0.066 -1.0089 0.2656 -1.4109 0.5622H29c6.1968 0 9.7972 0.0641 12.1956 0.1183 1.6911 0.0381 3.1757 0.6765 4.2343 1.7963C46.4769 14.0221 47 15.4865 47 16.9999V24c0 3.1111 -2.6037 4.9082 -5.174 4.9629C40.8263 28.9842 39.5591 29 38 29s-2.8263 -0.0158 -3.826 -0.0371C31.6037 28.9082 29 27.1111 29 24v-1.0001c-4.2907 0 -7.6192 1.0457 -10.0007 2.2094 -0.0097 8.1823 -0.1168 13.838 -0.1973 16.967 -0.0696 2.7075 -2.2879 4.8245 -4.967 4.8245H6.16499c-2.67907 0 -4.89742 -2.117 -4.96704 -4.8245C1.1136 38.8955 1 32.837 1 24.0008c0 -6.6846 0.06501 -11.7795 0.13319 -15.28473 0.08417 -4.3272 3.62488 -7.71524 7.9126 -7.7153ZM33 22.9999h10V24c0 0.2903 -0.1039 0.4818 -0.2715 0.6299 -0.1904 0.1682 -0.5247 0.3241 -0.9877 0.3339C40.7709 24.9845 39.5321 25 38 25c-1.5321 0 -2.7709 -0.0155 -3.7408 -0.0362 -0.463 -0.0098 -0.7973 -0.1657 -0.9877 -0.3339C33.1039 24.4818 33 24.2903 33 24v-1.0001ZM31 5c-7.318 0.00039 -14.6361 0.00067 -21.95416 0.00077 -2.14933 0.00003 -3.87239 1.68446 -3.91341 3.79309C5.06476 12.2732 5 17.3422 5 24.0008c0 8.8019 0.11316 14.8261 0.19663 18.0727 0.01311 0.5098 0.42891 0.9273 0.96836 0.9273H13.835c0.5395 0 0.9553 -0.4175 0.9684 -0.9273 0.0834 -3.2466 0.1966 -9.2708 0.1966 -18.0727 0 -0.7225 0.3897 -1.3889 1.0195 -1.7431 2.9211 -1.6432 7.2556 -3.2578 12.9805 -3.2578h14v-2c0 -0.595 -0.2 -1.0446 -0.4769 -1.3375 -0.2653 -0.2806 -0.7054 -0.5292 -1.4177 -0.5453 -2.3698 -0.0534 -5.9401 -0.1172 -12.1054 -0.1172H17.0165c-0.5586 0 -1.0917 -0.2336 -1.4703 -0.6442 -0.3787 -0.4106 -0.5683 -0.9609 -0.5231 -1.5176 0.2662 -3.27934 2.7987 -5.95564 6.1083 -6.36953L31 5.23443 31 5Zm1.699 29.8349c0.9308 -1.3181 2.0843 -2.4578 3.0032 -3.2691 1.3232 -1.1685 3.2724 -1.1685 4.5956 0 0.9189 0.8113 2.0724 1.951 3.0032 3.2691 0.92 1.3026 1.699 2.8867 1.699 4.5654 0 2.0247 -0.7857 3.701 -2.094 4.8608 -1.2951 1.148 -3.0424 1.7392 -4.906 1.7392 -1.8636 0 -3.6109 -0.5912 -4.906 -1.7392C31.7857 43.1013 31 41.425 31 39.4003c0 -1.6787 0.779 -3.2628 1.699 -4.5654Z" clip-rule="evenodd" stroke-width="3.429"></path>
  </g>
</svg>
