<svg xmlns="http://www.w3.org/2000/svg" fill="none" viewBox="0 0 48 48">
  <g>
    <path fill="currentColor" fill-rule="evenodd" d="M9.04579 1.50079C16.5305 1.50069 24.0151 1.5004 31.4998 1.5c1.657 -0.00009 3.0002 1.34308 3.0002 3v0.17582c0 1.51291 -1.1265 2.78908 -2.6277 2.97681L21.5657 8.94155c-1.4415 0.18026 -2.5848 1.21605 -2.946 2.55845H29c6.1913 0 10.337 0.0641 12.7333 0.1181 2.0273 0.0458 4.3858 1.2213 4.6827 3.8339 0.0525 0.4619 0.084 0.9771 0.084 1.548v5.5H29c-4.5461 0 -8.0421 1.1512 -10.5004 2.3988 -0.0073 8.3455 -0.116 14.1004 -0.1974 17.2646 -0.0625 2.4329 -2.0556 4.3374 -4.4672 4.3374H6.16499c-2.41162 0 -4.40465 -1.9045 -4.46721 -4.3374C1.61354 38.887 1.5 32.8327 1.5 24.0008c0 -6.6813 0.06498 -11.773 0.1331 -15.27498 0.07877 -4.04988 3.39228 -7.22497 7.41269 -7.22503ZM29.5254 24.5h16.9482c-0.2599 2.4701 -2.4364 3.9157 -4.6588 3.963 -0.9959 0.0212 -2.2596 0.037 -3.8153 0.037 -1.5557 0 -2.8194 -0.0158 -3.8153 -0.037 -2.2224 -0.0473 -4.3989 -1.4929 -4.6588 -3.963Zm6.1768 8.0658c1.3232 -1.1685 3.2724 -1.1685 4.5956 0 0.9189 0.8113 2.0724 1.951 3.0032 3.2691 0.92 1.3026 1.699 2.8867 1.699 4.5654 0 2.0247 -0.7857 3.701 -2.094 4.8608 -1.2951 1.148 -3.0424 1.7392 -4.906 1.7392 -1.8636 0 -3.6109 -0.5912 -4.906 -1.7392C31.7857 44.1013 31 42.425 31 40.4003c0 -1.6787 0.779 -3.2628 1.699 -4.5654 0.9308 -1.3181 2.0843 -2.4578 3.0032 -3.2691Z" clip-rule="evenodd" stroke-width="3.429"></path>
  </g>
</svg>
