<svg xmlns="http://www.w3.org/2000/svg" fill="none" viewBox="0 0 48 48">
  <g>
    <path fill="#8fbffa" d="M46 23.9995c0 5.361 -0.1581 9.8597 -0.3047 12.88 -0.1049 2.1595 -2.1696 3.7287 -4.3162 3.4707 -11.3993 -2.3699 -23.3589 -2.3699 -34.7582 0 -2.1466 0.258 -4.21131 -1.3112 -4.31617 -3.4707C2.15807 33.8592 2 29.3605 2 23.9995c0 -5.3609 0.15807 -9.8597 0.30473 -12.8799 0.10486 -2.15954 2.16957 -3.7287 4.31617 -3.47074 11.3993 2.36994 23.3589 2.36994 34.7582 0 2.1466 -0.25796 4.2113 1.3112 4.3162 3.47074 0.1466 3.0202 0.3047 7.519 0.3047 12.8799Z" stroke-width="1"></path>
    <path fill="currentColor" fill-opacity="0.4" d="M40.234 17.7578c0 2.2092 -1.7909 4 -4 4 -2.2091 0 -4 -1.7908 -4 -4 0 -2.2091 1.7909 -4 4 -4 2.2091 0 4 1.7909 4 4Z" stroke-width="1"></path>
    <path fill="currentColor" fill-opacity="0.4" d="M2.17426 33.7792c5.38927 -5.1963 8.98184 -7.8843 11.09134 -9.2408 1.452 -0.9338 3.2116 -0.7714 4.5538 0.3143 1.7479 1.4138 4.6784 3.9643 9.2446 8.4226 3.2645 -2.8896 5.6082 -4.5998 7.1547 -5.5944 1.4521 -0.9337 3.2116 -0.7713 4.5539 0.3144 1.4477 1.171 3.7067 3.1218 7.0345 6.2906 -0.0361 0.9541 -0.0744 1.8221 -0.1118 2.5936 -0.1049 2.1595 -2.1696 3.7287 -4.3162 3.4707 -11.3993 -2.3699 -23.3588 -2.3699 -34.7582 0 -2.14659 0.258 -4.2113 -1.3112 -4.31616 -3.4707 -0.044 -0.9059 -0.08901 -1.9449 -0.13048 -3.1003Z" stroke-width="1"></path>
    <path stroke="currentColor" stroke-linejoin="round" d="M46 23.9995c0 5.361 -0.1581 9.8597 -0.3047 12.88 -0.1049 2.1595 -2.1696 3.7287 -4.3162 3.4707 -11.3993 -2.3699 -23.3589 -2.3699 -34.7582 0 -2.1466 0.258 -4.21131 -1.3112 -4.31617 -3.4707C2.15807 33.8592 2 29.3605 2 23.9995c0 -5.3609 0.15807 -9.8597 0.30473 -12.8799 0.10486 -2.15954 2.16957 -3.7287 4.31617 -3.47074 11.3993 2.36994 23.3589 2.36994 34.7582 0 2.1466 -0.25796 4.2113 1.3112 4.3162 3.47074 0.1466 3.0202 0.3047 7.519 0.3047 12.8799Z" stroke-width="1"></path>
    <path stroke="currentColor" stroke-linejoin="round" d="M40.234 17.7578c0 2.2092 -1.7909 4 -4 4 -2.2091 0 -4 -1.7908 -4 -4 0 -2.2091 1.7909 -4 4 -4 2.2091 0 4 1.7909 4 4Z" stroke-width="1"></path>
    <path stroke="currentColor" stroke-linejoin="round" d="M2.17426 33.7792c5.38927 -5.1963 8.98184 -7.8843 11.09134 -9.2408 1.452 -0.9338 3.2116 -0.7714 4.5538 0.3143 1.7479 1.4138 4.6784 3.9643 9.2446 8.4226 3.2645 -2.8896 5.6082 -4.5998 7.1547 -5.5944 1.4521 -0.9337 3.2116 -0.7713 4.5539 0.3144 1.4477 1.171 3.7067 3.1218 7.0345 6.2906 -0.0361 0.9541 -0.0744 1.8221 -0.1118 2.5936 -0.1049 2.1595 -2.1696 3.7287 -4.3162 3.4707 -11.3993 -2.3699 -23.3588 -2.3699 -34.7582 0 -2.14659 0.258 -4.2113 -1.3112 -4.31616 -3.4707 -0.044 -0.9059 -0.08901 -1.9449 -0.13048 -3.1003Z" stroke-width="1"></path>
  </g>
</svg>
