<svg xmlns="http://www.w3.org/2000/svg" fill="none" viewBox="0 0 48 48">
  <g>
    <path fill="currentColor" fill-opacity="0.4" d="M46.8838 23.9993c0 5.5763 -0.1644 10.2558 -0.317 13.3974 -0.1091 2.2462 -2.2567 3.8784 -4.4895 3.6101 -11.8573 -2.4651 -24.2973 -2.4651 -36.15456 0 -2.23283 0.2683 -4.38049 -1.3639 -4.48956 -3.6101 -0.15255 -3.1416 -0.31697 -7.8211 -0.31697 -13.3974 0 -5.5763 0.16442 -10.2558 0.31697 -13.3974 0.10907 -2.24626 2.25673 -3.87845 4.48956 -3.61013 11.85726 2.4651 24.29726 2.4651 36.15456 0 2.2328 -0.26832 4.3804 1.36387 4.4895 3.61013 0.1526 3.1416 0.317 7.8211 0.317 13.3974Z" stroke-width="1"></path>
    <path fill="currentColor" d="M40.8862 17.5064c0 2.2979 -1.8628 4.1607 -4.1607 4.1607 -2.2979 0 -4.1607 -1.8628 -4.1607 -4.1607 0 -2.2979 1.8628 -4.1607 4.1607 -4.1607 2.2979 0 4.1607 1.8628 4.1607 4.1607Z" stroke-width="1"></path>
    <path fill="currentColor" d="M1.29749 34.173c5.60577 -5.4051 9.34271 -8.201 11.53691 -9.6121 1.5104 -0.9712 3.3406 -0.8023 4.7368 0.327 1.8181 1.4706 4.8663 4.1236 9.6159 8.7609 3.3956 -3.0057 5.8335 -4.7846 7.4421 -5.819 1.5104 -0.9713 3.3406 -0.8023 4.7368 0.327 1.5059 1.218 3.8557 3.2472 7.3171 6.5432 -0.0375 0.9925 -0.0773 1.8954 -0.1163 2.6979 -0.109 2.2462 -2.2567 3.8784 -4.4895 3.6101 -11.8573 -2.4651 -24.2972 -2.4651 -36.15453 0 -2.23284 0.2683 -4.38049 -1.3639 -4.48956 -3.6101 -0.04576 -0.9424 -0.09259 -2.0231 -0.13572 -3.2249Z" stroke-width="1"></path>
  </g>
</svg>
