<svg xmlns="http://www.w3.org/2000/svg" fill="none" viewBox="0 0 48 48">
  <g>
    <path fill="currentColor" fill-rule="evenodd" d="M6.31221 9.62656c-1.09152 -0.09269 -1.96828 0.73334 -2.00984 1.58914C4.15696 14.2103 4 18.6761 4 23.9987c0 2.3979 0.03186 4.622 0.08017 6.6159 4.01337 -3.6708 6.83493 -5.7542 8.64453 -6.9179 1.8436 -1.1856 4.0733 -0.9569 5.7236 0.378 1.6912 1.3679 4.4454 3.7612 8.6509 7.839 2.9362 -2.5516 5.0962 -4.1211 6.5786 -5.0744 1.8436 -1.1856 4.0733 -0.9569 5.7236 0.3779 1.0562 0.8543 2.5264 2.1081 4.5052 3.9217 0.0556 -2.1257 0.0934 -4.5299 0.0934 -7.1402 0 -5.3226 -0.157 -9.7884 -0.3024 -12.783 -0.0415 -0.8558 -0.9183 -1.68183 -2.0098 -1.58914 -11.6055 2.39854 -23.7701 2.39854 -35.37559 0M0.30708 11.0217c0.167279 -3.44492 3.38308 -5.74026 6.55244 -5.35939 0.05653 0.0068 0.11273 0.016 0.16847 0.02759 11.13081 2.31407 22.81321 2.31407 33.94401 0 0.0557 -0.01159 0.112 -0.02079 0.1685 -0.02759 3.1693 -0.38087 6.3851 1.91447 6.5524 5.35939 0.1479 3.046 0.3071 7.5777 0.3071 12.977s-0.1592 9.931 -0.3071 12.977c-0.1673 3.4449 -3.3831 5.7403 -6.5524 5.3594 -0.0565 -0.0068 -0.1128 -0.016 -0.1685 -0.0276 -11.1308 -2.3141 -22.8132 -2.3141 -33.94401 0 -0.05574 0.0116 -0.11194 0.0208 -0.16846 0.0276 -3.16937 0.3809 -6.385171 -1.9145 -6.55245 -5.3594C0.159174 33.9297 0 29.398 0 23.9987s0.159174 -9.931 0.30708 -12.977M36.234 12.757c-2.7614 0 -5 2.2386 -5 5s2.2386 5 5 5 5 -2.2386 5 -5 -2.2386 -5 -5 -5" clip-rule="evenodd" stroke-width="3.429"></path>
  </g>
</svg>
