<svg xmlns="http://www.w3.org/2000/svg" fill="none" viewBox="0 0 48 48">
  <g>
    <path fill="currentColor" fill-rule="evenodd" d="M6.79987 6.1609C3.88619 5.81076 0.958166 7.92455 0.806492 11.0481 0.658898 14.0877 0.5 18.6111 0.5 24.0009c0 5.3897 0.158898 9.9131 0.306492 12.9527 0.151674 3.1236 3.079698 5.2374 5.993378 4.8872 0.04239 -0.0051 0.08454 -0.012 0.12634 -0.0207 11.19799 -2.328 22.94959 -2.328 34.14759 0 0.0418 0.0087 0.0839 0.0156 0.1263 0.0207 2.9137 0.3502 5.8417 -1.7636 5.9934 -4.8872 0.1476 -3.0396 0.3065 -7.563 0.3065 -12.9527 0 -5.3898 -0.1589 -9.9132 -0.3065 -12.9528 -0.1517 -3.12355 -3.0797 -5.23734 -5.9934 -4.8872 -0.0424 0.0051 -0.0845 0.012 -0.1263 0.02069 -11.198 2.32803 -22.9496 2.32803 -34.14759 0 -0.0418 -0.00869 -0.08395 -0.01559 -0.12634 -0.02069ZM40.234 17.7578c0 2.2092 -1.7909 4 -4 4 -2.2091 0 -4 -1.7908 -4 -4 0 -2.2091 1.7909 -4 4 -4 2.2091 0 4 1.7909 4 4Zm-1.4614 10.2375c1.2263 0.9919 3.0348 2.5434 5.5819 4.9208 -0.0484 1.4764 -0.1037 2.7834 -0.1575 3.89 -0.0572 1.1793 -1.2271 2.1922 -2.583 2.0603 -11.5561 -2.3923 -23.6719 -2.3923 -35.22804 0 -1.3559 0.1319 -2.52575 -0.881 -2.58301 -2.0603 -0.05996 -1.2349 -0.12188 -2.7192 -0.17398 -4.4102 4.5888 -4.3006 7.72303 -6.6269 9.63663 -7.8575 1.452 -0.9338 3.2116 -0.7714 4.5538 0.3143 1.7479 1.4138 4.6784 3.9643 9.2446 8.4226 3.2644 -2.8896 5.6082 -4.5998 7.1547 -5.5944 1.452 -0.9337 3.2116 -0.7713 4.5539 0.3144Z" clip-rule="evenodd" stroke-width="1"></path>
  </g>
</svg>
