<svg xmlns="http://www.w3.org/2000/svg" viewBox="0 0 24 24" fill="none"><path d="M14.1373 1.41795C14.2353 1.45271 14.3314 1.49271 14.4251 1.53777C14.8799 1.75644 15.2362 2.11551 15.6387 2.52116L20.4215 7.32881L20.4215 7.32882C20.8889 7.79717 21.3036 8.21283 21.5277 8.75658C21.6265 8.99631 21.6816 9.24478 21.7122 9.50453H19.7314C18.3638 9.50455 17.7152 9.50377 16.8483 9.38721C15.9481 9.26619 15.1903 9.0073 14.5884 8.40538C13.9864 7.80346 13.7275 7.04559 13.6065 6.14548C13.4902 5.2803 13.4902 4.63259 13.4902 3.27075V3.27072V1.2793C13.7136 1.30237 13.9283 1.34379 14.1373 1.41795Z" fill="currentColor"/><path d="M6.25 17.7509C6.25 17.1986 5.80228 16.7509 5.25 16.7509C4.69772 16.7509 4.25 17.1986 4.25 17.7509V19.7509C4.25 20.3032 4.69772 20.7509 5.25 20.7509C5.80228 20.7509 6.25 20.3032 6.25 19.7509V17.7509ZM12.25 17.2392C12.25 17.2381 12.249 17.2364 12.249 17.2353L11.8506 17.5371C11.4094 17.8684 10.7831 17.7797 10.4512 17.3388C10.1192 16.8974 10.208 16.2704 10.6494 15.9384L11.0488 15.6376C11.3706 15.3957 11.7021 15.1429 11.9912 14.9853C12.2561 14.8409 12.7574 14.6238 13.3105 14.8437L13.4219 14.8935L13.5283 14.9531C14.0342 15.264 14.1614 15.7936 14.2051 16.0917C14.2528 16.4177 14.25 16.8356 14.25 17.2392V20.7509H15.25C15.8023 20.7509 16.25 21.1986 16.25 21.7509C16.25 22.3032 15.8023 22.7509 15.25 22.7509H11.25C10.6977 22.7509 10.25 22.3032 10.25 21.7509C10.25 21.1986 10.6977 20.7509 11.25 20.7509H12.25V17.2392ZM8.25 19.7509C8.25 21.4078 6.90685 22.7509 5.25 22.7509C3.59315 22.7509 2.25 21.4078 2.25 19.7509V17.7509C2.25 16.0941 3.59315 14.7509 5.25 14.7509C6.90685 14.7509 8.25 16.0941 8.25 17.7509V19.7509Z" fill="currentColor"/><path opacity="0.4" d="M12.5879 1.2501C13.1577 1.24934 13.6624 1.24847 14.1377 1.4171C14.2355 1.4518 14.3312 1.49224 14.4248 1.53721C14.8796 1.75587 15.2362 2.11499 15.6387 2.52061L20.4219 7.32823C20.8891 7.79645 21.3033 8.2124 21.5273 8.75596C21.7514 9.29967 21.751 9.88856 21.75 10.5519V14.0265C21.75 15.8083 21.7497 17.2445 21.5986 18.3741C21.4418 19.547 21.1064 20.5351 20.3262 21.3194C19.5459 22.1037 18.5632 22.4411 17.3965 22.5987C17.3745 22.6017 17.3522 22.6027 17.3301 22.6056C17.4387 22.3417 17.5 22.0531 17.5 21.7501C17.4999 20.5921 16.6249 19.6392 15.5 19.5148V17.2384C15.5 16.8748 15.5064 16.3478 15.4424 15.9103L15.4414 15.9093C15.3845 15.5212 15.1819 14.5011 14.1826 13.8868C14.0323 13.7854 13.7111 13.6596 13.5693 13.6095C12.5632 13.3015 11.7152 13.7111 11.3926 13.8868C11.0042 14.0985 10.5867 14.4198 10.2969 14.6378L9.89746 14.9386C9.52522 15.2187 9.26418 15.5924 9.12305 16.0021C8.45629 14.5272 6.97377 13.5001 5.25 13.5001C4.90551 13.5001 4.57073 13.5419 4.25 13.6192V9.45323C4.24998 7.91957 4.24998 6.68219 4.36426 5.69835C4.48252 4.68057 4.7346 3.80819 5.32715 3.06944C5.54452 2.79849 5.79002 2.55161 6.05957 2.33311C6.7946 1.7374 7.66309 1.48419 8.67578 1.36534C9.65452 1.25052 11.0624 1.25008 12.5879 1.2501Z" fill="currentColor"/></svg>
