<svg xmlns="http://www.w3.org/2000/svg" viewBox="0 0 24 24" fill="none"><path d="M6.24951 17.7509C6.24951 17.1986 5.8018 16.7509 5.24951 16.7509C4.69723 16.7509 4.24951 17.1986 4.24951 17.7509V19.7509C4.24951 20.3032 4.69723 20.7509 5.24951 20.7509C5.8018 20.7509 6.24951 20.3032 6.24951 19.7509V17.7509ZM12.2495 17.2392C12.2495 17.2381 12.2485 17.2364 12.2485 17.2353L11.8501 17.5371C11.4089 17.8684 10.7826 17.7797 10.4507 17.3388C10.1187 16.8974 10.2075 16.2704 10.6489 15.9384L11.0483 15.6376C11.3701 15.3957 11.7016 15.1429 11.9907 14.9853C12.2556 14.8409 12.7569 14.6238 13.3101 14.8437L13.4214 14.8935L13.5278 14.9531C14.0337 15.264 14.1609 15.7936 14.2046 16.0917C14.2523 16.4177 14.2495 16.8356 14.2495 17.2392V20.7509H15.2495C15.8018 20.7509 16.2495 21.1986 16.2495 21.7509C16.2495 22.3032 15.8018 22.7509 15.2495 22.7509H11.2495C10.6972 22.7509 10.2495 22.3032 10.2495 21.7509C10.2495 21.1986 10.6972 20.7509 11.2495 20.7509H12.2495V17.2392ZM8.24951 19.7509C8.24951 21.4078 6.90637 22.7509 5.24951 22.7509C3.59266 22.7509 2.24951 21.4078 2.24951 19.7509V17.7509C2.24951 16.0941 3.59266 14.7509 5.24951 14.7509C6.90637 14.7509 8.24951 16.0941 8.24951 17.7509V19.7509Z" fill="currentColor"/><path d="M12.5874 1.2501C13.1571 1.24934 13.6619 1.24853 14.1372 1.4171C14.235 1.45178 14.3308 1.49227 14.4243 1.53721C14.8791 1.75585 15.2358 2.11504 15.6382 2.52061L20.4214 7.32823C20.8886 7.79639 21.3028 8.21248 21.5269 8.75596C21.7509 9.29964 21.7505 9.8886 21.7495 10.5519V14.0265C21.7495 15.8082 21.7492 17.2445 21.5981 18.3741C21.4413 19.5468 21.1057 20.5342 20.3257 21.3185C19.5454 22.1028 18.5628 22.441 17.396 22.5987C17.3741 22.6017 17.3518 22.6027 17.3296 22.6056C17.4382 22.3417 17.4995 22.0531 17.4995 21.7501C17.4994 20.5921 16.6244 19.6392 15.4995 19.5148V17.2384C15.4995 16.8748 15.5059 16.3478 15.4419 15.9103L15.4409 15.9093C15.384 15.5212 15.1814 14.5011 14.1821 13.8868C14.0318 13.7854 13.7106 13.6596 13.5688 13.6095C12.5627 13.3015 11.7147 13.7111 11.3921 13.8868C11.0038 14.0985 10.5862 14.4198 10.2964 14.6378L9.89697 14.9386C9.52473 15.2187 9.26369 15.5924 9.12256 16.0021C8.4558 14.5272 6.97328 13.5001 5.24951 13.5001C4.90502 13.5001 4.57024 13.5419 4.24951 13.6192V9.45225C4.24949 7.91889 4.24951 6.68205 4.36377 5.69835C4.48203 4.68061 4.73413 3.80817 5.32666 3.06944C5.54402 2.7985 5.78955 2.5516 6.05908 2.33311C6.79408 1.73743 7.66266 1.48419 8.67529 1.36534C9.65401 1.25052 11.0619 1.25008 12.5874 1.2501ZM13.4897 3.27061C13.4897 4.6319 13.4897 5.27981 13.606 6.14463C13.7269 7.04443 13.9859 7.80258 14.5874 8.4044C15.1893 9.00628 15.9481 9.2658 16.8481 9.38682C17.7149 9.50333 18.3637 9.50403 19.731 9.50401C19.6741 9.36626 19.5684 9.23533 18.9507 8.61436L14.3462 3.98545C13.8134 3.44987 13.6714 3.3165 13.4897 3.26182V3.27061Z" fill="currentColor" fill-rule="evenodd" clip-rule="evenodd"/></svg>
