<svg xmlns="http://www.w3.org/2000/svg" viewBox="0 0 24 24" fill="none"><path opacity="0.4" d="M21.7502 17.5468V17.5V10.4443C21.7502 10.008 21.7551 9.6709 21.6769 9.33984C21.5988 9.00895 21.4433 8.71038 21.2482 8.32031L20.298 6.41992C20.0102 5.84423 19.7961 5.39336 19.4387 5.04688C19.0812 4.70061 18.6244 4.50108 18.0402 4.23145L13.2687 2.02832C12.8711 1.8448 12.4381 1.75 12.0002 1.75C11.5622 1.75 11.1292 1.8448 10.7316 2.02832L6.05291 4.1875C5.42701 4.47637 4.93721 4.69051 4.56365 5.06934C4.1901 5.44822 3.98327 5.94136 3.7033 6.57129L2.65935 8.91992C2.49993 9.27863 2.37337 9.55372 2.30974 9.85352C2.24613 10.1533 2.25017 10.4561 2.25017 10.8486V17.5L2.25017 17.5467C2.25015 18.4476 2.25013 19.199 2.33025 19.7949C2.41469 20.4225 2.60048 20.989 3.05584 21.4443C3.5112 21.8997 4.07764 22.0855 4.70525 22.1699C5.30119 22.25 6.05259 22.25 6.95341 22.25H7.00017H17.0002H17.0469C17.9478 22.25 18.6992 22.25 19.2951 22.1699C19.9227 22.0855 20.4891 21.8997 20.9445 21.4443C21.3999 20.989 21.5857 20.4225 21.6701 19.7949C21.7502 19.199 21.7502 18.4476 21.7502 17.5468Z" fill="currentColor"/><path d="M16.75 16.499C16.75 16.0488 16.7519 15.6357 16.707 15.3018C16.6592 14.9463 16.5463 14.5707 16.2373 14.2617C15.9283 13.9527 15.5527 13.8398 15.1973 13.792C14.8634 13.7471 14.4502 13.749 14 13.749H10C9.54982 13.749 9.13665 13.7471 8.80275 13.792C8.44728 13.8398 8.07172 13.9527 7.76271 14.2617C7.45369 14.5707 7.34078 14.9463 7.29298 15.3018C7.24809 15.6357 7.25001 16.0488 7.25001 16.499L7.25001 22.25H9.30958L12 19.5596L14.6904 22.25H16.75V16.499ZM9.81154 15.25C9.87094 15.2499 9.93368 15.249 10 15.249H14C14.066 15.249 14.1284 15.2499 14.1875 15.25L12 17.4385L9.81154 15.25ZM8.75001 16.499C8.75001 16.4327 8.75087 16.37 8.75099 16.3105L10.9395 18.499L8.75001 20.6885V16.499ZM13.0606 18.499L15.2481 16.3105C15.2482 16.37 15.25 16.4327 15.25 16.499V20.6885L13.0606 18.499Z" fill="currentColor" fill-rule="evenodd" clip-rule="evenodd"/><path d="M13.5001 7.75C13.9143 7.75 14.2501 8.08579 14.2501 8.5C14.2501 8.91421 13.9143 9.25 13.5001 9.25H10.5001C10.0859 9.25 9.75012 8.91421 9.75012 8.5C9.75012 8.08579 10.0859 7.75 10.5001 7.75H13.5001Z" fill="currentColor"/></svg>
