<svg xmlns="http://www.w3.org/2000/svg" viewBox="0 0 24 24" fill="none"><path d="M7.25011 16.499C7.25011 16.0488 7.24819 15.6357 7.29308 15.3018C7.34087 14.9463 7.45381 14.5707 7.76281 14.2617C8.07181 13.9527 8.44739 13.8398 8.80285 13.792C9.13674 13.7471 9.54994 13.749 10.0001 13.749H14.0001C14.4503 13.749 14.8635 13.7471 15.1974 13.792C15.5528 13.8398 15.9284 13.9527 16.2374 14.2617C16.5464 14.5707 16.6593 14.9463 16.7071 15.3018C16.752 15.6357 16.7501 16.0488 16.7501 16.499V22.25L17.047 22.25C17.9478 22.25 18.6991 22.25 19.295 22.1699C19.9226 22.0855 20.4891 21.8997 20.9444 21.4443C21.3998 20.989 21.5856 20.4225 21.67 19.7949C21.7502 19.199 21.7501 18.4476 21.7501 17.5469V10.4443C21.7501 10.008 21.755 9.6709 21.6769 9.33984C21.5987 9.00896 21.4432 8.71037 21.2482 8.32031L20.298 6.41992C20.0101 5.84425 19.7961 5.39335 19.4386 5.04688C19.0812 4.70064 18.6243 4.50106 18.0402 4.23145L13.2687 2.02832C12.8711 1.84483 12.438 1.75 12.0001 1.75C11.5622 1.75002 11.1292 1.84482 10.7316 2.02832L6.05285 4.1875C5.42699 4.47635 4.93714 4.69053 4.56359 5.06934C4.19007 5.44821 3.98319 5.94139 3.70324 6.57129L2.65929 8.91992C2.49987 9.27861 2.3733 9.55373 2.30968 9.85351C2.24607 10.1533 2.25011 10.4561 2.25011 10.8486L2.25011 17.5469C2.25009 18.4476 2.25007 19.199 2.33019 19.7949C2.41462 20.4225 2.60046 20.989 3.05578 21.4443C3.51111 21.8997 4.07762 22.0855 4.70519 22.1699C5.30108 22.25 6.05251 22.25 6.95324 22.25H7.25011L7.25011 16.499ZM10.5001 9.25C10.0859 9.24997 9.75011 8.9142 9.75011 8.5C9.75011 8.0858 10.0859 7.75003 10.5001 7.75H13.5001C13.9143 7.75 14.2501 8.08579 14.2501 8.5C14.2501 8.91421 13.9143 9.25 13.5001 9.25H10.5001ZM14.1876 15.25C14.1285 15.2499 14.0661 15.249 14.0001 15.249L10.0001 15.249C9.9338 15.249 9.87103 15.2499 9.81164 15.25L12.0001 17.4385L14.1876 15.25ZM10.9396 18.499L8.75109 16.3105C8.75097 16.37 8.75011 16.4327 8.75011 16.499V20.6885L10.9396 18.499ZM15.2501 16.499C15.2501 16.4327 15.2483 16.37 15.2482 16.3105L13.0607 18.499L15.2501 20.6885V16.499ZM12.0001 19.5596L9.30968 22.25H14.6905L12.0001 19.5596Z" fill="currentColor" fill-rule="evenodd" clip-rule="evenodd"/></svg>
