<svg xmlns="http://www.w3.org/2000/svg" fill="none" viewBox="0 0 48 48">
  <g>
    <path fill="currentColor" d="M46.4834 14.5561C45.9254 32.2932 31.372 46.5 13.5 46.5c-6.83306 0 -12 -5.3348 -12 -12.0689 0 -1.8401 1.12028 -3.4948 2.82874 -4.1781l6.16526 -2.4661c2.0428 -0.8172 4.376 -0.3383 5.9317 1.2175l3.0765 3.0765c0.136 0.136 0.2887 0.1521 0.3819 0.1238 5.8864 -1.7876 10.533 -6.4342 12.3206 -12.3206 0.0283 -0.0932 0.0122 -0.2459 -0.1238 -0.3819l-3.0765 -3.0765c-1.5557 -1.5557 -2.0347 -3.8889 -1.2175 -5.9317l2.4661 -6.16526C30.9363 2.62028 32.591 1.5 34.4311 1.5c7.3645 0 12.1664 5.86143 12.0523 13.0561Z" stroke-width="1"></path>
  </g>
</svg>
