<svg xmlns="http://www.w3.org/2000/svg" viewBox="0 0 24 24" fill="none"><path d="M17.0049 1.25C18.5696 1.25 19.8377 2.52578 19.8379 4.09961L19.817 5.00252C20.6507 5.36908 21.2339 6.2055 21.2339 7.17928V7.91951C21.234 8.22726 21.255 8.27528 21.2393 8.50684C21.2225 8.75389 21.1847 9.01825 21.0752 9.28418C20.8356 9.86584 20.3761 10.3283 19.7978 10.5693C19.5334 10.6795 19.2701 10.7175 19.0244 10.7344C18.7942 10.7502 18.5188 10.75 18.2129 10.75H15.7969C15.4909 10.75 15.2156 10.7502 14.9853 10.7344C14.7397 10.7175 14.4763 10.6795 14.2119 10.5693C13.6337 10.3283 13.1742 9.86584 12.9346 9.28418C12.8251 9.01825 12.7873 8.75389 12.7705 8.50684C12.7548 8.27528 12.7339 8.22726 12.7339 7.91951V7.17928C12.7339 6.2055 13.3172 5.36908 14.1509 5.00252L14.1719 4.09961C14.1721 2.52578 15.4402 1.25 17.0049 1.25ZM17.0049 3.15039C16.4833 3.15039 16.0605 3.57592 16.0605 4.10059L16.0396 5H17.9283L17.9492 4.10059C17.9492 3.57592 17.5265 3.1504 17.0049 3.15039Z" fill="currentColor" fill-rule="evenodd" clip-rule="evenodd"/><path opacity="0.4" d="M14.0713 1.25C13.3651 1.98317 12.9286 2.97865 12.9219 4.07422C12.0613 4.73656 11.5049 5.77761 11.5049 6.9502V7.69043L11.5068 8.14453C11.5091 8.29785 11.5138 8.45021 11.5234 8.5918C11.5445 8.90223 11.5962 9.31836 11.7783 9.76074C12.1434 10.6469 12.845 11.3534 13.7305 11.7227L13.7314 11.7236C14.174 11.908 14.5899 11.9602 14.8994 11.9814L15.3447 11.998C15.4831 12.0001 15.6224 12 15.7559 12H18.2129L18.665 11.998C18.8175 11.9958 18.9693 11.9911 19.1104 11.9814L19.3613 11.958C19.6234 11.9264 19.9313 11.8632 20.2549 11.7314V17.8633C20.2549 18.403 19.8192 18.8408 19.2822 18.8408H19.1924C19.162 18.8768 19.1293 18.9161 19.0977 18.96C18.9302 19.1924 18.7969 19.4846 18.7969 19.8184C18.7969 20.152 18.9303 20.4434 19.0977 20.6758C19.1293 20.7198 19.162 20.7598 19.1924 20.7959H19.2822C19.8191 20.7959 20.2547 21.2329 20.2549 21.7725C20.2549 22.3122 19.8192 22.75 19.2822 22.75H5.67188C4.0611 22.75 2.75498 21.4375 2.75488 19.8184V8.03516C2.75486 6.70606 2.75524 5.61062 2.87109 4.74414C2.99237 3.8374 3.25665 3.0367 3.89453 2.39551C4.53235 1.7544 5.32854 1.48813 6.23047 1.36621C7.09248 1.24974 8.1826 1.24998 9.50488 1.25H14.0713ZM5.67188 18.8398C5.13493 18.8398 4.69922 19.2777 4.69922 19.8174C4.69936 20.357 5.13502 20.7939 5.67188 20.7939H17.0049C16.9131 20.5025 16.8526 20.1761 16.8525 19.8174C16.8525 19.4584 16.913 19.1314 17.0049 18.8398H5.67188Z" fill="currentColor" fill-rule="evenodd" clip-rule="evenodd"/></svg>
