<svg xmlns="http://www.w3.org/2000/svg" viewBox="0 0 24 24" fill="none"><path d="M17.0044 1.25C18.5691 1.25 19.8372 2.52578 19.8374 4.09961L19.8165 5.00252C20.6502 5.36908 21.2335 6.2055 21.2335 7.17928V7.91951C21.2335 8.22726 21.2545 8.27528 21.2388 8.50684C21.222 8.75389 21.1842 9.01825 21.0747 9.28418C20.8351 9.86584 20.3756 10.3283 19.7974 10.5693C19.5329 10.6795 19.2696 10.7175 19.0239 10.7344C18.7937 10.7502 18.5183 10.75 18.2124 10.75H15.7964C15.4905 10.75 15.2151 10.7502 14.9849 10.7344C14.7392 10.7175 14.4759 10.6795 14.2114 10.5693C13.6332 10.3283 13.1737 9.86584 12.9341 9.28418C12.8246 9.01825 12.7868 8.75389 12.77 8.50684C12.7543 8.27528 12.7334 8.22726 12.7335 7.91951V7.17928C12.7335 6.2055 13.3167 5.36908 14.1505 5.00252L14.1714 4.09961C14.1716 2.52578 15.4397 1.25 17.0044 1.25ZM17.0044 3.15039C16.4828 3.15039 16.0601 3.57592 16.0601 4.10059L16.0391 5H17.9278L17.9487 4.10059C17.9487 3.57592 17.526 3.1504 17.0044 3.15039Z" fill="currentColor" fill-rule="evenodd" clip-rule="evenodd"/><path d="M14.0708 1.25C13.3647 1.98317 12.9281 2.97865 12.9214 4.07422C12.0608 4.73656 11.5044 5.77761 11.5044 6.9502V7.69043L11.5063 8.14453C11.5086 8.29785 11.5133 8.45021 11.5229 8.5918C11.544 8.90223 11.5958 9.31836 11.7778 9.76074C12.1429 10.6469 12.8446 11.3534 13.73 11.7227L13.731 11.7236C14.1735 11.908 14.5894 11.9602 14.8989 11.9814L15.3442 11.998C15.4826 12.0001 15.6219 12 15.7554 12H18.2124L18.6646 11.998C18.817 11.9958 18.9688 11.9911 19.1099 11.9814L19.3608 11.958C19.6229 11.9264 19.9308 11.8632 20.2544 11.7314V17.8633C20.2544 18.403 19.8187 18.8408 19.2817 18.8408H19.1919C19.1616 18.8768 19.1288 18.9161 19.0972 18.96C18.9298 19.1924 18.7964 19.4846 18.7964 19.8184C18.7964 20.152 18.9299 20.4434 19.0972 20.6758C19.1288 20.7198 19.1615 20.7598 19.1919 20.7959H19.2817C19.8186 20.7959 20.2542 21.2329 20.2544 21.7725C20.2544 22.3122 19.8187 22.75 19.2817 22.75H5.67139C4.06062 22.75 2.75449 21.4375 2.75439 19.8184V8.03516C2.75437 6.70606 2.75475 5.61062 2.87061 4.74414C2.99188 3.8374 3.25616 3.0367 3.89404 2.39551C4.53186 1.7544 5.32805 1.48813 6.22998 1.36621C7.092 1.24974 8.18211 1.24998 9.5044 1.25H14.0708ZM5.67139 18.8398C5.13445 18.8398 4.69873 19.2777 4.69873 19.8174C4.69887 20.357 5.13453 20.7939 5.67139 20.7939H17.0044C16.9126 20.5025 16.8521 20.1761 16.8521 19.8174C16.8521 19.4584 16.9125 19.1314 17.0044 18.8398H5.67139Z" fill="currentColor" fill-rule="evenodd" clip-rule="evenodd"/></svg>
