<svg xmlns="http://www.w3.org/2000/svg" viewBox="0 0 24 24" fill="none"><path opacity="0.4" d="M22.25 12.0526V12V11.9474C22.25 9.75475 22.25 8.03277 22.0693 6.68848C21.8843 5.31182 21.4969 4.21953 20.6387 3.36133C19.7805 2.50313 18.6882 2.11575 17.3115 1.93066C15.9672 1.74998 14.2452 1.74999 12.0526 1.75H12H11.9474C9.75476 1.74999 8.03277 1.74998 6.68848 1.93066C5.31182 2.11575 4.21953 2.50313 3.36133 3.36133C2.50313 4.21953 2.11575 5.31182 1.93066 6.68848C1.74998 8.03277 1.74999 9.75476 1.75 11.9474V12V12.0526C1.74999 14.2452 1.74998 15.9672 1.93066 17.3115C2.11575 18.6882 2.50313 19.7805 3.36133 20.6387C4.21953 21.4969 5.31182 21.8843 6.68848 22.0693C8.03277 22.25 9.75475 22.25 11.9474 22.25H12H12.0526C14.2452 22.25 15.9672 22.25 17.3115 22.0693C18.6882 21.8843 19.7805 21.4969 20.6387 20.6387C21.4969 19.7805 21.8843 18.6882 22.0693 17.3115C22.25 15.9672 22.25 14.2452 22.25 12.0526Z" fill="currentColor"/><path d="M11 13.5C11 12.7754 11.322 12.1896 11.6807 11.7578C12.0355 11.3308 12.4769 10.9917 12.8467 10.7383C13.2432 10.4663 13.5 10.013 13.5 9.5C13.5 8.67158 12.8284 8 12 8C11.1716 8 10.5 8.67158 10.5 9.5C10.5 10.0523 10.0523 10.5 9.5 10.5C8.94772 10.5 8.5 10.0523 8.5 9.5C8.5 7.567 10.067 6 12 6C13.933 6 15.5 7.567 15.5 9.5C15.5 10.7006 14.8942 11.7598 13.9766 12.3887C13.6632 12.6035 13.3989 12.8193 13.2188 13.0361C13.0426 13.2483 13 13.3962 13 13.5C13 14.0523 12.5523 14.5 12 14.5C11.4477 14.5 11 14.0523 11 13.5Z" fill="currentColor"/><path d="M12 15.75C12.5523 15.75 13 16.1977 13 16.75C13 17.3023 12.5523 17.75 12 17.75C11.4477 17.75 11 17.3023 11 16.75C11 16.1977 11.4477 15.75 12 15.75Z" fill="currentColor"/></svg>
