<svg xmlns="http://www.w3.org/2000/svg" viewBox="0 0 24 24" fill="none"><path opacity="0.4" d="M21.7499 13.05V13V11V10.95C21.75 9.10922 21.75 7.65129 21.5966 6.51074C21.439 5.33844 21.1066 4.38991 20.3583 3.6416C19.61 2.89329 18.6615 2.56096 17.4892 2.40332C16.3486 2.24998 14.8907 2.24999 13.0499 2.25H12.9999H10.9999H10.95C9.10918 2.24999 7.65123 2.24998 6.51068 2.40332C5.33838 2.56096 4.38985 2.89329 3.64154 3.6416C2.89323 4.38991 2.5609 5.33844 2.40326 6.51074C2.24992 7.6513 2.24993 9.10924 2.24994 10.9501V11V13V13.0499C2.24993 14.8908 2.24992 16.3487 2.40326 17.4893C2.5609 18.6616 2.89323 19.6101 3.64154 20.3584C4.38985 21.1067 5.33838 21.439 6.51068 21.5967C7.65123 21.75 9.10916 21.75 10.95 21.75H10.9999H12.9999H13.0499C14.8907 21.75 16.3487 21.75 17.4892 21.5967C18.6615 21.439 19.61 21.1067 20.3583 20.3584C21.1066 19.6101 21.439 18.6616 21.5966 17.4893C21.75 16.3487 21.75 14.8908 21.7499 13.05Z" fill="currentColor"/><path d="M15.7499 2.27637C16.2993 2.29405 16.798 2.32424 17.2499 2.375V8.25H21.7236C21.7385 8.71335 21.7454 9.2126 21.748 9.75H12.7499V14.25H21.748C21.7454 14.7874 21.7385 15.2867 21.7236 15.75H17.2499V21.624C16.798 21.6748 16.2993 21.705 15.7499 21.7227V15.75H8.24994V21.7227C7.70058 21.705 7.20191 21.6748 6.74994 21.624V15.75H2.27631C2.26139 15.2867 2.25445 14.7874 2.25189 14.25H11.2499V9.75H2.25189C2.25445 9.2126 2.26139 8.71335 2.27631 8.25H6.74994V2.375C7.20189 2.32424 7.70061 2.29405 8.24994 2.27637V8.25H15.7499V2.27637Z" fill="currentColor"/></svg>
