<svg xmlns="http://www.w3.org/2000/svg" viewBox="0 0 24 24" fill="none"><path d="M15.7496 15.75V21.7227C14.958 21.7481 14.0615 21.75 13.0494 21.75H10.9498C9.93762 21.75 9.04111 21.7481 8.24957 21.7227V15.75H15.7496ZM6.74957 15.75V21.624C6.66839 21.6149 6.58849 21.6072 6.51031 21.5967C5.33801 21.439 4.38948 21.1067 3.64117 20.3584C2.89287 19.6101 2.56053 18.6616 2.40289 17.4893C2.33386 16.9758 2.29681 16.398 2.27594 15.75H6.74957ZM21.7232 15.75C21.7023 16.398 21.6653 16.9758 21.5963 17.4893C21.4386 18.6616 21.1063 19.6101 20.358 20.3584C19.6097 21.1067 18.6611 21.439 17.4888 21.5967C17.4107 21.6072 17.3308 21.6149 17.2496 21.624V15.75H21.7232ZM21.7496 10.9502V13.0498C21.7496 13.4695 21.7494 13.8694 21.7476 14.25H12.7496V9.75H21.7476C21.7494 10.1306 21.7496 10.5305 21.7496 10.9502ZM11.2496 9.75V14.25H2.25153C2.24971 13.8694 2.24957 13.4695 2.24957 13.0498V10.9502C2.24957 10.5305 2.24971 10.1306 2.25153 9.75H11.2496ZM17.4888 2.40332C18.6611 2.56096 19.6097 2.89329 20.358 3.6416C21.1063 4.38991 21.4386 5.33844 21.5963 6.51074C21.6653 7.02418 21.7023 7.60196 21.7232 8.25H17.2496V2.375C17.3308 2.38412 17.4106 2.39281 17.4888 2.40332ZM6.74957 8.25H2.27594C2.29681 7.60196 2.33386 7.02418 2.40289 6.51074C2.56054 5.33844 2.89287 4.38991 3.64117 3.6416C4.38948 2.89329 5.33801 2.56096 6.51031 2.40332C6.58853 2.39281 6.66836 2.38412 6.74957 2.375V8.25ZM13.0494 2.25C14.0615 2.24999 14.958 2.25088 15.7496 2.27637V8.25H8.24957V2.27637C9.04111 2.25088 9.93761 2.24999 10.9498 2.25H13.0494Z" fill="currentColor"/></svg>
