<svg xmlns="http://www.w3.org/2000/svg" viewBox="0 0 24 24" fill="none"><path d="M10.8135 20.2861C11.5358 19.4312 12.25 18.3111 12.25 17.1367C12.2499 15.6031 11.1313 14.248 9.5 14.248C8.82435 14.248 8.18911 14.4536 7.5 15.0098C6.81089 14.4536 6.17565 14.248 5.5 14.248C3.86874 14.248 2.7501 15.6031 2.75 17.1367C2.75 18.3111 3.4642 19.4312 4.18652 20.2861C4.9341 21.1709 5.8207 21.9216 6.40723 22.373C7.05654 22.8727 7.94346 22.8727 8.59277 22.373C9.1793 21.9216 10.0659 21.1709 10.8135 20.2861Z" fill="currentColor"/><path opacity="0.4" d="M12.0892 1.24815L12.0879 1.24815C10.5624 1.24813 9.1545 1.24856 8.17578 1.36338C7.16315 1.48224 6.29457 1.73548 5.55957 2.33116C5.29004 2.54965 5.04451 2.79655 4.82715 3.06749C4.23462 3.80621 3.98252 4.67865 3.86426 5.69639C3.75 6.6801 3.74998 7.91694 3.75 9.4503V13.3966C4.26313 13.1439 4.85076 12.9981 5.5 12.9981C6.19718 12.9981 6.85615 13.1593 7.5 13.5099C8.14385 13.1593 8.80282 12.9981 9.5 12.9981C11.928 12.9981 13.4998 15.0244 13.5 17.1368C13.5 18.7791 12.5281 20.1939 11.7686 21.0929C11.2367 21.7223 10.6478 22.282 10.1299 22.7296C10.8754 22.7476 11.699 22.7482 12.5713 22.7481H12.5861C14.3518 22.7482 15.7759 22.7482 16.8965 22.5968C18.0633 22.4391 19.0459 22.1008 19.8262 21.3165C20.6061 20.5323 20.9418 19.5448 21.0986 18.3722C21.2497 17.2426 21.25 15.8062 21.25 14.0245V10.5499C21.251 9.88665 21.2514 9.29769 21.0273 8.75401C20.8033 8.21053 20.389 7.79444 19.9219 7.32627L15.1387 2.51866C14.7363 2.11309 14.3796 1.7539 13.9248 1.53526C13.8313 1.49031 13.7354 1.44983 13.6377 1.41514C13.1628 1.24671 12.6584 1.24739 12.0892 1.24815Z" fill="currentColor"/><path d="M13.6373 1.416C13.7353 1.45076 13.8314 1.49075 13.9251 1.53582C14.3799 1.75449 14.7362 2.11356 15.1387 2.51921L19.9215 7.32686L19.9215 7.32686C20.3889 7.79521 20.8036 8.21088 21.0277 8.75463C21.1265 8.99435 21.1816 9.24282 21.2122 9.50258H19.2314C17.8638 9.5026 17.2152 9.50181 16.3483 9.38525C15.4481 9.26424 14.6903 9.00534 14.0884 8.40343C13.4864 7.80151 13.2275 7.04364 13.1065 6.14353C12.9902 5.27834 12.9902 4.63063 12.9902 3.2688V3.26877V1.27734C13.2136 1.30042 13.4283 1.34184 13.6373 1.416Z" fill="currentColor"/></svg>
