<svg xmlns="http://www.w3.org/2000/svg" viewBox="0 0 24 24" fill="none"><path d="M10.813 20.2861C11.5353 19.4312 12.2495 18.3111 12.2495 17.1367C12.2494 15.6031 11.1308 14.248 9.49951 14.248C8.82386 14.248 8.18862 14.4536 7.49951 15.0098C6.8104 14.4536 6.17516 14.248 5.49951 14.248C3.86825 14.248 2.74961 15.6031 2.74951 17.1367C2.74951 18.3111 3.46372 19.4312 4.18604 20.2861C4.93361 21.1709 5.82021 21.9216 6.40674 22.373C7.05606 22.8727 7.94297 22.8727 8.59229 22.373C9.17881 21.9216 10.0654 21.1709 10.813 20.2861Z" fill="currentColor"/><path d="M12.0874 1.24815C12.6571 1.24739 13.1619 1.24658 13.6372 1.41514C13.735 1.44983 13.8308 1.49031 13.9243 1.53526C14.3791 1.7539 14.7358 2.11309 15.1382 2.51866L19.9214 7.32627C20.3886 7.79444 20.8028 8.21053 21.0269 8.75401C21.2509 9.29769 21.2505 9.88665 21.2495 10.5499V14.0245C21.2495 15.8062 21.2492 17.2426 21.0981 18.3722C20.9413 19.5448 20.6057 20.5323 19.8257 21.3165C19.0454 22.1008 18.0628 22.4391 16.896 22.5968C15.7723 22.7486 14.3433 22.7482 12.5708 22.7481C11.6985 22.7482 10.8749 22.7476 10.1294 22.7296C10.6473 22.282 11.2362 21.7223 11.7681 21.0929C12.5276 20.1939 13.4995 18.7791 13.4995 17.1368C13.4993 15.0244 11.9275 12.9981 9.49951 12.9981C8.80233 12.9981 8.14336 13.1593 7.49951 13.5099C6.85566 13.1593 6.19669 12.9981 5.49951 12.9981C4.85027 12.9981 4.26264 13.1439 3.74951 13.3966V9.4503C3.74949 7.91694 3.74951 6.6801 3.86377 5.69639C3.98203 4.67865 4.23413 3.80621 4.82666 3.06749C5.04402 2.79655 5.28955 2.54965 5.55908 2.33116C6.29408 1.73548 7.16266 1.48224 8.17529 1.36338C9.15401 1.24856 10.5619 1.24813 12.0874 1.24815ZM12.9897 3.26866C12.9897 4.62994 12.9897 5.27785 13.106 6.14268C13.2269 7.04248 13.4859 7.80063 14.0874 8.40245C14.6893 9.00433 15.4481 9.26384 16.3481 9.38487C17.2149 9.50137 17.8637 9.50208 19.231 9.50206C19.1741 9.36431 19.0684 9.23338 18.4507 8.61241L13.8462 3.9835C13.3134 3.44792 13.1714 3.31455 12.9897 3.25987V3.26866Z" fill="currentColor" fill-rule="evenodd" clip-rule="evenodd"/></svg>
