<svg xmlns="http://www.w3.org/2000/svg" viewBox="0 0 24 24" fill="none"><path d="M5.03809 6.46875C4.99891 7.22885 5 8.08286 5 9V11C5 12.3579 4.99508 13.5775 5.12695 14.5586C5.26667 15.5975 5.59222 16.6625 6.46484 17.5352C7.33748 18.4078 8.40254 18.7333 9.44141 18.873C10.4225 19.0049 11.6421 19 13 19H15C15.9163 19 16.7697 19.001 17.5293 18.9619C17.3798 19.6156 17.1214 20.1813 16.6514 20.6514C16.0495 21.2533 15.2917 21.5128 14.3916 21.6338C13.5267 21.7501 12.4275 21.75 11.0645 21.75H8.93555C7.57249 21.75 6.47331 21.7501 5.6084 21.6338C4.70829 21.5128 3.95055 21.2533 3.34863 20.6514C2.74672 20.0494 2.48723 19.2917 2.36621 18.3916C2.24995 17.5267 2.24997 16.4275 2.25 15.0645V12.9355C2.24997 11.5725 2.24995 10.4733 2.36621 9.6084C2.48723 8.70829 2.74672 7.95055 3.34863 7.34863C3.81878 6.87849 4.38422 6.61826 5.03809 6.46875Z" fill="currentColor"/><path opacity="0.4" d="M21.75 11.0644V11V9V8.93557C21.75 7.5725 21.7501 6.47332 21.6338 5.6084C21.5128 4.70829 21.2533 3.95055 20.6514 3.34863C20.0495 2.74672 19.2917 2.48723 18.3916 2.36621C17.5267 2.24995 16.4275 2.24997 15.0644 2.25H15H13H12.9356C11.5725 2.24997 10.4733 2.24995 9.6084 2.36621C8.70829 2.48723 7.95055 2.74672 7.34863 3.34863C6.74672 3.95055 6.48723 4.70829 6.36621 5.6084C6.24995 6.47333 6.24997 7.57252 6.25 8.93562V9V11V11.0644C6.24997 12.4275 6.24995 13.5267 6.36621 14.3916C6.48723 15.2917 6.74672 16.0495 7.34863 16.6514C7.95055 17.2533 8.70829 17.5128 9.6084 17.6338C10.4733 17.7501 11.5725 17.75 12.9356 17.75H13H15H15.0644C16.4275 17.75 17.5267 17.7501 18.3916 17.6338C19.2917 17.5128 20.0495 17.2533 20.6514 16.6514C21.2533 16.0495 21.5128 15.2917 21.6338 14.3916C21.7501 13.5267 21.75 12.4275 21.75 11.0644Z" fill="currentColor"/><path d="M13.2452 6.34367C13.6075 5.9269 14.2395 5.88275 14.6563 6.24504C15.0731 6.60736 15.1172 7.23936 14.7549 7.65617L13.587 8.99894C13.5976 8.99895 13.6084 8.99992 13.6192 8.99992H14.3809C14.8299 8.99992 15.2761 8.9979 15.6202 9.04582C15.9164 9.08709 16.4824 9.20733 16.8038 9.73723L16.8653 9.84855L16.9171 9.96867C17.1428 10.565 16.8638 11.0891 16.7003 11.3446C16.5144 11.635 16.2222 11.9672 15.9366 12.2958L14.7549 13.6562C14.3926 14.0729 13.7606 14.1171 13.3438 13.7548C12.927 13.3925 12.8829 12.7605 13.2452 12.3437L14.4122 10.9999H13.6192C13.1702 10.9999 12.724 11.0019 12.3799 10.954C12.0639 10.91 11.4403 10.7764 11.1348 10.1513C10.8196 9.50606 11.1254 8.92773 11.2999 8.65519C11.4858 8.36483 11.7779 8.03261 12.0635 7.70402L13.2452 6.34367Z" fill="currentColor"/></svg>
