<svg xmlns="http://www.w3.org/2000/svg" viewBox="0 0 24 24" fill="none"><path d="M5.03809 6.46875C4.99891 7.22885 5 8.08286 5 9V11C5 12.3579 4.99508 13.5775 5.12695 14.5586C5.26667 15.5975 5.59222 16.6625 6.46484 17.5352C7.33748 18.4078 8.40254 18.7333 9.44141 18.873C10.4225 19.0049 11.6421 19 13 19H15C15.9163 19 16.7697 19.001 17.5293 18.9619C17.3798 19.6156 17.1214 20.1813 16.6514 20.6514C16.0495 21.2533 15.2917 21.5128 14.3916 21.6338C13.5267 21.7501 12.4275 21.75 11.0645 21.75H8.93555C7.57249 21.75 6.47331 21.7501 5.6084 21.6338C4.70829 21.5128 3.95055 21.2533 3.34863 20.6514C2.74672 20.0494 2.48723 19.2917 2.36621 18.3916C2.24995 17.5267 2.24997 16.4275 2.25 15.0645V12.9355C2.24997 11.5725 2.24995 10.4733 2.36621 9.6084C2.48723 8.70829 2.74672 7.95055 3.34863 7.34863C3.81878 6.87849 4.38422 6.61826 5.03809 6.46875Z" fill="currentColor"/><path d="M15.0645 2.25C16.4275 2.24997 17.5267 2.24995 18.3916 2.36621C19.2917 2.48723 20.0494 2.74672 20.6514 3.34863C21.2533 3.95055 21.5128 4.70829 21.6338 5.6084C21.7501 6.47331 21.75 7.57249 21.75 8.93555V11.0645C21.75 12.4275 21.7501 13.5267 21.6338 14.3916C21.5128 15.2917 21.2533 16.0494 20.6514 16.6514C20.0494 17.2533 19.2917 17.5128 18.3916 17.6338C17.5267 17.7501 16.4275 17.75 15.0645 17.75H12.9355C11.5725 17.75 10.4733 17.7501 9.6084 17.6338C8.70829 17.5128 7.95055 17.2533 7.34863 16.6514C6.74672 16.0494 6.48723 15.2917 6.36621 14.3916C6.24995 13.5267 6.24997 12.4275 6.25 11.0645V8.93555C6.24997 7.57249 6.24995 6.47331 6.36621 5.6084C6.48723 4.70829 6.74672 3.95055 7.34863 3.34863C7.95055 2.74672 8.70829 2.48723 9.6084 2.36621C10.4733 2.24995 11.5725 2.24997 12.9355 2.25H15.0645ZM14.6562 6.24512C14.2394 5.88283 13.6074 5.92698 13.2451 6.34375L12.0635 7.7041C11.7779 8.03266 11.4857 8.36493 11.2998 8.65527C11.1254 8.92784 10.8196 9.5062 11.1348 10.1514C11.4402 10.7764 12.0639 10.9101 12.3799 10.9541C12.724 11.002 13.1701 11 13.6191 11H14.4121L13.2451 12.3438C12.8829 12.7606 12.927 13.3926 13.3438 13.7549C13.7605 14.1171 14.3926 14.073 14.7549 13.6562L15.9365 12.2959C16.2221 11.9673 16.5143 11.6351 16.7002 11.3447C16.8638 11.0892 17.1427 10.565 16.917 9.96875L16.8652 9.84863L16.8037 9.7373C16.4824 9.20741 15.9164 9.08717 15.6201 9.0459C15.276 8.99798 14.8299 9 14.3809 9H13.6191C13.6083 9 13.5975 8.99902 13.5869 8.99902L14.7549 7.65625C15.1172 7.23944 15.073 6.60744 14.6562 6.24512Z" fill="currentColor"/></svg>
