<svg xmlns="http://www.w3.org/2000/svg" viewBox="0 0 24 24" fill="none"><path opacity="0.4" d="M20.3702 18.6705C21.246 16.7569 21.7501 14.4592 21.7501 11.9996C21.7501 9.53993 21.246 7.24222 20.3702 5.32868L20.3524 5.28974C20.1339 4.81221 19.9342 4.37573 19.671 3.99567C19.3826 3.57929 19.0313 3.24695 18.5274 2.92341C17.4451 2.22854 16.4049 2.24958 14.8536 2.24958H9.14658C7.59531 2.24958 6.55513 2.22854 5.47275 2.92341C4.96886 3.24695 4.61758 3.57929 4.32919 3.99567C4.05884 4.38604 3.85549 4.83593 3.62997 5.32868C2.75422 7.24222 2.25009 9.53993 2.25009 11.9996C2.25009 14.4592 2.75422 16.7569 3.62997 18.6705L3.64778 18.7094C3.86627 19.1869 4.06597 19.6234 4.32919 20.0035C4.61758 20.4199 4.96886 20.7522 5.47275 21.0758C6.55513 21.7706 7.5953 21.7496 9.14658 21.7496H14.8536C16.4049 21.7496 17.4451 21.7706 18.5274 21.0758C19.0313 20.7522 19.3826 20.4199 19.671 20.0035C19.9342 19.6234 20.1339 19.187 20.3524 18.7094L20.3702 18.6705Z" fill="currentColor"/><path d="M15.1573 2.25146C15.6139 3.40306 15.9861 4.7564 16.2559 6.24951H20.75C20.9297 6.73084 21.087 7.23176 21.2207 7.74951H16.4864C16.657 9.09222 16.75 10.5215 16.75 11.9995C16.75 13.4776 16.657 14.9068 16.4864 16.2495H21.2207C21.087 16.7673 20.9297 17.2682 20.75 17.7495H16.2559C15.9861 19.2423 15.6137 20.5952 15.1573 21.7466C15.0582 21.7466 14.957 21.7495 14.8535 21.7495H13.5274C14.0194 20.666 14.433 19.3061 14.7315 17.7495H9.26859C9.56701 19.3061 9.98065 20.666 10.4727 21.7495H9.14651C9.04272 21.7495 8.94121 21.7466 8.84183 21.7466C8.38542 20.5952 8.01389 19.2421 7.74417 17.7495H3.25003C3.07037 17.2682 2.91302 16.7673 2.77933 16.2495H7.5137C7.34306 14.9068 7.25003 13.4776 7.25003 11.9995C7.25003 10.5215 7.34306 9.09222 7.5137 7.74951H2.77933C2.91302 7.23176 3.07036 6.73084 3.25003 6.24951H7.74417C8.01395 4.75654 8.38527 3.40299 8.84183 2.25146C8.94121 2.25143 9.04272 2.24951 9.14651 2.24951H10.4727C9.98065 3.33301 9.56701 4.69292 9.26859 6.24951H14.7315C14.433 4.69292 14.0194 3.33301 13.5274 2.24951H14.8535C14.957 2.24951 15.0582 2.25143 15.1573 2.25146ZM9.0264 7.74951C8.84945 9.07194 8.75003 10.5017 8.75003 11.9995C8.75003 13.4973 8.84945 14.9271 9.0264 16.2495H14.9737C15.1506 14.9271 15.25 13.4973 15.25 11.9995C15.25 10.5017 15.1506 9.07194 14.9737 7.74951H9.0264Z" fill="currentColor" fill-rule="evenodd" clip-rule="evenodd"/></svg>
