<svg xmlns="http://www.w3.org/2000/svg" viewBox="0 0 24 24" fill="none"><path d="M14.7315 17.7496C14.4331 19.3062 14.0197 20.6662 13.5274 21.7496H10.4727C9.98051 20.6662 9.56708 19.3062 9.26865 17.7496H14.7315ZM7.74423 17.7496C8.01398 19.2424 8.38573 20.5954 8.84286 21.7467C7.45638 21.7463 6.48295 21.7243 5.47275 21.0758C4.96888 20.7523 4.61758 20.4199 4.32919 20.0035C4.06599 19.6235 3.86603 19.1871 3.64755 18.7096L3.62997 18.6705C3.4937 18.3728 3.36787 18.0652 3.25009 17.7496H7.74423ZM20.7501 17.7496C20.6323 18.0652 20.5065 18.3728 20.3702 18.6705L20.3526 18.7096C20.1342 19.1871 19.9342 19.6235 19.671 20.0035C19.3826 20.4199 19.0313 20.7523 18.5274 21.0758C17.517 21.7245 16.5433 21.7463 15.1563 21.7467C15.6135 20.5953 15.9862 19.2426 16.256 17.7496H20.7501ZM7.51376 7.74963C7.34312 9.09234 7.25009 10.5216 7.25009 11.9996C7.25009 13.4777 7.34312 14.9069 7.51376 16.2496H2.77939C2.43752 14.9256 2.25009 13.4927 2.25009 11.9996C2.2501 10.5066 2.43751 9.07364 2.77939 7.74963H7.51376ZM14.9737 7.74963C15.1507 9.07206 15.2501 10.5018 15.2501 11.9996C15.2501 13.4974 15.1507 14.9272 14.9737 16.2496H9.02646C8.84951 14.9272 8.75009 13.4974 8.75009 11.9996C8.75009 10.5018 8.84951 9.07206 9.02646 7.74963H14.9737ZM21.2208 7.74963C21.5627 9.07364 21.7501 10.5066 21.7501 11.9996C21.7501 13.4927 21.5627 14.9256 21.2208 16.2496H16.4864C16.6571 14.9069 16.7501 13.4777 16.7501 11.9996C16.7501 10.5216 16.6571 9.09234 16.4864 7.74963H21.2208ZM8.84286 2.25159C8.38558 3.40308 8.01405 4.75649 7.74423 6.24963H3.25009C3.36786 5.93412 3.49371 5.62648 3.62997 5.32874C3.85548 4.836 4.05885 4.38608 4.32919 3.99573C4.61758 3.57936 4.96888 3.24699 5.47275 2.92346C6.48293 2.27496 7.45639 2.25203 8.84286 2.25159ZM13.5274 2.24963C14.0197 3.33309 14.4331 4.69304 14.7315 6.24963H9.26865C9.56708 4.69304 9.98051 3.33309 10.4727 2.24963H13.5274ZM15.1563 2.25159C16.5433 2.25202 17.517 2.2748 18.5274 2.92346C19.0313 3.24699 19.3826 3.57936 19.671 3.99573C19.9342 4.37577 20.1342 4.81217 20.3526 5.28967L20.3702 5.32874C20.5065 5.62648 20.6323 5.93412 20.7501 6.24963H16.256C15.9861 4.75634 15.6137 3.40316 15.1563 2.25159Z" fill="currentColor"/></svg>
