<svg xmlns="http://www.w3.org/2000/svg" viewBox="0 0 24 24" fill="none"><path d="M19.75 17.25C19.75 16.9739 19.5261 16.75 19.25 16.75H16.75V18.25H19.25C19.5261 18.25 19.75 18.0261 19.75 17.75V17.25ZM19.25 13.75C19.25 13.4739 19.0261 13.25 18.75 13.25H16.75V14.75H18.75C19.0261 14.75 19.25 14.5261 19.25 14.25V13.75ZM21.25 14.25C21.25 14.6753 21.1424 15.0751 20.9551 15.4258C21.443 15.882 21.75 16.5293 21.75 17.25V17.75C21.75 19.1307 20.6307 20.25 19.25 20.25H18.75V20.75C18.75 21.3023 18.3023 21.75 17.75 21.75C17.1977 21.75 16.75 21.3023 16.75 20.75V20.25H14.75C14.1977 20.25 13.75 19.8023 13.75 19.25C13.75 18.6977 14.1977 18.25 14.75 18.25V13.25C14.1977 13.25 13.75 12.8023 13.75 12.25C13.75 11.6977 14.1977 11.25 14.75 11.25H16.75V10.75C16.75 10.1977 17.1977 9.75 17.75 9.75C18.3023 9.75 18.75 10.1977 18.75 10.75V11.25C20.1307 11.25 21.25 12.3693 21.25 13.75V14.25Z" fill="currentColor"/><path d="M8 1.25C11.1756 1.25 13.75 3.82436 13.75 7C13.75 9.18007 12.5356 11.0731 10.75 12.0479V14.2451C10.7464 14.5367 10.7236 14.8396 10.5977 15.1211C10.4298 15.4961 10.1118 15.7596 9.83301 16.0088L9.06152 16.6973L10.04 17.7793C10.2573 18.0196 10.5043 18.2759 10.6328 18.6094C10.7291 18.8595 10.7472 19.1226 10.75 19.375C10.75 19.6218 10.7564 19.8916 10.6807 20.1533C10.6677 20.1981 10.6532 20.2425 10.6367 20.2861C10.5402 20.541 10.3727 20.7527 10.2246 20.9502L9.40039 22.0498C9.06989 22.4905 8.55082 22.75 8 22.75C7.44918 22.75 6.93011 22.4905 6.59961 22.0498L5.77539 20.9502C5.62729 20.7527 5.45977 20.541 5.36328 20.2861C5.34677 20.2425 5.33231 20.1981 5.31934 20.1533C5.24363 19.8916 5.25 19.6218 5.25 19.375V12.0479C3.46439 11.0731 2.25 9.18007 2.25 7C2.25 3.82436 4.82436 1.25 8 1.25ZM8 5.5C7.17157 5.5 6.5 6.17158 6.5 7C6.5 7.82843 7.17157 8.5 8 8.5C8.82842 8.5 9.5 7.82843 9.5 7C9.5 6.22334 8.90972 5.58461 8.15332 5.50781L8 5.5Z" fill="currentColor"/></svg>
