<svg xmlns="http://www.w3.org/2000/svg" viewBox="0 0 24 24" fill="none"><path opacity="0.4" d="M11.5876 1.2501C12.1575 1.24934 12.662 1.24866 13.1375 1.41733C13.2354 1.45209 13.3315 1.49208 13.4252 1.53715C13.8801 1.75582 14.2363 2.11489 14.6388 2.52054L19.4216 7.32819C19.889 7.79654 20.3038 8.2122 20.5278 8.75596C20.7519 9.29971 20.751 9.88846 20.75 10.5518L20.7498 14.0261C20.7499 15.8081 20.7499 17.2445 20.5988 18.3741C20.4419 19.547 20.1063 20.5345 19.3261 21.3188C18.5458 22.1031 17.5634 22.4405 16.3966 22.5982C15.2728 22.75 13.8439 22.75 12.0711 22.75C10.2983 22.75 8.72718 22.75 7.60334 22.5982C6.43655 22.4405 5.45414 22.1031 4.67389 21.3188C3.89364 20.5345 3.55804 19.547 3.40117 18.3741C3.25008 17.2445 3.2501 15.8081 3.25012 14.0262V14.0261V9.45263V9.4526C3.2501 7.91893 3.25009 6.6824 3.36436 5.69856C3.4826 4.6806 3.7343 3.80839 4.32693 3.06954C4.54447 2.79833 4.79024 2.55128 5.06004 2.33261C5.79507 1.7369 6.66277 1.48389 7.67546 1.36504C8.65422 1.25017 10.0618 1.25008 11.5876 1.2501Z" fill="currentColor"/><path d="M13.1372 1.41795C13.2352 1.45271 13.3312 1.49271 13.425 1.53777C13.8798 1.75644 14.2361 2.11551 14.6386 2.52116L19.4214 7.32881L19.4214 7.32882C19.8887 7.79717 20.3035 8.21283 20.5276 8.75658C20.6264 8.99631 20.6814 9.24478 20.712 9.50453H18.7312C17.3637 9.50455 16.7151 9.50377 15.8481 9.38721C14.948 9.26619 14.1901 9.0073 13.5882 8.40538C12.9863 7.80346 12.7274 7.04559 12.6064 6.14548C12.4901 5.2803 12.4901 4.63259 12.4901 3.27075V3.27072V1.2793C12.7135 1.30237 12.9282 1.34379 13.1372 1.41795Z" fill="currentColor"/><path d="M10 17C10.5523 17 11 17.4477 11 18C11 18.5523 10.5523 19 10 19H8C7.44772 19 7 18.5523 7 18C7 17.4477 7.44772 17 8 17H10ZM16 17C16.5523 17 17 17.4477 17 18C17 18.5523 16.5523 19 16 19H14C13.4477 19 13 18.5523 13 18C13 17.4477 13.4477 17 14 17H16ZM10 13C10.5523 13 11 13.4477 11 14C11 14.5523 10.5523 15 10 15H8C7.44772 15 7 14.5523 7 14C7 13.4477 7.44772 13 8 13H10ZM16 13C16.5523 13 17 13.4477 17 14C17 14.5523 16.5523 15 16 15H14C13.4477 15 13 14.5523 13 14C13 13.4477 13.4477 13 14 13H16Z" fill="currentColor"/></svg>
