<svg xmlns="http://www.w3.org/2000/svg" viewBox="0 0 24 24" fill="none"><path d="M11.5874 1.24815C12.1571 1.24739 12.6619 1.24657 13.1372 1.41514C13.235 1.44983 13.3308 1.49031 13.4243 1.53526C13.8791 1.75391 14.2358 2.11306 14.6382 2.51866L19.4214 7.32627C19.8886 7.79446 20.3028 8.21049 20.5269 8.75401C20.7509 9.29772 20.7505 9.88661 20.7495 10.5499V14.0245C20.7495 15.8063 20.7492 17.2426 20.5981 18.3722C20.4413 19.5449 20.1057 20.5323 19.3257 21.3165C18.5454 22.1008 17.5628 22.4391 16.396 22.5968C15.2723 22.7486 13.8433 22.7482 12.0708 22.7481C10.2982 22.7482 8.72681 22.7486 7.60303 22.5968C6.4363 22.4391 5.45356 22.1008 4.67334 21.3165C3.89332 20.5323 3.55773 19.5449 3.40088 18.3722C3.24982 17.2426 3.24949 15.8063 3.24951 14.0245V9.4503C3.24949 7.91689 3.24951 6.68012 3.36377 5.69639C3.48203 4.67861 3.73411 3.80624 4.32666 3.06749C4.54403 2.79653 4.78954 2.54966 5.05908 2.33116C5.79408 1.73547 6.66265 1.48224 7.67529 1.36338C8.65401 1.24856 10.0619 1.24813 11.5874 1.24815ZM7.99951 16.9981C7.44723 16.9981 6.99951 17.4459 6.99951 17.9981C6.99951 18.5504 7.44723 18.9981 7.99951 18.9981H9.99951C10.5518 18.9981 10.9995 18.5504 10.9995 17.9981C10.9995 17.4459 10.5518 16.9981 9.99951 16.9981H7.99951ZM13.9995 16.9981C13.4472 16.9981 12.9995 17.4459 12.9995 17.9981C12.9995 18.5504 13.4472 18.9981 13.9995 18.9981H15.9995C16.5518 18.9981 16.9995 18.5504 16.9995 17.9981C16.9995 17.4459 16.5518 16.9981 15.9995 16.9981H13.9995ZM7.99951 12.9981C7.44723 12.9981 6.99951 13.4459 6.99951 13.9981C6.99951 14.5504 7.44723 14.9981 7.99951 14.9981H9.99951C10.5518 14.9981 10.9995 14.5504 10.9995 13.9981C10.9995 13.4459 10.5518 12.9981 9.99951 12.9981H7.99951ZM13.9995 12.9981C13.4472 12.9981 12.9995 13.4459 12.9995 13.9981C12.9995 14.5504 13.4472 14.9981 13.9995 14.9981H15.9995C16.5518 14.9981 16.9995 14.5504 16.9995 13.9981C16.9995 13.4459 16.5518 12.9981 15.9995 12.9981H13.9995ZM12.4897 3.26866C12.4897 4.63 12.4897 5.2778 12.606 6.14268C12.7269 7.0425 12.9859 7.80062 13.5874 8.40245C14.1893 9.00433 14.9481 9.26384 15.8481 9.38487C16.7149 9.50137 17.3637 9.50208 18.731 9.50206C18.6741 9.36427 18.5686 9.23351 17.9507 8.61241L13.3462 3.9835C12.8133 3.44788 12.6714 3.31455 12.4897 3.25987V3.26866Z" fill="currentColor" fill-rule="evenodd" clip-rule="evenodd"/></svg>
