<svg xmlns="http://www.w3.org/2000/svg" viewBox="0 0 24 24" fill="none"><path d="M2 13V3C2 2.44772 2.44772 2 3 2C3.55229 2 4 2.44772 4 3V13C4 14.9139 4.00229 16.2487 4.1377 17.2559C4.26924 18.2342 4.5099 18.7521 4.87891 19.1211C5.24792 19.4901 5.7658 19.7308 6.74414 19.8623C7.75128 19.9977 9.08611 20 11 20H21C21.5523 20 22 20.4477 22 21C22 21.5523 21.5523 22 21 22H11C9.14265 22 7.64892 22.0022 6.47754 21.8447C5.27745 21.6834 4.26738 21.3377 3.46485 20.5352C2.66231 19.7326 2.31664 18.7226 2.15528 17.5225C1.99779 16.3511 2 14.8573 2 13Z" fill="currentColor"/><path opacity="0.4" d="M5.29302 17.2929C5.68354 16.9024 6.31655 16.9024 6.70708 17.2929C7.0976 17.6834 7.0976 18.3164 6.70708 18.707L5.20708 20.207C4.81655 20.5975 4.18354 20.5975 3.79302 20.207C3.40249 19.8164 3.40249 19.1834 3.79302 18.7929L5.29302 17.2929ZM9.29302 13.2929C9.68354 12.9024 10.3166 12.9024 10.7071 13.2929C11.0976 13.6834 11.0976 14.3164 10.7071 14.707L9.70708 15.707C9.31655 16.0975 8.68354 16.0975 8.29302 15.707C7.90249 15.3164 7.90249 14.6834 8.29302 14.2929L9.29302 13.2929ZM13.293 9.29289C13.6835 8.90237 14.3166 8.90237 14.7071 9.29289C15.0976 9.68342 15.0976 10.3164 14.7071 10.707L13.7071 11.707C13.3166 12.0975 12.6835 12.0975 12.293 11.707C11.9025 11.3164 11.9025 10.6834 12.293 10.2929L13.293 9.29289ZM16.793 5.79289C17.1835 5.40237 17.8166 5.40237 18.2071 5.79289C18.5976 6.18342 18.5976 6.81643 18.2071 7.20696L17.2071 8.20696C16.8166 8.59748 16.1835 8.59748 15.793 8.20696C15.4025 7.81643 15.4025 7.18342 15.793 6.79289L16.793 5.79289Z" fill="currentColor"/></svg>
