<svg xmlns="http://www.w3.org/2000/svg" viewBox="0 0 24 24" fill="none"><path d="M2.99951 2C3.5518 2 3.99951 2.44772 3.99951 3V13C3.99951 14.9139 4.0018 16.2487 4.13721 17.2559C4.19011 17.6493 4.2626 17.9676 4.35205 18.2324L5.29248 17.293C5.68301 16.9024 6.31602 16.9024 6.70654 17.293C7.09705 17.6835 7.09706 18.3165 6.70654 18.707L5.76611 19.6465C6.03112 19.7361 6.34961 19.8093 6.74365 19.8623C7.75079 19.9977 9.08563 20 10.9995 20H20.9995C21.5518 20 21.9995 20.4477 21.9995 21C21.9995 21.5523 21.5518 22 20.9995 22H10.9995C9.14217 22 7.64843 22.0022 6.47705 21.8447C5.27696 21.6834 4.26689 21.3377 3.46436 20.5352C2.66183 19.7326 2.31615 18.7226 2.15479 17.5225C1.9973 16.3511 1.99951 14.8573 1.99951 13V3C1.99951 2.44772 2.44723 2 2.99951 2ZM9.29248 13.293C9.68301 12.9024 10.316 12.9024 10.7065 13.293C11.0971 13.6835 11.0971 14.3165 10.7065 14.707L9.70654 15.707C9.31602 16.0975 8.68299 16.0975 8.29248 15.707C7.90198 15.3165 7.90202 14.6835 8.29248 14.293L9.29248 13.293ZM13.2925 9.29297C13.683 8.90244 14.316 8.90244 14.7065 9.29297C15.0971 9.68349 15.0971 10.3165 14.7065 10.707L13.7065 11.707C13.316 12.0975 12.683 12.0975 12.2925 11.707C11.902 11.3165 11.902 10.6835 12.2925 10.293L13.2925 9.29297ZM16.7925 5.79297C17.183 5.40244 17.816 5.40244 18.2065 5.79297C18.5971 6.18349 18.5971 6.81651 18.2065 7.20703L17.2065 8.20703C16.816 8.59749 16.183 8.59752 15.7925 8.20703C15.402 7.81653 15.402 7.1835 15.7925 6.79297L16.7925 5.79297Z" fill="currentColor" fill-rule="evenodd" clip-rule="evenodd"/></svg>
