<svg xmlns="http://www.w3.org/2000/svg" fill="none" viewBox="0 0 48 48">
  <g>
    <path fill="currentColor" d="M26.8877 39.418c0.8284 0 1.5 0.6715 1.5 1.5V46c0 0.8284 -0.6716 1.5 -1.5 1.5h-5.7754c-0.8284 0 -1.5 -0.6716 -1.5 -1.5v-5.082c0 -0.8285 0.6716 -1.5 1.5 -1.5z" stroke-width="3.429"></path>
    <path fill="currentColor" d="M24 1c3.3637 0 5.8227 0.16184 7.4844 0.33301 2.1119 0.21767 3.5919 1.96276 3.7168 4.03711 0.1368 2.27335 0.2871 6.00328 0.2871 11.42088V27H12.5117V16.791c0 -5.4176 0.1503 -9.14753 0.2871 -11.42088 0.1249 -2.0744 1.6048 -3.81952 3.7168 -4.03711C18.1773 1.16184 20.6363 1 24 1" stroke-width="3.429"></path>
    <path fill="currentColor" fill-opacity="0.4" d="M19.499 6.69531c0 0.82843 -0.6715 1.5 -1.5 1.5 -0.8282 -0.00026 -1.5 -0.67173 -1.5 -1.5V1.33496c0.0056 -0.00059 0.0111 -0.00138 0.0166 -0.00195 0.8039 -0.0828 1.7943 -0.16344 2.9834 -0.22461zM24 1c0.5216 0 1.0215 0.0045 1.5 0.01172v5.68359c-0.0001 0.82838 -0.6716 1.5 -1.5 1.5s-1.4999 -0.67162 -1.5 -1.5V1.01172C22.9785 1.0045 23.4784 1 24 1m4.5 0.1084c1.1896 0.06118 2.1803 0.14178 2.9844 0.22461 0.0052 0.00053 0.0104 0.00042 0.0156 0.00097v5.36133c0 0.82843 -0.6716 1.5 -1.5 1.5s-1.5 -0.67157 -1.5 -1.5z" stroke-width="3.429"></path>
    <path fill="currentColor" fill-opacity="0.4" d="M33.1364 13.983s0.9658 0.0728 2.0026 0.1129c0.934 0.0362 1.8228 0.2648 2.5328 0.6763 0.7012 0.4064 1.3307 1.0606 1.4755 1.9623 0.1779 1.1102 0.3336 5.7579 0.3336 7.8495l-0.007 0.7771c-0.0332 1.7528 -0.1755 3.0787 -0.3266 4.0214l-0.001 0.004c-0.0319 0.1944 -0.1086 0.3413 -0.1512 0.4153 -0.0492 0.0854 -0.1035 0.1593 -0.1491 0.2167 -0.0913 0.1148 -0.2008 0.2286 -0.3084 0.3336 -0.2185 0.2131 -0.5068 0.4633 -0.8285 0.7267 -0.648 0.5304 -1.4964 1.1706 -2.3443 1.7849 -0.8492 0.6152 -1.712 1.2141 -2.3937 1.663 -0.3043 0.2003 -0.5816 0.3747 -0.8083 0.51 -0.0327 1.2097 -0.0668 2.2077 -0.1039 3.0045 -0.0793 1.7013 -1.0433 3.4967 -2.8381 3.7361 -1.0213 0.136 -2.4627 0.2643 -4.3732 0.2943L24 42.0787c-2.3378 0 -4.0536 -0.1459 -5.2208 -0.3014 -1.7948 -0.2394 -2.7588 -2.0348 -2.8382 -3.7361 -0.0371 -0.797 -0.0721 -1.7954 -0.1048 -3.0055 -0.2261 -0.1351 -0.5032 -0.3084 -0.8063 -0.508 -0.6815 -0.4488 -1.5444 -1.0477 -2.3937 -1.663 -0.8482 -0.6145 -1.697 -1.2553 -2.3453 -1.7859 -0.32154 -0.2632 -0.61005 -0.5127 -0.82849 -0.7257 -0.10765 -0.105 -0.2171 -0.2198 -0.30841 -0.3346 -0.04563 -0.0574 -0.09995 -0.1313 -0.14916 -0.2167 -0.0426 -0.074 -0.12026 -0.2208 -0.15219 -0.4153v-0.004c-0.15108 -0.9427 -0.29342 -2.2686 -0.32655 -4.0214l-0.00706 -0.7771c0.00001 -2.0915 0.1557 -6.7392 0.33361 -7.8495 0.14484 -0.9017 0.77436 -1.5559 1.47555 -1.9623 0.71 -0.4115 1.5988 -0.6401 2.5328 -0.6763 1.0365 -0.0401 2.0016 -0.1129 2.0016 -0.1129 1.7678 -0.034 3.1685 1.4132 3.1627 3.1426 -0.0054 1.5315 0.031 3.0563 0.1361 4.5697 0.0048 0.0699 0.0336 0.1335 0.0897 0.1874 0.057 0.0547 0.1543 0.1099 0.3003 0.123 0.7326 0.0654 3.908 0.129 5.4486 0.129l1.0754 -0.0111c0.997 -0.0209 3.8237 -0.0689 4.3732 -0.1179 0.1459 -0.0131 0.2433 -0.0682 0.3003 -0.123 0.0561 -0.054 0.0849 -0.1176 0.0897 -0.1874 0.105 -1.5132 0.1407 -3.0373 0.1351 -4.5687 -0.0063 -1.7297 1.3948 -3.1776 3.1627 -3.1436" stroke-width="3.429"></path>
  </g>
</svg>
