<svg xmlns="http://www.w3.org/2000/svg" fill="none" viewBox="0 0 48 48">
  <g>
    <path stroke="currentColor" stroke-linejoin="round" d="M28.7881 18.866c-0.0042 -1.1335 0.9114 -2.0638 2.0447 -2.042 1.6242 0.0312 2.9238 0.07 3.9211 0.1086 1.5515 0.0601 2.7819 0.7591 2.9356 1.7158 0.1584 0.989 0.3105 4.4518 0.3105 6.4786s-0.1521 3.5023 -0.3105 4.4912c-0.0957 0.5825 -6.3548 5.0031 -6.7618 5.0136 -0.0349 1.4399 -0.0766 2.5962 -0.1181 3.4873 -0.0659 1.4142 -0.8332 2.5358 -1.8828 2.6758 -1.0849 0.1445 -2.7034 0.2832 -4.9268 0.2832 -2.2235 0 -3.8419 -0.1387 -4.9268 -0.2832 -1.0496 -0.14 -1.8169 -1.2616 -1.8828 -2.6758 -0.0415 -0.8911 -0.0832 -2.0474 -0.1181 -3.4873 -0.4036 -0.0081 -6.6663 -4.4314 -6.7618 -5.0136C10.1521 28.6293 10 27.1538 10 25.127s0.1521 -5.4896 0.3105 -6.4786c0.1537 -0.9567 1.3842 -1.6557 2.9356 -1.7158 0.997 -0.0385 2.2964 -0.0774 3.9201 -0.1086 1.1333 -0.0218 2.0489 0.9085 2.0449 2.042 -0.0052 1.5014 0.0297 3.0036 0.1336 4.5002 0.045 0.6482 0.5695 1.1634 1.2871 1.2276 0.7416 0.0662 1.8481 0.1289 3.3682 0.1289 1.52 0 2.6266 -0.0627 3.3682 -0.1289 0.7175 -0.0643 1.2421 -0.5794 1.2871 -1.2276 0.1039 -1.4967 0.1384 -2.9988 0.1328 -4.5002Z" stroke-width="1"></path>
    <path stroke="currentColor" d="M13.5116 16.791c0 -5.3995 0.1497 -9.10948 0.2852 -11.36123 0.0987 -1.63946 1.2482 -2.94038 2.8213 -3.10242C18.2436 2.15991 20.6682 2 23.9999 2c3.3318 0 5.7563 0.15992 7.3818 0.32735 1.5731 0.16204 2.7227 1.46297 2.8213 3.10242 0.1355 2.25175 0.2853 5.96173 0.2853 11.36123" stroke-width="1"></path>
    <path stroke="currentColor" stroke-linecap="round" stroke-linejoin="round" d="m20 46 0 -5.082" stroke-width="1"></path>
    <path stroke="currentColor" stroke-linecap="round" stroke-linejoin="round" d="m28 46 0 -5.082" stroke-width="1"></path>
    <path stroke="currentColor" stroke-linecap="round" stroke-linejoin="round" d="M24 9.06742 24 2" stroke-width="1"></path>
    <path stroke="currentColor" stroke-linecap="round" stroke-linejoin="round" d="m18.9678 9.06758 0 -6.93477" stroke-width="1"></path>
    <path stroke="currentColor" stroke-linecap="round" stroke-linejoin="round" d="m29.0317 9.06758 0 -6.93477" stroke-width="1"></path>
  </g>
</svg>
