<svg xmlns="http://www.w3.org/2000/svg" fill="none" viewBox="0 0 48 48">
  <g>
    <path fill="currentColor" d="M24 0c3.3956 0.0000030112 5.889 0.162993 7.5869 0.337891 2.6509 0.273201 4.4613 2.462409 4.6123 4.971679 0.116 1.92806 0.2394 4.88343 0.2764 9.00293 0.4237 0.1128 0.8198 0.2716 1.1719 0.4756 0.6999 0.4057 1.329 1.0589 1.4736 1.959 0.1776 1.1082 0.333 5.7802 0.333 7.8681l-0.0078 0.7754c-0.0331 1.7497 -0.1744 3.0736 -0.3252 4.0147l-0.002 0.0039c-0.0319 0.1937 -0.1078 0.3401 -0.1503 0.414 -0.0492 0.0853 -0.1039 0.1595 -0.1495 0.2168 -0.091 0.1145 -0.2003 0.2284 -0.3076 0.333 -0.218 0.2127 -0.5061 0.4629 -0.8271 0.7256 -0.6469 0.5294 -1.4937 1.1682 -2.3399 1.7813 -0.8476 0.6141 -1.7091 1.2121 -2.3896 1.6601 -0.3036 0.1999 -0.5804 0.3738 -0.8067 0.5088 -0.0326 1.2074 -0.0665 2.2038 -0.1035 2.9991 -0.0792 1.6982 -1.0415 3.4913 -2.833 3.7304 -0.2493 0.0332 -0.524 0.0648 -0.8242 0.0957V46c0 0.8284 -0.6716 1.5 -1.5 1.5h-5.7754c-0.8284 0 -1.5 -0.6716 -1.5 -1.5v-4.127c-0.3001 -0.0309 -0.575 -0.0615 -0.8242 -0.0947 -1.7915 -0.2391 -2.7538 -2.0322 -2.833 -3.7304 -0.037 -0.7955 -0.0719 -1.7922 -0.1045 -3 -0.2257 -0.1348 -0.5022 -0.3077 -0.8047 -0.5069 -0.6804 -0.448 -1.5419 -1.0459 -2.3897 -1.6601 -0.8464 -0.6134 -1.6937 -1.2527 -2.3408 -1.7823 -0.32082 -0.2626 -0.6091 -0.512 -0.82712 -0.7246 -0.10734 -0.1047 -0.21653 -0.2195 -0.30762 -0.334 -0.04554 -0.0572 -0.10028 -0.1315 -0.14941 -0.2168 -0.04252 -0.0738 -0.11949 -0.2202 -0.15137 -0.414v-0.0039c-0.15081 -0.9411 -0.29309 -2.265 -0.32617 -4.0147l-0.00781 -0.7754c0.00001 -2.0878 0.15639 -6.7598 0.33398 -7.8681 0.14466 -0.9 0.77278 -1.5533 1.47262 -1.959 0.3518 -0.2038 0.7475 -0.3629 1.1709 -0.4756 0.0371 -4.1195 0.1614 -7.07486 0.2774 -9.00293 0.151 -2.50932 1.9613 -4.698551 4.6123 -4.971679C18.111 0.162992 20.6044 -3.84e-7 24 0m1.5 6.69531c0 0.82839 -0.6716 1.5 -1.5 1.5s-1.5 -0.67161 -1.5 -1.5V4.0127c-0.7651 0.01186 -1.4712 0.0319 -2.1201 0.05859v2.62402c0 0.82843 -0.6716 1.5 -1.5 1.5 -0.8282 -0.00026 -1.5 -0.67173 -1.5 -1.5V4.2627c-0.1959 0.01774 -0.3814 0.03565 -0.5567 0.05371 -0.4951 0.051 -0.9839 0.46393 -1.0302 1.23339 -0.109 1.81066 -0.2272 4.6034 -0.2666 8.5059 1.4472 0.2794 2.5148 1.5733 2.5097 3.082 -0.0053 1.5288 0.0309 3.0509 0.1358 4.5615 0.0048 0.0698 0.0339 0.1337 0.0898 0.1875 0.057 0.0545 0.1544 0.1091 0.2998 0.1221 0.7321 0.0653 3.9009 0.1289 5.4385 0.1289l1.0732 -0.0107c0.995 -0.0209 3.8157 -0.0693 4.3653 -0.1182 0.1457 -0.0131 0.2438 -0.0674 0.3008 -0.1221 0.0559 -0.0539 0.084 -0.1178 0.0888 -0.1875 0.1049 -1.5104 0.1404 -3.0318 0.1348 -4.5605 -0.0055 -1.5091 1.0624 -2.8035 2.5098 -3.083 -0.0395 -3.9025 -0.1567 -6.69524 -0.2657 -8.5059 -0.0463 -0.76946 -0.5351 -1.18239 -1.0302 -1.23339 -0.1756 -0.01809 -0.3614 -0.03594 -0.5577 -0.05371v2.43261c0 0.82843 -0.6715 1.5 -1.5 1.5 -0.8284 0 -1.5 -0.67157 -1.5 -1.5V4.07129c-0.6486 -0.02666 -1.3544 -0.04674 -2.1191 -0.05859z" stroke-width="3.429"></path>
  </g>
</svg>
