<svg xmlns="http://www.w3.org/2000/svg" fill="none" viewBox="0 0 48 48">
  <g>
    <path fill="currentColor" d="M32.8525 15.8252c0.0034 0.0002 0.2818 0.0196 0.6963 0.0449 0.3466 0.0211 0.7883 0.0468 1.2442 0.0645 0.9049 0.0351 1.7661 0.2566 2.4541 0.6552 0.6793 0.3939 1.2893 1.0278 1.4297 1.9014 0.1723 1.0762 0.3232 4.6104 0.3232 6.6367l-0.0068 0.753c-0.0322 1.6981 -0.1701 2.9831 -0.3164 3.8964l-0.001 0.0039c-0.031 0.1882 -0.1052 0.3307 -0.1465 0.4024 -0.0476 0.0826 -0.1004 0.1544 -0.1445 0.21 -0.0884 0.1111 -0.1947 0.2216 -0.2989 0.3232 -0.2116 0.2064 -0.4911 0.449 -0.8027 0.7041 -0.6279 0.5139 -1.45 1.1343 -2.2715 1.7295 -0.8227 0.5961 -1.6588 1.1764 -2.3193 1.6113 -0.2947 0.1941 -0.5636 0.3631 -0.7832 0.4942 -0.0317 1.1719 -0.0647 2.1392 -0.1006 2.9111 -0.077 1.6484 -1.0111 3.3881 -2.75 3.6201 -0.2058 0.0274 -0.4295 0.0522 -0.6709 0.0781V46c0 0.8284 -0.6716 1.5 -1.5 1.5h-5.7754c-0.8284 0 -1.5 -0.6716 -1.5 -1.5v-4.1348c-0.2414 -0.026 -0.4651 -0.0507 -0.6709 -0.0781 -1.7389 -0.232 -2.673 -1.9717 -2.75 -3.6201 -0.0359 -0.7721 -0.0699 -1.7397 -0.1016 -2.9121 -0.219 -0.1308 -0.4876 -0.2989 -0.7812 -0.4922 -0.6603 -0.4348 -1.4965 -1.0152 -2.3193 -1.6113 -0.8218 -0.5954 -1.6444 -1.2164 -2.2725 -1.7305 -0.3114 -0.2549 -0.5911 -0.4968 -0.80274 -0.7031 -0.10423 -0.1017 -0.21039 -0.2131 -0.29883 -0.3242 -0.04415 -0.0556 -0.09689 -0.1274 -0.14453 -0.21 -0.04124 -0.0716 -0.11648 -0.2141 -0.14746 -0.4024v-0.0039c-0.14637 -0.9133 -0.28429 -2.1983 -0.3164 -3.8964L9 25.1279c0.00001 -2.0263 0.15089 -5.5605 0.32324 -6.6367 0.14033 -0.8736 0.75036 -1.5076 1.42966 -1.9014 0.688 -0.3986 1.5492 -0.6201 2.4541 -0.6552 0.4299 -0.0167 0.847 -0.0404 1.1836 -0.0606 0.4465 -0.0268 0.7513 -0.0485 0.7559 -0.0488l0.1592 0.001c1.637 0.0537 2.9107 1.4206 2.9052 3.0439 -0.0051 1.4838 0.0301 2.9616 0.1319 4.4278l0.0078 0.0488c0.0066 0.026 0.0176 0.0506 0.0322 0.0742 0.0127 0.0205 0.0279 0.0403 0.0469 0.0586l0.0488 0.0391c0.0244 0.0163 0.0537 0.03 0.0869 0.0429 0.0438 0.0171 0.095 0.0317 0.1553 0.0371l0.3691 0.0235c0.1652 0.0082 0.3636 0.0156 0.586 0.0234 0.8207 0.0288 1.9674 0.0541 2.9697 0.0674L24 23.7236l1.042 -0.0107c0.6985 -0.0147 2.3241 -0.0446 3.3721 -0.0772 0.2202 -0.0068 0.415 -0.0124 0.5703 -0.0195l0.2949 -0.0176c0.0325 -0.0029 0.0622 -0.0089 0.0898 -0.0156 0.0234 -0.0057 0.0445 -0.0137 0.0645 -0.0215 0.0336 -0.013 0.0633 -0.0264 0.0879 -0.0429l0.0488 -0.0391c0.0185 -0.0178 0.0324 -0.0377 0.0449 -0.0576 0.0025 -0.0039 0.0047 -0.0078 0.0069 -0.0117 0.0115 -0.0206 0.0217 -0.0413 0.0273 -0.0635l0.0078 -0.0488c0.1018 -1.466 0.1364 -2.9431 0.1309 -4.4268 -0.0002 -0.0524 0.0005 -0.1045 0.0029 -0.1563 0.0755 -1.6061 1.4019 -2.9215 3.0615 -2.8896M25.5 1.01172c1.1141 0.0168 2.1124 0.05103 3 0.09668v5.58691c0 0.82843 0.6716 1.5 1.5 1.5s1.5 -0.67157 1.5 -1.5V1.33398c2.1037 0.22462 3.5767 1.96689 3.7012 4.03614 0.1019 1.69408 0.2106 4.19705 0.2597 7.60448 -0.0215 -0.0021 -0.0429 -0.0049 -0.0644 -0.0068l-0.4873 -0.0313c-0.4706 -0.0182 -0.9305 -0.0438 -1.2754 -0.0654 -0.1714 -0.0107 -0.3129 -0.0206 -0.4102 -0.0273 -0.0485 -0.0034 -0.0865 -0.0061 -0.1113 -0.0079 -0.0123 -0.0009 -0.0215 -0.0015 -0.0273 -0.0019 -0.0027 -0.0002 -0.0047 -0.0009 -0.0059 -0.001h-0.001l-0.1679 -0.0078c-3.4579 -0.0665 -6.134 2.7593 -6.1221 6.0566 0.0022 0.6032 -0.0053 1.2012 -0.0186 1.794l-1.79 0.0371 -0.9981 0.0098c-0.7327 -0.0003 -1.7912 -0.0154 -2.7529 -0.0362 -0.0137 -0.597 -0.0197 -1.1995 -0.0176 -1.8066l-0.0068 -0.3076c-0.1502 -3.1627 -2.7657 -5.8115 -6.1152 -5.7471 -0.0561 0.0011 -0.1131 0.0036 -0.169 0.0078 -0.0011 0.0001 -0.0031 0.0008 -0.0058 0.001 -0.0058 0.0004 -0.0151 0.001 -0.0274 0.0019 -0.0248 0.0018 -0.0628 0.0045 -0.1113 0.0079 -0.0972 0.0067 -0.238 0.0166 -0.4092 0.0273l-1.2754 0.0654c-0.1831 0.0071 -0.3676 0.02 -0.5527 0.0381 0.0491 -3.40743 0.1588 -5.91039 0.2607 -7.60448 0.1245 -2.06895 1.597 -3.81014 3.7002 -4.03516v5.36035c0 0.82827 0.6718 1.49974 1.5 1.5 0.8285 0 1.5 -0.67157 1.5 -1.5V1.1084c0.8879 -0.04567 1.8865 -0.07988 3.001 -0.09668v5.68359c0.0001 0.82838 0.6716 1.5 1.5 1.5s1.4999 -0.67162 1.5 -1.5z" stroke-width="3.429"></path>
  </g>
</svg>
