<svg xmlns="http://www.w3.org/2000/svg" viewBox="0 0 24 24" fill="none"><path opacity="0.4" d="M12 22.75C6.06294 22.75 1.25 17.9371 1.25 12C1.25 6.06294 6.06294 1.25 12 1.25C17.9371 1.25 22.75 6.06294 22.75 12C22.75 17.9371 17.9371 22.75 12 22.75Z" fill="currentColor"/><path d="M6.09191 13.2921C6.48242 13.1541 6.91087 13.3587 7.04894 13.7491C7.76997 15.7891 9.71557 17.249 12.0001 17.2491C14.2848 17.2491 16.2312 15.7892 16.9523 13.7491C17.0904 13.3587 17.5188 13.1541 17.9093 13.2921C18.2997 13.4302 18.5043 13.8587 18.3663 14.2491C18.2994 14.4386 18.2227 14.6235 18.1398 14.8048L19.8126 17.7589C20.7106 19.3438 20.1833 21.3765 18.6134 22.2999C17.0438 23.2231 15.0467 22.677 14.1368 21.1046L12.5782 18.7237C12.3878 18.7399 12.1948 18.7491 12.0001 18.7491C9.06015 18.749 6.56114 16.8696 5.63488 14.2491C5.49686 13.8586 5.70143 13.4302 6.09191 13.2921Z" fill="currentColor"/><path d="M15.5 7.24805C14.6202 7.24805 13.8559 7.7 13.3868 8.36621C13.1483 8.70489 13.2297 9.17266 13.5684 9.41113C13.9071 9.64958 14.3749 9.56816 14.6133 9.22949C14.8283 8.9243 15.1532 8.74805 15.5 8.74805C15.8469 8.74805 16.1718 8.9243 16.3868 9.22949C16.6252 9.56816 17.093 9.64958 17.4317 9.41113C17.7704 9.17266 17.8518 8.70489 17.6133 8.36621C17.1442 7.7 16.3799 7.24805 15.5 7.24805Z" fill="currentColor"/><path d="M7.875 7.24805C7.33479 7.24805 7.04739 7.66622 6.93945 7.88184C6.8093 8.14215 6.75 8.44975 6.75 8.74805C6.75 9.04634 6.8093 9.35395 6.93945 9.61426C7.04739 9.82987 7.33479 10.248 7.875 10.248C8.41522 10.248 8.70261 9.82987 8.81055 9.61426C8.9407 9.35395 9 9.04634 9 8.74805C9 8.44975 8.9407 8.14215 8.81055 7.88184C8.70261 7.66622 8.41521 7.24805 7.875 7.24805Z" fill="currentColor"/></svg>
