<svg xmlns="http://www.w3.org/2000/svg" viewBox="0 0 24 24" fill="none"><path d="M17.8525 21.0078C18.7055 20.5061 19.0084 19.3826 18.5078 18.499L17.2383 16.2578C16.4423 17.2359 15.3772 17.9851 14.1562 18.3965L15.4004 20.2988C15.4091 20.3122 15.4179 20.3259 15.4258 20.3398C15.922 21.2154 17.008 21.5044 17.8525 21.0078Z" fill="currentColor"/><path d="M12 22.75C6.06294 22.75 1.25 17.9371 1.25 12C1.25 6.06294 6.06294 1.25 12 1.25C17.9371 1.25 22.75 6.06294 22.75 12C22.75 14.6414 21.7956 17.0612 20.2148 18.9326C20.1564 18.5304 20.0238 18.1326 19.8125 17.7598L18.1396 14.8057C18.2226 14.6244 18.2992 14.4394 18.3662 14.25C18.5042 13.8596 18.2995 13.4311 17.9092 13.293C17.5188 13.1552 17.0902 13.3597 16.9521 13.75C16.2311 15.7901 14.2847 17.25 12 17.25C9.71562 17.2497 7.76982 15.7899 7.04883 13.75C6.91068 13.3597 6.48223 13.155 6.0918 13.293C5.70159 13.4311 5.49693 13.8597 5.63477 14.25C6.56099 16.8704 9.0602 18.7497 12 18.75C12.1945 18.75 12.3878 18.7407 12.5781 18.7246L14.1367 21.1055C14.4163 21.5886 14.7993 21.9745 15.2402 22.251C14.2168 22.5742 13.1282 22.75 12 22.75ZM13.5684 9.41309C13.907 9.65151 14.3748 9.57011 14.6133 9.23145C14.8283 8.92627 15.1532 8.75 15.5 8.75C15.8468 8.75001 16.1717 8.92627 16.3867 9.23145C16.6252 9.5701 17.093 9.65153 17.4316 9.41309C17.7703 9.17461 17.8517 8.70683 17.6133 8.36816C17.1442 7.70197 16.3798 7.25001 15.5 7.25C14.6202 7.25 13.8558 7.70197 13.3867 8.36816C13.1482 8.70684 13.2297 9.17461 13.5684 9.41309ZM7.875 10.25C8.41522 10.25 8.70261 9.83182 8.81055 9.61621C8.9407 9.3559 9 9.04829 9 8.75C9 8.4517 8.9407 8.1441 8.81055 7.88379C8.70261 7.66818 8.41521 7.25 7.875 7.25C7.33479 7.25 7.04739 7.66817 6.93945 7.88379C6.8093 8.1441 6.75 8.45171 6.75 8.75C6.75 9.04829 6.8093 9.3559 6.93945 9.61621C7.04739 9.83182 7.33479 10.25 7.875 10.25Z" fill="currentColor" fill-rule="evenodd" clip-rule="evenodd"/></svg>
