<svg xmlns="http://www.w3.org/2000/svg" viewBox="0 0 24 24" fill="none"><path d="M20 11C20.5523 11 21 11.4477 21 12C21 12.5523 20.5523 13 20 13H8C7.44772 13 7 12.5523 7 12C7 11.4477 7.44772 11 8 11H20Z" fill="currentColor"/><path d="M14.1953 6.4073C14.5227 5.96279 15.1481 5.86727 15.5928 6.1944V6.19538H15.5937L15.5947 6.19636C15.5954 6.1969 15.5965 6.19746 15.5976 6.19831C15.6004 6.20034 15.6043 6.20337 15.6094 6.2071C15.6196 6.21466 15.6342 6.2261 15.6533 6.2403C15.6915 6.26879 15.7472 6.31035 15.8174 6.36335C15.9577 6.46932 16.1574 6.62114 16.3965 6.80769C16.8736 7.18001 17.5128 7.69327 18.1553 8.25105C18.7927 8.80453 19.456 9.42188 19.9678 10.001C20.2226 10.2895 20.4614 10.5919 20.6416 10.8907C20.8052 11.1621 21 11.5569 21 12.0001C21 12.4432 20.8052 12.8381 20.6416 13.1094C20.4614 13.4083 20.2226 13.7106 19.9678 13.9991C19.456 14.5783 18.7927 15.1956 18.1553 15.7491C17.5128 16.3069 16.8736 16.8201 16.3965 17.1925C16.1574 17.379 15.9577 17.5308 15.8174 17.6368C15.7472 17.6898 15.6915 17.7313 15.6533 17.7598C15.6342 17.7741 15.6196 17.7855 15.6094 17.793C15.6043 17.7968 15.6004 17.7998 15.5976 17.8018C15.5965 17.8027 15.5954 17.8032 15.5947 17.8038L15.5937 17.8048H15.5928V17.8057C15.1481 18.1329 14.5217 18.0374 14.1943 17.5928C13.8671 17.1482 13.9626 16.5218 14.4072 16.1944L14.4092 16.1934C14.4112 16.1919 14.4146 16.1888 14.4189 16.1856C14.4276 16.1792 14.4415 16.1694 14.459 16.1563C14.494 16.1302 14.546 16.0912 14.6123 16.0411C14.7454 15.9405 14.9365 15.7944 15.166 15.6153C15.6264 15.256 16.2373 14.7667 16.8447 14.2393C17.4572 13.7076 18.044 13.1567 18.4697 12.6749C18.6834 12.433 18.8354 12.2319 18.9287 12.0772C18.9465 12.0477 18.957 12.0207 18.9678 12.0001C18.957 11.9795 18.9465 11.9524 18.9287 11.9229C18.8354 11.7682 18.6834 11.5671 18.4697 11.3253C18.044 10.8434 17.4572 10.2926 16.8447 9.76081C16.2373 9.2334 15.6263 8.7441 15.166 8.38483C14.9365 8.20569 14.7454 8.05961 14.6123 7.95905C14.546 7.90897 14.494 7.86991 14.459 7.84382C14.4415 7.83078 14.4276 7.82097 14.4189 7.81452C14.4146 7.8113 14.4112 7.80821 14.4092 7.80671L14.4072 7.80573L14.3281 7.7403C13.9523 7.40005 13.8882 6.82424 14.1953 6.4073Z" fill="currentColor"/><path opacity="0.4" d="M3 17V7C3 6.44772 3.44772 6 4 6C4.55228 6 5 6.44772 5 7V17C5 17.5523 4.55228 18 4 18C3.44772 18 3 17.5523 3 17Z" fill="currentColor"/></svg>
