<svg xmlns="http://www.w3.org/2000/svg" viewBox="0 0 24 24" fill="none"><path d="M3.99951 6.00053C4.5518 6.00053 4.99951 6.44824 4.99951 7.00053V17.0005C4.99951 17.5528 4.5518 18.0005 3.99951 18.0005C3.44723 18.0005 2.99951 17.5528 2.99951 17.0005V7.00053C2.99951 6.44824 3.44723 6.00053 3.99951 6.00053ZM14.1948 6.40775C14.5223 5.9633 15.1477 5.86776 15.5923 6.19486V6.19584H15.5933L15.5942 6.19682C15.595 6.19735 15.596 6.19793 15.5972 6.19877C15.5999 6.20079 15.6039 6.20384 15.6089 6.20756C15.6191 6.21511 15.6338 6.22656 15.6528 6.24076C15.6911 6.26925 15.7467 6.31081 15.8169 6.36381C15.9572 6.46977 16.157 6.62161 16.396 6.80814C16.8731 7.18047 17.5124 7.69374 18.1548 8.2515C18.7922 8.80498 19.4555 9.42235 19.9673 10.0015C20.2221 10.2899 20.461 10.5924 20.6411 10.8912C20.7912 11.1401 20.9656 11.4933 20.9937 11.8921C20.9975 11.9277 20.9995 11.9639 20.9995 12.0005C20.9995 12.0368 20.9974 12.0727 20.9937 12.1079C20.9658 12.5072 20.7913 12.8607 20.6411 13.1099C20.461 13.4087 20.2221 13.7111 19.9673 13.9996C19.4555 14.5787 18.7923 15.1961 18.1548 15.7496C17.5124 16.3073 16.8731 16.8206 16.396 17.1929C16.157 17.3794 15.9572 17.5313 15.8169 17.6372C15.7467 17.6902 15.6911 17.7318 15.6528 17.7603C15.6338 17.7745 15.6191 17.7859 15.6089 17.7935C15.6039 17.7972 15.5999 17.8003 15.5972 17.8023C15.596 17.8031 15.595 17.8037 15.5942 17.8042L15.5933 17.8052H15.5923V17.8062C15.1476 18.1334 14.5213 18.0379 14.1938 17.5933C13.8667 17.1486 13.9622 16.5223 14.4067 16.1949L14.4087 16.1939C14.4107 16.1924 14.4141 16.1893 14.4185 16.1861C14.4272 16.1796 14.441 16.1698 14.4585 16.1568C14.4935 16.1307 14.5455 16.0916 14.6118 16.0415C14.7449 15.941 14.936 15.7949 15.1655 15.6158C15.6259 15.2565 16.2368 14.7672 16.8442 14.2398C17.3224 13.8246 17.7841 13.397 18.1665 13.0005H7.99951C7.44723 13.0005 6.99951 12.5528 6.99951 12.0005C6.99951 11.4482 7.44723 11.0005 7.99951 11.0005H18.1665C17.7841 10.604 17.3224 10.1764 16.8442 9.76127C16.2368 9.23387 15.6259 8.74455 15.1655 8.38529C14.936 8.20616 14.7449 8.06006 14.6118 7.95951C14.5455 7.90943 14.4935 7.87037 14.4585 7.84428C14.441 7.83124 14.4272 7.82142 14.4185 7.81498C14.4141 7.81176 14.4107 7.80867 14.4087 7.80717L14.4067 7.80619L14.3276 7.74076C13.9519 7.40051 13.8878 6.82469 14.1948 6.40775Z" fill="currentColor" fill-rule="evenodd" clip-rule="evenodd"/></svg>
