<svg xmlns="http://www.w3.org/2000/svg" viewBox="0 0 24 24" fill="none"><path d="M11.9996 13.0004C12.4427 13.0004 12.8376 13.1952 13.109 13.3588C13.4078 13.539 13.7102 13.7778 13.9986 14.0327C14.5778 14.5444 15.1951 15.2077 15.7486 15.8452C16.3064 16.4876 16.8196 17.1268 17.192 17.6039C17.3785 17.843 17.5303 18.0427 17.6363 18.183C17.6893 18.2532 17.7309 18.3089 17.7593 18.3471C17.7736 18.3662 17.785 18.3808 17.7925 18.3911C17.7963 18.3961 17.7993 18.4 17.8013 18.4028C17.8022 18.4039 17.8028 18.405 17.8033 18.4057L17.8043 18.4067V18.4077H17.8052C18.1324 18.8523 18.0369 19.4787 17.5924 19.8061C17.1477 20.1333 16.5213 20.0378 16.1939 19.5932L16.1929 19.5912C16.1914 19.5892 16.1883 19.5858 16.1851 19.5815C16.1787 19.5728 16.1689 19.5589 16.1558 19.5414C16.1297 19.5064 16.0907 19.4544 16.0406 19.3881C15.94 19.255 15.7939 19.064 15.6148 18.8344C15.2556 18.3741 14.7662 17.7631 14.2388 17.1557C13.7071 16.5432 13.1562 15.9564 12.6744 15.5307C12.4326 15.317 12.2314 15.165 12.0767 15.0717C12.047 15.0538 12.0203 15.0425 11.9996 15.0317C11.9789 15.0425 11.9521 15.0538 11.9224 15.0717C11.7678 15.165 11.5666 15.3171 11.3248 15.5307C10.8429 15.9564 10.2921 16.5432 9.76032 17.1557C9.23291 17.7631 8.74361 18.3741 8.38435 18.8344C8.20521 19.064 8.05912 19.255 7.95856 19.3881C7.90848 19.4544 7.86943 19.5064 7.84333 19.5414C7.83029 19.5589 7.82048 19.5728 7.81403 19.5815C7.81081 19.5858 7.80772 19.5892 7.80622 19.5912L7.80524 19.5932L7.73981 19.6723C7.39956 20.0481 6.82375 20.1122 6.40681 19.8051C5.9623 19.4777 5.86678 18.8523 6.19392 18.4077H6.19489V18.4067L6.19587 18.4057C6.19641 18.405 6.19697 18.4039 6.19782 18.4028C6.19985 18.4 6.20288 18.3961 6.20661 18.3911C6.21417 18.3809 6.22561 18.3662 6.23981 18.3471C6.2683 18.3089 6.30986 18.2532 6.36286 18.183C6.46883 18.0428 6.62065 17.843 6.8072 17.6039C7.17953 17.1269 7.69278 16.4876 8.25056 15.8452C8.80404 15.2077 9.42139 14.5444 10.0006 14.0327C10.289 13.7778 10.5914 13.539 10.8902 13.3588C11.1616 13.1952 11.5564 13.0004 11.9996 13.0004Z" fill="currentColor"/><path d="M16.1939 4.40764C16.5213 3.96306 17.1477 3.86757 17.5924 4.19475C18.0369 4.52216 18.1324 5.14851 17.8052 5.59319H17.8043V5.59416L17.8033 5.59514C17.8028 5.59587 17.8022 5.59692 17.8013 5.59807C17.7993 5.60082 17.7963 5.60474 17.7925 5.60979C17.785 5.61999 17.7736 5.63465 17.7593 5.65373C17.7309 5.69196 17.6893 5.74762 17.6363 5.8178C17.5303 5.95809 17.3785 6.15787 17.192 6.3969C16.8196 6.874 16.3064 7.51325 15.7486 8.15569C15.1951 8.79317 14.5778 9.45643 13.9986 9.96819C13.7102 10.2231 13.4078 10.4619 13.109 10.642C12.8376 10.8056 12.4427 11.0004 11.9996 11.0004C11.5564 11.0004 11.1616 10.8056 10.8902 10.642C10.5914 10.4619 10.289 10.2231 10.0006 9.96819C9.42139 9.45644 8.80404 8.79315 8.25056 8.15569C7.69278 7.51327 7.17953 6.87399 6.8072 6.3969C6.62065 6.15786 6.46883 5.95809 6.36286 5.8178C6.30986 5.74762 6.2683 5.69196 6.23981 5.65373C6.22561 5.63467 6.21417 5.61999 6.20661 5.60979C6.20288 5.60476 6.19985 5.60081 6.19782 5.59807C6.19697 5.59691 6.19641 5.59587 6.19587 5.59514L6.19489 5.59416V5.59319H6.19392C5.86678 5.14854 5.9623 4.52315 6.40681 4.19572C6.8515 3.86821 7.47773 3.96295 7.80524 4.40764L7.80622 4.40959C7.80772 4.41163 7.81081 4.41501 7.81403 4.41936C7.82048 4.42806 7.83029 4.4419 7.84333 4.4594C7.86943 4.49441 7.90848 4.5464 7.95856 4.61272C8.05912 4.74584 8.20521 4.93688 8.38435 5.16643C8.74361 5.62677 9.23291 6.2377 9.76032 6.84514C10.2921 7.45762 10.8429 8.04441 11.3248 8.47014C11.5666 8.68378 11.7678 8.83584 11.9224 8.92912C11.9519 8.9469 11.979 8.95739 11.9996 8.96819C12.0202 8.95739 12.0472 8.94691 12.0767 8.92912C12.2314 8.83585 12.4326 8.68379 12.6744 8.47014C13.1562 8.04441 13.7071 7.45762 14.2388 6.84514C14.7662 6.2377 15.2556 5.62678 15.6148 5.16643C15.7939 4.93689 15.94 4.74584 16.0406 4.61272C16.0907 4.54641 16.1297 4.49441 16.1558 4.4594C16.1689 4.4419 16.1787 4.42806 16.1851 4.41936C16.1883 4.41501 16.1914 4.41163 16.1929 4.40959L16.1939 4.40764Z" fill="currentColor"/></svg>
