<svg xmlns="http://www.w3.org/2000/svg" fill="none" viewBox="0 0 48 48">
  <g>
    <path fill="currentColor" fill-opacity="0.4" d="M42.4973 7.29561c-0.183 -2.54989 -2.092 -4.53781 -4.6383 -4.76631C34.9203 2.26558 30.3776 2 24 2s-10.9203 0.26558 -13.859 0.5293c-2.54624 0.22849 -4.4553 2.21642 -4.63832 4.7663C5.26103 10.6623 5 16.1222 5 24c0 7.8778 0.26103 13.3377 0.50267 16.7044 0.18302 2.5499 2.09208 4.5378 4.63833 4.7663C13.0797 45.7344 17.6224 46 24 46s10.9203 -0.2656 13.859 -0.5293c2.5462 -0.2285 4.4553 -2.2164 4.6383 -4.7663C42.739 37.3377 43 31.8778 43 24c0 -7.8778 -0.261 -13.3377 -0.5027 -16.70439Z" stroke-width="3.429"></path>
    <path fill="#8fbffa" d="M23.9999 28c10.823 0 17.1757 0.3492 18.9706 0.464 -0.0749 5.5261 -0.2803 9.5511 -0.4733 12.2404 -0.183 2.5499 -2.0921 4.5378 -4.6383 4.7663 -2.9387 0.2637 -7.4814 0.5293 -13.859 0.5293s-10.9203 -0.2656 -13.8591 -0.5293c-2.54617 -0.2285 -4.45522 -2.2164 -4.63825 -4.7663 -0.19302 -2.6893 -0.39842 -6.7143 -0.47325 -12.2404C6.82412 28.3492 13.1768 28 23.9999 28Z" stroke-width="3.429"></path>
    <path stroke="currentColor" stroke-linecap="round" d="M42.9705 28.464C41.1756 28.3492 34.8229 28 23.9999 28c-10.8231 0 -17.17578 0.3492 -18.9706 0.464" stroke-width="3.429"></path>
    <path stroke="currentColor" d="M42.4973 7.29561c-0.183 -2.54989 -2.092 -4.53781 -4.6383 -4.76631C34.9203 2.26558 30.3776 2 24 2s-10.9203 0.26558 -13.859 0.5293c-2.54624 0.22849 -4.4553 2.21642 -4.63832 4.7663C5.26103 10.6623 5 16.1222 5 24c0 7.8778 0.26103 13.3377 0.50267 16.7044 0.18302 2.5499 2.09208 4.5378 4.63833 4.7663C13.0797 45.7344 17.6224 46 24 46s10.9203 -0.2656 13.859 -0.5293c2.5462 -0.2285 4.4553 -2.2164 4.6383 -4.7663C42.739 37.3378 43 31.8778 43 24c0 -7.8778 -0.261 -13.3377 -0.5027 -16.70439Z" stroke-width="3.429"></path>
    <path stroke="currentColor" stroke-linecap="round" d="M42.8882 15.5s-5.9374 -0.5 -18.8874 -0.5 -18.88752 0.5 -18.88752 0.5" stroke-width="3.429"></path>
    <path stroke="currentColor" stroke-linecap="round" stroke-linejoin="round" d="m24 28 0 18" stroke-width="3.429"></path>
    <path stroke="currentColor" stroke-linecap="round" stroke-linejoin="round" d="M30 37v1" stroke-width="3.429"></path>
    <path stroke="currentColor" stroke-linecap="round" stroke-linejoin="round" d="M18 37v1" stroke-width="3.429"></path>
  </g>
</svg>
