<svg xmlns="http://www.w3.org/2000/svg" fill="none" viewBox="0 0 48 48">
  <g>
    <path fill="currentColor" fill-rule="evenodd" d="M24 4c-6.3222 0 -10.8051 0.26328 -13.6803 0.52129 -1.54638 0.13878 -2.70768 1.32256 -2.82215 2.9175C7.25958 10.7542 7 16.1662 7 24c0 1.3314 0.0075 2.5929 0.02111 3.7861C10.4015 27.6497 15.947 27.5 24.0002 27.5c8.0529 0 13.5982 0.1497 16.9787 0.286C40.9925 26.5929 41 25.3314 41 24c0 -7.8338 -0.2596 -13.2458 -0.4975 -16.5612 -0.1145 -1.59495 -1.2758 -2.77873 -2.8222 -2.9175C34.8051 4.26328 30.3222 4 24 4Z" clip-rule="evenodd" stroke-width="3.429"></path>
    <path fill="currentColor" fill-opacity="0.4" fill-rule="evenodd" d="M9.96221 0.537303C12.9645 0.267877 17.567 0 24 0c6.433 0 11.0355 0.267881 14.0378 0.537308 3.546 0.318218 6.2028 3.110292 6.4544 6.615122C44.7375 10.5703 45 16.0782 45 24c0 7.9219 -0.2625 13.4297 -0.5078 16.8476 -0.2516 3.5048 -2.9084 6.2969 -6.4544 6.6151C35.0355 47.7321 30.433 48 24 48c-6.433 0 -11.0355 -0.2679 -14.0378 -0.5373 -3.54602 -0.3182 -6.20283 -3.1103 -6.4544 -6.6151C3.26248 37.4297 3 31.9219 3 24c0 -7.9219 0.26248 -13.4297 0.50781 -16.84758C3.75937 3.64758 6.4162 0.855519 9.96221 0.537303ZM24 4c-6.3222 0 -10.8051 0.26328 -13.6803 0.52129 -1.54638 0.13878 -2.70768 1.32256 -2.82215 2.9175 -0.12973 1.80728 -0.26587 4.23761 -0.36288 7.34361 3.39043 -0.1351 8.90183 -0.2815 16.86543 -0.2815 7.9634 0 13.4747 0.1464 16.8652 0.2815 -0.097 -3.106 -0.2331 -5.53632 -0.3628 -7.3436 -0.1145 -1.59495 -1.2758 -2.77873 -2.8222 -2.9175C34.8051 4.26328 30.3222 4 24 4Zm16.9414 13.7879c-3.3283 -0.1355 -8.8581 -0.287 -16.9413 -0.287 -8.0834 0 -13.6132 0.1515 -16.94147 0.287C7.02183 19.6602 7 21.7283 7 24c0 1.3314 0.0075 2.5929 0.02111 3.7861C10.4015 27.6497 15.947 27.5 24.0002 27.5c8.0529 0 13.5982 0.1497 16.9787 0.286C40.9925 26.5929 41 25.3314 41 24c0 -2.2717 -0.0218 -4.3398 -0.0586 -6.2121Z" clip-rule="evenodd" stroke-width="3.429"></path>
    <path fill="currentColor" fill-rule="evenodd" d="m25.5 47.9951 0 -20.4933c-0.4899 -0.0012 -0.9899 -0.0018 -1.4998 -0.0018 -0.5101 0 -1.0101 0.0006 -1.5002 0.0018v20.4933c0.4885 0.0032 0.9885 0.0049 1.5 0.0049 0.5026 0 0.994 -0.0016 1.4743 -0.0048 0.0086 0 0.0171 -0.0001 0.0257 -0.0001ZM15 37c0 -1.1046 0.8954 -2 2 -2s2 0.8954 2 2v1c0 1.1046 -0.8954 2 -2 2s-2 -0.8954 -2 -2v-1Zm18 0c0 -1.1046 -0.8954 -2 -2 -2s-2 0.8954 -2 2v1c0 1.1046 0.8954 2 2 2s2 -0.8954 2 -2v-1Z" clip-rule="evenodd" stroke-width="3.429"></path>
  </g>
</svg>
