<svg xmlns="http://www.w3.org/2000/svg" fill="none" viewBox="0 0 48 48">
  <g>
    <path fill="currentColor" fill-rule="evenodd" d="M10.3263 1.02533C13.2515 0.761858 17.7347 0.5 24 0.5c6.2654 0 10.7485 0.261862 13.6737 0.52534 3.4843 0.31383 6.0857 3.06584 6.3318 6.50726 0.0145 0.20355 0.0291 0.41468 0.0438 0.63347 0.1023 1.53149 0.2046 3.43793 0.2859 5.74383 0.0432 1.2261 0.0804 2.5651 0.1085 4.0207 0.0354 1.8353 0.0563 3.8559 0.0563 6.0694 0 7.7426 -0.2556 13.1262 -0.4945 16.4674 -0.2308 3.2263 -2.5315 5.8468 -5.6892 6.4203 -0.2105 0.0382 -0.4248 0.0674 -0.6426 0.087 -2.9252 0.2634 -7.4084 0.5253 -13.6737 0.5253 -6.2654 0 -10.7485 -0.2619 -13.6737 -0.5253 -3.48431 -0.3139 -6.08566 -3.0659 -6.33176 -6.5073C3.7556 37.1262 3.5 31.7426 3.5 24c0 -2.2124 0.02087 -4.2323 0.05626 -6.0668 0.02808 -1.4557 0.0653 -2.7947 0.10848 -4.0208 0.09286 -2.6365 0.21331 -4.75088 0.3298 -6.37982 0.24611 -3.44141 2.84747 -6.19342 6.33176 -6.50725ZM7.67746 13.6331c-0.04518 1.2166 -0.08459 2.5536 -0.11472 4.015 10.87036 -0.6865 22.00366 -0.6871 32.87446 -0.002 -0.0301 -1.4615 -0.0695 -2.7984 -0.1147 -4.0149 -10.7999 -0.6652 -21.8456 -0.6646 -32.64504 0.0019ZM40.4715 28.3365c-4.8041 -0.2799 -9.6382 -0.4366 -14.4759 -0.4702 0.0029 0.0442 0.0044 0.0888 0.0044 0.1337v15.4907c5.1115 -0.0482 8.8305 -0.2761 11.3149 -0.4999 1.4742 -0.1328 2.5904 -1.2663 2.7007 -2.8087 0.1851 -2.5872 0.3835 -6.4818 0.4559 -11.8456ZM22 43.4907V28c0 -0.0449 0.0015 -0.0894 0.0044 -0.1335 -4.8377 0.0341 -9.6718 0.1913 -14.47591 0.4717 0.07241 5.3629 0.27086 9.2569 0.45586 11.8439 0.11031 1.5424 1.22658 2.6759 2.70075 2.8087 2.4844 0.2238 6.2034 0.4517 11.3149 0.4999ZM32 37c0 -1.1046 -0.8954 -2 -2 -2s-2 0.8954 -2 2v1c0 1.1046 0.8954 2 2 2s2 -0.8954 2 -2v-1Zm-14 -2c1.1046 0 2 0.8954 2 2v1c0 1.1046 -0.8954 2 -2 2s-2 -0.8954 -2 -2v-1c0 -1.1046 0.8954 -2 2 -2Z" clip-rule="evenodd" stroke-width="1"></path>
  </g>
</svg>
