<svg xmlns="http://www.w3.org/2000/svg" fill="none" viewBox="0 0 48 48">
  <g>
    <path fill="currentColor" fill-rule="evenodd" d="M37.9931 1.03531C35.0067 0.767306 30.4191 0.5 24 0.5s-11.0067 0.267301 -13.9931 0.5353c-3.29606 0.29579 -5.76594 2.88681 -6.00037 6.15291C3.76212 10.5933 3.5 16.0891 3.5 24c0 1.0247 0.0044 2.0089 0.01259 2.9533l-0.00478 0.0003 0.01915 1.4442c0.07422 5.5978 0.28188 9.6798 0.47813 12.414 0.23442 3.2661 2.7043 5.8571 6.00041 6.1529 2.24 0.201 5.3809 0.4016 9.52 0.4893 0.9396 0.02 1.9308 0.0341 2.9745 0.041V30.0024c0.4881 -0.0016 0.988 -0.0024 1.5 -0.0024s1.0119 0.0008 1.5 0.0024V47.495c0.4247 -0.0028 0.8407 -0.0068 1.248 -0.0119 5.0026 -0.0628 8.7036 -0.2903 11.2451 -0.5184 3.2961 -0.2958 5.7659 -2.8868 6.0004 -6.1529 0.2071 -2.8855 0.4269 -7.2722 0.4892 -13.3576l0.0066 -0.5006 -0.0019 -0.0001c0.0082 -0.9445 0.0126 -1.9287 0.0126 -2.9535 0 -7.9108 -0.2621 -13.4067 -0.5065 -16.81178 -0.2345 -3.26609 -2.7043 -5.85713 -6.0004 -6.15291Zm1.9952 25.71289C39.9959 25.8701 40 24.9543 40 24c0 -2.0551 -0.0189 -3.9319 -0.051 -5.637 -0.6119 -0.0354 -1.3792 -0.0751 -2.3094 -0.1148C34.7451 18.1245 30.2737 18 24 18c-6.2736 0 -10.7451 0.1245 -13.6396 0.2482 -0.93023 0.0397 -1.69753 0.0794 -2.30937 0.1148C8.01893 20.0681 8 21.9448 8 24c0 0.9543 0.00408 1.8701 0.01167 2.7481C11.4455 26.6233 16.6891 26.5 23.9986 26.5c7.3115 0 12.5559 0.1234 15.9897 0.2482ZM8.15906 14.3505c0.5682 -0.0314 1.24364 -0.065 2.03054 -0.0987C13.1451 14.1255 17.6736 14 24 14s10.8549 0.1255 13.8104 0.2518c0.7869 0.0337 1.4623 0.0673 2.0305 0.0987 -0.0803 -2.2533 -0.1815 -4.0863 -0.2803 -5.52613 -0.1258 -1.83212 -1.466 -3.21057 -3.2557 -3.36611C33.6387 5.22654 29.6 5 24 5s-9.6387 0.22654 -12.3049 0.45825c-1.78972 0.15554 -3.12989 1.534 -3.25567 3.36611 -0.09884 1.43984 -0.20004 3.27284 -0.28037 5.52614ZM33 37c0 -1.1046 -0.8954 -2 -2 -2s-2 0.8954 -2 2v1c0 1.1046 0.8954 2 2 2s2 -0.8954 2 -2v-1Zm-16 -2c-1.1046 0 -2 0.8954 -2 2v1c0 1.1046 0.8954 2 2 2s2 -0.8954 2 -2v-1c0 -1.1046 -0.8954 -2 -2 -2Z" clip-rule="evenodd" stroke-width="3.429"></path>
  </g>
</svg>
