<svg xmlns="http://www.w3.org/2000/svg" fill="none" viewBox="0 0 48 48">
  <g>
    <path fill="#8fbffa" d="M22.1641 6c0.1571 0 0.3137 0.00259 0.4697 0.00781 -0.4578 0.94747 -0.7522 1.97832 -0.8545 3.05371 -0.0982 1.03448 -0.1797 2.36778 -0.1797 3.93748 0 1.57 0.0815 2.903 0.1797 3.9375 0.2469 2.5985 1.6011 4.9418 3.7266 6.4541v0.001c0.8466 0.6022 1.9604 1.3389 3.3203 2.124l0.9873 0.5537c0.9532 0.5188 1.802 0.9347 2.5107 1.2588l0.4492 0.1905c1.3974 0.5501 2.8928 0.7346 4.3565 0.5566 0.3528 1.0522 0.8252 2.0646 1.4121 3.0156l1.3232 2.1446c1.3429 2.1759 0.6108 4.4234 -1.9238 4.7607 -2.8984 0.3855 -7.7386 0.7314 -15.7773 0.7314s-12.87903 -0.3459 -15.77738 -0.7314c-2.5344 -0.3374 -3.26656 -2.5848 -1.92383 -4.7607l1.32324 -2.1446c1.20463 -1.9519 1.93023 -4.1612 2.11817 -6.4472l0.49023 -5.959C8.98364 11.5171 14.9724 6.00005 22.1641 6m3.5605 0.625c0.03 -0.04542 0.0596 -0.09113 0.0908 -0.13574 -0.0312 0.0446 -0.0608 0.09033 -0.0908 0.13574m0 0c-0.0162 0.02449 -0.033 0.04853 -0.0488 0.07324 0.0158 -0.02472 0.0326 -0.04875 0.0488 -0.07324" stroke-width="1"></path>
    <path stroke="currentColor" stroke-linecap="round" d="M21.0823 6.04187C14.3801 6.56242 8.95344 11.8796 8.39413 18.6845l-0.48977 5.9588c-0.1879 2.2862 -0.91384 4.4955 -2.11854 6.4476L4.46256 33.235c-1.34296 2.1761 -0.61043 4.424 1.92436 4.7612 2.89836 0.3855 7.73838 0.7311 15.77708 0.7311s12.8786 -0.3456 15.777 -0.7311c2.5348 -0.3372 3.2673 -2.5851 1.9244 -4.7612l-1.3233 -2.1441c-0.4023 -0.6519 -0.7512 -1.3325 -1.0445 -2.0351" stroke-width="1"></path>
    <path fill="currentColor" fill-opacity="0.4" d="M14.892 38.615c2.0731 0.0706 4.4795 0.1123 7.2718 0.1123 2.7924 0 5.1988 -0.0417 7.2719 -0.1123 0.0006 0.0373 0.0009 0.0748 0.0009 0.1123 0 4.0166 -3.2561 7.2727 -7.2728 7.2727 -4.0166 0 -7.2727 -3.2561 -7.2727 -7.2727 0 -0.0375 0.0003 -0.075 0.0009 -0.1123" stroke-width="1"></path>
    <path stroke="currentColor" d="M14.892 38.615c2.0731 0.0706 4.4795 0.1123 7.2718 0.1123 2.7924 0 5.1988 -0.0417 7.2719 -0.1123 0.0006 0.0373 0.0009 0.0748 0.0009 0.1123 0 4.0166 -3.2561 7.2727 -7.2728 7.2727 -4.0166 0 -7.2727 -3.2561 -7.2727 -7.2727 0 -0.0375 0.0003 -0.075 0.0009 -0.1123Z" stroke-width="1"></path>
    <path fill="currentColor" fill-opacity="0.4" d="M46.0044 13c0 -1.4156 -0.0737 -2.6049 -0.1598 -3.51129 -0.1232 -1.29739 -0.7934 -2.45833 -1.8554 -3.21372 -0.7419 -0.52774 -1.735 -1.18616 -2.961 -1.89398 -1.226 -0.70783 -2.2928 -1.23867 -3.1208 -1.61733 -1.1851 -0.542 -2.5257 -0.542 -3.7108 -0.00001 -0.828 0.37866 -1.8948 0.9095 -3.1208 1.61733s-2.2191 1.36626 -2.961 1.894c-1.062 0.75538 -1.7323 1.91631 -1.8555 3.21369 -0.086 0.90641 -0.1597 2.09571 -0.1597 3.51131 0 1.4157 0.0737 2.6049 0.1597 3.5113 0.1232 1.2974 0.7935 2.4584 1.8555 3.2137 0.7419 0.5278 1.735 1.1862 2.961 1.894 1.226 0.7079 2.2928 1.2387 3.1208 1.6174 1.1851 0.542 2.5257 0.542 3.7108 0 0.828 -0.3787 1.8948 -0.9095 3.1208 -1.6174 1.226 -0.7078 2.2191 -1.3662 2.961 -1.8939 1.062 -0.7554 1.7322 -1.9164 1.8554 -3.2138 0.0861 -0.9064 0.1598 -2.0956 0.1598 -3.5113" stroke-width="1"></path>
    <path stroke="currentColor" stroke-linejoin="round" d="M46.0044 13c0 -1.4156 -0.0737 -2.6049 -0.1598 -3.51129 -0.1232 -1.29739 -0.7934 -2.45833 -1.8554 -3.21372 -0.7419 -0.52774 -1.735 -1.18616 -2.961 -1.89398 -1.226 -0.70783 -2.2928 -1.23867 -3.1208 -1.61733 -1.1851 -0.542 -2.5257 -0.542 -3.7108 -0.00001 -0.828 0.37866 -1.8948 0.9095 -3.1208 1.61733s-2.2191 1.36626 -2.961 1.894c-1.062 0.75538 -1.7323 1.91631 -1.8555 3.21369 -0.086 0.90641 -0.1597 2.09571 -0.1597 3.51131 0 1.4157 0.0737 2.6049 0.1597 3.5113 0.1232 1.2974 0.7935 2.4584 1.8555 3.2137 0.7419 0.5278 1.735 1.1862 2.961 1.894 1.226 0.7079 2.2928 1.2387 3.1208 1.6174 1.1851 0.542 2.5257 0.542 3.7108 0 0.828 -0.3787 1.8948 -0.9095 3.1208 -1.6174 1.226 -0.7078 2.2191 -1.3662 2.961 -1.8939 1.062 -0.7554 1.7322 -1.9164 1.8554 -3.2138 0.0861 -0.9064 0.1598 -2.0956 0.1598 -3.5113Z" stroke-width="1"></path>
    <path fill="#8fbffa" d="M36.0996 17c-2.2091 0 -4 -1.7909 -4 -4s1.7909 -4 4 -4 4 1.7909 4 4 -1.7909 4 -4 4" stroke-width="1"></path>
    <path stroke="currentColor" d="M36.0996 17c-2.2091 0 -4 -1.7909 -4 -4s1.7909 -4 4 -4 4 1.7909 4 4 -1.7909 4 -4 4Z" stroke-width="1"></path>
  </g>
</svg>
