<svg xmlns="http://www.w3.org/2000/svg" fill="none" viewBox="0 0 48 48">
  <g>
    <path fill="currentColor" d="M30.6719 40.0479c-0.5381 4.2709 -4.1808 7.5742 -8.5977 7.5742 -4.4167 -0.0002 -8.0596 -3.3034 -8.5976 -7.5742 2.37 0.1001 5.2054 0.1621 8.5976 0.1621s6.2277 -0.062 8.5977 -0.1621" stroke-width="3.429"></path>
    <path fill="currentColor" fill-opacity="0.4" d="M22.0742 4.62207c0.4535 0 0.9028 0.02059 1.3467 0.05957 -0.9157 1.2737 -1.4893 2.77952 -1.6416 4.38184 -0.0982 1.03442 -0.1797 2.36692 -0.1797 3.93652 0 1.5699 0.0815 2.9031 0.1797 3.9375 0.247 2.5984 1.6007 4.9428 3.7266 6.4551 0.8466 0.6022 1.9604 1.3388 3.3203 2.124l0.9873 0.5537c0.9532 0.5187 1.802 0.9347 2.5107 1.2588 1.9341 0.8844 4.0902 1.0472 6.1065 0.4902 0.3168 0.9193 0.7338 1.8045 1.248 2.6377l1.7129 2.7754c0.7207 1.1678 0.9936 2.5408 0.54 3.7783 -0.4732 1.2908 -1.6227 2.1228 -3.0869 2.3457 -2.8982 0.4411 -7.9543 0.8536 -16.7705 0.8536 -8.8159 0 -13.87125 -0.4125 -16.76951 -0.8536 -1.4644 -0.2228 -2.61462 -1.0547 -3.08789 -2.3457 -0.45355 -1.2374 -0.18056 -2.6105 0.54004 -3.7783l1.71289 -2.7754c1.09585 -1.7757 1.7568 -3.7856 1.92773 -5.8652l0.49121 -5.9814C7.53858 10.7061 14.1433 4.62216 22.0742 4.62207M24.5996 13c0 -0.3332 0.0046 -0.655 0.0117 -0.9639zm0.0195 -1.2197c0.0068 -0.2288 0.0146 -0.4503 0.0245 -0.6641 -0.0099 0.2138 -0.0178 0.4353 -0.0245 0.6641m0.083 -1.668c-0.0179 0.2475 -0.0336 0.5091 -0.0478 0.7842 0.0143 -0.2754 0.0299 -0.5374 0.0478 -0.7852zm0.2286 -1.70312c0.0039 -0.01529 0.0076 -0.03065 0.0117 -0.0459 -0.0041 0.01525 -0.0078 0.03061 -0.0117 0.0459m0.0888 -0.30762c0.0016 -0.00481 0.0024 -0.00984 0.0039 -0.01465 0.0029 -0.009 0.0059 -0.01835 0.0088 -0.02734 -0.0045 0.01391 -0.0083 0.02805 -0.0127 0.04199m0.6817 -1.44238V6.6582c0.0576 -0.08846 0.1183 -0.17537 0.1806 -0.26074 0.0086 -0.01174 0.0177 -0.02348 0.0264 -0.03516 -0.0718 0.09695 -0.1413 0.19593 -0.207 0.29688m0.2773 -0.38867c0.0529 -0.06849 0.1072 -0.13588 0.1631 -0.20215 -0.0559 0.06626 -0.1102 0.13365 -0.1631 0.20215m0.2481 -0.29981c0.0541 -0.06146 0.1091 -0.1223 0.166 -0.18164 -0.0569 0.05933 -0.1118 0.12018 -0.166 0.18164" stroke-width="3.429"></path>
    <path fill="currentColor" fill-rule="evenodd" d="M33.5723 1.40273c1.5813 -0.72317 3.3776 -0.723173 4.9589 0 0.8669 0.39641 1.9763 0.94892 3.2471 1.68262 1.2707 0.73365 2.3034 1.41827 3.0801 1.9707 1.4169 1.00789 2.3151 2.5629 2.4795 4.29395 0.0901 0.9489 0.166 2.186 0.166 3.6533 0 1.4671 -0.0759 2.7036 -0.166 3.6524 -0.1644 1.731 -1.0625 3.287 -2.4795 4.2949 -0.7767 0.5524 -1.8094 1.2371 -3.0801 1.9707 -1.2707 0.7337 -2.3803 1.2852 -3.2471 1.6816 -1.5813 0.7232 -3.3776 0.7232 -4.9589 0 -0.8667 -0.3963 -1.9757 -0.9482 -3.2461 -1.6816 -1.2709 -0.7337 -2.3044 -1.4182 -3.0811 -1.9707 -1.4169 -1.0079 -2.3151 -2.5639 -2.4795 -4.2949 -0.0901 -0.9488 -0.166 -2.1853 -0.166 -3.6524 0 -1.4673 0.0759 -2.7044 0.166 -3.6533 0.1644 -1.73091 1.0628 -3.28606 2.4795 -4.29395 0.7767 -0.55248 1.8102 -1.23697 3.0811 -1.9707 1.2706 -0.73357 2.3793 -1.28623 3.2461 -1.68262m2.5273 7.10059c-2.4853 0 -4.5 2.01468 -4.5 4.49998 0.0001 2.4852 2.0148 4.5 4.5 4.5s4.4999 -2.0148 4.5 -4.5c0 -2.4853 -2.0147 -4.49998 -4.5 -4.49998" clip-rule="evenodd" stroke-width="3.429"></path>
  </g>
</svg>
