<svg xmlns="http://www.w3.org/2000/svg" fill="none" viewBox="0 0 48 48">
  <g>
    <path stroke="currentColor" stroke-linecap="round" d="M21.0823 6.04187C14.3801 6.56242 8.95344 11.8796 8.39413 18.6845l-0.48977 5.9588c-0.1879 2.2862 -0.91384 4.4955 -2.11854 6.4476L4.46256 33.235c-1.34296 2.1761 -0.61043 4.424 1.92436 4.7612 2.89836 0.3855 7.73838 0.7311 15.77708 0.7311s12.8786 -0.3456 15.777 -0.7311c2.5348 -0.3372 3.2673 -2.5851 1.9244 -4.7612l-1.3233 -2.1441c-0.4023 -0.6519 -0.7512 -1.3325 -1.0445 -2.0351" stroke-width="1"></path>
    <path stroke="currentColor" d="M14.892 38.615c2.0731 0.0706 4.4795 0.1123 7.2718 0.1123 2.7924 0 5.1988 -0.0417 7.2719 -0.1123 0.0006 0.0373 0.0009 0.0748 0.0009 0.1123 0 4.0166 -3.2561 7.2727 -7.2728 7.2727 -4.0166 0 -7.2727 -3.2561 -7.2727 -7.2727 0 -0.0375 0.0003 -0.075 0.0009 -0.1123Z" stroke-width="1"></path>
    <path stroke="currentColor" stroke-linejoin="round" d="M46.0044 13c0 -1.4156 -0.0737 -2.6049 -0.1598 -3.51129 -0.1232 -1.29739 -0.7934 -2.45833 -1.8554 -3.21372 -0.7419 -0.52774 -1.735 -1.18616 -2.961 -1.89398 -1.226 -0.70783 -2.2928 -1.23867 -3.1208 -1.61733 -1.1851 -0.542 -2.5257 -0.542 -3.7108 -0.00001 -0.828 0.37866 -1.8948 0.9095 -3.1208 1.61733s-2.2191 1.36626 -2.961 1.894c-1.062 0.75538 -1.7323 1.91631 -1.8555 3.21369 -0.086 0.90641 -0.1597 2.09571 -0.1597 3.51131 0 1.4157 0.0737 2.6049 0.1597 3.5113 0.1232 1.2974 0.7935 2.4584 1.8555 3.2137 0.7419 0.5278 1.735 1.1862 2.961 1.894 1.226 0.7079 2.2928 1.2387 3.1208 1.6174 1.1851 0.542 2.5257 0.542 3.7108 0 0.828 -0.3787 1.8948 -0.9095 3.1208 -1.6174 1.226 -0.7078 2.2191 -1.3662 2.961 -1.8939 1.062 -0.7554 1.7322 -1.9164 1.8554 -3.2138 0.0861 -0.9064 0.1598 -2.0956 0.1598 -3.5113Z" stroke-width="1"></path>
    <path stroke="currentColor" d="M36.0996 17c-2.2091 0 -4 -1.7909 -4 -4s1.7909 -4 4 -4 4 1.7909 4 4 -1.7909 4 -4 4Z" stroke-width="1"></path>
  </g>
</svg>
