<svg xmlns="http://www.w3.org/2000/svg" fill="none" viewBox="0 0 48 48">
  <g>
    <path fill="currentColor" fill-rule="evenodd" d="M20.5073 4.7023c1.0983 -0.11358 2.0812 0.68489 2.1953 1.78321 0.1137 1.09843 -0.6849 2.08124 -1.7832 2.19531 -5.5066 0.5709 -9.9266 4.99618 -10.3897 10.62888l-0.4834 5.8848c-0.21137 2.5718 -1.02883 5.0579 -2.38375 7.2539l-1.30567 2.1172c-0.43195 0.7001 -0.3689 1.1394 -0.31836 1.2734 0.02435 0.064 0.06468 0.1239 0.14844 0.1846 0.09095 0.0656 0.28133 0.1643 0.63086 0.2109 2.74129 0.3647 7.42488 0.7051 15.31448 0.7051 7.8897 0 12.5732 -0.3404 15.3144 -0.7051 0.35 -0.0466 0.5401 -0.1453 0.6309 -0.2109 0.084 -0.0608 0.1241 -0.1204 0.1484 -0.1846 0.0506 -0.1337 0.1136 -0.5732 -0.3183 -1.2734l-1.3057 -2.1172c-0.4664 -0.756 -0.87 -1.5479 -1.2061 -2.3643 -0.4198 -1.0211 0.067 -2.1898 1.0879 -2.6103 1.0212 -0.4202 2.1907 0.0669 2.6114 1.0879 0.2539 0.6167 0.5577 1.2149 0.9101 1.7861l1.3067 2.1172c0.8933 1.448 1.2592 3.1942 0.6543 4.791 -0.6355 1.6768 -2.1538 2.6996 -3.9922 2.9444 -1.7335 0.2306 -4.107 0.4417 -7.3584 0.5791 -0.8441 3.9108 -4.3204 6.8425 -8.4834 6.8427 -4.1632 -0.0001 -7.6395 -2.9318 -8.4834 -6.8427 -3.2512 -0.1374 -5.62498 -0.3485 -7.35842 -0.5791 -1.83838 -0.2448 -3.35667 -1.2678 -3.99219 -2.9444 -0.60491 -1.5969 -0.23914 -3.343 0.6543 -4.791l1.30664 -2.1172c1.02375 -1.6593 1.64009 -3.5381 1.7998 -5.4814l0.48438 -5.8848C7.16564 11.4124 13.104 5.46968 20.5073 4.7023m13.7812 -1.89355c1.3171 -0.60229 2.8099 -0.60223 4.127 0 0.8408 0.38454 1.9223 0.92232 3.1631 1.63867 1.2407 0.71632 2.2475 1.38399 3.0009 1.91992 1.1799 0.8394 1.9264 2.13178 2.0635 3.57324 0.0874 0.92042 0.1611 2.12602 0.1611 3.55862 0 1.4325 -0.0737 2.6381 -0.1611 3.5586 -0.1369 1.4418 -0.8834 2.7346 -2.0635 3.5742 -0.7535 0.5359 -1.7601 1.2035 -3.0009 1.9199 -1.2409 0.7164 -2.3222 1.2541 -3.1631 1.6387 -1.3172 0.6023 -2.8098 0.6023 -4.127 0 -0.8407 -0.3845 -1.9216 -0.9225 -3.1621 -1.6387 -1.2407 -0.7163 -2.2475 -1.384 -3.001 -1.9199 -1.18 -0.8396 -1.9265 -2.1324 -2.0634 -3.5742 -0.0874 -0.9205 -0.1621 -2.1261 -0.1621 -3.5586 0 -1.4326 0.0747 -2.6382 0.1621 -3.55862 0.1371 -1.44159 0.8834 -2.73385 2.0634 -3.57324 0.7535 -0.53596 1.7602 -1.20352 3.001 -1.91992 1.2406 -0.71622 2.3213 -1.25415 3.1621 -1.63867m2.1114 7.19043c-1.9328 0.00006 -3.4997 1.56732 -3.5 3.50002 0 1.9329 1.567 3.4999 3.5 3.5 1.9329 0 3.5 -1.567 3.5 -3.5 -0.0004 -1.9328 -1.5672 -3.50002 -3.5 -3.50002" clip-rule="evenodd" stroke-width="1"></path>
  </g>
</svg>
