<svg xmlns="http://www.w3.org/2000/svg" fill="none" viewBox="0 0 48 48">
  <g>
    <path fill="currentColor" d="M29.832 42.8201c-1.4214 2.8461 -4.3602 4.8027 -7.7578 4.8027 -3.3977 -0.0001 -6.3375 -1.9563 -7.7588 -4.8027 2.212 0.0796 4.7794 0.1269 7.7598 0.1269 2.9792 0 5.5455 -0.0473 7.7568 -0.1269M22.0742 4.62183c0.4539 0 0.9034 0.02052 1.3477 0.05957 -0.9157 1.27361 -1.4902 2.77868 -1.6426 4.38086 -0.0982 1.03424 -0.1796 2.36694 -0.1797 3.93654 0 1.5697 0.0815 2.903 0.1797 3.9375 0.2469 2.5983 1.6007 4.9425 3.7266 6.4551 0.8466 0.6022 1.9604 1.3388 3.3203 2.124l0.9873 0.5537c0.9532 0.5187 1.802 0.9346 2.5107 1.2588 1.9339 0.8843 4.0894 1.0469 6.1055 0.4902 0.3168 0.9196 0.7347 1.8053 1.249 2.6387l1.7129 2.7754c0.7206 1.1676 0.9934 2.5409 0.54 3.7783 -0.4732 1.2906 -1.6228 2.1228 -3.0869 2.3457 -2.8982 0.441 -7.9543 0.8535 -16.7705 0.8535 -8.8159 0 -13.87126 -0.4125 -16.76951 -0.8535 -1.46433 -0.2228 -2.6146 -1.0549 -3.08789 -2.3457 -0.45338 -1.2374 -0.18046 -2.6107 0.54004 -3.7783l1.71289 -2.7754c1.09574 -1.7756 1.7568 -3.7858 1.92773 -5.8652l0.49121 -5.9815c0.65007 -7.904 7.25473 -13.98817 15.18553 -13.98827M33.5723 1.4021c1.5812 -0.723136 3.3777 -0.723071 4.9589 0 0.8669 0.39641 1.9763 0.94891 3.2471 1.68262 1.2707 0.73362 2.3034 1.41826 3.0801 1.9707 1.4168 1.00779 2.315 2.56308 2.4795 4.29395 0.0901 0.94883 0.166 2.18603 0.166 3.65333 0 1.4674 -0.0759 2.7044 -0.166 3.6533 -0.1644 1.7311 -1.0625 3.2861 -2.4795 4.294 -0.7767 0.5524 -1.8094 1.237 -3.0801 1.9707 -1.2708 0.7337 -2.3803 1.2862 -3.2471 1.6826 -1.5813 0.7231 -3.3776 0.7231 -4.9589 0 -0.8668 -0.3964 -1.9756 -0.9491 -3.2461 -1.6826 -1.2709 -0.7338 -2.3044 -1.4183 -3.0811 -1.9707 -1.4167 -1.0079 -2.3151 -2.5631 -2.4795 -4.294 -0.0901 -0.9489 -0.166 -2.1859 -0.166 -3.6533 0 -1.4673 0.0759 -2.7045 0.166 -3.65333 0.1645 -1.73085 1.0627 -3.28615 2.4795 -4.29395 0.7767 -0.55248 1.8102 -1.23699 3.0811 -1.9707 1.2705 -0.73354 2.3794 -1.28626 3.2461 -1.68262m2.5273 7.10156c-2.4852 0.00004 -4.5 2.01474 -4.5 4.50004 0.0003 2.485 2.0149 4.4999 4.5 4.5 2.4851 0 4.4997 -2.015 4.5 -4.5 0 -2.4853 -2.0147 -4.50004 -4.5 -4.50004" stroke-width="1"></path>
  </g>
</svg>
