<svg xmlns="http://www.w3.org/2000/svg" viewBox="0 0 24 24" fill="none"><path d="M14.0498 3.25C15.8906 3.24999 17.3487 3.24998 18.4893 3.40332C19.6616 3.56096 20.6101 3.89329 21.3584 4.6416C22.0503 5.33354 22.3843 6.19705 22.5557 7.25H1.44434C1.6157 6.19705 1.94966 5.33354 2.6416 4.6416C3.38991 3.89329 4.33844 3.56096 5.51074 3.40332C6.65129 3.24998 8.10937 3.24999 9.9502 3.25H14.0498Z" fill="currentColor"/><path opacity="0.4" d="M22.7031 8.75C22.749 9.6584 22.75 10.7187 22.75 11.9502V12.0498C22.75 13.8906 22.75 15.3487 22.5967 16.4893C22.439 17.6616 22.1067 18.6101 21.3584 19.3584C20.6101 20.1067 19.6616 20.439 18.4893 20.5967C17.3487 20.75 15.8906 20.75 14.0498 20.75H9.9502C8.10939 20.75 6.65129 20.75 5.51074 20.5967C4.33844 20.439 3.38991 20.1067 2.6416 19.3584C1.89329 18.6101 1.56096 17.6616 1.40332 16.4893C1.24998 15.3487 1.24999 13.8906 1.25 12.0498V11.9502C1.24999 10.7187 1.25096 9.65841 1.29688 8.75H22.7031Z" fill="currentColor"/><path d="M9.25 14.75C9.25 14.0596 8.69036 13.5 8 13.5C7.30964 13.5 6.75 14.0596 6.75 14.75C6.75 15.4404 7.30964 16 8 16C8.69036 16 9.25 15.4404 9.25 14.75ZM10.75 14.75C10.75 15.2006 10.6394 15.6247 10.4473 16H13.5527C13.3606 15.6247 13.25 15.2006 13.25 14.75C13.25 14.2994 13.3606 13.8753 13.5527 13.5H10.4473C10.6394 13.8753 10.75 14.2994 10.75 14.75ZM14.75 14.75C14.75 15.4404 15.3096 16 16 16C16.6904 16 17.25 15.4404 17.25 14.75C17.25 14.0596 16.6904 13.5 16 13.5C15.3096 13.5 14.75 14.0596 14.75 14.75ZM18.75 14.75C18.75 16.2688 17.5188 17.5 16 17.5H8C6.48122 17.5 5.25 16.2688 5.25 14.75C5.25 13.2312 6.48122 12 8 12H16C17.5188 12 18.75 13.2312 18.75 14.75Z" fill="currentColor"/></svg>
