<svg xmlns="http://www.w3.org/2000/svg" viewBox="0 0 24 24" fill="none"><path d="M14.0493 3.25C15.8901 3.24999 17.3482 3.24998 18.4888 3.40332C19.6611 3.56096 20.6096 3.89329 21.3579 4.6416C22.0499 5.33354 22.3838 6.19705 22.5552 7.25H1.44385C1.61522 6.19705 1.94917 5.33354 2.64111 4.6416C3.38942 3.89329 4.33795 3.56096 5.51025 3.40332C6.65081 3.24998 8.10889 3.24999 9.94971 3.25H14.0493Z" fill="currentColor"/><path d="M22.7026 8.75C22.7485 9.6584 22.7495 10.7187 22.7495 11.9502V12.0498C22.7495 13.8906 22.7495 15.3487 22.5962 16.4893C22.4386 17.6616 22.1062 18.6101 21.3579 19.3584C20.6096 20.1067 19.6611 20.439 18.4888 20.5967C17.3482 20.75 15.8901 20.75 14.0493 20.75H9.94971C8.1089 20.75 6.6508 20.75 5.51025 20.5967C4.33795 20.439 3.38942 20.1067 2.64111 19.3584C1.8928 18.6101 1.56047 17.6616 1.40283 16.4893C1.24949 15.3487 1.2495 13.8906 1.24951 12.0498V11.9502C1.2495 10.7187 1.25047 9.65841 1.29639 8.75H22.7026ZM7.99951 12C6.48073 12 5.24951 13.2312 5.24951 14.75C5.24951 16.2688 6.48073 17.5 7.99951 17.5H15.9995C17.5183 17.5 18.7495 16.2688 18.7495 14.75C18.7495 13.2312 17.5183 12 15.9995 12H7.99951ZM7.99951 13.5C8.68987 13.5 9.24951 14.0596 9.24951 14.75C9.24951 15.4404 8.68987 16 7.99951 16C7.30916 16 6.74951 15.4404 6.74951 14.75C6.74951 14.0596 7.30916 13.5 7.99951 13.5ZM13.5522 13.5C13.3602 13.8753 13.2495 14.2994 13.2495 14.75C13.2495 15.2006 13.3602 15.6247 13.5522 16H10.4468C10.6389 15.6247 10.7495 15.2006 10.7495 14.75C10.7495 14.2994 10.6389 13.8753 10.4468 13.5H13.5522ZM15.9995 13.5C16.6899 13.5 17.2495 14.0596 17.2495 14.75C17.2495 15.4404 16.6899 16 15.9995 16C15.3092 16 14.7495 15.4404 14.7495 14.75C14.7495 14.0596 15.3092 13.5 15.9995 13.5Z" fill="currentColor"/></svg>
