<svg xmlns="http://www.w3.org/2000/svg" fill="none" viewBox="0 0 48 48">
  <g>
    <path fill="currentColor" fill-rule="evenodd" d="M22.3134 5.08873c1.0174 -0.78497 2.3564 -0.78497 3.3738 0 2.4031 1.85407 5.8924 4.91167 8.7666 8.86447 2.876 3.9553 5.0478 8.6827 5.0478 13.9245 0 8.6986 -6.8959 15.6223 -15.5013 15.6223S8.49902 36.5763 8.49902 27.8777c0 -5.2418 2.17178 -9.9692 5.04778 -13.9245 2.8742 -3.9528 6.3635 -7.0104 8.7666 -8.86447Zm5.8173 -3.16695c-2.4571 -1.8957047 -5.8037 -1.8957082 -8.2608 0 -2.5732 1.98535 -6.3802 5.30829 -9.5582 9.67902 -3.17627 4.3682 -5.81268 9.9073 -5.81268 16.2769C4.49902 38.7594 13.1598 47.5 24.0003 47.5s19.5013 -8.7406 19.5013 -19.6223c0 -6.3696 -2.6364 -11.9087 -5.8127 -16.2769 -3.178 -4.37073 -6.985 -7.69367 -9.5582 -9.67902ZM37.174 28c0 -1.2426 -1.0074 -2.25 -2.25 -2.25 -1.2427 0 -2.25 1.0074 -2.25 2.25 0 4.8831 -3.8626 8.75 -8.6745 8.75 -1.2426 0 -2.25 1.0074 -2.25 2.25s1.0074 2.25 2.25 2.25c7.3264 0 13.1745 -5.9109 13.1745 -13.25Z" clip-rule="evenodd" stroke-width="1"></path>
  </g>
</svg>
