<svg xmlns="http://www.w3.org/2000/svg" fill="none" viewBox="0 0 48 48">
  <g>
    <path fill="currentColor" fill-opacity="0.4" d="M40.0298 1.0007C37.1072 0.5774 31.9714 0.1154 26.3842 0.9251c-5.5851 0.8094 -11.7405 2.9082 -16.5441 7.7119 -8.0603 8.0603 -8.9225 20.6793 -1.43 28.1718 7.4924 7.4924 20.1114 6.6302 28.1717 -1.4301 4.8037 -4.8036 6.9025 -10.959 7.7119 -16.544 0.8097 -5.5873 0.3477 -10.723 -0.0755 -13.6457 -0.3167 -2.1866 -2.0018 -3.8717 -4.1884 -4.1883Z" stroke-width="3.429"></path>
    <path fill="currentColor" d="M36.0957 5.3296c0.9531 -0.5833 2.1986 -0.2835 2.7818 0.6696 0.5833 0.9531 0.2835 2.1986 -0.6696 2.7818 -1.063 0.6505 -2.9854 1.9733 -5.3497 3.8203 1.1137 0.1835 2.1081 0.4104 2.9524 0.637 1.0698 0.2871 2.1382 0.6216 3.1554 1.064 1.0176 0.4502 1.5026 1.6647 1.0426 2.6873 -0.5091 1.132 -1.7562 1.3908 -2.8092 0.9588 -0.321 -0.1317 -1.1843 -0.4656 -2.4376 -0.8019 -1.592 -0.4272 -3.7899 -0.8528 -6.3094 -0.8948 -2.0367 1.7869 -4.1862 3.8182 -6.2757 6.0325 -1.7765 1.8826 -3.4792 3.8661 -5.0224 5.9158 1.6018 -0.1457 3.1313 -0.1708 4.4306 -0.1455 1.4308 0.0281 2.8672 0.1088 4.2876 0.2908 1.1074 0.1491 1.8842 1.1678 1.7351 2.2752 -0.154 1.143 -1.2182 1.8688 -2.3313 1.728 -0.3041 -0.0379 -1.7871 -0.2093 -3.7707 -0.2482 -2.225 -0.0436 -4.9814 0.0812 -7.4437 0.6842 -2.4848 4.1834 -4.1103 8.5262 -4.2244 12.7667 -0.0301 1.117 -0.96 1.9981 -2.077 1.9681 -1.117 -0.0301 -1.9981 -0.96 -1.9681 -2.077 0.2218 -8.2401 5.0789 -16.2766 10.692 -22.8717 -0.7972 -3.6023 -0.6424 -7.0751 -0.2985 -9.6339 0.3119 -2.3216 0.7861 -3.9508 0.9175 -4.3779 0.3329 -1.082 1.4655 -1.7692 2.5854 -1.4036 1.0914 0.3564 1.6145 1.5274 1.2821 2.5937 -0.0826 0.2684 -0.5015 1.6942 -0.7746 3.7268 -0.2021 1.5039 -0.3212 3.3082 -0.1878 5.2209 6.5327 -6.7477 13.4409 -11.7476 16.0872 -13.367Z" stroke-width="3.429"></path>
  </g>
</svg>
