<svg xmlns="http://www.w3.org/2000/svg" fill="none" viewBox="0 0 48 48">
  <g>
    <path stroke="currentColor" stroke-linecap="round" stroke-linejoin="round" d="M37.0111 7.9864c-5.375 3.5215 -29.0247 20.6008 -29.0247 38.0323" stroke-width="1"></path>
    <path stroke="currentColor" stroke-linecap="round" stroke-linejoin="round" d="M19.1125 9.9881s-2.1129 5.8105 -0.5282 13.2056" stroke-width="1"></path>
    <path stroke="currentColor" stroke-linecap="round" stroke-linejoin="round" d="M38.0119 16.994s-5.2218 -2.4948 -10.0085 -1.914" stroke-width="1"></path>
    <path stroke="currentColor" stroke-linecap="round" stroke-linejoin="round" d="M25.5847 31.0338s-6.3388 -1.0565 -12.1493 0.5281" stroke-width="1"></path>
    <path stroke="currentColor" stroke-linecap="round" stroke-linejoin="round" d="M15.2432 38.9571c6.4639 2.413 14.4591 0.6721 20.1424 -5.0112 8.8929 -8.8929 7.9453 -22.9681 7.1309 -28.5918 -0.2179 -1.5051 -1.368 -2.6552 -2.8732 -2.8732 -5.6237 -0.8144 -19.6988 -1.762 -28.5917 7.1309 -7.501 7.501 -8.1344 19.0291 -1.4148 25.7489 0.2248 0.2247 0.4549 0.4412 0.6901 0.6495" stroke-width="1"></path>
  </g>
</svg>
