<svg xmlns="http://www.w3.org/2000/svg" fill="none" viewBox="0 0 48 48">
  <g>
    <path fill="currentColor" fill-rule="evenodd" d="M13.1603 11.3961c3.801 -3.80727 8.7723 -5.56998 13.5638 -6.26552 4.7887 -0.69514 9.2415 -0.29973 11.7967 0.07093 0.5458 0.07918 0.9474 0.47895 1.0272 1.03097 0.3701 2.55998 0.765 7.02112 0.0708 11.81912 -0.6946 4.8011 -2.455 9.7819 -6.2563 13.5895 -4.6653 4.673 -11.0592 6.1569 -16.2647 4.5261 -1.0541 -0.3302 -2.1762 0.2566 -2.5064 1.3106 -0.3303 1.0541 0.2565 2.1763 1.3106 2.5065 6.7344 2.1098 14.6547 0.1288 20.2912 -5.5171 4.6161 -4.6237 6.6159 -10.5309 7.3844 -15.8429 0.769 -5.3152 0.33 -10.19226 -0.0707 -12.96418 -0.3328 -2.30196 -2.1085 -4.08304 -4.4119 -4.41718 -2.7678 -0.401495 -7.6379 -0.841346 -12.9455 -0.07087 -5.3049 0.77006 -11.2035 2.77384 -15.82 7.39793 -7.41359 7.4259 -8.53646 18.9547 -2.19119 26.3201 -1.27328 3.0875 -2.0451 6.3159 -2.0451 9.6114 0 1.5188 1.23122 2.75 2.75 2.75 1.51879 0 2.74999 -1.2312 2.74999 -2.75 0 -3.668 1.3014 -7.4366 3.4075 -11.1128 0.0623 -0.0125 0.134 -0.0263 0.2151 -0.0411 0.4068 -0.0745 1.0519 -0.1756 1.935 -0.2634 1.7655 -0.1755 4.4867 -0.2982 8.162 -0.047 1.5153 0.1035 2.8276 -1.0409 2.9311 -2.5561 0.1036 -1.5153 -1.0408 -2.8276 -2.5561 -2.9311 -2.5928 -0.1772 -4.7812 -0.1849 -6.564 -0.112 0.9356 -1.158 1.9288 -2.2945 2.9619 -3.4026 1.9595 -2.1018 4.0053 -4.041 5.9664 -5.7623 2.4441 -0.1116 4.8343 0.0747 7.3189 0.9349 1.4352 0.4969 3.0015 -0.2637 3.4984 -1.6989 0.4968 -1.4352 -0.2638 -3.0015 -1.699 -3.4984 -0.9748 -0.3375 -1.9322 -0.5942 -2.8714 -0.7853 1.2097 -0.8992 2.242 -1.6222 3.0127 -2.1418 1.2593 -0.849 1.5919 -2.55812 0.7429 -3.81744 -0.849 -1.25933 -2.5581 -1.59196 -3.8174 -0.74296 -2.5342 1.70848 -7.6785 5.4443 -12.8701 10.4175 -0.0586 -1.7228 0.0318 -3.5346 0.4207 -5.0648 0.3741 -1.472 -0.5158 -2.96859 -1.9878 -3.34273 -1.472 -0.37413 -2.9686 0.51586 -3.3427 1.98783 -0.7386 2.9058 -0.6744 6.1361 -0.4736 8.496 0.1028 1.2085 0.2474 2.2507 0.3668 2.9942 0.0081 0.0505 0.0161 0.0997 0.0239 0.1474 -2.3002 2.6449 -4.4942 5.5731 -6.2603 8.6967 -3.56969 -5.5898 -2.6487 -13.7548 3.0462 -19.4592Z" clip-rule="evenodd" stroke-width="1"></path>
  </g>
</svg>
