<svg xmlns="http://www.w3.org/2000/svg" viewBox="0 0 24 24" fill="none"><path opacity="0.4" d="M21.75 12.0324V12V11.9676C21.75 10.1249 21.75 8.68093 21.626 7.53613C21.4997 6.37077 21.2371 5.42636 20.6514 4.62012C20.2968 4.1322 19.8678 3.70317 19.3799 3.34863C18.5736 2.76287 17.6292 2.50032 16.4639 2.37402C15.3191 2.24999 13.8751 2.25 12.0324 2.25H12H11.9676C10.1249 2.25 8.68093 2.24999 7.53613 2.37402C6.37077 2.50032 5.42636 2.76287 4.62012 3.34863C4.1322 3.70317 3.70317 4.1322 3.34863 4.62012C2.76287 5.42636 2.50032 6.37077 2.37402 7.53613C2.24999 8.68093 2.25 10.1249 2.25 11.9676V12V12.0324C2.25 13.8751 2.24999 15.3191 2.37402 16.4639C2.50032 17.6292 2.76287 18.5736 3.34863 19.3799C3.70317 19.8678 4.1322 20.2968 4.62012 20.6514C5.42636 21.2371 6.37077 21.4997 7.53613 21.626C8.68093 21.75 10.1249 21.75 11.9676 21.75H12H12.0324C13.8751 21.75 15.3191 21.75 16.4639 21.626C17.6292 21.4997 18.5736 21.2371 19.3799 20.6514C19.8678 20.2968 20.2968 19.8678 20.6514 19.3799C21.2371 18.5736 21.4997 17.6292 21.626 16.4639C21.75 15.3191 21.75 13.8751 21.75 12.0324Z" fill="currentColor"/><path d="M6.74256 6.84705C7.10315 6.42879 7.73538 6.38201 8.15369 6.74256L9.38025 7.80018C9.61571 8.00312 9.87165 8.22079 10.056 8.42908C10.2537 8.65239 10.5004 9.00699 10.5004 9.50037C10.5004 9.99375 10.2537 10.3483 10.056 10.5717C9.87165 10.78 9.61571 10.9976 9.38025 11.2006L8.15369 12.2582C7.73538 12.6187 7.10315 12.572 6.74256 12.1537C6.38201 11.7354 6.42879 11.1031 6.84705 10.7426L8.07361 9.68592C8.15458 9.61613 8.22384 9.55446 8.28553 9.50037C8.22384 9.44629 8.15458 9.38461 8.07361 9.31482L6.84705 8.25818C6.42879 7.8976 6.38201 7.26536 6.74256 6.84705Z" fill="currentColor"/><path d="M15.5 11.5C16.0523 11.5 16.5 11.9477 16.5 12.5C16.5 13.0523 16.0523 13.5 15.5 13.5H11.5C10.9477 13.5 10.5 13.0523 10.5 12.5C10.5 11.9477 10.9477 11.5 11.5 11.5H15.5Z" fill="currentColor"/></svg>
