<svg xmlns="http://www.w3.org/2000/svg" viewBox="0 0 24 24" fill="none"><path d="M12.0322 2.25C13.8749 2.25 15.3191 2.24999 16.4639 2.37402C17.6292 2.50032 18.5736 2.76287 19.3799 3.34863C19.8678 3.70317 20.2968 4.1322 20.6514 4.62012C21.2371 5.42636 21.4997 6.37077 21.626 7.53613C21.75 8.68093 21.75 10.1251 21.75 11.9678V12.0322C21.75 13.8749 21.75 15.3191 21.626 16.4639C21.4997 17.6292 21.2371 18.5736 20.6514 19.3799C20.2968 19.8678 19.8678 20.2968 19.3799 20.6514C18.5736 21.2371 17.6292 21.4997 16.4639 21.626C15.3191 21.75 13.8749 21.75 12.0322 21.75H11.9678C10.1251 21.75 8.68093 21.75 7.53613 21.626C6.37077 21.4997 5.42636 21.2371 4.62012 20.6514C4.1322 20.2968 3.70317 19.8678 3.34863 19.3799C2.76287 18.5736 2.50032 17.6292 2.37402 16.4639C2.24999 15.3191 2.25 13.8749 2.25 12.0322V11.9678C2.25 10.1251 2.24999 8.68093 2.37402 7.53613C2.50032 6.37077 2.76287 5.42636 3.34863 4.62012C3.70317 4.1322 4.1322 3.70317 4.62012 3.34863C5.42636 2.76287 6.37077 2.50032 7.53613 2.37402C8.68093 2.24999 10.1251 2.25 11.9678 2.25H12.0322ZM11.5 11.5C10.9477 11.5 10.5 11.9477 10.5 12.5C10.5 13.0523 10.9477 13.5 11.5 13.5H15.5C16.0523 13.5 16.5 13.0523 16.5 12.5C16.5 11.9477 16.0523 11.5 15.5 11.5H11.5ZM8.15332 6.74219C7.73502 6.38202 7.10266 6.42858 6.74219 6.84668C6.38175 7.26486 6.42879 7.89717 6.84668 8.25781L8.07324 9.31445C8.15404 9.38409 8.22356 9.446 8.28516 9.5C8.22347 9.55408 8.1542 9.61577 8.07324 9.68555L6.84668 10.7422C6.42858 11.1027 6.38202 11.735 6.74219 12.1533C7.10277 12.5716 7.73501 12.6183 8.15332 12.2578L9.37988 11.2002C9.61534 10.9973 9.87128 10.7796 10.0557 10.5713C10.2533 10.348 10.5 9.99336 10.5 9.5C10.4999 9.00681 10.2533 8.65197 10.0557 8.42871C9.87131 8.22054 9.61519 8.00262 9.37988 7.7998L8.15332 6.74219Z" fill="currentColor"/></svg>
