<svg xmlns="http://www.w3.org/2000/svg" viewBox="0 0 24 24" fill="none"><path d="M8.63379 1.75027C8.90992 1.272 9.52172 1.10798 10 1.38406C10.4783 1.66019 10.6423 2.27199 10.3662 2.75027C10.0072 3.37203 9.98304 3.7196 10.0059 3.91726C10.0328 4.15011 10.1373 4.3538 10.3662 4.75027C10.5702 5.10358 10.8991 5.65033 10.9805 6.35476C11.0658 7.09445 10.8731 7.87224 10.3662 8.75027C10.0901 9.22854 9.47828 9.39256 9 9.11648C8.52174 8.84035 8.35772 8.22855 8.63379 7.75027C8.99277 7.12851 9.01697 6.78094 8.99414 6.58328C8.96717 6.35043 8.8627 6.14674 8.63379 5.75027C8.42981 5.39696 8.10088 4.85021 8.01954 4.14578C7.93423 3.40609 8.12688 2.62831 8.63379 1.75027ZM13.6338 1.75027C13.9099 1.272 14.5217 1.10798 15 1.38406C15.4783 1.66019 15.6423 2.27199 15.3662 2.75027C15.0072 3.37203 14.983 3.7196 15.0059 3.91726C15.0328 4.15011 15.1373 4.3538 15.3662 4.75027C15.5702 5.10358 15.8991 5.65033 15.9805 6.35476C16.0658 7.09445 15.8731 7.87224 15.3662 8.75027C15.0901 9.22854 14.4783 9.39256 14 9.11648C13.5217 8.84035 13.3577 8.22855 13.6338 7.75027C13.9928 7.12851 14.017 6.78094 13.9941 6.58328C13.9672 6.35043 13.8627 6.14674 13.6338 5.75027C13.4298 5.39696 13.1009 4.85021 13.0195 4.14578C12.9342 3.40609 13.1269 2.62831 13.6338 1.75027Z" fill="currentColor"/><path opacity="0.4" d="M17.21 7.27344C17.1143 7.98219 16.8487 8.68031 16.4482 9.37402C16.027 10.1037 15.2588 10.5083 14.4723 10.4994H9.52307C9.20567 10.503 8.88411 10.4394 8.58008 10.3027L8.375 10.1982C7.34277 9.60217 6.96299 8.3121 7.48242 7.25781C6.76378 7.26846 6.14101 7.29401 5.60742 7.36621C4.70657 7.48812 3.94835 7.74904 3.34668 8.35449C2.74565 8.95936 2.48705 9.72061 2.36621 10.625C2.25035 11.4923 2.24998 12.5942 2.25 13.9609L2.25195 14.9609C2.25704 15.9109 2.27769 16.7105 2.36621 17.373C2.48705 18.2774 2.74565 19.0387 3.34668 19.6436C3.94835 20.249 4.70657 20.5099 5.60742 20.6318C6.47377 20.7491 7.57513 20.749 8.94043 20.749H15.0596C16.4249 20.749 17.5262 20.7491 18.3926 20.6318C19.2934 20.5099 20.0517 20.249 20.6533 19.6436C21.2544 19.0387 21.513 18.2774 21.6338 17.373C21.7223 16.7105 21.743 15.9109 21.748 14.9609L21.75 13.9609C21.75 12.5942 21.7497 11.4923 21.6338 10.625C21.513 9.72061 21.2544 8.95936 20.6533 8.35449C20.0517 7.74904 19.2934 7.48812 18.3926 7.36621C18.0383 7.31828 17.6448 7.29018 17.21 7.27344Z" fill="currentColor"/><path d="M7 16V12C7 11.4477 7.44772 11 8 11C8.55228 11 9 11.4477 9 12V16C9 16.5523 8.55228 17 8 17C7.44772 17 7 16.5523 7 16ZM11 16V12C11 11.4477 11.4477 11 12 11C12.5523 11 13 11.4477 13 12V16C13 16.5523 12.5523 17 12 17C11.4477 17 11 16.5523 11 16ZM15 16V12C15 11.4477 15.4477 11 16 11C16.5523 11 17 11.4477 17 12V16C17 16.5523 16.5523 17 16 17C15.4477 17 15 16.5523 15 16Z" fill="currentColor"/><path d="M5 20.5195C5.19469 20.5658 5.39699 20.6034 5.60742 20.6318C6.01783 20.6874 6.48103 20.7151 7 20.7305V21.749C7 22.3013 6.55228 22.749 6 22.749C5.44772 22.749 5 22.3013 5 21.749V20.5195Z" fill="currentColor"/><path d="M19 21.749C19 22.3013 18.5523 22.749 18 22.749C17.4477 22.749 17 22.3013 17 21.749V20.7305C17.519 20.7151 17.9822 20.6874 18.3926 20.6318C18.603 20.6034 18.8053 20.5658 19 20.5195V21.749Z" fill="currentColor"/></svg>
