<svg xmlns="http://www.w3.org/2000/svg" viewBox="0 0 24 24" fill="none"><path d="M8.6333 1.75027C8.90943 1.272 9.52123 1.10798 9.99952 1.38406C10.4778 1.66019 10.6418 2.27199 10.3657 2.75027C10.0068 3.37203 9.98255 3.7196 10.0054 3.91726C10.0324 4.15011 10.1368 4.3538 10.3657 4.75027C10.5697 5.10358 10.8986 5.65033 10.98 6.35476C11.0653 7.09445 10.8726 7.87224 10.3657 8.75027C10.0896 9.22854 9.4778 9.39256 8.99952 9.11648C8.52125 8.84035 8.35723 8.22855 8.6333 7.75027C8.99228 7.12851 9.01648 6.78094 8.99366 6.58328C8.96668 6.35043 8.86221 6.14674 8.6333 5.75027C8.42932 5.39696 8.10039 4.85021 8.01905 4.14578C7.93375 3.40609 8.12639 2.62831 8.6333 1.75027ZM13.6333 1.75027C13.9094 1.272 14.5212 1.10798 14.9995 1.38406C15.4778 1.66019 15.6418 2.27199 15.3657 2.75027C15.0068 3.37203 14.9826 3.7196 15.0054 3.91726C15.0324 4.15011 15.1368 4.3538 15.3657 4.75027C15.5697 5.10358 15.8986 5.65033 15.98 6.35476C16.0653 7.09445 15.8726 7.87224 15.3657 8.75027C15.0896 9.22854 14.4778 9.39256 13.9995 9.11648C13.5212 8.84035 13.3572 8.22855 13.6333 7.75027C13.9923 7.12851 14.0165 6.78094 13.9937 6.58328C13.9667 6.35043 13.8622 6.14674 13.6333 5.75027C13.4293 5.39696 13.1004 4.85021 13.019 4.14578C12.9337 3.40609 13.1264 2.62831 13.6333 1.75027Z" fill="currentColor"/><path d="M4.99948 21.75V19.75C4.99948 19.1977 5.4472 18.75 5.99948 18.75C6.55177 18.75 6.99948 19.1977 6.99948 19.75V21.75C6.99948 22.3023 6.55177 22.75 5.99948 22.75C5.4472 22.75 4.99948 22.3023 4.99948 21.75ZM16.9995 21.75V19.75C16.9995 19.1977 17.4472 18.75 17.9995 18.75C18.5518 18.75 18.9995 19.1977 18.9995 19.75V21.75C18.9995 22.3023 18.5518 22.75 17.9995 22.75C17.4472 22.75 16.9995 22.3023 16.9995 21.75Z" fill="currentColor"/><path d="M7.48193 7.25781C6.96251 8.3121 7.34228 9.60217 8.37451 10.1982L8.57959 10.3027C8.88363 10.4394 9.20554 10.5026 9.52295 10.499H14.4722C15.2586 10.5078 16.0265 10.1036 16.4478 9.37402C16.8482 8.68031 17.1139 7.98219 17.2095 7.27344C17.6443 7.29018 18.0378 7.31828 18.3921 7.36621C19.2929 7.48812 20.0512 7.74904 20.6528 8.35449C21.2539 8.95936 21.5125 9.72061 21.6333 10.625C21.7492 11.4923 21.7495 12.5942 21.7495 13.9609L21.7476 14.9609C21.7425 15.9109 21.7218 16.7105 21.6333 17.373C21.5125 18.2774 21.2539 19.0387 20.6528 19.6436C20.0512 20.249 19.2929 20.5099 18.3921 20.6318C17.5257 20.7491 16.4244 20.749 15.0591 20.749H8.93994C7.57464 20.749 6.47328 20.7491 5.60693 20.6318C4.70608 20.5099 3.94786 20.249 3.34619 19.6436C2.74516 19.0387 2.48656 18.2774 2.36572 17.373C2.27721 16.7105 2.25655 15.9109 2.25146 14.9609L2.24951 13.9609C2.2495 12.5942 2.24986 11.4923 2.36572 10.625C2.48656 9.72061 2.74516 8.95936 3.34619 8.35449C3.94786 7.74904 4.70608 7.48812 5.60693 7.36621C6.14052 7.29401 6.76329 7.26846 7.48193 7.25781ZM7.99951 11C7.44723 11 6.99951 11.4477 6.99951 12V16C6.99951 16.5523 7.44723 17 7.99951 17C8.5518 17 8.99951 16.5523 8.99951 16V12C8.99951 11.4477 8.5518 11 7.99951 11ZM11.9995 11C11.4472 11 10.9995 11.4477 10.9995 12V16C10.9995 16.5523 11.4472 17 11.9995 17C12.5518 17 12.9995 16.5523 12.9995 16V12C12.9995 11.4477 12.5518 11 11.9995 11ZM15.9995 11C15.4472 11 14.9995 11.4477 14.9995 12V16C14.9995 16.5523 15.4472 17 15.9995 17C16.5518 17 16.9995 16.5523 16.9995 16V12C16.9995 11.4477 16.5518 11 15.9995 11Z" fill="currentColor"/></svg>
