<svg xmlns="http://www.w3.org/2000/svg" viewBox="0 0 24 24" fill="none"><path opacity="0.4" d="M21.4688 14.3242C22.2376 13.8374 22.75 12.9794 22.75 12C22.75 11.0204 22.2378 10.1616 21.4688 9.6748C20.4255 5.41304 16.5839 2.25 12 2.25C7.41605 2.25 3.57344 5.41292 2.53027 9.6748C1.76157 10.1617 1.25 11.0207 1.25 12C1.25 12.9792 1.76182 13.8373 2.53027 14.3242C3.57311 18.5866 7.41572 21.75 12 21.75C16.5842 21.75 20.4258 18.5865 21.4688 14.3242Z" fill="currentColor"/><path d="M13.4003 15.5497C13.649 15.2185 14.1189 15.1516 14.4501 15.4003C14.7812 15.649 14.8481 16.1189 14.5995 16.4501C14.0079 17.2378 13.0636 17.7499 11.9999 17.7499C10.9361 17.7499 9.99187 17.2378 9.40026 16.4501C9.15159 16.1189 9.2185 15.649 9.54967 15.4003C9.88087 15.1516 10.3507 15.2185 10.5995 15.5497C10.92 15.9764 11.428 16.2499 11.9999 16.2499C12.5718 16.2499 13.0797 15.9764 13.4003 15.5497Z" fill="currentColor"/><path d="M8.375 10.25C8.76751 10.25 9.06581 10.4638 9.24023 10.6963C9.41447 10.9286 9.5 11.2153 9.5 11.5C9.5 11.7847 9.41447 12.0714 9.24023 12.3037C9.06582 12.5362 8.76751 12.75 8.375 12.75C7.98249 12.75 7.68418 12.5362 7.50977 12.3037C7.33553 12.0714 7.25 11.7847 7.25 11.5C7.25 11.2153 7.33553 10.9286 7.50977 10.6963C7.68419 10.4638 7.98249 10.25 8.375 10.25ZM15.625 10.25C16.0175 10.25 16.3158 10.4638 16.4902 10.6963C16.6645 10.9286 16.75 11.2153 16.75 11.5C16.75 11.7847 16.6645 12.0714 16.4902 12.3037C16.3158 12.5362 16.0175 12.75 15.625 12.75C15.2325 12.75 14.9342 12.5362 14.7598 12.3037C14.5855 12.0714 14.5 11.7847 14.5 11.5C14.5 11.2153 14.5855 10.9286 14.7598 10.6963C14.9342 10.4638 15.2325 10.25 15.625 10.25Z" fill="currentColor"/><path d="M12.4999 7.75C13.4568 7.75 14.1857 7.40524 14.6571 6.82031C15.1059 6.26341 15.2499 5.57766 15.2499 5C15.2499 3.98387 14.8809 3.17058 14.3027 2.52637C13.5642 2.34747 12.7935 2.25 11.9999 2.25C11.6786 2.25 11.3611 2.26748 11.0478 2.29785C11.298 2.3771 11.5378 2.46433 11.7636 2.5625C13.0633 3.12762 13.7499 3.9232 13.7499 5C13.7499 5.3553 13.6581 5.66917 13.4892 5.87891C13.3427 6.06064 13.0712 6.25 12.4999 6.25C12.2858 6.24999 12.11 6.17345 11.9677 6.06055C11.8154 5.9396 11.7257 5.79531 11.6962 5.72168C11.5424 5.33714 11.1062 5.14999 10.7216 5.30371C10.3371 5.45752 10.1499 5.89378 10.3036 6.27832C10.5395 6.86808 11.2881 7.74997 12.4999 7.75Z" fill="currentColor"/></svg>
