<svg xmlns="http://www.w3.org/2000/svg" viewBox="0 0 24 24" fill="none"><path d="M12 21.726C16.5842 21.726 20.4258 18.5624 21.4688 14.3002C22.2376 13.8133 22.75 12.9554 22.75 11.976C22.75 10.9963 22.2378 10.1375 21.4688 9.65076C20.6061 6.12682 17.8295 3.35677 14.3027 2.50232C14.8809 3.14653 15.25 3.95984 15.25 4.97595C15.25 5.55361 15.1059 6.23936 14.6572 6.79626C14.1858 7.38121 13.4569 7.72595 12.5 7.72595C11.2881 7.72595 10.5396 6.84404 10.3037 6.25427C10.15 5.86971 10.3371 5.43346 10.7217 5.27966C11.1062 5.12594 11.5425 5.31308 11.6963 5.69763C11.7258 5.77127 11.8154 5.91554 11.9678 6.0365C12.1101 6.14942 12.2859 6.22595 12.5 6.22595C13.0713 6.22595 13.3428 6.0366 13.4893 5.85486C13.6581 5.64512 13.75 5.33125 13.75 4.97595C13.75 3.89915 13.0634 3.10357 11.7637 2.53845C11.5379 2.44028 11.2981 2.35306 11.0479 2.2738C6.89128 2.67672 3.50032 5.68762 2.53027 9.65076C1.76157 10.1376 1.25 10.9966 1.25 11.976C1.25 12.9551 1.76182 13.8133 2.53027 14.3002C3.57311 18.5625 7.41572 21.726 12 21.726ZM8.375 12.726C7.98249 12.726 7.68418 12.5122 7.50977 12.2797C7.33553 12.0473 7.25 11.7606 7.25 11.476C7.25 11.1913 7.33553 10.9046 7.50977 10.6722C7.68419 10.4397 7.98249 10.226 8.375 10.226C8.76751 10.226 9.06581 10.4397 9.24023 10.6722C9.41447 10.9046 9.5 11.1913 9.5 11.476C9.5 11.7606 9.41447 12.0473 9.24023 12.2797C9.06582 12.5122 8.76751 12.726 8.375 12.726ZM15.625 12.726C15.2325 12.726 14.9342 12.5122 14.7598 12.2797C14.5855 12.0473 14.5 11.7606 14.5 11.476C14.5 11.1913 14.5855 10.9046 14.7598 10.6722C14.9342 10.4397 15.2325 10.226 15.625 10.226C16.0175 10.226 16.3158 10.4397 16.4902 10.6722C16.6645 10.9046 16.75 11.1913 16.75 11.476C16.75 11.7606 16.6645 12.0473 16.4902 12.2797C16.3158 12.5122 16.0175 12.726 15.625 12.726ZM12 17.726C10.9363 17.726 9.99201 17.2138 9.40039 16.4261C9.15172 16.095 9.21863 15.6251 9.5498 15.3763C9.881 15.1277 10.3509 15.1946 10.5996 15.5258C10.9201 15.9524 11.4282 16.226 12 16.226C12.5718 16.2259 13.0799 15.9524 13.4004 15.5258C13.6491 15.1946 14.119 15.1277 14.4502 15.3763C14.7812 15.6251 14.8482 16.095 14.5996 16.4261C14.008 17.2138 13.0637 17.7259 12 17.726Z" fill="currentColor"/></svg>
