<svg xmlns="http://www.w3.org/2000/svg" viewBox="0 0 24 24" fill="none"><path d="M13.6373 1.416C13.7353 1.45076 13.8314 1.49075 13.9251 1.53582C14.3799 1.75449 14.7362 2.11356 15.1387 2.51921L19.9215 7.32686L19.9215 7.32686C20.3889 7.79521 20.8036 8.21088 21.0277 8.75463C21.1265 8.99435 21.1816 9.24282 21.2122 9.50258H19.2314C17.8638 9.5026 17.2152 9.50181 16.3483 9.38525C15.4481 9.26424 14.6903 9.00534 14.0884 8.40343C13.4864 7.80151 13.2275 7.04364 13.1065 6.14353C12.9902 5.27834 12.9902 4.63063 12.9902 3.2688V3.26877V1.27734C13.2136 1.30042 13.4283 1.34184 13.6373 1.416Z" fill="currentColor"/><path d="M11.339 16.3925L8.95455 17.5905V20.3915C9.13324 20.2788 9.34277 20.1431 9.59588 19.9769L10.0732 19.6634C10.5038 19.3806 10.7724 19.2032 10.9662 19.0485C11.1449 18.9059 11.2014 18.8265 11.2318 18.7706C11.2618 18.7155 11.2957 18.6276 11.3167 18.4056C11.3396 18.163 11.3409 17.8464 11.3409 17.3359V16.6602C11.3409 16.5644 11.3393 16.4755 11.339 16.3925ZM8 13.1647C7.91517 13.1647 7.79498 13.1836 7.54324 13.3126C7.27063 13.4523 6.93459 13.6708 6.40412 14.0192L5.92685 14.3327C5.74073 14.4549 5.58499 14.5576 5.45237 14.6471L8 15.9265L10.5467 14.6471C10.4142 14.5577 10.259 14.4547 10.0732 14.3327L9.59588 14.0192C9.06541 13.6708 8.72937 13.4523 8.45676 13.3126C8.20502 13.1836 8.08483 13.1647 8 13.1647ZM4.65909 17.3359C4.65909 17.8464 4.66037 18.163 4.68333 18.4056C4.70434 18.6276 4.73823 18.7155 4.76816 18.7706C4.79855 18.8265 4.85513 18.9059 5.03383 19.0485C5.22755 19.2032 5.49623 19.3806 5.92685 19.6634L6.40412 19.9769C6.65723 20.1431 6.86676 20.2788 7.04545 20.3915V17.5905L4.66002 16.3925C4.65982 16.4755 4.65909 16.5644 4.65909 16.6602V17.3359ZM13.25 17.3359C13.25 17.8107 13.2509 18.2332 13.2174 18.5872C13.1819 18.9615 13.1038 19.3281 12.9079 19.6887C12.7124 20.0485 12.4477 20.3142 12.1538 20.5487C11.8749 20.7713 11.5196 21.0039 11.1181 21.2675L10.6408 21.5801C10.1447 21.9059 9.70982 22.1932 9.32462 22.3905C8.91865 22.5986 8.49316 22.748 8 22.748C7.50684 22.748 7.08135 22.5986 6.67538 22.3905C6.29018 22.1932 5.85529 21.9059 5.35915 21.5801L4.88188 21.2675C4.48042 21.0039 4.12506 20.7713 3.84624 20.5487C3.55233 20.3142 3.2876 20.0485 3.09211 19.6887C2.8962 19.3281 2.81808 18.9615 2.78263 18.5872C2.74912 18.2332 2.75 17.8107 2.75 17.3359V16.6602C2.75 16.1854 2.74912 15.7629 2.78263 15.4089C2.81808 15.0346 2.8962 14.668 3.09211 14.3074C3.2876 13.9476 3.55233 13.6819 3.84624 13.4473C4.12506 13.2248 4.48042 12.9922 4.88188 12.7286L5.35915 12.416C5.8553 12.0902 6.29018 11.8029 6.67538 11.6056C7.08135 11.3975 7.50684 11.248 8 11.248C8.49316 11.248 8.91865 11.3975 9.32462 11.6056C9.70982 11.8029 10.1447 12.0902 10.6408 12.416L11.1181 12.7286C11.5196 12.9922 11.8749 13.2248 12.1538 13.4473C12.4477 13.6819 12.7124 13.9476 12.9079 14.3074C13.1038 14.668 13.1819 15.0346 13.2174 15.4089C13.2509 15.7629 13.25 16.1854 13.25 16.6602V17.3359Z" fill="currentColor"/><path opacity="0.4" d="M12.0896 1.24815L12.0879 1.24815C10.5624 1.24813 9.15452 1.24856 8.17578 1.36338C7.16314 1.48223 6.29458 1.7355 5.55957 2.33116C5.29006 2.54963 5.0445 2.79657 4.82715 3.06749C4.23462 3.80621 3.98252 4.67866 3.86426 5.69639C3.75 6.6801 3.74998 7.91694 3.75 9.4503V11.9806C3.89884 11.8805 4.04852 11.7801 4.19531 11.6837L4.19727 11.6827L4.67383 11.3702C5.14771 11.059 5.64694 10.7282 6.10547 10.4933C6.6124 10.2335 7.23843 9.99815 8 9.99815C8.76156 9.99815 9.38761 10.2335 9.89453 10.4933C10.3528 10.7281 10.8515 11.0592 11.3252 11.3702L11.8027 11.6827L11.8047 11.6837L11.8379 11.7052C12.2123 11.951 12.6091 12.2119 12.9336 12.4708C13.3025 12.7653 13.7027 13.1531 14.0059 13.711C14.3102 14.2711 14.4172 14.8192 14.4619 15.2911C14.5022 15.7171 14.5 16.2074 14.5 16.6603V17.336C14.5 17.7889 14.5022 18.2792 14.4619 18.7052C14.4172 19.1771 14.3101 19.7252 14.0059 20.2853C13.7027 20.8433 13.3025 21.231 12.9336 21.5255C12.6091 21.7844 12.2123 22.0453 11.8379 22.2911L11.8047 22.3126L11.8027 22.3136L11.3262 22.6261L11.3252 22.6251C11.2647 22.6648 11.2027 22.7031 11.1416 22.7433C11.599 22.7465 12.0773 22.7482 12.5713 22.7481H12.5866C14.3521 22.7482 15.776 22.7482 16.8965 22.5968C18.0633 22.4391 19.0459 22.1008 19.8262 21.3165C20.6061 20.5323 20.9418 19.5448 21.0986 18.3722C21.2497 17.2426 21.25 15.8062 21.25 14.0245V10.5499C21.251 9.88665 21.2514 9.29769 21.0273 8.75401C20.8033 8.21051 20.3891 7.79445 19.9219 7.32628L15.1387 2.51866C14.7362 2.11306 14.3796 1.75391 13.9248 1.53526C13.8312 1.4903 13.7355 1.44984 13.6377 1.41514C13.1629 1.24671 12.6586 1.24739 12.0896 1.24815Z" fill="currentColor"/></svg>
