<svg xmlns="http://www.w3.org/2000/svg" viewBox="0 0 24 24" fill="none"><path d="M11.3386 16.3925L8.95406 17.5905V20.3915C9.13275 20.2788 9.34229 20.1431 9.59539 19.9769L10.0727 19.6634C10.5033 19.3806 10.772 19.2032 10.9657 19.0485C11.1444 18.9059 11.201 18.8265 11.2314 18.7706C11.2613 18.7155 11.2952 18.6276 11.3162 18.4056C11.3391 18.163 11.3404 17.8464 11.3404 17.3359V16.6602C11.3404 16.5644 11.3388 16.4755 11.3386 16.3925ZM7.99951 13.1647C7.91469 13.1647 7.79449 13.1836 7.54275 13.3126C7.27014 13.4523 6.9341 13.6708 6.40363 14.0192L5.92636 14.3327C5.74025 14.4549 5.5845 14.5576 5.45188 14.6471L7.99951 15.9265L10.5462 14.6471C10.4137 14.5577 10.2585 14.4547 10.0727 14.3327L9.59539 14.0192C9.06492 13.6708 8.72888 13.4523 8.45628 13.3126C8.20453 13.1836 8.08434 13.1647 7.99951 13.1647ZM4.6586 17.3359C4.6586 17.8464 4.65988 18.163 4.68284 18.4056C4.70385 18.6276 4.73774 18.7155 4.76767 18.7706C4.79807 18.8265 4.85464 18.9059 5.03334 19.0485C5.22706 19.2032 5.49574 19.3806 5.92636 19.6634L6.40363 19.9769C6.65674 20.1431 6.86627 20.2788 7.04497 20.3915V17.5905L4.65954 16.3925C4.65933 16.4755 4.6586 16.5644 4.6586 16.6602V17.3359ZM13.2495 17.3359C13.2495 17.8107 13.2504 18.2332 13.2169 18.5872C13.1814 18.9615 13.1033 19.3281 12.9074 19.6887C12.7119 20.0485 12.4472 20.3142 12.1533 20.5487C11.8744 20.7713 11.5191 21.0039 11.1176 21.2675L10.6404 21.5801C10.1442 21.9059 9.70934 22.1932 9.32413 22.3905C8.91816 22.5986 8.49267 22.748 7.99951 22.748C7.50635 22.748 7.08086 22.5986 6.67489 22.3905C6.28969 22.1932 5.85481 21.9059 5.35867 21.5801L4.88139 21.2675C4.47993 21.0039 4.12457 20.7713 3.84575 20.5487C3.55185 20.3142 3.28712 20.0485 3.09162 19.6887C2.89571 19.3281 2.8176 18.9615 2.78214 18.5872C2.74863 18.2332 2.74951 17.8107 2.74951 17.3359V16.6602C2.74951 16.1854 2.74863 15.7629 2.78214 15.4089C2.8176 15.0346 2.89571 14.668 3.09162 14.3074C3.28712 13.9476 3.55185 13.6819 3.84575 13.4473C4.12457 13.2248 4.47993 12.9922 4.88139 12.7286L5.35867 12.416C5.85481 12.0902 6.28969 11.8029 6.67489 11.6056C7.08086 11.3975 7.50635 11.248 7.99951 11.248C8.49267 11.248 8.91816 11.3975 9.32413 11.6056C9.70934 11.8029 10.1442 12.0902 10.6404 12.416L11.1176 12.7286C11.5191 12.9922 11.8745 13.2248 12.1533 13.4473C12.4472 13.6819 12.7119 13.9476 12.9074 14.3074C13.1033 14.668 13.1814 15.0346 13.2169 15.4089C13.2504 15.7629 13.2495 16.1854 13.2495 16.6602V17.3359Z" fill="currentColor"/><path d="M12.0874 1.24815C12.6571 1.24739 13.1619 1.24654 13.6372 1.41514C13.735 1.44984 13.8308 1.4903 13.9243 1.53526C14.3791 1.75391 14.7358 2.11306 15.1382 2.51866L19.9214 7.32628C20.3886 7.79445 20.8028 8.21051 21.0269 8.75401C21.2509 9.29769 21.2505 9.88665 21.2495 10.5499V14.0245C21.2495 15.8062 21.2492 17.2426 21.0981 18.3722C20.9413 19.5448 20.6056 20.5323 19.8257 21.3165C19.0454 22.1008 18.0628 22.4391 16.896 22.5968C15.7722 22.7486 14.3434 22.7482 12.5708 22.7481C12.0768 22.7482 11.5985 22.7465 11.1411 22.7433C11.2022 22.7031 11.2643 22.6648 11.3247 22.6251L11.3257 22.6261L11.8022 22.3136L11.8042 22.3126L11.8374 22.2911C12.2118 22.0453 12.6086 21.7844 12.9331 21.5255C13.302 21.231 13.7022 20.8433 14.0054 20.2853C14.3097 19.7252 14.4167 19.1771 14.4614 18.7052C14.5017 18.2792 14.4995 17.7889 14.4995 17.336V16.6603C14.4995 16.2074 14.5017 15.7171 14.4614 15.2911C14.4167 14.8192 14.3097 14.2711 14.0054 13.711C13.7022 13.1531 13.302 12.7653 12.9331 12.4708C12.6086 12.2119 12.2118 11.951 11.8374 11.7052L11.8042 11.6837L11.8022 11.6827L11.3247 11.3702C10.851 11.0592 10.3523 10.7281 9.89404 10.4933C9.38712 10.2335 8.76107 9.99815 7.99951 9.99815C7.23794 9.99815 6.61191 10.2335 6.10498 10.4933C5.64645 10.7282 5.14722 11.059 4.67334 11.3702L4.19678 11.6827L4.19482 11.6837C4.04803 11.7801 3.89835 11.8805 3.74951 11.9806V9.4503C3.74949 7.91694 3.74951 6.6801 3.86377 5.69639C3.98203 4.67866 4.23413 3.80621 4.82666 3.06749C5.04401 2.79657 5.28957 2.54963 5.55908 2.33116C6.29409 1.7355 7.16265 1.48223 8.17529 1.36338C9.15403 1.24856 10.5619 1.24813 12.0874 1.24815ZM12.9897 3.26866C12.9897 4.62995 12.9897 5.27785 13.106 6.14268C13.2269 7.04251 13.4859 7.80062 14.0874 8.40245C14.6893 9.00436 15.448 9.26385 16.3481 9.38487C17.2149 9.50138 17.8636 9.50208 19.231 9.50206C19.1741 9.36429 19.0685 9.23344 18.4507 8.61241L13.8462 3.9835C13.3133 3.44787 13.1714 3.31455 12.9897 3.25987V3.26866Z" fill="currentColor" fill-rule="evenodd" clip-rule="evenodd"/></svg>
