<svg xmlns="http://www.w3.org/2000/svg" fill="none" viewBox="0 0 48 48">
  <g>
    <path fill="currentColor" fill-opacity="0.4" d="M16.1909 45.2857c2.568 0 5.1359 -1.0136 7.0952 -3.0408 1.9593 2.0272 4.5273 3.0408 7.0953 3.0408s5.1359 -1.0136 7.0952 -3.0408c1.9593 2.0272 4.5273 3.0408 7.0952 3.0408h1.5205v-8.1088h-1.5205c-2.5679 0 -5.1359 -1.0136 -7.0952 -3.0408 -1.9593 2.0272 -4.5273 3.0408 -7.0952 3.0408s-5.136 -1.0136 -7.0953 -3.0408c-1.9593 2.0272 -4.5273 3.0408 -7.0952 3.0408s-5.136 -1.0136 -7.0953 -3.0408c-1.9593 2.0272 -4.5272 3.0408 -7.0952 3.0408H0.48v8.1088h1.5204c2.568 0 5.136 -1.0136 7.0953 -3.0408 1.9593 2.0272 4.5272 3.0408 7.0952 3.0408Z" stroke-width="1"></path>
    <path fill="#8fbffa" fill-rule="evenodd" d="M0.48 29.5748c2.534 -0.5068 5.1274 -2.0935 6.4325 -4.899 1.3694 2.8565 6.0036 4.3922 9.2784 4.3922 6.5494 0 11.1496 -4.0544 11.1496 -9.1224 0 -4.2694 -2.6751 -8.2415 -7.3775 -8.8813 -2.2387 -0.3046 -4.132 -2.183 -2.6713 -3.9067 1.9705 -2.3254 5.3924 -4.4433 10.9066 -4.4433 8.2134 0 14.3244 4.6629 17.8013 11.6565l0.0926 22.8061h-1.5204c-2.5679 0 -5.1359 -1.0136 -7.0952 -3.0409 -1.9593 2.0273 -4.5273 3.0409 -7.0952 3.0409s-5.136 -1.0136 -7.0953 -3.0409c-1.9593 2.0273 -4.5273 3.0409 -7.0952 3.0409s-5.136 -1.0136 -7.0953 -3.0409c-1.9593 2.0273 -4.5272 3.0409 -7.0952 3.0409H0.48v-7.6021Z" clip-rule="evenodd" stroke-width="1"></path>
    <path stroke="currentColor" stroke-linecap="round" stroke-linejoin="round" d="M2.0004 45.2857c2.568 0 5.136 -1.0136 7.0953 -3.0408 1.9593 2.0272 4.5272 3.0408 7.0952 3.0408s5.1359 -1.0136 7.0952 -3.0408c1.9593 2.0272 4.5273 3.0408 7.0953 3.0408s5.1359 -1.0136 7.0952 -3.0408c1.9593 2.0272 4.5273 3.0408 7.0953 3.0408" stroke-width="1"></path>
    <path stroke="currentColor" stroke-linecap="round" stroke-linejoin="round" d="M2.0004 37.1769c2.568 0 5.136 -1.0136 7.0953 -3.0409 1.9593 2.0273 4.5272 3.0409 7.0952 3.0409s5.1359 -1.0136 7.0952 -3.0409c1.9593 2.0273 4.5273 3.0409 7.0953 3.0409s5.1359 -1.0136 7.0952 -3.0409c1.9593 2.0273 4.5273 3.0409 7.0953 3.0409" stroke-width="1"></path>
    <path stroke="currentColor" stroke-linecap="round" stroke-linejoin="round" d="M2.0004 29.068c2.1914 -0.5826 4.0341 -2.5047 4.9121 -4.3922 1.3694 2.8565 6.0036 4.3922 9.2784 4.3922 6.5494 0 11.1496 -4.0544 11.1496 -9.1224 0 -4.2694 -2.6751 -8.2415 -7.3775 -8.8813 -2.2387 -0.3046 -4.132 -2.183 -2.6713 -3.9067 1.9705 -2.3254 5.3924 -4.4433 10.9066 -4.4433 8.2133 0 14.3243 4.6629 17.8013 11.6563" stroke-width="1"></path>
  </g>
</svg>
