<svg xmlns="http://www.w3.org/2000/svg" fill="none" viewBox="0 0 48 48">
  <g>
    <path fill="currentColor" fill-opacity="0.4" fill-rule="evenodd" d="M15.0109 9.54783C16.4782 6.02068 20.5616 1.5 28.8462 1.5c9.7171 0 15.6513 6.19457 17.463 9.4346 0.1251 0.2237 0.1908 0.4757 0.1908 0.7321v20.0906c-0.4769 -0.1686 -0.9836 -0.2573 -1.5 -0.2573 -1.3391 0 -2.6968 -0.5229 -3.7643 -1.6273C40.3878 28.9954 39.2201 28.5 38 28.5c-1.22 0 -2.3878 0.4954 -3.2357 1.3727C33.6969 30.9771 32.3391 31.5 31 31.5c-1.3391 0 -2.6968 -0.5229 -3.7643 -1.6273C26.3878 28.9954 25.2201 28.5 24 28.5c-1.22 0 -2.3878 0.4954 -3.2357 1.3727C19.6969 30.9771 18.3391 31.5 17 31.5c-1.3391 0 -2.6968 -0.5229 -3.7643 -1.6273C12.3878 28.9954 11.2201 28.5 10 28.5c-1.22005 0 -2.38781 0.4954 -3.23571 1.3727C5.69686 30.9771 4.33912 31.5 3.00001 31.5c-0.51637 0 -1.02309 0.0887 -1.50001 0.2574V28c0 -0.68 0.45742 -1.2749 1.11457 -1.4496 1.62334 -0.4317 3.13966 -1.9431 3.87154 -3.5164 0.24475 -0.5262 0.77105 -0.8639 1.35134 -0.8673 0.58029 -0.0034 1.11047 0.3283 1.36132 0.8516 0.44782 0.9341 1.53933 1.8238 3.10733 2.4919 1.5329 0.6531 3.2838 0.9898 4.6939 0.9898 3.0211 0 5.4389 -0.7042 7.0564 -1.8493C25.627 23.5388 26.5 21.9829 26.5 20c0 -2.1853 -0.8304 -4.2156 -2.2883 -5.571 -1.4281 -1.3276 -3.5739 -2.1166 -6.4663 -1.6397 -0.8408 0.1386 -1.6829 -0.1395 -2.2518 -0.722 -0.6011 -0.6154 -0.8772 -1.5712 -0.4827 -2.51947Z" clip-rule="evenodd" stroke-width="3.429"></path>
    <path fill="currentColor" fill-rule="evenodd" d="M11.0786 31.9576C10.7959 31.6651 10.4067 31.5 10 31.5c-0.40668 0 -0.79594 0.1651 -1.07857 0.4576C7.277 33.659 5.13544 34.5 3 34.5c-0.41861 0 -0.81818 0.1749 -1.10214 0.4825 -0.28396 0.3076 -0.42646 0.7199 -0.39308 1.1371 0.09748 1.2183 0.23781 2.4947 0.38231 3.6606 0.41218 3.3254 3.06956 5.8846 6.41848 6.1479C11.778 46.2011 17.1446 46.5 24 46.5c6.8554 0 12.222 -0.2989 15.6944 -0.5719 3.349 -0.2633 6.0063 -2.8225 6.4185 -6.1479 0.1445 -1.1659 0.2849 -2.4423 0.3823 -3.6606 0.0334 -0.4172 -0.1091 -0.8295 -0.3931 -1.1371 -0.2839 -0.3076 -0.6835 -0.4825 -1.1021 -0.4825 -2.1354 0 -4.277 -0.841 -5.9214 -2.5424 -0.2827 -0.2925 -0.6719 -0.4576 -1.0786 -0.4576 -0.4067 0 -0.7959 0.1651 -1.0786 0.4576C35.277 33.659 33.1354 34.5 31 34.5s-4.277 -0.841 -5.9214 -2.5424C24.7959 31.6651 24.4067 31.5 24 31.5c-0.4067 0 -0.7959 0.1651 -1.0786 0.4576C21.277 33.659 19.1354 34.5 17 34.5s-4.277 -0.841 -5.9214 -2.5424Z" clip-rule="evenodd" stroke-width="3.429"></path>
    <path fill="currentColor" fill-opacity="0.4" fill-rule="evenodd" d="M46.1488 39.487h-1.6082c-1.98 -0.1121 -3.9349 -0.9493 -5.4621 -2.5294 -0.2826 -0.2925 -0.6719 -0.4576 -1.0786 -0.4576 -0.4067 0 -0.7959 0.1651 -1.0785 0.4576 -1.6445 1.7014 -3.786 2.5424 -5.9215 2.5424 -2.1354 0 -4.277 -0.841 -5.9214 -2.5424 -0.2826 -0.2925 -0.6719 -0.4576 -1.0786 -0.4576 -0.4067 0 -0.7959 0.1651 -1.0785 0.4576 -1.6445 1.7014 -3.786 2.5424 -5.9215 2.5424 -2.1354 0 -4.277 -0.841 -5.9214 -2.5424 -0.2826 -0.2925 -0.6719 -0.4576 -1.07856 -0.4576 -0.40669 0 -0.79595 0.1651 -1.07858 0.4576 -1.52716 1.5801 -3.48213 2.4173 -5.46205 2.5294H1.85107c0.01195 0.0984 0.02394 0.1962 0.03596 0.2932 0.12175 0.9822 0.4394 1.8977 0.9129 2.7068h0.7c0.02598 0 0.05196 -0.0007 0.0779 -0.002 2.28306 -0.1187 4.53388 -0.9416 6.4221 -2.458C12.0479 41.6718 14.5217 42.5 16.9999 42.5s4.9521 -0.8282 7 -2.473c2.048 1.6448 4.5218 2.473 7 2.473 2.4783 0 4.9521 -0.8282 7 -2.473 1.8883 1.5164 4.1391 2.3393 6.4221 2.458 0.026 0.0013 0.052 0.002 0.0779 0.002h0.7c0.4736 -0.8091 0.7912 -1.7246 0.913 -2.7068 0.012 -0.097 0.024 -0.1948 0.0359 -0.2932Z" clip-rule="evenodd" stroke-width="3.429"></path>
  </g>
</svg>
