<svg xmlns="http://www.w3.org/2000/svg" fill="none" viewBox="0 0 48 48">
  <g>
    <path fill="currentColor" fill-rule="evenodd" d="M28.0075 5.5c-4.6149 0 -7.3049 1.78236 -8.8148 3.59178 0.0909 0.1064 0.2577 0.25062 0.5149 0.38828 0.2697 0.1443 0.5903 0.25488 0.9235 0.30838 5.577 0.89556 8.5577 5.81386 8.5577 10.71156 0 6.3676 -5.5695 11 -12.6431 11 -1.8464 0 -4.0079 -0.439 -5.9165 -1.2795 -0.94615 -0.4166 -1.91078 -0.9686 -2.75535 -1.6768 -1.11846 1.3007 -2.60298 2.4064 -4.34389 2.8848 -1.06508 0.2927 -2.16577 -0.3335 -2.45846 -1.3986 -0.292678 -1.065 0.33348 -2.1657 1.39857 -2.4584 1.35709 -0.3729 2.72418 -1.7351 3.39506 -3.2257 0.32131 -0.7139 1.02958 -1.1747 1.81242 -1.1791 0.78284 -0.0044 1.49631 0.4483 1.8257 1.1584 0.3614 0.7792 1.28645 1.5954 2.73805 2.2347 1.4116 0.6216 3.0249 0.9402 4.3044 0.9402 5.4301 0 8.6431 -3.3676 8.6431 -7 0 -3.4211 -1.9995 -6.2495 -5.1919 -6.7621 -1.4838 -0.2383 -3.0031 -0.9859 -3.9507 -2.1754 -0.4903 -0.6155 -0.8791 -1.422 -0.9079 -2.36856 -0.0296 -0.973 0.3284 -1.87392 0.9493 -2.62417C18.3542 3.83108 22.1785 1.5 28.0075 1.5c8.7689 0 15.2182 5.19772 18.7948 12.6328 0.4789 0.9954 0.0601 2.1905 -0.9353 2.6693 -0.9954 0.4789 -2.1905 0.0601 -2.6693 -0.9353C40.1364 9.50292 34.9191 5.5 28.0075 5.5Zm-8.883 3.49535c-0.001 -0.00209 -0.0014 -0.00313 -0.0013 -0.00313l0.0013 0.00313ZM7.29742 34.6756c1.61407 -1.0948 3.79118 -1.0948 5.40518 0 1.3036 0.8842 2.8011 1.3243 4.2974 1.3243 1.4964 0 2.9938 -0.4401 4.2974 -1.3243 1.6141 -1.0948 3.7912 -1.0948 5.4052 0 1.3036 0.8842 2.8011 1.3243 4.2974 1.3243 1.4964 0 2.9938 -0.4401 4.2974 -1.3243 1.6141 -1.0948 3.7912 -1.0948 5.4052 0 1.3036 0.8842 2.8011 1.3243 4.2974 1.3243 1.1046 0 2 0.8954 2 2s-0.8954 2 -2 2c-2.2831 0 -4.5652 -0.6727 -6.5427 -2.014 -0.2584 -0.1752 -0.6561 -0.1752 -0.9145 0 -1.9775 1.3413 -4.2596 2.014 -6.5428 2.014 -2.2831 0 -4.5652 -0.6727 -6.5427 -2.014 -0.2584 -0.1752 -0.6561 -0.1752 -0.9145 0 -1.9775 1.3413 -4.2596 2.014 -6.5428 2.014 -2.2831 0 -4.5652 -0.6727 -6.5427 -2.014 -0.2584 -0.1752 -0.65614 -0.1752 -0.91452 0 -1.9775 1.3413 -4.25958 2.014 -6.54275 2.014 -1.10457 0 -2 -0.8954 -2 -2s0.89543 -2 2 -2c1.49635 0 2.99379 -0.4401 4.29739 -1.3243Zm33.40518 6.5c-1.614 -1.0948 -3.7911 -1.0948 -5.4052 0 -1.3036 0.8842 -2.801 1.3243 -4.2974 1.3243 -1.4963 0 -2.9938 -0.4401 -4.2974 -1.3243 -1.614 -1.0948 -3.7911 -1.0948 -5.4052 0 -1.3036 0.8842 -2.801 1.3243 -4.2974 1.3243 -1.4963 0 -2.9938 -0.4401 -4.2974 -1.3243 -1.614 -1.0948 -3.79111 -1.0948 -5.40518 0 -1.3036 0.8842 -2.80104 1.3243 -4.29739 1.3243 -1.10457 0 -2 0.8954 -2 2s0.89543 2 2 2H45c1.1046 0 2 -0.8954 2 -2s-0.8954 -2 -2 -2c-1.4963 0 -2.9938 -0.4401 -4.2974 -1.3243Z" clip-rule="evenodd" stroke-width="3.429"></path>
  </g>
</svg>
