<svg xmlns="http://www.w3.org/2000/svg" fill="none" viewBox="0 0 48 48">
  <g>
    <path fill="currentColor" fill-rule="evenodd" d="M28.8462 1.5c-8.2846 0 -12.368 4.52068 -13.8353 8.04783 -0.3945 0.94827 -0.1184 1.90407 0.4827 2.51947 0.5689 0.5825 1.411 0.8606 2.2518 0.722 2.8924 -0.4769 5.0382 0.3121 6.4663 1.6397C25.6696 15.7844 26.5 17.8147 26.5 20c0 1.9829 -0.873 3.5388 -2.4436 4.6507C22.4389 25.7958 20.0211 26.5 17 26.5c-1.4101 0 -3.161 -0.3367 -4.6939 -0.9898 -1.568 -0.6681 -2.65951 -1.5578 -3.10733 -2.4919 -0.25085 -0.5233 -0.78103 -0.855 -1.36132 -0.8516 -0.58029 0.0034 -1.10659 0.3411 -1.35134 0.8673 -0.73188 1.5733 -2.2482 3.0847 -3.87154 3.5164C1.95742 26.7251 1.5 27.32 1.5 28v3.7574c0.47692 -0.1687 0.98364 -0.2574 1.50001 -0.2574 1.33911 0 2.69685 -0.5229 3.76428 -1.6273C7.61219 28.9954 8.77995 28.5 10 28.5c1.2201 0 2.3878 0.4954 3.2357 1.3727C14.3032 30.9771 15.6609 31.5 17 31.5c1.3391 0 2.6969 -0.5229 3.7643 -1.6273C21.6122 28.9954 22.78 28.5 24 28.5c1.2201 0 2.3878 0.4954 3.2357 1.3727C28.3032 30.9771 29.6609 31.5 31 31.5c1.3391 0 2.6969 -0.5229 3.7643 -1.6273C35.6122 28.9954 36.78 28.5 38 28.5c1.2201 0 2.3878 0.4954 3.2357 1.3727C42.3032 30.9771 43.6609 31.5 45 31.5c0.5164 0 1.0231 0.0887 1.5 0.2573V11.6667c0 -0.2564 -0.0657 -0.5084 -0.1908 -0.7321C44.4975 7.69457 38.5633 1.5 28.8462 1.5ZM11.0786 31.9576C10.7959 31.6651 10.4067 31.5 10 31.5c-0.40668 0 -0.79594 0.1651 -1.07857 0.4576C7.277 33.659 5.13544 34.5 3 34.5c-0.41861 0 -0.81818 0.1749 -1.10214 0.4825 -0.28396 0.3076 -0.42646 0.7199 -0.39308 1.1371 0.08937 1.1169 0.21476 2.2827 0.34636 3.3674h1.60823c1.97992 -0.1121 3.93489 -0.9493 5.46205 -2.5294 0.28264 -0.2925 0.6719 -0.4576 1.07858 -0.4576 0.4067 0 0.7959 0.1651 1.0786 0.4576C12.723 38.659 14.8646 39.5 17 39.5s4.277 -0.841 5.9214 -2.5424c0.2827 -0.2925 0.6719 -0.4576 1.0786 -0.4576 0.4067 0 0.7959 0.1651 1.0786 0.4576C26.723 38.659 28.8646 39.5 31 39.5s4.277 -0.841 5.9214 -2.5424c0.2827 -0.2925 0.6719 -0.4576 1.0786 -0.4576 0.4067 0 0.7959 0.1651 1.0786 0.4576 1.5271 1.5801 3.4821 2.4173 5.462 2.5294h1.6083c0.1316 -1.0847 0.257 -2.2505 0.3463 -3.3674 0.0334 -0.4172 -0.1091 -0.8295 -0.3931 -1.1371 -0.2839 -0.3076 -0.6835 -0.4825 -1.1021 -0.4825 -2.1354 0 -4.277 -0.841 -5.9214 -2.5424 -0.2827 -0.2925 -0.6719 -0.4576 -1.0786 -0.4576 -0.4067 0 -0.7959 0.1651 -1.0786 0.4576C35.277 33.659 33.1354 34.5 31 34.5s-4.277 -0.841 -5.9214 -2.5424C24.7959 31.6651 24.4067 31.5 24 31.5c-0.4067 0 -0.7959 0.1651 -1.0786 0.4576C21.277 33.659 19.1354 34.5 17 34.5s-4.277 -0.841 -5.9214 -2.5424ZM8.30557 45.9281C5.94587 45.7426 3.9295 44.4172 2.8 42.487h0.7c0.02598 0 0.05196 -0.0007 0.0779 -0.002 2.28305 -0.1187 4.53388 -0.9416 6.42209 -2.458C12.0479 41.6718 14.5218 42.5 17 42.5c2.4782 0 4.9521 -0.8282 7 -2.473 2.0479 1.6448 4.5218 2.473 7 2.473s4.9521 -0.8282 7 -2.473c1.8882 1.5164 4.139 2.3393 6.4221 2.458 0.0259 0.0013 0.0519 0.002 0.0779 0.002h0.7c-1.1295 1.9302 -3.1459 3.2556 -5.5056 3.4411 -3.4724 0.273 -8.839 0.5719 -15.6944 0.5719 -6.8554 0 -12.222 -0.2989 -15.69443 -0.5719Z" clip-rule="evenodd" stroke-width="3.429"></path>
  </g>
</svg>
