<svg xmlns="http://www.w3.org/2000/svg" viewBox="0 0 24 24" fill="none"><path opacity="0.4" d="M8.61957 20.2661C9.05739 20.2834 9.53455 20.2926 10.0562 20.2976C10.5951 20.303 11.028 20.7443 11.0229 21.2833C11.0176 21.8223 10.5762 22.2551 10.0371 22.25C9.50493 22.2449 9.0069 22.235 8.54236 22.2166C8.00391 22.1951 7.58512 21.7417 7.60621 21.2032C7.62751 20.6646 8.08095 20.2449 8.61957 20.2661ZM15.3804 20.2661C15.919 20.245 16.3725 20.6646 16.3938 21.2032C16.4149 21.7417 15.9961 22.1951 15.4576 22.2166C14.9931 22.235 14.4951 22.2449 13.9629 22.25C13.4238 22.2551 12.9824 21.8223 12.9771 21.2833C12.972 20.7443 13.4049 20.303 13.9438 20.2976C14.4654 20.2926 14.9426 20.2834 15.3804 20.2661ZM2.94454 17.9458C3.43701 17.7264 4.014 17.9481 4.23341 18.4405C4.37284 18.7535 4.54768 19.0074 4.77012 19.2299C4.99256 19.4523 5.24654 19.6272 5.55946 19.7666C6.05193 19.986 6.27363 20.563 6.05423 21.0555C5.83475 21.5478 5.25775 21.7687 4.76536 21.5493C4.24714 21.3184 3.79012 21.0126 3.38878 20.6112C2.98744 20.2099 2.68161 19.7529 2.45073 19.2346C2.23135 18.7422 2.45222 18.1653 2.94454 17.9458ZM19.7666 18.4405C19.986 17.9481 20.563 17.7264 21.0555 17.9458C21.5478 18.1653 21.7687 18.7422 21.5493 19.2346C21.3184 19.7529 21.0126 20.2099 20.6112 20.6112C20.2099 21.0126 19.7529 21.3184 19.2346 21.5493C18.7422 21.7687 18.1653 21.5478 17.9458 21.0555C17.7264 20.563 17.9481 19.986 18.4405 19.7666C18.7535 19.6272 19.0074 19.4523 19.2299 19.2299C19.4523 19.0074 19.6272 18.7535 19.7666 18.4405ZM2.7167 12.9771C3.25568 12.972 3.69706 13.4049 3.70242 13.9438C3.70741 14.4655 3.71657 14.9426 3.73388 15.3804C3.75503 15.919 3.3354 16.3725 2.79678 16.3938C2.25835 16.4149 1.8049 15.9961 1.78341 15.4576C1.76505 14.9931 1.75514 14.4951 1.75005 13.9629C1.74489 13.4238 2.17768 12.9824 2.7167 12.9771ZM21.2833 12.9771C21.8223 12.9824 22.2551 13.4238 22.25 13.9629C22.2449 14.4951 22.235 14.9931 22.2166 15.4576C22.1951 15.9961 21.7417 16.4149 21.2032 16.3938C20.6646 16.3725 20.245 15.919 20.2661 15.3804C20.2834 14.9426 20.2926 14.4655 20.2976 13.9438C20.3029 13.4049 20.7443 12.972 21.2833 12.9771ZM2.79678 7.60621C3.33541 7.6275 3.75505 8.08096 3.73388 8.61957C3.71657 9.0574 3.70741 9.53453 3.70242 10.0562C3.69706 10.5951 3.25568 11.028 2.7167 11.0229C2.17768 11.0176 1.74489 10.5762 1.75005 10.0371C1.75514 9.50492 1.76504 9.00691 1.78341 8.54236C1.80488 8.00392 2.25833 7.58512 2.79678 7.60621ZM21.2032 7.60621C21.7417 7.58512 22.1951 8.00392 22.2166 8.54236C22.235 9.00689 22.2449 9.50494 22.25 10.0371C22.2551 10.5762 21.8223 11.0176 21.2833 11.0229C20.7443 11.028 20.303 10.5951 20.2976 10.0562C20.2926 9.53456 20.2834 9.05738 20.2661 8.61957C20.2449 8.08096 20.6646 7.6275 21.2032 7.60621ZM4.76536 2.45073C5.25775 2.23135 5.83475 2.45222 6.05423 2.94454C6.27363 3.43701 6.05193 4.014 5.55946 4.23341C5.24654 4.37284 4.99256 4.54768 4.77012 4.77012C4.54768 4.99256 4.37284 5.24654 4.23341 5.55946C4.014 6.05193 3.43701 6.27363 2.94454 6.05423C2.45222 5.83475 2.23135 5.25775 2.45073 4.76535C2.68161 4.24714 2.98744 3.79012 3.38878 3.38878C3.79012 2.98744 4.24714 2.68161 4.76536 2.45073ZM17.9458 2.94454C18.1653 2.45222 18.7422 2.23135 19.2346 2.45073C19.7529 2.68161 20.2099 2.98744 20.6112 3.38878C21.0126 3.79011 21.3184 4.24714 21.5493 4.76535C21.7687 5.25775 21.5478 5.83475 21.0555 6.05423C20.563 6.27363 19.986 6.05193 19.7666 5.55946C19.6272 5.24654 19.4523 4.99256 19.2299 4.77012C19.0074 4.54768 18.7535 4.37284 18.4405 4.23341C17.9481 4.014 17.7264 3.43701 17.9458 2.94454ZM10.0371 1.75005C10.5762 1.74492 11.0176 2.1777 11.0229 2.7167C11.028 3.25566 10.5951 3.69702 10.0562 3.70242C9.53456 3.70741 9.05738 3.71657 8.61957 3.73388C8.08096 3.75505 7.6275 3.33541 7.60621 2.79678C7.58512 2.25833 8.00392 1.80488 8.54236 1.78341C9.00689 1.76504 9.50494 1.75514 10.0371 1.75005ZM13.9629 1.75005C14.4951 1.75514 14.9931 1.76504 15.4576 1.78341C15.9961 1.80488 16.4149 2.25833 16.3938 2.79678C16.3725 3.33541 15.919 3.75505 15.3804 3.73388C14.9426 3.71657 14.4654 3.70741 13.9438 3.70242C13.4049 3.69702 12.972 3.25566 12.9771 2.7167C12.9824 2.1777 13.4238 1.74492 13.9629 1.75005Z" fill="currentColor"/><path d="M11 12V8C11 7.44772 11.4477 7 12 7C12.5523 7 13 7.44772 13 8V12C13 12.5523 12.5523 13 12 13C11.4477 13 11 12.5523 11 12Z" fill="currentColor"/><path d="M7 14V8C7 7.44772 7.44772 7 8 7C8.55228 7 9 7.44772 9 8V14C9 14.5523 8.55228 15 8 15C7.44772 15 7 14.5523 7 14Z" fill="currentColor"/><path d="M15 16V8C15 7.44772 15.4477 7 16 7C16.5523 7 17 7.44772 17 8V16C17 16.5523 16.5523 17 16 17C15.4477 17 15 16.5523 15 16Z" fill="currentColor"/></svg>
