<svg xmlns="http://www.w3.org/2000/svg" viewBox="0 0 24 24" fill="none"><path d="M8.61921 20.2661C9.05702 20.2834 9.53418 20.2926 10.0558 20.2976C10.5947 20.303 11.0276 20.7443 11.0225 21.2833C11.0172 21.8223 10.5758 22.2551 10.0368 22.25C9.50457 22.2449 9.00653 22.235 8.54199 22.2166C8.00354 22.1951 7.58475 21.7417 7.60584 21.2032C7.62714 20.6646 8.08058 20.2449 8.61921 20.2661ZM15.3801 20.2661C15.9187 20.245 16.3721 20.6646 16.3934 21.2032C16.4145 21.7417 15.9957 22.1951 15.4573 22.2166C14.9927 22.235 14.4947 22.2449 13.9625 22.25C13.4235 22.2551 12.982 21.8223 12.9768 21.2833C12.9716 20.7443 13.4045 20.303 13.9434 20.2976C14.4651 20.2926 14.9423 20.2834 15.3801 20.2661ZM2.94417 17.9458C3.43664 17.7264 4.01363 17.9481 4.23304 18.4405C4.37247 18.7535 4.54732 19.0074 4.76976 19.2299C4.99219 19.4523 5.24618 19.6272 5.55909 19.7666C6.05156 19.986 6.27327 20.563 6.05386 21.0555C5.83438 21.5478 5.25739 21.7687 4.76499 21.5493C4.24678 21.3184 3.78975 21.0126 3.38841 20.6112C2.98708 20.2099 2.68124 19.7529 2.45036 19.2346C2.23098 18.7422 2.45185 18.1653 2.94417 17.9458ZM19.7662 18.4405C19.9856 17.9481 20.5626 17.7264 21.0551 17.9458C21.5474 18.1653 21.7683 18.7422 21.5489 19.2346C21.318 19.7529 21.0122 20.2099 20.6109 20.6112C20.2095 21.0126 19.7525 21.3184 19.2343 21.5493C18.7419 21.7687 18.1649 21.5478 17.9454 21.0555C17.726 20.563 17.9477 19.986 18.4402 19.7666C18.7531 19.6272 19.0071 19.4523 19.2295 19.2299C19.452 19.0074 19.6268 18.7535 19.7662 18.4405ZM2.71633 12.9771C3.25532 12.972 3.6967 13.4049 3.70205 13.9438C3.70704 14.4655 3.7162 14.9426 3.73351 15.3804C3.75466 15.919 3.33503 16.3725 2.79641 16.3938C2.25798 16.4149 1.80453 15.9961 1.78305 15.4576C1.76468 14.9931 1.75477 14.4951 1.74968 13.9629C1.74452 13.4238 2.17731 12.9824 2.71633 12.9771ZM21.2829 12.9771C21.822 12.9824 22.2547 13.4238 22.2496 13.9629C22.2445 14.4951 22.2346 14.9931 22.2162 15.4576C22.1947 15.9961 21.7413 16.4149 21.2029 16.3938C20.6642 16.3725 20.2446 15.919 20.2658 15.3804C20.2831 14.9426 20.2922 14.4655 20.2972 13.9438C20.3026 13.4049 20.744 12.972 21.2829 12.9771ZM2.79641 7.60621C3.33505 7.6275 3.75468 8.08096 3.73351 8.61957C3.7162 9.0574 3.70704 9.53453 3.70205 10.0562C3.69669 10.5951 3.25532 11.028 2.71633 11.0229C2.17731 11.0176 1.74452 10.5762 1.74968 10.0371C1.75477 9.50492 1.76468 9.00691 1.78305 8.54236C1.80451 8.00392 2.25797 7.58512 2.79641 7.60621ZM21.2029 7.60621C21.7413 7.58512 22.1948 8.00392 22.2162 8.54236C22.2346 9.00689 22.2445 9.50494 22.2496 10.0371C22.2547 10.5762 21.8219 11.0176 21.2829 11.0229C20.744 11.028 20.3026 10.5951 20.2972 10.0562C20.2922 9.53456 20.2831 9.05738 20.2658 8.61957C20.2446 8.08096 20.6642 7.6275 21.2029 7.60621ZM4.76499 2.45073C5.25739 2.23135 5.83438 2.45222 6.05386 2.94454C6.27327 3.43701 6.05156 4.014 5.55909 4.23341C5.24618 4.37284 4.99219 4.54768 4.76976 4.77012C4.54732 4.99256 4.37247 5.24654 4.23304 5.55946C4.01363 6.05193 3.43664 6.27363 2.94417 6.05423C2.45185 5.83475 2.23098 5.25775 2.45036 4.76535C2.68124 4.24714 2.98708 3.79012 3.38841 3.38878C3.78975 2.98744 4.24678 2.68161 4.76499 2.45073ZM17.9454 2.94454C18.1649 2.45222 18.7419 2.23135 19.2343 2.45073C19.7525 2.68161 20.2095 2.98744 20.6109 3.38878C21.0122 3.79011 21.318 4.24714 21.5489 4.76535C21.7683 5.25775 21.5474 5.83475 21.0551 6.05423C20.5626 6.27363 19.9856 6.05193 19.7662 5.55946C19.6268 5.24654 19.452 4.99256 19.2295 4.77012C19.0071 4.54768 18.7531 4.37284 18.4402 4.23341C17.9477 4.014 17.726 3.43701 17.9454 2.94454ZM10.0368 1.75005C10.5758 1.74492 11.0172 2.1777 11.0225 2.7167C11.0277 3.25566 10.5947 3.69702 10.0558 3.70242C9.53419 3.70741 9.05701 3.71657 8.61921 3.73388C8.0806 3.75505 7.62714 3.33541 7.60584 2.79678C7.58475 2.25833 8.00356 1.80488 8.54199 1.78341C9.00653 1.76504 9.50458 1.75514 10.0368 1.75005ZM13.9625 1.75005C14.4947 1.75514 14.9927 1.76504 15.4573 1.78341C15.9957 1.80488 16.4145 2.25833 16.3934 2.79678C16.3721 3.33541 15.9187 3.75505 15.3801 3.73388C14.9423 3.71657 14.4651 3.70741 13.9434 3.70242C13.4045 3.69702 12.9716 3.25566 12.9768 2.7167C12.982 2.1777 13.4235 1.74492 13.9625 1.75005Z" fill="currentColor"/><path d="M10.9996 12V8C10.9996 7.44772 11.4473 7 11.9996 7C12.5519 7 12.9996 7.44772 12.9996 8V12C12.9996 12.5523 12.5519 13 11.9996 13C11.4473 13 10.9996 12.5523 10.9996 12Z" fill="currentColor"/><path d="M6.99963 14V8C6.99963 7.44772 7.44735 7 7.99963 7C8.55192 7 8.99963 7.44772 8.99963 8V14C8.99963 14.5523 8.55192 15 7.99963 15C7.44735 15 6.99963 14.5523 6.99963 14Z" fill="currentColor"/><path d="M14.9996 16V8C14.9996 7.44772 15.4473 7 15.9996 7C16.5519 7 16.9996 7.44772 16.9996 8V16C16.9996 16.5523 16.5519 17 15.9996 17C15.4473 17 14.9996 16.5523 14.9996 16Z" fill="currentColor"/></svg>
