<svg xmlns="http://www.w3.org/2000/svg" viewBox="0 0 24 24" fill="none"><path opacity="0.4" d="M11.5 1.75C16.3355 1.75 20.2498 5.68637 20.25 10.5352C20.25 11.8676 19.9909 13.0581 19.4893 14.1455C19.4346 12.9514 18.4523 12.0003 17.2451 12C16.0025 12 14.9951 13.0074 14.9951 14.25V14.9951H14.25C13.0074 14.9951 12 16.0025 12 17.2451C12.0001 18.4874 13.0073 19.4951 14.25 19.4951H14.8291C14.1995 20.161 13.5672 20.8693 13.0391 21.5303C12.6436 22.0251 12.0538 22.25 11.5 22.25C10.9462 22.25 10.3564 22.0251 9.96094 21.5303C8.76715 20.0364 7.04977 18.2927 6.00391 17.3711C3.8657 15.4868 2.75 13.3171 2.75 10.5352C2.75021 5.68637 6.66451 1.75 11.5 1.75Z" fill="currentColor"/><path d="M14.5 10.5C14.5 12.1569 13.1569 13.5 11.5 13.5C9.84315 13.5 8.5 12.1569 8.5 10.5C8.5 8.84315 9.84315 7.5 11.5 7.5C13.1569 7.5 14.5 8.84315 14.5 10.5Z" fill="currentColor"/><path d="M16.2451 20.25V18.2451H14.25C13.6978 18.2451 13.2501 17.7973 13.25 17.2451C13.25 16.6928 13.6977 16.2451 14.25 16.2451H16.2451V14.25C16.2451 13.6977 16.6928 13.25 17.2451 13.25C17.7973 13.2501 18.2451 13.6978 18.2451 14.25V16.2451H20.25C20.8023 16.2451 21.25 16.6928 21.25 17.2451C21.2499 17.7973 20.8022 18.2451 20.25 18.2451H18.2451V20.25C18.2451 20.8022 17.7973 21.2499 17.2451 21.25C16.6928 21.25 16.2451 20.8023 16.2451 20.25Z" fill="currentColor"/></svg>
