<svg xmlns="http://www.w3.org/2000/svg" viewBox="0 0 24 24" fill="none"><path d="M11.5001 1.75C16.3356 1.75 20.2499 5.68637 20.2501 10.5352C20.2501 11.8676 19.991 13.0581 19.4894 14.1455C19.4347 12.9514 18.4524 12.0003 17.2452 12C16.0026 12 14.9952 13.0074 14.9952 14.25V14.9951H14.2501C13.0075 14.9951 12.0001 16.0025 12.0001 17.2451C12.0003 18.4874 13.0074 19.4951 14.2501 19.4951H14.8292C14.1996 20.161 13.5673 20.8693 13.0392 21.5303C12.6438 22.0251 12.0539 22.25 11.5001 22.25C10.9463 22.25 10.3565 22.0251 9.96106 21.5303C8.76727 20.0364 7.0499 18.2927 6.00403 17.3711C3.86583 15.4868 2.75012 13.3171 2.75012 10.5352C2.75033 5.68637 6.66463 1.75 11.5001 1.75ZM11.5001 7.5C9.84327 7.5 8.50012 8.84315 8.50012 10.5C8.50012 12.1569 9.84327 13.5 11.5001 13.5C13.157 13.5 14.5001 12.1569 14.5001 10.5C14.5001 8.84315 13.157 7.5 11.5001 7.5Z" fill="currentColor"/><path d="M16.2452 20.25V18.2451H14.2501C13.6979 18.2451 13.2502 17.7973 13.2501 17.2451C13.2501 16.6928 13.6978 16.2451 14.2501 16.2451H16.2452V14.25C16.2452 13.6977 16.693 13.25 17.2452 13.25C17.7975 13.2501 18.2452 13.6978 18.2452 14.25V16.2451H20.2501C20.8024 16.2451 21.2501 16.6928 21.2501 17.2451C21.2501 17.7973 20.8024 18.2451 20.2501 18.2451H18.2452V20.25C18.2452 20.8022 17.7975 21.2499 17.2452 21.25C16.693 21.25 16.2452 20.8023 16.2452 20.25Z" fill="currentColor"/></svg>
