<svg xmlns="http://www.w3.org/2000/svg" viewBox="0 0 24 24" fill="none"><path d="M3 12.0003C3 11.1692 3.4086 10.5235 3.92383 9.96706C4.42163 9.42953 5.14599 8.84406 5.99805 8.15163L8.36914 6.2239C8.79774 5.87565 9.42808 5.94082 9.77637 6.36941C10.1246 6.79801 10.0594 7.42834 9.63086 7.77663L7.25879 9.70339C6.35877 10.4348 5.76896 10.9179 5.39062 11.3264C5.02997 11.716 5 11.8946 5 12.0003C5 12.106 5.02997 12.2845 5.39062 12.6741C5.76896 13.0827 6.35877 13.5657 7.25879 14.2971L9.63086 16.2239C10.0595 16.5722 10.1246 17.2025 9.77637 17.6311C9.42807 18.0597 8.79774 18.1249 8.36914 17.7766L5.99805 15.8489C5.14599 15.1565 4.42163 14.571 3.92383 14.0335C3.4086 13.4771 3 12.8313 3 12.0003Z" fill="currentColor"/><path d="M19 12.0003C19 11.8946 18.9701 11.716 18.6094 11.3264C18.2311 10.9179 17.6413 10.4348 16.7412 9.70339L14.3692 7.77663C13.9406 7.42834 13.8754 6.79801 14.2237 6.36941C14.572 5.94082 15.2023 5.87565 15.6309 6.2239L18.002 8.15163C18.854 8.84406 19.5784 9.42953 20.0762 9.96706C20.5914 10.5235 21 11.1692 21 12.0003C21 12.8313 20.5914 13.4771 20.0762 14.0335C19.5784 14.571 18.854 15.1565 18.002 15.8489L15.6309 17.7766C15.2023 18.1249 14.572 18.0597 14.2237 17.6311C13.8754 17.2025 13.9406 16.5722 14.3692 16.2239L16.7412 14.2971C17.6413 13.5657 18.2311 13.0827 18.6094 12.6741C18.9701 12.2845 19 12.106 19 12.0003Z" fill="currentColor"/></svg>
