<svg xmlns="http://www.w3.org/2000/svg" viewBox="0 0 24 24" fill="none"><path opacity="0.4" d="M22.75 14.0516V14V13.9484C22.75 12.5839 22.75 11.5019 22.6621 10.6377C22.5718 9.75019 22.3823 9.00948 21.9492 8.36133C21.6027 7.84268 21.1573 7.39734 20.6387 7.05078C19.9905 6.61773 19.2498 6.42819 18.3623 6.33789C17.4981 6.24997 16.4161 6.24999 15.0516 6.25H15H9H8.94836C7.58389 6.24999 6.50193 6.24997 5.6377 6.33789C4.75019 6.42819 4.00948 6.61773 3.36133 7.05078C2.84268 7.39733 2.39733 7.84268 2.05078 8.36133C1.61773 9.00948 1.42819 9.75019 1.33789 10.6377C1.24997 11.5019 1.24999 12.5839 1.25 13.9484V14V14.0516C1.24999 15.4161 1.24997 16.4981 1.33789 17.3623C1.42819 18.2498 1.61773 18.9905 2.05078 19.6387C2.39733 20.1573 2.84268 20.6027 3.36133 20.9492C4.00948 21.3823 4.75019 21.5718 5.6377 21.6621C6.50193 21.75 7.58387 21.75 8.94833 21.75H9H15H15.0517C16.4161 21.75 17.4981 21.75 18.3623 21.6621C19.2498 21.5718 19.9905 21.3823 20.6387 20.9492C21.1573 20.6027 21.6027 20.1573 21.9492 19.6387C22.3823 18.9905 22.5718 18.2498 22.6621 17.3623C22.75 16.4981 22.75 15.4161 22.75 14.0516Z" fill="currentColor"/><path d="M13 14.0002C13 13.9883 13.0001 13.9719 12.9775 13.9289C12.9485 13.8739 12.8838 13.7804 12.7412 13.6369C12.438 13.3321 11.9589 12.9696 11.2002 12.4006L10.4004 11.8C9.95858 11.4687 9.86892 10.8424 10.2002 10.4006C10.5315 9.95882 11.1578 9.86917 11.5996 10.2004L12.4004 10.8C13.1081 11.3308 13.729 11.7942 14.1591 12.2268C14.6068 12.6771 15 13.2422 15 14.0002C15 14.7582 14.6068 15.3233 14.1591 15.7736C13.729 16.2062 13.1081 16.6696 12.4004 17.2004L11.5996 17.8C11.1578 18.1312 10.5315 18.0416 10.2002 17.5998C9.86892 17.158 9.95858 16.5317 10.4004 16.2004L11.2002 15.5998C11.9589 15.0308 12.438 14.6683 12.7412 14.3635C12.8838 14.22 12.9485 14.1266 12.9775 14.0715C13.0001 14.0285 13 14.0121 13 14.0002Z" fill="currentColor"/><path d="M12 2.25001C12.6813 2.25001 13.2676 2.24842 13.7441 2.29688C14.2374 2.34706 14.7231 2.45925 15.167 2.75587C15.4943 2.97464 15.7754 3.25569 15.9941 3.58301C16.2908 4.02693 16.4029 4.51263 16.4531 5.00587C16.4894 5.36293 16.4952 5.78169 16.4971 6.25587C16.0542 6.25095 15.5737 6.25 15.0518 6.25001H14.4971C14.495 5.79892 14.4897 5.47119 14.4629 5.20801C14.4288 4.87302 14.3715 4.75486 14.3311 4.69434C14.2582 4.58535 14.1647 4.49183 14.0557 4.41895C13.9951 4.37851 13.877 4.3212 13.542 4.28712C13.1902 4.25133 12.723 4.25001 12 4.25001C11.277 4.25001 10.8098 4.25133 10.458 4.28712C10.123 4.32121 10.0049 4.37851 9.94434 4.41895C9.83534 4.49183 9.74182 4.58535 9.66895 4.69434C9.62851 4.75486 9.5712 4.87302 9.53711 5.20801C9.51034 5.47119 9.505 5.79892 9.50293 6.25001H8.94824C8.42596 6.25 7.94508 6.25094 7.50195 6.25587C7.50379 5.78169 7.51056 5.36293 7.54688 5.00587C7.59705 4.51263 7.70924 4.02693 8.00586 3.58301C8.22463 3.25569 8.50568 2.97464 8.83301 2.75587C9.27693 2.45925 9.76262 2.34706 10.2559 2.29688C10.7324 2.24842 11.3187 2.25001 12 2.25001Z" fill="currentColor"/></svg>
