<svg xmlns="http://www.w3.org/2000/svg" viewBox="0 0 24 24" fill="none"><path d="M12 2.25C12.6813 2.25 13.2676 2.24842 13.7441 2.29688C14.2374 2.34705 14.7231 2.45924 15.167 2.75586C15.4943 2.97463 15.7754 3.25568 15.9941 3.58301C16.2908 4.02693 16.4029 4.51262 16.4531 5.00586C16.4894 5.36293 16.4952 5.78168 16.4971 6.25586C17.212 6.2638 17.8287 6.2836 18.3623 6.33789C19.2498 6.42819 19.9905 6.61773 20.6387 7.05078C21.1573 7.39733 21.6027 7.84268 21.9492 8.36133C22.3823 9.00947 22.5718 9.75019 22.6621 10.6377C22.75 11.5019 22.75 12.5838 22.75 13.9482V14.0518C22.75 15.4162 22.75 16.4981 22.6621 17.3623C22.5718 18.2498 22.3823 18.9905 21.9492 19.6387C21.6027 20.1573 21.1573 20.6027 20.6387 20.9492C19.9905 21.3823 19.2498 21.5718 18.3623 21.6621C17.4981 21.75 16.4162 21.75 15.0518 21.75H8.94824C7.58382 21.75 6.50191 21.75 5.6377 21.6621C4.75019 21.5718 4.00947 21.3823 3.36133 20.9492C2.84268 20.6027 2.39733 20.1573 2.05078 19.6387C1.61773 18.9905 1.42819 18.2498 1.33789 17.3623C1.24998 16.4981 1.24999 15.4162 1.25 14.0518V13.9482C1.24999 12.5838 1.24998 11.5019 1.33789 10.6377C1.42819 9.75019 1.61773 9.00947 2.05078 8.36133C2.39733 7.84268 2.84268 7.39733 3.36133 7.05078C4.00947 6.61773 4.75019 6.42819 5.6377 6.33789C6.1711 6.28363 6.78744 6.2638 7.50195 6.25586C7.50379 5.78168 7.51056 5.36293 7.54688 5.00586C7.59705 4.51262 7.70924 4.02693 8.00586 3.58301C8.22463 3.25568 8.50568 2.97463 8.83301 2.75586C9.27693 2.45924 9.76262 2.34705 10.2559 2.29688C10.7324 2.24842 11.3187 2.25 12 2.25ZM11.5996 10.2002C11.1578 9.86896 10.5315 9.95861 10.2002 10.4004C9.86897 10.8422 9.95862 11.4685 10.4004 11.7998L11.2002 12.4004C11.9589 12.9694 12.4381 13.3319 12.7412 13.6367C12.8838 13.7802 12.9485 13.8737 12.9775 13.9287C13.0001 13.9716 13 13.9881 13 14C13 14.0119 13.0001 14.0284 12.9775 14.0713C12.9485 14.1264 12.8839 14.2198 12.7412 14.3633C12.4381 14.6681 11.9589 15.0306 11.2002 15.5996L10.4004 16.2002C9.95862 16.5315 9.86896 17.1578 10.2002 17.5996C10.5315 18.0413 11.1578 18.131 11.5996 17.7998L12.4004 17.2002C13.1081 16.6694 13.729 16.206 14.1592 15.7734C14.6069 15.3231 15 14.758 15 14C15 13.242 14.6069 12.6769 14.1592 12.2266C13.7291 11.794 13.1081 11.3306 12.4004 10.7998L11.5996 10.2002ZM12 4.25C11.277 4.25 10.8098 4.25132 10.458 4.28711C10.123 4.3212 10.0049 4.37851 9.94434 4.41895C9.83534 4.49182 9.74182 4.58534 9.66895 4.69434C9.62851 4.75485 9.5712 4.87301 9.53711 5.20801C9.51034 5.47119 9.505 5.79891 9.50293 6.25H14.4971C14.495 5.79891 14.4897 5.47119 14.4629 5.20801C14.4288 4.87301 14.3715 4.75485 14.3311 4.69434C14.2582 4.58534 14.1647 4.49182 14.0557 4.41895C13.9951 4.37851 13.877 4.3212 13.542 4.28711C13.1902 4.25132 12.723 4.25 12 4.25Z" fill="currentColor"/></svg>
