<svg xmlns="http://www.w3.org/2000/svg" viewBox="0 0 24 24" fill="none"><path opacity="0.4" d="M12.0001 22.2495C17.661 22.2495 22.2501 17.6604 22.2501 11.9995C22.2501 6.33859 17.661 1.74951 12.0001 1.74951C6.3392 1.74951 1.75012 6.33859 1.75012 11.9995C1.75012 13.1291 1.93302 14.2176 2.27161 15.2358C2.70969 16.5531 2.43626 18.1709 2.07629 19.1313L2.00305 19.314C1.80215 19.7875 1.84822 20.4078 2.27942 20.8394C2.55433 21.1143 2.95568 21.2704 3.37805 21.2065C3.71661 21.1553 4.05391 21.0488 4.34108 20.9581L4.35852 20.9526C4.66743 20.8551 4.9447 20.7683 5.23645 20.7134C5.7824 20.6107 6.38523 20.6196 7.14465 21.0288C8.59058 21.8079 10.2449 22.2495 12.0001 22.2495Z" fill="currentColor"/><path d="M9.40735 8.19395C9.85202 7.86677 10.4784 7.96227 10.8058 8.40685C11.133 8.85152 11.0375 9.47787 10.5929 9.80528H10.5919C10.5909 9.80604 10.5893 9.80751 10.587 9.80919L10.4738 9.89415C10.3954 9.95337 10.2823 10.0392 10.1466 10.1451C9.87373 10.3581 9.51293 10.6482 9.1554 10.9586C8.79307 11.2732 8.45606 11.5895 8.2179 11.859C8.17252 11.9103 8.13449 11.9575 8.10168 11.9986C8.13459 12.04 8.17225 12.0876 8.2179 12.1393C8.45606 12.4088 8.79303 12.726 9.1554 13.0406C9.51293 13.3511 9.87373 13.6412 10.1466 13.8541C10.2823 13.96 10.3954 14.0459 10.4738 14.1051L10.587 14.19C10.5893 14.1917 10.5909 14.1932 10.5919 14.194H10.5929C11.0376 14.5215 11.1323 15.1477 10.8048 15.5924C10.4774 16.0369 9.85199 16.1324 9.40735 15.8053V15.8043H9.40637C9.40583 15.8039 9.40435 15.803 9.40344 15.8024C9.40167 15.801 9.39964 15.7987 9.39661 15.7965C9.39018 15.7917 9.38102 15.7847 9.36926 15.776C9.34569 15.7584 9.31151 15.7331 9.26868 15.7008C9.18306 15.6361 9.06147 15.5437 8.91614 15.4303C8.62659 15.2043 8.23719 14.892 7.84485 14.5514C7.45751 14.2151 7.04404 13.8313 6.71985 13.4645C6.55873 13.2821 6.39803 13.0798 6.27258 12.8717C6.17732 12.7137 6.0398 12.4535 6.00696 12.1383L6.00012 11.9996L6.00696 11.8609C6.03979 11.5457 6.17732 11.2856 6.27258 11.1275C6.39803 10.9195 6.55873 10.7171 6.71985 10.5348C7.04405 10.1679 7.45749 9.78418 7.84485 9.44786C8.23719 9.10723 8.62659 8.79492 8.91614 8.56895C9.06145 8.45555 9.18306 8.36311 9.26868 8.29845C9.31151 8.2661 9.34569 8.24082 9.36926 8.22325C9.38103 8.21448 9.39018 8.2075 9.39661 8.20274C9.39963 8.2005 9.40166 8.1982 9.40344 8.19688L9.40637 8.19493H9.40735V8.19395Z" fill="currentColor"/><path d="M13.1944 8.40685C13.5219 7.96227 14.1482 7.86677 14.5929 8.19395V8.19493H14.5939C14.5944 8.19533 14.5959 8.19622 14.5968 8.19688C14.5986 8.1982 14.6006 8.2005 14.6036 8.20274C14.6101 8.2075 14.6192 8.21448 14.631 8.22325C14.6545 8.24082 14.6887 8.2661 14.7316 8.29845C14.8172 8.36311 14.9388 8.45555 15.0841 8.56895C15.3736 8.79492 15.763 9.10723 16.1554 9.44786C16.5427 9.78418 16.9562 10.1679 17.2804 10.5348C17.4415 10.7171 17.6022 10.9195 17.7276 11.1275C17.8365 11.3082 18.0001 11.6224 18.0001 11.9996C18.0001 12.3769 17.8365 12.691 17.7276 12.8717C17.6022 13.0798 17.4415 13.2821 17.2804 13.4645C16.9562 13.8313 16.5427 14.2151 16.1554 14.5514C15.763 14.892 15.3736 15.2043 15.0841 15.4303C14.9388 15.5437 14.8172 15.6361 14.7316 15.7008C14.6887 15.7331 14.6545 15.7584 14.631 15.776C14.6192 15.7847 14.61 15.7917 14.6036 15.7965C14.6006 15.7987 14.5986 15.801 14.5968 15.8024L14.5939 15.8043H14.5929V15.8053C14.1482 16.1324 13.5229 16.0369 13.1954 15.5924C12.8679 15.1477 12.9626 14.5215 13.4073 14.194H13.4083C13.4093 14.1932 13.4109 14.1917 13.4132 14.19L13.5265 14.1051C13.6049 14.0459 13.7179 13.96 13.8536 13.8541C14.1265 13.6412 14.4873 13.3511 14.8448 13.0406C15.2072 12.726 15.5442 12.4088 15.7823 12.1393C15.8278 12.0878 15.8647 12.0399 15.8976 11.9986C15.8648 11.9576 15.8275 11.9101 15.7823 11.859C15.5442 11.5895 15.2072 11.2732 14.8448 10.9586C14.4873 10.6482 14.1265 10.3581 13.8536 10.1451C13.7179 10.0392 13.6049 9.95337 13.5265 9.89415L13.4132 9.80919C13.4109 9.80751 13.4093 9.80604 13.4083 9.80528H13.4073C12.9628 9.47787 12.8673 8.85152 13.1944 8.40685Z" fill="currentColor"/></svg>
