<svg xmlns="http://www.w3.org/2000/svg" viewBox="0 0 24 24" fill="none"><path d="M12.0001 1.74951C17.661 1.74951 22.2501 6.33859 22.2501 11.9995C22.2501 17.6604 17.661 22.2495 12.0001 22.2495C10.2449 22.2495 8.59058 21.8079 7.14465 21.0288C6.38523 20.6196 5.7824 20.6107 5.23645 20.7134C4.9447 20.7683 4.66743 20.8551 4.35852 20.9526L4.34094 20.9585C4.05382 21.0491 3.71652 21.1553 3.37805 21.2065C2.95568 21.2704 2.55433 21.1143 2.27942 20.8394C1.84822 20.4078 1.80215 19.7875 2.00305 19.314L2.07629 19.1313C2.43626 18.1709 2.70969 16.5531 2.27161 15.2358C1.93302 14.2176 1.75012 13.1291 1.75012 11.9995C1.75012 6.33859 6.3392 1.74951 12.0001 1.74951ZM10.8058 8.40674C10.4784 7.96224 9.852 7.86673 9.40735 8.19385V8.19482H9.40637L9.40344 8.19678C9.40167 8.19808 9.39961 8.20041 9.39661 8.20264C9.39019 8.20739 9.38101 8.21439 9.36926 8.22314C9.34569 8.24071 9.31148 8.26601 9.26868 8.29834C9.18307 8.36299 9.06143 8.45546 8.91614 8.56885C8.6266 8.7948 8.23718 9.10714 7.84485 9.44775C7.45751 9.78405 7.04404 10.1678 6.71985 10.5347C6.55875 10.717 6.39803 10.9194 6.27258 11.1274C6.17733 11.2855 6.03981 11.5457 6.00696 11.8608L6.00012 11.9995L6.00696 12.1382C6.0398 12.4534 6.17732 12.7135 6.27258 12.8716C6.39802 13.0797 6.55875 13.282 6.71985 13.4644C7.04403 13.8312 7.45752 14.215 7.84485 14.5513C8.23717 14.8919 8.6266 15.2042 8.91614 15.4302C9.06144 15.5436 9.18307 15.636 9.26868 15.7007C9.31148 15.733 9.34569 15.7583 9.36926 15.7759C9.38099 15.7846 9.39019 15.7916 9.39661 15.7964C9.39961 15.7986 9.40168 15.8009 9.40344 15.8022C9.40432 15.8029 9.40579 15.8038 9.40637 15.8042H9.40735V15.8052C9.85199 16.1323 10.4774 16.0368 10.8048 15.5923C11.1323 15.1476 11.0376 14.5213 10.5929 14.1938H10.5919C10.5909 14.1931 10.5893 14.1916 10.587 14.1899L10.4738 14.105C10.3954 14.0458 10.2823 13.9599 10.1466 13.854C9.87374 13.6411 9.5129 13.3509 9.1554 13.0405C8.79305 12.7259 8.45605 12.4087 8.2179 12.1392C8.17228 12.0875 8.13458 12.0399 8.10168 11.9985C8.13448 11.9574 8.17254 11.9102 8.2179 11.8589C8.45605 11.5894 8.7931 11.2731 9.1554 10.9585C9.51291 10.6481 9.87374 10.358 10.1466 10.145C10.2823 10.0391 10.3954 9.95325 10.4738 9.89404L10.587 9.80908C10.5893 9.80742 10.5909 9.80592 10.5919 9.80518H10.5929C11.0374 9.47775 11.133 8.8514 10.8058 8.40674ZM14.5929 8.19385C14.1482 7.86672 13.5219 7.96224 13.1945 8.40674C12.8673 8.8514 12.9628 9.47775 13.4073 9.80518H13.4083C13.4093 9.80592 13.411 9.80741 13.4132 9.80908L13.5265 9.89404C13.6049 9.95325 13.7179 10.0391 13.8536 10.145C14.1265 10.358 14.4873 10.6481 14.8448 10.9585C15.2071 11.2731 15.5442 11.5894 15.7823 11.8589C15.8275 11.91 15.8649 11.9575 15.8976 11.9985C15.8648 12.0398 15.8278 12.0877 15.7823 12.1392C15.5442 12.4087 15.2072 12.7259 14.8448 13.0405C14.4873 13.3509 14.1265 13.6411 13.8536 13.854C13.7179 13.9599 13.6049 14.0458 13.5265 14.105L13.4132 14.1899C13.411 14.1916 13.4093 14.1931 13.4083 14.1938H13.4073C12.9627 14.5213 12.868 15.1476 13.1954 15.5923C13.5229 16.0368 14.1482 16.1323 14.5929 15.8052V15.8042H14.5939L14.5968 15.8022C14.5986 15.8009 14.6006 15.7986 14.6036 15.7964C14.6101 15.7916 14.6193 15.7846 14.631 15.7759C14.6546 15.7583 14.6888 15.733 14.7316 15.7007C14.8172 15.636 14.9388 15.5436 15.0841 15.4302C15.3736 15.2042 15.7631 14.8919 16.1554 14.5513C16.5427 14.215 16.9562 13.8312 17.2804 13.4644C17.4415 13.282 17.6022 13.0797 17.7277 12.8716C17.8366 12.6909 18.0001 12.3767 18.0001 11.9995C18.0001 11.6223 17.8366 11.3081 17.7277 11.1274C17.6022 10.9194 17.4415 10.717 17.2804 10.5347C16.9562 10.1678 16.5427 9.78405 16.1554 9.44775C15.7631 9.10713 15.3736 8.7948 15.0841 8.56885C14.9388 8.45546 14.8172 8.363 14.7316 8.29834C14.6888 8.266 14.6546 8.24071 14.631 8.22314C14.6192 8.21439 14.6101 8.20739 14.6036 8.20264C14.6006 8.2004 14.5986 8.19808 14.5968 8.19678C14.5959 8.19611 14.5944 8.19522 14.5939 8.19482H14.5929V8.19385Z" fill="currentColor"/></svg>
