<svg xmlns="http://www.w3.org/2000/svg" viewBox="0 0 24 24" fill="none"><path d="M6 7C6.55228 7 7 7.44772 7 8L7 16C7 16.5523 6.55229 17 6 17C5.44772 17 5 16.5523 5 16L5 8C5 7.44772 5.44772 7 6 7Z" fill="currentColor" fill-rule="evenodd" clip-rule="evenodd"/><path d="M3.25 18C3.25 16.4812 4.48122 15.25 6 15.25C7.51878 15.25 8.75 16.4812 8.75 18C8.75 19.5188 7.51878 20.75 6 20.75C4.48122 20.75 3.25 19.5188 3.25 18Z" fill="currentColor" fill-rule="evenodd" clip-rule="evenodd"/><path d="M3.25 6C3.25 4.48122 4.48122 3.25 6 3.25C7.51878 3.25 8.75 4.48122 8.75 6C8.75 7.51878 7.51878 8.75 6 8.75C4.48122 8.75 3.25 7.51878 3.25 6Z" fill="currentColor" fill-rule="evenodd" clip-rule="evenodd"/><path d="M15.25 18C15.25 16.4812 16.4812 15.25 18 15.25C19.5188 15.25 20.75 16.4812 20.75 18C20.75 19.5188 19.5188 20.75 18 20.75C16.4812 20.75 15.25 19.5188 15.25 18Z" fill="currentColor" fill-rule="evenodd" clip-rule="evenodd"/><path d="M18 10C18.5523 10 19 10.4477 19 11C19 11.5523 18.5523 12 18 12C17.4477 12 17 11.5523 17 11C17 10.4477 17.4477 10 18 10Z" fill="currentColor"/><path d="M18 5C18.5523 5 19 5.44772 19 6C19 6.55229 18.5523 7 18 7C17.4477 7 17 6.55228 17 6C17 5.44772 17.4477 5 18 5Z" fill="currentColor"/></svg>
