<svg xmlns="http://www.w3.org/2000/svg" viewBox="0 0 24 24" fill="none"><path d="M13.1368 1.416C13.2348 1.45076 13.3309 1.49075 13.4246 1.53582C13.8794 1.75449 14.2357 2.11356 14.6382 2.51921L19.421 7.32686L19.421 7.32686C19.8884 7.79521 20.3032 8.21088 20.5272 8.75463C20.626 8.99435 20.6811 9.24282 20.7117 9.50258H18.7309C17.3633 9.5026 16.7147 9.50181 15.8478 9.38525C14.9477 9.26424 14.1898 9.00534 13.5879 8.40343C12.9859 7.80151 12.7271 7.04364 12.606 6.14353C12.4897 5.27834 12.4897 4.63063 12.4897 3.2688V3.26877V1.27734C12.7131 1.30042 12.9278 1.34184 13.1368 1.416Z" fill="currentColor"/><path d="M9.44434 11.4054C9.77175 10.9608 10.3981 10.8653 10.8428 11.1925L10.8438 11.1935L10.8467 11.1954C10.8485 11.1967 10.8505 11.199 10.8535 11.2013C10.8599 11.206 10.8691 11.213 10.8809 11.2218C10.9044 11.2394 10.9386 11.2646 10.9814 11.297C11.0671 11.3616 11.1887 11.4541 11.334 11.5675C11.6235 11.7935 12.0129 12.1058 12.4053 12.4464C12.7926 12.7827 13.2061 13.1665 13.5303 13.5333C13.6914 13.7157 13.8521 13.918 13.9775 14.1261C14.0864 14.3067 14.25 14.6209 14.25 14.9982C14.25 15.3754 14.0864 15.6896 13.9775 15.8702C13.8521 16.0783 13.6914 16.2807 13.5303 16.463C13.2061 16.8298 12.7926 17.2136 12.4053 17.5499C12.0129 17.8906 11.6235 18.2029 11.334 18.4288C11.1887 18.5422 11.0671 18.6347 10.9814 18.6993C10.9386 18.7317 10.9044 18.7569 10.8809 18.7745C10.8691 18.7833 10.8599 18.7903 10.8535 18.795C10.8505 18.7973 10.8485 18.7996 10.8467 18.8009L10.8438 18.8028L10.8428 18.8038C10.3981 19.131 9.77274 19.0354 9.44531 18.5909C9.1178 18.1462 9.21253 17.52 9.65723 17.1925C9.65723 17.1925 9.66082 17.1903 9.66309 17.1886L9.77637 17.1036C9.85477 17.0444 9.96778 16.9586 10.1035 16.8526C10.3764 16.6397 10.7372 16.3496 11.0947 16.0392C11.1102 16.0257 11.1252 16.0116 11.1406 15.9982H4.25C3.69772 15.9982 3.25001 15.5504 3.25 14.9982C3.25 14.4459 3.69772 13.9982 4.25 13.9982H11.1406C11.1252 13.9847 11.1102 13.9706 11.0947 13.9571C10.7372 13.6467 10.3764 13.3566 10.1035 13.1437C9.96778 13.0377 9.85477 12.9519 9.77637 12.8927L9.66309 12.8077C9.66082 12.806 9.6582 12.8038 9.6582 12.8038C9.21363 12.4764 9.11716 11.8501 9.44434 11.4054Z" fill="currentColor"/><path opacity="0.4" d="M11.5896 1.24815L11.5879 1.24815C10.0624 1.24813 8.65452 1.24856 7.67578 1.36338C6.66314 1.48223 5.79458 1.7355 5.05957 2.33116C4.79006 2.54963 4.5445 2.79657 4.32715 3.06749C3.73462 3.80621 3.48252 4.67866 3.36426 5.69639C3.25 6.6801 3.24998 7.91694 3.25 9.4503V12.7481H8.12891C7.88965 12.0703 7.97853 11.2893 8.4375 10.6651C9.16248 9.68074 10.5383 9.45769 11.5361 10.1544C11.625 10.2215 11.9505 10.4635 12.1025 10.5821C12.4025 10.8163 12.8105 11.1435 13.2246 11.503C13.6274 11.8527 14.089 12.2777 14.4668 12.7052C14.6536 12.9166 14.8683 13.1829 15.0479 13.4806C15.1914 13.7188 15.5 14.2742 15.5 14.9981C15.4999 15.7222 15.1914 16.2776 15.0479 16.5157C14.8683 16.8136 14.6536 17.0797 14.4668 17.2911C14.0889 17.7187 13.6274 18.1446 13.2246 18.4942C12.8107 18.8536 12.4034 19.1802 12.1035 19.4142C11.9512 19.533 11.6248 19.7749 11.5361 19.8419C10.5381 20.5387 9.16325 20.3158 8.43848 19.3321C7.97978 18.7091 7.88983 17.9272 8.12891 17.2481H3.30273C3.32504 17.6522 3.35516 18.0266 3.40137 18.3722C3.55822 19.5449 3.8938 20.5323 4.67383 21.3165C5.45407 22.1008 6.43674 22.4391 7.60352 22.5968C8.72431 22.7482 10.2903 22.7482 12.057 22.7481H12.0713H12.0866C13.8521 22.7482 15.276 22.7482 16.3965 22.5968C17.5633 22.4391 18.5459 22.1008 19.3262 21.3165C20.1061 20.5323 20.4418 19.5448 20.5986 18.3722C20.7497 17.2426 20.75 15.8062 20.75 14.0245V10.5499C20.751 9.88665 20.7514 9.29769 20.5273 8.75401C20.3033 8.21051 19.8891 7.79445 19.4219 7.32628L14.6387 2.51866C14.2362 2.11306 13.8796 1.75391 13.4248 1.53526C13.3312 1.4903 13.2355 1.44984 13.1377 1.41514C12.6629 1.24671 12.1586 1.24739 11.5896 1.24815Z" fill="currentColor"/></svg>
