<svg xmlns="http://www.w3.org/2000/svg" viewBox="0 0 24 24" fill="none"><path d="M9.44385 11.4054C9.77126 10.9608 10.3976 10.8653 10.8423 11.1925L10.8433 11.1935L10.8462 11.1954C10.848 11.1967 10.85 11.199 10.853 11.2013C10.8595 11.206 10.8686 11.213 10.8804 11.2218C10.9039 11.2394 10.9381 11.2646 10.981 11.297C11.0666 11.3616 11.1882 11.4541 11.3335 11.5675C11.623 11.7935 12.0124 12.1058 12.4048 12.4464C12.7921 12.7827 13.2056 13.1665 13.5298 13.5333C13.6909 13.7157 13.8516 13.918 13.9771 14.1261C14.086 14.3067 14.2495 14.6209 14.2495 14.9982C14.2495 15.3754 14.086 15.6896 13.9771 15.8702C13.8516 16.0783 13.6909 16.2807 13.5298 16.463C13.2056 16.8298 12.7921 17.2136 12.4048 17.5499C12.0124 17.8906 11.623 18.2029 11.3335 18.4288C11.1882 18.5422 11.0666 18.6347 10.981 18.6993C10.9381 18.7317 10.9039 18.7569 10.8804 18.7745C10.8686 18.7833 10.8594 18.7903 10.853 18.795C10.85 18.7973 10.848 18.7996 10.8462 18.8009L10.8433 18.8028L10.8423 18.8038C10.3976 19.131 9.77225 19.0354 9.44482 18.5909C9.11731 18.1462 9.21204 17.52 9.65674 17.1925C9.65674 17.1925 9.66033 17.1903 9.6626 17.1886L9.77588 17.1036C9.85428 17.0444 9.9673 16.9586 10.103 16.8526C10.3759 16.6397 10.7367 16.3496 11.0942 16.0392C11.1098 16.0257 11.1247 16.0116 11.1401 15.9982H4.24951C3.69724 15.9982 3.24952 15.5504 3.24951 14.9982C3.24951 14.4459 3.69723 13.9982 4.24951 13.9982H11.1401C11.1247 13.9847 11.1098 13.9706 11.0942 13.9571C10.7367 13.6467 10.3759 13.3566 10.103 13.1437C9.9673 13.0377 9.85428 12.9519 9.77588 12.8927L9.6626 12.8077C9.66033 12.806 9.65771 12.8038 9.65771 12.8038C9.21314 12.4764 9.11667 11.8501 9.44385 11.4054Z" fill="currentColor"/><path d="M11.5874 1.24815C12.1571 1.24739 12.6619 1.24654 13.1372 1.41514C13.235 1.44984 13.3308 1.4903 13.4243 1.53526C13.8791 1.75391 14.2358 2.11306 14.6382 2.51866L19.4214 7.32628C19.8886 7.79445 20.3028 8.21051 20.5269 8.75401C20.7509 9.29769 20.7505 9.88665 20.7495 10.5499V14.0245C20.7495 15.8062 20.7492 17.2426 20.5981 18.3722C20.4413 19.5448 20.1056 20.5323 19.3257 21.3165C18.5454 22.1008 17.5628 22.4391 16.396 22.5968C15.2722 22.7486 13.8434 22.7482 12.0708 22.7481C10.2982 22.7482 8.72684 22.7486 7.60303 22.5968C6.43625 22.4391 5.45358 22.1008 4.67334 21.3165C3.89331 20.5323 3.55773 19.5449 3.40088 18.3722C3.35467 18.0266 3.32455 17.6522 3.30225 17.2481H8.12842C7.88935 17.9272 7.97929 18.7091 8.43799 19.3321C9.16276 20.3158 10.5376 20.5387 11.5356 19.8419C11.6243 19.7749 11.9507 19.533 12.103 19.4142C12.4029 19.1802 12.8103 18.8536 13.2241 18.4942C13.6269 18.1446 14.0884 17.7187 14.4663 17.2911C14.6531 17.0797 14.8678 16.8136 15.0474 16.5157C15.1909 16.2776 15.4994 15.7222 15.4995 14.9981C15.4995 14.2742 15.1909 13.7188 15.0474 13.4806C14.8679 13.1829 14.6531 12.9166 14.4663 12.7052C14.0885 12.2777 13.6269 11.8527 13.2241 11.503C12.81 11.1435 12.4021 10.8163 12.1021 10.5821C11.95 10.4635 11.6246 10.2215 11.5356 10.1544C10.5378 9.45769 9.162 9.68074 8.43701 10.6651C7.97804 11.2893 7.88916 12.0703 8.12842 12.7481H3.24951V9.4503C3.24949 7.91694 3.24951 6.6801 3.36377 5.69639C3.48203 4.67866 3.73413 3.80621 4.32666 3.06749C4.54401 2.79657 4.78957 2.54963 5.05908 2.33116C5.79409 1.7355 6.66265 1.48223 7.67529 1.36338C8.65403 1.24856 10.0619 1.24813 11.5874 1.24815ZM12.4897 3.26866C12.4897 4.62995 12.4897 5.27785 12.606 6.14268C12.7269 7.04251 12.9859 7.80062 13.5874 8.40245C14.1893 9.00436 14.948 9.26385 15.8481 9.38487C16.7149 9.50138 17.3636 9.50208 18.731 9.50206C18.6741 9.36429 18.5685 9.23344 17.9507 8.61241L13.3462 3.9835C12.8133 3.44787 12.6714 3.31455 12.4897 3.25987V3.26866Z" fill="currentColor" fill-rule="evenodd" clip-rule="evenodd"/></svg>
