<svg xmlns="http://www.w3.org/2000/svg" viewBox="0 0 24 24" fill="none"><path d="M13.9996 7.75C15.5978 7.75 17.0108 8.53995 17.8717 9.75H17.9996C18.8813 9.75 19.4694 9.74372 19.9703 9.87793C21.2643 10.2247 22.2749 11.2354 22.6217 12.5293C22.7559 13.0302 22.7496 13.6184 22.7496 14.5V15.5156C22.7496 16.4291 22.7496 17.1652 22.6959 17.7578C22.6478 18.2882 22.5534 18.7604 22.3444 19.1924L22.2477 19.375C21.9597 19.8738 21.5606 20.2983 21.0836 20.6172L20.8746 20.748C20.3935 21.0258 19.8636 21.1413 19.2574 21.1963C18.6648 21.25 17.9288 21.25 17.0153 21.25H6.98401C6.07046 21.25 5.33447 21.25 4.74182 21.1963C4.21136 21.1482 3.73929 21.0539 3.30725 20.8447L3.12463 20.748C2.62586 20.4601 2.20133 20.061 1.88245 19.584L1.75159 19.375C1.4739 18.8939 1.3583 18.3639 1.30334 17.7578C1.24964 17.1652 1.24963 16.4291 1.24963 15.5156V15.4844C1.24963 14.5709 1.24963 13.8348 1.30334 13.2422C1.35831 12.6361 1.47388 12.1061 1.75159 11.625L1.88245 11.416C2.20133 10.9391 2.62586 10.5399 3.12463 10.252C3.60575 9.97425 4.13568 9.85867 4.74182 9.80371C5.33447 9.75 6.07045 9.75 6.98401 9.75H10.1276C10.9885 8.53995 12.4014 7.75 13.9996 7.75ZM4.99963 16.75C4.58545 16.75 4.24968 17.0858 4.24963 17.5C4.24963 17.9142 4.58542 18.25 4.99963 18.25H6.99963C7.41385 18.25 7.74963 17.9142 7.74963 17.5C7.74958 17.0858 7.41382 16.75 6.99963 16.75H4.99963ZM13.9996 9.25C12.7856 9.25 11.7276 9.91604 11.1696 10.9023C11.1093 11.0088 11.0547 11.1189 11.0065 11.2324C10.9175 11.4422 10.8497 11.663 10.8063 11.8926C10.7691 12.0892 10.7496 12.2922 10.7496 12.5C10.7496 14.2949 12.2047 15.75 13.9996 15.75C15.7946 15.75 17.2496 14.2949 17.2496 12.5C17.2496 12.2921 17.2292 12.0892 17.192 11.8926C17.1486 11.663 17.0808 11.4422 16.9918 11.2324C16.9436 11.1189 16.889 11.0088 16.8287 10.9023C16.2707 9.91627 15.2135 9.25 13.9996 9.25ZM7.96936 4.46973C8.26225 4.17683 8.73701 4.17683 9.02991 4.46973L10.5299 5.96973C10.8228 6.26262 10.8228 6.73738 10.5299 7.03027C10.237 7.32311 9.76223 7.32315 9.46936 7.03027L7.96936 5.53027C7.67649 5.2374 7.67652 4.76262 7.96936 4.46973ZM18.9694 4.46973C19.2623 4.17683 19.737 4.17683 20.0299 4.46973C20.3227 4.76262 20.3228 5.2374 20.0299 5.53027L18.5299 7.03027C18.237 7.32315 17.7623 7.32311 17.4694 7.03027C17.1765 6.73738 17.1765 6.26262 17.4694 5.96973L18.9694 4.46973ZM14.0016 2.75C14.4158 2.75 14.7516 3.08579 14.7516 3.5V5.49707C14.7516 5.91128 14.4158 6.24707 14.0016 6.24707C13.5874 6.24707 13.2516 5.91128 13.2516 5.49707V3.5C13.2516 3.08579 13.5874 2.75 14.0016 2.75Z" fill="currentColor"/></svg>
