<svg xmlns="http://www.w3.org/2000/svg" viewBox="0 0 24 24" fill="none"><path d="M16.1779 10.75C16.3704 10.7499 16.5762 10.7503 16.7511 10.7715C16.9545 10.7961 17.2057 10.8577 17.4347 11.0459C17.6665 11.2364 17.7752 11.4732 17.8361 11.6729C17.8873 11.8408 18.0211 12.6308 18.0519 12.8135C18.1811 12.8791 18.3064 12.9511 18.4279 13.0283C18.6096 12.9613 19.3633 12.6834 19.5363 12.6426C19.7383 12.595 19.9963 12.5675 20.2765 12.665C20.5585 12.7633 20.7431 12.9462 20.8713 13.1123C20.9796 13.2527 21.0834 13.4299 21.1789 13.5928C21.2717 13.7509 21.5658 14.2522 21.634 14.4111C21.7142 14.5984 21.7855 14.8489 21.7306 15.1436C21.6758 15.4371 21.5195 15.6452 21.3791 15.791C21.2589 15.9157 20.6251 16.4289 20.4806 16.5459V16.9561C20.6251 17.073 21.257 17.5843 21.3771 17.709C21.5176 17.8548 21.6738 18.0628 21.7287 18.3564C21.7838 18.6515 21.7113 18.9024 21.631 19.0898C21.5629 19.2487 21.4621 19.4221 21.3693 19.5801C21.2739 19.7428 20.9778 20.247 20.8693 20.3877C20.7411 20.5539 20.556 20.7377 20.2736 20.8359C19.9935 20.9333 19.7362 20.905 19.5343 20.8574C19.3613 20.8166 18.6086 20.5397 18.4269 20.4727C18.3058 20.5496 18.1807 20.6211 18.0519 20.6865C18.0211 20.8691 17.8873 21.6592 17.8361 21.8272C17.7752 22.0268 17.6665 22.2636 17.4347 22.4541C17.2057 22.6423 16.9545 22.7039 16.7511 22.7285C16.5762 22.7497 16.3704 22.7501 16.1779 22.75C15.9853 22.7501 15.4272 22.7497 15.2521 22.7285C15.0487 22.7039 14.7967 22.6424 14.5676 22.4541C14.3361 22.2637 14.228 22.0267 14.1672 21.8272C14.116 21.6592 13.9822 20.8692 13.9513 20.6865C13.8222 20.6209 13.6968 20.5489 13.5754 20.4717C13.3937 20.5387 12.639 20.8166 12.466 20.8574C12.2641 20.905 12.0068 20.9333 11.7267 20.8359C11.4444 20.7377 11.2593 20.5539 11.131 20.3877C11.0228 20.2474 10.9188 20.0699 10.8234 19.9072C10.7303 19.7487 10.4375 19.2488 10.3693 19.0898C10.289 18.9024 10.2166 18.6515 10.2717 18.3564C10.3265 18.0627 10.4837 17.8548 10.6242 17.709C10.7451 17.5838 11.3773 17.071 11.5217 16.9541V16.5479C11.3772 16.4309 10.7414 15.9157 10.6213 15.791C10.4808 15.6452 10.3245 15.4371 10.2697 15.1436C10.2148 14.8489 10.2862 14.5984 10.3664 14.4111C10.4345 14.2522 10.7286 13.7509 10.8215 13.5928C10.9169 13.4299 11.0208 13.2527 11.1291 13.1123C11.2573 12.9461 11.4425 12.7633 11.7248 12.665C12.0049 12.5677 12.2622 12.595 12.464 12.6426C12.637 12.6834 13.3914 12.9621 13.5734 13.0293C13.6953 12.9517 13.8216 12.8794 13.9513 12.8135C13.9822 12.6307 14.116 11.8407 14.1672 11.6729C14.228 11.4734 14.3361 11.2363 14.5676 11.0459C14.7967 10.8576 15.0487 10.7961 15.2521 10.7715C15.4272 10.7503 15.9853 10.7499 16.1779 10.75ZM16.0002 14.75C14.8956 14.75 14.0002 15.6454 14.0002 16.75C14.0002 17.8546 14.8956 18.75 16.0002 18.75C17.1047 18.75 18.0002 17.8546 18.0002 16.75C18.0002 15.6455 17.1047 14.75 16.0002 14.75Z" fill="currentColor" fill-rule="evenodd" clip-rule="evenodd"/><path d="M8.1779 1.25C8.37044 1.24994 8.57618 1.25032 8.75115 1.27149C8.95448 1.29612 9.20574 1.35768 9.43474 1.5459C9.66649 1.7364 9.77524 1.97323 9.83611 2.17286C9.88729 2.34076 10.0211 3.13079 10.0519 3.31348C10.1811 3.37911 10.3064 3.45108 10.4279 3.52832C10.6096 3.46128 11.3633 3.18338 11.5363 3.14258C11.7383 3.09497 11.9963 3.06753 12.2765 3.16504C12.5585 3.26332 12.7431 3.44623 12.8713 3.61231C12.9796 3.75265 13.0834 3.92994 13.1789 4.09278C13.2717 4.25085 13.5658 4.7522 13.634 4.91114C13.7142 5.09842 13.7855 5.34893 13.7306 5.64356C13.6758 5.93711 13.5195 6.14525 13.3791 6.29102C13.2589 6.4157 12.6251 6.92894 12.4806 7.0459V7.45606C12.6251 7.57302 13.257 8.08431 13.3771 8.20899C13.5176 8.35476 13.6738 8.56279 13.7287 8.85645C13.7838 9.15152 13.7113 9.40242 13.631 9.58985C13.5629 9.74873 13.4621 9.92212 13.3693 10.0801C13.2739 10.2428 12.9778 10.747 12.8693 10.8877C12.7411 11.0539 12.556 11.2377 12.2736 11.3359C11.9935 11.4333 11.7362 11.405 11.5343 11.3574C11.3613 11.3166 10.6086 11.0397 10.4269 10.9727C10.3058 11.0496 10.1807 11.1211 10.0519 11.1865C10.0211 11.3691 9.88729 12.1592 9.83611 12.3272C9.77524 12.5268 9.66649 12.7636 9.43474 12.9541C9.20574 13.1423 8.95448 13.2039 8.75115 13.2285C8.57618 13.2497 8.37044 13.2501 8.1779 13.25C7.9853 13.2501 7.42716 13.2497 7.25212 13.2285C7.04873 13.2039 6.79668 13.1424 6.56755 12.9541C6.33609 12.7637 6.228 12.5267 6.16716 12.3272C6.11598 12.1592 5.98221 11.3692 5.95134 11.1865C5.82217 11.1209 5.69684 11.0489 5.57536 10.9717C5.3937 11.0387 4.63902 11.3166 4.46599 11.3574C4.26412 11.405 4.00683 11.4333 3.72673 11.3359C3.44439 11.2377 3.25927 11.0539 3.13103 10.8877C3.02283 10.7474 2.91879 10.5699 2.82341 10.4072C2.73034 10.2487 2.43751 9.74884 2.36931 9.58985C2.28899 9.40242 2.21656 9.15152 2.27165 8.85645C2.32651 8.56268 2.48369 8.35477 2.62419 8.20899C2.7451 8.08378 3.37729 7.57097 3.52165 7.45411V7.04786C3.37718 6.93089 2.74143 6.4157 2.62126 6.29102C2.48085 6.14525 2.3245 5.9371 2.2697 5.64356C2.21481 5.34895 2.28619 5.09842 2.36638 4.91114C2.43449 4.75221 2.72863 4.25087 2.82146 4.09278C2.91691 3.92994 3.02079 3.75265 3.12908 3.61231C3.25732 3.44612 3.44247 3.26328 3.72478 3.16504C4.0049 3.06765 4.26215 3.09499 4.46404 3.14258C4.63701 3.18337 5.39142 3.46214 5.57341 3.5293C5.69535 3.4517 5.82164 3.37936 5.95134 3.31348C5.98222 3.13068 6.11599 2.34074 6.16716 2.17286C6.228 1.97335 6.33609 1.73632 6.56755 1.5459C6.79669 1.35757 7.04872 1.29609 7.25212 1.27149C7.42716 1.25031 7.9853 1.24994 8.1779 1.25ZM8.00017 5.25C6.8956 5.25 6.00018 6.14544 6.00017 7.25C6.00017 8.35457 6.8956 9.25 8.00017 9.25C9.10472 9.24998 10.0002 8.35456 10.0002 7.25C10.0002 6.14545 9.10472 5.25003 8.00017 5.25Z" fill="currentColor" fill-rule="evenodd" clip-rule="evenodd"/></svg>
