<svg xmlns="http://www.w3.org/2000/svg" viewBox="0 0 24 24" fill="none"><path d="M12.0488 1.75C14.1213 1.74999 15.746 1.74998 17.0244 1.90527C18.3303 2.06392 19.3755 2.39441 20.2344 3.12793C20.4633 3.32348 20.6765 3.53668 20.8721 3.76562C21.6056 4.62447 21.9361 5.66971 22.0947 6.97559C22.25 8.254 22.25 9.87871 22.25 11.9512V12.0488C22.25 14.1213 22.25 15.746 22.0947 17.0244C21.9361 18.3303 21.6056 19.3755 20.8721 20.2344C20.6765 20.4633 20.4633 20.6765 20.2344 20.8721C19.3755 21.6056 18.3303 21.9361 17.0244 22.0947C15.746 22.25 14.1213 22.25 12.0488 22.25H11.9512C9.87871 22.25 8.254 22.25 6.97559 22.0947C5.66971 21.9361 4.62447 21.6056 3.76562 20.8721C3.53668 20.6765 3.32348 20.4633 3.12793 20.2344C2.39441 19.3755 2.06392 18.3303 1.90527 17.0244C1.74998 15.746 1.74999 14.1213 1.75 12.0488V11.9512C1.74999 9.87872 1.74998 8.254 1.90527 6.97559C2.06392 5.66971 2.39441 4.62447 3.12793 3.76562C3.32348 3.53669 3.53669 3.32348 3.76562 3.12793C4.62447 2.39441 5.66971 2.06392 6.97559 1.90527C8.254 1.74998 9.87872 1.74999 11.9512 1.75H12.0488ZM8 17C7.44771 17 7 17.4477 7 18C7 18.5523 7.44772 19 8 19C8.55228 19 9 18.5523 9 18C9 17.4477 8.55228 17 8 17ZM12 17C11.4477 17 11 17.4477 11 18C11 18.5523 11.4477 19 12 19C12.5523 19 13 18.5523 13 18C13 17.4477 12.5523 17 12 17ZM16 17C15.4477 17 15 17.4477 15 18C15 18.5523 15.4477 19 16 19C16.5523 19 17 18.5523 17 18C17 17.4477 16.5523 17 16 17ZM12 5.25C10.9595 5.25 9.99737 5.58492 9.21484 6.15234L9.03027 5.96777C8.73743 5.67514 8.26257 5.67514 7.96973 5.96777C7.6769 6.2606 7.67703 6.73541 7.96973 7.02832L8.1543 7.21289C7.5859 7.99581 7.25 8.95851 7.25 10C7.25 11.0402 7.5852 12.0018 8.15234 12.7842L7.96973 12.9678C7.6769 13.2606 7.67703 13.7354 7.96973 14.0283C8.26262 14.3212 8.73738 14.3212 9.03027 14.0283L9.21289 13.8447C9.9959 14.4133 10.9583 14.75 12 14.75C13.0414 14.75 14.0032 14.413 14.7861 13.8447L14.9697 14.0283C15.2626 14.3212 15.7374 14.3212 16.0303 14.0283C16.323 13.7354 16.3231 13.2606 16.0303 12.9678L15.8467 12.7842C16.414 12.0017 16.75 11.0404 16.75 10C16.75 8.9583 16.4133 7.9959 15.8447 7.21289L16.0303 7.02832C16.323 6.73541 16.3231 6.2606 16.0303 5.96777C15.7374 5.67514 15.2626 5.67514 14.9697 5.96777L14.7842 6.15234C14.0018 5.5852 13.0402 5.25 12 5.25ZM12 6.75C12.625 6.75 13.2086 6.92668 13.7041 7.23242L13.5693 7.36816C13.2767 7.66101 13.2767 8.13587 13.5693 8.42871C13.8622 8.72154 14.337 8.72141 14.6299 8.42871L14.7646 8.29297C15.0717 8.7892 15.25 9.37357 15.25 10C15.25 10.6255 15.0728 11.2093 14.7666 11.7051L14.6299 11.5684C14.337 11.2756 13.8622 11.2755 13.5693 11.5684C13.2768 11.8612 13.2766 12.3361 13.5693 12.6289L13.7061 12.7656C13.2101 13.0722 12.6259 13.25 12 13.25C11.3738 13.25 10.7891 13.0725 10.293 12.7656L10.4307 12.6289C10.7234 12.3361 10.7232 11.8612 10.4307 11.5684C10.1378 11.2755 9.66302 11.2756 9.37012 11.5684L9.23242 11.7051C8.92641 11.2094 8.75 10.6253 8.75 10C8.75 9.37376 8.92749 8.78911 9.23438 8.29297L9.37012 8.42871C9.66303 8.72141 10.1378 8.72154 10.4307 8.42871C10.7233 8.13587 10.7233 7.66101 10.4307 7.36816L10.2949 7.23242C10.7906 6.92641 11.3747 6.75 12 6.75Z" fill="currentColor"/></svg>
