<svg xmlns="http://www.w3.org/2000/svg" viewBox="0 0 24 24" fill="none"><path opacity="0.4" d="M15.9561 1.25C16.8166 1.24995 17.5584 1.24981 18.1523 1.33008C18.7895 1.41623 19.4001 1.61138 19.8955 2.10938C20.3908 2.60734 20.5842 3.22092 20.6699 3.86133C20.7497 4.45822 20.7501 5.20363 20.75 6.06836V17.8633C20.75 18.403 20.3143 18.8408 19.7773 18.8408H19.6875C19.6572 18.8768 19.6244 18.9161 19.5928 18.96C19.4254 19.1924 19.292 19.4846 19.292 19.8184C19.292 20.152 19.4255 20.4434 19.5928 20.6758C19.6244 20.7198 19.6571 20.7598 19.6875 20.7959H19.7773C20.3142 20.7959 20.7499 21.2329 20.75 21.7725C20.75 22.3122 20.3143 22.75 19.7773 22.75H6.16699C4.55622 22.75 3.2501 21.4375 3.25 19.8184V8.03516C3.24998 6.70606 3.25036 5.61063 3.36621 4.74414C3.48749 3.8374 3.75177 3.03671 4.38965 2.39551C5.02747 1.7544 5.82365 1.48814 6.72559 1.36621C7.5876 1.24974 8.67772 1.24998 10 1.25H15.9561ZM6.16797 18.8408C5.63103 18.8408 5.19531 19.2786 5.19531 19.8184C5.19546 20.358 5.63111 20.7949 6.16797 20.7949H17.501C17.4092 20.5035 17.3477 20.1771 17.3477 19.8184C17.3477 19.4593 17.4091 19.1324 17.501 18.8408H6.16797Z" fill="currentColor" fill-rule="evenodd" clip-rule="evenodd"/><path d="M12.1026 13.0054C12.6068 13.0567 13 13.4828 13 14.0005C12.9998 14.5525 12.5525 14.9998 12.0005 15C11.4828 15 11.0567 14.6068 11.0054 14.1026L11 14.0005L11.0054 13.8974C11.0568 13.3933 11.4829 13 12.0005 13L12.1026 13.0054Z" fill="currentColor"/><path d="M11 10V6C11 5.44772 11.4477 5 12 5C12.5523 5 13 5.44772 13 6V10C13 10.5523 12.5523 11 12 11C11.4477 11 11 10.5523 11 10Z" fill="currentColor"/></svg>
