<svg xmlns="http://www.w3.org/2000/svg" viewBox="0 0 24 24" fill="none"><path d="M15.9561 1.25C16.8166 1.24995 17.5584 1.24981 18.1523 1.33008C18.7895 1.41623 19.4001 1.61138 19.8955 2.10938C20.3908 2.60734 20.5842 3.22092 20.6699 3.86133C20.7497 4.45822 20.7501 5.20363 20.75 6.06836V17.8633C20.75 18.403 20.3143 18.8408 19.7773 18.8408H19.6875C19.6572 18.8768 19.6244 18.9161 19.5928 18.96C19.4254 19.1924 19.292 19.4846 19.292 19.8184C19.292 20.152 19.4255 20.4434 19.5928 20.6758C19.6244 20.7198 19.6571 20.7598 19.6875 20.7959H19.7773C20.3142 20.7959 20.7499 21.2329 20.75 21.7725C20.75 22.3122 20.3143 22.75 19.7773 22.75H6.16699C4.55622 22.75 3.2501 21.4375 3.25 19.8184V8.03516C3.24998 6.70606 3.25036 5.61062 3.36621 4.74414C3.48749 3.8374 3.75177 3.03671 4.38965 2.39551C5.02746 1.7544 5.82365 1.48814 6.72559 1.36621C7.5876 1.24974 8.67772 1.24998 10 1.25H15.9561ZM6.16797 18.8408C5.63103 18.8408 5.19532 19.2786 5.19531 19.8184C5.19546 20.358 5.63111 20.7949 6.16797 20.7949H17.501C17.4092 20.5035 17.3477 20.1771 17.3477 19.8184C17.3477 19.4593 17.4091 19.1324 17.501 18.8408H6.16797ZM12.001 13C11.4833 13 11.0573 13.3934 11.0059 13.8975L11 14.001L11.0059 14.1025C11.0572 14.6067 11.4832 15 12.001 15C12.5526 14.9995 12.9995 14.5526 13 14.001C13 13.4832 12.6067 13.0572 12.1025 13.0059L12.001 13ZM12 5C11.4477 5 11 5.44772 11 6V10C11 10.5523 11.4477 11 12 11C12.5523 11 13 10.5523 13 10V6C13 5.44772 12.5523 5 12 5Z" fill="currentColor" fill-rule="evenodd" clip-rule="evenodd"/></svg>
