<svg xmlns="http://www.w3.org/2000/svg" viewBox="0 0 24 24" fill="none"><path d="M14.1373 1.41795C14.2353 1.45271 14.3313 1.49271 14.425 1.53777C14.8799 1.75644 15.2361 2.11551 15.6386 2.52116L20.4214 7.32881L20.4214 7.32882C20.8888 7.79717 21.3036 8.21283 21.5277 8.75658C21.6264 8.99631 21.6815 9.24478 21.7121 9.50453H19.7313C18.3637 9.50455 17.7152 9.50377 16.8482 9.38721C15.9481 9.26619 15.1902 9.0073 14.5883 8.40538C13.9864 7.80346 13.7275 7.04559 13.6065 6.14548C13.4901 5.2803 13.4902 4.63259 13.4902 3.27075V3.27072V1.2793C13.7136 1.30237 13.9282 1.34379 14.1373 1.41795Z" fill="currentColor"/><path d="M5.24213 17.75V15.7422H3.24994C2.69765 15.7422 2.24994 15.2945 2.24994 14.7422C2.25011 14.19 2.69776 13.7422 3.24994 13.7422H5.24213V11.75C5.24213 11.1978 5.68999 10.7502 6.24213 10.75C6.79441 10.75 7.24213 11.1977 7.24213 11.75V13.7422H9.24994C9.80212 13.7422 10.2498 14.19 10.2499 14.7422C10.2499 15.2945 9.80222 15.7422 9.24994 15.7422H7.24213V17.75C7.24213 18.3023 6.79441 18.75 6.24213 18.75C5.68999 18.7498 5.24213 18.3022 5.24213 17.75Z" fill="currentColor"/><path d="M9.24994 20.75C9.80222 20.75 10.2499 21.1977 10.2499 21.75C10.2499 22.3023 9.80222 22.75 9.24994 22.75H3.24994C2.69765 22.75 2.24994 22.3023 2.24994 21.75C2.24994 21.1977 2.69765 20.75 3.24994 20.75H9.24994Z" fill="currentColor"/><path opacity="0.4" d="M12.5878 1.2501C13.1576 1.24934 13.6623 1.24847 14.1376 1.4171C14.2354 1.4518 14.3312 1.49224 14.4247 1.53721C14.8796 1.75587 15.2362 2.11499 15.6386 2.52061L20.4218 7.32823C20.889 7.79645 21.3032 8.2124 21.5273 8.75596C21.7513 9.29967 21.751 9.88856 21.7499 10.5519V14.0265C21.75 15.8083 21.7496 17.2445 21.5986 18.3741C21.4417 19.547 21.1064 20.5351 20.3261 21.3194C19.5459 22.1037 18.5632 22.4411 17.3964 22.5987C16.2727 22.7506 14.8438 22.7501 13.0712 22.7501C12.4409 22.7501 11.8358 22.7472 11.2675 22.7403C11.4146 22.4412 11.4999 22.1059 11.4999 21.7501C11.4999 20.5075 10.4925 19.5001 9.24994 19.5001H8.49213V16.9923H9.24994C10.4926 16.9923 11.4999 15.9849 11.4999 14.7423C11.4995 13.5005 10.4928 12.4923 9.24994 12.4923H8.49213V11.7501C8.49207 10.5075 7.48473 9.5001 6.24213 9.5001C5.37708 9.50037 4.62643 9.98958 4.24994 10.7062V9.45323C4.24992 7.91957 4.24992 6.68219 4.3642 5.69835C4.48246 4.68057 4.73454 3.80819 5.32709 3.06944C5.54446 2.79849 5.78996 2.55161 6.05951 2.33311C6.79454 1.7374 7.66303 1.48419 8.67572 1.36534C9.65446 1.25052 11.0623 1.25008 12.5878 1.2501Z" fill="currentColor"/></svg>
