<svg xmlns="http://www.w3.org/2000/svg" viewBox="0 0 24 24" fill="none"><path d="M5.24164 17.75V15.7422H3.24945C2.69717 15.7422 2.24945 15.2945 2.24945 14.7422C2.24962 14.19 2.69727 13.7422 3.24945 13.7422H5.24164V11.75C5.24164 11.1978 5.6895 10.7502 6.24164 10.75C6.79392 10.75 7.24164 11.1977 7.24164 11.75V13.7422H9.24945C9.80163 13.7422 10.2493 14.19 10.2495 14.7422C10.2495 15.2945 9.80174 15.7422 9.24945 15.7422H7.24164V17.75C7.24164 18.3023 6.79392 18.75 6.24164 18.75C5.6895 18.7498 5.24164 18.3022 5.24164 17.75Z" fill="currentColor"/><path d="M9.24945 20.75C9.80174 20.75 10.2495 21.1977 10.2495 21.75C10.2495 22.3023 9.80174 22.75 9.24945 22.75H3.24945C2.69717 22.75 2.24945 22.3023 2.24945 21.75C2.24945 21.1977 2.69717 20.75 3.24945 20.75H9.24945Z" fill="currentColor"/><path d="M12.5873 1.24962C13.1571 1.24885 13.6618 1.24801 14.1371 1.41661C14.2349 1.45131 14.3307 1.49176 14.4243 1.53672C14.879 1.75537 15.2357 2.11453 15.6381 2.52012L20.4213 7.32774C20.8885 7.79592 21.3027 8.21197 21.5268 8.75547C21.7508 9.29915 21.7505 9.88811 21.7495 10.5514V14.026C21.7495 15.8077 21.7491 17.2441 21.5981 18.3736C21.4412 19.5463 21.1056 20.5337 20.3256 21.318C19.5454 22.1023 18.5627 22.4406 17.3959 22.5982C16.2722 22.7501 14.8433 22.7496 13.0707 22.7496C12.4403 22.7496 11.8354 22.7466 11.267 22.7398C11.4141 22.4407 11.4995 22.1054 11.4995 21.7496C11.4994 20.507 10.4921 19.4996 9.24945 19.4996H8.49164V16.9918H9.24945C10.4921 16.9918 11.4995 15.9844 11.4995 14.7418C11.499 13.5 10.4923 12.4918 9.24945 12.4918H8.49164V11.7496C8.49158 10.507 7.48424 9.49961 6.24164 9.49961C5.3766 9.49988 4.62594 9.98909 4.24945 10.7057V9.45176C4.24943 7.9184 4.24945 6.68156 4.36371 5.69786C4.48197 4.68012 4.73407 3.80767 5.3266 3.06895C5.54395 2.79804 5.78951 2.5511 6.05902 2.33262C6.79403 1.73697 7.66259 1.4837 8.67523 1.36485C9.65397 1.25003 11.0618 1.2496 12.5873 1.24962ZM13.4897 3.27012C13.4897 4.63142 13.4897 5.27931 13.6059 6.14415C13.7269 7.04397 13.9858 7.80209 14.5873 8.40391C15.1893 9.00582 15.948 9.26532 16.8481 9.38633C17.7149 9.50284 18.3635 9.50354 19.7309 9.50352C19.6741 9.36576 19.5684 9.23491 18.9506 8.61387L14.3461 3.98497C13.8133 3.44934 13.6713 3.31602 13.4897 3.26133V3.27012Z" fill="currentColor" fill-rule="evenodd" clip-rule="evenodd"/></svg>
