<svg xmlns="http://www.w3.org/2000/svg" viewBox="0 0 24 24" fill="none"><path opacity="0.4" d="M20.6203 1.77341C21.0187 1.82371 21.3885 1.96442 21.711 2.28688C22.0334 2.60935 22.1741 2.97911 22.2244 3.37758C22.267 3.71437 22.245 4.16067 22.225 4.56747C22.1056 7.0084 21.3692 9.39849 19.5263 11.2414L18.0407 12.727C17.3924 13.3753 17.1068 13.6733 16.9657 13.9488C16.8679 14.1398 16.82 14.3615 16.9287 14.9332C17.0479 15.4096 17.1973 16.0064 17.1983 16.5635C17.1995 17.1771 17.0294 17.8163 16.4881 18.3577C15.9715 18.8742 15.3642 19.2479 14.6558 19.2479C13.9475 19.2479 13.3401 18.8742 12.8236 18.3577L5.64015 11.1742C5.12363 10.6577 4.74991 10.0504 4.74991 9.34203C4.7499 8.63369 5.12361 8.02634 5.64015 7.5098C6.18154 6.96841 6.82078 6.79836 7.43438 6.79953C7.99144 6.80058 8.58824 6.94995 9.06466 7.06919C9.63638 7.17785 9.85802 7.12999 10.0491 7.03215C10.3245 6.8911 10.6225 6.60543 11.2709 5.9571L12.7564 4.47153C14.5994 2.62861 16.9894 1.89224 19.4304 1.77283C19.8372 1.75283 20.2835 1.73089 20.6203 1.77341Z" fill="currentColor"/><path d="M15.496 6.99902C15.496 6.1706 16.1646 5.49902 16.9893 5.49902H17.0027C17.8274 5.49902 18.496 6.1706 18.496 6.99902C18.496 7.82745 17.8274 8.49902 17.0027 8.49902H16.9893C16.1646 8.49902 15.496 7.82745 15.496 6.99902Z" fill="currentColor" fill-rule="evenodd" clip-rule="evenodd"/><path d="M5.27166 13.0273C5.64266 13.3983 5.64266 13.9998 5.27166 14.3708L3.37166 16.2708C3.00066 16.6418 2.39916 16.6418 2.02816 16.2708C1.65716 15.8998 1.65716 15.2983 2.02816 14.9273L3.92816 13.0273C4.29915 12.6563 4.90066 12.6563 5.27166 13.0273ZM6.77816 15.8773C7.14915 15.5063 7.75066 15.5063 8.12166 15.8773C8.49266 16.2483 8.49266 16.8498 8.12166 17.2208L3.37166 21.9708C3.00066 22.3418 2.39916 22.3418 2.02816 21.9708C1.65716 21.5998 1.65716 20.9983 2.02816 20.6273L6.77816 15.8773ZM10.9717 18.7273C11.3427 19.0983 11.3427 19.6998 10.9717 20.0708L9.07166 21.9708C8.70066 22.3418 8.09915 22.3418 7.72816 21.9708C7.35716 21.5998 7.35716 20.9983 7.72816 20.6273L9.62816 18.7273C9.99916 18.3563 10.6007 18.3563 10.9717 18.7273Z" fill="currentColor" fill-rule="evenodd" clip-rule="evenodd"/></svg>
