<svg xmlns="http://www.w3.org/2000/svg" viewBox="0 0 24 24" fill="none"><path d="M19.4306 1.77247C19.8372 1.75247 20.2833 1.73097 20.62 1.77344C21.0185 1.82375 21.3884 1.96465 21.7108 2.28712C22.0333 2.60958 22.1742 2.97947 22.2245 3.37794C22.267 3.71464 22.2455 4.16074 22.2255 4.56739C22.1061 7.00826 21.3691 9.39832 19.5263 11.2412L18.0409 12.7275C17.3927 13.3758 17.1068 13.6738 16.9657 13.9492C16.868 14.1402 16.82 14.3621 16.9286 14.9336C17.0478 15.4099 17.1971 16.0066 17.1982 16.5635C17.1993 17.177 17.0294 17.8161 16.4882 18.3574C15.9717 18.8739 15.3644 19.2479 14.6562 19.2481C13.9478 19.248 13.3397 18.874 12.8232 18.3574L5.64053 11.1748C5.12401 10.6583 4.74991 10.0501 4.74991 9.3418C4.75002 8.6336 5.12407 8.02623 5.64053 7.50977C6.18186 6.96859 6.82097 6.79865 7.43448 6.79981C7.9914 6.80089 8.58801 6.95012 9.06436 7.06934C9.63583 7.17796 9.85774 7.12998 10.0487 7.03223C10.3242 6.89119 10.6222 6.60526 11.2704 5.95704L12.7567 4.47169C14.5996 2.62886 16.9897 1.89187 19.4306 1.77247ZM16.9892 5.49903C16.1645 5.4991 15.4961 6.17069 15.496 6.99903C15.496 7.82741 16.1645 8.49896 16.9892 8.49903H17.0028C17.8275 8.49896 18.496 7.82741 18.496 6.99903C18.4959 6.17069 17.8275 5.4991 17.0028 5.49903H16.9892Z" fill="currentColor" fill-rule="evenodd" clip-rule="evenodd"/><path d="M5.27166 13.0273C5.64266 13.3983 5.64266 13.9998 5.27166 14.3708L3.37166 16.2708C3.00066 16.6418 2.39916 16.6418 2.02816 16.2708C1.65716 15.8998 1.65716 15.2983 2.02816 14.9273L3.92816 13.0273C4.29915 12.6563 4.90066 12.6563 5.27166 13.0273ZM6.77816 15.8773C7.14915 15.5063 7.75066 15.5063 8.12166 15.8773C8.49266 16.2483 8.49266 16.8498 8.12166 17.2208L3.37166 21.9708C3.00066 22.3418 2.39916 22.3418 2.02816 21.9708C1.65716 21.5998 1.65716 20.9983 2.02816 20.6273L6.77816 15.8773ZM10.9717 18.7273C11.3427 19.0983 11.3427 19.6998 10.9717 20.0708L9.07166 21.9708C8.70066 22.3418 8.09915 22.3418 7.72816 21.9708C7.35716 21.5998 7.35716 20.9983 7.72816 20.6273L9.62816 18.7273C9.99916 18.3563 10.6007 18.3563 10.9717 18.7273Z" fill="currentColor" fill-rule="evenodd" clip-rule="evenodd"/></svg>
