<svg xmlns="http://www.w3.org/2000/svg" viewBox="0 0 24 24" fill="none"><path d="M12 22.75C17.9371 22.75 22.75 17.9371 22.75 12C22.75 6.06294 17.9371 1.25 12 1.25C6.06294 1.25 1.25 6.06294 1.25 12C1.25 17.9371 6.06294 22.75 12 22.75ZM8.375 10.25C7.83479 10.25 7.54739 9.83182 7.43945 9.61621C7.3093 9.3559 7.25 9.04829 7.25 8.75C7.25 8.45171 7.3093 8.1441 7.43945 7.88379C7.54739 7.66817 7.83479 7.25 8.375 7.25C8.91521 7.25 9.20261 7.66818 9.31055 7.88379C9.4407 8.1441 9.5 8.4517 9.5 8.75C9.5 9.04829 9.4407 9.3559 9.31055 9.61621C9.20261 9.83182 8.91522 10.25 8.375 10.25ZM15.625 10.25C15.0848 10.25 14.7974 9.83182 14.6895 9.61621C14.5593 9.3559 14.5 9.04829 14.5 8.75C14.5 8.45171 14.5593 8.1441 14.6895 7.88379C14.7974 7.66817 15.0848 7.25 15.625 7.25C16.1652 7.25 16.4526 7.66818 16.5605 7.88379C16.6907 8.1441 16.75 8.4517 16.75 8.75C16.75 9.04829 16.6907 9.3559 16.5605 9.61621C16.4526 9.83182 16.1652 10.25 15.625 10.25Z" fill="currentColor"/></svg>
