<svg xmlns="http://www.w3.org/2000/svg" viewBox="0 0 24 24" fill="none"><path opacity="0.4" d="M22.4688 15.7764C22.7593 14.8819 22.75 13.8026 22.75 12C22.75 10.1975 22.7593 9.11819 22.4688 8.22367C21.9 6.47315 20.5269 5.10006 18.7764 4.53128C17.8819 4.24077 16.8026 4.25003 15 4.25003H9.00003C7.19745 4.25003 6.11819 4.24077 5.22367 4.53128C3.47315 5.10006 2.10006 6.47315 1.53128 8.22367C1.24077 9.11819 1.25003 10.1975 1.25003 12C1.25003 13.8026 1.24077 14.8819 1.53128 15.7764C2.10006 17.5269 3.47315 18.9 5.22367 19.4688C6.11819 19.7593 7.19745 19.75 9.00003 19.75H15C16.8026 19.75 17.8819 19.7593 18.7764 19.4688C20.5269 18.9 21.9 17.5269 22.4688 15.7764Z" fill="currentColor"/><path d="M7 14.5V13H5.5C4.94772 13 4.5 12.5523 4.5 12C4.5 11.4477 4.94772 11 5.5 11H7V9.5C7 8.94772 7.44772 8.5 8 8.5C8.55228 8.5 9 8.94772 9 9.5V11H10.5C11.0523 11 11.5 11.4477 11.5 12C11.5 12.5523 11.0523 13 10.5 13H9V14.5C9 15.0523 8.55228 15.5 8 15.5C7.44772 15.5 7 15.0523 7 14.5Z" fill="currentColor"/><path d="M18.5 11L18.6025 11.0049C19.1067 11.0562 19.5 11.4823 19.5 12C19.5 12.5177 19.1067 12.9438 18.6025 12.9951L18.5 13H15.5C14.9477 13 14.5 12.5523 14.5 12C14.5 11.4477 14.9477 11 15.5 11L18.5 11Z" fill="currentColor"/></svg>
