<svg xmlns="http://www.w3.org/2000/svg" viewBox="0 0 24 24" fill="none"><path d="M15 4.25C16.8026 4.25 17.8819 4.24075 18.7764 4.53125C20.5269 5.10002 21.9 6.47313 22.4688 8.22363C22.7593 9.11815 22.75 10.1974 22.75 12C22.75 13.8026 22.7593 14.8819 22.4688 15.7764C21.9 17.5269 20.5269 18.9 18.7764 19.4688C17.8819 19.7593 16.8026 19.75 15 19.75H9C7.19744 19.75 6.11815 19.7593 5.22363 19.4688C3.47313 18.9 2.10002 17.5269 1.53125 15.7764C1.24075 14.8819 1.25 13.8026 1.25 12C1.25 10.1974 1.24074 9.11815 1.53125 8.22363C2.10003 6.47313 3.47313 5.10003 5.22363 4.53125C6.11815 4.24074 7.19744 4.25 9 4.25H15ZM8 8.5C7.44774 8.5 7.00003 8.94774 7 9.5V11H5.5C4.94774 11 4.50003 11.4477 4.5 12C4.5 12.5523 4.94772 13 5.5 13H7V14.5C7 15.0523 7.44772 15.5 8 15.5C8.55228 15.5 9 15.0523 9 14.5V13H10.5C11.0523 13 11.5 12.5523 11.5 12C11.5 11.4477 11.0523 11 10.5 11H9V9.5C8.99997 8.94774 8.55226 8.5 8 8.5ZM15.5 11C14.9477 11 14.5 11.4477 14.5 12C14.5 12.5523 14.9477 13 15.5 13H18.5L18.6025 12.9951C19.1067 12.9438 19.5 12.5177 19.5 12C19.5 11.4824 19.1066 11.0562 18.6025 11.0049L18.5 11H15.5Z" fill="currentColor"/></svg>
