<svg xmlns="http://www.w3.org/2000/svg" viewBox="0 0 24 24" fill="none"><path d="M2.14258 17.7363L6.05762 16.9756C6.1049 16.9665 6.16839 16.9707 6.24023 17.0009C6.85676 17.2606 7.51412 17.4572 8.19824 17.584C8.06988 17.0823 8.00001 16.5534 8 16C8 11.8013 11.9467 8.99997 16 8.99997C16.9291 8.99997 17.852 9.14925 18.7236 9.42673C18.3906 5.33702 14.526 2.24997 10 2.24997C5.26471 2.24997 1.25 5.62883 1.25 9.99997C1.25001 11.2483 1.58317 12.4264 2.1709 13.4668C2.23074 13.5727 2.23407 13.6685 2.21484 13.7314L1.2832 16.7802C1.20625 17.032 1.26627 17.3063 1.44238 17.5019C1.61843 17.6974 1.88431 17.7863 2.14258 17.7363ZM7.25 7.99997C6.69772 7.99997 6.25002 7.55224 6.25 6.99997C6.25 6.44769 6.69771 5.99997 7.25 5.99997C7.80228 5.99997 8.25 6.44769 8.25 6.99997C8.24998 7.55225 7.80227 7.99997 7.25 7.99997ZM12.75 7.99997C12.1977 7.99997 11.75 7.55224 11.75 6.99997C11.75 6.44769 12.1977 5.99997 12.75 5.99997C13.3023 5.99997 13.75 6.44769 13.75 6.99997C13.75 7.55225 13.3023 7.99997 12.75 7.99997Z" fill="currentColor" fill-rule="evenodd" clip-rule="evenodd"/><path d="M16 21.75C16.9995 21.75 17.9521 21.5649 18.8105 21.2305C18.8862 21.201 18.949 21.198 18.9932 21.2061L21.8633 21.7373C22.1228 21.7853 22.3891 21.6933 22.5635 21.4951C22.7376 21.297 22.7945 21.0217 22.7139 20.7705L22.0625 18.7412C22.0426 18.6791 22.0426 18.5717 22.1143 18.4414C22.5198 17.7039 22.75 16.876 22.75 16C22.75 12.7021 19.5941 10.25 16 10.25C12.4059 10.25 9.25 12.7021 9.25 16C9.25 19.2979 12.4059 21.75 16 21.75ZM13.75 16C13.1977 16 12.75 15.5523 12.75 15C12.75 14.4477 13.1977 14 13.75 14C14.3023 14 14.75 14.4477 14.75 15C14.75 15.5523 14.3023 16 13.75 16ZM18.25 16C17.6977 16 17.25 15.5523 17.25 15C17.25 14.4477 17.6977 14 18.25 14C18.8023 14 19.25 14.4477 19.25 15C19.25 15.5523 18.8023 16 18.25 16Z" fill="currentColor"/></svg>
