<svg xmlns="http://www.w3.org/2000/svg" viewBox="0 0 24 24" fill="none"><path opacity="0.4" d="M13.7498 17.0468V17.0001V14.796C13.7498 13.9786 13.7653 13.3431 13.5086 12.7715C13.2519 12.1999 12.7661 11.7893 12.1551 11.2462L9.37188 8.77155C8.99387 8.43554 8.50558 8.25006 7.99981 8.25006C7.49405 8.25006 7.00576 8.43554 6.62774 8.77155L3.84454 11.2462C3.23351 11.7893 2.74774 12.1999 2.49102 12.7715C2.23436 13.3431 2.24981 13.9786 2.24981 14.796V17.0001L2.24981 17.0468C2.24979 17.9476 2.24977 18.699 2.32989 19.295C2.41433 19.9226 2.60012 20.489 3.05548 20.9444C3.51084 21.3998 4.07728 21.5855 4.70489 21.67C5.30084 21.7501 6.05225 21.7501 6.95308 21.7501H6.99981H8.99981H9.04654C9.94738 21.7501 10.6988 21.7501 11.2947 21.67C11.9223 21.5855 12.4888 21.3998 12.9441 20.9444C13.3995 20.489 13.5853 19.9226 13.6697 19.295C13.7499 18.699 13.7498 17.9476 13.7498 17.0468Z" fill="currentColor"/><path d="M8.99927 17.0001C8.99927 16.4478 8.55155 16.0001 7.99927 16.0001C7.44698 16.0001 6.99927 16.4478 6.99927 17.0001V21.7501H8.99927V17.0001Z" fill="currentColor"/><path d="M16.0397 21.7501C17.179 21.7501 18.1094 21.7501 18.8434 21.6514C19.6073 21.5487 20.2698 21.3266 20.7985 20.7979C21.3272 20.2692 21.5493 19.6068 21.652 18.8428C21.7506 18.1089 21.7506 17.1785 21.7506 16.0391V7.961C21.7506 6.82165 21.7506 5.89125 21.652 5.15729C21.5493 4.39334 21.3272 3.7309 20.7985 3.20221C20.2698 2.67352 19.6073 2.4514 18.8434 2.34869C18.1094 2.25005 17.179 2.25005 16.0397 2.25006H13.9615C12.8222 2.25005 11.8918 2.25005 11.1578 2.34869C10.3939 2.4514 9.73145 2.67352 9.20276 3.20221C8.67407 3.7309 8.45195 4.39334 8.34924 5.15729C8.27954 5.6759 8.25954 6.2926 8.25354 7.01178C8.97391 7.06683 9.66006 7.35372 10.2037 7.83698L12.9869 10.3116C13.5213 10.7866 14.2589 11.3889 14.65 12.2598C14.9431 12.9126 14.9935 13.61 15.0006 14.2198V17.0001C15.0006 17.8875 15.0051 18.7534 14.9098 19.462C14.8104 20.2008 14.5718 21.0396 13.903 21.7501H16.0397ZM12.9996 8.00006C12.4473 8.00006 11.9996 7.55235 11.9996 7.00006C11.9996 6.44778 12.4473 6.00006 12.9996 6.00006C13.5519 6.00006 13.9996 6.44778 13.9996 7.00006C13.9996 7.55235 13.5519 8.00006 12.9996 8.00006ZM16.9996 8.00006C16.4473 8.00006 15.9996 7.55235 15.9996 7.00006C15.9996 6.44778 16.4473 6.00006 16.9996 6.00006C17.5519 6.00006 17.9996 6.44778 17.9996 7.00006C17.9996 7.55235 17.5519 8.00006 16.9996 8.00006ZM16.9996 12.0001C16.4473 12.0001 15.9996 11.5523 15.9996 11.0001C15.9996 10.4478 16.4473 10.0001 16.9996 10.0001C17.5519 10.0001 17.9996 10.4478 17.9996 11.0001C17.9996 11.5523 17.5519 12.0001 16.9996 12.0001ZM16.9996 16.0001C16.4473 16.0001 15.9996 15.5523 15.9996 15.0001C15.9996 14.4478 16.4473 14.0001 16.9996 14.0001C17.5519 14.0001 17.9996 14.4478 17.9996 15.0001C17.9996 15.5523 17.5519 16.0001 16.9996 16.0001Z" fill="currentColor"/></svg>
