<svg xmlns="http://www.w3.org/2000/svg" viewBox="0 0 24 24" fill="none"><path d="M9.0465 21.7501C9.94716 21.7501 10.6987 21.7501 11.2946 21.67C11.9221 21.5856 12.4886 21.3996 12.944 20.9444C13.3993 20.489 13.5851 19.9226 13.6696 19.295C13.7497 18.6991 13.7497 17.9477 13.7496 17.0469V14.796C13.7496 13.9786 13.7651 13.3431 13.5084 12.7715C13.2517 12.2 12.7659 11.7892 12.1549 11.2462L9.3717 8.77154C8.99371 8.43565 8.5053 8.25006 7.99963 8.25006C7.49399 8.25015 7.00549 8.43562 6.62756 8.77154L3.84436 11.2462C3.23342 11.7892 2.74752 12.2 2.49084 12.7715C2.23423 13.3431 2.24962 13.9787 2.24963 14.796L2.24963 17.0469C2.2496 17.9477 2.24959 18.6991 2.32971 19.295C2.41413 19.9225 2.60006 20.4891 3.05529 20.9444C3.51057 21.3997 4.07723 21.5855 4.70471 21.67C5.30065 21.7501 6.0529 21.7501 6.95373 21.7501H6.99963L6.99963 17.0001C6.99963 16.4478 7.44743 16.0002 7.99963 16.0001C8.55191 16.0001 8.99963 16.4478 8.99963 17.0001V21.7501H9.0465Z" fill="currentColor" fill-rule="evenodd" clip-rule="evenodd"/><path d="M16.0397 21.7501C17.179 21.7501 18.1094 21.7501 18.8434 21.6514C19.6073 21.5487 20.2698 21.3266 20.7985 20.7979C21.3272 20.2692 21.5493 19.6068 21.652 18.8428C21.7506 18.1089 21.7506 17.1785 21.7506 16.0391V7.961C21.7506 6.82165 21.7506 5.89125 21.652 5.15729C21.5493 4.39334 21.3272 3.7309 20.7985 3.20221C20.2698 2.67352 19.6073 2.4514 18.8434 2.34869C18.1094 2.25005 17.179 2.25005 16.0397 2.25006H13.9615C12.8222 2.25005 11.8918 2.25005 11.1578 2.34869C10.3939 2.4514 9.73145 2.67352 9.20276 3.20221C8.67407 3.7309 8.45195 4.39334 8.34924 5.15729C8.27954 5.6759 8.25954 6.2926 8.25354 7.01178C8.97391 7.06683 9.66006 7.35372 10.2037 7.83698L12.9869 10.3116C13.5213 10.7866 14.2589 11.3889 14.65 12.2598C14.9431 12.9126 14.9935 13.61 15.0006 14.2198V17.0001C15.0006 17.8875 15.0051 18.7534 14.9098 19.462C14.8104 20.2008 14.5718 21.0396 13.903 21.7501H16.0397ZM12.9996 8.00006C12.4473 8.00006 11.9996 7.55235 11.9996 7.00006C11.9996 6.44778 12.4473 6.00006 12.9996 6.00006C13.5519 6.00006 13.9996 6.44778 13.9996 7.00006C13.9996 7.55235 13.5519 8.00006 12.9996 8.00006ZM16.9996 8.00006C16.4473 8.00006 15.9996 7.55235 15.9996 7.00006C15.9996 6.44778 16.4473 6.00006 16.9996 6.00006C17.5519 6.00006 17.9996 6.44778 17.9996 7.00006C17.9996 7.55235 17.5519 8.00006 16.9996 8.00006ZM16.9996 12.0001C16.4473 12.0001 15.9996 11.5523 15.9996 11.0001C15.9996 10.4478 16.4473 10.0001 16.9996 10.0001C17.5519 10.0001 17.9996 10.4478 17.9996 11.0001C17.9996 11.5523 17.5519 12.0001 16.9996 12.0001ZM16.9996 16.0001C16.4473 16.0001 15.9996 15.5523 15.9996 15.0001C15.9996 14.4478 16.4473 14.0001 16.9996 14.0001C17.5519 14.0001 17.9996 14.4478 17.9996 15.0001C17.9996 15.5523 17.5519 16.0001 16.9996 16.0001Z" fill="currentColor"/></svg>
