<svg xmlns="http://www.w3.org/2000/svg" viewBox="0 0 24 24" fill="none"><path d="M21.75 12.0674V11.9326C21.75 10.8389 21.7499 9.86438 21.7224 9H19.7705C19.7981 9.83358 19.7988 10.8179 19.7988 12C19.7988 14.0958 19.7964 15.5699 19.6465 16.6846C19.5004 17.7707 19.2307 18.3687 18.7998 18.7998C18.3687 19.231 17.7701 19.5014 16.6836 19.6475C15.5689 19.7973 14.0948 19.7998 11.999 19.7998C9.90328 19.7998 8.42913 19.7973 7.31445 19.6475C6.22809 19.5013 5.63034 19.2309 5.19922 18.7998C4.76813 18.3687 4.49766 17.771 4.35156 16.6846C4.20169 15.5699 4.19922 14.0958 4.19922 12C4.19922 10.8179 4.19996 9.83358 4.22754 9H2.27758C2.25012 9.86438 2.24999 10.8389 2.25 11.9326V12.0674C2.24998 14.0766 2.25043 15.6836 2.41992 16.9443C2.59511 18.2471 2.96748 19.3249 3.82129 20.1787C4.6751 21.0325 5.75292 21.4049 7.05566 21.5801C8.31643 21.7496 9.92344 21.75 11.9326 21.75H12.0674C14.0766 21.75 15.6836 21.7496 16.9443 21.5801C18.2471 21.4049 19.3249 21.0325 20.1787 20.1787C21.0325 19.3249 21.4049 18.2471 21.5801 16.9443C21.7496 15.6836 21.75 14.0766 21.75 12.0674Z" fill="currentColor"/><path opacity="0.4" d="M16.9443 2.41992C15.6836 2.25043 14.0766 2.24998 12.0674 2.25H11.9326C9.92344 2.24998 8.31643 2.25043 7.05566 2.41992C5.75291 2.59511 4.6751 2.96748 3.82129 3.82129C2.96747 4.6751 2.59511 5.75292 2.41992 7.05566C2.34269 7.63013 2.30056 8.27648 2.27757 9H4.22754H19.7705H21.7224C21.6994 8.27648 21.6573 7.63013 21.5801 7.05566C21.4049 5.75292 21.0325 4.6751 20.1787 3.82129C19.3249 2.96748 18.2471 2.59511 16.9443 2.41992Z" fill="currentColor"/></svg>
