<svg xmlns="http://www.w3.org/2000/svg" viewBox="0 0 24 24" fill="none"><path d="M12.0674 2.25C14.0766 2.24998 15.6836 2.25043 16.9443 2.41992C18.2471 2.59511 19.3249 2.96748 20.1787 3.82129C21.0325 4.6751 21.4049 5.75292 21.5801 7.05566C21.7496 8.31643 21.75 9.92344 21.75 11.9326V12.0674C21.75 14.0766 21.7496 15.6836 21.5801 16.9443C21.4049 18.2471 21.0325 19.3249 20.1787 20.1787C19.3249 21.0325 18.2471 21.4049 16.9443 21.5801C15.6836 21.7496 14.0766 21.75 12.0674 21.75H11.9326C9.92344 21.75 8.31643 21.7496 7.05566 21.5801C5.75292 21.4049 4.6751 21.0325 3.82129 20.1787C2.96748 19.3249 2.59511 18.2471 2.41992 16.9443C2.25043 15.6836 2.24998 14.0766 2.25 12.0674V11.9326C2.24998 9.92344 2.25043 8.31643 2.41992 7.05566C2.59511 5.75292 2.96748 4.6751 3.82129 3.82129C4.6751 2.96748 5.75292 2.59511 7.05566 2.41992C8.31643 2.25043 9.92344 2.24998 11.9326 2.25H12.0674ZM4.22754 9C4.19996 9.83358 4.19922 10.8179 4.19922 12C4.19922 14.0958 4.20169 15.5699 4.35156 16.6846C4.49766 17.771 4.76813 18.3687 5.19922 18.7998C5.63034 19.2309 6.22809 19.5013 7.31445 19.6475C8.42913 19.7973 9.90328 19.7998 11.999 19.7998C14.0948 19.7998 15.5689 19.7973 16.6836 19.6475C17.7701 19.5014 18.3687 19.231 18.7998 18.7998C19.2307 18.3687 19.5004 17.7707 19.6465 16.6846C19.7964 15.5699 19.7988 14.0958 19.7988 12C19.7988 10.8179 19.7981 9.83358 19.7705 9H4.22754Z" fill="currentColor" fill-rule="evenodd" clip-rule="evenodd"/></svg>
