<svg xmlns="http://www.w3.org/2000/svg" viewBox="0 0 24 24" fill="none"><path opacity="0.4" d="M1.25009 7.94443V11.0001V11.066C1.25007 13.3701 1.25006 15.1763 1.43955 16.586C1.63379 18.0308 2.03985 19.1707 2.93466 20.0655C3.82947 20.9603 4.96942 21.3664 6.41415 21.5606C7.82385 21.7501 9.63009 21.7501 11.9342 21.7501H12.0001H13.2501H13.2835C15.0075 21.7501 16.3584 21.7501 17.4337 21.6407C18.5283 21.5294 19.4202 21.2986 20.1944 20.7813C20.8223 20.3618 21.3618 19.8223 21.7813 19.1944C22.2986 18.4202 22.5294 17.5283 22.6407 16.4337C22.7501 15.3584 22.7501 14.0075 22.7501 12.2835V12.2501V12.2263C22.7501 11.1998 22.7501 10.3729 22.6827 9.71005C22.6135 9.02964 22.467 8.43911 22.1183 7.91708C21.8447 7.50762 21.4926 7.15552 21.0831 6.88193C20.5611 6.53322 19.9705 6.38669 19.2901 6.31747C18.6273 6.25008 17.8004 6.25008 16.7739 6.25009H16.7501H12.464L12.0372 5.39755C11.5503 4.42364 10.9535 3.04736 9.46298 2.48837C8.7959 2.23822 8.04912 2.25009 6.94443 2.25009L6.9283 2.25009C6.04108 2.25009 5.32644 2.25009 4.75009 2.30087C4.16041 2.35285 3.64421 2.46271 3.17294 2.72568C2.5657 3.06455 2.06456 3.56569 1.72568 4.17294C1.46271 4.64421 1.35285 5.1604 1.30087 5.75009C1.25009 6.32644 1.25009 7.0411 1.25009 7.92833V7.94443Z" fill="currentColor"/><path d="M13.5001 13.5C13.5001 12.6716 12.8285 12 12.0001 12C11.1717 12 10.5001 12.6716 10.5001 13.5C10.5001 14.3284 11.1717 15 12.0001 15C12.8285 15 13.5001 14.3284 13.5001 13.5ZM15.5001 13.5C15.5001 14.1026 15.3464 14.669 15.0782 15.1641L16.2071 16.293C16.5976 16.6835 16.5976 17.3165 16.2071 17.707C15.8166 18.0976 15.1836 18.0976 14.7931 17.707L13.6642 16.5781C13.1691 16.8463 12.6027 17 12.0001 17C10.0671 17 8.50009 15.433 8.50009 13.5C8.50009 11.567 10.0671 10 12.0001 10C13.9331 10 15.5001 11.567 15.5001 13.5Z" fill="currentColor"/></svg>
