<svg xmlns="http://www.w3.org/2000/svg" viewBox="0 0 24 24" fill="none"><path d="M6.94443 2.25009C8.0491 2.25009 8.7959 2.23823 9.46298 2.48837C10.9535 3.04734 11.5503 4.42365 12.0372 5.39755L12.464 6.25009H16.7735C17.8 6.25008 18.6273 6.25008 19.2901 6.31747C19.9705 6.38669 20.5611 6.53324 21.0831 6.88193C21.4925 7.15551 21.8447 7.50764 22.1183 7.91708C22.4669 8.43909 22.6135 9.02967 22.6827 9.71005C22.7501 10.3729 22.7501 11.2002 22.7501 12.2267V12.2833C22.7501 14.0073 22.7501 15.3584 22.6407 16.4337C22.5294 17.5282 22.2986 18.4202 21.7813 19.1944C21.3618 19.8223 20.8223 20.3618 20.1944 20.7813C19.4202 21.2986 18.5283 21.5294 17.4337 21.6407C16.3584 21.7501 15.0073 21.7501 13.2833 21.7501H11.9347C9.63054 21.7501 7.82385 21.7501 6.41415 21.5606C4.96942 21.3664 3.82947 20.9603 2.93466 20.0655C2.03988 19.1707 1.63378 18.0307 1.43955 16.586C1.25008 15.1764 1.25007 13.3704 1.25009 11.0665V7.9288C1.25009 7.04156 1.25009 6.32644 1.30087 5.75009C1.35286 5.16044 1.46273 4.64419 1.72568 4.17294C2.06456 3.56572 2.56572 3.06454 3.17294 2.72568C3.6442 2.46273 4.16042 2.35285 4.75009 2.30087C5.32633 2.2501 6.04083 2.25009 6.92783 2.25009H6.94443ZM12.0001 10.0001C10.0671 10.0001 8.50009 11.5671 8.50009 13.5001C8.50009 15.4331 10.0671 17.0001 12.0001 17.0001C12.6027 17.0001 13.1691 16.8464 13.6642 16.5782L14.7931 17.7071C15.1836 18.0976 15.8166 18.0976 16.2071 17.7071C16.5976 17.3166 16.5976 16.6836 16.2071 16.2931L15.0782 15.1642C15.3464 14.6691 15.5001 14.1027 15.5001 13.5001C15.5001 11.5671 13.9331 10.0001 12.0001 10.0001ZM12.0001 12.0001C12.8285 12.0001 13.5001 12.6717 13.5001 13.5001C13.5001 14.3285 12.8285 15.0001 12.0001 15.0001C11.1717 15.0001 10.5001 14.3285 10.5001 13.5001C10.5001 12.6717 11.1717 12.0001 12.0001 12.0001Z" fill="currentColor" fill-rule="evenodd" clip-rule="evenodd"/></svg>
