<svg xmlns="http://www.w3.org/2000/svg" viewBox="0 0 24 24" fill="none"><path d="M19.75 16.0645C19.75 17.4275 19.7501 18.5267 19.6338 19.3916C19.5128 20.2917 19.2533 21.0494 18.6514 21.6514C18.0495 22.2533 17.2917 22.5128 16.3916 22.6338C15.5267 22.75 14.4275 22.75 13.0645 22.75H10.9355C9.57249 22.75 8.47331 22.7501 7.6084 22.6338C6.70829 22.5128 5.95055 22.2533 5.34863 21.6514C4.74672 21.0494 4.48723 20.2917 4.36621 19.3916C4.24995 18.5267 4.24997 17.4275 4.25 16.0645V11.75H19.75V16.0645ZM8.5 14C7.94772 14 7.5 14.4477 7.5 15V18C7.5 18.5523 7.94772 19 8.5 19C9.05228 19 9.5 18.5523 9.5 18V15C9.5 14.4477 9.05228 14 8.5 14ZM13.0645 1.25C14.4275 1.24997 15.5267 1.24995 16.3916 1.36621C17.2917 1.48723 18.0495 1.74672 18.6514 2.34863C19.2533 2.95055 19.5128 3.70829 19.6338 4.6084C19.7501 5.47331 19.75 6.57249 19.75 7.93555V10.25H4.25V7.93555C4.24997 6.57249 4.24995 5.47331 4.36621 4.6084C4.48723 3.70829 4.74672 2.95055 5.34863 2.34863C5.95055 1.74672 6.70829 1.48723 7.6084 1.36621C8.47331 1.24995 9.57249 1.24997 10.9355 1.25H13.0645ZM8.5 5C7.94772 5 7.5 5.44772 7.5 6V7C7.5 7.55228 7.94772 8 8.5 8C9.05228 8 9.5 7.55228 9.5 7V6C9.5 5.44772 9.05228 5 8.5 5Z" fill="currentColor"/></svg>
