<svg xmlns="http://www.w3.org/2000/svg" viewBox="0 0 24 24" fill="none"><path opacity="0.4" d="M11 17.7496V21.7496C11 22.3019 11.4477 22.7496 12 22.7496C12.5523 22.7496 13 22.3019 13 21.7496V17.7496H11Z" fill="currentColor"/><path d="M12.0002 1.2496C12.844 1.2496 13.6655 1.51252 14.3406 1.99936L21.36 7.06275C21.7907 7.3734 21.8783 7.96044 21.5552 8.3746C21.2321 8.78866 20.6215 8.87266 20.1907 8.56227L13.1704 3.49979C12.8329 3.25639 12.4221 3.12446 12.0002 3.12446C11.5783 3.12446 11.1674 3.2564 10.8299 3.49979L3.80959 8.56227C3.37884 8.87266 2.76817 8.78866 2.44513 8.3746C2.12205 7.96044 2.20957 7.3734 2.64033 7.06275L9.65972 1.99936C10.3348 1.51253 11.1563 1.24961 12.0002 1.2496Z" fill="currentColor"/><path opacity="0.3" d="M19.4356 6.38943L12.4356 2.38943H11.5646L4.56455 6.38943C4.32838 6.55813 4.21007 6.84803 4.26182 7.13358L6.26182 18.1336C6.32666 18.4902 6.63763 18.7498 7.0001 18.7498H17.0001C17.3626 18.7498 17.6735 18.4902 17.7384 18.1336L19.7384 7.13358C19.7901 6.84803 19.6718 6.55813 19.4356 6.38943Z" fill="currentColor"/><path d="M12.0001 11.7497C13.5188 11.7497 14.7501 10.5185 14.7501 8.99969C14.7501 7.48091 13.5188 6.24969 12.0001 6.24969C10.4813 6.24969 9.25006 7.48091 9.25006 8.99969C9.25006 10.5185 10.4813 11.7497 12.0001 11.7497Z" fill="currentColor"/><path d="M13.0001 14.4997C13.0001 15.052 12.5523 15.4997 12.0001 15.4997C11.4478 15.4997 11.0001 15.052 11.0001 14.4997C11.0001 13.9474 11.4478 13.4997 12.0001 13.4997C12.5523 13.4997 13.0001 13.9474 13.0001 14.4997Z" fill="currentColor"/><path d="M18.5 16.9996C19.0523 16.9996 19.5 17.4473 19.5 17.9996C19.5 18.5519 19.0523 18.9996 18.5 18.9996H5.50003C4.94775 18.9996 4.50003 18.5519 4.50003 17.9996C4.50003 17.4473 4.94775 16.9996 5.50003 16.9996H18.5Z" fill="currentColor"/></svg>
