<svg xmlns="http://www.w3.org/2000/svg" viewBox="0 0 24 24" fill="none"><path d="M12.0003 1.2496C12.8441 1.24966 13.6652 1.51286 14.3402 1.9996L21.3597 7.06308C21.7904 7.37374 21.8781 7.96045 21.555 8.3746C21.232 8.78863 20.6215 8.87248 20.1908 8.5621L19.5609 8.108L17.9447 16.9996H18.5003C19.0524 16.9998 19.5003 17.4474 19.5003 17.9996C19.5003 18.5518 19.0524 18.9994 18.5003 18.9996H13.0003V21.7496C13.0003 22.3018 12.5524 22.7494 12.0003 22.7496C11.448 22.7496 11.0003 22.3019 11.0003 21.7496V18.9996H5.50033C4.94805 18.9996 4.50033 18.5519 4.50033 17.9996C4.50033 17.4473 4.94805 16.9996 5.50033 16.9996H6.056L4.43881 8.108L3.8099 8.5621C3.37915 8.87249 2.76771 8.78867 2.44467 8.3746C2.12183 7.96056 2.20956 7.37375 2.63998 7.06308L9.65951 1.9996C10.3346 1.51277 11.1565 1.24961 12.0003 1.2496ZM12.0003 13.4996C11.4482 13.4997 11.0004 13.9474 11.0003 14.4996C11.0003 15.0518 11.4481 15.4995 12.0003 15.4996C12.5525 15.4995 13.0003 15.0518 13.0003 14.4996C13.0003 13.9475 12.5525 13.4998 12.0003 13.4996ZM12.0003 6.2496C10.4817 6.24969 9.25038 7.48092 9.25033 8.9996C9.25033 10.5183 10.4816 11.7495 12.0003 11.7496C13.519 11.7495 14.7503 10.5183 14.7503 8.9996C14.7503 7.48096 13.519 6.24975 12.0003 6.2496Z" fill="currentColor" fill-rule="evenodd" clip-rule="evenodd"/></svg>
