<svg xmlns="http://www.w3.org/2000/svg" viewBox="0 0 24 24" fill="none"><path d="M13.3822 2.13403C14.1791 1.33443 15.2401 1.09843 16.3148 1.33813C17.3508 1.56929 18.3913 2.23142 19.3539 3.1975C20.924 4.77349 21.5516 6.39791 21.7084 7.81372C21.8628 9.20914 21.5527 10.338 21.3549 10.9338C21.3071 11.0776 21.2264 11.2084 21.1195 11.3157L18.2943 14.1526C15.9624 16.4929 12.1799 16.4931 9.84802 14.1526C7.51722 11.8129 7.51729 8.0197 9.84802 5.67993L13.3822 2.13403ZM15.975 9.78149C14.3837 9.64543 12.489 10.0904 10.598 11.9504C10.7684 12.2432 10.9779 12.5198 11.2279 12.7707C12.7981 14.3466 15.3443 14.3466 16.9144 12.7707L18.9291 10.7473C18.1561 10.2877 17.1277 9.88015 15.975 9.78149ZM15.891 3.24536C15.4143 3.13908 15.0776 3.23509 14.8217 3.45922C14.5512 3.91865 14.1313 5.36096 15.6449 7.22094C16.11 6.81854 16.4508 6.27903 16.682 5.68188C16.951 4.98695 17.0438 4.28433 17.0375 3.78735C16.6076 3.49177 16.2194 3.31863 15.891 3.24536Z" fill="currentColor" fill-rule="evenodd" clip-rule="evenodd"/><path opacity="0.4" d="M9.7505 17.1638C8.91585 16.3603 7.78502 15.8273 6.16949 15.9183L5.84004 15.945C4.64783 16.0697 3.98702 17.2587 4.30804 18.3109C4.85124 20.0899 5.64492 21.3267 6.65318 22.0072C6.65707 22.0099 6.66166 22.012 6.66555 22.0148C6.67083 22.0183 6.6755 22.0218 6.68079 22.0253C7.69255 22.7347 8.80381 22.8542 9.99235 22.6724C11.1543 22.4943 11.7765 21.3165 11.451 20.2788C11.0906 19.1301 10.5728 17.9554 9.7505 17.1638Z" fill="currentColor"/><path d="M8.53054 11.1887C8.97712 10.8873 9.58273 11.0055 9.88353 11.453C10.1842 11.9006 10.0663 12.5077 9.61979 12.8092C7.67459 14.1219 6.30515 16.3642 5.41226 18.3808C4.97212 19.3749 4.66144 20.2836 4.46107 20.9423C4.3611 21.2709 4.28858 21.5357 4.24208 21.7163C4.21888 21.8063 4.20237 21.8753 4.19161 21.9205C4.18628 21.9429 4.18256 21.9598 4.18019 21.9701C4.17908 21.975 4.17779 21.9786 4.17733 21.9806V21.9825C4.06117 22.5094 3.54048 22.8422 3.01476 22.726C2.48913 22.6095 2.15705 22.0876 2.27304 21.5607V21.5597L2.27399 21.5578C2.27432 21.5564 2.27444 21.5544 2.27495 21.5521C2.27598 21.5475 2.27792 21.5408 2.27971 21.533C2.2833 21.5173 2.2883 21.4951 2.29494 21.4672C2.30836 21.4108 2.32761 21.33 2.35398 21.2276C2.40678 21.0226 2.48678 20.73 2.59582 20.3716C2.81352 19.656 3.15067 18.6709 3.62985 17.5886C4.57587 15.452 6.13177 12.8076 8.53054 11.1887Z" fill="currentColor"/></svg>
