<svg xmlns="http://www.w3.org/2000/svg" viewBox="0 0 24 24" fill="none"><path d="M13.3822 2.13352C14.179 1.33417 15.2402 1.09893 16.3148 1.3386C17.3507 1.56977 18.3913 2.23198 19.3538 3.19797C20.9238 4.77386 21.5516 6.39847 21.7083 7.81418C21.8626 9.20908 21.5527 10.3375 21.3548 10.9333C21.3071 11.0771 21.2263 11.2079 21.1195 11.3152L18.2943 14.1531C15.9623 16.4934 12.1799 16.4935 9.84797 14.1531C9.55584 13.8598 9.30027 13.5438 9.08137 13.2107C8.15941 13.9532 7.37985 14.9013 6.73078 15.9109C8.05218 15.9581 9.01591 16.4559 9.75031 17.1628C10.5725 17.9544 11.0901 19.1294 11.4505 20.278C11.7759 21.3157 11.1543 22.4935 9.9925 22.6716C8.80397 22.8535 7.69274 22.7335 6.68098 22.0241C6.67572 22.0207 6.6706 22.0179 6.66535 22.0144C6.66146 22.0116 6.65655 22.0093 6.65266 22.0066C5.9446 21.5286 5.34365 20.7755 4.85969 19.7536C4.69614 20.2012 4.56409 20.605 4.46125 20.9431C4.36129 21.2717 4.289 21.537 4.2425 21.7175C4.21934 21.8074 4.20247 21.8764 4.19172 21.9216C4.18641 21.9439 4.18237 21.9611 4.18 21.9714C4.17896 21.9758 4.17756 21.9792 4.17707 21.9812V21.9831C4.06094 22.5099 3.54057 22.8433 3.01496 22.7273C2.48933 22.6108 2.15679 22.0882 2.27278 21.5613V21.5603L2.27375 21.5583C2.27401 21.557 2.27434 21.5553 2.27473 21.5534C2.27576 21.5488 2.27782 21.5417 2.27961 21.5339C2.28319 21.5183 2.28864 21.4962 2.29524 21.4685C2.30865 21.4121 2.32747 21.3306 2.35383 21.2282C2.40662 21.0233 2.48705 20.731 2.59602 20.3728C2.81372 19.6572 3.15102 18.6719 3.6302 17.5896C4.54243 15.5292 6.02141 12.9968 8.27668 11.3669C7.7885 9.39448 8.31205 7.2212 9.84797 5.67942L13.3822 2.13352ZM15.9759 9.78098C14.3846 9.64481 12.489 10.09 10.598 11.9499C10.7683 12.2426 10.9779 12.5193 11.2279 12.7702C12.7981 14.3463 15.3442 14.3463 16.9144 12.7702L18.929 10.7468C18.1562 10.2873 17.1284 9.87971 15.9759 9.78098ZM15.8909 3.24582C15.4142 3.13954 15.0776 3.23549 14.8216 3.45969C14.5512 3.9193 14.1317 5.36082 15.6448 7.22043C16.1098 6.8181 16.4508 6.27934 16.682 5.68235C16.9509 4.98747 17.0437 4.2848 17.0374 3.78782C16.6077 3.4923 16.2193 3.31911 15.8909 3.24582Z" fill="currentColor" fill-rule="evenodd" clip-rule="evenodd"/></svg>
