<svg xmlns="http://www.w3.org/2000/svg" viewBox="0 0 24 24" fill="none"><path d="M9.58789 1.25C10.1577 1.24924 10.6624 1.24837 11.1377 1.41699C11.2355 1.4517 11.3312 1.49213 11.4248 1.53711C11.8796 1.75578 12.2362 2.11487 12.6387 2.52051L17.4219 7.32812C17.8891 7.79635 18.3033 8.21227 18.5273 8.75586C18.7514 9.29959 18.751 9.88841 18.75 10.5518V12H5C3.89548 12 3.00008 12.8955 3 14V19C3 20.1046 3.89543 21 5 21H17.6104C17.5229 21.1096 17.4283 21.2157 17.3262 21.3184C16.5459 22.1027 15.5633 22.4409 14.3965 22.5986C13.2727 22.7505 11.8439 22.75 10.0713 22.75C8.29869 22.75 6.72733 22.7505 5.60352 22.5986C4.43673 22.4409 3.45408 22.1027 2.67383 21.3184C1.89372 20.5341 1.55822 19.5468 1.40137 18.374C1.25029 17.2444 1.24997 15.8082 1.25 14.0264V9.45215C1.24998 7.91869 1.24999 6.68199 1.36426 5.69824C1.48251 4.68042 1.73458 3.80811 2.32715 3.06934C2.54452 2.79838 2.79002 2.55152 3.05957 2.33301C3.7946 1.73729 4.66309 1.48409 5.67578 1.36523C6.65452 1.25041 8.06236 1.24998 9.58789 1.25ZM8 13.25C8.4142 13.25 8.74997 13.5858 8.75 14V19C8.75 19.4142 8.41421 19.75 8 19.75C7.58579 19.75 7.25 19.4142 7.25 19V17.25H5.75V19C5.75 19.4142 5.41421 19.75 5 19.75C4.58579 19.75 4.25 19.4142 4.25 19V14C4.25003 13.5858 4.5858 13.25 5 13.25C5.4142 13.25 5.74997 13.5858 5.75 14V15.75H7.25V14C7.25003 13.5858 7.5858 13.25 8 13.25ZM12.5 13.25C12.9142 13.25 13.25 13.5858 13.25 14C13.25 14.4142 12.9142 14.75 12.5 14.75H12V19C12 19.4142 11.6642 19.75 11.25 19.75C10.8358 19.75 10.5 19.4142 10.5 19V14.75H10C9.58579 14.75 9.25 14.4142 9.25 14C9.25003 13.5858 9.5858 13.25 10 13.25H12.5ZM17.3857 13.5703C17.5735 13.3021 17.9134 13.1867 18.2256 13.2852C18.5377 13.3836 18.75 13.6727 18.75 14V19C18.75 19.4142 18.4142 19.75 18 19.75C17.5858 19.75 17.25 19.4142 17.25 19V16.3789L16.8643 16.9297C16.7239 17.1302 16.4947 17.25 16.25 17.25C16.0053 17.25 15.7761 17.1302 15.6357 16.9297L15.25 16.3789V19C15.25 19.4142 14.9142 19.75 14.5 19.75C14.0858 19.75 13.75 19.4142 13.75 19V14C13.75 13.6727 13.9623 13.3836 14.2744 13.2852C14.5866 13.1867 14.9265 13.3021 15.1143 13.5703L16.25 15.1924L17.3857 13.5703ZM20 13.25C20.4142 13.25 20.75 13.5858 20.75 14V18.25H22C22.4142 18.25 22.75 18.5858 22.75 19C22.75 19.4142 22.4142 19.75 22 19.75H20C19.5858 19.75 19.25 19.4142 19.25 19V14C19.25 13.5858 19.5858 13.25 20 13.25ZM10.4902 3.27051C10.4902 4.63191 10.4902 5.27959 10.6064 6.14453C10.7274 7.04441 10.9863 7.80245 11.5879 8.4043C12.1898 9.00621 12.9485 9.2657 13.8486 9.38672C14.7154 9.50323 15.3641 9.50393 16.7314 9.50391C16.6746 9.36608 16.5693 9.23556 15.9512 8.61426L11.3467 3.98535C10.8137 3.44963 10.6719 3.31641 10.4902 3.26172V3.27051Z" fill="currentColor"/></svg>
