<svg xmlns="http://www.w3.org/2000/svg" fill="none" viewBox="0 0 48 48">
  <g>
    <path fill="currentColor" fill-rule="evenodd" d="M24.9322 8.85156c0 -4.0731 3.3019 -7.375 7.375 -7.375s7.375 3.3019 7.375 7.375v0.25197c0 4.48657 -3.3111 8.33717 -7.8632 8.77797 -5.8649 0.5678 -15.5517 1.2769 -27.36411 1.2769 -1.10457 0 -2 -0.8954 -2 -2s0.89543 -2 2 -2c11.65691 0 21.21221 -0.7 26.97861 -1.2583 2.416 -0.2339 4.2487 -2.2824 4.2487 -4.79657v-0.25197c0 -1.86396 -1.5111 -3.375 -3.375 -3.375 -1.864 0 -3.375 1.51104 -3.375 3.375v0.48864c0 1.1046 -0.8955 2 -2 2 -1.1046 0 -2 -0.8954 -2 -2v-0.48864ZM20.4658 34.9043c-4.7602 -0.1932 -11.79857 -0.3048 -17.76692 0.2912 -1.0991 0.1098 -2.079075 -0.6922 -2.188832 -1.7913 -0.109758 -1.0991 0.692262 -2.0791 1.791372 -2.1889 6.25379 -0.6245 13.51718 -0.5029 18.32658 -0.3077 4.1654 0.169 7.3267 3.6234 7.3267 7.7152v0.7109c0 3.9453 -3.1983 7.1436 -7.1435 7.1436 -3.9453 0 -7.1436 -3.1983 -7.1436 -7.1436V38.329c0 -1.1046 0.8954 -2 2 -2s2 0.8954 2 2v1.0047c0 1.7362 1.4074 3.1436 3.1436 3.1436 1.7361 0 3.1435 -1.4074 3.1435 -3.1436v-0.7109c0 -2.0232 -1.5443 -3.6396 -3.4889 -3.7185ZM8.45156 27.334c6.67744 -0.2934 11.63534 -0.5841 15.64014 -0.819 6.7976 -0.3986 10.8495 -0.6362 15.9034 -0.4524 1.9285 0.0701 3.505 1.7201 3.505 3.7843 0 2.1413 -1.7372 3.8804 -3.8636 3.8804 -2.1338 0 -3.8636 -1.7298 -3.8636 -3.8637v-0.749c0 -1.1046 -0.8955 -2 -2 -2 -1.1046 0 -2 0.8954 -2 2v0.749c0 4.343 3.5206 7.8637 7.8636 7.8637 4.3504 0 7.8636 -3.5449 7.8636 -7.8804 0 -4.0811 -3.1469 -7.6285 -7.3596 -7.7817 -5.2364 -0.1904 -9.5502 0.0618 -16.5379 0.4702h-0.0001l-0.0001 0c-4.0049 0.2342 -8.888 0.5196 -15.32642 0.8025 -1.10351 0.0485 -1.95877 0.9823 -1.91028 2.0858 0.04848 1.1036 0.98236 1.9588 2.08586 1.9103Z" clip-rule="evenodd" stroke-width="3.429"></path>
  </g>
</svg>
