<svg xmlns="http://www.w3.org/2000/svg" fill="none" viewBox="0 0 48 48">
  <g>
    <path fill="currentColor" fill-rule="evenodd" d="M24 8.5c0 -4.41828 3.5817 -8 8 -8s8 3.58172 8 8v0.25783c0 4.81447 -3.5557 8.95897 -8.4558 9.43347C25.5318 18.7734 15.6047 19.5 3.5 19.5 2.11929 19.5 1 18.3807 1 17s1.11929 -2.5 2.5 -2.5c11.9104 0 21.673 -0.7152 27.5623 -1.2855C33.2923 12.9986 35 11.1068 35 8.75783V8.5c0 -1.65685 -1.3431 -3 -3 -3s-3 1.34315 -3 3V9c0 1.3807 -1.1193 2.5 -2.5 2.5S24 10.3807 24 9v-0.5ZM12.4739 39.7369c0 4.2874 3.4757 7.7631 7.7631 7.7631 4.2875 0 7.7632 -3.4757 7.7632 -7.7631v-0.7275c0 -4.4215 -3.4181 -8.1646 -7.9322 -8.3478 -4.9268 -0.1999 -11.38463 -0.3255 -17.81623 0.3168 -1.37388 0.1372 -2.376408 1.3622 -2.2392105 2.7361C0.149757 35.0883 1.37473 36.0909 2.7486 35.9537c6.07479 -0.6067 12.2513 -0.4936 17.1167 -0.2962 1.738 0.0706 3.1349 1.5162 3.1349 3.3519v0.7275c0 1.526 -1.2371 2.7631 -2.7632 2.7631 -1.526 0 -2.7631 -1.2371 -2.7631 -2.7631v-1.0281c0 -1.3808 -1.1193 -2.5 -2.5 -2.5s-2.5 1.1192 -2.5 2.5v1.0281ZM39.5 38.5003c-4.6944 0 -8.5 -3.8056 -8.5 -8.5 0 -1.3807 1.1193 -2.5 2.5 -2.5 1.3808 0 2.5 1.1193 2.5 2.5 0 1.933 1.567 3.5 3.5 3.5 1.9238 0 3.5 -1.5749 3.5 -3.5172 0 -1.8835 -1.4351 -3.3568 -3.1495 -3.4191 -5.1508 -0.1873 -9.2676 0.0542 -16.2012 0.461l-0.0002 0c-4.0977 0.2404 -9.1792 0.5385 -16.03932 0.8399 -1.37938 0.0606 -2.54672 -1.0085 -2.60733 -2.3879 -0.0606 -1.3793 1.00848 -2.5467 2.38786 -2.6073 6.56149 -0.2883 11.54959 -0.5798 15.64719 -0.8192l0.0003 0c7.1713 -0.4191 11.6155 -0.6788 16.9944 -0.4832C44.6019 21.7334 48 25.5785 48 29.9831c0 4.6852 -3.7963 8.5172 -8.5 8.5172Z" clip-rule="evenodd" stroke-width="1"></path>
  </g>
</svg>
