<svg xmlns="http://www.w3.org/2000/svg" viewBox="0 0 24 24" fill="none"><path d="M3.41999 2.24232C3.83215 1.37764 4.88396 1.00046 5.76374 1.42494C5.94446 1.51217 6.10052 1.64585 6.22468 1.75892C6.35806 1.88041 6.52188 2.04217 6.71687 2.23549C6.80441 2.32228 6.85631 2.37321 6.89656 2.41029C6.9185 2.43051 6.93001 2.44081 6.93464 2.44447C7.01032 2.49357 7.10816 2.499 7.18952 2.45814C7.19427 2.45521 7.20694 2.4469 7.23152 2.42885C7.27567 2.39638 7.33311 2.35121 7.42976 2.27455L7.60163 2.13783C8.02378 1.803 8.38233 1.50508 8.79792 1.36928C9.25406 1.22028 9.74608 1.22031 10.2022 1.36928C10.6178 1.50507 10.9764 1.80303 11.3985 2.13783L11.4659 2.19154C11.6528 2.3398 11.7626 2.42592 11.8487 2.48451C11.8984 2.51832 11.9231 2.5315 11.9317 2.53529C11.9762 2.54748 12.0239 2.54748 12.0684 2.53529C12.0769 2.53158 12.1015 2.51848 12.1514 2.48451C12.2375 2.42592 12.3473 2.33985 12.5343 2.19154L12.6016 2.13783C13.0238 1.80301 13.3823 1.50508 13.7979 1.36928C14.2541 1.22028 14.7461 1.22031 15.2022 1.36928C15.6178 1.50507 15.9764 1.80303 16.3985 2.13783L16.5704 2.27455C16.667 2.35116 16.7245 2.39639 16.7686 2.42885C16.793 2.44677 16.8058 2.45516 16.8106 2.45814C16.892 2.499 16.9898 2.49357 17.0655 2.44447C17.0701 2.44088 17.0815 2.43064 17.1036 2.41029C17.1438 2.3732 17.1957 2.32234 17.2833 2.23549C17.4783 2.04214 17.6421 1.88043 17.7755 1.75892C17.8996 1.64584 18.0556 1.51219 18.2364 1.42494L18.4141 1.35072C19.3133 1.03143 20.3301 1.49351 20.6534 2.42201C20.7196 2.61234 20.7351 2.81754 20.7423 2.98451C20.7499 3.1642 20.7501 3.3938 20.7501 3.66713V20.6984C20.7501 20.9148 20.7525 21.1243 20.7296 21.2726C20.5284 22.5715 19.0193 23.1788 17.9669 22.4132C17.8458 22.325 17.6987 22.176 17.544 22.0226C17.4172 21.8969 17.3896 21.8704 17.3692 21.8537C17.1152 21.6455 16.7513 21.625 16.4747 21.8048C16.4524 21.8193 16.4218 21.8427 16.2823 21.9533L16.1456 22.0617C15.9387 22.2258 15.7632 22.3686 15.5762 22.4699C14.9054 22.8331 14.0948 22.8331 13.4239 22.4699C13.237 22.3686 13.0614 22.2257 12.8546 22.0617L12.7843 22.006C12.4573 21.7467 12.3861 21.6958 12.3282 21.6681C12.1212 21.5692 11.8789 21.5692 11.6719 21.6681C11.614 21.6958 11.5429 21.7466 11.2159 22.006L11.1456 22.0617C10.9387 22.2258 10.7632 22.3686 10.5762 22.4699C9.90539 22.8331 9.09475 22.8331 8.4239 22.4699C8.23697 22.3686 8.06141 22.2257 7.85456 22.0617L7.71784 21.9533C7.57845 21.8427 7.5477 21.8193 7.52546 21.8048C7.28331 21.6475 6.97408 21.6432 6.73054 21.7843L6.63093 21.8537C6.61051 21.8704 6.583 21.8968 6.45613 22.0226C6.30135 22.176 6.15434 22.325 6.03327 22.4132C4.98088 23.1788 3.47176 22.5715 3.27058 21.2726C3.24769 21.1243 3.25007 20.9147 3.25007 20.6984V3.66713C3.25007 3.3938 3.2502 3.1642 3.25788 2.98451C3.26503 2.81754 3.2805 2.61235 3.34675 2.42201L3.41999 2.24232ZM9.00007 7.25013C8.58591 7.2502 8.25007 7.58596 8.25007 8.00013C8.25007 8.41431 8.58591 8.75007 9.00007 8.75013H10.0001C11.2586 8.75013 12.3169 9.59629 12.6436 10.7501H9.00007C8.58591 10.7502 8.25007 11.086 8.25007 11.5001C8.25007 11.9143 8.58591 12.2501 9.00007 12.2501H12.6436C12.3169 13.404 11.2586 14.2501 10.0001 14.2501H9.00007C8.61465 14.2502 8.29212 14.5424 8.25398 14.9259C8.216 15.3095 8.47478 15.6597 8.85261 15.7355L13.8526 16.7355C14.2586 16.8167 14.654 16.5535 14.7354 16.1476C14.8166 15.7416 14.5535 15.3462 14.1475 15.2648L12.5001 14.9347C13.3679 14.302 13.9868 13.35 14.1827 12.2501H16.0001C16.4143 12.2501 16.7501 11.9143 16.7501 11.5001C16.7501 11.0859 16.4143 10.7501 16.0001 10.7501H14.1827C14.0483 9.9955 13.7148 9.31062 13.2384 8.75013H16.0001C16.4143 8.75013 16.7501 8.41435 16.7501 8.00013C16.7501 7.58592 16.4143 7.25013 16.0001 7.25013H9.00007Z" fill="currentColor" fill-rule="evenodd" clip-rule="evenodd"/></svg>
