<svg xmlns="http://www.w3.org/2000/svg" viewBox="0 0 24 24" fill="none"><path d="M19.0001 19.7502C19.5524 19.7502 20.0001 20.198 20.0001 20.7502C20.0001 21.3025 19.5524 21.7502 19.0001 21.7502H5.00012C4.44784 21.7502 4.00012 21.3025 4.00012 20.7502C4.00012 20.198 4.44784 19.7502 5.00012 19.7502H19.0001Z" fill="currentColor"/><path opacity="0.4" d="M7.6905 8.52075L7.69148 8.51978C7.6863 8.52101 7.68108 8.5218 7.67585 8.52271C7.67585 8.52271 7.6687 8.52238 7.66023 8.51978C7.63141 8.5109 7.57288 8.48664 7.47175 8.42114C7.25423 8.2802 6.97868 8.04479 6.53425 7.66138L6.49196 7.62489C5.51224 6.77966 4.72282 6.09861 4.10066 5.67896C3.78496 5.46604 3.45838 5.28238 3.13093 5.1897C2.78404 5.09163 2.38622 5.08364 2.01081 5.29614C1.97601 5.31585 1.94163 5.33663 1.90827 5.35864L1.81062 5.42896C1.46872 5.68984 1.31905 6.05719 1.27058 6.41333C1.22472 6.75064 1.26105 7.12406 1.32917 7.50024C1.46255 8.23651 1.76548 9.22732 2.14168 10.4578L2.16511 10.5344L3.33113 14.3479L3.34801 14.4032C3.54695 15.054 3.71479 15.6032 3.90339 16.0354C4.10504 16.4974 4.35949 16.8988 4.77058 17.2043C5.18206 17.5102 5.6391 17.6373 6.13874 17.6956C6.60833 17.7503 7.18408 17.7503 7.8658 17.7502L7.9112 17.7502H16.0889L16.1351 17.7502C16.8165 17.7503 17.392 17.7503 17.8614 17.6956C18.361 17.6373 18.8181 17.5102 19.2296 17.2043C19.6406 16.8988 19.8951 16.4974 20.0968 16.0354C20.2845 15.6052 20.4514 15.0589 20.6491 14.412L20.669 14.3469L21.835 10.5344L21.8584 10.4581C22.2346 9.22747 22.5376 8.23656 22.671 7.50024C22.7391 7.12406 22.7754 6.75064 22.7296 6.41333C22.6811 6.05719 22.5314 5.68984 22.1895 5.42896C22.1579 5.40485 22.125 5.38151 22.0919 5.35962L21.9893 5.29614L21.8477 5.22681C21.5151 5.08712 21.172 5.10373 20.8682 5.1897C20.5409 5.28241 20.2151 5.46612 19.8995 5.67896C19.2773 6.09861 18.4879 6.77965 17.5082 7.62487L17.4659 7.66138C17.0215 8.04478 16.7459 8.2802 16.5284 8.42114C16.4273 8.48664 16.3687 8.5109 16.3399 8.51978C16.3283 8.52333 16.3233 8.52271 16.3233 8.52271C16.3181 8.52178 16.3128 8.52103 16.3077 8.51978C16.3055 8.51835 16.301 8.51605 16.295 8.51099C16.2714 8.49119 16.2267 8.44455 16.1583 8.34399C16.0119 8.12872 15.8486 7.80421 15.587 7.27759L14.4796 5.0481L14.4499 4.98831C14.0798 4.24321 13.7649 3.60934 13.4591 3.16821C13.1488 2.72086 12.6981 2.25024 12.0001 2.25024C11.3021 2.25024 10.8513 2.72086 10.5411 3.16821C10.2352 3.60934 9.92037 4.24321 9.55028 4.9883L9.52058 5.0481L8.41316 7.27759C8.15154 7.80421 7.98822 8.12872 7.84187 8.34399C7.77348 8.44455 7.72875 8.49119 7.70515 8.51099C7.69526 8.51928 7.6905 8.52075 7.6905 8.52075Z" fill="currentColor"/><path d="M12.0001 11.7502C12.5524 11.7502 13.0001 12.198 13.0001 12.7502C13.0001 13.3025 12.5524 13.7502 12.0001 13.7502C11.4478 13.7502 11.0001 13.3025 11.0001 12.7502C11.0001 12.198 11.4478 11.7502 12.0001 11.7502Z" fill="currentColor"/></svg>
