<svg xmlns="http://www.w3.org/2000/svg" viewBox="0 0 24 24" fill="none"><path d="M18.9999 19.75C19.5522 19.75 19.9999 20.1977 19.9999 20.75C19.9999 21.3023 19.5522 21.75 18.9999 21.75H4.99988C4.44759 21.75 3.99988 21.3023 3.99988 20.75C3.99988 20.1977 4.44759 19.75 4.99988 19.75H18.9999Z" fill="currentColor"/><path d="M11.9998 2.25C12.6978 2.25002 13.1486 2.72063 13.4588 3.16797C13.7647 3.6091 14.0799 4.2432 14.45 4.98828L14.4793 5.04785L15.5867 7.27734C15.8483 7.80395 16.0117 8.12848 16.158 8.34375C16.2264 8.44429 16.2711 8.49094 16.2947 8.51074C16.3008 8.51578 16.3053 8.51811 16.3074 8.51953C16.3126 8.52077 16.3179 8.52154 16.3231 8.52246C16.3236 8.52251 16.3288 8.52288 16.3397 8.51953C16.3685 8.51065 16.4271 8.48636 16.5281 8.4209C16.7457 8.27995 17.0212 8.04452 17.4656 7.66113L17.5076 7.625C18.4873 6.77978 19.2771 6.09837 19.8992 5.67871C20.2148 5.46588 20.5407 5.28216 20.868 5.18945C21.1717 5.10349 21.5149 5.08689 21.8475 5.22656L21.9891 5.2959L22.0916 5.35938C22.1248 5.38126 22.1577 5.40462 22.1893 5.42871C22.5312 5.68959 22.6808 6.05696 22.7293 6.41309C22.7752 6.75039 22.7388 7.12383 22.6707 7.5C22.5373 8.23632 22.2345 9.22741 21.8582 10.458L21.8348 10.5342L20.6688 14.3467L20.6492 14.4121C20.4516 15.0589 20.2842 15.605 20.0965 16.0352C19.8949 16.4972 19.6404 16.8985 19.2293 17.2041C18.8179 17.5099 18.3608 17.637 17.8612 17.6953C17.3917 17.75 16.816 17.75 16.1346 17.75H7.86506C7.18356 17.75 6.60797 17.75 6.1385 17.6953C5.63887 17.637 5.1818 17.5099 4.77033 17.2041C4.35926 16.8985 4.10479 16.4972 3.90315 16.0352C3.71457 15.603 3.54637 15.0541 3.34748 14.4033L3.33088 14.3477L2.16487 10.5342L2.14143 10.458C1.76523 9.22755 1.4623 8.23626 1.32893 7.5C1.2608 7.12382 1.22448 6.75039 1.27033 6.41309C1.31881 6.05695 1.46848 5.68959 1.81037 5.42871L1.90803 5.3584C1.94137 5.33639 1.97578 5.3156 2.01057 5.2959C2.38597 5.08342 2.7838 5.09139 3.13069 5.18945C3.45812 5.28214 3.78474 5.46581 4.10041 5.67871C4.72257 6.09837 5.51231 6.77979 6.49201 7.625L6.53401 7.66113C6.97842 8.04453 7.25399 8.27996 7.47151 8.4209C7.57261 8.48638 7.63117 8.51066 7.65998 8.51953C7.66844 8.52212 7.67561 8.52246 7.67561 8.52246C7.68082 8.52156 7.68608 8.52076 7.69123 8.51953L7.69026 8.52051C7.69077 8.52033 7.69558 8.51856 7.7049 8.51074C7.72852 8.49093 7.77326 8.44426 7.84162 8.34375C7.98797 8.12848 8.15131 7.80394 8.41291 7.27734L9.52033 5.04785L9.54963 4.98828C9.91972 4.24319 10.235 3.6091 10.5408 3.16797C10.8511 2.72063 11.3018 2.25 11.9998 2.25ZM11.9998 11.75C11.4475 11.75 10.9998 12.1977 10.9998 12.75C10.9998 13.3023 11.4475 13.75 11.9998 13.75C12.5521 13.75 12.9998 13.3023 12.9998 12.75C12.9998 12.1977 12.5521 11.75 11.9998 11.75Z" fill="currentColor" fill-rule="evenodd" clip-rule="evenodd"/></svg>
