<svg xmlns="http://www.w3.org/2000/svg" viewBox="0 0 24 24" fill="none"><path d="M11.042 1.24976C13.1221 1.24975 14.7597 1.24975 16.0381 1.42163C17.3464 1.59759 18.3904 1.96636 19.2119 2.78784C20.0334 3.60933 20.4022 4.65331 20.5781 5.96167C20.73 7.09139 20.747 8.50154 20.749 10.2498H1.25098C1.25303 8.50154 1.26999 7.09139 1.42188 5.96167C1.59783 4.65331 1.9666 3.60933 2.78809 2.78784C3.60957 1.96636 4.65356 1.59759 5.96191 1.42163C7.24033 1.24975 8.87786 1.24975 10.958 1.24976H11.042ZM5.99707 4.74976C5.44478 4.74976 4.99707 5.19747 4.99707 5.74976C4.99707 6.30204 5.44479 6.74976 5.99707 6.74976C6.54935 6.74976 6.99707 6.30204 6.99707 5.74976C6.99707 5.19747 6.54935 4.74976 5.99707 4.74976ZM9.99707 4.74976C9.44479 4.74976 8.99707 5.19747 8.99707 5.74976C8.99707 6.30204 9.44479 6.74976 9.99707 6.74976H15.9971C16.5494 6.74976 16.9971 6.30204 16.9971 5.74976C16.9971 5.19747 16.5494 4.74976 15.9971 4.74976H9.99707Z" fill="currentColor"/><path d="M20.751 21.7498V21.2458C19.9153 21.8743 18.878 22.2498 17.751 22.2498C15.8992 22.2498 14.284 21.2424 13.4209 19.7507C13.1444 19.2728 13.3073 18.6612 13.7852 18.3845C14.2631 18.108 14.8747 18.271 15.1514 18.7488C15.6716 19.6481 16.6418 20.2498 17.751 20.2498C18.3631 20.2498 18.9321 20.0651 19.4072 19.7498H18.751C18.1987 19.7498 17.751 19.302 17.751 18.7498C17.751 18.1975 18.1987 17.7498 18.751 17.7498H21.751C22.3033 17.7498 22.751 18.1975 22.751 18.7498V21.7498C22.751 22.302 22.3033 22.7498 21.751 22.7498C21.1987 22.7498 20.751 22.302 20.751 21.7498ZM17.751 12.2498C19.6028 12.2498 21.218 13.2571 22.0811 14.7488C22.3575 15.2267 22.1946 15.8384 21.7168 16.115C21.2388 16.3915 20.6272 16.2285 20.3506 15.7507C19.8304 14.8514 18.8601 14.2498 17.751 14.2498C17.1388 14.2498 16.5698 14.4345 16.0947 14.7498H16.751C17.3033 14.7498 17.751 15.1975 17.751 15.7498C17.751 16.302 17.3033 16.7498 16.751 16.7498H13.751C13.1987 16.7498 12.751 16.302 12.751 15.7498V12.7498C12.751 12.1975 13.1987 11.7498 13.751 11.7498C14.3033 11.7498 14.751 12.1975 14.751 12.7498V13.2527C15.5865 12.6244 16.6241 12.2498 17.751 12.2498Z" fill="currentColor"/><path d="M11.7373 11.7498C11.5873 12.0512 11.501 12.3902 11.501 12.7498V15.7498C11.501 16.591 11.9636 17.3227 12.6475 17.7087C11.9838 18.4139 11.8295 19.4962 12.3389 20.3767L12.5518 20.7185C12.558 20.7278 12.565 20.7366 12.5713 20.7458C12.0903 20.7488 11.581 20.7498 11.042 20.7498H10.958C8.87786 20.7498 7.24033 20.7498 5.96191 20.5779C4.65356 20.4019 3.60957 20.0332 2.78809 19.2117C1.9666 18.3902 1.59783 17.3462 1.42188 16.0378C1.26999 14.9081 1.25303 13.498 1.25098 11.7498H11.7373ZM5.99707 15.2498C5.44478 15.2498 4.99707 15.6975 4.99707 16.2498C4.99707 16.802 5.44479 17.2498 5.99707 17.2498C6.54935 17.2498 6.99707 16.802 6.99707 16.2498C6.99707 15.6975 6.54935 15.2498 5.99707 15.2498Z" fill="currentColor"/></svg>
