<svg xmlns="http://www.w3.org/2000/svg" viewBox="0 0 24 24" fill="none"><path opacity="0.4" d="M17.4997 11.9997C17.4997 8.31918 16.3377 5.25438 14.7917 3.70579C14.4019 3.31491 14.403 2.6818 14.7937 2.29173C15.1846 1.90191 15.8177 1.90295 16.2077 2.29369C18.2484 4.33813 19.4997 7.98901 19.4997 11.9997C19.4997 16.0105 18.2484 19.6614 16.2077 21.7058C15.8177 22.0965 15.1846 22.0976 14.7937 21.7077C14.403 21.3177 14.4019 20.6846 14.7917 20.2937C16.3377 18.7451 17.4997 15.6803 17.4997 11.9997Z" fill="currentColor"/><path d="M13.4998 12C13.4998 9.13859 12.722 6.79821 11.74 5.65042C11.381 5.23084 11.4299 4.59935 11.8494 4.24026C12.2689 3.88124 12.9004 3.93016 13.2595 4.34964C14.6686 5.99643 15.4998 8.8793 15.4998 12C15.4998 15.1208 14.6686 18.0036 13.2595 19.6504C12.9004 20.0699 12.2689 20.1188 11.8494 19.7598C11.4299 19.4007 11.381 18.7692 11.74 18.3496C12.722 17.2019 13.4998 14.8615 13.4998 12Z" fill="currentColor"/><path opacity="0.4" d="M9.49976 12.0001C9.49976 10.0035 8.92777 8.41617 8.25561 7.66804C7.88683 7.25721 7.92107 6.62494 8.33179 6.25594C8.74262 5.88715 9.37489 5.9214 9.7439 6.33211C10.865 7.58012 11.4998 9.7238 11.4998 12.0001C11.4998 14.2763 10.865 16.42 9.7439 17.668C9.37489 18.0788 8.74262 18.113 8.33179 17.7442C7.92107 17.3752 7.88683 16.7429 8.25561 16.3321C8.92777 15.584 9.49976 13.9967 9.49976 12.0001Z" fill="currentColor"/><path d="M5.49974 11.9997C5.49974 10.883 5.14206 10.0567 4.79173 9.70579C4.40191 9.31491 4.40295 8.6818 4.79369 8.29173C5.18457 7.90191 5.81768 7.90295 6.20775 8.29369C7.05278 9.14045 7.49974 10.5528 7.49974 11.9997C7.49974 13.4467 7.05278 14.859 6.20775 15.7058C5.81768 16.0965 5.18457 16.0976 4.79369 15.7077C4.40295 15.3177 4.40191 14.6846 4.79173 14.2937C5.14206 13.9428 5.49974 13.1165 5.49974 11.9997Z" fill="currentColor"/></svg>
