<svg xmlns="http://www.w3.org/2000/svg" viewBox="0 0 24 24" fill="none"><path d="M17.4993 11.9997C17.4993 8.31918 16.3372 5.25438 14.7912 3.70579C14.4014 3.31491 14.4025 2.6818 14.7932 2.29173C15.1841 1.90191 15.8172 1.90295 16.2073 2.29369C18.2479 4.33813 19.4993 7.98901 19.4993 11.9997C19.4993 16.0105 18.2479 19.6614 16.2073 21.7058C15.8172 22.0965 15.1841 22.0976 14.7932 21.7077C14.4025 21.3177 14.4014 20.6846 14.7912 20.2937C16.3372 18.7451 17.4993 15.6803 17.4993 11.9997Z" fill="currentColor"/><path d="M13.4993 12C13.4993 9.13859 12.7215 6.79821 11.7395 5.65042C11.3805 5.23084 11.4294 4.59935 11.8489 4.24026C12.2685 3.88124 12.8999 3.93016 13.259 4.34964C14.6682 5.99643 15.4993 8.8793 15.4993 12C15.4993 15.1208 14.6682 18.0036 13.259 19.6504C12.8999 20.0699 12.2685 20.1188 11.8489 19.7598C11.4294 19.4007 11.3805 18.7692 11.7395 18.3496C12.7215 17.2019 13.4993 14.8615 13.4993 12Z" fill="currentColor"/><path d="M9.49927 12.0001C9.49927 10.0035 8.92728 8.41617 8.25513 7.66804C7.88634 7.25721 7.92059 6.62494 8.3313 6.25594C8.74213 5.88715 9.3744 5.9214 9.74341 6.33211C10.8645 7.58012 11.4993 9.7238 11.4993 12.0001C11.4993 14.2763 10.8645 16.42 9.74341 17.668C9.3744 18.0788 8.74213 18.113 8.3313 17.7442C7.92059 17.3752 7.88634 16.7429 8.25513 16.3321C8.92728 15.584 9.49927 13.9967 9.49927 12.0001Z" fill="currentColor"/><path d="M5.49925 11.9997C5.49925 10.883 5.14158 10.0567 4.79124 9.70579C4.40143 9.31491 4.40246 8.6818 4.7932 8.29173C5.18409 7.90191 5.81719 7.90295 6.20726 8.29369C7.05229 9.14045 7.49925 10.5528 7.49925 11.9997C7.49925 13.4467 7.05229 14.859 6.20726 15.7058C5.81719 16.0965 5.18409 16.0976 4.7932 15.7077C4.40246 15.3177 4.40143 14.6846 4.79124 14.2937C5.14158 13.9428 5.49925 13.1165 5.49925 11.9997Z" fill="currentColor"/></svg>
