<svg xmlns="http://www.w3.org/2000/svg" viewBox="0 0 24 24" fill="none"><path d="M13.4142 17.2069C12.6331 16.4258 11.3668 16.4258 10.5857 17.2069C9.80468 17.9879 9.80468 19.2543 10.5857 20.0353C11.3668 20.8164 12.6331 20.8164 13.4142 20.0353C13.541 19.9085 13.6472 19.7691 13.7328 19.6211H11.9999C11.4477 19.6211 10.9999 19.1734 10.9999 18.6211C10.9999 18.0688 11.4477 17.6211 11.9999 17.6211H13.7328C13.6472 17.4731 13.541 17.3337 13.4142 17.2069ZM9.17151 15.7927C10.7336 14.2306 13.2663 14.2306 14.8284 15.7927C15.6092 16.5735 15.9999 17.599 15.9999 18.6211C15.9999 19.6432 15.6092 20.6687 14.8284 21.4495C13.2663 23.0116 10.7336 23.0116 9.17151 21.4495C7.60941 19.8874 7.60941 17.3548 9.17151 15.7927Z" fill="currentColor" fill-rule="evenodd" clip-rule="evenodd"/><path d="M11.0001 5.62045C11.0001 6.17274 11.4478 6.62045 12.0001 6.62045C12.5523 6.62043 13.0001 6.17273 13.0001 5.62045V1.4931C13.0001 1.29977 13.197 1.16945 13.3673 1.26108C13.7765 1.48135 14.2401 1.80205 14.7911 2.18295L20.3829 6.04819C20.9798 6.46074 21.5012 6.82095 21.8829 7.19076C22.3055 7.6003 22.5996 8.05938 22.7061 8.67514C22.8057 9.25118 22.7323 9.73862 22.5128 10.223C22.3221 10.6434 22.0168 11.0631 21.6915 11.5111L21.6583 11.558C19.5428 14.4725 15.9989 16.3704 12.0001 16.3705C8.00126 16.3705 4.45738 14.4724 2.34187 11.558L2.30769 11.5111C1.98242 11.0631 1.67701 10.6434 1.48641 10.223C1.26685 9.73862 1.19443 9.25118 1.29402 8.67514C1.40056 8.05948 1.69376 7.60025 2.11629 7.19076C2.49791 6.82095 3.01937 6.46073 3.61629 6.04819L3.66316 6.01596L9.20808 2.18295C9.75932 1.80189 10.2236 1.48138 10.6329 1.26108C10.8033 1.16935 11.0001 1.299 11.0001 1.49255V5.62045ZM12.0001 10.6205C11.4479 10.6205 11.0003 11.0684 11.0001 11.6205C11.0001 12.1727 11.4478 12.6205 12.0001 12.6205H12.0089C12.5611 12.6204 13.0089 12.1727 13.0089 11.6205C13.0086 11.0684 12.561 10.6205 12.0089 10.6205H12.0001ZM12.0001 7.62045C11.4479 7.62045 11.0003 8.06838 11.0001 8.62045C11.0001 9.17274 11.4478 9.62045 12.0001 9.62045H12.0089C12.5611 9.62043 13.0089 9.17273 13.0089 8.62045C13.0086 8.06839 12.561 7.62047 12.0089 7.62045H12.0001Z" fill="currentColor" fill-rule="evenodd" clip-rule="evenodd"/></svg>
