<svg xmlns="http://www.w3.org/2000/svg" viewBox="0 0 24 24" fill="none"><path opacity="0.4" d="M11.5874 1.2501C12.1574 1.24934 12.6619 1.24866 13.1373 1.41733C13.2353 1.45209 13.3314 1.49208 13.4251 1.53715C13.8799 1.75582 14.2362 2.11489 14.6387 2.52054L19.4215 7.32819C19.8889 7.79654 20.3036 8.2122 20.5277 8.75596C20.7518 9.29971 20.7509 9.88846 20.7499 10.5518L20.7497 14.0261C20.7498 15.8081 20.7498 17.2445 20.5987 18.3741C20.4418 19.547 20.1062 20.5345 19.326 21.3188C18.5457 22.1031 17.5633 22.4405 16.3965 22.5982C15.2727 22.75 13.8438 22.75 12.071 22.75C10.2982 22.75 8.72705 22.75 7.60322 22.5982C6.43643 22.4405 5.45402 22.1031 4.67377 21.3188C3.89352 20.5345 3.55792 19.547 3.40105 18.3741C3.24995 17.2445 3.24997 15.8081 3.25 14.0262V14.0261V9.45263V9.4526C3.24998 7.91893 3.24997 6.6824 3.36424 5.69856C3.48248 4.6806 3.73418 3.80839 4.32681 3.06954C4.54435 2.79833 4.79012 2.55128 5.05992 2.33261C5.79495 1.7369 6.66265 1.48389 7.67534 1.36504C8.6541 1.25017 10.0617 1.25008 11.5874 1.2501Z" fill="currentColor"/><path d="M13.1373 1.416C13.2353 1.45076 13.3314 1.49075 13.4251 1.53582C13.8799 1.75449 14.2362 2.11356 14.6387 2.51921L19.4215 7.32686L19.4215 7.32686C19.8889 7.79521 20.3036 8.21088 20.5277 8.75463C20.6265 8.99435 20.6816 9.24282 20.7122 9.50258H18.7314C17.3638 9.5026 16.7152 9.50181 15.8483 9.38525C14.9481 9.26424 14.1903 9.00534 13.5884 8.40343C12.9864 7.80151 12.7275 7.04364 12.6065 6.14353C12.4902 5.27834 12.4902 4.63063 12.4902 3.2688V3.26877V1.27734C12.7136 1.30042 12.9283 1.34184 13.1373 1.416Z" fill="currentColor"/><path d="M11.6563 11.4903C11.2272 11.3045 10.7378 11.1641 10.2266 11.3116C9.88866 11.4092 9.58278 11.5942 9.33789 11.8458C8.97209 12.2218 8.85406 12.7142 8.80176 13.1846C8.74997 13.6506 8.74998 14.2496 8.75 14.9639V15.0001V15.0363C8.74998 15.7506 8.74997 16.3496 8.80176 16.8155C8.85406 17.286 8.97209 17.7784 9.33789 18.1544C9.58278 18.4059 9.88866 18.591 10.2266 18.6886C10.7378 18.8361 11.2272 18.6956 11.6563 18.5098C12.0797 18.3264 12.59 18.0312 13.1944 17.6816L13.2246 17.6641L13.2687 17.6386C13.8891 17.2798 14.4115 16.9777 14.791 16.6954C15.1789 16.4069 15.5489 16.0473 15.6836 15.5264C15.7727 15.1816 15.7727 14.8186 15.6836 14.4737C15.5489 13.9528 15.1789 13.5933 14.791 13.3048C14.4114 13.0225 13.8891 12.7204 13.2687 12.3615L13.2246 12.336L13.1944 12.3185C12.59 11.9689 12.0797 11.6737 11.6563 11.4903Z" fill="currentColor"/></svg>
