<svg xmlns="http://www.w3.org/2000/svg" viewBox="0 0 24 24" fill="none"><path d="M11.5874 1.24815C12.1571 1.24739 12.6619 1.24657 13.1372 1.41514C13.235 1.44983 13.3308 1.49031 13.4243 1.53526C13.8791 1.75391 14.2358 2.11306 14.6382 2.51866L19.4214 7.32627C19.8886 7.79446 20.3028 8.21049 20.5269 8.75401C20.7509 9.29772 20.7505 9.88661 20.7495 10.5499V14.0245C20.7495 15.8063 20.7492 17.2426 20.5981 18.3722C20.4413 19.5449 20.1057 20.5323 19.3257 21.3165C18.5454 22.1008 17.5628 22.4391 16.396 22.5968C15.2723 22.7486 13.8433 22.7482 12.0708 22.7481C10.2982 22.7482 8.72681 22.7486 7.60303 22.5968C6.4363 22.4391 5.45356 22.1008 4.67334 21.3165C3.89332 20.5323 3.55773 19.5449 3.40088 18.3722C3.24982 17.2426 3.24949 15.8063 3.24951 14.0245V9.4503C3.24949 7.91689 3.24951 6.68012 3.36377 5.69639C3.48203 4.67861 3.73411 3.80624 4.32666 3.06749C4.54403 2.79653 4.78954 2.54966 5.05908 2.33116C5.79408 1.73547 6.66265 1.48224 7.67529 1.36338C8.65401 1.24856 10.0619 1.24813 11.5874 1.24815ZM11.6558 11.4884C11.2268 11.3026 10.7373 11.1622 10.2261 11.3097C9.88819 11.4072 9.58228 11.5923 9.3374 11.8439C8.97162 12.2198 8.85358 12.7123 8.80127 13.1827C8.74948 13.6487 8.7495 14.2477 8.74951 14.962V15.0343C8.7495 15.7485 8.74949 16.3477 8.80127 16.8136C8.85357 17.284 8.97163 17.7764 9.3374 18.1524C9.58229 18.404 9.88818 18.5891 10.2261 18.6866C10.7373 18.8341 11.2268 18.6937 11.6558 18.5079C12.0792 18.3245 12.5895 18.0294 13.1938 17.6798L13.2241 17.6622L13.2681 17.6368C13.8885 17.278 14.411 16.9758 14.7905 16.6935C15.1784 16.405 15.5484 16.0454 15.6831 15.5245C15.7722 15.1797 15.7722 14.8166 15.6831 14.4718C15.5484 13.951 15.1784 13.5913 14.7905 13.3028C14.411 13.0206 13.8885 12.7183 13.2681 12.3595L13.2241 12.3341L13.1938 12.3165C12.5895 11.9669 12.0792 11.6718 11.6558 11.4884ZM12.4897 3.26866C12.4897 4.63 12.4897 5.2778 12.606 6.14268C12.7269 7.0425 12.9859 7.80062 13.5874 8.40245C14.1893 9.00433 14.9481 9.26384 15.8481 9.38487C16.7149 9.50137 17.3637 9.50208 18.731 9.50206C18.6741 9.36427 18.5686 9.23351 17.9507 8.61241L13.3462 3.9835C12.8133 3.44788 12.6714 3.31455 12.4897 3.25987V3.26866Z" fill="currentColor" fill-rule="evenodd" clip-rule="evenodd"/></svg>
