<svg xmlns="http://www.w3.org/2000/svg" viewBox="0 0 24 24" fill="none"><path opacity="0.4" d="M19.3412 21.7496C20.6717 21.7495 21.7502 20.671 21.7503 19.3405C21.7503 19.0143 21.6845 18.6911 21.556 18.3912L19.7289 14.1285L19.7103 14.0852C19.4728 13.5311 19.2714 13.0611 19.0638 12.692C18.8419 12.2976 18.5813 11.9581 18.1956 11.7037C17.81 11.4494 17.3947 11.3441 16.9447 11.2955C16.5191 11.2496 16.0014 11.2496 15.39 11.2496H15.3626H12.638H12.6107C11.9993 11.2496 11.4815 11.2496 11.056 11.2955C10.606 11.3441 10.1907 11.4494 9.80502 11.7037C9.41941 11.9581 9.15876 12.2976 8.93686 12.692C8.72386 13.0706 8.5174 13.5555 8.27182 14.1285L6.44467 18.3912C6.31621 18.6911 6.25034 19.0143 6.25034 19.3405C6.25045 20.671 7.32901 21.7495 8.65952 21.7496H19.3412Z" fill="currentColor"/><path d="M20.8517 16.7496H7.14853L7.79111 15.2496H20.2091L20.8517 16.7496Z" fill="currentColor"/><path opacity="0.4" d="M2.30987 3.54656C2.24382 3.79304 2.25029 4.07109 2.2503 4.3327V7.66668C2.25029 7.92829 2.24382 8.20633 2.30987 8.45281C2.47171 9.05659 2.94339 9.52827 3.54717 9.69012C3.79365 9.75616 4.0717 9.74969 4.33331 9.74969C4.905 9.74969 5.33846 9.75608 5.71221 9.65594C6.66108 9.40163 7.40224 8.66047 7.65655 7.7116C7.75669 7.33785 7.7503 6.90439 7.7503 6.3327V5.66668C7.7503 5.09498 7.75669 4.66152 7.65655 4.28777C7.40224 3.3389 6.66108 2.59775 5.71221 2.34344C5.33846 2.24329 4.905 2.24969 4.33331 2.24969C4.0717 2.24968 3.79365 2.24321 3.54717 2.30926C2.94339 2.4711 2.47171 2.94278 2.30987 3.54656Z" fill="currentColor"/><path d="M8.00009 4.99964C9.38581 4.99964 10.5259 4.99796 11.4249 5.11878C12.3527 5.24351 13.1721 5.51549 13.8282 6.17151C14.4843 6.82761 14.7562 7.64702 14.881 8.57483C14.9793 9.30613 14.9951 10.1968 14.9981 11.2496H12.9981C12.995 10.205 12.9801 9.44113 12.8995 8.84143C12.8046 8.1354 12.6367 7.80814 12.4142 7.58557C12.1916 7.36306 11.8642 7.19513 11.1583 7.10022C10.4235 7.00151 9.44215 6.99963 8.00009 6.99963H7.74326C7.74602 6.91558 7.7494 6.82821 7.75009 6.73694V5.26233C7.7494 5.17106 7.74602 5.08369 7.74326 4.99964H8.00009Z" fill="currentColor"/></svg>
