<svg xmlns="http://www.w3.org/2000/svg" viewBox="0 0 24 24" fill="none"><path d="M21.5558 18.3912C21.6842 18.6911 21.7501 19.0143 21.7501 19.3405C21.75 20.671 20.6714 21.7495 19.3409 21.7496H8.65927C7.32888 21.7494 6.25021 20.6709 6.25009 19.3405C6.25009 19.0143 6.31599 18.6911 6.44443 18.3912L7.14853 16.7496H20.8517L21.5558 18.3912ZM15.3897 11.2496C16.001 11.2496 16.5189 11.2496 16.9444 11.2955C17.3944 11.3441 17.8098 11.4495 18.1954 11.7037C18.581 11.958 18.8417 12.2976 19.0636 12.692C19.2712 13.0611 19.4726 13.5314 19.7101 14.0856L19.7286 14.1285L20.2091 15.2496H7.79111L8.27158 14.1285C8.51713 13.5556 8.72364 13.0706 8.93661 12.692C9.15849 12.2976 9.41925 11.958 9.80478 11.7037C10.1904 11.4495 10.6058 11.3441 11.0558 11.2955C11.4812 11.2496 11.9992 11.2496 12.6104 11.2496H15.3897Z" fill="currentColor"/><path d="M2.30987 3.54656C2.24382 3.79304 2.25029 4.07109 2.2503 4.3327V7.66668C2.25029 7.92829 2.24382 8.20633 2.30987 8.45281C2.47171 9.05659 2.94339 9.52827 3.54717 9.69012C3.79365 9.75616 4.0717 9.74969 4.33331 9.74969C4.905 9.74969 5.33846 9.75608 5.71221 9.65594C6.66108 9.40163 7.40224 8.66047 7.65655 7.7116C7.75669 7.33785 7.7503 6.90439 7.7503 6.3327V5.66668C7.7503 5.09498 7.75669 4.66152 7.65655 4.28777C7.40224 3.3389 6.66108 2.59775 5.71221 2.34344C5.33846 2.24329 4.905 2.24969 4.33331 2.24969C4.0717 2.24968 3.79365 2.24321 3.54717 2.30926C2.94339 2.4711 2.47171 2.94278 2.30987 3.54656Z" fill="currentColor"/><path d="M13.0003 11.9996C13.0003 10.5574 12.9985 9.57621 12.8997 8.84143C12.8048 8.13538 12.637 7.80814 12.4144 7.58557C12.1918 7.363 11.8646 7.19515 11.1585 7.10022C10.4238 7.00148 9.44256 6.99963 8.00034 6.99963H7.00034C6.44805 6.99963 6.00034 6.55192 6.00034 5.99964C6.00034 5.44735 6.44805 4.99964 7.00034 4.99964H8.00034C9.38618 4.99964 10.5261 4.99793 11.4251 5.11878C12.353 5.24352 13.1724 5.5154 13.8285 6.17151C14.4846 6.82762 14.7565 7.647 14.8812 8.57483C15.002 9.47386 15.0003 10.6138 15.0003 11.9996C15.0003 12.5519 14.5526 12.9996 14.0003 12.9996C13.4481 12.9996 13.0003 12.5519 13.0003 11.9996Z" fill="currentColor"/></svg>
