<svg xmlns="http://www.w3.org/2000/svg" viewBox="0 0 24 24" fill="none"><path opacity="0.4" d="M13.4198 17.3479C15.4072 17.0105 17.3593 16.301 18.7518 14.9085C19.6822 13.9781 20.3386 12.9608 20.7948 11.9215C20.2077 11.9424 19.4426 11.9374 18.6461 11.8572C17.2602 11.7972 15.6287 11.0955 14.2662 9.73294C12.9033 8.37007 12.2007 6.73824 12.141 5.35213C12.141 4.45851 12.2578 3.61692 12.3591 3.08691C11.2226 3.54554 10.1054 4.23405 9.09134 5.24811C7.69886 6.64061 6.9894 8.59271 6.65195 10.5801C6.38024 12.1805 6.34016 13.8732 6.41391 15.4579C5.24845 15.3237 4.21033 15.1463 3.41657 14.9876C2.88855 14.882 2.37484 15.2251 2.26924 15.7531C2.16378 16.281 2.50592 16.7948 3.03381 16.9004C3.95343 17.0843 5.18308 17.2906 6.5634 17.4355C6.70832 18.8163 6.91549 20.0462 7.09946 20.9661C7.20509 21.494 7.71888 21.8361 8.24679 21.7306C8.77481 21.625 9.11791 21.1113 9.01231 20.5833C8.85351 19.7893 8.67521 18.7509 8.541 17.585C10.126 17.6588 11.819 17.6197 13.4198 17.3479Z" fill="currentColor"/><path d="M17.5998 2.25866C18.2498 2.27911 18.8511 2.29438 19.3537 2.39147C19.9086 2.49872 20.4073 2.71362 20.8468 3.15319C21.2864 3.59278 21.5013 4.0914 21.6086 4.64636C21.7056 5.14896 21.7209 5.75023 21.7414 6.40026C21.7933 8.0514 21.6282 10.0235 20.7951 11.9217C20.208 11.9427 19.4422 11.9375 18.6457 11.8573C17.2599 11.7972 15.6282 11.0957 14.2658 9.73327C12.903 8.3705 12.2006 6.73844 12.1408 5.35241C12.1408 4.45879 12.2582 3.61679 12.3595 3.08679C14.1702 2.35619 16.03 2.20928 17.5998 2.25866ZM15.5002 5.49987C14.9479 5.49987 14.5002 5.94759 14.5002 6.49987C14.5002 7.0521 14.9479 7.49987 15.5002 7.49987C16.0524 7.49987 16.5001 7.0521 16.5002 6.49987C16.5002 5.94759 16.0524 5.49987 15.5002 5.49987Z" fill="currentColor" fill-rule="evenodd" clip-rule="evenodd"/></svg>
