<svg xmlns="http://www.w3.org/2000/svg" viewBox="0 0 24 24" fill="none"><path d="M17.5995 2.25791C18.2495 2.27836 18.8508 2.2946 19.3534 2.3917C19.9084 2.49893 20.407 2.71382 20.8466 3.15342C21.286 3.59297 21.5011 4.09167 21.6083 4.64658C21.7053 5.14911 21.7206 5.75062 21.7411 6.40049C21.8214 8.95559 21.3814 12.2787 18.7518 14.9083C17.3594 16.3008 15.4072 17.0103 13.4198 17.3478C11.8191 17.6195 10.1259 17.6589 8.54089 17.5851C8.6751 18.7509 8.85378 19.7892 9.01257 20.5831C9.11813 21.111 8.77482 21.6249 8.24695 21.7306C7.71906 21.836 7.20514 21.4938 7.09949 20.9659C6.91553 20.0461 6.70827 18.8163 6.56335 17.4356C5.18322 17.2907 3.95363 17.0844 3.03406 16.9005C2.50619 16.7949 2.16399 16.2809 2.26941 15.753C2.37501 15.225 2.88885 14.8818 3.41687 14.9874C4.21058 15.1461 5.24866 15.3239 6.41394 15.4581C6.34019 13.8735 6.38054 12.1805 6.65222 10.5802C6.98967 8.59278 7.69919 6.64065 9.09167 5.24814C11.7214 2.61847 15.0443 2.17755 17.5995 2.25791ZM17.5389 4.20615C15.8086 4.15172 13.8752 4.36823 12.1405 5.35166C12.2002 6.73776 12.9036 8.36965 14.2665 9.73252C15.629 11.095 17.2605 11.7965 18.6464 11.8565C19.6293 10.1223 19.8462 8.19102 19.7919 6.46103C19.7695 5.75001 19.754 5.32917 19.6932 5.01474C19.6426 4.75307 19.5738 4.63755 19.4676 4.53135C19.3614 4.42514 19.2459 4.3564 18.9843 4.30576C18.6699 4.24502 18.2496 4.22851 17.5389 4.20615Z" fill="currentColor" fill-rule="evenodd" clip-rule="evenodd"/><path d="M16.5001 6.49951C16.5001 7.0518 16.0523 7.49951 15.5001 7.49951C14.9478 7.49951 14.5001 7.0518 14.5001 6.49951C14.5001 5.94723 14.9478 5.49951 15.5001 5.49951C16.0523 5.49951 16.5001 5.94723 16.5001 6.49951Z" fill="currentColor"/></svg>
