<svg xmlns="http://www.w3.org/2000/svg" fill="none" viewBox="0 0 48 48">
  <g>
    <path fill="currentColor" fill-opacity="0.4" d="M27.9039 1.91427c-2.3251 -1.781525 -5.4827 -1.781528 -7.8077 0 -2.6228 2.00968 -6.4945 5.36746 -9.7215 9.77493C7.14924 16.0946 4.5 21.6437 4.5 27.9996c0 10.8284 8.6716 19.5 19.5 19.5s19.5 -8.6716 19.5 -19.5c0 -6.3559 -2.6492 -11.905 -5.8747 -16.3104 -3.227 -4.40747 -7.0987 -7.76525 -9.7214 -9.77493Z" stroke-width="3.429"></path>
    <path fill="currentColor" d="M36 25.5c1.3807 0 2.5 1.1193 2.5 2.5 0 8.0474 -6.4526 14.5 -14.5 14.5 -1.3807 0 -2.5 -1.1193 -2.5 -2.5s1.1193 -2.5 2.5 -2.5c5.286 0 9.5 -4.214 9.5 -9.5 0 -1.3807 1.1193 -2.5 2.5 -2.5Z" stroke-width="3.429"></path>
  </g>
</svg>
