<svg xmlns="http://www.w3.org/2000/svg" fill="none" viewBox="0 0 48 48">
  <g>
    <path fill="currentColor" fill-rule="evenodd" d="M20.0962 1.91427c2.325 -1.781528 5.4826 -1.781525 7.8077 0 2.6227 2.00968 6.4944 5.36746 9.7214 9.77493C40.8508 16.0946 43.5 21.6437 43.5 27.9996c0 10.8284 -8.6716 19.5 -19.5 19.5s-19.5 -8.6716 -19.5 -19.5c0 -6.3559 2.64924 -11.905 5.8747 -16.3104 3.227 -4.40747 7.0987 -7.76525 9.7215 -9.77493ZM38.5 27.9996c0 -1.3807 -1.1193 -2.5 -2.5 -2.5s-2.5 1.1193 -2.5 2.5c0 5.286 -4.214 9.5 -9.5 9.5 -1.3807 0 -2.5 1.1193 -2.5 2.5s1.1193 2.5 2.5 2.5c8.0474 0 14.5 -6.4526 14.5 -14.5Z" clip-rule="evenodd" stroke-width="3.429"></path>
  </g>
</svg>
