<svg xmlns="http://www.w3.org/2000/svg" viewBox="0 0 24 24" fill="none"><path opacity="0.4" d="M10.6973 17.5352C10.7537 17.2514 10.75 16.9276 10.75 16.4991V7.502C10.75 7.07348 10.7537 6.74969 10.6973 6.46587C10.4803 5.37497 9.62708 4.52173 8.53618 4.30474C8.25236 4.24834 7.92857 4.252 7.50005 4.252C7.07153 4.252 6.74774 4.24834 6.46392 4.30474C5.37302 4.52173 4.51978 5.37497 4.30278 6.46587C4.24639 6.74969 4.25005 7.07348 4.25005 7.502V16.4991C4.25005 16.9276 4.24638 17.2514 4.30278 17.5352C4.51978 18.6261 5.37302 19.4793 6.46392 19.6963C6.74773 19.7527 7.07153 19.7491 7.50005 19.7491C7.92857 19.7491 8.25236 19.7527 8.53618 19.6963C9.62708 19.4793 10.4803 18.6261 10.6973 17.5352Z" fill="currentColor"/><path opacity="0.4" d="M19.6973 14.5352C19.7537 14.2514 19.75 13.9276 19.75 13.4991V10.502C19.75 10.0735 19.7537 9.74969 19.6973 9.46587C19.4803 8.37497 18.6271 7.52173 17.5362 7.30474C17.2524 7.24834 16.9286 7.252 16.5 7.252C16.0715 7.252 15.7477 7.24834 15.4639 7.30474C14.373 7.52173 13.5198 8.37497 13.3028 9.46587C13.2464 9.74969 13.25 10.0735 13.25 10.502V13.4991C13.25 13.9276 13.2464 14.2514 13.3028 14.5352C13.5198 15.6261 14.373 16.4793 15.4639 16.6963C15.7477 16.7527 16.0715 16.7491 16.5 16.7491C16.9286 16.7491 17.2524 16.7527 17.5362 16.6963C18.6271 16.4793 19.4803 15.6261 19.6973 14.5352Z" fill="currentColor"/><path d="M17.7501 21.75V2.25C17.7501 1.69772 18.1978 1.25 18.7501 1.25C19.3023 1.25 19.7501 1.69772 19.7501 2.25V21.75C19.7501 22.3023 19.3023 22.75 18.7501 22.75C18.1978 22.75 17.7501 22.3023 17.7501 21.75Z" fill="currentColor"/><path d="M8.75006 21.75V2.25C8.75006 1.69772 9.19778 1.25 9.75006 1.25C10.3023 1.25 10.7501 1.69772 10.7501 2.25V21.75C10.7501 22.3023 10.3023 22.75 9.75006 22.75C9.19778 22.75 8.75006 22.3023 8.75006 21.75Z" fill="currentColor"/></svg>
