<svg xmlns="http://www.w3.org/2000/svg" fill="none" viewBox="0 0 48 48">
  <path fill="currentColor" fill-opacity="0.4" fill-rule="evenodd" d="M14.2939 22.4644V12.2591c0.0164 -1.2545 0.0347 -2.28188 0.0542 -2.88788 0.1491 -4.61454 3.5386 -8.429612 8.1535 -8.569019 0.4366 -0.013189 0.8811 -0.020463 1.3306 -0.020463 0.4306 0 0.8566 0.006676 1.2755 0.018831 4.6414 0.134694 8.0519 3.984461 8.2046 8.625291 0.0797 2.42324 0.1385 11.45884 0.1385 14.91924v0.0854c0.0049 -0.0019 0.0097 -0.0039 0.0145 -0.0058v0.0426c0 0.8284 0.6716 1.5 1.5 1.5 0.8285 0 1.5 -0.6716 1.5 -1.5v-5.8988c0.1721 -2.4866 2.2438 -4.4505 4.7741 -4.4505 2.6431 0 4.7857 2.1427 4.7857 4.7858l0 3.0841c0 7.3255 -5.4864 13.3696 -12.5743 14.2474v8.4832l-19.2373 -0.0001 0 -10.4417c-6.90708 -0.9095 -12.2384 -6.8198 -12.2384 -13.9752l0.00075 -5.3226c0.00036 -2.5947 2.10391 -4.698 4.69863 -4.698 2.30005 0 4.21402 1.6526 4.61942 3.8351v8.3484c0 0.8284 0.6716 1.5 1.5 1.5 0.8285 0 1.5 -0.6716 1.5 -1.5Z" clip-rule="evenodd" stroke-width="3.429"></path>
  <path fill="currentColor" fill-rule="evenodd" d="M20.7461 22.2207c-0.8284 0 -1.5 -0.6716 -1.5 -1.5v-8c0 -0.8284 0.6716 -1.5 1.5 -1.5s1.5 0.6716 1.5 1.5v8c0 0.8284 -0.6716 1.5 -1.5 1.5ZM44.668 44.7183c0 1.3807 -1.1193 2.5 -2.5 2.5H5.55762c-1.38072 0 -2.5 -1.1193 -2.5 -2.5s1.11928 -2.5 2.5 -2.5H42.168c1.3807 0 2.5 1.1193 2.5 2.5ZM25.4102 32.7207c0 0.8284 0.6715 1.5 1.5 1.5 0.8284 0 1.5 -0.6716 1.5 -1.5v-6.79c0 -0.8285 -0.6716 -1.5 -1.5 -1.5 -0.8285 0 -1.5 0.6715 -1.5 1.5v6.79Z" clip-rule="evenodd" stroke-width="3.429"></path>
</svg>
