<svg xmlns="http://www.w3.org/2000/svg" fill="none" viewBox="0 0 48 48">
  <path fill="currentColor" fill-rule="evenodd" d="M14.2939 12.2591v10.2053c0 0.8284 -0.6715 1.5 -1.5 1.5 -0.8284 0 -1.5 -0.6716 -1.5 -1.5V14.116c-0.4054 -2.1825 -2.31937 -3.8351 -4.61942 -3.8351 -2.59472 0 -4.69827 2.1033 -4.69863 4.698l-0.00075 5.3226c0 7.1554 5.33132 13.0657 12.2384 13.9752l0 7.9416H5.55762c-1.38072 0 -2.5 1.1193 -2.5 2.5s1.11928 2.5 2.5 2.5H42.168c1.3807 0 2.5 -1.1193 2.5 -2.5s-1.1193 -2.5 -2.5 -2.5h-8.7172v-5.983c7.0879 -0.8778 12.5743 -6.9219 12.5743 -14.2474l0 -3.0841c0 -2.6431 -2.1426 -4.7858 -4.7857 -4.7858 -2.5303 0 -4.602 1.9639 -4.7741 4.4505v5.8988c0 0.8284 -0.6715 1.5 -1.5 1.5 -0.8284 0 -1.5 -0.6716 -1.5 -1.5v-0.0426l-0.0145 0.0058v-0.0854c0 -3.4604 -0.0588 -12.496 -0.1385 -14.91924 -0.1527 -4.64083 -3.5632 -8.490597 -8.2046 -8.625291 -0.4189 -0.012155 -0.8449 -0.018831 -1.2755 -0.018831 -0.4495 0 -0.894 0.007274 -1.3306 0.020463 -4.6149 0.139407 -8.0044 3.954479 -8.1535 8.569019 -0.0195 0.606 -0.0378 1.63338 -0.0542 2.88788Zm4.9522 8.4616c0 0.8284 0.6716 1.5 1.5 1.5s1.5 -0.6716 1.5 -1.5v-8c0 -0.8284 -0.6716 -1.5 -1.5 -1.5s-1.5 0.6716 -1.5 1.5v8Zm7.6641 13.5c-0.8285 0 -1.5 -0.6716 -1.5 -1.5v-6.79c0 -0.8285 0.6715 -1.5 1.5 -1.5 0.8284 0 1.5 0.6715 1.5 1.5v6.79c0 0.8284 -0.6716 1.5 -1.5 1.5Z" clip-rule="evenodd" stroke-width="1"></path>
</svg>
