<svg xmlns="http://www.w3.org/2000/svg" viewBox="0 0 24 24" fill="none"><path d="M1.54302 1.54265C1.93355 1.15212 2.56656 1.15212 2.95708 1.54265L22.4571 21.0426C22.8476 21.4332 22.8476 22.0662 22.4571 22.4567C22.0666 22.8472 21.4335 22.8472 21.043 22.4567L1.54302 2.95671C1.1525 2.56619 1.1525 1.93317 1.54302 1.54265Z" fill="currentColor"/><path d="M8.00405 8.00293C7.99998 8.11307 7.99978 8.21966 8.00014 8.31836V17.999C8.00014 18.5512 8.44805 18.9988 9.00014 18.999C9.55237 18.999 10.0001 18.5513 10.0001 17.999V13.999H13.0001C13.3088 13.999 13.609 13.9627 13.8976 13.8965L20.5656 20.5645C20.4592 20.6708 20.349 20.7733 20.2345 20.8711C19.3757 21.6046 18.3304 21.9351 17.0246 22.0938C15.7466 22.249 14.1223 22.249 12.0509 22.249H11.9494C9.87799 22.249 8.25368 22.249 6.97573 22.0938C5.66989 21.9351 4.6246 21.6046 3.76577 20.8711C3.53685 20.6756 3.3236 20.4623 3.12807 20.2334C2.39455 19.3746 2.06407 18.3293 1.90542 17.0234C1.75018 15.7455 1.75013 14.1212 1.75014 12.0498V11.9482C1.75013 9.87681 1.75018 8.25258 1.90542 6.97461C2.06407 5.66874 2.39455 4.62349 3.12807 3.76465C3.22585 3.65018 3.32835 3.53996 3.43471 3.43359L8.00405 8.00293Z" fill="currentColor"/><path d="M12.0001 11.999H10.0001V9.99902L12.0001 11.999Z" fill="currentColor"/><path opacity="0.4" d="M12.051 1.74976C14.1223 1.74975 15.7466 1.74979 17.0246 1.90503C18.3304 2.06368 19.3757 2.39419 20.2345 3.12769C20.4635 3.32322 20.6767 3.53646 20.8722 3.76538C21.6057 4.62421 21.9363 5.6695 22.0949 6.97534C22.2501 8.25331 22.2502 9.87755 22.2502 11.949V12.0505C22.2502 14.122 22.2501 15.7462 22.0949 17.0242C22.0388 17.4856 21.958 17.9136 21.8488 18.3132L16.0832 12.5476C16.6557 11.8556 17.0002 10.968 17.0002 9.99976C17 7.79085 15.2091 5.99982 13.0002 5.99976H10.3195C10.0975 5.99895 9.83543 5.9987 9.58318 6.04761L5.68474 2.14917C6.08472 2.03982 6.51385 1.96115 6.97576 1.90503C8.25372 1.74981 9.87802 1.74975 11.9494 1.74976H12.051Z" fill="currentColor"/><path opacity="0.4" d="M13.0002 7.99976C14.1046 7.99982 15 8.89542 15.0002 9.99976C15.0002 10.4151 14.8722 10.8001 14.6554 11.1199L11.5353 7.99976H13.0002Z" fill="currentColor"/></svg>
