<svg xmlns="http://www.w3.org/2000/svg" viewBox="0 0 24 24" fill="none"><path d="M1.54302 1.54265C1.93355 1.15212 2.56656 1.15212 2.95709 1.54265L22.4571 21.0426C22.8476 21.4332 22.8476 22.0662 22.4571 22.4567C22.0666 22.8472 21.4335 22.8472 21.043 22.4567L1.54302 2.95671C1.1525 2.56619 1.1525 1.93317 1.54302 1.54265Z" fill="currentColor"/><path d="M8.00405 8.00293C7.99999 8.11307 7.99979 8.21966 8.00014 8.31836V17.999C8.00015 18.5512 8.44805 18.9988 9.00014 18.999C9.55237 18.999 10.0001 18.5513 10.0001 17.999V13.999H13.0001C13.3088 13.999 13.609 13.9627 13.8976 13.8965L20.5656 20.5645C20.4592 20.6708 20.349 20.7733 20.2345 20.8711C19.3757 21.6046 18.3304 21.9351 17.0246 22.0938C15.7466 22.249 14.1223 22.249 12.0509 22.249H11.9494C9.87799 22.249 8.25369 22.249 6.97573 22.0938C5.66989 21.9351 4.6246 21.6046 3.76577 20.8711C3.53685 20.6756 3.32361 20.4623 3.12807 20.2334C2.39456 19.3746 2.06407 18.3293 1.90542 17.0234C1.75018 15.7455 1.75013 14.1212 1.75015 12.0498V11.9482C1.75013 9.87681 1.75018 8.25258 1.90542 6.97461C2.06407 5.66874 2.39456 4.62349 3.12807 3.76465C3.22585 3.65018 3.32835 3.53996 3.43472 3.43359L8.00405 8.00293Z" fill="currentColor"/><path d="M12.0509 1.74902C14.1223 1.74901 15.7466 1.74906 17.0246 1.9043C18.3304 2.06295 19.3757 2.39345 20.2345 3.12695C20.4634 3.32248 20.6767 3.53573 20.8722 3.76465C21.6057 4.62348 21.9362 5.66877 22.0949 6.97461C22.2501 8.25258 22.2502 9.87681 22.2501 11.9482V12.0498C22.2502 14.1212 22.2501 15.7455 22.0949 17.0234C22.0388 17.4849 21.9579 17.9129 21.8488 18.3125L16.0832 12.5469C16.6556 11.8549 17.0001 10.9673 17.0001 9.99902C16.9999 7.79011 15.2091 5.99909 13.0001 5.99902H10.3195C10.0975 5.99821 9.8354 5.99797 9.58315 6.04688L5.68472 2.14844C6.08469 2.03909 6.51382 1.96041 6.97573 1.9043C8.25369 1.74907 9.87799 1.74901 11.9494 1.74902H12.0509Z" fill="currentColor"/><path d="M12.0001 11.999H10.0001V9.99902L12.0001 11.999Z" fill="currentColor"/><path d="M13.0001 7.99902C14.1045 7.99909 14.9999 8.89468 15.0001 9.99902C15.0001 10.4144 14.8722 10.7994 14.6554 11.1191L11.5353 7.99902H13.0001Z" fill="currentColor"/></svg>
