<svg xmlns="http://www.w3.org/2000/svg" viewBox="0 0 24 24" fill="none"><path d="M8.99988 19.9998C8.99988 19.4475 9.44759 18.9998 9.99988 18.9998H13.9999C14.5522 18.9998 14.9999 19.4475 14.9999 19.9998C14.9999 20.552 14.5522 20.9998 13.9999 20.9998H9.99988C9.44759 20.9998 8.99988 20.552 8.99988 19.9998Z" fill="currentColor" fill-rule="evenodd" clip-rule="evenodd"/><path d="M11.7059 1.31045C11.894 1.23018 12.1067 1.23017 12.2948 1.31045C15.3732 2.62462 17.8067 4.35805 19.2401 6.68252C20.6881 9.03075 21.0539 11.8803 20.1893 15.2782C20.1039 15.614 20.1194 15.9518 20.2323 16.2411L21.6083 19.7646C21.8096 20.2802 21.8 20.7931 21.5546 21.2431C21.3293 21.6562 20.9563 21.9187 20.6268 22.0888C20.0482 22.3874 19.1919 22.5616 18.7792 22.6454C16.0275 23.2243 13.3896 21.3335 12.952 18.536C12.8755 18.0465 12.8775 17.6024 12.9833 17.2001C13.092 16.7868 13.2991 16.4595 13.5653 16.1942C13.8207 15.9399 14.1216 15.7522 14.4052 15.5976C14.574 15.5055 15.3379 15.1368 15.5311 15.0409C15.6388 14.9858 15.7821 14.9004 15.9218 14.7812C16.1946 14.5482 16.4363 14.2096 16.4364 13.6913C16.4364 12.9143 15.8259 12.3153 15.1112 12.3153C14.5864 12.3154 14.1362 12.4738 13.662 12.9862C13.378 13.2932 13.1319 13.5584 12.9286 13.744C12.8228 13.8407 12.7016 13.9414 12.5683 14.0204C12.4362 14.0986 12.2405 14.1864 11.9999 14.1864C11.7595 14.1864 11.5645 14.0986 11.4325 14.0204C11.2991 13.9414 11.1771 13.8407 11.0712 13.744C10.8678 13.5583 10.6218 13.2931 10.3378 12.9862C9.86327 12.4736 9.41272 12.3153 8.88759 12.3153C8.17309 12.3155 7.56337 12.9144 7.56337 13.6913C7.56345 14.2097 7.80519 14.5482 8.07802 14.7812C8.21755 14.9003 8.36003 14.9858 8.46767 15.0409C8.66057 15.1366 9.4257 15.5054 9.59462 15.5976C9.87818 15.7522 10.1792 15.94 10.4345 16.1942C10.7006 16.4595 10.9078 16.7868 11.0165 17.2001C11.1222 17.6024 11.1243 18.0465 11.0477 18.536C10.6102 21.3335 7.97228 23.2242 5.2206 22.6454C4.80781 22.5616 3.9506 22.3874 3.37196 22.0888C3.04257 21.9187 2.66948 21.656 2.44423 21.2431C2.19899 20.7932 2.19024 20.28 2.3915 19.7646L3.76747 16.2411C3.88041 15.9518 3.89587 15.614 3.81044 15.2782C2.94585 11.8802 3.31239 9.03077 4.76064 6.68252C6.19429 4.35811 8.62752 2.62458 11.7059 1.31045ZM11.995 6.74991C11.3073 6.7501 10.7499 7.30967 10.7499 7.99991C10.75 8.69008 11.3073 9.24971 11.995 9.24991H12.0048C12.6924 9.24966 13.2498 8.69005 13.2499 7.99991C13.2499 7.3097 12.6925 6.75015 12.0048 6.74991H11.995Z" fill="currentColor" fill-rule="evenodd" clip-rule="evenodd"/></svg>
