<svg xmlns="http://www.w3.org/2000/svg" viewBox="0 0 24 24" fill="none"><path opacity="0.4" d="M7.99988 12.0001C7.99988 11.3212 7.9974 10.7114 8.06336 10.2208C8.13319 9.70146 8.29589 9.16892 8.7323 8.73251C9.16871 8.29609 9.70125 8.13339 10.2206 8.06356C10.7112 7.9976 11.321 8.00008 11.9999 8.00008H12.9999C13.2411 8.00008 13.3889 8.00029 13.5009 7.9952C13.5993 7.99071 13.6288 7.98375 13.6298 7.98348C13.802 7.93719 13.937 7.80224 13.9833 7.62997C13.9835 7.62904 13.9905 7.59952 13.995 7.50106C14.0001 7.38909 13.9999 7.24133 13.9999 7.00008C13.9999 6.00574 13.9911 5.70478 13.9315 5.48251C13.7466 4.79232 13.2076 4.25338 12.5175 4.06844C12.2952 4.00888 11.9942 4.00008 10.9999 4.00008H8.99988C7.55766 4.00008 6.57645 4.00193 5.84168 4.10067C5.13562 4.1956 4.80839 4.36345 4.58582 4.58602C4.36325 4.80859 4.19539 5.13583 4.10047 5.84188C4.00172 6.57666 3.99988 7.55786 3.99988 9.00008V12.0001C3.99988 13.1047 4.89531 14.0001 5.99988 14.0001C6.55216 14.0001 6.99988 14.4478 6.99988 15.0001C6.99988 15.5524 6.55216 16.0001 5.99988 16.0001C3.79074 16.0001 1.99988 14.2092 1.99988 12.0001V9.00008C1.99988 7.61424 1.99817 6.47431 2.11902 5.57528C2.24376 4.64745 2.51565 3.82807 3.17175 3.17196C3.82786 2.51585 4.64724 2.24397 5.57507 2.11922C6.47411 1.99838 7.61404 2.00008 8.99988 2.00008H10.9999C11.8655 2.00008 12.4943 1.99192 13.035 2.1368C14.4154 2.50667 15.4933 3.58456 15.8632 4.96493C16.008 5.50565 15.9999 6.1345 15.9999 7.00008C15.9999 7.40069 16.0087 7.79757 15.9149 8.14754C15.6837 9.01001 15.0098 9.6839 14.1473 9.91512C13.7974 10.0089 13.4005 10.0001 12.9999 10.0001H11.9999C11.2645 10.0001 10.8135 10.0021 10.4872 10.046C10.1896 10.086 10.1493 10.1437 10.1464 10.1466C10.1435 10.1495 10.0858 10.1898 10.0458 10.4874C10.0019 10.8137 9.99988 11.2647 9.99988 12.0001C9.99988 12.5524 9.55216 13.0001 8.99988 13.0001C8.44759 13.0001 7.99988 12.5524 7.99988 12.0001Z" fill="currentColor"/><path d="M19.9999 15V12C19.9999 10.8954 19.1045 10 17.9999 10C17.4476 10 16.9999 9.55228 16.9999 9C16.9999 8.44772 17.4476 8 17.9999 8C20.209 8 21.9999 9.79086 21.9999 12V15C21.9999 16.3858 22.0016 17.5258 21.8807 18.4248C21.756 19.3526 21.4841 20.172 20.828 20.8281C20.1719 21.4842 19.3525 21.7561 18.4247 21.8809C17.5257 22.0017 16.3857 22 14.9999 22H12.9999C12.1343 22 11.5054 22.0082 10.9647 21.8633C9.58436 21.4934 8.50647 20.4155 8.1366 19.0352C7.99172 18.4944 7.99988 17.8656 7.99988 17C7.99988 16.5994 7.99107 16.2025 8.08485 15.8525C8.31607 14.9901 8.98996 14.3162 9.85242 14.085C10.2024 13.9912 10.5993 14 10.9999 14H11.9999C12.7353 14 13.1862 13.998 13.5126 13.9541C13.8101 13.9141 13.8505 13.8564 13.8534 13.8535C13.8563 13.8506 13.914 13.8103 13.954 13.5127C13.9979 13.1863 13.9999 12.7354 13.9999 12C13.9999 11.4477 14.4476 11 14.9999 11C15.5522 11 15.9999 11.4477 15.9999 12C15.9999 12.6788 16.0024 13.2887 15.9364 13.7793C15.8666 14.2986 15.7039 14.8312 15.2675 15.2676C14.831 15.704 14.2985 15.8667 13.7792 15.9365C13.2886 16.0025 12.6787 16 11.9999 16H10.9999C10.7586 16 10.6109 15.9998 10.4989 16.0049C10.4005 16.0094 10.3709 16.0163 10.37 16.0166C10.1977 16.0629 10.0628 16.1978 10.0165 16.3701C10.0162 16.371 10.0093 16.4006 10.0048 16.499C9.99968 16.611 9.99989 16.7588 9.99989 17C9.99989 17.9943 10.0087 18.2953 10.0682 18.5176C10.2532 19.2078 10.7921 19.7467 11.4823 19.9316C11.7046 19.9912 12.0055 20 12.9999 20H14.9999C16.4421 20 17.4233 19.9982 18.1581 19.8994C18.8641 19.8045 19.1914 19.6366 19.4139 19.4141C19.6365 19.1915 19.8044 18.8643 19.8993 18.1582C19.998 17.4234 19.9999 16.4422 19.9999 15Z" fill="currentColor"/></svg>
