<svg xmlns="http://www.w3.org/2000/svg" viewBox="0 0 24 24" fill="none"><path d="M7.99939 12.0001C7.99939 11.3212 7.99691 10.7114 8.06287 10.2208C8.1327 9.70146 8.2954 9.16892 8.73181 8.73251C9.16823 8.29609 9.70076 8.13339 10.2201 8.06356C10.7107 7.9976 11.3206 8.00008 11.9994 8.00008H12.9994C13.2406 8.00008 13.3884 8.00029 13.5004 7.9952C13.5988 7.99071 13.6283 7.98375 13.6293 7.98348C13.8016 7.93719 13.9365 7.80224 13.9828 7.62997C13.9831 7.62904 13.99 7.59952 13.9945 7.50106C13.9996 7.38909 13.9994 7.24133 13.9994 7.00008C13.9994 6.00574 13.9906 5.70478 13.931 5.48251C13.7461 4.79232 13.2072 4.25338 12.517 4.06844C12.2947 4.00888 11.9937 4.00008 10.9994 4.00008H8.99939C7.55717 4.00008 6.57596 4.00193 5.84119 4.10067C5.13513 4.1956 4.8079 4.36345 4.58533 4.58602C4.36276 4.80859 4.1949 5.13583 4.09998 5.84188C4.00124 6.57666 3.99939 7.55786 3.99939 9.00008V12.0001C3.99939 13.1047 4.89482 14.0001 5.99939 14.0001C6.55168 14.0001 6.99939 14.4478 6.99939 15.0001C6.99939 15.5524 6.55168 16.0001 5.99939 16.0001C3.79025 16.0001 1.99939 14.2092 1.99939 12.0001V9.00008C1.99939 7.61424 1.99768 6.47431 2.11853 5.57528C2.24328 4.64745 2.51516 3.82807 3.17127 3.17196C3.82737 2.51585 4.64676 2.24397 5.57459 2.11922C6.47362 1.99838 7.61355 2.00008 8.99939 2.00008H10.9994C11.865 2.00008 12.4938 1.99192 13.0345 2.1368C14.4149 2.50667 15.4928 3.58456 15.8627 4.96493C16.0076 5.50565 15.9994 6.1345 15.9994 7.00008C15.9994 7.40069 16.0082 7.79757 15.9144 8.14754C15.6832 9.01001 15.0093 9.6839 14.1469 9.91512C13.7969 10.0089 13.4 10.0001 12.9994 10.0001H11.9994C11.264 10.0001 10.813 10.0021 10.4867 10.046C10.1891 10.086 10.1488 10.1437 10.1459 10.1466C10.143 10.1495 10.0853 10.1898 10.0453 10.4874C10.0014 10.8137 9.99939 11.2647 9.99939 12.0001C9.99939 12.5524 9.55168 13.0001 8.99939 13.0001C8.44711 13.0001 7.99939 12.5524 7.99939 12.0001Z" fill="currentColor"/><path d="M19.9994 15V12C19.9994 10.8954 19.104 10 17.9994 10C17.4471 10 16.9994 9.55228 16.9994 9C16.9994 8.44772 17.4471 8 17.9994 8C20.2085 8 21.9994 9.79086 21.9994 12V15C21.9994 16.3858 22.0011 17.5258 21.8803 18.4248C21.7555 19.3526 21.4836 20.172 20.8275 20.8281C20.1714 21.4842 19.352 21.7561 18.4242 21.8809C17.5252 22.0017 16.3852 22 14.9994 22H12.9994C12.1338 22 11.505 22.0082 10.9642 21.8633C9.58387 21.4934 8.50598 20.4155 8.13612 19.0352C7.99123 18.4944 7.9994 17.8656 7.9994 17C7.9994 16.5994 7.99058 16.2025 8.08436 15.8525C8.31558 14.9901 8.98947 14.3162 9.85194 14.085C10.2019 13.9912 10.5988 14 10.9994 14H11.9994C12.7348 14 13.1857 13.998 13.5121 13.9541C13.8096 13.9141 13.85 13.8564 13.8529 13.8535C13.8558 13.8506 13.9135 13.8103 13.9535 13.5127C13.9974 13.1863 13.9994 12.7354 13.9994 12C13.9994 11.4477 14.4471 11 14.9994 11C15.5517 11 15.9994 11.4477 15.9994 12C15.9994 12.6788 16.0019 13.2887 15.9359 13.7793C15.8661 14.2986 15.7034 14.8312 15.267 15.2676C14.8306 15.704 14.298 15.8667 13.7787 15.9365C13.2881 16.0025 12.6782 16 11.9994 16H10.9994C10.7582 16 10.6104 15.9998 10.4984 16.0049C10.4 16.0094 10.3704 16.0163 10.3695 16.0166C10.1972 16.0629 10.0623 16.1978 10.016 16.3701C10.0157 16.371 10.0088 16.4006 10.0043 16.499C9.99919 16.611 9.9994 16.7588 9.9994 17C9.9994 17.9943 10.0082 18.2953 10.0678 18.5176C10.2527 19.2078 10.7916 19.7467 11.4818 19.9316C11.7041 19.9912 12.005 20 12.9994 20H14.9994C16.4416 20 17.4228 19.9982 18.1576 19.8994C18.8637 19.8045 19.1909 19.6366 19.4135 19.4141C19.636 19.1915 19.8039 18.8643 19.8988 18.1582C19.9976 17.4234 19.9994 16.4422 19.9994 15Z" fill="currentColor"/></svg>
