<svg xmlns="http://www.w3.org/2000/svg" viewBox="0 0 24 24" fill="none"><path d="M12.0522 1.75C14.2448 1.74999 15.9668 1.74998 17.311 1.93066C18.6877 2.11575 19.78 2.50313 20.6382 3.36133C21.4964 4.21953 21.8838 5.31182 22.0688 6.68848C22.2495 8.03274 22.2495 9.75468 22.2495 11.9473V12.0527C22.2495 14.2453 22.2495 15.9673 22.0688 17.3115C21.8838 18.6882 21.4964 19.7805 20.6382 20.6387C19.78 21.4969 18.6877 21.8843 17.311 22.0693C15.9668 22.25 14.2448 22.25 12.0522 22.25H11.9468C9.75419 22.25 8.03225 22.25 6.68799 22.0693C5.31133 21.8843 4.21904 21.4969 3.36084 20.6387C2.50264 19.7805 2.11526 18.6882 1.93018 17.3115C1.74949 15.9673 1.7495 14.2453 1.74951 12.0527V11.9473C1.7495 9.75468 1.74949 8.03274 1.93018 6.68848C2.11526 5.31182 2.50264 4.21953 3.36084 3.36133C4.21904 2.50313 5.31133 2.11575 6.68799 1.93066C8.03225 1.74998 9.75419 1.74999 11.9468 1.75H12.0522ZM11.9995 7C9.23809 7 6.99951 9.23858 6.99951 12C6.99951 14.7614 9.23809 17 11.9995 17C14.7609 17 16.9995 14.7614 16.9995 12C16.9995 9.23858 14.7609 7 11.9995 7Z" fill="currentColor"/><path d="M11.9995 10.75C12.6899 10.75 13.2495 11.3096 13.2495 12C13.2495 12.6904 12.6899 13.25 11.9995 13.25C11.3092 13.25 10.7495 12.6904 10.7495 12C10.7495 11.3096 11.3092 10.75 11.9995 10.75Z" fill="currentColor"/></svg>
