<svg xmlns="http://www.w3.org/2000/svg" viewBox="0 0 24 24" fill="none"><path d="M12.5 16.25C13.1903 16.25 13.75 16.8097 13.75 17.5V18.5C13.75 19.1904 13.1904 19.75 12.5 19.75H11.5C10.8096 19.75 10.25 19.1904 10.25 18.5V17.5C10.25 16.8096 10.8096 16.25 11.5 16.25H12.5ZM12.5 10.25C13.1903 10.25 13.75 10.8097 13.75 11.5V12.5C13.75 13.1904 13.1904 13.75 12.5 13.75H11.5C10.8096 13.75 10.25 13.1904 10.25 12.5V11.5C10.25 10.8096 10.8096 10.25 11.5 10.25H12.5ZM12.5 4.25C13.1903 4.25001 13.75 4.80966 13.75 5.5V6.5C13.75 7.19035 13.1904 7.75 12.5 7.75H11.5C10.8096 7.75 10.25 7.19035 10.25 6.5V5.5C10.25 4.80964 10.8096 4.25 11.5 4.25H12.5Z" fill="currentColor"/></svg>
