<svg xmlns="http://www.w3.org/2000/svg" fill="none" viewBox="0 0 48 48">
  <g>
    <path fill="currentColor" fill-opacity="0.4" fill-rule="evenodd" d="m42 8.5 1.5 0.00006L43.5 26c0 5.9026 -0.2062 10.1684 -0.4186 12.9974 -0.2476 3.2963 -2.7877 5.8364 -6.084 6.084 -2.829 0.2124 -7.0948 0.4186 -12.9974 0.4186 -5.9026 0 -10.1684 -0.2062 -12.9974 -0.4186 -3.29632 -0.2476 -5.83643 -2.7877 -6.08398 -6.084C4.70616 36.1684 4.5 31.9026 4.5 26l0 -17.499L6 8.5l-1.5 0c0 -0.78014 0.598 -1.43003 1.37544 -1.49482L6 8.5l-0.12456 -1.49482 0.00206 -0.00017 0.00426 -0.00036 0.01512 -0.00122 0.0566 -0.00449c0.04946 -0.00386 0.12235 -0.00943 0.21869 -0.01646 0.19266 -0.01405 0.47909 -0.03393 0.85927 -0.05769 0.76035 -0.04752 1.89573 -0.11056 3.40616 -0.17349C13.4583 6.62543 17.9792 6.5 24 6.5s10.5417 0.12543 13.5624 0.2513c1.5104 0.06293 2.6458 0.12597 3.4062 0.17349 0.3801 0.02376 0.6666 0.04364 0.8592 0.05769 0.0964 0.00703 0.1693 0.01259 0.2187 0.01646l0.0566 0.00449 0.0151 0.00122 0.0043 0.00035 0.0013 0.00011S42.1246 7.00518 42 8.5Zm0 0 0.1238 -1.49489c0.7774 0.06479 1.3762 0.71481 1.3762 1.49495L42 8.5Z" clip-rule="evenodd" stroke-width="3.429"></path>
    <path fill="currentColor" fill-rule="evenodd" d="M6.07957 3.33386C9.23994 2.94402 14.8469 2.5 24.0008 2.5c9.1537 0 14.76 0.44398 17.92 0.83382 2.6739 0.32987 4.8437 2.28916 5.3017 5.00655 0.1544 0.91583 0.2775 1.94803 0.2775 2.93233 0 2.3329 -1.8884 4.2273 -4.2248 4.2273H4.72484C2.38843 15.5 0.5 13.6056 0.5 11.2727c0 -0.9842 0.123085 -2.01625 0.277428 -2.93198C1.23547 5.62309 3.40549 3.66371 6.07957 3.33386Z" clip-rule="evenodd" stroke-width="3.429"></path>
    <path fill="currentColor" fill-rule="evenodd" d="M16.7441 30.9565c-0.9715 -1.2406 -0.2956 -2.7256 1.2774 -2.8178 0.7033 -0.0413 1.5575 -0.078 2.5902 -0.1039 0.0732 -1.8307 0.168 -3.6695 0.2369 -4.9281 0.0536 -0.9802 0.6854 -1.8382 1.6553 -1.9892 0.437 -0.068 0.945 -0.1176 1.497 -0.1176 0.5521 0 1.0605 0.0496 1.498 0.1177 0.9712 0.151 1.6039 1.0101 1.6572 1.9915 0.0683 1.2585 0.1623 3.0962 0.2348 4.9258 1.032 0.0258 1.8856 0.0625 2.5885 0.1037 1.5733 0.0922 2.2492 1.5777 1.2776 2.8185 -0.5868 0.7494 -1.3539 1.679 -2.347 2.8036 -1.539 1.7428 -2.7162 2.7831 -3.5315 3.3961 -0.8406 0.6321 -1.9146 0.632 -2.7551 -0.0001 -0.8153 -0.6131 -1.9924 -1.6534 -3.5316 -3.396 -0.9935 -1.1249 -1.7608 -2.0547 -2.3477 -2.8042Z" clip-rule="evenodd" stroke-width="3.429"></path>
  </g>
</svg>
