<svg xmlns="http://www.w3.org/2000/svg" fill="none" viewBox="0 0 48 48">
  <path stroke="currentColor" stroke-linecap="round" stroke-linejoin="round" d="M6 15v11c0 5.8678 0.20494 10.096 0.4144 12.885 0.192 2.5566 2.14404 4.5086 4.7006 4.7006C13.904 43.7951 18.1322 44 24 44s10.096 -0.2049 12.885 -0.4144c2.5566 -0.192 4.5086 -2.144 4.7006 -4.7006C41.795 36.096 42 31.8678 42 26V15H6Z" stroke-width="1"></path>
  <path stroke="currentColor" stroke-linecap="round" stroke-linejoin="round" d="M2.30572 8.73917c0.33377 -2.03554 1.90509 -3.55553 3.94904 -3.83319C9.33921 4.48697 14.8849 4 24.0008 4c9.1157 0 14.6608 0.48694 17.7448 0.90594 2.0438 0.27767 3.6149 1.79753 3.9486 3.83288C45.865 9.78033 46 10.9391 46 12c0 1.6569 -1.3384 3 -2.9953 3l-19.0039 0 -19.0055 0C3.33844 15 2 13.6569 2 12c0 -1.0608 0.13496 -2.21941 0.30572 -3.26083Z" stroke-width="1"></path>
  <path stroke="currentColor" stroke-linejoin="round" d="M31.7263 31.2991c0.6706 -1.0183 0.039 -2.1819 -1.1766 -2.2775 -0.7946 -0.0626 -1.813 -0.123 -3.082 -0.1642 -0.0616 -2.585 -0.1683 -4.6773 -0.2545 -6.0674 -0.0718 -1.1592 -0.8451 -2.138 -2.0023 -2.2383 -0.3555 -0.0308 -0.7601 -0.0507 -1.2124 -0.0507 -0.4523 0 -0.8569 0.0199 -1.2124 0.0507 -1.1571 0.1003 -1.9305 1.0791 -2.0023 2.2383 -0.0862 1.3901 -0.1929 3.4823 -0.2544 6.0673 -1.2697 0.0412 -2.2887 0.1017 -3.0837 0.1642 -1.2158 0.0956 -1.8475 1.2596 -1.1767 2.278 0.5603 0.8507 1.3809 1.9697 2.5664 3.3554 1.3479 1.5755 2.5107 2.5972 3.3895 3.2473 1.0767 0.7963 2.4682 0.7962 3.5448 -0.0002 0.8788 -0.65 2.0416 -1.6717 3.3896 -3.2471 1.186 -1.386 2.0067 -2.5051 2.567 -3.3558Z" stroke-width="1"></path>
</svg>
