<svg xmlns="http://www.w3.org/2000/svg" fill="none" viewBox="0 0 48 48">
  <g>
    <path fill="currentColor" fill-rule="evenodd" d="M6.05284 3.41963C9.21878 2.98955 14.8338 2.5 24.0008 2.5c9.1667 0 14.7812 0.48952 17.9467 0.91959 2.6929 0.36585 4.7859 2.38688 5.2269 5.0765C47.3519 9.57795 47.5 10.8255 47.5 12c0 2.1409 -1.4929 3.9363 -3.5 4.3896V26c0 5.9142 -0.2066 10.1925 -0.42 13.0348 -0.2661 3.543 -3.0022 6.2791 -6.5452 6.5452 -2.8423 0.2134 -7.1206 0.42 -13.0348 0.42s-10.1925 -0.2066 -13.0348 -0.42c-3.54298 -0.2661 -6.2791 -3.0022 -6.54518 -6.5452C4.20656 36.1925 4 31.9142 4 26v-9.6104C1.99292 15.9363 0.5 14.1409 0.5 12c0 -1.1744 0.148111 -2.42177 0.325488 -3.50354 0.441052 -2.68987 2.534362 -4.711 5.227352 -5.07683M8 26v-9h32v9c0 5.8213 -0.2033 9.9994 -0.4088 12.7353 -0.1179 1.5701 -1.2859 2.738 -2.8559 2.8559C33.9994 41.7967 29.8213 42 24 42s-9.9994 -0.2033 -12.7353 -0.4088c-1.57005 -0.1179 -2.738 -1.2858 -2.85591 -2.8559C8.20333 35.9994 8 31.8213 8 26m22.5497 3.0216c1.2156 0.0956 1.8472 1.2592 1.1766 2.2775 -0.5603 0.8507 -1.381 1.9698 -2.567 3.3558 -1.348 1.5754 -2.5108 2.5971 -3.3896 3.2471 -1.0766 0.7964 -2.4681 0.7965 -3.5448 0.0002 -0.8788 -0.6501 -2.0416 -1.6718 -3.3895 -3.2473 -1.1855 -1.3857 -2.0061 -2.5047 -2.5664 -3.3554 -0.6708 -1.0184 -0.0391 -2.1824 1.1767 -2.278 0.795 -0.0625 1.814 -0.123 3.0837 -0.1642 0.0615 -2.585 0.1682 -4.6772 0.2544 -6.0673 0.0718 -1.1592 0.8452 -2.138 2.0023 -2.2383 0.3555 -0.0308 0.7601 -0.0507 1.2124 -0.0507s0.8569 0.0199 1.2124 0.0507c1.1572 0.1003 1.9305 1.0791 2.0023 2.2383 0.0862 1.3901 0.1929 3.4824 0.2545 6.0674 1.269 0.0412 2.2874 0.1016 3.082 0.1642" clip-rule="evenodd" stroke-width="3.429"></path>
  </g>
</svg>
