<svg xmlns="http://www.w3.org/2000/svg" fill="none" viewBox="0 0 48 48">
  <g>
    <path fill="currentColor" fill-rule="evenodd" d="M6.08597 3.25078C9.23697 2.90041 14.8402 2.5 24.0008 2.5c9.1603 0 14.7629 0.40038 17.9136 0.75074 2.6371 0.29326 4.889 2.17223 5.3593 4.91545 0.1285 0.74996 0.2263 1.57794 0.2263 2.37931 0 2.1797 -1.761 3.9545 -3.9492 3.9545l-0.0508 0h-39l-0.05077 0C2.26095 14.5 0.5 12.7252 0.5 10.5455c0 -0.80126 0.097757 -1.62912 0.22629 -2.37899 0.47025 -2.74344 2.72238 -4.62248 5.35968 -4.91573ZM43.5 26c0 5.9026 -0.2062 10.1684 -0.4186 12.9974 -0.2476 3.2963 -2.7877 5.8364 -6.084 6.084 -2.829 0.2124 -7.0948 0.4186 -12.9974 0.4186 -5.9026 0 -10.1684 -0.2062 -12.9974 -0.4186 -3.29632 -0.2476 -5.83643 -2.7877 -6.08398 -6.084C4.70616 36.1684 4.5 31.9026 4.5 26v-8.5h39V26Zm-26.7559 5.9565c-0.9715 -1.2406 -0.2956 -2.7256 1.2774 -2.8178 0.7033 -0.0413 1.5575 -0.078 2.5902 -0.1038 0.0732 -1.8308 0.168 -3.6696 0.2369 -4.9282 0.0536 -0.9802 0.6854 -1.8382 1.6553 -1.9892 0.437 -0.068 0.945 -0.1176 1.497 -0.1176 0.5521 0 1.0605 0.0496 1.498 0.1177 0.9712 0.151 1.6039 1.0101 1.6572 1.9915 0.0683 1.2585 0.1623 3.0962 0.2348 4.9258 1.032 0.0258 1.8856 0.0625 2.5885 0.1037 1.5733 0.0922 2.2492 1.5777 1.2776 2.8185 -0.5868 0.7494 -1.3539 1.679 -2.347 2.8036 -1.539 1.7428 -2.7162 2.7831 -3.5315 3.3961 -0.8406 0.6321 -1.9146 0.632 -2.7551 -0.0001 -0.8153 -0.6131 -1.9924 -1.6533 -3.5316 -3.396 -0.9935 -1.1249 -1.7608 -2.0547 -2.3477 -2.8042Z" clip-rule="evenodd" stroke-width="3.429"></path>
  </g>
</svg>
