<svg xmlns="http://www.w3.org/2000/svg" viewBox="0 0 24 24" fill="none"><path d="M12.1249 18.0802C12.7411 18.1422 13.2224 18.6585 13.2224 19.2868C13.2224 19.9567 12.6753 20.4998 12.0008 20.5C11.3684 20.5 10.8476 20.0227 10.785 19.411L10.7792 19.2868L10.785 19.1626C10.8476 18.5509 11.3684 18.0736 12.0008 18.0736L12.1249 18.0802Z" fill="currentColor"/><path opacity="0.4" d="M11.9998 13.7047C13.5346 13.7047 15.0084 14.303 16.1045 15.37C16.4897 15.7453 16.4956 16.3598 16.1179 16.7425C15.7401 17.125 15.1213 17.1309 14.736 16.7558C14.0053 16.0445 13.0229 15.6458 11.9998 15.6458C10.9767 15.6458 9.99429 16.0445 9.26359 16.7558C8.87822 17.1309 8.25949 17.125 7.88165 16.7425C7.50392 16.3598 7.50982 15.7453 7.89502 15.37C8.9911 14.303 10.4649 13.7047 11.9998 13.7047ZM11.9998 8.85267C12.5395 8.85267 12.977 9.28725 12.9771 9.82325C12.9771 10.3593 12.5395 10.7938 11.9998 10.7938C9.69753 10.7938 7.48725 11.6909 5.84311 13.2914C5.45769 13.6665 4.83897 13.6599 4.46118 13.2772C4.0834 12.8944 4.0892 12.2799 4.47454 11.9047C6.48404 9.94849 9.18592 8.85267 11.9998 8.85267ZM11.9998 3.99973C12.5395 3.99973 12.9771 4.43427 12.9771 4.97031C12.9771 5.50635 12.5395 5.9409 11.9998 5.9409C8.63434 5.9409 5.38728 7.1732 2.87883 9.40147C2.47658 9.75877 1.85864 9.72411 1.49881 9.32469C1.13903 8.92519 1.17299 8.31149 1.57516 7.95411C4.44196 5.40752 8.15356 3.99973 11.9998 3.99973Z" fill="currentColor"/><path d="M21.4611 4.05116C21.9725 3.87994 22.5264 4.15274 22.6989 4.66062C22.8713 5.1685 22.5966 5.71866 22.0852 5.88997C21.6522 6.03507 21.1565 6.34999 20.6317 6.80274C20.1154 7.24822 19.6188 7.78599 19.1801 8.31644C18.7432 8.84475 18.3759 9.35171 18.1179 9.72682C17.9894 9.91362 17.8888 10.0664 17.8211 10.1714C17.7873 10.2238 17.7614 10.2642 17.7447 10.2908C17.7364 10.3041 17.7304 10.3141 17.7266 10.3202C17.7247 10.3232 17.7235 10.3256 17.7228 10.3268L17.7218 10.3278C17.521 10.6558 17.1442 10.835 16.7608 10.7856C16.3772 10.736 16.0592 10.4668 15.9496 10.0984C15.6917 9.23165 14.9933 8.92795 14.6173 8.80078C14.1063 8.62798 13.8334 8.07696 14.0074 7.56954C14.1814 7.06212 14.7362 6.79106 15.2471 6.96387C15.5921 7.08055 16.3196 7.36406 16.9431 8.01597C17.1554 7.72823 17.3995 7.41056 17.6693 7.08424C18.1503 6.50269 18.7239 5.87755 19.35 5.33738C19.9677 4.80442 20.6869 4.31048 21.4611 4.05116Z" fill="currentColor"/></svg>
