<svg xmlns="http://www.w3.org/2000/svg" viewBox="0 0 24 24" fill="none"><path d="M12.1247 18.08C12.7409 18.1419 13.2223 18.6587 13.2223 19.287C13.2223 19.9569 12.6751 20.4997 12.0007 20.4999C11.3682 20.4998 10.8474 20.0227 10.7848 19.411L10.779 19.287L10.7848 19.163C10.8474 18.5513 11.3682 18.0742 12.0007 18.0741L12.1247 18.08ZM11.9997 13.705C13.5345 13.705 15.0081 14.3039 16.1042 15.371C16.4893 15.7462 16.4956 16.3603 16.1178 16.743C15.7401 17.1254 15.1214 17.1316 14.736 16.7567C14.0053 16.0455 13.0228 15.6464 11.9997 15.6464C10.9766 15.6464 9.99402 16.0455 9.26335 16.7567C8.87796 17.1315 8.25923 17.1255 7.88151 16.743C7.50388 16.3604 7.51017 15.7462 7.89518 15.371C8.99124 14.304 10.4649 13.705 11.9997 13.705ZM11.9997 8.85339C12.5394 8.85339 12.9772 9.28809 12.9772 9.8241C12.977 10.36 12.5393 10.7948 11.9997 10.7948C9.69754 10.7948 7.48751 11.6914 5.84343 13.2919C5.458 13.667 4.83938 13.6599 4.46159 13.2772C4.08388 12.8945 4.08908 12.2804 4.47428 11.9052C6.48375 9.94896 9.18586 8.85343 11.9997 8.85339ZM21.4606 4.05164C21.972 3.88042 22.5264 4.15314 22.6989 4.66101C22.8711 5.16872 22.5967 5.7191 22.0856 5.8905C21.6526 6.0356 21.1562 6.3499 20.6315 6.80261C20.1153 7.248 19.619 7.78595 19.1803 8.31628C18.7434 8.8446 18.3759 9.3523 18.1178 9.72742C17.9894 9.91409 17.8886 10.0668 17.821 10.1718C17.7873 10.224 17.7614 10.2644 17.7448 10.2909C17.7365 10.3042 17.73 10.3141 17.7262 10.3202C17.7244 10.3232 17.7231 10.3258 17.7223 10.327L17.7214 10.328C17.5205 10.6559 17.1437 10.8355 16.7604 10.786C16.377 10.7364 16.0595 10.4668 15.9499 10.0985C15.692 9.23178 14.9929 8.92783 14.6169 8.80066C14.1063 8.62776 13.8338 8.07739 14.0075 7.57019C14.1814 7.06289 14.7359 6.79119 15.2467 6.96375C15.5917 7.08043 16.3196 7.36457 16.943 8.01648C17.1553 7.72877 17.3997 7.41113 17.6696 7.08484C18.1506 6.50328 18.7242 5.87794 19.3503 5.33777C19.9679 4.80494 20.6867 4.31099 21.4606 4.05164ZM11.9997 3.99988C12.5393 3.99988 12.9771 4.43463 12.9772 4.97058C12.9772 5.50662 12.5394 5.94128 11.9997 5.94128C8.63428 5.94132 5.387 7.17398 2.87858 9.40222C2.47632 9.75924 1.85844 9.7244 1.4987 9.32507C1.13914 8.92569 1.17308 8.31235 1.57487 7.95496C4.44164 5.40839 8.15351 3.99991 11.9997 3.99988Z" fill="currentColor" fill-rule="evenodd" clip-rule="evenodd"/></svg>
