<svg xmlns="http://www.w3.org/2000/svg" viewBox="0 0 24 24" fill="none"><path d="M10.5 9.625C10.5 10.1773 10.0523 10.625 9.5 10.625L9.49102 10.625C8.93873 10.625 8.49102 10.1773 8.49102 9.625C8.49102 9.07271 8.93873 8.625 9.49102 8.625L9.5 8.625C10.0523 8.625 10.5 9.07272 10.5 9.625Z" fill="currentColor" fill-rule="evenodd" clip-rule="evenodd"/><path d="M22.4106 6.03717C22.9143 5.81053 23.1388 5.21852 22.9122 4.71488C22.6855 4.21124 22.0935 3.98669 21.5899 4.21333L13.7934 7.72173C14.3196 8.18175 14.7015 8.77536 14.7457 9.48637L22.4106 6.03717Z" fill="currentColor"/><path d="M4.25 12.0163V14.2094L2.41061 15.0372C1.90697 15.2638 1.31496 15.0393 1.08833 14.5356C0.861687 14.032 1.08624 13.44 1.58988 13.2133L4.25 12.0163Z" fill="currentColor"/><path opacity="0.4" d="M14.75 16.7725C14.7498 17.8416 13.9351 18.627 13.0293 19.1006C12.0875 19.593 10.8385 19.875 9.5 19.875C8.16148 19.875 6.91247 19.593 5.9707 19.1006C5.5347 18.8726 5.12068 18.5714 4.80762 18.2021L14.75 14.7227V16.7725ZM9.5 6.375C10.8454 6.375 12.1005 6.67609 13.0459 7.20117C13.9659 7.71228 14.75 8.53859 14.75 9.625V12.6035L4.25 16.2783V9.625C4.25 8.53859 5.03411 7.71228 5.9541 7.20117C6.89946 6.67609 8.15464 6.375 9.5 6.375ZM9.5 7.875C8.36047 7.875 7.36588 8.1332 6.68262 8.5127C5.97393 8.90641 5.75 9.3307 5.75 9.625C5.75 9.9193 5.97393 10.3436 6.68262 10.7373C6.76792 10.7847 6.85844 10.8307 6.95312 10.874C7.6168 11.1776 8.50299 11.375 9.5 11.375C10.6395 11.375 11.6341 11.1168 12.3174 10.7373C13.0261 10.3436 13.25 9.9193 13.25 9.625C13.25 9.3307 13.0261 8.90641 12.3174 8.5127C11.6341 8.1332 10.6395 7.875 9.5 7.875Z" fill="currentColor"/><path d="M22.9441 10.7949C23.1266 11.3162 22.8519 11.8867 22.3306 12.0691L2.33062 19.0691C1.80934 19.2516 1.23886 18.9769 1.05641 18.4556C0.873967 17.9343 1.14864 17.3639 1.66992 17.1814L21.6699 10.1814C22.1912 9.99897 22.7617 10.2736 22.9441 10.7949Z" fill="currentColor" fill-rule="evenodd" clip-rule="evenodd"/></svg>
