<svg xmlns="http://www.w3.org/2000/svg" viewBox="0 0 24 24" fill="none"><path opacity="0.4" d="M4.83983 9.25C6.99354 9.25 8.89915 10.6531 9.49665 12.7072C9.50177 12.7248 9.52397 12.75 9.56383 12.75H14.4371C14.4769 12.75 14.4992 12.7248 14.5043 12.7072C15.1018 10.6531 17.0074 9.25 19.1611 9.25H19.163L20.6384 9.25856C21.3359 9.34001 21.849 9.9819 21.7348 10.6961L19.4924 18.5599L19.4799 18.6037L19.4798 18.6038C19.2393 19.444 19.0406 20.138 18.8124 20.6813C18.5723 21.2533 18.271 21.7319 17.7837 22.0945C17.2977 22.4561 16.7506 22.61 16.1297 22.6816C15.5374 22.75 14.8053 22.75 13.9151 22.75H10.0858C9.19558 22.75 8.46347 22.75 7.8712 22.6816C7.25031 22.61 6.70324 22.4561 6.21718 22.0945C5.72992 21.7319 5.42867 21.2533 5.18851 20.6813C4.96032 20.1379 4.76162 19.4439 4.52103 18.6036L4.52103 18.6036L2.26595 10.6961C2.15166 9.98153 2.66545 9.33996 3.3625 9.25856L4.83983 9.25Z" fill="currentColor"/><path d="M12.2137 1.25C12.6078 1.24996 12.9728 1.24963 13.2704 1.28809C13.5974 1.33042 13.9544 1.43155 14.2518 1.71778C14.5531 2.00783 14.663 2.36237 14.7088 2.69043C14.7512 2.99392 14.7499 3.36704 14.7498 3.75977V6.92383L15.2821 5.95997C15.2891 5.94724 15.2966 5.93453 15.3036 5.92188C15.5046 5.55766 15.6899 5.22185 15.8758 4.96973C16.0795 4.69371 16.3537 4.41894 16.7684 4.30274C17.1863 4.1858 17.562 4.28129 17.8778 4.417C18.1626 4.53944 18.4861 4.73488 18.8329 4.94434C18.9242 4.99949 19.0165 5.05497 19.1082 5.11036C19.477 5.33295 19.8181 5.53883 20.0721 5.74512C20.3541 5.97425 20.6166 6.27125 20.7137 6.70411C20.8102 7.13437 20.7019 7.51598 20.5497 7.84571C20.4111 8.14564 20.1954 8.48627 19.9588 8.8584C19.9509 8.87095 19.9424 8.88387 19.9344 8.89649L19.7069 9.25293L19.1629 9.25H19.161C18.6961 9.25 18.2425 9.31433 17.8114 9.4375L18.6678 8.0918C18.9366 7.6689 19.0971 7.41424 19.1883 7.2168C19.2096 7.17082 19.2584 7.08678 19.2498 7.03223C19.2474 7.0283 19.2171 6.98337 19.1258 6.90918C18.9631 6.77711 18.715 6.62539 18.2938 6.3711L18.0965 6.25098C17.6976 6.0101 17.463 5.87146 17.285 5.79493C17.1714 5.74614 17.1567 5.7603 17.0829 5.86036C16.9629 6.02305 16.825 6.26902 16.5956 6.68458L14.7498 10.0273V12.0498C14.653 12.2603 14.5699 12.4795 14.5038 12.707C14.4987 12.7246 14.477 12.7498 14.4373 12.75H13.2498V3.75977C13.2498 3.3233 13.248 3.07411 13.2235 2.89844C13.2086 2.79166 13.1855 2.79029 13.078 2.77637C12.8884 2.75187 12.6226 2.75001 12.1717 2.75H11.828C11.3771 2.75001 11.1113 2.75189 10.9217 2.77637C10.8141 2.7903 10.7911 2.79164 10.7762 2.89844C10.7517 3.07411 10.7498 3.32329 10.7498 3.75977V12.75H9.56333C9.52369 12.7499 9.50202 12.7246 9.49692 12.707C9.43062 12.4791 9.34692 12.2597 9.24985 12.0488V8.30762L7.52719 4.80079C7.30218 4.34245 7.16538 4.06671 7.04282 3.88379C6.95652 3.75505 6.93634 3.73964 6.79379 3.79981C6.59793 3.88252 6.34116 4.03435 5.91001 4.292L5.6893 4.42383C5.27883 4.66912 5.03672 4.81565 4.8768 4.94336C4.74001 5.05267 4.73714 5.09547 4.80161 5.25782C4.8796 5.4541 5.01926 5.70893 5.25571 6.13282L7.20981 9.63477C7.25894 9.72288 7.28747 9.81679 7.29868 9.91114C6.69438 9.56029 6.01059 9.33646 5.28891 9.27051L3.94614 6.86329C3.93905 6.85059 3.9317 6.83783 3.92465 6.8252C3.71649 6.45212 3.52588 6.11061 3.40708 5.81153C3.27636 5.48234 3.19153 5.10725 3.29868 4.69336C3.40644 4.2773 3.66434 3.99267 3.94126 3.77149C4.19059 3.57236 4.5224 3.37382 4.88168 3.15918C4.98138 3.09963 5.08235 3.03973 5.18149 2.98047C5.55872 2.75498 5.90641 2.54649 6.21079 2.41797C6.54628 2.27638 6.94239 2.18079 7.37778 2.31446C7.81007 2.44731 8.08637 2.74669 8.28891 3.04883C8.4746 3.32595 8.65631 3.69417 8.85434 4.09766C8.86104 4.11131 8.86713 4.12592 8.87387 4.13965L9.24985 4.90528V3.75977C9.24985 3.36703 9.24847 2.99393 9.29086 2.69043C9.33673 2.36236 9.44654 2.00783 9.7479 1.71778C10.0453 1.43156 10.4023 1.33041 10.7293 1.28809C11.0269 1.24965 11.3919 1.24996 11.786 1.25C11.9285 1.25002 12.0719 1.25002 12.2137 1.25Z" fill="currentColor" fill-rule="evenodd" clip-rule="evenodd"/></svg>
