<svg xmlns="http://www.w3.org/2000/svg" viewBox="0 0 24 24" fill="none"><path opacity="0.4" d="M13.7804 2.4044C13.0704 0.864629 10.9298 0.86463 10.2198 2.4044C9.70062 3.5305 9.37375 4.72697 9.22859 5.96397C8.09671 5.19398 6.69879 4.61203 5.27156 4.34483C4.60789 4.22069 3.95671 4.4273 3.53035 4.87901C3.09108 5.34447 2.93411 6.03146 3.2159 6.70225C3.59852 7.61303 4.21234 8.52326 4.85848 9.29307C5.10814 9.5905 5.36824 9.87351 5.62898 10.1329C5.3983 10.2206 5.16822 10.3207 4.94539 10.4288C4.16257 10.8085 3.36276 11.335 2.75691 11.9269C2.26142 12.411 2.13939 13.0641 2.34676 13.6398C2.54401 14.1873 3.01274 14.6069 3.58992 14.7911C4.82242 15.1844 5.89613 15.3398 6.71688 15.3898C6.27677 16.0718 5.97043 16.7784 5.78328 17.4767C5.40655 18.8824 6.70261 20.0778 8.07723 19.6671C9.64992 19.1971 10.9606 18.1672 12.0001 17.1778C13.0395 18.1672 14.3502 19.1971 15.9229 19.6671C17.2975 20.0778 18.5936 18.8824 18.2169 17.4767C18.0297 16.7782 17.7226 16.072 17.2823 15.3898C18.1032 15.3399 19.1772 15.1845 20.4102 14.7911C20.9874 14.6069 21.4561 14.1873 21.6534 13.6398C21.8608 13.0641 21.7387 12.411 21.2432 11.9269C20.6374 11.335 19.8376 10.8085 19.0548 10.4288C18.8317 10.3206 18.6012 10.2207 18.3702 10.1329C18.6311 9.87337 18.8919 9.59069 19.1417 9.29307C19.7878 8.52326 20.4016 7.61303 20.7843 6.70225C21.066 6.03146 20.9091 5.34447 20.4698 4.87901C20.0435 4.4273 19.3923 4.22069 18.7286 4.34483C17.3011 4.61208 15.9026 5.19375 14.7706 5.96397C14.6254 4.72701 14.2995 3.53047 13.7804 2.4044Z" fill="currentColor"/><path d="M12.0002 17.1779C12.309 17.4717 12.6438 17.7666 13.0002 18.0519V21.7491C13.0002 22.3014 12.5524 22.7491 12.0002 22.7491C11.4479 22.7491 11.0002 22.3014 11.0002 21.7491V18.0519C11.3566 17.7666 11.6914 17.4717 12.0002 17.1779Z" fill="currentColor"/></svg>
