<svg xmlns="http://www.w3.org/2000/svg" viewBox="0 0 24 24" fill="none"><path d="M11.0001 21.7496V16.2496C11.0001 15.6973 11.4478 15.2496 12.0001 15.2496C12.5524 15.2496 13.0001 15.6973 13.0001 16.2496V21.7496C13.0001 22.3019 12.5524 22.7496 12.0001 22.7496C11.4478 22.7496 11.0001 22.3019 11.0001 21.7496Z" fill="currentColor"/><path d="M13.7803 2.40489C13.0704 0.865117 10.9298 0.865119 10.2198 2.40489C9.70061 3.53099 9.37374 4.72746 9.22859 5.96446C8.09671 5.19446 6.69879 4.61252 5.27156 4.34532C4.60789 4.22118 3.9567 4.42779 3.53035 4.8795C3.09107 5.34496 2.93411 6.03194 3.21589 6.70274C3.59852 7.61351 4.21233 8.52375 4.85847 9.29356C5.10814 9.59099 5.36824 9.874 5.62898 10.1334C5.39829 10.2211 5.16821 10.3212 4.94539 10.4293C4.16256 10.809 3.36276 11.3355 2.75691 11.9274C2.26142 12.4115 2.13938 13.0646 2.34675 13.6402C2.54401 14.1878 3.01274 14.6074 3.58992 14.7916C4.82242 15.1849 5.89612 15.3403 6.71687 15.3902C6.27677 16.0723 5.97043 16.7789 5.78328 17.4772C5.40655 18.8829 6.70261 20.0783 8.07722 19.6676C9.64992 19.1975 10.9606 18.1677 12.0001 17.1783C13.0395 18.1677 14.3502 19.1975 15.9229 19.6676C17.2975 20.0783 18.5936 18.8829 18.2169 17.4772C18.0297 16.7787 17.7226 16.0724 17.2823 15.3902C18.1032 15.3404 19.1772 15.185 20.4102 14.7916C20.9874 14.6074 21.4561 14.1878 21.6534 13.6402C21.8608 13.0646 21.7387 12.4115 21.2432 11.9274C20.6374 11.3355 19.8376 10.809 19.0548 10.4293C18.8317 10.3211 18.6012 10.2211 18.3702 10.1334C18.6311 9.87386 18.8919 9.59118 19.1417 9.29356C19.7878 8.52375 20.4016 7.61351 20.7843 6.70274C21.066 6.03195 20.9091 5.34496 20.4698 4.8795C20.0434 4.42779 19.3923 4.22118 18.7286 4.34532C17.3011 4.61257 15.9026 5.19424 14.7706 5.96446C14.6254 4.7275 14.2995 3.53096 13.7803 2.40489Z" fill="currentColor"/></svg>
