<svg xmlns="http://www.w3.org/2000/svg" viewBox="0 0 24 24" fill="none"><path opacity="0.4" d="M16.2305 1.34792C15.6076 1.26325 14.8464 1.25158 13.9548 1.25H10.0452C9.1536 1.25158 8.39242 1.26325 7.76946 1.34792C7.00417 1.45194 6.30442 1.68195 5.74096 2.25159C5.1775 2.82122 4.94999 3.52866 4.8471 4.30234C4.74993 5.03303 4.74996 5.95179 4.75 7.0463V16.9532C4.74996 18.0477 4.74993 18.9665 4.8471 19.6972C4.94999 20.4709 5.1775 21.1783 5.74096 21.7479C6.30442 22.3176 7.00417 22.5476 7.76946 22.6516C8.4922 22.7498 9.40098 22.7498 10.4836 22.7498H13.5163C14.5989 22.7498 15.5078 22.7498 16.2305 22.6516C16.9958 22.5476 17.6956 22.3176 18.259 21.7479C18.8225 21.1783 19.05 20.4709 19.1529 19.6972C19.2501 18.9665 19.25 18.0477 19.25 16.9532V7.04634C19.25 5.95182 19.2501 5.03304 19.1529 4.30234C19.05 3.52866 18.8225 2.82123 18.259 2.25159C17.6956 1.68195 16.9958 1.45194 16.2305 1.34792ZM8.02708 3.28394C8.4056 3.23249 8.86924 3.2138 9.47114 3.20703L9.6854 3.64025C9.84915 3.97134 10.1839 4.18047 10.55 4.18047H13.45C13.8162 4.18047 14.1509 3.97134 14.3146 3.64025L14.5289 3.20703C15.1308 3.2138 15.5944 3.23249 15.9729 3.28394C16.5238 3.35882 16.7476 3.4866 16.892 3.63256C17.0364 3.77851 17.1628 4.00473 17.2368 4.56168C17.3146 5.14673 17.3167 5.93294 17.3167 7.11229V16.885C17.3167 17.4596 17.3162 18.5899 17.3067 19H6.69333C6.68384 18.5899 6.68335 17.4596 6.68335 16.885V7.11229C6.68335 5.93294 6.6854 5.14673 6.76321 4.56168C6.83728 4.00473 6.96368 3.77851 7.10805 3.63256C7.25242 3.4866 7.47618 3.35882 8.02708 3.28394Z" fill="currentColor" fill-rule="evenodd" clip-rule="evenodd"/><path d="M11.7061 7.39679C12.0392 6.95632 12.6669 6.86937 13.1074 7.20246C13.5479 7.53556 13.6348 8.16331 13.3018 8.60382L11.4893 10.9993C11.4915 10.9993 11.4939 11.0003 11.4961 11.0003H12.5039C12.91 11.0003 13.3285 10.9977 13.6553 11.0452C13.9528 11.0885 14.4845 11.2142 14.7969 11.72L14.8564 11.8265L14.9062 11.9378C15.1283 12.493 14.9088 12.9962 14.7637 13.261C14.6052 13.5502 14.3516 13.8818 14.1084 14.2034L12.2939 16.6038C11.9608 17.0443 11.3331 17.1312 10.8926 16.7982C10.4521 16.4651 10.3651 15.8373 10.6982 15.3968L12.5098 13.0003H11.4961C11.09 13.0003 10.6715 13.0029 10.3447 12.9554C10.0273 12.9092 9.44351 12.7692 9.14355 12.1741C8.84188 11.5756 9.0816 11.022 9.23633 10.7396C9.3948 10.4504 9.64838 10.1188 9.8916 9.79718L11.7061 7.39679Z" fill="currentColor"/></svg>
