<svg xmlns="http://www.w3.org/2000/svg" viewBox="0 0 24 24" fill="none"><path d="M16.2301 1.34792C15.6071 1.26325 14.8459 1.25158 13.9543 1.25H10.0447C9.15311 1.25158 8.39193 1.26325 7.76897 1.34792C7.00368 1.45194 6.30393 1.68195 5.74047 2.25159C5.17702 2.82122 4.9495 3.52866 4.84661 4.30234C4.74944 5.03303 4.74947 5.95179 4.74951 7.0463V16.9532C4.74947 18.0477 4.74944 18.9665 4.84661 19.6972C4.9495 20.4709 5.17702 21.1783 5.74047 21.7479C6.30393 22.3176 7.00368 22.5476 7.76897 22.6516C8.49172 22.7498 9.4005 22.7498 10.4831 22.7498H13.5158C14.5984 22.7498 15.5073 22.7498 16.2301 22.6516C16.9953 22.5476 17.6951 22.3176 18.2586 21.7479C18.822 21.1783 19.0495 20.4709 19.1524 19.6972C19.2496 18.9665 19.2496 18.0477 19.2495 16.9532V7.04634C19.2496 5.95182 19.2496 5.03304 19.1524 4.30234C19.0495 3.52866 18.822 2.82123 18.2586 2.25159C17.6951 1.68195 16.9953 1.45194 16.2301 1.34792ZM8.02659 3.28394C8.40511 3.23249 8.86875 3.2138 9.47066 3.20703L9.68492 3.64025C9.84866 3.97134 10.1834 4.18047 10.5495 4.18047H13.4495C13.8157 4.18047 14.1504 3.97134 14.3141 3.64025L14.5284 3.20703C15.1303 3.2138 15.5939 3.23249 15.9725 3.28394C16.5234 3.35882 16.7471 3.4866 16.8915 3.63256C17.0359 3.77851 17.1623 4.00473 17.2363 4.56168C17.3141 5.14673 17.3162 5.93294 17.3162 7.11229V16.885C17.3162 17.4596 17.3157 18.5899 17.3062 19H6.69285C6.68335 18.5899 6.68286 17.4596 6.68286 16.885V7.11229C6.68286 5.93294 6.68492 5.14673 6.76272 4.56168C6.83679 4.00473 6.96319 3.77851 7.10756 3.63256C7.25193 3.4866 7.4757 3.35882 8.02659 3.28394Z" fill="currentColor" fill-rule="evenodd" clip-rule="evenodd"/><path d="M11.7056 7.39679C12.0387 6.95632 12.6664 6.86937 13.1069 7.20246C13.5474 7.53556 13.6344 8.16331 13.3013 8.60382L11.4888 10.9993C11.491 10.9993 11.4934 11.0003 11.4956 11.0003H12.5034C12.9095 11.0003 13.328 10.9977 13.6548 11.0452C13.9523 11.0885 14.484 11.2142 14.7964 11.72L14.856 11.8265L14.9058 11.9378C15.1278 12.493 14.9083 12.9962 14.7632 13.261C14.6047 13.5502 14.3511 13.8818 14.1079 14.2034L12.2935 16.6038C11.9603 17.0443 11.3326 17.1312 10.8921 16.7982C10.4516 16.4651 10.3647 15.8373 10.6978 15.3968L12.5093 13.0003H11.4956C11.0895 13.0003 10.671 13.0029 10.3442 12.9554C10.0268 12.9092 9.44302 12.7692 9.14306 12.1741C8.84139 11.5756 9.08112 11.022 9.23584 10.7396C9.39431 10.4504 9.64789 10.1188 9.89111 9.79718L11.7056 7.39679Z" fill="currentColor"/></svg>
