<svg xmlns="http://www.w3.org/2000/svg" viewBox="0 0 24 24" fill="none"><path opacity="0.4" d="M12 22.75C17.9371 22.75 22.75 17.9371 22.75 12C22.75 6.06294 17.9371 1.25 12 1.25C6.06294 1.25 1.25 6.06294 1.25 12C1.25 17.9371 6.06294 22.75 12 22.75Z" fill="currentColor"/><path d="M11 13.5C11 12.7754 11.322 12.1896 11.6807 11.7578C12.0355 11.3308 12.4769 10.9917 12.8467 10.7383C13.2432 10.4663 13.5 10.013 13.5 9.5C13.5 8.67158 12.8284 8 12 8C11.1716 8 10.5 8.67158 10.5 9.5C10.5 10.0523 10.0523 10.5 9.5 10.5C8.94772 10.5 8.5 10.0523 8.5 9.5C8.5 7.567 10.067 6 12 6C13.933 6 15.5 7.567 15.5 9.5C15.5 10.7006 14.8942 11.7598 13.9766 12.3887C13.6632 12.6035 13.3989 12.8193 13.2188 13.0361C13.0426 13.2483 13 13.3962 13 13.5C13 14.0523 12.5523 14.5 12 14.5C11.4477 14.5 11 14.0523 11 13.5Z" fill="currentColor"/><path d="M12 15.75C12.5523 15.75 13 16.1977 13 16.75C13 17.3023 12.5523 17.75 12 17.75C11.4477 17.75 11 17.3023 11 16.75C11 16.1977 11.4477 15.75 12 15.75Z" fill="currentColor"/></svg>
