<svg xmlns="http://www.w3.org/2000/svg" viewBox="0 0 24 24" fill="none"><path d="M12 1.25C17.9371 1.25 22.75 6.06294 22.75 12C22.75 17.9371 17.9371 22.75 12 22.75C6.06294 22.75 1.25 17.9371 1.25 12C1.25 6.06294 6.06294 1.25 12 1.25ZM12 15.75C11.4477 15.75 11 16.1977 11 16.75C11 17.3023 11.4477 17.75 12 17.75C12.5523 17.75 13 17.3023 13 16.75C13 16.1977 12.5523 15.75 12 15.75ZM12 6C10.067 6 8.5 7.567 8.5 9.5C8.5 10.0523 8.94772 10.5 9.5 10.5C10.0523 10.5 10.5 10.0523 10.5 9.5C10.5 8.67158 11.1716 8 12 8C12.8284 8 13.5 8.67158 13.5 9.5C13.5 10.013 13.2432 10.4663 12.8467 10.7383C12.4769 10.9917 12.0355 11.3308 11.6807 11.7578C11.322 12.1896 11 12.7754 11 13.5C11 14.0523 11.4477 14.5 12 14.5C12.5523 14.5 13 14.0523 13 13.5C13 13.3962 13.0426 13.2483 13.2188 13.0361C13.3989 12.8193 13.6632 12.6035 13.9766 12.3887C14.8942 11.7598 15.5 10.7006 15.5 9.5C15.5 7.567 13.933 6 12 6Z" fill="currentColor"/></svg>
