<svg xmlns="http://www.w3.org/2000/svg" viewBox="0 0 24 24" fill="none"><path opacity="0.4" d="M20.7295 21.2726C20.7524 21.1243 20.75 20.9149 20.75 20.6984V3.66717C20.75 3.39377 20.7499 3.16428 20.7422 2.98455C20.7351 2.81755 20.7196 2.61245 20.6533 2.42205C20.3301 1.49343 19.3133 1.03145 18.4141 1.35076L18.2363 1.42498C18.0556 1.51224 17.8996 1.64587 17.7754 1.75896C17.642 1.88048 17.4783 2.04216 17.2832 2.23553C17.1956 2.32241 17.1438 2.37324 17.1035 2.41033C17.0814 2.43074 17.07 2.44094 17.0654 2.44451C16.9898 2.49361 16.8919 2.49904 16.8106 2.45818C16.8058 2.45527 16.7932 2.44697 16.7686 2.42889C16.7244 2.39642 16.667 2.35127 16.5703 2.27459L16.3984 2.13787C15.9763 1.80303 15.6178 1.50512 15.2022 1.36932C14.746 1.22031 14.254 1.22031 13.7979 1.36932C13.3823 1.50512 13.0237 1.80303 12.6016 2.13787L12.5342 2.19158C12.3472 2.33991 12.2375 2.42596 12.1514 2.48455C12.1014 2.51853 12.0768 2.53162 12.0684 2.53533C12.0238 2.54752 11.9762 2.54752 11.9317 2.53533C11.9232 2.53162 11.8986 2.51853 11.8486 2.48455C11.7625 2.42596 11.6528 2.33991 11.4658 2.19158L11.3984 2.13787C10.9763 1.80303 10.6178 1.50512 10.2022 1.36932C9.74598 1.22031 9.25404 1.22031 8.79786 1.36932C8.38225 1.50512 8.02375 1.80303 7.60157 2.13787L7.4297 2.27459C7.33302 2.35127 7.27562 2.39642 7.23146 2.42889C7.20684 2.44697 7.19419 2.45527 7.18947 2.45818C7.1081 2.49904 7.01026 2.49361 6.93458 2.44451C6.93003 2.44094 6.91865 2.43074 6.8965 2.41033C6.85623 2.37324 6.80445 2.32241 6.71681 2.23553C6.52177 2.04216 6.35803 1.88048 6.22462 1.75896C6.10044 1.64587 5.94446 1.51224 5.76368 1.42498C4.88384 1.00039 3.83207 1.37756 3.41993 2.24236L3.34669 2.42205C3.28042 2.61245 3.26497 2.81755 3.25782 2.98455C3.25014 3.16428 3.25001 3.39377 3.25001 3.66717V20.6984C3.25001 20.9149 3.2476 21.1243 3.27052 21.2726C3.4717 22.5716 4.98082 23.1789 6.03322 22.4133C6.15429 22.3251 6.30128 22.1761 6.45607 22.0226C6.58298 21.8968 6.61045 21.8704 6.63087 21.8537L6.73048 21.7844C6.97407 21.6432 7.28323 21.6474 7.5254 21.8049C7.54764 21.8193 7.57828 21.8427 7.71779 21.9533L7.8545 22.0617C8.0614 22.2258 8.23686 22.3686 8.42384 22.4699C9.09469 22.8331 9.90533 22.8331 10.5762 22.4699C10.7632 22.3686 10.9386 22.2258 11.1455 22.0617L11.2158 22.006C11.5429 21.7466 11.614 21.6958 11.6719 21.6681C11.8789 21.5692 12.1211 21.5692 12.3281 21.6681C12.3861 21.6958 12.4571 21.7466 12.7842 22.006L12.8545 22.0617C13.0614 22.2258 13.2369 22.3686 13.4238 22.4699C14.0947 22.8331 14.9053 22.8331 15.5762 22.4699C15.7632 22.3686 15.9386 22.2258 16.1455 22.0617L16.2822 21.9533C16.4217 21.8427 16.4524 21.8193 16.4746 21.8049C16.7513 21.625 17.1151 21.6454 17.3692 21.8537L17.544 22.0226C17.6987 22.1761 17.8457 22.3251 17.9668 22.4133C19.0192 23.1789 20.5283 22.5716 20.7295 21.2726Z" fill="currentColor"/><path d="M9.70705 15.7071C9.31652 16.0976 8.68351 16.0976 8.29298 15.7071C7.90246 15.3166 7.90246 14.6836 8.29298 14.293L14.293 8.29304C14.6835 7.90252 15.3165 7.90252 15.707 8.29304C16.0976 8.68357 16.0976 9.31658 15.707 9.70711L9.70705 15.7071Z" fill="currentColor"/><path d="M8.99994 8C9.55222 8 9.99994 8.44772 9.99994 9C9.99994 9.55229 9.55222 10 8.99994 10C8.44765 10 7.99994 9.55228 7.99994 9C7.99994 8.44772 8.44765 8 8.99994 8Z" fill="currentColor"/><path d="M14.9999 14C15.5522 14 15.9999 14.4477 15.9999 15C15.9999 15.5523 15.5522 16 14.9999 16C14.4477 16 13.9999 15.5523 13.9999 15C13.9999 14.4477 14.4477 14 14.9999 14Z" fill="currentColor"/></svg>
