<svg xmlns="http://www.w3.org/2000/svg" viewBox="0 0 24 24" fill="none"><path d="M3.41993 2.24244C3.83209 1.37776 4.8839 1.00059 5.76368 1.42506C5.9444 1.5123 6.10046 1.64597 6.22462 1.75905C6.358 1.88053 6.52182 2.0423 6.71681 2.23561C6.80435 2.3224 6.85625 2.37333 6.89649 2.41041C6.91844 2.43063 6.92995 2.44094 6.93458 2.44459C7.01026 2.49369 7.1081 2.49912 7.18946 2.45826C7.19421 2.45534 7.20688 2.44702 7.23146 2.42897C7.27561 2.3965 7.33304 2.35133 7.4297 2.27467L7.60157 2.13795C8.02372 1.80313 8.38227 1.5052 8.79786 1.3694C9.254 1.2204 9.74601 1.22043 10.2022 1.3694C10.6177 1.50519 10.9763 1.80315 11.3984 2.13795L11.4658 2.19166C11.6528 2.33992 11.7626 2.42604 11.8486 2.48463C11.8983 2.51844 11.9231 2.53163 11.9317 2.53541C11.9762 2.5476 12.0238 2.5476 12.0684 2.53541C12.0768 2.5317 12.1014 2.51861 12.1514 2.48463C12.2375 2.42604 12.3472 2.33998 12.5342 2.19166L12.6016 2.13795C13.0237 1.80313 13.3823 1.5052 13.7979 1.3694C14.254 1.2204 14.746 1.22043 15.2022 1.3694C15.6177 1.50519 15.9763 1.80315 16.3984 2.13795L16.5703 2.27467C16.6669 2.35128 16.7244 2.39651 16.7686 2.42897C16.793 2.44689 16.8057 2.45528 16.8106 2.45826C16.8919 2.49912 16.9898 2.49369 17.0654 2.44459C17.07 2.441 17.0814 2.43077 17.1035 2.41041C17.1438 2.37332 17.1956 2.32246 17.2832 2.23561C17.4782 2.04226 17.642 1.88055 17.7754 1.75905C17.8996 1.64596 18.0556 1.51232 18.2363 1.42506L18.4141 1.35084C19.3133 1.03155 20.33 1.49363 20.6533 2.42213C20.7196 2.61247 20.7351 2.81766 20.7422 2.98463C20.7499 3.16432 20.75 3.39393 20.75 3.66725V20.6985C20.75 20.9149 20.7524 21.1244 20.7295 21.2727C20.5283 22.5716 19.0192 23.1789 17.9668 22.4133C17.8458 22.3252 17.6987 22.1761 17.544 22.0227L17.3692 21.8538C17.1151 21.6456 16.7512 21.6252 16.4746 21.8049C16.4524 21.8194 16.4217 21.8428 16.2822 21.9534L16.1455 22.0618C15.9386 22.2259 15.7631 22.3687 15.5762 22.47C14.9053 22.8332 14.0947 22.8332 13.4238 22.47C13.2369 22.3687 13.0614 22.2259 12.8545 22.0618L12.7842 22.0061C12.4572 21.7468 12.3861 21.6959 12.3281 21.6682C12.1211 21.5693 11.8789 21.5693 11.6719 21.6682C11.614 21.6959 11.5429 21.7467 11.2158 22.0061L11.1455 22.0618C10.9386 22.2259 10.7632 22.3687 10.5762 22.47C9.90533 22.8332 9.09469 22.8332 8.42384 22.47C8.23691 22.3687 8.06135 22.2258 7.8545 22.0618L7.71778 21.9534C7.57839 21.8428 7.54763 21.8194 7.5254 21.8049C7.28325 21.6476 6.97402 21.6433 6.73048 21.7844L6.63087 21.8538C6.61045 21.8705 6.58294 21.8969 6.45606 22.0227C6.30129 22.1762 6.15428 22.3252 6.03321 22.4133C4.98082 23.1789 3.4717 22.5716 3.27052 21.2727C3.24763 21.1244 3.25001 20.9149 3.25001 20.6985V3.66725C3.25001 3.39393 3.25014 3.16432 3.25782 2.98463C3.26497 2.81766 3.28044 2.61247 3.34669 2.42213L3.41993 2.24244ZM15.707 8.29323C15.3165 7.90278 14.6835 7.90273 14.293 8.29323L8.29298 14.2932C7.90248 14.6837 7.90253 15.3168 8.29298 15.7073C8.6835 16.0978 9.31652 16.0978 9.70704 15.7073L15.707 9.70729C16.0976 9.31676 16.0976 8.68375 15.707 8.29323ZM15 14.0003C14.4477 14.0003 14 14.448 14 15.0003C14 15.5525 14.4477 16.0003 15 16.0003C15.5523 16.0003 16 15.5525 16 15.0003C16 14.448 15.5523 14.0003 15 14.0003ZM9.00001 8.00026C8.44772 8.00026 8.00001 8.44798 8.00001 9.00026C8.00001 9.55254 8.44773 10.0003 9.00001 10.0003C9.55229 10.0003 10 9.55254 10 9.00026C10 8.44797 9.55229 8.00026 9.00001 8.00026Z" fill="currentColor" fill-rule="evenodd" clip-rule="evenodd"/></svg>
