<svg xmlns="http://www.w3.org/2000/svg" viewBox="0 0 24 24" fill="none"><path opacity="0.4" d="M21.7501 12.0403V11.9987V11.9571C21.7501 9.87672 21.7501 8.23907 21.5782 6.96057C21.4023 5.65222 21.0335 4.60823 20.212 3.78674C19.3905 2.96526 18.3466 2.59649 17.0382 2.42053C15.7597 2.24864 14.1221 2.24865 12.0417 2.24866H12.0001H11.9585C9.87818 2.24865 8.24053 2.24864 6.96204 2.42053C5.65368 2.59649 4.60969 2.96526 3.78821 3.78674C2.96672 4.60823 2.59796 5.65222 2.422 6.96057C2.25011 8.23906 2.25011 9.87672 2.25012 11.9571V11.9987V12.0403C2.25011 14.1206 2.25011 15.7583 2.422 17.0367C2.59796 18.3451 2.96672 19.3891 3.78821 20.2106C4.60969 21.0321 5.65368 21.4008 6.96204 21.5768C8.24053 21.7487 9.87819 21.7487 11.9585 21.7487H12.0001H12.0417C14.1221 21.7487 15.7597 21.7487 17.0382 21.5768C18.3466 21.4008 19.3905 21.0321 20.212 20.2106C21.0335 19.3891 21.4023 18.3451 21.5782 17.0367C21.7501 15.7582 21.7501 14.1206 21.7501 12.0403Z" fill="currentColor"/><path d="M12.0421 2.25061C14.1017 2.2506 15.7273 2.25078 17.0001 2.4176V6.73889C17.0001 8.74004 17.0002 9.74092 16.5167 9.96252C16.0333 10.1841 15.4818 9.43584 14.379 7.94006C14.1909 7.68493 13.8094 7.68497 13.6212 7.94006C12.5185 9.43583 11.967 10.1841 11.4835 9.96252C11.0001 9.74091 11.0001 8.74007 11.0001 6.73889V2.25159C11.3085 2.2509 11.6277 2.25061 11.9581 2.25061H12.0421Z" fill="currentColor"/></svg>
