<svg xmlns="http://www.w3.org/2000/svg" viewBox="0 0 24 24" fill="none"><path d="M11.0001 6.73743C11.0001 8.7386 11.0001 9.73945 11.4835 9.96106C11.967 10.1826 12.5185 9.43436 13.6212 7.9386C13.8094 7.68351 14.1909 7.68347 14.379 7.9386C15.4818 9.43438 16.0333 10.1826 16.5167 9.96106C17.0002 9.73945 17.0001 8.73858 17.0001 6.73743V2.41614C17.0128 2.41781 17.0256 2.41932 17.0382 2.42102C18.3466 2.59698 19.3905 2.96575 20.212 3.78723C21.0335 4.60872 21.4023 5.6527 21.5782 6.96106C21.7501 8.23947 21.7501 9.87701 21.7501 11.9572V12.0411C21.7501 14.1213 21.7501 15.7588 21.5782 17.0372C21.4023 18.3456 21.0335 19.3896 20.212 20.2111C19.3905 21.0325 18.3466 21.4013 17.0382 21.5773C15.7598 21.7491 14.1223 21.7492 12.0421 21.7491H11.9581C9.87798 21.7492 8.24045 21.7491 6.96204 21.5773C5.65368 21.4013 4.60969 21.0325 3.78821 20.2111C2.96672 19.3896 2.59796 18.3456 2.422 17.0372C2.25012 15.7588 2.25011 14.1213 2.25012 12.0411V11.9572C2.25011 9.877 2.25012 8.23947 2.422 6.96106C2.59796 5.6527 2.96672 4.60872 3.78821 3.78723C4.60969 2.96574 5.65368 2.59698 6.96204 2.42102C8.0374 2.27644 9.36686 2.25377 11.0001 2.25012V6.73743Z" fill="currentColor"/></svg>
