<svg xmlns="http://www.w3.org/2000/svg" viewBox="0 0 24 24" fill="none"><path d="M12 7V4C12 3.44772 12.4477 3 13 3C13.5523 3 14 3.44772 14 4V7C14 7.97108 14.0023 8.59902 14.0645 9.06152C14.1228 9.49503 14.2169 9.63092 14.293 9.70703C14.3691 9.78314 14.505 9.87723 14.9385 9.93555C15.401 9.99773 16.029 10 17 10H20C20.5523 10 21 10.4477 21 11C21 11.5523 20.5523 12 20 12H17C16.0855 12 15.2986 12.0022 14.6719 11.918C14.0165 11.8298 13.3885 11.6307 12.8789 11.1211C12.3693 10.6115 12.1702 9.98352 12.082 9.32812C11.9978 8.70138 12 7.91454 12 7Z" fill="currentColor"/><path d="M10.0001 20V17C10.0001 16.0289 9.99786 15.401 9.93567 14.9385C9.87736 14.505 9.78326 14.3691 9.70715 14.293C9.63105 14.2169 9.49515 14.1228 9.06165 14.0645C8.59915 14.0023 7.97117 14 7.00012 14H4.00012C3.44784 14 3.00012 13.5523 3.00012 13C3.00013 12.4477 3.44784 12 4.00012 12H7.00012C7.91464 12 8.70151 11.9978 9.32825 12.082C9.98363 12.1702 10.6116 12.3694 11.1212 12.8789C11.6308 13.3885 11.8299 14.0165 11.9181 14.6719C12.0024 15.2986 12.0001 16.0855 12.0001 17V20C12.0001 20.5523 11.5524 21 11.0001 21C10.4478 21 10.0001 20.5523 10.0001 20Z" fill="currentColor"/></svg>
