<svg xmlns="http://www.w3.org/2000/svg" viewBox="0 0 24 24" fill="none"><path d="M14.5547 22.75C15.9222 22.75 17.0247 22.7503 17.8916 22.6338C18.7917 22.5128 19.5494 22.2533 20.1514 21.6514C20.7533 21.0494 21.0128 20.2917 21.1338 19.3916C21.2503 18.5247 21.25 17.4222 21.25 16.0547L21.25 7.94531C21.25 6.57782 21.2503 5.47534 21.1338 4.6084C21.0128 3.70829 20.7533 2.95055 20.1514 2.34863C19.5494 1.74672 18.7917 1.48723 17.8916 1.36621C17.0247 1.24968 15.9222 1.24998 14.5547 1.25H9.44531C8.07783 1.24998 6.97533 1.24968 6.1084 1.36621C5.20829 1.48723 4.45055 1.74672 3.84863 2.34863C3.24672 2.95055 2.98723 3.70829 2.86621 4.6084C2.74968 5.47533 2.74998 6.57783 2.75 7.94531L2.75 16.0547C2.74998 17.4222 2.74968 18.5247 2.86621 19.3916C2.98723 20.2917 3.24672 21.0495 3.84863 21.6514C4.45055 22.2533 5.20829 22.5128 6.1084 22.6338C6.97534 22.7503 8.07782 22.75 9.44531 22.75H14.5547ZM12 20C11.4477 20 11 19.5523 11 19C11 18.4477 11.4477 18 12 18C12.5523 18 13 18.4477 13 19C13 19.5523 12.5523 20 12 20Z" fill="currentColor"/></svg>
