<svg xmlns="http://www.w3.org/2000/svg" viewBox="0 0 24 24" fill="none"><path opacity="0.4" d="M10.4222 12.5068C10.7697 12.1066 10.9776 11.6039 11.0147 11.0752C11.0213 10.9818 11.0204 10.8884 11.0204 10.7956C11.0204 10.5859 11.023 10.3794 10.9966 10.1924C10.8444 9.11437 9.99722 8.26701 8.91941 8.11477C8.73252 8.08839 8.52607 8.09091 8.3164 8.09091H7.84886C7.23252 8.09091 7.16018 8.07765 7.12085 8.06419C7.01747 8.02866 6.92934 7.95937 6.86991 7.86759C6.84732 7.83268 6.81708 7.76596 6.66763 7.16804L6.21823 5.37287C7.1717 4.54031 8.30586 3.9106 9.55487 3.55003V4.75444C9.55491 5.27276 9.76093 5.76985 10.1274 6.13636L11.3067 7.31596C11.5861 7.59546 12.0064 7.6791 12.3715 7.52783C12.7365 7.37654 12.9745 7.02023 12.9745 6.625V2.22727C12.9745 1.68754 12.5371 1.25 11.9975 1.25C6.06181 1.25 1.25 6.06294 1.25 12C1.25 17.9371 6.06181 22.75 11.9975 22.75C17.1981 22.75 21.5343 19.0564 22.5303 14.1492C22.6376 13.6203 22.2958 13.1037 21.767 12.9964C21.2383 12.889 20.7228 13.2311 20.6153 13.7599C20.5339 14.1611 20.424 14.5524 20.29 14.9318H17.7758C17.3223 14.9319 16.885 15.0896 16.5373 15.3746L16.3942 15.5044L15.4982 16.4006L14.5193 15.1771C14.1485 14.7135 13.5872 14.4432 12.9936 14.4432H12.7818C12.396 14.4432 12.0189 14.5574 11.6979 14.7715L9.44801 16.2718C8.90439 16.6342 8.57784 17.2445 8.57783 17.898V18.1213C8.57783 18.4247 8.64832 18.7242 8.78393 18.9955L9.5024 20.4338C7.46835 19.8326 5.7424 18.5169 4.61431 16.7757L5.69631 15.1542C6.05985 14.6088 6.11086 14.5598 6.15049 14.5319C6.18248 14.5095 6.21714 14.4908 6.25353 14.4766C6.29866 14.459 6.3674 14.4432 7.02353 14.4432C7.41615 14.4432 7.81466 14.4529 8.19617 14.3363C8.34581 14.2905 8.49119 14.2304 8.62935 14.1569C8.89341 14.0164 9.11409 13.819 9.32493 13.6119L10.2285 12.7081C10.2941 12.6425 10.3609 12.5774 10.4222 12.5068Z" fill="currentColor"/><path d="M18.5 1.25C20.0188 1.25 21.25 2.48122 21.25 4V4.88086C22.1234 5.18999 22.75 6.02067 22.75 7V7.75C22.75 8.08919 22.7508 8.38144 22.7344 8.62207C22.7175 8.86936 22.6803 9.11697 22.5791 9.36133C22.3507 9.91255 21.9126 10.3507 21.3613 10.5791C21.117 10.6803 20.8694 10.7175 20.6221 10.7344C20.3814 10.7508 20.0892 10.75 19.75 10.75H17.25C16.9108 10.75 16.6186 10.7508 16.3779 10.7344C16.1307 10.7175 15.883 10.6803 15.6387 10.5791C15.0875 10.3507 14.6493 9.91254 14.4209 9.36133C14.3197 9.11697 14.2825 8.86936 14.2656 8.62207C14.2492 8.38144 14.25 8.08919 14.25 7.75V7C14.25 6.02067 14.8766 5.18999 15.75 4.88086V4C15.75 2.48122 16.9812 1.25001 18.5 1.25ZM18.5 2.75C17.8097 2.75 17.25 3.30965 17.25 4V4.75H19.75V4C19.75 3.30964 19.1904 2.75 18.5 2.75Z" fill="currentColor" fill-rule="evenodd" clip-rule="evenodd"/></svg>
