<svg xmlns="http://www.w3.org/2000/svg" viewBox="0 0 24 24" fill="none"><path d="M10.4217 12.5068C10.7692 12.1066 10.9771 11.6039 11.0142 11.0752C11.0208 10.9818 11.02 10.8884 11.02 10.7956C11.02 10.5859 11.0225 10.3794 10.9961 10.1924C10.8439 9.11437 9.99673 8.26701 8.91893 8.11477C8.73203 8.08839 8.52558 8.09091 8.31591 8.09091H7.84838C7.23203 8.09091 7.15969 8.07765 7.12036 8.06419C7.01698 8.02866 6.92886 7.95937 6.86942 7.86759C6.84683 7.83268 6.81659 7.76596 6.66714 7.16804L6.21774 5.37287C7.17121 4.54031 8.30537 3.9106 9.55439 3.55003V4.75444C9.55443 5.27276 9.76044 5.76985 10.1269 6.13636L11.3062 7.31596C11.5856 7.59546 12.0059 7.6791 12.371 7.52783C12.736 7.37654 12.974 7.02023 12.974 6.625V2.22727C12.974 1.68754 12.5366 1.25 11.997 1.25C6.06132 1.25 1.24951 6.06294 1.24951 12C1.24951 17.9371 6.06132 22.75 11.997 22.75C17.1976 22.75 21.5338 19.0564 22.5298 14.1492C22.6371 13.6203 22.2953 13.1037 21.7665 12.9964C21.2378 12.889 20.7223 13.2311 20.6148 13.7599C20.5334 14.1611 20.4235 14.5524 20.2895 14.9318H17.7753C17.3218 14.9319 16.8845 15.0896 16.5368 15.3746L16.3937 15.5044L15.4978 16.4006L14.5188 15.1771C14.148 14.7135 13.5867 14.4432 12.9931 14.4432H12.7813C12.3955 14.4432 12.0184 14.5574 11.6974 14.7715L9.44752 16.2718C8.90391 16.6342 8.57735 17.2445 8.57734 17.898V18.1213C8.57734 18.4247 8.64784 18.7242 8.78344 18.9955L9.50191 20.4338C7.46786 19.8326 5.74191 18.5169 4.61383 16.7757L5.69583 15.1542C6.05936 14.6088 6.11037 14.5598 6.15 14.5319C6.182 14.5095 6.21665 14.4908 6.25305 14.4766C6.29817 14.459 6.36691 14.4432 7.02304 14.4432C7.41566 14.4432 7.81417 14.4529 8.19568 14.3363C8.34532 14.2905 8.49071 14.2304 8.62887 14.1569C8.89292 14.0164 9.1136 13.819 9.32444 13.6119L10.228 12.7081C10.2936 12.6425 10.3604 12.5774 10.4217 12.5068Z" fill="currentColor"/><path d="M18.4995 1.25C20.0183 1.25 21.2495 2.48122 21.2495 4V4.88086C22.1229 5.18999 22.7495 6.02067 22.7495 7V7.75C22.7495 8.08919 22.7503 8.38144 22.7339 8.62207C22.717 8.86936 22.6798 9.11697 22.5786 9.36133C22.3503 9.91255 21.9121 10.3507 21.3608 10.5791C21.1165 10.6803 20.8689 10.7175 20.6216 10.7344C20.381 10.7508 20.0887 10.75 19.7495 10.75H17.2495C16.9103 10.75 16.6181 10.7508 16.3774 10.7344C16.1302 10.7175 15.8825 10.6803 15.6382 10.5791C15.087 10.3507 14.6488 9.91254 14.4204 9.36133C14.3192 9.11697 14.282 8.86936 14.2651 8.62207C14.2487 8.38144 14.2495 8.08919 14.2495 7.75V7C14.2495 6.02067 14.8761 5.18999 15.7495 4.88086V4C15.7495 2.48122 16.9807 1.25001 18.4995 1.25ZM18.4995 2.75C17.8092 2.75 17.2495 3.30965 17.2495 4V4.75H19.7495V4C19.7495 3.30964 19.1899 2.75 18.4995 2.75Z" fill="currentColor" fill-rule="evenodd" clip-rule="evenodd"/></svg>
