<svg xmlns="http://www.w3.org/2000/svg" viewBox="0 0 24 24" fill="none"><path opacity="0.4" d="M12.0001 22.75C17.9372 22.75 22.7501 17.9371 22.7501 12C22.7501 6.06294 17.9372 1.25 12.0001 1.25C6.06306 1.25 1.25012 6.06294 1.25012 12C1.25012 17.9371 6.06306 22.75 12.0001 22.75Z" fill="currentColor"/><path d="M15.0001 12C15.0001 10.3431 13.657 9 12.0001 9C11.1044 9 10.3013 9.39132 9.7501 10.0156C9.38463 10.4297 8.75206 10.469 8.33799 10.1035C7.92433 9.73802 7.88484 9.10632 8.2501 8.69238C9.16481 7.65601 10.5066 7 12.0001 7C14.7615 7 17.0001 9.23858 17.0001 12C17.0001 14.7614 14.7615 17 12.0001 17C10.5066 17 9.16481 16.344 8.2501 15.3076C7.88484 14.8937 7.92433 14.262 8.33799 13.8965C8.75206 13.531 9.38463 13.5703 9.7501 13.9844C10.3013 14.6087 11.1044 15 12.0001 15C13.657 15 15.0001 13.6569 15.0001 12Z" fill="currentColor"/></svg>
