<svg xmlns="http://www.w3.org/2000/svg" viewBox="0 0 24 24" fill="none"><path d="M18.9996 15C19.5519 15 19.9996 15.4477 19.9996 16C19.9996 16.5523 19.5519 17 18.9996 17H6.99963C6.44735 17 5.99963 16.5523 5.99963 16C5.99963 15.4477 6.44735 15 6.99963 15H18.9996ZM14.9996 10C15.5519 10 15.9996 10.4477 15.9996 11C15.9996 11.5523 15.5519 12 14.9996 12H6.99963C6.44735 12 5.99963 11.5523 5.99963 11C5.99963 10.4477 6.44735 10 6.99963 10H14.9996ZM10.9996 5C11.5519 5 11.9996 5.44772 11.9996 6C11.9996 6.55228 11.5519 7 10.9996 7H6.99963C6.44735 7 5.99963 6.55228 5.99963 6C5.99963 5.44772 6.44735 5 6.99963 5H10.9996Z" fill="currentColor"/><path d="M1.99964 13V3C1.99964 2.44772 2.44735 2 2.99964 2C3.55192 2 3.99964 2.44772 3.99964 3V13C3.99964 14.9139 4.00192 16.2487 4.13733 17.2559C4.26887 18.2342 4.50953 18.7521 4.87854 19.1211C5.24755 19.4901 5.76544 19.7308 6.74378 19.8623C7.75091 19.9977 9.08575 20 10.9996 20H20.9996C21.5519 20 21.9996 20.4477 21.9996 21C21.9996 21.5523 21.5519 22 20.9996 22H10.9996C9.14229 22 7.64855 22.0022 6.47717 21.8447C5.27708 21.6834 4.26701 21.3377 3.46448 20.5352C2.66195 19.7326 2.31627 18.7226 2.15491 17.5225C1.99742 16.3511 1.99964 14.8573 1.99964 13Z" fill="currentColor"/></svg>
