<svg xmlns="http://www.w3.org/2000/svg" viewBox="0 0 24 24" fill="none"><path opacity="0.4" d="M13.8887 21.748C18.2302 21.748 21.75 18.2283 21.75 13.8867C21.7499 12.9818 21.0163 12.2482 20.1113 12.248H3.88867C2.98371 12.2482 2.25012 12.9818 2.25 13.8867C2.25 18.2283 5.76976 21.748 10.1113 21.748H13.8887Z" fill="currentColor"/><path d="M13.7314 3.1175C14.6996 2.16385 16.1626 1.99743 17.3057 2.61457C18.445 2.01381 19.8936 2.18577 20.8545 3.13215C21.8149 4.07824 21.989 5.50302 21.3799 6.62434C22.0074 7.75 21.8377 9.19273 20.8691 10.1468C20.7482 10.2659 20.6176 10.3715 20.4824 10.4661C20.5703 11.0708 20.4692 11.6965 20.1777 12.2513C20.1557 12.2504 20.1336 12.2484 20.1113 12.2484H17.3477C17.4639 12.0823 17.6333 11.9503 17.8428 11.8821C17.9932 11.8331 18.1347 11.7485 18.2568 11.6282C18.5901 11.2999 18.6581 10.8054 18.4531 10.4105C18.3213 10.1568 18.3099 9.8579 18.4238 9.59602C18.538 9.33408 18.7653 9.13493 19.043 9.05402C19.2071 9.00622 19.3619 8.91965 19.4922 8.79133C19.907 8.3824 19.9066 7.71822 19.4912 7.30891C19.1142 6.93736 19.1112 6.33645 19.4844 5.96125C19.8923 5.55144 19.8892 4.89309 19.4766 4.48664C19.064 4.08071 18.3977 4.07877 17.9824 4.4798C17.6012 4.84767 16.9899 4.84431 16.6123 4.47297C16.1973 4.06419 15.5244 4.06419 15.1094 4.47297C14.9785 4.6019 14.8892 4.75344 14.8408 4.91438C14.7587 5.1876 14.558 5.41131 14.292 5.52375C14.0258 5.63614 13.7217 5.62533 13.4639 5.49543C13.0638 5.29404 12.5627 5.36065 12.2295 5.68879C12.1242 5.79257 12.0451 5.91266 11.9932 6.04133C11.9815 6.09778 11.9648 6.15376 11.9424 6.20832C11.9028 6.38996 11.9118 6.5802 11.9717 6.7591C12.0673 7.04472 12.0207 7.35861 11.8467 7.60578C11.6727 7.85261 11.3909 8.00475 11.0859 8.01691C10.8275 8.02717 10.5747 8.12888 10.3779 8.32258C9.96256 8.73176 9.96254 9.39583 10.3779 9.805C10.7956 10.2165 11.0871 10.7049 11.2559 11.223L16.1934 6.36359C16.5736 5.98932 17.1901 5.98932 17.5703 6.36359C17.9505 6.73787 17.9506 7.3448 17.5703 7.71906L12.9688 12.2484H9.47949C9.46543 11.8517 9.30597 11.4609 9 11.1595C7.82497 10.0019 7.82498 8.12567 9 6.96809C9.2746 6.69761 9.58964 6.49015 9.92578 6.34602C9.52 6.17784 9.07488 6.08235 8.60547 6.08234C6.72339 6.08234 5.19742 7.58439 5.19727 9.43684C5.19727 10.4901 5.68994 11.4297 6.46387 12.0462C6.53847 12.1057 6.60155 12.1743 6.65332 12.2484H4.0752C3.55319 11.4349 3.25 10.4705 3.25 9.43684C3.25015 6.52577 5.64786 4.16633 8.60547 4.16633C9.32636 4.16634 10.0147 4.3088 10.6436 4.56379C10.7087 4.48486 10.7769 4.40684 10.8516 4.33332C11.5489 3.64657 12.5019 3.36914 13.4072 3.49641C13.5033 3.36358 13.6108 3.2363 13.7314 3.1175Z" fill="currentColor"/></svg>
