<svg xmlns="http://www.w3.org/2000/svg" viewBox="0 0 24 24" fill="none"><path d="M13.731 3.11762C14.6992 2.16397 16.1621 1.99755 17.3052 2.61469C18.4445 2.01394 19.8931 2.18589 20.854 3.13227C21.8144 4.07836 21.9885 5.50314 21.3794 6.62446C22.0069 7.75012 21.8372 9.19285 20.8687 10.1469C20.7477 10.266 20.6171 10.3716 20.4819 10.4663C20.5698 11.0709 20.4687 11.6966 20.1772 12.2514C21.0514 12.2864 21.7494 13.0045 21.7495 13.8872C21.7493 18.2286 18.2297 21.7485 13.8882 21.7485H10.1108C5.76937 21.7485 2.24968 18.2286 2.24951 13.8872C2.24963 12.9822 2.98322 12.2486 3.88818 12.2485H4.07471C3.5527 11.435 3.24951 10.4706 3.24951 9.43696C3.24966 6.52589 5.64737 4.16645 8.60498 4.16645C9.32587 4.16646 10.0142 4.30893 10.6431 4.56391C10.7082 4.48499 10.7764 4.40696 10.8511 4.33344C11.5484 3.64669 12.5014 3.36927 13.4067 3.49653C13.5028 3.3637 13.6103 3.23642 13.731 3.11762ZM16.6118 4.47309C16.1968 4.06431 15.5239 4.06431 15.1089 4.47309C14.978 4.60203 14.8887 4.75356 14.8403 4.9145C14.7582 5.18772 14.5575 5.41143 14.2915 5.52387C14.0253 5.63626 13.7213 5.62545 13.4634 5.49555C13.0634 5.29416 12.5622 5.36077 12.229 5.68891C12.1237 5.79269 12.0446 5.91278 11.9927 6.04145C11.981 6.0979 11.9643 6.15388 11.9419 6.20844C11.9023 6.39008 11.9113 6.58032 11.9712 6.75922C12.0669 7.04485 12.0203 7.35873 11.8462 7.6059C11.6722 7.85273 11.3904 8.00487 11.0854 8.01704C10.827 8.0273 10.5742 8.129 10.3774 8.3227C9.96208 8.73188 9.96205 9.39596 10.3774 9.80512C10.7951 10.2167 11.0866 10.7051 11.2554 11.2231L16.1929 6.36372C16.5731 5.98944 17.1896 5.98944 17.5698 6.36372C17.95 6.738 17.9501 7.34492 17.5698 7.71918L12.9683 12.2485H17.3472C17.4634 12.0824 17.6329 11.9505 17.8423 11.8823C17.9927 11.8332 18.1342 11.7487 18.2563 11.6284C18.5896 11.3001 18.6576 10.8056 18.4526 10.4106C18.3208 10.1569 18.3094 9.85803 18.4233 9.59614C18.5375 9.33421 18.7648 9.13505 19.0425 9.05415C19.2066 9.00634 19.3614 8.91977 19.4917 8.79145C19.9065 8.38252 19.9062 7.71834 19.4907 7.30903C19.1137 6.93748 19.1107 6.33658 19.4839 5.96137C19.8918 5.55156 19.8887 4.89321 19.4761 4.48676C19.0636 4.08083 18.3972 4.0789 17.9819 4.47993C17.6007 4.84779 16.9894 4.84443 16.6118 4.47309ZM8.60498 6.08247C6.7229 6.08247 5.19693 7.58451 5.19678 9.43696C5.19678 10.4902 5.68945 11.4298 6.46338 12.0463C6.53798 12.1058 6.60107 12.1744 6.65283 12.2485H9.479C9.46494 11.8518 9.30548 11.4611 8.99951 11.1596C7.82449 10.002 7.82449 8.12579 8.99951 6.96821C9.27411 6.69773 9.58915 6.49027 9.92529 6.34614C9.51951 6.17796 9.07439 6.08248 8.60498 6.08247Z" fill="currentColor" fill-rule="evenodd" clip-rule="evenodd"/></svg>
