<svg xmlns="http://www.w3.org/2000/svg" viewBox="0 0 24 24" fill="none"><path d="M19.2011 1.41018C19.5956 1.02417 20.2288 1.03048 20.6151 1.42482C23.2953 4.16083 23.2953 8.58922 20.6151 11.3252C20.2288 11.7196 19.5956 11.7259 19.2011 11.3399C18.8065 10.9534 18.7999 10.3194 19.1864 9.92482C21.1044 7.9665 21.1044 4.78354 19.1864 2.82522C18.7999 2.43069 18.8065 1.79665 19.2011 1.41018ZM16.4247 4.24416C16.8192 3.85768 17.4533 3.86428 17.8397 4.25881C18.9866 5.42991 18.9866 7.32013 17.8397 8.49123C17.4533 8.88576 16.8192 8.89236 16.4247 8.50588C16.0305 8.11944 16.0239 7.48626 16.4101 7.09182C16.7956 6.6982 16.7956 6.05184 16.4101 5.65822C16.0239 5.26378 16.0305 4.6306 16.4247 4.24416Z" fill="currentColor"/><path opacity="0.4" d="M22.6247 17.9216V17.8748V17.8281C22.6247 16.9272 22.6247 16.1758 22.5446 15.5799C22.4602 14.9523 22.2744 14.3858 21.819 13.9305C21.3637 13.4751 20.7972 13.2893 20.1696 13.2049C19.5737 13.1248 18.8222 13.1248 17.9214 13.1248H17.8747H5.8747H5.82801C4.92716 13.1248 4.17573 13.1248 3.57977 13.2049C2.95216 13.2893 2.38572 13.4751 1.93036 13.9305C1.475 14.3858 1.28921 14.9523 1.20477 15.5799C1.12465 16.1759 1.12467 16.9273 1.12469 17.8281V17.8748V17.9215C1.12467 18.8224 1.12465 19.5738 1.20477 20.1697C1.28921 20.7974 1.475 21.3638 1.93036 21.8192C2.38572 22.2745 2.95216 22.4603 3.57977 22.5447C4.17572 22.6249 4.92713 22.6248 5.82797 22.6248H5.8747H17.8747H17.9214C18.8223 22.6248 19.5737 22.6249 20.1696 22.5447C20.7972 22.4603 21.3637 22.2745 21.819 21.8192C22.2744 21.3638 22.4602 20.7974 22.5446 20.1697C22.6247 19.5738 22.6247 18.8224 22.6247 17.9216Z" fill="currentColor"/><path d="M9.87469 16.8748C10.427 16.8748 10.8747 17.3225 10.8747 17.8748C10.8747 18.4271 10.427 18.8748 9.87469 18.8748C9.32241 18.8748 8.87469 18.4271 8.87469 17.8748C8.87469 17.3225 9.32241 16.8748 9.87469 16.8748Z" fill="currentColor"/><path d="M13.8747 16.8748C14.427 16.8748 14.8747 17.3225 14.8747 17.8748C14.8747 18.4271 14.427 18.8748 13.8747 18.8748C13.3224 18.8748 12.8747 18.4271 12.8747 17.8748C12.8747 17.3225 13.3224 16.8748 13.8747 16.8748Z" fill="currentColor"/><path d="M5.87469 16.8748C6.42698 16.8748 6.87469 17.3225 6.87469 17.8748C6.87469 18.4271 6.42698 18.8748 5.87469 18.8748C5.32241 18.8748 4.87469 18.4271 4.87469 17.8748C4.87469 17.3225 5.32241 16.8748 5.87469 16.8748Z" fill="currentColor"/><path d="M13.8747 5.62482C14.427 5.62482 14.8747 6.07253 14.8747 6.62482V13.1248H12.8747V6.62482C12.8747 6.07253 13.3224 5.62482 13.8747 5.62482Z" fill="currentColor"/></svg>
