<svg xmlns="http://www.w3.org/2000/svg" viewBox="0 0 24 24" fill="none"><path d="M13.8747 5.62492C14.427 5.62492 14.8747 6.07263 14.8747 6.62492V13.1249H17.9216C18.8223 13.1249 19.5737 13.1249 20.1696 13.205C20.7972 13.2894 21.3637 13.4752 21.819 13.9306C22.2744 14.3859 22.4602 14.9524 22.5446 15.58C22.6247 16.1759 22.6247 16.9273 22.6247 17.828V17.9218C22.6247 18.8226 22.6247 19.5739 22.5446 20.1698C22.4602 20.7975 22.2744 21.3639 21.819 21.8193C21.3637 22.2746 20.7972 22.4604 20.1696 22.5448C19.5737 22.625 18.8223 22.6249 17.9216 22.6249H5.82782C4.92705 22.6249 4.17568 22.625 3.57977 22.5448C2.95216 22.4604 2.38572 22.2746 1.93036 21.8193C1.475 21.3639 1.28921 20.7975 1.20477 20.1698C1.12466 19.5739 1.12467 18.8226 1.1247 17.9218V17.828C1.12467 16.9273 1.12466 16.1759 1.20477 15.58C1.28921 14.9524 1.475 14.3859 1.93036 13.9306C2.38572 13.4752 2.95216 13.2894 3.57977 13.205C4.17568 13.1249 4.92705 13.1249 5.82782 13.1249H12.8747V6.62492C12.8747 6.07263 13.3224 5.62492 13.8747 5.62492ZM5.8747 16.8749C5.32241 16.8749 4.8747 17.3226 4.8747 17.8749C4.8747 18.4272 5.32241 18.8749 5.8747 18.8749C6.42698 18.8749 6.8747 18.4272 6.8747 17.8749C6.87469 17.3226 6.42698 16.8749 5.8747 16.8749ZM9.8747 16.8749C9.32241 16.8749 8.8747 17.3226 8.8747 17.8749C8.8747 18.4272 9.32241 18.8749 9.8747 18.8749C10.427 18.8749 10.8747 18.4272 10.8747 17.8749C10.8747 17.3226 10.427 16.8749 9.8747 16.8749ZM13.8747 16.8749C13.3224 16.8749 12.8747 17.3226 12.8747 17.8749C12.8747 18.4272 13.3224 18.8749 13.8747 18.8749C14.427 18.8749 14.8747 18.4272 14.8747 17.8749C14.8747 17.3226 14.427 16.8749 13.8747 16.8749ZM19.2009 1.41007C19.5953 1.02414 20.2286 1.03059 20.6149 1.42472C23.2951 4.16072 23.2951 8.58911 20.6149 11.3251C20.2286 11.7195 19.5954 11.7258 19.2009 11.3398C18.8065 10.9533 18.7998 10.3192 19.1862 9.92472C21.1042 7.9664 21.1042 4.78344 19.1862 2.82511C18.7999 2.43057 18.8064 1.79649 19.2009 1.41007ZM16.4245 4.24406C16.819 3.85765 17.453 3.86438 17.8395 4.25871C18.9864 5.42981 18.9864 7.32003 17.8395 8.49113C17.4531 8.88566 16.819 8.89226 16.4245 8.50578C16.0305 8.11932 16.0237 7.48609 16.4099 7.09172C16.7954 6.6981 16.7954 6.05174 16.4099 5.65812C16.0239 5.26366 16.0304 4.63043 16.4245 4.24406Z" fill="currentColor" fill-rule="evenodd" clip-rule="evenodd"/></svg>
