<svg xmlns="http://www.w3.org/2000/svg" viewBox="0 0 24 24" fill="none"><path opacity="0.4" d="M13.0001 1.24951C11.4813 1.24954 10.2501 2.48074 10.2501 3.99951V6.28564C10.0066 6.26177 9.75648 6.24951 9.50009 6.24951C7.57046 6.24951 5.74852 6.94053 4.40732 8.28174C3.06198 9.62708 2.25009 11.5763 2.25009 13.9995C2.25009 15.8285 2.93534 18.0118 4.50693 19.7456C6.09608 21.4987 8.55295 22.7495 12.0001 22.7495C14.7482 22.7495 17.1923 21.3602 18.9308 19.355C20.6677 17.3514 21.7501 14.6799 21.7501 11.9995C21.7501 9.32278 20.678 6.66132 19.086 4.66748C17.5048 2.68712 15.3107 1.24951 13.0001 1.24951Z" fill="currentColor"/><path d="M10.2502 4.78564C11.8745 4.94286 13.2995 5.61451 14.3576 6.73486C15.5732 8.02198 16.2502 9.84201 16.2502 11.9995C16.2502 13.6699 15.69 15.1202 14.6554 16.1548C13.6208 17.1894 12.1706 17.7495 10.5002 17.7495C9.00984 17.7495 7.92443 17.1058 7.22769 16.2358C6.55109 15.391 6.25015 14.3478 6.25015 13.4995C6.25015 11.7046 7.70523 10.2495 9.50015 10.2495C10.564 10.2495 11.5081 10.7617 12.0998 11.5493C12.3484 11.8805 12.2815 12.3504 11.9503 12.5991C11.6192 12.8478 11.1493 12.7808 10.9005 12.4497C10.58 12.023 10.0721 11.7495 9.50015 11.7495C8.53365 11.7495 7.75015 12.533 7.75015 13.4995C7.75015 14.0318 7.94937 14.7384 8.39761 15.2983C8.82589 15.8331 9.49054 16.2495 10.5002 16.2495C11.8297 16.2495 12.8795 15.8096 13.5949 15.0942C14.3103 14.3788 14.7502 13.3291 14.7502 11.9995C14.7502 10.157 14.1771 8.72704 13.2677 7.76416C12.4175 6.86393 11.2254 6.32074 9.79019 6.25635L9.88004 6.2583C10.005 6.26435 10.1284 6.27371 10.2502 6.28564V4.78564Z" fill="currentColor"/></svg>
