<svg xmlns="http://www.w3.org/2000/svg" viewBox="0 0 24 24" fill="none"><path d="M13.0001 1.24951C15.3107 1.24951 17.5048 2.68712 19.086 4.66748C20.678 6.66132 21.7501 9.32278 21.7501 11.9995C21.7501 14.6799 20.6677 17.3514 18.9308 19.355C17.1923 21.3602 14.7482 22.7495 12.0001 22.7495C8.55295 22.7495 6.09608 21.4987 4.50693 19.7456C2.93534 18.0118 2.25009 15.8285 2.25009 13.9995C2.25009 11.5763 3.06198 9.62708 4.40732 8.28174C5.74852 6.94053 7.57046 6.24951 9.50009 6.24951C11.0649 6.24951 12.3608 6.80395 13.2677 7.76416C14.1771 8.72704 14.7501 10.157 14.7501 11.9995C14.7501 13.3291 14.3102 14.3788 13.5948 15.0942C12.8794 15.8096 11.8296 16.2495 10.5001 16.2495C9.49048 16.2495 8.82583 15.8331 8.39755 15.2983C7.94931 14.7384 7.75009 14.0318 7.75009 13.4995C7.75009 12.533 8.53359 11.7495 9.50009 11.7495C10.072 11.7495 10.5799 12.023 10.9005 12.4497C11.1492 12.7808 11.6191 12.8478 11.9503 12.5991C12.2814 12.3504 12.3484 11.8805 12.0997 11.5493C11.5081 10.7617 10.5639 10.2495 9.50009 10.2495C7.70517 10.2495 6.25009 11.7046 6.25009 13.4995C6.25009 14.3478 6.55103 15.391 7.22763 16.2358C7.92437 17.1058 9.00978 17.7495 10.5001 17.7495C12.1705 17.7495 13.6208 17.1894 14.6554 16.1548C15.6899 15.1202 16.2501 13.6699 16.2501 11.9995C16.2501 9.84201 15.5731 8.02198 14.3575 6.73486C13.2994 5.61451 11.8745 4.94286 10.2501 4.78564V3.99951C10.2501 2.48074 11.4813 1.24954 13.0001 1.24951Z" fill="currentColor"/></svg>
