<svg xmlns="http://www.w3.org/2000/svg" viewBox="0 0 24 24" fill="none"><path d="M12 2.24825C12.4747 2.24825 12.9309 2.26286 13.3691 2.28926C13.0403 3.01702 12.9289 3.84943 13.0449 4.67403C13.2739 6.30032 14.3307 7.83621 16.0664 9.05977C16.5294 9.38614 17.3025 9.99727 18.5 9.99727C19.697 9.99713 20.4697 9.38616 20.9326 9.05977C21.411 8.72251 21.8359 8.35974 22.208 7.97969C22.6069 9.23501 22.75 10.6048 22.75 11.9982C22.75 14.6234 21.9907 17.0837 20.208 18.8889C18.4216 20.6978 15.7071 21.7482 12 21.7482C10.4515 21.7482 9.09789 21.5967 7.91992 21.3078C7.58951 21.2268 7.18966 21.3189 6.83789 21.5783C6.02979 22.1745 4.78902 22.7482 3 22.7482C2.67 22.7482 2.37843 22.5327 2.28223 22.217C2.18605 21.9013 2.30807 21.5592 2.58203 21.3752C3.1813 20.9723 3.81966 19.6153 2.7373 17.8986C1.63081 16.2104 1.25 14.1416 1.25 11.9982C1.25 9.42252 1.8005 6.9494 3.50098 5.12325C5.21037 3.28753 7.94704 2.24825 12 2.24825ZM8 10.9982C7.44771 10.9982 7 11.446 7 11.9982C7 12.5505 7.44772 12.9982 8 12.9982C8.55228 12.9982 9 12.5505 9 11.9982C9 11.446 8.55228 10.9982 8 10.9982ZM12 10.9982C11.4823 10.9982 11.0562 11.3916 11.0049 11.8957L11 11.9982L11.0049 12.1008C11.0562 12.6049 11.4823 12.9982 12 12.9982C12.5522 12.9982 13 12.5505 13 11.9982C13 11.4806 12.6066 11.0545 12.1025 11.0031L12 10.9982ZM16 10.9982C15.4477 10.9982 15 11.446 15 11.9982C15 12.5505 15.4477 12.9982 16 12.9982C16.5523 12.9982 17 12.5505 17 11.9982C17 11.446 16.5523 10.9982 16 10.9982Z" fill="currentColor"/><path d="M21.4901 1.68146C20.3044 0.988843 19.2035 1.22774 18.4999 1.69514C17.7962 1.22774 16.6953 0.988843 15.5096 1.68146C14.591 2.21813 14.116 3.31416 14.2831 4.5008C14.4511 5.69398 15.2478 6.95392 16.787 8.03889C17.296 8.39772 17.7563 8.74787 18.4999 8.74787C19.2434 8.74787 19.7037 8.39772 20.2127 8.03889C21.7519 6.95392 22.5486 5.69398 22.7167 4.5008C22.8837 3.31416 22.4087 2.21813 21.4901 1.68146Z" fill="currentColor"/></svg>
