<svg xmlns="http://www.w3.org/2000/svg" viewBox="0 0 24 24" fill="none"><path opacity="0.4" d="M9.00031 2.99902C9.00031 2.44674 9.44802 1.99902 10.0003 1.99902C10.5526 1.99902 11.0003 2.44674 11.0003 2.99902V19.9805C14.3898 19.4943 17.0003 16.57 17.0003 13.0293C17.0005 12.4771 17.4481 12.0293 18.0003 12.0293C18.5525 12.0293 19.0001 12.4771 19.0003 13.0293C19.0003 17.6303 15.5662 21.4296 11.1224 21.9844C9.89105 22.1381 9.00031 21.1156 9.00031 20.0508V2.99902Z" fill="currentColor"/><path d="M15.553 8.1048C16.047 7.85782 16.6478 8.05809 16.8948 8.55207C17.1418 9.04605 16.9415 9.64688 16.4475 9.89387L6.44752 14.8939C5.95354 15.1409 5.35271 14.9406 5.10572 14.4466C4.85873 13.9526 5.05901 13.3518 5.55299 13.1048L15.553 8.1048Z" fill="currentColor"/><path d="M15.553 3.1048C16.047 2.85782 16.6478 3.05809 16.8948 3.55207C17.1418 4.04605 16.9415 4.64688 16.4475 4.89387L6.44752 9.89387C5.95354 10.1409 5.35271 9.94058 5.10572 9.4466C4.85873 8.95262 5.05901 8.35179 5.55299 8.1048L15.553 3.1048Z" fill="currentColor"/></svg>
