<svg xmlns="http://www.w3.org/2000/svg" viewBox="0 0 24 24" fill="none"><path d="M10.0001 1.99902C10.5524 1.99902 11.0001 2.44674 11.0001 2.99902V5.38086L15.5528 3.10449C16.0467 2.85757 16.6475 3.05805 16.8946 3.55176C17.1416 4.04574 16.9413 4.64657 16.4473 4.89355L11.0001 7.61719V10.3809L15.5528 8.10449C16.0467 7.85757 16.6475 8.05805 16.8946 8.55176C17.1416 9.04574 16.9413 9.64657 16.4473 9.89355L11.0001 12.6172V19.9805C14.3895 19.4943 17.0001 16.57 17.0001 13.0293C17.0002 12.4773 17.4481 12.0295 18.0001 12.0293C18.5523 12.0293 18.9999 12.4771 19.0001 13.0293C19.0001 17.6303 15.5659 21.4296 11.1221 21.9844C9.891 22.1378 9.00008 21.1155 9.00008 20.0508V13.6172L6.44734 14.8936C5.95339 15.1404 5.35251 14.9402 5.10555 14.4463C4.85887 13.9524 5.05905 13.3515 5.55281 13.1045L9.00008 11.3809V8.61719L6.44734 9.89355C5.95339 10.1404 5.35251 9.94023 5.10555 9.44629C4.85887 8.95242 5.05905 8.35146 5.55281 8.10449L9.00008 6.38086V2.99902C9.00008 2.44686 9.44796 1.99922 10.0001 1.99902Z" fill="currentColor" fill-rule="evenodd" clip-rule="evenodd"/></svg>
