<svg xmlns="http://www.w3.org/2000/svg" viewBox="0 0 24 24" fill="none"><g transform="scale(0.5)"><g> <path fill="currentColor" fill-rule="evenodd" d="M26.9806 5.4139c-1.8487 -1.17179 -4.1128 -1.17162 -5.9614 0.00028 -1.5608 0.98948 -3.84 2.69012 -6.8398 5.57532 -0.1701 -0.2972 -0.3819 -0.5706 -0.634 -0.8126 -0.6937 -0.66584 -1.6118 -1.01598 -2.5914 -1.03896 -0.2958 -0.00694 -0.6266 -0.01099 -0.99581 -0.01099 -0.36925 0 -0.7 0.00405 -0.99578 0.01099 -0.97964 0.02298 -1.89777 0.37312 -2.59143 1.03896 -0.69452 0.6666 -1.08255 1.5717 -1.13958 2.5557 -0.05847 1.0089 -0.10321 2.4592 -0.10321 4.5411 0 1.4646 0.02214 2.6163 0.0556 3.5214 -1.11383 1.3396 -1.99644 2.4633 -2.68832 3.3838l1.18604 0.8915 -1.18604 -0.8915c-0.8764 1.166 -1.07112 2.6001 -0.52291 3.8315 0.5478 1.2305 1.74259 2.0458 3.19275 2.1791 0.54299 0.0499 1.15374 0.1001 1.83908 0.1493 0.07608 4.3794 0.18921 8.1571 0.27465 10.648 0.08748 2.5504 1.95746 4.7328 4.59416 4.9957 2.5068 0.2499 6.5 0.5166 12.1268 0.5166 5.6269 0 9.6222 -0.2667 12.1309 -0.5166 2.6385 -0.2629 4.5096 -2.4474 4.5957 -4.9996 0.0841 -2.4908 0.1954 -6.267 0.2703 -10.6442 0.6842 -0.0491 1.2941 -0.0993 1.8364 -0.1491 1.4504 -0.1333 2.6453 -0.9488 3.1931 -2.1795 0.5482 -1.2316 0.3534 -2.6658 -0.5232 -3.8319 -1.5745 -2.0945 -4.1373 -5.2427 -8.1657 -9.593 -4.784 -5.16624 -8.2349 -7.82629 -10.3569 -9.1713Z" clip-rule="evenodd" opacity="0.4"></path> <path fill="currentColor" fill-rule="evenodd" d="M13.676 0.126293c1.0351 0.385488 1.5617 1.537117 1.1762 2.572237 -0.5842 1.56872 -1.5805 2.36843 -2.1496 2.82521 -0.0489 0.03929 -0.0947 0.07604 -0.1368 0.11052 -0.1309 0.10721 -0.2043 0.17231 -0.2554 0.22377 -0.0253 0.02551 -0.0393 0.04203 -0.0461 0.05072 -0.0065 0.02558 -0.0158 0.08254 -0.0158 0.1875 0 1.10457 -0.8954 2 -2 2 -1.10453 0 -1.99996 -0.89543 -1.99996 -2 0 -0.85718 0.19576 -1.61489 0.60587 -2.28015 0.37925 -0.6152 0.87274 -1.02721 1.17639 -1.27599 0.037 -0.03031 0.0726 -0.05943 0.107 -0.08751 0.5451 -0.44527 0.7727 -0.63114 0.9659 -1.15005C11.4892 0.267435 12.6409 -0.259195 13.676 0.126293ZM12.2702 5.89181c0.0003 0.00043 -0.001 0.00509 -0.0048 0.01271 0.0025 -0.00933 0.0045 -0.01313 0.0048 -0.01271Z" clip-rule="evenodd" opacity="0.4"></path> <path fill="currentColor" fill-rule="evenodd" d="M35.055 12.2031H5.29528c-0.03218 0.173 -0.05354 0.3496 -0.06393 0.5287 -0.04788 0.8263 -0.08656 1.9485 -0.09899 3.4713H38.8196c-0.4705 -0.5199 -0.9642 -1.0593 -1.4821 -1.6186 -0.7979 -0.8617 -1.5587 -1.6536 -2.2825 -2.3814Zm8.1453 9.0567H4.79882c-0.93466 1.1366 -1.69321 2.1065 -2.3034 2.9183l1.18604 0.8915 -1.18604 -0.8915c-0.25668 0.3415 -0.45488 0.706 -0.59308 1.0817H46.0966c-0.1382 -0.376 -0.3365 -0.7407 -0.5934 -1.0824 -0.6101 -0.8115 -1.3684 -1.7812 -2.3029 -2.9176Zm-1.9354 9.0586H6.73491c0.0885 0.0065 0.17831 0.0131 0.26943 0.0196 0.02424 1.3953 0.05224 2.7294 0.0819 3.9804h8.01556c-0.0108 0.7674 -0.0234 1.7035 -0.036 2.7204 -0.0093 0.746 -0.0185 1.5363 -0.0271 2.3362l-7.81276 0c0.01843 0.5832 0.03627 1.1219 0.05305 1.611 0.02941 0.8576 0.26038 1.6736 0.65428 2.389l7.07183 0c-0.0033 0.6152 -0.0051 1.1949 -0.0051 1.7182 0 0.3519 0.0003 0.7356 0.0011 1.1413 1.1658 0.0748 2.4976 0.1409 4.0004 0.1883 -0.001 -0.4759 -0.0015 -0.9243 -0.0015 -1.3296 0 -2.1769 0.0326 -5.3591 0.0655 -8.0047 0.0129 -1.0387 0.0258 -1.9929 0.0367 -2.7685h9.7955c0.0109 0.7756 0.0238 1.7298 0.0367 2.7685 0.016 1.2843 0.0319 2.6951 0.044 4.056 -0.0087 0.0756 -0.0131 0.1525 -0.0131 0.2305 0 0.0899 0.0059 0.1783 0.0174 0.2651 0.0105 1.2624 0.0173 2.4619 0.0173 3.4531 0 0.4053 -0.0006 0.8537 -0.0016 1.3296 1.5026 -0.0473 2.8343 -0.1134 4.0004 -0.1882 0.0008 -0.4057 0.0012 -0.7895 0.0012 -1.1414 0 -0.5233 -0.0019 -1.103 -0.0052 -1.7182l7.0769 0c0.3947 -0.7165 0.6259 -1.5339 0.6549 -2.3929 0.0165 -0.4881 0.034 -1.0255 0.0521 -1.6071l-7.8175 0c-0.0086 -0.7999 -0.0178 -1.5902 -0.0271 -2.3362 -0.0126 -1.0169 -0.0252 -1.953 -0.036 -2.7204h8.0181c0.0292 -1.251 0.0568 -2.5852 0.0807 -3.9805 0.0906 -0.0065 0.1799 -0.013 0.268 -0.0195Z" clip-rule="evenodd"></path> </g></g></svg>
