<svg xmlns="http://www.w3.org/2000/svg" viewBox="0 0 24 24" fill="none"><g transform="scale(0.5)"><g> <path stroke="currentColor" stroke-linejoin="round" d="M3.69456 25.0802c-1.1597 1.5429 -0.31399 3.439 1.60804 3.6156 0.86815 0.0797 1.91791 0.161 3.17922 0.237 0.07453 4.952 0.20229 9.2598 0.29637 12.0026 0.06342 1.8491 1.40281 3.3709 3.24391 3.5545 2.4551 0.2447 6.3986 0.5092 11.9779 0.5092 5.5795 0 9.5252 -0.2645 11.9822 -0.5093 1.8425 -0.1835 3.1828 -1.707 3.2453 -3.5576 0.0926 -2.743 0.2184 -7.0493 0.2917 -11.9994 1.2602 -0.076 2.3092 -0.1572 3.1769 -0.2369 1.9224 -0.1766 2.7682 -2.0733 1.6082 -3.6164 -1.5391 -2.0473 -4.068 -5.1563 -8.0673 -9.4751 -4.7163 -5.0932 -8.0696 -7.66234 -10.0594 -8.92357 -1.3583 -0.86099 -2.9969 -0.86088 -4.3552 0.00022 -1.7749 1.12524 -4.635 3.29138 -8.5805 7.36165 -0.0156 -0.4709 -0.0342 -0.8757 -0.0544 -1.2233 -0.0743 -1.2819 -0.9849 -2.1518 -2.2687 -2.1819 -0.2833 -0.0066 -0.6022 -0.0105 -0.96058 -0.0105 -0.35833 0 -0.67732 0.0039 -0.96059 0.0105 -1.28376 0.0301 -2.19441 0.9 -2.26871 2.1819 -0.05634 0.9721 -0.1007 2.3922 -0.1007 4.4543 0 1.7852 0.03325 3.0892 0.07873 4.0379 -1.27665 1.52 -2.2622 2.7705 -3.01239 3.7686Z" stroke-width="4"></path> <path stroke="currentColor" stroke-linecap="round" d="m13.2886 14 21.4233 0" stroke-width="4"></path> <path stroke="currentColor" stroke-linecap="round" d="m6.69824 21 34.33646 0" stroke-width="4"></path> <path stroke="currentColor" stroke-linecap="round" d="M8.23047 28.9121H39.8355" stroke-width="4"></path> <path stroke="currentColor" stroke-linecap="round" d="m8.66016 37.0039 8.34074 0m22.3424 0 -8.378 0" stroke-width="4"></path> <path stroke="currentColor" stroke-linecap="round" d="M10 6.46875c0 -2.54383 2.2338 -2.17569 3.2267 -4.8418" stroke-width="4"></path> <path stroke="currentColor" stroke-linejoin="round" d="M30.9847 44.8473c-1.9536 0.0918 -4.2731 0.1527 -6.9885 0.1527 -2.7124 0 -5.0293 -0.0608 -6.9809 -0.1524C17.0056 43.422 17 41.9281 17 40.816c0 -3.6873 0.1314 -11.9039 0.1314 -11.9039h13.7372S31 37.1287 31 40.816c0 1.112 -0.0056 2.6058 -0.0153 4.0313Z" stroke-width="4"></path> </g></g></svg>
