<svg xmlns="http://www.w3.org/2000/svg" viewBox="0 0 24 24" fill="none"><g transform="scale(0.5)"><g> <path fill="currentColor" fill-rule="evenodd" d="M14.8522 2.69853c0.3855 -1.03512 -0.1411 -2.186749 -1.1762 -2.572237 -1.0351 -0.385488 -2.1868 0.141142 -2.5723 1.176257 -0.1932 0.51891 -0.4208 0.70478 -0.9659 1.15005l-0.107 0.08751c-0.30365 0.24878 -0.79714 0.66079 -1.17639 1.27599 -0.41011 0.66526 -0.60587 1.42297 -0.60587 2.28015 0 1.10457 0.89543 2 1.99996 2 1.1046 0 2 -0.89543 2 -2 0 -0.10496 0.0093 -0.16192 0.0158 -0.1875 0.0068 -0.00869 0.0208 -0.02521 0.0461 -0.05072 0.0511 -0.05146 0.1245 -0.11656 0.2554 -0.22377 0.0421 -0.03448 0.0879 -0.07123 0.1368 -0.11052 0.5691 -0.45678 1.5654 -1.25649 2.1496 -2.82521Zm-2.582 3.19328c0.0003 0.00043 -0.001 0.00509 -0.0048 0.01271 0.0025 -0.00933 0.0045 -0.01313 0.0048 -0.01271Zm14.7104 -0.47737c-1.8487 -1.17179 -4.1128 -1.17161 -5.9614 0.00028 -1.5608 0.98949 -3.84 2.69013 -6.8398 5.57538 -0.1701 -0.2972 -0.3819 -0.5707 -0.634 -0.8127 -0.6937 -0.66579 -1.6118 -1.01593 -2.5914 -1.03892 -0.2958 -0.00694 -0.6266 -0.01098 -0.99581 -0.01098 -0.36925 0 -0.7 0.00404 -0.99578 0.01098 -0.97964 0.02299 -1.89777 0.37313 -2.59143 1.03892 -0.63942 0.6138 -1.01905 1.4296 -1.11977 2.3231H35.3481c-3.7637 -3.82195 -6.552 -5.93531 -8.3675 -7.08606ZM5.12819 17.2743c0 -0.6511 0.00438 -1.2404 0.01218 -1.7738H38.1793c1.7475 1.9111 3.1956 3.5731 4.39 5H5.17358c-0.02768 -0.8567 -0.04539 -1.9164 -0.04539 -3.2262Zm-2.1158 6.2262c-0.18307 0.2376 -0.35521 0.4638 -0.51692 0.679 -0.8764 1.166 -1.07112 2.6 -0.52291 3.8314 0.5478 1.2305 1.74259 2.0459 3.19275 2.1791 0.52523 0.0483 1.11385 0.0969 1.77205 0.1445H41.0625c0.6577 -0.0476 1.2459 -0.0961 1.7708 -0.1444 1.4504 -0.1332 2.6453 -0.9488 3.1931 -2.1794 0.5482 -1.2316 0.3534 -2.6659 -0.5232 -3.832 -0.1615 -0.2149 -0.3335 -0.4409 -0.5164 -0.6782H3.01239Zm4.0513 9.834h8.54481c-0.012 0.8206 -0.0273 1.9078 -0.0427 3.097 -0.0086 0.6667 -0.0172 1.3661 -0.0253 2.069H7.19894c-0.04539 -1.5034 -0.09275 -3.2495 -0.13525 -5.166Zm0.2574 8.166H15.511c-0.0068 0.883 -0.011 1.6942 -0.011 2.3608 0 0.6919 0.0021 1.5289 0.006 2.4057 -1.4442 -0.0859 -2.6522 -0.1862 -3.6328 -0.284 -2.45794 -0.2451 -4.2496 -2.1582 -4.55211 -4.4825ZM24 46.4996c2.0441 0 3.8729 -0.0351 5.4934 -0.092 0.0043 -0.9287 0.0066 -1.819 0.0066 -2.5463 0 -0.9812 -0.0092 -2.284 -0.0227 -3.6704 -0.0079 -0.0623 -0.012 -0.1259 -0.012 -0.1904 0 -0.0541 0.0029 -0.1076 0.0085 -0.1603 -0.0114 -1.1235 -0.0254 -2.288 -0.0394 -3.3699 -0.0156 -1.2084 -0.0312 -2.3115 -0.0433 -3.1358H18.6089c-0.0121 0.8243 -0.0277 1.9274 -0.0433 3.1358 -0.0329 2.5419 -0.0656 5.5394 -0.0656 7.391 0 0.7273 0.0023 1.6176 0.0066 2.5463 1.6202 0.0568 3.449 0.092 5.4934 0.092Zm12.1309 -0.5166c-0.9817 0.0978 -2.1911 0.1982 -3.6369 0.2841 0.0039 -0.8768 0.006 -1.7138 0.006 -2.4058 0 -0.6666 -0.0042 -1.4778 -0.011 -2.3608h8.1953c-0.3029 2.3245 -2.095 4.2376 -4.5534 4.4825Zm4.6745 -7.4825h-8.3459c-0.0081 -0.7029 -0.0167 -1.4023 -0.0253 -2.069 -0.0154 -1.1892 -0.0307 -2.2764 -0.0427 -3.097h8.547c-0.0418 1.9166 -0.0885 3.6627 -0.1331 5.166Z" clip-rule="evenodd"></path> </g></g></svg>
