<svg xmlns="http://www.w3.org/2000/svg" fill="none" viewBox="0 0 48 48">
  <g>
    <path fill="currentColor" fill-rule="evenodd" d="M14.8307 3.32577c-1.5228 -1.52288 -4.0101 -1.80183 -5.77107 -0.32321 -0.64226 0.53928 -1.37958 1.19639 -2.12062 1.93743 -0.74104 0.74104 -1.39815 1.47836 -1.93743 2.12062l1.14851 0.96436 -1.14851 -0.96436c-1.47861 1.76097 -1.19966 4.24819 0.32321 5.77109l2.09275 2.0927c0.29671 0.2968 0.70415 0.4556 1.1234 0.4381 0.41925 -0.0176 0.81199 -0.2099 1.08286 -0.5304 1.0854 -1.2842 2.3916 -2.7257 3.9366 -4.2707 1.1372 -1.13715 2.2183 -2.14497 3.2219 -3.03059 0.3104 -0.27397 0.4938 -0.66408 0.5067 -1.07794 0.0129 -0.41385 -0.1458 -0.81463 -0.4386 -1.10741l-2.0197 -2.01969Z" clip-rule="evenodd" stroke-width="1"></path>
    <path fill="currentColor" fill-opacity="0.4" fill-rule="evenodd" d="M24 0.5c-0.2734 0 -0.5434 0.000485 -0.8102 0.001434 -1.4682 0.005224 -2.9318 0.445995 -4.1522 1.344306 -1.9249 1.41697 -4.579 3.57432 -7.5983 6.5936 -2.99992 2.99996 -5.14894 5.63936 -6.56626 7.56126 -0.89297 1.2109 -1.33416 2.6607 -1.35103 4.1153C3.50782 21.3397 3.5 22.6338 3.5 24c0 7.9108 0.26212 13.4067 0.50652 16.8118 0.23443 3.2661 2.7043 5.8571 6.00038 6.1529 2.9864 0.268 7.574 0.5353 13.9931 0.5353s11.0067 -0.2673 13.9931 -0.5353c3.2961 -0.2958 5.766 -2.8868 6.0004 -6.1529 0.2444 -3.4051 0.5065 -8.901 0.5065 -16.8118 0 -7.9108 -0.2621 -13.4067 -0.5065 -16.81178 -0.2344 -3.2661 -2.7043 -5.85713 -6.0004 -6.15292C35.0067 0.767304 30.4191 0.5 24 0.5Z" clip-rule="evenodd" stroke-width="1"></path>
    <path fill="currentColor" fill-rule="evenodd" d="M24 8c0 -1.10457 0.8954 -2 2 -2 2.5604 0 5.1084 0.12778 7.008 0.25443 0.952 0.06346 1.746 0.12697 2.3034 0.17475 0.2788 0.0239 0.4987 0.04388 0.6498 0.05799 0.0756 0.00705 0.134 0.01264 0.1741 0.01651l0.0461 0.0045 0.017 0.00168c0.0001 0.00002 0.0006 0.00007 -0.1984 1.99014l0.1984 -1.99014c1.0991 0.10991 1.9016 1.09006 1.7917 2.18915 -0.1099 1.09904 -1.0899 1.90089 -2.189 1.79109 0 0 0.0001 0 0 0l-0.0115 -0.0011 -0.0396 -0.0039c-0.0357 -0.0035 -0.0896 -0.0086 -0.1605 -0.0152 -0.1418 -0.0133 -0.3516 -0.0324 -0.6197 -0.0553 -0.5363 -0.046 -1.3048 -0.1075 -2.2278 -0.169C30.8916 10.1222 28.4396 10 26 10c-1.1046 0 -2 -0.89543 -2 -2Z" clip-rule="evenodd" stroke-width="1"></path>
    <path fill="currentColor" d="M32.8385 20.6618c-0.4067 -0.4067 -0.7889 -0.6988 -1.1246 -0.908 -0.8875 -0.5532 -1.8751 -0.1819 -2.4933 0.4095 -0.9229 0.8829 -2.6301 2.5334 -5.2209 5.1031 -2.5908 -2.5697 -4.298 -4.2202 -5.2209 -5.1031 -0.6182 -0.5914 -1.6058 -0.9627 -2.4933 -0.4095 -0.3357 0.2092 -0.7179 0.5013 -1.1246 0.908 -0.4068 0.4068 -0.6988 0.7889 -0.9081 1.1247 -0.5532 0.8874 -0.1819 1.8751 0.4095 2.4933 0.8829 0.9228 2.5334 2.6301 5.1031 5.2209 -2.5697 2.5908 -4.2202 4.298 -5.1031 5.2208 -0.5914 0.6182 -0.9627 1.6059 -0.4095 2.4934 0.2093 0.3357 0.5013 0.7179 0.9081 1.1246 0.4067 0.4068 0.7889 0.6988 1.1246 0.9081 0.8875 0.5531 1.8751 0.1819 2.4933 -0.4095 0.9229 -0.8829 2.6301 -2.5335 5.2209 -5.1032 2.5908 2.5697 4.298 4.2203 5.2209 5.1032 0.6182 0.5914 1.6058 0.9626 2.4933 0.4095 0.3357 -0.2093 0.7179 -0.5013 1.1246 -0.9081 0.4068 -0.4067 0.6988 -0.7889 0.9081 -1.1246 0.5532 -0.8875 0.1819 -1.8752 -0.4095 -2.4934 -0.8829 -0.9228 -2.5334 -2.63 -5.1031 -5.2208 2.5697 -2.5908 4.2202 -4.2981 5.1031 -5.2209 0.5914 -0.6182 0.9627 -1.6059 0.4095 -2.4933 -0.2093 -0.3358 -0.5013 -0.7179 -0.9081 -1.1247Z" stroke-width="1"></path>
  </g>
</svg>
