<svg xmlns="http://www.w3.org/2000/svg" fill="none" viewBox="0 0 48 48">
  <g>
    <path stroke="currentColor" stroke-linecap="round" stroke-linejoin="round" d="m15.79 6.40536 -2.0197 -2.01969c-1.0251 -1.02506 -2.6357 -1.1673 -3.7459 -0.23511 -0.61672 0.51785 -1.32063 1.14546 -2.02451 1.84933 -0.70387 0.70388 -1.33148 1.40779 -1.84933 2.02452 -0.93219 1.11021 -0.78995 2.72079 0.23511 3.74589l2.09275 2.0927C9.58957 12.5484 10.9241 11.0759 12.5 9.5c1.1599 -1.15995 2.2638 -2.18908 3.29 -3.09464Z" stroke-width="1"></path>
    <path stroke="currentColor" stroke-linecap="round" stroke-linejoin="round" d="M5.02191 20.1333c0.01352 -1.1655 0.36655 -2.3044 1.05836 -3.2424C7.45716 15.0238 9.55777 12.4422 12.5 9.5c2.9612 -2.96118 5.557 -5.06986 7.4268 -6.44625 0.9456 -0.696 2.0943 -1.04815 3.2683 -1.05233C23.4601 2.00048 23.7284 2 24 2c6.3776 0 10.9203 0.26558 13.859 0.5293 2.5463 0.2285 4.4553 2.21642 4.6383 4.76631C42.739 10.6623 43 16.1222 43 24c0 7.8778 -0.261 13.3377 -0.5027 16.7044 -0.183 2.5499 -2.092 4.5378 -4.6383 4.7663C34.9203 45.7344 30.3776 46 24 46s-10.9203 -0.2656 -13.859 -0.5293c-2.54626 -0.2285 -4.45531 -2.2164 -4.63833 -4.7663C5.26103 37.3377 5 31.8778 5 24c0 -1.3605 0.00778 -2.6488 0.02191 -3.8667Z" stroke-width="1"></path>
    <path stroke="currentColor" stroke-linecap="round" stroke-linejoin="round" d="M15.0238 33.0673c-0.504 0.5269 -0.7322 1.2645 -0.3465 1.8832 0.1887 0.3028 0.4568 0.6552 0.8373 1.0356 0.3804 0.3804 0.7328 0.6486 1.0355 0.8373 0.6188 0.3857 1.3564 0.1575 1.8833 -0.3465 0.9615 -0.9199 2.7793 -2.6778 5.5665 -5.4463 2.7871 2.7685 4.6049 4.5264 5.5665 5.4463 0.5268 0.504 1.2644 0.7322 1.8832 0.3465 0.3027 -0.1887 0.6551 -0.4569 1.0355 -0.8373 0.3805 -0.3804 0.6486 -0.7328 0.8373 -1.0356 0.3857 -0.6187 0.1576 -1.3563 -0.3465 -1.8832 -0.9199 -0.9615 -2.6778 -2.7793 -5.4463 -5.5665 2.7685 -2.7871 4.5264 -4.6049 5.4463 -5.5665 0.5041 -0.5268 0.7322 -1.2644 0.3465 -1.8832 -0.1887 -0.3028 -0.4568 -0.6551 -0.8373 -1.0356 -0.3804 -0.3804 -0.7328 -0.6485 -1.0355 -0.8373 -0.6188 -0.3856 -1.3564 -0.1575 -1.8832 0.3465 -0.9616 0.92 -2.7794 2.6779 -5.5665 5.4464 -2.7872 -2.7685 -4.605 -4.5264 -5.5665 -5.4464 -0.5269 -0.504 -1.2645 -0.7321 -1.8833 -0.3465 -0.3027 0.1888 -0.6551 0.4569 -1.0355 0.8373 -0.3805 0.3805 -0.6486 0.7328 -0.8373 1.0356 -0.3857 0.6188 -0.1575 1.3564 0.3465 1.8832 0.9199 0.9616 2.6778 2.7794 5.4463 5.5665 -2.7685 2.7872 -4.5264 4.605 -5.4463 5.5665Z" stroke-width="1"></path>
    <path stroke="currentColor" stroke-linecap="round" stroke-linejoin="round" d="M26 8c5 0 10 0.5 10 0.5" stroke-width="1"></path>
  </g>
</svg>
