<svg xmlns="http://www.w3.org/2000/svg" fill="none" viewBox="0 0 48 48">
  <g>
    <path fill="currentColor" fill-rule="evenodd" d="M23.2447 5.00135C23.4933 5.00046 23.7451 5 24 5c5.9861 0 10.2295 0.25117 12.9495 0.49712 1.4017 0.12673 2.4732 1.20963 2.5793 2.69989C39.7541 11.3598 40 16.5239 40 24c0 7.4761 -0.2459 12.6403 -0.4712 15.803 -0.1061 1.4902 -1.1776 2.5731 -2.5793 2.6999C34.2295 42.7488 29.9861 43 24 43s-10.2295 -0.2512 -12.9495 -0.4971c-1.40165 -0.1268 -2.47318 -1.2096 -2.57934 -2.6999C8.24586 36.6403 8 31.4761 8 24c0 -1.2911 0.00733 -2.5132 0.02062 -3.6679 0.00841 -0.7306 0.22734 -1.4049 0.61669 -1.9369 1.25093 -1.7091 3.17679 -4.096 5.88749 -6.8272 2.7282 -2.74886 5.1099 -4.69643 6.8078 -5.95575 0.5291 -0.39242 1.1956 -0.60833 1.9121 -0.6109ZM24 1c-0.2597 0 -0.5162 0.00046 -0.7697 0.00137 -1.508 0.00541 -3.0181 0.46178 -4.2805 1.39809 -1.0423 0.77303 -2.3053 1.77258 -3.7268 3.01966l-0.9941 -0.99413c-1.1444 -1.1444 -2.974 -1.32575 -4.25068 -0.25379 -0.59721 0.50146 -1.28026 1.11037 -1.96453 1.79464 -0.68426 0.68427 -1.29318 1.36732 -1.79464 1.96453 -1.07196 1.27666 -0.89061 3.10623 0.2538 4.25073l1.0933 1.0933c-0.85469 1.0289 -1.57053 1.9576 -2.15664 2.7584 -0.92144 1.2589 -1.37142 2.7587 -1.38862 4.2532C4.00742 21.4563 4 22.6938 4 24c0 7.5634 0.24872 12.8227 0.48127 16.0872 0.24062 3.3777 2.78624 6.0899 6.20903 6.3994C13.5384 46.7442 17.9023 47 24 47s10.4616 -0.2558 13.3097 -0.5134c3.4228 -0.3095 5.9684 -3.0217 6.209 -6.3994C43.7513 36.8227 44 31.5634 44 24s-0.2487 -12.8227 -0.4813 -16.08721c-0.2406 -3.37771 -2.7862 -6.08994 -6.209 -6.39942C34.4616 1.25584 30.0977 1 24 1Zm-4.8314 17.4122c-0.5942 -0.5685 -1.5484 -0.9294 -2.4077 -0.3938 -0.322 0.2007 -0.6881 0.4805 -1.0776 0.87 -0.3894 0.3895 -0.6693 0.7556 -0.87 1.0776 -0.5356 0.8593 -0.1747 1.8135 0.3938 2.4077 0.841 0.8791 2.4117 2.5037 4.8556 4.9679 -2.4439 2.4641 -4.0146 4.0887 -4.8556 4.9678 -0.5685 0.5942 -0.9294 1.5484 -0.3938 2.4077 0.2007 0.322 0.4806 0.6881 0.87 1.0776 0.3895 0.3895 0.7556 0.6693 1.0776 0.87 0.8593 0.5356 1.8135 0.1747 2.4077 -0.3938 0.8791 -0.841 2.5037 -2.4116 4.9679 -4.8555 2.4642 2.4439 4.0887 4.0145 4.9678 4.8555 0.5943 0.5685 1.5484 0.9294 2.4078 0.3938 0.3219 -0.2007 0.6881 -0.4805 1.0775 -0.87 0.3895 -0.3895 0.6693 -0.7556 0.87 -1.0776 0.5357 -0.8593 0.1748 -1.8135 -0.3938 -2.4077 -0.841 -0.8791 -2.4116 -2.5037 -4.8555 -4.9678 2.4439 -2.4642 4.0145 -4.0888 4.8556 -4.9679 0.5685 -0.5942 0.9294 -1.5484 0.3937 -2.4077 -0.2007 -0.322 -0.4805 -0.6881 -0.87 -1.0776 -0.3895 -0.3895 -0.7556 -0.6693 -1.0776 -0.87 -0.8593 -0.5356 -1.8134 -0.1747 -2.4077 0.3938 -0.8791 0.841 -2.5036 2.4116 -4.9678 4.8555 -2.4642 -2.4439 -4.0888 -4.0145 -4.9679 -4.8555Zm6.8773 -11.68564c-1.1046 0 -2 0.89543 -2 2s0.8954 2.00004 2 2.00004c3.7838 0 6.542 0.1496 9.3202 0.4645 1.0975 0.1244 2.0881 -0.6645 2.2125 -1.76199 0.1244 -1.09754 -0.6644 -2.08813 -1.762 -2.21255 -2.9561 -0.3351 -5.868 -0.49 -9.7707 -0.49Z" clip-rule="evenodd" stroke-width="3.429"></path>
  </g>
</svg>
