<svg xmlns="http://www.w3.org/2000/svg" fill="none" viewBox="0 0 48 48">
  <g>
    <path fill="currentColor" fill-rule="evenodd" d="M23.1898 0.501434C23.4566 0.500485 23.7266 0.5 24 0.5c6.4191 0 11.0067 0.267304 13.9931 0.5353 3.2961 0.29579 5.766 2.88682 6.0004 6.15292C44.2379 10.5933 44.5 16.0892 44.5 24c0 7.9108 -0.2621 13.4067 -0.5065 16.8118 -0.2344 3.2661 -2.7043 5.8571 -6.0004 6.1529 -2.9864 0.268 -7.574 0.5353 -13.9931 0.5353s-11.0067 -0.2673 -13.9931 -0.5353c-3.29608 -0.2958 -5.76595 -2.8868 -6.00038 -6.1529C3.76212 37.4067 3.5 31.9108 3.5 24c0 -1.3662 0.00782 -2.6603 0.02201 -3.8841 0.01687 -1.4546 0.45806 -2.9044 1.35103 -4.1153 0.45104 -0.6116 0.97619 -1.2959 1.57928 -2.0414l-1.12753 -1.1275c-1.52287 -1.5229 -1.80182 -4.01012 -0.32321 -5.77109l1.14851 0.96436 -1.14851 -0.96436c0.53928 -0.64226 1.19639 -1.37958 1.93743 -2.12062 0.74104 -0.74104 1.47836 -1.39815 2.12062 -1.93743 1.76097 -1.47862 4.24827 -1.19967 5.77107 0.32321l1.0332 1.03315c1.1947 -1.01109 2.2654 -1.84456 3.1737 -2.51318C20.258 0.947429 21.7216 0.506658 23.1898 0.501434ZM26 6c-1.1046 0 -2 0.89543 -2 2s0.8954 2 2 2c2.4396 0 4.8916 0.1222 6.742 0.2456 0.923 0.0615 1.6915 0.123 2.2278 0.169 0.2681 0.0229 0.4779 0.042 0.6197 0.0553l0.0752 0.007 0.0853 0.0082 0.0396 0.0039 0.0115 0.0011c1.0991 0.1098 2.0791 -0.69205 2.189 -1.79109 0.1099 -1.09909 -0.6926 -2.07924 -1.7917 -2.18915l-0.017 -0.00168 -0.0461 -0.0045c-0.0401 -0.00387 -0.0985 -0.00946 -0.174 -0.01651 -0.1512 -0.01411 -0.3711 -0.03409 -0.6499 -0.05799 -0.5574 -0.04778 -1.3514 -0.11129 -2.3034 -0.17475C31.1084 6.12778 28.5604 6 26 6Zm6.8385 14.6618c-0.4067 -0.4067 -0.7889 -0.6988 -1.1246 -0.908 -0.8875 -0.5532 -1.8751 -0.1819 -2.4933 0.4095 -0.9229 0.8829 -2.6301 2.5334 -5.2209 5.1031 -2.5908 -2.5697 -4.298 -4.2202 -5.2209 -5.1031 -0.6182 -0.5914 -1.6058 -0.9627 -2.4933 -0.4095 -0.3357 0.2092 -0.7179 0.5013 -1.1246 0.908 -0.4068 0.4068 -0.6988 0.7889 -0.9081 1.1247 -0.5532 0.8874 -0.1819 1.8751 0.4095 2.4933 0.8829 0.9228 2.5334 2.6301 5.1031 5.2209 -2.5697 2.5908 -4.2202 4.298 -5.1031 5.2208 -0.5914 0.6182 -0.9627 1.6059 -0.4095 2.4934 0.2093 0.3357 0.5013 0.7179 0.9081 1.1246 0.4067 0.4068 0.7889 0.6988 1.1246 0.9081 0.8875 0.5531 1.8751 0.1819 2.4933 -0.4095 0.9229 -0.8829 2.6301 -2.5335 5.2209 -5.1032 2.5908 2.5697 4.298 4.2203 5.2209 5.1032 0.6182 0.5914 1.6058 0.9626 2.4933 0.4095 0.3357 -0.2093 0.7179 -0.5013 1.1246 -0.9081 0.4068 -0.4067 0.6988 -0.7889 0.9081 -1.1246 0.5532 -0.8875 0.1819 -1.8752 -0.4095 -2.4934 -0.8829 -0.9228 -2.5334 -2.63 -5.1031 -5.2208 2.5697 -2.5908 4.2202 -4.2981 5.1031 -5.2209 0.5914 -0.6182 0.9627 -1.6059 0.4095 -2.4933 -0.2093 -0.3358 -0.5013 -0.7179 -0.9081 -1.1247Z" clip-rule="evenodd" stroke-width="1"></path>
  </g>
</svg>
