<svg xmlns="http://www.w3.org/2000/svg" fill="none" viewBox="0 0 48 48">
  <g>
    <path fill="currentColor" fill-opacity="0.4" d="M43.5 24c0 -9.0058 -0.3234 -14.4274 -0.6292 -17.54335 -0.2866 -2.9211 -2.4937 -5.10604 -5.3991 -5.40102C34.7579 0.780097 30.4207 0.5 24.0001 0.5c-6.4207 0 -10.7579 0.280099 -13.4718 0.55563 -2.90535 0.29498 -5.11252 2.47993 -5.39914 5.40105C4.82343 9.57263 4.5 14.9943 4.5 24c0 9.0057 0.32343 14.4274 0.62916 17.5433 0.28662 2.9211 2.49379 5.1061 5.39914 5.4011 2.7139 0.2755 7.0511 0.5556 13.4718 0.5556 6.4206 0 10.7578 -0.2801 13.4716 -0.5556 2.9054 -0.295 5.1125 -2.4799 5.3991 -5.401 0.3058 -3.116 0.6292 -8.5376 0.6292 -17.5434Z" stroke-width="3.429"></path>
    <path fill="currentColor" fill-rule="evenodd" d="M27.5 24c0 -1.3807 1.1193 -2.5 2.5 -2.5h4c1.3807 0 2.5 1.1193 2.5 2.5s-1.1193 2.5 -2.5 2.5h-4c-1.3807 0 -2.5 -1.1193 -2.5 -2.5Z" clip-rule="evenodd" stroke-width="3.429"></path>
  </g>
</svg>
