<svg xmlns="http://www.w3.org/2000/svg" viewBox="0 0 24 24" fill="none"><path d="M2.5 21.75C2.5 21.1977 2.94772 20.75 3.5 20.75H20.5C21.0523 20.75 21.5 21.1977 21.5 21.75C21.5 22.3023 21.0523 22.75 20.5 22.75H3.5C2.94772 22.75 2.5 22.3023 2.5 21.75Z" fill="currentColor" fill-rule="evenodd" clip-rule="evenodd"/><path d="M19 22.75C19.4142 22.75 19.75 22.4142 19.75 22V7.94531C19.75 6.57782 19.7503 5.47534 19.6338 4.6084C19.5128 3.70829 19.2533 2.95055 18.6514 2.34863C18.0495 1.74672 17.2917 1.48723 16.3916 1.36621C15.5247 1.24968 14.4222 1.24998 13.0547 1.25H10.9453C9.57783 1.24998 8.47533 1.24968 7.6084 1.36621C6.70829 1.48723 5.95055 1.74672 5.34863 2.34863C4.74672 2.95055 4.48723 3.70829 4.36621 4.6084C4.24968 5.47533 4.24998 6.57783 4.25 7.94531L4.25 22C4.25 22.4142 4.58579 22.75 5 22.75L19 22.75ZM10 13.75C9.5701 13.75 9.17335 13.7282 8.82812 13.6523C8.47457 13.5746 8.129 13.4298 7.84961 13.1504C7.57022 12.871 7.42538 12.5254 7.34766 12.1719C7.27182 11.8267 7.25 11.4299 7.25 11V7C7.25 6.5701 7.27182 6.17335 7.34766 5.82812C7.42538 5.47457 7.57022 5.129 7.84961 4.84961C8.129 4.57022 8.47457 4.42538 8.82813 4.34766C9.17335 4.27182 9.5701 4.25 10 4.25H14C14.4299 4.25 14.8267 4.27182 15.1719 4.34766C15.5254 4.42538 15.871 4.57022 16.1504 4.84961C16.4298 5.129 16.5746 5.47457 16.6523 5.82812C16.7282 6.17335 16.75 6.5701 16.75 7V11C16.75 11.4299 16.7282 11.8267 16.6523 12.1719C16.5746 12.5254 16.4298 12.871 16.1504 13.1504C15.871 13.4298 15.5254 13.5746 15.1719 13.6523C14.8267 13.7282 14.4299 13.75 14 13.75L10 13.75ZM11.25 5.75H10C9.60256 5.75 9.3353 5.77188 9.15039 5.8125C8.97398 5.85125 8.92381 5.8965 8.91016 5.91016C8.8965 5.92381 8.85125 5.97399 8.8125 6.15039C8.77188 6.33529 8.75 6.60256 8.75 7V8.25H11.25V5.75ZM15.25 7C15.25 6.60256 15.2281 6.33529 15.1875 6.15039C15.1487 5.97398 15.1035 5.92381 15.0898 5.91016C15.0762 5.8965 15.026 5.85125 14.8496 5.8125C14.6647 5.77188 14.3974 5.75 14 5.75H12.75V8.25H15.25V7ZM11.25 9.75H8.75V11C8.75 11.3974 8.77188 11.6647 8.8125 11.8496C8.85125 12.026 8.8965 12.0762 8.91016 12.0898C8.92381 12.1035 8.97399 12.1487 9.15039 12.1875C9.3353 12.2281 9.60256 12.25 10 12.25H11.25L11.25 9.75ZM14 12.25C14.3974 12.25 14.6647 12.2281 14.8496 12.1875C15.026 12.1487 15.0762 12.1035 15.0898 12.0898C15.1035 12.0762 15.1487 12.026 15.1875 11.8496C15.2281 11.6647 15.25 11.3974 15.25 11V9.75H12.75V12.25H14ZM8.00293 18C7.4533 17.9998 7.00781 17.5521 7.00781 17C7.00781 16.4479 7.4533 16.0002 8.00293 16H8.0127C8.56232 16.0002 9.00781 16.4479 9.00781 17C9.00781 17.5521 8.56232 17.9998 8.0127 18H8.00293Z" fill="currentColor"/></svg>
