<svg xmlns="http://www.w3.org/2000/svg" viewBox="0 0 24 24" fill="none"><path opacity="0.4" d="M20.9998 11C21.5521 11 21.9998 11.4477 21.9998 12C21.9998 12.5523 21.5521 13 20.9998 13H10.9998C10.4475 13 9.99982 12.5523 9.99982 12C9.99982 11.4477 10.4475 11 10.9998 11H20.9998Z" fill="currentColor"/><path opacity="0.4" d="M17.9998 15C18.5521 15 18.9998 15.4477 18.9998 16C18.9998 16.5523 18.5521 17 17.9998 17H10.9998C10.4475 17 9.99982 16.5523 9.99982 16C9.99982 15.4477 10.4475 15 10.9998 15H17.9998Z" fill="currentColor"/><path opacity="0.4" d="M14.9998 19C15.5521 19 15.9998 19.4477 15.9998 20C15.9998 20.5523 15.5521 21 14.9998 21H10.9998C10.4475 21 9.99982 20.5523 9.99982 20C9.99982 19.4477 10.4475 19 10.9998 19H14.9998Z" fill="currentColor"/><path d="M6.99976 3C7.41002 3 7.76497 3.17918 7.99098 3.31543C8.24432 3.46819 8.49591 3.66807 8.73121 3.87598C9.20429 4.29398 9.70519 4.83223 10.1502 5.34473C10.5994 5.86212 11.0121 6.37644 11.3113 6.75977C11.4613 6.95194 11.5834 7.11263 11.6687 7.22559C11.7114 7.28207 11.7453 7.32652 11.7683 7.35742C11.7798 7.37288 11.7885 7.38523 11.7947 7.39355C11.7977 7.39768 11.8008 7.40104 11.8025 7.40332C11.8032 7.40422 11.804 7.40471 11.8045 7.40527V7.40723H11.8054C12.1326 7.8519 12.0371 8.47825 11.5925 8.80566C11.1479 9.13284 10.5215 9.03735 10.1941 8.59277L10.1931 8.59082C10.192 8.58925 10.1896 8.58718 10.1873 8.58398C10.1822 8.5772 10.175 8.56646 10.1648 8.55273C10.1442 8.52504 10.1129 8.48354 10.073 8.43066C9.99314 8.32492 9.8776 8.17281 9.73512 7.99023C9.44901 7.62362 9.05933 7.1378 8.64039 6.65527C8.21713 6.16777 7.78273 5.70602 7.40699 5.37402C7.24166 5.22796 7.10448 5.12471 6.99976 5.05664C6.89505 5.12471 6.75786 5.22797 6.59254 5.37402C6.2168 5.70602 5.78241 6.16778 5.35914 6.65527C4.94019 7.13779 4.55052 7.62362 4.26441 7.99023C4.12193 8.17281 4.00639 8.32493 3.92652 8.43066C3.88659 8.48353 3.85536 8.52504 3.83473 8.55273C3.8245 8.56646 3.81729 8.5772 3.81226 8.58398C3.80989 8.58719 3.80756 8.58925 3.80641 8.59082L3.80543 8.59277L3.74 8.67188C3.39975 9.04764 2.82394 9.11177 2.40699 8.80469C1.96249 8.47726 1.86696 7.85187 2.1941 7.40723H2.19508V7.40527C2.19556 7.40461 2.19718 7.40443 2.19801 7.40332C2.19968 7.40105 2.2018 7.39766 2.20484 7.39355C2.21101 7.38523 2.2197 7.37287 2.23121 7.35742C2.25424 7.32652 2.28814 7.28209 2.33082 7.22559C2.41614 7.11263 2.53826 6.95195 2.68824 6.75977C2.98739 6.37645 3.40016 5.86211 3.84937 5.34473C4.29435 4.83223 4.79524 4.29398 5.26832 3.87598C5.50362 3.66808 5.75521 3.46819 6.00855 3.31543C6.23455 3.17919 6.58952 3.00001 6.99976 3Z" fill="currentColor"/><path d="M5.99982 5V20C5.99982 20.5523 6.44753 21 6.99982 21C7.5521 21 7.99982 20.5523 7.99982 20V5C7.99982 4.44772 7.5521 4 6.99982 4C6.44753 4 5.99982 4.44772 5.99982 5Z" fill="currentColor"/></svg>
