<svg xmlns="http://www.w3.org/2000/svg" viewBox="0 0 24 24" fill="none"><path d="M6.99955 3.00049C7.40978 3.00048 7.76475 3.17967 7.99076 3.31592C8.24409 3.46867 8.49571 3.66858 8.731 3.87646C9.20406 4.29446 9.70498 4.83272 10.1499 5.34521C10.5991 5.86259 11.0119 6.37693 11.3111 6.76025C11.461 6.95241 11.5832 7.11312 11.6685 7.22607C11.7111 7.28254 11.7451 7.32701 11.7681 7.35791C11.7796 7.37334 11.7883 7.38572 11.7945 7.39404C11.7975 7.39815 11.8006 7.40153 11.8023 7.40381C11.8029 7.40469 11.8038 7.40521 11.8042 7.40576V7.40771H11.8052C12.1324 7.85239 12.0369 8.47874 11.5923 8.80615C11.1476 9.13329 10.5213 9.03782 10.1939 8.59326L10.1929 8.59131C10.1917 8.58975 10.1894 8.58765 10.187 8.58447C10.182 8.57769 10.1748 8.56693 10.1646 8.55322C10.144 8.52553 10.1127 8.484 10.0728 8.43115C9.99293 8.32541 9.87737 8.17328 9.7349 7.99072C9.4488 7.62411 9.0591 7.13827 8.64017 6.65576C8.42635 6.40949 8.21006 6.16943 7.99955 5.94971V20.0005C7.99955 20.5528 7.55183 21.0005 6.99955 21.0005C6.44732 21.0004 5.99955 20.5527 5.99955 20.0005V5.94971C5.78905 6.16942 5.57274 6.4095 5.35892 6.65576C4.93999 7.13827 4.5503 7.62412 4.2642 7.99072C4.12173 8.17329 4.00617 8.32542 3.92631 8.43115C3.88639 8.48401 3.85514 8.52554 3.83451 8.55322C3.82429 8.56693 3.81707 8.57769 3.81205 8.58447C3.80969 8.58766 3.80734 8.58975 3.80619 8.59131L3.80521 8.59326L3.73978 8.67236C3.39953 9.0481 2.82371 9.11225 2.40678 8.80518C1.96232 8.47775 1.86678 7.85234 2.19389 7.40771H2.19486V7.40576C2.19534 7.40511 2.19696 7.40489 2.19779 7.40381C2.19946 7.40155 2.2016 7.39814 2.20463 7.39404C2.21079 7.38572 2.21949 7.37334 2.23099 7.35791C2.25402 7.32701 2.28794 7.28256 2.3306 7.22607C2.41592 7.11313 2.53805 6.95243 2.68803 6.76025C2.98717 6.37695 3.39996 5.86259 3.84916 5.34521C4.29412 4.83273 4.79503 4.29446 5.2681 3.87646C5.50338 3.66858 5.75501 3.46868 6.00834 3.31592C6.23433 3.17968 6.58934 3.00052 6.99955 3.00049ZM14.9995 19.0005C15.5518 19.0005 15.9995 19.4482 15.9995 20.0005C15.9995 20.5528 15.5518 21.0005 14.9995 21.0005H10.9995C10.4473 21.0004 9.99955 20.5527 9.99955 20.0005C9.99955 19.4482 10.4473 19.0006 10.9995 19.0005H14.9995ZM17.9995 15.0005C18.5518 15.0005 18.9995 15.4482 18.9995 16.0005C18.9995 16.5528 18.5518 17.0005 17.9995 17.0005H10.9995C10.4473 17.0004 9.99955 16.5527 9.99955 16.0005C9.99955 15.4482 10.4473 15.0006 10.9995 15.0005H17.9995ZM20.9995 11.0005C21.5518 11.0005 21.9995 11.4482 21.9995 12.0005C21.9995 12.5528 21.5518 13.0005 20.9995 13.0005H10.9995C10.4473 13.0004 9.99955 12.5527 9.99955 12.0005C9.99955 11.4482 10.4473 11.0006 10.9995 11.0005H20.9995Z" fill="currentColor" fill-rule="evenodd" clip-rule="evenodd"/></svg>
