<svg xmlns="http://www.w3.org/2000/svg" viewBox="0 0 24 24" fill="none"><path d="M19.1504 11.25C19.433 11.25 19.5743 11.2499 19.6621 11.1621C19.7499 11.0743 19.75 10.933 19.75 10.6504L19.75 7.9375C19.75 6.5765 19.7505 5.46686 19.6133 4.5918C19.4685 3.66856 19.1564 2.90405 18.4629 2.30957C17.7861 1.72945 16.9439 1.48249 15.9268 1.36524C14.9307 1.25045 13.6574 1.24999 12.0488 1.25L11.9512 1.25C10.3426 1.24999 9.06926 1.25045 8.07324 1.36524C7.05615 1.48249 6.21392 1.72945 5.53711 2.30957C4.84362 2.90405 4.53155 3.66856 4.38672 4.5918C4.24946 5.46686 4.24997 6.5765 4.25 7.9375L4.25 10.6504C4.25 10.933 4.25006 11.0743 4.33789 11.1621C4.42572 11.2499 4.56703 11.25 4.84961 11.25L19.1504 11.25ZM12.0049 7.5C11.3172 7.49978 10.7598 6.94022 10.7598 6.25C10.7598 5.55978 11.3172 5.00022 12.0049 5L12.0146 5C12.7023 5.00022 13.2598 5.55978 13.2598 6.25C13.2598 6.94022 12.7023 7.49978 12.0146 7.5L12.0049 7.5ZM12.0488 22.75C13.6574 22.75 14.9307 22.7496 15.9268 22.6348C16.9439 22.5175 17.7861 22.2706 18.4629 21.6904C19.1564 21.096 19.4685 20.3314 19.6133 19.4082C19.7505 18.5331 19.75 17.4235 19.75 16.0625L19.75 13.3496C19.75 13.067 19.7499 12.9257 19.6621 12.8379C19.5743 12.7501 19.433 12.75 19.1504 12.75L4.84961 12.75C4.56703 12.75 4.42572 12.7501 4.33789 12.8379C4.25006 12.9257 4.25 13.067 4.25 13.3496L4.25 16.0625C4.24997 17.4235 4.24946 18.5331 4.38672 19.4082C4.53154 20.3314 4.84362 21.096 5.53711 21.6904C6.21392 22.2706 7.05614 22.5175 8.07324 22.6348C9.06926 22.7495 10.3426 22.75 11.9512 22.75L12.0488 22.75ZM9.50098 18C8.81134 18 8.25195 17.4404 8.25195 16.75C8.25195 16.0596 8.81134 15.5 9.50098 15.5L9.50976 15.5C10.1993 15.5001 10.7588 16.0597 10.7588 16.75C10.7588 17.4403 10.1993 17.9999 9.50976 18L9.50098 18ZM14.4941 20C13.8046 19.9999 13.2451 19.4403 13.2451 18.75C13.2451 18.0597 13.8046 17.5001 14.4941 17.5L14.5029 17.5C15.1926 17.5 15.752 18.0596 15.752 18.75C15.7519 19.4404 15.1926 20 14.5029 20L14.4941 20Z" fill="currentColor" fill-rule="evenodd" clip-rule="evenodd"/></svg>
