<svg xmlns="http://www.w3.org/2000/svg" viewBox="0 0 24 24" fill="none"><path d="M1.54302 1.54253C1.93355 1.152 2.56656 1.152 2.95709 1.54253L22.4571 21.0425C22.8476 21.4331 22.8476 22.0661 22.4571 22.4566C22.0666 22.8471 21.4335 22.8471 21.043 22.4566L1.54302 2.95659C1.1525 2.56607 1.1525 1.93305 1.54302 1.54253Z" fill="currentColor"/><path d="M8.00394 8.00354C7.99988 8.11368 7.99968 8.22027 8.00004 8.31897V17.9996C8.00004 18.5518 8.44794 18.9994 9.00004 18.9996C9.55227 18.9996 10 18.5519 10 17.9996V13.9996H13C13.3087 13.9996 13.6089 13.9633 13.8975 13.8971L19.6016 19.6012C17.6563 21.5466 14.9686 22.7496 12 22.7496C6.06298 22.7496 1.25004 17.9367 1.25004 11.9996C1.25004 9.03107 2.45307 6.34344 4.39848 4.39807L8.00394 8.00354Z" fill="currentColor"/><path d="M12 1.24963C17.937 1.2497 22.75 6.06261 22.75 11.9996C22.75 14.0622 22.1673 15.9881 21.1602 17.6246L16.083 12.5475C16.6555 11.8555 17 10.9679 17 9.99963C16.9998 7.79073 15.209 5.9997 13 5.99963H10.3194C10.0974 5.99882 9.83529 5.99858 9.58305 6.04749L6.37406 2.8385C8.01068 1.83131 9.93735 1.24963 12 1.24963Z" fill="currentColor"/><path d="M12 11.9996H10V9.99963L12 11.9996Z" fill="currentColor"/><path d="M13 7.99963C14.1044 7.9997 14.9998 8.8953 15 9.99963C15 10.415 14.8721 10.8 14.6553 11.1198L11.5352 7.99963H13Z" fill="currentColor"/></svg>
