<svg xmlns="http://www.w3.org/2000/svg" viewBox="0 0 24 24" fill="none"><path d="M14.7373 7.32324C15.0655 6.99509 15.25 6.55001 15.25 6.08594V5.5V5.47374C15.25 5.0314 15.25 4.64961 15.2217 4.33692C15.1918 4.00788 15.1255 3.68208 14.9482 3.375C14.7508 3.03306 14.4669 2.74921 14.125 2.55176C13.8179 2.37447 13.4921 2.30818 13.1631 2.27832C12.8504 2.24998 12.4686 2.24999 12.0262 2.25H12H11.9738C11.5314 2.24999 11.1496 2.24998 10.8369 2.27832C10.5079 2.30818 10.1821 2.37447 9.875 2.55176C9.53306 2.74921 9.24921 3.03306 9.05176 3.375C8.87447 3.68208 8.80818 4.00788 8.77832 4.33692C8.74998 4.64963 8.74999 5.03143 8.75 5.47379V5.5V6.08594C8.75004 6.55001 8.93454 6.99509 9.2627 7.32324L10.6162 8.67676C10.9832 9.04376 11.481 9.25 12 9.25C12.519 9.25 13.0168 9.04376 13.3838 8.67676L14.7373 7.32324Z" fill="currentColor"/><path d="M14.7373 16.677C15.0655 17.0052 15.25 17.4502 15.25 17.9143V18.5002V18.5265C15.25 18.9688 15.25 19.3506 15.2217 19.6633C15.1918 19.9924 15.1255 20.3182 14.9482 20.6252C14.7508 20.9672 14.4669 21.251 14.125 21.4485C13.8179 21.6258 13.4921 21.6921 13.1631 21.7219C12.8504 21.7503 12.4686 21.7503 12.0262 21.7502H12H11.9738C11.5314 21.7503 11.1496 21.7503 10.8369 21.7219C10.5079 21.6921 10.1821 21.6258 9.875 21.4485C9.53306 21.251 9.24921 20.9672 9.05176 20.6252C8.87447 20.3182 8.80818 19.9924 8.77832 19.6633C8.74998 19.3506 8.74999 18.9688 8.75 18.5265V18.5002V17.9143C8.75004 17.4502 8.93454 17.0052 9.2627 16.677L10.6162 15.3235C10.9832 14.9565 11.481 14.7502 12 14.7502C12.519 14.7502 13.0168 14.9565 13.3838 15.3235L14.7373 16.677Z" fill="currentColor"/><path opacity="0.4" d="M21.75 12.0263V12V11.9737C21.75 11.5314 21.75 11.1496 21.7217 10.8369C21.6918 10.5079 21.6255 10.1821 21.4482 9.875C21.2508 9.53306 20.9669 9.24921 20.625 9.05176C20.3179 8.87447 19.9921 8.80818 19.6631 8.77832C19.3504 8.74998 18.9686 8.74999 18.5262 8.75H18.5H17.9141C17.45 8.75004 17.0049 8.93454 16.6768 9.2627L15.3232 10.6162C14.9562 10.9832 14.75 11.481 14.75 12C14.75 12.519 14.9562 13.0168 15.3232 13.3838L16.6768 14.7373C17.0049 15.0655 17.45 15.25 17.9141 15.25H18.5H18.5263C18.9686 15.25 19.3504 15.25 19.6631 15.2217C19.9921 15.1918 20.3179 15.1255 20.625 14.9482C20.9669 14.7508 21.2508 14.4669 21.4482 14.125C21.6255 13.8179 21.6918 13.4921 21.7217 13.1631C21.75 12.8504 21.75 12.4686 21.75 12.0263Z" fill="currentColor"/><path opacity="0.4" d="M8.67676 13.3838C9.04376 13.0168 9.25 12.519 9.25 12C9.25 11.481 9.04376 10.9832 8.67676 10.6162L7.32324 9.2627C6.99509 8.93454 6.55001 8.75004 6.08594 8.75H5.5H5.47379C5.03143 8.74999 4.64963 8.74998 4.33692 8.77832C4.00788 8.80818 3.68208 8.87447 3.375 9.05176C3.03306 9.24921 2.74921 9.53306 2.55176 9.875C2.37447 10.1821 2.30818 10.5079 2.27832 10.8369C2.24998 11.1496 2.24999 11.5314 2.25 11.9738V12V12.0262C2.24999 12.4686 2.24998 12.8504 2.27832 13.1631C2.30818 13.4921 2.37447 13.8179 2.55176 14.125C2.74921 14.4669 3.03306 14.7508 3.375 14.9482C3.68208 15.1255 4.00788 15.1918 4.33692 15.2217C4.64961 15.25 5.0314 15.25 5.47374 15.25H5.5H6.08594C6.55001 15.25 6.99509 15.0655 7.32324 14.7373L8.67676 13.3838Z" fill="currentColor"/></svg>
