<svg xmlns="http://www.w3.org/2000/svg" viewBox="0 0 24 24" fill="none"><path d="M14.7368 7.32324C15.065 6.99509 15.2495 6.55001 15.2495 6.08594V5.5V5.47374C15.2495 5.0314 15.2495 4.64961 15.2212 4.33692C15.1913 4.00788 15.125 3.68208 14.9478 3.375C14.7503 3.03306 14.4664 2.74921 14.1245 2.55176C13.8174 2.37447 13.4916 2.30818 13.1626 2.27832C12.8499 2.24998 12.4681 2.24999 12.0257 2.25H11.9995H11.9733C11.5309 2.24999 11.1491 2.24998 10.8364 2.27832C10.5074 2.30818 10.1816 2.37447 9.87451 2.55176C9.53258 2.74921 9.24872 3.03306 9.05127 3.375C8.87398 3.68208 8.80769 4.00788 8.77783 4.33692C8.74949 4.64963 8.7495 5.03143 8.74951 5.47379V5.5V6.08594C8.74955 6.55001 8.93405 6.99509 9.26221 7.32324L10.6157 8.67676C10.9827 9.04376 11.4805 9.25 11.9995 9.25C12.5186 9.25 13.0163 9.04376 13.3833 8.67676L14.7368 7.32324Z" fill="currentColor"/><path d="M14.7368 16.677C15.065 17.0052 15.2495 17.4502 15.2495 17.9143V18.5002V18.5265C15.2495 18.9688 15.2495 19.3506 15.2212 19.6633C15.1913 19.9924 15.125 20.3182 14.9478 20.6252C14.7503 20.9672 14.4664 21.251 14.1245 21.4485C13.8174 21.6258 13.4916 21.6921 13.1626 21.7219C12.8499 21.7503 12.4681 21.7503 12.0257 21.7502H11.9995H11.9733C11.5309 21.7503 11.1491 21.7503 10.8364 21.7219C10.5074 21.6921 10.1816 21.6258 9.87451 21.4485C9.53258 21.251 9.24872 20.9672 9.05127 20.6252C8.87398 20.3182 8.80769 19.9924 8.77783 19.6633C8.74949 19.3506 8.7495 18.9688 8.74951 18.5265V18.5002V17.9143C8.74955 17.4502 8.93405 17.0052 9.26221 16.677L10.6157 15.3235C10.9827 14.9565 11.4805 14.7502 11.9995 14.7502C12.5186 14.7502 13.0163 14.9565 13.3833 15.3235L14.7368 16.677Z" fill="currentColor"/><path d="M21.7495 12.0263V12V11.9737C21.7495 11.5314 21.7495 11.1496 21.7212 10.8369C21.6913 10.5079 21.625 10.1821 21.4478 9.875C21.2503 9.53306 20.9664 9.24921 20.6245 9.05176C20.3174 8.87447 19.9916 8.80818 19.6626 8.77832C19.3499 8.74998 18.9681 8.74999 18.5257 8.75H18.4995H17.9136C17.4495 8.75004 17.0044 8.93454 16.6763 9.2627L15.3228 10.6162C14.9557 10.9832 14.7495 11.481 14.7495 12C14.7495 12.519 14.9557 13.0168 15.3228 13.3838L16.6763 14.7373C17.0044 15.0655 17.4495 15.25 17.9136 15.25H18.4995H18.5258C18.9681 15.25 19.3499 15.25 19.6626 15.2217C19.9916 15.1918 20.3174 15.1255 20.6245 14.9482C20.9664 14.7508 21.2503 14.4669 21.4478 14.125C21.625 13.8179 21.6913 13.4921 21.7212 13.1631C21.7495 12.8504 21.7495 12.4686 21.7495 12.0263Z" fill="currentColor"/><path d="M8.67627 13.3838C9.04328 13.0168 9.24951 12.519 9.24951 12C9.24951 11.481 9.04328 10.9832 8.67627 10.6162L7.32275 9.2627C6.9946 8.93454 6.54952 8.75004 6.08545 8.75H5.49951H5.4733C5.03094 8.74999 4.64914 8.74998 4.33643 8.77832C4.0074 8.80818 3.68159 8.87447 3.37451 9.05176C3.03258 9.24921 2.74872 9.53306 2.55127 9.875C2.37398 10.1821 2.30769 10.5079 2.27783 10.8369C2.24949 11.1496 2.2495 11.5314 2.24951 11.9738V12V12.0262C2.2495 12.4686 2.24949 12.8504 2.27783 13.1631C2.30769 13.4921 2.37398 13.8179 2.55127 14.125C2.74872 14.4669 3.03258 14.7508 3.37451 14.9482C3.68159 15.1255 4.0074 15.1918 4.33643 15.2217C4.64913 15.25 5.03091 15.25 5.47325 15.25H5.49951H6.08545C6.54953 15.25 6.9946 15.0655 7.32275 14.7373L8.67627 13.3838Z" fill="currentColor"/></svg>
