<svg xmlns="http://www.w3.org/2000/svg" viewBox="0 0 24 24" fill="none"><path opacity="0.4" d="M22.75 10.0528V10V9.94722C22.75 9.28354 22.75 8.7397 22.7139 8.29688C22.676 7.83363 22.5946 7.41515 22.3955 7.02442C22.0839 6.41305 21.587 5.91606 20.9756 5.60449C20.5849 5.40541 20.1664 5.32399 19.7031 5.28614C19.2603 5.24996 18.7165 5.24998 18.0528 5.25L18 5.25H6L5.9472 5.25C5.28353 5.24998 4.73969 5.24996 4.29688 5.28614C3.83363 5.32399 3.41515 5.40541 3.02442 5.60449C2.41305 5.91606 1.91606 6.41305 1.60449 7.02442C1.40541 7.41515 1.32399 7.83363 1.28614 8.29688C1.24996 8.73969 1.24998 9.28353 1.25 9.9472L1.25 10L1.25 10.0528C1.24998 10.7165 1.24996 11.2603 1.28614 11.7031C1.32399 12.1664 1.40541 12.5849 1.60449 12.9756C1.91606 13.587 2.41305 14.084 3.02442 14.3955C3.41515 14.5946 3.83363 14.676 4.29688 14.7139C4.73969 14.75 5.28352 14.75 5.94717 14.75L6 14.75H18L18.0528 14.75C18.7165 14.75 19.2603 14.75 19.7031 14.7139C20.1664 14.676 20.5849 14.5946 20.9756 14.3955C21.587 14.084 22.0839 13.587 22.3955 12.9756C22.5946 12.5849 22.676 12.1664 22.7139 11.7031C22.75 11.2603 22.75 10.7165 22.75 10.0528Z" fill="currentColor"/><path d="M8.31055 5.25L17.8105 14.75H15.6895L6.18945 5.25H8.31055Z" fill="currentColor"/><path d="M11.8105 14.75H9.68945L1.7334 6.79395C1.99934 6.36267 2.36267 5.99934 2.79395 5.7334L11.8105 14.75Z" fill="currentColor"/><path d="M14.3105 5.25L22.2656 13.2051C21.9996 13.6366 21.6366 13.9996 21.2051 14.2656L12.1895 5.25H14.3105Z" fill="currentColor"/><path d="M5 14.7432C5.28464 14.7484 5.59954 14.75 5.94727 14.75H7V21C7 21.5523 6.55228 22 6 22C5.44772 22 5 21.5523 5 21V14.7432Z" fill="currentColor"/><path d="M19 21C19 21.5523 18.5523 22 18 22C17.4477 22 17 21.5523 17 21V14.75H18.0527C18.4005 14.75 18.7154 14.7484 19 14.7432V21Z" fill="currentColor"/><path d="M6 2C6.55228 2 7 2.44772 7 3V5.25H5.94727C5.59953 5.24999 5.28464 5.25066 5 5.25586V3C5 2.44772 5.44772 2 6 2Z" fill="currentColor"/><path d="M18 2C18.5523 2 19 2.44772 19 3V5.25586C18.7154 5.25066 18.4005 5.24999 18.0527 5.25H17V3C17 2.44772 17.4477 2 18 2Z" fill="currentColor"/></svg>
