<svg xmlns="http://www.w3.org/2000/svg" viewBox="0 0 24 24" fill="none"><path d="M9.68897 14.75H6.99951V21C6.99951 21.5523 6.5518 22 5.99951 22C5.44723 22 4.99951 21.5523 4.99951 21V14.7432C4.7409 14.7384 4.50717 14.7311 4.29639 14.7139C3.83314 14.676 3.41466 14.5946 3.02393 14.3955C2.41256 14.0839 1.91557 13.587 1.60401 12.9756C1.40492 12.5849 1.3235 12.1664 1.28565 11.7031C1.24947 11.2603 1.24949 10.7164 1.24951 10.0527V9.94727C1.24949 9.2836 1.24947 8.73969 1.28565 8.29688C1.3235 7.83362 1.40492 7.41515 1.60401 7.02441C1.6441 6.94574 1.68683 6.86868 1.73291 6.79395L9.68897 14.75ZM21.2046 14.2656C21.1299 14.3116 21.0537 14.3555 20.9751 14.3955C20.5844 14.5946 20.1659 14.676 19.7026 14.7139C19.4919 14.7311 19.2581 14.7384 18.9995 14.7432V21C18.9995 21.5523 18.5518 22 17.9995 22C17.4472 22 16.9995 21.5523 16.9995 21V14.75H17.8101L8.31006 5.25H12.189L21.2046 14.2656ZM4.99951 5.25488V3C4.99951 2.44772 5.44723 2 5.99951 2C6.5518 2 6.99951 2.44772 6.99951 3V5.25H6.18897L15.689 14.75H11.8101L2.79346 5.7334C2.8682 5.68731 2.94525 5.64459 3.02393 5.60449C3.41466 5.4054 3.83314 5.32398 4.29639 5.28613C4.50718 5.26891 4.74089 5.2596 4.99951 5.25488ZM18.9995 5.25488C19.2581 5.2596 19.4918 5.26891 19.7026 5.28613C20.1659 5.32398 20.5844 5.4054 20.9751 5.60449C21.5865 5.91605 22.0835 6.41305 22.395 7.02441C22.5941 7.41515 22.6755 7.83362 22.7134 8.29688C22.7496 8.7397 22.7495 9.28359 22.7495 9.94727V10.0527C22.7495 10.7164 22.7496 11.2603 22.7134 11.7031C22.6755 12.1664 22.5941 12.5849 22.395 12.9756C22.355 13.0542 22.3112 13.1304 22.2651 13.2051L14.3101 5.25H16.9995V3C16.9995 2.44772 17.4472 2 17.9995 2C18.5518 2 18.9995 2.44772 18.9995 3V5.25488Z" fill="currentColor" fill-rule="evenodd" clip-rule="evenodd"/></svg>
