<svg xmlns="http://www.w3.org/2000/svg" viewBox="0 0 24 24" fill="none"><path opacity="0.4" d="M22.3888 16.1612C22.7636 15.2563 22.7501 14.2603 22.7501 12.6866V11.3135C22.7501 9.73986 22.7636 8.74385 22.3888 7.83893C22.014 6.93412 21.3002 6.2396 20.1876 5.12701L18.8732 3.81256C17.7606 2.69997 17.0661 1.98621 16.1613 1.61139C15.2563 1.23656 14.2603 1.25006 12.6866 1.25006H11.3136C9.73993 1.25006 8.74391 1.23656 7.83899 1.61139C6.93419 1.98621 6.23966 2.69997 5.12708 3.81256L3.81262 5.12701C2.70003 6.2396 1.98627 6.93412 1.61145 7.83893C1.23662 8.74385 1.25012 9.73986 1.25012 11.3135V12.6866C1.25012 14.2603 1.23662 15.2563 1.61145 16.1612C1.98627 17.066 2.70003 17.7605 3.81262 18.8731L5.12708 20.1876C6.23965 21.3001 6.93419 22.0139 7.83899 22.3887C8.74391 22.7636 9.73993 22.7501 11.3136 22.7501H12.6866C14.2603 22.7501 15.2563 22.7636 16.1613 22.3887C17.0661 22.0139 17.7606 21.3001 18.8732 20.1876L20.1876 18.8731C21.3002 17.7605 22.014 17.066 22.3888 16.1612Z" fill="currentColor"/><path d="M14.2931 8.29289C14.6836 7.90237 15.3166 7.90237 15.7071 8.29289C16.0977 8.68342 16.0977 9.31643 15.7071 9.70696L13.4142 11.9999L15.7071 14.2929C16.0977 14.6834 16.0977 15.3164 15.7071 15.707C15.3166 16.0975 14.6836 16.0975 14.2931 15.707L12.0001 13.414L9.70714 15.707C9.31661 16.0975 8.6836 16.0975 8.29308 15.707C7.90255 15.3164 7.90255 14.6834 8.29308 14.2929L10.586 11.9999L8.29308 9.70696C7.90255 9.31643 7.90255 8.68342 8.29308 8.29289C8.6836 7.90237 9.31661 7.90237 9.70714 8.29289L12.0001 10.5859L14.2931 8.29289Z" fill="currentColor"/></svg>
