<svg xmlns="http://www.w3.org/2000/svg" viewBox="0 0 24 24" fill="none"><path d="M12.6866 1.25006C14.2603 1.25006 15.2564 1.23659 16.1613 1.61139C17.066 1.9862 17.7606 2.70001 18.8732 3.81256L20.1876 5.12701C21.3002 6.23957 22.014 6.93416 22.3888 7.83893C22.7636 8.74383 22.7501 9.7399 22.7501 11.3135V12.6866C22.7501 14.2602 22.7636 15.2563 22.3888 16.1612C22.014 17.066 21.3002 17.7605 20.1876 18.8731L18.8732 20.1876C17.7606 21.3001 17.0661 22.0139 16.1613 22.3887C15.2563 22.7635 14.2603 22.7501 12.6866 22.7501H11.3136C9.73996 22.7501 8.7439 22.7636 7.83899 22.3887C6.93422 22.0139 6.23962 21.3001 5.12708 20.1876L3.81262 18.8731C2.70007 17.7606 1.98626 17.066 1.61145 16.1612C1.23665 15.2563 1.25012 14.2602 1.25012 12.6866V11.3135C1.25012 9.7399 1.23663 8.74383 1.61145 7.83893C1.98627 6.93414 2.70005 6.23958 3.81262 5.12701L5.12708 3.81256C6.23965 2.69999 6.9342 1.98621 7.83899 1.61139C8.7439 1.23656 9.73996 1.25006 11.3136 1.25006H12.6866ZM15.7072 8.29303C15.3166 7.90251 14.6836 7.90251 14.2931 8.29303L12.0001 10.586L9.70715 8.29303C9.31663 7.90251 8.68362 7.90251 8.29309 8.29303C7.90263 8.68356 7.90259 9.31659 8.29309 9.70709L10.5861 12.0001L8.29309 14.293C7.90263 14.6836 7.90259 15.3166 8.29309 15.7071C8.6836 16.0976 9.31663 16.0976 9.70715 15.7071L12.0001 13.4141L14.2931 15.7071C14.6836 16.0976 15.3166 16.0976 15.7072 15.7071C16.0977 15.3166 16.0977 14.6836 15.7072 14.293L13.4142 12.0001L15.7072 9.70709C16.0977 9.31657 16.0977 8.68356 15.7072 8.29303Z" fill="currentColor" fill-rule="evenodd" clip-rule="evenodd"/></svg>
