<svg xmlns="http://www.w3.org/2000/svg" viewBox="0 0 24 24" fill="none"><path opacity="0.4" d="M12.5391 1.25C14.1978 1.24996 15.5474 1.24959 16.6113 1.40235C17.7268 1.56255 18.6703 1.90792 19.4141 2.70215C20.1499 3.48819 20.4621 4.47143 20.6084 5.63379C20.7499 6.75794 20.75 8.18858 20.75 9.96973V18.3525C20.7499 20.7812 18.7912 22.75 16.375 22.75H7.625C5.20884 22.75 3.25014 20.7812 3.25 18.3525V9.96973C3.24997 8.18857 3.25013 6.75795 3.3916 5.63379C3.53793 4.47143 3.8501 3.48819 4.58594 2.70215C5.32972 1.90792 6.27319 1.56255 7.38867 1.40235C8.4526 1.24959 9.80224 1.24996 11.4609 1.25H12.5391ZM7.62598 15.9082C6.28362 15.9082 5.19531 17.0022 5.19531 18.3516C5.19541 19.7008 6.28368 20.7949 7.62598 20.7949H16.376C17.7182 20.7949 18.8065 19.7008 18.8066 18.3516C18.8066 17.0023 17.7183 15.9083 16.376 15.9082H7.62598Z" fill="currentColor" fill-rule="evenodd" clip-rule="evenodd"/><path d="M10 5C10.5523 5 11 5.44772 11 6C11 6.55229 10.5523 7 10 7L8 7C7.44772 7 7 6.55228 7 6C7 5.44772 7.44772 5 8 5L10 5Z" fill="currentColor"/><path d="M10 9C10.5523 9 11 9.44772 11 10C11 10.5523 10.5523 11 10 11L8 11C7.44772 11 7 10.5523 7 10C7 9.44772 7.44772 9 8 9L10 9Z" fill="currentColor"/><path d="M16 17.3514C16.5523 17.3514 17 17.7991 17 18.3514C17 18.9037 16.5523 19.3514 16 19.3514C15.4477 19.3514 15 18.9037 15 18.3514C15 17.7991 15.4477 17.3514 16 17.3514Z" fill="currentColor"/></svg>
