<svg xmlns="http://www.w3.org/2000/svg" viewBox="0 0 24 24" fill="none"><path opacity="0.4" d="M21.2501 12.5501V12.5001V10.5001V10.4442C21.2501 9.30319 21.2501 8.31584 21.2149 7.46887C21.1982 7.06716 20.867 6.75012 20.4649 6.75012H2.53522C2.18347 6.75012 1.88577 6.99267 1.80573 7.32239L1.78522 7.46887C1.75005 8.31585 1.75006 9.30321 1.75007 10.4442V10.5001V12.5001V12.5501C1.75005 14.3909 1.75004 15.8488 1.90339 16.9894C2.06103 18.1617 2.39336 19.1102 3.14167 19.8585C3.88998 20.6068 4.8385 20.9392 6.01081 21.0968C7.15136 21.2501 8.60931 21.2501 10.4501 21.2501H10.5001H12.5001H12.55C14.3908 21.2501 15.8488 21.2501 16.9893 21.0968C18.1616 20.9392 19.1102 20.6068 19.8585 19.8585C20.6068 19.1102 20.9391 18.1617 21.0967 16.9894C21.2501 15.8488 21.2501 14.3909 21.2501 12.5501Z" fill="currentColor"/><path d="M19.2178 15.2258C18.9656 14.5917 18.0345 14.5917 17.7823 15.2258L17.7393 15.3713C17.5109 16.489 16.6774 17.3782 15.5919 17.6857L15.3712 17.7394C14.5431 17.9089 14.5431 19.0914 15.3712 19.2609C16.5634 19.5046 17.4956 20.4369 17.7393 21.6291C17.9088 22.4571 19.0913 22.4571 19.2608 21.6291C19.5045 20.4369 20.4368 19.5046 21.629 19.2609C22.457 19.0914 22.457 17.9089 21.629 17.7394C20.5113 17.511 19.622 16.6776 19.3145 15.592L19.2608 15.3713L19.2178 15.2258Z" fill="currentColor"/><path d="M12.549 1.75012H12.4991H10.4991H10.4493C8.60852 1.75011 7.15038 1.7501 6.00983 1.90344C4.83762 2.0611 3.88896 2.39346 3.14069 3.14172C2.11195 4.17054 1.86336 5.58756 1.78522 7.46887L1.75202 8.25012H21.2462L21.2139 7.46887C21.1358 5.58773 20.887 4.17052 19.8585 3.14172C19.1101 2.39338 18.1607 2.06107 16.9883 1.90344C15.8478 1.7501 14.3898 1.75011 12.549 1.75012Z" fill="currentColor"/></svg>
