<svg xmlns="http://www.w3.org/2000/svg" viewBox="0 0 24 24" fill="none"><path d="M19.3001 10.5251V12.4751C19.3001 13.0136 19.7366 13.4501 20.2751 13.4501C20.8135 13.4501 21.2501 13.0136 21.2501 12.4751V10.5251V10.4508C21.2501 8.67432 21.2501 7.24215 21.0987 6.11572C20.9413 4.94563 20.6043 3.96081 19.8218 3.17835C19.0394 2.39588 18.0546 2.05884 16.8845 1.90152C15.758 1.75007 14.3258 1.75009 12.5493 1.75012H12.4751H10.5251H10.4508C8.6743 1.75009 7.24211 1.75007 6.11567 1.90152C4.94558 2.05884 3.96076 2.39588 3.17829 3.17835C2.39583 3.96081 2.05879 4.94563 1.90146 6.11572C1.75002 7.24217 1.75004 8.67436 1.75007 10.4509V10.5251V12.4751V12.5494C1.75004 14.3259 1.75002 15.7581 1.90146 16.8845C2.05879 18.0546 2.39583 19.0394 3.17829 19.8219C3.96076 20.6044 4.94558 20.9414 6.11567 21.0987C7.2421 21.2502 8.67427 21.2502 10.4508 21.2501H10.5251H12.4751C13.0135 21.2501 13.4501 20.8136 13.4501 20.2751C13.4501 19.7366 13.0135 19.3001 12.4751 19.3001H10.5251C8.65903 19.3001 7.35756 19.2979 6.37561 19.1659C5.42172 19.0376 4.91679 18.803 4.557 18.4432C4.19722 18.0834 3.96257 17.5785 3.83432 16.6246C3.7023 15.6426 3.70007 14.3412 3.70007 12.4751V10.5251C3.70007 9.79317 3.70314 8.14813 3.7115 7.57512H19.2886C19.297 8.14813 19.3001 9.79317 19.3001 10.5251Z" fill="currentColor"/><path d="M19.2178 15.2258C18.9656 14.5917 18.0345 14.5917 17.7823 15.2258L17.7393 15.3713C17.5109 16.489 16.6775 17.3782 15.5919 17.6857L15.3712 17.7394C14.5431 17.9089 14.5431 19.0914 15.3712 19.2609C16.5634 19.5046 17.4956 20.4369 17.7393 21.6291C17.9088 22.4571 19.0913 22.4571 19.2608 21.6291C19.5045 20.4369 20.4368 19.5046 21.629 19.2609C22.457 19.0914 22.457 17.9089 21.629 17.7394C20.5113 17.511 19.622 16.6776 19.3145 15.592L19.2608 15.3713L19.2178 15.2258Z" fill="currentColor"/></svg>
