<svg xmlns="http://www.w3.org/2000/svg" viewBox="0 0 24 24" fill="none"><path opacity="0.4" d="M19.251 6.94632V15.7143L5.72083 2.18413C6.24653 1.66821 6.90253 1.44977 7.65786 1.34822C8.38871 1.24996 9.31445 1.24998 10.4472 1.25H13.5547C14.6875 1.24998 15.6132 1.24996 16.3441 1.34822C17.108 1.45093 17.7704 1.67321 18.2991 2.20191C18.8278 2.7306 19.0501 3.39294 19.1528 4.15689C19.251 4.88775 19.251 5.81348 19.251 6.94632Z" fill="currentColor"/><path d="M1.54302 1.54289C1.93354 1.15237 2.5667 1.15237 2.95723 1.54289L22.4572 21.0429C22.8478 21.4334 22.8478 22.0666 22.4572 22.4571C22.0667 22.8476 21.4335 22.8476 21.043 22.4571L1.54302 2.95711C1.15249 2.56658 1.15249 1.93342 1.54302 1.54289Z" fill="currentColor" fill-rule="evenodd" clip-rule="evenodd"/><path d="M19.212 19.2119C19.1979 19.4367 19.1779 19.6474 19.1515 19.8438C19.0488 20.6077 18.8267 21.2701 18.298 21.7988C17.7693 22.3275 17.1068 22.5496 16.3429 22.6523C15.6121 22.7506 14.6864 22.751 13.5538 22.751H10.4464C9.3138 22.751 8.38814 22.7506 7.65735 22.6523C6.89343 22.5496 6.23095 22.3275 5.70227 21.7988C5.17358 21.2701 4.95147 20.6077 4.84876 19.8438C4.75052 19.113 4.7501 18.1874 4.75012 17.0547V6.94727C4.75011 6.11876 4.74977 5.40079 4.78821 4.78906L19.212 19.2119ZM12.0001 18C11.4478 18 11.0001 18.4477 11.0001 19C11.0001 19.5523 11.4478 20 12.0001 20C12.5524 20 13.0001 19.5523 13.0001 19C13.0001 18.4477 12.5524 18 12.0001 18Z" fill="currentColor" fill-rule="evenodd" clip-rule="evenodd"/></svg>
