<svg xmlns="http://www.w3.org/2000/svg" viewBox="0 0 24 24" fill="none"><path d="M1.54302 1.54289C1.93354 1.15237 2.5667 1.15237 2.95723 1.54289L22.4572 21.0429C22.8478 21.4334 22.8478 22.0666 22.4572 22.4571C22.0667 22.8476 21.4335 22.8476 21.043 22.4571L1.54302 2.95711C1.15249 2.56658 1.15249 1.93342 1.54302 1.54289Z" fill="currentColor" fill-rule="evenodd" clip-rule="evenodd"/><path d="M19.212 19.2119C19.1979 19.4364 19.1779 19.6466 19.1515 19.8428C19.0488 20.6067 18.8267 21.2692 18.298 21.7979C17.7693 22.3265 17.1068 22.5487 16.3429 22.6514C15.6121 22.7496 14.6865 22.75 13.5538 22.75H10.4464C9.31375 22.75 8.38816 22.7496 7.65735 22.6514C6.8934 22.5487 6.23097 22.3265 5.70227 21.7979C5.17358 21.2692 4.95147 20.6067 4.84876 19.8428C4.75053 19.112 4.7501 18.1864 4.75012 17.0537V6.94629C4.75011 6.11775 4.74977 5.39984 4.78821 4.78809L19.212 19.2119ZM12.0001 18C11.4478 18 11.0001 18.4477 11.0001 19C11.0001 19.5523 11.4478 20 12.0001 20C12.5524 20 13.0001 19.5523 13.0001 19C13.0001 18.4477 12.5524 18 12.0001 18ZM13.5538 1.25C14.6865 1.24998 15.6121 1.25041 16.3429 1.34863C17.1068 1.45134 17.7693 1.67346 18.298 2.20215C18.8267 2.73084 19.0488 3.39328 19.1515 4.15723C19.2497 4.88804 19.2501 5.81361 19.2501 6.94629V15.7139L5.71985 2.18457C6.24556 1.66865 6.90202 1.45019 7.65735 1.34863C8.38816 1.25041 9.31375 1.24998 10.4464 1.25H13.5538Z" fill="currentColor" fill-rule="evenodd" clip-rule="evenodd"/></svg>
