<svg xmlns="http://www.w3.org/2000/svg" viewBox="0 0 24 24" fill="none"><path d="M14.7413 11.2344C15.0062 11.09 15.5075 10.8729 16.0607 11.0928L16.172 11.1426L16.2784 11.2021C16.7843 11.5131 16.9115 12.0427 16.9552 12.3408C17.0029 12.6668 17.0001 13.0847 17.0001 13.4883V18.999H18.0001C18.5524 18.999 19.0001 19.4467 19.0001 19.999C19.0001 20.5513 18.5524 20.999 18.0001 20.999H16.0206C16.0138 20.9992 16.007 21 16.0001 21C15.9933 21 15.9864 20.9992 15.9796 20.999H14.0001C13.4478 20.999 13.0001 20.5513 13.0001 19.999C13.0001 19.4467 13.4478 18.999 14.0001 18.999H15.0001V13.4883C15.0001 13.4872 14.9992 13.4855 14.9991 13.4844L14.6007 13.7861C14.1595 14.1175 13.5332 14.0287 13.2013 13.5879C12.8694 13.1465 12.9582 12.5195 13.3995 12.1875L13.799 11.8867C14.1207 11.6448 14.4523 11.392 14.7413 11.2344ZM12.0001 2.99902C13.4936 2.99902 14.8354 3.65504 15.7501 4.69141C16.1154 5.10534 16.0759 5.73705 15.6622 6.10254C15.2482 6.468 14.6156 6.42872 14.2501 6.01465C13.699 5.39034 12.8959 4.99902 12.0001 4.99902C10.3433 4.99902 9.00012 6.34217 9.00012 7.99902V10.999H10.0001C10.5524 10.999 11.0001 11.4467 11.0001 11.999C11.0001 12.5513 10.5524 12.999 10.0001 12.999H9.00012V18.999H10.0001C10.5524 18.999 11.0001 19.4467 11.0001 19.999C11.0001 20.5513 10.5524 20.999 10.0001 20.999H6.00012C5.44784 20.999 5.00012 20.5513 5.00012 19.999C5.00012 19.4467 5.44784 18.999 6.00012 18.999H7.00012V12.999H6.00012C5.44784 12.999 5.00012 12.5513 5.00012 11.999C5.00012 11.4467 5.44784 10.999 6.00012 10.999H7.00012V7.99902C7.00012 5.2376 9.2387 2.99902 12.0001 2.99902Z" fill="currentColor"/></svg>
