<svg xmlns="http://www.w3.org/2000/svg" viewBox="0 0 24 24" fill="none"><path opacity="0.4" d="M18.4649 17.5514C20.4635 15.9622 21.7501 13.6258 21.7501 10.9996C21.7501 6.08654 17.2994 2.24963 12.0001 2.24963C6.7008 2.24963 2.25009 6.08654 2.25009 10.9996C2.25009 13.6258 3.53664 15.9622 5.53525 17.5514L5.73642 17.7115L5.79013 17.7545C5.80007 17.7625 5.80518 17.7669 5.80673 17.7682C6.00598 17.9366 6.09844 18.0597 6.15048 18.1676C6.20253 18.2755 6.24127 18.4244 6.24911 18.6852C6.24958 18.7007 6.25009 18.7421 6.25009 18.8658L6.25009 18.8778C6.25009 18.9866 6.25008 19.0697 6.254 19.1442C6.32795 20.5493 7.45048 21.6718 8.85556 21.7457C8.93002 21.7496 9.01323 21.7496 9.12212 21.7496H9.13388H14.8663H14.8781C14.987 21.7496 15.0702 21.7496 15.1446 21.7457C16.5497 21.6718 17.6722 20.5493 17.7462 19.1442C17.7501 19.0697 17.7501 18.9866 17.7501 18.8778V18.8658C17.7501 18.7422 17.7506 18.7007 17.7511 18.6852C17.7589 18.4244 17.7977 18.2755 17.8497 18.1676C17.9017 18.0597 17.9942 17.9366 18.1935 17.7682C18.195 17.7669 18.2001 17.7625 18.2101 17.7545L18.2638 17.7115L18.4649 17.5514Z" fill="currentColor"/><path d="M10.75 21.7496H9.25003V19.9996C9.25003 19.5854 9.58582 19.2496 10 19.2496C10.4142 19.2496 10.75 19.5854 10.75 19.9996V21.7496Z" fill="currentColor"/><path d="M14.75 21.7496H13.25V19.9996C13.25 19.5854 13.5858 19.2496 14 19.2496C14.4142 19.2496 14.75 19.5854 14.75 19.9996V21.7496Z" fill="currentColor"/><path d="M6.25009 10.9996C6.25009 10.0331 7.03359 9.24963 8.00009 9.24963C8.96659 9.24963 9.75009 10.0331 9.75009 10.9996C9.75009 11.9661 8.96659 12.7496 8.00009 12.7496C7.03359 12.7496 6.25009 11.9661 6.25009 10.9996Z" fill="currentColor"/><path d="M14.2501 10.9996C14.2501 10.0331 15.0336 9.24963 16.0001 9.24963C16.9666 9.24963 17.7501 10.0331 17.7501 10.9996C17.7501 11.9661 16.9666 12.7496 16.0001 12.7496C15.0336 12.7496 14.2501 11.9661 14.2501 10.9996Z" fill="currentColor"/><path d="M12.0001 13.2496C12.2842 13.2496 12.544 13.4106 12.671 13.6647L13.171 14.6647C13.2871 14.8971 13.2744 15.1732 13.1378 15.3942C13.0012 15.6151 12.76 15.7496 12.5001 15.7496H11.5001C11.2403 15.7496 10.9991 15.6151 10.8624 15.3942C10.7259 15.1732 10.7132 14.8971 10.8292 14.6647L11.3292 13.6647L11.383 13.5739C11.5216 13.3727 11.7515 13.2496 12.0001 13.2496Z" fill="currentColor"/></svg>
