<svg xmlns="http://www.w3.org/2000/svg" viewBox="0 0 24 24" fill="none"><path d="M12.0001 2.24963C17.2994 2.24963 21.7501 6.08654 21.7501 10.9996C21.7501 13.6258 20.4635 15.9622 18.4649 17.5514L18.2638 17.7115L18.2101 17.7545C18.2001 17.7625 18.195 17.7669 18.1935 17.7682C17.9942 17.9366 17.9017 18.0597 17.8497 18.1676C17.7977 18.2755 17.7589 18.4244 17.7511 18.6852C17.7506 18.7007 17.7501 18.7422 17.7501 18.8658V18.8776C17.7501 18.9864 17.7501 19.0697 17.7462 19.1442C17.6722 20.5493 16.5497 21.6718 15.1446 21.7457C15.0702 21.7496 14.9869 21.7496 14.878 21.7496H14.7501V19.9996C14.7501 19.5854 14.4143 19.2496 14.0001 19.2496C13.5859 19.2496 13.2501 19.5854 13.2501 19.9996V21.7496H10.7501V19.9996C10.7501 19.5854 10.4143 19.2496 10.0001 19.2496C9.58588 19.2496 9.25009 19.5854 9.25009 19.9996V21.7496H9.12216C9.01327 21.7496 8.93002 21.7496 8.85556 21.7457C7.45048 21.6718 6.32795 20.5493 6.254 19.1442C6.25008 19.0697 6.25009 18.9864 6.25009 18.8776V18.8658C6.25009 18.7421 6.24958 18.7007 6.24911 18.6852C6.24127 18.4244 6.20253 18.2755 6.15048 18.1676C6.09844 18.0597 6.00598 17.9366 5.80673 17.7682C5.80518 17.7669 5.80007 17.7625 5.79013 17.7545L5.73642 17.7115L5.53525 17.5514C3.53664 15.9622 2.25009 13.6258 2.25009 10.9996C2.25009 6.08654 6.7008 2.24963 12.0001 2.24963ZM12.0001 13.2496C11.7514 13.2497 11.5216 13.3728 11.3829 13.5739L11.3292 13.6647L10.8292 14.6647C10.7132 14.8971 10.7258 15.1732 10.8624 15.3942C10.9991 15.6151 11.2403 15.7496 11.5001 15.7496H12.5001C12.7599 15.7496 13.0011 15.6151 13.1378 15.3942C13.2744 15.1732 13.287 14.8971 13.171 14.6647L12.671 13.6647C12.5439 13.4106 12.2842 13.2496 12.0001 13.2496ZM8.00009 9.24963C7.03359 9.24963 6.25009 10.0331 6.25009 10.9996C6.25009 11.9661 7.03359 12.7496 8.00009 12.7496C8.96659 12.7496 9.75009 11.9661 9.75009 10.9996C9.75009 10.0331 8.96659 9.24963 8.00009 9.24963ZM16.0001 9.24963C15.0336 9.24963 14.2501 10.0331 14.2501 10.9996C14.2501 11.9661 15.0336 12.7496 16.0001 12.7496C16.9666 12.7496 17.7501 11.9661 17.7501 10.9996C17.7501 10.0331 16.9666 9.24963 16.0001 9.24963Z" fill="currentColor"/></svg>
