<svg xmlns="http://www.w3.org/2000/svg" viewBox="0 0 24 24" fill="none"><path d="M17.6974 17.5333C17.7538 17.2494 17.7501 16.9256 17.7501 16.4971V7.50005C17.7501 7.07153 17.7538 6.74774 17.6974 6.46392C17.4804 5.37302 16.6271 4.51978 15.5362 4.30278C15.2524 4.24639 14.9286 4.25005 14.5001 4.25005C14.0716 4.25005 13.7478 4.24639 13.464 4.30278C12.3731 4.51978 11.5198 5.37302 11.3028 6.46392C11.2464 6.74774 11.2501 7.07153 11.2501 7.50005V16.4971C11.2501 16.9256 11.2464 17.2494 11.3028 17.5333C11.5198 18.6242 12.3731 19.4774 13.464 19.6944C13.7478 19.7508 14.0716 19.7471 14.5001 19.7471C14.9286 19.7471 15.2524 19.7508 15.5362 19.6944C16.6271 19.4774 17.4804 18.6242 17.6974 17.5333Z" fill="currentColor"/><path d="M8.69738 14.5333C8.75378 14.2494 8.75011 13.9256 8.75011 13.4971V10.5C8.75011 10.0715 8.75377 9.74774 8.69738 9.46392C8.48038 8.37302 7.62714 7.51978 6.53624 7.30278C6.25242 7.24639 5.92863 7.25005 5.50011 7.25005C5.07159 7.25005 4.7478 7.24639 4.46398 7.30278C3.37308 7.51978 2.51984 8.37302 2.30284 9.46392C2.24645 9.74774 2.25011 10.0715 2.25011 10.5V13.4971C2.25011 13.9256 2.24644 14.2494 2.30284 14.5333C2.51984 15.6242 3.37308 16.4774 4.46398 16.6944C4.7478 16.7508 5.07159 16.7471 5.50011 16.7471C5.92863 16.7471 6.25242 16.7508 6.53624 16.6944C7.62714 16.4774 8.48038 15.6242 8.69738 14.5333Z" fill="currentColor"/><path d="M19.7501 21.75V2.25C19.7501 1.69772 20.1978 1.25 20.7501 1.25C21.3024 1.25 21.7501 1.69772 21.7501 2.25V21.75C21.7501 22.3023 21.3024 22.75 20.7501 22.75C20.1978 22.75 19.7501 22.3023 19.7501 21.75Z" fill="currentColor"/></svg>
