<svg xmlns="http://www.w3.org/2000/svg" viewBox="0 0 24 24" fill="none"><path opacity="0.4" d="M14.75 7.04678V7.00005V6.95332C14.75 6.05248 14.75 5.30107 14.6699 4.70512C14.5855 4.07751 14.3997 3.51107 13.9443 3.05571C13.489 2.60035 12.9225 2.41456 12.2949 2.33012C11.699 2.25 10.9476 2.25002 10.0467 2.25005L9.99998 2.25005H5.99999C5.1183 2.25005 4.5302 2.24376 4.02928 2.37798C2.73532 2.72475 1.72469 3.73538 1.37791 5.02934C1.24369 5.53026 1.24999 6.11836 1.24999 7.00005C1.24999 7.88173 1.24369 8.46983 1.37791 8.97075C1.72469 10.2647 2.73532 11.2753 4.02928 11.6221C4.5302 11.7563 5.1183 11.75 5.99999 11.75H9.99998H10.0467C10.9475 11.7501 11.699 11.7501 12.2949 11.67C12.9225 11.5855 13.489 11.3997 13.9443 10.9444C14.3997 10.489 14.5855 9.92258 14.6699 9.29497C14.75 8.69902 14.75 7.94761 14.75 7.04678Z" fill="currentColor"/><path opacity="0.4" d="M1.25 19V20C1.25 20.9665 2.0335 21.75 3 21.75H10C10.9665 21.75 11.75 20.9665 11.75 20C11.75 18.4812 10.5188 17.25 9 17.25H3C2.0335 17.25 1.25 18.0335 1.25 19Z" fill="currentColor"/><path d="M16 4.24985C16.4166 4.24985 16.7719 4.24396 17.082 4.327C17.8584 4.53502 18.4647 5.14152 18.6729 5.91782C18.68 5.94468 18.6855 5.97229 18.6914 5.99985H21.75C22.3023 5.99985 22.75 6.4476 22.75 6.99985C22.75 7.55213 22.3023 7.99985 21.75 7.99985H18.6914C18.6855 8.02746 18.6801 8.05496 18.6729 8.08188C18.4648 8.8583 17.8584 9.46462 17.082 9.6727C16.7719 9.75576 16.4166 9.74985 16 9.74985H15.8643C15.8821 9.65263 15.8965 9.55617 15.9092 9.46176C16.0044 8.75323 16 7.88721 16 6.99985C16 6.11248 16.0044 5.24642 15.9092 4.53793C15.8965 4.44349 15.8821 4.3471 15.8643 4.24985H16Z" fill="currentColor"/><path d="M3.70605 12.8291C4.22986 12.9694 4.80494 12.9959 5.39941 13H9.20801L8.35059 16H3C2.92907 16 2.85876 16.003 2.78906 16.0078L3.69824 12.8262C3.70065 12.8268 3.70363 12.8284 3.70605 12.8291Z" fill="currentColor"/><path d="M12 12C12 12.5177 12.3933 12.9438 12.8975 12.9951L13.1025 13.0049C13.6067 13.0562 14 13.4823 14 14C14 14.5523 13.5523 15 13 15C11.3431 15 10 13.6569 10 12V11.75H10.0469C10.805 11.75 11.4572 11.7489 12 11.7012V12Z" fill="currentColor"/></svg>
