<svg xmlns="http://www.w3.org/2000/svg" viewBox="0 0 24 24" fill="none"><path d="M14.7495 7.04678V7.00005V6.95332C14.7495 6.05248 14.7495 5.30107 14.6694 4.70512C14.585 4.07751 14.3992 3.51107 13.9438 3.05571C13.4885 2.60035 12.922 2.41456 12.2944 2.33012C11.6985 2.25 10.9471 2.25002 10.0462 2.25005L9.9995 2.25005H5.9995C5.11781 2.25005 4.52971 2.24376 4.02879 2.37798C2.73483 2.72475 1.7242 3.73538 1.37743 5.02934C1.24321 5.53026 1.2495 6.11836 1.2495 7.00005C1.2495 7.88173 1.24321 8.46983 1.37743 8.97075C1.7242 10.2647 2.73483 11.2753 4.02879 11.6221C4.52971 11.7563 5.11781 11.75 5.9995 11.75H9.9995H10.0462C10.9471 11.7501 11.6985 11.7501 12.2944 11.67C12.922 11.5855 13.4885 11.3997 13.9438 10.9444C14.3992 10.489 14.585 9.92258 14.6694 9.29497C14.7495 8.69902 14.7495 7.94761 14.7495 7.04678Z" fill="currentColor"/><path d="M1.24951 19V20C1.24951 20.9665 2.03301 21.75 2.99951 21.75H9.99951C10.966 21.75 11.7495 20.9665 11.7495 20C11.7495 18.4812 10.5183 17.25 8.99951 17.25H2.99951C2.03301 17.25 1.24951 18.0335 1.24951 19Z" fill="currentColor"/><path d="M9.99951 12V11C9.99951 10.4477 10.4472 10 10.9995 10C11.5518 10 11.9995 10.4477 11.9995 11V12C11.9995 12.5177 12.3928 12.9438 12.897 12.9951L13.1021 13.0049C13.6062 13.0562 13.9995 13.4823 13.9995 14C13.9995 14.5523 13.5518 15 12.9995 15C11.3427 15 9.99951 13.6569 9.99951 12Z" fill="currentColor"/><path d="M15.9995 4.24985C16.4161 4.24985 16.7714 4.24396 17.0815 4.327C17.8579 4.53502 18.4642 5.14152 18.6724 5.91782C18.6796 5.94468 18.685 5.97229 18.6909 5.99985H21.7495C22.3018 5.99985 22.7495 6.4476 22.7495 6.99985C22.7495 7.55213 22.3018 7.99985 21.7495 7.99985H18.6909C18.685 8.02746 18.6796 8.05496 18.6724 8.08188C18.4643 8.8583 17.858 9.46462 17.0815 9.6727C16.7714 9.75576 16.4161 9.74985 15.9995 9.74985H15.8638C15.8816 9.65263 15.896 9.55617 15.9087 9.46176C16.0039 8.75323 15.9995 7.88721 15.9995 6.99985C15.9995 6.11248 16.0039 5.24642 15.9087 4.53793C15.896 4.44349 15.8816 4.3471 15.8638 4.24985H15.9995Z" fill="currentColor"/><path d="M3.70557 12.8291C4.22937 12.9694 4.80445 12.9959 5.39893 13H9.20752L8.3501 16H2.99951C2.92859 16 2.85827 16.003 2.78857 16.0078L3.69775 12.8262C3.70017 12.8268 3.70314 12.8284 3.70557 12.8291Z" fill="currentColor"/></svg>
