<svg xmlns="http://www.w3.org/2000/svg" viewBox="0 0 24 24" fill="none"><path opacity="0.4" d="M12.9723 20.7953C13.5092 20.7953 13.9445 21.2329 13.9445 21.7727C13.9445 22.3124 13.5093 22.75 12.9723 22.75H11.0279C10.4909 22.75 10.0556 22.3124 10.0556 21.7727C10.0557 21.2329 10.4909 20.7953 11.0279 20.7953H12.9723ZM4.21187 16.888C4.74762 16.8554 5.20839 17.2656 5.24106 17.8042C5.32246 19.1461 5.53988 19.7109 5.90661 20.0795C6.17857 20.3529 6.55964 20.5451 7.28804 20.6589C7.8185 20.7417 8.18199 21.2414 8.09981 21.7746C8.0174 22.3079 7.52044 22.6733 6.98992 22.5906C6.02882 22.4405 5.19994 22.1331 4.53183 21.4615C3.63177 20.5567 3.38728 19.355 3.30041 17.9226C3.26793 17.384 3.67603 16.9208 4.21187 16.888ZM19.7893 16.888C20.3249 16.9211 20.7322 17.3841 20.6998 17.9226C20.6129 19.355 20.3684 20.5567 19.4684 21.4615C18.8002 22.1331 17.9714 22.4405 17.0103 22.5906C16.4797 22.6734 15.9828 22.3079 15.9004 21.7746C15.8182 21.2414 16.1817 20.7417 16.7121 20.6589C17.4405 20.5451 17.8216 20.3529 18.0936 20.0795C18.4603 19.7109 18.6777 19.1461 18.7591 17.8042C18.7918 17.2655 19.2533 16.8551 19.7893 16.888ZM3.25009 13.9541V11.9995C3.25012 11.4598 3.68539 11.0222 4.22231 11.0222C4.75924 11.0222 5.1945 11.4598 5.19454 11.9995V13.9541C5.19454 14.4939 4.75926 14.9315 4.22231 14.9315C3.68537 14.9315 3.25009 14.4939 3.25009 13.9541ZM18.8056 13.9541V11.9995C18.8057 11.4598 19.2409 11.0222 19.7779 11.0222C20.3148 11.0222 20.7501 11.4598 20.7501 11.9995V13.9541C20.7501 14.4939 20.3148 14.9315 19.7779 14.9315C19.2409 14.9315 18.8056 14.4939 18.8056 13.9541ZM7.53015 2.80662C8.06442 2.75391 8.54001 3.14663 8.59257 3.68373C8.645 4.2208 8.25433 4.69888 7.72004 4.75171C6.69944 4.85265 6.22667 5.06372 5.90661 5.38544C5.49365 5.80056 5.27964 6.45264 5.21922 8.12555C5.19975 8.66495 4.74846 9.08618 4.21187 9.0666C3.67541 9.04691 3.2563 8.59422 3.27573 8.05492C3.33618 6.38072 3.53516 5.00535 4.53183 4.00345C5.32306 3.20809 6.33894 2.92441 7.53015 2.80662ZM16.47 2.80662C17.6612 2.92441 18.6771 3.20809 19.4684 4.00345C20.465 5.00535 20.664 6.38072 20.7245 8.05492C20.7439 8.59422 20.3248 9.04691 19.7883 9.0666C19.2517 9.08618 18.8004 8.66495 18.781 8.12555C18.7205 6.45264 18.5065 5.80056 18.0936 5.38544C17.7735 5.06372 17.3007 4.85265 16.2801 4.75171C15.7459 4.69888 15.3552 4.2208 15.4076 3.68373C15.4602 3.14663 15.9358 2.75391 16.47 2.80662Z" fill="currentColor"/><path d="M6.65286 5.15945V2.2275C6.65286 1.68774 7.08814 1.25018 7.62508 1.25018C8.16203 1.25018 8.59731 1.68774 8.59731 2.2275V5.15945C8.59731 5.6992 8.16203 6.13676 7.62508 6.13676C7.08814 6.13676 6.65286 5.6992 6.65286 5.15945ZM11.0279 5.15945V2.2275C11.0279 1.68774 11.4631 1.25018 12.0001 1.25018C12.537 1.25018 12.9723 1.68774 12.9723 2.2275V5.15945C12.9723 5.6992 12.537 6.13676 12.0001 6.13676C11.4631 6.13676 11.0279 5.6992 11.0279 5.15945ZM15.4029 5.15945V2.2275C15.4029 1.68774 15.8381 1.25018 16.3751 1.25018C16.912 1.25018 17.3473 1.68774 17.3473 2.2275V5.15945C17.3473 5.6992 16.912 6.13676 16.3751 6.13676C15.8381 6.13676 15.4029 5.6992 15.4029 5.15945Z" fill="currentColor"/><path d="M12.0001 13.9558C12.5371 13.9558 12.9723 14.3934 12.9723 14.9331C12.9723 15.4729 12.5371 15.9104 12.0001 15.9104H8.11123C7.57429 15.9104 7.13901 15.4729 7.13901 14.9331C7.13901 14.3934 7.57429 13.9558 8.11123 13.9558H12.0001ZM15.889 10.0465C16.426 10.0465 16.8612 10.4841 16.8612 11.0239C16.8612 11.5636 16.426 12.0012 15.889 12.0012H8.11123C7.57429 12.0012 7.13901 11.5636 7.13901 11.0239C7.13901 10.4841 7.57429 10.0465 8.11123 10.0465H15.889Z" fill="currentColor"/></svg>
