<svg xmlns="http://www.w3.org/2000/svg" viewBox="0 0 24 24" fill="none"><path d="M12.9727 20.7945C13.5095 20.7948 13.9444 21.2325 13.9444 21.7721C13.9444 22.3117 13.5095 22.7494 12.9727 22.7496H11.0274C10.4907 22.7494 10.0558 22.3117 10.0558 21.7721C10.0558 21.2325 10.4907 20.7948 11.0274 20.7945H12.9727ZM4.21201 16.8873C4.74758 16.8548 5.20847 17.2649 5.2413 17.8033C5.32268 19.1448 5.53977 19.71 5.90634 20.0787C6.17829 20.3521 6.55978 20.545 7.28818 20.6588C7.81852 20.7417 8.18187 21.2409 8.0997 21.774C8.0173 22.3072 7.52067 22.6729 6.99033 22.5904C6.02923 22.4404 5.19945 22.1321 4.53134 21.4605C3.63175 20.5559 3.38775 19.3544 3.30087 17.9225C3.26839 17.3838 3.67617 16.9201 4.21201 16.8873ZM19.7892 16.8873C20.3248 16.9204 20.7318 17.384 20.6993 17.9225C20.6124 19.3547 20.3678 20.5558 19.4679 21.4605C18.7998 22.1321 17.9709 22.4404 17.0099 22.5904C16.4795 22.6729 15.9829 22.3072 15.9005 21.774C15.8183 21.2409 16.1817 20.7417 16.712 20.6588C17.4404 20.545 17.8219 20.3521 18.0938 20.0787C18.4604 19.71 18.6775 19.1448 18.7589 17.8033C18.7917 17.2648 19.2534 16.8545 19.7892 16.8873ZM12.0001 13.9557C12.5369 13.9557 12.9726 14.3926 12.9727 14.9322C12.9727 15.472 12.537 15.9098 12.0001 15.9098H8.11142C7.57448 15.9098 7.13876 15.472 7.13876 14.9322C7.13894 14.3926 7.57458 13.9557 8.11142 13.9557H12.0001ZM4.22275 11.0221C4.75937 11.0223 5.19423 11.4592 5.19443 11.9986L5.19443 13.9537C5.19435 14.4933 4.75945 14.931 4.22275 14.9312C3.68585 14.9312 3.25016 14.4934 3.25009 13.9537L3.25009 11.9986C3.25029 11.459 3.68593 11.0221 4.22275 11.0221ZM19.7774 11.0221C20.3143 11.0221 20.7499 11.459 20.7501 11.9986V13.9537C20.75 14.4934 20.3143 14.9312 19.7774 14.9312C19.2407 14.931 18.8058 14.4933 18.8058 13.9537L18.8058 11.9986C18.806 11.4592 19.2408 11.0223 19.7774 11.0221ZM15.8888 10.0455C16.4256 10.0455 16.8613 10.4834 16.8614 11.023C16.8614 11.5628 16.4257 12.0006 15.8888 12.0006L8.11142 12.0006C7.57448 12.0006 7.13876 11.5628 7.13876 11.023C7.13889 10.4834 7.57456 10.0455 8.11142 10.0455L15.8888 10.0455ZM7.62509 1.2496C8.16203 1.2496 8.59775 1.68739 8.59775 2.22714V5.15878C8.59775 5.69854 8.16203 6.13632 7.62509 6.13632C7.08815 6.13632 6.65244 5.69854 6.65244 5.15878V4.95175C6.31109 5.06238 6.08463 5.20614 5.90634 5.38535C5.49366 5.80046 5.27926 6.45247 5.21884 8.1246C5.19937 8.66396 4.74854 9.08551 4.21201 9.06601C3.67554 9.04632 3.25605 8.59359 3.27548 8.05429C3.33593 6.38015 3.53474 5.00441 4.53134 4.00253C5.12043 3.41037 5.83465 3.10276 6.65244 2.93515V2.22714C6.65244 1.68739 7.08815 1.2496 7.62509 1.2496ZM16.3751 1.2496C16.912 1.2496 17.3477 1.68739 17.3477 2.22714V2.93515C18.1653 3.10272 18.8789 3.41065 19.4679 4.00253C20.4645 5.00442 20.6642 6.38012 20.7247 8.05429C20.7441 8.59359 20.3246 9.04632 19.7882 9.06601C19.2516 9.08551 18.8008 8.66396 18.7813 8.1246C18.7209 6.45247 18.5065 5.80046 18.0938 5.38535C17.9156 5.20614 17.6891 5.06238 17.3477 4.95175V5.15878C17.3477 5.69854 16.912 6.13632 16.3751 6.13632C15.8381 6.13632 15.4024 5.69854 15.4024 5.15878L15.4024 2.22714C15.4024 1.68739 15.8381 1.2496 16.3751 1.2496ZM12.0001 1.2496C12.537 1.2496 12.9727 1.68739 12.9727 2.22714L12.9727 5.15878C12.9727 5.69854 12.537 6.13632 12.0001 6.13632C11.4631 6.13632 11.0274 5.69854 11.0274 5.15878V2.22714C11.0274 1.68739 11.4631 1.2496 12.0001 1.2496Z" fill="currentColor"/></svg>
