<svg xmlns="http://www.w3.org/2000/svg" viewBox="0 0 24 24" fill="none"><path opacity="0.4" d="M11.5001 1.75C16.3356 1.75 20.2499 5.68637 20.2501 10.5352C20.2501 11.5274 20.1049 12.4407 19.8253 13.292C19.4692 13.3602 19.1259 13.5136 18.8301 13.7549L18.6592 13.9092L16.2501 16.3184L15.8409 15.9092L15.67 15.7549C14.8452 15.0821 13.655 15.0821 12.8301 15.7549L12.6592 15.9092C11.7806 16.7878 11.7807 18.2122 12.6592 19.0908L13.9825 20.4141C13.6484 20.7905 13.3287 21.168 13.0391 21.5303C12.6437 22.0251 12.0539 22.25 11.5001 22.25C10.9462 22.25 10.3564 22.0251 9.961 21.5303C8.76721 20.0364 7.04983 18.2927 6.00397 17.3711C3.86576 15.4868 2.75006 13.3171 2.75006 10.5352C2.75027 5.68637 6.66457 1.75 11.5001 1.75Z" fill="currentColor"/><path d="M14.5001 10.5C14.5001 12.1569 13.1569 13.5 11.5001 13.5C9.84321 13.5 8.50006 12.1569 8.50006 10.5C8.50006 8.84315 9.84321 7.5 11.5001 7.5C13.1569 7.5 14.5001 8.84315 14.5001 10.5Z" fill="currentColor"/><path d="M19.5431 14.7929C19.9336 14.4024 20.5666 14.4024 20.9571 14.7929C21.3477 15.1834 21.3477 15.8164 20.9571 16.207L16.9571 20.207C16.5666 20.5975 15.9336 20.5975 15.5431 20.207L13.5431 18.207C13.1526 17.8164 13.1526 17.1834 13.5431 16.7929C13.9336 16.4024 14.5666 16.4024 14.9571 16.7929L16.2501 18.0859L19.5431 14.7929Z" fill="currentColor"/></svg>
