<svg xmlns="http://www.w3.org/2000/svg" viewBox="0 0 24 24" fill="none"><path d="M17.125 20.8752C17.125 19.5808 16.9498 18.3285 16.6221 17.1409C16.4754 16.6087 16.7873 16.0584 17.3193 15.9114C17.8517 15.7644 18.4029 16.0772 18.5498 16.6096C18.9249 17.9688 19.125 19.3994 19.125 20.8752C19.125 21.4275 18.6773 21.8752 18.125 21.8752C17.5727 21.8752 17.125 21.4275 17.125 20.8752ZM3.125 4.87524C4.6008 4.87524 6.03147 5.07535 7.39062 5.45044C7.923 5.59738 8.2358 6.14853 8.08887 6.68091C7.94181 7.21295 7.39153 7.52486 6.85938 7.37817C5.67178 7.0504 4.41946 6.87524 3.125 6.87524C2.57272 6.87524 2.125 6.42753 2.125 5.87524C2.125 5.32296 2.57272 4.87524 3.125 4.87524Z" fill="currentColor"/><path d="M10.125 20.8752C10.125 17.0093 6.99099 13.8752 3.125 13.8752C2.57272 13.8752 2.125 13.4275 2.125 12.8752C2.125 12.323 2.57272 11.8752 3.125 11.8752C8.09556 11.8752 12.125 15.9047 12.125 20.8752C12.125 21.4275 11.6773 21.8752 11.125 21.8752C10.5727 21.8752 10.125 21.4275 10.125 20.8752Z" fill="currentColor"/><path d="M3.625 18.8752C4.45342 18.8752 5.125 19.5468 5.125 20.3752C5.125 21.2037 4.45342 21.8752 3.625 21.8752C2.79657 21.8752 2.125 21.2037 2.125 20.3752C2.125 19.5468 2.79657 18.8752 3.625 18.8752Z" fill="currentColor"/><path opacity="0.4" d="M16.125 13.6252C19.3006 13.6252 21.875 11.0509 21.875 7.87524C21.875 4.69961 19.3006 2.12524 16.125 2.12524C12.9494 2.12524 10.375 4.69961 10.375 7.87524C10.375 11.0509 12.9494 13.6252 16.125 13.6252Z" fill="currentColor"/><path d="M18.4529 6.24297C18.2567 5.87839 17.802 5.74129 17.4373 5.93731C16.6593 6.35613 16.0172 7.19263 15.6053 7.81621C15.5509 7.8986 15.501 7.98083 15.452 8.05938L15.4483 8.05613C15.3999 8.01254 15.3538 7.97114 15.3084 7.93438C15.1712 7.82324 15.0495 7.74152 14.9578 7.68535C14.912 7.65729 14.8118 7.60372 14.782 7.5877C14.4082 7.40937 13.9604 7.56835 13.782 7.94219C13.6041 8.31573 13.7623 8.76272 14.1356 8.94121C14.1778 8.96709 14.2832 9.03489 14.3641 9.10039C14.526 9.23158 14.7391 9.44352 14.9236 9.75664C15.0643 9.99537 15.3255 10.1367 15.6024 10.1248C15.8791 10.1129 16.1272 9.94985 16.2469 9.7C16.2742 9.64621 16.3537 9.48928 16.407 9.39141C16.5141 9.19506 16.6683 8.92787 16.8563 8.64336C17.255 8.03977 17.7247 7.48663 18.1483 7.2586C18.5127 7.06229 18.6489 6.60758 18.4529 6.24297Z" fill="currentColor"/></svg>
