<svg xmlns="http://www.w3.org/2000/svg" viewBox="0 0 24 24" fill="none"><path d="M17.125 20.8752C17.125 19.5808 16.9498 18.3285 16.6221 17.1409C16.4754 16.6087 16.7873 16.0584 17.3193 15.9114C17.8517 15.7644 18.4029 16.0772 18.5498 16.6096C18.9249 17.9688 19.125 19.3994 19.125 20.8752C19.125 21.4275 18.6773 21.8752 18.125 21.8752C17.5727 21.8752 17.125 21.4275 17.125 20.8752ZM3.125 4.87524C4.6008 4.87524 6.03147 5.07535 7.39062 5.45044C7.923 5.59738 8.2358 6.14853 8.08887 6.68091C7.94181 7.21295 7.39153 7.52486 6.85938 7.37817C5.67178 7.0504 4.41946 6.87524 3.125 6.87524C2.57272 6.87524 2.125 6.42753 2.125 5.87524C2.125 5.32296 2.57272 4.87524 3.125 4.87524Z" fill="currentColor"/><path d="M10.125 20.8752C10.125 17.0093 6.99099 13.8752 3.125 13.8752C2.57272 13.8752 2.125 13.4275 2.125 12.8752C2.125 12.323 2.57272 11.8752 3.125 11.8752C8.09556 11.8752 12.125 15.9047 12.125 20.8752C12.125 21.4275 11.6773 21.8752 11.125 21.8752C10.5727 21.8752 10.125 21.4275 10.125 20.8752Z" fill="currentColor"/><path d="M3.625 18.8752C4.45342 18.8752 5.125 19.5468 5.125 20.3752C5.125 21.2037 4.45342 21.8752 3.625 21.8752C2.79657 21.8752 2.125 21.2037 2.125 20.3752C2.125 19.5468 2.79657 18.8752 3.625 18.8752Z" fill="currentColor"/><path d="M16.125 2.12524C19.3006 2.12524 21.875 4.69961 21.875 7.87524C21.875 11.0509 19.3006 13.6252 16.125 13.6252C12.9494 13.6252 10.375 11.0509 10.375 7.87524C10.375 4.69961 12.9494 2.12524 16.125 2.12524ZM18.4531 6.24341C18.2569 5.87882 17.8022 5.74173 17.4375 5.93774C16.6595 6.35658 16.0174 7.19308 15.6055 7.81665C15.5511 7.89896 15.5012 7.98134 15.4521 8.05981L15.4482 8.05591C15.3999 8.01248 15.3538 7.97147 15.3086 7.93481C15.1715 7.82382 15.0496 7.74195 14.958 7.68579C14.9124 7.65782 14.8123 7.60437 14.7822 7.58813C14.4084 7.40981 13.9606 7.56879 13.7822 7.94263C13.6045 8.31611 13.7626 8.7632 14.1357 8.94165C14.1782 8.96768 14.2836 9.0355 14.3643 9.10083C14.5262 9.23204 14.7395 9.44417 14.9238 9.75708C15.0645 9.99556 15.3259 10.1371 15.6025 10.1252C15.8792 10.1133 16.1273 9.95008 16.2471 9.70044C16.2744 9.6467 16.3539 9.48974 16.4072 9.39185C16.5143 9.19554 16.6686 8.92822 16.8564 8.6438C17.2552 8.04023 17.7249 7.48708 18.1484 7.25903C18.5128 7.0628 18.6488 6.60795 18.4531 6.24341Z" fill="currentColor"/></svg>
