<svg xmlns="http://www.w3.org/2000/svg" viewBox="0 0 24 24" fill="none"><path d="M2.29302 2.29289C2.68354 1.90237 3.31655 1.90237 3.70708 2.29289L21.7071 20.2929C22.0976 20.6834 22.0976 21.3164 21.7071 21.707C21.3166 22.0975 20.6835 22.0975 20.293 21.707L2.29302 3.70696C1.90249 3.31643 1.90249 2.68342 2.29302 2.29289Z" fill="currentColor"/><path d="M3.875 16.7188C4.30626 16.3738 4.93624 16.4438 5.28125 16.875C7.06883 19.1095 9.26557 20 12 20C14.2094 20 16.2084 19.1061 17.6572 17.6572C18.0478 17.2667 18.6808 17.2667 19.0713 17.6572C19.4615 18.0478 19.4617 18.6809 19.0713 19.0713C17.2627 20.8799 14.7611 22 12 22C8.73443 22 5.93117 20.8906 3.71875 18.125C3.37374 17.6938 3.44374 17.0638 3.875 16.7188ZM2 12C2 9.23887 3.12016 6.73728 4.92871 4.92873C5.31914 4.53831 5.95223 4.5385 6.34277 4.92873C6.7333 5.31926 6.7333 5.95227 6.34277 6.34279C4.89396 7.7916 4 9.7906 4 12C4 12.3011 4.01659 12.5979 4.04883 12.8897C4.1095 13.4385 3.71387 13.9334 3.16504 13.9942C2.61624 14.0548 2.12144 13.6591 2.06055 13.1104C2.02023 12.7456 2 12.3748 2 12Z" fill="currentColor"/><path opacity="0.4" d="M20.8349 10.0057C21.3837 9.94507 21.8785 10.3408 21.9394 10.8895C21.9797 11.2543 21.9999 11.6251 21.9999 11.9999C21.9999 13.3153 21.7455 14.5743 21.2821 15.7274C21.0761 16.2396 20.4936 16.4879 19.9814 16.2821C19.469 16.0761 19.2208 15.4937 19.4267 14.9813C19.7964 14.0613 19.9999 13.0555 19.9999 11.9999C19.9999 11.6988 19.9833 11.402 19.9511 11.1102C19.8904 10.5614 20.2861 10.0666 20.8349 10.0057Z" fill="currentColor"/><path opacity="0.4" d="M11.9999 1.99988C14.6377 1.99988 16.9736 2.72404 18.9403 4.45984C18.9138 4.1558 18.8844 3.87015 18.8564 3.64246C18.8377 3.49105 18.8205 3.3663 18.8085 3.28015C18.8025 3.23734 18.7981 3.20365 18.7948 3.18152C18.7933 3.17085 18.7917 3.16237 18.7909 3.1571C18.7906 3.15473 18.7899 3.15125 18.7899 3.15125C18.7072 2.60529 19.0829 2.09445 19.6288 2.0116C20.1746 1.92889 20.6844 2.30381 20.7675 2.84949V2.85339C20.7678 2.85539 20.7689 2.85869 20.7694 2.86218C20.7705 2.86929 20.7715 2.87963 20.7733 2.89246C20.7772 2.91854 20.7824 2.95631 20.789 3.00378C20.8022 3.09887 20.8206 3.23479 20.8407 3.39832C20.8809 3.72402 20.9301 4.16785 20.9628 4.63171C20.9951 5.08938 21.0145 5.59755 20.9872 6.03992C20.9736 6.25948 20.9467 6.49487 20.8925 6.71375C20.8459 6.9016 20.7443 7.22609 20.4853 7.48523C20.2261 7.74436 19.9017 7.8459 19.7138 7.89246C19.4948 7.94669 19.2596 7.9736 19.0399 7.98718C18.5975 8.01453 18.0895 7.99505 17.6317 7.96277C17.1678 7.93004 16.7241 7.88087 16.3983 7.8407C16.2348 7.82053 16.0989 7.80318 16.0038 7.78992C15.9562 7.78328 15.9186 7.77713 15.8925 7.77332C15.8796 7.77143 15.8694 7.77047 15.8622 7.76941C15.8586 7.76887 15.8555 7.76776 15.8534 7.76746H15.8505C15.3047 7.68444 14.9289 7.17465 15.0116 6.62878C15.0946 6.08287 15.6043 5.70708 16.1503 5.78992C16.1503 5.78992 16.1538 5.79054 16.1562 5.79089C16.1614 5.79168 16.1705 5.79318 16.1816 5.7948C16.2037 5.79803 16.2373 5.80249 16.2802 5.80847C16.3664 5.82048 16.491 5.83764 16.6425 5.85632C16.9063 5.88885 17.2474 5.92438 17.6054 5.953C16.038 4.57413 14.1925 3.99988 11.9999 3.99988C10.9443 3.99989 9.93846 4.20341 9.01846 4.57312C8.50603 4.779 7.92361 4.53086 7.71768 4.01843C7.51196 3.50617 7.76028 2.92371 8.27237 2.71765C9.42548 2.25425 10.6845 1.99989 11.9999 1.99988Z" fill="currentColor"/><path d="M4.96026 16.013C5.40268 15.9857 5.91073 16.0051 6.36847 16.0374C6.83241 16.0701 7.27611 16.1193 7.60186 16.1595C7.76543 16.1797 7.90127 16.197 7.9964 16.2103C8.04399 16.2169 8.08159 16.2231 8.10772 16.2269C8.12065 16.2288 8.13086 16.2297 8.138 16.2308C8.14158 16.2313 8.14475 16.2324 8.14679 16.2327H8.14972C8.69553 16.3157 9.07135 16.8255 8.98858 17.3714C8.91092 17.8832 8.45856 18.2449 7.95245 18.22L7.84991 18.2103C7.84884 18.2101 7.84626 18.2096 7.84405 18.2093C7.83876 18.2085 7.82974 18.207 7.81866 18.2054C7.79649 18.2021 7.76293 18.1977 7.72003 18.1917C7.63384 18.1797 7.50923 18.1625 7.35772 18.1439C7.05291 18.1063 6.64501 18.062 6.22686 18.0325C5.80231 18.0026 5.39597 17.9907 5.08331 18.0101C5.05958 18.0115 5.03719 18.0142 5.01593 18.0159C5.0142 18.0372 5.01154 18.0596 5.01007 18.0833C4.99074 18.396 5.0026 18.8023 5.03253 19.2269C5.06202 19.645 5.10626 20.0529 5.14386 20.3577C5.16255 20.5092 5.17969 20.6338 5.19171 20.72C5.19769 20.7629 5.20214 20.7965 5.20538 20.8187C5.20695 20.8294 5.2085 20.8378 5.20929 20.8431C5.20965 20.8455 5.21009 20.8478 5.21026 20.8489C5.29313 21.395 4.91743 21.9057 4.3714 21.9886C3.82553 22.0713 3.31573 21.6965 3.23272 21.1507V21.1468C3.23242 21.1448 3.2313 21.1416 3.23077 21.138C3.22971 21.1309 3.22875 21.1206 3.22686 21.1077C3.22305 21.0816 3.21787 21.044 3.21124 20.9964C3.19798 20.9013 3.17966 20.7655 3.15948 20.6019C3.11931 20.2761 3.07015 19.8324 3.03741 19.3685C3.00513 18.9107 2.98565 18.4027 3.013 17.9603C3.02657 17.7406 3.05349 17.5054 3.10772 17.2864C3.15428 17.0986 3.25579 16.7741 3.51495 16.515C3.77411 16.2558 4.09856 16.1543 4.28644 16.1077C4.50537 16.0535 4.74063 16.0266 4.96026 16.013Z" fill="currentColor"/></svg>
