<svg xmlns="http://www.w3.org/2000/svg" viewBox="0 0 24 24" fill="none"><path d="M2.2926 2.29297C2.68313 1.90244 3.31614 1.90244 3.70667 2.29297L21.7067 20.293C22.0972 20.6835 22.0972 21.3165 21.7067 21.707C21.3161 22.0975 20.6831 22.0975 20.2926 21.707L18.3278 19.7422C16.6044 21.1522 14.4005 22 11.9996 22C9.3614 22 7.02519 21.2756 5.05823 19.5391C5.08483 19.8436 5.11506 20.1294 5.14319 20.3574C5.16186 20.5088 5.17903 20.6336 5.19104 20.7197C5.197 20.7625 5.20148 20.7962 5.20471 20.8184C5.20626 20.8289 5.20782 20.8375 5.20862 20.8428C5.20896 20.845 5.2094 20.8474 5.20959 20.8486C5.29245 21.3946 4.91664 21.9053 4.37073 21.9883C3.82487 22.071 3.31506 21.6962 3.23206 21.1504V21.1465C3.2317 21.1444 3.23061 21.1411 3.2301 21.1377C3.22905 21.1306 3.22806 21.1202 3.2262 21.1074C3.22239 21.0813 3.21718 21.0435 3.21057 20.9961C3.19731 20.901 3.17898 20.765 3.15881 20.6016C3.11864 20.2758 3.06947 19.832 3.03674 19.3682C3.00447 18.9105 2.98499 18.4023 3.01233 17.96C3.02591 17.7404 3.05284 17.505 3.10706 17.2861C3.15365 17.0982 3.25527 16.7737 3.51428 16.5146C3.7734 16.2557 4.09795 16.154 4.28577 16.1074C4.50463 16.0532 4.74005 16.0263 4.95959 16.0127C5.40196 15.9854 5.91013 16.0048 6.3678 16.0371C6.83168 16.0698 7.27548 16.119 7.6012 16.1592C7.7647 16.1793 7.90063 16.1967 7.99573 16.21C8.04326 16.2166 8.08095 16.2228 8.10706 16.2266C8.11992 16.2284 8.13021 16.2294 8.13733 16.2305C8.14085 16.231 8.14411 16.2321 8.14612 16.2324H8.14905C8.69468 16.3155 9.07047 16.8254 8.98792 17.3711C8.91026 17.8828 8.45783 18.2445 7.95178 18.2197L7.84924 18.21C7.84819 18.2098 7.84556 18.2093 7.84338 18.209C7.83812 18.2082 7.82901 18.2067 7.81799 18.2051C7.79585 18.2018 7.7622 18.1974 7.71936 18.1914C7.6332 18.1794 7.50849 18.1622 7.35706 18.1436C7.09307 18.111 6.75151 18.0745 6.39319 18.0459C7.96084 19.4255 9.80656 20 11.9996 20C13.8487 20 15.5488 19.3718 16.9039 18.3184L5.6803 7.09473C4.62675 8.44989 3.99963 10.1509 3.99963 12C3.99963 12.3011 4.01623 12.5979 4.04846 12.8896C4.10914 13.4385 3.7135 13.9334 3.16467 13.9941C2.61587 14.0548 2.12107 13.6591 2.06018 13.1104C2.01986 12.7456 1.99963 12.3748 1.99963 12C1.99963 9.59909 2.84645 7.39432 4.25647 5.6709L2.2926 3.70703C1.9021 3.31653 1.90214 2.6835 2.2926 2.29297ZM20.8346 10.0059C21.3834 9.94519 21.8782 10.3409 21.9391 10.8896C21.9794 11.2544 21.9996 11.6252 21.9996 12C21.9996 13.3155 21.7453 14.5744 21.2819 15.7275C21.0758 16.2397 20.4934 16.488 19.9811 16.2822C19.4686 16.0763 19.2205 15.4939 19.4264 14.9814C19.7961 14.0614 19.9996 13.0557 19.9996 12C19.9996 11.6989 19.983 11.4021 19.9508 11.1104C19.8901 10.5615 20.2858 10.0666 20.8346 10.0059ZM11.9996 2C14.6374 2 16.9733 2.72412 18.9401 4.45996C18.9135 4.15585 18.8842 3.87035 18.8561 3.64258C18.8374 3.49122 18.8202 3.36645 18.8082 3.28027C18.8023 3.23752 18.7978 3.20381 18.7946 3.18164C18.793 3.17104 18.7914 3.16254 18.7906 3.15723C18.7903 3.15493 18.7899 3.15257 18.7897 3.15137C18.7068 2.60541 19.0826 2.09469 19.6285 2.01172C20.1744 1.92898 20.6842 2.3038 20.7672 2.84961V2.85352C20.7676 2.85555 20.7687 2.85886 20.7692 2.8623C20.7702 2.86944 20.7712 2.8798 20.7731 2.89258C20.7769 2.91869 20.7821 2.95648 20.7887 3.00391C20.802 3.09902 20.8203 3.23496 20.8405 3.39844C20.8806 3.72417 20.9298 4.16801 20.9625 4.63184C20.9948 5.0895 21.0143 5.59771 20.9869 6.04004C20.9734 6.25959 20.9464 6.49503 20.8922 6.71387C20.8456 6.90179 20.744 7.22633 20.485 7.48535C20.2259 7.74433 19.9013 7.84604 19.7135 7.89258C19.4946 7.94678 19.2592 7.97373 19.0397 7.9873C18.5973 8.01463 18.0891 7.99516 17.6315 7.96289C17.1676 7.93016 16.7238 7.88099 16.3981 7.84082C16.2346 7.82065 16.0986 7.80329 16.0035 7.79004C15.956 7.78341 15.9183 7.77725 15.8922 7.77344C15.8794 7.77157 15.8691 7.77059 15.8619 7.76953C15.8584 7.76899 15.8552 7.76788 15.8531 7.76758H15.8502C15.3046 7.68452 14.9288 7.17462 15.0114 6.62891C15.0942 6.08292 15.604 5.70727 16.15 5.79004C16.1511 5.79019 16.1535 5.79066 16.1559 5.79102C16.1611 5.7918 16.1703 5.79331 16.1813 5.79492C16.2034 5.79815 16.2371 5.80262 16.2799 5.80859C16.3661 5.8206 16.4908 5.83777 16.6422 5.85645C16.9059 5.88897 17.2472 5.92451 17.6051 5.95312C16.0377 4.57422 14.1922 4 11.9996 4C10.944 4 9.93821 4.20352 9.01819 4.57324C8.50574 4.77918 7.92335 4.53101 7.71741 4.01855C7.51164 3.50626 7.75994 2.92381 8.27209 2.71777C9.42523 2.25436 10.6842 2 11.9996 2Z" fill="currentColor"/></svg>
