<svg xmlns="http://www.w3.org/2000/svg" viewBox="0 0 24 24" fill="none"><path opacity="0.4" d="M11.5876 1.24815C12.1575 1.24739 12.662 1.24671 13.1375 1.41538C13.2354 1.45013 13.3315 1.49013 13.4252 1.53519C13.8801 1.75386 14.2363 2.11294 14.6388 2.51858L19.4216 7.32623C19.889 7.79459 20.3038 8.21025 20.5278 8.754C20.7519 9.29776 20.751 9.88651 20.75 10.5499L20.7498 14.0242C20.7499 15.8062 20.7499 17.2425 20.5988 18.3722C20.4419 19.545 20.1063 20.5326 19.3261 21.3169C18.5458 22.1012 17.5634 22.4385 16.3966 22.5962C15.2728 22.7481 13.8439 22.7481 12.0711 22.748C10.2983 22.7481 8.72718 22.7481 7.60334 22.5962C6.43655 22.4385 5.45414 22.1012 4.67389 21.3169C3.89364 20.5326 3.55804 19.545 3.40117 18.3722C3.25008 17.2425 3.2501 15.8062 3.25012 14.0242V14.0242V9.45067V9.45064C3.2501 7.91698 3.25009 6.68045 3.36436 5.69661C3.4826 4.67865 3.7343 3.80644 4.32693 3.06759C4.54447 2.79638 4.79024 2.54933 5.06004 2.33066C5.79507 1.73495 6.66277 1.48194 7.67546 1.36309C8.65422 1.24822 10.0618 1.24813 11.5876 1.24815Z" fill="currentColor"/><path d="M13.1373 1.416C13.2353 1.45076 13.3314 1.49075 13.4251 1.53582C13.8799 1.75449 14.2362 2.11356 14.6387 2.51921L19.4215 7.32686L19.4215 7.32686C19.8889 7.79521 20.3036 8.21088 20.5277 8.75463C20.6265 8.99435 20.6816 9.24282 20.7122 9.50258H18.7314C17.3638 9.5026 16.7152 9.50181 15.8483 9.38525C14.9481 9.26424 14.1903 9.00534 13.5884 8.40343C12.9864 7.80151 12.7275 7.04364 12.6065 6.14353C12.4902 5.27834 12.4902 4.63063 12.4902 3.2688V3.26877V1.27734C12.7136 1.30042 12.9283 1.34184 13.1373 1.416Z" fill="currentColor"/><path d="M11.0001 11.998C11.0001 11.4458 11.4478 10.9981 12.0001 10.998C12.5524 10.998 13.0001 11.4458 13.0001 11.998V15.8887C13.0135 15.8733 13.0276 15.8583 13.0411 15.8428C13.3515 15.4852 13.6416 15.1244 13.8546 14.8516C13.9605 14.7158 14.0463 14.6028 14.1055 14.5244L14.1905 14.4111C14.1922 14.4089 14.1937 14.4073 14.1944 14.4062V14.4053C14.5218 13.9607 15.1482 13.8652 15.5928 14.1924C16.0374 14.5198 16.1329 15.1461 15.8057 15.5908H15.8048V15.5918C15.8044 15.5923 15.8035 15.5938 15.8028 15.5947C15.8015 15.5965 15.7992 15.5985 15.7969 15.6016C15.7922 15.608 15.7852 15.6171 15.7764 15.6289C15.7589 15.6525 15.7336 15.6867 15.7012 15.7295C15.6366 15.8151 15.5441 15.9367 15.4307 16.082C15.2048 16.3716 14.8925 16.761 14.5518 17.1533C14.2155 17.5407 13.8318 17.9541 13.4649 18.2783C13.2826 18.4394 13.0802 18.6001 12.8721 18.7256C12.6915 18.8345 12.3773 18.998 12.0001 18.998C11.6228 18.998 11.3087 18.8345 11.128 18.7256C10.9199 18.6001 10.7176 18.4394 10.5352 18.2783C10.1684 17.9541 9.78462 17.5407 9.44831 17.1533C9.10767 16.761 8.79537 16.3716 8.56941 16.082C8.45599 15.9367 8.36356 15.8151 8.2989 15.7295C8.26655 15.6867 8.24128 15.6525 8.2237 15.6289C8.21494 15.6171 8.20795 15.608 8.2032 15.6016C8.20095 15.5985 8.19865 15.5965 8.19734 15.5947L8.19538 15.5918V15.5908H8.19441C7.86726 15.1462 7.9628 14.5208 8.4073 14.1934C8.85199 13.8658 9.47822 13.9606 9.80573 14.4053C9.80649 14.4063 9.80796 14.4089 9.80964 14.4111L9.8946 14.5244C9.95382 14.6028 10.0397 14.7158 10.1456 14.8516C10.3585 15.1244 10.6486 15.4852 10.9591 15.8428C10.9725 15.8583 10.9866 15.8733 11.0001 15.8887V11.998Z" fill="currentColor"/></svg>
