<svg xmlns="http://www.w3.org/2000/svg" viewBox="0 0 24 24" fill="none"><path d="M11.5874 1.24815C12.1571 1.24739 12.6619 1.24657 13.1372 1.41514C13.235 1.44983 13.3308 1.49031 13.4243 1.53526C13.8791 1.75391 14.2358 2.11306 14.6382 2.51866L19.4214 7.32627C19.8886 7.79446 20.3028 8.21049 20.5269 8.75401C20.7509 9.29772 20.7505 9.88661 20.7495 10.5499V14.0245C20.7495 15.8063 20.7492 17.2426 20.5981 18.3722C20.4413 19.5449 20.1057 20.5323 19.3257 21.3165C18.5454 22.1008 17.5628 22.4391 16.396 22.5968C15.2723 22.7486 13.8433 22.7482 12.0708 22.7481C10.2982 22.7482 8.72681 22.7486 7.60303 22.5968C6.4363 22.4391 5.45356 22.1008 4.67334 21.3165C3.89332 20.5323 3.55773 19.5449 3.40088 18.3722C3.24982 17.2426 3.24949 15.8063 3.24951 14.0245V9.4503C3.24949 7.91689 3.24951 6.68012 3.36377 5.69639C3.48203 4.67861 3.73411 3.80624 4.32666 3.06749C4.54403 2.79653 4.78954 2.54966 5.05908 2.33116C5.79408 1.73547 6.66265 1.48224 7.67529 1.36338C8.65401 1.24856 10.0619 1.24813 11.5874 1.24815ZM11.9995 10.9981C11.4473 10.9982 10.9995 11.4459 10.9995 11.9981V15.8888C10.986 15.8734 10.972 15.8584 10.9585 15.8429C10.6481 15.4854 10.358 15.1245 10.145 14.8517C10.0391 14.7159 9.95326 14.6029 9.89404 14.5245L9.80908 14.4112C9.80741 14.409 9.80593 14.4064 9.80518 14.4054C9.47765 13.9607 8.85142 13.866 8.40674 14.1935C7.96229 14.5209 7.86674 15.1463 8.19385 15.5909H8.19482V15.5919L8.19678 15.5948C8.19808 15.5966 8.2004 15.5987 8.20264 15.6017C8.20739 15.6081 8.21439 15.6173 8.22315 15.629C8.24071 15.6526 8.266 15.6868 8.29834 15.7296C8.363 15.8152 8.45544 15.9368 8.56885 16.0821C8.79481 16.3717 9.10712 16.7611 9.44775 17.1534C9.78405 17.5408 10.1678 17.9542 10.5347 18.2784C10.717 18.4395 10.9194 18.6002 11.1274 18.7257C11.3081 18.8346 11.6223 18.9981 11.9995 18.9981C12.3767 18.9982 12.6909 18.8346 12.8716 18.7257C13.0797 18.6002 13.282 18.4395 13.4644 18.2784C13.8312 17.9542 14.215 17.5408 14.5513 17.1534C14.8919 16.7611 15.2042 16.3717 15.4302 16.0821C15.5436 15.9368 15.636 15.8152 15.7007 15.7296C15.733 15.6868 15.7583 15.6526 15.7759 15.629C15.7846 15.6173 15.7916 15.6081 15.7964 15.6017C15.7986 15.5987 15.8009 15.5966 15.8022 15.5948C15.8029 15.5939 15.8038 15.5925 15.8042 15.5919V15.5909H15.8052C16.1324 15.1462 16.0369 14.5199 15.5923 14.1925C15.1476 13.8653 14.5213 13.9608 14.1938 14.4054V14.4064C14.1931 14.4074 14.1916 14.409 14.1899 14.4112L14.105 14.5245C14.0458 14.6029 13.9599 14.716 13.854 14.8517C13.6411 15.1245 13.3509 15.4854 13.0405 15.8429C13.0271 15.8584 13.013 15.8734 12.9995 15.8888V11.9981C12.9995 11.4459 12.5518 10.9982 11.9995 10.9981ZM12.4897 3.26866C12.4897 4.63 12.4897 5.2778 12.606 6.14268C12.7269 7.0425 12.9859 7.80062 13.5874 8.40245C14.1893 9.00433 14.9481 9.26384 15.8481 9.38487C16.7149 9.50137 17.3637 9.50208 18.731 9.50206C18.6741 9.36427 18.5686 9.23351 17.9507 8.61241L13.3462 3.9835C12.8133 3.44788 12.6714 3.31455 12.4897 3.25987V3.26866Z" fill="currentColor" fill-rule="evenodd" clip-rule="evenodd"/></svg>
