<svg xmlns="http://www.w3.org/2000/svg" fill="none" viewBox="0 0 48 48">
  <path fill="#8fbffa" fill-rule="evenodd" d="M2.94528 21.0268c-1.23752 1.5436 -0.39029 3.4955 1.58083 3.6649 0.62004 0.0533 1.32907 0.1072 2.13717 0.1596 0.07013 6.7822 0.24906 12.7962 0.37001 16.2755 0.06428 1.849 1.40345 3.3762 3.24381 3.5668 2.6542 0.2747 7.0466 0.5847 13.3564 0.5847 0.4976 0 0.9833 -0.0019 1.4571 -0.0056 -0.2428 -0.7337 -0.3988 -1.507 -0.4559 -2.3077 -0.8309 -0.268 -1.621 -0.7087 -2.3158 -1.3254 -1.0177 -0.9034 -1.6848 -2.0546 -1.991 -3.2823 -0.7875 -0.2983 -1.5297 -0.7555 -2.1776 -1.3728 -2.5992 -2.4762 -2.6989 -6.5906 -0.2227 -9.1897 7.2113 -7.5694 18.1373 -9.0144 26.7668 -4.3349 0.35 -0.716 0.2706 -1.6302 -0.3737 -2.4338 -1.5889 -1.9815 -4.1514 -4.9396 -8.1417 -9.0064 -4.9508 -5.04584 -8.4365 -7.53134 -10.4568 -8.71956 -1.3115 -0.77136 -2.8657 -0.77127 -4.1771 0.0002 -2.0201 1.1883 -5.5056 3.6738 -10.457 8.71936 -3.99147 4.0673 -6.55419 7.0256 -8.14282 9.0071Zm37.63282 6.0114c-5.4099 -2.1973 -11.6427 -1.5205 -16.5457 2.0307 -0.8746 0.6334 -1.7069 1.3584 -2.4846 2.1748 -0.4678 0.4909 -0.5372 1.2161 -0.2181 1.7765 0.0707 0.1243 0.1606 0.2404 0.2694 0.3442 0.4275 0.4072 1.0324 0.5125 1.5517 0.3224 0.2094 -0.0767 0.4048 -0.2014 0.569 -0.3738 0.7129 -0.7483 1.48 -1.4039 2.2881 -1.9669 4.3534 -3.0334 9.8933 -3.3792 14.5172 -1.0373 0.0197 -1.0567 0.0376 -2.1497 0.053 -3.2706Zm-0.1258 6.7111c-0.083 -0.0564 -0.1664 -0.1117 -0.2504 -0.1657 -3.74 -2.407 -8.3962 -2.407 -12.1362 0 -0.7705 0.4959 -1.502 1.0939 -2.1787 1.794 -0.127 0.1314 -0.252 0.2664 -0.375 0.405 -0.55 0.6196 -0.4935 1.5676 0.1261 2.1176 0.0053 0.0047 0.0107 0.0094 0.0162 0.0141l0.0087 0.0075c0.0269 0.0229 0.0544 0.0446 0.0825 0.0653 0.6174 0.4549 1.4911 0.3717 2.0101 -0.213 0.6866 -0.7735 1.4526 -1.3972 2.2673 -1.8711 1.289 -0.7498 2.7 -1.1247 4.1109 -1.1247 1.4109 0 2.8218 0.3749 4.1108 1.1247 0.7518 0.4373 1.4621 1.002 2.1067 1.6943 0.0338 -1.1693 0.0683 -2.4606 0.101 -3.848Zm-2.3114 10.6296c0.2894 -0.5509 0.4686 -1.1689 0.508 -1.8245 0.0055 -0.0913 0.0083 -0.1834 0.0083 -0.2761 0 -0.84 -0.229 -1.6266 -0.6279 -2.3006 -0.7875 -1.3306 -2.2373 -2.2228 -3.8955 -2.2228 -1.6582 0 -3.108 0.8922 -3.8955 2.2228 -0.399 0.674 -0.6279 1.4606 -0.6279 2.3006 0 0.0927 0.0027 0.1848 0.0082 0.2761 0.0589 0.9773 0.428 1.8708 1.0102 2.5835 2.7231 -0.1156 4.8338 -0.2859 6.3661 -0.4444 0.4097 -0.0423 0.7945 -0.151 1.146 -0.3146Z" clip-rule="evenodd" stroke-width="1"></path>
  <path fill="currentColor" fill-opacity="0.4" d="M37.1338 42.2783c0 1.6569 -1.3432 3 -3 3 -1.6569 0 -3 -1.3431 -3 -3 0 -1.6568 1.3431 -3 3 -3 1.6568 0 3 1.3432 3 3Z" stroke-width="1"></path>
  <path stroke="currentColor" stroke-linecap="round" stroke-linejoin="round" d="M23.634 45.2783c-6.3098 0 -10.7023 -0.31 -13.3564 -0.5847 -1.84037 -0.1906 -3.17954 -1.7178 -3.24382 -3.5668 -0.12095 -3.4793 -0.29988 -9.4933 -0.37001 -16.2755 -0.80811 -0.0524 -1.51713 -0.1063 -2.13717 -0.1596 -1.97113 -0.1694 -2.81835 -2.1213 -1.58083 -3.6649 1.58863 -1.9815 4.15135 -4.9398 8.14283 -9.0071 4.9514 -5.04556 8.4369 -7.53106 10.457 -8.71936 1.3114 -0.77147 2.8656 -0.77156 4.1771 -0.0002 2.0203 1.18822 5.506 3.67372 10.4568 8.71956 3.9903 4.0668 6.5528 7.0249 8.1417 9.0064 0.4506 0.562 0.6249 1.1782 0.5692 1.7428" stroke-width="1"></path>
  <path stroke="currentColor" stroke-linecap="round" stroke-linejoin="round" d="M22.6338 32.2783c6.3513 -6.6666 16.6487 -6.6666 23 0" stroke-width="1"></path>
  <path stroke="currentColor" stroke-linecap="round" stroke-linejoin="round" d="M26.6338 36.7783c4.1421 -4.6666 10.8579 -4.6666 15 0" stroke-width="1"></path>
  <path stroke="currentColor" stroke-linecap="round" stroke-linejoin="round" d="M37.1338 42.2783c0 1.6569 -1.3432 3 -3 3 -1.6569 0 -3 -1.3431 -3 -3 0 -1.6568 1.3431 -3 3 -3 1.6568 0 3 1.3432 3 3Z" stroke-width="1"></path>
</svg>
