<svg xmlns="http://www.w3.org/2000/svg" viewBox="0 0 24 24" fill="none"><path opacity="0.4" d="M21.75 12.0416V12V11.9584C21.75 9.87807 21.75 8.24041 21.5781 6.96191C21.4022 5.65356 21.0334 4.60957 20.2119 3.78809C19.3904 2.9666 18.3464 2.59783 17.0381 2.42188C15.7596 2.24999 14.1219 2.24999 12.0416 2.25H12H11.9584C9.87806 2.24999 8.24041 2.24999 6.96191 2.42188C5.65356 2.59783 4.60957 2.9666 3.78809 3.78809C2.9666 4.60957 2.59783 5.65356 2.42188 6.96191C2.24999 8.24041 2.24999 9.87806 2.25 11.9584V12V12.0416C2.24999 14.1219 2.24999 15.7596 2.42188 17.0381C2.59783 18.3464 2.9666 19.3904 3.78809 20.2119C4.60957 21.0334 5.65356 21.4022 6.96191 21.5781C8.24041 21.75 9.87807 21.75 11.9584 21.75H12H12.0416C14.1219 21.75 15.7596 21.75 17.0381 21.5781C18.3464 21.4022 19.3904 21.0334 20.2119 20.2119C21.0334 19.3904 21.4022 18.3464 21.5781 17.0381C21.75 15.7596 21.75 14.1219 21.75 12.0416Z" fill="currentColor"/><path d="M9 6.25C10.1656 6.25 11.1593 6.97619 11.5596 8H21.6787C21.7181 8.60079 21.7322 9.26558 21.7402 10H11.5596C11.1593 11.0238 10.1656 11.75 9 11.75C7.48122 11.75 6.25 10.5188 6.25 9C6.25 7.48122 7.48122 6.25 9 6.25Z" fill="currentColor"/><path d="M15 12.25C16.5188 12.25 17.75 13.4812 17.75 15C17.75 16.5188 16.5188 17.75 15 17.75C13.8343 17.75 12.8397 17.024 12.4395 16C11.2764 16.0001 10.4799 16.0028 9.87207 16.0713C9.27401 16.1387 8.98307 16.259 8.78223 16.4131C8.64361 16.5195 8.51946 16.6436 8.41309 16.7822C8.25898 16.9831 8.13873 17.274 8.07129 17.8721C8.00158 18.4904 8 19.304 8 20.5V21.6777C7.63021 21.6535 7.28461 21.6215 6.96192 21.5781C6.62385 21.5327 6.30349 21.4741 6 21.3984V20.5C6 19.3506 5.99873 18.4048 6.08399 17.6484C6.17151 16.8721 6.36064 16.1724 6.82617 15.5654C7.03897 15.2881 7.2881 15.039 7.56543 14.8262C8.17237 14.3606 8.87209 14.1715 9.64844 14.084C10.3915 14.0002 11.3173 14 12.4395 14C12.8397 12.976 13.8343 12.25 15 12.25Z" fill="currentColor"/></svg>
