<svg xmlns="http://www.w3.org/2000/svg" viewBox="0 0 24 24" fill="none"><path d="M12.0415 2.25C14.1217 2.24999 15.7592 2.25 17.0376 2.42188C18.346 2.59783 19.3899 2.9666 20.2114 3.78809C21.0329 4.60957 21.4017 5.65356 21.5776 6.96191C21.621 7.28462 21.654 7.63018 21.6782 8H11.5591C11.1588 6.97619 10.1651 6.25 8.99951 6.25C7.48073 6.25 6.24951 7.48122 6.24951 9C6.24951 10.5188 7.48073 11.75 8.99951 11.75C10.1651 11.75 11.1588 11.0238 11.5591 10H21.7397C21.7464 10.6044 21.7495 11.256 21.7495 11.958V12.042C21.7495 14.1221 21.7495 15.7597 21.5776 17.0381C21.4017 18.3464 21.0329 19.3904 20.2114 20.2119C19.3899 21.0334 18.346 21.4022 17.0376 21.5781C15.7592 21.75 14.1217 21.75 12.0415 21.75H11.9575C10.4024 21.75 9.09474 21.7495 7.99951 21.6777V20.5C7.99951 19.304 8.00109 18.4904 8.0708 17.8721C8.13824 17.274 8.25849 16.9831 8.4126 16.7822C8.51897 16.6436 8.64312 16.5195 8.78174 16.4131C8.98258 16.259 9.27352 16.1387 9.87158 16.0713C10.4794 16.0028 11.2759 16.0001 12.439 16C12.8392 17.024 13.8338 17.75 14.9995 17.75C16.5183 17.75 17.7495 16.5188 17.7495 15C17.7495 13.4812 16.5183 12.25 14.9995 12.25C13.8338 12.25 12.8392 12.976 12.439 14C11.3168 14 10.391 14.0002 9.64795 14.084C8.8716 14.1715 8.17188 14.3606 7.56494 14.8262C7.28761 15.039 7.03849 15.2881 6.82568 15.5654C6.36015 16.1724 6.17102 16.8721 6.0835 17.6484C5.99824 18.4048 5.99951 19.3506 5.99951 20.5V21.3984C5.12847 21.1812 4.39682 20.8211 3.7876 20.2119C2.96611 19.3904 2.59735 18.3464 2.42139 17.0381C2.24951 15.7597 2.2495 14.1221 2.24951 12.042V11.958C2.2495 9.87786 2.24951 8.24033 2.42139 6.96191C2.59735 5.65356 2.96611 4.60957 3.7876 3.78809C4.60908 2.9666 5.65307 2.59783 6.96143 2.42188C8.23984 2.25 9.87737 2.24999 11.9575 2.25H12.0415Z" fill="currentColor"/></svg>
