<svg xmlns="http://www.w3.org/2000/svg" viewBox="0 0 24 24" fill="none"><path d="M4 17.75C4.55228 17.75 5 18.1977 5 18.75V20.75C5 21.3023 4.55228 21.75 4 21.75C3.44772 21.75 3 21.3023 3 20.75V18.75C3 18.1977 3.44772 17.75 4 17.75ZM20 17.75C20.5523 17.75 21 18.1977 21 18.75V20.75C21 21.3023 20.5523 21.75 20 21.75C19.4477 21.75 19 21.3023 19 20.75V18.75C19 18.1977 19.4477 17.75 20 17.75Z" fill="currentColor" fill-rule="evenodd" clip-rule="evenodd"/><path d="M10.6504 2.25C10.933 2.25 11.0743 2.25006 11.1621 2.33789C11.2499 2.42572 11.25 2.56703 11.25 2.84961L11.25 19.1504C11.25 19.433 11.2499 19.5743 11.1621 19.6621C11.0743 19.7499 10.933 19.75 10.6504 19.75H9.94336C8.10571 19.75 6.64991 19.7498 5.51074 19.5967C4.33844 19.439 3.38991 19.1067 2.6416 18.3584C1.89329 17.6101 1.56096 16.6616 1.40332 15.4893C1.25016 14.3501 1.24998 12.8943 1.25 11.0566V10.9434C1.24998 9.10571 1.25016 7.64991 1.40332 6.51074C1.56096 5.33844 1.89329 4.38991 2.6416 3.6416C3.38991 2.89329 4.33844 2.56096 5.51074 2.40332C6.64991 2.25016 8.10572 2.24998 9.94336 2.25L10.6504 2.25ZM14.0566 2.25C15.8943 2.24998 17.3501 2.25016 18.4893 2.40332C19.6616 2.56096 20.6101 2.89329 21.3584 3.6416C22.1067 4.38991 22.439 5.33844 22.5967 6.51074C22.7498 7.6499 22.75 9.10573 22.75 10.9434V11.0566C22.75 12.8943 22.7498 14.3501 22.5967 15.4893C22.439 16.6616 22.1067 17.6101 21.3584 18.3584C20.6101 19.1067 19.6616 19.439 18.4893 19.5967C17.3501 19.7498 15.8943 19.75 14.0566 19.75H13.3496C13.067 19.75 12.9257 19.7499 12.8379 19.6621C12.7501 19.5743 12.75 19.433 12.75 19.1504L12.75 2.84961C12.75 2.56703 12.7501 2.42572 12.8379 2.33789C12.9257 2.25006 13.067 2.25 13.3496 2.25L14.0566 2.25ZM8.24219 13C7.6899 13 7.24219 13.4477 7.24219 14C7.24219 14.5523 7.6899 15 8.24219 15H8.25098C8.80326 15 9.25098 14.5523 9.25098 14C9.25098 13.4477 8.80326 13 8.25098 13H8.24219ZM17.75 13C17.1977 13 16.75 13.4477 16.75 14C16.75 14.5523 17.1977 15 17.75 15H17.7588C18.3111 15 18.7588 14.5523 18.7588 14C18.7588 13.4477 18.3111 13 17.7588 13H17.75ZM5.5 9.25C5.08579 9.25 4.75 9.58579 4.75 10C4.75 10.4142 5.08579 10.75 5.5 10.75H8.5C8.91421 10.75 9.25 10.4142 9.25 10C9.25 9.58579 8.91421 9.25 8.5 9.25H5.5ZM15.5 9.25C15.0858 9.25 14.75 9.58579 14.75 10C14.75 10.4142 15.0858 10.75 15.5 10.75H18.5C18.9142 10.75 19.25 10.4142 19.25 10C19.25 9.58579 18.9142 9.25 18.5 9.25H15.5ZM5.5 6.25C5.08579 6.25 4.75 6.58579 4.75 7C4.75 7.41421 5.08579 7.75 5.5 7.75H8.5C8.91421 7.75 9.25 7.41421 9.25 7C9.25 6.58579 8.91421 6.25 8.5 6.25L5.5 6.25ZM15.5 6.25C15.0858 6.25 14.75 6.58579 14.75 7C14.75 7.41421 15.0858 7.75 15.5 7.75H18.5C18.9142 7.75 19.25 7.41421 19.25 7C19.25 6.58579 18.9142 6.25 18.5 6.25H15.5Z" fill="currentColor"/></svg>
