<svg xmlns="http://www.w3.org/2000/svg" viewBox="0 0 24 24" fill="none"><path opacity="0.4" d="M20 19.75C20.4142 19.75 20.75 19.4142 20.75 19V10V9.93879C20.75 8.10217 20.75 6.65134 20.6064 5.5166C20.4591 4.3522 20.149 3.40692 19.4434 2.65723C18.7318 1.90135 17.8246 1.56387 16.708 1.4043C15.6277 1.24998 14.2488 1.24999 12.5196 1.25H12.4707H11.5293H11.4804C9.75117 1.24999 8.37231 1.24998 7.29199 1.4043C6.17536 1.56387 5.26817 1.90136 4.55664 2.65723C3.85105 3.40692 3.54091 4.3522 3.39356 5.5166C3.24997 6.65134 3.24998 8.10216 3.25 9.93877V10V19C3.25 19.4142 3.58579 19.75 4 19.75C4.41421 19.75 4.75 19.4142 4.75 19C4.75 17.7574 5.75736 16.75 7 16.75H17C18.2426 16.75 19.25 17.7574 19.25 19C19.25 19.4142 19.5858 19.75 20 19.75Z" fill="currentColor"/><path d="M12.5 9.25C14.0188 9.25 15.25 10.4812 15.25 12C15.25 12.4142 14.9142 12.75 14.5 12.75H9.5C9.08579 12.75 8.75 12.4142 8.75 12C8.75 10.4812 9.98122 9.25 11.5 9.25H12.5ZM10.5 6.75C10.5 5.92157 11.1716 5.25 12 5.25C12.8284 5.25 13.5 5.92157 13.5 6.75C13.5 7.57843 12.8284 8.25 12 8.25C11.1716 8.25 10.5 7.57843 10.5 6.75Z" fill="currentColor"/><path d="M16.8613 15.25C19.009 15.2501 20.75 16.929 20.75 19C20.75 21.071 19.009 22.7499 16.8613 22.75H7.13867C4.991 22.7499 3.25 21.071 3.25 19C3.25 16.929 4.991 15.2501 7.13867 15.25H16.8613ZM7.25 18C6.69771 18 6.25 18.4477 6.25 19C6.25 19.5523 6.69772 20 7.25 20C7.80228 20 8.25 19.5523 8.25 19C8.25 18.4477 7.80228 18 7.25 18ZM10.75 18C10.1977 18 9.75 18.4477 9.75 19C9.75 19.5523 10.1977 20 10.75 20C11.3023 20 11.75 19.5523 11.75 19C11.75 18.4477 11.3023 18 10.75 18Z" fill="currentColor"/></svg>
