<svg xmlns="http://www.w3.org/2000/svg" viewBox="0 0 24 24" fill="none"><path d="M18.8056 19C18.8056 17.9645 17.935 17.125 16.8611 17.125H7.13889C6.065 17.125 5.19444 17.9645 5.19444 19C5.19444 20.0355 6.065 20.875 7.13889 20.875H16.8611C17.935 20.875 18.8056 20.0355 18.8056 19ZM20.75 19C20.75 21.0711 19.0089 22.75 16.8611 22.75H7.13889C4.99111 22.75 3.25 21.0711 3.25 19C3.25 16.9289 4.99111 15.25 7.13889 15.25H16.8611C19.0089 15.25 20.75 16.9289 20.75 19Z" fill="currentColor"/><path d="M12.5195 1.25C14.2488 1.24999 15.6277 1.24997 16.708 1.4043C17.8246 1.56387 18.7318 1.90135 19.4434 2.65723C20.149 3.40692 20.4591 4.3522 20.6064 5.5166C20.75 6.65128 20.75 8.102 20.75 9.93848V19C20.75 19.4142 20.4142 19.75 20 19.75C19.5858 19.75 19.25 19.4142 19.25 19C19.25 17.7574 18.2426 16.75 17 16.75H7C5.75736 16.75 4.75 17.7574 4.75 19C4.75 19.4142 4.41421 19.75 4 19.75C3.58579 19.75 3.25 19.4142 3.25 19V9.93848C3.24998 8.102 3.24998 6.65128 3.39355 5.5166C3.54091 4.3522 3.85105 3.40692 4.55664 2.65723C5.26817 1.90135 6.17536 1.56387 7.29199 1.4043C8.37231 1.24997 9.75124 1.24999 11.4805 1.25H12.5195ZM11.5 9.25C9.98122 9.25 8.75 10.4812 8.75 12C8.75 12.4142 9.08579 12.75 9.5 12.75H14.5C14.9142 12.75 15.25 12.4142 15.25 12C15.25 10.4812 14.0188 9.25 12.5 9.25H11.5ZM12 5.25C11.1716 5.25 10.5 5.92157 10.5 6.75C10.5 7.57843 11.1716 8.25 12 8.25C12.8284 8.25 13.5 7.57843 13.5 6.75C13.5 5.92157 12.8284 5.25 12 5.25Z" fill="currentColor"/><path d="M7.25 18C7.80228 18 8.25 18.4477 8.25 19C8.25 19.5523 7.80228 20 7.25 20C6.69772 20 6.25 19.5523 6.25 19C6.25 18.4477 6.69771 18 7.25 18Z" fill="currentColor"/><path d="M10.75 18C11.3023 18 11.75 18.4477 11.75 19C11.75 19.5523 11.3023 20 10.75 20C10.1977 20 9.75 19.5523 9.75 19C9.75 18.4477 10.1977 18 10.75 18Z" fill="currentColor"/></svg>
