<svg xmlns="http://www.w3.org/2000/svg" fill="none" viewBox="0 0 48 48">
  <g>
    <path stroke="currentColor" stroke-linecap="round" stroke-linejoin="round" d="M43 24h3" stroke-width="3.429"></path>
    <path stroke="currentColor" stroke-linecap="round" stroke-linejoin="round" d="M2 24h3" stroke-width="3.429"></path>
    <path stroke="currentColor" stroke-linecap="round" stroke-linejoin="round" d="M10.5647 10.5649 8.44336 8.4436" stroke-width="3.429"></path>
    <path stroke="currentColor" stroke-linecap="round" stroke-linejoin="round" d="m37.4353 10.5649 2.1213 -2.1213" stroke-width="3.429"></path>
    <path fill="#8fbffa" d="M15.6697 35.253C12.2296 32.7022 10 28.6115 10 24c0 -7.732 6.268 -14 14 -14s14 6.268 14 14c0 4.6115 -2.2296 8.7022 -5.6697 11.253 -0.1426 0.8131 -0.2837 1.5832 -0.4061 2.237 -0.2236 1.195 -1.1595 2.1166 -2.3687 2.2426C28.2695 39.8666 26.3893 40 24 40c-2.3893 0 -4.2695 -0.1334 -5.5555 -0.2674 -1.2092 -0.126 -2.1451 -1.0476 -2.3687 -2.2426 -0.1224 -0.6538 -0.2635 -1.4239 -0.4061 -2.237Z" stroke-width="3.429"></path>
    <path stroke="currentColor" stroke-linejoin="round" d="M15.6697 35.253C12.2296 32.7022 10 28.6115 10 24c0 -7.732 6.268 -14 14 -14s14 6.268 14 14c0 4.6115 -2.2296 8.7022 -5.6697 11.253 -0.1426 0.8131 -0.2837 1.5832 -0.4061 2.237 -0.2236 1.195 -1.1595 2.1166 -2.3687 2.2426C28.2695 39.8666 26.3893 40 24 40c-2.3893 0 -4.2695 -0.1334 -5.5555 -0.2674 -1.2092 -0.126 -2.1451 -1.0476 -2.3687 -2.2426 -0.1224 -0.6538 -0.2635 -1.4239 -0.4061 -2.237Z" stroke-width="3.429"></path>
    <path fill="currentColor" fill-opacity="0.4" d="M17.7979 39.5818c0.1513 1.1979 0.3143 2.3685 0.4554 3.341 0.2188 1.5089 1.3035 2.7377 2.818 2.9135 0.8028 0.0932 1.7872 0.1637 2.929 0.1637 1.1038 0 2.1007 -0.0659 2.9424 -0.1544 1.6954 -0.1785 2.8983 -1.6003 3.0445 -3.2988 0.0772 -0.8969 0.1684 -1.9304 0.2658 -2.9843 -0.2188 0.0864 -0.4524 0.1445 -0.6972 0.17 -1.286 0.1341 -3.1662 0.2675 -5.5555 0.2675 -2.3893 0 -4.2696 -0.1334 -5.5555 -0.2675 -0.2262 -0.0235 -0.4428 -0.0749 -0.6469 -0.1507Z" stroke-width="3.429"></path>
    <path stroke="currentColor" stroke-linejoin="round" d="M17.7979 39.5818c0.1513 1.1979 0.3143 2.3685 0.4554 3.341 0.2188 1.5089 1.3035 2.7377 2.818 2.9135 0.8028 0.0932 1.7872 0.1637 2.929 0.1637 1.1038 0 2.1007 -0.0659 2.9424 -0.1544 1.6954 -0.1785 2.8983 -1.6003 3.0445 -3.2988 0.0772 -0.8969 0.1684 -1.9304 0.2658 -2.9843 -0.2188 0.0864 -0.4524 0.1445 -0.6972 0.17 -1.286 0.1341 -3.1662 0.2675 -5.5555 0.2675 -2.3893 0 -4.2696 -0.1334 -5.5555 -0.2675 -0.2262 -0.0235 -0.4428 -0.0749 -0.6469 -0.1507Z" stroke-width="3.429"></path>
    <path stroke="currentColor" stroke-linecap="round" stroke-linejoin="round" d="M32 24c0 -4.4183 -3.5817 -8 -8 -8" stroke-width="3.429"></path>
    <path stroke="currentColor" stroke-linecap="round" stroke-linejoin="round" d="m24 2 0 3" stroke-width="3.429"></path>
  </g>
</svg>
