<svg xmlns="http://www.w3.org/2000/svg" fill="none" viewBox="0 0 48 48">
  <g>
    <path fill="currentColor" d="M31.627 41.0386c0.098 -1.1125 -0.852 -2.0198 -1.9461 -1.8941 -0.8489 0.0975 -3.3263 0.3557 -5.6792 0.3557 -2.3381 0 -4.738 -0.2351 -5.5834 -0.3269 -1.1267 -0.1223 -2.0822 0.845 -1.9247 1.9816 0.0856 0.6171 0.2752 1.9801 0.3676 2.6046 0.2506 1.694 1.5027 3.208 3.378 3.4808 2.5302 0.3682 5.1108 0.3382 7.6082 0.0089 2.0522 -0.2707 3.4152 -1.979 3.5752 -3.8649 0.0485 -0.5728 0.1543 -1.7762 0.2044 -2.3457Z" stroke-width="3.429"></path>
    <path fill="currentColor" fill-opacity="0.4" d="M24 8.5C15.4396 8.5 8.5 15.4396 8.5 24c0 4.7922 2.1763 9.0767 5.589 11.9177 0.1781 1.0372 0.3599 2.0334 0.5124 2.8482 0.3369 1.8007 1.7719 3.2589 3.6876 3.4586 1.3337 0.139 3.2659 0.2755 5.711 0.2755 2.4451 0 4.3773 -0.1365 5.711 -0.2755 1.9157 -0.1997 3.3507 -1.6579 3.6876 -3.4586 0.1525 -0.8148 0.3343 -1.811 0.5124 -2.8482C37.3237 33.0767 39.5 28.7922 39.5 24c0 -8.5604 -6.9396 -15.5 -15.5 -15.5Z" stroke-width="3.429"></path>
    <path fill="currentColor" d="M24 0.25c1.2426 0 2.25 1.00736 2.25 2.25v2c0 1.24264 -1.0074 2.25 -2.25 2.25s-2.25 -1.00736 -2.25 -2.25v-2c0 -1.24264 1.0074 -2.25 2.25 -2.25Z" stroke-width="3.429"></path>
    <path fill="currentColor" d="M0.25 24c0 -1.2426 1.00736 -2.25 2.25 -2.25h2c1.24264 0 2.25 1.0074 2.25 2.25s-1.00736 2.25 -2.25 2.25h-2C1.25736 26.25 0.25 25.2426 0.25 24Z" stroke-width="3.429"></path>
    <path fill="currentColor" d="M41.25 24c0 -1.2426 1.0074 -2.25 2.25 -2.25h2c1.2426 0 2.25 1.0074 2.25 2.25s-1.0074 2.25 -2.25 2.25h-2c-1.2426 0 -2.25 -1.0074 -2.25 -2.25Z" stroke-width="3.429"></path>
    <path fill="currentColor" d="M10.3879 7.20588c-0.87871 -0.87867 -2.30334 -0.87867 -3.18202 0 -0.87867 0.87868 -0.87867 2.30331 0 3.18202l1.41422 1.4142c0.87868 0.8787 2.3033 0.8787 3.182 0 0.8787 -0.8787 0.8787 -2.30332 0 -3.182l-1.4142 -1.41422Z" stroke-width="3.429"></path>
    <path fill="currentColor" d="M40.7943 7.20588c-0.8787 -0.87867 -2.3033 -0.87867 -3.182 0L36.1981 8.6201c-0.8787 0.87868 -0.8787 2.3033 0 3.182 0.8787 0.8787 2.3033 0.8787 3.182 0l1.4142 -1.4142c0.8786 -0.87871 0.8786 -2.30334 0 -3.18202Z" stroke-width="3.429"></path>
    <path fill="currentColor" d="M32 24c0 -4.4183 -3.5817 -8 -8 -8 -1.1046 0 -2 -0.8954 -2 -2s0.8954 -2 2 -2c6.6274 0 12 5.3726 12 12 0 1.1046 -0.8954 2 -2 2s-2 -0.8954 -2 -2Z" stroke-width="3.429"></path>
  </g>
</svg>
