<svg xmlns="http://www.w3.org/2000/svg" fill="none" viewBox="0 0 48 48">
  <g>
    <path fill="currentColor" fill-rule="evenodd" d="M26.0002 5.68182c0 1.10457 -0.8955 2 -2 2 -1.1046 0 -2 -0.89543 -2 -2V2.75c0 -1.10457 0.8954 -2 2 -2 1.1045 0 2 0.89543 2 2v2.93182ZM7.38284 7.63284c0.78105 -0.78105 2.04738 -0.78105 2.82846 0l2.0731 2.07311c0.781 0.78105 0.781 2.04735 0 2.82845 -0.7811 0.781 -2.0474 0.781 -2.82845 0l-2.07311 -2.0731c-0.78105 -0.78108 -0.78105 -2.04741 0 -2.82846ZM5.43182 22.2502c1.10457 0 2 0.8954 2 2 0 1.1045 -0.89543 2 -2 2H2.5c-1.10457 0 -2 -0.8955 -2 -2 0 -1.1046 0.89543 -2 2 -2h2.93182Zm42.06838 2c0 -1.1046 -0.8955 -2 -2 -2h-2.9318c-1.1046 0 -2 0.8954 -2 2 0 1.1045 0.8954 2 2 2h2.9318c1.1045 0 2 -0.8955 2 -2ZM31.4759 41.014c1.167 -0.6845 1.9823 -1.8649 2.2345 -3.2123 0.082 -0.4381 0.1725 -0.9295 0.2664 -1.4517 3.4813 -2.8736 5.7054 -7.227 5.7054 -12.0996 0 -8.6609 -7.021 -15.68186 -15.6818 -15.68186 -8.6609 0 -15.68186 7.02096 -15.68186 15.68186 0 4.8726 2.22416 9.226 5.70536 12.0996 0.0939 0.5222 0.1845 1.0136 0.2664 1.4517 0.2601 1.3896 1.1191 2.6014 2.345 3.275 0.0911 0.6734 0.1814 1.3124 0.264 1.8817 0.2951 2.0347 1.8027 3.8593 4.0655 4.122 0.838 0.0973 1.8579 0.1699 3.0353 0.1699 1.1378 0 2.1648 -0.0678 3.0326 -0.1591 2.4802 -0.261 4.1181 -2.3255 4.3128 -4.5869 0.04 -0.465 0.0839 -0.9674 0.1304 -1.4903Zm6.3132 -33.38116c0.781 -0.78105 2.0474 -0.78105 2.8284 0 0.7811 0.78105 0.7811 2.04738 0 2.82846l-2.0731 2.0731c-0.781 0.781 -2.0474 0.781 -2.8284 0 -0.7811 -0.7811 -0.7811 -2.0474 0 -2.82845l2.0731 -2.07311ZM24.0004 12.5685c-6.4517 0 -11.6819 5.2302 -11.6819 11.6819 0 3.8465 1.8571 7.2589 4.7321 9.3907 0.4114 0.3051 0.6901 0.7564 0.7786 1.2609 0.1379 0.7855 0.2744 1.5305 0.3929 2.1638 0.0674 0.3604 0.3166 0.5454 0.5563 0.5704 1.1931 0.1243 2.9613 0.2505 5.222 0.2505 2.2607 0 4.0288 -0.1262 5.2219 -0.2505 0.2397 -0.025 0.4889 -0.21 0.5563 -0.5704 0.1186 -0.6332 0.255 -1.3783 0.3929 -2.1638 0.0885 -0.5045 0.3672 -0.9558 0.7786 -1.2609 2.8751 -2.1318 4.7321 -5.5442 4.7321 -9.3907 0 -6.4517 -5.2301 -11.6819 -11.6818 -11.6819Zm0 5.8633c3.2132 0 5.8181 2.6049 5.8181 5.8182 0 1.1046 0.8955 2 2 2 1.1046 0 2 -0.8954 2 -2 0 -5.4224 -4.3957 -9.8182 -9.8181 -9.8182 -1.1046 0 -2 0.8955 -2 2 0 1.1046 0.8954 2 2 2Z" clip-rule="evenodd" stroke-width="3.429"></path>
  </g>
</svg>
