<svg xmlns="http://www.w3.org/2000/svg" viewBox="0 0 24 24" fill="none"><path d="M14.0001 3.99963C14.5524 3.99963 15.0001 4.44735 15.0001 4.99963C15.0001 5.55192 14.5524 5.99963 14.0001 5.99963H2.00012C1.44784 5.99963 1.00012 5.55192 1.00012 4.99963C1.00012 4.44735 1.44784 3.99963 2.00012 3.99963H14.0001Z" fill="currentColor"/><path d="M9.00012 10.9996C9.55241 10.9996 10.0001 11.4473 10.0001 11.9996C10.0001 12.5519 9.55241 12.9996 9.00012 12.9996H2.00012C1.44784 12.9996 1.00012 12.5519 1.00012 11.9996C1.00012 11.4473 1.44784 10.9996 2.00012 10.9996H9.00012Z" fill="currentColor"/><path d="M9.00012 17.9996C9.55241 17.9996 10.0001 18.4473 10.0001 18.9996C10.0001 19.5519 9.55241 19.9996 9.00012 19.9996H2.00012C1.44784 19.9996 1.00012 19.5519 1.00012 18.9996C1.00012 18.4473 1.44784 17.9996 2.00012 17.9996H9.00012Z" fill="currentColor"/><path d="M15.0001 19.9996C17.2093 19.9996 19.0001 18.2088 19.0001 15.9996V8.36583C19.7317 8.99772 20.717 9.49962 22.0001 9.49962C22.5524 9.49962 23.0001 9.0519 23.0001 8.49962C23.0001 7.94733 22.5524 7.49962 22.0001 7.49962C20.9478 7.49962 20.2126 6.90212 19.6886 6.16856C19.429 5.80508 19.2431 5.43508 19.1222 5.15294C19.0623 5.01328 19.0197 4.89816 18.9933 4.82188C18.9802 4.78407 18.9712 4.75565 18.9659 4.73888C18.9633 4.7306 18.9618 4.72372 18.9611 4.7213C18.8228 4.2438 18.3541 3.94039 17.8615 4.00938C17.3676 4.07855 17.0001 4.50092 17.0001 4.99962V12.5358C16.4117 12.1953 15.7289 11.9996 15.0001 11.9996C12.791 11.9996 11.0001 13.7905 11.0001 15.9996C11.0001 18.2088 12.791 19.9996 15.0001 19.9996Z" fill="currentColor"/></svg>
