<svg xmlns="http://www.w3.org/2000/svg" viewBox="0 0 24 24" fill="none"><path opacity="0.4" d="M12.5 9.25C13.1904 9.25 13.75 9.80965 13.75 10.5C13.75 11.1904 13.1904 11.75 12.5 11.75C11.8096 11.75 11.25 11.1904 11.25 10.5C11.25 9.80965 11.8096 9.25 12.5 9.25Z" fill="currentColor"/><path opacity="0.4" d="M14.5 3.25C15.1904 3.25 15.75 3.80965 15.75 4.5C15.75 5.19036 15.1904 5.75 14.5 5.75C13.8096 5.75 13.25 5.19036 13.25 4.5C13.25 3.80965 13.8096 3.25 14.5 3.25Z" fill="currentColor"/><path opacity="0.4" d="M18.5 10.25C19.1904 10.25 19.75 10.8096 19.75 11.5C19.75 12.1904 19.1904 12.75 18.5 12.75C17.8096 12.75 17.25 12.1904 17.25 11.5C17.25 10.8096 17.8096 10.25 18.5 10.25Z" fill="currentColor"/><path opacity="0.4" d="M9.5 15.25C10.1904 15.25 10.75 15.8096 10.75 16.5C10.75 17.1904 10.1904 17.75 9.5 17.75C8.80964 17.75 8.25 17.1904 8.25 16.5C8.25 15.8096 8.80964 15.25 9.5 15.25Z" fill="currentColor"/><path opacity="0.4" d="M7.5 7.25C8.19035 7.25 8.75 7.80965 8.75 8.5C8.75 9.19036 8.19035 9.75 7.5 9.75C6.80964 9.75 6.25 9.19036 6.25 8.5C6.25 7.80965 6.80964 7.25 7.5 7.25Z" fill="currentColor"/><path d="M2 14V3C2 2.44772 2.44772 2 3 2C3.55229 2 4 2.44772 4 3V14C4 15.6781 4.00207 16.8361 4.11914 17.707C4.23238 18.5492 4.43663 18.9718 4.73242 19.2676C5.02822 19.5634 5.45076 19.7676 6.29297 19.8809C7.16393 19.9979 8.32193 20 10 20H21C21.5523 20 22 20.4477 22 21C22 21.5523 21.5523 22 21 22H10C8.37841 22 7.06157 22.0024 6.02637 21.8633C4.96238 21.7202 4.04769 21.411 3.31836 20.6816C2.58903 19.9523 2.27977 19.0376 2.13672 17.9736C1.99755 16.9384 2 15.6216 2 14Z" fill="currentColor"/></svg>
