<svg xmlns="http://www.w3.org/2000/svg" viewBox="0 0 24 24" fill="none"><path d="M14.5117 10.25C15.4271 10.25 16.1574 10.25 16.7471 10.2959C17.3474 10.3426 17.8651 10.4405 18.3438 10.6709C19.2112 11.0886 19.9114 11.7888 20.3291 12.6562C20.5595 13.1349 20.6574 13.6526 20.7041 14.2529C20.75 14.8426 20.75 15.5728 20.75 16.4883V16.5117C20.75 17.4272 20.75 18.1574 20.7041 18.7471C20.6574 19.3474 20.5596 19.8651 20.3291 20.3438C19.9114 21.2112 19.2112 21.9114 18.3438 22.3291C17.8651 22.5595 17.3474 22.6574 16.7471 22.7041C16.1574 22.75 15.4272 22.75 14.5117 22.75H9.48828C8.57285 22.75 7.84262 22.75 7.25293 22.7041C6.65256 22.6574 6.13487 22.5595 5.65625 22.3291C4.78879 21.9114 4.08864 21.2112 3.6709 20.3438C3.44045 19.8651 3.34264 19.3474 3.2959 18.7471C3.25 18.1574 3.25 17.4272 3.25 16.5117V16.4883C3.25 15.5728 3.25 14.8426 3.2959 14.2529C3.34264 13.6526 3.44045 13.1349 3.6709 12.6562C4.08864 11.7888 4.78879 11.0886 5.65625 10.6709C6.13487 10.4405 6.65256 10.3426 7.25293 10.2959C7.84262 10.25 8.57285 10.25 9.48828 10.25H14.5117ZM13 14C12.4477 14 12 14.4477 12 15C12 15.5523 12.4477 16 13 16H16C16.5523 16 17 15.5523 17 15C17 14.4477 16.5523 14 16 14H13Z" fill="currentColor"/><path d="M12.0038 5.36914C13.1392 5.37144 14.2405 5.75938 15.1258 6.46973C15.5566 6.81534 15.6257 7.4452 15.2801 7.87598C14.9345 8.30674 14.3047 8.37586 13.8739 8.03027C13.3428 7.60412 12.6819 7.37056 11.9999 7.36914C11.3178 7.36778 10.6558 7.59851 10.1229 8.02246C9.69077 8.36636 9.06154 8.29446 8.71764 7.8623C8.37397 7.43031 8.44511 6.80195 8.87682 6.45801C9.76508 5.75116 10.8683 5.36687 12.0038 5.36914ZM11.9999 1.25C14.0442 1.25 16.0276 1.9452 17.6239 3.2207C18.0553 3.56547 18.1259 4.19454 17.7811 4.62598C17.4364 5.0572 16.8073 5.1276 16.3758 4.7832C15.1343 3.79119 13.5908 3.25 11.9999 3.25C10.4089 3.25 8.8654 3.79119 7.62389 4.7832C7.19249 5.1276 6.56331 5.0572 6.21862 4.62598C5.87388 4.19454 5.94446 3.56547 6.37585 3.2207C7.97213 1.9452 9.95555 1.25 11.9999 1.25Z" fill="currentColor"/></svg>
