<svg xmlns="http://www.w3.org/2000/svg" viewBox="0 0 24 24" fill="none"><path d="M12.0003 18.8749C13.6251 18.8749 15.1546 19.2808 16.4759 19.995C16.9618 20.2576 17.1428 20.8646 16.8802 21.3505C16.6176 21.8363 16.0106 22.0174 15.5247 21.7548C14.4927 21.197 13.2899 20.8749 12.0003 20.8749C10.7108 20.8749 9.50796 21.197 8.47592 21.7548C7.99007 22.0174 7.38306 21.8363 7.12045 21.3505C6.85785 20.8646 7.0389 20.2576 7.52475 19.995C8.84609 19.2808 10.3756 18.8749 12.0003 18.8749Z" fill="currentColor"/><path opacity="0.4" d="M22.75 10.9393V10.8749V8.87488V8.81045C22.75 7.44738 22.7501 6.3482 22.6338 5.48328C22.5128 4.58317 22.2533 3.82543 21.6514 3.22351C21.0495 2.6216 20.2917 2.36211 19.3916 2.24109C18.5267 2.12483 17.4275 2.12485 16.0644 2.12488H16H8H7.93562C6.57252 2.12485 5.47333 2.12483 4.6084 2.24109C3.70829 2.36211 2.95055 2.6216 2.34864 3.22351C1.74672 3.82543 1.48723 4.58317 1.36621 5.48328C1.24995 6.34821 1.24997 7.4474 1.25 8.81049V8.87488V10.8749V10.9393C1.24997 12.3024 1.24995 13.4016 1.36621 14.2665C1.48723 15.1666 1.74672 15.9243 2.34864 16.5262C2.95055 17.1282 3.70829 17.3877 4.6084 17.5087C5.47332 17.6249 6.5725 17.6249 7.93557 17.6249H8H16H16.0644C17.4275 17.6249 18.5267 17.6249 19.3916 17.5087C20.2917 17.3877 21.0495 17.1282 21.6514 16.5262C22.2533 15.9243 22.5128 15.1666 22.6338 14.2665C22.7501 13.4016 22.75 12.3024 22.75 10.9393Z" fill="currentColor"/><path d="M9 12.8749V10.8749H7C5.89543 10.8749 5 9.97945 5 8.87488V6.87488C5 6.32259 5.44772 5.87488 6 5.87488C6.55228 5.87488 7 6.32259 7 6.87488V8.87488H9V6.87488C9 6.32259 9.44772 5.87488 10 5.87488C10.5523 5.87488 11 6.32259 11 6.87488V12.8749C11 13.4272 10.5523 13.8749 10 13.8749C9.44772 13.8749 9 13.4272 9 12.8749Z" fill="currentColor"/><path d="M13 12.8749V6.87488C13 6.32259 13.4477 5.87488 14 5.87488C14.5523 5.87488 15 6.32259 15 6.87488V8.12976L17.3496 6.11609C17.7689 5.75667 18.3994 5.80516 18.7588 6.22449C19.1182 6.64381 19.0697 7.27424 18.6504 7.63367L16.0352 9.87488L18.6504 12.1161C19.0697 12.4755 19.1182 13.1059 18.7588 13.5253C18.3994 13.9446 17.7689 13.9931 17.3496 13.6337L15 11.619V12.8749C15 13.4272 14.5523 13.8749 14 13.8749C13.4477 13.8749 13 13.4272 13 12.8749Z" fill="currentColor"/></svg>
