<svg xmlns="http://www.w3.org/2000/svg" viewBox="0 0 24 24" fill="none"><path d="M12.0003 18.8749C13.6251 18.8749 15.1546 19.2808 16.4759 19.995C16.9618 20.2576 17.1428 20.8646 16.8802 21.3505C16.6176 21.8363 16.0106 22.0174 15.5247 21.7548C14.4927 21.197 13.2899 20.8749 12.0003 20.8749C10.7108 20.8749 9.50796 21.197 8.47592 21.7548C7.99007 22.0174 7.38306 21.8363 7.12045 21.3505C6.85785 20.8646 7.0389 20.2576 7.52475 19.995C8.84609 19.2808 10.3756 18.8749 12.0003 18.8749Z" fill="currentColor"/><path d="M16.0645 2.12488C17.4275 2.12485 18.5267 2.12483 19.3916 2.24109C20.2917 2.36211 21.0494 2.6216 21.6514 3.22351C22.2533 3.82543 22.5128 4.58317 22.6338 5.48328C22.7501 6.34819 22.75 7.44736 22.75 8.81042V10.9393C22.75 12.3024 22.7501 13.4016 22.6338 14.2665C22.5128 15.1666 22.2533 15.9243 21.6514 16.5262C21.0494 17.1282 20.2917 17.3877 19.3916 17.5087C18.5267 17.6249 17.4275 17.6249 16.0645 17.6249H7.93555C6.57249 17.6249 5.47331 17.6249 4.6084 17.5087C3.70829 17.3877 2.95055 17.1282 2.34863 16.5262C1.74672 15.9243 1.48723 15.1666 1.36621 14.2665C1.24995 13.4016 1.24997 12.3024 1.25 10.9393V8.81042C1.24997 7.44737 1.24995 6.34819 1.36621 5.48328C1.48723 4.58317 1.74672 3.82543 2.34863 3.22351C2.95055 2.62159 3.70829 2.36211 4.6084 2.24109C5.47331 2.12483 6.57249 2.12485 7.93555 2.12488H16.0645ZM10 5.87488C9.44771 5.87488 9 6.32259 9 6.87488V8.87488H7V6.87488C7 6.32259 6.55228 5.87488 6 5.87488C5.44772 5.87488 5 6.32259 5 6.87488V8.87488C5 9.97945 5.89543 10.8749 7 10.8749H9V12.8749C9 13.4272 9.44771 13.8749 10 13.8749C10.5523 13.8749 11 13.4272 11 12.8749V6.87488C11 6.32259 10.5523 5.87488 10 5.87488ZM14 5.87488C13.4477 5.87488 13 6.32259 13 6.87488V12.8749C13 13.4272 13.4477 13.8749 14 13.8749C14.5523 13.8749 15 13.4272 15 12.8749V11.619L17.3496 13.6337C17.7689 13.9931 18.3994 13.9446 18.7588 13.5253C19.1182 13.1059 19.0697 12.4755 18.6504 12.1161L16.0352 9.87488L18.6504 7.63367C19.0697 7.27424 19.1182 6.64381 18.7588 6.22449C18.3994 5.80516 17.7689 5.75667 17.3496 6.11609L15 8.12976V6.87488C15 6.32259 14.5523 5.87488 14 5.87488Z" fill="currentColor"/></svg>
