<svg xmlns="http://www.w3.org/2000/svg" viewBox="0 0 24 24" fill="none"><path d="M18.841 21.8745V20.9995H16.8865V21.8745C16.8865 22.3578 16.4489 22.7495 15.9092 22.7495C15.3695 22.7495 14.9319 22.3578 14.9319 21.8745V20.9995H12.9774V21.8745C12.9774 22.3578 12.5399 22.7495 12.0001 22.7495C11.4604 22.7495 11.0229 22.3578 11.0229 21.8745V20.9995H9.0683V21.8745C9.0683 22.3578 8.63076 22.7495 8.09103 22.7495C7.55131 22.7495 7.11376 22.3578 7.11376 21.8745V20.9995H5.15921V21.8745C5.15921 22.3578 4.72167 22.7495 4.18194 22.7495C3.64222 22.7495 3.20467 22.3578 3.20467 21.8745V20.9995H2.22739C1.68766 20.9995 1.25012 20.6078 1.25012 20.1245C1.25012 19.6413 1.68766 19.2495 2.22739 19.2495H21.7729C22.3126 19.2495 22.7501 19.6413 22.7501 20.1245C22.7501 20.6078 22.3126 20.9995 21.7729 20.9995H20.7956V21.8745C20.7956 22.3578 20.358 22.7495 19.8183 22.7495C19.2786 22.7495 18.841 22.3578 18.841 21.8745Z" fill="currentColor"/><path opacity="0.4" d="M20.7501 10.5519V10.4995V10.4471C20.7501 9.31602 20.7502 8.40324 20.6681 7.67529C20.583 6.9212 20.4015 6.27249 19.9747 5.71631C19.7754 5.45664 19.543 5.22422 19.2833 5.0249C18.7271 4.59813 18.0784 4.4166 17.3243 4.33154C16.5964 4.24948 15.6836 4.24949 14.5524 4.24951H14.5001H9.50012H9.44782C8.31668 4.24949 7.40387 4.24948 6.6759 4.33154C5.92181 4.4166 5.2731 4.59813 4.71692 5.0249C4.45725 5.22422 4.22483 5.45664 4.02551 5.71631C3.59874 6.27249 3.41721 6.9212 3.33215 7.67529C3.25009 8.40326 3.2501 9.31607 3.25012 10.4472V10.4995V10.5518C3.2501 11.683 3.25009 12.5958 3.33215 13.3237C3.41721 14.0778 3.59874 14.7265 4.02551 15.2827C4.22483 15.5424 4.45725 15.7748 4.71692 15.9741C5.2731 16.4009 5.92181 16.5824 6.6759 16.6675C7.40386 16.7495 8.31665 16.7495 9.44777 16.7495H9.50012H14.5001H14.5525C15.6836 16.7495 16.5964 16.7495 17.3243 16.6675C18.0784 16.5824 18.7271 16.4009 19.2833 15.9741C19.543 15.7748 19.7754 15.5424 19.9747 15.2827C20.4015 14.7265 20.583 14.0778 20.6681 13.3237C20.7502 12.5958 20.7501 11.683 20.7501 10.5519Z" fill="currentColor"/><path d="M16 8.24951C16.4142 8.24951 16.75 8.5853 16.75 8.99951V9.24951H20.7441C20.7486 9.61827 20.75 10.0167 20.75 10.4468V10.7495H16.75V10.9995C16.75 11.4137 16.4142 11.7495 16 11.7495C15.5858 11.7495 15.25 11.4137 15.25 10.9995V10.7495H8.75V10.9995C8.75 11.4137 8.41421 11.7495 8 11.7495C7.58579 11.7495 7.25 11.4137 7.25 10.9995V10.7495H3.25V10.4468C3.24999 10.0167 3.25135 9.61827 3.25586 9.24951H7.25V8.99951C7.25 8.5853 7.58579 8.24951 8 8.24951C8.41421 8.24951 8.75 8.5853 8.75 8.99951V9.24951H15.25V8.99951C15.25 8.5853 15.5858 8.24951 16 8.24951Z" fill="currentColor"/><path d="M12 1.24952C12.6364 1.24952 13.208 1.24778 13.668 1.30713C14.1548 1.36998 14.6543 1.51593 15.0635 1.9087C15.4726 2.30146 15.625 2.78117 15.6904 3.24854C15.7314 3.5411 15.7411 3.88079 15.7451 4.2544C15.3777 4.24995 14.9809 4.24951 14.5527 4.24952H13.8711C13.8673 3.92075 13.859 3.68008 13.832 3.4878C13.7945 3.22026 13.74 3.18377 13.7373 3.18116C13.7328 3.17625 13.69 3.12642 13.418 3.09131C13.112 3.05184 12.6893 3.04932 12 3.04932C11.3107 3.04932 10.888 3.05184 10.582 3.09131C10.31 3.12642 10.2672 3.17625 10.2627 3.18116C10.26 3.18377 10.2055 3.22025 10.168 3.4878C10.141 3.68008 10.1327 3.92075 10.1289 4.24952H9.44727C9.01875 4.24951 8.62157 4.24994 8.25391 4.2544C8.25788 3.88078 8.26863 3.5411 8.30957 3.24854C8.37504 2.78117 8.52743 2.30146 8.93652 1.9087C9.34566 1.51593 9.84516 1.36998 10.332 1.30713C10.792 1.24778 11.3636 1.24952 12 1.24952Z" fill="currentColor"/></svg>
