<svg xmlns="http://www.w3.org/2000/svg" viewBox="0 0 24 24" fill="none"><path d="M18.841 21.8745V20.9995H16.8865V21.8745C16.8865 22.3578 16.4489 22.7495 15.9092 22.7495C15.3695 22.7495 14.9319 22.3578 14.9319 21.8745V20.9995H12.9774V21.8745C12.9774 22.3578 12.5399 22.7495 12.0001 22.7495C11.4604 22.7495 11.0229 22.3578 11.0229 21.8745V20.9995H9.0683V21.8745C9.0683 22.3578 8.63076 22.7495 8.09103 22.7495C7.55131 22.7495 7.11376 22.3578 7.11376 21.8745V20.9995H5.15921V21.8745C5.15921 22.3578 4.72167 22.7495 4.18194 22.7495C3.64222 22.7495 3.20467 22.3578 3.20467 21.8745V20.9995H2.22739C1.68766 20.9995 1.25012 20.6078 1.25012 20.1245C1.25012 19.6413 1.68766 19.2495 2.22739 19.2495H21.7729C22.3126 19.2495 22.7501 19.6413 22.7501 20.1245C22.7501 20.6078 22.3126 20.9995 21.7729 20.9995H20.7956V21.8745C20.7956 22.3578 20.358 22.7495 19.8183 22.7495C19.2786 22.7495 18.841 22.3578 18.841 21.8745Z" fill="currentColor"/><path d="M13.8751 4.84951C13.8751 4.18768 13.8732 3.78181 13.8321 3.48809C13.7946 3.22029 13.7405 3.18397 13.7378 3.18135C13.7351 3.17874 13.6972 3.12683 13.4183 3.09083C13.1123 3.05134 12.6895 3.04952 12.0001 3.04952C11.3107 3.04952 10.8879 3.05134 10.582 3.09083C10.303 3.12683 10.2652 3.17874 10.2625 3.18135C10.2597 3.18396 10.2057 3.22029 10.1682 3.48809C10.127 3.78181 10.1251 4.18768 10.1251 4.84951C10.1251 5.34657 9.7054 5.74951 9.18763 5.74951C8.66987 5.74951 8.25013 5.34657 8.25013 4.84951C8.25013 4.23856 8.24781 3.68968 8.30964 3.24815C8.37511 2.78075 8.52764 2.30147 8.93678 1.9087C9.34591 1.51593 9.84517 1.3695 10.332 1.30665C10.792 1.24729 11.3637 1.24952 12.0001 1.24952C12.6365 1.24952 13.2083 1.24729 13.6682 1.30665C14.1551 1.3695 14.6543 1.51593 15.0635 1.9087C15.4726 2.30147 15.6251 2.78075 15.6906 3.24815C15.7524 3.68968 15.7501 4.23856 15.7501 4.84951C15.7501 5.34657 15.3304 5.74951 14.8126 5.74951C14.2948 5.74951 13.8751 5.34657 13.8751 4.84951Z" fill="currentColor"/><path d="M7.25012 10.7495V10.9995C7.25012 11.4137 7.58591 11.7495 8.00012 11.7495C8.41434 11.7495 8.75012 11.4137 8.75012 10.9995V10.7495H15.2501V10.9995C15.2501 11.4137 15.5859 11.7495 16.0001 11.7495C16.4143 11.7495 16.7501 11.4137 16.7501 10.9995V10.7495H20.7501C20.7499 11.7899 20.7453 12.6387 20.6681 13.3237C20.583 14.0778 20.4015 14.7265 19.9747 15.2827C19.7754 15.5424 19.543 15.7748 19.2833 15.9741C18.7271 16.4009 18.0784 16.5824 17.3243 16.6675C16.5965 16.7495 15.6838 16.7495 14.5529 16.7495H9.44739C8.31645 16.7495 7.40378 16.7495 6.6759 16.6675C5.92181 16.5824 5.2731 16.4009 4.71692 15.9741C4.45725 15.7748 4.22482 15.5424 4.02551 15.2827C3.59874 14.7265 3.41721 14.0778 3.33215 13.3237C3.25492 12.6387 3.25037 11.7899 3.25012 10.7495H7.25012ZM14.5529 4.24951C15.6838 4.24949 16.5965 4.24949 17.3243 4.33154C18.0784 4.4166 18.7271 4.59813 19.2833 5.0249C19.543 5.22421 19.7754 5.45664 19.9747 5.71631C20.4015 6.27249 20.583 6.9212 20.6681 7.67529C20.7189 8.12639 20.7369 8.64849 20.7443 9.24951H16.7501V8.99951C16.7501 8.5853 16.4143 8.24951 16.0001 8.24951C15.5859 8.24951 15.2501 8.5853 15.2501 8.99951V9.24951H8.75012V8.99951C8.75012 8.5853 8.41434 8.24951 8.00012 8.24951C7.58591 8.24951 7.25012 8.5853 7.25012 8.99951V9.24951H3.25598C3.26333 8.64849 3.2813 8.12639 3.33215 7.67529C3.41721 6.9212 3.59874 6.27249 4.02551 5.71631C4.22482 5.45664 4.45725 5.22421 4.71692 5.0249C5.2731 4.59813 5.92181 4.4166 6.6759 4.33154C7.40378 4.24949 8.31645 4.24949 9.44739 4.24951H14.5529Z" fill="currentColor"/></svg>
