<svg xmlns="http://www.w3.org/2000/svg" viewBox="0 0 24 24" fill="none"><path d="M12.042 21.75C14.1221 21.75 15.7597 21.75 17.0381 21.5781C18.3464 21.4022 19.3904 21.0334 20.2119 20.2119C21.0334 19.3904 21.4022 18.3464 21.5781 17.0381C21.75 15.7597 21.75 14.1221 21.75 12.042V11.958C21.75 9.87786 21.75 8.24033 21.5781 6.96191C21.4022 5.65356 21.0334 4.60957 20.2119 3.78809C19.3904 2.9666 18.3464 2.59783 17.0381 2.42188C15.7597 2.25 14.1221 2.24999 12.042 2.25H11.958C9.87786 2.24999 8.24033 2.25 6.96191 2.42188C5.65356 2.59783 4.60957 2.9666 3.78809 3.78809C2.9666 4.60957 2.59783 5.65356 2.42188 6.96191C2.25 8.24033 2.24999 9.87786 2.25 11.958V12.042C2.24999 14.1221 2.25 15.7597 2.42188 17.0381C2.59783 18.3464 2.9666 19.3904 3.78809 20.2119C4.60957 21.0334 5.65356 21.4022 6.96191 21.5781C8.24033 21.75 9.87786 21.75 11.958 21.75H12.042ZM7 7.75C6.44772 7.75 6 7.30229 6 6.75C6 6.19772 6.44771 5.75 7 5.75C7.55228 5.75 8 6.19772 8 6.75C8 7.30229 7.55228 7.75 7 7.75ZM7 18C6.44772 18 6 17.5523 6 17L6 10C6 9.44771 6.44772 9 7 9C7.55228 9 8 9.44771 8 10L8 17C8 17.5523 7.55228 18 7 18ZM17 18C16.4477 18 16 17.5523 16 17V13C16 11.8954 15.1046 11 14 11C12.8954 11 12 11.8954 12 13L12 17C12 17.5523 11.5523 18 11 18C10.4477 18 10 17.5523 10 17L10 10C10 9.44771 10.4477 9 11 9C11.4055 9 11.7532 9.24198 11.9102 9.58887C12.5184 9.21545 13.234 9 14 9C16.2091 9 18 10.7909 18 13V17C18 17.5523 17.5523 18 17 18Z" fill="currentColor"/></svg>
