<svg xmlns="http://www.w3.org/2000/svg" viewBox="0 0 24 24" fill="none"><path d="M13.1728 2.52458C12.4338 2.15847 11.5661 2.15847 10.8271 2.52458C10.4108 2.73086 10.051 3.10536 9.57808 3.57829C9.10515 4.05123 8.73065 4.41105 8.52437 4.82732C8.15826 5.5663 8.15826 6.43403 8.52437 7.17302C8.73065 7.58929 9.10514 7.94911 9.57808 8.42204C10.051 8.89498 10.4108 9.26947 10.8271 9.47575C11.5661 9.84186 12.4338 9.84186 13.1728 9.47575C13.5891 9.26947 13.9489 8.89498 14.4218 8.42204C14.8948 7.94911 15.2693 7.58929 15.4755 7.17302C15.8416 6.43403 15.8416 5.5663 15.4755 4.82732C15.2693 4.41105 14.8948 4.05123 14.4218 3.57829C13.9489 3.10536 13.5891 2.73086 13.1728 2.52458Z" fill="currentColor"/><path opacity="0.4" d="M7.17281 8.52458C6.43382 8.15847 5.56609 8.15847 4.8271 8.52458C4.41083 8.73086 4.05101 9.10536 3.57808 9.57829C3.10515 10.0512 2.73065 10.411 2.52437 10.8273C2.15826 11.5663 2.15826 12.434 2.52437 13.173C2.73065 13.5893 3.10514 13.9491 3.57808 14.422C4.05101 14.895 4.41083 15.2695 4.8271 15.4758C5.56609 15.8419 6.43382 15.8419 7.17281 15.4758C7.58907 15.2695 7.94889 14.895 8.42183 14.422C8.89476 13.9491 9.26926 13.5893 9.47554 13.173C9.84165 12.434 9.84165 11.5663 9.47554 10.8273C9.26926 10.411 8.89476 10.0512 8.42183 9.57829C7.94889 9.10536 7.58907 8.73086 7.17281 8.52458Z" fill="currentColor"/><path opacity="0.4" d="M19.1728 8.52458C18.4338 8.15847 17.5661 8.15847 16.8271 8.52458C16.4108 8.73086 16.051 9.10536 15.5781 9.57829C15.1051 10.0512 14.7306 10.411 14.5244 10.8273C14.1583 11.5663 14.1583 12.434 14.5244 13.173C14.7306 13.5893 15.1051 13.9491 15.5781 14.422C16.051 14.895 16.4108 15.2695 16.8271 15.4758C17.5661 15.8419 18.4338 15.8419 19.1728 15.4758C19.5891 15.2695 19.9489 14.895 20.4218 14.422C20.8948 13.9491 21.2693 13.5893 21.4755 13.173C21.8416 12.434 21.8416 11.5663 21.4755 10.8273C21.2693 10.411 20.8948 10.0512 20.4218 9.57829C19.9489 9.10536 19.5891 8.73086 19.1728 8.52458Z" fill="currentColor"/><path d="M13.1728 14.5246C12.4338 14.1585 11.5661 14.1585 10.8271 14.5246C10.4108 14.7309 10.051 15.1054 9.57808 15.5783C9.10515 16.0512 8.73065 16.411 8.52437 16.8273C8.15826 17.5663 8.15826 18.434 8.52437 19.173C8.73065 19.5893 9.10514 19.9491 9.57808 20.422C10.051 20.895 10.4108 21.2695 10.8271 21.4758C11.5661 21.8419 12.4338 21.8419 13.1728 21.4758C13.5891 21.2695 13.9489 20.895 14.4218 20.422C14.8948 19.9491 15.2693 19.5893 15.4755 19.173C15.8416 18.434 15.8416 17.5663 15.4755 16.8273C15.2693 16.411 14.8948 16.0512 14.4218 15.5783C13.9489 15.1054 13.5891 14.7309 13.1728 14.5246Z" fill="currentColor"/></svg>
