<svg xmlns="http://www.w3.org/2000/svg" viewBox="0 0 24 24" fill="none"><path d="M13.1723 2.52458C12.4333 2.15847 11.5656 2.15847 10.8266 2.52458C10.4103 2.73086 10.0505 3.10536 9.57759 3.57829C9.10466 4.05123 8.73016 4.41105 8.52388 4.82732C8.15777 5.5663 8.15777 6.43403 8.52388 7.17302C8.73016 7.58929 9.10466 7.94911 9.57759 8.42204C10.0505 8.89498 10.4103 9.26947 10.8266 9.47575C11.5656 9.84186 12.4333 9.84186 13.1723 9.47575C13.5886 9.26947 13.9484 8.89498 14.4213 8.42204C14.8943 7.94911 15.2688 7.58929 15.4751 7.17302C15.8412 6.43403 15.8412 5.5663 15.4751 4.82732C15.2688 4.41105 14.8943 4.05123 14.4213 3.57829C13.9484 3.10536 13.5886 2.73086 13.1723 2.52458Z" fill="currentColor"/><path d="M7.17232 8.52458C6.43333 8.15847 5.5656 8.15847 4.82661 8.52458C4.41034 8.73086 4.05052 9.10536 3.57759 9.57829C3.10466 10.0512 2.73016 10.411 2.52388 10.8273C2.15777 11.5663 2.15777 12.434 2.52388 13.173C2.73016 13.5893 3.10466 13.9491 3.57759 14.422C4.05053 14.895 4.41034 15.2695 4.82661 15.4758C5.5656 15.8419 6.43333 15.8419 7.17232 15.4758C7.58859 15.2695 7.94841 14.895 8.42134 14.422C8.89428 13.9491 9.26877 13.5893 9.47505 13.173C9.84116 12.434 9.84116 11.5663 9.47505 10.8273C9.26877 10.411 8.89428 10.0512 8.42134 9.57829C7.94841 9.10536 7.58859 8.73086 7.17232 8.52458Z" fill="currentColor"/><path d="M19.1723 8.52458C18.4333 8.15847 17.5656 8.15847 16.8266 8.52458C16.4103 8.73086 16.0505 9.10536 15.5776 9.57829C15.1047 10.0512 14.7302 10.411 14.5239 10.8273C14.1578 11.5663 14.1578 12.434 14.5239 13.173C14.7302 13.5893 15.1047 13.9491 15.5776 14.422C16.0505 14.895 16.4103 15.2695 16.8266 15.4758C17.5656 15.8419 18.4333 15.8419 19.1723 15.4758C19.5886 15.2695 19.9484 14.895 20.4213 14.422C20.8943 13.9491 21.2688 13.5893 21.4751 13.173C21.8412 12.434 21.8412 11.5663 21.4751 10.8273C21.2688 10.411 20.8943 10.0512 20.4213 9.57829C19.9484 9.10536 19.5886 8.73086 19.1723 8.52458Z" fill="currentColor"/><path d="M13.1723 14.5246C12.4333 14.1585 11.5656 14.1585 10.8266 14.5246C10.4103 14.7309 10.0505 15.1054 9.57759 15.5783C9.10466 16.0512 8.73016 16.411 8.52388 16.8273C8.15777 17.5663 8.15777 18.434 8.52388 19.173C8.73016 19.5893 9.10466 19.9491 9.57759 20.422C10.0505 20.895 10.4103 21.2695 10.8266 21.4758C11.5656 21.8419 12.4333 21.8419 13.1723 21.4758C13.5886 21.2695 13.9484 20.895 14.4213 20.422C14.8943 19.9491 15.2688 19.5893 15.4751 19.173C15.8412 18.434 15.8412 17.5663 15.4751 16.8273C15.2688 16.411 14.8943 16.0512 14.4213 15.5783C13.9484 15.1054 13.5886 14.7309 13.1723 14.5246Z" fill="currentColor"/></svg>
