<svg xmlns="http://www.w3.org/2000/svg" viewBox="0 0 24 24" fill="none"><path d="M8.46976 2.4695C8.76262 2.17664 9.2374 2.1767 9.5303 2.4695C9.8232 2.7624 9.8232 3.23716 9.5303 3.53005C9.40576 3.65466 9.19661 3.90412 9.02347 4.20193C8.98267 4.27213 8.94693 4.3412 8.91507 4.40798C9.98378 4.78516 10.75 5.80197 10.75 6.99978C10.75 8.5185 9.51877 9.74978 8.00003 9.74978C6.48146 9.74958 5.2501 8.51838 5.25003 6.99978C5.25003 5.70682 6.14334 4.62477 7.34573 4.33083C7.4372 3.99892 7.58213 3.69657 7.72659 3.44802C7.96988 3.02957 8.26096 2.67836 8.46976 2.4695Z" fill="currentColor"/><path opacity="0.4" d="M16.0771 2.81311C15.5193 2.42056 14.8634 2.24974 14.2265 2.24963C13.6249 2.24971 13.0139 2.40347 12.4795 2.73889C11.9635 3.06278 11.3938 3.44927 10.7939 3.87463C10.7645 3.93477 10.734 3.9948 10.6982 4.05237C11.4962 4.78211 11.9999 5.82979 12 6.99963C11.9998 9.13943 10.3193 10.8874 8.20602 10.9948L7.99997 10.9996C6.4449 10.9994 5.09727 10.1115 4.43552 8.81506C3.56783 9.52891 2.95795 10.0445 2.60934 10.7828C2.40041 11.2255 2.31497 11.696 2.27829 12.2496H21.75V10.9996C21.75 9.29551 20.8363 7.62403 19.7353 6.23987C18.6197 4.83746 17.2257 3.62167 16.0771 2.81311Z" fill="currentColor"/><path d="M18.7501 17.2496C19.7537 17.2496 20.1841 17.4477 20.6632 17.6696C20.8788 17.7804 21.2458 17.9957 21.6466 18.277C21.642 18.3154 21.6389 18.3537 21.6339 18.3912C21.5129 19.2913 21.2533 20.0491 20.6515 20.651C20.0496 21.2527 19.2916 21.5124 18.3917 21.6334C17.5269 21.7496 16.4272 21.7497 15.0645 21.7496H8.93564C7.57292 21.7497 6.47327 21.7496 5.60849 21.6334C4.70864 21.5124 3.95052 21.2527 3.34872 20.651C2.74697 20.0491 2.48731 19.2912 2.3663 18.3912C2.32914 18.1147 2.3044 17.8143 2.2872 17.4889C2.44142 17.5638 2.57583 17.6298 2.68466 17.6803H2.68564C3.27728 17.9542 3.92968 18.2496 5.25009 18.2496C6.52605 18.2496 7.20037 17.9538 7.80478 17.6852C8.32523 17.4539 8.77651 17.2497 9.75009 17.2496C10.7692 17.2496 11.1974 17.4543 11.6856 17.6803C12.2773 17.9542 12.9297 18.2496 14.2501 18.2496C15.5261 18.2496 16.2004 17.9538 16.8048 17.6852C17.3252 17.4539 17.7765 17.2497 18.7501 17.2496ZM21.7501 13.7496V15.0641C21.7501 15.6008 21.7474 16.0966 21.7403 16.5533C21.5839 16.461 21.4486 16.3858 21.3429 16.3317C21.334 16.3271 21.3246 16.3232 21.3155 16.319C20.7238 16.045 20.0709 15.7496 18.7501 15.7496C17.4742 15.7497 16.7998 16.0455 16.1954 16.3141C15.675 16.5454 15.2237 16.7496 14.2501 16.7496C13.2312 16.7496 12.8037 16.545 12.3155 16.319C11.7238 16.045 11.0709 15.7496 9.75009 15.7496C8.47416 15.7497 7.79983 16.0455 7.1954 16.3141C6.67501 16.5454 6.22374 16.7496 5.25009 16.7496C4.23172 16.7496 3.80436 16.5448 3.3165 16.319C3.06333 16.2015 2.67749 16.0115 2.25107 15.7926C2.25034 15.5586 2.25009 15.3159 2.25009 15.0641V13.7496H21.7501Z" fill="currentColor"/></svg>
