<svg xmlns="http://www.w3.org/2000/svg" viewBox="0 0 24 24" fill="none"><path d="M15.7501 20.5001C15.0346 21.8389 13.6241 22.7501 12.0001 22.7501C10.3761 22.7501 8.96557 21.8389 8.25009 20.5001H15.7501Z" fill="currentColor"/><path d="M18.0001 8.75012C20.0711 8.75012 21.7501 7.07118 21.7501 5.00012C21.7501 2.92905 20.0711 1.25012 18.0001 1.25012C15.929 1.25012 14.2501 2.92905 14.2501 5.00012C14.2501 7.07117 15.929 8.75012 18.0001 8.75012Z" fill="currentColor"/><path opacity="0.4" d="M12.0001 2.25012C12.5857 2.25012 13.1558 2.3165 13.7042 2.43958C13.2568 3.18849 13.0001 4.06437 13.0001 5.00012C13.0001 7.76152 15.2387 10.0001 18.0001 10.0001C18.613 10.0001 19.1996 9.88845 19.7423 9.68665C19.7464 9.79064 19.7501 9.89511 19.7501 10.0001V12.756C19.7501 13.3527 19.9873 13.9249 20.4093 14.3468L21.0128 14.9503C21.485 15.4227 21.7501 16.0637 21.7501 16.7316C21.7499 18.1225 20.6224 19.25 19.2315 19.2501H4.76865C3.37776 19.25 2.25026 18.1225 2.25009 16.7316C2.25009 16.0637 2.51521 15.4227 2.9874 14.9503L3.59091 14.3468L3.74033 14.1818C4.06839 13.7814 4.25008 13.2781 4.25009 12.756V10.0001C4.25009 5.71992 7.71989 2.25012 12.0001 2.25012Z" fill="currentColor"/></svg>
