<svg xmlns="http://www.w3.org/2000/svg" viewBox="0 0 24 24" fill="none"><path d="M12 1.25C12.3772 1.25 12.6914 1.41356 12.872 1.52246C13.0801 1.64791 13.2825 1.80861 13.4648 1.96973C13.8317 2.29393 14.2154 2.70737 14.5517 3.09473C14.8924 3.48707 15.2047 3.87647 15.4306 4.16602C15.544 4.31133 15.6365 4.43294 15.7012 4.51855C15.7335 4.56139 15.7588 4.59556 15.7763 4.61914C15.7851 4.63091 15.7921 4.64006 15.7969 4.64648C15.7991 4.64951 15.8014 4.65154 15.8027 4.65332L15.8047 4.65625V4.65723H15.8056C16.1328 5.1019 16.0373 5.72825 15.5928 6.05566C15.1481 6.38284 14.5217 6.28735 14.1943 5.84277V5.8418C14.1936 5.84078 14.1921 5.83918 14.1904 5.83691L14.1054 5.72363C14.0462 5.64523 13.9604 5.53222 13.8545 5.39648C13.6415 5.12361 13.3514 4.76281 13.041 4.40527C12.7264 4.04295 12.4101 3.70593 12.1406 3.46777C12.089 3.42218 12.0413 3.38447 12 3.35156C11.9588 3.38437 11.9118 3.42235 11.8603 3.46777C11.5908 3.70594 11.2736 4.04291 10.959 4.40527C10.6485 4.7628 10.3584 5.12361 10.1455 5.39648C10.0396 5.53222 9.95373 5.64523 9.89451 5.72363L9.80955 5.83691C9.80787 5.83918 9.8064 5.84078 9.80564 5.8418V5.84277L9.74021 5.92188C9.39996 6.29764 8.82415 6.36177 8.40721 6.05469C7.96271 5.72726 7.86717 5.10187 8.19432 4.65723H8.19529V4.65625C8.19569 4.6557 8.19658 4.65423 8.19725 4.65332C8.19856 4.65155 8.20086 4.64952 8.2031 4.64648C8.20786 4.64006 8.21485 4.6309 8.22361 4.61914C8.24118 4.59556 8.26646 4.56139 8.29881 4.51855C8.36347 4.43294 8.4559 4.31134 8.56932 4.16602C8.79528 3.87647 9.10758 3.48707 9.44822 3.09473C9.78453 2.70739 10.1683 2.29392 10.5351 1.96973C10.7175 1.80861 10.9198 1.64791 11.1279 1.52246C11.3086 1.41356 11.6227 1.25001 12 1.25Z" fill="currentColor"/><path d="M11 13.25V9.3584C10.9863 9.374 10.9726 9.38957 10.959 9.40527C10.6485 9.7628 10.3584 10.1236 10.1455 10.3965C10.0396 10.5322 9.95373 10.6452 9.89451 10.7236L9.80955 10.8369C9.80787 10.8392 9.8064 10.8408 9.80564 10.8418V10.8428L9.74021 10.9219C9.39996 11.2976 8.82415 11.3618 8.40721 11.0547C7.96271 10.7273 7.86717 10.1019 8.19432 9.65723H8.19529V9.65625C8.19569 9.6557 8.19658 9.65423 8.19724 9.65332C8.19856 9.65154 8.20086 9.64952 8.2031 9.64648C8.20786 9.64006 8.21485 9.6309 8.22361 9.61914C8.24118 9.59556 8.26646 9.56139 8.29881 9.51855C8.36347 9.43294 8.4559 9.31134 8.56932 9.16602C8.79528 8.87647 9.10758 8.48707 9.44822 8.09473C9.78453 7.70739 10.1683 7.29392 10.5351 6.96973C10.7175 6.80861 10.9198 6.64791 11.1279 6.52246C11.3086 6.41356 11.6227 6.25001 12 6.25C12.3772 6.25 12.6914 6.41356 12.872 6.52246C13.0801 6.64791 13.2825 6.80861 13.4648 6.96973C13.8317 7.29393 14.2154 7.70737 14.5517 8.09473C14.8924 8.48707 15.2047 8.87647 15.4306 9.16602C15.544 9.31133 15.6365 9.43294 15.7012 9.51855C15.7335 9.56139 15.7588 9.59556 15.7763 9.61914C15.7851 9.63091 15.7921 9.64006 15.7969 9.64648C15.7991 9.64951 15.8014 9.65154 15.8027 9.65332L15.8047 9.65625V9.65723H15.8056C16.1328 10.1019 16.0373 10.7282 15.5928 11.0557C15.1481 11.3828 14.5217 11.2873 14.1943 10.8428V10.8418C14.1936 10.8408 14.1921 10.8392 14.1904 10.8369L14.1054 10.7236C14.0462 10.6452 13.9604 10.5322 13.8545 10.3965C13.6415 10.1236 13.3514 9.76281 13.041 9.40527C13.0274 9.38957 13.0136 9.374 13 9.3584V13.25C13 13.8023 12.5523 14.25 12 14.25C11.4477 14.25 11 13.8023 11 13.25Z" fill="currentColor"/><path opacity="0.4" d="M15.9561 1.25C16.8166 1.24995 17.5584 1.24981 18.1523 1.33008C18.7895 1.41623 19.4001 1.61138 19.8955 2.10938C20.3908 2.60734 20.5842 3.22092 20.6699 3.86133C20.7497 4.45822 20.7501 5.20363 20.75 6.06836V17.8633C20.75 18.403 20.3143 18.8408 19.7773 18.8408H19.6875C19.6572 18.8768 19.6244 18.9161 19.5928 18.96C19.4254 19.1924 19.292 19.4846 19.292 19.8184C19.292 20.152 19.4255 20.4434 19.5928 20.6758C19.6244 20.7198 19.6571 20.7598 19.6875 20.7959H19.7773C20.3142 20.7959 20.7499 21.2329 20.75 21.7725C20.75 22.3122 20.3143 22.75 19.7773 22.75H6.16699C4.55622 22.75 3.2501 21.4375 3.25 19.8184V8.03516C3.24998 6.70606 3.25036 5.61062 3.36621 4.74414C3.48749 3.8374 3.75177 3.03671 4.38965 2.39551C5.02746 1.7544 5.82365 1.48814 6.72559 1.36621C7.4702 1.2656 8.38502 1.25278 9.47266 1.25098C9.1267 1.58044 8.79014 1.94686 8.50488 2.27539C8.14543 2.68941 7.81807 3.09654 7.58398 3.39649C7.46519 3.54871 7.14974 3.95489 7.05078 4.12598C6.48384 5.10618 6.73472 6.37551 7.66602 7.06153L7.8457 7.18067C8.01851 7.28427 8.20096 7.36123 8.3877 7.41407C8.07516 7.77965 7.79209 8.12984 7.58398 8.39649C7.46519 8.54871 7.14734 8.95905 7.05078 9.12598C6.48384 10.1062 6.73472 11.3755 7.66602 12.0615L7.8457 12.1807C8.43577 12.5344 9.13452 12.5856 9.75 12.3682V13.25C9.75 14.4927 10.7574 15.5 12 15.5C13.2426 15.4999 14.25 14.4926 14.25 13.25V12.3711C14.9287 12.6103 15.7105 12.5213 16.334 12.0625L16.5127 11.916C17.3394 11.1668 17.4947 9.90962 16.8525 8.97657C16.7619 8.84487 16.5347 8.54957 16.416 8.39746C16.2075 8.13033 15.9244 7.77862 15.6113 7.41211C15.8641 7.34078 16.1099 7.2274 16.334 7.0625L16.5127 6.917C17.3398 6.16783 17.4948 4.9098 16.8525 3.97657C16.7632 3.84669 16.5347 3.54957 16.416 3.39746C16.1819 3.09753 15.8556 2.68945 15.4961 2.27539C15.2338 1.97333 14.9287 1.63806 14.6123 1.33008L14.5264 1.25H15.9561ZM6.16699 18.8398C5.63005 18.8398 5.19434 19.2777 5.19434 19.8174C5.19448 20.357 5.63014 20.7939 6.16699 20.7939H17.5C17.4082 20.5025 17.3477 20.1761 17.3477 19.8174C17.3477 19.4584 17.4081 19.1314 17.5 18.8398H6.16699Z" fill="currentColor" fill-rule="evenodd" clip-rule="evenodd"/></svg>
