<svg xmlns="http://www.w3.org/2000/svg" viewBox="0 0 24 24" fill="none"><path d="M11.9995 1.25C12.3767 1.25 12.6909 1.41356 12.8716 1.52246C13.0797 1.64791 13.282 1.80861 13.4643 1.96973C13.8312 2.29393 14.2149 2.70737 14.5512 3.09473C14.8919 3.48707 15.2042 3.87647 15.4302 4.16602C15.5436 4.31133 15.636 4.43294 15.7007 4.51855C15.733 4.56139 15.7583 4.59556 15.7759 4.61914C15.7846 4.63091 15.7916 4.64006 15.7964 4.64648C15.7986 4.64951 15.8009 4.65154 15.8022 4.65332L15.8042 4.65625V4.65723H15.8052C16.1323 5.1019 16.0368 5.72825 15.5923 6.05566C15.1476 6.38284 14.5212 6.28735 14.1938 5.84277V5.8418C14.1931 5.84078 14.1916 5.83918 14.1899 5.83691L14.105 5.72363C14.0457 5.64523 13.9599 5.53222 13.854 5.39648C13.641 5.12361 13.3509 4.76281 13.0405 4.40527C12.7259 4.04295 12.4096 3.70593 12.1401 3.46777C12.0885 3.42218 12.0408 3.38447 11.9995 3.35156C11.9583 3.38437 11.9113 3.42235 11.8598 3.46777C11.5903 3.70594 11.2731 4.04291 10.9585 4.40527C10.648 4.7628 10.358 5.12361 10.145 5.39648C10.0391 5.53222 9.95324 5.64523 9.89402 5.72363L9.80906 5.83691C9.80738 5.83918 9.80591 5.84078 9.80516 5.8418V5.84277L9.73973 5.92188C9.39947 6.29764 8.82367 6.36177 8.40672 6.05469C7.96222 5.72726 7.86668 5.10187 8.19383 4.65723H8.1948V4.65625C8.19521 4.6557 8.19609 4.65423 8.19676 4.65332C8.19807 4.65155 8.20037 4.64952 8.20262 4.64648C8.20737 4.64006 8.21436 4.6309 8.22312 4.61914C8.2407 4.59556 8.26597 4.56139 8.29832 4.51855C8.36298 4.43294 8.45541 4.31134 8.56883 4.16602C8.79479 3.87647 9.10709 3.48707 9.44773 3.09473C9.78404 2.70739 10.1678 2.29392 10.5346 1.96973C10.717 1.80861 10.9193 1.64791 11.1274 1.52246C11.3081 1.41356 11.6222 1.25001 11.9995 1.25Z" fill="currentColor"/><path d="M10.9995 13.25V9.3584C10.9859 9.374 10.9721 9.38957 10.9585 9.40527C10.648 9.7628 10.358 10.1236 10.145 10.3965C10.0391 10.5322 9.95324 10.6452 9.89402 10.7236L9.80906 10.8369C9.80738 10.8392 9.80591 10.8408 9.80516 10.8418V10.8428L9.73973 10.9219C9.39947 11.2976 8.82367 11.3618 8.40672 11.0547C7.96222 10.7273 7.86668 10.1019 8.19383 9.65723H8.1948V9.65625C8.19521 9.6557 8.19609 9.65423 8.19676 9.65332C8.19807 9.65154 8.20037 9.64952 8.20262 9.64648C8.20737 9.64006 8.21436 9.6309 8.22312 9.61914C8.2407 9.59556 8.26597 9.56139 8.29832 9.51855C8.36298 9.43294 8.45541 9.31134 8.56883 9.16602C8.79479 8.87647 9.10709 8.48707 9.44773 8.09473C9.78404 7.70739 10.1678 7.29392 10.5346 6.96973C10.717 6.80861 10.9193 6.64791 11.1274 6.52246C11.3081 6.41356 11.6222 6.25001 11.9995 6.25C12.3767 6.25 12.6909 6.41356 12.8716 6.52246C13.0797 6.64791 13.282 6.80861 13.4643 6.96973C13.8312 7.29393 14.2149 7.70737 14.5512 8.09473C14.8919 8.48707 15.2042 8.87647 15.4302 9.16602C15.5436 9.31133 15.636 9.43294 15.7007 9.51855C15.733 9.56139 15.7583 9.59556 15.7759 9.61914C15.7846 9.63091 15.7916 9.64006 15.7964 9.64648C15.7986 9.64951 15.8009 9.65154 15.8022 9.65332L15.8042 9.65625V9.65723H15.8052C16.1323 10.1019 16.0368 10.7282 15.5923 11.0557C15.1476 11.3828 14.5212 11.2873 14.1938 10.8428V10.8418C14.1931 10.8408 14.1916 10.8392 14.1899 10.8369L14.105 10.7236C14.0457 10.6452 13.9599 10.5322 13.854 10.3965C13.641 10.1236 13.3509 9.76281 13.0405 9.40527C13.0269 9.38957 13.0131 9.374 12.9995 9.3584V13.25C12.9995 13.8023 12.5518 14.25 11.9995 14.25C11.4472 14.25 10.9995 13.8023 10.9995 13.25Z" fill="currentColor"/><path d="M15.9556 1.25C16.8161 1.24995 17.5579 1.24981 18.1519 1.33008C18.7891 1.41623 19.3996 1.61138 19.895 2.10938C20.3903 2.60734 20.5837 3.22092 20.6694 3.86133C20.7493 4.45822 20.7496 5.20363 20.7495 6.06836V17.8633C20.7495 18.403 20.3138 18.8408 19.7769 18.8408H19.687C19.6567 18.8768 19.6239 18.9161 19.5923 18.96C19.4249 19.1924 19.2915 19.4846 19.2915 19.8184C19.2916 20.152 19.425 20.4434 19.5923 20.6758C19.624 20.7198 19.6566 20.7598 19.687 20.7959H19.7769C20.3137 20.7959 20.7494 21.2329 20.7495 21.7725C20.7495 22.3122 20.3138 22.75 19.7769 22.75H6.1665C4.55573 22.75 3.24961 21.4375 3.24951 19.8184V8.03516C3.24949 6.70606 3.24987 5.61062 3.36572 4.74414C3.487 3.8374 3.75128 3.03671 4.38916 2.39551C5.02698 1.7544 5.82317 1.48814 6.7251 1.36621C7.46971 1.2656 8.38453 1.25278 9.47217 1.25098C9.12621 1.58044 8.78965 1.94686 8.5044 2.27539C8.14494 2.68941 7.81758 3.09654 7.5835 3.39649C7.4647 3.54871 7.14926 3.95489 7.05029 4.12598C6.48335 5.10618 6.73423 6.37551 7.66553 7.06153L7.84522 7.18067C8.01802 7.28427 8.20048 7.36123 8.38721 7.41407C8.07467 7.77965 7.7916 8.12984 7.5835 8.39649C7.4647 8.54871 7.14685 8.95905 7.05029 9.12598C6.48335 10.1062 6.73423 11.3755 7.66553 12.0615L7.84522 12.1807C8.43528 12.5344 9.13403 12.5856 9.74951 12.3682V13.25C9.74951 14.4927 10.757 15.5 11.9995 15.5C13.2421 15.4999 14.2495 14.4926 14.2495 13.25V12.3711C14.9282 12.6103 15.71 12.5213 16.3335 12.0625L16.5122 11.916C17.3389 11.1668 17.4942 9.90962 16.8521 8.97657C16.7614 8.84487 16.5342 8.54957 16.4155 8.39746C16.2071 8.13033 15.9239 7.77862 15.6108 7.41211C15.8636 7.34078 16.1094 7.2274 16.3335 7.0625L16.5122 6.917C17.3393 6.16783 17.4943 4.9098 16.8521 3.97657C16.7627 3.84669 16.5342 3.54957 16.4155 3.39746C16.1815 3.09753 15.8551 2.68945 15.4956 2.27539C15.2333 1.97333 14.9282 1.63806 14.6118 1.33008L14.5259 1.25H15.9556ZM6.1665 18.8398C5.62956 18.8398 5.19385 19.2777 5.19385 19.8174C5.19399 20.357 5.62965 20.7939 6.1665 20.7939H17.4995C17.4077 20.5025 17.3472 20.1761 17.3472 19.8174C17.3472 19.4584 17.4076 19.1314 17.4995 18.8398H6.1665Z" fill="currentColor" fill-rule="evenodd" clip-rule="evenodd"/></svg>
