<svg xmlns="http://www.w3.org/2000/svg" fill="none" viewBox="0 0 48 48">
  <g>
    <path fill="currentColor" fill-opacity="0.4" d="M44.5 24c0 -7.5694 -0.3249 -13.1019 -0.6273 -16.61223 -0.293 -3.40159 -2.9698 -5.99732 -6.337 -6.28396C34.1705 0.817333 29.2583 0.5 24 0.5c-5.2325 0 -10.1221 0.314219 -13.4858 0.59957 -3.39582 0.28807 -6.08504 2.91781 -6.37663 6.33922C3.83259 11.0172 3.5 16.613 3.5 24c0 8.9432 0.24449 15.702 0.41093 19.2672 0.11167 2.392 2.0862 4.2328 4.45489 4.2328H39.6453c2.3619 0 4.3346 -1.8325 4.4486 -4.2204 0.1665 -3.486 0.4061 -10.0991 0.4061 -19.2796Z" stroke-width="1"></path>
    <path fill="currentColor" fill-rule="evenodd" d="M22 9c0 1.1046 -0.8954 2 -2 2l-8 0c-1.1046 0 -2 -0.8954 -2 -2 0 -1.10457 0.8954 -2 2 -2h8c1.1046 0 2 0.89543 2 2Zm0 8c0 1.1046 -0.8954 2 -2 2h-8c-1.1046 0 -2 -0.8954 -2 -2s0.8954 -2 2 -2h8c1.1046 0 2 0.8954 2 2Zm0 8c0 1.1046 -0.8954 2 -2 2h-8c-1.1046 0 -2 -0.8954 -2 -2s0.8954 -2 2 -2h8c1.1046 0 2 0.8954 2 2Zm16 0c0 1.1046 -0.8954 2 -2 2h-8c-1.1046 0 -2 -0.8954 -2 -2s0.8954 -2 2 -2h8c1.1046 0 2 0.8954 2 2Zm0 -8c0 1.1046 -0.8954 2 -2 2h-8c-1.1046 0 -2 -0.8954 -2 -2s0.8954 -2 2 -2h8c1.1046 0 2 0.8954 2 2Zm0 -8c0 1.1046 -0.8954 2 -2 2l-8 0c-1.1046 0 -2 -0.8954 -2 -2 0 -1.10457 0.8954 -2 2 -2h8c1.1046 0 2 0.89543 2 2ZM18.5 41c0 2.8952 0.0596 4.7048 0.1198 5.7942 0.0155 0.2807 0.0311 0.5139 0.0457 0.7058h10.669c0.0146 -0.1919 0.0302 -0.4251 0.0457 -0.7058 0.0602 -1.0894 0.1198 -2.899 0.1198 -5.7942 0 -2.2235 -0.0352 -3.8065 -0.0787 -4.9146 -0.0649 -1.6503 -1.0102 -3.1791 -2.7958 -3.4258C25.9394 32.5647 25.0769 32.5 24 32.5c-1.0768 0 -1.9394 0.0647 -2.6255 0.1596 -1.7856 0.2467 -2.7309 1.7755 -2.7958 3.4258C18.5352 37.1935 18.5 38.7765 18.5 41Z" clip-rule="evenodd" stroke-width="1"></path>
  </g>
</svg>
