<svg xmlns="http://www.w3.org/2000/svg" fill="none" viewBox="0 0 48 48">
  <g>
    <path fill="currentColor" fill-rule="evenodd" d="M43.8727 7.38777C44.1751 10.8981 44.5 16.4306 44.5 24c0 9.1805 -0.2396 15.7936 -0.4061 19.2796 -0.114 2.3879 -2.0867 4.2204 -4.4486 4.2204H8.36582c-2.36869 0 -4.34322 -1.8408 -4.45489 -4.2328C3.74449 39.702 3.5 32.9432 3.5 24c0 -7.387 0.33259 -12.9828 0.63757 -16.56121 0.29159 -3.42141 2.98081 -6.05115 6.37663 -6.33922C13.8779 0.814219 18.7675 0.5 24 0.5c5.2583 0 10.1705 0.317333 13.5357 0.60381 3.3672 0.28664 6.044 2.88237 6.337 6.28396ZM20 11c1.1046 0 2 -0.8954 2 -2 0 -1.10457 -0.8954 -2 -2 -2h-8c-1.1046 0 -2 0.89543 -2 2 0 1.1046 0.8954 2 2 2h8Zm0 8c1.1046 0 2 -0.8954 2 -2s-0.8954 -2 -2 -2h-8c-1.1046 0 -2 0.8954 -2 2s0.8954 2 2 2h8Zm0 8c1.1046 0 2 -0.8954 2 -2s-0.8954 -2 -2 -2h-8c-1.1046 0 -2 0.8954 -2 2s0.8954 2 2 2h8Zm16 0c1.1046 0 2 -0.8954 2 -2s-0.8954 -2 -2 -2h-8c-1.1046 0 -2 0.8954 -2 2s0.8954 2 2 2h8Zm0 -8c1.1046 0 2 -0.8954 2 -2s-0.8954 -2 -2 -2h-8c-1.1046 0 -2 0.8954 -2 2s0.8954 2 2 2h8Zm0 -8c1.1046 0 2 -0.8954 2 -2 0 -1.10457 -0.8954 -2 -2 -2h-8c-1.1046 0 -2 0.89543 -2 2 0 1.1046 0.8954 2 2 2h8Zm-6.5356 33.5c0.0214 -0.9371 0.0356 -2.0897 0.0356 -3.5 0 -2.2235 -0.0352 -3.8065 -0.0787 -4.9146 -0.0649 -1.6503 -1.0102 -3.1791 -2.7958 -3.4258C25.9394 32.5647 25.0768 32.5 24 32.5c-1.0769 0 -1.9394 0.0647 -2.6255 0.1596 -1.7856 0.2467 -2.7309 1.7755 -2.7958 3.4258C18.5352 37.1935 18.5 38.7765 18.5 41c0 1.4103 0.0142 2.5629 0.0356 3.5h10.9288Z" clip-rule="evenodd" stroke-width="1"></path>
  </g>
</svg>
