<svg xmlns="http://www.w3.org/2000/svg" viewBox="0 0 24 24" fill="none"><path d="M18.5 9.25049C18.5 8.97435 18.2761 8.75049 18 8.75049H15.5V10.2505H18C18.2761 10.2505 18.5 10.0266 18.5 9.75049V9.25049ZM18 5.75049C18 5.47435 17.7761 5.25049 17.5 5.25049H15.5V6.75049H17.5C17.7761 6.75049 18 6.52663 18 6.25049V5.75049ZM20 6.25049C20 6.67582 19.8924 7.07563 19.7051 7.42627C20.193 7.88251 20.5 8.52979 20.5 9.25049V9.75049C20.5 11.1312 19.3807 12.2505 18 12.2505H17.5V12.7505C17.5 13.3028 17.0523 13.7505 16.5 13.7505C15.9477 13.7505 15.5 13.3028 15.5 12.7505V12.2505H13.5C12.9477 12.2505 12.5 11.8028 12.5 11.2505C12.5 10.6982 12.9477 10.2505 13.5 10.2505V5.25049C12.9477 5.25049 12.5 4.80277 12.5 4.25049C12.5 3.6982 12.9477 3.25049 13.5 3.25049H15.5V2.75049C15.5 2.1982 15.9477 1.75049 16.5 1.75049C17.0523 1.75049 17.5 2.1982 17.5 2.75049V3.25049C18.8807 3.25049 20 4.36978 20 5.75049V6.25049Z" fill="currentColor"/><path d="M11.3525 4.92236C11.5075 5.41659 11.8284 5.8373 12.25 6.11963V9.37842C11.647 9.78205 11.25 10.4694 11.25 11.2495C11.25 12.4922 12.2574 13.4995 13.5 13.4995H14.3809C14.69 14.3729 15.5207 14.9995 16.5 14.9995C17.5001 14.9995 18.3459 14.3464 18.6387 13.4438C20.4054 13.1406 21.75 11.6028 21.75 9.74951V9.24951C21.75 9.23189 21.7473 9.21434 21.7471 9.19678C21.9172 9.52852 22.0699 9.88305 22.2012 10.2622C22.5559 11.1177 22.75 12.0393 22.75 12.9995C22.75 15.3128 21.6296 17.3782 19.876 18.853C19.7856 18.9291 19.7502 19.0203 19.75 19.0913V21.4995C19.75 21.9137 19.4142 22.2495 19 22.2495H17C16.7554 22.2495 16.5261 22.1305 16.3857 21.9302L15.6865 20.9331C13.931 21.3579 12.069 21.3579 10.3135 20.9331L9.61426 21.9302C9.47388 22.1305 9.24458 22.2495 9 22.2495H7C6.58579 22.2495 6.25 21.9137 6.25 21.4995V19.1157C6.25 19.0335 6.20928 18.9563 6.1416 18.9097C5.91933 18.7564 5.5597 18.5574 5.08691 18.2964C4.60983 18.033 4.00315 17.6962 3.47559 17.3569C2.95288 17.0208 2.42331 16.6331 2.01758 16.2036C1.62378 15.7866 1.25 15.2283 1.25 14.5581V12.9995C1.25018 12.0433 1.98573 11.1782 3 11.1782C3.21205 11.1782 3.33964 11.1365 3.41211 11.0923C3.47024 11.0568 3.5379 10.9939 3.58789 10.8374C4.44466 8.15511 6.82854 6.07218 9.81055 5.20068C9.82154 5.19748 9.83262 5.1946 9.84375 5.19189C10.2846 5.08518 10.7949 4.99104 11.3525 4.92236ZM8 10.5005C7.44771 10.5005 7 10.9482 7 11.5005C7 12.0528 7.44772 12.5005 8 12.5005C8.55228 12.5005 9 12.0528 9 11.5005C9 10.9482 8.55228 10.5005 8 10.5005Z" fill="currentColor"/></svg>
