<svg xmlns="http://www.w3.org/2000/svg" viewBox="0 0 24 24" fill="none"><path d="M18.0001 7.25V4.58594L17.796 4.85449C17.4619 5.29424 16.8354 5.37991 16.3956 5.0459C15.9559 4.71183 15.8702 4.08528 16.2042 3.64551L16.6417 3.06836C16.983 2.61916 17.3034 2.19385 17.6065 1.89453C17.9253 1.5799 18.3758 1.25 19.0001 1.25C19.6244 1.25 20.0749 1.5799 20.3937 1.89453C20.6968 2.19385 21.0172 2.61916 21.3585 3.06836L21.796 3.64551C22.13 4.08528 22.0443 4.71183 21.6046 5.0459C21.1648 5.37991 20.5383 5.29424 20.2042 4.85449L20.0001 4.58594V7.25C20.0001 7.80228 19.5524 8.25 19.0001 8.25C18.4478 8.25 18.0001 7.80228 18.0001 7.25Z" fill="currentColor"/><path opacity="0.4" d="M12 2.25C12.834 2.25 13.5374 2.59581 14.2412 3.13281C14.4333 3.27933 14.6315 3.44579 14.8389 3.62988C14.5905 4.49602 14.8792 5.46308 15.6396 6.04102C15.9754 6.29593 16.3605 6.43911 16.751 6.48242V7.25C16.751 8.49264 17.7583 9.5 19.001 9.5C19.4854 9.49984 19.9326 9.34456 20.2998 9.08398C20.5118 9.31971 20.7024 9.54285 20.8672 9.75879C21.4042 10.4626 21.75 11.166 21.75 12C21.75 12.834 21.4042 13.5374 20.8672 14.2412C20.3514 14.9172 19.5942 15.6744 18.6572 16.6113L16.6113 18.6572C15.6744 19.5942 14.9172 20.3514 14.2412 20.8672C13.5374 21.4042 12.834 21.75 12 21.75C11.166 21.75 10.4626 21.4042 9.75879 20.8672C9.08281 20.3514 8.32556 19.5942 7.38867 18.6572L5.34277 16.6113C4.40584 15.6744 3.64857 14.9172 3.13281 14.2412C2.59582 13.5374 2.25 12.834 2.25 12C2.25 11.166 2.59581 10.4626 3.13281 9.75879C3.64857 9.08281 4.40584 8.32556 5.34277 7.38867L7.38867 5.34277C8.32556 4.40584 9.08281 3.64857 9.75879 3.13281C10.4626 2.59581 11.166 2.25 12 2.25Z" fill="currentColor"/><path d="M15 12C15 13.6569 13.6569 15 12 15C10.3431 15 9 13.6569 9 12C9 10.3431 10.3431 9 12 9C13.6569 9 15 10.3431 15 12Z" fill="currentColor"/></svg>
