<svg xmlns="http://www.w3.org/2000/svg" viewBox="0 0 24 24" fill="none"><path d="M16 11C16.5523 11 17 11.4477 17 12C17 12.5523 16.5523 13 16 13H4C3.44772 13 3 12.5523 3 12C3 11.4477 3.44772 11 4 11H16Z" fill="currentColor"/><path d="M8.40723 6.1944C8.85187 5.86727 9.47726 5.96279 9.80469 6.4073C10.1322 6.85199 10.0375 7.47822 9.59277 7.80573L9.59082 7.80671C9.58879 7.80821 9.58541 7.8113 9.58105 7.81452C9.57235 7.82097 9.55852 7.83078 9.54102 7.84382C9.506 7.86991 9.45401 7.90897 9.3877 7.95905C9.25457 8.05961 9.06353 8.20569 8.83398 8.38483C8.37364 8.7441 7.76271 9.2334 7.15527 9.76081C6.5428 10.2926 5.95601 10.8434 5.53027 11.3253C5.31663 11.5671 5.16457 11.7682 5.07129 11.9229C5.0534 11.9526 5.04207 11.9794 5.03125 12.0001C5.04208 12.0208 5.05338 12.0475 5.07129 12.0772C5.16456 12.2319 5.31662 12.433 5.53027 12.6749C5.956 13.1567 6.5428 13.7076 7.15527 14.2393C7.76271 14.7667 8.37363 15.256 8.83398 15.6153C9.06352 15.7944 9.25457 15.9405 9.3877 16.0411C9.454 16.0912 9.506 16.1302 9.54102 16.1563C9.55851 16.1694 9.57235 16.1792 9.58105 16.1856C9.58541 16.1888 9.58879 16.1919 9.59082 16.1934L9.59277 16.1944C10.0373 16.5218 10.1328 17.1482 9.80566 17.5928C9.47825 18.0374 8.8519 18.1329 8.40723 17.8057V17.8048H8.40625L8.40527 17.8038C8.40454 17.8032 8.4035 17.8027 8.40234 17.8018C8.39959 17.7998 8.39567 17.7968 8.39062 17.793C8.38042 17.7855 8.36576 17.7741 8.34668 17.7598C8.30845 17.7313 8.25279 17.6898 8.18262 17.6368C8.04232 17.5308 7.84254 17.379 7.60352 17.1925C7.12641 16.8201 6.48716 16.3069 5.84473 15.7491C5.20724 15.1956 4.54398 14.5783 4.03223 13.9991C3.77736 13.7106 3.53854 13.4083 3.3584 13.1094C3.19482 12.8381 3 12.4432 3 12.0001C3.00001 11.5569 3.19482 11.1621 3.3584 10.8907C3.53853 10.5919 3.77736 10.2895 4.03223 10.001C4.54397 9.42188 5.20726 8.80453 5.84473 8.25105C6.48714 7.69327 7.12643 7.18001 7.60352 6.80769C7.84255 6.62114 8.04233 6.46932 8.18262 6.36335C8.25279 6.31035 8.30845 6.26879 8.34668 6.2403C8.36574 6.2261 8.38043 6.21466 8.39062 6.2071C8.39566 6.20337 8.3996 6.20034 8.40234 6.19831C8.4035 6.19746 8.40454 6.1969 8.40527 6.19636L8.40625 6.19538H8.40723V6.1944Z" fill="currentColor"/><path opacity="0.4" d="M19 17V7C19 6.44772 19.4477 6 20 6C20.5523 6 21 6.44772 21 7V17C21 17.5523 20.5523 18 20 18C19.4477 18 19 17.5523 19 17Z" fill="currentColor"/></svg>
