<svg xmlns="http://www.w3.org/2000/svg" viewBox="0 0 24 24" fill="none"><path d="M19.9995 6.00046C20.5518 6.00046 20.9995 6.44818 20.9995 7.00046V17.0005C20.9995 17.5527 20.5518 18.0005 19.9995 18.0005C19.4472 18.0005 18.9995 17.5527 18.9995 17.0005V7.00046C18.9995 6.44818 19.4472 6.00046 19.9995 6.00046ZM8.40674 6.1948C8.85137 5.8677 9.47677 5.96324 9.8042 6.40769C10.1317 6.85237 10.037 7.47861 9.59229 7.80613L9.59033 7.80711C9.5883 7.8086 9.5849 7.8117 9.58057 7.81492C9.57187 7.82136 9.55801 7.83118 9.54053 7.84421C9.50552 7.87031 9.45351 7.90937 9.38721 7.95945C9.25409 8.06 9.06303 8.2061 8.8335 8.38523C8.37316 8.74449 7.76221 9.23381 7.15479 9.76121C6.67663 10.1764 6.21495 10.604 5.83252 11.0005H15.9995C16.5518 11.0005 16.9995 11.4482 16.9995 12.0005C16.9995 12.5527 16.5518 13.0005 15.9995 13.0005H5.83252C6.21495 13.397 6.67662 13.8246 7.15479 14.2397C7.76221 14.7671 8.37315 15.2564 8.8335 15.6157C9.06302 15.7948 9.25408 15.9409 9.38721 16.0415C9.45349 16.0915 9.50552 16.1306 9.54053 16.1567C9.558 16.1697 9.57186 16.1796 9.58057 16.186C9.58489 16.1892 9.58829 16.1923 9.59033 16.1938L9.59229 16.1948C10.0368 16.5222 10.1323 17.1486 9.80518 17.5932C9.47776 18.0378 8.85141 18.1333 8.40674 17.8061V17.8052H8.40576L8.40479 17.8042C8.40405 17.8036 8.40299 17.8031 8.40186 17.8022C8.39911 17.8002 8.39517 17.7972 8.39014 17.7934C8.37993 17.7859 8.36525 17.7744 8.34619 17.7602C8.30797 17.7317 8.25229 17.6902 8.18213 17.6372C8.04183 17.5312 7.84204 17.3794 7.60303 17.1928C7.12593 16.8205 6.48665 16.3073 5.84424 15.7495C5.20676 15.196 4.54348 14.5786 4.03174 13.9995C3.77688 13.7111 3.53804 13.4086 3.35791 13.1098C3.20768 12.8606 3.0322 12.5072 3.00439 12.1079C3.00063 12.0726 2.99951 12.0367 2.99951 12.0005C2.99951 11.9639 3.00056 11.9276 3.00439 11.8921C3.03246 11.4932 3.20781 11.1401 3.35791 10.8911C3.53804 10.5923 3.77689 10.2899 4.03174 10.0014C4.54348 9.42229 5.20679 8.80491 5.84424 8.25144C6.48664 7.69368 7.12595 7.1804 7.60303 6.80808C7.84205 6.62155 8.04184 6.46971 8.18213 6.36375C8.25229 6.31075 8.30797 6.26918 8.34619 6.2407C8.36524 6.2265 8.37994 6.21505 8.39014 6.2075C8.39515 6.20378 8.39912 6.20073 8.40186 6.19871C8.403 6.19787 8.40406 6.19729 8.40479 6.19675L8.40576 6.19578H8.40674V6.1948Z" fill="currentColor" fill-rule="evenodd" clip-rule="evenodd"/></svg>
