<svg xmlns="http://www.w3.org/2000/svg" fill="none" viewBox="0 0 48 48">
  <g>
    <path fill="currentColor" fill-opacity="0.4" fill-rule="evenodd" d="M37.9059 1.32366C30.1346 0.697707 20.5668 0.613714 13.273 1.1747c-2.7498 0.2115 -4.81599 2.48863 -4.85937 5.20481 -0.0375 2.34769 -0.04694 5.59559 0.0878 8.68599 0.22067 5.0614 0.83173 12.6903 1.20271 17.0839l0.29626 12.8853c0.0187 0.8147 0.6846 1.4655 1.4996 1.4655h24.0208c4.3705 0 7.8067 -3.7078 7.5833 -8.039 -0.2789 -5.4045 -0.6041 -13.783 -0.6041 -23.461 0 -2.7295 0.2005 -5.35134 0.4213 -7.40823 0.3257 -3.03386 -1.7923 -6.0087 -5.0154 -6.26831Z" clip-rule="evenodd" stroke-width="1"></path>
    <path fill="currentColor" fill-rule="evenodd" d="M16.2705 8.97266c0 -0.82843 0.6716 -1.5 1.5 -1.5H33c0.8284 0 1.5 0.67157 1.5 1.5 0 0.82842 -0.6716 1.50004 -1.5 1.50004l-15.2295 0c-0.8284 0 -1.5 -0.67162 -1.5 -1.50004ZM15 30.5c-4.7596 0 -7.99971 0.3018 -9.97181 0.579C2.87509 31.3816 1.5 33.2421 1.5 35.2537v3.6487C1.5 43.7465 5.2894 46.5 9 46.5h26c0.0317 0 0.0633 -0.001 0.0945 -0.0029h0.6452c2.3824 -0.0678 4.4693 -1.238 5.8093 -3h-6.6999v0.0005c-2.2348 -0.0702 -4.3491 -1.6995 -4.3491 -4.5952v-3.4121c0 -2.1744 -1.5734 -4.0869 -3.8145 -4.349C24.2368 30.8549 20.1614 30.5 15 30.5Zm2.7705 -16.1719c-0.8284 0 -1.5 0.6716 -1.5 1.5 0 0.8285 0.6716 1.5 1.5 1.5l15.2295 0c0.8284 0 1.5 -0.6715 1.5 -1.5 0 -0.8284 -0.6716 -1.5 -1.5 -1.5l-15.2295 0Zm-1.5 8.3545c0 -0.8284 0.6716 -1.5 1.5 -1.5l8.5523 0c0.8284 0 1.5 0.6716 1.5 1.5s-0.6716 1.5 -1.5 1.5h-8.5523c-0.8284 0 -1.5 -0.6716 -1.5 -1.5Z" clip-rule="evenodd" stroke-width="1"></path>
  </g>
</svg>
