<svg xmlns="http://www.w3.org/2000/svg" viewBox="0 0 24 24" fill="none"><path d="M10.3037 5.25196C10.7096 5.25076 11.0415 5.57461 11.0527 5.98047C11.0643 6.40259 10.725 6.75042 10.3027 6.75196C9.50848 6.75484 8.7021 6.76635 8.30464 6.80957C7.79385 6.86516 7.49364 6.96777 7.25191 7.12891C7.01009 7.29012 6.7996 7.5281 6.55171 7.97852C6.29502 8.44498 6.03235 9.07166 5.65327 9.98145L5.0273 11.4844L6.11909 11.751H19.0761L20.3212 10.8223L21.5498 9.90039C21.8811 9.65194 22.351 9.71959 22.5996 10.0508C22.848 10.3821 22.7814 10.852 22.4501 11.1006L21.0175 12.1748L21.3437 12.6641C21.9501 13.5732 22.3416 14.1607 22.5459 14.835C22.7501 15.5094 22.7502 16.2164 22.75 17.3096V22.001C22.7498 22.4151 22.4141 22.751 22 22.751H19.75C19.3358 22.751 19.0001 22.4151 19 22.001V21.001C19 20.5087 18.998 20.2146 18.9697 20.0039C18.9556 19.8505 18.8154 19.7906 18.747 19.7803C18.5356 19.752 17.4923 19.751 17 19.751H6.99995C6.50757 19.751 5.46432 19.752 5.25288 19.7803C5.18478 19.7861 5.04496 19.8396 5.03023 20.0039C5.00195 20.2146 4.99995 20.5087 4.99995 21.001V22.001C4.99984 22.4151 4.6641 22.751 4.24995 22.751H1.99995C1.58583 22.751 1.25007 22.4151 1.24995 22.001V17.3096C1.24972 16.2164 1.24984 15.5094 1.45406 14.835C1.65829 14.1607 2.04982 13.5732 2.6562 12.6641L2.98238 12.1748L1.54976 11.1006C1.21859 10.852 1.15188 10.3821 1.40034 10.0508C1.64888 9.71957 2.11883 9.65198 2.45015 9.90039L3.67866 10.8223L4.28511 9.36621C4.64436 8.50397 4.93761 7.80114 5.23823 7.25489C5.55209 6.68464 5.90606 6.22344 6.41988 5.88086C6.93384 5.53822 7.49624 5.38875 8.14351 5.31836C8.61408 5.26723 9.49718 5.25483 10.3037 5.25196ZM5.99995 15C5.44767 15 4.99995 15.4477 4.99995 16V16.0098C4.99995 16.5621 5.44767 17.0098 5.99995 17.0098C6.55224 17.0098 6.99995 16.5621 6.99995 16.0098V16C6.99995 15.4477 6.55224 15 5.99995 15ZM18 15C17.4477 15 17 15.4477 17 16V16.0098C17 16.5621 17.4477 17.0098 18 17.0098C18.5522 17.0098 19 16.5621 19 16.0098V16C19 15.4477 18.5522 15 18 15Z" fill="currentColor" fill-rule="evenodd" clip-rule="evenodd"/><path d="M16.9999 1.25C19.6233 1.25 21.7499 3.37665 21.7499 6C21.7499 8.62335 19.6233 10.75 16.9999 10.75C14.3766 10.75 12.2499 8.62335 12.2499 6C12.2499 3.37665 14.3766 1.25 16.9999 1.25ZM16.9999 7.5C16.5857 7.5 16.2499 7.83579 16.2499 8.25V8.25977C16.2499 8.67398 16.5857 9.00977 16.9999 9.00977C17.4142 9.00977 17.7499 8.67398 17.7499 8.25977V8.25C17.7499 7.83579 17.4142 7.5 16.9999 7.5ZM16.9999 3C16.5857 3 16.2499 3.33579 16.2499 3.75V5.75C16.2499 6.16421 16.5857 6.5 16.9999 6.5C17.4142 6.5 17.7499 6.16421 17.7499 5.75V3.75C17.7499 3.33579 17.4142 3 16.9999 3Z" fill="currentColor"/></svg>
