<svg xmlns="http://www.w3.org/2000/svg" viewBox="0 0 24 24" fill="none"><path opacity="0.4" d="M12 2.24512C12.4782 2.24512 12.9377 2.25934 13.3789 2.28613C13.1397 2.67951 13 3.14266 13 3.64453V5.61523C13 7.61821 14.0035 9.0944 14.9639 10.0381C15.9153 10.9729 16.9586 11.5268 17.4326 11.7529L17.5605 11.8096C18.2066 12.0745 18.9327 12.0555 19.5674 11.7529L20.0195 11.5215C20.5575 11.2264 21.3225 10.7392 22.0361 10.0381C22.2114 9.86583 22.3878 9.67549 22.5596 9.46777C22.694 10.2872 22.75 11.1366 22.75 11.9951C22.75 14.6203 21.9907 17.0805 20.208 18.8857C18.4216 20.6947 15.7071 21.7451 12 21.7451C10.4515 21.7451 9.09789 21.5936 7.91992 21.3047C7.58951 21.2236 7.18966 21.3158 6.83789 21.5752C6.02979 22.1713 4.78902 22.7451 3 22.7451C2.67 22.7451 2.37843 22.5295 2.28223 22.2139C2.18605 21.8982 2.30807 21.5561 2.58203 21.3721C3.1813 20.9692 3.81966 19.6122 2.7373 17.8955C1.63081 16.2073 1.25 14.1385 1.25 11.9951C1.25 9.41939 1.8005 6.94627 3.50098 5.12012C5.21037 3.2844 7.94704 2.24512 12 2.24512Z" fill="currentColor"/><path d="M8 10.9951C8.55228 10.9951 9 11.4428 9 11.9951C9 12.5474 8.55228 12.9951 8 12.9951C7.44772 12.9951 7 12.5474 7 11.9951C7 11.4428 7.44771 10.9951 8 10.9951ZM12.1025 11C12.6066 11.0514 13 11.4775 13 11.9951C13 12.5474 12.5522 12.995 12 12.9951C11.4823 12.9951 11.0562 12.6018 11.0049 12.0977L11 11.9951L11.0049 11.8926C11.0562 11.3885 11.4823 10.9951 12 10.9951L12.1025 11Z" fill="currentColor"/><path d="M21.1602 9.14652C21.9765 8.34429 22.75 7.16964 22.75 5.61527V3.64456C22.75 2.95739 22.2481 2.40056 21.6094 2.28616C20.7992 2.14131 20.0854 1.86109 19.5918 1.62796L19.1758 1.41702L19.0137 1.34183C18.6836 1.21304 18.3164 1.21304 17.9863 1.34183L17.8242 1.41702C17.4353 1.62885 16.691 1.98742 15.7871 2.20316L15.3906 2.28616C14.7519 2.40056 14.25 2.95739 14.25 3.64456V5.61527C14.25 7.16964 15.0235 8.34429 15.8398 9.14652C16.6527 9.9452 17.5585 10.4284 17.9707 10.625C18.3073 10.7855 18.6927 10.7855 19.0293 10.625C19.4415 10.4284 20.3473 9.9452 21.1602 9.14652Z" fill="currentColor"/></svg>
