<svg xmlns="http://www.w3.org/2000/svg" viewBox="0 0 24 24" fill="none"><path d="M12 2.245C12.4782 2.245 12.9377 2.25922 13.3789 2.28601C13.1397 2.67938 13 3.14254 13 3.64441V5.61511C13 7.61809 14.0035 9.09428 14.9639 10.038C15.9153 10.9728 16.9586 11.5267 17.4326 11.7528L17.5605 11.8094C18.2066 12.0743 18.9327 12.0554 19.5674 11.7528L20.0195 11.5214C20.5575 11.2263 21.3225 10.7391 22.0361 10.038C22.2114 9.8657 22.3878 9.67536 22.5596 9.46765C22.694 10.2871 22.75 11.1365 22.75 11.995C22.75 14.6201 21.9907 17.0804 20.208 18.8856C18.4216 20.6945 15.7071 21.745 12 21.745C10.4515 21.745 9.09789 21.5935 7.91992 21.3046C7.58951 21.2235 7.18966 21.3157 6.83789 21.5751C6.02979 22.1712 4.78902 22.745 3 22.745C2.67 22.745 2.37843 22.5294 2.28223 22.2137C2.18605 21.8981 2.30807 21.556 2.58203 21.3719C3.1813 20.9691 3.81966 19.612 2.7373 17.8954C1.63081 16.2072 1.25 14.1384 1.25 11.995C1.25 9.41927 1.8005 6.94615 3.50098 5.12C5.21037 3.28428 7.94704 2.245 12 2.245ZM8 10.995C7.44771 10.995 7 11.4427 7 11.995C7 12.5473 7.44772 12.995 8 12.995C8.55228 12.995 9 12.5473 9 11.995C9 11.4427 8.55228 10.995 8 10.995ZM12 10.995C11.4823 10.995 11.0562 11.3883 11.0049 11.8925L11 11.995L11.0049 12.0975C11.0562 12.6017 11.4823 12.995 12 12.995C12.5522 12.9949 13 12.5472 13 11.995C13 11.4774 12.6066 11.0513 12.1025 10.9999L12 10.995Z" fill="currentColor"/><path d="M21.1602 9.14639C21.9765 8.34417 22.75 7.16952 22.75 5.61514V3.64444C22.75 2.95727 22.2481 2.40044 21.6094 2.28604C20.7992 2.14119 20.0854 1.86097 19.5918 1.62784L19.1758 1.4169L19.0137 1.34171C18.6836 1.21292 18.3164 1.21292 17.9863 1.34171L17.8242 1.4169C17.4353 1.62872 16.691 1.9873 15.7871 2.20303L15.3906 2.28604C14.7519 2.40044 14.25 2.95727 14.25 3.64444V5.61514C14.25 7.16952 15.0235 8.34417 15.8398 9.14639C16.6527 9.94508 17.5585 10.4283 17.9707 10.6249C18.3073 10.7854 18.6927 10.7854 19.0293 10.6249C19.4415 10.4283 20.3473 9.94508 21.1602 9.14639Z" fill="currentColor"/></svg>
