<svg xmlns="http://www.w3.org/2000/svg" viewBox="0 0 24 24" fill="none"><path opacity="0.4" d="M5.53809 11.25C5.70759 11.25 5.86073 11.2522 6.00293 11.2549V13C6.00293 13.7549 6.00023 14.4692 6.05957 15.0615C6.12233 15.6872 6.27073 16.3918 6.70801 17.0586C7.03108 17.551 7.45193 17.9718 7.94434 18.2949C8.61116 18.7323 9.3157 18.8806 9.94141 18.9434C10.1904 18.9683 10.461 18.9805 10.7471 18.9883C10.7414 19.3424 10.7301 19.6577 10.7021 19.9365C10.6492 20.4645 10.5348 20.9433 10.2529 21.373C10.0238 21.7224 9.72528 22.0208 9.37598 22.25C8.94625 22.5319 8.46743 22.6463 7.93945 22.6992C7.43262 22.75 6.80499 22.75 6.04297 22.75H5.96289C5.20087 22.75 4.57324 22.75 4.06641 22.6992C3.53844 22.6463 3.05961 22.5319 2.62988 22.25C2.28058 22.0208 1.98211 21.7224 1.75293 21.373C1.47109 20.9433 1.35666 20.4645 1.30371 19.9365C1.25291 19.4296 1.25291 18.8013 1.25293 18.0391V15.5166C1.25293 14.9604 1.25293 14.5025 1.28027 14.1289C1.3085 13.7435 1.3689 13.3885 1.52051 13.0508C1.82653 12.3692 2.37211 11.8236 3.05371 11.5176C3.39148 11.366 3.74647 11.3056 4.13184 11.2773C4.50547 11.25 4.96329 11.25 5.51953 11.25H5.53809Z" fill="currentColor"/><path opacity="0.4" d="M13.2469 5.5352V8.00004V8.03952C13.2469 8.8018 13.2469 9.42961 13.2977 9.93656C13.3507 10.4645 13.4651 10.9434 13.7469 11.3731C13.9761 11.7224 14.2746 12.0209 14.6239 12.25C15.0536 12.5319 15.5325 12.6463 16.0604 12.6993C16.5674 12.7501 17.1952 12.7501 17.9574 12.75H17.9969H18.0365C18.7987 12.7501 19.4265 12.7501 19.9335 12.6993C20.4614 12.6463 20.9403 12.5319 21.37 12.25C21.7193 12.0209 22.0178 11.7224 22.2469 11.3731C22.5288 10.9434 22.6432 10.4645 22.6962 9.93656C22.747 9.42961 22.747 8.80181 22.7469 8.03955V8.00004V6.90531C22.747 6.02644 22.76 5.37772 22.5145 4.7852C22.269 4.19284 21.8009 3.74347 21.1796 3.12211L20.5624 2.50492C20.2291 2.1716 19.9875 1.92472 19.7011 1.7393C19.3901 1.5381 19.0447 1.39498 18.6825 1.31742C18.3488 1.24604 18.0036 1.25004 17.5321 1.25004L17.5137 1.25004C16.9574 1.25004 16.4995 1.25003 16.1259 1.27738C15.7405 1.30561 15.3855 1.36601 15.0477 1.51762C14.3661 1.82364 13.8206 2.36921 13.5145 3.05082C13.3629 3.38859 13.3025 3.74357 13.2743 4.12895C13.2469 4.50263 13.2469 4.96053 13.2469 5.51687V5.5352Z" fill="currentColor"/><path d="M11.5321 6.25C11.7016 6.25 11.8547 6.25223 11.9969 6.25488V8C11.9969 8.75494 11.9943 9.46923 12.0536 10.0615C12.1163 10.6872 12.2647 11.3918 12.702 12.0586C13.0251 12.551 13.4459 12.9718 13.9384 13.2949C14.6052 13.7323 15.3097 13.8806 15.9354 13.9434C16.1844 13.9683 16.455 13.9805 16.7411 13.9883C16.7354 14.3424 16.7241 14.6577 16.6962 14.9365C16.6432 15.4645 16.5288 15.9433 16.2469 16.373C16.0178 16.7224 15.7193 17.0208 15.37 17.25C14.9403 17.5319 14.4614 17.6463 13.9335 17.6992C13.4266 17.75 12.799 17.75 12.037 17.75H11.9569C11.1949 17.75 10.5673 17.75 10.0604 17.6992C9.53245 17.6463 9.05363 17.5319 8.6239 17.25C8.2746 17.0208 7.97613 16.7224 7.74695 16.373C7.4651 15.9433 7.35068 15.4645 7.29773 14.9365C7.24692 14.4296 7.24693 13.8013 7.24695 13.0391V10.5166C7.24695 9.96038 7.24695 9.50253 7.27429 9.12891C7.30252 8.74355 7.36292 8.38854 7.51453 8.05078C7.82055 7.36918 8.36613 6.8236 9.04773 6.51758C9.38549 6.36597 9.74048 6.30557 10.1259 6.27734C10.4995 6.25 10.9573 6.25 11.5136 6.25H11.5321Z" fill="currentColor"/></svg>
