<svg xmlns="http://www.w3.org/2000/svg" viewBox="0 0 24 24" fill="none"><path d="M5.5376 11.25C5.7071 11.25 5.86024 11.2522 6.00244 11.2549V13C6.00244 13.7549 5.99974 14.4692 6.05908 15.0615C6.12184 15.6872 6.27024 16.3918 6.70752 17.0586C7.0306 17.551 7.45144 17.9718 7.94385 18.2949C8.61067 18.7323 9.31521 18.8806 9.94092 18.9434C10.1899 18.9683 10.4605 18.9805 10.7466 18.9883C10.7409 19.3424 10.7296 19.6577 10.7017 19.9365C10.6487 20.4645 10.5343 20.9433 10.2524 21.373C10.0233 21.7224 9.72479 22.0208 9.37549 22.25C8.94576 22.5319 8.46694 22.6463 7.93897 22.6992C7.43213 22.75 6.8045 22.75 6.04248 22.75H5.9624C5.20038 22.75 4.57275 22.75 4.06592 22.6992C3.53795 22.6463 3.05912 22.5319 2.6294 22.25C2.28009 22.0208 1.98162 21.7224 1.75244 21.373C1.4706 20.9433 1.35617 20.4645 1.30322 19.9365C1.25242 19.4296 1.25243 18.8013 1.25244 18.0391V15.5166C1.25244 14.9604 1.25244 14.5025 1.27979 14.1289C1.30802 13.7435 1.36841 13.3885 1.52002 13.0508C1.82605 12.3692 2.37162 11.8236 3.05322 11.5176C3.39099 11.366 3.74598 11.3056 4.13135 11.2773C4.50498 11.25 4.9628 11.25 5.51904 11.25H5.5376Z" fill="currentColor"/><path d="M13.2465 5.5352V8.00004V8.03952C13.2464 8.8018 13.2464 9.42961 13.2972 9.93656C13.3502 10.4645 13.4646 10.9434 13.7465 11.3731C13.9756 11.7224 14.2741 12.0209 14.6234 12.25C15.0531 12.5319 15.532 12.6463 16.0599 12.6993C16.5669 12.7501 17.1947 12.7501 17.9569 12.75H17.9965H18.036C18.7983 12.7501 19.426 12.7501 19.933 12.6993C20.461 12.6463 20.9398 12.5319 21.3695 12.25C21.7188 12.0209 22.0173 11.7224 22.2465 11.3731C22.5283 10.9434 22.6427 10.4645 22.6957 9.93656C22.7465 9.42961 22.7465 8.80181 22.7465 8.03955V8.00004V6.90531C22.7465 6.02644 22.7595 5.37772 22.514 4.7852C22.2686 4.19284 21.8004 3.74347 21.1791 3.12211L20.5619 2.50492C20.2286 2.1716 19.987 1.92472 19.7006 1.7393C19.3896 1.5381 19.0442 1.39498 18.682 1.31742C18.3483 1.24604 18.0031 1.25004 17.5316 1.25004L17.5132 1.25004C16.9569 1.25004 16.499 1.25003 16.1254 1.27738C15.74 1.30561 15.385 1.36601 15.0472 1.51762C14.3656 1.82364 13.8201 2.36921 13.514 3.05082C13.3624 3.38859 13.302 3.74357 13.2738 4.12895C13.2465 4.50263 13.2465 4.96053 13.2465 5.51687V5.5352Z" fill="currentColor"/><path d="M11.5316 6.25C11.7011 6.25 11.8543 6.25223 11.9965 6.25488V8C11.9965 8.75494 11.9938 9.46923 12.0531 10.0615C12.1159 10.6872 12.2643 11.3918 12.7015 12.0586C13.0246 12.551 13.4455 12.9718 13.9379 13.2949C14.6047 13.7323 15.3092 13.8806 15.9349 13.9434C16.184 13.9683 16.4546 13.9805 16.7406 13.9883C16.7349 14.3424 16.7236 14.6577 16.6957 14.9365C16.6427 15.4645 16.5283 15.9433 16.2465 16.373C16.0173 16.7224 15.7188 17.0208 15.3695 17.25C14.9398 17.5319 14.461 17.6463 13.933 17.6992C13.4261 17.75 12.7985 17.75 12.0365 17.75H11.9564C11.1944 17.75 10.5668 17.75 10.0599 17.6992C9.53197 17.6463 9.05314 17.5319 8.62341 17.25C8.27411 17.0208 7.97564 16.7224 7.74646 16.373C7.46462 15.9433 7.35019 15.4645 7.29724 14.9365C7.24644 14.4296 7.24645 13.8013 7.24646 13.0391V10.5166C7.24646 9.96038 7.24646 9.50253 7.2738 9.12891C7.30203 8.74355 7.36243 8.38854 7.51404 8.05078C7.82006 7.36918 8.36564 6.8236 9.04724 6.51758C9.38501 6.36597 9.74 6.30557 10.1254 6.27734C10.499 6.25 10.9568 6.25 11.5131 6.25H11.5316Z" fill="currentColor"/></svg>
