<svg xmlns="http://www.w3.org/2000/svg" viewBox="0 0 24 24" fill="none"><path opacity="0.4" d="M13.6748 4.39453C13.7249 4.19398 13.75 3.98797 13.75 3.78125C13.75 2.38354 12.6165 1.25 11.2188 1.25H4.78125C3.38354 1.25 2.25 2.38354 2.25 3.78125C2.25004 3.98797 2.27507 4.19398 2.3252 4.39453L3.01465 7.15234L3.02285 7.18513C3.19662 7.8803 3.34298 8.46579 3.51855 8.92676C3.70414 9.41391 3.95015 9.84083 4.36914 10.168C4.78809 10.495 5.26175 10.6295 5.7793 10.6914C6.26982 10.75 6.87435 10.75 7.59232 10.75H7.62305H8.37695H8.40768C9.12565 10.75 9.73018 10.75 10.2207 10.6914C10.7382 10.6295 11.2119 10.495 11.6309 10.168C12.0499 9.84083 12.2959 9.41391 12.4814 8.92676C12.657 8.4658 12.8034 7.88031 12.9772 7.18514L12.9854 7.15234L13.6748 4.39453Z" fill="currentColor"/><path d="M9 5.25C9.41421 5.25 9.75 5.58579 9.75 6C9.75 6.41421 9.41421 6.75 9 6.75H7C6.58579 6.75 6.25 6.41421 6.25 6C6.25 5.58579 6.58579 5.25 7 5.25H9Z" fill="currentColor"/><path opacity="0.4" d="M14.25 12.9572V12.9573V16H21.75V12.9573C21.75 12.3832 21.7501 11.8955 21.709 11.499C21.6655 11.0797 21.5697 10.678 21.3213 10.3154C21.1502 10.0657 20.9343 9.84978 20.6846 9.67871C20.322 9.43035 19.9203 9.33449 19.501 9.29102C19.1045 9.24996 18.6168 9.24998 18.0428 9.25H18.0427H17.9573H17.9572C17.3832 9.24998 16.8955 9.24996 16.499 9.29102C16.0797 9.33449 15.678 9.43035 15.3154 9.67871C15.0657 9.84978 14.8498 10.0657 14.6787 10.3154C14.4304 10.678 14.3345 11.0797 14.291 11.499C14.25 11.8955 14.25 12.3832 14.25 12.9572Z" fill="currentColor"/><path d="M21.709 20.501C21.7501 20.1045 21.75 19.6168 21.75 19.0427V16H14.25V19.0427V19.0428C14.25 19.6168 14.25 20.1045 14.291 20.501C14.3345 20.9203 14.4304 21.322 14.6787 21.6846C14.8498 21.9343 15.0657 22.1502 15.3154 22.3213C15.678 22.5697 16.0797 22.6655 16.499 22.709C16.8955 22.75 17.3832 22.75 17.9573 22.75H18.0427C18.6168 22.75 19.1045 22.75 19.501 22.709C19.9203 22.6655 20.322 22.5697 20.6846 22.3213C20.9343 22.1502 21.1502 21.9343 21.3213 21.6846C21.5697 21.322 21.6655 20.9203 21.709 20.501Z" fill="currentColor"/><path d="M10 16.75L8.5 18.25L10 19.75V20.3359C10 20.7446 9.99994 20.9491 9.92383 21.1328C9.84769 21.3165 9.70303 21.461 9.41406 21.75C8.74745 22.4166 8.4142 22.75 8 22.75C7.5858 22.75 7.25255 22.4166 6.58594 21.75C6.29697 21.461 6.15231 21.3165 6.07617 21.1328C6.00006 20.9491 6 20.7446 6 20.3359V10.71C6.44768 10.7466 6.97884 10.75 7.59277 10.75H8.40723C9.02116 10.75 9.55232 10.7466 10 10.71V16.75Z" fill="currentColor"/><path d="M13.7051 4.25293C14.3092 4.2557 14.8222 4.26423 15.2578 4.30371C15.864 4.35867 16.3939 4.47422 16.875 4.75195C17.4451 5.08108 17.9189 5.55493 18.248 6.125L18.3447 6.30762C18.5539 6.73966 18.6482 7.21172 18.6963 7.74219C18.7349 8.16791 18.7421 8.66759 18.7451 9.25391C18.5278 9.25049 18.2936 9.24999 18.043 9.25H17.957C17.703 9.24999 17.4659 9.25035 17.2461 9.25391C17.2433 8.68583 17.2363 8.24399 17.2031 7.87793C17.1576 7.37562 17.0723 7.0899 16.9482 6.875C16.7508 6.53306 16.4669 6.24921 16.125 6.05176C15.9101 5.92768 15.6244 5.8424 15.1221 5.79688C14.6721 5.7561 14.1076 5.75167 13.335 5.75098L13.6748 4.39453C13.6865 4.34766 13.6961 4.30034 13.7051 4.25293Z" fill="currentColor"/></svg>
