<svg xmlns="http://www.w3.org/2000/svg" viewBox="0 0 24 24" fill="none"><path d="M11.2188 1.25C12.6165 1.25 13.75 2.38354 13.75 3.78125C13.75 3.93965 13.7345 4.0975 13.7051 4.25293C14.3092 4.2557 14.8222 4.26423 15.2578 4.30371C15.864 4.35867 16.3939 4.47422 16.875 4.75195C17.4451 5.08108 17.9189 5.55493 18.248 6.125L18.3447 6.30762C18.5539 6.73966 18.6482 7.21172 18.6963 7.74219C18.7349 8.16791 18.7421 8.66759 18.7451 9.25391C19.0254 9.25831 19.2777 9.26789 19.501 9.29102C19.9203 9.33449 20.322 9.43035 20.6846 9.67871C20.9343 9.84978 21.1502 10.0657 21.3213 10.3154C21.5697 10.678 21.6655 11.0797 21.709 11.499C21.75 11.8954 21.75 12.3831 21.75 12.957V15.25L14.25 15.25V12.957C14.25 12.3831 14.25 11.8954 14.291 11.499C14.3345 11.0797 14.4303 10.678 14.6787 10.3154C14.8498 10.0657 15.0657 9.84978 15.3154 9.67871C15.678 9.43035 16.0797 9.33449 16.499 9.29102C16.72 9.26813 16.9693 9.25838 17.2461 9.25391C17.2433 8.68583 17.2363 8.24399 17.2031 7.87793C17.1576 7.37562 17.0723 7.0899 16.9482 6.875C16.7508 6.53306 16.4669 6.24921 16.125 6.05176C15.9101 5.92768 15.6244 5.8424 15.1221 5.79687C14.6721 5.7561 14.1076 5.75167 13.335 5.75098L12.9854 7.15234L12.9775 7.18555C12.8038 7.88059 12.657 8.46586 12.4814 8.92676C12.2959 9.41391 12.0499 9.84083 11.6309 10.168C11.2119 10.495 10.7382 10.6295 10.2207 10.6914C10.1496 10.6999 10.0759 10.7038 10 10.71V16.75L8.5 18.25L10 19.75V20.3359C10 20.7446 9.99994 20.9491 9.92383 21.1328C9.84769 21.3165 9.70303 21.461 9.41406 21.75C8.74745 22.4166 8.4142 22.75 8 22.75C7.5858 22.75 7.25255 22.4166 6.58594 21.75C6.29697 21.461 6.15231 21.3165 6.07617 21.1328C6.00006 20.9491 6 20.7446 6 20.3359L6 10.71C5.92413 10.7038 5.85037 10.6999 5.7793 10.6914C5.26175 10.6295 4.78809 10.495 4.36914 10.168C3.95015 9.84083 3.70414 9.41391 3.51855 8.92676C3.34301 8.46586 3.19621 7.88059 3.02246 7.18555L3.01465 7.15234L2.3252 4.39453C2.27507 4.19398 2.25004 3.98797 2.25 3.78125C2.25 2.38354 3.38354 1.25 4.78125 1.25L11.2188 1.25ZM21.75 19.043C21.75 19.6169 21.75 20.1046 21.709 20.501C21.6655 20.9203 21.5697 21.322 21.3213 21.6846C21.1502 21.9343 20.9343 22.1502 20.6846 22.3213C20.322 22.5697 19.9203 22.6655 19.501 22.709C19.1046 22.75 18.6169 22.75 18.043 22.75H17.957C17.3831 22.75 16.8954 22.75 16.499 22.709C16.0797 22.6655 15.678 22.5697 15.3154 22.3213C15.0657 22.1502 14.8498 21.9343 14.6787 21.6846C14.4304 21.322 14.3345 20.9203 14.291 20.501C14.25 20.1046 14.25 19.6169 14.25 19.043V16.75L21.75 16.75V19.043ZM7 5.25C6.58579 5.25 6.25 5.58579 6.25 6C6.25 6.41421 6.58579 6.75 7 6.75L9 6.75C9.41421 6.75 9.75 6.41421 9.75 6C9.75 5.58579 9.41421 5.25 9 5.25H7Z" fill="currentColor"/></svg>
