<svg xmlns="http://www.w3.org/2000/svg" viewBox="0 0 24 24" fill="none"><path d="M12.2517 16.2923C12.5523 16.1869 12.8867 16.2828 13.0857 16.5315L14.5 18.2995L15.9143 16.5315C16.1133 16.2828 16.4477 16.1869 16.7483 16.2923C17.0488 16.3978 17.25 16.6815 17.25 17V22C17.25 22.4143 16.9142 22.75 16.5 22.75C16.0858 22.75 15.75 22.4143 15.75 22V19.1381L15.0857 19.9686C14.9433 20.1465 14.7278 20.25 14.5 20.25C14.2722 20.25 14.0567 20.1465 13.9143 19.9686L13.25 19.1381V22C13.25 22.4143 12.9142 22.75 12.5 22.75C12.0858 22.75 11.75 22.4143 11.75 22V17C11.75 16.6815 11.9512 16.3978 12.2517 16.2923ZM2.5 16.25C2.91421 16.25 3.25 16.5858 3.25 17V18.75H4.75V17C4.75 16.5858 5.08579 16.25 5.5 16.25C5.91421 16.25 6.25 16.5858 6.25 17V22C6.25 22.4143 5.91421 22.75 5.5 22.75C5.08579 22.75 4.75 22.4143 4.75 22V20.25H3.25V22C3.25 22.4143 2.91421 22.75 2.5 22.75C2.08579 22.75 1.75 22.4143 1.75 22V17C1.75 16.5858 2.08579 16.25 2.5 16.25ZM6.75 17C6.75 16.5858 7.08579 16.25 7.5 16.25H10.5C10.9142 16.25 11.25 16.5858 11.25 17C11.25 17.4143 10.9142 17.75 10.5 17.75H9.75V22C9.75 22.4143 9.41421 22.75 9 22.75C8.58579 22.75 8.25 22.4143 8.25 22V17.75H7.5C7.08579 17.75 6.75 17.4143 6.75 17ZM19 16.25C19.4142 16.25 19.75 16.5858 19.75 17V21.25H21.5C21.9142 21.25 22.25 21.5858 22.25 22C22.25 22.4143 21.9142 22.75 21.5 22.75H19C18.5858 22.75 18.25 22.4143 18.25 22V17C18.25 16.5858 18.5858 16.25 19 16.25Z" fill="currentColor" fill-rule="evenodd" clip-rule="evenodd"/><path d="M11.0879 1.25C11.6577 1.24924 12.1624 1.24837 12.6377 1.41699C12.7355 1.4517 12.8312 1.49213 12.9248 1.53711C13.3796 1.75578 13.7362 2.11487 14.1387 2.52051L18.9219 7.32812C19.3891 7.79635 19.8033 8.21227 20.0273 8.75586C20.2514 9.29959 20.251 9.88841 20.25 10.5518V11.75C20.2499 13.164 20.2498 13.8712 19.8105 14.3105C19.3712 14.7499 18.6641 14.75 17.25 14.75H5.75C4.3358 14.75 3.62879 14.7499 3.18945 14.3105C2.75012 13.8712 2.75 13.1642 2.75 11.75V9.45215C2.74998 7.91869 2.74999 6.68199 2.86426 5.69824C2.98251 4.68042 3.23458 3.80811 3.82715 3.06934C4.04452 2.79838 4.29002 2.55152 4.55957 2.33301C5.2946 1.73729 6.16309 1.48409 7.17578 1.36523C8.15452 1.25041 9.56236 1.24998 11.0879 1.25ZM11.9883 3.27051C11.9883 4.63191 11.9882 5.27959 12.1045 6.14453C12.2255 7.04441 12.4844 7.80245 13.0859 8.4043C13.6879 9.00621 14.4466 9.2657 15.3467 9.38672C16.2134 9.50323 16.8621 9.50393 18.2295 9.50391C18.1727 9.36608 18.0673 9.23556 17.4492 8.61426L12.8447 3.98535C12.3118 3.44963 12.1699 3.31641 11.9883 3.26172V3.27051Z" fill="currentColor"/></svg>
