<svg xmlns="http://www.w3.org/2000/svg" viewBox="0 0 24 24" fill="none"><path d="M4.59249 10.7689C5.29458 12.5149 7.00265 13.7482 8.99972 13.7484C10.3119 13.7484 11.4985 13.2151 12.3581 12.3549L17.4655 17.4623C15.3432 19.5849 12.5923 21.0789 9.51144 21.6449C6.17139 22.2582 2.96601 20.0483 2.35226 16.7084C1.92649 14.3892 2.86274 12.1356 4.59249 10.7689Z" fill="currentColor"/><path d="M11.2976 11.2943C10.7094 11.8831 9.89765 12.2484 8.99972 12.2484C7.54683 12.2482 6.31697 11.2943 5.90109 9.97888C6.33605 9.78582 6.80014 9.63902 7.28878 9.54919C7.85872 9.44447 8.37212 9.16336 8.76925 8.76599L11.2976 11.2943Z" fill="currentColor"/><path opacity="0.4" d="M16.7107 2.34979C14.3915 1.924 12.1379 2.86034 10.7712 4.59003C12.5172 5.29221 13.7497 7.00108 13.7498 8.99823C13.7497 9.37198 13.7044 9.73529 13.6228 10.0842L19.0847 15.5461C20.3458 13.7794 21.239 11.7308 21.6472 9.50897C22.2604 6.169 20.0506 2.96358 16.7107 2.34979Z" fill="currentColor"/><path d="M9.98114 5.89868C11.2041 6.28544 12.1122 7.37652 12.2341 8.69556L9.82489 6.28638C9.87301 6.15486 9.9249 6.02539 9.98114 5.89868Z" fill="currentColor"/><path d="M1.54302 1.54228C1.93354 1.15176 2.56655 1.15176 2.95708 1.54228L22.4571 21.0423C22.8476 21.4328 22.8476 22.0658 22.4571 22.4563C22.0666 22.8469 21.4335 22.8469 21.043 22.4563L1.54302 2.95635C1.15249 2.56582 1.15249 1.93281 1.54302 1.54228Z" fill="currentColor"/></svg>
