<svg xmlns="http://www.w3.org/2000/svg" viewBox="0 0 24 24" fill="none"><path d="M4.59246 10.7695C5.29455 12.5154 7.00262 13.7488 8.99969 13.749C10.3118 13.7489 11.4985 13.2156 12.3581 12.3554L17.4655 17.4628C15.3432 19.5854 12.5923 21.0794 9.51141 21.6454C6.17136 22.2588 2.96598 20.0489 2.35223 16.7089C1.92646 14.3897 2.86271 12.1361 4.59246 10.7695Z" fill="currentColor"/><path d="M10.7712 4.59076C12.1378 2.86107 14.3914 1.92473 16.7106 2.35052C20.0505 2.96431 22.2604 6.16973 21.6472 9.5097C21.239 11.7315 20.3457 13.7801 19.0847 15.5468L13.6227 10.0849C13.7044 9.73602 13.7497 9.37271 13.7497 8.99896C13.7497 7.00181 12.5171 5.29294 10.7712 4.59076Z" fill="currentColor"/><path d="M11.2975 11.2949C10.7094 11.8836 9.89762 12.2489 8.99969 12.249C7.5468 12.2488 6.31694 11.2948 5.90106 9.97943C6.33602 9.78637 6.80011 9.63957 7.28875 9.54974C7.85869 9.44502 8.37209 9.16391 8.76922 8.76654L11.2975 11.2949Z" fill="currentColor"/><path d="M9.98114 5.89935C11.2041 6.28611 12.1122 7.37719 12.2341 8.69623L9.82489 6.28705C9.87301 6.15553 9.92489 6.02606 9.98114 5.89935Z" fill="currentColor"/><path d="M1.54302 1.54228C1.93354 1.15176 2.56655 1.15176 2.95708 1.54228L22.4571 21.0423C22.8476 21.4328 22.8476 22.0658 22.4571 22.4563C22.0666 22.8469 21.4335 22.8469 21.043 22.4563L1.54302 2.95635C1.15249 2.56582 1.15249 1.93281 1.54302 1.54228Z" fill="currentColor"/></svg>
