<svg xmlns="http://www.w3.org/2000/svg" viewBox="0 0 24 24" fill="none"><path d="M14.7625 17.036C14.7691 17.201 14.7761 17.3751 14.7761 17.5C14.7761 19.0241 16.0009 20.25 17.5 20.25C18.9991 20.25 20.2239 19.0241 20.2239 17.5C20.2239 17.3751 20.2308 17.201 20.2375 17.036C20.2418 16.9276 20.246 16.8232 20.2479 16.739C20.254 16.4788 20.2476 16.2504 20.2155 16.0628C20.1823 15.8687 20.1338 15.7947 20.1167 15.7758C20.1124 15.771 20.1104 15.7694 20.1031 15.7663C20.0935 15.7624 20.0583 15.75 19.9813 15.75H15.0187C14.9417 15.75 14.9065 15.7624 14.8969 15.7663C14.8896 15.7694 14.8876 15.771 14.8833 15.7758C14.8662 15.7947 14.8177 15.8687 14.7845 16.0628C14.7524 16.2504 14.746 16.4788 14.7521 16.739C14.754 16.8232 14.7582 16.9276 14.7625 17.036ZM13.7703 14.7702C14.084 14.4229 14.5183 14.25 15.0187 14.25H19.9813C20.4817 14.25 20.916 14.4229 21.2297 14.7702C21.518 15.0893 21.6381 15.4835 21.694 15.8097C21.751 16.1426 21.7542 16.4869 21.7475 16.7739C21.7439 16.9289 21.7386 17.0508 21.7339 17.1579C21.7284 17.2821 21.7239 17.3865 21.7239 17.5C21.7239 19.8419 19.8381 21.75 17.5 21.75C15.1619 21.75 13.2761 19.8419 13.2761 17.5C13.2761 17.3865 13.2715 17.2821 13.2661 17.1579C13.2614 17.0508 13.2561 16.9289 13.2525 16.7739C13.2458 16.4869 13.249 16.1426 13.306 15.8097C13.3618 15.4835 13.4819 15.0893 13.7703 14.7702Z" fill="currentColor" fill-rule="evenodd" clip-rule="evenodd"/><path d="M22 21.75C22.4142 21.75 22.75 21.4142 22.75 21C22.75 20.5858 22.4142 20.25 22 20.25L14 20.25C12.2051 20.25 10.75 18.7949 10.75 17L10.75 10.5C10.75 10.0076 10.752 9.71364 10.7803 9.50293C10.7978 9.43411 10.8669 9.2933 11.0029 9.28027C11.2136 9.25197 11.5076 9.25 12 9.25L13.3428 9.25488C13.3616 9.25496 13.3805 9.25607 13.3984 9.26172C13.4392 9.2747 13.4767 9.29802 13.5059 9.3291C13.5259 9.35066 13.5374 9.379 13.5459 9.40723C13.6758 9.83791 13.9035 10.2755 14.0449 10.4941C14.4501 11.1202 15.0925 11.5546 15.8242 11.6982C16.0114 11.735 16.2177 11.746 16.4502 11.749C16.6156 11.7514 16.7498 11.8844 16.75 12.0498V15C16.75 15.4142 17.0858 15.75 17.5 15.75C17.9142 15.75 18.25 15.4142 18.25 15V12.0313C18.2503 11.8697 18.3788 11.7382 18.54 11.7266C18.5892 11.723 18.6371 11.7196 18.6836 11.7148C19.0544 11.677 19.4195 11.5927 19.7529 11.3691C19.9965 11.2059 20.2059 10.9965 20.3691 10.7529C20.5927 10.4195 20.677 10.0544 20.7148 9.68359C20.7505 9.33401 20.75 8.90573 20.75 8.40918L20.75 5.9502C20.75 5.28552 20.7501 4.71255 20.6885 4.25391C20.6224 3.76236 20.473 3.29136 20.0908 2.90918C19.7086 2.52699 19.2376 2.37764 18.7461 2.31152C18.2874 2.24986 17.7145 2.24996 17.0498 2.25L4.70898 2.25C4.1575 2.24997 3.68182 2.25044 3.2959 2.29395C2.88541 2.34025 2.48411 2.44304 2.12988 2.71484C1.97403 2.83446 1.83446 2.97403 1.71484 3.12988C1.44303 3.48411 1.34025 3.88541 1.29395 4.2959C1.25044 4.68183 1.24998 5.1575 1.25 5.70898C1.24998 6.26062 1.25043 6.81809 1.29395 7.2041C1.34025 7.61459 1.44303 8.01589 1.71484 8.37012C1.83446 8.52597 1.97403 8.66554 2.12988 8.78516C2.39494 8.98854 2.68651 9.09776 2.98828 9.15918C3.13651 9.18937 3.24979 9.31459 3.25 9.46582L3.25 19.9502C3.2499 20.1157 3.11573 20.2499 2.9502 20.25H2C1.58579 20.25 1.25 20.5858 1.25 21C1.25 21.4142 1.58579 21.75 2 21.75L22 21.75ZM17.0029 7C16.4533 6.99978 16.0078 6.55215 16.0078 6C16.0078 5.44785 16.4533 5.00022 17.0029 5H17.0127C17.5623 5.00022 18.0078 5.44785 18.0078 6C18.0078 6.55215 17.5623 6.99978 17.0127 7H17.0029Z" fill="currentColor"/></svg>
