<svg xmlns="http://www.w3.org/2000/svg" viewBox="0 0 24 24" fill="none"><path opacity="0.4" d="M21.4998 6.75C21.914 6.75 22.2498 7.08579 22.2498 7.5V13.5498C22.2498 14.4568 22.2495 15.2711 22.2312 16H20.4998V15.25C20.4998 14.0074 19.4924 13 18.2498 13C17.0071 13 15.9998 14.0074 15.9998 15.25V16H15.2498C14.0071 16 12.9998 17.0074 12.9998 18.25C12.9998 19.4926 14.0071 20.5 15.2498 20.5H15.9998V22.2305C15.2709 22.2488 14.4565 22.25 13.5496 22.25H10.45C8.60918 22.25 7.15103 22.25 6.0105 22.0967C4.8383 21.939 3.88962 21.6067 3.14136 20.8584C2.39313 20.1101 2.06071 19.1615 1.90308 17.9893C1.74974 16.8487 1.74974 15.3906 1.74976 13.5498V7.5C1.74976 7.08587 2.08566 6.75013 2.49976 6.75H21.4998Z" fill="currentColor"/><path d="M14 9.75C14.4142 9.75 14.75 10.0858 14.75 10.5C14.75 10.9142 14.4142 11.25 14 11.25H10C9.58579 11.25 9.25 10.9142 9.25 10.5C9.25 10.0858 9.58579 9.75 10 9.75H14Z" fill="currentColor"/><path d="M17.2498 21.25V19.25H15.2498C14.6975 19.25 14.2498 18.8023 14.2498 18.25C14.2498 17.6977 14.6975 17.25 15.2498 17.25H17.2498V15.25C17.2498 14.6977 17.6975 14.25 18.2498 14.25C18.802 14.25 19.2498 14.6977 19.2498 15.25V17.25H21.2498C21.802 17.25 22.2498 17.6977 22.2498 18.25C22.2498 18.8023 21.802 19.25 21.2498 19.25H19.2498V21.25C19.2498 21.8023 18.802 22.25 18.2498 22.25C17.6975 22.25 17.2498 21.8023 17.2498 21.25Z" fill="currentColor"/><path d="M15.0281 1.75C15.8191 1.75 16.4823 1.74928 17.0291 1.79981C17.5969 1.85232 18.1153 1.96539 18.6111 2.23242C19.1067 2.49945 19.4748 2.86372 19.8142 3.29981C20.1411 3.71978 20.4815 4.26016 20.8884 4.90527L22.1101 6.84375C22.2223 7.0216 22.2639 7.22043 22.2439 7.41211C22.2004 7.03935 21.8842 6.75 21.4998 6.75H19.7752L19.2146 5.86133C18.7884 5.18561 18.5024 4.7352 18.2449 4.4043C18.0003 4.09008 17.8245 3.94313 17.6492 3.84863C17.4737 3.75413 17.2502 3.68535 16.8406 3.64746C16.4098 3.60764 15.8566 3.60742 15.0281 3.60742H12.9763V6.75H11.0242V3.60742H9.02613C8.21581 3.60742 7.67544 3.60817 7.25367 3.64649C6.85277 3.68294 6.63278 3.74783 6.45973 3.83887C6.28664 3.93002 6.11146 4.07295 5.86598 4.37695C5.60788 4.69664 5.32071 5.1318 4.89039 5.78516L4.25465 6.75H2.49977C2.11539 6.75012 1.79818 7.03938 1.75465 7.41211C1.73404 7.21448 1.77983 7.00934 1.89918 6.82813L3.23512 4.79981C3.64612 4.17577 3.9901 3.65135 4.31813 3.24512C4.65872 2.82338 5.0249 2.47113 5.51344 2.21387C6.00203 1.9566 6.51056 1.8485 7.06715 1.79785C7.60309 1.74912 8.25223 1.75 9.02613 1.75H15.0281Z" fill="currentColor"/></svg>
