<svg xmlns="http://www.w3.org/2000/svg" viewBox="0 0 24 24" fill="none"><path d="M1.54314 1.54259C1.93366 1.15206 2.56668 1.15206 2.9572 1.54259L22.4572 21.0426C22.8477 21.4331 22.8477 22.0661 22.4572 22.4566C22.0667 22.8472 21.4337 22.8472 21.0431 22.4566L1.54314 2.95665C1.15261 2.56613 1.15261 1.93311 1.54314 1.54259Z" fill="currentColor"/><path d="M8.2345 8.23401C8.0492 9.00995 8.00012 9.81148 8.00012 10.4996C8.00012 11.0519 8.44784 11.4996 9.00012 11.4996C9.93766 11.4996 10.5079 12.1585 10.5079 12.7496C10.5079 13.3407 9.93766 13.9996 9.00012 13.9996C8.44784 13.9996 8.00012 14.4473 8.00012 14.9996C8.00012 15.5519 8.44784 15.9996 9.00012 15.9996C10.8326 15.9996 12.5079 14.6438 12.5079 12.7496C12.5079 12.6638 12.503 12.5792 12.4962 12.4957L15.922 15.9215C15.8345 15.9863 15.7484 16.0528 15.6593 16.1149C14.9873 16.5829 14.5671 17.1443 14.3488 18.1578C13.7535 20.9209 11.8205 22.7496 9.30774 22.7496C6.73459 22.7496 4.93079 20.5412 4.93079 17.9996C4.93079 16.934 4.76376 14.7193 4.5929 12.736C4.50813 11.7521 4.42312 10.8363 4.3595 10.1666C4.32769 9.83184 4.30186 9.55816 4.28333 9.36877L4.25403 9.07483C4.25154 9.04999 4.25012 9.0246 4.25012 8.99963C4.25012 7.63045 4.60558 6.34442 5.22864 5.22815L8.2345 8.23401Z" fill="currentColor"/><path d="M12.0001 1.24963C16.2803 1.24963 19.7501 4.71943 19.7501 8.99963C19.7501 10.9981 18.9518 12.7747 17.7472 14.2115L10.8868 7.3512C10.9286 7.31593 10.9715 7.28367 11.0157 7.25452C11.2338 7.11103 11.5436 6.99963 12.0099 6.99963C12.6611 6.99972 13.1005 7.21442 13.3976 7.52502C13.7084 7.85011 13.9431 8.36542 14.004 9.08362C14.0506 9.63381 14.5339 10.0421 15.0841 9.99573C15.6343 9.94913 16.0426 9.46581 15.9962 8.91565C15.9067 7.85844 15.542 6.87311 14.8429 6.14221C14.13 5.39692 13.1487 4.99972 12.0099 4.99963C11.2036 4.99963 10.5 5.19858 9.91516 5.58362C9.75338 5.69014 9.60627 5.8088 9.47083 5.93518L6.79407 3.25842C8.1698 2.01017 9.99616 1.24963 12.0001 1.24963Z" fill="currentColor"/></svg>
