<svg xmlns="http://www.w3.org/2000/svg" viewBox="0 0 24 24" fill="none"><path d="M1.54302 1.54314C1.93354 1.15261 2.56655 1.15261 2.95708 1.54314L22.4571 21.0431C22.8476 21.4337 22.8476 22.0667 22.4571 22.4572C22.0666 22.8477 21.4335 22.8477 21.043 22.4572L1.54302 2.9572C1.15249 2.56668 1.15249 1.93366 1.54302 1.54314Z" fill="currentColor"/><path d="M16.2443 16.2444L13.7551 13.7551C13.5271 13.7534 13.2766 13.7502 13.0002 13.7502H11.0002C10.0362 13.7502 9.38848 13.7517 8.90546 13.8167C8.44414 13.8787 8.2467 13.9862 8.11639 14.1165C7.98609 14.2468 7.87863 14.4441 7.81659 14.9055C7.75165 15.3886 7.75018 16.0362 7.75018 17.0002V21.7024C8.65857 21.7483 9.71889 21.7503 10.9504 21.7502H13.05C14.2815 21.7503 15.3418 21.7483 16.2502 21.7024V17.0002C16.2502 16.7234 16.246 16.4727 16.2443 16.2444Z" fill="currentColor"/><path d="M12.2502 12.2502L3.64178 3.64185L3.50604 3.78442C2.85239 4.5095 2.55129 5.41197 2.4035 6.51099C2.25016 7.65154 2.25017 9.10961 2.25018 10.9504V10.9504V13.05C2.25017 14.8909 2.25016 16.349 2.4035 17.4895C2.56115 18.6618 2.89348 19.6103 3.64178 20.3586C4.33372 21.0505 5.19727 21.3845 6.25018 21.5559V17.0002L6.25018 16.9535C6.25016 16.0527 6.25014 15.3013 6.33026 14.7053C6.4147 14.0777 6.60049 13.5113 7.05585 13.0559C7.5112 12.6006 8.07768 12.4148 8.70526 12.3303C9.30129 12.2502 10.0529 12.2502 10.9539 12.2502H11.0002H12.2502Z" fill="currentColor"/><path d="M20.2267 20.4846L20.3586 20.3586L17.7502 17.7502V21.5559C18.7372 21.3953 19.5579 21.092 20.2267 20.4846Z" fill="currentColor"/><path d="M19.3127 3.29321C18.8465 2.91979 18.3156 2.64077 17.7502 2.46509V4.00024V4.04691C17.7502 4.94777 17.7502 5.69921 17.6701 6.29517C17.5857 6.92275 17.3998 7.48923 16.9445 7.94458C16.4892 8.39991 15.9227 8.58573 15.2951 8.67017C14.6992 8.75029 13.9476 8.75027 13.0468 8.75025L13.0002 8.75024H12.2853L21.5148 17.9797C21.5453 17.8207 21.5743 17.6577 21.5969 17.4895C21.7502 16.349 21.7502 14.8908 21.7502 13.05V8.12134C21.7502 7.68138 21.7517 7.40465 21.7219 7.13501C21.6229 6.23961 21.2704 5.39088 20.7072 4.68774C20.5419 4.48141 20.3515 4.29095 20.0539 3.99341L20.007 3.94653C19.7095 3.64897 19.519 3.45849 19.3127 3.29321Z" fill="currentColor"/><path d="M16.2502 4.00024V2.2522C16.1394 2.25147 16.0172 2.25024 15.8791 2.25024H10.9504C9.7189 2.25024 8.65856 2.25121 7.75018 2.29712V4.00024C7.75018 4.07401 7.75111 4.14593 7.75116 4.21606L10.7834 7.24829C10.8538 7.24834 10.9261 7.25024 11.0002 7.25024H13.0002C13.9641 7.25024 14.6119 7.24878 15.0949 7.18384C15.5562 7.12179 15.7537 7.01433 15.884 6.88403C16.0143 6.75373 16.1217 6.55629 16.1838 6.09497C16.2487 5.61194 16.2502 4.96424 16.2502 4.00024Z" fill="currentColor"/></svg>
