<svg xmlns="http://www.w3.org/2000/svg" viewBox="0 0 24 24" fill="none"><path d="M15.0518 8.375C15.7156 8.37496 16.2879 8.37492 16.7461 8.43652C17.2376 8.50264 17.7086 8.652 18.0908 9.03418C18.473 9.41636 18.6224 9.88736 18.6885 10.3789C18.7501 10.8371 18.75 11.4094 18.75 12.0732V16.1768C18.75 16.8406 18.7501 17.4129 18.6885 17.8711C18.6224 18.3626 18.473 18.8336 18.0908 19.2158C17.7086 19.598 17.2376 19.7474 16.7461 19.8135C16.2879 19.8751 15.7156 19.875 15.0518 19.875H8.94825C8.28439 19.875 7.7121 19.8751 7.25391 19.8135C6.76236 19.7474 6.29137 19.598 5.90918 19.2158C5.527 18.8336 5.37764 18.3626 5.31153 17.8711C5.24993 17.4129 5.24996 16.8406 5.25 16.1768V12.125C5.25 11.4391 5.24833 10.849 5.31153 10.3789C5.37764 9.88736 5.527 9.41636 5.90918 9.03418C6.29137 8.652 6.76236 8.50264 7.25391 8.43652C7.72397 8.37333 8.3141 8.375 9 8.375H15.0518ZM9 10.375C8.58579 10.375 8.25001 10.7108 8.25 11.125C8.25 11.5392 8.58579 11.875 9 11.875H15C15.4142 11.875 15.75 11.5392 15.75 11.125C15.75 10.7108 15.4142 10.375 15 10.375H9Z" fill="currentColor" fill-rule="evenodd" clip-rule="evenodd"/><path opacity="0.4" d="M21.75 16.1894V16.125V8.125V8.06057C21.75 6.6975 21.7501 5.59832 21.6338 4.7334C21.5128 3.83329 21.2533 3.07555 20.6514 2.47363C20.0495 1.87172 19.2917 1.61223 18.3916 1.49121C17.5267 1.37495 16.4275 1.37497 15.0644 1.375H15H9H8.93562C7.57252 1.37497 6.47333 1.37495 5.6084 1.49121C4.70829 1.61223 3.95055 1.87172 3.34863 2.47363C2.74672 3.07555 2.48723 3.83329 2.36621 4.7334C2.24995 5.59833 2.24997 6.69752 2.25 8.06061V8.125V16.125V16.1894C2.24997 17.5525 2.24995 18.6517 2.36621 19.5166C2.48723 20.4167 2.74672 21.1745 3.34863 21.7764C3.95055 22.3783 4.70829 22.6378 5.6084 22.7588C6.47332 22.8751 7.5725 22.875 8.93557 22.875H9H15H15.0644C16.4275 22.875 17.5267 22.8751 18.3916 22.7588C19.2917 22.6378 20.0495 22.3783 20.6514 21.7764C21.2533 21.1745 21.5128 20.4167 21.6338 19.5166C21.7501 18.6517 21.75 17.5525 21.75 16.1894Z" fill="currentColor"/><path d="M12 4.27734C12.4693 4.27734 12.8504 4.65769 12.8506 5.12695C12.8506 5.5964 12.4694 5.97754 12 5.97754C11.5307 5.97733 11.1504 5.59626 11.1504 5.12695C11.1506 4.65782 11.5309 4.27755 12 4.27734Z" fill="currentColor"/><path d="M16 4.27734C16.4693 4.27734 16.8504 4.65769 16.8506 5.12695C16.8506 5.5964 16.4694 5.97754 16 5.97754C15.5307 5.97733 15.1504 5.59626 15.1504 5.12695C15.1506 4.65782 15.5309 4.27755 16 4.27734Z" fill="currentColor"/><path d="M8 4.27734C8.46931 4.27734 8.85037 4.65769 8.85059 5.12695C8.85059 5.5964 8.46944 5.97754 8 5.97754C7.53074 5.97733 7.15039 5.59626 7.15039 5.12695C7.1506 4.65782 7.53087 4.27755 8 4.27734Z" fill="currentColor"/></svg>
