<svg xmlns="http://www.w3.org/2000/svg" fill="none" viewBox="0 0 48 48">
  <g>
    <path fill="currentColor" fill-opacity="0.4" fill-rule="evenodd" d="M24 46.5c-7.4014 0 -12.5927 -0.2781 -15.8643 -0.5439 -3.28785 -0.2671 -5.82468 -2.804 -6.09181 -6.0918C1.77808 36.5927 1.5 31.4014 1.5 24c0 -7.4014 0.27808 -12.5927 0.54389 -15.8643 0.26713 -3.28785 2.80396 -5.82468 6.09182 -6.09181C11.4073 1.77808 16.5986 1.5 24 1.5c7.4014 0 12.5927 0.27808 15.8643 0.54389 3.2878 0.26713 5.8247 2.80396 6.0918 6.09181 0.2658 3.2716 0.5439 8.4629 0.5439 15.8643 0 7.4014 -0.2781 12.5927 -0.5439 15.8643 -0.2671 3.2879 -2.804 5.8247 -6.0918 6.0918 -3.2716 0.2658 -8.4629 0.5439 -15.8643 0.5439Z" clip-rule="evenodd" stroke-width="3.429"></path>
    <path fill="currentColor" fill-rule="evenodd" d="M24 40.5c-5.4757 0 -9.2584 -0.1562 -11.5787 -0.2998 -2.3807 -0.1473 -4.34554 -1.9113 -4.58699 -4.3606C7.66118 34.0832 7.5 31.5066 7.5 28c0 -3.5066 0.16118 -6.0832 0.33431 -7.8396 0.24145 -2.4493 2.20629 -4.2133 4.58699 -4.3606C14.7416 15.6562 18.5243 15.5 24 15.5s9.2584 0.1562 11.5787 0.2998c2.3807 0.1473 4.3455 1.9113 4.587 4.3606 0.1731 1.7564 0.3343 4.333 0.3343 7.8396 0 3.5066 -0.1612 6.0832 -0.3343 7.8396 -0.2415 2.4493 -2.2063 4.2133 -4.587 4.3606 -2.3203 0.1436 -6.103 0.2998 -11.5787 0.2998Z" clip-rule="evenodd" stroke-width="3.429"></path>
    <path fill="currentColor" fill-rule="evenodd" d="M9 9c0 -1.10457 0.89543 -2 2 -2h2c1.1046 0 2 0.89543 2 2 0 1.1046 -0.8954 2 -2 2h-2c-1.10457 0 -2 -0.8954 -2 -2Zm30 0c0 -1.10457 -0.8954 -2 -2 -2h-2c-1.1046 0 -2 0.89543 -2 2 0 1.1046 0.8954 2 2 2h2c1.1046 0 2 -0.8954 2 -2ZM28 7c1.1046 0 2 0.89543 2 2 0 1.1046 -0.8954 2 -2 2h-2c-1.1046 0 -2 -0.8954 -2 -2 0 -1.10457 0.8954 -2 2 -2h2Z" clip-rule="evenodd" stroke-width="3.429"></path>
    <path fill="currentColor" fill-opacity="0.4" fill-rule="evenodd" d="M35.9962 22.1247c0.0689 -1.1024 -0.769 -2.052 -1.8714 -2.1209 -6.7163 -0.4197 -13.5332 -0.4197 -20.2495 0 -1.1024 0.0689 -1.9402 1.0185 -1.8713 2.1209 0.0689 1.1024 1.0184 1.9402 2.1208 1.8713 6.5502 -0.4093 13.2004 -0.4093 19.7505 0 1.1024 0.0689 2.052 -0.7689 2.1209 -1.8713Z" clip-rule="evenodd" stroke-width="3.429"></path>
  </g>
</svg>
