<svg xmlns="http://www.w3.org/2000/svg" fill="none" viewBox="0 0 48 48">
  <g>
    <path stroke="currentColor" stroke-linejoin="round" d="M3.53896 39.7428c0.20761 2.5553 2.16291 4.5106 4.71821 4.7182C11.4854 44.7233 16.636 45 24 45c7.364 0 12.5146 -0.2767 15.7428 -0.539 2.5553 -0.2076 4.5106 -2.1629 4.7182 -4.7182C44.7233 36.5146 45 31.364 45 24c0 -7.364 -0.2767 -12.5146 -0.539 -15.74283 -0.2076 -2.55529 -2.1629 -4.51059 -4.7182 -4.7182C36.5146 3.27668 31.364 3 24 3c-7.364 0 -12.5146 0.27668 -15.74282 0.53897 -2.5553 0.20761 -4.5106 2.1629 -4.71821 4.7182C3.27668 11.4854 3 16.636 3 24c0 7.364 0.27667 12.5146 0.53896 15.7428Z" stroke-width="3.429"></path>
    <path stroke="currentColor" stroke-linejoin="round" d="M9.32708 35.6925c0.16553 1.6792 1.50272 2.9063 3.18692 3.0105C14.801 38.8446 18.5527 39 24 39s9.199 -0.1554 11.486 -0.297c1.6842 -0.1042 3.0214 -1.3313 3.1869 -3.0105C38.8409 33.9881 39 31.4607 39 28s-0.1591 -5.9881 -0.3271 -7.6925c-0.1655 -1.6792 -1.5027 -2.9063 -3.1869 -3.0105C33.199 17.1554 29.4473 17 24 17s-9.199 0.1554 -11.486 0.297c-1.6842 0.1042 -3.02139 1.3313 -3.18692 3.0105C9.15907 22.0119 9 24.5393 9 28s0.15907 5.9881 0.32708 7.6925Z" stroke-width="3.429"></path>
    <path stroke="currentColor" stroke-linecap="round" d="M11 10.5h2" stroke-width="3.429"></path>
    <path stroke="currentColor" stroke-linecap="round" d="M37 10.5h-2" stroke-width="3.429"></path>
    <path stroke="currentColor" stroke-linecap="round" d="M29 10.5h-2" stroke-width="3.429"></path>
    <path stroke="currentColor" stroke-linecap="round" stroke-linejoin="round" d="M33 23s-3 -0.25 -9 -0.25 -9 0.25 -9 0.25" stroke-width="3.429"></path>
  </g>
</svg>
