<svg xmlns="http://www.w3.org/2000/svg" viewBox="0 0 24 24" fill="none"><path d="M15 10.375C15.4142 10.375 15.75 10.7108 15.75 11.125C15.75 11.5392 15.4142 11.875 15 11.875H9C8.58579 11.875 8.25 11.5392 8.25 11.125C8.25 10.7108 8.58579 10.375 9 10.375H15Z" fill="currentColor"/><path d="M15.0645 1.375C16.4275 1.37497 17.5267 1.37495 18.3916 1.49121C19.2917 1.61223 20.0494 1.87172 20.6514 2.47363C21.2533 3.07555 21.5128 3.83329 21.6338 4.7334C21.7501 5.59831 21.75 6.69749 21.75 8.06055V16.1895C21.75 17.5525 21.7501 18.6517 21.6338 19.5166C21.5128 20.4167 21.2533 21.1744 20.6514 21.7764C20.0494 22.3783 19.2917 22.6378 18.3916 22.7588C17.5267 22.8751 16.4275 22.875 15.0645 22.875H8.93555C7.57249 22.875 6.47331 22.8751 5.6084 22.7588C4.70829 22.6378 3.95055 22.3783 3.34863 21.7764C2.74672 21.1744 2.48723 20.4167 2.36621 19.5166C2.24995 18.6517 2.24997 17.5525 2.25 16.1895V8.06055C2.24997 6.69749 2.24995 5.59831 2.36621 4.7334C2.48723 3.83329 2.74672 3.07555 3.34863 2.47363C3.95055 1.87172 4.70829 1.61223 5.6084 1.49121C6.47331 1.37495 7.57249 1.37497 8.93555 1.375H15.0645ZM9 8.375C8.3141 8.375 7.72397 8.37333 7.25391 8.43652C6.76236 8.50264 6.29136 8.65199 5.90918 9.03418C5.52699 9.41636 5.37764 9.88735 5.31152 10.3789C5.24833 10.849 5.25 11.4391 5.25 12.125V16.1768C5.24996 16.8406 5.24992 17.4129 5.31152 17.8711C5.37764 18.3626 5.527 18.8336 5.90918 19.2158C6.29136 19.598 6.76236 19.7474 7.25391 19.8135C7.7121 19.8751 8.28439 19.875 8.94824 19.875H15.0518C15.7156 19.875 16.2879 19.8751 16.7461 19.8135C17.2376 19.7474 17.7086 19.598 18.0908 19.2158C18.473 18.8336 18.6224 18.3626 18.6885 17.8711C18.7501 17.4129 18.75 16.8406 18.75 16.1768V12.0732C18.75 11.4094 18.7501 10.8371 18.6885 10.3789C18.6224 9.88736 18.473 9.41636 18.0908 9.03418C17.7086 8.652 17.2376 8.50264 16.7461 8.43652C16.2879 8.37492 15.7156 8.37496 15.0518 8.375H9ZM8 4.27734C7.53087 4.27755 7.1506 4.65782 7.15039 5.12695C7.15039 5.59626 7.53074 5.97733 8 5.97754C8.46944 5.97754 8.85059 5.5964 8.85059 5.12695C8.85038 4.65769 8.46931 4.27734 8 4.27734ZM12 4.27734C11.5309 4.27755 11.1506 4.65782 11.1504 5.12695C11.1504 5.59626 11.5307 5.97733 12 5.97754C12.4694 5.97754 12.8506 5.5964 12.8506 5.12695C12.8504 4.65769 12.4693 4.27734 12 4.27734ZM16 4.27734C15.5309 4.27755 15.1506 4.65782 15.1504 5.12695C15.1504 5.59626 15.5307 5.97733 16 5.97754C16.4694 5.97754 16.8506 5.5964 16.8506 5.12695C16.8504 4.65769 16.4693 4.27734 16 4.27734Z" fill="currentColor"/></svg>
