<svg xmlns="http://www.w3.org/2000/svg" viewBox="0 0 24 24" fill="none"><path opacity="0.4" d="M6.33008 9.29492C6.2718 8.86143 6.25627 8.34568 6.25195 7.75H2.3418C2.25201 8.89472 2.24999 10.2827 2.25 11.958V12.042C2.24999 14.1221 2.25 15.7597 2.42188 17.0381C2.59783 18.3464 2.9666 19.3904 3.78809 20.2119C4.60957 21.0334 5.65356 21.4022 6.96191 21.5781C8.24033 21.75 9.87786 21.75 11.958 21.75H12.042C14.1221 21.75 15.7597 21.75 17.0381 21.5781C18.3464 21.4022 19.3904 21.0334 20.2119 20.2119C21.0334 19.3904 21.4022 18.3464 21.5781 17.0381C21.75 15.7597 21.75 14.1221 21.75 12.042V11.958C21.75 10.2827 21.748 8.89472 21.6582 7.75H17.748C17.7437 8.34568 17.7282 8.86143 17.6699 9.29492C17.5855 9.92253 17.3997 10.489 16.9443 10.9443C16.489 11.3997 15.9225 11.5855 15.2949 11.6699C14.699 11.75 13.9476 11.75 13.0467 11.75L13 11.75H11L10.9533 11.75C10.0524 11.75 9.30102 11.75 8.70508 11.6699C8.07747 11.5855 7.51102 11.3997 7.05566 10.9443C6.60031 10.489 6.41451 9.92253 6.33008 9.29492Z" fill="currentColor"/><path d="M16.1836 9.09473C16.23 8.74923 16.2409 8.31943 16.2451 7.75H7.75488C7.75911 8.31943 7.76996 8.74923 7.81641 9.09473C7.87845 9.55612 7.9859 9.75348 8.11621 9.88379C8.24652 10.0141 8.44388 10.1215 8.90527 10.1836C9.38831 10.2485 10.036 10.25 11 10.25H13C13.964 10.25 14.6117 10.2485 15.0947 10.1836C15.5561 10.1216 15.7535 10.0141 15.8838 9.88379C16.0141 9.75348 16.1215 9.55612 16.1836 9.09473Z" fill="currentColor"/><path d="M17.0381 2.42188C15.7597 2.25 14.1221 2.24999 12.042 2.25H11.958C9.87786 2.24999 8.24033 2.25 6.96191 2.42188C5.65356 2.59783 4.60957 2.9666 3.78809 3.78809C3.12158 4.45459 2.75617 5.26821 2.54688 6.25H21.4531C21.2438 5.26821 20.8784 4.45459 20.2119 3.78809C19.3904 2.9666 18.3464 2.59783 17.0381 2.42188Z" fill="currentColor"/><path d="M12 13C12.5523 13 13 13.4477 13 14C13 14.5523 12.5523 15 12 15C11.4477 15 11 14.5523 11 14C11 13.4477 11.4477 13 12 13Z" fill="currentColor"/></svg>
