<svg xmlns="http://www.w3.org/2000/svg" viewBox="0 0 24 24" fill="none"><path d="M6.25195 7.75C6.25627 8.34568 6.2718 8.86143 6.33008 9.29492C6.41451 9.92253 6.60031 10.489 7.05566 10.9443C7.51102 11.3997 8.07747 11.5855 8.70508 11.6699C9.3113 11.7514 10.0784 11.75 11 11.75H13C13.9216 11.75 14.6887 11.7514 15.2949 11.6699C15.9225 11.5855 16.489 11.3997 16.9443 10.9443C17.3997 10.489 17.5855 9.92253 17.6699 9.29492C17.7282 8.86143 17.7437 8.34568 17.748 7.75H21.6582C21.748 8.89472 21.75 10.2827 21.75 11.958V12.042C21.75 14.1221 21.75 15.7597 21.5781 17.0381C21.4022 18.3464 21.0334 19.3904 20.2119 20.2119C19.3904 21.0334 18.3464 21.4022 17.0381 21.5781C15.7597 21.75 14.1221 21.75 12.042 21.75H11.958C9.87786 21.75 8.24033 21.75 6.96191 21.5781C5.65356 21.4022 4.60957 21.0334 3.78809 20.2119C2.9666 19.3904 2.59783 18.3464 2.42188 17.0381C2.25 15.7597 2.24999 14.1221 2.25 12.042V11.958C2.24999 10.2827 2.25201 8.89472 2.3418 7.75H6.25195ZM12 13C11.4477 13 11 13.4477 11 14C11 14.5523 11.4477 15 12 15C12.5523 15 13 14.5523 13 14C13 13.4477 12.5523 13 12 13ZM16.2451 7.75C16.2409 8.31943 16.23 8.74923 16.1836 9.09473C16.1215 9.55612 16.0141 9.75348 15.8838 9.88379C15.7535 10.0141 15.5561 10.1216 15.0947 10.1836C14.6117 10.2485 13.964 10.25 13 10.25H11C10.036 10.25 9.38831 10.2485 8.90527 10.1836C8.44388 10.1215 8.24652 10.0141 8.11621 9.88379C7.9859 9.75348 7.87845 9.55612 7.81641 9.09473C7.76996 8.74923 7.75911 8.31943 7.75488 7.75H16.2451ZM12.042 2.25C14.1221 2.24999 15.7597 2.25 17.0381 2.42188C18.3464 2.59783 19.3904 2.9666 20.2119 3.78809C20.8784 4.45459 21.2438 5.26821 21.4531 6.25H2.54688C2.75617 5.26821 3.12158 4.45459 3.78809 3.78809C4.60957 2.9666 5.65356 2.59783 6.96191 2.42188C8.24033 2.25 9.87786 2.24999 11.958 2.25H12.042Z" fill="currentColor"/></svg>
