<svg xmlns="http://www.w3.org/2000/svg" viewBox="0 0 24 24" fill="none"><path d="M6.75009 2.99963C6.75009 2.03314 7.53359 1.24963 8.50009 1.24963H13.5001C14.4666 1.24963 15.2501 2.03314 15.2501 2.99963C15.2501 3.96613 14.4666 4.74963 13.5001 4.74963H8.50009C7.53359 4.74963 6.75009 3.96613 6.75009 2.99963Z" fill="currentColor" fill-rule="evenodd" clip-rule="evenodd"/><path opacity="0.4" d="M16.4962 3.13245C17.3502 3.25939 18.0731 3.51898 18.6515 4.09729C19.2532 4.69929 19.5128 5.45787 19.6339 6.35803C19.7466 7.19653 19.749 8.25638 19.7491 9.56213C18.4208 8.5806 16.7785 7.99963 15.0001 7.99963C10.5818 7.99963 7.00009 11.5814 7.00009 15.9996C7.00009 18.8381 8.47945 21.3296 10.7081 22.7496H8.93564C7.57271 22.7497 6.47334 22.7497 5.60849 22.6334C4.70863 22.5124 3.95056 22.2538 3.34873 21.652C2.74697 21.05 2.48736 20.2914 2.3663 19.3912C2.25005 18.5262 2.25007 17.4253 2.25009 16.0621V9.68713C2.25007 8.32396 2.25005 7.22307 2.3663 6.35803C2.48736 5.45787 2.74697 4.69929 3.34873 4.09729C3.92685 3.51919 4.64939 3.25944 5.50302 3.13245C5.57252 4.72767 6.88774 5.99963 8.50009 5.99963H13.5001C15.1124 5.99963 16.4267 4.72765 16.4962 3.13245Z" fill="currentColor"/><path d="M15.0001 9.24963C18.728 9.24963 21.7501 12.2717 21.7501 15.9996C21.7501 19.7276 18.728 22.7496 15.0001 22.7496C11.2722 22.7496 8.25009 19.7276 8.25009 15.9996C8.25009 12.2717 11.2722 9.24963 15.0001 9.24963ZM15.0001 12.2496C14.5859 12.2496 14.2501 12.5854 14.2501 12.9996L14.2501 15.9996C14.2501 16.2837 14.411 16.5435 14.6651 16.6705L16.6651 17.6705C17.0355 17.8555 17.4858 17.7049 17.671 17.3346C17.8559 16.9642 17.7054 16.5139 17.3351 16.3287L15.7501 15.5358L15.7501 12.9996C15.7501 12.5854 15.4143 12.2496 15.0001 12.2496Z" fill="currentColor"/></svg>
