<svg xmlns="http://www.w3.org/2000/svg" viewBox="0 0 24 24" fill="none"><path opacity="0.4" d="M22.75 12.5268V12.5V10V9.93551C22.75 8.57247 22.7501 7.47331 22.6338 6.6084C22.5128 5.70829 22.2533 4.95055 21.6514 4.34863C21.0495 3.74672 20.2917 3.48723 19.3916 3.36621C18.5267 3.24995 17.4275 3.24997 16.0644 3.25H16H8H7.93562C6.57252 3.24997 5.47333 3.24995 4.6084 3.36621C3.70829 3.48723 2.95055 3.74672 2.34863 4.34863C1.74672 4.95055 1.48723 5.70829 1.36621 6.6084C1.24995 7.47333 1.24997 8.57252 1.25 9.93562V10V12.5V12.5267C1.24999 13.2029 1.24999 13.7484 1.28028 14.1924C1.31143 14.6489 1.37681 15.0533 1.53516 15.4355C1.91575 16.3542 2.64585 17.0842 3.56445 17.4648C3.94673 17.6232 4.35106 17.6886 4.80762 17.7197C5.17772 17.745 5.61837 17.7474 6.14649 17.748L6.625 18.3213C7.4647 19.3289 8.02336 20.0249 8.81446 20.3955C9.60572 20.7661 10.4987 20.75 11.8105 20.75H12.1895C13.5013 20.75 14.3943 20.7661 15.1855 20.3955C15.9766 20.0249 16.5353 19.3289 17.375 18.3213L17.8525 17.748C18.3811 17.7474 18.8221 17.745 19.1924 17.7197C19.6489 17.6886 20.0533 17.6232 20.4355 17.4648C21.3542 17.0842 22.0843 16.3542 22.4648 15.4355C22.6232 15.0533 22.6886 14.6489 22.7197 14.1924C22.75 13.7484 22.75 13.203 22.75 12.5268Z" fill="currentColor"/><path d="M5 11V8C5 7.44772 5.44772 7 6 7C6.55228 7 7 7.44772 7 8V11C7 11.5523 6.55228 12 6 12C5.44772 12 5 11.5523 5 11ZM9 11V8C9 7.44772 9.44772 7 10 7C10.5523 7 11 7.44772 11 8V11C11 11.5523 10.5523 12 10 12C9.44772 12 9 11.5523 9 11ZM13 11V8C13 7.44772 13.4477 7 14 7C14.5523 7 15 7.44772 15 8V11C15 11.5523 14.5523 12 14 12C13.4477 12 13 11.5523 13 11ZM17 11V8C17 7.44772 17.4477 7 18 7C18.5523 7 19 7.44772 19 8V11C19 11.5523 18.5523 12 18 12C17.4477 12 17 11.5523 17 11Z" fill="currentColor"/></svg>
