<svg xmlns="http://www.w3.org/2000/svg" viewBox="0 0 24 24" fill="none"><path d="M16.064 3.25C17.427 3.24997 18.5262 3.24995 19.3911 3.36621C20.2912 3.48723 21.049 3.74672 21.6509 4.34863C22.2528 4.95055 22.5123 5.70829 22.6333 6.6084C22.7496 7.4733 22.7495 8.5725 22.7495 9.93555V12.5264C22.7495 13.2026 22.7495 13.7484 22.7192 14.1924C22.6881 14.6489 22.6227 15.0533 22.4644 15.4355C22.0838 16.3542 21.3537 17.0842 20.4351 17.4648C20.0528 17.6232 19.6485 17.6886 19.1919 17.7197C18.8216 17.745 18.3806 17.7474 17.8521 17.748L17.3745 18.3213C16.5348 19.3289 15.9762 20.0249 15.1851 20.3955C14.3938 20.7661 13.5009 20.75 12.189 20.75H11.8101C10.4982 20.75 9.60523 20.7661 8.81396 20.3955C8.02287 20.0249 7.46421 19.3289 6.62451 18.3213L6.146 17.748C5.61788 17.7474 5.17723 17.745 4.80713 17.7197C4.35057 17.6886 3.94624 17.6232 3.56396 17.4648C2.64536 17.0842 1.91526 16.3542 1.53467 15.4355C1.37633 15.0533 1.31094 14.6489 1.27979 14.1924C1.2495 13.7484 1.24951 13.2026 1.24951 12.5264V9.93555C1.24948 8.57249 1.24946 7.47331 1.36572 6.6084C1.48674 5.70829 1.74623 4.95055 2.34814 4.34863C2.95006 3.74672 3.7078 3.48723 4.60791 3.36621C5.47282 3.24995 6.572 3.24997 7.93506 3.25H16.064ZM5.99951 7C5.44723 7 4.99951 7.44772 4.99951 8V11C4.99951 11.5523 5.44723 12 5.99951 12C6.5518 12 6.99951 11.5523 6.99951 11V8C6.99951 7.44772 6.5518 7 5.99951 7ZM9.99951 7C9.44723 7 8.99951 7.44772 8.99951 8V11C8.99951 11.5523 9.44723 12 9.99951 12C10.5518 12 10.9995 11.5523 10.9995 11V8C10.9995 7.44772 10.5518 7 9.99951 7ZM13.9995 7C13.4472 7 12.9995 7.44772 12.9995 8V11C12.9995 11.5523 13.4472 12 13.9995 12C14.5518 12 14.9995 11.5523 14.9995 11V8C14.9995 7.44772 14.5518 7 13.9995 7ZM17.9995 7C17.4472 7 16.9995 7.44772 16.9995 8V11C16.9995 11.5523 17.4472 12 17.9995 12C18.5518 12 18.9995 11.5523 18.9995 11V8C18.9995 7.44772 18.5518 7 17.9995 7Z" fill="currentColor"/></svg>
