<svg xmlns="http://www.w3.org/2000/svg" viewBox="0 0 24 24" fill="none"><path opacity="0.4" d="M7.94894 2.78324C7.29847 2.34852 6.6188 2.14225 5.80343 2.3057C5.04027 2.45877 4.50738 2.81695 4.09249 3.38676C3.72272 3.89473 3.44759 4.57848 3.14132 5.32426C1.37304 9.6301 2.23598 14.7654 5.73507 18.2647C9.23433 21.7639 14.3696 22.6267 18.6755 20.8584C19.4214 20.5521 20.105 20.2771 20.613 19.9073C21.1828 19.4924 21.541 18.9595 21.6941 18.1963C21.8574 17.381 21.6513 16.7013 21.2165 16.0508C20.9431 15.6419 20.5605 15.2206 20.112 14.7598C18.6938 16.5785 16.4847 17.75 13.9997 17.75C9.71952 17.75 6.24972 14.2802 6.24972 10C6.24978 7.5155 7.41981 5.30498 9.238 3.88676C8.7778 3.43899 8.35743 3.05629 7.94894 2.78324Z" fill="currentColor"/><path d="M13.9997 16.2509C14.0835 16.2509 14.1668 16.2463 14.2497 16.243V10.8114L10.1433 14.9178C11.2056 15.7522 12.5441 16.2509 13.9997 16.2509Z" fill="currentColor"/><path d="M15.7497 15.9999C17.0886 15.6095 18.242 14.7848 19.0456 13.6864L15.7497 10.3905V15.9999Z" fill="currentColor"/><path d="M9.08176 13.8563L13.1892 9.75085H7.75754C7.75427 9.83382 7.74973 9.91709 7.74973 10.0009C7.74973 11.4559 8.24793 12.7942 9.08176 13.8563Z" fill="currentColor"/><path d="M8.0007 8.25085H13.6101L10.3132 4.95398C9.21488 5.75761 8.39086 6.91169 8.0007 8.25085Z" fill="currentColor"/></svg>
