<svg xmlns="http://www.w3.org/2000/svg" viewBox="0 0 24 24" fill="none"><path d="M5.80343 2.3057C6.6188 2.14225 7.29847 2.34852 7.94894 2.78324C8.35743 3.05629 8.7778 3.43899 9.238 3.88676C7.41981 5.30498 6.24978 7.5155 6.24972 10C6.24972 14.2802 9.71952 17.75 13.9997 17.75C16.4847 17.75 18.6938 16.5785 20.112 14.7598C20.5605 15.2206 20.9431 15.6419 21.2165 16.0508C21.6513 16.7013 21.8574 17.381 21.6941 18.1963C21.541 18.9595 21.1828 19.4924 20.613 19.9073C20.105 20.2771 19.4214 20.5521 18.6755 20.8584C14.3696 22.6267 9.23433 21.7639 5.73507 18.2647C2.23598 14.7654 1.37304 9.6301 3.14132 5.32426C3.44759 4.57848 3.72272 3.89473 4.09249 3.38676C4.50738 2.81695 5.04027 2.45877 5.80343 2.3057Z" fill="currentColor"/><path d="M14.2497 16.2422C14.1668 16.2455 14.0835 16.25 13.9997 16.25C12.5441 16.25 11.2056 15.7514 10.1433 14.917L14.2497 10.8106V16.2422Z" fill="currentColor"/><path d="M19.0456 13.6856C18.242 14.784 17.0886 15.6086 15.7497 15.9991V10.3897L19.0456 13.6856Z" fill="currentColor"/><path d="M13.1892 9.75004L9.08175 13.8555C8.24792 12.7934 7.74972 11.4551 7.74972 10C7.74972 9.91627 7.75426 9.83301 7.75753 9.75004H13.1892Z" fill="currentColor"/><path d="M13.6101 8.25004H8.0007C8.39086 6.91087 9.21487 5.7568 10.3132 4.95317L13.6101 8.25004Z" fill="currentColor"/></svg>
