<svg xmlns="http://www.w3.org/2000/svg" viewBox="0 0 24 24" fill="none"><path opacity="0.4" d="M20.7239 14.5049C21.911 14.0218 22.7502 12.8625 22.7502 11.5C22.7502 9.70507 21.2952 8.25 19.5002 8.25C18.4828 8.25 17.5783 8.71871 16.9836 9.44824C15.562 8.68923 13.8423 8.25 12.0002 8.25C10.1577 8.25 8.43692 8.68878 7.01489 9.44824C6.42055 8.71926 5.5176 8.25 4.50024 8.25C2.70532 8.25 1.25024 9.70507 1.25024 11.5C1.25024 12.8618 2.08842 14.0213 3.27466 14.5049C3.25914 14.6681 3.25024 14.8332 3.25024 15C3.25024 16.9459 4.30401 18.6504 5.8938 19.8428C7.48332 21.0348 9.64468 21.75 12.0002 21.75C14.3558 21.75 16.5172 21.0348 18.1067 19.8428C19.6965 18.6504 20.7502 16.9459 20.7502 15C20.7502 14.8329 20.7396 14.6679 20.7239 14.5049Z" fill="currentColor"/><path d="M14.5522 16.3986C14.8843 16.1511 15.3545 16.2198 15.602 16.5519C15.8494 16.884 15.7807 17.3542 15.4487 17.6017C14.4809 18.323 13.2889 18.7502 12.0004 18.7502C10.7119 18.7502 9.51994 18.323 8.55217 17.6017C8.22008 17.3542 8.15138 16.884 8.39885 16.5519C8.64636 16.2198 9.11654 16.1511 9.44865 16.3986C10.1696 16.936 11.0498 17.2502 12.0004 17.2502C12.951 17.2502 13.8312 16.936 14.5522 16.3986Z" fill="currentColor"/><path d="M15.0002 11.75C15.6906 11.75 16.2502 12.3096 16.2502 13C16.2502 13.6904 15.6906 14.25 15.0002 14.25C14.3099 14.25 13.7502 13.6904 13.7502 13C13.7502 12.3096 14.3099 11.75 15.0002 11.75Z" fill="currentColor"/><path d="M9.50024 11.75C10.1906 11.75 10.7502 12.3096 10.7502 13C10.7502 13.6904 10.1906 14.25 9.50024 14.25C8.80989 14.25 8.25024 13.6904 8.25024 13C8.25024 12.3096 8.80989 11.75 9.50024 11.75Z" fill="currentColor"/><path d="M12.7981 8.2793C12.937 7.28718 13.3589 6.61141 13.8342 6.15234C14.1921 5.80681 14.5932 5.57568 14.9524 5.42969C15.3063 6.20811 16.0894 6.75 17.0002 6.75C18.2429 6.75 19.2502 5.74264 19.2502 4.5C19.2502 3.25736 18.2429 2.25 17.0002 2.25C15.9722 2.25 15.1069 2.94002 14.8381 3.88184C14.1971 4.06967 13.4439 4.44296 12.7913 5.07324C12.0383 5.80061 11.4418 6.84787 11.2893 8.27344C11.524 8.25891 11.7611 8.25 12.0002 8.25C12.269 8.25 12.5351 8.26097 12.7981 8.2793Z" fill="currentColor"/></svg>
