<svg xmlns="http://www.w3.org/2000/svg" viewBox="0 0 24 24" fill="none"><path d="M12.0002 21.75C14.3558 21.75 16.5172 21.0348 18.1067 19.8428C19.6965 18.6504 20.7502 16.9459 20.7502 15C20.7502 14.8329 20.7396 14.6679 20.7239 14.5049C21.911 14.0218 22.7502 12.8625 22.7502 11.5C22.7502 9.70507 21.2952 8.25 19.5002 8.25C18.4828 8.25 17.5783 8.71871 16.9836 9.44824C15.7695 8.79998 14.3377 8.3866 12.7981 8.2793C12.937 7.28712 13.3589 6.61141 13.8342 6.15234C14.1921 5.8068 14.5932 5.57568 14.9524 5.42969C15.3063 6.20811 16.0894 6.75 17.0002 6.75C18.2429 6.75 19.2502 5.74264 19.2502 4.5C19.2502 3.25736 18.2429 2.25 17.0002 2.25C15.9722 2.25 15.1069 2.94002 14.8381 3.88184C14.1971 4.06967 13.4439 4.44296 12.7913 5.07324C12.0383 5.80061 11.4418 6.84782 11.2893 8.27344C9.71606 8.37084 8.25232 8.78737 7.01489 9.44824C6.42055 8.71926 5.5176 8.25 4.50024 8.25C2.70532 8.25 1.25024 9.70507 1.25024 11.5C1.25024 12.8618 2.08842 14.0213 3.27466 14.5049C3.25914 14.6681 3.25024 14.8332 3.25024 15C3.25024 16.9459 4.30401 18.6504 5.8938 19.8428C7.48332 21.0348 9.64468 21.75 12.0002 21.75ZM9.50024 14.25C8.80989 14.25 8.25024 13.6904 8.25024 13C8.25024 12.3096 8.80989 11.75 9.50024 11.75C10.1906 11.75 10.7502 12.3096 10.7502 13C10.7502 13.6904 10.1906 14.25 9.50024 14.25ZM15.0002 14.25C14.3099 14.25 13.7502 13.6904 13.7502 13C13.7502 12.3096 14.3099 11.75 15.0002 11.75C15.6906 11.75 16.2502 12.3096 16.2502 13C16.2502 13.6904 15.6906 14.25 15.0002 14.25ZM12.0002 18.75C10.7118 18.75 9.51974 18.3228 8.552 17.6016C8.22007 17.354 8.15126 16.8838 8.39868 16.5518C8.64616 16.2198 9.11639 16.1511 9.44849 16.3984C10.1694 16.9358 11.0497 17.25 12.0002 17.25C12.9509 17.25 13.831 16.9358 14.552 16.3984C14.8841 16.151 15.3543 16.2198 15.6018 16.5518C15.8493 16.8839 15.7806 17.354 15.4485 17.6016C14.4807 18.3228 13.2887 18.75 12.0002 18.75Z" fill="currentColor"/></svg>
