<svg xmlns="http://www.w3.org/2000/svg" viewBox="0 0 24 24" fill="none"><path opacity="0.4" d="M1.25009 5.94944V9.41916C1.25009 10.5685 1.23661 11.3525 1.53232 12.0666C1.82815 12.7808 2.39237 13.3261 3.20517 14.1389L8.63486 19.5686L8.66834 19.6021C9.62505 20.5588 10.3967 21.3305 11.0851 21.8557C11.7987 22.4002 12.5104 22.7501 13.3536 22.7502C14.197 22.7502 14.9094 22.4002 15.6231 21.8557C16.3116 21.3304 17.0835 20.5584 18.0404 19.6015L18.0733 19.5686L19.5685 18.0735L19.6014 18.0405C20.5583 17.0836 21.3302 16.3117 21.8556 15.6233C22.4001 14.9095 22.7501 14.1971 22.7501 13.3537C22.75 12.5106 22.4 11.7988 21.8556 11.0852C21.3303 10.3968 20.5587 9.62519 19.602 8.66849L19.5685 8.63498L14.1388 3.20529C13.326 2.39249 12.7807 1.82827 12.0665 1.53244C11.3524 1.23673 10.5684 1.25022 9.41904 1.25022H5.94931L5.90128 1.25022C5.01299 1.25019 4.27143 1.25017 3.68271 1.32932C3.06184 1.41279 2.49969 1.59632 2.04795 2.04807C1.5962 2.49982 1.41267 3.06196 1.3292 3.68283C1.25005 4.27155 1.25007 5.01311 1.25009 5.90141L1.25009 5.94944Z" fill="currentColor"/><path d="M12.25 9.50012C12.25 9.08591 12.5858 8.75012 13 8.75012C13.4142 8.75012 13.75 9.08591 13.75 9.50012L13.75 16.5001C13.75 16.9143 13.4142 17.2501 13 17.2501C12.5858 17.2501 12.25 16.9143 12.25 16.5001L12.25 9.50012Z" fill="currentColor"/><path d="M16.75 11.5001C17.3023 11.5001 17.75 11.9478 17.75 12.5001C17.75 13.0524 17.3023 13.5001 16.75 13.5001C16.1977 13.5001 15.75 13.0524 15.75 12.5001C15.75 11.9478 16.1977 11.5001 16.75 11.5001Z" fill="currentColor"/><path d="M9.25 11.5001C9.80228 11.5001 10.25 11.9478 10.25 12.5001C10.25 13.0524 9.80228 13.5001 9.25 13.5001C8.69772 13.5001 8.25 13.0524 8.25 12.5001C8.25 11.9478 8.69771 11.5001 9.25 11.5001Z" fill="currentColor"/><path d="M6.5 5.25012C7.19035 5.25012 7.75 5.80977 7.75 6.50012C7.75 7.19048 7.19035 7.75012 6.5 7.75012C5.80964 7.75012 5.25 7.19048 5.25 6.50012C5.25 5.80977 5.80964 5.25012 6.5 5.25012Z" fill="currentColor"/></svg>
