<svg xmlns="http://www.w3.org/2000/svg" viewBox="0 0 24 24" fill="none"><path d="M13.3536 22.7501C14.1969 22.7501 14.9094 22.4001 15.6231 21.8556C16.3115 21.3303 17.0834 20.5585 18.0401 19.6017L19.6017 18.0402C20.5585 17.0834 21.3303 16.3116 21.8556 15.6232C22.4001 14.9095 22.7501 14.197 22.7501 13.3536C22.75 12.5105 22.4 11.7987 21.8556 11.0851C21.3303 10.3968 20.5583 9.62474 19.6017 8.66809L14.1388 3.2052C13.326 2.39245 12.7807 1.82816 12.0665 1.53235C11.3524 1.23668 10.5683 1.25012 9.41904 1.25012H5.90146C5.01317 1.2501 4.27143 1.25007 3.68271 1.32922C3.06187 1.4127 2.49967 1.59624 2.04794 2.04797C1.59622 2.4997 1.41267 3.0619 1.32919 3.68274C1.25005 4.27146 1.25007 5.0132 1.25009 5.90149L1.25009 9.41907C1.25009 10.5683 1.23665 11.3524 1.53232 12.0665C1.82813 12.7807 2.39242 13.326 3.20517 14.1388L8.66806 19.6017C9.62473 20.5584 10.3967 21.3304 11.0851 21.8556C11.7986 22.4 12.5105 22.75 13.3536 22.7501ZM6.50009 7.75012C5.80974 7.75012 5.25009 7.19048 5.25009 6.50012C5.25009 5.80977 5.80973 5.25012 6.50009 5.25012C7.19045 5.25012 7.75009 5.80977 7.75009 6.50012C7.75009 7.19048 7.19044 7.75012 6.50009 7.75012ZM13.0001 17.2501C12.5859 17.2501 12.2501 16.9143 12.2501 16.5001L12.2501 9.50012C12.2501 9.08591 12.5859 8.75012 13.0001 8.75012C13.4143 8.75012 13.7501 9.08591 13.7501 9.50012L13.7501 16.5001C13.7501 16.9143 13.4143 17.2501 13.0001 17.2501ZM9.25009 13.5001C8.69781 13.5001 8.25009 13.0524 8.25009 12.5001C8.25009 11.9478 8.69781 11.5001 9.25009 11.5001C9.80238 11.5001 10.2501 11.9478 10.2501 12.5001C10.2501 13.0524 9.80237 13.5001 9.25009 13.5001ZM16.7501 13.5001C16.1978 13.5001 15.7501 13.0524 15.7501 12.5001C15.7501 11.9478 16.1978 11.5001 16.7501 11.5001C17.3024 11.5001 17.7501 11.9478 17.7501 12.5001C17.7501 13.0524 17.3024 13.5001 16.7501 13.5001Z" fill="currentColor" fill-rule="evenodd" clip-rule="evenodd"/></svg>
