<svg xmlns="http://www.w3.org/2000/svg" viewBox="0 0 24 24" fill="none"><path d="M11.5873 1.2501C12.1571 1.24934 12.6618 1.24848 13.1371 1.4171C13.2349 1.4518 13.3307 1.49224 13.4242 1.53721C13.8791 1.75587 14.2357 2.11499 14.6381 2.52061L19.4213 7.32823C19.8885 7.79643 20.3027 8.21242 20.5268 8.75596C20.7508 9.29967 20.7505 9.88856 20.7494 10.5519V14.0265C20.7495 15.8082 20.7491 17.2445 20.5981 18.3741C20.4412 19.5468 20.1056 20.5342 19.3256 21.3185C18.5454 22.1028 17.5627 22.441 16.3959 22.5987C15.2722 22.7506 13.8433 22.7501 12.0707 22.7501C10.2981 22.7501 8.72676 22.7506 7.60295 22.5987C6.43617 22.441 5.45351 22.1028 4.67326 21.3185C3.8932 20.5342 3.55766 19.5469 3.4008 18.3741C3.24974 17.2445 3.24941 15.8083 3.24944 14.0265V9.45225C3.24942 7.91884 3.24943 6.68207 3.36369 5.69835C3.48195 4.68057 3.73403 3.80819 4.32658 3.06944C4.54394 2.7985 4.78948 2.5516 5.05901 2.33311C5.79402 1.73743 6.66255 1.48419 7.67522 1.36534C8.65396 1.25052 10.0618 1.25008 11.5873 1.2501ZM9.99944 12.0001C8.89487 12.0001 7.99944 12.8955 7.99944 14.0001V15.0001C7.44715 15.0001 6.99944 15.4478 6.99944 16.0001C6.99944 16.5524 7.44715 17.0001 7.99944 17.0001V18.0001C7.99944 19.1047 8.89487 20.0001 9.99944 20.0001C10.5517 20.0001 10.9994 19.5524 10.9994 19.0001C10.9994 18.4478 10.5517 18.0001 9.99944 18.0001V17.0001C9.99944 16.6353 9.89956 16.2946 9.72893 16.0001C9.89956 15.7056 9.99944 15.3649 9.99944 15.0001V14.0001C10.5517 14.0001 10.9994 13.5524 10.9994 13.0001C10.9994 12.4478 10.5517 12.0001 9.99944 12.0001ZM13.9994 12.0001C13.4472 12.0001 12.9994 12.4478 12.9994 13.0001C12.9994 13.5524 13.4472 14.0001 13.9994 14.0001V15.0001C13.9994 15.3647 14.0985 15.7057 14.269 16.0001C14.0985 16.2945 13.9994 16.6355 13.9994 17.0001V18.0001C13.4472 18.0001 12.9994 18.4478 12.9994 19.0001C12.9994 19.5524 13.4472 20.0001 13.9994 20.0001C15.104 20.0001 15.9994 19.1047 15.9994 18.0001V17.0001C16.5517 17.0001 16.9994 16.5524 16.9994 16.0001C16.9994 15.4478 16.5517 15.0001 15.9994 15.0001V14.0001C15.9994 12.8955 15.104 12.0001 13.9994 12.0001ZM12.4897 3.27061C12.4897 4.63196 12.4896 5.27975 12.6059 6.14463C12.7269 7.04449 12.9858 7.80257 13.5873 8.4044C14.1892 9.00631 14.948 9.26581 15.8481 9.38682C16.7148 9.50333 17.3635 9.50403 18.7309 9.50401C18.6741 9.36621 18.5686 9.23553 17.9506 8.61436L13.3461 3.98546C12.8132 3.44978 12.6713 3.31651 12.4897 3.26182V3.27061Z" fill="currentColor" fill-rule="evenodd" clip-rule="evenodd"/></svg>
