<svg xmlns="http://www.w3.org/2000/svg" viewBox="0 0 24 24" fill="none"><path opacity="0.4" d="M12 22.75C17.9371 22.75 22.75 17.9371 22.75 12C22.75 6.06294 17.9371 1.25 12 1.25C6.06294 1.25 1.25 6.06294 1.25 12C1.25 17.9371 6.06294 22.75 12 22.75Z" fill="currentColor"/><path d="M12 14.75C13.5188 14.75 14.75 13.5188 14.75 12C14.75 10.4812 13.5188 9.25 12 9.25C10.4812 9.25 9.25 10.4812 9.25 12C9.25 13.5188 10.4812 14.75 12 14.75Z" fill="currentColor"/><path d="M6.30175 14.1346C6.77968 13.8582 7.39131 14.0211 7.66796 14.4989C8.10727 15.2583 8.74154 15.8926 9.50097 16.3319C9.97881 16.6085 10.1417 17.2201 9.86523 17.6981C9.5886 18.1759 8.97697 18.3389 8.49901 18.0624C7.43697 17.4479 6.55193 16.5629 5.93749 15.5008C5.66101 15.0229 5.82394 14.4113 6.30175 14.1346ZM14.1348 6.30163C14.4114 5.82382 15.023 5.66089 15.501 5.93737C16.563 6.55181 17.448 7.43685 18.0625 8.49889C18.339 8.97685 18.1761 9.58848 17.6982 9.8651C17.2203 10.1416 16.6086 9.97869 16.332 9.50085C15.8927 8.74141 15.2584 8.10714 14.499 7.66784C14.0212 7.39119 13.8583 6.77956 14.1348 6.30163Z" fill="currentColor"/></svg>
