<svg xmlns="http://www.w3.org/2000/svg" viewBox="0 0 24 24" fill="none"><path d="M11.9995 1.25C17.9366 1.25 22.7495 6.06294 22.7495 12C22.7495 17.9371 17.9366 22.75 11.9995 22.75C6.06245 22.75 1.24951 17.9371 1.24951 12C1.24951 6.06294 6.06245 1.25 11.9995 1.25ZM7.66748 14.499C7.39083 14.0213 6.7792 13.8583 6.30127 14.1348C5.8235 14.4114 5.66054 15.023 5.93701 15.501C6.55145 16.563 7.43652 17.4481 8.49854 18.0625C8.97645 18.3389 9.58811 18.176 9.86475 17.6982C10.1412 17.2203 9.97828 16.6087 9.50049 16.332C8.74109 15.8927 8.10678 15.2584 7.66748 14.499ZM11.9995 9.25C10.4807 9.25 9.24951 10.4812 9.24951 12C9.24951 13.5188 10.4807 14.75 11.9995 14.75C13.5183 14.75 14.7495 13.5188 14.7495 12C14.7495 10.4812 13.5183 9.25 11.9995 9.25ZM15.5005 5.9375C15.0225 5.66102 14.4109 5.82395 14.1343 6.30176C13.8579 6.77968 14.0208 7.39134 14.4985 7.66797C15.2579 8.10727 15.8922 8.74157 16.3315 9.50098C16.6082 9.97872 17.2198 10.1417 17.6978 9.86523C18.1755 9.58863 18.3384 8.97697 18.062 8.49902C17.4476 7.437 16.5625 6.55194 15.5005 5.9375Z" fill="currentColor"/></svg>
