<svg xmlns="http://www.w3.org/2000/svg" viewBox="0 0 24 24" fill="none"><path opacity="0.4" d="M12 22.75C17.9371 22.75 22.75 17.9371 22.75 12C22.75 6.06294 17.9371 1.25 12 1.25C6.06294 1.25 1.25 6.06294 1.25 12C1.25 17.9371 6.06294 22.75 12 22.75Z" fill="currentColor"/><path d="M15.321 7.32494C16.207 7.02963 16.6505 6.88143 16.8845 7.11497C17.1184 7.34886 16.9709 7.7924 16.6755 8.67845L15.7019 11.5984C15.1985 13.1086 14.9465 13.8635 14.405 14.405C13.8635 14.9465 13.1086 15.1985 11.5984 15.7019L8.67847 16.6755C7.79241 16.9709 7.34887 17.1184 7.11499 16.8845C6.88145 16.6505 7.02965 16.2069 7.32495 15.321L8.29761 12.4011C8.80098 10.891 9.05299 10.136 9.59448 9.59447C10.136 9.05297 10.891 8.80096 12.4011 8.29759L15.321 7.32494ZM11.9998 10.9997C11.4477 10.9999 10.9999 11.4477 10.9998 11.9997C10.9998 12.5519 11.4476 12.9996 11.9998 12.9997C12.552 12.9997 12.9998 12.552 12.9998 11.9997C12.9996 11.4476 12.552 10.9997 11.9998 10.9997Z" fill="currentColor" fill-rule="evenodd" clip-rule="evenodd"/></svg>
