<svg xmlns="http://www.w3.org/2000/svg" viewBox="0 0 24 24" fill="none"><path d="M12 1.25C17.9371 1.25 22.75 6.06294 22.75 12C22.75 17.9371 17.9371 22.75 12 22.75C6.06294 22.75 1.25 17.9371 1.25 12C1.25 6.06294 6.06294 1.25 12 1.25ZM16.8848 7.11523C16.6509 6.88134 16.2074 7.02883 15.3213 7.32422L12.4014 8.29785C10.8912 8.80125 10.1362 9.05322 9.59473 9.59473C9.05322 10.1362 8.80125 10.8912 8.29785 12.4014L7.32422 15.3213C7.02883 16.2074 6.88134 16.6509 7.11523 16.8848C7.34913 17.1187 7.79256 16.9712 8.67871 16.6758L11.5986 15.7021C13.1088 15.1988 13.8638 14.9468 14.4053 14.4053C14.9468 13.8638 15.1988 13.1088 15.7021 11.5986L16.6758 8.67871C16.9712 7.79256 17.1187 7.34913 16.8848 7.11523Z" fill="currentColor"/><path d="M12 11C12.5523 11 13 11.4477 13 12C13 12.5523 12.5523 13 12 13C11.4477 13 11 12.5523 11 12C11 11.4477 11.4477 11 12 11Z" fill="currentColor"/></svg>
