<svg xmlns="http://www.w3.org/2000/svg" viewBox="0 0 24 24" fill="none"><path d="M15.6543 6.24991C17.1166 6.24989 18.2881 6.24984 19.208 6.37003C20.1588 6.4943 20.954 6.75858 21.5859 7.37295C22.2208 7.99021 22.4968 8.77167 22.626 9.70596C22.7502 10.6045 22.75 11.7475 22.75 13.1659V14.8339C22.75 16.2523 22.7502 17.3953 22.626 18.2939C22.4968 19.2281 22.2208 20.0096 21.5859 20.6269C20.954 21.2412 20.1588 21.5055 19.208 21.6298C18.2881 21.75 17.1166 21.7499 15.6543 21.7499H12.3457C10.8834 21.7499 9.71189 21.75 8.79199 21.6298C7.84121 21.5055 7.04601 21.2412 6.41406 20.6269C5.77917 20.0096 5.50322 19.2281 5.37402 18.2939C5.2498 17.3953 5.24998 16.2523 5.25 14.8339V13.1659C5.24998 11.7475 5.2498 10.6045 5.37402 9.70596C5.42554 9.33346 5.50065 8.98507 5.6123 8.66202C5.95923 9.65472 7.0257 10.2163 8.0498 9.92374L11.5498 8.92374C12.5869 8.62745 13.2019 7.56192 12.9404 6.51553L12.874 6.24991H15.6543ZM16.7549 12.9999C16.5097 12.9999 16.2739 13.0882 16.1006 13.245L12.4238 16.5712L10.7188 15.0282C10.5474 14.8732 10.3146 14.7861 10.0723 14.786C9.81112 14.786 9.56221 14.8868 9.38867 15.0634L6.8125 17.6396C6.82571 17.7983 6.84182 17.9477 6.86133 18.0888C6.96641 18.8486 7.15876 19.2568 7.46094 19.5507C7.76625 19.8475 8.19529 20.039 8.9873 20.1425C9.79876 20.2485 10.8723 20.2499 12.4014 20.2499H15.6016C17.1305 20.2499 18.2042 20.2485 19.0156 20.1425C19.8074 20.0389 20.2357 19.8475 20.541 19.5507C20.8433 19.2567 21.0365 18.8488 21.1416 18.0888C21.1833 17.7874 21.2085 17.4482 21.2246 17.0605L17.4355 13.2714C17.2606 13.0987 17.0138 13 16.7549 12.9999ZM9.81836 2.27237C10.2201 2.17209 10.6271 2.41654 10.7275 2.81827L11.7275 6.81827C11.8257 7.21069 11.595 7.61047 11.2061 7.72159L7.70605 8.72159C7.30779 8.83533 6.89307 8.60422 6.7793 8.20596C6.66553 7.80772 6.89573 7.39303 7.29395 7.2792L9.58301 6.62491C8.86677 6.07581 7.97151 5.74991 7 5.74991C4.65285 5.74991 2.7501 7.65278 2.75 9.99991C2.75 10.9576 3.06604 11.8394 3.59961 12.5497C3.84842 12.8809 3.78136 13.3517 3.4502 13.6005C3.11905 13.849 2.64911 13.7821 2.40039 13.4511C1.67824 12.4899 1.25 11.2937 1.25 9.99991C1.2501 6.82435 3.82442 4.24991 7 4.24991C7.97949 4.24991 8.90196 4.49486 9.70898 4.92667L9.27246 3.18253C9.17196 2.78069 9.41652 2.37287 9.81836 2.27237ZM11.4922 10.4921C10.9399 10.4921 10.4922 10.9377 10.4922 11.4872V11.497C10.4922 12.0465 10.9399 12.4921 11.4922 12.4921C12.0445 12.4921 12.4922 12.0465 12.4922 11.497V11.4872C12.4922 10.9377 12.0445 10.4921 11.4922 10.4921Z" fill="currentColor" fill-rule="evenodd" clip-rule="evenodd"/></svg>
