<svg xmlns="http://www.w3.org/2000/svg" viewBox="0 0 24 24" fill="none"><path opacity="0.4" d="M20.7296 21.2726C20.7525 21.1243 20.7501 20.9149 20.7501 20.6984V3.66717C20.7501 3.39377 20.7499 3.16428 20.7423 2.98455C20.7351 2.81755 20.7197 2.61245 20.6534 2.42205C20.3301 1.49343 19.3134 1.03145 18.4141 1.35076L18.2364 1.42498C18.0556 1.51224 17.8996 1.64587 17.7755 1.75896C17.6421 1.88048 17.4783 2.04216 17.2833 2.23553C17.1956 2.32241 17.1439 2.37324 17.1036 2.41033C17.0814 2.43074 17.0701 2.44094 17.0655 2.44451C16.9898 2.49361 16.892 2.49904 16.8106 2.45818C16.8059 2.45527 16.7932 2.44697 16.7686 2.42889C16.7245 2.39642 16.6671 2.35127 16.5704 2.27459L16.3985 2.13787C15.9763 1.80303 15.6178 1.50512 15.2022 1.36932C14.746 1.22031 14.2541 1.22031 13.7979 1.36932C13.3823 1.50512 13.0238 1.80303 12.6016 2.13787L12.5343 2.19158C12.3472 2.33991 12.2375 2.42596 12.1514 2.48455C12.1015 2.51853 12.0769 2.53162 12.0684 2.53533C12.0239 2.54752 11.9763 2.54752 11.9317 2.53533C11.9233 2.53162 11.8986 2.51853 11.8487 2.48455C11.7626 2.42596 11.6529 2.33991 11.4659 2.19158L11.3985 2.13787C10.9763 1.80303 10.6178 1.50512 10.2022 1.36932C9.74604 1.22031 9.2541 1.22031 8.79792 1.36932C8.38231 1.50512 8.02381 1.80303 7.60164 2.13787L7.42976 2.27459C7.33308 2.35127 7.27568 2.39642 7.23152 2.42889C7.2069 2.44697 7.19426 2.45527 7.18953 2.45818C7.10816 2.49904 7.01032 2.49361 6.93464 2.44451C6.93009 2.44094 6.91871 2.43074 6.89656 2.41033C6.85629 2.37324 6.80451 2.32241 6.71687 2.23553C6.52183 2.04216 6.35809 1.88048 6.22468 1.75896C6.1005 1.64587 5.94452 1.51224 5.76375 1.42498C4.8839 1.00039 3.83213 1.37756 3.42 2.24236L3.34675 2.42205C3.28048 2.61245 3.26503 2.81755 3.25789 2.98455C3.2502 3.16428 3.25007 3.39377 3.25007 3.66717V20.6984C3.25007 20.9149 3.24767 21.1243 3.27058 21.2726C3.47176 22.5716 4.98088 23.1789 6.03328 22.4133C6.15435 22.3251 6.30134 22.1761 6.45613 22.0226C6.58304 21.8968 6.61051 21.8704 6.63093 21.8537L6.73054 21.7844C6.97413 21.6432 7.28329 21.6474 7.52546 21.8049C7.5477 21.8193 7.57834 21.8427 7.71785 21.9533L7.85457 22.0617C8.06146 22.2258 8.23692 22.3686 8.4239 22.4699C9.09475 22.8331 9.90539 22.8331 10.5762 22.4699C10.7632 22.3686 10.9387 22.2258 11.1456 22.0617L11.2159 22.006C11.543 21.7466 11.614 21.6958 11.6719 21.6681C11.879 21.5692 12.1212 21.5692 12.3282 21.6681C12.3861 21.6958 12.4572 21.7466 12.7843 22.006L12.8546 22.0617C13.0615 22.2258 13.2369 22.3686 13.4239 22.4699C14.0948 22.8331 14.9054 22.8331 15.5762 22.4699C15.7632 22.3686 15.9387 22.2258 16.1456 22.0617L16.2823 21.9533C16.4218 21.8427 16.4524 21.8193 16.4747 21.8049C16.7513 21.625 17.1151 21.6454 17.3692 21.8537C17.3896 21.8704 17.4171 21.8968 17.544 22.0226C17.6988 22.1761 17.8458 22.3251 17.9669 22.4133C19.0193 23.1789 20.5284 22.5716 20.7296 21.2726Z" fill="currentColor"/><path d="M11.2501 17V16.6904C8.98319 16.3308 7.25012 14.3681 7.25012 12C7.25012 9.63183 8.98311 7.66816 11.2501 7.30859V7C11.2501 6.58579 11.5859 6.25 12.0001 6.25C12.4143 6.25 12.7501 6.58579 12.7501 7V7.30957C13.8641 7.48644 14.8497 8.04979 15.5626 8.85742C15.8367 9.16794 15.8067 9.6419 15.4962 9.91602C15.1857 10.1901 14.7117 10.1611 14.4376 9.85059C13.9998 9.3545 13.4143 8.99469 12.7501 8.83789V15.1611C13.4142 15.0043 13.9998 14.6454 14.4376 14.1494C14.7117 13.8389 15.1857 13.8099 15.4962 14.084C15.8067 14.3581 15.8367 14.8321 15.5626 15.1426C14.8498 15.9502 13.864 16.5126 12.7501 16.6895V17C12.7501 17.4142 12.4143 17.75 12.0001 17.75C11.5859 17.75 11.2501 17.4142 11.2501 17ZM8.75012 12C8.75012 13.5366 9.81699 14.8224 11.2501 15.1611V8.83789C9.81688 9.17655 8.75012 10.4633 8.75012 12Z" fill="currentColor"/></svg>
