<svg xmlns="http://www.w3.org/2000/svg" viewBox="0 0 24 24" fill="none"><path d="M1.54302 1.5424C1.93354 1.15188 2.56655 1.15188 2.95708 1.5424L22.4571 21.0424C22.8476 21.4329 22.8476 22.0659 22.4571 22.4565C22.0666 22.847 21.4335 22.847 21.043 22.4565L1.54302 2.95647C1.15249 2.56594 1.15249 1.93293 1.54302 1.5424Z" fill="currentColor"/><path d="M8.96409 8.96338C8.61057 9.78768 8.32371 10.691 8.15549 11.645C9.31997 12.1844 10.6226 12.4877 12.0002 12.4878C12.1598 12.4878 12.3183 12.4831 12.4758 12.4751L14.218 14.2173C13.812 14.2992 13.3985 14.3623 12.9778 14.3989V20.3062C12.9778 21.6554 11.8835 22.7493 10.5344 22.7495C9.1851 22.7495 8.09104 21.6555 8.09104 20.3062V19.8179C8.09104 19.2781 8.52886 18.8403 9.06858 18.8403C9.60812 18.8405 10.0461 19.2783 10.0461 19.8179V20.3062C10.0461 20.576 10.2645 20.7954 10.5344 20.7954C10.8041 20.7952 11.0227 20.5759 11.0227 20.3062V14.3989C9.56165 14.2719 8.18093 13.8642 6.93967 13.228C6.34108 13.34 5.54106 13.4192 4.7092 13.3667C3.70284 13.3031 2.49977 13.0386 1.58811 12.2505C1.32016 12.0187 1.19887 11.6589 1.27073 11.312C1.78686 8.82092 3.17733 6.64804 5.11057 5.10986L8.96409 8.96338Z" fill="currentColor"/><path opacity="0.4" d="M12.0002 1.24951C12.5398 1.24967 12.9778 1.68742 12.9778 2.22705V2.75732C17.8222 3.1786 21.7743 6.70052 22.7297 11.312C22.8015 11.6588 22.6801 12.0187 22.4124 12.2505C21.501 13.0386 20.2985 13.303 19.2922 13.3667C18.4598 13.4193 17.6587 13.3401 17.0598 13.228C16.9941 13.2617 16.9261 13.2914 16.8596 13.3237L15.3801 11.8442C15.5372 11.7819 15.6925 11.7156 15.845 11.645C15.5035 9.70842 14.6712 7.98096 13.7922 6.69775C13.3042 5.98538 12.8163 5.43174 12.4192 5.06787C12.2498 4.91274 12.107 4.80452 12.0002 4.73389C11.8935 4.80453 11.7507 4.91273 11.5813 5.06787C11.187 5.42922 10.7036 5.97785 10.219 6.68311L7.29321 3.75732C8.44106 3.21994 9.69852 2.87244 11.0227 2.75732V2.22705C11.0227 1.68732 11.4605 1.24951 12.0002 1.24951Z" fill="currentColor"/></svg>
