<svg xmlns="http://www.w3.org/2000/svg" viewBox="0 0 24 24" fill="none"><path d="M10.9996 16.0001V8.50006C10.9996 7.94778 11.4473 7.50006 11.9996 7.50006C12.5519 7.50006 12.9996 7.94778 12.9996 8.50006V16.0001C12.9996 16.5523 12.5519 17.0001 11.9996 17.0001C11.4473 17.0001 10.9996 16.5523 10.9996 16.0001Z" fill="currentColor"/><path d="M11.9996 7.00006C12.4098 7.00006 12.7648 7.17924 12.9908 7.31549C13.2441 7.46825 13.4957 7.66814 13.731 7.87604C14.2041 8.29404 14.705 8.83229 15.15 9.34479C15.5992 9.86218 16.012 10.3765 16.3111 10.7598C16.4611 10.952 16.5832 11.1127 16.6685 11.2256C16.7112 11.2821 16.7451 11.3266 16.7681 11.3575C16.7797 11.3729 16.7883 11.3853 16.7945 11.3936C16.7976 11.3977 16.8006 11.4011 16.8023 11.4034C16.803 11.4043 16.8039 11.4048 16.8043 11.4053V11.4073H16.8052C17.1324 11.852 17.0369 12.4783 16.5924 12.8057C16.1477 13.1329 15.5213 13.0374 15.1939 12.5928L15.1929 12.5909C15.1918 12.5893 15.1894 12.5872 15.1871 12.584C15.1821 12.5773 15.1748 12.5665 15.1646 12.5528C15.144 12.5251 15.1128 12.4836 15.0728 12.4307C14.993 12.325 14.8774 12.1729 14.7349 11.9903C14.4488 11.6237 14.0591 11.1379 13.6402 10.6553C13.2169 10.1678 12.7825 9.70608 12.4068 9.37408C12.2415 9.22802 12.1043 9.12477 11.9996 9.0567C11.8949 9.12477 11.7577 9.22803 11.5924 9.37408C11.2166 9.70608 10.7822 10.1678 10.359 10.6553C9.94001 11.1379 9.55034 11.6237 9.26423 11.9903C9.12175 12.1729 9.00621 12.325 8.92634 12.4307C8.88641 12.4836 8.85518 12.5251 8.83454 12.5528C8.82431 12.5665 8.81711 12.5773 8.81208 12.584C8.80971 12.5872 8.80738 12.5893 8.80622 12.5909L8.80525 12.5928L8.73982 12.6719C8.39956 13.0477 7.82375 13.1118 7.40681 12.8047C6.96231 12.4773 6.86677 11.8519 7.19392 11.4073H7.19489V11.4053C7.19538 11.4047 7.197 11.4045 7.19782 11.4034C7.1995 11.4011 7.20162 11.3977 7.20466 11.3936C7.21083 11.3853 7.21951 11.3729 7.23103 11.3575C7.25406 11.3266 7.28796 11.2822 7.33064 11.2256C7.41595 11.1127 7.53807 10.952 7.68806 10.7598C7.98721 10.3765 8.39998 9.86217 8.84919 9.34479C9.29417 8.83229 9.79505 8.29404 10.2681 7.87604C10.5034 7.66814 10.755 7.46826 11.0084 7.31549C11.2344 7.17925 11.5893 7.00007 11.9996 7.00006Z" fill="currentColor"/><path opacity="0.4" d="M15.8371 19.9165C16.3226 19.6807 16.9078 19.8834 17.1437 20.3689C17.3792 20.8543 17.1767 21.4387 16.6913 21.6745C15.2724 22.3638 13.6798 22.7501 11.9996 22.7501C10.6778 22.7501 9.4098 22.5105 8.23752 22.0725C7.73195 21.8835 7.47506 21.3211 7.66394 20.8156C7.85282 20.3101 8.41536 20.0533 8.92084 20.242C9.87766 20.5995 10.9149 20.7955 11.9996 20.7955C13.3775 20.7955 14.6786 20.4793 15.8371 19.9165ZM2.64874 15.014C3.14327 14.7979 3.71908 15.0234 3.93523 15.5179C4.45271 16.7023 5.22456 17.7517 6.18181 18.5967C6.58647 18.9538 6.62486 19.572 6.2677 19.9767C5.91051 20.3809 5.29316 20.4195 4.88864 20.0626C3.72051 19.0316 2.77803 17.7496 2.14483 16.3004C1.92876 15.8059 2.15428 15.2301 2.64874 15.014ZM20.7951 12.0001C20.7951 7.14247 16.8572 3.20461 11.9996 3.20461C11.0787 3.20461 10.1926 3.34609 9.36081 3.60735C8.84598 3.76905 8.29725 3.48266 8.1354 2.96792C7.97369 2.45305 8.26001 1.90432 8.77482 1.74251C9.79401 1.42241 10.8777 1.25006 11.9996 1.25006C17.9367 1.25006 22.7496 6.063 22.7496 12.0001C22.7496 14.7257 21.7342 17.2166 20.0621 19.1111C19.705 19.5157 19.0868 19.5541 18.6821 19.1969C18.2778 18.8398 18.2394 18.2225 18.5962 17.8179C19.9652 16.2668 20.7951 14.2314 20.7951 12.0001ZM1.24963 12.0001C1.24963 10.8261 1.43777 9.69401 1.78694 8.63401C1.95583 8.12159 2.50846 7.84315 3.02094 8.01176C3.53352 8.1806 3.81289 8.73317 3.64414 9.24576C3.35916 10.1109 3.20418 11.0365 3.20418 12.0001C3.20418 12.5398 2.76664 12.9773 2.22691 12.9773C1.68717 12.9773 1.24963 12.5398 1.24963 12.0001ZM5.01175 3.83067C5.42176 3.4797 6.03886 3.52757 6.38986 3.93756C6.74085 4.34756 6.69297 4.96466 6.28297 5.31567C5.96988 5.58371 5.67575 5.87329 5.40304 6.18223C5.04588 6.58689 4.42769 6.62529 4.02303 6.26813C3.61878 5.91094 3.58018 5.29359 3.93713 4.88907C4.27013 4.51179 4.62941 4.15801 5.01175 3.83067Z" fill="currentColor"/></svg>
