<svg xmlns="http://www.w3.org/2000/svg" viewBox="0 0 24 24" fill="none"><path d="M12.139 1.24976H12.1388H11.8615H11.8613C10.9565 1.24973 10.2175 1.24971 9.61438 1.31421C8.98068 1.38202 8.42907 1.52642 7.922 1.8562C7.41489 2.18607 7.05925 2.63151 6.74036 3.18335L9.00012 5.99976H15.0001L17.2599 3.18335C16.941 2.63151 16.5853 2.18607 16.0782 1.8562C15.5712 1.52642 15.0196 1.38202 14.3859 1.31421C13.7827 1.24971 13.0438 1.24973 12.139 1.24976Z" fill="currentColor"/><path opacity="0.4" d="M18.2345 5.22046C17.8658 4.38888 17.5645 3.71059 17.2599 3.18335L15.0001 5.99976L12.0001 9.49976L9.00012 5.99976L6.74035 3.18335C6.4357 3.71058 6.13444 4.38891 5.76574 5.22046L5.74719 5.26343L5.71203 5.34253C5.40725 6.02994 5.25012 6.77401 5.25012 7.52612C5.25014 8.68919 5.62688 9.82091 6.32336 10.7517L8.37219 13.49L4.97082 17.7527L4.95812 17.7683C4.86342 17.8869 4.79053 17.9785 4.72961 18.0681C4.07117 19.0369 4.09256 20.3165 4.78332 21.2625C4.84545 21.3475 4.91945 21.434 5.01408 21.5447L5.02746 21.5603L5.03527 21.5701L5.04895 21.5857L5.05593 21.5939C5.19717 21.7591 5.30407 21.8841 5.40539 21.9812C6.52516 23.0543 8.30607 22.9959 9.35363 21.8523C9.44847 21.7488 9.54749 21.6164 9.67774 21.4423L9.68371 21.4343L9.69641 21.4177L17.6769 10.7517C18.3734 9.82091 18.7501 8.68919 18.7501 7.52612C18.7501 6.77401 18.593 6.02994 18.2882 5.34253L18.253 5.26343L18.2345 5.22046Z" fill="currentColor"/><path opacity="0.4" d="M17.257 15.532C17.1124 15.3509 16.8919 15.2467 16.6603 15.2498C16.4573 15.2526 16.2653 15.3378 16.1271 15.4832L16.0714 15.5486L13.3204 19.2009C13.1198 19.4673 13.1189 19.8343 13.3185 20.1013L14.3038 21.4177L14.3155 21.4324L14.3315 21.4537C14.4575 21.6221 14.5539 21.7511 14.6466 21.8523C15.6942 22.9959 17.4751 23.0543 18.5948 21.9812C18.6962 21.8841 18.8031 21.7591 18.9443 21.5939L18.9513 21.5857L18.965 21.5701L18.9728 21.5613C19.0741 21.4428 19.1518 21.3516 19.2169 21.2625C19.9077 20.3165 19.9291 19.0369 19.2706 18.0681C19.2097 17.9785 19.1368 17.887 19.0421 17.7683L19.0294 17.7527L17.257 15.532Z" fill="currentColor"/></svg>
