<svg xmlns="http://www.w3.org/2000/svg" viewBox="0 0 24 24" fill="none"><path d="M12.1388 1.24976C13.0437 1.24973 13.7827 1.24971 14.3859 1.31421C15.0196 1.38202 15.5712 1.52642 16.0782 1.8562C16.5853 2.18607 16.941 2.63151 17.2599 3.18335C17.5645 3.7106 17.8658 4.38888 18.2345 5.22046L18.253 5.26343L18.2882 5.34253C18.593 6.02994 18.7501 6.77401 18.7501 7.52612C18.7501 8.68919 18.3734 9.82091 17.6769 10.7517L9.69641 21.4177L9.68371 21.4343C9.5505 21.6124 9.44991 21.7472 9.35363 21.8523C8.30607 22.9959 6.52516 23.0543 5.40539 21.9812C5.30241 21.8825 5.19366 21.7549 5.04895 21.5857L5.03527 21.5701L5.02746 21.5603C4.92638 21.4421 4.84835 21.3515 4.78332 21.2625C4.09256 20.3165 4.07117 19.0369 4.72961 18.0681C4.79053 17.9785 4.86342 17.8869 4.95812 17.7683L4.97082 17.7527L8.37219 13.49L6.32336 10.7517C5.62688 9.82091 5.25014 8.68919 5.25012 7.52612C5.25012 6.77401 5.40725 6.02994 5.71203 5.34253L5.74719 5.26343L5.76574 5.22046C6.13444 4.38891 6.4357 3.71058 6.74035 3.18335C7.05924 2.63151 7.41489 2.18607 7.92199 1.8562C8.42907 1.52642 8.98068 1.38202 9.61437 1.31421C10.2176 1.24971 10.9566 1.24973 11.8614 1.24976H12.1388ZM16.6603 15.2498C16.8919 15.2467 17.1124 15.3509 17.257 15.532L19.0294 17.7527L19.0421 17.7683C19.1368 17.887 19.2097 17.9785 19.2706 18.0681C19.9291 19.0369 19.9077 20.3165 19.2169 21.2625C19.1518 21.3516 19.0741 21.4428 18.9728 21.5613L18.965 21.5701L18.9513 21.5857C18.8066 21.7549 18.6978 21.8825 18.5948 21.9812C17.4751 23.0543 15.6942 22.9959 14.6466 21.8523C14.5501 21.7468 14.4494 21.6113 14.3155 21.4324L14.3038 21.4177L13.3185 20.1013C13.1189 19.8343 13.1198 19.4673 13.3204 19.2009L16.0714 15.5486L16.1271 15.4832C16.2653 15.3378 16.4573 15.2526 16.6603 15.2498ZM9.00012 5.99976L12.0001 9.49976L15.0001 5.99976H9.00012Z" fill="currentColor" fill-rule="evenodd" clip-rule="evenodd"/></svg>
