<svg xmlns="http://www.w3.org/2000/svg" viewBox="0 0 24 24" fill="none"><path d="M17.1746 13.0546C16.6417 12.8129 16.0649 12.6461 15.4725 12.8251C15.0721 12.9462 14.7134 13.1739 14.4285 13.4804C14.019 13.9212 13.8776 14.505 13.8133 15.1113C13.7498 15.7105 13.7498 16.4855 13.7498 17.4372L13.7498 17.5L13.7498 17.5627C13.7498 18.5144 13.7498 19.2895 13.8133 19.8886C13.8776 20.4949 14.019 21.0787 14.4285 21.5195C14.7134 21.826 15.0721 22.0537 15.4725 22.1748C16.0649 22.3538 16.6417 22.1871 17.1746 21.9453C17.698 21.7078 18.3312 21.3241 19.0974 20.8597L19.1512 20.8271L19.1881 20.8048C19.9902 20.3187 20.6493 19.9193 21.1248 19.5488C21.6103 19.1705 22.0248 18.7343 22.1736 18.1308C22.2757 17.7172 22.2757 17.2827 22.1736 16.8691C22.0248 16.2656 21.6103 15.8294 21.1248 15.4511C20.6493 15.0806 19.9902 14.6812 19.1881 14.1951L19.1512 14.1728L19.0974 14.1402C18.3312 13.6758 17.698 13.2921 17.1746 13.0546Z" fill="currentColor"/><path opacity="0.4" d="M12.0652 1.75C14.0741 1.74998 15.6712 1.75004 16.9334 1.90332C18.232 2.06106 19.3065 2.39361 20.1961 3.15332C20.4294 3.3526 20.6472 3.57039 20.8465 3.80371C21.6062 4.69336 21.9388 5.76785 22.0965 7.06641C22.2498 8.32869 22.2498 10.0565 22.2498 12.0654C22.2498 13.0569 22.2487 13.948 22.2303 14.748C22.1156 14.6451 22.0028 14.5501 21.8934 14.4648C21.3391 14.0329 20.591 13.5837 19.7986 13.1035C19.0364 12.6416 18.3109 12.1971 17.6912 11.916C17.0781 11.6378 16.1485 11.3154 15.1111 11.6289C14.4925 11.8161 13.9433 12.1664 13.5125 12.6299C12.8195 13.3759 12.6421 14.3007 12.5701 14.9795C12.4966 15.6734 12.4998 16.5488 12.4998 17.5C12.4998 18.4512 12.4965 19.3266 12.5701 20.0205C12.6383 20.6626 12.8012 21.5243 13.4051 22.2471C12.935 22.2496 12.4436 22.25 11.9344 22.25C9.92553 22.25 8.32844 22.25 7.06622 22.0967C5.76767 21.9389 4.69318 21.6064 3.80353 20.8467C3.57021 20.6474 3.35241 20.4296 3.15314 20.1963C2.39343 19.3066 2.06088 18.2321 1.90314 16.9336C1.74986 15.6714 1.7498 14.0743 1.74982 12.0654C1.7498 10.0565 1.74985 8.32869 1.90314 7.06641C2.06088 5.76785 2.39343 4.69336 3.15314 3.80371C3.35241 3.57039 3.57021 3.3526 3.80353 3.15332C4.69318 2.39361 5.76767 2.06106 7.06622 1.90332C8.32851 1.75004 10.0563 1.74998 12.0652 1.75Z" fill="currentColor"/><path d="M14.2498 7.5C14.2498 6.80964 14.8095 6.25 15.4998 6.25C16.1902 6.25 16.7498 6.80964 16.7498 7.5C16.7498 8.19036 16.1902 8.75 15.4998 8.75C14.8095 8.75 14.2498 8.19036 14.2498 7.5Z" fill="currentColor" fill-rule="evenodd" clip-rule="evenodd"/><path d="M8.74884 11C9.22895 11 9.68957 11.1908 10.0291 11.5303L12.702 14.2031C12.6346 14.4798 12.5951 14.7442 12.5701 14.9795C12.4966 15.6734 12.4998 16.5488 12.4998 17.5C12.4998 18.4512 12.4965 19.3266 12.5701 20.0205C12.5795 20.1085 12.5905 20.2006 12.6043 20.2959C12.4085 20.2961 12.2065 20.2979 11.9988 20.2979C9.90986 20.2979 8.43141 20.2956 7.3006 20.1582C6.19249 20.0236 5.54966 19.7719 5.07013 19.3623C4.91464 19.2295 4.77032 19.0842 4.63751 18.9287C4.22795 18.4492 3.97524 17.8064 3.84064 16.6982C3.78906 16.2735 3.75655 15.7994 3.73615 15.2627L7.46857 11.5303C7.80805 11.1908 8.26875 11.0001 8.74884 11Z" fill="currentColor"/></svg>
