<svg xmlns="http://www.w3.org/2000/svg" viewBox="0 0 24 24" fill="none"><path d="M17.1747 13.0548C16.6418 12.813 16.065 12.6462 15.4726 12.8253C15.0722 12.9464 14.7135 13.174 14.4286 13.4805C14.0191 13.9213 13.8777 14.5051 13.8134 15.1114C13.7499 15.7106 13.7499 16.4857 13.7499 17.4373L13.7499 17.5001L13.7499 17.5628C13.7499 18.5145 13.7499 19.2896 13.8134 19.8887C13.8777 20.495 14.0191 21.0789 14.4286 21.5196C14.7135 21.8261 15.0722 22.0538 15.4726 22.1749C16.065 22.354 16.6418 22.1872 17.1747 21.9454C17.6981 21.7079 18.3313 21.3242 19.0975 20.8598L19.1513 20.8272L19.1882 20.8049C19.9903 20.3188 20.6494 19.9194 21.1249 19.5489C21.6104 19.1706 22.0249 18.7344 22.1737 18.1309C22.2758 17.7173 22.2758 17.2828 22.1737 16.8692C22.0249 16.2658 21.6104 15.8295 21.1249 15.4512C20.6494 15.0808 19.9903 14.6814 19.1881 14.1953L19.1513 14.1729L19.0975 14.1403C18.3313 13.676 17.6981 13.2922 17.1747 13.0548Z" fill="currentColor"/><path d="M12.0653 1.75012C14.0742 1.7501 15.6713 1.75016 16.9335 1.90344C18.2321 2.06118 19.3065 2.39373 20.1962 3.15344C20.4295 3.35272 20.6473 3.57051 20.8466 3.80383C21.6063 4.69349 21.9389 5.76797 22.0966 7.06653C22.2499 8.32881 22.2499 10.0566 22.2499 12.0656C22.2499 13.057 22.2488 13.9481 22.2304 14.7482C22.1157 14.6453 22.0029 14.5502 21.8935 14.465C21.3391 14.0331 20.5911 13.5838 19.7987 13.1036C19.0365 12.6417 18.3109 12.1973 17.6913 11.9161C17.0782 11.638 16.1486 11.3156 15.1112 11.629C14.4926 11.8162 13.9434 12.1665 13.5126 12.63C13.0598 13.1175 12.829 13.6817 12.7021 14.2032L10.0292 11.5304C9.68966 11.191 9.22904 11.0001 8.74893 11.0001C8.26884 11.0002 7.80814 11.1909 7.46866 11.5304L3.73624 15.2628C3.75664 15.7995 3.78915 16.2736 3.84073 16.6984C3.97534 17.8065 4.22804 18.4493 4.6376 18.9288C4.77041 19.0843 4.91473 19.2296 5.07022 19.3624C5.54975 19.772 6.19258 20.0237 7.30069 20.1583C8.4315 20.2957 9.90996 20.298 11.9989 20.298C12.2066 20.298 12.4086 20.2962 12.6044 20.296C12.6041 20.2937 12.6038 20.2915 12.6034 20.2892C12.6898 20.8907 12.882 21.6211 13.4052 22.2472C12.9351 22.2497 12.4437 22.2501 11.9345 22.2501C9.92562 22.2501 8.32853 22.2501 7.06631 22.0968C5.76776 21.9391 4.69327 21.6065 3.80362 20.8468C3.5703 20.6475 3.3525 20.4297 3.15323 20.1964C2.39352 19.3068 2.06097 18.2323 1.90323 16.9337C1.74995 15.6715 1.74989 14.0744 1.74991 12.0656C1.74989 10.0566 1.74994 8.32881 1.90323 7.06653C2.06097 5.76797 2.39352 4.69349 3.15323 3.80383C3.3525 3.57051 3.5703 3.35272 3.80362 3.15344C4.69327 2.39373 5.76776 2.06118 7.06631 1.90344C8.3286 1.75016 10.0564 1.7501 12.0653 1.75012ZM12.6142 14.6427C12.6198 14.6073 12.6263 14.5715 12.6327 14.5353C12.6264 14.5715 12.6197 14.6072 12.6142 14.6427ZM15.4999 6.25012C14.8096 6.25012 14.2499 6.80977 14.2499 7.50012C14.2499 8.19048 14.8096 8.75012 15.4999 8.75012C16.1903 8.75012 16.7499 8.19048 16.7499 7.50012C16.7499 6.80977 16.1903 6.25012 15.4999 6.25012Z" fill="currentColor"/></svg>
