<svg xmlns="http://www.w3.org/2000/svg" viewBox="0 0 24 24" fill="none"><path d="M14.21 21.1741C14.2522 20.9026 14.25 20.5581 14.25 20.219V17.7815C14.25 17.4424 14.2522 17.0979 14.21 16.8264C14.171 16.5759 14.071 16.2279 13.7608 15.9866L13.6143 15.8899L13.459 15.8186C13.0993 15.6854 12.7552 15.7721 12.5225 15.8586C12.2623 15.9555 11.9558 16.1244 11.6446 16.2942L10.5215 16.9065C10.2378 16.2525 9.71246 15.7325 9.05277 15.4592C8.76242 15.339 8.4626 15.2924 8.14554 15.2708C7.84446 15.2502 7.47835 15.2502 7.04072 15.2502H7.0406L7.00003 15.2502H6.50003L6.45946 15.2502H6.45934C6.02171 15.2502 5.65561 15.2502 5.35453 15.2708C5.03747 15.2924 4.73765 15.339 4.4473 15.4592C3.77362 15.7383 3.23812 16.2738 2.95902 16.9475C2.83875 17.2379 2.79218 17.5377 2.77054 17.8547C2.75 18.1558 2.75001 18.5219 2.75003 18.9596V18.9597L2.75003 19.0002L2.75003 19.0408V19.0409C2.75001 19.4786 2.75 19.8447 2.77054 20.1458C2.79218 20.4628 2.83875 20.7626 2.95902 21.053C3.23812 21.7267 3.77362 22.2622 4.4473 22.5413C4.73765 22.6615 5.03747 22.7081 5.35453 22.7297C5.65563 22.7503 6.02178 22.7503 6.45947 22.7502L6.50003 22.7502H7.00003L7.0406 22.7502C7.47829 22.7503 7.84443 22.7503 8.14554 22.7297C8.4626 22.7081 8.76242 22.6615 9.05277 22.5413C9.71274 22.2678 10.2379 21.7474 10.5215 21.093L11.6446 21.7063C11.9558 21.8761 12.2623 22.045 12.5225 22.1418C12.7885 22.2408 13.2001 22.3399 13.6143 22.1106C14.041 21.8743 14.1655 21.4604 14.21 21.1741Z" fill="currentColor"/><path d="M12.0879 1.2501C12.6577 1.24934 13.1624 1.2485 13.6377 1.4171C13.7355 1.45179 13.8313 1.49225 13.9248 1.53721C14.3796 1.75586 14.7363 2.11501 15.1387 2.52061L19.9219 7.32823C20.3891 7.7964 20.8033 8.21246 21.0274 8.75596C21.2514 9.29964 21.251 9.8886 21.25 10.5519V14.0265C21.2501 15.8082 21.2497 17.2445 21.0987 18.3741C20.9418 19.5468 20.6061 20.5342 19.8262 21.3185C19.046 22.1028 18.0633 22.441 16.8965 22.5987C16.2929 22.6803 15.6012 22.7162 14.8155 22.7335C15.2637 22.2441 15.3971 21.6764 15.4453 21.3663C15.5059 20.9768 15.5 20.5172 15.5 20.2189V17.7814C15.5 17.483 15.5059 17.0234 15.4453 16.6339C15.3837 16.238 15.1817 15.4242 14.3867 14.8976L14.2198 14.796C13.3199 14.2979 12.4624 14.547 12.0869 14.6866C11.7231 14.822 11.3249 15.0442 11.0459 15.1964L10.918 15.2677C10.5335 14.8561 10.0634 14.5243 9.53128 14.3038C9.06322 14.1099 8.6111 14.0495 8.2305 14.0235C7.88606 14 7.48325 14.0001 7.07132 14.0001H6.42874C6.01681 14.0001 5.614 14 5.26956 14.0235C4.88896 14.0495 4.43685 14.1099 3.96878 14.3038C3.89468 14.3345 3.82177 14.3676 3.75003 14.4024V9.45225C3.75001 7.91889 3.75003 6.68205 3.86429 5.69835C3.98255 4.68061 4.23465 3.80816 4.82718 3.06944C5.04453 2.79853 5.29009 2.55159 5.5596 2.33311C6.29461 1.73746 7.16317 1.48419 8.17581 1.36534C9.15455 1.25052 10.5624 1.25008 12.0879 1.2501ZM12.9903 3.27061C12.9902 4.63191 12.9902 5.2798 13.1065 6.14463C13.2275 7.04446 13.4864 7.80257 14.0879 8.4044C14.6898 9.00631 15.4486 9.2658 16.3487 9.38682C17.2154 9.50333 17.8641 9.50403 19.2315 9.50401C19.1747 9.36624 19.069 9.2354 18.4512 8.61436L13.8467 3.98546C13.3139 3.44982 13.1719 3.31651 12.9903 3.26182V3.27061Z" fill="currentColor" fill-rule="evenodd" clip-rule="evenodd"/></svg>
