<svg xmlns="http://www.w3.org/2000/svg" viewBox="0 0 24 24" fill="none"><path d="M1.54302 1.54265C1.93354 1.15212 2.56655 1.15212 2.95708 1.54265L22.4571 21.0426C22.8476 21.4332 22.8476 22.0662 22.4571 22.4567C22.0666 22.8472 21.4335 22.8472 21.043 22.4567L1.54302 2.95671C1.15249 2.56619 1.15249 1.93317 1.54302 1.54265Z" fill="currentColor"/><path d="M21.1604 21.1608C21.113 21.2654 21.0476 21.3643 20.9622 21.4508C20.5985 21.819 20.019 21.8456 19.6243 21.528L19.5481 21.4606L17.7806 19.7145C16.1969 20.9844 14.1882 21.7467 12.0003 21.7467C9.82241 21.7467 7.82185 20.9915 6.24149 19.7321L4.44559 21.4694C4.0487 21.8528 3.41535 21.8413 3.03153 21.4449C2.64787 21.0479 2.65823 20.4147 3.05497 20.0309L4.81962 18.3258C3.52653 16.7349 2.75037 14.7066 2.75028 12.4967C2.75028 9.81623 3.89042 7.40191 5.7122 5.71252L21.1604 21.1608Z" fill="currentColor"/><path d="M4.95536 4.95569L2.95731 6.95374C2.56691 7.34405 1.93378 7.34385 1.54325 6.95374C1.15275 6.56324 1.15281 5.9302 1.54325 5.53967L3.5413 3.54163L4.95536 4.95569Z" fill="currentColor"/><path opacity="0.4" d="M21.2503 12.4974C21.2503 7.38889 17.1088 3.24757 12.0003 3.24745C10.485 3.24745 9.05554 3.61327 7.79327 4.25916L20.2376 16.7035C20.8841 15.4418 21.2502 14.0127 21.2503 12.4974Z" fill="currentColor"/><path opacity="0.4" d="M19.3812 2.47206C18.9884 2.15171 18.4094 2.1743 18.0433 2.54041C17.6772 2.90654 17.6546 3.48556 17.9749 3.87831L18.0433 3.95448L21.0433 6.95448L21.1194 7.02284C21.5122 7.34267 22.0914 7.32034 22.4573 6.95448C22.8233 6.58855 22.8455 6.00935 22.5257 5.61659L22.4573 5.54041L19.4573 2.54041L19.3812 2.47206Z" fill="currentColor"/></svg>
