<svg xmlns="http://www.w3.org/2000/svg" viewBox="0 0 24 24" fill="none"><path d="M1.54302 1.54265C1.93354 1.15212 2.56655 1.15212 2.95708 1.54265L22.4571 21.0426C22.8476 21.4332 22.8476 22.0662 22.4571 22.4567C22.0666 22.8472 21.4335 22.8472 21.043 22.4567L1.54302 2.95671C1.15249 2.56619 1.15249 1.93317 1.54302 1.54265Z" fill="currentColor"/><path d="M21.1604 21.1608C21.113 21.2654 21.0476 21.3643 20.9622 21.4508C20.5985 21.819 20.019 21.8456 19.6243 21.528L19.5481 21.4606L17.7806 19.7145C16.1969 20.9844 14.1882 21.7467 12.0003 21.7467C9.82241 21.7467 7.82185 20.9915 6.24149 19.7321L4.44559 21.4694C4.0487 21.8528 3.41535 21.8413 3.03153 21.445C2.64787 21.0479 2.65823 20.4147 3.05497 20.0309L4.81962 18.3258C3.52653 16.7349 2.75037 14.7066 2.75028 12.4967C2.75028 9.81624 3.89042 7.40192 5.7122 5.71253L21.1604 21.1608Z" fill="currentColor"/><path d="M12.0003 3.24671C17.1088 3.24684 21.2503 7.38816 21.2503 12.4967C21.2502 14.012 20.8841 15.441 20.2376 16.7028L7.79325 4.25843C9.05552 3.61254 10.485 3.24671 12.0003 3.24671Z" fill="currentColor"/><path d="M4.95536 4.9557L2.95731 6.95374C2.56691 7.34406 1.93378 7.34386 1.54325 6.95374C1.15275 6.56325 1.15281 5.93021 1.54325 5.53968L3.5413 3.54164L4.95536 4.9557Z" fill="currentColor"/><path d="M18.0433 2.53968C18.4094 2.17357 18.9884 2.15097 19.3811 2.47132L19.4573 2.53968L22.4573 5.53968L22.5257 5.61585C22.8455 6.00862 22.8232 6.58782 22.4573 6.95374C22.0914 7.3196 21.5122 7.34194 21.1194 7.0221L21.0433 6.95374L18.0433 3.95374L17.9749 3.87757C17.6546 3.48483 17.6772 2.9058 18.0433 2.53968Z" fill="currentColor"/></svg>
