<svg xmlns="http://www.w3.org/2000/svg" viewBox="0 0 24 24" fill="none"><path opacity="0.4" d="M12.0001 22.75C17.9372 22.75 22.7501 17.9371 22.7501 12C22.7501 6.06294 17.9372 1.25 12.0001 1.25C6.06306 1.25 1.25012 6.06294 1.25012 12C1.25012 17.9371 6.06306 22.75 12.0001 22.75Z" fill="currentColor"/><path d="M5.00012 12C5.00012 9.79086 6.79098 8 9.00012 8C9.46573 8 9.9149 8.07975 10.3331 8.22754C10.8538 8.41159 11.1266 8.98319 10.9425 9.50391C10.7584 10.0245 10.1878 10.2972 9.66711 10.1133C9.45988 10.04 9.23567 10 9.00012 10C7.89555 10 7.00012 10.8954 7.00012 12C7.00012 13.1046 7.89555 14 9.00012 14C9.23567 14 9.45988 13.96 9.66711 13.8867C10.1878 13.7028 10.7584 13.9755 10.9425 14.4961C11.1266 15.0168 10.8538 15.5884 10.3331 15.7725C9.9149 15.9202 9.46573 16 9.00012 16C6.79098 16 5.00012 14.2091 5.00012 12Z" fill="currentColor"/><path d="M12.0001 12C12.0001 9.79086 13.791 8 16.0001 8C16.4657 8 16.9149 8.07975 17.3331 8.22754C17.8538 8.41159 18.1266 8.98319 17.9425 9.50391C17.7584 10.0245 17.1878 10.2972 16.6671 10.1133C16.4599 10.04 16.2357 10 16.0001 10C14.8956 10 14.0001 10.8954 14.0001 12C14.0001 13.1046 14.8956 14 16.0001 14C16.2357 14 16.4599 13.96 16.6671 13.8867C17.1878 13.7028 17.7584 13.9755 17.9425 14.4961C18.1266 15.0168 17.8538 15.5884 17.3331 15.7725C16.9149 15.9202 16.4657 16 16.0001 16C13.791 16 12.0001 14.2091 12.0001 12Z" fill="currentColor"/></svg>
