<svg xmlns="http://www.w3.org/2000/svg" viewBox="0 0 24 24" fill="none"><path d="M12.0001 1.25C17.9372 1.25 22.7501 6.06294 22.7501 12C22.7501 17.9371 17.9372 22.75 12.0001 22.75C6.06306 22.75 1.25012 17.9371 1.25012 12C1.25012 6.06294 6.06306 1.25 12.0001 1.25ZM9.00012 8C6.79098 8 5.00012 9.79086 5.00012 12C5.00012 14.2091 6.79098 16 9.00012 16C9.46573 16 9.9149 15.9202 10.3331 15.7725C10.8538 15.5884 11.1266 15.0168 10.9425 14.4961C10.7584 13.9755 10.1878 13.7028 9.66711 13.8867C9.45988 13.96 9.23567 14 9.00012 14C7.89555 14 7.00012 13.1046 7.00012 12C7.00012 10.8954 7.89555 10 9.00012 10C9.23567 10 9.45988 10.04 9.66711 10.1133C10.1878 10.2972 10.7584 10.0245 10.9425 9.50391C11.1266 8.98319 10.8538 8.41159 10.3331 8.22754C9.9149 8.07975 9.46573 8 9.00012 8ZM16.0001 8C13.791 8 12.0001 9.79086 12.0001 12C12.0001 14.2091 13.791 16 16.0001 16C16.4657 16 16.9149 15.9202 17.3331 15.7725C17.8538 15.5884 18.1266 15.0168 17.9425 14.4961C17.7584 13.9755 17.1878 13.7028 16.6671 13.8867C16.4599 13.96 16.2357 14 16.0001 14C14.8956 14 14.0001 13.1046 14.0001 12C14.0001 10.8954 14.8956 10 16.0001 10C16.2357 10 16.4599 10.04 16.6671 10.1133C17.1878 10.2972 17.7584 10.0245 17.9425 9.50391C18.1266 8.98319 17.8538 8.41159 17.3331 8.22754C16.9149 8.07975 16.4657 8 16.0001 8Z" fill="currentColor"/></svg>
