<svg xmlns="http://www.w3.org/2000/svg" viewBox="0 0 24 24" fill="none"><path opacity="0.4" d="M16.7409 3.23498C17.0058 3.09063 17.5071 2.87353 18.0602 3.09337L18.1716 3.14318L18.278 3.20275C18.7839 3.51369 18.9111 4.04329 18.9548 4.34142C19.0025 4.66736 18.9997 5.08534 18.9997 5.48888V9.0006H19.9997C20.552 9.0006 20.9997 9.44832 20.9997 10.0006C20.9997 10.5528 20.552 11.0006 19.9997 11.0006H15.9997C15.4475 11.0005 14.9997 10.5528 14.9997 10.0006C14.9997 9.44836 15.4475 9.00067 15.9997 9.0006H16.9997V5.48888L16.9987 5.48498L16.6003 5.78673C16.1591 6.11797 15.5327 6.02926 15.2009 5.58849C14.869 5.14714 14.9578 4.52007 15.3991 4.1881L15.7985 3.88732C16.1202 3.64541 16.4519 3.39256 16.7409 3.23498Z" fill="currentColor"/><path opacity="0.4" d="M18.9998 16.0005C18.9998 15.4483 18.5521 15.0005 17.9998 15.0005C17.4475 15.0005 16.9998 15.4483 16.9998 16.0005V18.0005C16.9998 18.5528 17.4475 19.0005 17.9998 19.0005C18.5521 19.0005 18.9998 18.5528 18.9998 18.0005V16.0005ZM20.9998 18.0005C20.9998 19.6574 19.6567 21.0005 17.9998 21.0005C16.343 21.0005 14.9998 19.6574 14.9998 18.0005V16.0005C14.9998 14.3437 16.343 13.0005 17.9998 13.0005C19.6567 13.0005 20.9998 14.3437 20.9998 16.0005V18.0005Z" fill="currentColor"/><path d="M7.99976 3.00055C8.41002 3.00055 8.76497 3.17973 8.99098 3.31598C9.24432 3.46874 9.49591 3.66862 9.73121 3.87653C10.2043 4.29453 10.7052 4.83278 11.1502 5.34528C11.5994 5.86266 12.0121 6.37699 12.3113 6.76031C12.4613 6.95249 12.5834 7.11318 12.6687 7.22614C12.7114 7.28262 12.7453 7.32707 12.7683 7.35797C12.7798 7.37342 12.7885 7.38578 12.7947 7.3941C12.7977 7.39823 12.8008 7.40159 12.8025 7.40387C12.8032 7.40477 12.804 7.40525 12.8045 7.40582V7.40778H12.8054C13.1326 7.85245 13.0371 8.4788 12.5925 8.80621C12.1479 9.13339 11.5215 9.0379 11.1941 8.59332L11.1931 8.59137C11.192 8.5898 11.1896 8.58773 11.1873 8.58453C11.1822 8.57775 11.175 8.56701 11.1648 8.55328C11.1442 8.52559 11.1129 8.48408 11.073 8.43121C10.9931 8.32547 10.8776 8.17336 10.7351 7.99078C10.449 7.62417 10.0593 7.13835 9.64039 6.65582C9.21713 6.16832 8.78273 5.70657 8.40699 5.37457C8.24166 5.22851 8.10448 5.12526 7.99976 5.05719C7.89505 5.12526 7.75786 5.22852 7.59254 5.37457C7.2168 5.70657 6.78241 6.16833 6.35914 6.65582C5.94019 7.13834 5.55052 7.62417 5.26441 7.99078C5.12193 8.17336 5.00639 8.32548 4.92652 8.43121C4.88659 8.48408 4.85536 8.52559 4.83473 8.55328C4.8245 8.56701 4.81729 8.57775 4.81226 8.58453C4.80989 8.58774 4.80756 8.5898 4.80641 8.59137L4.80543 8.59332L4.74 8.67242C4.39975 9.04819 3.82394 9.11232 3.40699 8.80524C2.96249 8.47781 2.86696 7.85242 3.1941 7.40778H3.19508V7.40582C3.19556 7.40516 3.19718 7.40498 3.19801 7.40387C3.19968 7.4016 3.2018 7.39821 3.20484 7.3941C3.21101 7.38578 3.2197 7.37342 3.23121 7.35797C3.25424 7.32707 3.28814 7.28264 3.33082 7.22614C3.41614 7.11318 3.53826 6.9525 3.68824 6.76031C3.98739 6.377 4.40016 5.86266 4.84937 5.34528C5.29435 4.83278 5.79524 4.29453 6.26832 3.87653C6.50362 3.66863 6.75521 3.46874 7.00855 3.31598C7.23455 3.17974 7.58952 3.00056 7.99976 3.00055Z" fill="currentColor"/><path d="M6.99982 5.00055V20.0005C6.99982 20.5528 7.44753 21.0005 7.99982 21.0005C8.5521 21.0005 8.99982 20.5528 8.99982 20.0005V5.00055C8.99982 4.44827 8.5521 4.00055 7.99982 4.00055C7.44753 4.00055 6.99982 4.44827 6.99982 5.00055Z" fill="currentColor"/></svg>
