<svg xmlns="http://www.w3.org/2000/svg" viewBox="0 0 24 24" fill="none"><path d="M7.99955 3.00096C8.40978 3.00095 8.76475 3.18014 8.99076 3.31639C9.24409 3.46914 9.49571 3.66905 9.731 3.87693C10.2041 4.29493 10.705 4.83319 11.1499 5.34568C11.5991 5.86306 12.0119 6.3774 12.3111 6.76072C12.461 6.95288 12.5832 7.11359 12.6685 7.22654C12.7111 7.28301 12.7451 7.32748 12.7681 7.35838C12.7796 7.37381 12.7883 7.38619 12.7945 7.39451C12.7975 7.39862 12.8006 7.402 12.8023 7.40428C12.8029 7.40516 12.8038 7.40568 12.8042 7.40623V7.40819H12.8052C13.1324 7.85286 13.0369 8.47921 12.5923 8.80662C12.1476 9.13376 11.5213 9.03829 11.1939 8.59373L11.1929 8.59178C11.1917 8.59022 11.1894 8.58812 11.187 8.58494C11.182 8.57816 11.1748 8.5674 11.1646 8.55369C11.144 8.526 11.1127 8.48447 11.0728 8.43162C10.9929 8.32588 10.8774 8.17375 10.7349 7.99119C10.4488 7.62458 10.0591 7.13874 9.64017 6.65623C9.42635 6.40996 9.21006 6.1699 8.99955 5.95018V20.001C8.99955 20.5532 8.55183 21.001 7.99955 21.001C7.44732 21.0009 6.99955 20.5532 6.99955 20.001V5.95018C6.78905 6.16989 6.57274 6.40997 6.35892 6.65623C5.93999 7.13874 5.5503 7.62459 5.2642 7.99119C5.12173 8.17376 5.00617 8.32589 4.92631 8.43162C4.88639 8.48448 4.85514 8.52601 4.83451 8.55369C4.82429 8.5674 4.81707 8.57816 4.81205 8.58494C4.80969 8.58813 4.80734 8.59022 4.80619 8.59178L4.80521 8.59373L4.73978 8.67283C4.39953 9.04857 3.82371 9.11272 3.40678 8.80565C2.96232 8.47822 2.86678 7.85281 3.19389 7.40819H3.19486V7.40623C3.19534 7.40558 3.19696 7.40536 3.19779 7.40428C3.19946 7.40202 3.2016 7.39861 3.20463 7.39451C3.21079 7.38619 3.21949 7.37381 3.23099 7.35838C3.25402 7.32749 3.28794 7.28303 3.3306 7.22654C3.41592 7.1136 3.53805 6.9529 3.68803 6.76072C3.98717 6.37741 4.39996 5.86306 4.84916 5.34568C5.29412 4.8332 5.79503 4.29493 6.2681 3.87693C6.50338 3.66905 6.75501 3.46915 7.00834 3.31639C7.23433 3.18015 7.58934 3.00099 7.99955 3.00096ZM17.9995 13.001C19.6564 13.001 20.9995 14.3441 20.9995 16.001V18.001C20.9995 19.6578 19.6564 21.001 17.9995 21.001C16.3428 21.0009 14.9995 19.6578 14.9995 18.001V16.001C14.9995 14.3441 16.3428 13.001 17.9995 13.001ZM17.9995 15.001C17.4473 15.001 16.9995 15.4487 16.9995 16.001V18.001C16.9995 18.5532 17.4473 19.0009 17.9995 19.001C18.5518 19.001 18.9995 18.5532 18.9995 18.001V16.001C18.9995 15.4487 18.5518 15.001 17.9995 15.001ZM16.7408 3.23533C17.0057 3.09099 17.507 2.87391 18.0601 3.09373L18.1714 3.14354L18.2779 3.20311C18.7837 3.51405 18.911 4.04364 18.9546 4.34178C19.0023 4.66773 18.9995 5.08567 18.9995 5.48924V9.00096H19.9995C20.5518 9.00096 20.9995 9.44867 20.9995 10.001C20.9995 10.5532 20.5518 11.001 19.9995 11.001H15.9995C15.4473 11.0009 14.9995 10.5532 14.9995 10.001C14.9995 9.44871 15.4473 9.00102 15.9995 9.00096H16.9995V5.48924C16.9995 5.48811 16.9986 5.48647 16.9986 5.48533L16.6001 5.78709C16.1589 6.11837 15.5326 6.02965 15.2007 5.58885C14.8688 5.14749 14.9577 4.52042 15.399 4.18846L15.7984 3.88768C16.1201 3.64576 16.4517 3.39291 16.7408 3.23533Z" fill="currentColor" fill-rule="evenodd" clip-rule="evenodd"/></svg>
