<svg xmlns="http://www.w3.org/2000/svg" viewBox="0 0 24 24" fill="none"><path opacity="0.4" d="M21.7501 13.05V13V8.12111C21.7501 7.68114 21.7516 7.40442 21.7218 7.13478C21.6228 6.23935 21.2703 5.39066 20.7072 4.68751C20.5419 4.48115 20.3514 4.29074 20.0538 3.99314L20.0304 3.96974L20.007 3.94637C19.7094 3.64872 19.519 3.45829 19.3126 3.29298C18.6095 2.7298 17.7608 2.37734 16.8654 2.27833C16.5957 2.24853 16.319 2.25001 15.879 2.25001H11.0001L10.9502 2.25001C9.10935 2.25 7.65141 2.24999 6.51086 2.40333C5.33856 2.56097 4.39003 2.8933 3.64172 3.64161C2.89342 4.38992 2.56108 5.33845 2.40344 6.51075C2.2501 7.65131 2.25011 9.10925 2.25012 10.9501V11V13V13.05C2.25011 14.8908 2.2501 16.3487 2.40344 17.4893C2.56108 18.6616 2.89341 19.6101 3.64172 20.3584C4.39003 21.1067 5.33856 21.4391 6.51086 21.5967C7.65141 21.75 9.10934 21.75 10.9501 21.75H11.0001H13.0001H13.0501C14.8909 21.75 16.3488 21.75 17.4894 21.5967C18.6617 21.4391 19.6102 21.1067 20.3585 20.3584C21.1068 19.6101 21.4392 18.6616 21.5968 17.4893C21.7501 16.3487 21.7501 14.8908 21.7501 13.05Z" fill="currentColor"/><path d="M13.047 12.251C13.9478 12.251 14.6991 12.2509 15.295 12.3311C15.9227 12.4155 16.4891 12.6013 16.9445 13.0567C17.3998 13.512 17.5856 14.0785 17.67 14.7061C17.7501 15.302 17.7501 16.0534 17.7501 16.9541V21.5557C17.6643 21.5696 17.5777 21.5848 17.4894 21.5967C16.3488 21.75 14.8907 21.75 13.0499 21.75H10.9503C9.10951 21.75 7.65141 21.75 6.51087 21.5967C6.42256 21.5848 6.3359 21.5696 6.25012 21.5557V16.9541C6.2501 16.0534 6.2501 15.302 6.3302 14.7061C6.41463 14.0785 6.60049 13.512 7.05579 13.0567C7.51114 12.6013 8.0776 12.4155 8.7052 12.3311C9.30111 12.2509 10.0525 12.251 10.9532 12.251H13.047Z" fill="currentColor"/><path d="M15.879 2.25001C16.319 2.25001 16.5957 2.24853 16.8654 2.27833C17.167 2.31169 17.4628 2.3756 17.7501 2.46486V4.04786C17.7501 4.94856 17.7502 5.70003 17.67 6.29591C17.5856 6.92346 17.3998 7.49 16.9445 7.94532C16.4891 8.40062 15.9226 8.58648 15.295 8.67091C14.6991 8.75103 13.9478 8.75101 13.047 8.75099H10.9532C10.0525 8.75101 9.30111 8.75103 8.7052 8.67091C8.07762 8.58648 7.51113 8.40063 7.05579 7.94532C6.60047 7.49 6.41464 6.92346 6.3302 6.29591C6.25009 5.70003 6.2501 4.94856 6.25012 4.04786V2.44337C6.33585 2.42942 6.42261 2.4152 6.51087 2.40333C7.65141 2.24999 9.1095 2.25 10.9503 2.25001H15.879Z" fill="currentColor"/></svg>
