<svg xmlns="http://www.w3.org/2000/svg" viewBox="0 0 24 24" fill="none"><path d="M13.0001 13.75C13.9641 13.75 14.6118 13.7515 15.0948 13.8164C15.5562 13.8784 15.7536 13.9859 15.8839 14.1162C16.0142 14.2465 16.1217 14.4439 16.1837 14.9053C16.2487 15.3883 16.2501 16.036 16.2501 17V21.7021C15.3417 21.7481 14.2815 21.75 13.0499 21.75H10.9503C9.71877 21.75 8.65853 21.7481 7.75012 21.7021V17C7.75012 16.036 7.75159 15.3883 7.81653 14.9053C7.87857 14.4439 7.98603 14.2465 8.11633 14.1162C8.24664 13.9859 8.44401 13.8785 8.9054 13.8164C9.38843 13.7515 10.0361 13.75 11.0001 13.75H13.0001ZM6.25012 4C6.25012 4.92161 6.2487 5.6887 6.3302 6.29492C6.41463 6.92253 6.60043 7.48898 7.05579 7.94434C7.51115 8.39969 8.07759 8.58549 8.7052 8.66992C9.31142 8.75143 10.0785 8.75 11.0001 8.75H13.0001C13.9217 8.75 14.6888 8.75143 15.295 8.66992C15.9227 8.58549 16.4891 8.39969 16.9445 7.94434C17.3998 7.48898 17.5856 6.92253 17.67 6.29492C17.7515 5.6887 17.7501 4.92161 17.7501 4V2.46484C18.3156 2.64052 18.8464 2.91953 19.3126 3.29297C19.519 3.45826 19.7094 3.64869 20.007 3.94629L20.0538 3.99316C20.3514 4.29074 20.5419 4.48115 20.7072 4.6875C21.2703 5.39065 21.6228 6.23934 21.7218 7.13477C21.7516 7.40441 21.7501 7.68113 21.7501 8.12109V13.0498C21.7501 14.8906 21.7501 16.3487 21.5968 17.4893C21.4392 18.6616 21.1068 19.6101 20.3585 20.3584C19.6666 21.0503 18.8031 21.3843 17.7501 21.5557V17C17.7501 16.0784 17.7515 15.3113 17.67 14.7051C17.5856 14.0775 17.3998 13.511 16.9445 13.0557C16.4891 12.6003 15.9227 12.4145 15.295 12.3301C14.6888 12.2486 13.9217 12.25 13.0001 12.25H11.0001C10.0785 12.25 9.31142 12.2486 8.7052 12.3301C8.07759 12.4145 7.51115 12.6003 7.05579 13.0557C6.60043 13.511 6.41463 14.0775 6.3302 14.7051C6.2487 15.3113 6.25012 16.0784 6.25012 17V21.5557C5.19717 21.3843 4.33366 21.0503 3.64172 20.3584C2.89342 19.6101 2.56108 18.6616 2.40344 17.4893C2.2501 16.3487 2.25011 14.8906 2.25012 13.0498V10.9502C2.25011 9.10937 2.2501 7.65129 2.40344 6.51074C2.56108 5.33844 2.89342 4.38991 3.64172 3.6416C4.3337 2.94963 5.19711 2.61472 6.25012 2.44336V4ZM16.2501 2.25195V4C16.2501 4.96401 16.2487 5.61169 16.1837 6.09473C16.1217 6.55612 16.0142 6.75348 15.8839 6.88379C15.7536 7.0141 15.5562 7.12155 15.0948 7.18359C14.6118 7.24854 13.9641 7.25 13.0001 7.25H11.0001C10.0361 7.25 9.38843 7.24854 8.9054 7.18359C8.44401 7.12155 8.24664 7.0141 8.11633 6.88379C7.98603 6.75348 7.87857 6.55612 7.81653 6.09473C7.75159 5.61169 7.75012 4.96401 7.75012 4V2.29688C8.65853 2.25096 9.71879 2.24999 10.9503 2.25H15.879C16.0172 2.25 16.1393 2.25123 16.2501 2.25195Z" fill="currentColor"/></svg>
