<svg xmlns="http://www.w3.org/2000/svg" viewBox="0 0 24 24" fill="none"><path d="M20.75 7.04054V7V6.95946C20.75 6.52176 20.75 6.15561 20.7295 5.85449C20.7079 5.53744 20.6613 5.23762 20.541 4.94727C20.2619 4.27359 19.7264 3.73809 19.0527 3.45899C18.7624 3.33872 18.4626 3.29215 18.1455 3.27051C17.8444 3.24997 17.4783 3.24998 17.0406 3.25L17 3.25H7L6.95943 3.25C6.52175 3.24998 6.1556 3.24997 5.85449 3.27051C5.53744 3.29215 5.23762 3.33872 4.94727 3.45899C4.27359 3.73809 3.73809 4.27359 3.45899 4.94727C3.33872 5.23762 3.29215 5.53744 3.27051 5.85449C3.24997 6.1556 3.24998 6.52175 3.25 6.95943L3.25 7L3.25 7.04057C3.24998 7.47826 3.24997 7.8444 3.27051 8.14551C3.29215 8.46256 3.33872 8.76239 3.45899 9.05274C3.73809 9.72642 4.27359 10.2619 4.94727 10.541C5.23762 10.6613 5.53744 10.7079 5.85449 10.7295C6.1556 10.75 6.52175 10.75 6.95944 10.75L7 10.75H17L17.0406 10.75C17.4783 10.75 17.8444 10.75 18.1455 10.7295C18.4626 10.7079 18.7624 10.6613 19.0527 10.541C19.7264 10.2619 20.2619 9.72642 20.541 9.05274C20.6613 8.76239 20.7079 8.46256 20.7295 8.14551C20.75 7.8444 20.75 7.47824 20.75 7.04054Z" fill="currentColor"/><path d="M20.75 17.0405V17V16.9595C20.75 16.5218 20.75 16.1556 20.7295 15.8545C20.7079 15.5374 20.6613 15.2376 20.541 14.9473C20.2619 14.2736 19.7264 13.7381 19.0527 13.459C18.7624 13.3387 18.4626 13.2921 18.1455 13.2705C17.8444 13.25 17.4783 13.25 17.0406 13.25L17 13.25H7L6.95943 13.25C6.52175 13.25 6.1556 13.25 5.85449 13.2705C5.53744 13.2921 5.23762 13.3387 4.94727 13.459C4.27359 13.7381 3.73809 14.2736 3.45899 14.9473C3.33872 15.2376 3.29215 15.5374 3.27051 15.8545C3.24997 16.1556 3.24998 16.5217 3.25 16.9594L3.25 17L3.25 17.0406C3.24998 17.4783 3.24997 17.8444 3.27051 18.1455C3.29215 18.4626 3.33872 18.7624 3.45899 19.0527C3.73809 19.7264 4.27359 20.2619 4.94727 20.541C5.23762 20.6613 5.53744 20.7079 5.85449 20.7295C6.1556 20.75 6.52175 20.75 6.95944 20.75L7 20.75H17L17.0406 20.75C17.4783 20.75 17.8444 20.75 18.1455 20.7295C18.4626 20.7079 18.7624 20.6613 19.0527 20.541C19.7264 20.2619 20.2619 19.7264 20.541 19.0527C20.6613 18.7624 20.7079 18.4626 20.7295 18.1455C20.75 17.8444 20.75 17.4782 20.75 17.0405Z" fill="currentColor"/></svg>
