<svg xmlns="http://www.w3.org/2000/svg" viewBox="0 0 24 24" fill="none"><path opacity="0.4" d="M17.9994 2.99994C19.6562 2.99994 20.9994 4.34308 20.9994 5.99994V9.99994C20.9994 10.5522 20.5517 10.9999 19.9994 10.9999C19.4472 10.9999 18.9994 10.5522 18.9994 9.99994V8.99994H16.9994V9.99994C16.9994 10.5522 16.5517 10.9999 15.9994 10.9999C15.4472 10.9999 14.9994 10.5522 14.9994 9.99994V5.99994C14.9994 4.34313 16.3426 3 17.9994 2.99994ZM17.9994 4.99994C17.4472 5.00001 16.9994 5.4477 16.9994 5.99994V6.99994H18.9994V5.99994C18.9994 5.44765 18.5517 4.99994 17.9994 4.99994Z" fill="currentColor" fill-rule="evenodd" clip-rule="evenodd"/><path opacity="0.4" d="M18.3647 13C18.7924 13 19.227 12.997 19.564 13.0459C19.8642 13.0895 20.4213 13.2186 20.7319 13.7519L20.7905 13.8633L20.8394 13.9804C21.05 14.5604 20.792 15.0706 20.6333 15.3291C20.4551 15.6193 20.1748 15.9516 19.9009 16.2802L17.6343 19H19.9995C20.5518 19 20.9995 19.4477 20.9995 20C20.9995 20.5523 20.5518 21 19.9995 21H17.6343C17.2066 21 16.772 21.003 16.4351 20.9541C16.1149 20.9076 15.5025 20.7641 15.2085 20.1367C14.9145 19.509 15.1965 18.9466 15.3657 18.6709C15.5439 18.3806 15.8243 18.0484 16.0981 17.7197L18.3647 15H15.9995C15.4472 15 14.9995 14.5523 14.9995 14C14.9995 13.4477 15.4472 13 15.9995 13H18.3647Z" fill="currentColor"/><path d="M7.99939 2.99994C8.55167 2.99994 8.99939 3.44765 8.99939 3.99994V18.0497C9.20974 17.8302 9.42636 17.5907 9.64002 17.3447C10.0589 16.8622 10.4486 16.3763 10.7347 16.0097C10.8772 15.8271 10.9928 15.675 11.0726 15.5693C11.1126 15.5164 11.1438 15.4749 11.1644 15.4472C11.1746 15.4335 11.1819 15.4227 11.1869 15.416C11.1892 15.4128 11.1916 15.4107 11.1927 15.4091L11.1937 15.4072C11.5211 14.9627 12.1475 14.8672 12.5922 15.1943C13.0367 15.5217 13.1322 16.148 12.8051 16.5927L12.8041 16.5947C12.8037 16.5952 12.8028 16.5957 12.8021 16.5966C12.8004 16.5989 12.7974 16.6023 12.7943 16.6064C12.7881 16.6147 12.7794 16.6271 12.7679 16.6425C12.7449 16.6734 12.711 16.7179 12.6683 16.7744C12.583 16.8873 12.4609 17.048 12.3109 17.2402C12.0118 17.6235 11.599 18.1378 11.1498 18.6552C10.7048 19.1677 10.2039 19.706 9.73084 20.124C9.49554 20.3319 9.24395 20.5317 8.9906 20.6845C8.76459 20.8208 8.40965 20.9999 7.99939 20.9999C7.58918 20.9999 7.23417 20.8207 7.00818 20.6845C6.75487 20.5318 6.50321 20.3318 6.26794 20.124C5.79489 19.706 5.29395 19.1677 4.849 18.6552C4.39982 18.1379 3.987 17.6235 3.68787 17.2402C3.53792 17.048 3.41575 16.8873 3.33044 16.7744C3.2878 16.7179 3.25385 16.6734 3.23084 16.6425C3.21936 16.6271 3.21062 16.6147 3.20447 16.6064C3.20147 16.6023 3.19929 16.5989 3.19763 16.5966C3.19679 16.5956 3.19517 16.5953 3.1947 16.5947V16.5927C2.86765 16.1481 2.96215 15.5227 3.40662 15.1953C3.85128 14.8678 4.47752 14.9626 4.80505 15.4072L4.80603 15.4091C4.80718 15.4107 4.80954 15.4128 4.81189 15.416C4.8169 15.4227 4.82416 15.4335 4.83435 15.4472C4.85498 15.4749 4.88625 15.5165 4.92615 15.5693C5.006 15.675 5.12159 15.8272 5.26404 16.0097C5.55013 16.3763 5.93985 16.8622 6.35876 17.3447C6.5724 17.5907 6.78906 17.8302 6.99939 18.0497V3.99994C6.99939 3.44769 7.44716 3 7.99939 2.99994Z" fill="currentColor"/></svg>
