<svg xmlns="http://www.w3.org/2000/svg" viewBox="0 0 24 24" fill="none"><path d="M7.99953 3.00049C8.55182 3.00049 8.99953 3.4482 8.99953 4.00049V18.0503C9.20988 17.8307 9.42651 17.5913 9.64016 17.3452C10.0591 16.8627 10.4488 16.3769 10.7349 16.0103C10.8774 15.8277 10.9929 15.6756 11.0728 15.5698C11.1127 15.517 11.1439 15.4754 11.1646 15.4478C11.1748 15.434 11.182 15.4233 11.187 15.4165C11.1894 15.4133 11.1917 15.4112 11.1929 15.4097L11.1939 15.4077C11.5213 14.9632 12.1476 14.8677 12.5923 15.1948C13.0369 15.5222 13.1323 16.1486 12.8052 16.5933H12.8042V16.5952C12.8038 16.5958 12.8029 16.5963 12.8023 16.5972C12.8006 16.5994 12.7975 16.6028 12.7945 16.6069C12.7883 16.6153 12.7796 16.6276 12.7681 16.6431C12.7451 16.674 12.7111 16.7184 12.6685 16.7749C12.5832 16.8878 12.461 17.0486 12.3111 17.2407C12.0119 17.624 11.5991 18.1384 11.1499 18.6558C10.705 19.1683 10.2041 19.7065 9.73098 20.1245C9.49568 20.3324 9.24409 20.5323 8.99074 20.6851C8.76474 20.8213 8.40979 21.0005 7.99953 21.0005C7.58932 21.0005 7.23431 20.8213 7.00832 20.6851C6.75501 20.5323 6.50335 20.3324 6.26809 20.1245C5.79503 19.7065 5.29409 19.1682 4.84914 18.6558C4.39996 18.1384 3.98714 17.624 3.68801 17.2407C3.53806 17.0486 3.41589 16.8878 3.33059 16.7749C3.28795 16.7184 3.25399 16.6739 3.23098 16.6431C3.2195 16.6277 3.21076 16.6152 3.20461 16.6069C3.20161 16.6029 3.19944 16.5994 3.19777 16.5972C3.19693 16.5961 3.19532 16.5959 3.19485 16.5952V16.5933H3.19387C2.86682 16.1486 2.96229 15.5232 3.40676 15.1958C3.85142 14.8683 4.47766 14.9631 4.8052 15.4077L4.80617 15.4097C4.80732 15.4112 4.80969 15.4134 4.81203 15.4165C4.81705 15.4233 4.8243 15.4341 4.83449 15.4478C4.85512 15.4754 4.88639 15.517 4.92629 15.5698C5.00614 15.6755 5.12173 15.8277 5.26418 16.0103C5.55027 16.3768 5.93999 16.8627 6.35891 17.3452C6.57254 17.5913 6.78921 17.8307 6.99953 18.0503V4.00049C6.99953 3.44824 7.4473 3.00055 7.99953 3.00049ZM18.3648 13.0005C18.7924 13.0005 19.2271 12.9975 19.564 13.0464C19.8642 13.09 20.4213 13.2192 20.732 13.7524L20.7905 13.8638L20.8394 13.981C21.05 14.5609 20.792 15.0711 20.6333 15.3296C20.4552 15.6198 20.1748 15.9521 19.9009 16.2808L17.6343 19.0005H19.9995C20.5518 19.0005 20.9995 19.4482 20.9995 20.0005C20.9995 20.5528 20.5518 21.0005 19.9995 21.0005H17.6343C17.2067 21.0005 16.772 21.0035 16.4351 20.9546C16.1149 20.9081 15.5025 20.7645 15.2085 20.1372C14.9146 19.5096 15.1965 18.9471 15.3657 18.6714C15.5439 18.3811 15.8243 18.0489 16.0982 17.7202L18.3648 15.0005H15.9995C15.4473 15.0004 14.9995 14.5527 14.9995 14.0005C14.9996 13.4483 15.4473 13.0006 15.9995 13.0005H18.3648ZM17.9995 3.00049C19.6564 3.00049 20.9995 4.34363 20.9995 6.00049V10.0005C20.9995 10.5528 20.5518 11.0005 19.9995 11.0005C19.4473 11.0004 18.9995 10.5527 18.9995 10.0005V9.00049H16.9995V10.0005C16.9995 10.5528 16.5518 11.0005 15.9995 11.0005C15.4473 11.0004 14.9995 10.5527 14.9995 10.0005V6.00049C14.9995 4.34367 16.3427 3.00055 17.9995 3.00049ZM17.9995 5.00049C17.4473 5.00055 16.9995 5.44824 16.9995 6.00049V7.00049H18.9995V6.00049C18.9995 5.4482 18.5518 5.00049 17.9995 5.00049Z" fill="currentColor" fill-rule="evenodd" clip-rule="evenodd"/></svg>
