<svg xmlns="http://www.w3.org/2000/svg" viewBox="0 0 24 24" fill="none"><path d="M12.0576 1.25C13.6592 1.24998 14.9378 1.24996 15.9404 1.38477C16.9767 1.52409 17.8298 1.81999 18.5049 2.49512C19.18 3.17025 19.4759 4.02332 19.6152 5.05957C19.75 6.06221 19.75 7.34079 19.75 8.94238V15.0576C19.75 16.6592 19.75 17.9378 19.6152 18.9404C19.4759 19.9767 19.18 20.8298 18.5049 21.5049C17.8298 22.18 16.9767 22.4759 15.9404 22.6152C14.9378 22.75 13.6592 22.75 12.0576 22.75H11.9424C10.3408 22.75 9.06221 22.75 8.05957 22.6152C7.02332 22.4759 6.17025 22.18 5.49512 21.5049C4.81999 20.8298 4.52409 19.9767 4.38477 18.9404C4.24996 17.9378 4.24998 16.6592 4.25 15.0576V8.94238C4.24998 7.34078 4.24996 6.06221 4.38477 5.05957C4.52409 4.02332 4.81998 3.17025 5.49512 2.49512C6.17025 1.81998 7.02332 1.52409 8.05957 1.38477C9.06221 1.24996 10.3408 1.24998 11.9424 1.25H12.0576ZM12 18C11.4477 18 11 18.4477 11 19C11 19.5523 11.4477 20 12 20C12.5523 20 13 19.5523 13 19C13 18.4477 12.5523 18 12 18ZM12.7178 6.72559C12.4655 6.09156 11.5345 6.09154 11.2822 6.72559L11.2393 6.87109C11.0108 7.98874 10.1773 8.87802 9.0918 9.18555L8.87109 9.23926C8.04307 9.40875 8.04305 10.5912 8.87109 10.7607C10.0633 11.0044 10.9956 11.9367 11.2393 13.1289C11.4088 13.9569 12.5912 13.9569 12.7607 13.1289C13.0044 11.9367 13.9367 11.0044 15.1289 10.7607C15.9569 10.5912 15.9568 9.40881 15.1289 9.23926C14.0112 9.01082 13.122 8.17735 12.8145 7.0918L12.7607 6.87109L12.7178 6.72559Z" fill="currentColor"/></svg>
