<svg xmlns="http://www.w3.org/2000/svg" viewBox="0 0 24 24" fill="none"><path opacity="0.4" d="M21.7501 15.0156V15V9V8.98438C21.7501 8.0708 21.7501 7.33485 21.6964 6.74219C21.6483 6.21172 21.554 5.73965 21.3448 5.30762L21.2481 5.125C20.919 4.55493 20.4452 4.08108 19.8751 3.75195C19.394 3.47422 18.8641 3.35867 18.2579 3.30371C17.6653 3.25 16.9293 3.25 16.0157 3.25H16.0001H15.9844C15.0709 3.25 14.3349 3.25 13.7423 3.30371C13.1361 3.35867 12.6062 3.47422 12.1251 3.75195C11.555 4.08108 11.0812 4.55493 10.7521 5.125C10.4743 5.60613 10.3588 6.13603 10.3038 6.74219C10.2501 7.33484 10.2501 8.07079 10.2501 8.98435V9V15V15.0156C10.2501 15.9292 10.2501 16.6652 10.3038 17.2578C10.3588 17.864 10.4743 18.3939 10.7521 18.875C11.0812 19.4451 11.555 19.9189 12.1251 20.248L12.3077 20.3447C12.7398 20.5539 13.2118 20.6482 13.7423 20.6963C14.3349 20.75 15.0709 20.75 15.9845 20.75H16.0001H16.0157C16.9293 20.75 17.6653 20.75 18.2579 20.6963C18.8641 20.6413 19.394 20.5258 19.8751 20.248C20.4452 19.9189 20.919 19.4451 21.2481 18.875C21.5259 18.3939 21.6414 17.864 21.6964 17.2578C21.7501 16.6652 21.7501 15.9292 21.7501 15.0156Z" fill="currentColor"/><path d="M6.2501 18V6C6.2501 5.44772 6.69781 5 7.2501 5C7.80238 5 8.2501 5.44772 8.2501 6V18C8.2501 18.5523 7.80238 19 7.2501 19C6.69781 19 6.2501 18.5523 6.2501 18Z" fill="currentColor"/><path d="M2.2501 16V8C2.2501 7.44772 2.69781 7 3.2501 7C3.80238 7 4.2501 7.44772 4.2501 8V16C4.2501 16.5523 3.80238 17 3.2501 17C2.69781 17 2.2501 16.5523 2.2501 16Z" fill="currentColor"/></svg>
