<svg xmlns="http://www.w3.org/2000/svg" viewBox="0 0 24 24" fill="none"><path d="M21.75 15.0156V15V9V8.98438C21.75 8.0708 21.75 7.33485 21.6963 6.74219C21.6482 6.21172 21.5539 5.73965 21.3447 5.30762L21.248 5.125C20.9189 4.55493 20.4451 4.08108 19.875 3.75195C19.3939 3.47422 18.864 3.35867 18.2578 3.30371C17.6652 3.25 16.9292 3.25 16.0156 3.25H16H15.9844C15.0708 3.25 14.3348 3.25 13.7422 3.30371C13.136 3.35867 12.6061 3.47422 12.125 3.75195C11.5549 4.08108 11.0811 4.55493 10.752 5.125C10.4742 5.60613 10.3587 6.13603 10.3037 6.74219C10.25 7.33484 10.25 8.07079 10.25 8.98435V9V15V15.0156C10.25 15.9292 10.25 16.6652 10.3037 17.2578C10.3587 17.864 10.4742 18.3939 10.752 18.875C11.0811 19.4451 11.5549 19.9189 12.125 20.248L12.3076 20.3447C12.7397 20.5539 13.2117 20.6482 13.7422 20.6963C14.3348 20.75 15.0708 20.75 15.9844 20.75H16H16.0156C16.9292 20.75 17.6652 20.75 18.2578 20.6963C18.864 20.6413 19.3939 20.5258 19.875 20.248C20.4451 19.9189 20.9189 19.4451 21.248 18.875C21.5258 18.3939 21.6413 17.864 21.6963 17.2578C21.75 16.6652 21.75 15.9292 21.75 15.0156Z" fill="currentColor"/><path d="M6.25 18V6C6.25 5.44772 6.69772 5 7.25 5C7.80228 5 8.25 5.44772 8.25 6V18C8.25 18.5523 7.80228 19 7.25 19C6.69772 19 6.25 18.5523 6.25 18Z" fill="currentColor"/><path d="M2.25 16V8C2.25 7.44772 2.69772 7 3.25 7C3.80228 7 4.25 7.44772 4.25 8V16C4.25 16.5523 3.80228 17 3.25 17C2.69772 17 2.25 16.5523 2.25 16Z" fill="currentColor"/></svg>
