<svg xmlns="http://www.w3.org/2000/svg" viewBox="0 0 24 24" fill="none"><path d="M18.7216 2.22837C18.4498 1.54499 17.3939 1.59378 17.2342 2.37485C16.9399 3.81471 15.8147 4.93987 14.3749 5.23423C13.5417 5.40452 13.5417 6.59518 14.3749 6.76548C15.8147 7.05983 16.9399 8.185 17.2342 9.62485C17.4045 10.458 18.5952 10.458 18.7655 9.62485C19.0599 8.185 20.185 7.05983 21.6249 6.76548C22.458 6.59518 22.458 5.40452 21.6249 5.23423C20.2748 4.95823 19.2012 3.95186 18.83 2.64048L18.7655 2.37485L18.7216 2.22837Z" fill="currentColor"/><path d="M12 1.75C13.3778 1.75 14.6915 2.02359 15.8916 2.5166C15.6182 3.21756 15.0319 3.7575 14.2998 3.96484L14.124 4.00781C11.959 4.45094 11.959 7.5449 14.124 7.98828C15.0731 8.1823 15.8155 8.92405 16.0098 9.87305C16.4525 12.0391 19.5475 12.0391 19.9902 9.87305C20.1566 9.05993 20.7251 8.39909 21.4814 8.10449C21.9755 9.30571 22.25 10.6206 22.25 12C22.25 17.6609 17.6609 22.25 12 22.25C10.2448 22.25 8.59046 21.8084 7.14453 21.0293C6.38511 20.6201 5.78228 20.6112 5.23633 20.7139C4.94458 20.7688 4.66731 20.8556 4.3584 20.9531L4.34082 20.959C4.05369 21.0496 3.7164 21.1558 3.37793 21.207C2.95556 21.2709 2.5542 21.1147 2.2793 20.8398C1.8481 20.4083 1.80203 19.788 2.00293 19.3145L2.07617 19.1318C2.43613 18.1714 2.70956 16.5536 2.27148 15.2363C1.9329 14.2181 1.75 13.1296 1.75 12C1.75 6.33908 6.33908 1.75 12 1.75ZM8 11C7.44771 11 7 11.4477 7 12C7 12.5523 7.44772 13 8 13C8.55228 13 9 12.5523 9 12C9 11.4477 8.55228 11 8 11ZM12.001 11C11.4833 11 11.0572 11.3933 11.0059 11.8975L11.001 12L11.0059 12.1025C11.0572 12.6067 11.4833 13 12.001 13C12.5532 12.9999 13.001 12.5522 13.001 12C13.001 11.4821 12.607 11.0559 12.1025 11.0049L12.001 11Z" fill="currentColor"/></svg>
