<svg xmlns="http://www.w3.org/2000/svg" viewBox="0 0 24 24" fill="none"><path d="M6.25 10.2793C6.05611 10.2909 5.87458 10.3072 5.70552 10.3299C5.07773 10.4143 4.51093 10.6 4.05546 11.0554C3.59999 11.5109 3.41432 12.0777 3.32991 12.7055C3.24995 13.3003 3.24997 14.0495 3.25 14.948L3.25 18.3535C2.09575 18.68 1.25 19.7412 1.25 21C1.25 21.4142 1.58579 21.75 2 21.75C2.41421 21.75 2.75 21.4142 2.75 21C2.75 20.3096 3.30964 19.75 4 19.75C4.69036 19.75 5.25 20.3096 5.25 21C5.25 21.4142 5.58579 21.75 6 21.75C6.41421 21.75 6.75 21.4142 6.75 21C6.75 19.7412 5.90425 18.68 4.75 18.3535V15C4.75 14.036 4.75159 13.3884 4.81654 12.9054C4.87858 12.4439 4.9858 12.2464 5.11612 12.1161C5.24643 11.9858 5.44393 11.8786 5.90539 11.8165C6.01175 11.8022 6.12607 11.791 6.25 11.7822V10.2793Z" fill="currentColor"/><path d="M17.75 11.7822C17.8739 11.791 17.9883 11.8022 18.0946 11.8165C18.5561 11.8786 18.7536 11.9858 18.8839 12.1161C19.0142 12.2464 19.1214 12.4439 19.1835 12.9054C19.2484 13.3884 19.25 14.036 19.25 15V18.3535C18.0957 18.68 17.25 19.7412 17.25 21C17.25 21.4142 17.5858 21.75 18 21.75C18.4142 21.75 18.75 21.4142 18.75 21C18.75 20.3096 19.3096 19.75 20 19.75C20.6904 19.75 21.25 20.3096 21.25 21C21.25 21.4142 21.5858 21.75 22 21.75C22.4142 21.75 22.75 21.4142 22.75 21C22.75 19.7412 21.9043 18.68 20.75 18.3535V14.948C20.75 14.0495 20.7501 13.3003 20.6701 12.7055C20.5857 12.0777 20.4 11.5109 19.9445 11.0554C19.4891 10.6 18.9223 10.4143 18.2945 10.3299C18.1254 10.3072 17.9439 10.2909 17.75 10.2793V11.7822Z" fill="currentColor"/><path d="M16 11.75C16.7518 11.75 17.3111 11.751 17.75 11.7822V13.0361C17.75 13.9402 17.7496 14.6696 17.6963 15.2578C17.6413 15.864 17.5258 16.3939 17.248 16.875C16.9189 17.4451 16.4451 17.9189 15.875 18.248C15.3939 18.5258 14.864 18.6413 14.2578 18.6963C13.6696 18.7496 12.9402 18.75 12.0361 18.75H11.9639C11.0598 18.75 10.3304 18.7496 9.74219 18.6963C9.13603 18.6413 8.60613 18.5258 8.125 18.248C7.55493 17.9189 7.08108 17.4451 6.75195 16.875C6.47422 16.3939 6.35867 15.864 6.30371 15.2578C6.2504 14.6696 6.24999 13.9402 6.25 13.0361V11.7822C6.68892 11.751 7.24824 11.75 8 11.75H16ZM12 2.25C15.1756 2.25 17.75 4.82436 17.75 8V10.2793C17.2617 10.25 16.6948 10.25 16.0518 10.25H7.94824C7.30514 10.25 6.73826 10.25 6.25 10.2793V8C6.25 4.82436 8.82436 2.25 12 2.25ZM10 6.25C9.44771 6.25 9 6.69772 9 7.25C9 7.80228 9.44772 8.25 10 8.25C10.5523 8.25 11 7.80229 11 7.25C11 6.73232 10.6067 6.30621 10.1025 6.25488L10 6.25ZM14 6.25C13.4477 6.25 13 6.69772 13 7.25C13 7.80228 13.4477 8.25 14 8.25C14.5523 8.25 15 7.80229 15 7.25C15 6.73232 14.6067 6.30621 14.1025 6.25488L14 6.25Z" fill="currentColor"/></svg>
