<svg xmlns="http://www.w3.org/2000/svg" viewBox="0 0 24 24" fill="none"><path opacity="0.4" d="M12 22.75C17.9371 22.75 22.75 17.9371 22.75 12C22.75 6.06294 17.9371 1.25 12 1.25C6.06294 1.25 1.25 6.06294 1.25 12C1.25 17.9371 6.06294 22.75 12 22.75Z" fill="currentColor"/><path d="M18.9994 16C20.3033 16 21.3016 15.8755 22.097 15.6992C22.3585 14.9857 22.5424 14.2362 22.6478 13.461C22.473 13.5245 22.279 13.5899 22.0472 13.6533C21.3715 13.8381 20.4194 14 18.9994 14C17.496 13.9999 16.2542 13.6347 15.5531 13.168C15.0934 12.8622 14.4733 12.9867 14.1673 13.4463C13.8615 13.906 13.9862 14.526 14.4457 14.832C15.5687 15.5796 17.2317 15.9999 18.9994 16Z" fill="currentColor"/><path d="M16.375 7.25C16.9152 7.25 17.2026 7.66818 17.3105 7.88379C17.4407 8.1441 17.5 8.4517 17.5 8.75C17.5 9.04829 17.4407 9.3559 17.3105 9.61621C17.2026 9.83182 16.9152 10.25 16.375 10.25C15.8348 10.25 15.5474 9.83182 15.4395 9.61621C15.3093 9.3559 15.25 9.04829 15.25 8.75C15.25 8.45171 15.3093 8.1441 15.4395 7.88379C15.5474 7.66817 15.8348 7.25 16.375 7.25Z" fill="currentColor"/></svg>
