<svg xmlns="http://www.w3.org/2000/svg" viewBox="0 0 24 24" fill="none"><path d="M12 22.75C16.6372 22.75 20.5887 19.8139 22.0967 15.6992C21.3014 15.8755 20.3036 16 19 16C17.2323 15.9999 15.5694 15.5795 14.4463 14.832C13.9866 14.526 13.862 13.906 14.168 13.4463C14.474 12.9867 15.094 12.8621 15.5537 13.168C16.2549 13.6346 17.4966 13.9999 19 14C20.42 14 21.3721 13.8381 22.0479 13.6533C22.2793 13.59 22.4728 13.5245 22.6475 13.4609C22.7124 12.983 22.75 12.4957 22.75 12C22.75 6.06294 17.9371 1.25 12 1.25C6.06294 1.25 1.25 6.06294 1.25 12C1.25 17.9371 6.06294 22.75 12 22.75ZM16.375 10.25C15.8348 10.25 15.5474 9.83182 15.4395 9.61621C15.3093 9.3559 15.25 9.04829 15.25 8.75C15.25 8.45171 15.3093 8.1441 15.4395 7.88379C15.5474 7.66817 15.8348 7.25 16.375 7.25C16.9152 7.25 17.2026 7.66818 17.3105 7.88379C17.4407 8.1441 17.5 8.4517 17.5 8.75C17.5 9.04829 17.4407 9.3559 17.3105 9.61621C17.2026 9.83182 16.9152 10.25 16.375 10.25Z" fill="currentColor"/></svg>
