<svg xmlns="http://www.w3.org/2000/svg" viewBox="0 0 24 24" fill="none"><path opacity="0.4" d="M21.8887 16.1611C22.2635 15.2562 22.25 14.2602 22.25 12.6865V11.3135C22.25 9.7398 22.2635 8.74378 21.8887 7.83887C21.5139 6.93407 20.8001 6.23953 19.6875 5.12695L18.873 4.3125C17.7605 3.19991 17.0659 2.48615 16.1611 2.11133C15.2562 1.7365 14.2602 1.75 12.6865 1.75H11.3135C9.7398 1.75 8.74378 1.7365 7.83887 2.11133C6.93406 2.48615 6.23954 3.19991 5.12695 4.3125L4.3125 5.12695C3.19991 6.23954 2.48615 6.93406 2.11133 7.83887C1.7365 8.74378 1.75 9.7398 1.75 11.3135V12.6865C1.75 14.2602 1.7365 15.2562 2.11133 16.1611C2.48615 17.0659 3.19991 17.7605 4.3125 18.873L5.12695 19.6875C6.23952 20.8001 6.93407 21.5139 7.83887 21.8887C8.74378 22.2635 9.7398 22.25 11.3135 22.25H12.6865C14.2602 22.25 15.2562 22.2635 16.1611 21.8887C17.0659 21.5139 17.7605 20.8001 18.873 19.6875L19.6875 18.873C20.8001 17.7605 21.5139 17.0659 21.8887 16.1611Z" fill="currentColor"/><path d="M10.9999 11.9999V7.99994C10.9999 7.44765 11.4477 6.99994 11.9999 6.99994C12.5522 6.99994 12.9999 7.44765 12.9999 7.99994V11.9999C12.9999 12.5522 12.5522 12.9999 11.9999 12.9999C11.4477 12.9999 10.9999 12.5522 10.9999 11.9999Z" fill="currentColor"/><path d="M11.9999 14.7499C12.5522 14.7499 12.9999 15.1977 12.9999 15.7499C12.9999 16.3022 12.5522 16.7499 11.9999 16.7499C11.4477 16.7499 10.9999 16.3022 10.9999 15.7499C10.9999 15.1977 11.4477 14.7499 11.9999 14.7499Z" fill="currentColor"/></svg>
