<svg xmlns="http://www.w3.org/2000/svg" viewBox="0 0 24 24" fill="none"><path d="M12.6865 1.75C14.2602 1.75 15.2562 1.73653 16.1611 2.11133C17.0659 2.48614 17.7605 3.19995 18.873 4.3125L19.6875 5.12695C20.8 6.2395 21.5138 6.9341 21.8887 7.83887C22.2635 8.74377 22.25 9.73984 22.25 11.3135V12.6865C22.25 14.2602 22.2635 15.2562 21.8887 16.1611C21.5139 17.0659 20.8001 17.7605 19.6875 18.873L18.873 19.6875C17.7605 20.8001 17.0659 21.5139 16.1611 21.8887C15.2562 22.2635 14.2602 22.25 12.6865 22.25H11.3135C9.73984 22.25 8.74377 22.2635 7.83887 21.8887C6.9341 21.5138 6.23949 20.8 5.12695 19.6875L4.3125 18.873C3.19995 17.7605 2.48614 17.0659 2.11133 16.1611C1.73653 15.2562 1.75 14.2602 1.75 12.6865V11.3135C1.75 9.73984 1.7365 8.74377 2.11133 7.83887C2.48615 6.93408 3.19993 6.23952 4.3125 5.12695L5.12695 4.3125C6.23952 3.19992 6.93408 2.48615 7.83887 2.11133C8.74377 1.7365 9.73984 1.75 11.3135 1.75H12.6865ZM12 14.75C11.4477 14.75 11 15.1977 11 15.75C11 16.3023 11.4477 16.75 12 16.75C12.5523 16.75 13 16.3023 13 15.75C13 15.1977 12.5523 14.75 12 14.75ZM12 7C11.4477 7 11 7.44772 11 8V12C11 12.5523 11.4477 13 12 13C12.5523 13 13 12.5523 13 12V8C13 7.44772 12.5523 7 12 7Z" fill="currentColor" fill-rule="evenodd" clip-rule="evenodd"/></svg>
