<svg xmlns="http://www.w3.org/2000/svg" viewBox="0 0 24 24" fill="none"><path opacity="0.4" d="M22.2501 12.0526V12V11.9474C22.2501 9.75475 22.2501 8.03277 22.0695 6.68848C21.8844 5.31182 21.497 4.21953 20.6388 3.36133C19.7806 2.50313 18.6883 2.11575 17.3116 1.93066C15.9674 1.74998 14.2454 1.74999 12.0527 1.75H12.0001H11.9475C9.75488 1.74999 8.03289 1.74998 6.6886 1.93066C5.31194 2.11575 4.21965 2.50313 3.36145 3.36133C2.50325 4.21953 2.11587 5.31182 1.93079 6.68848C1.7501 8.03277 1.75011 9.75476 1.75012 11.9474V12V12.0526C1.75011 14.2452 1.7501 15.9672 1.93079 17.3115C2.11587 18.6882 2.50325 19.7805 3.36145 20.6387C4.21965 21.4969 5.31194 21.8842 6.6886 22.0693C8.03289 22.25 9.75488 22.25 11.9475 22.25H12.0001H12.0527C14.2454 22.25 15.9674 22.25 17.3116 22.0693C18.6883 21.8842 19.7806 21.4969 20.6388 20.6387C21.497 19.7805 21.8844 18.6882 22.0695 17.3115C22.2501 15.9672 22.2501 14.2452 22.2501 12.0526Z" fill="currentColor"/><path d="M11 16.5V13.7285L8.6055 15.1113C8.12729 15.3874 7.5155 15.2242 7.23929 14.7461C6.96317 14.2678 7.12729 13.6561 7.6055 13.3799L10.0039 11.9941L7.61039 10.6123C7.13214 10.3362 6.96814 9.72436 7.24418 9.24609C7.52029 8.76786 8.13212 8.60387 8.61039 8.87988L11 10.2588V7.5C11 6.94774 11.4478 6.50005 12 6.5C12.5523 6.5 13 6.94772 13 7.5V10.2646L15.3994 8.87988C15.8777 8.60374 16.4895 8.7678 16.7657 9.24609C17.0416 9.72435 16.8777 10.3352 16.3994 10.6113L14.0039 11.9941L16.4043 13.3799C16.8826 13.656 17.0467 14.2678 16.7705 14.7461C16.4944 15.2243 15.8826 15.3884 15.4043 15.1123L13 13.7236V16.5C13 17.0523 12.5523 17.5 12 17.5C11.4478 17.5 11 17.0523 11 16.5Z" fill="currentColor"/></svg>
