<svg xmlns="http://www.w3.org/2000/svg" viewBox="0 0 24 24" fill="none"><path d="M12.0529 1.75C14.2454 1.74999 15.9674 1.74998 17.3116 1.93066C18.6883 2.11575 19.7806 2.50313 20.6388 3.36133C21.497 4.21953 21.8844 5.31182 22.0695 6.68848C22.2501 8.03274 22.2501 9.75468 22.2501 11.9473V12.0527C22.2501 14.2453 22.2501 15.9673 22.0695 17.3115C21.8844 18.6882 21.497 19.7805 20.6388 20.6387C19.7806 21.4969 18.6883 21.8842 17.3116 22.0693C15.9674 22.25 14.2454 22.25 12.0529 22.25H11.9474C9.7548 22.25 8.03286 22.25 6.6886 22.0693C5.31194 21.8842 4.21965 21.4969 3.36145 20.6387C2.50325 19.7805 2.11587 18.6882 1.93079 17.3115C1.75011 15.9673 1.75011 14.2453 1.75012 12.0527V11.9473C1.75011 9.75468 1.75011 8.03274 1.93079 6.68848C2.11587 5.31182 2.50325 4.21953 3.36145 3.36133C4.21965 2.50313 5.31194 2.11575 6.6886 1.93066C8.03286 1.74998 9.7548 1.74999 11.9474 1.75H12.0529ZM12.0001 6.5C11.4479 6.50005 11.0001 6.94774 11.0001 7.5V10.2588L8.61047 8.87988C8.13222 8.60388 7.52038 8.76789 7.24426 9.24609C6.96823 9.72436 7.13223 10.3362 7.61047 10.6123L10.004 11.9941L7.60559 13.3799C7.12738 13.6561 6.96326 14.2678 7.23938 14.7461C7.5156 15.2242 8.12739 15.3874 8.60559 15.1113L11.0001 13.7285V16.5C11.0001 17.0523 11.4479 17.5 12.0001 17.5C12.5524 17.5 13.0001 17.0523 13.0001 16.5V13.7236L15.4044 15.1123C15.8827 15.3884 16.4945 15.2243 16.7706 14.7461C17.0467 14.2678 16.8826 13.656 16.4044 13.3799L14.004 11.9941L16.3995 10.6113C16.8777 10.3352 17.0416 9.72432 16.7657 9.24609C16.4896 8.76782 15.8778 8.60379 15.3995 8.87988L13.0001 10.2646V7.5C13.0001 6.94774 12.5524 6.50005 12.0001 6.5Z" fill="currentColor"/></svg>
