<svg xmlns="http://www.w3.org/2000/svg" fill="none" viewBox="0 0 48 48">
  <g>
    <path fill="currentColor" fill-opacity="0.4" d="M42.5122 7.50515c-0.1877 -2.67503 -2.1133 -4.74823 -4.6643 -4.97684C34.9088 2.26491 30.3696 2 24 2c-6.3695 0 -10.9088 0.26491 -13.8479 0.5283 -2.55102 0.22862 -4.47654 2.30182 -4.6643 4.97685C5.25044 10.887 5 16.2835 5 24s0.25044 13.113 0.4878 16.4949c0.18775 2.675 2.11327 4.7482 4.6643 4.9768C13.0912 45.7351 17.6304 46 24 46c6.3695 0 10.9088 -0.2649 13.8479 -0.5283 2.551 -0.2286 4.4766 -2.3018 4.6643 -4.9768C42.7496 37.113 43 31.7165 43 24c0 -7.7164 -0.2504 -13.113 -0.4878 -16.49485Z" stroke-width="1"></path>
    <path stroke="currentColor" stroke-linecap="round" stroke-linejoin="round" d="M42.5122 7.50515c-0.1877 -2.67503 -2.1133 -4.74823 -4.6643 -4.97684C34.9088 2.26491 30.3696 2 24 2c-6.3695 0 -10.9088 0.26491 -13.8479 0.5283 -2.55102 0.22862 -4.47654 2.30182 -4.6643 4.97685C5.25044 10.887 5 16.2835 5 24s0.25044 13.113 0.4878 16.4949c0.18775 2.675 2.11327 4.7482 4.6643 4.9768C13.0912 45.7351 17.6304 46 24 46c6.3695 0 10.9088 -0.2649 13.8479 -0.5283 2.551 -0.2286 4.4765 -2.3018 4.6643 -4.9768C42.7496 37.113 43 31.7165 43 24c0 -7.7165 -0.2504 -13.113 -0.4878 -16.49485Z" stroke-width="1"></path>
    <path stroke="currentColor" stroke-linecap="round" stroke-linejoin="round" d="m24 2 0 44" stroke-width="1"></path>
    <path stroke="currentColor" stroke-linecap="round" stroke-linejoin="round" d="M30 23.5v1" stroke-width="1"></path>
    <path stroke="currentColor" stroke-linecap="round" stroke-linejoin="round" d="M18 23.5v1" stroke-width="1"></path>
  </g>
</svg>
