<svg xmlns="http://www.w3.org/2000/svg" fill="none" viewBox="0 0 48 48">
  <g>
    <path fill="currentColor" fill-opacity="0.4" fill-rule="evenodd" d="M24 0.5c6.4191 0 11.0067 0.267305 13.9931 0.53531 3.2961 0.29578 5.7659 2.88682 6.0004 6.15291C44.2379 10.5933 44.5 16.0892 44.5 24c0 7.9109 -0.2621 13.4067 -0.5065 16.8118 -0.2345 3.2661 -2.7043 5.8571 -6.0004 6.1529 -2.9864 0.268 -7.574 0.5353 -13.9931 0.5353s-11.0067 -0.2673 -13.9931 -0.5353c-3.29608 -0.2958 -5.76595 -2.8868 -6.00038 -6.1529C3.76212 37.4067 3.5 31.9108 3.5 24c0 -7.9109 0.26212 -13.4067 0.50653 -16.81179 0.23443 -3.2661 2.70431 -5.85712 6.00037 -6.15291C12.9933 0.767301 17.5809 0.5 24 0.5Z" clip-rule="evenodd" stroke-width="3.429"></path>
    <path fill="currentColor" fill-rule="evenodd" d="m22.5 0.504959 0 46.990041c0.4884 0.0033 0.9884 0.005 1.5 0.005s1.0116 -0.0017 1.5 -0.005l0 -46.990041C25.0116 0.501698 24.5116 0.5 24 0.5s-1.0116 0.001698 -1.5 0.004959ZM18 21.5c-1.1046 0 -2 0.8954 -2 2v1c0 1.1046 0.8954 2 2 2s2 -0.8954 2 -2v-1c0 -1.1046 -0.8954 -2 -2 -2Zm12 0c1.1046 0 2 0.8954 2 2v1c0 1.1046 -0.8954 2 -2 2s-2 -0.8954 -2 -2v-1c0 -1.1046 0.8954 -2 2 -2Z" clip-rule="evenodd" stroke-width="3.429"></path>
  </g>
</svg>
