<svg xmlns="http://www.w3.org/2000/svg" viewBox="0 0 24 24" fill="none"><path d="M19.6725 21.082C19.7555 20.7719 19.7496 20.4166 19.7496 20C19.7496 18.4812 18.5184 17.25 16.9996 17.25H6.99963C5.48085 17.25 4.24963 18.4812 4.24963 20C4.24963 20.4166 4.24372 20.7719 4.32678 21.082C4.53483 21.8585 5.14115 22.4648 5.9176 22.6729C6.22773 22.7559 6.58301 22.75 6.99963 22.75H16.9996C17.4163 22.75 17.7715 22.7559 18.0817 22.6729C18.8581 22.4648 19.4644 21.8585 19.6725 21.082Z" fill="currentColor"/><path opacity="0.4" d="M16 6.25C18.8344 6.25022 20.7499 8.7508 20.75 11.583C20.75 13.3095 19.9603 14.9946 18.9102 16.4844C18.3426 16.1753 17.6917 16.0001 17 16H7C6.30781 16 5.65574 16.1749 5.08789 16.4844C4.03799 14.9947 3.25 13.3093 3.25 11.583C3.25015 8.75068 5.16544 6.25 8 6.25C8.7033 6.25005 9.42269 6.38164 10.1904 6.77246C10.7767 7.07095 11.3711 7.51117 12 8.125C12.6289 7.51116 13.2233 7.07093 13.8096 6.77246C14.5773 6.38169 15.2967 6.25 16 6.25Z" fill="currentColor"/><path d="M12 1.25C12.5521 1.2502 13 1.69784 13 2.25V3.25H14C14.5521 3.2502 15 3.69784 15 4.25C15 4.80216 14.5521 5.2498 14 5.25H13V7.27344C12.6742 7.50966 12.3419 7.79126 12 8.125C11.6581 7.79126 11.3258 7.50966 11 7.27344V5.25H10C9.44772 5.25 9 4.80228 9 4.25C9 3.69772 9.44772 3.25 10 3.25H11V2.25C11 1.69772 11.4477 1.25 12 1.25Z" fill="currentColor"/></svg>
