<svg xmlns="http://www.w3.org/2000/svg" viewBox="0 0 24 24" fill="none"><path d="M10.9991 8.25V5.25H9.99915C9.44686 5.25 8.99915 4.80228 8.99915 4.25C8.99915 3.69772 9.44686 3.25 9.99915 3.25H10.9991V2.25C10.9991 1.69772 11.4469 1.25 11.9991 1.25C12.5514 1.25 12.9991 1.69772 12.9991 2.25V3.25H13.9991C14.5514 3.25 14.9991 3.69772 14.9991 4.25C14.9991 4.80228 14.5514 5.25 13.9991 5.25H12.9991V8.25C12.9991 8.80228 12.5514 9.25 11.9991 9.25C11.4469 9.25 10.9991 8.80228 10.9991 8.25Z" fill="currentColor"/><path d="M19.672 21.082C19.7551 20.7719 19.7491 20.4166 19.7491 20C19.7491 18.4812 18.5179 17.25 16.9991 17.25H6.99915C5.48036 17.25 4.24915 18.4812 4.24915 20C4.24915 20.4166 4.24323 20.7719 4.32629 21.082C4.53435 21.8585 5.14066 22.4648 5.91711 22.6729C6.22724 22.7559 6.58252 22.75 6.99915 22.75H16.9991C17.4158 22.75 17.7711 22.7559 18.0812 22.6729C18.8576 22.4648 19.4639 21.8585 19.672 21.082Z" fill="currentColor"/><path d="M15.9995 6.25C18.8339 6.25022 20.7494 8.7508 20.7495 11.583C20.7495 13.3095 19.9598 14.9946 18.9097 16.4844C18.3421 16.1753 17.6912 16.0001 16.9995 16H6.99951C6.30732 16 5.65525 16.1749 5.0874 16.4844C4.0375 14.9947 3.24951 13.3093 3.24951 11.583C3.24966 8.75068 5.16495 6.25 7.99951 6.25C8.70281 6.25005 9.4222 6.38164 10.1899 6.77246C10.7762 7.07095 11.3706 7.51117 11.9995 8.125C12.6284 7.51116 13.2228 7.07093 13.8091 6.77246C14.5768 6.38169 15.2962 6.25 15.9995 6.25Z" fill="currentColor"/></svg>
