<svg xmlns="http://www.w3.org/2000/svg" viewBox="0 0 24 24" fill="none"><path d="M7.01533 13.248C8.57796 13.248 9.84443 14.5238 9.84464 16.0977L9.82373 17.0006C10.6564 17.3671 11.2389 18.2036 11.2389 19.1773V19.9176C11.2389 20.2253 11.2599 20.2733 11.2442 20.5049C11.2274 20.7519 11.1897 21.0163 11.0803 21.2822C10.841 21.8639 10.3821 22.3263 9.80465 22.5674C9.54056 22.6776 9.27755 22.7156 9.03222 22.7324C8.80231 22.7482 8.52729 22.7481 8.22176 22.748H5.8089C5.50337 22.7481 5.22834 22.7482 4.99843 22.7324C4.7531 22.7156 4.49009 22.6776 4.226 22.5674C3.64851 22.3263 3.18963 21.8639 2.95033 21.2822C2.84097 21.0163 2.80322 20.7519 2.78648 20.5049C2.7708 20.2733 2.74996 20.2253 2.74997 19.9176V19.1773C2.74997 18.2036 3.33248 17.3671 4.16511 17.0006L4.18602 16.0977C4.18623 14.5238 5.45269 13.248 7.01533 13.248ZM7.01533 15.1484C6.49441 15.1484 6.07222 15.574 6.07222 16.0986L6.05132 16.998H7.93752L7.95843 16.0986C7.95843 15.574 7.53624 15.1484 7.01533 15.1484Z" fill="currentColor" fill-rule="evenodd" clip-rule="evenodd"/><path opacity="0.4" d="M12.0896 1.24815L12.0879 1.24815C10.5624 1.24813 9.15452 1.24856 8.17578 1.36338C7.16314 1.48223 6.29458 1.7355 5.55957 2.33116C5.29006 2.54963 5.0445 2.79657 4.82715 3.06749C4.23462 3.80621 3.98252 4.67866 3.86426 5.69639C3.75 6.6801 3.74998 7.91694 3.75 9.4503V13.6407C4.49261 12.6448 5.67631 11.9981 7.01563 11.9981C9.27701 11.9983 11.0944 13.8424 11.0947 16.0978C11.0947 16.1074 11.0949 16.1174 11.0947 16.1271L11.0898 16.3155C11.9401 16.9787 12.4892 18.0136 12.4893 19.1778V19.9181C12.4939 20.0294 12.5028 20.4167 12.4912 20.589C12.4728 20.8605 12.3683 21.3781 12.2363 21.7579C12.0869 22.1211 11.8807 22.454 11.6289 22.7462C11.9354 22.7471 12.2501 22.7482 12.5713 22.7481H12.5866C14.3521 22.7482 15.776 22.7482 16.8965 22.5968C18.0633 22.4391 19.0459 22.1008 19.8262 21.3165C20.6061 20.5323 20.9418 19.5448 21.0986 18.3722C21.2497 17.2426 21.25 15.8062 21.25 14.0245V10.5499C21.251 9.88665 21.2514 9.29769 21.0273 8.75401C20.8033 8.21051 20.3891 7.79445 19.9219 7.32628L15.1387 2.51866C14.7362 2.11306 14.3796 1.75391 13.9248 1.53526C13.8312 1.4903 13.7355 1.44984 13.6377 1.41514C13.1629 1.24671 12.6586 1.24739 12.0896 1.24815Z" fill="currentColor"/><path d="M13.6373 1.416C13.7353 1.45076 13.8314 1.49075 13.9251 1.53582C14.3799 1.75449 14.7362 2.11356 15.1387 2.51921L19.9215 7.32686L19.9215 7.32686C20.3889 7.79521 20.8036 8.21088 21.0277 8.75463C21.1265 8.99435 21.1816 9.24282 21.2122 9.50258H19.2314C17.8638 9.5026 17.2152 9.50181 16.3483 9.38525C15.4481 9.26424 14.6903 9.00534 14.0884 8.40343C13.4864 7.80151 13.2275 7.04364 13.1065 6.14353C12.9902 5.27834 12.9902 4.63063 12.9902 3.2688V3.26877V1.27734C13.2136 1.30042 13.4283 1.34184 13.6373 1.416Z" fill="currentColor"/></svg>
