<svg xmlns="http://www.w3.org/2000/svg" viewBox="0 0 24 24" fill="none"><path d="M7.01484 13.248C8.57747 13.248 9.84394 14.5238 9.84415 16.0977L9.82324 17.0006C10.6559 17.3671 11.2384 18.2036 11.2384 19.1773V19.9176C11.2384 20.2253 11.2594 20.2733 11.2437 20.5049C11.2269 20.7519 11.1892 21.0163 11.0798 21.2822C10.8405 21.8639 10.3817 22.3263 9.80416 22.5674C9.54008 22.6776 9.27706 22.7156 9.03173 22.7324C8.80182 22.7482 8.5268 22.7481 8.22127 22.748H5.80841C5.50288 22.7481 5.22785 22.7482 4.99794 22.7324C4.75261 22.7156 4.4896 22.6776 4.22552 22.5674C3.64802 22.3263 3.18914 21.8639 2.94984 21.2822C2.84048 21.0163 2.80273 20.7519 2.78599 20.5049C2.77031 20.2733 2.74947 20.2253 2.74948 19.9176V19.1773C2.74948 18.2036 3.33199 17.3671 4.16462 17.0006L4.18553 16.0977C4.18574 14.5238 5.4522 13.248 7.01484 13.248ZM7.01484 15.1484C6.49392 15.1484 6.07174 15.574 6.07174 16.0986L6.05083 16.998H7.93704L7.95794 16.0986C7.95794 15.574 7.53575 15.1484 7.01484 15.1484Z" fill="currentColor" fill-rule="evenodd" clip-rule="evenodd"/><path d="M12.0874 1.24815C12.6571 1.24739 13.1619 1.24654 13.6372 1.41514C13.735 1.44984 13.8308 1.4903 13.9243 1.53526C14.3791 1.75391 14.7358 2.11306 15.1382 2.51866L19.9214 7.32628C20.3886 7.79445 20.8028 8.21051 21.0269 8.75401C21.2509 9.29769 21.2505 9.88665 21.2495 10.5499V14.0245C21.2495 15.8062 21.2492 17.2426 21.0981 18.3722C20.9413 19.5448 20.6056 20.5323 19.8257 21.3165C19.0454 22.1008 18.0628 22.4391 16.896 22.5968C15.7722 22.7486 14.3434 22.7482 12.5708 22.7481C12.2496 22.7482 11.935 22.7471 11.6284 22.7462C11.8803 22.454 12.0864 22.1211 12.2358 21.7579C12.3678 21.3781 12.4723 20.8605 12.4907 20.589C12.5024 20.4167 12.4934 20.0294 12.4888 19.9181V19.1778C12.4887 18.0136 11.9396 16.9787 11.0894 16.3155L11.0942 16.1271C11.0945 16.1174 11.0942 16.1074 11.0942 16.0978C11.0939 13.8424 9.27652 11.9983 7.01514 11.9981C5.67582 11.9981 4.49212 12.6448 3.74951 13.6407V9.4503C3.74949 7.91694 3.74951 6.6801 3.86377 5.69639C3.98203 4.67866 4.23413 3.80621 4.82666 3.06749C5.04401 2.79657 5.28957 2.54963 5.55908 2.33116C6.29409 1.7355 7.16265 1.48223 8.17529 1.36338C9.15403 1.24856 10.5619 1.24813 12.0874 1.24815ZM12.9897 3.26866C12.9897 4.62995 12.9897 5.27785 13.106 6.14268C13.2269 7.04251 13.4859 7.80062 14.0874 8.40245C14.6893 9.00436 15.448 9.26385 16.3481 9.38487C17.2149 9.50138 17.8636 9.50208 19.231 9.50206C19.1741 9.36429 19.0685 9.23344 18.4507 8.61241L13.8462 3.9835C13.3133 3.44787 13.1714 3.31455 12.9897 3.25987V3.26866Z" fill="currentColor" fill-rule="evenodd" clip-rule="evenodd"/></svg>
