<svg xmlns="http://www.w3.org/2000/svg" fill="none" viewBox="0 0 14 14">
  <g>
    <path fill="currentColor" fill-opacity="0.4" d="M2.55371 0.238281c2.50903 -0.3155093 4.88355 -0.3155241 7.39258 0C11.173 0.39263 12.1554 1.36501 12.2822 2.59082c0.0734 0.71026 0.1278 1.41392 0.1641 2.11426 -0.7516 -0.03517 -1.4791 -0.04344 -2.2207 -0.02246l-0.83888 0.03515c-1.32587 0.07408 -2.51216 1.13979 -2.52832 2.61621 -0.00507 0.49924 0.01985 0.98681 0.05859 1.45118v0.00097c0.10155 1.21397 0.73857 2.37427 1.72168 3.11817 -0.61938 0.2777 -1.01866 0.8913 -1.03222 1.5605 -1.67883 0.08 -3.3341 0.0169 -5.05274 -0.1992 -1.22676 -0.1542 -2.209047 -1.1267 -2.335937 -2.3525 -0.2902629 -2.8086 -0.2902613 -5.51369 0 -8.32228C0.344645 1.36495 1.32693 0.392557 2.55371 0.238281" stroke-width="1"></path>
    <path fill="currentColor" d="M3.91602 5.26172c1.37969 -0.1228 2.69545 -0.13891 4.05859 -0.04785 -0.65389 0.4622 -1.10529 1.2133 -1.11523 2.12011 -0.00508 0.49925 0.01984 0.98681 0.05859 1.45118v0.00097c0.09046 1.0814 0.60583 2.11967 1.41211 2.85937 -1.4912 0.1191 -2.91473 0.1139 -4.41406 -0.0195 -0.39358 -0.0351 -0.76454 -0.1641 -1.05762 -0.3721 -0.29087 -0.2066 -0.53387 -0.5152 -0.59082 -0.9053 -0.18752 -1.28484 -0.18759 -2.52465 0 -3.80954 0.05716 -0.38981 0.3 -0.69883 0.59082 -0.90527 0.29304 -0.20781 0.66418 -0.33704 1.05762 -0.37207" stroke-width="1"></path>
    <path fill="currentColor" fill-rule="evenodd" d="M2.55371 0.238592c2.50904 -0.3155119 4.88354 -0.3155251 7.39258 0C11.173 0.392938 12.1554 1.36529 12.2822 2.59113c0.0454 0.43927 0.0802 0.87654 0.1114 1.31152 -4.10897 -0.2591 -8.18018 -0.25916 -12.289108 0 0.0312 -0.43503 0.067879 -0.8722 0.113281 -1.31152C0.344628 1.36524 1.32692 0.39287 2.55371 0.238592" clip-rule="evenodd" stroke-width="1"></path>
    <path fill="currentColor" fill-opacity="0.4" d="M3.65625 1.23438c0.34513 0 0.62492 0.27989 0.625 0.625v0.20312c0 0.34518 -0.27982 0.625 -0.625 0.625s-0.625 -0.27982 -0.625 -0.625v-0.20312c0.00008 -0.34511 0.27987 -0.625 0.625 -0.625m2.04102 0c0.94509 -0.02104 1.84201 -0.02104 2.78711 0 0.34495 0.00768 0.61879 0.29375 0.61132 0.63867 -0.00767 0.34493 -0.29379 0.61874 -0.63867 0.61133 -0.92663 -0.02063 -1.80578 -0.02063 -2.73242 0 -0.34499 0.00754 -0.63099 -0.26632 -0.63867 -0.61133 -0.00747 -0.34492 0.26636 -0.631 0.61133 -0.63867" stroke-width="1"></path>
    <path fill="currentColor" fill-rule="evenodd" d="M9.45639 5.96598c1.08611 -0.06012 2.10721 -0.0601 3.19341 0 0.7243 0.0401 1.3405 0.61643 1.3486 1.38184 0.0046 0.44917 -0.0192 0.89373 -0.0557 1.33105 -0.1022 1.22574 -0.9597 2.34743 -2.1406 2.69043v1.0029c0.258 0.0317 0.5183 0.0803 0.7822 0.1446 0.4019 0.0982 0.6485 0.5041 0.5508 0.9062 -0.0981 0.4021 -0.504 0.6485 -0.9062 0.5508 -0.8083 -0.1967 -1.5443 -0.1967 -2.35258 0 -0.40235 0.0979 -0.80814 -0.1485 -0.90625 -0.5508 -0.09787 -0.4024 0.14935 -0.8083 0.55175 -0.9062 0.2634 -0.0641 0.52288 -0.1119 0.78028 -0.1436v-1.0049c-1.17915 -0.3431 -2.0364 -1.46261 -2.13867 -2.6865 -0.03659 -0.43816 -0.05927 -0.88392 -0.05469 -1.33398 0.00809 -0.76523 0.62355 -1.34149 1.34765 -1.38184" clip-rule="evenodd" stroke-width="1"></path>
  </g>
</svg>
