<svg xmlns="http://www.w3.org/2000/svg" fill="none" viewBox="0 0 14 14">
  <g>
    <path stroke="currentColor" stroke-linecap="round" stroke-linejoin="round" d="M11.8709 3.91998C8.11148 3.64649 4.38835 3.64647 0.628906 3.91991" stroke-width="1"></path>
    <path stroke="currentColor" stroke-linecap="round" stroke-linejoin="round" d="M11.9218 4.28322c-0.0343 -0.54428 -0.0799 -1.09105 -0.1369 -1.64194 -0.1019 -0.98644 -0.8965 -1.781237 -1.90098 -1.907555 -2.4677 -0.310331 -4.80014 -0.310331 -7.26784 0C1.61162 0.860043 0.817035 1.65484 0.715081 2.64128c-0.286775 2.77463 -0.286775 5.44476 0 8.21942 0.101954 0.9864 0.896539 1.7812 1.900999 1.9075 1.61855 0.2036 3.17891 0.2736 4.75742 0.2101" stroke-width="1"></path>
    <path stroke="currentColor" stroke-linecap="round" stroke-linejoin="round" d="M7.1549 5.66988c-1.19556 -0.03595 -2.37976 -0.00078 -3.59753 0.10551 -0.41927 0.0366 -0.76072 0.36023 -0.8217 0.77666 -0.18955 1.29462 -0.18955 2.48888 0 3.78345 0.06098 0.4165 0.40243 0.7401 0.8217 0.7767 1.35552 0.1183 2.66946 0.1485 4.00376 0.0906" stroke-width="1"></path>
    <path stroke="currentColor" stroke-linecap="round" d="m3.65625 2.10938 0 0.20312" stroke-width="1"></path>
    <path stroke="currentColor" stroke-linecap="round" d="M5.71094 2.10937c0.93591 -0.02083 1.82361 -0.02083 2.75952 0" stroke-width="1"></path>
    <path stroke="currentColor" stroke-linecap="round" stroke-linejoin="round" d="M8.66237 8.63982c0.10451 1.25168 1.13417 2.33898 2.39023 2.33898 1.2573 0 2.2882 -1.08826 2.3927 -2.34128 0.0356 -0.42747 0.0578 -0.85527 0.0534 -1.28435 -0.0049 -0.48245 -0.3942 -0.86127 -0.8759 -0.88793 -1.068 -0.05912 -2.0702 -0.05912 -3.13817 0 -0.48174 0.02666 -0.87103 0.40548 -0.87593 0.88793 -0.00437 0.42985 0.01792 0.85842 0.05367 1.28665" stroke-width="1"></path>
    <path stroke="currentColor" stroke-linecap="round" stroke-linejoin="round" d="M12.7493 13.4998c-1.1594 -0.2823 -2.2339 -0.2823 -3.3933 0" stroke-width="1"></path>
    <path stroke="currentColor" stroke-linecap="round" stroke-linejoin="round" d="m11.0525 13.2881 0 -2.3083" stroke-width="1"></path>
  </g>
</svg>
