<svg xmlns="http://www.w3.org/2000/svg" fill="none" viewBox="0 0 14 14">
  <g>
    <path fill="currentColor" d="M9.45776 5.96777c1.08594 -0.06008 2.10734 -0.0601 3.19334 0 0.724 0.0405 1.3406 0.61665 1.3487 1.38184 0.0045 0.44897 -0.0193 0.89392 -0.0557 1.33105 -0.1024 1.22543 -0.961 2.34644 -2.1416 2.68944v1.0039c0.2578 0.0317 0.5184 0.0803 0.7822 0.1446 0.4018 0.0984 0.6486 0.5042 0.5508 0.9062 -0.0984 0.4016 -0.5044 0.6482 -0.9063 0.5508 -0.8081 -0.1967 -1.5444 -0.1967 -2.35249 0 -0.40201 0.0976 -0.80787 -0.1491 -0.90625 -0.5508 -0.09795 -0.4023 0.14949 -0.8081 0.55176 -0.9062 0.2632 -0.0641 0.52298 -0.1119 0.78028 -0.1436v-1.0059c-1.17877 -0.3431 -2.03515 -1.46201 -2.13771 -2.68551 -0.03657 -0.438 -0.05923 -0.88409 -0.05468 -1.33398 0.00801 -0.76542 0.62336 -1.34164 1.34765 -1.38184M2.6228 0.233398c2.47089 -0.3106821 4.81036 -0.310693 7.28125 0C11.1666 0.392375 12.1811 1.39289 12.3123 2.65918c0.0503 0.48737 0.0914 0.97265 0.124 1.45508 0.023 0.34404 -0.2371 0.64247 -0.5811 0.66601 -0.3442 0.02318 -0.6425 -0.23788 -0.666 -0.58203 -0.0022 -0.03229 -0.0055 -0.06535 -0.0078 -0.09765 -3.28408 -0.16552 -6.55024 -0.16718 -9.83399 -0.00489 -0.15562 2.21543 -0.12004 4.3831 0.11133 6.6221 0.06916 0.6673 0.61301 1.2253 1.31934 1.3144 1.5285 0.1922 3.00128 0.2607 4.4873 0.2051 0.34436 -0.0125 0.63413 0.2563 0.64746 0.6006 0.01269 0.3445 -0.25616 0.6351 -0.60058 0.6484 -1.5567 0.0583 -3.09693 -0.0136 -4.68946 -0.2138 -1.26262 -0.1589 -2.277101 -1.1594 -2.4082 -2.4258 -0.2855303 -2.76291 -0.2855409 -5.42463 0 -8.18752C0.345708 1.39277 1.36013 0.392251 2.6228 0.233398M7.44507 5.70801c-0.30426 0.37276 -0.51139 0.83388 -0.56934 1.35547l-0.0166 0.27246c-0.00505 0.49927 0.01983 0.98669 0.05859 1.45117 0.07007 0.83657 0.39277 1.64319 0.90528 2.30669 -1.27611 0.0804 -2.51041 0.0653 -3.80469 -0.0499 -0.62021 -0.0553 -1.11152 -0.4029 -1.1748 -0.8339 -0.17718 -1.21332 -0.17716 -2.38149 0 -3.59477 0.06298 -0.43128 0.55437 -0.77864 1.1748 -0.83398 1.1661 -0.10378 2.28363 -0.12823 3.42676 -0.07324M3.71948 1.57129c-0.34467 0.00033 -0.62464 0.28033 -0.625 0.625v0.19922c0.00012 0.34487 0.28018 0.62466 0.625 0.625 0.34511 0 0.62489 -0.27992 0.625 -0.625v-0.19922c-0.00036 -0.34487 -0.28004 -0.625 -0.625 -0.625m4.73438 0.00098c-0.92668 -0.02063 -1.80672 -0.02063 -2.7334 0 -0.3447 0.00786 -0.61864 0.294 -0.61133 0.63867 0.00779 0.34478 0.29393 0.61867 0.63867 0.61133 0.90813 -0.02022 1.76963 -0.02021 2.67774 0 0.34501 0.00767 0.63087 -0.26635 0.63867 -0.61133 0.00732 -0.34473 -0.26557 -0.63089 -0.61035 -0.63867" stroke-width="1"></path>
  </g>
</svg>
