<svg xmlns="http://www.w3.org/2000/svg" fill="none" viewBox="0 0 14 14">
  <g>
    <path fill="currentColor" d="M9.45703 5.96484c1.08617 -0.06012 2.10717 -0.06011 3.19337 0 0.7241 0.04012 1.3402 0.61674 1.3486 1.38184 0.0046 0.44896 -0.0192 0.89394 -0.0556 1.33105 -0.1022 1.22554 -0.9601 2.34727 -2.1407 2.69047v1.0029c0.2579 0.0317 0.5184 0.0803 0.7823 0.1445 0.4015 0.0983 0.648 0.5045 0.5507 0.9063 -0.098 0.402 -0.5041 0.6483 -0.9062 0.5508 -0.8081 -0.1967 -1.5445 -0.1966 -2.35255 0 -0.40234 0.0979 -0.80814 -0.1486 -0.90625 -0.5508 -0.09757 -0.4023 0.14951 -0.8083 0.55176 -0.9063 0.26322 -0.064 0.52304 -0.1119 0.78024 -0.1435v-1.0049c-1.17924 -0.3431 -2.03636 -1.46256 -2.13864 -2.68654 -0.03655 -0.43798 -0.05926 -0.88411 -0.05468 -1.33398 0.0084 -0.76504 0.6236 -1.34166 1.34765 -1.38184M0.0498047 4.79395C3.51651 4.57033 6.95595 4.53379 10.4131 4.67969c-0.0623 0.00137 -0.1251 0.00214 -0.1875 0.0039l-0.83888 0.03516c-0.74755 0.04183 -1.45076 0.39873 -1.92481 0.9668 -1.17531 -0.05627 -2.32485 -0.03145 -3.52343 0.07519 -0.35474 0.0316 -0.68196 0.14808 -0.93457 0.32715 -0.25156 0.1785 -0.44454 0.43245 -0.48926 0.73731 -0.18403 1.26081 -0.18402 2.47649 0 3.7373 0.04467 0.3048 0.23777 0.5588 0.48926 0.7373 0.25259 0.179 0.57989 0.2956 0.93457 0.3272 1.49147 0.1327 2.90671 0.1371 4.39062 0.0175 0.09916 0.0911 0.20185 0.1793 0.30957 0.2608 -0.61939 0.2777 -1.0188 0.8912 -1.03222 1.5605 -1.67874 0.08 -3.33431 0.0159 -5.05274 -0.2002 -1.22653 -0.1544 -2.209024 -1.1269 -2.335937 -2.3525C0.00403862 8.84486 -0.0512596 6.8325 0.0498047 4.79395M2.55371 0.238281c2.50883 -0.3154744 4.88375 -0.3154628 7.39258 0C11.1728 0.392677 12.1552 1.36519 12.2822 2.59082c0.0324 0.31309 0.0598 0.62573 0.085 0.93652 -4.09 -0.2507 -8.14444 -0.24747 -12.235364 0.00977 0.025331 -0.31408 0.053238 -0.62987 0.085937 -0.94629C0.344718 1.36517 1.32718 0.392703 2.55371 0.238281m1.10254 0.997069c-0.3449 0.00023 -0.62487 0.28008 -0.625 0.625v0.20313c0.00023 0.34484 0.28016 0.62477 0.625 0.625 0.34491 -0.00015 0.62477 -0.28011 0.625 -0.625v-0.20313c-0.00013 -0.34497 -0.28003 -0.62485 -0.625 -0.625m4.82813 0c-0.94486 -0.02102 -1.84226 -0.02102 -2.78711 0 -0.34474 0.0079 -0.61874 0.29394 -0.61133 0.63867 0.0079 0.34467 0.29401 0.61865 0.63867 0.61133 0.9264 -0.02062 1.80603 -0.02061 2.73242 0 0.34461 0.00726 0.63077 -0.26669 0.63867 -0.61133 0.00742 -0.34478 -0.26653 -0.63084 -0.61132 -0.63867" stroke-width="1"></path>
  </g>
</svg>
