<svg xmlns="http://www.w3.org/2000/svg" viewBox="0 0 24 24" fill="none"><path d="M20.7502 12C20.7502 10.312 20.09 8.7915 19.0305 7.69437C18.6471 7.29709 18.6578 6.66388 19.0549 6.28031C19.4522 5.89667 20.0853 5.90844 20.469 6.3057C21.8809 7.7678 22.7502 9.78281 22.7502 12C22.7502 14.2173 21.8809 16.2323 20.469 17.6944C20.0853 18.0916 19.4522 18.1034 19.0549 17.7198C18.6578 17.3362 18.6471 16.703 19.0305 16.3057C20.09 15.2086 20.7502 13.688 20.7502 12ZM16.7502 12C16.7502 11.4475 16.5273 10.949 16.1643 10.586C15.7738 10.1955 15.7739 9.56245 16.1643 9.17191C16.5548 8.78139 17.1879 8.78139 17.5784 9.17191C18.3011 9.89467 18.7502 10.8958 18.7502 12C18.7502 13.1043 18.3011 14.1054 17.5784 14.8282C17.1878 15.2187 16.5548 15.2187 16.1643 14.8282C15.7739 14.4376 15.7738 13.8046 16.1643 13.4141C16.5273 13.0511 16.7502 12.5525 16.7502 12Z" fill="currentColor"/><path opacity="0.4" d="M11 17.75C12.5188 17.75 13.75 16.5188 13.75 15V9.5C13.75 6.04822 10.9518 3.25 7.5 3.25C4.04822 3.25 1.25 6.04822 1.25 9.5C1.25 10.5108 1.49033 11.4678 1.91797 12.3145C2.34666 13.1632 2.57917 13.9564 2.4209 14.666L1.26758 19.8369C1.21814 20.0589 1.2728 20.2912 1.41504 20.4688C1.55738 20.6463 1.77241 20.75 2 20.75H9C9.41421 20.75 9.75 20.4142 9.75 20V19C9.75 18.5076 9.75197 18.2136 9.78027 18.0029C9.79325 17.9064 9.80842 17.8577 9.81738 17.8359C9.81944 17.8309 9.82126 17.8271 9.82227 17.8252L9.82324 17.8232L9.8252 17.8223C9.82712 17.8213 9.83095 17.8194 9.83594 17.8174C9.85772 17.8084 9.90637 17.7933 10.0029 17.7803C10.2136 17.752 10.5076 17.75 11 17.75Z" fill="currentColor"/></svg>
