<svg xmlns="http://www.w3.org/2000/svg" viewBox="0 0 24 24" fill="none"><path d="M20.7498 12C20.7498 10.312 20.0895 8.7915 19.03 7.69437C18.6466 7.29709 18.6573 6.66388 19.0544 6.28031C19.4517 5.89667 20.0849 5.90844 20.4685 6.3057C21.8804 7.7678 22.7498 9.78281 22.7498 12C22.7498 14.2173 21.8804 16.2323 20.4685 17.6944C20.0849 18.0916 19.4517 18.1034 19.0544 17.7198C18.6573 17.3362 18.6466 16.703 19.03 16.3057C20.0895 15.2086 20.7498 13.688 20.7498 12ZM16.7498 12C16.7498 11.4475 16.5268 10.949 16.1638 10.586C15.7733 10.1955 15.7734 9.56245 16.1638 9.17191C16.5543 8.78139 17.1874 8.78139 17.5779 9.17191C18.3006 9.89467 18.7498 10.8958 18.7498 12C18.7498 13.1043 18.3006 14.1054 17.5779 14.8282C17.1874 15.2187 16.5543 15.2187 16.1638 14.8282C15.7734 14.4376 15.7733 13.8046 16.1638 13.4141C16.5268 13.0511 16.7498 12.5525 16.7498 12Z" fill="currentColor"/><path d="M10.9995 17.75C12.5183 17.75 13.7495 16.5188 13.7495 15V9.5C13.7495 6.04822 10.9513 3.25 7.49951 3.25C4.04773 3.25 1.24951 6.04822 1.24951 9.5C1.24951 10.5108 1.48985 11.4678 1.91748 12.3145C2.34617 13.1632 2.57868 13.9564 2.42041 14.666L1.26709 19.8369C1.21765 20.0589 1.27231 20.2912 1.41455 20.4688C1.55689 20.6463 1.77192 20.75 1.99951 20.75H8.99951C9.41372 20.75 9.74951 20.4142 9.74951 20V19C9.74951 18.5076 9.75148 18.2136 9.77979 18.0029C9.79277 17.9064 9.80793 17.8577 9.81689 17.8359C9.81895 17.8309 9.82077 17.8271 9.82178 17.8252L9.82275 17.8232L9.82471 17.8223C9.82663 17.8213 9.83046 17.8194 9.83545 17.8174C9.85723 17.8084 9.90588 17.7933 10.0024 17.7803C10.2131 17.752 10.5071 17.75 10.9995 17.75Z" fill="currentColor"/></svg>
