<svg xmlns="http://www.w3.org/2000/svg" viewBox="0 0 24 24" fill="none"><path d="M2.03316 12.9964C2.56201 12.889 3.07852 13.231 3.18597 13.7599C3.97608 17.6525 7.33806 20.6111 11.4198 20.7869L11.1507 20.5445C10.7496 20.1834 10.7172 19.5656 11.0781 19.1644C11.4392 18.7633 12.0569 18.7309 12.4581 19.0919L14.4125 20.8508C14.6869 21.0978 14.7988 21.4786 14.7017 21.8348C14.6044 22.1907 14.3151 22.4618 13.9535 22.5353C13.2584 22.6764 12.5394 22.75 11.8044 22.75C6.6029 22.7499 2.26583 19.0563 1.26971 14.1492C1.16236 13.6204 1.50435 13.1038 2.03316 12.9964ZM12.1956 1.25C17.3971 1.25007 21.7342 4.94368 22.7303 9.85076C22.8376 10.3796 22.4957 10.8962 21.9668 11.0036C21.438 11.111 20.9215 10.769 20.814 10.2401C20.0239 6.34723 16.6614 3.3875 12.5793 3.21218L12.8493 3.45554C13.2504 3.81662 13.2828 4.43442 12.9219 4.83556C12.5608 5.23674 11.9431 5.26913 11.5419 4.90809L9.5875 3.14919C9.31313 2.90225 9.20121 2.52138 9.29834 2.16524C9.39556 1.8093 9.68493 1.53816 10.0465 1.46473C10.7416 1.32362 11.4607 1.25 12.1956 1.25Z" fill="currentColor"/><path opacity="0.4" d="M14.4473 7.71777C14.1508 7.12491 13.5447 6.75001 12.8818 6.75H11.1182C10.4553 6.75 9.84917 7.12491 9.55274 7.71777L9.52442 7.77246C9.44579 7.77662 9.36992 7.78016 9.29688 7.78613C8.83363 7.82398 8.41515 7.9054 8.02442 8.10449C7.41305 8.41605 6.91606 8.91305 6.60449 9.52441C6.40541 9.91515 6.32399 10.3336 6.28614 10.7969C6.24996 11.2397 6.24998 11.7835 6.25 12.4472L6.25 12.5L6.25 12.5528C6.24998 13.2165 6.24996 13.7603 6.28614 14.2031C6.32399 14.6664 6.40541 15.0849 6.60449 15.4756C6.91605 16.087 7.41305 16.5839 8.02442 16.8955C8.41515 17.0946 8.83363 17.176 9.29688 17.2139C9.73969 17.25 10.2835 17.25 10.9472 17.25L11 17.25H13L13.0528 17.25C13.7165 17.25 14.2603 17.25 14.7031 17.2139C15.1664 17.176 15.5849 17.0946 15.9756 16.8955C16.587 16.5839 17.084 16.087 17.3955 15.4756C17.5946 15.0849 17.676 14.6664 17.7139 14.2031C17.75 13.7603 17.75 13.2165 17.75 12.5528L17.75 12.5L17.75 12.4472C17.75 11.7835 17.75 11.2397 17.7139 10.7969C17.676 10.3336 17.5946 9.91515 17.3955 9.52441C17.0839 8.91305 16.587 8.41605 15.9756 8.10449C15.5849 7.90541 15.1664 7.82398 14.7031 7.78613C14.6298 7.78014 14.5536 7.77663 14.4746 7.77246L14.4473 7.71777Z" fill="currentColor"/><path d="M10 12.5C10 11.3954 10.8954 10.5 12 10.5C13.1046 10.5 14 11.3954 14 12.5C14 13.6046 13.1046 14.5 12 14.5C10.8954 14.5 10 13.6046 10 12.5Z" fill="currentColor"/></svg>
