<svg xmlns="http://www.w3.org/2000/svg" viewBox="0 0 24 24" fill="none"><path d="M2.03267 12.9964C2.56152 12.889 3.07803 13.231 3.18548 13.7599C3.97559 17.6525 7.33757 20.6111 11.4193 20.7869L11.1502 20.5445C10.7492 20.1834 10.7167 19.5656 11.0776 19.1644C11.4387 18.7633 12.0564 18.7309 12.4576 19.0919L14.412 20.8508C14.6864 21.0978 14.7983 21.4786 14.7012 21.8348C14.6039 22.1907 14.3146 22.4618 13.953 22.5353C13.2579 22.6764 12.5389 22.75 11.8039 22.75C6.60242 22.7499 2.26534 19.0563 1.26922 14.1492C1.16187 13.6204 1.50386 13.1038 2.03267 12.9964ZM12.1951 1.25C17.3966 1.25007 21.7337 4.94368 22.7298 9.85076C22.8372 10.3796 22.4952 10.8962 21.9664 11.0036C21.4375 11.111 20.921 10.769 20.8135 10.2401C20.0234 6.34723 16.6609 3.3875 12.5788 3.21218L12.8489 3.45554C13.2499 3.81662 13.2824 4.43442 12.9214 4.83556C12.5603 5.23674 11.9426 5.26913 11.5414 4.90809L9.58701 3.14919C9.31264 2.90225 9.20072 2.52138 9.29785 2.16524C9.39507 1.8093 9.68444 1.53816 10.046 1.46473C10.7412 1.32362 11.4602 1.25 12.1951 1.25Z" fill="currentColor"/><path d="M12.8813 6.75C13.5442 6.75001 14.1503 7.12491 14.4468 7.71777L14.4741 7.77246C14.5531 7.77663 14.6293 7.78014 14.7026 7.78613C15.1659 7.82398 15.5844 7.90541 15.9751 8.10449C16.5865 8.41605 17.0835 8.91305 17.395 9.52441C17.5941 9.91515 17.6755 10.3336 17.7134 10.7969C17.7496 11.2397 17.7495 11.7836 17.7495 12.4473V12.5527C17.7495 13.2164 17.7496 13.7603 17.7134 14.2031C17.6755 14.6664 17.5941 15.0849 17.395 15.4756C17.0835 16.087 16.5865 16.5839 15.9751 16.8955C15.5844 17.0946 15.1659 17.176 14.7026 17.2139C14.2598 17.25 13.7159 17.25 13.0522 17.25H10.9468C10.2831 17.25 9.7392 17.25 9.29639 17.2139C8.83314 17.176 8.41466 17.0946 8.02393 16.8955C7.41256 16.5839 6.91556 16.087 6.60401 15.4756C6.40492 15.0849 6.3235 14.6664 6.28565 14.2031C6.24947 13.7603 6.24949 13.2164 6.24951 12.5527V12.4473C6.24949 11.7836 6.24947 11.2397 6.28565 10.7969C6.3235 10.3336 6.40492 9.91515 6.60401 9.52441C6.91557 8.91305 7.41256 8.41605 8.02393 8.10449C8.41466 7.9054 8.83314 7.82398 9.29639 7.78613C9.36943 7.78017 9.4453 7.77662 9.52393 7.77246L9.55225 7.71777C9.84868 7.12491 10.4548 6.75 11.1177 6.75H12.8813ZM11.9995 10.5C10.8949 10.5 9.99951 11.3954 9.99951 12.5C9.99951 13.6046 10.8949 14.5 11.9995 14.5C13.1041 14.5 13.9995 13.6046 13.9995 12.5C13.9995 11.3954 13.1041 10.5 11.9995 10.5Z" fill="currentColor" fill-rule="evenodd" clip-rule="evenodd"/></svg>
