<svg xmlns="http://www.w3.org/2000/svg" viewBox="0 0 24 24" fill="none"><path d="M11.25 19.9C11.25 19.3753 11.6753 18.95 12.2 18.95C12.6918 18.95 13.0966 19.3237 13.1454 19.8026L13.1546 19.9974C13.2001 20.4443 13.5557 20.7999 14.0026 20.8454L14.1974 20.8546C14.6763 20.9034 15.05 21.3082 15.05 21.8C15.05 22.3247 14.6247 22.75 14.1 22.75C12.526 22.75 11.25 21.474 11.25 19.9ZM18.8546 19.8026C18.9034 19.3237 19.3082 18.95 19.8 18.95C20.3247 18.95 20.75 19.3753 20.75 19.9C20.75 21.474 19.474 22.75 17.9 22.75C17.3753 22.75 16.95 22.3247 16.95 21.8C16.95 21.3082 17.3237 20.9034 17.8026 20.8546L17.9974 20.8454C18.4443 20.7999 18.7999 20.4443 18.8454 19.9974L18.8546 19.8026ZM11.25 16.1C11.25 14.526 12.526 13.25 14.1 13.25C14.6247 13.25 15.05 13.6753 15.05 14.2C15.05 14.6918 14.6763 15.0966 14.1974 15.1454L14.0026 15.1546C13.5557 15.2001 13.2001 15.5557 13.1546 16.0026L13.1454 16.1974C13.0966 16.6763 12.6918 17.05 12.2 17.05C11.6753 17.05 11.25 16.6247 11.25 16.1ZM18.8454 16.0026C18.7999 15.5557 18.4443 15.2001 17.9974 15.1546L17.8026 15.1454C17.3237 15.0966 16.95 14.6918 16.95 14.2C16.95 13.6753 17.3753 13.25 17.9 13.25C19.474 13.25 20.75 14.526 20.75 16.1C20.75 16.6247 20.3247 17.05 19.8 17.05C19.3082 17.05 18.9034 16.6763 18.8546 16.1974L18.8454 16.0026Z" fill="currentColor"/><path opacity="0.4" d="M11.5898 1.2501L11.5879 1.2501C10.0624 1.25008 8.65457 1.25052 7.67583 1.36534C6.66316 1.48419 5.79463 1.73743 5.05962 2.33311C4.79009 2.5516 4.54455 2.7985 4.32719 3.06944C3.73464 3.80819 3.48256 4.68057 3.3643 5.69835C3.25004 6.68207 3.25003 7.91884 3.25005 9.45225V14.0265C3.25002 15.8083 3.25035 17.2445 3.40141 18.3741C3.55827 19.5469 3.89381 20.5342 4.67387 21.3185C5.45412 22.1028 6.43678 22.441 7.60356 22.5987C8.5289 22.7238 9.75768 22.7444 11.1524 22.7481C10.4396 22.0106 10.0001 21.0072 10 19.9005C10 19.0885 10.4413 18.3813 11.0957 18.0001C10.4413 17.6189 10 16.9117 10 16.0997C10.0003 13.8357 11.8356 12.0003 14.0997 12.0001C14.9116 12.0001 15.6189 12.4414 16 13.0958C16.3812 12.4414 17.0885 12.0001 17.9004 12.0001C19.0081 12.0002 20.0123 12.4405 20.75 13.1544V10.5519C20.7511 9.88856 20.7514 9.29967 20.5274 8.75596C20.3033 8.21242 19.8891 7.79643 19.4219 7.32823L14.6387 2.52061C14.2363 2.11499 13.8797 1.75587 13.4249 1.53721C13.3313 1.49224 13.2355 1.4518 13.1377 1.4171C12.6629 1.24866 12.1588 1.24934 11.5898 1.2501Z" fill="currentColor"/><path d="M13.1373 1.416C13.2353 1.45076 13.3314 1.49075 13.4251 1.53582C13.8799 1.75449 14.2362 2.11356 14.6387 2.51921L19.4215 7.32686L19.4215 7.32686C19.8889 7.79521 20.3036 8.21088 20.5277 8.75463C20.6265 8.99435 20.6816 9.24282 20.7122 9.50258H18.7314C17.3638 9.5026 16.7152 9.50181 15.8483 9.38525C14.9481 9.26424 14.1903 9.00534 13.5884 8.40343C12.9864 7.80151 12.7275 7.04364 12.6065 6.14353C12.4902 5.27834 12.4902 4.63063 12.4902 3.2688V3.26877V1.27734C12.7136 1.30042 12.9283 1.34184 13.1373 1.416Z" fill="currentColor"/></svg>
