<svg xmlns="http://www.w3.org/2000/svg" viewBox="0 0 24 24" fill="none"><path d="M11.2495 19.9C11.2495 19.3753 11.6748 18.95 12.1995 18.95C12.6913 18.95 13.0961 19.3237 13.1449 19.8026L13.1542 19.9974C13.1997 20.4443 13.5552 20.7999 14.0021 20.8454L14.1969 20.8546C14.6758 20.9034 15.0495 21.3082 15.0495 21.8C15.0495 22.3247 14.6242 22.75 14.0995 22.75C12.5255 22.75 11.2495 21.474 11.2495 19.9ZM18.8542 19.8026C18.9029 19.3237 19.3077 18.95 19.7995 18.95C20.3242 18.95 20.7495 19.3753 20.7495 19.9C20.7495 21.474 19.4735 22.75 17.8995 22.75C17.3748 22.75 16.9495 22.3247 16.9495 21.8C16.9495 21.3082 17.3232 20.9034 17.8021 20.8546L17.9969 20.8454C18.4438 20.7999 18.7994 20.4443 18.8449 19.9974L18.8542 19.8026ZM11.2495 16.1C11.2495 14.526 12.5255 13.25 14.0995 13.25C14.6242 13.25 15.0495 13.6753 15.0495 14.2C15.0495 14.6918 14.6758 15.0966 14.1969 15.1454L14.0021 15.1546C13.5552 15.2001 13.1997 15.5557 13.1542 16.0026L13.1449 16.1974C13.0961 16.6763 12.6913 17.05 12.1995 17.05C11.6748 17.05 11.2495 16.6247 11.2495 16.1ZM18.8449 16.0026C18.7994 15.5557 18.4438 15.2001 17.9969 15.1546L17.8021 15.1454C17.3232 15.0966 16.9495 14.6918 16.9495 14.2C16.9495 13.6753 17.3748 13.25 17.8995 13.25C19.4735 13.25 20.7495 14.526 20.7495 16.1C20.7495 16.6247 20.3242 17.05 19.7995 17.05C19.3077 17.05 18.9029 16.6763 18.8542 16.1974L18.8449 16.0026Z" fill="currentColor"/><path d="M11.5874 1.2501C12.1572 1.24934 12.6619 1.24848 13.1373 1.4171C13.2351 1.4518 13.3308 1.49224 13.4244 1.53721C13.8792 1.75587 14.2358 2.11499 14.6382 2.52061L19.4214 7.32823C19.8886 7.79643 20.3028 8.21242 20.5269 8.75596C20.7509 9.29967 20.7506 9.88856 20.7496 10.5519V13.1544C20.0118 12.4405 19.0076 12.0002 17.8999 12.0001C17.088 12.0001 16.3808 12.4414 15.9996 13.0958C15.6184 12.4414 14.9111 12.0001 14.0992 12.0001C11.8351 12.0003 9.99977 13.8357 9.99956 16.0997C9.99956 16.9117 10.4408 17.6189 11.0953 18.0001C10.4408 18.3813 9.99956 19.0885 9.99956 19.9005C9.99966 21.0072 10.4391 22.0106 11.1519 22.7481C9.7572 22.7444 8.52842 22.7238 7.60307 22.5987C6.43629 22.441 5.45363 22.1028 4.67339 21.3185C3.89332 20.5342 3.55778 19.5469 3.40093 18.3741C3.24986 17.2445 3.24953 15.8083 3.24956 14.0265V9.45225C3.24954 7.91884 3.24955 6.68207 3.36382 5.69835C3.48208 4.68057 3.73416 3.80819 4.32671 3.06944C4.54407 2.7985 4.7896 2.5516 5.05913 2.33311C5.79414 1.73743 6.66267 1.48419 7.67534 1.36534C8.65408 1.25052 10.0619 1.25008 11.5874 1.2501ZM12.4898 3.27061C12.4898 4.63196 12.4898 5.27975 12.606 6.14463C12.727 7.04449 12.9859 7.80257 13.5874 8.4044C14.1894 9.00631 14.9481 9.26581 15.8482 9.38682C16.715 9.50333 17.3636 9.50403 18.731 9.50401C18.6742 9.36621 18.5687 9.23553 17.9507 8.61436L13.3462 3.98546C12.8133 3.44978 12.6714 3.31651 12.4898 3.26182V3.27061Z" fill="currentColor" fill-rule="evenodd" clip-rule="evenodd"/></svg>
