<svg xmlns="http://www.w3.org/2000/svg" viewBox="0 0 24 24" fill="none"><path d="M8.50012 20V4C8.50012 3.44772 8.94784 3 9.50012 3C10.0524 3 10.5001 3.44772 10.5001 4V20C10.5001 20.5523 10.0524 21 9.50012 21C8.94784 21 8.50012 20.5523 8.50012 20Z" fill="currentColor"/><path d="M3.50012 20V4C3.50012 3.44772 3.94784 3 4.50012 3C5.05241 3 5.50012 3.44772 5.50012 4V20C5.50012 20.5523 5.05241 21 4.50012 21C3.94784 21 3.50012 20.5523 3.50012 20Z" fill="currentColor"/><path d="M13.5001 20V4C13.5001 3.44772 13.9478 3 14.5001 3C15.0524 3 15.5001 3.44772 15.5001 4V20C15.5001 20.5523 15.0524 21 14.5001 21C13.9478 21 13.5001 20.5523 13.5001 20Z" fill="currentColor"/><path d="M18.5001 20V4C18.5001 3.44772 18.9478 3 19.5001 3C20.0524 3 20.5001 3.44772 20.5001 4V20C20.5001 20.5523 20.0524 21 19.5001 21C18.9478 21 18.5001 20.5523 18.5001 20Z" fill="currentColor"/></svg>
