<svg xmlns="http://www.w3.org/2000/svg" viewBox="0 0 24 24" fill="none"><path d="M10.9998 15V3C10.9998 2.44772 11.4475 2 11.9998 2C12.552 2 12.9998 2.44772 12.9998 3V15C12.9998 15.5523 12.552 16 11.9998 16C11.4475 16 10.9998 15.5523 10.9998 15Z" fill="currentColor"/><path opacity="0.4" d="M9.99976 20C9.99976 18.8954 10.8952 18 11.9998 18C13.1043 18 13.9998 18.8954 13.9998 20C13.9998 21.1046 13.1043 22 11.9998 22C10.8952 22 9.99976 21.1046 9.99976 20Z" fill="currentColor"/><path d="M11.9997 2C12.4429 2 12.8377 2.19482 13.1091 2.3584C13.4079 2.53854 13.7103 2.77736 13.9987 3.03223C14.5779 3.54398 15.1952 4.20724 15.7487 4.84473C16.3065 5.48716 16.8198 6.12641 17.1921 6.60352C17.3786 6.84254 17.5305 7.04232 17.6364 7.18262C17.6894 7.25279 17.731 7.30845 17.7595 7.34668C17.7737 7.36576 17.7851 7.38042 17.7927 7.39062C17.7964 7.39568 17.7994 7.39959 17.8015 7.40234C17.8023 7.4035 17.8029 7.40454 17.8034 7.40527L17.8044 7.40625V7.40723H17.8054C18.1325 7.8519 18.0371 8.47825 17.5925 8.80566C17.1478 9.13284 16.5215 9.03735 16.194 8.59277L16.1931 8.59082C16.1916 8.58879 16.1885 8.58541 16.1852 8.58105C16.1788 8.57235 16.169 8.55851 16.156 8.54102C16.1299 8.506 16.0908 8.454 16.0407 8.3877C15.9402 8.25457 15.7941 8.06352 15.6149 7.83398C15.2557 7.37363 14.7664 6.76271 14.239 6.15527C13.7072 5.5428 13.1563 4.956 12.6745 4.53027C12.4327 4.31662 12.2315 4.16456 12.0769 4.07129C12.0471 4.05338 12.0204 4.04208 11.9997 4.03125C11.979 4.04207 11.9522 4.0534 11.9226 4.07129C11.7679 4.16457 11.5667 4.31663 11.3249 4.53027C10.8431 4.95601 10.2922 5.5428 9.76044 6.15527C9.23303 6.76271 8.74373 7.37364 8.38447 7.83398C8.20533 8.06353 8.05924 8.25457 7.95869 8.3877C7.9086 8.45401 7.86955 8.506 7.84345 8.54102C7.83041 8.55852 7.8206 8.57235 7.81416 8.58105C7.81093 8.58541 7.80785 8.58879 7.80634 8.59082L7.80537 8.59277L7.73994 8.67188C7.39968 9.04763 6.82387 9.11177 6.40693 8.80469C5.96243 8.47726 5.8669 7.85187 6.19404 7.40723H6.19502V7.40625L6.19599 7.40527C6.19653 7.40454 6.19709 7.4035 6.19794 7.40234C6.19997 7.3996 6.20301 7.39566 6.20673 7.39062C6.21429 7.38043 6.22573 7.36574 6.23994 7.34668C6.26843 7.30845 6.30998 7.25279 6.36298 7.18262C6.46895 7.04233 6.62077 6.84255 6.80732 6.60352C7.17965 6.12643 7.6929 5.48714 8.25068 4.84473C8.80416 4.20726 9.42151 3.54397 10.0007 3.03223C10.2891 2.77736 10.5915 2.53853 10.8903 2.3584C11.1617 2.19482 11.5565 2.00001 11.9997 2Z" fill="currentColor"/></svg>
