<svg xmlns="http://www.w3.org/2000/svg" viewBox="0 0 24 24" fill="none"><path d="M11.9995 18.0005C13.1041 18.0005 13.9995 18.8959 13.9995 20.0005C13.9995 21.1051 13.1041 22.0005 11.9995 22.0005C10.895 22.0004 9.99955 21.105 9.99955 20.0005C9.99955 18.896 10.895 18.0006 11.9995 18.0005ZM11.9995 2.00049C12.0358 2.00049 12.0717 2.00162 12.107 2.00537C12.5063 2.03317 12.8597 2.20865 13.1089 2.35889C13.4077 2.53902 13.7101 2.77786 13.9986 3.03271C14.5777 3.54446 15.1951 4.20774 15.7486 4.84521C16.3063 5.48763 16.8196 6.12691 17.1919 6.604C17.3785 6.84301 17.5303 7.04281 17.6363 7.18311C17.6893 7.25326 17.7308 7.30894 17.7593 7.34717C17.7735 7.36623 17.785 7.38091 17.7925 7.39111C17.7962 7.39614 17.7993 7.40008 17.8013 7.40283C17.8021 7.40397 17.8027 7.40503 17.8033 7.40576L17.8042 7.40674V7.40771H17.8052C18.1324 7.85239 18.0369 8.47874 17.5923 8.80615C17.1476 9.13329 16.5213 9.03782 16.1939 8.59326L16.1929 8.59131C16.1914 8.58927 16.1883 8.58587 16.1851 8.58154C16.1786 8.57284 16.1688 8.55897 16.1558 8.5415C16.1297 8.50649 16.0906 8.45447 16.0406 8.38818C15.94 8.25506 15.7939 8.06399 15.6148 7.83447C15.2555 7.37413 14.7662 6.76319 14.2388 6.15576C13.8236 5.6776 13.396 5.21593 12.9995 4.8335V15.0005C12.9995 15.5528 12.5518 16.0005 11.9995 16.0005C11.4473 16.0004 10.9995 15.5527 10.9995 15.0005V4.8335C10.6031 5.21593 10.1755 5.67761 9.76029 6.15576C9.23289 6.76319 8.74357 7.37413 8.38431 7.83447C8.20519 8.064 8.05908 8.25506 7.95853 8.38818C7.90846 8.45448 7.86939 8.5065 7.8433 8.5415C7.83027 8.55899 7.82044 8.57285 7.814 8.58154C7.81079 8.58588 7.80769 8.58928 7.80619 8.59131L7.80521 8.59326L7.73978 8.67236C7.39953 9.04809 6.82371 9.11225 6.40678 8.80518C5.96232 8.47775 5.86679 7.85235 6.19389 7.40771H6.19486V7.40674L6.19584 7.40576C6.19637 7.40504 6.19695 7.40397 6.19779 7.40283C6.19981 7.4001 6.20286 7.39613 6.20658 7.39111C6.21413 7.38092 6.22559 7.36621 6.23978 7.34717C6.26827 7.30895 6.30984 7.25326 6.36283 7.18311C6.46879 7.04282 6.62063 6.84302 6.80717 6.604C7.17949 6.12692 7.69276 5.48762 8.25053 4.84521C8.804 4.20776 9.42137 3.54445 10.0005 3.03271C10.289 2.77786 10.5914 2.53902 10.8902 2.35889C11.1392 2.20878 11.4923 2.03343 11.8912 2.00537C11.9267 2.00154 11.963 2.00049 11.9995 2.00049Z" fill="currentColor" fill-rule="evenodd" clip-rule="evenodd"/></svg>
