<svg xmlns="http://www.w3.org/2000/svg" viewBox="0 0 24 24" fill="none"><path d="M12 14.625C14.8174 14.625 17.3986 14.259 19.3008 13.6474C20.2475 13.3431 21.0681 12.9647 21.668 12.5088C22.256 12.0618 22.7499 11.4441 22.75 10.6601C22.75 9.61847 21.8941 8.86944 20.9805 8.37108C20.1302 7.90732 19.0016 7.53052 17.7041 7.25194C17.6716 7.05667 17.6278 6.86933 17.5869 6.70018C17.5822 6.68069 17.5768 6.66156 17.5723 6.64256C16.9798 4.18041 14.787 2.12596 12 2.12596C9.21298 2.12596 7.02018 4.18041 6.42773 6.64256C6.42316 6.66156 6.4178 6.68069 6.41309 6.70018C6.37217 6.86937 6.32743 7.05662 6.29492 7.25194C4.99784 7.5305 3.8696 7.90743 3.01953 8.37108C2.10593 8.86944 1.25 9.61847 1.25 10.6601C1.25009 11.4441 1.74396 12.0618 2.33203 12.5088C2.93185 12.9647 3.7525 13.3431 4.69922 13.6474C6.60141 14.259 9.18262 14.625 12 14.625ZM11.9346 8.73436C10.9988 8.71606 10.0883 8.61116 9.37598 8.44334C9.0189 8.35922 8.73611 8.26451 8.53418 8.17088C8.34875 8.08485 8.29102 8.02831 8.29102 8.02831C8.17028 7.86093 8.16819 7.7968 8.16699 7.7578V7.75584C8.16355 7.64478 8.19244 7.49591 8.29297 7.07811C8.71074 5.34229 10.2257 4.01463 12 4.01463C13.7743 4.01463 15.2893 5.34229 15.707 7.07811C15.8076 7.49591 15.8364 7.64478 15.833 7.75584V7.7578C15.8318 7.79732 15.8297 7.86273 15.7041 8.03514C15.685 8.06132 15.6039 8.14587 15.3828 8.25096C15.1694 8.35237 14.8791 8.44791 14.5156 8.52635C13.7881 8.68333 12.8717 8.75268 11.9346 8.73436Z" fill="currentColor"/><path d="M7.27498 12.9137C7.80601 13.0654 8.11351 13.6189 7.96178 14.15L5.96178 21.15C5.81006 21.681 5.25657 21.9885 4.72554 21.8368C4.1945 21.685 3.88701 21.1316 4.03873 20.6005L6.03873 13.6005C6.19046 13.0695 6.74394 12.762 7.27498 12.9137ZM16.7255 12.9137C17.2566 12.762 17.8101 13.0695 17.9618 13.6005L19.9618 20.6005C20.1135 21.1316 19.806 21.685 19.275 21.8368C18.7439 21.9885 18.1905 21.681 18.0387 21.15L16.0387 14.15C15.887 13.6189 16.1945 13.0654 16.7255 12.9137Z" fill="currentColor" fill-rule="evenodd" clip-rule="evenodd"/><path d="M10.5 18.875C10.5 18.0466 11.1686 17.375 11.9933 17.375H12.0067C12.8314 17.375 13.5 18.0466 13.5 18.875C13.5 19.7034 12.8314 20.375 12.0067 20.375H11.9933C11.1686 20.375 10.5 19.7034 10.5 18.875Z" fill="currentColor" fill-rule="evenodd" clip-rule="evenodd"/></svg>
