<svg xmlns="http://www.w3.org/2000/svg" viewBox="0 0 24 24" fill="none"><path d="M13.4981 3.54068C12.7143 3.1523 11.7937 3.15229 11.0099 3.54068C10.5701 3.75861 10.1886 4.15498 9.67198 4.67154C9.15542 5.18806 8.75906 5.56965 8.54112 6.00943C8.15275 6.79327 8.15268 7.71389 8.54112 8.49771C8.75908 8.93747 9.15542 9.31908 9.67198 9.8356L12.7784 12.942C12.9048 13.0684 12.975 13.1386 13.0245 13.195C13.0465 13.22 13.058 13.2349 13.0636 13.2428C13.0662 13.2466 13.0685 13.2516 13.0685 13.2516C13.0685 13.2516 13.0701 13.2551 13.0714 13.2594C13.0742 13.2687 13.0788 13.2872 13.0851 13.32C13.0992 13.3936 13.1125 13.4924 13.1349 13.6696L13.3653 15.4967C13.4105 15.8548 13.4536 16.2194 13.547 16.5211C13.6546 16.8687 13.8403 17.1796 14.1788 17.4235C14.483 17.6427 14.7964 17.744 15.1446 17.7497C15.4357 17.7543 15.7469 17.6887 16.0148 17.6354C17.4726 17.3454 18.987 16.5185 20.253 15.2526C21.5191 13.9866 22.3458 12.4722 22.6358 11.0143C22.6891 10.7464 22.7548 10.4353 22.7501 10.1442C22.7445 9.79601 22.6431 9.48256 22.4239 9.17837C22.1801 8.84005 21.869 8.65513 21.5216 8.54751C21.2199 8.45408 20.8552 8.41016 20.4972 8.3649L18.67 8.13443C18.4927 8.112 18.3941 8.0988 18.3204 8.08462C18.288 8.07839 18.2702 8.07381 18.2608 8.07095C18.2565 8.06962 18.2521 8.06802 18.2521 8.06802L18.2511 8.06704L18.2442 8.06216C18.2363 8.05661 18.2213 8.04593 18.1964 8.02408C18.1401 7.97461 18.0697 7.90422 17.9435 7.77798L14.836 4.67154C14.3195 4.15498 13.938 3.75861 13.4981 3.54068Z" fill="currentColor"/><path d="M11.2833 13.2155L4.26767 20.2321C3.93617 20.5635 3.48642 20.7496 3.01767 20.7496C2.04151 20.7495 1.25019 19.9582 1.25009 18.9821C1.25009 18.5133 1.43627 18.0636 1.76767 17.7321L8.78329 10.7155L11.2833 13.2155Z" fill="currentColor"/></svg>
