<svg xmlns="http://www.w3.org/2000/svg" viewBox="0 0 24 24" fill="none"><path opacity="0.4" d="M1.82614 15.8231C3.37394 11.4281 7.31992 8.24987 12 8.24987C16.6801 8.24987 20.6261 11.4281 22.1739 15.8231L22.1974 15.8898C22.4409 16.5808 22.6629 17.2108 22.7288 17.7745C22.8051 18.4268 22.6799 19.0144 22.26 19.5973C21.815 20.215 21.2209 20.5023 20.5156 20.6323C19.8773 20.75 19.0774 20.7499 18.1461 20.7499H18.1461H5.85395H5.85391C4.92259 20.7499 4.12269 20.75 3.48438 20.6323C2.77918 20.5023 2.18502 20.215 1.74001 19.5973C1.32009 19.0144 1.19489 18.4268 1.2712 17.7745C1.33713 17.2108 1.55914 16.5808 1.80261 15.8898L1.82614 15.8231Z" fill="currentColor"/><path d="M8.97118 4.24902C10.734 2.91713 13.2659 2.91717 15.0288 4.24902C15.473 4.58461 16.0273 4.79186 16.6089 4.83301L16.8081 4.84766C18.9863 5.00189 20.7892 6.6259 20.98 8.74512C21.0234 9.22763 21.2355 9.69499 21.5932 10.0674C22.9963 11.5271 23.1246 13.6858 21.9643 15.2754C21.6454 14.4922 21.2497 13.752 20.7856 13.0674C20.8353 12.4752 20.6339 11.8678 20.1733 11.3887C19.5198 10.7087 19.1159 9.83822 19.0327 8.91504C18.9331 7.8082 17.9647 6.8574 16.6675 6.76563L16.4682 6.75098C15.5115 6.68328 14.5911 6.34311 13.8384 5.77442C12.7776 4.97294 11.2224 4.97293 10.1616 5.77442C9.40893 6.34306 8.48846 6.68329 7.53172 6.75098L7.33251 6.76563C6.03532 6.85743 5.06689 7.80822 4.96727 8.91504C4.88409 9.83826 4.48018 10.7087 3.82665 11.3887C3.36611 11.8678 3.16376 12.4753 3.21336 13.0674C2.74933 13.752 2.35357 14.4922 2.03465 15.2754C0.874833 13.6859 1.00383 11.5269 2.40672 10.0674C2.76457 9.69497 2.97654 9.22767 3.02001 8.74512C3.21075 6.62597 5.01381 5.00198 7.19188 4.84766L7.39208 4.83301C7.97355 4.79181 8.52709 4.58453 8.97118 4.24902Z" fill="currentColor" fill-rule="evenodd" clip-rule="evenodd"/><path d="M18.0079 15.9999C18.5602 15.9999 19.0079 16.4476 19.0079 16.9999C19.0079 17.5522 18.5602 17.9999 18.0079 17.9999H17.9991C17.4469 17.9999 16.9991 17.5522 16.9991 16.9999C16.9991 16.4476 17.4469 15.9999 17.9991 15.9999H18.0079ZM13.0079 14.9999C13.5602 14.9999 14.0079 15.4476 14.0079 15.9999C14.0079 16.5522 13.5602 16.9999 13.0079 16.9999H12.9991C12.4469 16.9999 11.9991 16.5522 11.9991 15.9999C11.9991 15.4476 12.4469 14.9999 12.9991 14.9999H13.0079ZM16.0079 12.9999C16.5602 12.9999 17.0079 13.4476 17.0079 13.9999C17.0079 14.5522 16.5602 14.9999 16.0079 14.9999H15.9991C15.4469 14.9999 14.9991 14.5522 14.9991 13.9999C14.9991 13.4476 15.4469 12.9999 15.9991 12.9999H16.0079Z" fill="currentColor"/></svg>
