<svg xmlns="http://www.w3.org/2000/svg" viewBox="0 0 24 24" fill="none"><path opacity="0.4" d="M6.54489 1.46906C6.81977 1.34211 6.95752 1.27864 7.08786 1.34601C7.10286 1.35377 7.12041 1.36592 7.13376 1.37629C7.24961 1.46637 7.24997 1.62981 7.24997 1.95734V17.3129C7.24997 17.5017 7.24976 17.5965 7.20602 17.6683C7.16219 17.74 7.07138 17.7868 6.89059 17.8801C6.65435 18.0023 6.40116 18.1496 6.11813 18.3138C5.49935 18.6728 4.92776 19.0044 4.50192 19.1966C4.07113 19.3911 3.60342 19.5385 3.11032 19.4506C2.57704 19.3554 2.09844 19.0692 1.75876 18.6478C1.44721 18.2613 1.34372 17.7831 1.29685 17.3069C1.25043 16.8354 1.24996 16.2324 1.24997 15.5033V7.26398C1.24996 6.71309 1.24962 6.24691 1.28708 5.86066C1.32688 5.45044 1.4136 5.07184 1.62009 4.70929C1.82708 4.34595 2.10821 4.08008 2.4404 3.84015C2.75203 3.61512 3.15103 3.38412 3.61911 3.11261L4.9072 2.36457C5.55418 1.98924 6.08411 1.68188 6.54489 1.46906ZM8.88571 1.29035C9.01443 1.20617 9.1604 1.26275 9.45212 1.37531C9.92529 1.55787 10.4736 1.82981 11.1426 2.16242L13.917 3.5423C14.0788 3.62278 14.1601 3.66314 14.2051 3.73566C14.25 3.80822 14.25 3.89878 14.25 4.07941V10.3597C14.25 10.4731 14.2496 10.5297 14.2236 10.5755C14.1977 10.6213 14.1473 10.6524 14.0459 10.7132C12.0905 11.887 10.75 14.0191 10.75 16.4632C10.75 16.9291 10.7985 17.3732 10.8857 17.7952C10.9749 18.2265 11.019 18.4426 10.9199 18.5189C10.8208 18.5949 10.6337 18.5016 10.2597 18.3158L10.0234 18.1986C9.64464 18.0103 9.36377 17.8725 9.14255 17.7717C8.94442 17.6815 8.84555 17.636 8.79782 17.5618C8.75014 17.4877 8.74997 17.3864 8.74997 17.184V1.89484C8.74997 1.55686 8.74975 1.38694 8.87497 1.29718L8.88571 1.29035ZM18.0527 4.16828C18.9504 4.16825 19.701 4.16843 20.2969 4.25031C20.9275 4.337 21.4955 4.52787 21.9502 4.9925C22.4027 5.45502 22.5861 6.02945 22.6699 6.66632C22.7496 7.27198 22.75 8.03564 22.75 8.95539V11.1439C22.75 11.6028 22.7497 11.832 22.6318 11.8851C22.514 11.938 22.3333 11.7782 21.9717 11.4584C20.7695 10.3951 19.1937 9.75031 17.5 9.75031C17.078 9.75031 16.6631 9.78994 16.2598 9.86652C16.0166 9.91269 15.8947 9.93618 15.8223 9.87629C15.7498 9.8163 15.75 9.69708 15.75 9.46027V4.33918C15.7502 4.24499 15.8267 4.16852 15.9209 4.16828H18.0527Z" fill="currentColor"/><path d="M17.5 11.2499C20.3402 11.2499 22.75 13.593 22.75 16.4628C22.75 17.9334 22.125 19.1572 21.2783 20.1454C20.4378 21.1263 19.3524 21.9078 18.3545 22.5185L18.3438 22.5253L18.332 22.5311C18.078 22.6745 17.7914 22.7499 17.5 22.7499C17.2086 22.7499 16.922 22.6745 16.668 22.5311L16.6543 22.5243L16.6416 22.5155C15.6491 21.9011 14.5643 21.1232 13.7236 20.1454C12.8761 19.1595 12.25 17.9381 12.25 16.4628C12.25 13.593 14.6598 11.2499 17.5 11.2499ZM17.4912 14.2499C16.3916 14.2499 15.5 15.1453 15.5 16.2499C15.5 17.3545 16.3916 18.2499 17.4912 18.2499H17.5088C18.6084 18.2499 19.5 17.3545 19.5 16.2499C19.5 15.1453 18.6084 14.2499 17.5088 14.2499H17.4912Z" fill="currentColor"/></svg>
