<svg xmlns="http://www.w3.org/2000/svg" viewBox="0 0 24 24" fill="none"><path opacity="0.4" d="M8.05203 11.25C8.9505 11.25 9.69971 11.2499 10.2945 11.3299C10.9223 11.4143 11.4891 11.6 11.9445 12.0555C12.4 12.5109 12.5857 13.0777 12.6701 13.7055C12.7501 14.3003 12.75 15.0495 12.75 15.948V15.948V18.052V18.052C12.75 18.9505 12.7501 19.6997 12.6701 20.2945C12.5857 20.9223 12.4 21.4891 11.9445 21.9445C11.4891 22.4 10.9223 22.5857 10.2945 22.6701C9.69971 22.7501 8.9505 22.75 8.05203 22.75H8.052H5.94801H5.94798C5.04951 22.75 4.3003 22.7501 3.70552 22.6701C3.07773 22.5857 2.51093 22.4 2.05546 21.9445C1.59999 21.4891 1.41432 20.9223 1.32991 20.2945C1.24995 19.6997 1.24997 18.9505 1.25 18.052V18.052V15.948V15.948C1.24997 15.0495 1.24995 14.3003 1.32991 13.7055C1.41432 13.0777 1.59999 12.5109 2.05546 12.0555C2.51093 11.6 3.07773 11.4143 3.70552 11.3299C4.3003 11.2499 5.0495 11.25 5.94797 11.25H5.948H8.052H8.05203Z" fill="currentColor"/><path d="M5 15C5 14.4477 5.44772 14 6 14L8 14C8.55228 14 9 14.4477 9 15C9 15.5523 8.55228 16 8 16L6 16C5.44772 16 5 15.5523 5 15Z" fill="currentColor" fill-rule="evenodd" clip-rule="evenodd"/><path d="M18 13.75C18.5523 13.75 19 14.1978 19 14.75L19 17.8052C19 18.701 19.0001 19.4531 18.9357 20.0515C18.8689 20.6722 18.7209 21.2781 18.3122 21.7889C17.8993 22.3052 17.3676 22.5419 16.7993 22.6491C16.2846 22.7462 15.6629 22.7494 15.0008 22.75C14.4485 22.7504 14.0005 22.3031 14 21.7508C13.9995 21.1985 14.4469 20.7504 14.9992 20.75C15.7132 20.7494 16.1335 20.7394 16.4286 20.6838C16.6701 20.6382 16.716 20.5826 16.7505 20.5396C16.8105 20.4646 16.8968 20.3062 16.9472 19.8376C16.9986 19.3591 17 18.7156 17 17.75V14.75C17 14.1978 17.4477 13.75 18 13.75Z" fill="currentColor" fill-rule="evenodd" clip-rule="evenodd"/><path d="M17.9932 12.75C18.5047 12.75 18.858 12.4114 19.0566 12.1074C19.576 11.3127 20.3615 10.3191 20.9971 9.75586C22.1352 8.74727 22.75 7.5589 22.75 6.04004C22.7498 3.40166 20.6303 1.25 18 1.25C15.3697 1.25 13.2502 3.40166 13.25 6.04004C13.25 7.5589 13.8648 8.74727 15.0029 9.75586C15.6473 10.3269 16.4537 11.3055 16.9307 12.0879C17.1221 12.4019 17.4733 12.7499 17.9932 12.75ZM18.001 7.5C17.1763 7.49993 16.5078 6.82838 16.5078 6C16.5078 5.17162 17.1763 4.50007 18.001 4.5H18.0146C18.8393 4.50007 19.5078 5.17162 19.5078 6C19.5078 6.82838 18.8393 7.49993 18.0146 7.5H18.001Z" fill="currentColor"/></svg>
