<svg xmlns="http://www.w3.org/2000/svg" viewBox="0 0 24 24" fill="none"><path d="M8.05176 22.75C8.95023 22.75 9.70015 22.7499 10.2949 22.6699C10.9225 22.5855 11.489 22.3997 11.9443 21.9443C12.3997 21.489 12.5855 20.9225 12.6699 20.2949C12.7499 19.7001 12.75 18.9502 12.75 18.0518V15.9482C12.75 15.0498 12.7499 14.2999 12.6699 13.7051C12.5855 13.0775 12.3997 12.511 11.9443 12.0557C11.489 11.6003 10.9225 11.4145 10.2949 11.3301C9.70015 11.2501 8.95022 11.25 8.05176 11.25H5.94824C5.04978 11.25 4.29985 11.2501 3.70508 11.3301C3.07747 11.4145 2.51102 11.6003 2.05566 12.0557C1.60031 12.511 1.41451 13.0775 1.33008 13.7051C1.25011 14.2999 1.24997 15.0498 1.25 15.9482L1.25 18.0518C1.24997 18.9502 1.25011 19.7001 1.33008 20.2949C1.41451 20.9225 1.60031 21.489 2.05566 21.9443C2.51102 22.3997 3.07747 22.5855 3.70508 22.6699C4.29985 22.7499 5.04977 22.75 5.94824 22.75H8.05176ZM6 16C5.44772 16 5 15.5523 5 15C5 14.4477 5.44772 14 6 14H8C8.55228 14 9 14.4477 9 15C9 15.5523 8.55228 16 8 16H6Z" fill="currentColor"/><path d="M18 13.75C18.5523 13.75 19 14.1978 19 14.75L19 17.8052C19 18.701 19.0001 19.4531 18.9357 20.0515C18.8689 20.6722 18.7209 21.2781 18.3122 21.7889C17.8993 22.3052 17.3676 22.5419 16.7993 22.6491C16.2846 22.7462 15.6629 22.7494 15.0008 22.75C14.4485 22.7504 14.0005 22.3031 14 21.7508C13.9995 21.1985 14.4469 20.7504 14.9992 20.75C15.7132 20.7494 16.1335 20.7394 16.4286 20.6838C16.6701 20.6382 16.716 20.5826 16.7505 20.5396C16.8105 20.4646 16.8968 20.3062 16.9472 19.8376C16.9986 19.3591 17 18.7156 17 17.75V14.75C17 14.1978 17.4477 13.75 18 13.75Z" fill="currentColor" fill-rule="evenodd" clip-rule="evenodd"/><path d="M17.9932 12.75C18.5047 12.75 18.858 12.4114 19.0566 12.1074C19.576 11.3127 20.3615 10.3191 20.9971 9.75586C22.1352 8.74727 22.75 7.5589 22.75 6.04004C22.7498 3.40166 20.6303 1.25 18 1.25C15.3697 1.25 13.2502 3.40166 13.25 6.04004C13.25 7.5589 13.8648 8.74727 15.0029 9.75586C15.6473 10.3269 16.4537 11.3055 16.9307 12.0879C17.1221 12.4019 17.4733 12.7499 17.9932 12.75ZM18.001 7.5C17.1763 7.49993 16.5078 6.82838 16.5078 6C16.5078 5.17162 17.1763 4.50007 18.001 4.5H18.0146C18.8393 4.50007 19.5078 5.17162 19.5078 6C19.5078 6.82838 18.8393 7.49993 18.0146 7.5H18.001Z" fill="currentColor"/></svg>
