<svg xmlns="http://www.w3.org/2000/svg" viewBox="0 0 24 24" fill="none"><path opacity="0.4" d="M18.0001 20.0001C20.2092 20.0001 22.0001 18.2093 22.0001 16.0001C22.0001 13.791 20.2092 12.0001 18.0001 12.0001C15.791 12.0001 14.0001 13.791 14.0001 16.0001C14.0001 18.2093 15.791 20.0001 18.0001 20.0001Z" fill="currentColor"/><path opacity="0.4" d="M6.00009 22.0001C8.20923 22.0001 10.0001 20.2093 10.0001 18.0001C10.0001 15.791 8.20923 14.0001 6.00009 14.0001C3.79095 14.0001 2.00009 15.791 2.00009 18.0001C2.00009 20.2093 3.79095 22.0001 6.00009 22.0001Z" fill="currentColor"/><path d="M17.2901 2.07219C18.4356 1.91041 19.4961 1.98431 20.4034 2.67083C21.3084 3.35585 21.6738 4.35765 21.8399 5.50774C22.0026 6.63452 22.0001 8.1086 22.0001 9.92668V15.9999C22.0001 14.5196 21.1954 13.2277 20.0001 12.5361V9.92668C20.0001 8.04538 19.9976 6.744 19.8604 5.79387C19.7266 4.86713 19.4912 4.48872 19.1964 4.26555C18.9038 4.04431 18.4841 3.92366 17.5704 4.05266C16.6303 4.18545 15.3935 4.54705 13.6026 5.07415C12.5399 5.38693 11.8263 5.59864 11.2979 5.82415C10.7944 6.03908 10.5585 6.22653 10.4024 6.43645C10.2459 6.64716 10.1323 6.93043 10.0685 7.48137C10.0017 8.05801 10.0001 8.81036 10.0001 9.92668V17.9999C10.0001 16.5196 9.1954 15.2278 8.00009 14.5361V9.92668C8.00009 8.85723 7.99897 7.96909 8.08212 7.2509C8.1683 6.5073 8.35476 5.83948 8.79794 5.24309C9.24184 4.64607 9.82665 4.27718 10.5128 3.9843C11.1743 3.70197 12.0212 3.45452 13.0382 3.1552C14.767 2.64636 16.1703 2.23038 17.2901 2.07219Z" fill="currentColor"/></svg>
