<svg xmlns="http://www.w3.org/2000/svg" viewBox="0 0 24 24" fill="none"><path d="M18.0001 20.0001C20.2092 20.0001 22.0001 18.2093 22.0001 16.0001C22.0001 13.791 20.2092 12.0001 18.0001 12.0001C15.791 12.0001 14.0001 13.791 14.0001 16.0001C14.0001 18.2093 15.791 20.0001 18.0001 20.0001Z" fill="currentColor"/><path d="M6.00009 22.0001C8.20923 22.0001 10.0001 20.2093 10.0001 18.0001C10.0001 15.791 8.20923 14.0001 6.00009 14.0001C3.79095 14.0001 2.00009 15.791 2.00009 18.0001C2.00009 20.2093 3.79095 22.0001 6.00009 22.0001Z" fill="currentColor"/><path d="M20.0001 16.0001V9.92687C20.0001 8.04537 19.9977 6.74421 19.8604 5.79406C19.7266 4.86717 19.4912 4.48889 19.1964 4.26574C18.9038 4.04449 18.4841 3.92384 17.5704 4.05284C16.6303 4.18562 15.3935 4.54723 13.6026 5.07433C12.5399 5.38713 11.8263 5.59881 11.2979 5.82433C10.7943 6.03928 10.5585 6.2267 10.4024 6.43663C10.2458 6.64736 10.1323 6.93045 10.0685 7.48156C10.0017 8.05823 10.0001 8.81035 10.0001 9.92687V18.0001C10.0001 18.5524 9.55238 19.0001 9.00009 19.0001C8.44781 19.0001 8.00009 18.5524 8.00009 18.0001V9.92687C8.00009 8.85727 7.99893 7.96932 8.08212 7.25109C8.16831 6.5074 8.35466 5.83971 8.79794 5.24327C9.24187 4.64622 9.8266 4.27737 10.5128 3.98449C11.1743 3.70215 12.0212 3.45472 13.0382 3.15538C14.767 2.64654 16.1703 2.23055 17.2901 2.07238C18.4356 1.91059 19.4961 1.98449 20.4034 2.67101C21.3085 3.35603 21.6738 4.35777 21.8399 5.50792C22.0027 6.63474 22.0001 8.10863 22.0001 9.92687V16.0001C22.0001 16.5524 21.5524 17.0001 21.0001 17.0001C20.4478 17.0001 20.0001 16.5524 20.0001 16.0001Z" fill="currentColor"/></svg>
