<svg xmlns="http://www.w3.org/2000/svg" viewBox="0 0 24 24" fill="none"><path d="M9.75018 9.74915H4.21405C4.20064 10.3949 4.20038 11.1369 4.20038 11.9991V13.9532C4.20038 15.8234 4.2022 17.1282 4.33417 18.1124C4.46241 19.0685 4.69708 19.575 5.05682 19.9357C5.41656 20.2962 5.92155 20.5317 6.87518 20.6603C7.85706 20.7926 9.15881 20.795 11.0246 20.795H12.9748C14.8406 20.795 16.1423 20.7926 17.1242 20.6603C18.0781 20.5317 18.5838 20.2963 18.9435 19.9357C19.1025 19.7763 19.2342 19.5873 19.3459 19.3448L20.7736 20.7726C20.6423 20.9636 20.4937 21.1458 20.3224 21.3175C19.54 22.1018 18.5541 22.4401 17.384 22.5978C16.257 22.7496 14.8237 22.7492 13.0461 22.7491H10.9533C9.17564 22.7492 7.74239 22.7496 6.61542 22.5978C5.44541 22.4401 4.46034 22.1018 3.67792 21.3175C2.89559 20.5332 2.55886 19.5459 2.40155 18.3732C2.25004 17.2436 2.25016 15.8073 2.25018 14.0255V11.9279C2.25016 10.1459 2.25002 8.7089 2.40155 7.57922C2.55889 6.40652 2.89551 5.41912 3.67792 4.63489C3.84242 4.47 4.01617 4.32525 4.19843 4.19739L9.75018 9.74915Z" fill="currentColor"/><path opacity="0.4" d="M15.8996 1.24915C16.4381 1.24915 16.8752 1.68695 16.8752 2.22668V3.29895C17.0513 3.31503 17.2208 3.33361 17.384 3.35559C18.5541 3.51328 19.54 3.85057 20.3224 4.63489C21.1048 5.41911 21.4415 6.40656 21.5988 7.57922C21.7503 8.70891 21.7502 10.1458 21.7502 11.9279V14.0255C21.7502 15.6638 21.7478 17.0096 21.6301 18.0939L19.7834 16.2472C19.7977 15.5913 19.8 14.8349 19.8 13.9532V11.9991C19.8 11.1369 19.7997 10.3949 19.7863 9.74915H13.2853L6.86346 3.32727C6.94909 3.3177 7.03624 3.30707 7.12518 3.29895V2.22668C7.12518 1.68704 7.56144 1.24929 8.09979 1.24915C8.63827 1.24915 9.07538 1.68695 9.07538 2.22668V3.21204C9.65307 3.20373 10.2783 3.20324 10.9533 3.20325H13.0461C13.7213 3.20324 14.3471 3.20372 14.925 3.21204V2.22668C14.925 1.68711 15.3613 1.2494 15.8996 1.24915Z" fill="currentColor"/><path d="M1.54302 1.54216C1.93354 1.15164 2.56655 1.15164 2.95708 1.54216L22.4571 21.0422C22.8476 21.4327 22.8476 22.0657 22.4571 22.4562C22.0666 22.8467 21.4335 22.8467 21.043 22.4562L1.54302 2.95622C1.15249 2.5657 1.15249 1.93269 1.54302 1.54216Z" fill="currentColor"/></svg>
