<svg xmlns="http://www.w3.org/2000/svg" viewBox="0 0 24 24" fill="none"><path d="M9.75018 9.74963H4.21405C4.20064 10.3954 4.20038 11.1374 4.20038 11.9996V13.9537C4.20038 15.8239 4.2022 17.1287 4.33417 18.1129C4.46241 19.069 4.69708 19.5755 5.05682 19.9362C5.41656 20.2967 5.92155 20.5322 6.87518 20.6608C7.85706 20.7931 9.15881 20.7955 11.0246 20.7955H12.9748C14.8406 20.7955 16.1423 20.7931 17.1242 20.6608C18.0781 20.5322 18.5838 20.2968 18.9435 19.9362C19.1025 19.7768 19.2342 19.5878 19.3459 19.3453L20.7736 20.7731C20.6423 20.964 20.4937 21.1463 20.3224 21.318C19.54 22.1023 18.5541 22.4406 17.384 22.5983C16.257 22.7501 14.8237 22.7497 13.0461 22.7496H10.9533C9.17564 22.7497 7.74239 22.7501 6.61542 22.5983C5.44541 22.4406 4.46034 22.1022 3.67792 21.318C2.89559 20.5337 2.55886 19.5464 2.40155 18.3737C2.25004 17.2441 2.25016 15.8078 2.25018 14.026V11.9283C2.25016 10.1464 2.25002 8.70939 2.40155 7.57971C2.55889 6.40701 2.89551 5.41961 3.67792 4.63538C3.84242 4.47049 4.01617 4.32574 4.19843 4.19788L9.75018 9.74963Z" fill="currentColor"/><path d="M15.8996 1.24963C16.4381 1.24963 16.8752 1.68744 16.8752 2.22717V3.29944C17.0513 3.31551 17.2208 3.3341 17.384 3.35608C18.5541 3.51377 19.54 3.85106 20.3224 4.63538C21.1048 5.4196 21.4415 6.40705 21.5988 7.57971C21.7503 8.7094 21.7502 10.1463 21.7502 11.9283V14.026C21.7502 15.6643 21.7478 17.0101 21.6301 18.0944L19.7834 16.2477C19.7977 15.5918 19.8 14.8354 19.8 13.9537V11.9996C19.8 11.1374 19.7997 10.3954 19.7863 9.74963H13.2853L6.86347 3.32776C6.94909 3.31819 7.03624 3.30756 7.12518 3.29944V2.22717C7.12518 1.68753 7.56144 1.24978 8.09979 1.24963C8.63827 1.24963 9.07538 1.68744 9.07538 2.22717V3.21252C9.65307 3.20422 10.2783 3.20373 10.9533 3.20374H13.0461C13.7213 3.20373 14.3471 3.20421 14.925 3.21252V2.22717C14.925 1.6876 15.3613 1.24989 15.8996 1.24963Z" fill="currentColor"/><path d="M1.54302 1.54265C1.93354 1.15212 2.56655 1.15212 2.95708 1.54265L22.4571 21.0426C22.8476 21.4332 22.8476 22.0662 22.4571 22.4567C22.0666 22.8472 21.4335 22.8472 21.043 22.4567L1.54302 2.95671C1.15249 2.56619 1.15249 1.93317 1.54302 1.54265Z" fill="currentColor"/></svg>
