<svg xmlns="http://www.w3.org/2000/svg" fill="none" viewBox="0 0 48 48">
  <g>
    <path fill="currentColor" fill-rule="evenodd" d="M15.5195 42c0 1.1046 -0.8954 2 -2 2l-8.51957 0c-2.76142 0 -4.9999964051 -2.2386 -4.9999962844 -5l3.934e-7 -9c4.83e-8 -1.1046 0.895430891 -2 1.999995891 -2 1.10457 0 2 0.8954 2 2l0 9c0 0.5523 0.44772 1 1 1l8.51957 0c1.1046 0 2 0.8954 2 2Z" clip-rule="evenodd" stroke-width="1"></path>
    <path fill="currentColor" fill-opacity="0.4" fill-rule="evenodd" d="M27.2549 3.8125c-7.2771 0 -12.6077 0.8104 -15.9455 4.14822C7.97153 11.2985 7.16113 16.6291 7.16113 23.9062V39c0 2.7614 2.23858 5 4.99997 5h15.0938c7.2771 0 12.6077 -0.8104 15.9455 -4.1482 3.3378 -3.3378 4.1482 -8.6684 4.1482 -15.9456 0 -7.2771 -0.8104 -12.6077 -4.1482 -15.94548C39.8626 4.6229 34.532 3.8125 27.2549 3.8125Z" clip-rule="evenodd" stroke-width="1"></path>
    <path fill="currentColor" d="M19.999 23.256a7.256 7.256 0 1 0 14.512 0 7.256 7.256 0 1 0 -14.512 0" stroke-width="1"></path>
  </g>
</svg>
