<svg xmlns="http://www.w3.org/2000/svg" fill="none" viewBox="0 0 48 48">
  <g>
    <path fill="currentColor" fill-rule="evenodd" d="M10.5108 23.2554c0 -7.6111 0.9551 -11.4901 3.1048 -13.63986 2.1497 -2.14972 6.0287 -3.1048 13.6398 -3.1048 7.6112 0 11.4902 0.95508 13.6399 3.1048 2.1497 2.14976 3.1048 6.02876 3.1048 13.63986s-0.9551 11.4901 -3.1048 13.6398S34.8666 40 27.2554 40H11.5108c-0.5523 0 -1 -0.4477 -1 -1zM6.61083 40c-0.06559 -0.3231 -0.10002 -0.6575 -0.10002 -1V23.2554c0 -7.5402 0.84159 -13.0335 4.27639 -16.46829 3.4348 -3.43478 8.9281 -4.27637 16.4682 -4.27637 7.5402 0 13.0335 0.84159 16.4683 4.27637 3.4348 3.43479 4.2764 8.92809 4.2764 16.46829 0 7.5401 -0.8416 13.0335 -4.2764 16.4682C40.2889 43.1584 34.7956 44 27.2554 44H5c-2.76142 0 -5 -2.2386 -5 -5v-9c0 -1.1046 0.895431 -2 2 -2 1.10457 0 2 0.8954 2 2l0 9c0 0.5523 0.44771 1 1 1zM18.9385 23.2557c0 -4.5929 3.7233 -8.3162 8.3163 -8.3162 4.5929 0 8.3162 3.7233 8.3162 8.3162s-3.7233 8.3162 -8.3162 8.3162c-4.593 0 -8.3163 -3.7233 -8.3163 -8.3162" clip-rule="evenodd" stroke-width="1"></path>
  </g>
</svg>
