<svg xmlns="http://www.w3.org/2000/svg" fill="none" viewBox="0 0 48 48">
  <g>
    <path fill="currentColor" fill-rule="evenodd" d="M27.2549 3.8125c-7.2771 0 -12.6077 0.8104 -15.9455 4.14822C7.9716 11.2985 7.1612 16.6291 7.1612 23.9062V39c0 0.3425 0.03443 0.6769 0.10002 1H5c-0.55228 0 -1 -0.4477 -1 -1l0 -9c0 -1.1046 -0.89543 -2 -2 -2 -1.104568 0 -2 0.8954 -2 2v9c0 2.7614 2.23858 5 5 5h22.2549c7.2772 0 12.6078 -0.8104 15.9456 -4.1482 3.3378 -3.3378 4.1482 -8.6684 4.1482 -15.9456 0 -7.2771 -0.8104 -12.6077 -4.1482 -15.94548C39.8627 4.6229 34.5321 3.8125 27.2549 3.8125Zm-0.0002 26.6989c4.0072 0 7.2557 -3.2485 7.2557 -7.2557S31.2619 16 27.2547 16s-7.2557 3.2485 -7.2557 7.2557 3.2485 7.2557 7.2557 7.2557Z" clip-rule="evenodd" stroke-width="1"></path>
  </g>
</svg>
