<svg xmlns="http://www.w3.org/2000/svg" viewBox="0 0 24 24" fill="none"><path opacity="0.4" d="M12 2.24805C12.6288 2.24805 13.2249 2.27418 13.79 2.32031C13.2903 3.10138 13.0001 4.02938 13 5.02539C13 7.80202 15.2508 10.0535 18.0273 10.0537C18.6037 10.0537 19.1585 9.95568 19.6748 9.77637L20.2539 10.3555C20.9183 11.0198 21.9017 11.1666 22.71 10.8008C22.7362 11.1965 22.75 11.5963 22.75 11.998C22.75 14.6232 21.9907 17.0835 20.208 18.8887C18.4216 20.6976 15.7071 21.748 12 21.748C10.4515 21.748 9.09789 21.5965 7.91992 21.3076C7.58951 21.2266 7.18966 21.3187 6.83789 21.5781C6.02979 22.1743 4.78902 22.748 3 22.748C2.67 22.748 2.37843 22.5325 2.28223 22.2168C2.18605 21.9011 2.30807 21.559 2.58203 21.375C3.1813 20.9721 3.81966 19.6151 2.7373 17.8984C1.63081 16.2102 1.25 14.1414 1.25 11.998C1.25 9.42232 1.8005 6.9492 3.50098 5.12305C5.21037 3.28733 7.94704 2.24805 12 2.24805Z" fill="currentColor"/><path d="M8 10.998C8.55228 10.998 9 11.4458 9 11.998C9 12.5503 8.55228 12.998 8 12.998C7.44772 12.998 7 12.5503 7 11.998C7 11.4458 7.44771 10.998 8 10.998ZM12.1025 11.0029C12.6066 11.0543 13 11.4804 13 11.998C13 12.5503 12.5522 12.998 12 12.998C11.4823 12.998 11.0562 12.6047 11.0049 12.1006L11 11.998L11.0049 11.8955C11.0562 11.3914 11.4823 10.998 12 10.998L12.1025 11.0029ZM16 10.998C16.5523 10.998 17 11.4458 17 11.998C17 12.5503 16.5523 12.998 16 12.998C15.4477 12.998 15 12.5503 15 11.998C15 11.4458 15.4477 10.998 16 10.998Z" fill="currentColor"/><path d="M19.9167 5.02586C19.9167 3.98264 19.071 3.13695 18.0278 3.13695C16.9846 3.13695 16.1389 3.98264 16.1389 5.02586C16.1389 6.06907 16.9846 6.91476 18.0278 6.91476C19.071 6.91476 19.9167 6.06907 19.9167 5.02586ZM21.8056 5.02586C21.8056 5.7264 21.614 6.38187 21.2817 6.94427L22.4734 8.13591C22.8422 8.50474 22.8422 9.10259 22.4734 9.47142C22.1045 9.84025 21.5067 9.84025 21.1379 9.47142L19.9462 8.27979C19.3838 8.61208 18.7284 8.80367 18.0278 8.80367C15.9414 8.80367 14.25 7.11228 14.25 5.02586C14.25 2.93943 15.9414 1.24805 18.0278 1.24805C20.1142 1.24805 21.8056 2.93943 21.8056 5.02586Z" fill="currentColor"/></svg>
