<svg xmlns="http://www.w3.org/2000/svg" viewBox="0 0 24 24" fill="none"><path d="M0.917405 2.16808C1.30793 1.77755 1.94094 1.77755 2.33147 2.16808L21.8315 21.6681C22.222 22.0586 22.222 22.6916 21.8315 23.0821C21.4409 23.4727 20.8079 23.4727 20.4174 23.0821L0.917405 3.58214C0.526881 3.19161 0.526881 2.5586 0.917405 2.16808Z" fill="currentColor"/><path d="M8.37445 9.62507C7.16019 10.5372 6.37456 11.9895 6.37445 13.6251C6.37445 16.3864 8.6131 18.625 11.3744 18.6251C13.01 18.6251 14.4622 17.8401 15.3744 16.6261L13.9369 15.1876C13.41 16.05 12.4591 16.6251 11.3744 16.6251C9.71767 16.625 8.37445 15.2819 8.37445 13.6251C8.37457 12.5405 8.95052 11.5904 9.81293 11.0636L20.1371 21.3878C19.7256 21.5773 19.2687 21.6913 18.7661 21.7589C17.9011 21.8751 16.8019 21.8751 15.4389 21.8751H7.31C5.94699 21.8751 4.84774 21.8751 3.98285 21.7589C3.08281 21.6378 2.32496 21.3783 1.72308 20.7764C1.12136 20.1746 0.861658 19.4166 0.740659 18.5167C0.624454 17.6518 0.62442 16.5524 0.624448 15.1895V11.1788C0.624446 10.2499 0.617148 9.62961 0.76605 9.10359C1.1208 7.85089 2.10022 6.87133 3.35296 6.51668C3.81952 6.38462 4.3601 6.37546 5.12445 6.37507L8.37445 9.62507ZM12.0717 3.37507C12.7325 3.37507 13.2425 3.36555 13.7114 3.52937C13.9801 3.62332 14.2331 3.75831 14.4604 3.92976C14.8568 4.22898 15.132 4.6593 15.4985 5.20906L15.5209 5.24324C15.618 5.38894 15.7302 5.55672 15.8325 5.70418C15.8876 5.78368 15.9984 5.93121 16.0395 5.9864C16.2241 6.18041 16.4661 6.31044 16.7299 6.35652C16.8213 6.37246 16.928 6.37507 17.3207 6.37507C18.2497 6.37507 18.8699 6.36781 19.3959 6.51668C20.6487 6.87131 21.6281 7.85091 21.9828 9.10359C22.1318 9.62961 22.1245 10.2499 22.1244 11.1788V15.1895C22.1245 16.5524 22.1244 17.6518 22.0082 18.5167C21.961 18.8681 21.8911 19.1977 21.7895 19.505L7.3471 5.06257C7.66705 4.58222 7.92787 4.20196 8.28851 3.92976C8.51584 3.75827 8.76872 3.62333 9.03753 3.52937C9.50645 3.3655 10.0164 3.37507 10.6772 3.37507H12.0717ZM18.3744 9.12507C17.8222 9.12511 17.3745 9.57286 17.3744 10.1251V10.1348C17.3744 10.6871 17.8222 11.1348 18.3744 11.1348C18.9267 11.1348 19.3744 10.6871 19.3744 10.1348V10.1251C19.3744 9.57284 18.9267 9.12507 18.3744 9.12507Z" fill="currentColor" fill-rule="evenodd" clip-rule="evenodd"/></svg>
