<svg xmlns="http://www.w3.org/2000/svg" fill="none" viewBox="0 0 48 48">
  <path fill="currentColor" fill-opacity="0.4" d="M46.8861 35.289c-3.3376 -7.9261 -9.67 -20.2147 -15.1059 -26.20395 -0.6241 -0.68768 -1.4998 -1.08018 -2.4272 -1.13006 -4.07 -0.21887 -9.2022 -0.07943 -12.1635 0.05614 -0.5278 0.02416 -0.9423 0.45838 -0.9464 0.98676l-0.2202 28.13741c-0.013 1.666 1.3341 3.025 3.0001 3.0152 9.4093 -0.0552 18.0374 -0.4151 26.5481 -1.9219 1.2738 -0.2255 1.8623 -1.6398 1.315 -2.9396Z" stroke-width="1"></path>
  <path fill="currentColor" d="M2.39476 39.2354c-1.24504 -0.233 -1.820348 -1.6941 -1.28534 -3.037C4.42835 27.8679 10.7769 14.8727 16.1503 8.81068c0.3739 -0.42176 1.0194 -0.42176 1.3933 0.00001C22.917 14.8727 29.2656 27.8679 32.5845 36.1984c0.535 1.3429 -0.0403 2.804 -1.2853 3.037 -2.269 0.4246 -6.6059 0.9242 -14.4522 0.9242 -7.84642 0 -12.18333 -0.4996 -14.45224 -0.9242Z" stroke-width="1"></path>
  <path fill="currentColor" fill-opacity="0.4" fill-rule="evenodd" d="m18.6997 10.2002 0 29.9495c-0.5947 0.0064 -1.212 0.0097 -1.8527 0.0097 -0.7472 0 -1.4625 -0.0045 -2.1473 -0.0131V10.5798c0.4894 -0.63896 0.9738 -1.23144 1.4506 -1.76934 0.3739 -0.42176 1.0194 -0.42176 1.3933 0 0.3809 0.42977 0.7668 0.89438 1.1561 1.38974Z" clip-rule="evenodd" stroke-width="1"></path>
</svg>
