<svg xmlns="http://www.w3.org/2000/svg" fill="none" viewBox="0 0 48 48">
  <path stroke="currentColor" stroke-linecap="round" stroke-linejoin="round" d="M3.41449 38.5163c-1.18627 -0.222 -1.73442 -1.6142 -1.22466 -2.8937C5.48991 27.3394 11.9337 14.2159 17.1845 8.81104 22.4354 14.2159 28.8792 27.3394 32.1792 35.6226c0.5098 1.2795 -0.0384 2.6717 -1.2246 2.8937 -2.1618 0.4045 -6.294 0.8806 -13.7701 0.8806 -7.47599 0 -11.60819 -0.4761 -13.77001 -0.8806Z" stroke-width="1"></path>
  <path stroke="currentColor" stroke-linecap="round" stroke-linejoin="round" d="M17.0442 39.396c9.872 0 18.7735 -0.2509 27.5412 -1.839 1.1863 -0.2149 1.7345 -1.5624 1.2247 -2.8009 -3.3001 -8.0176 -9.7439 -20.7204 -14.9947 -25.95188 -4.339 -0.36733 -10.7552 -0.14717 -13.5373 0.00588" stroke-width="1"></path>
  <path stroke="currentColor" d="M17.0442 9.41846V39.3967" stroke-width="1"></path>
</svg>
