<svg xmlns="http://www.w3.org/2000/svg" fill="none" viewBox="0 0 48 48">
  <path fill="currentColor" fill-rule="evenodd" d="M29.2354 7.13234c-4.1986 -0.21886 -9.4923 -0.03004 -11.9249 0.10378 -0.7093 0.03902 -1.3159 0.44444 -1.6395 1.02709 -2.6749 2.84799 -5.5142 7.40469 -8.04142 12.11239C5.0003 25.2734 2.61298 30.5177 0.990865 34.5892c-0.426062 1.0695 -0.439551 2.2563 -0.013053 3.2874 0.435888 1.0538 1.359338 1.9685 2.687458 2.217 2.02471 0.3789 5.56539 0.7924 11.56643 0.8721l0 -18.2933c0 -1.1046 0.8954 -2 2 -2s2 0.8954 2 2v18.2962c0.2271 -0.0027 0.4507 -0.0058 0.6709 -0.0094 0.1082 0.0063 0.2174 0.0091 0.3274 0.0084 8.4473 -0.0572 16.3095 -0.3994 24.1025 -1.811 2.7939 -0.506 3.5023 -3.4646 2.6839 -5.453 -3.0179 -7.3322 -8.801 -18.8808 -13.9331 -24.73065 -0.9995 -1.13939 -2.404 -1.76534 -3.8479 -1.84061ZM33.708 34.5892c0.2385 0.5986 0.3477 1.234 0.3229 1.8582 3.1557 -0.2567 6.2418 -0.6318 9.3031 -1.1755 -0.002 -0.0067 -0.0043 -0.0135 -0.0068 -0.0206l-0.0058 -0.0154 -0.0039 -0.0098c-2.9892 -7.2622 -8.5691 -18.2899 -13.241 -23.6152 -0.2426 -0.2765 -0.6124 -0.4612 -1.0494 -0.484 -2.4296 -0.1266 -5.2836 -0.1093 -7.6819 -0.0467 1.9514 2.642 3.9175 5.9301 5.7241 9.2954 2.6293 4.8978 5.0166 10.1421 6.6387 14.2136Z" clip-rule="evenodd" stroke-width="3.429"></path>
</svg>
