<svg xmlns="http://www.w3.org/2000/svg" fill="none" viewBox="0 0 48 48">
  <path fill="currentColor" fill-rule="evenodd" d="M29.2509 7.11818c-4.1985 -0.21886 -9.4923 -0.03004 -11.9249 0.10378 -0.3153 0.01734 -0.6103 0.10709 -0.8692 0.25263 -0.7401 0.17259 -1.4223 0.55414 -1.9607 1.10827 -2.6117 2.68834 -5.27653 6.98974 -7.54601 11.21724 -2.31959 4.3209 -4.42266 8.9403 -5.85728 12.5413 -0.572596 1.4372 -0.6101 3.0784 -0.00014 4.553 0.62875 1.52 2.0001 2.9069 4.00585 3.2823 2.1336 0.3992 5.85798 0.8056 12.26658 0.8056 1.0122 0 1.9573 -0.0101 2.8398 -0.0288l0.0407 -0.0001c8.4472 -0.0571 16.3095 -0.3994 24.1024 -1.8109 2.794 -0.5061 3.5024 -3.4647 2.684 -5.453 -3.018 -7.3323 -8.801 -18.8808 -13.9331 -24.73071 -0.9996 -1.13939 -2.404 -1.76534 -3.848 -1.84061ZM15.2473 13.9214c0.0515 -0.07 0.1028 -0.1394 0.1542 -0.2082l-0.1542 20.156v2.4951c0.0163 0.2047 0.0449 0.406 0.0852 0.6032 -4.9948 -0.0753 -7.89421 -0.4224 -9.49822 -0.7226 -0.24834 -0.0465 -0.46329 -0.1542 -0.63935 -0.3064 -0.31024 -0.2681 -0.49972 -0.6743 -0.53838 -1.1268 -0.02715 -0.3178 0.0201 -0.6584 0.15219 -0.9899C7.14091 27.968 11.348 19.2274 15.2473 13.9214ZM28.896 36.2449c-1.6201 0.3031 -4.5615 0.6543 -9.6487 0.7247V13.6045c3.9644 5.2691 8.295 14.2454 10.6742 20.2173 0.4268 1.0714 -0.0322 2.2372 -1.0255 2.4231Z" clip-rule="evenodd" stroke-width="1"></path>
</svg>
