<svg xmlns="http://www.w3.org/2000/svg" fill="none" viewBox="0 0 48 48">
  <g>
    <path stroke="currentColor" stroke-linejoin="round" d="M6 20c0 9.9411 8.0589 18 18 18s18 -8.0589 18 -18S33.9411 2 24 2 6 10.0589 6 20Z" stroke-width="1"></path>
    <path stroke="currentColor" stroke-linejoin="round" d="M19.3259 37.3867c1.4905 0.3997 3.0574 0.6129 4.6741 0.6129 1.6167 0 3.1836 -0.2132 4.6741 -0.6129l4.4321 2.5327C34.2773 40.5885 35 41.8339 35 43.1826c0 1.5569 -1.262 2.8189 -2.8189 2.8189H15.8189c-1.5569 0 -2.8189 -1.262 -2.8189 -2.8189 0 -1.3487 0.7227 -2.5941 1.8938 -3.2632l4.4321 -2.5327Z" stroke-width="1"></path>
    <path stroke="currentColor" stroke-linejoin="round" d="M20 20c0 2.2091 1.7909 4 4 4 2.2091 0 4 -1.7909 4 -4 0 -2.2091 -1.7909 -4 -4 -4 -2.2091 0 -4 1.7909 -4 4Z" stroke-width="1"></path>
    <path stroke="currentColor" stroke-linecap="round" stroke-linejoin="round" d="M20.2828 18.5199c-1.2604 -2.5162 -1.5332 -5.314 -1.51 -7.3943 0.0227 -2.03236 1.2309 -3.9045 3.2466 -4.16496 1.5815 -0.20435 3.7247 -0.03245 6.2572 1.29231 1.5843 0.82879 1.7009 2.96595 0.5531 4.33695 -0.9022 1.0776 -1.9537 2.4293 -2.9104 3.8998C25.3496 16.1775 24.6955 16 24 16c-1.6863 0 -3.1288 1.0435 -3.7172 2.5199Z" stroke-width="1"></path>
    <path stroke="currentColor" stroke-linecap="round" stroke-linejoin="round" d="M20.0011 20.0927c-1.753 -0.0932 -3.4507 -0.3281 -4.8359 -0.5707 -1.7613 -0.3085 -3.5538 0.8609 -3.4794 2.6474 0.119 2.8556 1.0417 4.7976 2.0095 6.0651 1.2334 1.6154 3.4588 1.7256 5.2302 0.7291 1.8132 -1.02 4.0995 -2.655 5.6484 -5.0044 -0.1874 0.0269 -0.379 0.0409 -0.5739 0.0409 -2.1782 0 -3.9497 -1.7411 -3.9989 -3.9074Z" stroke-width="1"></path>
    <path stroke="currentColor" stroke-linecap="round" stroke-linejoin="round" d="M25.416 23.7431c0.9535 1.665 1.7895 3.3331 2.4174 4.6566 0.6993 1.4741 2.4462 2.2322 3.848 1.3973 2.4498 -1.4593 3.754 -3.1674 4.4454 -4.6355 0.9636 -2.0465 -0.2667 -4.234 -2.2727 -5.2793 -1.7717 -0.9232 -4.1449 -1.9161 -6.6357 -2.2572 0.4913 0.6644 0.7818 1.4862 0.7818 2.3759 0 1.7107 -1.0738 3.1705 -2.5842 3.7422Z" stroke-width="1"></path>
  </g>
</svg>
