<svg xmlns="http://www.w3.org/2000/svg" fill="none" viewBox="0 0 48 48">
  <g>
    <path fill="currentColor" fill-rule="evenodd" d="M24 5c8.4223 0 15.25 6.8277 15.25 15.25S32.4223 35.5 24 35.5 8.75 28.6723 8.75 20.25 15.5777 5 24 5Zm19.25 15.25C43.25 9.61852 34.6315 1 24 1S4.75 9.61851 4.75 20.25c0 8.118 5.02503 15.0623 12.1343 17.8921l-2.0728 1.1844c-1.4294 0.8168 -2.3115 2.3369 -2.3115 3.9831 0 2.0383 1.6524 3.6907 3.6906 3.6907h15.618c2.0383 0 3.6907 -1.6524 3.6907 -3.6907 0 -1.6462 -0.8821 -3.1663 -2.3115 -3.9831l-2.0725 -1.1843C38.2247 35.3125 43.25 28.3681 43.25 20.25ZM22.0458 7.30719c1.6084 -0.20782 3.7578 -0.02701 6.2685 1.28635 0.9231 0.48291 1.4126 1.34986 1.5075 2.26736 0.094 0.9092 -0.195 1.8802 -0.828 2.6363 -0.7961 0.951 -1.7125 2.1245 -2.5623 3.4008 0.2363 0.1717 0.4537 0.3677 0.6486 0.5845 0.0198 0.0003 0.0397 0.0018 0.0597 0.0045 2.4572 0.3366 4.7802 1.3119 6.4971 2.2065 2.0543 1.0705 3.4666 3.4103 2.3906 5.6956 -0.7022 1.4912 -2.0154 3.1971 -4.4397 4.6412 -1.6508 0.9833 -3.6185 0.0574 -4.3806 -1.549 -0.5717 -1.2051 -1.324 -2.7086 -2.1806 -4.2195l-0.0419 0.0105c-0.0059 0.0106 -0.0123 0.0211 -0.0191 0.0315 -1.5403 2.3362 -3.7992 3.9446 -5.5638 4.9373 -1.8344 1.032 -4.2602 0.9722 -5.6349 -0.8283 -0.9842 -1.289 -1.9023 -3.2408 -2.0202 -6.0718 -0.0434 -1.0409 0.4627 -1.8983 1.2098 -2.4392 0.7404 -0.5361 1.7258 -0.7713 2.6971 -0.6011 1.2222 0.2141 2.6975 0.421 4.2285 0.5187 0.0257 -0.2491 0.0735 -0.4916 0.1414 -0.7257 -0.0065 -0.0108 -0.0126 -0.0218 -0.0183 -0.0332 -1.2533 -2.5022 -1.5168 -5.2628 -1.4941 -7.2875 0.0235 -2.10466 1.2881 -4.17551 3.5347 -4.46581Zm1.9545 11.24941c0.935 0 1.693 0.758 1.693 1.6931 0 0.935 -0.758 1.693 -1.693 1.693 -0.9351 0 -1.6931 -0.758 -1.6931 -1.693 0 -0.9351 0.758 -1.6931 1.6931 -1.6931Z" clip-rule="evenodd" stroke-width="3.429"></path>
  </g>
</svg>
