<svg xmlns="http://www.w3.org/2000/svg" fill="none" viewBox="0 0 48 48">
  <g>
    <path fill="currentColor" fill-rule="evenodd" d="M24 0.5C34.7696 0.5 43.5 9.23045 43.5 20c0 8.7677 -5.7864 16.1838 -13.7487 18.638l4.2148 3.0105c0.9626 0.6876 1.5339 1.7978 1.5339 2.9808 0 1.5863 -1.2859 2.8722 -2.8723 2.8722H15.3723c-1.5863 0 -2.8723 -1.2859 -2.8723 -2.8722 0 -1.183 0.5713 -2.2932 1.5339 -2.9808l4.2148 -3.0105C10.2864 36.1839 4.5 28.7677 4.5 20 4.5 9.23044 13.2304 0.5 24 0.5Zm-2.1728 4.97299c2.1202 -0.27397 4.9586 0.04655 8.2101 2.05913 1.9517 1.20803 1.9234 3.74348 0.6477 5.19768 -0.7779 0.8869 -1.7434 2.0559 -2.6774 3.3618 2.8367 0.3324 5.3366 1.5087 7.0568 2.5277 2.174 1.2877 3.7616 3.9853 2.6037 6.762 -0.8229 1.9732 -2.5197 4.2711 -5.8884 6.0807 -2.022 1.0861 -4.2036 -0.2061 -4.8252 -2.038 -0.3794 -1.118 -0.9095 -2.5399 -1.5742 -4.0029 -1.7063 2.2912 -3.9755 3.8684 -5.7184 4.8489 -2.2022 1.2389 -5.3322 1.265 -7.1579 -1.1262 -1.2974 -1.6992 -2.4391 -4.3176 -2.3219 -8.1397 0.0704 -2.2943 2.2803 -3.5375 4.1775 -3.1598 1.1575 0.2303 2.6533 0.4821 4.2519 0.638 -1.1298 -2.6223 -1.3609 -5.3747 -1.3386 -7.3735 0.0282 -2.52655 1.5706 -5.25028 4.5543 -5.63581ZM24 23c-1.6569 0 -3 -1.3431 -3 -3s1.3431 -3 3 -3 3 1.3431 3 3 -1.3431 3 -3 3Z" clip-rule="evenodd" stroke-width="1"></path>
  </g>
</svg>
