<svg xmlns="http://www.w3.org/2000/svg" viewBox="0 0 24 24" fill="none"><path opacity="0.4" d="M1.25009 7.94443V11.0001V11.066C1.25007 13.3701 1.25006 15.1763 1.43955 16.586C1.63379 18.0308 2.03985 19.1707 2.93466 20.0655C3.82947 20.9603 4.96942 21.3664 6.41415 21.5606C7.82385 21.7501 9.63009 21.7501 11.9342 21.7501H12.0001H13.2501H13.2835C15.0075 21.7501 16.3584 21.7501 17.4337 21.6407C18.5283 21.5294 19.4202 21.2986 20.1944 20.7813C20.8223 20.3618 21.3618 19.8223 21.7813 19.1944C22.2986 18.4202 22.5294 17.5283 22.6407 16.4337C22.7501 15.3584 22.7501 14.0075 22.7501 12.2835V12.2501V12.2263C22.7501 11.1998 22.7501 10.3729 22.6827 9.71005C22.6135 9.02964 22.467 8.43911 22.1183 7.91708C21.8447 7.50762 21.4926 7.15552 21.0831 6.88193C20.5611 6.53322 19.9705 6.38669 19.2901 6.31747C18.6273 6.25008 17.8004 6.25008 16.7739 6.25009H16.7501H12.464L12.0372 5.39755C11.5503 4.42364 10.9535 3.04736 9.46298 2.48837C8.7959 2.23822 8.04912 2.25009 6.94443 2.25009L6.9283 2.25009C6.04108 2.25009 5.32644 2.25009 4.75009 2.30087C4.16041 2.35285 3.64421 2.46271 3.17294 2.72568C2.5657 3.06455 2.06456 3.56569 1.72568 4.17294C1.46271 4.64421 1.35285 5.1604 1.30087 5.75009C1.25009 6.32644 1.25009 7.0411 1.25009 7.92833V7.94443Z" fill="currentColor"/><path d="M13.1944 10.4073C13.5218 9.96276 14.1482 9.86726 14.5929 10.1944V10.1954H14.5938C14.5944 10.1958 14.5959 10.1967 14.5968 10.1974C14.5985 10.1987 14.6006 10.201 14.6036 10.2032C14.61 10.208 14.6192 10.215 14.6309 10.2237C14.6545 10.2413 14.6887 10.2666 14.7315 10.2989C14.8171 10.3636 14.9387 10.456 15.0841 10.5694C15.3736 10.7954 15.763 11.1077 16.1553 11.4483C16.5427 11.7847 16.9561 12.1684 17.2804 12.5353C17.4415 12.7176 17.6022 12.9199 17.7276 13.128C17.8365 13.3087 18.0001 13.6229 18.0001 14.0001C18.0001 14.3774 17.8365 14.6915 17.7276 14.8722C17.6022 15.0803 17.4415 15.2826 17.2804 15.465C16.9562 15.8318 16.5427 16.2156 16.1553 16.5519C15.763 16.8925 15.3736 17.2048 15.0841 17.4308C14.9387 17.5442 14.8171 17.6366 14.7315 17.7013C14.6887 17.7336 14.6545 17.7589 14.6309 17.7765C14.6192 17.7852 14.61 17.7922 14.6036 17.797C14.6006 17.7992 14.5985 17.8015 14.5968 17.8028L14.5938 17.8048H14.5929V17.8058C14.1482 18.1329 13.5228 18.0374 13.1954 17.5929C12.8679 17.1482 12.9626 16.522 13.4073 16.1944H13.4083C13.4093 16.1937 13.4109 16.1922 13.4132 16.1905L13.5264 16.1056C13.6048 16.0464 13.7179 15.9605 13.8536 15.8546C14.1265 15.6416 14.4873 15.3516 14.8448 15.0411C15.2072 14.7265 15.5441 14.4093 15.7823 14.1398C15.8278 14.0883 15.8647 14.0404 15.8975 13.9991C15.8648 13.9581 15.8275 13.9106 15.7823 13.8595C15.5441 13.59 15.2071 13.2737 14.8448 12.9591C14.4873 12.6487 14.1265 12.3586 13.8536 12.1456C13.7179 12.0397 13.6048 11.9539 13.5264 11.8946L13.4132 11.8097C13.4109 11.808 13.4093 11.8065 13.4083 11.8058H13.4073C12.9627 11.4784 12.8672 10.852 13.1944 10.4073Z" fill="currentColor"/><path d="M9.40732 10.1944C9.85199 9.86726 10.4783 9.96276 10.8058 10.4073C11.1329 10.852 11.0374 11.4784 10.5929 11.8058H10.5919C10.5909 11.8065 10.5893 11.808 10.587 11.8097L10.4737 11.8946C10.3953 11.9539 10.2823 12.0397 10.1466 12.1456C9.8737 12.3586 9.5129 12.6487 9.15536 12.9591C8.79304 13.2737 8.45603 13.59 8.21786 13.8595C8.17249 13.9108 8.13446 13.9579 8.10165 13.9991C8.13456 14.0405 8.17222 14.0881 8.21786 14.1398C8.45603 14.4093 8.793 14.7265 9.15536 15.0411C9.51289 15.3516 9.8737 15.6416 10.1466 15.8546C10.2823 15.9605 10.3953 16.0464 10.4737 16.1056L10.587 16.1905C10.5893 16.1922 10.5909 16.1937 10.5919 16.1944H10.5929C11.0376 16.522 11.1323 17.1482 10.8048 17.5929C10.4773 18.0374 9.85196 18.1329 9.40732 17.8058V17.8048H9.40634C9.4058 17.8044 9.40432 17.8035 9.40341 17.8028C9.40164 17.8015 9.39961 17.7992 9.39658 17.797C9.39015 17.7922 9.38099 17.7852 9.36923 17.7765C9.34565 17.7589 9.31148 17.7336 9.26865 17.7013C9.18303 17.6366 9.06143 17.5442 8.91611 17.4308C8.62656 17.2048 8.23716 16.8925 7.84482 16.5519C7.45748 16.2156 7.04401 15.8318 6.71982 15.465C6.5587 15.2826 6.398 15.0803 6.27255 14.8722C6.17729 14.7141 6.03977 14.454 6.00693 14.1388L6.00009 14.0001L6.00693 13.8614C6.03976 13.5462 6.17729 13.2861 6.27255 13.128C6.398 12.9199 6.5587 12.7176 6.71982 12.5353C7.04402 12.1684 7.45746 11.7847 7.84482 11.4483C8.23716 11.1077 8.62656 10.7954 8.91611 10.5694C9.06142 10.456 9.18303 10.3636 9.26865 10.2989C9.31148 10.2666 9.34565 10.2413 9.36923 10.2237C9.381 10.215 9.39015 10.208 9.39658 10.2032C9.3996 10.201 9.40163 10.1987 9.40341 10.1974L9.40634 10.1954H9.40732V10.1944Z" fill="currentColor"/></svg>
