<svg xmlns="http://www.w3.org/2000/svg" viewBox="0 0 24 24" fill="none"><path d="M6.94443 2.25009C8.0491 2.25009 8.7959 2.23823 9.46298 2.48837C10.9535 3.04734 11.5503 4.42365 12.0372 5.39755L12.464 6.25009H16.7735C17.8 6.25008 18.6273 6.25008 19.2901 6.31747C19.9705 6.38669 20.5611 6.53324 21.0831 6.88193C21.4925 7.15551 21.8447 7.50764 22.1183 7.91708C22.4669 8.43909 22.6135 9.02967 22.6827 9.71005C22.7501 10.3729 22.7501 11.2002 22.7501 12.2267V12.2833C22.7501 14.0073 22.7501 15.3584 22.6407 16.4337C22.5294 17.5282 22.2986 18.4202 21.7813 19.1944C21.3618 19.8223 20.8223 20.3618 20.1944 20.7813C19.4202 21.2986 18.5283 21.5294 17.4337 21.6407C16.3584 21.7501 15.0073 21.7501 13.2833 21.7501H11.9347C9.63054 21.7501 7.82385 21.7501 6.41415 21.5606C4.96942 21.3664 3.82947 20.9603 2.93466 20.0655C2.03988 19.1707 1.63378 18.0307 1.43955 16.586C1.25008 15.1764 1.25007 13.3704 1.25009 11.0665V7.9288C1.25009 7.04156 1.25009 6.32644 1.30087 5.75009C1.35286 5.16044 1.46273 4.64419 1.72568 4.17294C2.06456 3.56572 2.56572 3.06454 3.17294 2.72568C3.6442 2.46273 4.16042 2.35285 4.75009 2.30087C5.32633 2.2501 6.04083 2.25009 6.92783 2.25009H6.94443ZM10.8058 10.4073C10.4783 9.96282 9.85197 9.86731 9.40732 10.1944V10.1954H9.40634L9.40341 10.1974C9.40164 10.1987 9.39958 10.201 9.39658 10.2032C9.39016 10.208 9.38098 10.215 9.36923 10.2237C9.34566 10.2413 9.31145 10.2666 9.26865 10.2989C9.18305 10.3636 9.0614 10.456 8.91611 10.5694C8.62657 10.7954 8.23715 11.1077 7.84482 11.4483C7.45748 11.7846 7.04401 12.1684 6.71982 12.5352C6.55872 12.7176 6.398 12.9199 6.27255 13.128C6.1773 13.286 6.03978 13.5462 6.00693 13.8614L6.00009 14.0001L6.00693 14.1388C6.03977 14.4539 6.17729 14.7141 6.27255 14.8722C6.39799 15.0802 6.55872 15.2826 6.71982 15.4649C7.044 15.8318 7.45749 16.2155 7.84482 16.5518C8.23714 16.8925 8.62657 17.2048 8.91611 17.4308C9.06141 17.5441 9.18304 17.6366 9.26865 17.7013C9.31145 17.7336 9.34566 17.7589 9.36923 17.7765C9.38096 17.7852 9.39016 17.7922 9.39658 17.797C9.39958 17.7992 9.40165 17.8015 9.40341 17.8028C9.40429 17.8035 9.40576 17.8044 9.40634 17.8048H9.40732V17.8058C9.85196 18.1329 10.4773 18.0374 10.8048 17.5929C11.1322 17.1482 11.0375 16.5219 10.5929 16.1944H10.5919C10.5909 16.1937 10.5892 16.1922 10.587 16.1905L10.4737 16.1056C10.3953 16.0463 10.2823 15.9605 10.1466 15.8546C9.87371 15.6416 9.51287 15.3515 9.15537 15.0411C8.79302 14.7265 8.45602 14.4093 8.21787 14.1397C8.17225 14.0881 8.13455 14.0405 8.10165 13.9991C8.13445 13.9579 8.17251 13.9108 8.21787 13.8595C8.45602 13.59 8.79307 13.2736 9.15537 12.9591C9.51288 12.6487 9.87371 12.3585 10.1466 12.1456C10.2823 12.0397 10.3953 11.9538 10.4737 11.8946L10.587 11.8097C10.5892 11.808 10.5909 11.8065 10.5919 11.8058H10.5929C11.0374 11.4783 11.1329 10.852 10.8058 10.4073ZM14.5929 10.1944C14.1482 9.8673 13.5218 9.96282 13.1944 10.4073C12.8673 10.852 12.9628 11.4783 13.4073 11.8058H13.4083C13.4093 11.8065 13.4109 11.808 13.4132 11.8097L13.5265 11.8946C13.6049 11.9538 13.7179 12.0397 13.8536 12.1456C14.1265 12.3585 14.4873 12.6487 14.8448 12.9591C15.2071 13.2736 15.5442 13.59 15.7823 13.8595C15.8275 13.9106 15.8648 13.9581 15.8976 13.9991C15.8647 14.0403 15.8278 14.0883 15.7823 14.1397C15.5442 14.4093 15.2072 14.7265 14.8448 15.0411C14.4873 15.3515 14.1265 15.6416 13.8536 15.8546C13.7179 15.9605 13.6049 16.0463 13.5265 16.1056L13.4132 16.1905C13.411 16.1922 13.4093 16.1937 13.4083 16.1944H13.4073C12.9626 16.5219 12.8679 17.1482 13.1954 17.5929C13.5228 18.0374 14.1482 18.1329 14.5929 17.8058V17.8048H14.5938L14.5968 17.8028C14.5985 17.8015 14.6006 17.7992 14.6036 17.797C14.61 17.7922 14.6192 17.7852 14.631 17.7765C14.6545 17.7589 14.6887 17.7336 14.7315 17.7013C14.8171 17.6366 14.9388 17.5441 15.0841 17.4308C15.3736 17.2048 15.763 16.8925 16.1554 16.5518C16.5427 16.2155 16.9562 15.8318 17.2804 15.4649C17.4415 15.2826 17.6022 15.0802 17.7276 14.8722C17.8365 14.6915 18.0001 14.3773 18.0001 14.0001C18.0001 13.6229 17.8365 13.3087 17.7276 13.128C17.6022 12.9199 17.4415 12.7176 17.2804 12.5352C16.9562 12.1684 16.5427 11.7846 16.1554 11.4483C15.763 11.1077 15.3736 10.7954 15.0841 10.5694C14.9388 10.456 14.8171 10.3636 14.7315 10.2989C14.6887 10.2666 14.6545 10.2413 14.631 10.2237C14.6192 10.215 14.61 10.208 14.6036 10.2032C14.6006 10.201 14.5985 10.1987 14.5968 10.1974C14.5959 10.1967 14.5944 10.1958 14.5938 10.1954H14.5929V10.1944Z" fill="currentColor" fill-rule="evenodd" clip-rule="evenodd"/></svg>
