<svg xmlns="http://www.w3.org/2000/svg" viewBox="0 0 24 24" fill="none"><path opacity="0.4" d="M12 2.25C13.9303 2.25 15.5541 2.47372 16.9092 2.89355L14.7656 5.03223C14.3492 5.44697 14.0669 5.9765 13.9521 6.55273H13.9502L13.5391 8.46875C13.2812 9.66932 14.3527 10.718 15.5371 10.4619L17.4355 10.0498L17.4365 10.0508L17.4717 10.043L17.4707 10.042C18.0453 9.92792 18.5745 9.64835 18.9902 9.23438L18.9971 9.22754L21.6201 6.5752C22.4765 8.17494 22.75 10.065 22.75 12C22.75 14.6251 21.9907 17.0854 20.208 18.8906C18.4216 20.6995 15.7071 21.75 12 21.75C10.4515 21.75 9.09789 21.5985 7.91992 21.3096C7.58951 21.2285 7.18966 21.3207 6.83789 21.5801C6.02979 22.1762 4.78902 22.75 3 22.75C2.67 22.75 2.37843 22.5344 2.28223 22.2188C2.18605 21.9031 2.30807 21.561 2.58203 21.377C3.1813 20.9741 3.81966 19.617 2.7373 17.9004C1.63081 16.2122 1.25 14.1434 1.25 12C1.25 9.42427 1.8005 6.95115 3.50098 5.125C5.21037 3.28928 7.94704 2.25 12 2.25Z" fill="currentColor"/><path d="M8 11C8.55228 11 9 11.4477 9 12C9 12.5523 8.55228 13 8 13C7.44772 13 7 12.5523 7 12C7 11.4477 7.44771 11 8 11ZM12.1025 11.0049C12.6066 11.0563 13 11.4824 13 12C13 12.5522 12.5522 12.9999 12 13C11.4823 13 11.0562 12.6067 11.0049 12.1025L11 12L11.0049 11.8975C11.0562 11.3933 11.4823 11 12 11L12.1025 11.0049Z" fill="currentColor"/><path d="M15.6463 5.91808L19.9504 1.62656C20.4545 1.12448 21.2718 1.12448 21.7759 1.62657L22.3717 2.22C22.8758 2.72209 22.8758 3.53613 22.3717 4.03822L18.1073 8.3487C17.8618 8.59327 17.5477 8.75815 17.2063 8.82165L15.2717 9.23996C14.9662 9.30601 14.6942 9.03587 14.7596 8.73145L15.1714 6.81552C15.2352 6.47551 15.4007 6.16266 15.6463 5.91808Z" fill="currentColor"/></svg>
