<svg xmlns="http://www.w3.org/2000/svg" viewBox="0 0 24 24" fill="none"><path opacity="0.4" d="M14.17 22.1006C16.8468 20.7234 21.75 17.3739 21.7501 11.2373V7.74805C21.7501 6.40064 21.7721 5.46059 21.1886 4.51855C20.6145 3.59166 19.9636 3.2822 19.0431 2.82422C17.0401 1.82765 14.6091 1.25 12.0001 1.25C9.39116 1.25 6.96011 1.82764 4.95714 2.82422C4.03666 3.2822 3.38574 3.59166 2.81163 4.51855C2.22814 5.46059 2.25011 6.40064 2.25011 7.74805V11.2373C2.25024 17.3739 7.15346 20.7234 9.83019 22.1006L9.86688 22.1195C10.5847 22.4889 11.092 22.75 12.0001 22.75C12.9082 22.75 13.4156 22.4889 14.1334 22.1195L14.17 22.1006Z" fill="currentColor"/><path d="M15.5001 10C16.0524 10 16.5001 10.4477 16.5001 11C16.5001 11.5523 16.0524 12 15.5001 12H8.50012C7.94784 12 7.50012 11.5523 7.50012 11C7.50012 10.4477 7.94784 10 8.50012 10H15.5001Z" fill="currentColor"/></svg>
