<svg xmlns="http://www.w3.org/2000/svg" viewBox="0 0 24 24" fill="none"><path d="M19.1832 14.6018C19.5185 14.2387 19.6862 14.0572 19.8643 13.9513C20.2942 13.6958 20.8236 13.6878 21.2607 13.9303C21.4418 14.0308 21.6146 14.2072 21.9603 14.5601C22.3059 14.9129 22.4787 15.0894 22.5772 15.2743C22.8147 15.7205 22.8069 16.2609 22.5566 16.6997C22.4529 16.8816 22.2751 17.0528 21.9194 17.3951L17.6878 21.4682C17.0138 22.1169 16.6768 22.4413 16.2556 22.6057C15.8345 22.7701 15.3714 22.758 14.4454 22.7338L14.3194 22.7305C14.0375 22.7231 13.8966 22.7194 13.8146 22.6265C13.7327 22.5336 13.7439 22.3901 13.7662 22.1031L13.7784 21.9473C13.8414 21.1396 13.8728 20.7357 14.0307 20.3727C14.1885 20.0096 14.4607 19.7149 15.0052 19.1253L19.1832 14.6018Z" fill="currentColor"/><path opacity="0.4" d="M8.88574 1.29076C9.01445 1.20667 9.16045 1.26325 9.45215 1.37572C9.92536 1.55818 10.4736 1.8304 11.1426 2.16283L13.917 3.54174C14.0789 3.62221 14.1601 3.66255 14.2051 3.7351C14.2498 3.80753 14.25 3.89772 14.25 4.07787V17.5779C14.25 17.6552 14.2501 17.6941 14.2363 17.7292C14.2226 17.7643 14.1959 17.7926 14.1436 17.8493L13.9033 18.1101L13.8018 18.2195C13.5045 18.54 13.208 18.8596 12.9658 19.2175C12.8573 19.3779 12.803 19.4581 12.7305 19.4773C12.6578 19.4964 12.5776 19.4565 12.417 19.3767L10.0234 18.1882C9.64457 17.9999 9.36384 17.8612 9.14258 17.7605C8.94467 17.6704 8.84556 17.6255 8.79785 17.5515C8.75016 17.4774 8.75 17.376 8.75 17.1736V1.89428C8.75 1.55696 8.75017 1.38832 8.875 1.29857L8.88574 1.29076ZM6.54492 1.46947C6.81979 1.34261 6.95755 1.27911 7.08789 1.34643C7.10289 1.35418 7.12045 1.36634 7.13379 1.3767C7.24964 1.46672 7.25 1.63044 7.25 1.95775V17.3025C7.25 17.4913 7.2498 17.5861 7.20605 17.6579C7.1622 17.7295 7.07135 17.7765 6.89062 17.8698C6.6544 17.9918 6.40115 18.1384 6.11816 18.3025C5.49928 18.6613 4.92784 18.9931 4.50195 19.1853C4.07118 19.3796 3.60343 19.5271 3.11035 19.4392C2.57702 19.3441 2.09848 19.0576 1.75879 18.6364C1.44722 18.2501 1.34375 17.7724 1.29688 17.2966C1.25047 16.8255 1.24999 16.2232 1.25 15.4948V7.26049C1.24999 6.70999 1.24965 6.24413 1.28711 5.85815C1.32692 5.44812 1.41354 5.06915 1.62012 4.70678C1.82713 4.34378 2.10827 4.07834 2.44043 3.83862C2.75206 3.61373 3.15107 3.38338 3.61914 3.11205L4.90723 2.36498C5.55427 1.98987 6.0841 1.68217 6.54492 1.46947ZM18.0527 4.16674C18.9504 4.16671 19.701 4.16695 20.2969 4.24877C20.9276 4.33541 21.4955 4.52651 21.9502 4.99096C22.4027 5.45313 22.5861 6.02646 22.6699 6.66283C22.7496 7.26816 22.75 8.03159 22.75 8.95092V12.2673C22.75 12.6381 22.7496 12.8237 22.6504 12.8816C22.5511 12.9391 22.3682 12.8361 22.0029 12.6296C21.998 12.6268 21.9933 12.6236 21.9883 12.6208C21.0844 12.1194 19.9859 12.1359 19.0977 12.6638C18.722 12.8871 18.4052 13.2329 18.1543 13.5066L18.0811 13.5866L16.4443 15.3591C16.1513 15.6764 16.0041 15.8346 15.877 15.7849C15.7501 15.7349 15.75 15.5192 15.75 15.0876V4.33764C15.7502 4.24351 15.8267 4.16699 15.9209 4.16674H18.0527Z" fill="currentColor"/></svg>
