<svg xmlns="http://www.w3.org/2000/svg" viewBox="0 0 24 24" fill="none"><path opacity="0.4" d="M12 22.75C17.9371 22.75 22.75 17.9371 22.75 12C22.75 6.06294 17.9371 1.25 12 1.25C6.06294 1.25 1.25 6.06294 1.25 12C1.25 17.9371 6.06294 22.75 12 22.75Z" fill="currentColor"/><path d="M15.4003 17.4503C15.649 17.7815 16.1189 17.8484 16.4501 17.5997C16.7812 17.351 16.8481 16.8811 16.5995 16.5499C15.5518 15.155 13.8814 14.2501 11.9999 14.2501C10.1183 14.2501 8.44793 15.155 7.40026 16.5499C7.15159 16.8811 7.2185 17.351 7.54967 17.5997C7.88087 17.8484 8.35075 17.7815 8.59948 17.4503C9.37606 16.4164 10.6101 15.7501 11.9999 15.7501C13.3896 15.7501 14.6237 16.4164 15.4003 17.4503Z" fill="currentColor"/><path d="M9.3867 8.56835C9.62515 8.22971 10.093 8.14834 10.4316 8.3867C10.7703 8.62515 10.8516 9.09296 10.6133 9.43163C10.1442 10.0978 9.3798 10.5498 8.49999 10.5498C7.62017 10.5498 6.8558 10.0978 6.3867 9.43163C6.14834 9.09296 6.22971 8.62515 6.56835 8.3867C6.90702 8.14834 7.37482 8.22971 7.61327 8.56835C7.82827 8.87362 8.1531 9.04979 8.49999 9.04979C8.84688 9.04979 9.1717 8.87362 9.3867 8.56835Z" fill="currentColor"/><path d="M16.3867 8.56835C16.6251 8.22971 17.093 8.14834 17.4316 8.3867C17.7703 8.62515 17.8516 9.09296 17.6133 9.43163C17.1442 10.0978 16.3798 10.5498 15.5 10.5498C14.6202 10.5498 13.8558 10.0978 13.3867 9.43163C13.1483 9.09296 13.2297 8.62515 13.5683 8.3867C13.907 8.14834 14.3748 8.22971 14.6133 8.56835C14.8283 8.87362 15.1531 9.04979 15.5 9.04979C15.8469 9.04979 16.1717 8.87362 16.3867 8.56835Z" fill="currentColor"/></svg>
