<svg xmlns="http://www.w3.org/2000/svg" viewBox="0 0 24 24" fill="none"><path d="M12 22.75C17.9371 22.75 22.75 17.9371 22.75 12C22.75 6.06294 17.9371 1.25 12 1.25C6.06294 1.25 1.25 6.06294 1.25 12C1.25 17.9371 6.06294 22.75 12 22.75ZM8.5 10.5498C7.62019 10.5498 6.85581 10.0978 6.38672 9.43164C6.14835 9.09297 6.22972 8.62516 6.56836 8.38672C6.90703 8.14836 7.37484 8.22972 7.61328 8.56836C7.82828 8.87362 8.15312 9.0498 8.5 9.0498C8.84688 9.0498 9.17172 8.87362 9.38672 8.56836C9.62516 8.22972 10.093 8.14835 10.4316 8.38672C10.7703 8.62516 10.8516 9.09298 10.6133 9.43164C10.1442 10.0978 9.37981 10.5498 8.5 10.5498ZM15.5 10.5498C14.6202 10.5498 13.8558 10.0978 13.3867 9.43164C13.1484 9.09297 13.2297 8.62516 13.5684 8.38672C13.907 8.14836 14.3748 8.22972 14.6133 8.56836C14.8283 8.87362 15.1531 9.0498 15.5 9.0498C15.8469 9.0498 16.1717 8.87362 16.3867 8.56836C16.6252 8.22972 17.093 8.14835 17.4316 8.38672C17.7703 8.62516 17.8516 9.09298 17.6133 9.43164C17.1442 10.0978 16.3798 10.5498 15.5 10.5498ZM16.4502 17.5996C16.119 17.8483 15.6491 17.7814 15.4004 17.4502C14.6238 16.4163 13.3897 15.75 12 15.75C10.6103 15.75 9.37619 16.4164 8.59961 17.4502C8.35089 17.7814 7.881 17.8483 7.5498 17.5996C7.21863 17.3509 7.15172 16.881 7.40039 16.5498C8.44807 15.155 10.1185 14.25 12 14.25C13.8815 14.25 15.552 15.1549 16.5996 16.5498C16.8482 16.881 16.7812 17.3509 16.4502 17.5996Z" fill="currentColor"/></svg>
