<svg xmlns="http://www.w3.org/2000/svg" viewBox="0 0 24 24" fill="none"><path opacity="0.4" d="M15.0576 3.25H15.0576H8.94238H8.94235C7.34076 3.24998 6.06221 3.24997 5.05957 3.38477C4.02332 3.52409 3.17025 3.81999 2.49512 4.49512C1.81999 5.17025 1.52409 6.02332 1.38477 7.05957C1.24997 8.06221 1.24998 9.34076 1.25 10.9424V10.9424V13.0576V13.0576C1.24998 14.6592 1.24997 15.9378 1.38477 16.9404C1.52409 17.9767 1.81999 18.8298 2.49512 19.5049C3.16897 20.1787 4.02012 20.4746 5.05371 20.6143L5.5166 18.8408L5.52501 18.8072C5.69792 18.1154 5.84365 17.5325 6.01856 17.0732C6.20411 16.5862 6.4503 16.1591 6.86914 15.832C7.28787 15.5052 7.76111 15.3705 8.27832 15.3086C8.76852 15.25 9.37353 15.25 10.091 15.25H10.123H13.877H13.9071C14.6252 15.25 15.2302 15.25 15.7207 15.3086C16.2382 15.3705 16.7119 15.505 17.1309 15.832C17.5498 16.1591 17.7949 16.5862 17.9805 17.0732C18.1567 17.5359 18.3037 18.1239 18.4783 18.8224L18.4834 18.8428L18.9404 20.6143C19.9766 20.4749 20.8298 20.18 21.5049 19.5049C22.18 18.8298 22.4759 17.9767 22.6152 16.9404C22.75 15.9378 22.75 14.6592 22.75 13.0577V13.0576V10.9424V10.9423C22.75 9.34076 22.75 8.06219 22.6152 7.05957C22.4759 6.02332 22.18 5.17025 21.5049 4.49512C20.8298 3.81999 19.9767 3.52409 18.9404 3.38477C17.9378 3.24997 16.6592 3.24998 15.0576 3.25Z" fill="currentColor"/><path d="M15.543 16.7979C15.1551 16.7515 14.6447 16.75 13.877 16.75H10.123C9.35534 16.75 8.84491 16.7515 8.45703 16.7979C8.08943 16.8419 7.91547 16.9183 7.79199 17.0146C7.6686 17.1111 7.55171 17.2606 7.41992 17.6064C7.28083 17.9716 7.15602 18.4667 6.96973 19.2119L6.96777 19.2188L6.57422 20.7256C7.27009 20.7484 8.05694 20.75 8.94238 20.75H15.0576C15.9406 20.75 16.7255 20.7482 17.4199 20.7256L17.0312 19.2168L17.0293 19.2119C16.843 18.4667 16.7182 17.9716 16.5791 17.6064C16.4473 17.2605 16.3305 17.111 16.207 17.0146C16.0836 16.9184 15.9102 16.8418 15.543 16.7979Z" fill="currentColor"/><path d="M9.25 10C9.25 9.30964 8.69036 8.75 8 8.75C7.30964 8.75 6.75 9.30964 6.75 10C6.75 10.6904 7.30964 11.25 8 11.25C8.69036 11.25 9.25 10.6904 9.25 10ZM10.75 10C10.75 10.4506 10.6394 10.8747 10.4473 11.25H13.5527C13.3606 10.8747 13.25 10.4506 13.25 10C13.25 9.54942 13.3606 9.12532 13.5527 8.75H10.4473C10.6394 9.12532 10.75 9.54942 10.75 10ZM14.75 10C14.75 10.6904 15.3096 11.25 16 11.25C16.6904 11.25 17.25 10.6904 17.25 10C17.25 9.30964 16.6904 8.75 16 8.75C15.3096 8.75 14.75 9.30964 14.75 10ZM18.75 10C18.75 11.5188 17.5188 12.75 16 12.75H8C6.48122 12.75 5.25 11.5188 5.25 10C5.25 8.48122 6.48122 7.25 8 7.25H16C17.5188 7.25 18.75 8.48122 18.75 10Z" fill="currentColor"/></svg>
