<svg xmlns="http://www.w3.org/2000/svg" viewBox="0 0 24 24" fill="none"><path d="M13.8765 16.75C14.6442 16.75 15.1546 16.7515 15.5425 16.7979C15.9097 16.8418 16.0831 16.9184 16.2065 17.0146C16.33 17.111 16.4468 17.2605 16.5786 17.6064C16.7177 17.9716 16.8425 18.4667 17.0288 19.2119L17.0308 19.2168L17.4194 20.7256C16.725 20.7482 15.9401 20.75 15.0571 20.75H8.94189C8.05645 20.75 7.2696 20.7484 6.57373 20.7256L6.96729 19.2188L6.96924 19.2119C7.15553 18.4667 7.28034 17.9716 7.41943 17.6064C7.55122 17.2606 7.66811 17.1111 7.7915 17.0146C7.91499 16.9183 8.08894 16.8419 8.45654 16.7979C8.84442 16.7515 9.35485 16.75 10.1226 16.75H13.8765ZM15.0571 3.25C16.6587 3.24998 17.9373 3.24996 18.9399 3.38477C19.9762 3.52409 20.8293 3.81999 21.5044 4.49512C22.1795 5.17025 22.4754 6.02332 22.6147 7.05957C22.7495 8.06221 22.7495 9.34079 22.7495 10.9424V13.0576C22.7495 14.6592 22.7495 15.9378 22.6147 16.9404C22.4754 17.9767 22.1795 18.8298 21.5044 19.5049C20.8293 20.18 19.9761 20.4749 18.9399 20.6143L18.4829 18.8428C18.3061 18.1353 18.1579 17.5404 17.98 17.0732C17.7944 16.5862 17.5493 16.1591 17.1304 15.832C16.7114 15.505 16.2377 15.3705 15.7202 15.3086C15.2228 15.2492 14.6077 15.25 13.8765 15.25H10.1226C9.39105 15.25 8.77532 15.2491 8.27783 15.3086C7.76062 15.3705 7.28738 15.5052 6.86865 15.832C6.44982 16.1591 6.20362 16.5862 6.01807 17.0732C5.84033 17.5399 5.69273 18.1343 5.51611 18.8408L5.05322 20.6143C4.01963 20.4746 3.16848 20.1787 2.49463 19.5049C1.8195 18.8298 1.5236 17.9767 1.38428 16.9404C1.24948 15.9378 1.24949 14.6592 1.24951 13.0576V10.9424C1.24949 9.34078 1.24948 8.06221 1.38428 7.05957C1.5236 6.02332 1.8195 5.17025 2.49463 4.49512C3.16976 3.81998 4.02283 3.52409 5.05908 3.38477C6.06173 3.24996 7.34029 3.24998 8.94189 3.25H15.0571ZM7.99951 7.25C6.48073 7.25 5.24951 8.48122 5.24951 10C5.24951 11.5188 6.48073 12.75 7.99951 12.75H15.9995C17.5183 12.75 18.7495 11.5188 18.7495 10C18.7495 8.48122 17.5183 7.25 15.9995 7.25H7.99951ZM7.99951 8.75C8.68987 8.75 9.24951 9.30964 9.24951 10C9.24951 10.6904 8.68987 11.25 7.99951 11.25C7.30916 11.25 6.74951 10.6904 6.74951 10C6.74951 9.30964 7.30916 8.75 7.99951 8.75ZM13.5522 8.75C13.3602 9.12532 13.2495 9.54942 13.2495 10C13.2495 10.4506 13.3602 10.8747 13.5522 11.25H10.4468C10.6389 10.8747 10.7495 10.4506 10.7495 10C10.7495 9.54942 10.6389 9.12532 10.4468 8.75H13.5522ZM15.9995 8.75C16.6899 8.75 17.2495 9.30964 17.2495 10C17.2495 10.6904 16.6899 11.25 15.9995 11.25C15.3092 11.25 14.7495 10.6904 14.7495 10C14.7495 9.30964 15.3092 8.75 15.9995 8.75Z" fill="currentColor"/></svg>
