<svg xmlns="http://www.w3.org/2000/svg" viewBox="0 0 24 24" fill="none"><path d="M1.25009 21.1567V20.1605C1.25009 19.4406 1.53606 18.7502 2.04509 18.2412L7.55598 12.7303C7.86321 12.4231 8.2799 12.2505 8.71438 12.2505C9.14886 12.2505 9.56555 12.4231 9.87277 12.7303L10.2703 13.1278C10.5775 13.435 10.7501 13.8517 10.7501 14.2862C10.7501 14.7207 10.5775 15.1374 10.2703 15.4446L4.75937 20.9555C4.25035 21.4645 3.55996 21.7505 2.84009 21.7505H1.84384C1.51592 21.7505 1.25009 21.4847 1.25009 21.1567Z" fill="currentColor"/><path d="M6.94443 2.25009C8.04909 2.25009 8.79591 2.23824 9.46298 2.48837C10.9534 3.04733 11.5503 4.42365 12.0372 5.39755L12.464 6.25009H16.7735C17.8 6.25008 18.6273 6.25008 19.2901 6.31747C19.9705 6.38668 20.5611 6.53326 21.0831 6.88192C21.4925 7.15549 21.8447 7.50767 22.1183 7.91708C22.4669 8.43906 22.6135 9.02971 22.6827 9.71005C22.7501 10.3729 22.7501 11.2002 22.7501 12.2267V12.2833C22.7501 14.0072 22.7501 15.3584 22.6407 16.4337C22.5294 17.5282 22.2985 18.4202 21.7813 19.1944C21.3618 19.8222 20.8222 20.3618 20.1944 20.7813C19.4202 21.2986 18.5283 21.5294 17.4337 21.6407C16.3584 21.7501 15.0073 21.7501 13.2833 21.7501H11.9347C9.63054 21.7501 7.82385 21.7501 6.41415 21.5606C6.26905 21.5411 6.12739 21.5173 5.98837 21.4933L11.1544 16.3282C11.6959 15.7867 12 15.052 12.0001 14.2862C12.0001 13.5203 11.696 12.7849 11.1544 12.2433L10.7569 11.8458C10.2153 11.3042 9.47994 11.0001 8.71396 11.0001C7.94815 11.0002 7.2135 11.3043 6.67197 11.8458L1.50595 17.0108C1.48198 16.8722 1.45899 16.7307 1.43955 16.586C1.25009 15.1764 1.25007 13.3704 1.25009 11.0665V7.9288C1.25009 7.04156 1.25009 6.32644 1.30087 5.75009C1.35286 5.16048 1.46274 4.64416 1.72568 4.17294C2.06456 3.56575 2.56574 3.06453 3.17294 2.72567C3.64419 2.46274 4.16044 2.35285 4.75009 2.30087C5.32633 2.2501 6.04083 2.25009 6.92783 2.25009H6.94443Z" fill="currentColor"/></svg>
