<svg xmlns="http://www.w3.org/2000/svg" viewBox="0 0 24 24" fill="none"><path d="M14.5576 1.75C16.1592 1.74998 17.4378 1.74996 18.4404 1.88477C19.4767 2.02409 20.3298 2.31999 21.0049 2.99512C21.68 3.67025 21.9759 4.52332 22.1152 5.55957C22.1987 6.18028 22.2281 6.90668 22.2402 7.75H1.75977C1.77187 6.90668 1.80131 6.18028 1.88477 5.55957C2.02409 4.52332 2.31999 3.67025 2.99512 2.99512C3.67025 2.31999 4.52332 2.02409 5.55957 1.88477C6.3115 1.78367 7.21861 1.75826 8.30078 1.75195L9.44238 1.75H14.5576ZM18 3.75C17.4477 3.75 17 4.19772 17 4.75C17 5.30228 17.4477 5.75 18 5.75C18.5523 5.75 19 5.30229 19 4.75C19 4.23232 18.6067 3.80621 18.1025 3.75488L18 3.75ZM6 4C5.58579 4 5.25 4.33579 5.25 4.75C5.25 5.16421 5.58579 5.5 6 5.5H10C10.4142 5.5 10.75 5.16421 10.75 4.75C10.75 4.33579 10.4142 4 10 4H6Z" fill="currentColor"/><path d="M22.25 14.5576C22.25 16.1592 22.25 17.4378 22.1152 18.4404C21.9759 19.4767 21.68 20.3298 21.0049 21.0049C20.3298 21.68 19.4767 21.9759 18.4404 22.1152C17.4378 22.25 16.1592 22.25 14.5576 22.25H9.44238C7.84082 22.25 6.56219 22.25 5.55957 22.1152C4.52332 21.9759 3.67025 21.68 2.99512 21.0049C2.31999 20.3298 2.02409 19.4767 1.88477 18.4404C1.74996 17.4378 1.74998 16.1592 1.75 14.5576V9.25H22.25V14.5576ZM9.5 12.25C7.567 12.25 6 13.817 6 15.75C6 17.683 7.567 19.25 9.5 19.25C10.0252 19.25 10.5227 19.133 10.9697 18.9258C10.2122 18.0842 9.75 16.9715 9.75 15.75C9.75 14.5283 10.2119 13.4149 10.9697 12.5732C10.5228 12.3661 10.025 12.25 9.5 12.25ZM14.5 12.25C12.567 12.25 11 13.817 11 15.75C11 17.683 12.567 19.25 14.5 19.25C16.433 19.25 18 17.683 18 15.75C18 13.817 16.433 12.25 14.5 12.25Z" fill="currentColor"/></svg>
