<svg xmlns="http://www.w3.org/2000/svg" viewBox="0 0 24 24" fill="none"><path d="M2.25 11C2.25 7.8215 4.8215 5.25 8 5.25C8.24876 5.25 8.48155 5.37319 8.62109 5.5791C8.76058 5.78513 8.78864 6.04729 8.69629 6.27832L7.69629 8.77832C7.54248 9.16285 7.10623 9.35 6.72168 9.19629C6.33715 9.04248 6.15 8.60623 6.30371 8.22168L6.82617 6.91406C5.04846 7.42254 3.75 9.05728 3.75 11C3.75 11.4142 3.41421 11.75 3 11.75C2.58579 11.75 2.25 11.4142 2.25 11Z" fill="currentColor"/><path d="M21.75 13C21.75 16.1785 19.1785 18.75 16 18.75C15.7512 18.75 15.5184 18.6268 15.3789 18.4209C15.2394 18.2149 15.2114 17.9527 15.3037 17.7217L16.3037 15.2217C16.4575 14.8371 16.8938 14.65 17.2783 14.8037C17.6629 14.9575 17.85 15.3938 17.6963 15.7783L17.1738 17.0859C18.9515 16.5775 20.25 14.9427 20.25 13C20.25 12.5858 20.5858 12.25 21 12.25C21.4142 12.25 21.75 12.5858 21.75 13Z" fill="currentColor"/><path opacity="0.4" d="M13.75 17.5577L13.75 17.5L13.75 17.4423C13.7501 16.6648 13.7501 16.0035 13.6758 15.4756C13.596 14.9093 13.4176 14.387 12.9805 13.9697C12.5484 13.5575 12.0165 13.3942 11.4404 13.3203C10.8922 13.25 10.2019 13.25 9.37764 13.25H9.33301H5.667H5.62237C4.79814 13.25 4.10782 13.25 3.55957 13.3203C2.9835 13.3942 2.45165 13.5575 2.01954 13.9697C1.58245 14.387 1.40398 14.9093 1.32422 15.4756C1.24809 16.0165 1.25 16.6974 1.25 17.5C1.25 18.3026 1.24809 18.9835 1.32422 19.5244C1.40398 20.0907 1.58245 20.6131 2.01954 21.0303C2.45165 21.4425 2.9835 21.6058 3.55957 21.6797C4.1078 21.75 4.7981 21.75 5.62231 21.75H5.667H9.33301H9.3777C10.2019 21.75 10.8922 21.75 11.4404 21.6797C12.0165 21.6058 12.5484 21.4425 12.9805 21.0303C13.4176 20.6131 13.596 20.0907 13.6758 19.5244C13.7501 18.9965 13.7501 18.3352 13.75 17.5577Z" fill="currentColor"/><path d="M7.5 16.25C8.19035 16.25 8.75 16.8096 8.75 17.5C8.75 18.1904 8.19035 18.75 7.5 18.75C6.80964 18.75 6.25 18.1904 6.25 17.5C6.25 16.8096 6.80964 16.25 7.5 16.25Z" fill="currentColor"/><path opacity="0.4" d="M22.75 6.55766L22.75 6.5L22.75 6.44234C22.7501 5.66479 22.7501 5.0035 22.6758 4.47559C22.596 3.90931 22.4176 3.38695 21.9805 2.96973C21.5484 2.55746 21.0165 2.39424 20.4404 2.32031C19.8922 2.24996 19.2019 2.24998 18.3776 2.25H18.333H14.667H14.6224C13.7981 2.24998 13.1078 2.24996 12.5596 2.32031C11.9835 2.39424 11.4516 2.55746 11.0195 2.96973C10.5824 3.38695 10.404 3.90931 10.3242 4.47559C10.2481 5.0165 10.25 5.69744 10.25 6.5C10.25 7.30256 10.2481 7.9835 10.3242 8.52442C10.404 9.09069 10.5824 9.61305 11.0195 10.0303C11.4516 10.4425 11.9835 10.6058 12.5596 10.6797C13.1078 10.75 13.7981 10.75 14.6223 10.75H14.667H18.333H18.3777C19.2019 10.75 19.8922 10.75 20.4404 10.6797C21.0165 10.6058 21.5484 10.4425 21.9805 10.0303C22.4176 9.61305 22.596 9.09069 22.6758 8.52442C22.7501 7.9965 22.7501 7.33521 22.75 6.55766Z" fill="currentColor"/><path d="M16.5 5.25C17.1904 5.25 17.75 5.80965 17.75 6.5C17.75 7.19036 17.1904 7.75 16.5 7.75C15.8096 7.75 15.25 7.19036 15.25 6.5C15.25 5.80965 15.8096 5.25 16.5 5.25Z" fill="currentColor"/></svg>
