<svg xmlns="http://www.w3.org/2000/svg" viewBox="0 0 24 24" fill="none"><path d="M2.25 11C2.25 7.8215 4.8215 5.25 8 5.25C8.24876 5.25 8.48155 5.37319 8.62109 5.5791C8.76058 5.78513 8.78864 6.04729 8.69629 6.27832L7.69629 8.77832C7.54248 9.16285 7.10623 9.35 6.72168 9.19629C6.33715 9.04248 6.15 8.60623 6.30371 8.22168L6.82617 6.91406C5.04846 7.42254 3.75 9.05728 3.75 11C3.75 11.4142 3.41421 11.75 3 11.75C2.58579 11.75 2.25 11.4142 2.25 11Z" fill="currentColor"/><path d="M21.75 13C21.75 16.1785 19.1785 18.75 16 18.75C15.7512 18.75 15.5184 18.6268 15.3789 18.4209C15.2394 18.2149 15.2114 17.9527 15.3037 17.7217L16.3037 15.2217C16.4575 14.8371 16.8938 14.65 17.2783 14.8037C17.6629 14.9575 17.85 15.3938 17.6963 15.7783L17.1738 17.0859C18.9515 16.5775 20.25 14.9427 20.25 13C20.25 12.5858 20.5858 12.25 21 12.25C21.4142 12.25 21.75 12.5858 21.75 13Z" fill="currentColor"/><path d="M9.37793 13.25C10.202 13.25 10.8923 13.25 11.4404 13.3203C12.0165 13.3942 12.5484 13.5575 12.9805 13.9697C13.4176 14.3869 13.596 14.9093 13.6758 15.4756C13.7501 16.0035 13.75 16.6648 13.75 17.4424V17.5576C13.75 18.3352 13.7501 18.9965 13.6758 19.5244C13.596 20.0907 13.4176 20.6131 12.9805 21.0303C12.5484 21.4425 12.0165 21.6058 11.4404 21.6797C10.8923 21.75 10.202 21.75 9.37793 21.75H5.62207C4.79798 21.75 4.10775 21.75 3.55957 21.6797C2.9835 21.6058 2.45165 21.4425 2.01954 21.0303C1.58245 20.6131 1.40398 20.0907 1.32422 19.5244C1.24809 18.9835 1.25 18.3026 1.25 17.5C1.25 16.6974 1.24809 16.0165 1.32422 15.4756C1.40398 14.9093 1.58245 14.3869 2.01954 13.9697C2.45165 13.5575 2.9835 13.3942 3.55957 13.3203C4.10775 13.25 4.79798 13.25 5.62207 13.25H9.37793ZM7.5 16.25C6.80965 16.25 6.25 16.8097 6.25 17.5C6.25 18.1904 6.80965 18.75 7.5 18.75C8.19036 18.75 8.75 18.1904 8.75 17.5C8.75 16.8096 8.19036 16.25 7.5 16.25Z" fill="currentColor" fill-rule="evenodd" clip-rule="evenodd"/><path d="M18.3779 2.25C19.202 2.24998 19.8923 2.24997 20.4404 2.32031C21.0165 2.39424 21.5484 2.55746 21.9805 2.96973C22.4176 3.38695 22.596 3.90931 22.6758 4.47559C22.7501 5.0035 22.75 5.66483 22.75 6.44238V6.55762C22.75 7.33517 22.7501 7.9965 22.6758 8.52442C22.596 9.09069 22.4176 9.61305 21.9805 10.0303C21.5484 10.4425 21.0165 10.6058 20.4404 10.6797C19.8923 10.75 19.202 10.75 18.3779 10.75H14.6221C13.798 10.75 13.1077 10.75 12.5596 10.6797C11.9835 10.6058 11.4516 10.4425 11.0195 10.0303C10.5825 9.61305 10.404 9.09069 10.3242 8.52442C10.2481 7.9835 10.25 7.30256 10.25 6.5C10.25 5.69744 10.2481 5.0165 10.3242 4.47559C10.404 3.90931 10.5824 3.38695 11.0195 2.96973C11.4516 2.55746 11.9835 2.39424 12.5596 2.32031C13.1077 2.24997 13.798 2.24998 14.6221 2.25H18.3779ZM16.5 5.25C15.8096 5.25 15.25 5.80965 15.25 6.5C15.25 7.19036 15.8097 7.75 16.5 7.75C17.1904 7.75 17.75 7.19036 17.75 6.5C17.75 5.80965 17.1904 5.25 16.5 5.25Z" fill="currentColor" fill-rule="evenodd" clip-rule="evenodd"/></svg>
