<svg xmlns="http://www.w3.org/2000/svg" viewBox="0 0 24 24" fill="none"><path d="M3.78811 4.76278C3.9191 4.36983 4.34438 4.15719 4.73733 4.28817L6.23733 4.78817C6.63029 4.91916 6.84293 5.34444 6.71194 5.73739C6.58096 6.13035 6.15568 6.34299 5.76272 6.212L4.26272 5.712C3.86977 5.58102 3.65713 5.15574 3.78811 4.76278ZM6.66507 1.32919C7.03548 1.14425 7.48575 1.29477 7.67093 1.66513L8.67093 3.66513C8.85587 4.03554 8.70534 4.48581 8.33499 4.67099C7.96458 4.85593 7.51431 4.7054 7.32913 4.33505L6.32913 2.33505C6.14419 1.96464 6.29471 1.51437 6.66507 1.32919ZM10.2881 1.76278C10.4191 1.36983 10.8444 1.15719 11.2373 1.28817C11.6303 1.41916 11.8429 1.84444 11.7119 2.23739L11.2119 3.73739C11.081 4.13035 10.6557 4.34299 10.2627 4.212C9.86977 4.08102 9.65713 3.65574 9.78811 3.26278L10.2881 1.76278Z" fill="currentColor"/><path d="M10.4883 15V9.25C10.4883 8.69772 10.0406 8.25 9.48828 8.25C8.936 8.25 8.48828 8.69772 8.48828 9.25V15C8.48828 15.2761 8.26442 15.5 7.98828 15.5C7.71231 15.4998 7.48828 15.276 7.48828 15V10.4956C7.48828 9.87132 6.9822 9.36523 6.35791 9.36523C5.73362 9.36523 5.22754 9.87132 5.22754 10.4956V16.0576L4.12891 14.6201C3.7474 14.1208 3.14854 13.8272 2.5127 13.8271C1.81537 13.8271 1.25 14.382 1.25 15.0664V15.1309C1.25 15.3722 1.31841 15.6089 1.44727 15.8145L4.46387 20.627C5.29105 21.9463 6.75668 22.7498 8.33496 22.75H9.2041C11.7145 22.75 13.75 20.7521 13.75 18.2881V11.6113C13.75 10.9868 13.2437 10.4805 12.6191 10.4805C11.9946 10.4805 11.4883 10.9868 11.4883 11.6113V15C11.4883 15.2761 11.2644 15.5 10.9883 15.5C10.7123 15.4998 10.4883 15.276 10.4883 15Z" fill="currentColor"/><path d="M14.5117 3.25C15.064 3.25 15.5117 3.69772 15.5117 4.25V10C15.5117 10.2761 15.7356 10.5 16.0117 10.5C16.2877 10.4998 16.5117 10.276 16.5117 10V5.49609C16.5117 4.87181 17.0183 4.36523 17.6426 4.36523C18.2666 4.3655 18.7725 4.87197 18.7725 5.49609V11.0576L19.8711 9.62012C20.2526 9.12083 20.8515 8.82717 21.4873 8.82715C22.1846 8.82715 22.75 9.38195 22.75 10.0664V10.1309C22.75 10.3722 22.6816 10.6089 22.5527 10.8145L19.5361 15.627C18.709 16.9463 17.2433 17.7498 15.665 17.75H15V11.6113C15 10.6123 14.384 9.75856 13.5117 9.40527V4.25C13.5117 3.69772 13.9594 3.25 14.5117 3.25Z" fill="currentColor"/><path d="M11.3809 5.48047C12.0054 5.48047 12.5117 5.98677 12.5117 6.61133V9.23535C12.2395 9.24772 11.9793 9.30427 11.7383 9.40039V9.25C11.7383 8.27503 11.1173 7.44715 10.25 7.13477V6.61133C10.25 5.98677 10.7563 5.48047 11.3809 5.48047Z" fill="currentColor"/></svg>
