<svg xmlns="http://www.w3.org/2000/svg" viewBox="0 0 24 24" fill="none"><path opacity="0.4" d="M15.0001 6C15.0001 5.55692 14.763 5.07952 14.2286 4.67871C13.6939 4.27766 12.9092 4 12.0001 4C11.091 4 10.3063 4.27766 9.77161 4.67871C9.23722 5.07952 9.00012 5.55692 9.00012 6C9.00012 6.41482 9.24536 6.89601 9.8175 7.31445C10.3836 7.72839 11.1756 8 12.0001 8C14.8194 8 17.0001 9.58365 17.0001 12C17.0001 13.2136 16.3419 14.2359 15.4288 14.9209C14.5159 15.6056 13.3001 16 12.0001 16C10.7001 16 9.48439 15.6056 8.57141 14.9209C7.65833 14.2359 7.00012 13.2136 7.00012 12C7.00012 11.4477 7.44784 11 8.00012 11C8.55241 11 9.00012 11.4477 9.00012 12C9.00012 12.4431 9.23722 12.9205 9.77161 13.3213C10.3063 13.7223 11.091 14 12.0001 14C12.9092 14 13.6939 13.7223 14.2286 13.3213C14.763 12.9205 15.0001 12.4431 15.0001 12C15.0001 11.1026 14.1808 10 12.0001 10C10.7633 10 9.55532 9.60038 8.63684 8.92871C7.72437 8.26137 7.00012 7.24204 7.00012 6C7.00012 4.78642 7.65833 3.76406 8.57141 3.0791C9.48439 2.39437 10.7001 2 12.0001 2C13.3001 2 14.5159 2.39437 15.4288 3.0791C16.3419 3.76406 17.0001 4.78642 17.0001 6C17.0001 6.55228 16.5524 7 16.0001 7C15.4478 7 15.0001 6.55228 15.0001 6Z" fill="currentColor"/><path d="M15.0001 12C15.0001 11.5569 14.763 11.0795 14.2286 10.6787C13.6939 10.2777 12.9092 10 12.0001 10C11.091 10 10.3063 10.2777 9.77161 10.6787C9.23722 11.0795 9.00012 11.5569 9.00012 12C9.00012 12.4148 9.24536 12.896 9.8175 13.3145C10.3836 13.7284 11.1756 14 12.0001 14C14.8194 14 17.0001 15.5837 17.0001 18C17.0001 19.2136 16.3419 20.2359 15.4288 20.9209C14.5159 21.6056 13.3001 22 12.0001 22C10.7001 22 9.48439 21.6056 8.57141 20.9209C7.65833 20.2359 7.00012 19.2136 7.00012 18C7.00012 17.4477 7.44784 17 8.00012 17C8.55241 17 9.00012 17.4477 9.00012 18C9.00012 18.4431 9.23722 18.9205 9.77161 19.3213C10.3063 19.7223 11.091 20 12.0001 20C12.9092 20 13.6939 19.7223 14.2286 19.3213C14.763 18.9205 15.0001 18.4431 15.0001 18C15.0001 17.1026 14.1808 16 12.0001 16C10.7633 16 9.55532 15.6004 8.63684 14.9287C7.72437 14.2614 7.00012 13.242 7.00012 12C7.00012 10.7864 7.65833 9.76406 8.57141 9.0791C9.48439 8.39437 10.7001 8 12.0001 8C13.3001 8 14.5159 8.39437 15.4288 9.0791C16.3419 9.76406 17.0001 10.7864 17.0001 12C17.0001 12.5523 16.5524 13 16.0001 13C15.4478 13 15.0001 12.5523 15.0001 12Z" fill="currentColor"/></svg>
