<svg xmlns="http://www.w3.org/2000/svg" viewBox="0 0 24 24" fill="none"><path opacity="0.4" d="M20.208 18.3906C21.9907 16.5854 22.75 14.1251 22.75 11.5C22.75 8.94321 22.2742 6.46411 20.6045 4.63086C18.9234 2.7851 16.1777 1.75 12 1.75C7.94704 1.75 5.21037 2.78928 3.50098 4.625C1.8005 6.45115 1.25 8.92427 1.25 11.5C1.25 13.6434 1.63081 15.7122 2.7373 17.4004C3.81966 19.117 3.1813 20.4741 2.58203 20.877C2.30807 21.061 2.18605 21.4031 2.28223 21.7188C2.37843 22.0344 2.67 22.25 3 22.25C4.78902 22.25 6.02979 21.6762 6.83789 21.0801C7.18966 20.8207 7.58951 20.7285 7.91992 20.8096C9.09789 21.0985 10.4515 21.25 12 21.25C15.7071 21.25 18.4216 20.1995 20.208 18.3906Z" fill="currentColor"/><path d="M8 10.5C8.55228 10.5 9 10.9477 9 11.5C9 12.0523 8.55228 12.5 8 12.5C7.44772 12.5 7 12.0523 7 11.5C7 10.9477 7.44771 10.5 8 10.5ZM12.1025 10.5049C12.6066 10.5563 13 10.9824 13 11.5C13 12.0522 12.5522 12.4999 12 12.5C11.4823 12.5 11.0562 12.1067 11.0049 11.6025L11 11.5L11.0049 11.3975C11.0562 10.8933 11.4823 10.5 12 10.5L12.1025 10.5049ZM16 10.5C16.5523 10.5 17 10.9477 17 11.5C17 12.0523 16.5523 12.5 16 12.5C15.4477 12.5 15 12.0523 15 11.5C15 10.9477 15.4477 10.5 16 10.5Z" fill="currentColor"/></svg>
