<svg xmlns="http://www.w3.org/2000/svg" viewBox="0 0 24 24" fill="none"><path d="M12 1.75C16.1777 1.75 18.9234 2.7851 20.6045 4.63086C22.2742 6.46411 22.75 8.94321 22.75 11.5C22.75 14.1251 21.9907 16.5854 20.208 18.3906C18.4216 20.1995 15.7071 21.25 12 21.25C10.4515 21.25 9.09789 21.0985 7.91992 20.8096C7.58951 20.7285 7.18966 20.8207 6.83789 21.0801C6.02979 21.6762 4.78902 22.25 3 22.25C2.67 22.25 2.37843 22.0344 2.28223 21.7188C2.18605 21.4031 2.30807 21.061 2.58203 20.877C3.1813 20.4741 3.81966 19.117 2.7373 17.4004C1.63081 15.7122 1.25 13.6434 1.25 11.5C1.25 8.92427 1.8005 6.45115 3.50098 4.625C5.21037 2.78928 7.94704 1.75 12 1.75ZM8 10.5C7.44771 10.5 7 10.9477 7 11.5C7 12.0523 7.44772 12.5 8 12.5C8.55228 12.5 9 12.0523 9 11.5C9 10.9477 8.55228 10.5 8 10.5ZM12 10.5C11.4823 10.5 11.0562 10.8933 11.0049 11.3975L11 11.5L11.0049 11.6025C11.0562 12.1067 11.4823 12.5 12 12.5C12.5522 12.4999 13 12.0522 13 11.5C13 10.9824 12.6066 10.5563 12.1025 10.5049L12 10.5ZM16 10.5C15.4477 10.5 15 10.9477 15 11.5C15 12.0523 15.4477 12.5 16 12.5C16.5523 12.5 17 12.0523 17 11.5C17 10.9477 16.5523 10.5 16 10.5Z" fill="currentColor"/></svg>
