<svg xmlns="http://www.w3.org/2000/svg" fill="none" viewBox="0 0 48 48">
  <g>
    <path fill="#8fbffa" d="M27.1139 2.02314c0.6627 0.01001 1.3214 0.12788 1.9264 0.39854C30.6297 3.13273 33.8148 4.81483 37 8c3.0946 3.0946 4.7705 6.1893 5.5154 7.8204 0.2828 0.6192 0.4086 1.2933 0.4228 1.974C42.9771 19.6635 43 21.7286 43 24c0 7.9714 -0.2824 13.4011 -0.5471 16.7392 -0.2026 2.5557 -2.1523 4.5212 -4.7066 4.74C34.7486 45.7359 30.1665 46 24 46s-10.7486 -0.2641 -13.7463 -0.5208c-2.55434 -0.2188 -4.504 -2.1843 -4.70662 -4.74C5.28241 37.401 5 31.9714 5 24c0 -7.9714 0.28241 -13.401 0.54708 -16.73924 0.20262 -2.5557 2.15228 -4.52118 4.70662 -4.73995C13.2514 2.26407 17.8335 2 24 2c1.0872 0 2.1252 0.00821 3.1139 0.02314Z" stroke-width="1"></path>
    <path stroke="currentColor" stroke-linejoin="round" d="M27.1139 2.02314c0.6627 0.01001 1.3214 0.12788 1.9264 0.39854C30.6297 3.13273 33.8148 4.81483 37 8c3.0946 3.0946 4.7705 6.1893 5.5154 7.8204 0.2828 0.6192 0.4086 1.2933 0.4228 1.974C42.9771 19.6635 43 21.7286 43 24c0 7.9714 -0.2824 13.4011 -0.5471 16.7392 -0.2026 2.5557 -2.1523 4.5212 -4.7066 4.74C34.7486 45.7359 30.1665 46 24 46s-10.7486 -0.2641 -13.7463 -0.5208c-2.55434 -0.2188 -4.504 -2.1843 -4.70662 -4.74C5.28241 37.401 5 31.9714 5 24c0 -7.9714 0.28241 -13.401 0.54708 -16.73924 0.20262 -2.5557 2.15228 -4.52118 4.70662 -4.73995C13.2514 2.26407 17.8335 2 24 2c1.0872 0 2.1252 0.00821 3.1139 0.02314Z" stroke-width="1"></path>
    <path fill="currentColor" fill-opacity="0.4" d="M29.002 2.4043c1.5761 0.70101 4.787 2.38447 7.9979 5.59536 3.2109 3.21094 4.8944 6.42184 5.5955 7.99804 -2.4343 -0.0245 -5.4732 -0.2603 -7.9561 -0.4965 -2.7325 -0.26 -4.8808 -2.4082 -5.1408 -5.1407 -0.2363 -2.483 -0.4721 -5.52192 -0.4965 -7.9562Z" stroke-width="1"></path>
    <path stroke="currentColor" stroke-linejoin="round" d="M29.002 2.4043c1.5761 0.70101 4.787 2.38447 7.9979 5.59536 3.2109 3.21094 4.8944 6.42184 5.5955 7.99804 -2.4343 -0.0245 -5.4732 -0.2603 -7.9561 -0.4965 -2.7325 -0.26 -4.8808 -2.4082 -5.1408 -5.1407 -0.2363 -2.483 -0.4721 -5.52192 -0.4965 -7.9562Z" stroke-width="1"></path>
    <path stroke="currentColor" stroke-linecap="round" d="M14 28h20" stroke-width="1"></path>
    <path stroke="currentColor" stroke-linecap="round" d="M14 36h20" stroke-width="1"></path>
    <path stroke="currentColor" stroke-linecap="round" d="m14 20 10 0" stroke-width="1"></path>
  </g>
</svg>
