<svg xmlns="http://www.w3.org/2000/svg" fill="none" viewBox="0 0 48 48">
  <g>
    <path fill="currentColor" fill-opacity="0.4" d="M24 0.5c-6.2094 0 -10.8342 0.265905 -13.8743 0.52628 -3.28661 0.28148 -5.81343 2.83028 -6.07393 6.11593C3.78365 10.524 3.5 15.9935 3.5 24s0.28365 13.476 0.55177 16.8578c0.2605 3.2856 2.78732 5.8344 6.07393 6.1159 3.0401 0.2604 7.6649 0.5263 13.8743 0.5263s10.8342 -0.2659 13.8743 -0.5263c3.2866 -0.2815 5.8134 -2.8303 6.0739 -6.1159C44.2164 37.476 44.5 32.0065 44.5 24c0 -2.2815 -0.023 -4.357 -0.0622 -6.2368 -0.0175 -0.8415 -0.1737 -1.7247 -0.558 -2.566 -0.7973 -1.7459 -2.5653 -5.0041 -5.8191 -8.25786 -3.3488 -3.34877 -6.7024 -5.12392 -8.4079 -5.88689 -0.8274 -0.370151 -1.6945 -0.516731 -2.5162 -0.52914C26.1403 0.508266 25.0948 0.5 24 0.5Z" stroke-width="3.429"></path>
    <path fill="currentColor" d="M44.3805 16.9836c-0.0767 -0.597 -0.2337 -1.2018 -0.5007 -1.7865 -0.7973 -1.7458 -2.5653 -5.004 -5.8191 -8.25784 -3.3488 -3.34877 -6.7024 -5.12392 -8.4079 -5.88689 -0.5367 -0.240132 -1.0902 -0.386171 -1.6372 -0.462526 0.065 3.512426 0.3237 7.488646 0.5595 10.522256 0.2214 2.8471 2.4657 5.0914 5.3128 5.3127 3.0251 0.2352 6.9875 0.4929 10.4926 0.5588Z" stroke-width="3.429"></path>
    <path fill="currentColor" fill-rule="evenodd" d="M11 22c0 -1.1046 0.8954 -2 2 -2l11 0c1.1046 0 2 0.8954 2 2s-0.8954 2 -2 2l-11 0c-1.1046 0 -2 -0.8954 -2 -2Zm0 0c0 -1.1046 0.8954 -2 2 -2l11 0c1.1046 0 2 0.8954 2 2s-0.8954 2 -2 2l-11 0c-1.1046 0 -2 -0.8954 -2 -2Zm0 0c0 -1.1046 0.8954 -2 2 -2l11 0c1.1046 0 2 0.8954 2 2s-0.8954 2 -2 2l-11 0c-1.1046 0 -2 -0.8954 -2 -2Z" clip-rule="evenodd" stroke-width="3.429"></path>
    <path fill="currentColor" d="M11 30c0 -1.1046 0.8954 -2 2 -2h22c1.1046 0 2 0.8954 2 2s-0.8954 2 -2 2H13c-1.1046 0 -2 -0.8954 -2 -2Z" stroke-width="3.429"></path>
    <path fill="currentColor" d="M11 38c0 -1.1046 0.8954 -2 2 -2h22c1.1046 0 2 0.8954 2 2s-0.8954 2 -2 2H13c-1.1046 0 -2 -0.8954 -2 -2Z" stroke-width="3.429"></path>
  </g>
</svg>
