<svg xmlns="http://www.w3.org/2000/svg" fill="none" viewBox="0 0 48 48">
  <g>
    <path fill="currentColor" fill-rule="evenodd" d="M10.7863 5.00162C13.6484 4.7556 18.0529 4.5 24 4.5c1.0155 0 1.9861 0.00745 2.9117 0.02104 0.0819 2.10076 0.2682 4.40686 0.4513 6.33756 0.3432 3.6203 3.186 6.4804 6.8066 6.8261 1.9112 0.1825 4.1918 0.3682 6.2745 0.4513 0.0356 1.7704 0.0565 3.7219 0.0565 5.864 0 7.7436 -0.2733 12.997 -0.5265 16.2013 -0.1208 1.5297 -1.2548 2.6677 -2.7604 2.7971 -2.8622 0.246 -7.2667 0.5016 -13.2137 0.5016 -5.9471 0 -10.3516 -0.2556 -13.2137 -0.5016 -1.50566 -0.1294 -2.63965 -1.2674 -2.76048 -2.7971 -0.25313 -3.2044 -0.52649 -8.4577 -0.52649 -16.2013 0 -7.7436 0.27336 -12.9969 0.52649 -16.2013 0.12083 -1.52967 1.25482 -2.66766 2.76048 -2.79708ZM27.0624 0.522843c0.8173 0.012387 1.6909 0.152464 2.5378 0.509537 0.0287 0.01126 0.0572 0.02321 0.0856 0.03585 1.6903 0.75454 5.0432 2.52462 8.3892 5.88286 3.3459 3.35811 5.109 6.72251 5.8602 8.41751 0.0298 0.0673 0.0557 0.1357 0.0777 0.2049 0.2904 0.7767 0.4115 1.5697 0.4271 2.3205 0.0382 1.8408 0.0606 3.8728 0.0606 6.106 0 7.8369 -0.2766 13.196 -0.5389 16.5163 -0.2738 3.4656 -2.9366 6.1692 -6.4054 6.4674 -2.9757 0.2558 -7.4945 0.5163 -13.5563 0.5163s-10.5806 -0.2605 -13.5563 -0.5163c-3.46886 -0.2982 -6.1317 -3.0018 -6.40546 -6.4674C3.77595 37.196 3.49933 31.8369 3.49933 24c0 -7.8369 0.27662 -13.196 0.53891 -16.5163 0.27376 -3.46557 2.93661 -6.16921 6.40546 -6.46738C13.4194 0.760535 17.9382 0.5 24 0.5c1.0687 0 2.0895 0.008099 3.0624 0.022843ZM11.75 20c0 -1.2426 1.0074 -2.25 2.25 -2.25h10c1.2426 0 2.25 1.0074 2.25 2.25s-1.0074 2.25 -2.25 2.25H14c-1.2426 0 -2.25 -1.0074 -2.25 -2.25ZM14 25.75c-1.2426 0 -2.25 1.0074 -2.25 2.25s1.0074 2.25 2.25 2.25h20c1.2426 0 2.25 -1.0074 2.25 -2.25s-1.0074 -2.25 -2.25 -2.25H14Zm0 8c-1.2426 0 -2.25 1.0074 -2.25 2.25s1.0074 2.25 2.25 2.25h20c1.2426 0 2.25 -1.0074 2.25 -2.25s-1.0074 -2.25 -2.25 -2.25H14Z" clip-rule="evenodd" stroke-width="3.429"></path>
  </g>
</svg>
