<svg xmlns="http://www.w3.org/2000/svg" fill="none" viewBox="0 0 48 48">
  <g>
    <path fill="currentColor" fill-rule="evenodd" d="M27.5019 0.53778c-0.1226 -0.007916 -0.2444 -0.012645 -0.3653 -0.01447C26.1403 0.508266 25.0948 0.5 24 0.5c-6.2094 0 -10.8342 0.265905 -13.8743 0.52628 -3.28661 0.28148 -5.81343 2.83028 -6.07393 6.11593C3.78365 10.524 3.5 15.9935 3.5 24s0.28365 13.476 0.55177 16.8578c0.2605 3.2856 2.78732 5.8344 6.07393 6.1159 3.0401 0.2604 7.6649 0.5263 13.8743 0.5263s10.8342 -0.2659 13.8743 -0.5263c3.2866 -0.2815 5.8134 -2.8303 6.0739 -6.1159C44.2164 37.476 44.5 32.0065 44.5 24c0 -2.2815 -0.023 -4.357 -0.0622 -6.2368 -0.0018 -0.088 -0.0052 -0.1765 -0.0101 -0.2653 -3.4912 -0.0257 -7.1494 -0.2793 -9.9205 -0.5242 -3.4583 -0.3057 -6.175 -3.0223 -6.4807 -6.4806 -0.2458 -2.78037 -0.5003 -6.45366 -0.5246 -9.95532ZM11.5 21c0 -0.8284 0.6716 -1.5 1.5 -1.5h11c0.8284 0 1.5 0.6716 1.5 1.5s-0.6716 1.5 -1.5 1.5H13c-0.8284 0 -1.5 -0.6716 -1.5 -1.5Zm0 8c0 -0.8284 0.6716 -1.5 1.5 -1.5h22c0.8284 0 1.5 0.6716 1.5 1.5s-0.6716 1.5 -1.5 1.5H13c-0.8284 0 -1.5 -0.6716 -1.5 -1.5Zm0 8c0 -0.8284 0.6716 -1.5 1.5 -1.5h22c0.8284 0 1.5 0.6716 1.5 1.5s-0.6716 1.5 -1.5 1.5H13c-0.8284 0 -1.5 -0.6716 -1.5 -1.5Zm32.0401 -22.5138c-0.9156 -1.8373 -2.6264 -4.69378 -5.4794 -7.54686 -2.8527 -2.8527 -5.709 -4.56347 -7.5468 -5.47936 0.057 3.09676 0.2808 6.27814 0.501 8.76892 0.1776 2.0101 1.7463 3.5788 3.7565 3.7564 2.4907 0.2202 5.672 0.4439 8.7687 0.5009Z" clip-rule="evenodd" stroke-width="1"></path>
  </g>
</svg>
