<svg xmlns="http://www.w3.org/2000/svg" viewBox="0 0 24 24" fill="none"><path opacity="0.4" d="M20.8956 11.2819C20.2348 10.3371 19.7501 9.07071 19.7501 7.99963C19.7501 4.824 17.1757 2.24963 14.0001 2.24963C12.0771 2.24963 10.3746 3.19487 9.33212 4.64221C8.61991 5.63087 7.71102 6.50911 6.6915 6.99084C4.06783 8.23066 2.25009 10.9017 2.25009 13.9996C2.25009 18.2798 5.71988 21.7496 10.0001 21.7496C12.252 21.7496 14.2792 20.7877 15.6935 19.2555C15.9873 18.9371 16.4695 18.7496 17.0001 18.7496C19.6234 18.7496 21.7501 16.623 21.7501 13.9996C21.7501 12.9898 21.4341 12.0518 20.8956 11.2819Z" fill="currentColor"/><path d="M10.0001 17.4996C11.9331 17.4996 13.5001 15.9326 13.5001 13.9996C13.5001 12.0666 11.9331 10.4996 10.0001 10.4996C8.06709 10.4996 6.50009 12.0666 6.50009 13.9996C6.50009 15.9326 8.06709 17.4996 10.0001 17.4996Z" fill="currentColor"/></svg>
