<svg xmlns="http://www.w3.org/2000/svg" viewBox="0 0 24 24" fill="none"><path d="M14.0001 2.24963C17.1757 2.24963 19.7501 4.824 19.7501 7.99963C19.7501 9.07071 20.2348 10.3371 20.8956 11.2819C21.4341 12.0518 21.7501 12.9898 21.7501 13.9996C21.7501 16.623 19.6234 18.7496 17.0001 18.7496C16.4695 18.7496 15.9873 18.9371 15.6935 19.2555C14.2792 20.7877 12.252 21.7496 10.0001 21.7496C5.71988 21.7496 2.25009 18.2798 2.25009 13.9996C2.25009 10.9017 4.06783 8.23066 6.6915 6.99084C7.71102 6.50911 8.61991 5.63087 9.33212 4.64221C10.3746 3.19487 12.0771 2.24963 14.0001 2.24963ZM10.0001 10.4996C8.06709 10.4996 6.50009 12.0666 6.50009 13.9996C6.50009 15.9326 8.06709 17.4996 10.0001 17.4996C11.9331 17.4996 13.5001 15.9326 13.5001 13.9996C13.5001 12.0666 11.9331 10.4996 10.0001 10.4996Z" fill="currentColor"/></svg>
