<svg xmlns="http://www.w3.org/2000/svg" viewBox="0 0 24 24" fill="none"><path opacity="0.4" d="M21.7499 16.06V15.9951V10.3555V10.3358C21.7499 9.53641 21.7499 8.88337 21.6982 8.34668C21.6444 7.78969 21.5306 7.30114 21.2704 6.83691C21.0102 6.37255 20.6531 6.02009 20.206 5.68359C19.778 5.36147 19.2249 5.0232 18.549 4.60983L18.5195 4.5918L15.5195 2.75781L15.4639 2.72383C14.7409 2.28158 14.1495 1.91984 13.6337 1.67285C13.0892 1.4121 12.5736 1.25 11.9999 1.25C11.4263 1.25 10.9106 1.4121 10.3662 1.67285C9.85041 1.91985 9.25899 2.28159 8.53595 2.72384L8.48041 2.75781L5.48041 4.5918L5.45097 4.6098C4.77503 5.02319 4.22191 5.36147 3.79389 5.68359C3.34678 6.02009 2.98966 6.37255 2.72943 6.83691C2.46929 7.30114 2.35545 7.78969 2.3017 8.34668C2.24993 8.88339 2.24994 9.53646 2.24994 10.3359V10.3555V15.9951V16.06C2.24991 17.4241 2.24989 18.5242 2.36615 19.3896C2.48712 20.2901 2.7461 21.0482 3.3476 21.6504C3.94949 22.2528 4.70812 22.5127 5.60834 22.6338C6.47268 22.7501 7.57096 22.75 8.93265 22.75H8.99994H14.9999H15.0672C16.4289 22.75 17.5272 22.7501 18.3915 22.6338C19.2918 22.5127 20.0504 22.2528 20.6523 21.6504C21.2538 21.0482 21.5128 20.2901 21.6337 19.3896C21.75 18.5242 21.75 17.4241 21.7499 16.06Z" fill="currentColor"/><path d="M12.9999 10.25C13.9215 10.25 14.6886 10.2486 15.2949 10.3301C15.9225 10.4145 16.4889 10.6003 16.9443 11.0557C17.3996 11.511 17.5854 12.0775 17.6699 12.7051C17.7514 13.3113 17.7499 14.0784 17.7499 15V22.6963C17.3018 22.7278 16.8028 22.7391 16.2499 22.7441V19.75H7.74994V22.7441C7.19711 22.7391 6.69811 22.7278 6.24994 22.6963V15C6.24994 14.0784 6.24851 13.3113 6.33002 12.7051C6.41445 12.0775 6.60025 11.511 7.0556 11.0557C7.51096 10.6003 8.07741 10.4145 8.70502 10.3301C9.31124 10.2486 10.0783 10.25 10.9999 10.25H12.9999ZM7.74994 18.25H16.2499V15.75H7.74994V18.25ZM10.9999 11.75C10.0359 11.75 9.38825 11.7515 8.90521 11.8164C8.44383 11.8785 8.24646 11.9859 8.11615 12.1162C7.98585 12.2465 7.87839 12.4439 7.81635 12.9053C7.7699 13.2508 7.75902 13.6805 7.75482 14.25H16.2451C16.2409 13.6805 16.23 13.2508 16.1835 12.9053C16.1215 12.4439 16.014 12.2465 15.8837 12.1162C15.7534 11.9859 15.556 11.8785 15.0947 11.8164C14.6116 11.7515 13.9639 11.75 12.9999 11.75H10.9999Z" fill="currentColor" fill-rule="evenodd" clip-rule="evenodd"/></svg>
