<svg xmlns="http://www.w3.org/2000/svg" viewBox="0 0 24 24" fill="none"><path d="M16.2496 19.75V22.7441C15.8797 22.7475 15.4858 22.75 15.067 22.75H8.93219C8.51334 22.75 8.11943 22.7475 7.74957 22.7441V19.75H16.2496ZM11.9996 1.25C12.5732 1.25 13.0889 1.4121 13.6334 1.67285C14.1491 1.91983 14.7405 2.28143 15.4634 2.72363L15.5191 2.75781L18.5191 4.5918L18.5484 4.60938C19.2243 5.02275 19.7776 5.36147 20.2056 5.68359C20.6527 6.02009 21.0099 6.37255 21.2701 6.83691C21.5302 7.30114 21.6441 7.78969 21.6978 8.34668C21.7496 8.88337 21.7496 9.5365 21.7496 10.3359V16.0596C21.7496 17.4237 21.7496 18.5242 21.6334 19.3896C21.5124 20.2901 21.2534 21.0482 20.6519 21.6504C20.05 22.2528 19.2914 22.5127 18.3912 22.6338C18.1901 22.6608 17.9763 22.6804 17.7496 22.6963V15C17.7496 14.0784 17.751 13.3113 17.6695 12.7051C17.5851 12.0775 17.3993 11.511 16.9439 11.0557C16.4886 10.6003 15.9221 10.4145 15.2945 10.3301C14.6883 10.2486 13.9212 10.25 12.9996 10.25H10.9996C10.078 10.25 9.31087 10.2486 8.70465 10.3301C8.07704 10.4145 7.5106 10.6003 7.05524 11.0557C6.59988 11.511 6.41408 12.0775 6.32965 12.7051C6.24815 13.3113 6.24957 14.0784 6.24957 15V22.6963C6.02283 22.6804 5.80903 22.6608 5.60797 22.6338C4.70776 22.5127 3.94912 22.2528 3.34723 21.6504C2.74573 21.0482 2.48675 20.2901 2.36578 19.3896C2.24952 18.5242 2.24954 17.4237 2.24957 16.0596V10.3359C2.24957 9.53646 2.24956 8.88339 2.30133 8.34668C2.35508 7.78969 2.46893 7.30114 2.72906 6.83691C2.98929 6.37255 3.34641 6.02009 3.79352 5.68359C4.22154 5.36147 4.77481 5.02276 5.45074 4.60938L5.48004 4.5918L8.48004 2.75781L8.53571 2.72363C9.25866 2.28143 9.85008 1.91983 10.3658 1.67285C10.9103 1.4121 11.426 1.25 11.9996 1.25ZM16.2496 15.75V18.25H7.74957V15.75H16.2496ZM12.9996 11.75C13.9636 11.75 14.6113 11.7515 15.0943 11.8164C15.5557 11.8784 15.7531 11.9859 15.8834 12.1162C16.0137 12.2465 16.1211 12.4439 16.1832 12.9053C16.2296 13.2508 16.2405 13.6805 16.2447 14.25H7.75446C7.75865 13.6805 7.76953 13.2508 7.81598 12.9053C7.87802 12.4439 7.98548 12.2465 8.11578 12.1162C8.24609 11.9859 8.44346 11.8785 8.90485 11.8164C9.38788 11.7515 10.0356 11.75 10.9996 11.75H12.9996Z" fill="currentColor"/></svg>
