<svg xmlns="http://www.w3.org/2000/svg" viewBox="0 0 24 24" fill="none"><path opacity="0.4" d="M19.5488 18.1699C20.9242 16.4891 21.7501 14.3412 21.7501 12C21.7501 9.65849 20.9245 7.50999 19.5488 5.82913L21.4645 3.91436C21.8452 3.53359 21.8452 2.91641 21.4645 2.53564C21.0837 2.15488 20.4665 2.15488 20.0858 2.53564L18.17 4.45042C16.4893 3.07522 14.3411 2.25 12.0001 2.25C9.65883 2.25 7.51004 3.07494 5.82925 4.45042L3.91448 2.53564C3.53372 2.15488 2.91653 2.15488 2.53577 2.53564C2.15501 2.91641 2.15501 3.53359 2.53577 3.91436L4.45054 5.82913C3.07506 7.50992 2.25012 9.65871 2.25012 12C2.25012 14.341 3.07534 16.4892 4.45054 18.1699L2.53577 20.0856C2.15501 20.4664 2.15501 21.0836 2.53577 21.4644C2.91653 21.8451 3.53372 21.8451 3.91448 21.4644L5.82925 19.5486C7.51011 20.9243 9.65862 21.75 12.0001 21.75C14.3414 21.75 16.4893 20.9241 18.17 19.5486L20.0858 21.4644C20.4665 21.8451 21.0837 21.8451 21.4645 21.4644C21.8452 21.0836 21.8452 20.4664 21.4645 20.0856L19.5488 18.1699Z" fill="currentColor"/><path d="M16.0001 12C16.0001 9.79086 14.2093 8 12.0001 8C9.79098 8 8.00012 9.79086 8.00012 12C8.00012 14.2091 9.79098 16 12.0001 16C14.2093 16 16.0001 14.2091 16.0001 12ZM18.0001 12C18.0001 15.3137 15.3138 18 12.0001 18C8.68641 18 6.00012 15.3137 6.00012 12C6.00012 8.68629 8.68641 6 12.0001 6C15.3138 6 18.0001 8.68629 18.0001 12Z" fill="currentColor"/></svg>
