<svg xmlns="http://www.w3.org/2000/svg" viewBox="0 0 24 24" fill="none"><path d="M20.0861 2.53613C20.4668 2.15537 21.0842 2.15537 21.465 2.53613C21.8451 2.9168 21.8452 3.53343 21.465 3.91406L19.549 5.8291C20.9246 7.50995 21.7501 9.65853 21.7501 12C21.7501 14.3412 20.9243 16.4892 19.549 18.1699L21.465 20.0859C21.8453 20.4667 21.8456 21.0842 21.465 21.4648C21.0843 21.8455 20.4669 21.8452 20.0861 21.4648L18.17 19.5488C16.4893 20.9242 14.3413 21.75 12.0001 21.75C9.65865 21.75 7.51007 20.9245 5.82922 19.5488L3.91418 21.4648C3.53355 21.8451 2.91692 21.845 2.53625 21.4648C2.15549 21.0841 2.15549 20.4667 2.53625 20.0859L4.45032 18.1699C3.07517 16.4892 2.25012 14.341 2.25012 12C2.25012 9.65875 3.07489 7.50988 4.45032 5.8291L2.53625 3.91406C2.15549 3.5333 2.15549 2.91689 2.53625 2.53613C2.91702 2.15537 3.53342 2.15537 3.91418 2.53613L5.82922 4.4502C7.51 3.07476 9.65887 2.25 12.0001 2.25C14.3411 2.25 16.4894 3.07505 18.17 4.4502L20.0861 2.53613ZM12.0001 6C8.68641 6 6.00012 8.68629 6.00012 12C6.00012 15.3137 8.68641 18 12.0001 18C15.3138 18 18.0001 15.3137 18.0001 12C18.0001 8.68629 15.3138 6 12.0001 6ZM12.0001 8C14.2093 8 16.0001 9.79086 16.0001 12C16.0001 14.2091 14.2093 16 12.0001 16C9.79098 16 8.00012 14.2091 8.00012 12C8.00012 9.79086 9.79098 8 12.0001 8Z" fill="currentColor"/></svg>
