<svg xmlns="http://www.w3.org/2000/svg" viewBox="0 0 24 24" fill="none"><path opacity="0.4" d="M14.1699 22.1003C16.8466 20.7232 21.7498 17.3736 21.75 11.2371V7.7478C21.75 6.40039 21.7719 5.46034 21.1884 4.5183C20.6143 3.59141 19.9634 3.28194 19.0429 2.82397C17.04 1.82739 14.6089 1.24975 12 1.24975C9.39102 1.24975 6.95997 1.82739 4.957 2.82397C4.03653 3.28195 3.3856 3.59141 2.81149 4.5183C2.22801 5.46034 2.24997 6.40039 2.24997 7.7478V11.2371C2.2501 17.3736 7.15332 20.7232 9.83005 22.1003L9.86674 22.1192C10.5845 22.4886 11.0918 22.7497 12 22.7497C12.9081 22.7497 13.4154 22.4886 14.1332 22.1192L14.1699 22.1003Z" fill="currentColor"/><path d="M12.0094 14.4997C12.5617 14.4997 13.0094 14.9475 13.0094 15.4997C13.0094 16.052 12.5617 16.4997 12.0094 16.4997H11.9996C11.4474 16.4997 10.9996 16.052 10.9996 15.4997C10.9996 14.9475 11.4474 14.4997 11.9996 14.4997H12.0094ZM12.0035 10.4919C13.1395 10.4942 14.2412 10.8837 15.1266 11.5955C15.5566 11.9415 15.6247 12.5704 15.2789 13.0007C14.9329 13.4312 14.3031 13.5001 13.8727 13.154C13.3415 12.7271 12.6811 12.4934 11.9996 12.4919C11.318 12.4906 10.6556 12.7213 10.1227 13.1462C9.69088 13.4904 9.06168 13.4198 8.71741 12.988C8.37318 12.5562 8.44481 11.927 8.87659 11.5828C9.7648 10.8746 10.8676 10.4897 12.0035 10.4919ZM11.9996 6.49975C14.0445 6.49975 16.0284 7.19633 17.6246 8.47436C18.0557 8.81956 18.1251 9.44854 17.7799 9.87963C17.4347 10.3107 16.8057 10.3801 16.3746 10.0349C15.1331 9.041 13.59 8.49975 11.9996 8.49975C10.4093 8.49975 8.86614 9.041 7.62464 10.0349C7.19355 10.3801 6.56456 10.3107 6.21937 9.87963C5.87422 9.44854 5.94362 8.81956 6.37464 8.47436C7.9709 7.19633 9.95479 6.49975 11.9996 6.49975Z" fill="currentColor"/></svg>
