<svg xmlns="http://www.w3.org/2000/svg" viewBox="0 0 24 24" fill="none"><path d="M12.0002 1.25C14.6091 1.25 17.0402 1.82767 19.0431 2.82422C19.9636 3.28219 20.6145 3.5917 21.1886 4.51855C21.7721 5.46059 21.7502 6.40064 21.7502 7.74805V11.2373C21.75 17.3739 16.8468 20.7234 14.1701 22.1006L14.1339 22.1191C13.4161 22.4886 12.9083 22.75 12.0002 22.75C11.0921 22.75 10.585 22.4885 9.86734 22.1191L9.83023 22.1006C7.15349 20.7234 2.25029 17.3738 2.25015 11.2373V7.74805C2.25015 6.40066 2.22822 5.46057 2.81168 4.51855C3.38577 3.59169 4.03675 3.28217 4.95718 2.82422C6.96013 1.82766 9.39125 1.25002 12.0002 1.25ZM12.0002 14.5C11.4479 14.5 11.0002 14.9477 11.0002 15.5C11.0002 16.0523 11.4479 16.5 12.0002 16.5H12.0099C12.5621 16.4999 13.0099 16.0522 13.0099 15.5C13.0099 14.9478 12.5621 14.5001 12.0099 14.5H12.0002ZM12.0041 10.4922C10.8682 10.4899 9.76529 10.8749 8.87711 11.583C8.44532 11.9273 8.37369 12.5565 8.71793 12.9883C9.06221 13.4199 9.69143 13.4906 10.1232 13.1465C10.6561 12.7216 11.3186 12.4908 12.0002 12.4922C12.6816 12.4937 13.3421 12.7274 13.8732 13.1543C14.3036 13.5002 14.9334 13.4314 15.2795 13.001C15.6251 12.5707 15.557 11.9418 15.1271 11.5957C14.2418 10.884 13.14 10.4945 12.0041 10.4922ZM12.0002 6.5C9.95536 6.5 7.97139 7.19665 6.37515 8.47461C5.94413 8.81981 5.87473 9.44879 6.21988 9.87988C6.56509 10.3108 7.19409 10.3803 7.62515 10.0352C8.86663 9.04132 10.4099 8.5 12.0002 8.5C13.5904 8.50005 15.1337 9.0413 16.3752 10.0352C16.8062 10.3802 17.4353 10.3109 17.7804 9.87988C18.1254 9.44884 18.056 8.8198 17.6252 8.47461C16.029 7.19662 14.0449 6.50005 12.0002 6.5Z" fill="currentColor" fill-rule="evenodd" clip-rule="evenodd"/></svg>
