<svg xmlns="http://www.w3.org/2000/svg" viewBox="0 0 24 24" fill="none"><path d="M16.4443 1.91992C15.1836 1.75043 13.5766 1.74998 11.5674 1.75H11.4326C9.42344 1.74998 7.81643 1.75043 6.55567 1.91992C5.25292 2.09511 4.1751 2.46748 3.32129 3.32129C2.46748 4.1751 2.09511 5.25292 1.91992 6.55567C1.75043 7.81643 1.74998 9.42344 1.75 11.4326V11.5674C1.74998 13.5766 1.75043 15.1836 1.91992 16.4443C2.09511 17.7471 2.46748 18.8249 3.32129 19.6787C4.1751 20.5325 5.25292 20.9049 6.55567 21.0801C7.6054 21.2212 8.89517 21.2451 10.4572 21.2492C10.9958 21.2506 11.4326 20.8134 11.4326 20.2749C11.4326 19.7364 10.9957 19.3003 10.4572 19.2988C8.89969 19.2944 7.7346 19.2712 6.81445 19.1475C5.72809 19.0013 5.13034 18.7309 4.69922 18.2998C4.26812 17.8687 3.99766 17.271 3.85156 16.1846C3.70169 15.0699 3.69922 13.5958 3.69922 11.5C3.69922 9.80706 3.70067 8.51984 3.78027 7.5H19.2178C19.2802 8.2992 19.2945 9.2626 19.2978 10.4568C19.2993 10.9956 19.7356 11.4326 20.2744 11.4326C20.8132 11.4326 21.2506 10.9956 21.2492 10.4568C21.2451 8.8949 21.2212 7.60529 21.0801 6.55567C20.9049 5.25292 20.5325 4.1751 19.6787 3.32129C18.8249 2.46748 17.7471 2.09511 16.4443 1.91992Z" fill="currentColor"/><path d="M7.5 14.3984C8.05228 14.3984 8.5 14.8462 8.5 15.3984C8.5 15.9507 8.05228 16.3984 7.5 16.3984H6.5C5.94772 16.3984 5.5 15.9507 5.5 15.3984C5.5 14.8462 5.94772 14.3984 6.5 14.3984H7.5ZM13.5 14.3984C14.0523 14.3984 14.5 14.8462 14.5 15.3984C14.5 15.9507 14.0523 16.3984 13.5 16.3984H11.5C10.9477 16.3984 10.5 15.9507 10.5 15.3984C10.5 14.8462 10.9477 14.3984 11.5 14.3984H13.5Z" fill="currentColor"/><path d="M7.5 10.3984C8.05228 10.3984 8.5 10.8462 8.5 11.3984C8.5 11.9507 8.05228 12.3984 7.5 12.3984H6.5C5.94772 12.3984 5.5 11.9507 5.5 11.3984C5.5 10.8462 5.94772 10.3984 6.5 10.3984H7.5ZM16.5 10.3984C17.0523 10.3984 17.5 10.8462 17.5 11.3984C17.5 11.9507 17.0523 12.3984 16.5 12.3984H11.5C10.9477 12.3984 10.5 11.9507 10.5 11.3984C10.5 10.8462 10.9477 10.3984 11.5 10.3984H16.5Z" fill="currentColor"/><path d="M14.7025 18.7098L19.2756 14.1501C19.8113 13.6166 20.6796 13.6166 21.2152 14.1501L21.8483 14.7806C22.3839 15.3141 22.3839 16.179 21.8483 16.7125L17.3174 21.2924C17.0564 21.5522 16.7227 21.7274 16.36 21.7949L14.3045 22.2393C13.9799 22.3095 13.6909 22.0225 13.7604 21.699L14.198 19.6634C14.2657 19.3021 14.4416 18.9697 14.7025 18.7098Z" fill="currentColor"/></svg>
