<svg xmlns="http://www.w3.org/2000/svg" viewBox="0 0 24 24" fill="none"><path opacity="0.4" d="M6.24963 9.99969C6.24963 6.82406 8.824 4.24969 11.9996 4.24969C15.1753 4.24969 17.7496 6.82406 17.7496 9.99969C17.7496 13.1753 15.1753 15.7497 11.9996 15.7497C8.824 15.7497 6.24963 13.1753 6.24963 9.99969Z" fill="currentColor" fill-rule="evenodd" clip-rule="evenodd"/><path d="M7.93223 14.0632C8.42615 14.5576 9.0102 14.9607 9.65684 15.2497L7.45469 22.2985C7.28993 22.8254 6.72874 23.1192 6.20176 22.9548C5.67465 22.7901 5.38085 22.229 5.54551 21.7018L7.93223 14.0632Z" fill="currentColor"/><path d="M18.4547 21.7018C18.6192 22.2288 18.3253 22.7899 17.7984 22.9548C17.2714 23.1195 16.7104 22.8255 16.5455 22.2985L14.3424 15.2497C14.9892 14.9606 15.573 14.5568 16.067 14.0622L18.4547 21.7018Z" fill="currentColor"/><path d="M12.9996 21.9997C12.9996 22.5519 12.5518 22.9996 11.9996 22.9997C11.4473 22.9997 10.9996 22.552 10.9996 21.9997V15.6608C11.3245 15.7178 11.6584 15.7497 11.9996 15.7497C12.3408 15.7497 12.6747 15.7178 12.9996 15.6608V21.9997Z" fill="currentColor"/><path d="M11.9996 0.999695C12.5518 0.999774 12.9996 1.44746 12.9996 1.99969V4.33759C12.6748 4.28061 12.3408 4.24969 11.9996 4.24969C11.6585 4.24969 11.3244 4.28061 10.9996 4.33759V1.99969C10.9996 1.44741 11.4473 0.999695 11.9996 0.999695Z" fill="currentColor"/></svg>
