<svg xmlns="http://www.w3.org/2000/svg" viewBox="0 0 24 24" fill="none"><path d="M11.9997 13.9998C12.552 13.9998 12.9997 14.4475 12.9997 14.9998V21.9998C12.9997 22.5521 12.552 22.9998 11.9997 22.9998C11.4474 22.9998 10.9997 22.5521 10.9997 21.9998V14.9998C10.9997 14.4475 11.4474 13.9998 11.9997 13.9998Z" fill="currentColor" fill-rule="evenodd" clip-rule="evenodd"/><path d="M6.24969 9.99982C6.24969 6.82418 8.82406 4.24982 11.9997 4.24982C15.1753 4.24982 17.7497 6.82418 17.7497 9.99982C17.7497 13.1755 15.1753 15.7498 11.9997 15.7498C8.82406 15.7498 6.24969 13.1755 6.24969 9.99982Z" fill="currentColor" fill-rule="evenodd" clip-rule="evenodd"/><path d="M11.9997 0.999817C12.552 0.999817 12.9997 1.44753 12.9997 1.99982L12.9997 4.99982C12.9997 5.5521 12.552 5.99982 11.9997 5.99982C11.4474 5.99982 10.9997 5.5521 10.9997 4.99982L10.9997 1.99982C10.9997 1.44753 11.4474 0.999817 11.9997 0.999817Z" fill="currentColor" fill-rule="evenodd" clip-rule="evenodd"/><path d="M14.7017 13.0456C15.2288 12.8809 15.7897 13.1747 15.9544 13.7018L18.4544 21.7018C18.6192 22.229 18.3254 22.7898 17.7982 22.9546C17.2711 23.1193 16.7102 22.8255 16.5455 22.2984L14.0455 14.2984C13.8807 13.7712 14.1745 13.2103 14.7017 13.0456Z" fill="currentColor" fill-rule="evenodd" clip-rule="evenodd"/><path d="M9.29824 13.0456C9.82538 13.2103 10.1192 13.7712 9.95444 14.2984L7.45444 22.2984C7.28971 22.8255 6.72883 23.1193 6.20169 22.9546C5.67454 22.7898 5.38075 22.229 5.54548 21.7018L8.04548 13.7018C8.21021 13.1747 8.77109 12.8809 9.29824 13.0456Z" fill="currentColor" fill-rule="evenodd" clip-rule="evenodd"/></svg>
