<svg xmlns="http://www.w3.org/2000/svg" viewBox="0 0 24 24" fill="none"><path opacity="0.5" d="M22.75 12C22.75 6.06293 17.937 1.25 12 1.25C6.06294 1.25 1.25 6.06294 1.25 12C1.25 17.937 6.06293 22.75 12 22.75C17.937 22.75 22.75 17.937 22.75 12Z" fill="currentColor"/><path d="M12 22.7501C17.937 22.7501 22.75 17.9371 22.75 12.0001C22.75 9.79861 22.0882 7.75166 20.9528 6.04736L14.4141 12.5861L14.4135 12.5866C13.7473 13.2528 13.4141 13.5861 13 13.5861C12.5859 13.586 12.2527 13.2527 11.5863 12.5864L11.586 12.5861L11.4141 12.4142L11.4136 12.4137C10.7474 11.7475 10.4141 11.4142 10 11.4142C9.58593 11.4142 9.2526 11.7475 8.58627 12.4139L8.58596 12.4142L3.04724 17.9528C4.97391 20.8447 8.26446 22.7501 12 22.7501Z" fill="currentColor"/></svg>
