<svg xmlns="http://www.w3.org/2000/svg" viewBox="0 0 24 24" fill="none"><path d="M12 1.25C17.937 1.25 22.75 6.06293 22.75 12C22.75 17.937 17.937 22.75 12 22.75C6.06293 22.75 1.25 17.937 1.25 12C1.25 6.06294 6.06294 1.25 12 1.25ZM4.46387 16.5361L8.58594 12.4141C9.25247 11.7475 9.58584 11.4141 10 11.4141C10.4142 11.4141 10.7475 11.7475 11.4141 12.4141L11.5859 12.5859C12.2525 13.2525 12.5858 13.5859 13 13.5859C13.4142 13.5859 13.7475 13.2525 14.4141 12.5859L19.5361 7.46387C17.9966 4.91163 15.1979 3.2041 12 3.2041C7.1424 3.2041 3.2041 7.1424 3.2041 12C3.2041 13.6597 3.66487 15.2116 4.46387 16.5361Z" fill="currentColor" fill-rule="evenodd" clip-rule="evenodd"/></svg>
