<svg xmlns="http://www.w3.org/2000/svg" fill="none" viewBox="0 0 48 48">
  <g>
    <path fill="currentColor" fill-opacity="0.4" d="M23.9997 2.27734c-2.1462 0 -3.8169 0.07362 -5.0912 0.17193 -2.1889 0.16888 -3.7205 1.84498 -3.8428 4.03696 -0.0822 1.47314 -0.1574 3.49654 -0.1933 6.23057l18.2546 0c-0.0359 -2.73395 -0.1112 -4.75732 -0.1933 -6.23045 -0.1223 -2.19203 -1.654 -3.86821 -3.8429 -4.03708 -1.2742 -0.09831 -2.9449 -0.17193 -5.0911 -0.17193Z" stroke-width="3.429"></path>
    <path fill="#8fbffa" d="m21.1884 9.07343 0 3.33597 5.6241 0 0 -3.2987c0 -0.91067 -0.6117 -1.72974 -1.5106 -1.87547 -0.9418 -0.15268 -1.7438 -0.15818 -2.644 -0.0111 -0.8815 0.14403 -1.4695 0.95611 -1.4695 1.8493Z" stroke-width="3.429"></path>
    <path fill="#8fbffa" d="M35.5245 12.8619c2.1894 0.1702 3.8458 1.7341 4.0515 3.9204 0.2188 2.3258 0.424 6.0248 0.424 11.7177 0 5.6929 -0.2052 9.3919 -0.424 11.7177 -0.2057 2.1863 -1.8621 3.7502 -4.0515 3.9204 -2.366 0.1839 -6.0658 0.3619 -11.5244 0.3619 -5.4588 0 -9.1586 -0.178 -11.5246 -0.3619 -2.1893 -0.1702 -3.84569 -1.734 -4.05139 -3.9202C8.20528 37.892 8 34.193 8 28.5c0 -5.693 0.20529 -9.392 0.42411 -11.7179 0.2057 -2.1862 1.86209 -3.75 4.05139 -3.9202 2.366 -0.1839 6.0658 -0.3619 11.5246 -0.3619 5.4586 0 9.1584 0.178 11.5244 0.3619Z" stroke-width="3.429"></path>
    <path stroke="currentColor" stroke-linejoin="round" d="M14.8724 12.7168c0.0359 -2.73403 0.1111 -4.75743 0.1933 -6.23057 0.1223 -2.19198 1.6539 -3.86808 3.8428 -4.03696 1.2743 -0.09831 2.945 -0.17193 5.0912 -0.17193s3.8169 0.07362 5.0911 0.17193c2.1889 0.16887 3.7206 1.84505 3.8429 4.03708 0.0821 1.47313 0.1574 3.4965 0.1933 6.23045" stroke-width="3.429"></path>
    <path stroke="currentColor" stroke-linecap="round" stroke-linejoin="round" d="m21.1884 12.4094 0 -3.33597c0 -0.89319 0.588 -1.70527 1.4695 -1.8493 0.9002 -0.14708 1.7022 -0.14158 2.644 0.0111 0.8989 0.14573 1.5106 0.9648 1.5106 1.87547l0 3.2987" stroke-width="3.429"></path>
    <path stroke="currentColor" stroke-linejoin="round" d="M35.5245 12.8619c2.1894 0.1702 3.8458 1.7341 4.0515 3.9204 0.2188 2.3258 0.424 6.0248 0.424 11.7177 0 5.6929 -0.2052 9.3919 -0.424 11.7177 -0.2057 2.1863 -1.8621 3.7502 -4.0515 3.9204 -2.366 0.1839 -6.0658 0.3619 -11.5244 0.3619 -5.4588 0 -9.1586 -0.178 -11.5246 -0.3619 -2.1893 -0.1702 -3.84569 -1.734 -4.05139 -3.9202C8.20528 37.892 8 34.193 8 28.5c0 -5.693 0.20529 -9.392 0.42411 -11.7179 0.2057 -2.1862 1.86209 -3.75 4.05139 -3.9202 2.366 -0.1839 6.0658 -0.3619 11.5246 -0.3619 5.4586 0 9.1584 0.178 11.5244 0.3619Z" stroke-width="3.429"></path>
    <path stroke="currentColor" stroke-linecap="round" stroke-linejoin="round" d="M40 28.5H8" stroke-width="3.429"></path>
  </g>
</svg>
