<svg xmlns="http://www.w3.org/2000/svg" fill="none" viewBox="0 0 48 48">
  <g>
    <path fill="currentColor" d="m21.1884 9.07343 0 3.33597 5.6241 0 0 -3.2987c0 -0.91067 -0.6117 -1.72974 -1.5106 -1.87547 -0.9418 -0.15268 -1.7438 -0.15818 -2.644 -0.0111 -0.8815 0.14403 -1.4695 0.95611 -1.4695 1.8493Z" stroke-width="3.429"></path>
    <path fill="currentColor" fill-opacity="0.4" fill-rule="evenodd" d="M31.0867 12.1071c-0.0478 -2.17669 -0.1174 -3.90765 -0.1881 -5.24141 -0.0755 -1.42417 -0.9906 -2.33705 -2.1808 -2.42866 -1.1884 -0.09146 -2.7386 -0.15969 -4.7181 -0.15969 -1.9795 0 -3.5297 0.06823 -4.7181 0.1597 -1.1903 0.0916 -2.1053 1.00446 -2.1808 2.42858 -0.0707 1.33378 -0.1403 3.06476 -0.1882 5.24148C18.8909 12.042 21.2378 12 24.0001 12c2.7619 0 5.1085 0.042 7.0866 0.1071Zm-18.179 0.1871c0.0488 -2.34424 0.1227 -4.2062 0.1987 -5.64033 0.1693 -3.19395 2.4475 -5.941759 5.8682 -6.205036 1.3012 -0.100149 2.9545 -0.17149 5.0251 -0.17149s3.7238 0.071338 5.025 0.171483c3.4208 0.263276 5.699 3.011153 5.8683 6.205143 0.076 1.4341 0.1499 3.29602 0.1986 5.64023 0.6296 0.0395 1.1948 0.0806 1.6994 0.1217 2.1888 0.1782 3.851 1.7394 4.0677 3.9247 0.2478 2.4992 0.489 6.5819 0.489 13.0071 0 6.4252 -0.2412 10.5078 -0.489 13.007 -0.2167 2.1853 -1.8789 3.7465 -4.0677 3.9247 -2.5487 0.2075 -6.6399 0.4159 -12.7909 0.4159 -6.1512 0 -10.2425 -0.2084 -12.7912 -0.4159 -2.18861 -0.1782 -3.85079 -1.7393 -4.06751 -3.9245 -0.24787 -2.4992 -0.48905 -6.5819 -0.48905 -13.0072 0 -6.4254 0.24118 -10.5081 0.48905 -13.0073 0.21672 -2.1852 1.87891 -3.7463 4.06751 -3.9245 0.5045 -0.041 1.0694 -0.0822 1.6988 -0.1217Z" clip-rule="evenodd" stroke-width="3.429"></path>
    <path fill="currentColor" fill-rule="evenodd" d="M6.66048 31.3477c-0.00533 -0.64 -0.00814 -1.3064 -0.00814 -2 0 -0.6937 0.00281 -1.36 0.00814 -2H41.3395c0.0053 0.64 0.0082 1.3063 0.0082 2 0 0.6936 -0.0029 1.36 -0.0082 2H6.66048Z" clip-rule="evenodd" stroke-width="3.429"></path>
  </g>
</svg>
