<svg xmlns="http://www.w3.org/2000/svg" fill="none" viewBox="0 0 48 48">
  <g>
    <path fill="currentColor" fill-rule="evenodd" d="M33.127 14.7168c0.0273 0 0.0546 -0.0005 0.0818 -0.0016 0.8229 0.0444 1.5403 0.0925 2.1607 0.1407 1.2608 0.098 2.1046 0.937 2.2153 2.1137 0.1854 1.971 0.3648 5.0069 0.4063 9.5304H10.0089c0.0415 -4.5237 0.221 -7.5596 0.4064 -9.5305 0.1107 -1.1767 0.9544 -2.0156 2.2152 -2.1136 0.6203 -0.0482 1.3377 -0.0963 2.1605 -0.1407 0.027 0.0011 0.0542 0.0016 0.0814 0.0016zM6 28.5l0 -0.0034c0.00008 -5.7363 0.20684 -9.499 0.4329 -11.9018 0.30069 -3.1958 2.76979 -5.4845 5.8876 -5.7269 0.1869 -0.0145 0.3817 -0.029 0.5846 -0.0433 0.0406 -1.84506 0.0998 -3.30506 0.1637 -4.44979C13.243 3.25336 15.497 0.706537 18.7547 0.455201c1.3311 -0.102699 3.0535 -0.177857 5.245 -0.177857s3.9138 0.075153 5.2449 0.177848c3.2578 0.251334 5.5118 2.798248 5.686 5.919758 0.0638 1.1447 0.123 2.60463 0.1637 4.44955 0.2031 0.0144 0.3981 0.0289 0.5852 0.0434 3.1179 0.2424 5.587 2.5312 5.8877 5.7271 0.226 2.4033 0.4328 6.1669 0.4328 11.905s-0.2068 9.5017 -0.4328 11.905c-0.3007 3.1959 -2.7698 5.4847 -5.8877 5.7271 -2.4261 0.1886 -6.1784 0.3679 -11.6794 0.3679 -5.5012 0 -9.2536 -0.1793 -11.6796 -0.3679 -3.11781 -0.2424 -5.58691 -2.5311 -5.8876 -5.7269C6.20679 38.0019 6 34.2382 6 28.5m31.9911 2c-0.0415 4.5235 -0.2209 7.5594 -0.4063 9.5304 -0.1107 1.1767 -0.9545 2.0157 -2.2153 2.1137 -2.3059 0.1793 -5.9532 0.3559 -11.3694 0.3559 -5.4164 0 -9.0637 -0.1766 -11.3696 -0.3559 -1.2608 -0.098 -2.1045 -0.9369 -2.2152 -2.1136 -0.1854 -1.9709 -0.3649 -5.0068 -0.4064 -9.5305zM30.9368 6.59775c0.0576 1.0338 0.1123 2.35348 0.1517 4.01895 -1.2557 -0.0454 -2.6761 -0.0807 -4.276 -0.1001V8.1107c0 -0.91067 -0.6117 -1.72974 -1.5106 -1.87547 -0.9418 -0.15268 -1.7438 -0.15818 -2.644 -0.0111 -0.8815 0.14403 -1.4695 0.95611 -1.4695 1.8493v2.44307c-1.6005 0.0195 -3.0214 0.0548 -4.2775 0.1002 0.0394 -1.66552 0.094 -2.98524 0.1517 -4.01906 0.0704 -1.26249 0.8797 -2.06788 1.9997 -2.15429 1.2174 -0.09392 2.8365 -0.16601 4.9374 -0.16601s3.7199 0.07208 4.9373 0.166c1.1201 0.08641 1.9293 0.89185 1.9998 2.15441" clip-rule="evenodd" stroke-width="3.429"></path>
  </g>
</svg>
