<svg xmlns="http://www.w3.org/2000/svg" fill="none" viewBox="0 0 48 48">
  <g>
    <path fill="currentColor" fill-rule="evenodd" d="M12.9159 12.2937c0.0513 -2.2077 0.1263 -4.0446 0.2019 -5.49833 0.1712 -3.2887 2.5302 -6.129653 6.0595 -6.370893 1.2672 -0.086614 2.8559 -0.147133 4.8224 -0.147133s3.5552 0.060517 4.8223 0.147128c3.5294 0.241239 5.8884 3.082248 6.0596 6.370978 0.0756 1.4537 0.1506 3.29055 0.2018 5.49815 0.6331 0.0397 1.201 0.081 1.708 0.1223 2.1887 0.1782 3.851 1.7394 4.0677 3.9247 0.2279 2.2989 0.4502 5.9377 0.4844 11.5071H6.65723c0.03417 -5.5696 0.25651 -9.2083 0.48452 -11.5073 0.21672 -2.1852 1.87891 -3.7463 4.06755 -3.9245 0.5066 -0.0412 1.0741 -0.0825 1.7066 -0.1222Zm18.1619 -0.1869c-0.05 -2.044 -0.1203 -3.74875 -0.1908 -5.10344 -0.079 -1.5167 -1.0664 -2.5013 -2.3377 -2.5882 -1.1673 -0.07979 -2.6645 -0.13782 -4.5496 -0.13782s-3.3823 0.05804 -4.5496 0.13782c-1.2714 0.08691 -2.2587 1.07148 -2.3377 2.58814 -0.0705 1.35471 -0.1408 3.0595 -0.1909 5.1036 1.2672 -0.0417 2.6854 -0.0738 4.2669 -0.0916V9.07343c0 -0.89319 0.588 -1.70527 1.4695 -1.8493 0.9002 -0.14708 1.7022 -0.14158 2.644 0.0111 0.8989 0.14573 1.5106 0.9648 1.5106 1.87547v2.9046c1.5809 0.0177 2.9986 0.0499 4.2653 0.0915ZM6.65723 30.8477H41.3435c-0.0342 5.5693 -0.2565 9.2081 -0.4844 11.507 -0.2167 2.1853 -1.879 3.7465 -4.0677 3.9247 -2.5487 0.2075 -6.6399 0.4159 -12.791 0.4159 -6.1512 0 -10.2424 -0.2084 -12.7911 -0.4159 -2.18865 -0.1782 -3.85084 -1.7393 -4.06755 -3.9245 -0.22801 -2.2989 -0.45035 -5.9377 -0.48452 -11.5072Z" clip-rule="evenodd" stroke-width="3.429"></path>
  </g>
</svg>
