<svg xmlns="http://www.w3.org/2000/svg" viewBox="0 0 24 24" fill="none"><path d="M18.7333 16.3024C18.7913 16.5185 18.7999 16.811 18.7999 17.7778C18.7999 18.3147 19.2364 18.75 19.7749 18.75C20.3134 18.75 20.7499 18.3147 20.7499 17.7778C20.7499 16.9362 20.7579 16.3249 20.6166 15.7992C20.256 14.4571 19.2051 13.4092 17.8592 13.0496C17.5594 12.9695 17.2319 12.9387 16.8499 12.9262V8.05556H17.8249C18.3634 8.05556 18.7999 7.62028 18.7999 7.08333C18.7999 6.54639 18.3634 6.11111 17.8249 6.11111H6.12498V5.13889V5.11625C6.12499 4.68631 6.12499 4.31558 6.10403 4.00906C6.08209 3.68839 6.03381 3.36701 5.90218 3.05013C5.60532 2.33577 5.03612 1.76818 4.31971 1.47217C4.00193 1.34091 3.67963 1.29277 3.35805 1.27089C3.05065 1.24999 2.67884 1.24999 2.24766 1.25H2.225C1.68652 1.25 1.25 1.68528 1.25 2.22222C1.25 2.75917 1.68652 3.19444 2.225 3.19444C2.69263 3.19444 2.99465 3.19487 3.2257 3.21059C3.44791 3.22571 3.53267 3.25175 3.57323 3.2685C3.81203 3.36717 4.00177 3.55637 4.10072 3.79449C4.11752 3.83494 4.14363 3.91945 4.1588 4.14103C4.17457 4.37143 4.17499 4.67259 4.17499 5.13889V11.3976C4.17502 11.7127 4.32846 12.0081 4.58631 12.1903C4.8442 12.3726 5.17448 12.4191 5.47276 12.3147C6.714 11.8804 9.77438 11.4025 12.1806 14.4861C12.3653 14.7227 12.6492 14.8611 12.95 14.8611H15.8749C16.8444 14.8611 17.1378 14.8697 17.3546 14.9276C18.0275 15.1074 18.553 15.6313 18.7333 16.3024Z" fill="currentColor"/><path d="M11.8269 16.5C11.8269 14.1103 9.88969 12.1731 7.5 12.1731C5.11031 12.1731 3.17308 14.1103 3.17308 16.5C3.17308 18.8897 5.11031 20.8269 7.5 20.8269C9.88969 20.8269 11.8269 18.8897 11.8269 16.5ZM13.75 16.5C13.75 19.9518 10.9518 22.75 7.5 22.75C4.04822 22.75 1.25 19.9518 1.25 16.5C1.25 13.0482 4.04822 10.25 7.5 10.25C10.9518 10.25 13.75 13.0482 13.75 16.5Z" fill="currentColor"/><path d="M20.9167 20C20.9167 19.4937 20.5063 19.0833 20 19.0833C19.4937 19.0833 19.0833 19.4937 19.0833 20C19.0833 20.5063 19.4937 20.9167 20 20.9167C20.5063 20.9167 20.9167 20.5063 20.9167 20ZM22.75 20C22.75 21.5188 21.5188 22.75 20 22.75C18.4812 22.75 17.25 21.5188 17.25 20C17.25 18.4812 18.4812 17.25 20 17.25C21.5188 17.25 22.75 18.4812 22.75 20Z" fill="currentColor"/></svg>
