<svg xmlns="http://www.w3.org/2000/svg" viewBox="0 0 24 24" fill="none"><path d="M6.94443 2.25009C8.04891 2.25009 8.79599 2.23836 9.46298 2.48837C10.9533 3.0473 11.5503 4.42366 12.0372 5.39755L12.464 6.25009H16.7745C17.8007 6.25008 18.6274 6.25012 19.2901 6.31747C19.9704 6.38667 20.5612 6.53338 21.0831 6.88192C21.4925 7.15545 21.8447 7.50774 22.1183 7.91708C22.4669 8.43905 22.6135 9.02972 22.6827 9.71005C22.7501 10.3729 22.7501 11.2001 22.7501 12.2266V12.2833C22.7501 14.0072 22.7501 15.3584 22.6407 16.4337C22.5294 17.5283 22.2986 18.4202 21.7813 19.1944C21.3618 19.8222 20.8223 20.3618 20.1944 20.7813C19.4202 21.2985 18.5282 21.5294 17.4337 21.6407C16.3586 21.75 15.0079 21.7501 13.2843 21.7501H11.9347C9.63054 21.7501 7.82385 21.7501 6.41415 21.5606C4.9696 21.3664 3.82939 20.9602 2.93466 20.0655C2.04004 19.1707 1.63376 18.0306 1.43954 16.586C1.32413 15.7273 2.03132 15.0001 2.8978 15.0001H9.89072C9.53327 15.3104 9.12648 15.6416 8.85361 15.8546C8.71801 15.9604 8.48585 16.1351 8.40732 16.1944C7.96275 16.5218 7.86821 17.1482 8.1954 17.5929C8.52291 18.0375 9.14915 18.1332 9.59384 17.8058C9.67957 17.741 9.93915 17.5439 10.0841 17.4308C10.3737 17.2047 10.764 16.8925 11.1563 16.5518C11.5437 16.2155 11.9572 15.8318 12.2813 15.4649C12.4424 15.2827 12.6022 15.0801 12.7276 14.8722C12.8365 14.6915 13.0001 14.3772 13.0001 14.0001C13 13.6229 12.8365 13.3086 12.7276 13.128C12.6022 12.92 12.4424 12.7175 12.2813 12.5352C11.9571 12.1684 11.5437 11.7847 11.1563 11.4483C10.7639 11.1076 10.3737 10.7954 10.0841 10.5694C9.93902 10.4562 9.67936 10.259 9.59384 10.1944C9.14923 9.86713 8.52292 9.96288 8.1954 10.4073C7.86803 10.8519 7.96378 11.4782 8.40829 11.8058C8.48662 11.8649 8.71788 12.0397 8.85361 12.1456C9.12644 12.3585 9.53323 12.6897 9.89072 13.0001H2.77928C2.19876 13.0001 1.64549 13.2463 1.25693 13.6776C1.25188 13.0757 1.25009 11.7545 1.25009 11.0665V7.9288C1.25009 7.04156 1.25009 6.32644 1.30087 5.75009C1.35286 5.16047 1.46274 4.64416 1.72568 4.17294C2.06452 3.56576 2.56579 3.06455 3.17294 2.72567C3.64412 2.46276 4.16055 2.35286 4.75009 2.30087C5.32644 2.25008 6.04158 2.25008 6.9288 2.25009H6.94443Z" fill="currentColor"/></svg>
