<svg xmlns="http://www.w3.org/2000/svg" fill="none" viewBox="0 0 48 48">
  <g>
    <path fill="#8fbffa" d="M19 12c-3.3137 0 -6 2.6863 -6 6s2.6863 6 6 6 6 -2.6863 6 -6 -2.6863 -6 -6 -6Z" stroke-width="1"></path>
    <path fill="#8fbffa" d="M11.3839 32.0742c2.2646 1.2281 4.8589 1.9255 7.6161 1.9255s5.3515 -0.6974 7.6161 -1.9255c1.062 0.0227 1.9888 0.0486 2.7864 0.0752 2.3646 0.0787 4.3251 1.6545 4.4992 4.0139 0.0595 0.8063 0.0983 1.7489 0.0983 2.8364 0 1.0874 -0.0388 2.0301 -0.0983 2.8363 -0.1741 2.3595 -2.1346 3.9353 -4.4992 4.014 -2.3228 0.0773 -5.7421 0.1497 -10.4025 0.1497s-8.0797 -0.0724 -10.40251 -0.1497c-2.36456 -0.0787 -4.32511 -1.6545 -4.49921 -4.014C4.03879 41.0298 4 40.0871 4 38.9997c0 -1.0875 0.03879 -2.0301 0.09828 -2.8364 0.1741 -2.3594 2.13465 -3.9352 4.49921 -4.0139 0.79756 -0.0266 1.72441 -0.0525 2.78641 -0.0752Z" stroke-width="1"></path>
    <path fill="currentColor" fill-opacity="0.4" fill-rule="evenodd" d="M3 18C3 9.16344 10.1634 2 19 2s16 7.16344 16 16c0 8.8366 -7.1634 16 -16 16S3 26.8366 3 18Zm10 0c0 -3.3137 2.6863 -6 6 -6s6 2.6863 6 6 -2.6863 6 -6 6 -6 -2.6863 -6 -6Z" clip-rule="evenodd" stroke-width="1"></path>
    <path fill="#8fbffa" d="M41.5 23c-1.933 0 -3.5 1.567 -3.5 3.5s1.567 3.5 3.5 3.5 3.5 -1.567 3.5 -3.5 -1.567 -3.5 -3.5 -3.5Z" stroke-width="1"></path>
    <path stroke="currentColor" stroke-linejoin="round" d="M11.3839 32.0742c2.2646 1.2281 4.8589 1.9255 7.6161 1.9255s5.3515 -0.6974 7.6161 -1.9255c1.062 0.0227 1.9888 0.0486 2.7864 0.0752 2.3646 0.0787 4.3251 1.6545 4.4992 4.0139 0.0595 0.8063 0.0983 1.7489 0.0983 2.8364 0 1.0874 -0.0388 2.0301 -0.0983 2.8363 -0.1741 2.3595 -2.1346 3.9353 -4.4992 4.014 -2.3228 0.0773 -5.7421 0.1497 -10.4025 0.1497s-8.0797 -0.0724 -10.40251 -0.1497c-2.36456 -0.0787 -4.32511 -1.6545 -4.49921 -4.014C4.03879 41.0298 4 40.0871 4 38.9997c0 -1.0875 0.03879 -2.0301 0.09828 -2.8364 0.1741 -2.3594 2.13465 -3.9352 4.49921 -4.0139 0.79756 -0.0266 1.72441 -0.0525 2.78641 -0.0752Z" stroke-width="1"></path>
    <path stroke="currentColor" stroke-linejoin="round" d="M19 2C10.1634 2 3 9.16344 3 18c0 8.8366 7.1634 16 16 16s16 -7.1634 16 -16c0 -8.83655 -7.1634 -16 -16 -16Z" stroke-width="1"></path>
    <path stroke="currentColor" stroke-linejoin="round" d="M19 12c-3.3137 0 -6 2.6863 -6 6s2.6863 6 6 6 6 -2.6863 6 -6 -2.6863 -6 -6 -6Z" stroke-width="1"></path>
    <path stroke="currentColor" stroke-linejoin="round" d="M41.5 23c-1.933 0 -3.5 1.567 -3.5 3.5s1.567 3.5 3.5 3.5 3.5 -1.567 3.5 -3.5 -1.567 -3.5 -3.5 -3.5Z" stroke-width="1"></path>
    <path stroke="currentColor" stroke-linecap="round" stroke-linejoin="round" d="M45 26.5c0 2.9246 -0.1521 5.4691 -0.3376 7.4851 -0.2833 3.0786 -2.5805 5.5107 -5.6572 5.8133C37.8013 39.9168 36.4423 40 35 40" stroke-width="1"></path>
  </g>
</svg>
