<svg xmlns="http://www.w3.org/2000/svg" fill="none" viewBox="0 0 48 48">
  <g>
    <path fill="currentColor" fill-rule="evenodd" d="M35.0094 40.0136c0 -1.1002 -0.0393 -2.0559 -0.0997 -2.8755 -0.1965 -2.6616 -2.4113 -4.3951 -4.9856 -4.4807 -2.3306 -0.0776 -5.7584 -0.1502 -10.4279 -0.1502s-8.0973 0.0726 -10.4281 0.1502c-2.5742 0.0856 -4.789 1.8191 -4.9854 4.4807 -0.0605 0.8195 -0.0997 1.7753 -0.0997 2.8755s0.0392 2.056 0.0997 2.8756c0.1964 2.6615 2.4112 4.395 4.9855 4.4807 2.3307 0.0775 5.7584 0.1501 10.428 0.1501s8.0973 -0.0726 10.4279 -0.1501c2.5744 -0.0857 4.7891 -1.8192 4.9856 -4.4807 0.0604 -0.8196 0.0997 -1.7753 0.0997 -2.8756Z" clip-rule="evenodd" stroke-width="3.429"></path>
    <path fill="currentColor" fill-rule="evenodd" d="M46.0187 27.503c0 -2.4874 -2.0164 -4.5039 -4.5038 -4.5039s-4.5038 2.0165 -4.5038 4.5039 2.0164 4.5038 4.5038 4.5038c0.1054 0 0.2099 -0.0036 0.3135 -0.0107 -0.1078 1.2873 -0.2518 2.4383 -0.4036 3.4289 -0.2841 1.8553 -1.6717 3.2182 -3.4423 3.4294 -0.8018 0.0957 -1.6452 0.1584 -2.4727 0.1584 -1.1055 0 -2.0017 0.8961 -2.0017 2.0017s0.8962 2.0017 2.0017 2.0017c1.022 0 2.0281 -0.0769 2.9471 -0.1866 3.6488 -0.4355 6.3831 -3.2589 6.9252 -6.7986 0.3375 -2.2037 0.6366 -5.1181 0.6366 -8.528Z" clip-rule="evenodd" stroke-width="3.429"></path>
    <path fill="currentColor" fill-opacity="0.4" fill-rule="evenodd" d="M37.0111 17.9949c0 9.6732 -7.8417 17.5149 -17.5149 17.5149 -9.6732 0 -17.5149 -7.8417 -17.5149 -17.5149C1.9813 8.3217 9.823 0.48 19.4962 0.48c9.6732 0 17.5149 7.8417 17.5149 17.5149Z" clip-rule="evenodd" stroke-width="3.429"></path>
    <path fill="currentColor" fill-rule="evenodd" d="M26.0017 17.9949c0 3.593 -2.9126 6.5055 -6.5055 6.5055s-6.5056 -2.9127 -6.5056 -6.5055c0 -3.593 2.9126 -6.5055 6.5056 -6.5055s6.5055 2.9125 6.5055 6.5055Z" clip-rule="evenodd" stroke-width="3.429"></path>
  </g>
</svg>
