<svg xmlns="http://www.w3.org/2000/svg" fill="none" viewBox="0 0 48 48">
  <g>
    <path stroke="currentColor" stroke-linecap="round" stroke-linejoin="round" d="M2 29.0005c2.13234 0 7.59672 -0.4775 9.9509 -4.261 2.0435 -3.2842 0.3858 -6.8734 2.5671 -8.1532 0.2008 -0.1178 0.1649 -0.5745 -0.0672 -0.5913 -5.44644 -0.3942 -5.01753 2.332 -8.2209 3.135 -0.40147 0.1007 -0.82053 -0.1124 -0.86092 -0.5243 -0.19501 -1.9887 1.75873 -6.0005 4.13338 -7.2206 3.43084 -1.76287 7.81874 -1.291 7.47904 -9.4705 -0.0133 -0.32063 -0.4157 -0.44423 -0.6143 -0.19211 -1.7888 2.27153 -3.2818 3.64723 -6.86474 3.0472C5.55389 4.10845 3.07177 5.84661 2 8.53892" stroke-width="1"></path>
    <path stroke="currentColor" stroke-linejoin="round" d="M18.2632 20.4258c0 1.3054 1.0042 2.3921 2.3044 2.509 1.3596 0.1222 3.1667 0.2954 4.9879 0.5016 0.7501 0.0849 1.1292 0.9378 0.6886 1.5508 -1.4838 2.0646 -4.3157 5.9454 -5.882 7.7041 -0.1946 0.2185 -0.4778 0.3274 -0.77 0.3112l-5.2173 -0.2898C13.0851 32.641 12 33.6675 12 34.9592v0.7077c0 1.2927 0.9869 2.3723 2.2742 2.4896 2.7474 0.2503 4.9591 0.451 6.2663 0.5695 0.8469 0.0768 1.696 -0.1162 2.4161 -0.5686 2.2177 -1.3932 4.2537 -2.82 4.2537 -2.82 1.4994 1.125 2.2396 1.9982 2.5304 2.3885 0.1065 0.1429 0.1541 0.3168 0.1541 0.495l0 5.5315c0 1.2427 1.0073 2.2494 2.25 2.2494h0.8346c1.2933 0 2.3736 -0.9873 2.4864 -2.2757 0.2897 -3.3108 0.5144 -6.1152 0.6221 -7.4869 0.0467 -0.5948 -0.0338 -1.1944 -0.2895 -1.7335 -0.7165 -1.5106 -1.6877 -2.8718 -2.1118 -3.4372 -0.1362 -0.1817 -0.2129 -0.401 -0.2129 -0.628v-0.0974l2.6843 0.8947c2.1754 0.1747 5.2958 0.2133 7.8984 -0.1083 1.1488 -0.1419 1.9437 -1.1551 1.9437 -2.3126v-0.8806c0 -1.3397 -1.1636 -2.3924 -2.5018 -2.3311 -1.6455 0.0754 -3.88 0.0998 -6.0042 -0.1306 -0.2645 -0.0287 -0.5031 -0.165 -0.6706 -0.3716 -0.7401 -0.9129 -3.0153 -3.6166 -6.0667 -6.2794 -1.1227 -0.9797 -2.5411 -1.5541 -4.0294 -1.6252 -2.3882 -0.114 -4.7808 -0.0442 -6.4099 0.038 -1.1646 0.0588 -2.0543 1.0282 -2.0543 2.1943v0.9951Z" stroke-width="1"></path>
    <path stroke="currentColor" stroke-linejoin="round" d="M31.684 17.368a5.368 5.368 0 1 0 10.736 0 5.368 5.368 0 1 0 -10.736 0" stroke-width="1"></path>
  </g>
</svg>
