<svg xmlns="http://www.w3.org/2000/svg" fill="none" viewBox="0 0 48 48">
  <g>
    <path fill="currentColor" fill-rule="evenodd" d="M32.5437 18.2709c0 7.3304 -5.9424 13.2728 -13.2728 13.2728S5.99805 25.6013 5.99805 18.2709 11.9405 4.99805 19.2709 4.99805 32.5437 10.9405 32.5437 18.2709Zm4 0c0 4.6722 -1.855 8.9111 -4.8688 12.0204 2.0449 0.8359 3.6315 2.6512 3.8175 5.1718 0.0399 0.54 0.0703 1.1358 0.0864 1.7897 0.8028 -0.0259 1.5691 -0.0775 2.2816 -0.1436 2.0619 -0.1913 3.6495 -1.8142 3.8424 -3.9877 0.0893 -1.006 0.1689 -2.1478 0.2226 -3.4051 -0.0889 0.0055 -0.1784 0.0082 -0.2687 0.0082 -2.3974 0 -4.3409 -1.9435 -4.3409 -4.3409 0 -2.3975 1.9435 -4.341 4.3409 -4.341 2.3975 0 4.341 1.9435 4.341 4.341 0 0.204 -0.0141 0.4048 -0.0414 0.6013 0.0263 0.1292 0.04 0.2629 0.04 0.3998 0 2.7469 -0.1371 5.1526 -0.3092 7.0904 -0.3538 3.9854 -3.3624 7.237 -7.4572 7.6169 -0.8478 0.0786 -1.7705 0.1392 -2.7443 0.1652 -0.2953 3.4014 -3.1541 5.4964 -6.216 5.5983 -2.2408 0.0746 -5.527 0.144 -9.9962 0.144 -4.4693 0 -7.7554 -0.0694 -9.99631 -0.144 -3.08728 -0.1028 -5.96809 -2.2318 -6.22277 -5.6832 -0.06052 -0.8202 -0.09924 -1.7691 -0.09924 -2.8547 0 -1.0855 0.03872 -2.0345 0.09924 -2.8546 0.18589 -2.5192 1.77082 -4.3338 3.81394 -5.1703 -3.01458 -3.1095 -4.87021 -7.349 -4.87021 -12.0219C1.99805 8.73136 9.73136 0.998047 19.2709 0.998047c9.5395 0 17.2728 7.733313 17.2728 17.272853Zm-10.5449 0.0006c0 3.7154 -3.0119 6.7273 -6.7273 6.7273s-6.7273 -3.0119 -6.7273 -6.7273 3.0119 -6.7273 6.7273 -6.7273 6.7273 3.0119 6.7273 6.7273Z" clip-rule="evenodd" stroke-width="1"></path>
  </g>
</svg>
