<svg xmlns="http://www.w3.org/2000/svg" fill="none" viewBox="0 0 48 48">
  <g>
    <path fill="currentColor" fill-rule="evenodd" d="M37.0111 17.9949c0 9.6733 -7.8417 17.515 -17.5149 17.515 -9.6733 0 -17.515 -7.8417 -17.515 -17.515C1.9812 8.3217 9.8229 0.48 19.4962 0.48c9.6732 0 17.5149 7.8417 17.5149 17.5149Zm-11.0094 0c0 3.593 -2.9126 6.5056 -6.5056 6.5056s-6.5055 -2.9127 -6.5055 -6.5056 2.9126 -6.5055 6.5055 -6.5055 6.5056 2.9126 6.5056 6.5055Zm20.0171 9.5081c0 -2.4874 -2.0165 -4.5038 -4.5039 -4.5038s-4.5038 2.0164 -4.5038 4.5038 2.0164 4.5039 4.5038 4.5039c0.1054 0 0.2099 -0.0036 0.3135 -0.0107 -0.1078 1.2873 -0.2518 2.4382 -0.4035 3.4289 -0.2842 1.8553 -1.6718 3.2181 -3.4424 3.4294 -0.8018 0.0957 -1.6452 0.1583 -2.4727 0.1583 -0.1763 0 -0.3473 0.0229 -0.5102 0.0656 -0.0151 -0.7164 -0.0473 -1.3623 -0.0899 -1.9403 -0.1287 -1.7433 -1.1233 -3.0885 -2.5177 -3.8332 -3.4832 2.9371 -7.9829 4.707 -12.8958 4.707s-9.4126 -1.7699 -12.896 -4.707c-1.3943 0.7447 -2.3889 2.0899 -2.5175 3.8332 -0.0605 0.8196 -0.0998 1.7753 -0.0998 2.8755 0 1.1003 0.0393 2.0561 0.0998 2.8757 0.1963 2.6614 2.4111 4.3949 4.9854 4.4806 2.3308 0.0776 5.7585 0.1501 10.4281 0.1501s8.0973 -0.0725 10.4279 -0.1501c2.5632 -0.0853 4.7699 -1.8041 4.9829 -4.446 0.1903 0.06 0.3927 0.0924 0.6028 0.0924 1.022 0 2.0281 -0.0769 2.9471 -0.1866 3.6488 -0.4355 6.3832 -3.2589 6.9252 -6.7986 0.3375 -2.2038 0.6367 -5.1182 0.6367 -8.5281Z" clip-rule="evenodd" stroke-width="1"></path>
  </g>
</svg>
