<svg xmlns="http://www.w3.org/2000/svg" viewBox="0 0 24 24" fill="none"><path d="M21.0001 3.99963C21.5524 3.99963 22.0001 4.44735 22.0001 4.99963C22.0001 5.55192 21.5524 5.99963 21.0001 5.99963H3.00012C2.44784 5.99963 2.00012 5.55192 2.00012 4.99963C2.00012 4.44735 2.44784 3.99963 3.00012 3.99963H21.0001Z" fill="currentColor"/><path d="M9.00012 10.9996C9.55241 10.9996 10.0001 11.4473 10.0001 11.9996C10.0001 12.5519 9.55241 12.9996 9.00012 12.9996H3.00012C2.44784 12.9996 2.00012 12.5519 2.00012 11.9996C2.00012 11.4473 2.44784 10.9996 3.00012 10.9996H9.00012Z" fill="currentColor"/><path opacity="0.4" d="M16.7784 10.3268C16.2295 10.0778 15.582 9.87963 14.9005 10.0856C14.4562 10.22 14.0593 10.4723 13.7452 10.8102C13.279 11.3121 13.1314 11.9641 13.0656 12.5846C13.0001 13.202 13.0001 13.9961 13.0001 14.9476V14.9997V15.0517C13.0001 16.0032 13.0001 16.7973 13.0656 17.4147C13.1314 18.0353 13.279 18.6873 13.7452 19.1891C14.0593 19.5271 14.4562 19.7794 14.9005 19.9137C15.582 20.1197 16.2295 19.9216 16.7784 19.6725C17.3308 19.4219 17.9967 19.0162 18.7814 18.5407C19.5947 18.0478 20.2823 17.6331 20.7794 17.2458C21.28 16.8557 21.7471 16.3752 21.9161 15.6901C22.0278 15.2373 22.0278 14.7621 21.9161 14.3093C21.7471 13.6242 21.28 13.1437 20.7794 12.7536C20.2932 12.3748 19.6247 11.9697 18.8347 11.491L18.7814 11.4587C17.9967 10.9831 17.3308 10.5775 16.7784 10.3268Z" fill="currentColor"/><path d="M9.00012 17.9996C9.55241 17.9996 10.0001 18.4473 10.0001 18.9996C10.0001 19.5519 9.55241 19.9996 9.00012 19.9996H3.00012C2.44784 19.9996 2.00012 19.5519 2.00012 18.9996C2.00012 18.4473 2.44784 17.9996 3.00012 17.9996H9.00012Z" fill="currentColor"/></svg>
