<svg xmlns="http://www.w3.org/2000/svg" viewBox="0 0 24 24" fill="none"><path opacity="0.4" d="M11.6859 1.31894C11.9517 1.1964 12.2644 1.2396 12.4869 1.42959C15.1811 3.72949 17.2347 5.8988 18.6194 7.94024C20.0025 9.97924 20.75 11.9378 20.75 13.8C20.75 19.2172 16.5909 22.75 12 22.75C7.40912 22.75 3.25 19.2172 3.25 13.8C3.25 11.0002 4.91267 8.20398 7.95491 4.98487C8.15229 4.77601 8.45165 4.6983 8.72569 4.78477C8.99974 4.87125 9.20028 5.10671 9.24204 5.39102C9.27903 5.64284 9.4286 6.17168 10.0137 6.89807C10.2713 6.59951 10.4957 6.27309 10.6857 5.82959C11.0058 5.08262 11.25 3.94457 11.25 2.00001C11.25 1.70739 11.4202 1.44148 11.6859 1.31894Z" fill="currentColor" fill-rule="evenodd" clip-rule="evenodd"/><path d="M10.0303 18.0303C9.73744 18.3232 9.26268 18.3232 8.96978 18.0303C8.67689 17.7374 8.67689 17.2627 8.96978 16.9698L13.9698 11.9698C14.2627 11.6769 14.7374 11.6769 15.0303 11.9698C15.3232 12.2627 15.3232 12.7374 15.0303 13.0303L10.0303 18.0303Z" fill="currentColor"/><path d="M9.85254 11.7549C10.3567 11.8062 10.75 12.2323 10.75 12.75C10.75 13.3023 10.3023 13.75 9.75 13.75C9.19772 13.75 8.75 13.3023 8.75 12.75C8.75 12.1977 9.19771 11.75 9.75 11.75L9.85254 11.7549Z" fill="currentColor"/><path d="M14.25 16.25C14.8023 16.25 15.25 16.6977 15.25 17.25C15.25 17.8023 14.8023 18.25 14.25 18.25C13.6977 18.25 13.25 17.8023 13.25 17.25C13.25 16.6977 13.6977 16.25 14.25 16.25Z" fill="currentColor"/></svg>
