<svg xmlns="http://www.w3.org/2000/svg" viewBox="0 0 24 24" fill="none"><path d="M12 22.7499C16.5909 22.7499 20.75 19.2168 20.75 13.7997C20.7499 11.9376 20.0022 9.97923 18.6191 7.94031C17.2344 5.89893 15.1813 3.72938 12.4873 1.42957C12.2647 1.23958 11.9513 1.19667 11.6855 1.31921C11.4201 1.44185 11.25 1.70743 11.25 1.99988C11.25 3.94413 11.0056 5.08201 10.6855 5.82898C10.4955 6.27248 10.2712 6.59976 10.0137 6.89832C9.42852 6.17193 9.27918 5.64233 9.24219 5.3905C9.20031 5.10636 8.99951 4.87148 8.72559 4.78503C8.45154 4.69856 8.15246 4.77637 7.95508 4.98523C4.91302 8.20419 3.25008 11 3.25 13.7997C3.25 19.2168 7.40912 22.7499 12 22.7499ZM9.75 13.7499C9.19772 13.7499 8.75 13.3022 8.75 12.7499C8.75 12.1976 9.19771 11.7499 9.75 11.7499L9.85254 11.7548C10.3567 11.8061 10.75 12.2322 10.75 12.7499C10.75 13.3022 10.3023 13.7499 9.75 13.7499ZM10.0303 18.0302C9.73738 18.323 9.26262 18.323 8.96973 18.0302C8.67689 17.7373 8.67685 17.2625 8.96973 16.9696L13.9697 11.9696C14.2626 11.6767 14.7374 11.6768 15.0303 11.9696C15.3232 12.2625 15.3232 12.7373 15.0303 13.0302L10.0303 18.0302ZM14.25 18.2499C13.6977 18.2499 13.25 17.8022 13.25 17.2499C13.25 16.6976 13.6977 16.2499 14.25 16.2499C14.8023 16.2499 15.25 16.6976 15.25 17.2499C15.25 17.8022 14.8023 18.2499 14.25 18.2499Z" fill="currentColor"/></svg>
