<svg xmlns="http://www.w3.org/2000/svg" fill="none" viewBox="0 0 48 48">
  <g>
    <path fill="currentColor" fill-opacity="0.4" d="M3.03822 4.07827c0.10559 -1.18821 1.15511 -1.81846 2.34729 -1.85982C7.94582 2.12961 13.4833 2 24 2s16.0542 0.12961 18.6145 0.21845c1.1922 0.04136 2.2417 0.67161 2.3473 1.85983C44.9857 4.34731 45 4.6532 45 5s-0.0143 0.65269 -0.0382 0.92172c-0.1056 1.18822 -1.1551 1.81847 -2.3473 1.85983C40.0542 7.87039 34.5167 8 24 8S7.94581 7.87038 5.3855 7.78155c-1.19218 -0.04137 -2.24169 -0.67162 -2.34728 -1.85983C3.01432 5.65268 3 5.34679 3 5c0 -0.3468 0.01432 -0.65269 0.03822 -0.92173Z" stroke-width="3.429"></path>
    <path fill="#8fbffa" d="M8 7.85547v2.39443c0 8.6984 7.1634 15.75 16 15.75s16 -7.0516 16 -15.75V7.85547c-3.1388 0.07308 -8.1999 0.14438 -16 0.14438 -7.8001 0 -12.8612 -0.0713 -16 -0.14438Z" stroke-width="3.429"></path>
    <path stroke="currentColor" stroke-linecap="round" d="M24 32c-1.2533 1.933 -1.4112 4.3077 0 7 1.4112 2.6923 1.2533 5.067 0 7" stroke-width="3.429"></path>
    <path stroke="currentColor" stroke-linecap="round" d="M13 29c-1.2533 1.933 -1.4112 4.3077 0 7 1.4112 2.6923 1.2533 5.067 0 7" stroke-width="3.429"></path>
    <path stroke="currentColor" stroke-linecap="round" d="M35 29c-1.2533 1.933 -1.4112 4.3077 0 7 1.4112 2.6923 1.2533 5.067 0 7" stroke-width="3.429"></path>
    <path stroke="currentColor" stroke-linejoin="round" d="M3.03822 4.07827c0.10559 -1.18821 1.15511 -1.81846 2.34729 -1.85982C7.94582 2.12961 13.4833 2 24 2s16.0542 0.12961 18.6145 0.21845c1.1922 0.04136 2.2417 0.67161 2.3473 1.85983C44.9857 4.34731 45 4.6532 45 5s-0.0143 0.65269 -0.0382 0.92172c-0.1056 1.18822 -1.1551 1.81847 -2.3473 1.85983C40.0542 7.87039 34.5167 8 24 8S7.94581 7.87038 5.3855 7.78155c-1.19218 -0.04137 -2.24169 -0.67162 -2.34728 -1.85983C3.01432 5.65268 3 5.34679 3 5c0 -0.3468 0.01432 -0.65269 0.03822 -0.92173Z" stroke-width="3.429"></path>
    <path stroke="currentColor" stroke-linejoin="round" d="M8 7.85547v2.39443c0 8.6984 7.1634 15.75 16 15.75s16 -7.0516 16 -15.75V7.85547c-3.1388 0.07308 -8.1999 0.14438 -16 0.14438 -7.8001 0 -12.8612 -0.0713 -16 -0.14438Z" stroke-width="3.429"></path>
  </g>
</svg>
