<svg xmlns="http://www.w3.org/2000/svg" fill="none" viewBox="0 0 48 48">
  <g>
    <path fill="currentColor" fill-opacity="0.4" fill-rule="evenodd" d="M8.03492 5.85588c-0.40377 -0.00941 -0.79427 0.14441 -1.08316 0.42666C6.66287 6.56478 6.5 6.95159 6.5 7.35547v2.89443c0 9.549 7.8574 17.25 17.5 17.25s17.5 -7.701 17.5 -17.25V7.35547c0 -0.40388 -0.1629 -0.79069 -0.4518 -1.07293 -0.2888 -0.28224 -0.6793 -0.43606 -1.0831 -0.42666 -3.1246 0.07275 -8.1736 0.14397 -15.9651 0.14397 -7.7915 0 -12.8405 -0.07123 -15.96508 -0.14397Z" clip-rule="evenodd" stroke-width="1"></path>
    <path fill="currentColor" fill-rule="evenodd" d="M14.088 26.8221c-0.9268 -0.6009 -2.1653 -0.3367 -2.7662 0.5901 -1.69428 2.6132 -1.79663 5.7669 -0.0932 9.0166 1.119 2.1349 0.9055 3.7306 0.0932 4.9834 -0.6009 0.9268 -0.3367 2.1653 0.5901 2.7662 0.9268 0.6009 2.1653 0.3367 2.7662 -0.5901 1.6943 -2.6132 1.7966 -5.7669 0.0933 -9.0166 -1.1191 -2.1349 -0.9055 -3.7306 -0.0933 -4.9834 0.6009 -0.9268 0.3367 -2.1653 -0.5901 -2.7662Zm11 3c-0.9268 -0.6009 -2.1653 -0.3367 -2.7662 0.5901 -1.6943 2.6132 -1.7966 5.7669 -0.0932 9.0166 1.119 2.1349 0.9055 3.7306 0.0932 4.9834 -0.6009 0.9268 -0.3367 2.1653 0.5901 2.7662 0.9268 0.6009 2.1653 0.3367 2.7662 -0.5901 1.6943 -2.6132 1.7966 -5.7669 0.0933 -9.0166 -1.1191 -2.1349 -0.9055 -3.7306 -0.0933 -4.9834 0.6009 -0.9268 0.3367 -2.1653 -0.5901 -2.7662Zm8.2338 -2.4099c0.6009 -0.9268 1.8394 -1.191 2.7662 -0.5901 0.9268 0.6009 1.191 1.8394 0.5901 2.7662 -0.8122 1.2528 -1.0258 2.8485 0.0933 4.9834 1.7033 3.2497 1.601 6.4034 -0.0933 9.0166 -0.6009 0.9268 -1.8394 1.191 -2.7662 0.5901 -0.9268 -0.6009 -1.191 -1.8394 -0.5901 -2.7662 0.8123 -1.2528 1.0258 -2.8485 -0.0932 -4.9834 -1.7034 -3.2497 -1.6011 -6.4034 0.0932 -9.0166Z" clip-rule="evenodd" stroke-width="1"></path>
    <path fill="currentColor" fill-rule="evenodd" d="M24 0.5C13.476 0.5 7.92627 0.629685 5.35083 0.719047 3.89336 0.769617 2.21077 1.5922 2.04215 3.48976 2.01545 3.79024 2 4.12574 2 4.5c0 0.37425 0.01545 0.70975 0.04215 1.01023 0.16862 1.89756 1.8512 2.72015 3.30868 2.77072C7.92627 8.37031 13.476 8.5 24 8.5c10.524 0 16.0737 -0.12969 18.6492 -0.21905 1.4574 -0.05057 3.14 -0.87315 3.3086 -2.77071C45.9846 5.20976 46 4.87426 46 4.5c0 -0.37426 -0.0155 -0.70976 -0.0422 -1.01023 -0.1686 -1.89756 -1.8512 -2.720149 -3.3086 -2.77072C40.0737 0.629688 34.524 0.5 24 0.5Z" clip-rule="evenodd" stroke-width="1"></path>
  </g>
</svg>
