<svg xmlns="http://www.w3.org/2000/svg" fill="none" viewBox="0 0 48 48">
  <g>
    <path fill="currentColor" fill-rule="evenodd" d="M5.13817 1.21889C7.74014 1.12966 13.3525 1 23.9997 1c10.6472 0 16.2596 0.12967 18.8615 0.21889 1.3978 0.04793 2.9414 0.81677 3.0965 2.54222 0.0263 0.29289 0.0417 0.62125 0.0417 0.98889 0 0.36764 -0.0154 0.696 -0.0417 0.98889 -0.1551 1.72545 -1.6987 2.49429 -3.0965 2.54222 -0.2568 0.00881 -0.5429 0.01801 -0.8603 0.02744v1.6913c0 9.83265 -8.0887 17.75005 -18 17.75005 -9.9114 0 -18.00005 -7.9174 -18.00005 -17.75005V8.30861c-0.31834 -0.00945 -0.60525 -0.01867 -0.86268 -0.0275 -1.39777 -0.04793 -2.94133 -0.81677 -3.09648 -2.54222C2.01536 5.44599 2 5.11763 2 4.75c0 -0.36764 0.01536 -0.696 0.04169 -0.9889 0.15515 -1.72545 1.69872 -2.49429 3.09648 -2.54221ZM10.0009 8.3996v1.60025c0 7.56435 6.2382 13.75005 14 13.75005 7.7617 0 14 -6.1857 14 -13.75005V8.39956C34.8086 8.45488 30.28 8.5 23.9997 8.5c-6.2788 0 -10.8067 -0.0451 -13.9988 -0.1004Zm4.288 18.5058c-1.0189 -0.7114 -2.4215 -0.4622 -3.1329 0.5567 -1.80755 2.5887 -1.89836 5.7342 -0.1146 8.8941 1.0387 1.8401 0.8136 3.1048 0.1146 4.1059 -0.7114 1.0189 -0.4622 2.4215 0.5567 3.1329 1.0188 0.7114 2.4215 0.4621 3.1329 -0.5567 1.8075 -2.5887 1.8983 -5.7342 0.1145 -8.8942 -1.0387 -1.84 -0.8135 -3.1047 -0.1145 -4.1058 0.7114 -1.0189 0.4621 -2.4215 -0.5567 -3.1329Zm11 3c-1.0189 -0.7114 -2.4215 -0.4622 -3.1329 0.5567 -1.8076 2.5887 -1.8984 5.7342 -0.1146 8.8941 1.0387 1.8401 0.8136 3.1048 0.1146 4.1059 -0.7114 1.0189 -0.4622 2.4215 0.5567 3.1329 1.0188 0.7114 2.4215 0.4621 3.1329 -0.5567 1.8075 -2.5887 1.8983 -5.7342 0.1145 -8.8942 -1.0387 -1.84 -0.8135 -3.1047 -0.1145 -4.1058 0.7114 -1.0189 0.4621 -2.4215 -0.5567 -3.1329Zm7.8671 -2.4433c0.7114 -1.0189 2.114 -1.2681 3.1329 -0.5567 1.0188 0.7114 1.2681 2.114 0.5567 3.1329 -0.699 1.0011 -0.9242 2.2658 0.1145 4.1058 1.7838 3.16 1.693 6.3055 -0.1145 8.8942 -0.7114 1.0188 -2.1141 1.2681 -3.1329 0.5567 -1.0189 -0.7114 -1.2681 -2.114 -0.5567 -3.1329 0.699 -1.0011 0.9241 -2.2658 -0.1146 -4.1059 -1.7838 -3.1599 -1.693 -6.3054 0.1146 -8.8941Z" clip-rule="evenodd" stroke-width="1"></path>
  </g>
</svg>
