<svg xmlns="http://www.w3.org/2000/svg" fill="none" viewBox="0 0 48 48">
  <g>
    <path fill="currentColor" fill-rule="evenodd" d="M5.35083 0.719047C7.92627 0.629685 13.476 0.5 24 0.5c10.524 0 16.0737 0.129688 18.6492 0.21905 1.4574 0.050571 3.14 0.87316 3.3086 2.77072C45.9845 3.79024 46 4.12574 46 4.5c0 0.37426 -0.0154 0.70976 -0.0422 1.01024 -0.1686 1.89756 -1.8512 2.72014 -3.3086 2.77071C40.0737 8.37031 34.524 8.5 24 8.5c-10.524 0 -16.07373 -0.12969 -18.64917 -0.21905 -1.45748 -0.05057 -3.14006 -0.87316 -3.30868 -2.77072C2.01545 5.20975 2 4.87425 2 4.5c0 -0.37426 0.01545 -0.70976 0.04215 -1.01024C2.21077 1.5922 3.89336 0.769617 5.35083 0.719047ZM6.50977 10.8184c2.98893 0.0848 8.39153 0.1815 17.49073 0.1815 9.0991 0 14.5017 -0.0967 17.4906 -0.1815 -0.3045 9.2843 -8.0402 16.6814 -17.4906 16.6814 -9.4505 0 -17.18619 -7.3971 -17.49073 -16.6814ZM14.088 26.8221c-0.9268 -0.6009 -2.1653 -0.3367 -2.7662 0.5901 -1.69428 2.6132 -1.79663 5.7669 -0.0932 9.0166 1.119 2.1349 0.9055 3.7306 0.0932 4.9834 -0.6009 0.9268 -0.3367 2.1653 0.5901 2.7662 0.9268 0.6009 2.1653 0.3367 2.7662 -0.5901 1.6943 -2.6132 1.7966 -5.7669 0.0933 -9.0166 -1.1191 -2.1349 -0.9055 -3.7306 -0.0933 -4.9834 0.6009 -0.9268 0.3367 -2.1653 -0.5901 -2.7662Zm11 3c-0.9268 -0.6009 -2.1653 -0.3367 -2.7662 0.5901 -1.6943 2.6132 -1.7966 5.7669 -0.0932 9.0166 1.119 2.1349 0.9055 3.7306 0.0932 4.9834 -0.6009 0.9268 -0.3367 2.1653 0.5901 2.7662 0.9268 0.6009 2.1653 0.3367 2.7662 -0.5901 1.6943 -2.6132 1.7966 -5.7669 0.0933 -9.0166 -1.1191 -2.1349 -0.9055 -3.7306 -0.0933 -4.9834 0.6009 -0.9268 0.3367 -2.1653 -0.5901 -2.7662Zm8.2338 -2.4099c0.6009 -0.9268 1.8394 -1.191 2.7662 -0.5901 0.9268 0.6009 1.191 1.8394 0.5901 2.7662 -0.8122 1.2528 -1.0258 2.8485 0.0933 4.9834 1.7033 3.2497 1.601 6.4034 -0.0933 9.0166 -0.6009 0.9268 -1.8394 1.191 -2.7662 0.5901 -0.9268 -0.6009 -1.191 -1.8394 -0.5901 -2.7662 0.8123 -1.2528 1.0258 -2.8485 -0.0932 -4.9834 -1.7034 -3.2497 -1.6011 -6.4034 0.0932 -9.0166Z" clip-rule="evenodd" stroke-width="3.429"></path>
  </g>
</svg>
