<svg xmlns="http://www.w3.org/2000/svg" viewBox="0 0 24 24" fill="none"><path d="M13.6373 1.416C13.7353 1.45076 13.8314 1.49075 13.9251 1.53582C14.3799 1.75449 14.7362 2.11356 15.1387 2.51921L19.9215 7.32686L19.9215 7.32686C20.3889 7.79521 20.8036 8.21088 21.0277 8.75463C21.1265 8.99435 21.1816 9.24282 21.2122 9.50258H19.2314C17.8638 9.5026 17.2152 9.50181 16.3483 9.38525C15.4481 9.26424 14.6903 9.00534 14.0884 8.40343C13.4864 7.80151 13.2275 7.04364 13.1065 6.14353C12.9902 5.27834 12.9902 4.63063 12.9902 3.2688V3.26877V1.27734C13.2136 1.30042 13.4283 1.34184 13.6373 1.416Z" fill="currentColor"/><path d="M9.25049 20.748C9.80277 20.748 10.2505 21.1958 10.2505 21.748C10.2505 22.3003 9.80277 22.748 9.25049 22.748C8.6982 22.748 8.25049 22.3003 8.25049 21.748C8.25049 21.1958 8.6982 20.748 9.25049 20.748Z" fill="currentColor"/><path d="M9.24976 16.623C10.6195 16.623 11.849 17.214 12.7273 18.1455C13.1061 18.5474 13.0871 19.1797 12.6853 19.5586C12.2835 19.9374 11.6511 19.9193 11.2722 19.5176C10.7429 18.9561 10.0278 18.623 9.24976 18.623C8.47167 18.623 7.75662 18.9561 7.22729 19.5176C6.84843 19.9193 6.21601 19.9374 5.81421 19.5586C5.41236 19.1797 5.39338 18.5474 5.77222 18.1455C6.65047 17.214 7.87996 16.623 9.24976 16.623ZM9.24976 12.498C11.6935 12.498 13.8953 13.5505 15.4773 15.2285C15.8562 15.6304 15.8372 16.2637 15.4353 16.6426C15.0335 17.0209 14.4009 17.0022 14.0222 16.6006C12.7891 15.2926 11.1018 14.498 9.24976 14.498C7.39772 14.498 5.7104 15.2926 4.47729 16.6006C4.09857 17.0022 3.46605 17.0209 3.06421 16.6426C2.66236 16.2637 2.64336 15.6304 3.02222 15.2285C4.60425 13.5505 6.80604 12.498 9.24976 12.498Z" fill="currentColor"/><path opacity="0.4" d="M12.0896 1.24815L12.0879 1.24815C10.5624 1.24813 9.15452 1.24856 8.17578 1.36338C7.16314 1.48223 6.29458 1.7355 5.55957 2.33116C5.29006 2.54963 5.0445 2.79657 4.82715 3.06749C4.23462 3.80621 3.98252 4.67866 3.86426 5.69639C3.75 6.6801 3.74998 7.91694 3.75 9.4503V12.9698C5.32053 11.8895 7.20816 11.2481 9.25 11.2481C12.0636 11.2482 14.5868 12.4621 16.3867 14.3712C17.2396 15.2758 17.1962 16.6999 16.293 17.5519L16.292 17.5528C15.6894 18.1201 14.8571 18.2883 14.1162 18.0714C14.4089 18.8879 14.2138 19.8352 13.543 20.4679C12.9404 21.0359 12.107 21.2048 11.3652 20.9874C11.4508 21.2253 11.501 21.4808 11.501 21.7481C11.501 22.1068 11.4139 22.4444 11.2646 22.7452C11.6846 22.7477 12.1214 22.7482 12.5713 22.7481H12.5866C14.3521 22.7482 15.776 22.7482 16.8965 22.5968C18.0633 22.4391 19.0459 22.1008 19.8262 21.3165C20.6061 20.5323 20.9418 19.5448 21.0986 18.3722C21.2497 17.2426 21.25 15.8062 21.25 14.0245V10.5499C21.251 9.88665 21.2514 9.29769 21.0273 8.75401C20.8033 8.21051 20.3891 7.79445 19.9219 7.32628L15.1387 2.51866C14.7362 2.11306 14.3796 1.75391 13.9248 1.53526C13.8312 1.4903 13.7355 1.44984 13.6377 1.41514C13.1629 1.24671 12.6586 1.24739 12.0896 1.24815Z" fill="currentColor"/></svg>
