<svg xmlns="http://www.w3.org/2000/svg" viewBox="0 0 24 24" fill="none"><path d="M9.25 20.748C9.80228 20.748 10.25 21.1958 10.25 21.748C10.25 22.3003 9.80228 22.748 9.25 22.748C8.69772 22.748 8.25 22.3003 8.25 21.748C8.25 21.1958 8.69771 20.748 9.25 20.748Z" fill="currentColor"/><path d="M9.24927 16.623C10.6191 16.623 11.8486 17.214 12.7268 18.1455C13.1056 18.5474 13.0867 19.1797 12.6848 19.5586C12.283 19.9374 11.6506 19.9193 11.2717 19.5176C10.7424 18.9561 10.0274 18.623 9.24927 18.623C8.47118 18.623 7.75613 18.9561 7.22681 19.5176C6.84794 19.9193 6.21552 19.9374 5.81372 19.5586C5.41188 19.1797 5.39289 18.5474 5.77173 18.1455C6.64998 17.214 7.87947 16.623 9.24927 16.623ZM9.24927 12.498C11.693 12.498 13.8948 13.5505 15.4768 15.2285C15.8557 15.6304 15.8367 16.2637 15.4348 16.6426C15.033 17.0209 14.4004 17.0022 14.0217 16.6006C12.7886 15.2926 11.1013 14.498 9.24927 14.498C7.39724 14.498 5.70991 15.2926 4.47681 16.6006C4.09808 17.0022 3.46556 17.0209 3.06372 16.6426C2.66187 16.2637 2.64287 15.6304 3.02173 15.2285C4.60376 13.5505 6.80555 12.498 9.24927 12.498Z" fill="currentColor"/><path d="M12.0874 1.24815C12.6571 1.24739 13.1619 1.24654 13.6372 1.41514C13.735 1.44984 13.8308 1.4903 13.9243 1.53526C14.3791 1.75391 14.7358 2.11306 15.1382 2.51866L19.9214 7.32628C20.3886 7.79445 20.8028 8.21051 21.0269 8.75401C21.2509 9.29769 21.2505 9.88665 21.2495 10.5499V14.0245C21.2495 15.8062 21.2492 17.2426 21.0981 18.3722C20.9413 19.5448 20.6056 20.5323 19.8257 21.3165C19.0454 22.1008 18.0628 22.4391 16.896 22.5968C15.7722 22.7486 14.3434 22.7482 12.5708 22.7481C12.1209 22.7482 11.6841 22.7477 11.2642 22.7452C11.4135 22.4444 11.5005 22.1068 11.5005 21.7481C11.5005 21.4808 11.4503 21.2253 11.3647 20.9874C12.1066 21.2048 12.9399 21.0359 13.5425 20.4679C14.2133 19.8352 14.4084 18.8879 14.1157 18.0714C14.8566 18.2883 15.6889 18.1201 16.2915 17.5528L16.2925 17.5519C17.1957 16.6999 17.2391 15.2758 16.3862 14.3712C14.5863 12.4621 12.0631 11.2482 9.24951 11.2481C7.20767 11.2481 5.32004 11.8895 3.74951 12.9698V9.4503C3.74949 7.91694 3.74951 6.6801 3.86377 5.69639C3.98203 4.67866 4.23413 3.80621 4.82666 3.06749C5.04401 2.79657 5.28957 2.54963 5.55908 2.33116C6.29409 1.7355 7.16265 1.48223 8.17529 1.36338C9.15403 1.24856 10.5619 1.24813 12.0874 1.24815ZM12.9897 3.26866C12.9897 4.62995 12.9897 5.27785 13.106 6.14268C13.2269 7.04251 13.4859 7.80062 14.0874 8.40245C14.6893 9.00436 15.448 9.26385 16.3481 9.38487C17.2149 9.50138 17.8636 9.50208 19.231 9.50206C19.1741 9.36429 19.0685 9.23344 18.4507 8.61241L13.8462 3.9835C13.3133 3.44787 13.1714 3.31455 12.9897 3.25987V3.26866Z" fill="currentColor" fill-rule="evenodd" clip-rule="evenodd"/></svg>
