<svg xmlns="http://www.w3.org/2000/svg" viewBox="0 0 24 24" fill="none"><path opacity="0.4" d="M12 22.75C17.9371 22.75 22.75 17.9371 22.75 12C22.75 6.06294 17.9371 1.25 12 1.25C6.06294 1.25 1.25 6.06294 1.25 12C1.25 17.9371 6.06294 22.75 12 22.75Z" fill="currentColor"/><path d="M8.00004 7.25C8.87986 7.25 9.64423 7.70196 10.1133 8.36816C10.3518 8.70684 10.2704 9.17461 9.93168 9.41309C9.59301 9.65153 9.12523 9.57012 8.88676 9.23145C8.67176 8.92625 8.34688 8.75 8.00004 8.75C7.6532 8.75 7.32833 8.92625 7.11332 9.23145C6.87486 9.57012 6.40708 9.65153 6.0684 9.41309C5.72972 9.17461 5.64829 8.70684 5.88676 8.36816C6.35585 7.70196 7.12023 7.25 8.00004 7.25ZM16 7.25C16.8799 7.25 17.6442 7.70196 18.1133 8.36816C18.3518 8.70684 18.2704 9.17461 17.9317 9.41309C17.593 9.65153 17.1252 9.57012 16.8868 9.23145C16.6718 8.92625 16.3469 8.75 16 8.75C15.6532 8.75 15.3283 8.92625 15.1133 9.23145C14.8749 9.57012 14.4071 9.65153 14.0684 9.41309C13.7297 9.17461 13.6483 8.70684 13.8868 8.36816C14.3559 7.70196 15.1202 7.25 16 7.25Z" fill="currentColor"/><path d="M12 22.75C14.0711 22.75 15.75 21.0711 15.75 19V18.2031C16.9087 17.4755 17.75 16.3566 17.75 15C17.75 14.5858 17.4142 14.25 17 14.25L7 14.25C6.58579 14.25 6.25 14.5858 6.25 15C6.25 16.3566 7.09133 17.4755 8.25 18.2031V19C8.25 21.0711 9.92893 22.75 12 22.75ZM12 21.25C10.7574 21.25 9.75 20.2426 9.75 19V15.75H14.25V19C14.25 20.2426 13.2426 21.25 12 21.25Z" fill="currentColor"/></svg>
