<svg xmlns="http://www.w3.org/2000/svg" viewBox="0 0 24 24" fill="none"><path d="M14.2488 12.0001C14.2488 11.5859 13.9131 11.2501 13.4988 11.2501H12.7498V12.7501H13.4988C13.9131 12.7501 14.2488 12.4143 14.2488 12.0001Z" fill="currentColor"/><path d="M9.35626 4.25008C10.5775 4.25008 11.5453 4.25007 12.3211 4.32039C13.112 4.39211 13.7776 4.54202 14.3748 4.8868L14.6395 5.05086C15.2438 5.45479 15.7482 5.99318 16.1131 6.62508C16.2285 6.8249 16.3212 7.0328 16.3973 7.25008H21.9998C22.414 7.25008 22.7498 7.58587 22.7498 8.00008V16.0001C22.7498 16.199 22.6707 16.3897 22.5301 16.5304C22.3894 16.671 22.1987 16.7501 21.9998 16.7501H16.3973C16.3212 16.9674 16.2285 17.1753 16.1131 17.3751C15.6962 18.0971 15.0968 18.6965 14.3748 19.1134C13.7776 19.4581 13.112 19.608 12.3211 19.6798C11.5453 19.7501 10.5775 19.7501 9.35626 19.7501H8.9588C8.52131 19.7501 8.15531 19.7501 7.85431 19.7296C7.53726 19.7079 7.23743 19.6614 6.94708 19.5411C6.2734 19.262 5.73791 18.7265 5.4588 18.0528C5.33853 17.7625 5.29196 17.4626 5.27032 17.1456C5.26252 17.0313 5.26042 16.9069 5.25763 16.7735L5.25665 16.7501H1.99982C1.5856 16.7501 1.24982 16.4143 1.24982 16.0001V8.00008C1.24982 7.58587 1.5856 7.25008 1.99982 7.25008H5.25665C5.25965 7.10751 5.26206 6.97569 5.27032 6.85457C5.29196 6.53752 5.33853 6.23769 5.4588 5.94734C5.73791 5.27366 6.2734 4.73817 6.94708 4.45906C7.23743 4.33879 7.53726 4.29222 7.85431 4.27059C8.15531 4.25005 8.52131 4.25006 8.9588 4.25008H9.35626ZM9.00079 5.75008C8.52476 5.75008 8.20525 5.75079 7.95782 5.76766C7.71711 5.78408 7.59943 5.81285 7.52228 5.8448C7.21599 5.97167 6.97239 6.21528 6.84552 6.52156C6.81356 6.59871 6.7848 6.71639 6.76837 6.95711C6.76247 7.04373 6.76016 7.13922 6.75763 7.24715V7.25008H9.00079C9.6867 7.25008 10.2768 7.2484 10.7469 7.3116C11.2384 7.37772 11.7094 7.52707 12.0916 7.90926C12.4738 8.29144 12.6232 8.76243 12.6893 9.25398C12.7509 9.71217 12.7508 10.2845 12.7508 10.9483V11.2501H8.99982C8.5856 11.2501 8.24982 11.5859 8.24982 12.0001C8.24982 12.4143 8.5856 12.7501 8.99982 12.7501H12.7508V13.0518C12.7508 13.7157 12.7509 14.288 12.6893 14.7462C12.6232 15.2377 12.4738 15.7087 12.0916 16.0909C11.7094 16.4731 11.2384 16.6224 10.7469 16.6886C10.2887 16.7502 9.7164 16.7501 9.05255 16.7501H6.75763V16.753C6.76016 16.8609 6.76247 16.9564 6.76837 17.043C6.7848 17.2838 6.81356 17.4014 6.84552 17.4786C6.97239 17.7849 7.21599 18.0285 7.52228 18.1554C7.59943 18.1873 7.71711 18.2161 7.95782 18.2325C8.20525 18.2494 8.52476 18.2501 9.00079 18.2501H9.3338C10.5938 18.2501 11.4889 18.2498 12.1863 18.1866C12.8734 18.1243 13.2949 18.0056 13.6258 17.8145C14.1198 17.5293 14.53 17.1191 14.8152 16.6251C15.0063 16.2942 15.125 15.8727 15.1873 15.1856C15.2505 14.4882 15.2508 13.593 15.2508 12.3331V11.6671L15.243 10.0294C15.2349 9.56114 15.2189 9.16315 15.1873 8.81453C15.125 8.12745 15.0063 7.706 14.8152 7.37508C14.5657 6.94284 14.2208 6.57429 13.8074 6.29793L13.6258 6.18562C13.2949 5.99456 12.8734 5.87583 12.1863 5.81355C11.4889 5.75035 10.5938 5.75008 9.3338 5.75008H9.00079ZM4.00177 11.0001C3.44948 11.0001 3.00177 11.4478 3.00177 12.0001C3.00177 12.5524 3.44949 13.0001 4.00177 13.0001C4.55405 13.0001 5.00177 12.5524 5.00177 12.0001C5.00177 11.4478 4.55405 11.0001 4.00177 11.0001ZM20.0018 11.0001C19.4495 11.0001 19.0018 11.4478 19.0018 12.0001C19.0018 12.5524 19.4495 13.0001 20.0018 13.0001C20.5541 13.0001 21.0018 12.5524 21.0018 12.0001C21.0018 11.4478 20.5541 11.0001 20.0018 11.0001Z" fill="currentColor" fill-rule="evenodd" clip-rule="evenodd"/></svg>
