<svg xmlns="http://www.w3.org/2000/svg" viewBox="0 0 24 24" fill="none"><path opacity="0.4" d="M14.17 22.1006C16.8468 20.7234 21.75 17.3739 21.7501 11.2373V7.74805C21.7501 6.40064 21.7721 5.46059 21.1886 4.51855C20.6145 3.59166 19.9636 3.2822 19.0431 2.82422C17.0401 1.82765 14.6091 1.25 12.0001 1.25C9.39116 1.25 6.96011 1.82764 4.95714 2.82422C4.03666 3.2822 3.38574 3.59166 2.81163 4.51855C2.22814 5.46059 2.25011 6.40064 2.25011 7.74805V11.2373C2.25024 17.3739 7.15346 20.7234 9.83019 22.1006L9.86688 22.1195C10.5847 22.4889 11.092 22.75 12.0001 22.75C12.9082 22.75 13.4156 22.4889 14.1334 22.1195L14.17 22.1006Z" fill="currentColor"/><path d="M11.0001 13C11.0001 12.2754 11.3221 11.6896 11.6808 11.2578C12.0356 10.8308 12.477 10.4917 12.8468 10.2383C13.2433 9.96628 13.5001 9.51304 13.5001 9C13.5001 8.17158 12.8285 7.5 12.0001 7.5C11.1717 7.5 10.5001 8.17158 10.5001 9C10.5001 9.55228 10.0524 10 9.50012 10C8.94784 10 8.50012 9.55228 8.50012 9C8.50012 7.067 10.0671 5.5 12.0001 5.5C13.9331 5.5 15.5001 7.067 15.5001 9C15.5001 10.2006 14.8943 11.2598 13.9767 11.8887C13.6634 12.1035 13.399 12.3193 13.2189 12.5361C13.0427 12.7483 13.0001 12.8962 13.0001 13C13.0001 13.5523 12.5524 14 12.0001 14C11.4478 14 11.0001 13.5523 11.0001 13Z" fill="currentColor"/><path d="M12.0001 15.25C12.5524 15.25 13.0001 15.6977 13.0001 16.25C13.0001 16.8023 12.5524 17.25 12.0001 17.25C11.4478 17.25 11.0001 16.8023 11.0001 16.25C11.0001 15.6977 11.4478 15.25 12.0001 15.25Z" fill="currentColor"/></svg>
