<svg xmlns="http://www.w3.org/2000/svg" viewBox="0 0 24 24" fill="none"><path d="M12.0001 1.25C14.609 1.25 17.0401 1.82767 19.0431 2.82422C19.9635 3.28219 20.6145 3.5917 21.1886 4.51855C21.7721 5.46059 21.7501 6.40064 21.7501 7.74805V11.2373C21.75 17.3739 16.8468 20.7234 14.17 22.1006L14.1339 22.1191C13.4161 22.4886 12.9082 22.75 12.0001 22.75C11.0921 22.75 10.585 22.4885 9.86729 22.1191L9.83019 22.1006C7.15344 20.7234 2.25024 17.3738 2.25011 11.2373V7.74805C2.25011 6.40066 2.22817 5.46057 2.81163 4.51855C3.38572 3.59169 4.03671 3.28217 4.95714 2.82422C6.96008 1.82766 9.3912 1.25002 12.0001 1.25ZM12.0001 15.25C11.4479 15.2501 11.0001 15.6978 11.0001 16.25C11.0001 16.8022 11.4479 17.2499 12.0001 17.25C12.5524 17.25 13.0001 16.8023 13.0001 16.25C13.0001 15.6977 12.5524 15.25 12.0001 15.25ZM12.0001 5.5C10.0672 5.50007 8.50011 7.06704 8.50011 9C8.50011 9.55224 8.94788 9.99993 9.50011 10C10.0524 10 10.5001 9.55228 10.5001 9C10.5001 8.17162 11.1717 7.50007 12.0001 7.5C12.8285 7.5 13.5001 8.17158 13.5001 9C13.5001 9.51305 13.2433 9.96628 12.8468 10.2383C12.477 10.4917 12.0355 10.8308 11.6808 11.2578C11.3221 11.6896 11.0001 12.2754 11.0001 13C11.0001 13.5522 11.4479 13.9999 12.0001 14C12.5524 14 13.0001 13.5523 13.0001 13C13.0001 12.8962 13.0427 12.7482 13.2189 12.5361C13.3989 12.3193 13.6634 12.1034 13.9767 11.8887C14.8943 11.2598 15.5001 10.2006 15.5001 9C15.5001 7.067 13.9331 5.5 12.0001 5.5Z" fill="currentColor" fill-rule="evenodd" clip-rule="evenodd"/></svg>
