<svg xmlns="http://www.w3.org/2000/svg" viewBox="0 0 24 24" fill="none"><path d="M8.1 1.25C8.63848 1.25 9.075 1.68754 9.075 2.22727V3.21284C9.6529 3.20453 10.2784 3.20453 10.9537 3.20454H13.0463C13.7216 3.20453 14.3471 3.20453 14.925 3.21284V2.22727C14.925 1.68754 15.3615 1.25 15.9 1.25C16.4385 1.25 16.875 1.68754 16.875 2.22727V3.29947C17.0513 3.31556 17.221 3.33437 17.3843 3.35638C18.5544 3.51407 19.5397 3.85141 20.3221 4.63573C21.1046 5.42004 21.4412 6.40758 21.5985 7.58045C21.75 8.71014 21.75 10.1465 21.75 11.9285V14.026C21.75 15.808 21.75 17.2444 21.5985 18.3741C21.4412 19.547 21.1046 20.5345 20.3221 21.3188C19.5397 22.1031 18.5544 22.4405 17.3843 22.5982C16.2572 22.75 14.8242 22.75 13.0463 22.75H10.9537C9.17581 22.75 7.74279 22.75 6.61573 22.5982C5.44558 22.4405 4.46035 22.1031 3.67786 21.3188C2.89537 20.5345 2.5588 19.547 2.40148 18.3741C2.24995 17.2444 2.24998 15.8081 2.25 14.0261V11.9285C2.24998 10.1465 2.24995 8.71012 2.40148 7.58045C2.5588 6.40758 2.89537 5.42004 3.67786 4.63573C4.46035 3.85141 5.44558 3.51407 6.61573 3.35638C6.77902 3.33437 6.94874 3.31556 7.125 3.29947V2.22727C7.125 1.68754 7.56152 1.25 8.1 1.25ZM4.21386 9.75C4.20045 10.3958 4.20001 11.1378 4.20001 12V13.9545C4.20001 15.8249 4.20208 17.1294 4.3341 18.1137C4.46235 19.0698 4.69693 19.5761 5.05673 19.9367C5.41652 20.2974 5.92166 20.5325 6.87557 20.6611C7.85752 20.7934 9.15897 20.7955 11.025 20.7955H12.975C14.8411 20.7955 16.1425 20.7934 17.1245 20.6611C18.0784 20.5325 18.5835 20.2974 18.9433 19.9367C19.3031 19.5761 19.5377 19.0698 19.6659 18.1137C19.7979 17.1294 19.8 15.8249 19.8 13.9545V12C19.8 11.1378 19.7996 10.3958 19.7862 9.75H4.21386Z" fill="currentColor" fill-rule="evenodd" clip-rule="evenodd"/><path d="M15.2929 12.5657C15.6834 12.1752 16.3164 12.1752 16.707 12.5657C17.0975 12.9562 17.0975 13.5893 16.707 13.9798L14.707 15.9798C14.4914 16.1953 14.2188 16.4866 13.8876 16.6507C13.3282 16.9278 12.6716 16.9278 12.1122 16.6507C11.7811 16.4866 11.5084 16.1953 11.2929 15.9798C11.1486 15.8355 11.0692 15.7565 11.0087 15.7024C11.0056 15.6996 11.0027 15.697 10.9999 15.6946C10.9972 15.697 10.9943 15.6996 10.9911 15.7024C10.9306 15.7565 10.8513 15.8355 10.707 15.9798L8.70696 17.9798C8.31643 18.3703 7.68342 18.3703 7.29289 17.9798C6.90237 17.5893 6.90237 16.9562 7.29289 16.5657L9.29289 14.5657C9.50843 14.3502 9.78107 14.0589 10.1122 13.8948C10.6716 13.6177 11.3282 13.6177 11.8876 13.8948C12.2188 14.0589 12.4914 14.3502 12.707 14.5657C12.8513 14.71 12.9306 14.789 12.9911 14.8431C12.9941 14.8457 12.9973 14.8476 12.9999 14.8499C13.0025 14.8476 13.0058 14.8457 13.0087 14.8431C13.0692 14.789 13.1486 14.71 13.2929 14.5657L15.2929 12.5657Z" fill="currentColor"/></svg>
