<svg xmlns="http://www.w3.org/2000/svg" viewBox="0 0 24 24" fill="none"><path opacity="0.4" d="M22.25 12.5416V12.5V11.5V11.4584C22.25 9.37807 22.25 7.74041 22.0781 6.46191C21.9022 5.15356 21.5334 4.10957 20.7119 3.28809C19.8904 2.4666 18.8464 2.09783 17.5381 1.92188C16.2596 1.74999 14.6219 1.74999 12.5416 1.75H12.5H11.5H11.4584C9.37806 1.74999 7.74041 1.74999 6.46191 1.92188C5.15356 2.09783 4.10957 2.4666 3.28809 3.28809C2.4666 4.10957 2.09783 5.15356 1.92188 6.46191C1.74999 7.74041 1.74999 9.37806 1.75 11.4584V11.5V12.5V12.5416C1.74999 14.6219 1.74999 16.2596 1.92188 17.5381C2.09783 18.8464 2.4666 19.8904 3.28809 20.7119C4.10957 21.5334 5.15356 21.9022 6.46191 22.0781C7.74041 22.25 9.37807 22.25 11.4584 22.25H11.5H12.5H12.5416C14.6219 22.25 16.2596 22.25 17.5381 22.0781C18.8464 21.9022 19.8904 21.5334 20.7119 20.7119C21.5334 19.8904 21.9022 18.8464 22.0781 17.5381C22.25 16.2596 22.25 14.6219 22.25 12.5416Z" fill="currentColor"/><path d="M18.25 11.5V10.5C18.25 10.0858 18.5858 9.75 19 9.75C19.4142 9.75 19.75 10.0858 19.75 10.5V11.5C19.75 13.5711 18.0711 15.25 16 15.25C15.5858 15.25 15.25 14.9142 15.25 14.5C15.25 14.0858 15.5858 13.75 16 13.75C17.2426 13.75 18.25 12.7426 18.25 11.5Z" fill="currentColor"/><path d="M10.25 12.5V8.5C10.25 8.08579 10.5858 7.75 11 7.75C11.4142 7.75 11.75 8.08579 11.75 8.5V12.5C11.75 12.6381 11.8619 12.75 12 12.75H13C13.1381 12.75 13.25 12.6381 13.25 12.5C13.25 12.0858 13.5858 11.75 14 11.75C14.4142 11.75 14.75 12.0858 14.75 12.5C14.75 13.4665 13.9665 14.25 13 14.25H12C11.0335 14.25 10.25 13.4665 10.25 12.5Z" fill="currentColor"/><path d="M4.25 12.5C4.25 12.0858 4.58579 11.75 5 11.75C5.41421 11.75 5.75 12.0858 5.75 12.5C5.75 12.6381 5.86193 12.75 6 12.75H7C7.13807 12.75 7.25 12.6381 7.25 12.5V8.5C7.25 8.08579 7.58579 7.75 8 7.75C8.41421 7.75 8.75 8.08579 8.75 8.5V12.5C8.75 13.4665 7.9665 14.25 7 14.25H6C5.0335 14.25 4.25 13.4665 4.25 12.5Z" fill="currentColor"/><path d="M11.0996 15.25C11.5689 15.25 11.95 15.6303 11.9502 16.0996C11.9502 16.5691 11.569 16.9502 11.0996 16.9502C10.6303 16.95 10.25 16.5689 10.25 16.0996C10.2502 15.6305 10.6305 15.2502 11.0996 15.25ZM13.8984 15.25C14.3677 15.25 14.7478 15.6303 14.748 16.0996C14.748 16.5691 14.3679 16.9502 13.8984 16.9502C13.4582 16.9502 13.0961 16.6153 13.0527 16.1865L13.0488 16.0996L13.0527 16.0127C13.0964 15.5843 13.4585 15.25 13.8984 15.25Z" fill="currentColor"/></svg>
