<svg xmlns="http://www.w3.org/2000/svg" viewBox="0 0 24 24" fill="none"><path opacity="0.4" d="M14.2945 2.33008C13.6986 2.24996 12.9472 2.24998 12.0464 2.25H11.9527C11.0519 2.24998 10.3006 2.24996 9.70465 2.33008C9.07704 2.41451 8.5106 2.60031 8.05524 3.05566C7.59988 3.51102 7.41409 4.07747 7.32965 4.70508C7.24953 5.30099 7.24955 6.05236 7.24957 6.95313V7.05078H12.1519C12.4833 7.05078 12.7515 7.31902 12.7515 7.65039C12.7515 7.98176 12.4833 8.25 12.1519 8.25H6.4566C5.78833 8.24998 5.23056 8.24997 4.77887 8.2959C4.30545 8.34406 3.86624 8.44934 3.47028 8.71387C3.17 8.9145 2.91212 9.17238 2.71149 9.47266C2.44696 9.86862 2.34168 10.3078 2.29352 10.7813C2.24759 11.2329 2.2476 11.7907 2.24762 12.459V12.541C2.2476 13.2093 2.24759 13.7671 2.29352 14.2188C2.34168 14.6922 2.44696 15.1314 2.71149 15.5273C2.91212 15.8276 3.17 16.0855 3.47028 16.2861C3.86624 16.5507 4.30545 16.6559 4.77887 16.7041C5.13622 16.7404 5.55997 16.7455 6.05231 16.7471V13.5C6.05231 12.3402 6.99212 11.4004 8.15192 11.4004H15.8511C16.3482 11.4004 16.7515 10.9971 16.7515 10.5V7.25H16.7496V6.95313C16.7496 6.05236 16.7496 5.30099 16.6695 4.70508C16.5851 4.07747 16.3993 3.51102 15.9439 3.05566C15.4886 2.60031 14.9221 2.41451 14.2945 2.33008Z" fill="currentColor"/><path d="M10.5015 3.5C9.94924 3.5 9.50153 3.94772 9.50153 4.5C9.50153 5.05228 9.94924 5.5 10.5015 5.5C11.0538 5.5 11.5015 5.05229 11.5015 4.5C11.5015 3.94772 11.0538 3.5 10.5015 3.5Z" fill="currentColor" fill-rule="evenodd" clip-rule="evenodd"/><path d="M17.9507 7.25195C18.4398 7.25358 18.8609 7.25975 19.2164 7.2959C19.6898 7.34406 20.129 7.44934 20.525 7.71387C20.8252 7.9145 21.0831 8.17238 21.2838 8.47266C21.5483 8.86862 21.6536 9.30783 21.7017 9.78125C21.7476 10.2329 21.7476 10.7907 21.7476 11.459V11.541C21.7476 12.2093 21.7476 12.7671 21.7017 13.2188C21.6536 13.6922 21.5483 14.1314 21.2838 14.5273C21.0831 14.8276 20.8252 15.0855 20.525 15.2861C20.129 15.5507 19.6898 15.6559 19.2164 15.7041C18.7647 15.75 18.2069 15.75 17.5386 15.75H11.8511C11.5198 15.75 11.2515 16.0182 11.2515 16.3496C11.2515 16.681 11.5198 16.9492 11.8511 16.9492H16.7496V17.0469C16.7496 17.9476 16.7496 18.699 16.6695 19.2949C16.5851 19.9225 16.3993 20.489 15.9439 20.9443C15.4885 21.3997 14.9221 21.5855 14.2945 21.6699C13.6986 21.75 12.9472 21.75 12.0464 21.75H11.9527C11.0519 21.75 10.3006 21.75 9.70465 21.6699C9.07704 21.5855 8.5106 21.3997 8.05524 20.9443C7.59988 20.489 7.41408 19.9225 7.32965 19.2949C7.27169 18.8638 7.25595 18.3513 7.25153 17.7598V13.5C7.25153 13.0029 7.65486 12.5996 8.15192 12.5996H15.8511C17.0109 12.5996 17.9507 11.6598 17.9507 10.5V7.25195ZM13.5015 18.5C12.9492 18.5 12.5015 18.9477 12.5015 19.5C12.5015 20.0523 12.9492 20.5 13.5015 20.5C14.0536 20.4997 14.5015 20.0521 14.5015 19.5C14.5015 18.9479 14.0536 18.5003 13.5015 18.5Z" fill="currentColor"/></svg>
