<svg xmlns="http://www.w3.org/2000/svg" viewBox="0 0 24 24" fill="none"><path d="M17.9512 7.25195C18.4402 7.25358 18.8613 7.25975 19.2168 7.2959C19.6902 7.34406 20.1294 7.44934 20.5254 7.71387C20.8257 7.9145 21.0835 8.17238 21.2842 8.47266C21.5487 8.86862 21.654 9.30783 21.7021 9.78125C21.7481 10.2329 21.7481 10.7907 21.748 11.459V11.541C21.7481 12.2093 21.7481 12.7671 21.7021 13.2188C21.654 13.6922 21.5487 14.1314 21.2842 14.5273C21.0835 14.8276 20.8257 15.0855 20.5254 15.2861C20.1294 15.5507 19.6902 15.6559 19.2168 15.7041C18.7651 15.75 18.2073 15.75 17.5391 15.75H11.8516C11.5202 15.75 11.252 16.0182 11.252 16.3496C11.252 16.681 11.5202 16.9492 11.8516 16.9492H16.75V17.0469C16.75 17.9476 16.75 18.699 16.6699 19.2949C16.5855 19.9225 16.3997 20.489 15.9443 20.9443C15.489 21.3997 14.9225 21.5855 14.2949 21.6699C13.699 21.75 12.9476 21.75 12.0469 21.75H11.9531C11.0524 21.75 10.301 21.75 9.70508 21.6699C9.07747 21.5855 8.51102 21.3997 8.05566 20.9443C7.60031 20.489 7.41451 19.9225 7.33008 19.2949C7.27212 18.8638 7.25637 18.3513 7.25195 17.7598V13.5C7.25195 13.0029 7.65529 12.5996 8.15234 12.5996H15.8516C17.0114 12.5996 17.9512 11.6598 17.9512 10.5V7.25195ZM13.502 18.5C12.9497 18.5 12.502 18.9477 12.502 19.5C12.502 20.0523 12.9497 20.5 13.502 20.5C14.054 20.4997 14.502 20.0521 14.502 19.5C14.502 18.9479 14.054 18.5003 13.502 18.5ZM12.0469 2.25C12.9476 2.24998 13.699 2.24996 14.2949 2.33008C14.9225 2.41451 15.489 2.60031 15.9443 3.05566C16.3997 3.51102 16.5855 4.07747 16.6699 4.70508C16.75 5.30099 16.75 6.05236 16.75 6.95312V7.25H16.752V10.5C16.752 10.9971 16.3486 11.4004 15.8516 11.4004H8.15234C6.99255 11.4004 6.05273 12.3402 6.05273 13.5V16.7471C5.5604 16.7455 5.13665 16.7404 4.7793 16.7041C4.30588 16.6559 3.86666 16.5507 3.4707 16.2861C3.17043 16.0855 2.91255 15.8276 2.71191 15.5273C2.44739 15.1314 2.3421 14.6922 2.29395 14.2188C2.24802 13.7671 2.24803 13.2093 2.24805 12.541V12.459C2.24803 11.7907 2.24802 11.2329 2.29395 10.7812C2.3421 10.3078 2.44739 9.86862 2.71191 9.47266C2.91255 9.17238 3.17043 8.9145 3.4707 8.71387C3.86666 8.44934 4.30588 8.34406 4.7793 8.2959C5.23098 8.24997 5.78875 8.24998 6.45703 8.25H12.1523C12.4837 8.25 12.752 7.98176 12.752 7.65039C12.752 7.31902 12.4837 7.05078 12.1523 7.05078H7.25V6.95312C7.24998 6.05236 7.24996 5.30099 7.33008 4.70508C7.41451 4.07747 7.60031 3.51102 8.05566 3.05566C8.51102 2.6003 9.07747 2.41451 9.70508 2.33008C10.301 2.24996 11.0524 2.24998 11.9531 2.25H12.0469ZM10.502 3.5C9.94967 3.5 9.50195 3.94772 9.50195 4.5C9.50195 5.05228 9.94967 5.5 10.502 5.5C11.0542 5.5 11.502 5.05229 11.502 4.5C11.502 3.94772 11.0542 3.5 10.502 3.5Z" fill="currentColor"/></svg>
