<svg xmlns="http://www.w3.org/2000/svg" viewBox="0 0 24 24" fill="none"><path opacity="0.4" d="M20.7296 21.2726C20.7525 21.1243 20.7501 20.9149 20.7501 20.6984V3.66717C20.7501 3.39377 20.7499 3.16428 20.7423 2.98455C20.7351 2.81755 20.7197 2.61245 20.6534 2.42205C20.3301 1.49343 19.3134 1.03145 18.4141 1.35076L18.2364 1.42498C18.0556 1.51224 17.8996 1.64587 17.7755 1.75896C17.6421 1.88048 17.4783 2.04216 17.2833 2.23553C17.1956 2.32241 17.1439 2.37324 17.1036 2.41033C17.0814 2.43074 17.0701 2.44094 17.0655 2.44451C16.9898 2.49361 16.892 2.49904 16.8106 2.45818C16.8059 2.45527 16.7932 2.44697 16.7686 2.42889C16.7245 2.39642 16.6671 2.35127 16.5704 2.27459L16.3985 2.13787C15.9763 1.80303 15.6178 1.50512 15.2022 1.36932C14.746 1.22031 14.2541 1.22031 13.7979 1.36932C13.3823 1.50512 13.0238 1.80303 12.6016 2.13787L12.5343 2.19158C12.3472 2.33991 12.2375 2.42596 12.1514 2.48455C12.1015 2.51853 12.0769 2.53162 12.0684 2.53533C12.0239 2.54752 11.9763 2.54752 11.9317 2.53533C11.9233 2.53162 11.8986 2.51853 11.8487 2.48455C11.7626 2.42596 11.6529 2.33991 11.4659 2.19158L11.3985 2.13787C10.9763 1.80303 10.6178 1.50512 10.2022 1.36932C9.74604 1.22031 9.2541 1.22031 8.79792 1.36932C8.38231 1.50512 8.02381 1.80303 7.60164 2.13787L7.42976 2.27459C7.33308 2.35127 7.27568 2.39642 7.23152 2.42889C7.2069 2.44697 7.19426 2.45527 7.18953 2.45818C7.10816 2.49904 7.01032 2.49361 6.93464 2.44451C6.93009 2.44094 6.91871 2.43074 6.89656 2.41033C6.85629 2.37324 6.80451 2.32241 6.71687 2.23553C6.52183 2.04216 6.35809 1.88048 6.22468 1.75896C6.1005 1.64587 5.94452 1.51224 5.76375 1.42498C4.8839 1.00039 3.83213 1.37756 3.42 2.24236L3.34675 2.42205C3.28048 2.61245 3.26503 2.81755 3.25789 2.98455C3.2502 3.16428 3.25007 3.39377 3.25007 3.66717V20.6984C3.25007 20.9149 3.24767 21.1243 3.27058 21.2726C3.47176 22.5716 4.98088 23.1789 6.03328 22.4133C6.15435 22.3251 6.30134 22.1761 6.45613 22.0226C6.58304 21.8968 6.61051 21.8704 6.63093 21.8537L6.73054 21.7844C6.97413 21.6432 7.28329 21.6474 7.52546 21.8049C7.5477 21.8193 7.57834 21.8427 7.71785 21.9533L7.85457 22.0617C8.06146 22.2258 8.23692 22.3686 8.4239 22.4699C9.09475 22.8331 9.90539 22.8331 10.5762 22.4699C10.7632 22.3686 10.9387 22.2258 11.1456 22.0617L11.2159 22.006C11.543 21.7466 11.614 21.6958 11.6719 21.6681C11.879 21.5692 12.1212 21.5692 12.3282 21.6681C12.3861 21.6958 12.4572 21.7466 12.7843 22.006L12.8546 22.0617C13.0615 22.2258 13.2369 22.3686 13.4239 22.4699C14.0948 22.8331 14.9054 22.8331 15.5762 22.4699C15.7632 22.3686 15.9387 22.2258 16.1456 22.0617L16.2823 21.9533C16.4218 21.8427 16.4524 21.8193 16.4747 21.8049C16.7513 21.625 17.1151 21.6454 17.3692 21.8537C17.3896 21.8704 17.4171 21.8968 17.544 22.0226C17.6988 22.1761 17.8458 22.3251 17.9669 22.4133C19.0193 23.1789 20.5284 22.5716 20.7296 21.2726Z" fill="currentColor"/><path d="M8.75012 13.3945V12.75H8.00012C7.58591 12.75 7.25012 12.4142 7.25012 12C7.25012 11.5858 7.58591 11.25 8.00012 11.25H8.75012V10.6055C8.75017 8.75231 10.2524 7.25004 12.1056 7.25C12.7677 7.25 13.3841 7.40375 13.921 7.73926C14.4572 8.07435 14.8703 8.56355 15.171 9.16504C15.356 9.53545 15.2054 9.98572 14.8351 10.1709C14.4647 10.3558 14.0144 10.2053 13.8292 9.83496C13.6301 9.43677 13.3899 9.17559 13.1261 9.01074C12.8629 8.84628 12.5315 8.75 12.1056 8.75C11.0809 8.75004 10.2502 9.58074 10.2501 10.6055V11.25H12.1056C12.5198 11.25 12.8556 11.5858 12.8556 12C12.8556 12.4142 12.5198 12.75 12.1056 12.75H10.2501V13.3945C10.2502 14.4193 11.0809 15.25 12.1056 15.25C12.5315 15.25 12.8629 15.1537 13.1261 14.9893C13.3899 14.8244 13.6301 14.5632 13.8292 14.165C14.0144 13.7947 14.4647 13.6442 14.8351 13.8291C15.2054 14.0143 15.356 14.4646 15.171 14.835C14.8703 15.4364 14.4572 15.9256 13.921 16.2607C13.3841 16.5963 12.7677 16.75 12.1056 16.75C10.2524 16.75 8.75017 15.2477 8.75012 13.3945Z" fill="currentColor"/></svg>
