<svg xmlns="http://www.w3.org/2000/svg" fill="none" viewBox="0 0 48 48">
  <g>
    <path fill="currentColor" fill-opacity="0.4" fill-rule="evenodd" d="M24 0.5c6.9111 0 11.8024 0.279817 14.934 0.55356 3.2949 0.288 5.7859 2.86181 6.0331 6.13576C45.2244 10.5969 45.5 16.0926 45.5 24c0 7.9074 -0.2756 13.4031 -0.5329 16.8107 -0.2472 3.2739 -2.7382 5.8477 -6.0331 6.1358 -3.1316 0.2737 -8.0229 0.5535 -14.934 0.5535 -6.9111 0 -11.8024 -0.2798 -14.93401 -0.5536 -3.29486 -0.288 -5.78592 -2.8618 -6.03311 -6.1357C2.77561 37.4031 2.5 31.9074 2.5 24c0 -7.9074 0.27561 -13.4031 0.53289 -16.81069 0.24718 -3.27395 2.73824 -5.84775 6.0331 -6.13576C12.1976 0.779813 17.0889 0.5 24 0.5Z" clip-rule="evenodd" stroke-width="3.429"></path>
    <path fill="currentColor" fill-rule="evenodd" d="M25.5 47.495c6.1248 -0.0368 10.534 -0.2955 13.434 -0.549 0.1915 -0.0168 0.3802 -0.0412 0.566 -0.0731V31.2618c0 -5.5606 -0.162 -9.5109 -0.322 -12.0562 -0.178 -2.8331 -2.3028 -5.1113 -5.1861 -5.3528 -1.943 -0.1627 -4.7211 -0.3145 -8.4919 -0.3469V47.495Zm-3 -33.9891V47.495c-6.1248 -0.0368 -10.534 -0.2955 -13.43401 -0.549 -0.19147 -0.0168 -0.38023 -0.0412 -0.56599 -0.0731V31.2618c0 -5.5606 0.162 -9.5109 0.32197 -12.0562 0.17805 -2.8331 2.30273 -5.1113 5.18613 -5.3528 1.943 -0.1627 4.7211 -0.3145 8.4919 -0.3469Z" clip-rule="evenodd" stroke-width="3.429"></path>
    <path fill="currentColor" fill-rule="evenodd" d="M19.2556 4.92432c-0.7068 -0.65972 -1.7971 -0.65939 -2.5037 0.00026 -1.1037 1.03029 -1.9196 2.06182 -2.4489 2.81509 -0.606 0.86226 -0.0756 1.98396 0.9516 2.10345 0.7082 0.08238 1.6558 0.15798 2.7462 0.15718 1.0922 -0.0008 2.0412 -0.07806 2.7499 -0.16164 1.0255 -0.12095 1.5549 -1.24115 0.9499 -2.10275 -0.5282 -0.75237 -1.3427 -1.78276 -2.445 -2.81159Zm12 4.65136c-0.7068 0.65972 -1.7971 0.65942 -2.5037 -0.00026 -1.1037 -1.03029 -1.9196 -2.06182 -2.4489 -2.81509 -0.606 -0.86226 -0.0756 -1.98396 0.9516 -2.10345 0.7082 -0.08238 1.6558 -0.15799 2.7462 -0.15718 1.0922 0.0008 2.0412 0.07806 2.7499 0.16164 1.0255 0.12095 1.5549 1.24115 0.9499 2.10275 -0.5282 0.75237 -1.3427 1.78276 -2.445 2.81159Z" clip-rule="evenodd" stroke-width="3.429"></path>
  </g>
</svg>
