<svg xmlns="http://www.w3.org/2000/svg" fill="none" viewBox="0 0 48 48">
  <g>
    <path stroke="currentColor" stroke-linecap="round" stroke-linejoin="round" d="M32 7.50382s-0.7013 1.04921 -1.8091 2.27125c-0.3709 0.40913 -1.0076 0.40963 -1.3788 0.00066C27.7016 8.55242 27 7.5 27 7.5" stroke-width="3.429"></path>
    <path stroke="currentColor" stroke-linecap="round" stroke-linejoin="round" d="M16 9.99634s0.7013 -1.04921 1.8091 -2.27125c0.3709 -0.40918 1.0076 -0.40959 1.3788 -0.00066C20.2984 8.94774 21 10.0002 21 10.0002" stroke-width="3.429"></path>
    <path stroke="currentColor" stroke-linecap="round" stroke-linejoin="round" d="m11 45 0 -13.7377c0 -5.5316 0.1612 -9.4504 0.319 -11.9622 0.1331 -2.1181 1.6963 -3.7812 3.8106 -3.9651C17.139 15.1603 20.0569 15 24 15c3.943 0 6.861 0.1603 8.8704 0.335 2.1143 0.1839 3.6775 1.847 3.8106 3.9652 0.1578 2.5117 0.319 6.4305 0.319 11.9621V45" stroke-width="3.429"></path>
    <path stroke="currentColor" stroke-linecap="round" stroke-linejoin="round" d="M24 15v31" stroke-width="3.429"></path>
    <path stroke="currentColor" stroke-linecap="round" stroke-linejoin="round" d="M43.4714 7.30225c-0.1928 -2.55338 -2.1171 -4.53141 -4.668 -4.75439C35.7183 2.27819 30.8707 2 24 2s-11.7183 0.27818 -14.80338 0.54785c-2.55092 0.22298 -4.47521 2.20102 -4.66799 4.75439C4.27441 10.6694 4 16.1273 4 24c0 7.8727 0.2744 13.3306 0.52863 16.6978 0.19278 2.5533 2.11706 4.5314 4.66798 4.7543C12.2817 45.7218 17.1292 46 24 46c6.8707 0 11.7183 -0.2782 14.8034 -0.5478 2.5509 -0.223 4.4752 -2.2011 4.668 -4.7544C43.7256 37.3306 44 31.8727 44 24s-0.2744 -13.3306 -0.5286 -16.69775Z" stroke-width="3.429"></path>
  </g>
</svg>
