<svg xmlns="http://www.w3.org/2000/svg" fill="none" viewBox="0 0 48 48">
  <g>
    <path fill="currentColor" fill-rule="evenodd" d="M9.7618 1.53062C12.7549 1.26773 17.4187 1 24 1c6.5813 0 11.2451 0.26774 14.2382 0.53062 3.4222 0.30057 5.9992 2.98972 6.254 6.38076C44.7377 11.1791 45 16.4391 45 24c0 7.5609 -0.2623 12.8209 -0.5078 16.0886 -0.2548 3.3911 -2.8319 6.0802 -6.254 6.3808C35.2451 46.7323 30.5813 47 24 47c-6.5813 0 -11.2451 -0.2677 -14.23821 -0.5306 -3.42214 -0.3006 -5.99917 -2.9897 -6.25397 -6.3808C3.26228 36.8209 3 31.5609 3 24s0.26228 -12.8209 0.50782 -16.08863c0.25481 -3.39104 2.83184 -6.08019 6.25398 -6.38075ZM24 5c-6.4731 0 -11.0198 0.26334 -13.8882 0.51528 -1.42464 0.12512 -2.50374 1.21222 -2.61522 2.69581C7.2591 11.3716 7 16.5313 7 24s0.25909 12.6284 0.49657 15.7889c0.11148 1.4836 1.19059 2.5707 2.61523 2.6958 0.28 0.0246 0.576 0.0493 0.8882 0.0739v-11.661c0 -4.6637 0.1359 -7.9768 0.27 -10.1117 0.1494 -2.3761 1.9314 -4.2868 4.3497 -4.4894 1.5877 -0.1329 3.8405 -0.2572 6.8803 -0.2887v26.9874c0.488 0.0032 0.988 0.0048 1.5 0.0048s1.012 -0.0016 1.5 -0.0048V16.0078c3.0398 0.0315 5.2926 0.1558 6.8803 0.2887 2.4183 0.2026 4.2003 2.1133 4.3497 4.4894 0.1341 2.1349 0.27 5.448 0.27 10.1117v11.661c0.3122 -0.0246 0.6082 -0.0493 0.8882 -0.0739 1.4246 -0.1251 2.5037 -1.2122 2.6152 -2.6958C40.7409 36.6284 41 31.4687 41 24s-0.2591 -12.6284 -0.4966 -15.7889c-0.1115 -1.48359 -1.1906 -2.57069 -2.6152 -2.69582C35.0198 5.26335 30.4731 5 24 5Zm-3.4831 3.45621c-0.9502 -1.0468 -2.5893 -1.04522 -3.5381 0.00138 -0.704 0.77658 -1.2459 1.48324 -1.5571 1.90931 -0.8673 1.1876 0.0256 2.7654 1.4078 2.7665l3.8378 0.0029c1.3825 0.0011 2.2781 -1.5764 1.4111 -2.7653 -0.3117 -0.42739 -0.8549 -1.13644 -1.5615 -1.91479Zm6.8151 -0.70585c-1.3825 -0.00106 -2.2781 1.57642 -1.4111 2.76534 0.3117 0.4274 0.8549 1.1364 1.5614 1.9148 0.9503 1.0468 2.5894 1.0452 3.5382 -0.0014 0.704 -0.7766 1.2459 -1.4832 1.557 -1.9093 0.8674 -1.18764 -0.0256 -2.76545 -1.4077 -2.76651l-3.8378 -0.00293Z" clip-rule="evenodd" stroke-width="1"></path>
  </g>
</svg>
