<svg xmlns="http://www.w3.org/2000/svg" fill="none" viewBox="0 0 48 48">
  <g>
    <path fill="currentColor" fill-rule="evenodd" d="M38.934 1.05356C35.8024 0.779817 30.9111 0.5 24 0.5c-6.9111 0 -11.8024 0.279813 -14.93401 0.55355 -3.29486 0.28801 -5.78592 2.86181 -6.0331 6.13576C2.77561 10.5969 2.5 16.0926 2.5 24c0 7.9074 0.27561 13.4031 0.53288 16.8107 0.23282 3.0837 2.4563 5.5462 5.46712 6.0627V31.2623c0 -5.5606 0.162 -9.5109 0.32197 -12.0562 0.17805 -2.8331 2.30273 -5.1113 5.18613 -5.3528C16.2002 13.6697 19.4555 13.5 24 13.5c4.5445 0 7.7998 0.1697 9.9919 0.3533 2.8834 0.2415 5.0081 2.5197 5.1861 5.3528 0.16 2.5453 0.322 6.4956 0.322 12.0562v15.6111c3.0108 -0.5165 5.2343 -2.979 5.4671 -6.0627 0.2573 -3.4076 0.5329 -8.9033 0.5329 -16.8107 0 -7.9074 -0.2756 -13.4031 -0.5329 -16.81068 -0.2472 -3.27395 -2.7382 -5.84776 -6.0331 -6.13576ZM36.5 47.1322V31.2623c0 -5.5025 -0.1603 -9.3899 -0.3161 -11.8681 -0.0882 -1.4031 -1.096 -2.4386 -2.4424 -2.5513 -1.8569 -0.1555 -4.5515 -0.3041 -8.2415 -0.3364v30.989c4.6088 -0.0277 8.2461 -0.1811 11 -0.3633Zm-14 0.3633v-30.989c-3.69 0.0323 -6.3846 0.1808 -8.2415 0.3364 -1.3464 0.1127 -2.3543 1.1482 -2.4424 2.5513 -0.1558 2.4782 -0.3161 6.3656 -0.3161 11.8681v12.4344l0 3.2126v0.2229c2.7539 0.1822 6.3912 0.3356 11 0.3633ZM19.2556 4.92432c-0.7068 -0.65972 -1.7971 -0.65939 -2.5037 0.00026 -1.1037 1.03029 -1.9196 2.06182 -2.4489 2.81509 -0.606 0.86226 -0.0756 1.98396 0.9516 2.10345 0.7082 0.08238 1.6558 0.15798 2.7462 0.15718 1.0922 -0.0008 2.0412 -0.07805 2.7498 -0.16164 1.0256 -0.12095 1.555 -1.24115 0.95 -2.10275 -0.5282 -0.75237 -1.3427 -1.78276 -2.445 -2.81159Zm12 4.65136c-0.7068 0.65972 -1.7971 0.65942 -2.5037 -0.00026 -1.1037 -1.03029 -1.9196 -2.06182 -2.4489 -2.81509 -0.606 -0.86226 -0.0756 -1.98396 0.9516 -2.10345 0.7082 -0.08238 1.6558 -0.15799 2.7462 -0.15718 1.0922 0.0008 2.0412 0.07806 2.7498 0.16164 1.0256 0.12095 1.555 1.24115 0.95 2.10275 -0.5282 0.75237 -1.3427 1.78276 -2.445 2.81159Z" clip-rule="evenodd" stroke-width="3.429"></path>
  </g>
</svg>
