<svg xmlns="http://www.w3.org/2000/svg" viewBox="0 0 24 24" fill="none"><path d="M15.9556 1.25C16.8161 1.24995 17.5579 1.24981 18.1519 1.33008C18.7891 1.41623 19.3996 1.61138 19.895 2.10938C20.3903 2.60734 20.5837 3.22092 20.6694 3.86133C20.7493 4.45822 20.7496 5.20363 20.7495 6.06836V17.8633C20.7495 18.403 20.3138 18.8408 19.7769 18.8408H19.687C19.6567 18.8768 19.6239 18.9161 19.5923 18.96C19.4249 19.1924 19.2915 19.4846 19.2915 19.8184C19.2916 20.152 19.425 20.4434 19.5923 20.6758C19.624 20.7198 19.6566 20.7598 19.687 20.7959H19.7769C20.3137 20.7959 20.7494 21.2329 20.7495 21.7725C20.7495 22.3122 20.3138 22.75 19.7769 22.75H6.1665C4.55573 22.75 3.24961 21.4375 3.24951 19.8184V8.03516C3.24949 6.70606 3.24987 5.61062 3.36572 4.74414C3.487 3.8374 3.75128 3.03671 4.38916 2.39551C5.02698 1.7544 5.82316 1.48814 6.7251 1.36621C7.58711 1.24974 8.67723 1.24998 9.99951 1.25H15.9556ZM6.1665 18.8398C5.62956 18.8398 5.19385 19.2777 5.19385 19.8174C5.19399 20.357 5.62965 20.7939 6.1665 20.7939H17.4995C17.4077 20.5025 17.3472 20.1761 17.3472 19.8174C17.3472 19.4584 17.4076 19.1314 17.4995 18.8398H6.1665ZM8.49951 8.99414C7.94723 8.99414 7.49951 9.44186 7.49951 9.99414C7.49951 10.5464 7.94723 10.9941 8.49951 10.9941H15.4995C16.0518 10.9941 16.4995 10.5464 16.4995 9.99414C16.4995 9.44186 16.0518 8.99414 15.4995 8.99414H8.49951Z" fill="currentColor" fill-rule="evenodd" clip-rule="evenodd"/></svg>
