<svg xmlns="http://www.w3.org/2000/svg" viewBox="0 0 24 24" fill="none"><path d="M1.54302 1.54259C1.93354 1.15206 2.56656 1.15206 2.95708 1.54259L22.4571 21.0426C22.8476 21.4331 22.8476 22.0661 22.4571 22.4566C22.0666 22.8472 21.4335 22.8472 21.043 22.4566L1.54302 2.95665C1.15249 2.56613 1.15249 1.93311 1.54302 1.54259Z" fill="currentColor"/><path d="M18.2582 18.2574C18.0888 19.2839 17.0321 19.9986 15.9232 19.6675C14.8179 19.3372 13.8436 18.7273 13.0004 18.0523V21.7505C12.9999 22.3023 12.5521 22.7503 12.0004 22.7505C11.4484 22.7505 11.0008 22.3024 11.0004 21.7505V18.0523C10.157 18.7274 9.18294 19.3371 8.07751 19.6675C6.703 20.0783 5.40712 18.8827 5.78356 17.4771C5.9707 16.7789 6.27713 16.0722 6.71716 15.3902C5.89652 15.3403 4.82249 15.1847 3.5902 14.7916C3.01319 14.6074 2.5444 14.1875 2.34704 13.6402C2.13969 13.0645 2.26175 12.4114 2.75719 11.9273C3.36303 11.3355 4.1629 10.809 4.94567 10.4293C5.16842 10.3212 5.39866 10.221 5.62926 10.1334C5.36865 9.87408 5.10831 9.59079 4.85876 9.29352C4.21273 8.52385 3.59882 7.61331 3.21618 6.7027C2.93442 6.03194 3.09141 5.34491 3.53063 4.87946C3.75973 4.63677 4.05425 4.46736 4.38024 4.37946L18.2582 18.2574Z" fill="currentColor"/><path opacity="0.4" d="M10.2201 2.40439C10.9302 0.864749 13.0707 0.864681 13.7807 2.40439C14.2997 3.53029 14.6258 4.7272 14.7709 5.96396C15.9029 5.19379 17.3015 4.61206 18.7289 4.34482C19.3925 4.22083 20.0439 4.42737 20.4701 4.879C20.9091 5.34443 21.0662 6.03168 20.7846 6.70224C20.402 7.61288 19.7881 8.52335 19.142 9.29306C18.8923 9.5906 18.6314 9.87342 18.3705 10.1329C18.6013 10.2206 18.8322 10.3207 19.0551 10.4288C19.8378 10.8085 20.6379 11.3351 21.2436 11.9269C21.7387 12.4109 21.861 13.0642 21.6537 13.6397C21.4565 14.187 20.9875 14.6069 20.4106 14.7911C19.8148 14.9812 19.2555 15.1142 18.7446 15.2081L9.26116 5.7247C9.41893 4.5727 9.73456 3.45768 10.2201 2.40439Z" fill="currentColor"/></svg>
