<svg xmlns="http://www.w3.org/2000/svg" viewBox="0 0 24 24" fill="none"><path d="M1.54302 1.54234C1.93354 1.15182 2.56656 1.15182 2.95708 1.54234L22.4571 21.0423C22.8476 21.4329 22.8476 22.0659 22.4571 22.4564C22.0666 22.8469 21.4335 22.8469 21.043 22.4564L1.54302 2.95641C1.15249 2.56588 1.15249 1.93287 1.54302 1.54234Z" fill="currentColor"/><path d="M18.2582 18.2571C18.0888 19.2836 17.0321 19.9983 15.9232 19.6673C14.8179 19.3369 13.8436 18.727 13.0004 18.052V21.7503C12.9999 22.302 12.5521 22.75 12.0004 22.7503C11.4484 22.7503 11.0008 22.3022 11.0004 21.7503V18.052C10.157 18.7271 9.18294 19.3368 8.07751 19.6673C6.703 20.078 5.40712 18.8824 5.78356 17.4768C5.9707 16.7786 6.27713 16.0719 6.71715 15.3899C5.89652 15.34 4.82249 15.1844 3.5902 14.7913C3.01319 14.6072 2.5444 14.1872 2.34704 13.6399C2.13969 13.0643 2.26175 12.4111 2.75719 11.927C3.36303 11.3352 4.1629 10.8087 4.94567 10.429C5.16842 10.321 5.39866 10.2207 5.62926 10.1331C5.36865 9.8738 5.10831 9.59052 4.85876 9.29325C4.21273 8.52357 3.59882 7.61303 3.21618 6.70243C2.93442 6.03167 3.09141 5.34464 3.53063 4.87918C3.75973 4.6365 4.05424 4.46709 4.38024 4.37918L18.2582 18.2571Z" fill="currentColor"/><path d="M10.2201 2.40457C10.9301 0.864932 13.0707 0.864864 13.7806 2.40457C14.2997 3.53048 14.6257 4.72738 14.7709 5.96414C15.9028 5.19397 17.3014 4.61224 18.7289 4.345C19.3924 4.22101 20.0438 4.42755 20.4701 4.87918C20.909 5.34461 21.0662 6.03187 20.7845 6.70243C20.4019 7.61307 19.788 8.52353 19.142 9.29325C18.8922 9.59078 18.6313 9.8736 18.3705 10.1331C18.6013 10.2208 18.8321 10.3209 19.055 10.429C19.8377 10.8087 20.6378 11.3353 21.2435 11.927C21.7386 12.4111 21.8609 13.0644 21.6537 13.6399C21.4564 14.1872 20.9874 14.6071 20.4105 14.7913C19.8147 14.9814 19.2555 15.1144 18.7445 15.2083L9.2611 5.72489C9.41887 4.57288 9.7345 3.45786 10.2201 2.40457Z" fill="currentColor"/></svg>
