<svg xmlns="http://www.w3.org/2000/svg" viewBox="0 0 24 24" fill="none"><path d="M15.2743 11.2495C15.5131 11.2495 15.7601 11.2483 15.9725 11.2681C16.2056 11.2898 16.4668 11.3419 16.7313 11.4839C16.9954 11.6257 17.1806 11.8134 17.325 11.9937C17.3877 12.0719 17.4507 12.1592 17.5135 12.2505L17.7205 12.561L21.4979 18.311C21.9091 18.9368 22.2818 19.4965 22.4989 19.9653C22.717 20.4366 22.9091 21.0894 22.5496 21.7446C22.1884 22.4025 21.5247 22.5998 21.0028 22.6763C20.5029 22.7494 19.8519 22.7496 19.1287 22.7495H4.8641C4.14095 22.7496 3.48798 22.7494 2.98715 22.6753C2.46539 22.5981 1.80382 22.3987 1.44613 21.7378C1.09222 21.0835 1.28406 20.4335 1.50179 19.9624C1.71856 19.4936 2.08949 18.9337 2.49984 18.3071L6.55843 12.1099C6.87744 11.5834 7.45451 11.2496 8.09066 11.2495H15.2743ZM4.1434 19.3433C3.69773 20.0237 3.42557 20.444 3.28207 20.7544C3.27825 20.7627 3.27478 20.7711 3.27133 20.7788C3.27374 20.7792 3.27667 20.7804 3.27914 20.7808C3.6137 20.8302 4.1113 20.8335 4.9266 20.8335H7.1141V14.8081L4.1434 19.3433ZM9.0682 20.8335H11.2557C12.0709 20.8335 12.5686 20.8302 12.9032 20.7808C12.9051 20.7804 12.9071 20.7792 12.909 20.7788C12.9057 20.7712 12.904 20.7625 12.9002 20.7544C12.7567 20.444 12.4837 20.0239 12.0379 19.3433L9.0682 14.8081V20.8335Z" fill="currentColor" fill-rule="evenodd" clip-rule="evenodd"/><path opacity="0.4" d="M17.0627 14.7853V8.79159C16.4949 9.29771 15.9536 9.64832 15.6071 9.8265C15.144 10.0647 14.5808 9.87155 14.3493 9.39521C14.1177 8.91887 14.3055 8.3395 14.7686 8.10134C15.2558 7.85072 16.4088 7.02249 17.0627 5.82811V4.93445C16.4949 5.44057 15.9536 5.79118 15.6071 5.96936C15.144 6.20753 14.5808 6.01441 14.3493 5.53807C14.1177 5.06173 14.3055 4.48236 14.7686 4.24419C15.2811 3.98056 16.5316 3.07853 17.1616 1.78263L17.2284 1.66586C17.4017 1.40746 17.6894 1.24963 18.0001 1.24963C18.3552 1.24963 18.6799 1.45594 18.8387 1.78263C19.4686 3.07853 20.7191 3.98056 21.2317 4.24419C21.6947 4.48236 21.8825 5.06173 21.6509 5.53807C21.4194 6.01441 20.8562 6.20753 20.3931 5.96936C20.0467 5.79118 19.5053 5.44057 18.9375 4.93445V5.82811C19.5915 7.02249 20.7444 7.85072 21.2317 8.10134C21.6947 8.3395 21.8825 8.91887 21.6509 9.39521C21.4194 9.87155 20.8562 10.0647 20.3931 9.8265C20.0467 9.64832 19.5053 9.29771 18.9375 8.79159V14.7853C18.9375 15.3179 18.5178 15.7496 18.0001 15.7496C17.4824 15.7496 17.0627 15.3179 17.0627 14.7853Z" fill="currentColor"/><path opacity="0.4" d="M5.00012 7.74963C6.5189 7.74963 7.75012 6.51842 7.75012 4.99963C7.75012 3.48085 6.5189 2.24963 5.00012 2.24963C3.48134 2.24963 2.25012 3.48085 2.25012 4.99963C2.25012 6.51842 3.48134 7.74963 5.00012 7.74963Z" fill="currentColor"/></svg>
