<svg xmlns="http://www.w3.org/2000/svg" viewBox="0 0 24 24" fill="none"><path d="M15.2748 11.2495C15.5137 11.2495 15.7607 11.2483 15.973 11.2681C16.2061 11.2898 16.4673 11.3419 16.7318 11.4839C16.9958 11.6257 17.1812 11.8135 17.3256 11.9937C17.4509 12.1501 17.5775 12.3428 17.7016 12.5318L17.7201 12.5611L21.4984 18.3111C21.9095 18.9367 22.2814 19.4966 22.4984 19.9653C22.7166 20.4366 22.9097 21.0894 22.5502 21.7446C22.1889 22.4026 21.5252 22.5998 21.0033 22.6763C20.5035 22.7495 19.8525 22.7496 19.1293 22.7495H4.86367C4.14081 22.7496 3.48839 22.7493 2.98769 22.6753C2.46593 22.5981 1.80338 22.3988 1.4457 21.7378C1.09197 21.0836 1.28463 20.4335 1.50234 19.9624C1.71908 19.4936 2.08913 18.9335 2.49941 18.3071L6.558 12.1099C6.87703 11.5833 7.45497 11.2495 8.0912 11.2495H15.2748ZM4.14394 19.3433C3.69829 20.0237 3.42613 20.444 3.28261 20.7544C3.2788 20.7626 3.27531 20.7711 3.27187 20.7788C3.27429 20.7792 3.27721 20.7804 3.27968 20.7808C3.61418 20.8301 4.11132 20.8335 4.92617 20.8335H7.11367V14.8081L4.14394 19.3433ZM9.06874 20.8335H11.2562C12.0711 20.8335 12.5682 20.8301 12.9027 20.7808C12.9049 20.7805 12.9075 20.7792 12.9096 20.7788C12.9062 20.7712 12.9035 20.7625 12.8998 20.7544C12.7563 20.444 12.4841 20.0237 12.0385 19.3433L9.06874 14.8081V20.8335Z" fill="currentColor" fill-rule="evenodd" clip-rule="evenodd"/><path d="M17.063 14.7853V8.79159C16.4952 9.29771 15.9538 9.64832 15.6074 9.8265C15.1443 10.0647 14.5811 9.87155 14.3496 9.39521C14.118 8.91887 14.3058 8.3395 14.7688 8.10134C15.2561 7.85072 16.4091 7.02249 17.063 5.82811V4.93445C16.4952 5.44057 15.9538 5.79118 15.6074 5.96936C15.1443 6.20753 14.5811 6.01441 14.3496 5.53807C14.118 5.06173 14.3058 4.48236 14.7688 4.24419C15.2814 3.98056 16.5319 3.07853 17.1618 1.78263L17.2287 1.66586C17.402 1.40746 17.6897 1.24963 18.0004 1.24963C18.3555 1.24963 18.6802 1.45594 18.839 1.78263C19.4689 3.07853 20.7194 3.98056 21.232 4.24419C21.695 4.48236 21.8828 5.06173 21.6512 5.53807C21.4197 6.01441 20.8565 6.20753 20.3934 5.96936C20.047 5.79118 19.5056 5.44057 18.9378 4.93445V5.82811C19.5917 7.02249 20.7447 7.85072 21.232 8.10134C21.695 8.3395 21.8828 8.91887 21.6512 9.39521C21.4197 9.87155 20.8565 10.0647 20.3934 9.8265C20.047 9.64832 19.5056 9.29771 18.9378 8.79159V14.7853C18.9378 15.3179 18.5181 15.7496 18.0004 15.7496C17.4827 15.7496 17.063 15.3179 17.063 14.7853Z" fill="currentColor"/><path d="M5.0004 7.74963C6.51919 7.74963 7.7504 6.51842 7.7504 4.99963C7.7504 3.48085 6.51919 2.24963 5.0004 2.24963C3.48162 2.24963 2.2504 3.48085 2.2504 4.99963C2.2504 6.51842 3.48162 7.74963 5.0004 7.74963Z" fill="currentColor"/></svg>
