<svg xmlns="http://www.w3.org/2000/svg" fill="none" viewBox="0 0 48 48">
  <g>
    <path fill="currentColor" fill-opacity="0.4" fill-rule="evenodd" d="M24 2.5C12.0934 2.5 5.42127 6.58676 2.53055 9.00065 1.06542 10.2241 0.5 12.0186 0.5 13.683v29.4365c0 1.2605 0.89114 2.0765 1.67753 2.4169 0.78554 0.3401 1.92283 0.4171 2.84506 -0.2873C7.72289 43.1869 13.6354 39.9 24 39.9s16.2771 3.2869 18.9774 5.3491c0.9222 0.7044 2.0595 0.6274 2.8451 0.2873 0.7864 -0.3404 1.6775 -1.1564 1.6775 -2.4169V13.683c0 -1.6644 -0.5654 -3.4589 -2.0305 -4.68235C42.5787 6.58676 35.9066 2.5 24 2.5Z" clip-rule="evenodd" stroke-width="1"></path>
    <path fill="currentColor" fill-rule="evenodd" d="M47.5 24.8487c-0.8153 -0.5264 -1.7822 -1.086 -2.9111 -1.6426C40.25 21.0671 33.5715 19 24 19c-9.5715 0 -16.24997 2.0671 -20.58891 4.2061C2.28224 23.7627 1.31531 24.3223 0.5 24.8487v4.9902c0.164792 -0.1477 0.371613 -0.3247 0.62235 -0.5244 0.83699 -0.6666 2.16543 -1.5879 4.05747 -2.5206C8.95451 24.9329 15.026 23 24 23s15.0455 1.9329 18.8202 3.7939c1.892 0.9327 3.2205 1.854 4.0574 2.5206 0.2508 0.1997 0.4576 0.3767 0.6224 0.5244v-4.9902Z" clip-rule="evenodd" stroke-width="1"></path>
  </g>
</svg>
