<svg xmlns="http://www.w3.org/2000/svg" fill="none" viewBox="0 0 48 48">
  <g>
    <path fill="currentColor" fill-rule="evenodd" d="M2.53055 9.00065C5.42127 6.58676 12.0934 2.5 24 2.5s18.5787 4.08676 21.4695 6.50065C46.9346 10.2241 47.5 12.0186 47.5 13.683v11.1657c-0.8153 -0.5264 -1.7822 -1.086 -2.9111 -1.6426C40.25 21.0671 33.5715 19 24 19c-9.5715 0 -16.24997 2.0671 -20.58891 4.2061C2.28224 23.7627 1.31531 24.3223 0.5 24.8487V13.683c0 -1.6644 0.56542 -3.4589 2.03055 -4.68235ZM0.5 29.8389v13.2806c0 1.2605 0.89114 2.0765 1.67753 2.4169 0.78554 0.3401 1.92283 0.4171 2.84506 -0.2873C7.72289 43.1869 13.6354 39.9 24 39.9s16.2771 3.2869 18.9774 5.3491c0.9222 0.7044 2.0595 0.6274 2.8451 0.2873 0.7864 -0.3404 1.6775 -1.1564 1.6775 -2.4169V29.8389c-0.1648 -0.1477 -0.3716 -0.3247 -0.6224 -0.5244 -0.8369 -0.6666 -2.1654 -1.5879 -4.0574 -2.5207C39.0455 24.9329 32.974 23 24 23S8.95451 24.9329 5.17982 26.7938c-1.89204 0.9328 -3.22048 1.8541 -4.05747 2.5207 -0.250737 0.1997 -0.457558 0.3767 -0.62235 0.5244Z" clip-rule="evenodd" stroke-width="1"></path>
  </g>
</svg>
