<svg xmlns="http://www.w3.org/2000/svg" viewBox="0 0 24 24" fill="none"><path opacity="0.4" d="M17.5857 2.53115C17.4525 2.36457 17.2538 2.26268 17.0408 2.25088C16.8548 2.24069 16.6727 2.30018 16.5291 2.41592L16.4695 2.46963L12.9998 5.93935L9.53006 2.46963C9.35434 2.29391 9.10512 2.21867 8.86502 2.2626L8.76248 2.28799L2.76248 4.28799C2.51589 4.37019 2.33001 4.57505 2.27029 4.82803C2.21071 5.08091 2.28579 5.34645 2.46951 5.53017L8.27029 11.331C8.25775 11.3853 8.24978 11.4417 8.24978 11.4999V20.9999C8.24978 21.3184 8.45118 21.6025 8.75174 21.7079C9.05223 21.8132 9.38681 21.7173 9.58572 21.4687L17.5857 11.4687C17.6921 11.3357 17.7498 11.1702 17.7498 10.9999V8.7499H20.9998C21.288 8.7499 21.5506 8.58476 21.6756 8.3251C21.8005 8.06525 21.7658 7.75628 21.5857 7.53115L17.5857 2.53115Z" fill="currentColor"/><path d="M13.3816 14.321L4.38847 5.32788L8.79765 3.85815L15.9939 11.0544L13.3816 14.321Z" fill="currentColor"/><path d="M19.4393 7.24976H17.7498V5.13843L19.4393 7.24976Z" fill="currentColor"/></svg>
