<svg xmlns="http://www.w3.org/2000/svg" viewBox="0 0 24 24" fill="none"><path d="M17.0406 2.25185C17.2534 2.26375 17.4523 2.36565 17.5855 2.53213L21.5855 7.53213C21.7653 7.75722 21.8001 8.06636 21.6753 8.32607C21.5504 8.58558 21.2875 8.75073 20.9995 8.75088H17.7495V11.0009C17.7495 11.1711 17.6918 11.3367 17.5855 11.4696L9.58548 21.4696C9.38666 21.7182 9.05187 21.8139 8.75149 21.7089C8.45102 21.6035 8.24965 21.3193 8.24954 21.0009V11.5009C8.24954 11.4427 8.25752 11.3863 8.27005 11.3319L2.46927 5.53115C2.28558 5.34747 2.21054 5.08183 2.27005 4.829C2.32977 4.57602 2.51564 4.37116 2.76223 4.28896L8.76223 2.28896L8.86477 2.26357C9.10478 2.21977 9.35418 2.29497 9.52981 2.4706L12.9995 5.94033L16.4693 2.4706L16.5288 2.41689C16.6724 2.30121 16.8546 2.24167 17.0406 2.25185ZM4.38821 5.329L13.3814 14.3222L15.9937 11.0556L8.79739 3.85927L4.38821 5.329ZM17.7495 7.25088H19.439L17.7495 5.13955V7.25088Z" fill="currentColor" fill-rule="evenodd" clip-rule="evenodd"/></svg>
