<svg xmlns="http://www.w3.org/2000/svg" viewBox="0 0 24 24" fill="none"><path opacity="0.4" d="M16.5278 1.4686C16.4225 1.36322 16.289 1.29239 16.145 1.26352L15.9976 1.24887H7.99756C7.84841 1.24887 7.70384 1.29332 7.58154 1.37485L7.46729 1.4686L5.67334 3.26157C4.2759 3.32192 3.1645 3.51657 2.35108 4.32993C1.74916 4.93184 1.48967 5.68958 1.36865 6.58969C1.25239 7.45458 1.25241 8.5538 1.25244 9.91681V9.91684L1.24756 16.0633C1.24753 17.4264 1.24751 18.5256 1.36377 19.3905C1.48479 20.2906 1.74428 21.0483 2.34619 21.6502C2.94811 22.2522 3.70585 22.5116 4.60596 22.6327C5.47087 22.7489 6.57005 22.7489 7.93311 22.7489H16.062C17.4251 22.7489 18.5242 22.7489 19.3892 22.6327C20.2893 22.5116 21.047 22.2522 21.6489 21.6502C22.2508 21.0483 22.5103 20.2906 22.6313 19.3905C22.7476 18.5256 22.7476 17.4264 22.7476 16.0633L22.7524 9.91684C22.7525 8.55379 22.7525 7.4546 22.6362 6.58969C22.5152 5.68963 22.2557 4.93183 21.6538 4.32993C20.8384 3.51448 19.7232 3.3214 18.3208 3.26157L16.5278 1.4686Z" fill="currentColor"/><path d="M3.41162 5.39047C3.75911 5.04304 4.26954 4.85845 5.3667 4.7811L8.11182 21.2489H7.99756C6.56241 21.2489 5.56145 21.2469 4.80615 21.1454C4.07238 21.0467 3.6835 20.8665 3.40674 20.5897C3.12998 20.3129 2.94973 19.9241 2.85107 19.1903C2.7496 18.4351 2.74756 17.4345 2.74756 15.9998L2.75244 9.98129C2.75244 8.54621 2.7535 7.54518 2.85498 6.78989C2.95363 6.05611 3.13486 5.66724 3.41162 5.39047Z" fill="currentColor"/><path d="M15.9976 21.2489H15.8833L18.6274 4.78012C19.7319 4.85704 20.2447 5.04188 20.5933 5.39047C20.87 5.66723 21.0503 6.05619 21.1489 6.78989C21.225 7.35633 21.2453 8.06093 21.2505 8.98325L21.2524 9.98129L21.2476 15.9989C21.2476 17.434 21.2455 18.435 21.144 19.1903C21.0454 19.9241 20.8651 20.3129 20.5884 20.5897C20.3116 20.8665 19.9227 21.0467 19.189 21.1454C18.4337 21.2469 17.4327 21.2489 15.9976 21.2489Z" fill="currentColor"/><path d="M10.9995 16.7489C10.9995 16.1966 11.4472 15.7489 11.9995 15.7489C12.5518 15.7489 12.9995 16.1966 12.9995 16.7489C12.9995 17.3012 12.5518 17.7489 11.9995 17.7489C11.4472 17.7489 10.9995 17.3012 10.9995 16.7489Z" fill="currentColor"/><path d="M10.9995 12.7489C10.9995 12.1966 11.4472 11.7489 11.9995 11.7489C12.5518 11.7489 12.9995 12.1966 12.9995 12.7489C12.9995 13.3012 12.5518 13.7489 11.9995 13.7489C11.4472 13.7489 10.9995 13.3012 10.9995 12.7489Z" fill="currentColor"/><path d="M7.71924 5.68832L6.91553 4.14047L7.99756 3.05942L11.0688 6.13071C10.6839 6.83652 10.3983 7.35648 10.1362 7.73032C9.80733 8.1994 9.65244 8.23757 9.60986 8.24301C9.54571 8.25121 9.48055 8.2511 9.4165 8.24203C9.35619 8.23345 9.20093 8.18828 8.88916 7.74789C8.57981 7.31091 8.22986 6.65395 7.71924 5.68832Z" fill="currentColor"/><path d="M13.8589 7.73032C13.5968 7.35641 13.3103 6.83673 12.9253 6.13071L15.9976 3.05942L17.0786 4.14047L16.2749 5.68832L15.9204 6.35629C15.5923 6.96882 15.3379 7.42018 15.106 7.74789C14.7942 8.18829 14.6389 8.23345 14.5786 8.24203C14.5146 8.2511 14.4494 8.25121 14.3853 8.24301C14.3427 8.23757 14.1878 8.1994 13.8589 7.73032Z" fill="currentColor"/></svg>
