<svg xmlns="http://www.w3.org/2000/svg" viewBox="0 0 24 24" fill="none"><path d="M16.145 1.26352C16.289 1.29239 16.4225 1.36322 16.5278 1.4686L18.3208 3.26157C19.7232 3.3214 20.8384 3.51448 21.6538 4.32993C22.2557 4.93183 22.5152 5.68963 22.6362 6.58969C22.7525 7.4546 22.7525 8.55379 22.7524 9.91684L22.7476 16.0633C22.7476 17.4264 22.7476 18.5256 22.6313 19.3905C22.5103 20.2906 22.2508 21.0483 21.6489 21.6502C21.047 22.2522 20.2893 22.5116 19.3892 22.6327C18.5242 22.7489 17.4251 22.7489 16.062 22.7489H7.93311C6.57005 22.7489 5.47087 22.7489 4.60596 22.6327C3.70585 22.5116 2.94811 22.2522 2.34619 21.6502C1.74428 21.0483 1.48479 20.2906 1.36377 19.3905C1.24751 18.5256 1.24753 17.4264 1.24756 16.0633L1.25244 9.91684C1.25241 8.55381 1.25239 7.45459 1.36865 6.58969C1.48967 5.68958 1.74916 4.93184 2.35108 4.32993C3.1645 3.51657 4.2759 3.32192 5.67334 3.26157L7.46729 1.4686L7.58154 1.37485C7.70384 1.29332 7.84841 1.24887 7.99756 1.24887H15.9976L16.145 1.26352ZM5.3667 4.7811C4.26954 4.85845 3.75911 5.04304 3.41162 5.39047C3.13486 5.66724 2.95363 6.05611 2.85498 6.78989C2.7535 7.54518 2.75244 8.54621 2.75244 9.98129L2.74756 15.9998C2.74756 17.4345 2.7496 18.4351 2.85108 19.1903C2.94973 19.9241 3.12998 20.3129 3.40674 20.5897C3.6835 20.8665 4.07238 21.0467 4.80615 21.1454C5.56146 21.2469 6.56241 21.2489 7.99756 21.2489H8.11182L5.3667 4.7811ZM15.8833 21.2489H15.9976C17.4327 21.2489 18.4337 21.2469 19.189 21.1454C19.9227 21.0467 20.3116 20.8665 20.5884 20.5897C20.8651 20.3129 21.0454 19.9241 21.144 19.1903C21.2455 18.435 21.2476 17.434 21.2476 15.9989L21.2524 9.98129L21.2505 8.98325C21.2453 8.06093 21.225 7.35633 21.1489 6.78989C21.0503 6.05619 20.87 5.66723 20.5933 5.39047C20.2447 5.04188 19.7319 4.85704 18.6274 4.78012L15.8833 21.2489ZM11.9995 15.7489C11.4472 15.7489 10.9995 16.1966 10.9995 16.7489C10.9995 17.3012 11.4472 17.7489 11.9995 17.7489C12.5518 17.7489 12.9995 17.3012 12.9995 16.7489C12.9995 16.1966 12.5518 15.7489 11.9995 15.7489ZM11.9995 11.7489C11.4472 11.7489 10.9995 12.1966 10.9995 12.7489C10.9995 13.3012 11.4472 13.7489 11.9995 13.7489C12.5518 13.7489 12.9995 13.3012 12.9995 12.7489C12.9995 12.1966 12.5518 11.7489 11.9995 11.7489ZM6.91553 4.14047L7.71924 5.68832C8.22986 6.65395 8.57981 7.31091 8.88916 7.74789C9.20093 8.18828 9.35619 8.23345 9.4165 8.24203C9.48055 8.2511 9.54572 8.25121 9.60986 8.24301C9.65244 8.23757 9.80733 8.1994 10.1362 7.73032C10.3983 7.35648 10.6839 6.83652 11.0688 6.13071L7.99756 3.05942L6.91553 4.14047ZM12.9253 6.13071C13.3103 6.83673 13.5968 7.35641 13.8589 7.73032C14.1878 8.1994 14.3427 8.23757 14.3853 8.24301C14.4494 8.25121 14.5146 8.2511 14.5786 8.24203C14.6389 8.23345 14.7942 8.18829 15.106 7.74789C15.338 7.42018 15.5923 6.96882 15.9204 6.35629L16.2749 5.68832L17.0786 4.14047L15.9976 3.05942L12.9253 6.13071Z" fill="currentColor" fill-rule="evenodd" clip-rule="evenodd"/></svg>
