<svg xmlns="http://www.w3.org/2000/svg" viewBox="0 0 24 24" fill="none"><path d="M7.99963 3C8.55192 3 8.99963 3.44772 8.99963 4V18.0498C9.20998 17.8302 9.42661 17.5908 9.64026 17.3447C10.0592 16.8622 10.4489 16.3764 10.735 16.0098C10.8775 15.8272 10.993 15.6751 11.0729 15.5693C11.1128 15.5165 11.144 15.475 11.1647 15.4473C11.1749 15.4336 11.1821 15.4228 11.1871 15.416C11.1895 15.4128 11.193 15.4092 11.193 15.4092L11.194 15.4072C11.5214 14.9627 12.1477 14.8672 12.5924 15.1943C13.037 15.5217 13.1324 16.1481 12.8053 16.5928L12.8043 16.5947L12.8024 16.5967C12.8007 16.5989 12.7976 16.6023 12.7946 16.6064C12.7884 16.6148 12.7797 16.6271 12.7682 16.6426C12.7452 16.6735 12.7112 16.7179 12.6686 16.7744C12.5833 16.8874 12.4611 17.0481 12.3112 17.2402C12.012 17.6236 11.5992 18.1379 11.15 18.6553C10.7051 19.1678 10.2042 19.706 9.73108 20.124C9.49578 20.3319 9.24419 20.5318 8.99085 20.6846C8.76484 20.8208 8.40989 21 7.99963 21C7.58942 21 7.23441 20.8208 7.00842 20.6846C6.75511 20.5318 6.50345 20.3319 6.26819 20.124C5.79513 19.706 5.29419 19.1677 4.84924 18.6553C4.40006 18.1379 3.98724 17.6235 3.68811 17.2402C3.53816 17.0481 3.41599 16.8873 3.33069 16.7744C3.28805 16.718 3.2541 16.6735 3.23108 16.6426C3.2196 16.6272 3.21087 16.6148 3.20471 16.6064C3.20171 16.6024 3.19954 16.5989 3.19788 16.5967L3.19495 16.5947V16.5928C2.86789 16.1481 2.96239 15.5227 3.40686 15.1953C3.85152 14.8678 4.47776 14.9626 4.8053 15.4072L4.80627 15.4092C4.80627 15.4092 4.80979 15.4129 4.81213 15.416C4.81715 15.4228 4.82441 15.4336 4.8346 15.4473C4.85522 15.4749 4.88649 15.5165 4.92639 15.5693C5.00624 15.6751 5.12183 15.8272 5.26428 16.0098C5.55037 16.3764 5.94009 16.8622 6.35901 17.3447C6.57264 17.5908 6.78931 17.8302 6.99963 18.0498V4C6.99963 3.44776 7.44741 3.00007 7.99963 3Z" fill="currentColor"/><path opacity="0.4" d="M16.7408 13.2345C17.0057 13.0901 17.5071 12.873 18.0602 13.0929L18.1715 13.1427L18.278 13.2022C18.7838 13.5132 18.911 14.0428 18.9547 14.3409C19.0024 14.6668 18.9996 15.0848 18.9996 15.4884V19.0001H19.9996C20.5519 19.0001 20.9996 19.4478 20.9996 20.0001C20.9996 20.5523 20.5519 21.0001 19.9996 21.0001H15.9996C15.4474 21 14.9997 20.5523 14.9996 20.0001C14.9996 19.4478 15.4474 19.0001 15.9996 19.0001H16.9996V15.4884L16.9987 15.4845L16.6002 15.7862C16.159 16.1175 15.5327 16.0287 15.2008 15.588C14.8689 15.1466 14.9578 14.5196 15.399 14.1876L15.7985 13.8868C16.1201 13.6449 16.4518 13.392 16.7408 13.2345Z" fill="currentColor"/><path opacity="0.4" d="M18.9998 6C18.9998 5.44772 18.552 5 17.9998 5C17.4475 5 16.9998 5.44772 16.9998 6V8C16.9998 8.55228 17.4475 9 17.9998 9C18.552 9 18.9998 8.55228 18.9998 8V6ZM20.9998 8C20.9998 9.65685 19.6566 11 17.9998 11C16.3429 11 14.9998 9.65685 14.9998 8V6C14.9998 4.34315 16.3429 3 17.9998 3C19.6566 3 20.9998 4.34315 20.9998 6V8Z" fill="currentColor"/></svg>
