<svg xmlns="http://www.w3.org/2000/svg" viewBox="0 0 24 24" fill="none"><path d="M7.99947 3.00043C8.55176 3.00043 8.99947 3.44814 8.99947 4.00043V18.0502C9.20982 17.8307 9.42645 17.5912 9.6401 17.3452C10.059 16.8626 10.4487 16.3768 10.7348 16.0102C10.8773 15.8276 10.9929 15.6755 11.0727 15.5698C11.1126 15.5169 11.1439 15.4754 11.1645 15.4477C11.1747 15.434 11.182 15.4232 11.187 15.4164C11.1893 15.4133 11.1917 15.4112 11.1928 15.4096L11.1938 15.4077C11.5212 14.9631 12.1476 14.8677 12.5922 15.1948C13.0368 15.5222 13.1323 16.1485 12.8051 16.5932H12.8042V16.5952C12.8037 16.5957 12.8029 16.5962 12.8022 16.5971C12.8005 16.5994 12.7974 16.6028 12.7944 16.6069C12.7882 16.6152 12.7795 16.6276 12.768 16.643C12.745 16.6739 12.7111 16.7184 12.6684 16.7748C12.5831 16.8878 12.461 17.0485 12.311 17.2407C12.0119 17.624 11.5991 18.1383 11.1499 18.6557C10.7049 19.1682 10.204 19.7064 9.73092 20.1245C9.49562 20.3324 9.24403 20.5322 8.99068 20.685C8.76468 20.8212 8.40973 21.0004 7.99947 21.0004C7.58926 21.0004 7.23425 20.8212 7.00826 20.685C6.75495 20.5322 6.50329 20.3323 6.26803 20.1245C5.79497 19.7065 5.29403 19.1682 4.84908 18.6557C4.3999 18.1383 3.98708 17.624 3.68795 17.2407C3.538 17.0485 3.41583 16.8878 3.33053 16.7748C3.28788 16.7184 3.25393 16.6739 3.23092 16.643C3.21944 16.6276 3.2107 16.6152 3.20455 16.6069C3.20155 16.6028 3.19938 16.5994 3.19771 16.5971C3.19687 16.5961 3.19526 16.5958 3.19478 16.5952V16.5932H3.19381C2.86676 16.1486 2.96223 15.5231 3.4067 15.1957C3.85136 14.8683 4.4776 14.963 4.80514 15.4077L4.80611 15.4096C4.80726 15.4112 4.80963 15.4133 4.81197 15.4164C4.81698 15.4232 4.82424 15.434 4.83443 15.4477C4.85506 15.4754 4.88633 15.5169 4.92623 15.5698C5.00608 15.6755 5.12167 15.8277 5.26412 16.0102C5.55021 16.3768 5.93993 16.8627 6.35885 17.3452C6.57248 17.5912 6.78915 17.8307 6.99947 18.0502V4.00043C6.99947 3.44818 7.44724 3.00049 7.99947 3.00043ZM16.7407 13.2348C17.0056 13.0905 17.5069 12.8734 18.06 13.0932L18.1713 13.143L18.2778 13.2026C18.7836 13.5135 18.9109 14.0431 18.9545 14.3412C19.0022 14.6672 18.9995 15.0851 18.9995 15.4887V19.0004H19.9995C20.5518 19.0004 20.9995 19.4481 20.9995 20.0004C20.9995 20.5527 20.5518 21.0004 19.9995 21.0004H15.9995C15.4472 21.0004 14.9995 20.5527 14.9995 20.0004C14.9995 19.4482 15.4472 19.0005 15.9995 19.0004H16.9995V15.4887C16.9995 15.4876 16.9985 15.4859 16.9985 15.4848L16.6001 15.7866C16.1588 16.1178 15.5325 16.0291 15.2006 15.5883C14.8688 15.147 14.9576 14.5199 15.3989 14.1879L15.7983 13.8871C16.12 13.6452 16.4516 13.3924 16.7407 13.2348ZM17.9995 3.00043C19.6563 3.00043 20.9995 4.34357 20.9995 6.00043V8.00043C20.9995 9.65728 19.6563 11.0004 17.9995 11.0004C16.3427 11.0004 14.9995 9.65724 14.9995 8.00043V6.00043C14.9995 4.34361 16.3427 3.00049 17.9995 3.00043ZM17.9995 5.00043C17.4472 5.00049 16.9995 5.44818 16.9995 6.00043V8.00043C16.9995 8.55267 17.4472 9.00036 17.9995 9.00043C18.5518 9.00043 18.9995 8.55271 18.9995 8.00043V6.00043C18.9995 5.44814 18.5518 5.00043 17.9995 5.00043Z" fill="currentColor" fill-rule="evenodd" clip-rule="evenodd"/></svg>
