<svg xmlns="http://www.w3.org/2000/svg" viewBox="0 0 24 24" fill="none"><path opacity="0.4" d="M8.69719 19.5362C8.75359 19.2524 8.74993 18.9286 8.74993 18.5C8.74993 18.0715 8.75359 17.7477 8.69719 17.4639C8.4802 16.373 7.62696 15.5198 6.53606 15.3028C6.25224 15.2464 5.92845 15.25 5.49993 15.25C5.07141 15.25 4.74761 15.2464 4.46379 15.3028C3.37289 15.5198 2.51965 16.373 2.30266 17.4639C2.24626 17.7477 2.24993 18.0715 2.24993 18.5C2.24993 18.9286 2.24626 19.2524 2.30266 19.5362C2.51965 20.6271 3.37289 21.4803 4.46379 21.6973C4.74761 21.7537 5.07141 21.75 5.49993 21.75C5.92845 21.75 6.25224 21.7537 6.53606 21.6973C7.62696 21.4803 8.4802 20.6271 8.69719 19.5362Z" fill="currentColor"/><path opacity="0.4" d="M21.6972 19.5362C21.7536 19.2524 21.7499 18.9286 21.7499 18.5C21.7499 18.0715 21.7536 17.7477 21.6972 17.4639C21.4802 16.373 20.627 15.5198 19.5361 15.3028C19.2522 15.2464 18.9284 15.25 18.4999 15.25C18.0714 15.25 17.7476 15.2464 17.4638 15.3028C16.3729 15.5198 15.5197 16.373 15.3027 17.4639C15.2463 17.7477 15.2499 18.0715 15.2499 18.5C15.2499 18.9286 15.2463 19.2524 15.3027 19.5362C15.5197 20.6271 16.3729 21.4803 17.4638 21.6973C17.7476 21.7537 18.0714 21.75 18.4999 21.75C18.9284 21.75 19.2522 21.7537 19.5361 21.6973C20.627 21.4803 21.4802 20.6271 21.6972 19.5362Z" fill="currentColor"/><path opacity="0.4" d="M8.69719 6.53618C8.75359 6.25236 8.74993 5.92857 8.74993 5.50005C8.74993 5.07153 8.75359 4.74774 8.69719 4.46392C8.4802 3.37302 7.62696 2.51978 6.53606 2.30278C6.25224 2.24639 5.92845 2.25005 5.49993 2.25005C5.07141 2.25005 4.74761 2.24639 4.46379 2.30278C3.37289 2.51978 2.51965 3.37302 2.30266 4.46392C2.24626 4.74774 2.24993 5.07153 2.24993 5.50005C2.24993 5.92857 2.24626 6.25236 2.30266 6.53618C2.51965 7.62708 3.37289 8.48032 4.46379 8.69731C4.74761 8.75371 5.07141 8.75005 5.49993 8.75005C5.92845 8.75005 6.25224 8.75371 6.53606 8.69731C7.62696 8.48032 8.4802 7.62708 8.69719 6.53618Z" fill="currentColor"/><path opacity="0.4" d="M21.6972 6.53618C21.7536 6.25236 21.7499 5.92857 21.7499 5.50005C21.7499 5.07153 21.7536 4.74774 21.6972 4.46392C21.4802 3.37302 20.627 2.51978 19.5361 2.30278C19.2522 2.24639 18.9284 2.25005 18.4999 2.25005C18.0714 2.25005 17.7476 2.24639 17.4638 2.30278C16.3729 2.51978 15.5197 3.37302 15.3027 4.46392C15.2463 4.74774 15.2499 5.07153 15.2499 5.50005C15.2499 5.92857 15.2463 6.25236 15.3027 6.53618C15.5197 7.62708 16.3729 8.48032 17.4638 8.69731C17.7476 8.75371 18.0714 8.75005 18.4999 8.75005C18.9284 8.75005 19.2522 8.75371 19.5361 8.69731C20.627 8.48032 21.4802 7.62708 21.6972 6.53618Z" fill="currentColor"/><path d="M15.2753 17.6514C15.2488 17.8905 15.2499 18.1627 15.2499 18.5C15.2499 18.9285 15.2463 19.2523 15.3027 19.5361C15.3127 19.5865 15.3251 19.6362 15.3378 19.6855C14.329 19.8879 13.193 20 11.9999 20C10.8065 20 9.67009 19.8881 8.66107 19.6855C8.6738 19.6361 8.68716 19.5866 8.6972 19.5361C8.75359 19.2523 8.74994 18.9285 8.74994 18.5C8.74994 18.1627 8.75012 17.8905 8.72357 17.6514C9.65719 17.8682 10.78 18 11.9999 18C13.2195 18 14.3419 17.868 15.2753 17.6514Z" fill="currentColor"/><path d="M4.46381 8.69727C4.74762 8.75366 5.07144 8.75 5.49994 8.75C5.83679 8.75 6.10872 8.75006 6.3476 8.72363C6.13082 9.65721 5.99994 10.7801 5.99994 12C5.99994 13.2195 6.13095 14.342 6.3476 15.2754C6.10875 15.249 5.83673 15.25 5.49994 15.25C5.07144 15.25 4.74762 15.2463 4.46381 15.3027C4.41308 15.3128 4.36307 15.3251 4.31342 15.3379C4.11104 14.3291 3.99994 13.193 3.99994 12C3.99994 10.8066 4.11092 9.67011 4.31342 8.66113C4.36315 8.67396 4.413 8.68716 4.46381 8.69727Z" fill="currentColor"/><path d="M19.6855 8.66113C19.888 9.67015 19.9999 10.8065 19.9999 12C19.9999 13.1931 19.8879 14.3291 19.6855 15.3379C19.6361 15.3252 19.5865 15.3128 19.5361 15.3027C19.2523 15.2464 18.9284 15.25 18.4999 15.25C18.1627 15.25 17.8904 15.2489 17.6513 15.2754C17.868 14.342 17.9999 13.2196 17.9999 12C17.9999 10.78 17.8681 9.65725 17.6513 8.72363C17.8904 8.75018 18.1626 8.75 18.4999 8.75C18.9284 8.75 19.2523 8.75365 19.5361 8.69727C19.5866 8.68722 19.6361 8.67386 19.6855 8.66113Z" fill="currentColor"/><path d="M11.9999 4C13.193 4 14.3291 4.1111 15.3378 4.31348C15.325 4.36313 15.3128 4.41314 15.3027 4.46387C15.2463 4.74768 15.2499 5.0715 15.2499 5.5C15.2499 5.83679 15.2489 6.10881 15.2753 6.34766C14.3419 6.13101 13.2194 6 11.9999 6C10.7801 6 9.65715 6.13088 8.72357 6.34766C8.75 6.10878 8.74994 5.83685 8.74994 5.5C8.74994 5.0715 8.7536 4.74768 8.6972 4.46387C8.6871 4.41306 8.6739 4.36321 8.66107 4.31348C9.67005 4.11099 10.8065 4 11.9999 4Z" fill="currentColor"/></svg>
