<svg xmlns="http://www.w3.org/2000/svg" viewBox="0 0 24 24" fill="none"><path d="M15.728 17.5371C16.2595 17.3873 16.8125 17.697 16.9623 18.2285C17.1121 18.76 16.8024 19.313 16.2709 19.4629C15.0552 19.8054 13.5771 20 11.9995 20C10.4218 20 8.94366 19.8054 7.72797 19.4629C7.19648 19.313 6.88679 18.76 7.03656 18.2285C7.18641 17.697 7.7394 17.3873 8.27094 17.5371C9.28365 17.8224 10.5756 18 11.9995 18C13.4233 18 14.7153 17.8224 15.728 17.5371ZM3.99945 12C3.99945 10.4223 4.19401 8.94421 4.53656 7.72852C4.68641 7.19702 5.2394 6.88734 5.77094 7.03711C6.30243 7.18696 6.61212 7.73995 6.46234 8.27148C6.177 9.2842 5.99945 10.5761 5.99945 12C5.99945 13.4239 6.177 14.7158 6.46234 15.7285C6.61212 16.26 6.30243 16.813 5.77094 16.9629C5.2394 17.1127 4.68641 16.803 4.53656 16.2715C4.19401 15.0558 3.99945 13.5777 3.99945 12ZM17.9995 12C17.9995 10.5761 17.8219 9.2842 17.5366 8.27148C17.3868 7.73995 17.6965 7.18696 18.228 7.03711C18.7595 6.88734 19.3125 7.19702 19.4623 7.72852C19.8049 8.94421 19.9995 10.4223 19.9995 12C19.9995 13.5777 19.8049 15.0558 19.4623 16.2715C19.3125 16.803 18.7595 17.1127 18.228 16.9629C17.6965 16.813 17.3868 16.26 17.5366 15.7285C17.8219 14.7158 17.9995 13.4239 17.9995 12ZM11.9995 4C13.5771 4 15.0552 4.19456 16.2709 4.53711C16.8024 4.68696 17.1121 5.23995 16.9623 5.77148C16.8125 6.30298 16.2595 6.61266 15.728 6.46289C14.7153 6.17755 13.4233 6 11.9995 6C10.5756 6 9.28365 6.17755 8.27094 6.46289C7.7394 6.61266 7.18641 6.30298 7.03656 5.77148C6.88679 5.23995 7.19648 4.68696 7.72797 4.53711C8.94366 4.19456 10.4218 4 11.9995 4Z" fill="currentColor"/><path d="M8.6967 19.5362C8.7531 19.2524 8.74944 18.9286 8.74944 18.5C8.74944 18.0715 8.7531 17.7477 8.6967 17.4639C8.47971 16.373 7.62647 15.5198 6.53557 15.3028C6.25175 15.2464 5.92796 15.25 5.49944 15.25C5.07092 15.25 4.74713 15.2464 4.46331 15.3028C3.37241 15.5198 2.51917 16.373 2.30217 17.4639C2.24578 17.7477 2.24944 18.0715 2.24944 18.5C2.24944 18.9286 2.24578 19.2524 2.30217 19.5362C2.51917 20.6271 3.37241 21.4803 4.46331 21.6973C4.74713 21.7537 5.07092 21.75 5.49944 21.75C5.92796 21.75 6.25175 21.7537 6.53557 21.6973C7.62647 21.4803 8.47971 20.6271 8.6967 19.5362Z" fill="currentColor"/><path d="M21.6967 19.5362C21.7531 19.2524 21.7494 18.9286 21.7494 18.5C21.7494 18.0715 21.7531 17.7477 21.6967 17.4639C21.4797 16.373 20.6265 15.5198 19.5356 15.3028C19.2517 15.2464 18.928 15.25 18.4994 15.25C18.0709 15.25 17.7471 15.2464 17.4633 15.3028C16.3724 15.5198 15.5192 16.373 15.3022 17.4639C15.2458 17.7477 15.2494 18.0715 15.2494 18.5C15.2494 18.9286 15.2458 19.2524 15.3022 19.5362C15.5192 20.6271 16.3724 21.4803 17.4633 21.6973C17.7471 21.7537 18.0709 21.75 18.4994 21.75C18.928 21.75 19.2518 21.7537 19.5356 21.6973C20.6265 21.4803 21.4797 20.6271 21.6967 19.5362Z" fill="currentColor"/><path d="M8.6967 6.53618C8.7531 6.25236 8.74944 5.92857 8.74944 5.50005C8.74944 5.07153 8.7531 4.74774 8.6967 4.46392C8.47971 3.37302 7.62647 2.51978 6.53557 2.30278C6.25175 2.24639 5.92796 2.25005 5.49944 2.25005C5.07092 2.25005 4.74713 2.24639 4.46331 2.30278C3.37241 2.51978 2.51917 3.37302 2.30217 4.46392C2.24578 4.74774 2.24944 5.07153 2.24944 5.50005C2.24944 5.92857 2.24578 6.25236 2.30217 6.53618C2.51917 7.62708 3.37241 8.48032 4.46331 8.69731C4.74713 8.75371 5.07092 8.75005 5.49944 8.75005C5.92796 8.75005 6.25175 8.75371 6.53557 8.69731C7.62647 8.48032 8.47971 7.62708 8.6967 6.53618Z" fill="currentColor"/><path d="M21.6967 6.53618C21.7531 6.25236 21.7494 5.92857 21.7494 5.50005C21.7494 5.07153 21.7531 4.74774 21.6967 4.46392C21.4797 3.37302 20.6265 2.51978 19.5356 2.30278C19.2517 2.24639 18.928 2.25005 18.4994 2.25005C18.0709 2.25005 17.7471 2.24639 17.4633 2.30278C16.3724 2.51978 15.5192 3.37302 15.3022 4.46392C15.2458 4.74774 15.2494 5.07153 15.2494 5.50005C15.2494 5.92857 15.2458 6.25236 15.3022 6.53618C15.5192 7.62708 16.3724 8.48032 17.4633 8.69731C17.7471 8.75371 18.0709 8.75005 18.4994 8.75005C18.928 8.75005 19.2518 8.75371 19.5356 8.69731C20.6265 8.48032 21.4797 7.62708 21.6967 6.53618Z" fill="currentColor"/></svg>
