<svg xmlns="http://www.w3.org/2000/svg" viewBox="0 0 24 24" fill="none"><path opacity="0.4" d="M21.2251 2.77506C20.575 2.12494 19.6847 2.18622 18.8648 2.38932C18.0342 2.5951 16.957 3.03059 15.6254 3.56896L15.5552 3.59733L8.06499 6.62467L8.01841 6.6435C6.28368 7.34477 4.91898 7.89646 3.99077 8.39909C3.52206 8.65292 3.11005 8.9221 2.80815 9.22916C2.49626 9.54648 2.25896 9.94959 2.25054 10.446C2.24734 10.6346 2.26799 10.823 2.31206 11.0065C2.42815 11.4893 2.7481 11.8319 3.12163 12.0739C3.48287 12.3078 3.94233 12.4808 4.45464 12.6266C5.46735 12.9149 6.91507 13.1562 8.7544 13.4627L8.81792 13.4733C9.28873 13.5518 9.586 13.6029 9.80815 13.6637C10.014 13.7202 10.0879 13.7687 10.1304 13.8063C10.1527 13.826 10.1742 13.8475 10.1939 13.8698C10.2315 13.9123 10.28 13.9861 10.3365 14.1921C10.3973 14.4142 10.4484 14.7116 10.5269 15.1823L10.5374 15.2455C10.844 17.0849 11.0853 18.5328 11.3736 19.5456C11.5194 20.0579 11.6924 20.5173 11.9263 20.8786C12.1683 21.2521 12.5109 21.572 12.9937 21.6881C13.1772 21.7322 13.3656 21.7529 13.5542 21.7497C14.0506 21.7412 14.4537 21.5039 14.771 21.1921C15.078 20.8902 15.3474 20.479 15.6011 20.0104C16.1022 19.0852 16.6518 17.7256 17.3499 15.9987L17.3755 15.9352L20.4029 8.44596L20.4269 8.38664C20.9673 7.04985 21.4045 5.96833 21.6109 5.13541C21.814 4.3155 21.8753 3.42519 21.2251 2.77506Z" fill="currentColor"/></svg>
