<svg xmlns="http://www.w3.org/2000/svg" viewBox="0 0 24 24" fill="none"><path opacity="0.4" d="M22.75 12.0517V12.0001V11.9484C22.75 10.584 22.75 9.50199 22.6621 8.63776C22.5718 7.75025 22.3823 7.00954 21.9492 6.36139C21.6027 5.84274 21.1573 5.3974 20.6387 5.05084C19.9905 4.61779 19.2498 4.42826 18.3623 4.33795C17.4981 4.25004 16.4161 4.25005 15.0517 4.25006L15 4.25006H11.3135C9.7398 4.25006 8.74378 4.23656 7.83887 4.61139C6.93406 4.98621 6.23954 5.69997 5.12695 6.81256L2.17676 9.76276C1.5834 10.3562 1.25 11.1609 1.25 12.0001C1.25 12.8392 1.5834 13.644 2.17676 14.2374L5.12695 17.1876C6.23954 18.3001 6.93406 19.0139 7.83887 19.3887C8.74378 19.7636 9.7398 19.7501 11.3135 19.7501H15H15.0517C16.4161 19.7501 17.4981 19.7501 18.3623 19.6622C19.2498 19.5719 19.9905 19.3823 20.6387 18.9493C21.1573 18.6027 21.6027 18.1574 21.9492 17.6387C22.3823 16.9906 22.5718 16.2499 22.6621 15.3624C22.75 14.4981 22.75 13.4162 22.75 12.0517Z" fill="currentColor"/><path d="M9 11C9.55228 11 10 11.4477 10 12C10 12.5523 9.55228 13 9 13C8.44772 13 8 12.5523 8 12C8 11.4477 8.44771 11 9 11Z" fill="currentColor"/><path d="M13 11C13.5523 11 14 11.4477 14 12C14 12.5523 13.5523 13 13 13C12.4477 13 12 12.5523 12 12C12 11.4477 12.4477 11 13 11Z" fill="currentColor"/><path d="M17 11C17.5523 11 18 11.4477 18 12C18 12.5523 17.5523 13 17 13C16.4477 13 16 12.5523 16 12C16 11.4477 16.4477 11 17 11Z" fill="currentColor"/></svg>
