<svg xmlns="http://www.w3.org/2000/svg" viewBox="0 0 24 24" fill="none"><path d="M15.0518 4.25006C16.4162 4.25005 17.4981 4.25004 18.3623 4.33795C19.2498 4.42825 19.9905 4.6178 20.6387 5.05084C21.1573 5.39739 21.6027 5.84275 21.9492 6.36139C22.3823 7.00952 22.5718 7.75027 22.6621 8.63776C22.75 9.50195 22.75 10.5839 22.75 11.9483V12.0518C22.75 13.4162 22.75 14.4982 22.6621 15.3624C22.5718 16.2499 22.3823 16.9906 21.9492 17.6387C21.6027 18.1574 21.1573 18.6027 20.6387 18.9493C19.9905 19.3823 19.2498 19.5719 18.3623 19.6622C17.4981 19.7501 16.4162 19.7501 15.0518 19.7501H11.3135C9.7398 19.7501 8.74378 19.7636 7.83887 19.3887C6.93407 19.0139 6.23953 18.3001 5.12695 17.1876L2.17676 14.2374C1.58342 13.644 1.25 12.8392 1.25 12.0001C1.25002 11.1609 1.58341 10.3561 2.17676 9.76276L5.12695 6.81256C6.23952 5.69999 6.93407 4.9862 7.83887 4.61139C8.74378 4.23657 9.73982 4.25006 11.3135 4.25006H15.0518ZM9 11.0001C8.44771 11.0001 8 11.4478 8 12.0001C8 12.5523 8.44772 13.0001 9 13.0001C9.55228 13.0001 10 12.5523 10 12.0001C10 11.4478 9.55228 11.0001 9 11.0001ZM13 11.0001C12.4477 11.0001 12 11.4478 12 12.0001C12 12.5523 12.4477 13.0001 13 13.0001C13.5523 13.0001 14 12.5523 14 12.0001C14 11.4478 13.5523 11.0001 13 11.0001ZM17 11.0001C16.4477 11.0001 16 11.4478 16 12.0001C16 12.5523 16.4477 13.0001 17 13.0001C17.5523 13.0001 18 12.5523 18 12.0001C18 11.4478 17.5523 11.0001 17 11.0001Z" fill="currentColor" fill-rule="evenodd" clip-rule="evenodd"/></svg>
