<svg xmlns="http://www.w3.org/2000/svg" viewBox="0 0 24 24" fill="none"><path d="M8.95833 18.9167V20.8333C8.95833 21.8919 9.81645 22.75 10.875 22.75H11.8333C12.8919 22.75 13.75 21.8919 13.75 20.8333V17C13.75 13.8244 11.1756 11.25 8 11.25C4.82436 11.25 2.25 13.8244 2.25 17V20.8333C2.25 21.8919 3.10812 22.75 4.16667 22.75H5.125C6.18355 22.75 7.04167 21.8919 7.04167 20.8333V18.9167C7.04167 17.8581 6.18355 17 5.125 17H4.16667C4.16667 14.8829 5.88291 13.1667 8 13.1667C10.1171 13.1667 11.8333 14.8829 11.8333 17H10.875C9.81645 17 8.95833 17.8581 8.95833 18.9167Z" fill="currentColor"/><path opacity="0.4" d="M12.5896 1.24986L12.5879 1.24986C11.0624 1.24984 9.65452 1.25027 8.67578 1.36509C7.66314 1.48394 6.79458 1.73721 6.05957 2.33287C5.79006 2.55134 5.5445 2.79828 5.32715 3.0692C4.73462 3.80792 4.48252 4.68037 4.36426 5.6981C4.25 6.6818 4.24998 7.91865 4.25 9.45201V11.0897C5.33416 10.4004 6.62009 9.99986 8 9.99986C11.866 9.99986 14.9999 13.1339 15 16.9999V20.8329C15 21.5532 14.7558 22.2148 14.3506 22.7469C15.5469 22.7398 16.5569 22.712 17.3965 22.5985C18.5633 22.4408 19.5459 22.1025 20.3262 21.3182C21.1061 20.534 21.4418 19.5465 21.5986 18.3739C21.7497 17.2443 21.75 15.8079 21.75 14.0262V10.5516C21.751 9.88836 21.7514 9.2994 21.5273 8.75572C21.3033 8.21222 20.8891 7.79616 20.4219 7.32798L15.6387 2.52037C15.2362 2.11477 14.8796 1.75562 14.4248 1.53697C14.3312 1.492 14.2355 1.45155 14.1377 1.41685C13.6629 1.24842 13.1586 1.2491 12.5896 1.24986Z" fill="currentColor"/><path d="M14.1373 1.416C14.2353 1.45076 14.3314 1.49075 14.4251 1.53582C14.8799 1.75449 15.2362 2.11356 15.6387 2.51921L20.4215 7.32686L20.4215 7.32686C20.8889 7.79521 21.3036 8.21088 21.5277 8.75463C21.6265 8.99435 21.6816 9.24282 21.7122 9.50258H19.7314C18.3638 9.5026 17.7152 9.50181 16.8483 9.38525C15.9481 9.26424 15.1903 9.00534 14.5884 8.40343C13.9864 7.80151 13.7275 7.04364 13.6065 6.14353C13.4902 5.27834 13.4902 4.63063 13.4902 3.2688V3.26877V1.27734C13.7136 1.30042 13.9283 1.34184 14.1373 1.416Z" fill="currentColor"/></svg>
