<svg xmlns="http://www.w3.org/2000/svg" viewBox="0 0 24 24" fill="none"><path d="M8.95784 18.9147V20.8314C8.95784 21.8899 9.81597 22.748 10.8745 22.748H11.8328C12.8914 22.748 13.7495 21.8899 13.7495 20.8314V16.998C13.7495 13.8224 11.1751 11.248 7.99951 11.248C4.82387 11.248 2.24951 13.8224 2.24951 16.998V20.8314C2.24951 21.8899 3.10763 22.748 4.16618 22.748H5.12451C6.18306 22.748 7.04118 21.8899 7.04118 20.8314V18.9147C7.04118 17.8562 6.18306 16.998 5.12451 16.998H4.16618C4.16618 14.881 5.88242 13.1647 7.99951 13.1647C10.1166 13.1647 11.8328 14.881 11.8328 16.998H10.8745C9.81597 16.998 8.95784 17.8562 8.95784 18.9147Z" fill="currentColor"/><path d="M12.5874 1.24791C13.1571 1.24714 13.6619 1.2463 14.1372 1.4149C14.235 1.4496 14.3308 1.49005 14.4243 1.53502C14.8791 1.75366 15.2358 2.11282 15.6382 2.51841L20.4214 7.32603C20.8886 7.79421 21.3028 8.21027 21.5269 8.75377C21.7509 9.29744 21.7505 9.8864 21.7495 10.5497V14.0243C21.7495 15.806 21.7492 17.2424 21.5981 18.3719C21.4413 19.5446 21.1056 20.532 20.3257 21.3163C19.5454 22.1006 18.5628 22.4388 17.396 22.5965C16.5564 22.71 15.5465 22.7379 14.3501 22.745C14.7553 22.2128 14.9995 21.5513 14.9995 20.8309V16.9979C14.9995 13.132 11.8655 9.99791 7.99951 9.99791C6.61961 9.99791 5.33368 10.3984 4.24951 11.0877V9.45005C4.24949 7.91669 4.24951 6.67985 4.36377 5.69615C4.48203 4.67841 4.73413 3.80597 5.32666 3.06724C5.54401 2.79633 5.78957 2.54939 6.05908 2.33091C6.79409 1.73526 7.66265 1.48199 8.67529 1.36314C9.65403 1.24832 11.0619 1.24789 12.5874 1.24791ZM13.4897 3.26841C13.4897 4.62971 13.4897 5.2776 13.606 6.14244C13.7269 7.04226 13.9859 7.80038 14.5874 8.4022C15.1893 9.00411 15.948 9.26361 16.8481 9.38462C17.7149 9.50113 18.3636 9.50183 19.731 9.50181C19.6741 9.36405 19.5685 9.2332 18.9507 8.61216L14.3462 3.98326C13.8133 3.44763 13.6714 3.31431 13.4897 3.25962V3.26841Z" fill="currentColor" fill-rule="evenodd" clip-rule="evenodd"/></svg>
