<svg xmlns="http://www.w3.org/2000/svg" viewBox="0 0 24 24" fill="none"><path opacity="0.4" d="M18.0001 13.5C18.0001 9.91015 15.09 7 11.5001 7C7.91027 7 5.00012 9.91015 5.00012 13.5C5.00012 17.0899 7.91027 20 11.5001 20C12.0524 20 12.5001 20.4477 12.5001 21C12.5001 21.5523 12.0524 22 11.5001 22C6.8057 22 3.00012 18.1944 3.00012 13.5C3.00012 8.80558 6.8057 5 11.5001 5C16.1945 5 20.0001 8.80558 20.0001 13.5C20.0001 14.0523 19.5524 14.5 19.0001 14.5C18.4478 14.5 18.0001 14.0523 18.0001 13.5Z" fill="currentColor"/><path d="M12.0001 12V3C12.0001 2.44772 12.4478 2 13.0001 2C13.5524 2 14.0001 2.44772 14.0001 3V12C14.0001 12.5523 13.5524 13 13.0001 13C12.4478 13 12.0001 12.5523 12.0001 12Z" fill="currentColor"/><path d="M8.00012 12V3C8.00012 2.44772 8.44784 2 9.00012 2C9.55241 2 10.0001 2.44772 10.0001 3V12C10.0001 12.5523 9.55241 13 9.00012 13C8.44784 13 8.00012 12.5523 8.00012 12Z" fill="currentColor"/><path d="M20.0001 20C20.5524 20 21.0001 20.4477 21.0001 21C21.0001 21.5523 20.5524 22 20.0001 22H4.00012C3.44784 22 3.00012 21.5523 3.00012 21C3.00012 20.4477 3.44784 20 4.00012 20H20.0001Z" fill="currentColor"/></svg>
