<svg xmlns="http://www.w3.org/2000/svg" viewBox="0 0 24 24" fill="none"><path opacity="0.4" d="M21.3526 9.5C22.1326 9.5 22.7509 8.86291 22.751 8.09473C22.751 7.62279 22.5151 7.17891 22.1182 6.91797L15.6826 2.68848L15.6247 2.65036C14.8711 2.15496 14.2551 1.75004 13.7168 1.47363C13.1488 1.182 12.6074 1 12.001 1C11.3947 1 10.8532 1.182 10.2852 1.47363C9.74687 1.75004 9.13091 2.15497 8.37734 2.65037L8.31937 2.68848L1.88382 6.91797C1.53655 7.14626 1.31239 7.5144 1.26175 7.91895L1.25101 8.09473L1.25784 8.2373C1.32879 8.94018 1.91822 9.5 2.64944 9.5H21.3526Z" fill="currentColor"/><path d="M12.001 4.5C12.5533 4.5 13.001 4.94772 13.001 5.5C13.001 6.05229 12.5533 6.5 12.001 6.5C11.4487 6.5 11.001 6.05228 11.001 5.5C11.001 4.94772 11.4487 4.5 12.001 4.5Z" fill="currentColor"/><path opacity="0.4" d="M20.0451 18.1357C19.7811 18.0234 19.5006 18.0031 19.2355 18H4.76482C4.49978 18.0031 4.21921 18.0234 3.95525 18.1357C3.60537 18.2847 3.34781 18.5686 3.11052 18.8125L2.42302 19.5195C2.08703 19.8649 1.77528 20.1828 1.57536 20.4561C1.39078 20.7084 1.10973 21.1768 1.32927 21.7217C1.55298 22.2767 2.09087 22.4091 2.40056 22.4541C2.73304 22.5024 3.17479 22.5 3.64861 22.5H20.3517C20.8256 22.5 21.2673 22.5024 21.5998 22.4541C21.9095 22.4091 22.4474 22.2767 22.6711 21.7217C22.8906 21.1768 22.6096 20.7084 22.425 20.4561C22.2321 20.1925 21.9352 19.8874 21.6129 19.5561L21.5773 19.5195L20.8898 18.8125C20.6525 18.5686 20.395 18.2847 20.0451 18.1357Z" fill="currentColor"/><path d="M20.501 18.4307C20.3656 18.3137 20.2162 18.2086 20.045 18.1357C19.781 18.0235 19.5004 18.0031 19.2354 18H18.501V9.5H20.501V18.4307Z" fill="currentColor"/><path d="M5.50101 18H4.76468C4.49969 18.0031 4.21903 18.0234 3.95511 18.1357C3.78476 18.2083 3.6359 18.3124 3.50101 18.4287V9.5H5.50101V18Z" fill="currentColor"/><path d="M9.83401 18H7.83401V9.5H9.83401V18Z" fill="currentColor"/><path d="M16.168 18H14.168V9.5H16.168V18Z" fill="currentColor"/></svg>
