<svg xmlns="http://www.w3.org/2000/svg" viewBox="0 0 24 24" fill="none"><path d="M12.001 1C12.6074 1 13.1488 1.182 13.7168 1.47363C14.2551 1.75004 14.8715 2.155 15.625 2.65039L15.6826 2.68848L22.1182 6.91797C22.5151 7.17891 22.751 7.62279 22.751 8.09473C22.7509 8.86291 22.1326 9.5 21.3526 9.5H2.64944C1.91822 9.5 1.32879 8.94018 1.25784 8.2373L1.25101 8.09473L1.26175 7.91895C1.31239 7.5144 1.53655 7.14626 1.88382 6.91797L8.31937 2.68848L8.37698 2.65039C9.13056 2.15499 9.74687 1.75004 10.2852 1.47363C10.8532 1.182 11.3947 1 12.001 1ZM12.001 4.5C11.4487 4.5 11.001 4.94772 11.001 5.5C11.001 6.05228 11.4487 6.5 12.001 6.5C12.5533 6.5 13.001 6.05229 13.001 5.5C13.001 4.94772 12.5533 4.5 12.001 4.5Z" fill="currentColor"/><path d="M3.50101 18.75V8.75C3.50101 8.19772 3.94872 7.75 4.50101 7.75C5.05329 7.75 5.50101 8.19772 5.50101 8.75V18.75C5.50101 19.3023 5.05329 19.75 4.50101 19.75C3.94872 19.75 3.50101 19.3023 3.50101 18.75ZM7.83401 18.75V8.75C7.83401 8.19782 8.28188 7.75018 8.83401 7.75C9.3863 7.75 9.83401 8.19772 9.83401 8.75V18.75C9.83401 19.3023 9.3863 19.75 8.83401 19.75C8.28188 19.7498 7.83401 19.3022 7.83401 18.75ZM14.168 18.75V8.75C14.168 8.19772 14.6157 7.75 15.168 7.75C15.7201 7.75018 16.168 8.19782 16.168 8.75V18.75C16.168 19.3022 15.7201 19.7498 15.168 19.75C14.6157 19.75 14.168 19.3023 14.168 18.75ZM18.501 18.75V8.75C18.501 8.19772 18.9487 7.75 19.501 7.75C20.0533 7.75 20.501 8.19772 20.501 8.75V18.75C20.501 19.3023 20.0533 19.75 19.501 19.75C18.9487 19.75 18.501 19.3023 18.501 18.75Z" fill="currentColor"/><path d="M20.0451 18.1357C19.7811 18.0234 19.5006 18.0031 19.2355 18H4.76482C4.49978 18.0031 4.21921 18.0234 3.95525 18.1357C3.60537 18.2847 3.34781 18.5686 3.11052 18.8125L2.42302 19.5195C2.08703 19.8649 1.77528 20.1828 1.57536 20.4561C1.39078 20.7084 1.10973 21.1768 1.32927 21.7217C1.55298 22.2767 2.09087 22.4091 2.40056 22.4541C2.73304 22.5024 3.17479 22.5 3.64861 22.5H20.3517C20.8256 22.5 21.2673 22.5024 21.5998 22.4541C21.9095 22.4091 22.4474 22.2767 22.6711 21.7217C22.8906 21.1768 22.6096 20.7084 22.425 20.4561C22.2321 20.1925 21.9352 19.8874 21.6129 19.5561L21.5773 19.5195L20.8898 18.8125C20.6525 18.5686 20.395 18.2847 20.0451 18.1357Z" fill="currentColor"/></svg>
