<svg xmlns="http://www.w3.org/2000/svg" viewBox="0 0 24 24" fill="none"><path d="M18.5753 2.23452C17.4963 1.72803 16.2576 1.75015 14.4396 1.75015H9.55871C7.74064 1.75014 6.50198 1.72791 5.42297 2.23452C4.34437 2.74115 3.62088 3.68462 2.53039 5.04995L1.94446 5.78432C1.79382 5.97307 1.73303 6.19848 1.75403 6.41616C1.79585 6.04157 2.1134 5.75017 2.49914 5.75014H4.41711H19.5822H21.4991C21.8849 5.75014 22.2014 6.04161 22.2433 6.41616C22.2643 6.19838 22.2046 5.97314 22.0538 5.78432L21.4689 5.04995C20.3782 3.68443 19.6541 2.74115 18.5753 2.23452Z" fill="currentColor"/><path opacity="0.4" d="M21.5 5.75C21.9142 5.75 22.25 6.08579 22.25 6.5V12.9844C21.2351 11.7677 19.6978 11 18 11C14.9996 11.0002 12.5 13.3968 12.5 16.4346L12.5088 16.7588C12.5971 18.3594 13.341 19.6263 14.5078 20.6309C14.7655 20.8527 15.1463 21.2194 15.5107 21.6074C15.7266 21.8373 15.9123 22.0517 16.0566 22.2295C15.3133 22.2493 14.4804 22.25 13.5498 22.25H10.4502C8.60939 22.25 7.15129 22.25 6.01074 22.0967C4.83844 21.939 3.88991 21.6067 3.1416 20.8584C2.39329 20.1101 2.06096 19.1616 1.90332 17.9893C1.74998 16.8487 1.74999 15.3906 1.75 13.5498V6.5C1.75 6.08579 2.08579 5.75 2.5 5.75H21.5Z" fill="currentColor"/><path d="M18 12.25C20.3337 12.25 22.25 14.1103 22.25 16.4346C22.2499 17.7701 21.6906 18.8108 20.6768 19.6836C20.0922 20.1868 19.0443 21.2913 18.6221 21.9189C18.4804 22.1293 18.2419 22.254 17.9883 22.25C17.7344 22.246 17.4992 22.1135 17.3643 21.8984C16.9755 21.2792 15.9215 20.1986 15.3232 19.6836C14.3094 18.8108 13.7501 17.7701 13.75 16.4346C13.75 14.1103 15.6663 12.25 18 12.25ZM17.9932 15C17.1685 15.0001 16.5 15.6717 16.5 16.5C16.5 17.3283 17.1685 17.9999 17.9932 18H18.0068L18.1602 17.9932C18.913 17.9161 19.5 17.2765 19.5 16.5C19.5 15.7236 18.9129 15.0849 18.1602 15.0078L18.0068 15H17.9932Z" fill="currentColor"/></svg>
