<svg xmlns="http://www.w3.org/2000/svg" viewBox="0 0 24 24" fill="none"><path d="M14.4404 1.75002C16.2586 1.75002 17.4971 1.72778 18.5762 2.2344C19.655 2.74105 20.379 3.68424 21.4697 5.04983L22.0547 5.7842C22.2052 5.97275 22.2649 6.19758 22.2441 6.41506C22.2473 6.44299 22.25 6.47125 22.25 6.50002V12.9844C21.2351 11.7677 19.6978 11 18 11C14.9996 11.0002 12.5 13.3968 12.5 16.4346L12.5088 16.7588C12.5916 18.2593 13.2505 19.4667 14.2939 20.4395L14.7217 20.8223C14.9546 21.0372 15.2373 21.3163 15.5107 21.6074C15.7266 21.8373 15.9123 22.0517 16.0566 22.2295C15.3133 22.2493 14.4804 22.25 13.5498 22.25H10.4502C8.60939 22.25 7.15129 22.25 6.01074 22.0967C4.83844 21.9391 3.88991 21.6067 3.1416 20.8584C2.39329 20.1101 2.06096 19.1616 1.90332 17.9893C1.74998 16.8487 1.74999 15.3906 1.75 13.5498V6.50002C1.75 6.47129 1.75174 6.44295 1.75488 6.41506C1.73411 6.1976 1.79483 5.97273 1.94531 5.7842L2.53027 5.04983C3.62098 3.68424 4.34504 2.74105 5.42383 2.2344C6.50287 1.72778 7.7414 1.75002 9.55957 1.75002H14.4404ZM18 12.25C20.3337 12.25 22.25 14.1103 22.25 16.4346C22.2499 17.7702 21.6906 18.8109 20.6768 19.6836C20.0922 20.1869 19.0443 21.2913 18.6221 21.919C18.4804 22.1294 18.2419 22.254 17.9883 22.25C17.7344 22.246 17.4992 22.1135 17.3643 21.8985C16.9755 21.2792 15.9215 20.1986 15.3232 19.6836C14.3094 18.8109 13.7501 17.7702 13.75 16.4346C13.75 14.1103 15.6663 12.25 18 12.25ZM17.9932 15C17.1685 15.0002 16.5 15.6717 16.5 16.5C16.5 17.3284 17.1685 17.9999 17.9932 18H18.0068L18.1602 17.9932C18.913 17.9161 19.5 17.2765 19.5 16.5C19.5 15.7236 18.9129 15.0849 18.1602 15.0078L18.0068 15H17.9932ZM9.55957 3.58401C7.54541 3.58401 6.86682 3.60645 6.29688 3.87405C5.78093 4.11641 5.38481 4.54763 4.41699 5.75002H19.583C18.6152 4.54763 18.2191 4.11641 17.7031 3.87405C17.1332 3.60645 16.4546 3.58401 14.4404 3.58401H9.55957Z" fill="currentColor" fill-rule="evenodd" clip-rule="evenodd"/></svg>
