<svg xmlns="http://www.w3.org/2000/svg" viewBox="0 0 24 24" fill="none"><path opacity="0.4" d="M20.75 19.5846V19.5743V7.99817V7.93374C20.75 6.57067 20.7501 5.47149 20.6338 4.60657C20.5128 3.70646 20.2533 2.94872 19.6514 2.3468C19.0495 1.74489 18.2917 1.4854 17.3916 1.36438C16.5267 1.24812 15.4275 1.24814 14.0644 1.24817H14H10H9.93561C8.57252 1.24814 7.47333 1.24812 6.6084 1.36438C5.70829 1.4854 4.95055 1.74489 4.34863 2.3468C3.74672 2.94872 3.48723 3.70646 3.36621 4.60657C3.24995 5.4715 3.24997 6.57069 3.25 7.93378V7.99817V19.5743V19.5845C3.25 19.9935 3.25 20.3472 3.27344 20.6281C3.29659 20.9054 3.34916 21.2292 3.53613 21.5148C3.85226 21.9976 4.38588 22.2935 4.96289 22.3058C5.30419 22.313 5.60706 22.1861 5.85449 22.0587C6.10254 21.931 6.39911 21.7457 6.74149 21.5317L6.76074 21.5197C7.36057 21.1448 7.52678 21.0512 7.68555 21.0099C7.89184 20.9562 8.10816 20.9562 8.31446 21.0099C8.47322 21.0512 8.63943 21.1448 9.23926 21.5197L9.60254 21.7462L9.62723 21.7616C10.0612 22.0329 10.4297 22.2632 10.7529 22.4259C11.0954 22.5982 11.437 22.7216 11.8262 22.7462C11.9419 22.7535 12.0581 22.7535 12.1738 22.7462C12.563 22.7216 12.9046 22.5982 13.2471 22.4259C13.5703 22.2632 13.9388 22.0329 14.3728 21.7616L14.3975 21.7462L14.7607 21.5197C15.3606 21.1448 15.5268 21.0512 15.6855 21.0099C15.8918 20.9562 16.1082 20.9562 16.3145 21.0099C16.4732 21.0512 16.6394 21.1448 17.2393 21.5197L17.2585 21.5317C17.6009 21.7457 17.8975 21.931 18.1455 22.0587C18.3929 22.1861 18.6958 22.313 19.0371 22.3058C19.6141 22.2935 20.1477 21.9976 20.4639 21.5148C20.6508 21.2292 20.7034 20.9054 20.7266 20.6281C20.75 20.3472 20.75 19.9936 20.75 19.5846Z" fill="currentColor"/><path d="M9.70711 14.7053C9.31658 15.0958 8.68357 15.0958 8.29304 14.7053C7.90252 14.3148 7.90252 13.6817 8.29304 13.2912L14.293 7.29121C14.6836 6.90069 15.3166 6.90069 15.7071 7.29121C16.0976 7.68174 16.0976 8.31475 15.7071 8.70528L9.70711 14.7053Z" fill="currentColor"/><path d="M9 6.99817C9.55228 6.99817 10 7.44589 10 7.99817C10 8.55046 9.55228 8.99817 9 8.99817C8.44772 8.99817 8 8.55045 8 7.99817C8 7.44589 8.44771 6.99817 9 6.99817Z" fill="currentColor"/><path d="M15 12.9982C15.5523 12.9982 16 13.4459 16 13.9982C16 14.5505 15.5523 14.9982 15 14.9982C14.4477 14.9982 14 14.5505 14 13.9982C14 13.4459 14.4477 12.9982 15 12.9982Z" fill="currentColor"/></svg>
