<svg xmlns="http://www.w3.org/2000/svg" viewBox="0 0 24 24" fill="none"><path d="M14.0645 1.24817C15.4275 1.24814 16.5267 1.24812 17.3916 1.36438C18.2917 1.4854 19.0494 1.74489 19.6514 2.3468C20.2533 2.94872 20.5128 3.70646 20.6338 4.60657C20.7501 5.47148 20.75 6.57066 20.75 7.93372V19.5841C20.75 19.9931 20.75 20.3472 20.7266 20.6281C20.7034 20.9054 20.6508 21.2292 20.4639 21.5148C20.1477 21.9976 19.6141 22.2935 19.0371 22.3058C18.6958 22.313 18.3929 22.1861 18.1455 22.0587C17.8975 21.9311 17.6011 21.7454 17.2588 21.5314L17.2393 21.5197C16.6394 21.1448 16.4732 21.0512 16.3145 21.0099C16.1082 20.9562 15.8918 20.9562 15.6855 21.0099C15.5268 21.0512 15.3606 21.1448 14.7607 21.5197L14.3975 21.7462L14.373 21.7618C13.9391 22.0331 13.5703 22.2632 13.2471 22.4259C12.9046 22.5982 12.563 22.7216 12.1738 22.7462C12.0581 22.7535 11.9419 22.7535 11.8262 22.7462C11.437 22.7216 11.0954 22.5982 10.7529 22.4259C10.4297 22.2632 10.0609 22.0331 9.62695 21.7618L9.60254 21.7462L9.23926 21.5197C8.63943 21.1448 8.47322 21.0512 8.31445 21.0099C8.10816 20.9562 7.89184 20.9562 7.68555 21.0099C7.52678 21.0512 7.36057 21.1448 6.76074 21.5197L6.74121 21.5314C6.39886 21.7454 6.10252 21.9311 5.85449 22.0587C5.60706 22.1861 5.30419 22.313 4.96289 22.3058C4.38587 22.2935 3.85226 21.9976 3.53613 21.5148C3.34916 21.2292 3.29659 20.9054 3.27344 20.6281C3.25 20.3472 3.25 19.9931 3.25 19.5841V7.93372C3.24997 6.57066 3.24995 5.47148 3.36621 4.60657C3.48723 3.70646 3.74672 2.94872 4.34863 2.3468C4.95055 1.74489 5.70829 1.4854 6.6084 1.36438C7.47331 1.24812 8.57249 1.24814 9.93555 1.24817H14.0645ZM15.707 7.29114C15.3165 6.90069 14.6835 6.90064 14.293 7.29114L8.29297 13.2911C7.90247 13.6816 7.90252 14.3147 8.29297 14.7052C8.68349 15.0957 9.31651 15.0957 9.70703 14.7052L15.707 8.7052C16.0976 8.31468 16.0976 7.68166 15.707 7.29114ZM15 12.9982C14.4477 12.9982 14 13.4459 14 13.9982C14 14.5505 14.4477 14.9982 15 14.9982C15.5523 14.9982 16 14.5505 16 13.9982C16 13.4459 15.5523 12.9982 15 12.9982ZM9 6.99817C8.44771 6.99817 8 7.44589 8 7.99817C8 8.55045 8.44772 8.99817 9 8.99817C9.55228 8.99817 10 8.55046 10 7.99817C10 7.44589 9.55228 6.99817 9 6.99817Z" fill="currentColor"/></svg>
