<svg xmlns="http://www.w3.org/2000/svg" viewBox="0 0 24 24" fill="none"><path d="M13.8213 13.8213C13.5077 14.5157 12.8114 15 12 15C10.8954 15 10 14.1046 10 13V10L13.8213 13.8213Z" fill="currentColor"/><path d="M12 3C13.1046 3 14 3.89543 14 5V9.75781L10 5.75781V5C10 3.89543 10.8954 3 12 3Z" fill="currentColor"/><path d="M12 21C13.1046 21 14 20.1046 14 19C14 17.8954 13.1046 17 12 17C10.8954 17 10 17.8954 10 19C10 20.1046 10.8954 21 12 21Z" fill="currentColor"/><path d="M3.29295 3.29295C3.68348 2.90243 4.31649 2.90243 4.70702 3.29295L20.707 19.293C21.0975 19.6835 21.0975 20.3165 20.707 20.707C20.3165 21.0975 19.6835 21.0975 19.293 20.707L3.29295 4.70702C2.90243 4.31649 2.90243 3.68348 3.29295 3.29295Z" fill="currentColor"/></svg>
