<svg xmlns="http://www.w3.org/2000/svg" viewBox="0 0 24 24" fill="none"><path d="M12 1.12497C12.9368 1.12497 13.8274 1.49857 14.6074 2.03903C15.3905 2.58161 16.1051 3.32052 16.707 4.13083C17.8925 5.72662 18.75 7.74958 18.75 9.3447C18.7499 10.7458 18.0945 11.9923 17.1426 12.9433C16.9765 13.1092 16.7918 13.2411 16.5967 13.3427C16.43 13.4295 16.3459 13.4725 16.2324 13.4414C16.1192 13.4102 16.0643 13.3224 15.9551 13.1465C15.8711 13.0112 15.7981 12.8803 15.7363 12.7568C15.2429 11.7699 14.1604 11.2238 13.0732 11.4121C12.8286 11.4545 12.5958 11.5317 12.3818 11.6386C12.1745 11.7422 12.0707 11.7938 12 11.7939C11.9292 11.7939 11.825 11.7425 11.6172 11.6386C11.4032 11.5317 11.1714 11.4545 10.9268 11.4121C9.8395 11.2236 8.7572 11.7699 8.26367 12.7568C8.20196 12.8802 8.12889 13.0112 8.04492 13.1465C7.93558 13.3226 7.88009 13.4103 7.7666 13.4414C7.65328 13.4723 7.56986 13.4295 7.40332 13.3427C7.20819 13.2411 7.02345 13.1092 6.85742 12.9433C5.90553 11.9923 5.25013 10.7458 5.25 9.3447C5.25 7.74958 6.10751 5.72662 7.29297 4.13083C7.89492 3.32052 8.60954 2.58161 9.39258 2.03903C10.1726 1.49857 11.0632 1.12497 12 1.12497ZM10.0029 7.87497C9.45064 7.87497 9.00293 8.32268 9.00293 8.87497C9.00293 9.42725 9.45064 9.87497 10.0029 9.87497H10.0117C10.564 9.87497 11.0117 9.42725 11.0117 8.87497C11.0117 8.32268 10.564 7.87497 10.0117 7.87497H10.0029ZM14.0029 7.87497C13.4506 7.87497 13.0029 8.32268 13.0029 8.87497C13.0029 9.42725 13.4506 9.87497 14.0029 9.87497H14.0117C14.564 9.87497 15.0117 9.42725 15.0117 8.87497C15.0117 8.32268 14.564 7.87497 14.0117 7.87497H14.0029Z" fill="currentColor"/><path d="M1 15.625C1 13.6614 2.44754 11.875 4.46041 11.875C5.01269 11.875 5.46041 12.3227 5.46041 12.875C5.46041 13.4273 5.01269 13.875 4.46041 13.875C3.75558 13.875 3 14.5509 3 15.625C3 16.1691 3.17345 16.5875 3.4492 16.8664C3.71943 17.1397 4.18291 17.375 4.95249 17.375C5.56823 17.375 6.47224 16.9481 7.43674 16.1173C8.36697 15.316 9.17294 14.293 9.60557 13.4278C9.80298 13.0329 10.2359 12.8143 10.6708 12.8897C11.1057 12.9651 11.4398 13.3167 11.4928 13.7549C11.7437 15.8303 11.6627 17.4726 11.0055 18.9291C10.351 20.3795 9.18782 21.5044 7.59342 22.6799C7.14889 23.0076 6.52285 22.9129 6.19511 22.4684C5.86737 22.0239 5.96205 21.3978 6.40658 21.0701C7.91241 19.9599 8.74106 19.0847 9.18245 18.1065C9.34824 17.7391 9.46834 17.337 9.54105 16.875C9.28516 17.1411 9.01726 17.3955 8.742 17.6326C7.67483 18.5519 6.30507 19.375 4.95249 19.375C3.75374 19.375 2.74098 18.9946 2.02705 18.2726C1.31863 17.5562 1 16.5996 1 15.625ZM18.5396 12.875C18.5396 12.3227 18.9873 11.875 19.5396 11.875C21.5524 11.875 23 13.6614 23 15.625C23 16.5996 22.6814 17.5562 21.9729 18.2726C21.259 18.9946 20.2462 19.375 19.0475 19.375C17.6949 19.375 16.3251 18.5519 15.258 17.6326C14.9827 17.3955 14.7148 17.1411 14.4589 16.875C14.5317 17.337 14.6518 17.7391 14.8175 18.1065C15.2589 19.0847 16.0876 19.9599 17.5934 21.0701C18.038 21.3978 18.1326 22.0239 17.8049 22.4684C17.4772 22.9129 16.8511 23.0076 16.4066 22.6799C14.8122 21.5044 13.649 20.3795 12.9945 18.9291C12.3373 17.4726 12.2563 15.8303 12.5072 13.7549C12.5602 13.3167 12.8943 12.9651 13.3292 12.8897C13.7641 12.8143 14.197 13.0329 14.3944 13.4278C14.8271 14.293 15.633 15.316 16.5632 16.1173C17.5277 16.9481 18.4317 17.375 19.0475 17.375C19.8171 17.375 20.2806 17.1397 20.5508 16.8664C20.8265 16.5875 21 16.1691 21 15.625C21 14.5509 20.2444 13.875 19.5396 13.875C18.9873 13.875 18.5396 13.4273 18.5396 12.875Z" fill="currentColor" fill-rule="evenodd" clip-rule="evenodd"/></svg>
