<svg xmlns="http://www.w3.org/2000/svg" viewBox="0 0 24 24" fill="none"><path d="M15 7.75C15.9665 7.75 16.75 6.9665 16.75 6C16.75 5.0335 15.9665 4.25 15 4.25C14.0335 4.25 13.25 5.0335 13.25 6C13.25 6.9665 14.0335 7.75 15 7.75Z" fill="currentColor"/><path d="M9 7.75C9.9665 7.75 10.75 6.9665 10.75 6C10.75 5.0335 9.9665 4.25 9 4.25C8.0335 4.25 7.25 5.0335 7.25 6C7.25 6.9665 8.0335 7.75 9 7.75Z" fill="currentColor"/><path d="M15 19.75C15.9665 19.75 16.75 18.9665 16.75 18C16.75 17.0335 15.9665 16.25 15 16.25C14.0335 16.25 13.25 17.0335 13.25 18C13.25 18.9665 14.0335 19.75 15 19.75Z" fill="currentColor"/><path d="M15 13.75C15.9665 13.75 16.75 12.9665 16.75 12C16.75 11.0335 15.9665 10.25 15 10.25C14.0335 10.25 13.25 11.0335 13.25 12C13.25 12.9665 14.0335 13.75 15 13.75Z" fill="currentColor"/><path d="M9 19.75C9.9665 19.75 10.75 18.9665 10.75 18C10.75 17.0335 9.9665 16.25 9 16.25C8.0335 16.25 7.25 17.0335 7.25 18C7.25 18.9665 8.0335 19.75 9 19.75Z" fill="currentColor"/><path d="M9 13.75C9.9665 13.75 10.75 12.9665 10.75 12C10.75 11.0335 9.9665 10.25 9 10.25C8.0335 10.25 7.25 11.0335 7.25 12C7.25 12.9665 8.0335 13.75 9 13.75Z" fill="currentColor"/></svg>
