<svg xmlns="http://www.w3.org/2000/svg" viewBox="0 0 24 24" fill="none"><path opacity="0.4" d="M12 22.75C17.9371 22.75 22.75 17.9371 22.75 12C22.75 6.06294 17.9371 1.25 12 1.25C6.06294 1.25 1.25 6.06294 1.25 12C1.25 17.9371 6.06294 22.75 12 22.75Z" fill="currentColor"/><path d="M11 12V8C11 7.44772 11.4477 7 12 7C12.5523 7 13 7.44772 13 8V12C13 12.5523 12.5523 13 12 13C11.4477 13 11 12.5523 11 12Z" fill="currentColor"/><path d="M12 14.75C12.5523 14.75 13 15.1977 13 15.75C13 16.3023 12.5523 16.75 12 16.75C11.4477 16.75 11 16.3023 11 15.75C11 15.1977 11.4477 14.75 12 14.75Z" fill="currentColor"/></svg>
