<svg xmlns="http://www.w3.org/2000/svg" viewBox="0 0 24 24" fill="none"><path d="M5 20.6639C5.57714 20.7246 6.24236 20.7431 7 20.7479V21.9999C7 22.552 6.55212 22.9997 6 22.9999C5.44788 22.9997 5 22.552 5 21.9999V20.6639ZM19 21.9999C19 22.552 18.5521 22.9997 18 22.9999C17.4479 22.9997 17 22.552 17 21.9999V20.7479C17.7576 20.7431 18.4229 20.7246 19 20.6639V21.9999ZM18.6943 1.0487C19.22 0.879971 19.7841 1.16863 19.9531 1.69421C20.1221 2.21983 19.8321 2.78282 19.3066 2.95202L12.1582 5.24988H7.9375C7.00045 5.24985 6.18268 5.25099 5.47852 5.29577L18.6943 1.0487Z" fill="currentColor" fill-rule="evenodd" clip-rule="evenodd"/><path opacity="0.4" d="M16.0625 5.25013H7.93751C6.57649 5.2501 5.46703 5.25007 4.59197 5.38733C3.66863 5.53216 2.90375 5.84356 2.30924 6.53716C1.72902 7.21408 1.482 8.0565 1.36477 9.07382C1.24998 10.0699 1.24999 11.3428 1.25 12.9515V13.0488C1.24999 14.6574 1.24998 15.9304 1.36477 16.9264C1.482 17.9438 1.72902 18.7862 2.30924 19.4631C2.90375 20.1567 3.66863 20.4681 4.59197 20.6129C5.46703 20.7502 6.57647 20.7502 7.93748 20.7501H16.0625C17.4235 20.7502 18.533 20.7502 19.408 20.6129C20.3314 20.4681 21.0963 20.1567 21.6908 19.4631C22.271 18.7862 22.518 17.9438 22.6352 16.9264C22.75 15.9304 22.75 14.6575 22.75 13.0488V12.9514C22.75 11.3428 22.75 10.0699 22.6352 9.07382C22.518 8.0565 22.271 7.21408 21.6908 6.53716C21.0963 5.84356 20.3314 5.53216 19.408 5.38733C18.533 5.25007 17.4235 5.2501 16.0625 5.25013Z" fill="currentColor"/><path d="M6 15.0001C6 14.4478 6.44772 14.0001 7 14.0001H7.00898C7.56127 14.0001 8.00898 14.4478 8.00898 15.0001C8.00898 15.5524 7.56127 16.0001 7.00898 16.0001H7C6.44772 16.0001 6 15.5524 6 15.0001Z" fill="currentColor" fill-rule="evenodd" clip-rule="evenodd"/><path d="M5 11.0001C5 10.4478 5.44772 10.0001 6 10.0001H9C9.55228 10.0001 10 10.4478 10 11.0001C10 11.5524 9.55228 12.0001 9 12.0001H6C5.44772 12.0001 5 11.5524 5 11.0001Z" fill="currentColor" fill-rule="evenodd" clip-rule="evenodd"/><path d="M15 9.50013C13.067 9.50013 11.5 11.0671 11.5 13.0001C11.5 14.9331 13.067 16.5001 15 16.5001C16.933 16.5001 18.5 14.9331 18.5 13.0001C18.5 11.0671 16.933 9.50013 15 9.50013Z" fill="currentColor"/></svg>
