<svg xmlns="http://www.w3.org/2000/svg" viewBox="0 0 24 24" fill="none"><path d="M5 20.6639C5.57714 20.7246 6.24236 20.7431 7 20.7479V21.9999C7 22.552 6.55212 22.9997 6 22.9999C5.44788 22.9997 5 22.552 5 21.9999V20.6639ZM19 21.9999C19 22.552 18.5521 22.9997 18 22.9999C17.4479 22.9997 17 22.552 17 21.9999V20.7479C17.7576 20.7431 18.4229 20.7246 19 20.6639V21.9999ZM18.6943 1.0487C19.22 0.879971 19.7841 1.16863 19.9531 1.69421C20.1221 2.21983 19.8321 2.78282 19.3066 2.95202L12.1582 5.24988H7.9375C7.00045 5.24985 6.18268 5.25099 5.47852 5.29577L18.6943 1.0487Z" fill="currentColor" fill-rule="evenodd" clip-rule="evenodd"/><path d="M16.0625 5.25013C17.4235 5.2501 18.5331 5.24959 19.4082 5.38685C20.3314 5.53167 21.096 5.84375 21.6904 6.53724C22.2706 7.21405 22.5175 8.05627 22.6348 9.07337C22.7495 10.0694 22.75 11.3427 22.75 12.9513V13.049C22.75 14.6575 22.7495 15.9308 22.6348 16.9269C22.5175 17.944 22.2706 18.7862 21.6904 19.463C21.096 20.1565 20.3314 20.4686 19.4082 20.6134C18.5331 20.7507 17.4235 20.7502 16.0625 20.7501H7.9375C6.57649 20.7502 5.46686 20.7507 4.5918 20.6134C3.66856 20.4686 2.90405 20.1565 2.30957 19.463C1.72945 18.7862 1.48249 17.944 1.36523 16.9269C1.25045 15.9309 1.24999 14.6575 1.25 13.049V12.9513C1.24999 11.3427 1.25045 10.0694 1.36523 9.07337C1.48249 8.05627 1.72945 7.21405 2.30957 6.53724C2.90405 5.84375 3.66856 5.53167 4.5918 5.38685C5.46686 5.24959 6.57649 5.2501 7.9375 5.25013H16.0625ZM15 9.50013C13.067 9.50013 11.5 11.0671 11.5 13.0001C11.5 14.9331 13.067 16.5001 15 16.5001C16.933 16.5001 18.5 14.9331 18.5 13.0001C18.5 11.0671 16.933 9.50013 15 9.50013ZM7 14.0001C6.44772 14.0001 6 14.4478 6 15.0001C6 15.5524 6.44772 16.0001 7 16.0001H7.00879C7.56107 16.0001 8.00879 15.5524 8.00879 15.0001C8.00879 14.4478 7.56107 14.0001 7.00879 14.0001H7ZM6 10.0001C5.44772 10.0001 5 10.4478 5 11.0001C5 11.5524 5.44772 12.0001 6 12.0001H9C9.55228 12.0001 10 11.5524 10 11.0001C10 10.4478 9.55228 10.0001 9 10.0001H6Z" fill="currentColor" fill-rule="evenodd" clip-rule="evenodd"/></svg>
