<svg xmlns="http://www.w3.org/2000/svg" viewBox="0 0 24 24" fill="none"><path opacity="0.4" d="M22.6729 7.08212C22.7559 6.772 22.75 6.41672 22.75 6.00009C22.75 5.58347 22.7559 5.22819 22.6729 4.91806C22.4648 4.1416 21.8585 3.53529 21.0821 3.32724C20.7719 3.24418 20.4167 3.25009 20 3.25009H4.00003C3.58341 3.25009 3.22813 3.24418 2.918 3.32724C2.14154 3.53529 1.53523 4.1416 1.32718 4.91806C1.24412 5.22819 1.25003 5.58347 1.25003 6.00009C1.25003 6.41672 1.24412 6.772 1.32718 7.08212C1.53523 7.85858 2.14154 8.46489 2.918 8.67294C3.22813 8.756 3.58341 8.75009 4.00003 8.75009H20C20.4167 8.75009 20.7719 8.756 21.0821 8.67294C21.8585 8.46489 22.4648 7.85858 22.6729 7.08212Z" fill="currentColor"/><path opacity="0.4" d="M7.00003 19.75V15.75C7.00003 15.1977 7.44775 14.75 8.00003 14.75C8.55232 14.75 9.00003 15.1977 9.00003 15.75V19.75C9.00003 20.3023 8.55232 20.75 8.00003 20.75C7.44775 20.75 7.00003 20.3023 7.00003 19.75ZM11 19.75V15.75C11 15.1977 11.4477 14.75 12 14.75C12.5523 14.75 13 15.1977 13 15.75V19.75C13 20.3023 12.5523 20.75 12 20.75C11.4477 20.75 11 20.3023 11 19.75ZM15 19.75V15.75C15 15.1977 15.4477 14.75 16 14.75C16.5523 14.75 17 15.1977 17 15.75V19.75C17 20.3023 16.5523 20.75 16 20.75C15.4477 20.75 15 20.3023 15 19.75Z" fill="currentColor"/><path d="M18.831 10C18.6422 10.363 18.4675 10.6825 18.2929 10.957C17.9657 11.4713 17.6096 11.885 17.1171 12.1895C16.6245 12.4938 16.0955 12.6277 15.4892 12.6904C14.9125 12.75 14.2087 12.75 13.3476 12.75H10.6523C9.79115 12.75 9.08726 12.75 8.51065 12.6904C7.90435 12.6277 7.37527 12.4939 6.88272 12.1895C6.39022 11.885 6.03415 11.4713 5.70694 10.957C5.53227 10.6825 5.35765 10.3631 5.16885 10H18.831Z" fill="currentColor"/></svg>
