<svg xmlns="http://www.w3.org/2000/svg" viewBox="0 0 24 24" fill="none"><path d="M22.6724 7.08212C22.7555 6.772 22.7495 6.41672 22.7495 6.00009C22.7495 5.58347 22.7555 5.22819 22.6724 4.91806C22.4643 4.1416 21.858 3.53529 21.0816 3.32724C20.7714 3.24418 20.4162 3.25009 19.9995 3.25009H3.99954C3.58292 3.25009 3.22764 3.24418 2.91751 3.32724C2.14105 3.53529 1.53474 4.1416 1.32669 4.91806C1.24363 5.22819 1.24954 5.58347 1.24954 6.00009C1.24954 6.41672 1.24363 6.772 1.32669 7.08212C1.53474 7.85858 2.14105 8.46489 2.91751 8.67294C3.22764 8.756 3.58292 8.75009 3.99954 8.75009H19.9995C20.4162 8.75009 20.7714 8.756 21.0816 8.67294C21.858 8.46489 22.4643 7.85858 22.6724 7.08212Z" fill="currentColor"/><path d="M6.99954 19.75V15.75C6.99954 15.1977 7.44726 14.75 7.99954 14.75C8.55183 14.75 8.99954 15.1977 8.99954 15.75V19.75C8.99954 20.3023 8.55183 20.75 7.99954 20.75C7.44726 20.75 6.99954 20.3023 6.99954 19.75ZM10.9995 19.75V15.75C10.9995 15.1977 11.4473 14.75 11.9995 14.75C12.5518 14.75 12.9995 15.1977 12.9995 15.75V19.75C12.9995 20.3023 12.5518 20.75 11.9995 20.75C11.4473 20.75 10.9995 20.3023 10.9995 19.75ZM14.9995 19.75V15.75C14.9995 15.1977 15.4473 14.75 15.9995 14.75C16.5518 14.75 16.9995 15.1977 16.9995 15.75V19.75C16.9995 20.3023 16.5518 20.75 15.9995 20.75C15.4473 20.75 14.9995 20.3023 14.9995 19.75Z" fill="currentColor"/><path d="M18.8305 10C18.6417 10.363 18.4671 10.6825 18.2924 10.957C17.9652 11.4713 17.6091 11.885 17.1166 12.1895C16.624 12.4938 16.095 12.6277 15.4887 12.6904C14.912 12.75 14.2083 12.75 13.3471 12.75H10.6518C9.79066 12.75 9.08677 12.75 8.51016 12.6904C7.90386 12.6277 7.37478 12.4939 6.88223 12.1895C6.38974 11.885 6.03366 11.4713 5.70645 10.957C5.53178 10.6825 5.35716 10.3631 5.16837 10H18.8305Z" fill="currentColor"/></svg>
