<svg xmlns="http://www.w3.org/2000/svg" viewBox="0 0 24 24" fill="none"><path opacity="0.4" d="M15.1943 16.4073C15.5217 15.9628 16.148 15.8673 16.5927 16.1944C17.0373 16.5219 17.1328 17.1482 16.8056 17.5929H16.8046V17.5948C16.8042 17.5954 16.8033 17.5959 16.8027 17.5968C16.801 17.5991 16.7979 17.6024 16.7949 17.6066C16.7887 17.6149 16.78 17.6272 16.7685 17.6427C16.7455 17.6736 16.7116 17.718 16.6689 17.7745C16.5836 17.8875 16.4614 18.0482 16.3115 18.2403C16.0123 18.6237 15.5995 19.138 15.1503 19.6554C14.7054 20.1679 14.2045 20.7061 13.7314 21.1241C13.4961 21.332 13.2445 21.5319 12.9912 21.6847C12.7652 21.8209 12.4102 22.0001 11.9999 22.0001C11.5897 22.0001 11.2347 21.8209 11.0087 21.6847C10.7554 21.5319 10.5038 21.332 10.2685 21.1241C9.79542 20.7061 9.29453 20.1679 8.84956 19.6554C8.40034 19.138 7.98757 18.6237 7.68842 18.2403C7.53844 18.0482 7.41632 17.8875 7.331 17.7745C7.28832 17.718 7.25442 17.6736 7.23139 17.6427C7.21988 17.6272 7.21119 17.6149 7.20503 17.6066C7.20198 17.6024 7.19987 17.5991 7.19819 17.5968C7.19737 17.5957 7.19575 17.5955 7.19526 17.5948V17.5929H7.19428C6.86714 17.1482 6.96267 16.5228 7.40717 16.1954C7.85187 15.8679 8.4781 15.9626 8.80561 16.4073L8.80659 16.4093C8.80775 16.4109 8.81008 16.4129 8.81245 16.4161C8.81747 16.4229 8.82468 16.4336 8.83491 16.4474C8.85555 16.4751 8.88677 16.5166 8.92671 16.5694C9.00657 16.6752 9.12211 16.8273 9.2646 17.0099C9.55071 17.3765 9.94038 17.8623 10.3593 18.3448C10.7826 18.8323 11.217 19.2941 11.5927 19.6261C11.7578 19.7719 11.8953 19.8744 11.9999 19.9425C12.1046 19.8744 12.2421 19.7719 12.4072 19.6261C12.7829 19.2941 13.2173 18.8323 13.6406 18.3448C14.0595 17.8623 14.4492 17.3765 14.7353 17.0099C14.8778 16.8273 14.9933 16.6752 15.0732 16.5694C15.1131 16.5166 15.1443 16.4751 15.165 16.4474C15.1752 16.4336 15.1824 16.4229 15.1874 16.4161C15.1898 16.4129 15.1921 16.4109 15.1933 16.4093L15.1943 16.4073Z" fill="currentColor"/><path opacity="0.4" d="M11.9999 2C12.4102 2 12.7652 2.17918 12.9912 2.31543C13.2445 2.46819 13.4961 2.66807 13.7314 2.87598C14.2045 3.29398 14.7054 3.83223 15.1503 4.34473C15.5995 4.86212 16.0123 5.37644 16.3115 5.75977C16.4614 5.95194 16.5836 6.11263 16.6689 6.22559C16.7116 6.28207 16.7455 6.32652 16.7685 6.35742C16.78 6.37287 16.7887 6.38523 16.7949 6.39355C16.7979 6.39768 16.801 6.40104 16.8027 6.40332C16.8033 6.40422 16.8042 6.40471 16.8046 6.40527V6.40723H16.8056C17.1328 6.8519 17.0373 7.47825 16.5927 7.80566C16.148 8.13284 15.5217 8.03735 15.1943 7.59277L15.1933 7.59082C15.1921 7.58925 15.1898 7.58718 15.1874 7.58398C15.1824 7.5772 15.1752 7.56646 15.165 7.55273C15.1443 7.52504 15.1131 7.48354 15.0732 7.43066C14.9933 7.32492 14.8778 7.17281 14.7353 6.99023C14.4492 6.62362 14.0595 6.1378 13.6406 5.65527C13.2173 5.16777 12.7829 4.70602 12.4072 4.37402C12.2418 4.22796 12.1047 4.12471 11.9999 4.05664C11.8952 4.12471 11.758 4.22797 11.5927 4.37402C11.217 4.70602 10.7826 5.16778 10.3593 5.65527C9.94038 6.13779 9.55071 6.62362 9.2646 6.99023C9.12211 7.17281 9.00657 7.32493 8.92671 7.43066C8.88677 7.48353 8.85555 7.52504 8.83491 7.55273C8.82468 7.56646 8.81747 7.5772 8.81245 7.58398C8.81008 7.58719 8.80775 7.58925 8.80659 7.59082L8.80561 7.59277L8.74018 7.67188C8.39993 8.04764 7.82412 8.11177 7.40717 7.80469C6.96267 7.47726 6.86714 6.85187 7.19428 6.40723H7.19526V6.40527C7.19575 6.40461 7.19737 6.40443 7.19819 6.40332C7.19987 6.40105 7.20198 6.39766 7.20503 6.39355C7.21119 6.38523 7.21988 6.37287 7.23139 6.35742C7.25442 6.32652 7.28832 6.28209 7.331 6.22559C7.41632 6.11263 7.53844 5.95195 7.68842 5.75977C7.98757 5.37645 8.40034 4.86211 8.84956 4.34473C9.29453 3.83223 9.79542 3.29398 10.2685 2.87598C10.5038 2.66808 10.7554 2.46819 11.0087 2.31543C11.2347 2.17919 11.5897 2.00001 11.9999 2Z" fill="currentColor"/><path d="M21 11C21.5523 11 22 11.4477 22 12C22 12.5523 21.5523 13 21 13H3C2.44772 13 2 12.5523 2 12C2 11.4477 2.44772 11 3 11H21Z" fill="currentColor"/></svg>
