<svg xmlns="http://www.w3.org/2000/svg" viewBox="0 0 24 24" fill="none"><path d="M15.1939 16.4073C15.5213 15.9628 16.1477 15.8673 16.5924 16.1944C17.0369 16.5219 17.1324 17.1482 16.8052 17.5929H16.8043V17.5948C16.8039 17.5954 16.803 17.5959 16.8023 17.5968C16.8006 17.5991 16.7976 17.6024 16.7945 17.6066C16.7883 17.6149 16.7797 17.6272 16.7681 17.6427C16.7451 17.6736 16.7112 17.718 16.6685 17.7745C16.5832 17.8875 16.4611 18.0482 16.3111 18.2403C16.012 18.6237 15.5992 19.138 15.15 19.6554C14.705 20.1679 14.2041 20.7061 13.731 21.1241C13.4957 21.332 13.2441 21.5319 12.9908 21.6847C12.7648 21.8209 12.4098 22.0001 11.9996 22.0001C11.5893 22.0001 11.2344 21.8209 11.0084 21.6847C10.755 21.5319 10.5034 21.332 10.2681 21.1241C9.79505 20.7061 9.29417 20.1679 8.84919 19.6554C8.39998 19.138 7.98721 18.6237 7.68806 18.2403C7.53807 18.0482 7.41595 17.8875 7.33064 17.7745C7.28796 17.718 7.25406 17.6736 7.23103 17.6427C7.21951 17.6272 7.21083 17.6149 7.20466 17.6066C7.20162 17.6024 7.1995 17.5991 7.19782 17.5968C7.197 17.5957 7.19538 17.5955 7.19489 17.5948V17.5929H7.19392C6.86677 17.1482 6.96231 16.5228 7.40681 16.1954C7.8515 15.8679 8.47773 15.9626 8.80525 16.4073L8.80622 16.4093C8.80738 16.4109 8.80971 16.4129 8.81208 16.4161C8.81711 16.4229 8.82431 16.4336 8.83454 16.4474C8.85518 16.4751 8.88641 16.5166 8.92634 16.5694C9.00621 16.6752 9.12175 16.8273 9.26423 17.0099C9.55034 17.3765 9.94001 17.8623 10.359 18.3448C10.7822 18.8323 11.2166 19.2941 11.5924 19.6261C11.7574 19.7719 11.8949 19.8744 11.9996 19.9425C12.1042 19.8744 12.2417 19.7719 12.4068 19.6261C12.7825 19.2941 13.2169 18.8323 13.6402 18.3448C14.0591 17.8623 14.4488 17.3765 14.7349 17.0099C14.8774 16.8273 14.993 16.6752 15.0728 16.5694C15.1128 16.5166 15.144 16.4751 15.1646 16.4474C15.1748 16.4336 15.1821 16.4229 15.1871 16.4161C15.1894 16.4129 15.1918 16.4109 15.1929 16.4093L15.1939 16.4073Z" fill="currentColor"/><path d="M11.9996 2C12.4098 2 12.7648 2.17918 12.9908 2.31543C13.2441 2.46819 13.4957 2.66807 13.731 2.87598C14.2041 3.29398 14.705 3.83223 15.15 4.34473C15.5992 4.86212 16.012 5.37644 16.3111 5.75977C16.4611 5.95194 16.5832 6.11263 16.6685 6.22559C16.7112 6.28207 16.7451 6.32652 16.7681 6.35742C16.7797 6.37287 16.7883 6.38523 16.7945 6.39355C16.7976 6.39768 16.8006 6.40104 16.8023 6.40332C16.803 6.40422 16.8039 6.40471 16.8043 6.40527V6.40723H16.8052C17.1324 6.8519 17.0369 7.47825 16.5924 7.80566C16.1477 8.13284 15.5213 8.03735 15.1939 7.59277L15.1929 7.59082C15.1918 7.58925 15.1894 7.58718 15.1871 7.58398C15.1821 7.5772 15.1748 7.56646 15.1646 7.55273C15.144 7.52504 15.1128 7.48354 15.0728 7.43066C14.993 7.32492 14.8774 7.17281 14.7349 6.99023C14.4488 6.62362 14.0591 6.1378 13.6402 5.65527C13.2169 5.16777 12.7825 4.70602 12.4068 4.37402C12.2415 4.22796 12.1043 4.12471 11.9996 4.05664C11.8949 4.12471 11.7577 4.22797 11.5924 4.37402C11.2166 4.70602 10.7822 5.16778 10.359 5.65527C9.94001 6.13779 9.55034 6.62362 9.26423 6.99023C9.12175 7.17281 9.00621 7.32493 8.92634 7.43066C8.88641 7.48353 8.85518 7.52504 8.83454 7.55273C8.82431 7.56646 8.81711 7.5772 8.81208 7.58398C8.80971 7.58719 8.80738 7.58925 8.80622 7.59082L8.80525 7.59277L8.73982 7.67188C8.39956 8.04764 7.82375 8.11177 7.40681 7.80469C6.96231 7.47726 6.86677 6.85187 7.19392 6.40723H7.19489V6.40527C7.19538 6.40461 7.197 6.40443 7.19782 6.40332C7.1995 6.40105 7.20162 6.39766 7.20466 6.39355C7.21083 6.38523 7.21951 6.37287 7.23103 6.35742C7.25406 6.32652 7.28796 6.28209 7.33064 6.22559C7.41595 6.11263 7.53807 5.95195 7.68806 5.75977C7.98721 5.37645 8.39998 4.86211 8.84919 4.34473C9.29417 3.83223 9.79505 3.29398 10.2681 2.87598C10.5034 2.66808 10.755 2.46819 11.0084 2.31543C11.2344 2.17919 11.5893 2.00001 11.9996 2Z" fill="currentColor"/><path d="M20.9996 11C21.5519 11 21.9996 11.4477 21.9996 12C21.9996 12.5523 21.5519 13 20.9996 13H2.99963C2.44735 13 1.99963 12.5523 1.99963 12C1.99963 11.4477 2.44735 11 2.99963 11H20.9996Z" fill="currentColor"/></svg>
