<svg xmlns="http://www.w3.org/2000/svg" viewBox="0 0 24 24" fill="none"><path d="M11.0001 20V4C11.0001 3.44772 11.4478 3 12.0001 3C12.5524 3 13.0001 3.44772 13.0001 4V20C13.0001 20.5523 12.5524 21 12.0001 21C11.4478 21 11.0001 20.5523 11.0001 20Z" fill="currentColor"/><path d="M6.00012 20V4C6.00012 3.44772 6.44784 3 7.00012 3C7.55241 3 8.00012 3.44772 8.00012 4V20C8.00012 20.5523 7.55241 21 7.00012 21C6.44784 21 6.00012 20.5523 6.00012 20Z" fill="currentColor"/><path d="M16.0001 20V4C16.0001 3.44772 16.4478 3 17.0001 3C17.5524 3 18.0001 3.44772 18.0001 4V20C18.0001 20.5523 17.5524 21 17.0001 21C16.4478 21 16.0001 20.5523 16.0001 20Z" fill="currentColor"/></svg>
