<svg xmlns="http://www.w3.org/2000/svg" viewBox="0 0 24 24" fill="none"><path opacity="0.4" d="M11.019 2.22727C11.019 1.68754 11.4565 1.25 11.9963 1.25C17.9343 1.25 22.7463 6.06364 22.7463 12C22.7463 17.9364 17.9343 22.75 11.9963 22.75C11.4565 22.75 11.019 22.3125 11.019 21.7727C11.019 21.233 11.4565 20.7955 11.9963 20.7955C16.8546 20.7955 20.7917 16.8571 20.7917 12C20.7917 7.14292 16.8546 3.20455 11.9963 3.20455C11.4565 3.20455 11.019 2.76701 11.019 2.22727ZM9.46372 2.54417C9.66203 3.04615 9.41586 3.61385 8.91387 3.81216C8.02613 4.16287 7.19506 4.63334 6.46046 5.20245C6.03379 5.533 5.41994 5.45508 5.08939 5.02841C4.75884 4.60174 4.83676 3.98789 5.26343 3.65734C6.1486 2.97158 7.14181 2.41068 8.19573 1.99433C8.69771 1.79602 9.26541 2.04219 9.46372 2.54417ZM4.00653 6.22586C4.46487 6.51088 4.60538 7.11349 4.32036 7.57183C3.75995 8.47304 3.37214 9.45814 3.18423 10.4652C3.08523 10.9958 2.57486 11.3457 2.04429 11.2467C1.51371 11.1477 1.16385 10.6373 1.26285 10.1067C1.49725 8.85047 1.9775 7.63814 2.66056 6.5397C2.94558 6.08136 3.54819 5.94085 4.00653 6.22586ZM2.04429 12.7533C2.57486 12.6543 3.08523 13.0042 3.18423 13.5348C3.37214 14.5419 3.75995 15.527 4.32036 16.4282C4.60538 16.8865 4.46487 17.4891 4.00653 17.7741C3.54819 18.0592 2.94558 17.9186 2.66056 17.4603C1.9775 16.3619 1.49725 15.1495 1.26285 13.8933C1.16385 13.3627 1.51371 12.8523 2.04429 12.7533ZM5.09371 18.9661C5.42732 18.5418 6.04171 18.4683 6.46599 18.8019C7.19476 19.3749 8.02232 19.8382 8.91213 20.1878C9.41449 20.3851 9.66175 20.9523 9.46441 21.4547C9.26706 21.9571 8.69984 22.2043 8.19748 22.007C7.14562 21.5938 6.14891 21.0389 5.2579 20.3383C4.83361 20.0047 4.7601 19.3903 5.09371 18.9661Z" fill="currentColor" fill-rule="evenodd" clip-rule="evenodd"/><path d="M12.0012 6.75C13.8642 6.75019 15.6412 7.86371 16.3869 9.62891C17.0841 11.2791 16.6964 12.6971 15.9309 13.8711C15.3106 14.8224 14.403 15.6683 13.6282 16.3906C13.4923 16.5173 13.361 16.6408 13.2356 16.7598C12.9022 17.0759 12.4591 17.2499 12.0012 17.25C11.5431 17.25 11.0994 17.076 10.7659 16.7598L10.7649 16.7578C10.6327 16.6318 10.4928 16.5009 10.3489 16.3662C9.58168 15.6484 8.68537 14.8105 8.07152 13.8711C7.30505 12.6981 6.91651 11.2811 7.61449 9.62891C8.36028 7.86356 10.138 6.75 12.0012 6.75ZM11.9905 9.75C11.0272 9.75018 10.2463 10.5336 10.2463 11.5C10.2463 12.4664 11.0272 13.2498 11.9905 13.25H12.0022C12.9655 13.2498 13.7463 12.4664 13.7463 11.5C13.7463 10.5336 12.9655 9.75018 12.0022 9.75H11.9905Z" fill="currentColor" fill-rule="evenodd" clip-rule="evenodd"/></svg>
