<svg xmlns="http://www.w3.org/2000/svg" viewBox="0 0 24 24" fill="none"><path d="M11.9974 6.75C13.8604 6.75019 15.6374 7.86371 16.3831 9.62891C17.0802 11.2791 16.6925 12.6971 15.927 13.8711C15.3068 14.8224 14.3992 15.6683 13.6243 16.3906C13.4884 16.5173 13.3572 16.6408 13.2317 16.7598C12.8983 17.0759 12.4553 17.2499 11.9974 17.25C11.5393 17.25 11.0955 17.076 10.762 16.7598L10.761 16.7578C10.6289 16.6318 10.489 16.5009 10.345 16.3662C9.57784 15.6484 8.68153 14.8105 8.06767 13.8711C7.3012 12.6981 6.91267 11.2811 7.61064 9.62891C8.35644 7.86356 10.1342 6.75 11.9974 6.75ZM11.9866 9.75C11.0233 9.75018 10.2425 10.5336 10.2425 11.5C10.2425 12.4664 11.0233 13.2498 11.9866 13.25H11.9983C12.9616 13.2498 13.7425 12.4664 13.7425 11.5C13.7425 10.5336 12.9616 9.75018 11.9983 9.75H11.9866Z" fill="currentColor" fill-rule="evenodd" clip-rule="evenodd"/><path d="M20.7916 12C20.7916 7.14292 16.8545 3.20455 11.9962 3.20455C11.3926 3.20455 10.8041 3.26491 10.2363 3.38015C9.70747 3.4875 9.19094 3.14637 9.08342 2.61761C8.97607 2.08873 9.31809 1.5722 9.84692 1.46473C10.5421 1.32362 11.2611 1.25 11.9962 1.25C17.9341 1.25 22.7462 6.06364 22.7462 12C22.7462 17.9364 17.9341 22.75 11.9962 22.75C11.2611 22.75 10.5421 22.6764 9.84692 22.5353C9.31809 22.4278 8.97607 21.9113 9.08342 21.3824C9.19094 20.8536 9.70747 20.5125 10.2363 20.6199C10.8041 20.7351 11.3926 20.7955 11.9962 20.7955C16.8545 20.7955 20.7916 16.8571 20.7916 12ZM3.29518 16.559C3.7456 16.2621 4.35128 16.3865 4.64848 16.8367C5.30637 17.8339 6.16228 18.6898 7.15942 19.3477C7.60967 19.6449 7.73403 20.2506 7.43714 20.701C7.1399 21.1515 6.5334 21.2759 6.08289 20.9787C4.8652 20.1753 3.82089 19.131 3.01746 17.9133C2.72022 17.4628 2.84467 16.8563 3.29518 16.559ZM1.24615 12C1.24615 11.265 1.31978 10.5459 1.46089 9.85076C1.56835 9.32194 2.08489 8.97991 2.61376 9.08727C3.14252 9.19479 3.48365 9.71131 3.3763 10.2401C3.26107 10.8079 3.2007 11.3964 3.2007 12C3.2007 12.6036 3.26107 13.1921 3.3763 13.7599C3.48365 14.2887 3.14252 14.8052 2.61376 14.9127C2.08489 15.0201 1.56835 14.6781 1.46089 14.1492C1.31978 13.4541 1.24615 12.735 1.24615 12ZM6.08289 3.02131C6.5334 2.72407 7.1399 2.84852 7.43714 3.29903C7.73403 3.74945 7.60967 4.35513 7.15942 4.65232C6.16228 5.31021 5.30637 6.16613 4.64848 7.16326C4.35128 7.61351 3.7456 7.73787 3.29518 7.44098C2.84467 7.14375 2.72022 6.53725 3.01746 6.08674C3.82089 4.86904 4.8652 3.82474 6.08289 3.02131Z" fill="currentColor"/></svg>
