<svg xmlns="http://www.w3.org/2000/svg" viewBox="0 0 24 24" fill="none"><path opacity="0.4" d="M12 22.75C17.9371 22.75 22.75 17.9371 22.75 12C22.75 6.06294 17.9371 1.25 12 1.25C6.06294 1.25 1.25 6.06294 1.25 12C1.25 17.9371 6.06294 22.75 12 22.75Z" fill="currentColor"/><path d="M15.4003 14.5497C15.649 14.2185 16.1189 14.1516 16.4501 14.4003C16.7812 14.649 16.8481 15.1189 16.5995 15.4501C15.5518 16.845 13.8814 17.7499 11.9999 17.7499C10.1183 17.7499 8.44793 16.845 7.40026 15.4501C7.15159 15.1189 7.2185 14.649 7.54967 14.4003C7.88087 14.1516 8.35075 14.2185 8.59948 14.5497C9.37606 15.5836 10.6101 16.2499 11.9999 16.2499C13.3896 16.2499 14.6237 15.5836 15.4003 14.5497Z" fill="currentColor"/><path d="M8.00002 7.25C8.95938 7.25 9.71995 7.86253 10.1533 8.63184C10.3566 8.99269 10.229 9.45 9.86818 9.65332C9.50732 9.85659 9.05002 9.72897 8.8467 9.36816C8.59598 8.92308 8.26736 8.75 8.00002 8.75C7.73268 8.75 7.40405 8.92308 7.15334 9.36816C6.95001 9.72897 6.49271 9.85659 6.13185 9.65332C5.77105 9.45 5.64343 8.99269 5.8467 8.63184C6.28009 7.86253 7.04066 7.25 8.00002 7.25ZM16 7.25C16.9594 7.25 17.7199 7.86253 18.1533 8.63184C18.3566 8.99269 18.229 9.45 17.8682 9.65332C17.5073 9.85659 17.05 9.72897 16.8467 9.36816C16.596 8.92308 16.2674 8.75 16 8.75C15.7327 8.75 15.4041 8.92308 15.1533 9.36816C14.95 9.72897 14.4927 9.85659 14.1319 9.65332C13.771 9.45 13.6434 8.99269 13.8467 8.63184C14.2801 7.86253 15.0407 7.25 16 7.25Z" fill="currentColor"/></svg>
