<svg xmlns="http://www.w3.org/2000/svg" viewBox="0 0 24 24" fill="none"><path d="M12 22.75C17.9371 22.75 22.75 17.9371 22.75 12C22.75 6.06294 17.9371 1.25 12 1.25C6.06294 1.25 1.25 6.06294 1.25 12C1.25 17.9371 6.06294 22.75 12 22.75ZM9.86816 9.65332C9.50731 9.85658 9.05 9.72897 8.84668 9.36816C8.59597 8.92309 8.26734 8.75 8 8.75C7.73266 8.75001 7.40403 8.92309 7.15332 9.36816C6.95 9.72897 6.49269 9.85659 6.13184 9.65332C5.77104 9.45 5.64342 8.99269 5.84668 8.63184C6.28007 7.86253 7.04065 7.25001 8 7.25C8.95936 7.25 9.71993 7.86253 10.1533 8.63184C10.3566 8.99269 10.229 9.45 9.86816 9.65332ZM17.8682 9.65332C17.5073 9.85658 17.05 9.72897 16.8467 9.36816C16.596 8.92309 16.2673 8.75 16 8.75C15.7327 8.75001 15.404 8.92309 15.1533 9.36816C14.95 9.72897 14.4927 9.85659 14.1318 9.65332C13.771 9.45 13.6434 8.99269 13.8467 8.63184C14.2801 7.86253 15.0406 7.25001 16 7.25C16.9594 7.25 17.7199 7.86253 18.1533 8.63184C18.3566 8.99269 18.229 9.45 17.8682 9.65332ZM12 17.75C10.1185 17.75 8.44807 16.845 7.40039 15.4502C7.15172 15.119 7.21863 14.6491 7.5498 14.4004C7.881 14.1517 8.35089 14.2186 8.59961 14.5498C9.37619 15.5836 10.6103 16.25 12 16.25C13.3897 16.25 14.6238 15.5837 15.4004 14.5498C15.6491 14.2186 16.119 14.1517 16.4502 14.4004C16.7812 14.6491 16.8482 15.119 16.5996 15.4502C15.552 16.8451 13.8815 17.75 12 17.75Z" fill="currentColor"/></svg>
