<svg xmlns="http://www.w3.org/2000/svg" viewBox="0 0 24 24" fill="none"><path opacity="0.4" d="M4.12514 7.87871V8.87871V8.92615C4.12511 9.82666 4.12509 10.5778 4.20522 11.1736C4.28967 11.8012 4.47543 12.3677 4.9308 12.823C5.38636 13.2785 5.95329 13.4642 6.58119 13.5486C7.17729 13.6288 7.92849 13.6287 8.82961 13.6287H8.87611H11.1925H11.2336C11.9883 13.6287 12.618 13.6287 13.1242 13.5711C13.655 13.5106 14.1434 13.3788 14.5675 13.0486C14.7469 12.9091 14.9084 12.7475 15.048 12.5682C15.378 12.1443 15.51 11.6562 15.5705 11.1258C15.6281 10.6199 15.6281 9.99029 15.6281 9.23616V9.19414C15.6281 8.41542 15.5185 7.72199 15.3605 7.28496L15.3214 7.19609L15.2257 7.03008C14.9873 6.65298 14.6374 6.33874 14.2072 5.94023L12.5372 4.39433C12.0112 3.90709 11.6114 3.5199 11.0968 3.31816C10.792 3.19868 10.3809 3.16407 10.0431 3.14726C9.67538 3.12898 9.25758 3.12871 8.87611 3.12871H8.87221H8.82963C7.9285 3.12868 7.1773 3.12867 6.58119 3.20879C5.95329 3.29319 5.38636 3.47895 4.9308 3.93437C4.47543 4.3897 4.28967 4.9562 4.20522 5.58379C4.12509 6.17959 4.12511 6.93075 4.12514 7.83127V7.87871Z" fill="currentColor"/><path opacity="0.4" d="M14.879 22.6248C16.9503 22.6247 18.63 20.946 18.63 18.8748C18.63 16.8036 16.9503 15.1249 14.879 15.1248H4.87611C2.80478 15.1248 1.12514 16.8035 1.12514 18.8748C1.12514 20.9461 2.80478 22.6248 4.87611 22.6248H14.879Z" fill="currentColor"/><path d="M9.87514 17.8748C10.4274 17.8748 10.8751 18.3225 10.8751 18.8748C10.8751 19.4271 10.4274 19.8748 9.87514 19.8748C9.32285 19.8748 8.87514 19.4271 8.87514 18.8748C8.87514 18.3225 9.32285 17.8748 9.87514 17.8748Z" fill="currentColor"/><path d="M5.37514 17.8748C5.92742 17.8748 6.37514 18.3225 6.37514 18.8748C6.37514 19.4271 5.92742 19.8748 5.37514 19.8748C4.82285 19.8748 4.37514 19.4271 4.37514 18.8748C4.37514 18.3225 4.82285 17.8748 5.37514 17.8748Z" fill="currentColor"/><path d="M14.3751 17.8748C14.9274 17.8748 15.3751 18.3225 15.3751 18.8748C15.3751 19.4271 14.9274 19.8748 14.3751 19.8748C13.8229 19.8748 13.3751 19.4271 13.3751 18.8748C13.3751 18.3225 13.8228 17.8748 14.3751 17.8748Z" fill="currentColor"/><path d="M18.1759 1.1248C19.5284 1.12497 20.6251 2.22154 20.6251 3.57402V9.29863C21.7897 9.71082 22.6251 10.8191 22.6251 12.1248C22.6251 13.7816 21.2818 15.1246 19.6251 15.1248C17.9683 15.1248 16.6251 13.7817 16.6251 12.1248C16.6251 11.5725 17.0729 11.1248 17.6251 11.1248C18.1427 11.125 18.5689 11.5182 18.6203 12.0223L18.63 12.2273C18.6814 12.7315 19.1075 13.1248 19.6251 13.1248C20.1773 13.1246 20.6251 12.677 20.6251 12.1248C20.6251 11.6072 20.2317 11.1812 19.7277 11.1297L19.5226 11.1199C19.0185 11.0686 18.6251 10.6425 18.6251 10.1248V3.57402C18.6251 3.32611 18.4238 3.12497 18.1759 3.1248C18.0662 3.12484 17.9602 3.16529 17.8781 3.23808L14.5148 6.22636C14.4176 6.13479 14.315 6.04007 14.2072 5.94023L13.0412 4.86113L16.549 1.74297C16.9972 1.34472 17.5763 1.12484 18.1759 1.1248Z" fill="currentColor"/></svg>
