<svg xmlns="http://www.w3.org/2000/svg" viewBox="0 0 24 24" fill="none"><g transform="scale(0.5)"><g> <path fill="currentColor" d="M11.467 34.385c2.356 0 4.085 0.067 5.19 0.13 1.316 0.076 2.42 1.057 2.55 2.423 0.076 0.804 0.144 1.924 0.144 3.364s-0.068 2.56 -0.144 3.363c-0.13 1.366 -1.234 2.347 -2.55 2.423 -1.105 0.063 -2.834 0.13 -5.19 0.13s-4.085 -0.067 -5.19 -0.13c-1.316 -0.076 -2.421 -1.057 -2.55 -2.423a35.955 35.955 0 0 1 -0.144 -3.363c0 -1.44 0.068 -2.56 0.144 -3.364 0.129 -1.366 1.234 -2.347 2.55 -2.422a91.826 91.826 0 0 1 5.19 -0.131m0 -22.385a2 2 0 0 1 2 2v7.316a2 2 0 0 1 -2 2 2.342 2.342 0 1 0 2.342 2.342 2 2 0 0 1 4 0 6.342 6.342 0 1 1 -8.342 -6.018V14a2 2 0 0 1 2 -2"></path> <path fill="currentColor" d="M22.897 6.664c11.056 0 18.966 0.094 21.81 0.134 0.857 0.012 2.277 0.34 2.685 1.722 0.247 0.833 0.203 1.748 0.015 2.584a7.652 7.652 0 0 1 -0.99 2.381c-0.64 1.007 -1.757 1.367 -2.707 1.381 -1.258 0.02 -3.52 0.048 -6.695 0.074 0.024 0.119 0.045 0.234 0.059 0.346 1.025 8.117 1.763 23.899 1.506 29.994a1.5 1.5 0 0 1 -1.5 1.437h-8.795c-0.75 0 -1.376 -0.551 -1.485 -1.277l-0.014 -0.148c-0.259 -5.171 0.482 -21.788 1.507 -30.003a4.22 4.22 0 0 1 0.047 -0.3c-1.696 0.005 -3.512 0.009 -5.443 0.009 -10.274 0 -15.682 -0.082 -17.84 -0.125 -0.964 -0.02 -1.977 -0.394 -2.656 -1.244a11.001 11.001 0 0 1 -1.416 -2.283C0.624 10.542 0.352 9.602 0.462 8.709c0.094 -0.764 0.576 -1.266 1.09 -1.546 0.488 -0.266 1.047 -0.361 1.523 -0.37 2.505 -0.04 9.098 -0.129 19.822 -0.129" opacity="0.4"></path> <path fill="currentColor" d="M37.26 2.238A3.568 3.568 0 0 1 40.816 5.5c0.244 2.663 0.244 6.213 0 8.876 -0.171 1.872 -1.704 3.207 -3.509 3.291 -1.134 0.053 -2.699 0.1 -4.697 0.1 -1.885 0 -3.384 -0.041 -4.5 -0.09a3.777 3.777 0 0 1 -3.623 -3.533 54.733 54.733 0 0 1 -0.128 -3.665c0 -1.486 0.07 -2.647 0.149 -3.483a3.502 3.502 0 0 1 2.302 -2.98c2.938 -1.064 6.89 -1.789 10.45 -1.777Z"></path> </g></g></svg>
