<svg xmlns="http://www.w3.org/2000/svg" viewBox="0 0 24 24" fill="none"><g transform="scale(0.5)"><g> <path stroke="currentColor" stroke-linecap="round" d="M37.08 45.218c0.254 -5.998 -0.478 -21.694 -1.494 -29.742a3.604 3.604 0 0 0 -0.101 -0.507m-7.201 30.25c-0.253 -5.064 0.48 -21.591 1.496 -29.743 0.022 -0.172 0.055 -0.342 0.1 -0.507" stroke-width="4"></path> <path stroke="currentColor" d="m26.661 13.998 -2.66 0.002c-10.27 0 -15.671 -0.081 -17.82 -0.124 -0.733 -0.015 -1.439 -0.297 -1.896 -0.87 -0.967 -1.21 -1.882 -2.916 -1.727 -4.172 0.09 -0.736 0.896 -1.026 1.637 -1.038 2.499 -0.042 9.086 -0.13 19.805 -0.13l2 0.001m12.77 6.263c1.858 -0.02 3.19 -0.042 4.038 -0.057 0.737 -0.014 1.465 -0.292 1.862 -0.914 0.78 -1.22 1.236 -2.92 0.864 -4.162 -0.212 -0.71 -0.99 -0.989 -1.732 -1.001a726.74 726.74 0 0 0 -4.473 -0.059" stroke-width="4"></path> <path stroke="currentColor" d="M26.116 12.588a2.484 2.484 0 0 0 2.39 2.329c1.015 0.044 2.384 0.082 4.11 0.082 1.828 0 3.257 -0.042 4.288 -0.09 1.202 -0.056 2.18 -0.932 2.29 -2.13 0.219 -2.397 0.219 -5.613 0 -8.01a2.293 2.293 0 0 0 -2.291 -2.1c-3.168 -0.012 -6.7 0.637 -9.3 1.579a2.233 2.233 0 0 0 -1.47 1.904c-0.07 0.74 -0.133 1.78 -0.133 3.122 0 1.238 0.053 2.388 0.116 3.314Z" stroke-width="4"></path> <path stroke="currentColor" stroke-linecap="round" stroke-linejoin="round" d="M15.809 25.658a4.342 4.342 0 1 1 -4.342 -4.341V14" stroke-width="4"></path> <path stroke="currentColor" d="M4.722 43.571c0.08 0.848 0.762 1.47 1.612 1.519 1.086 0.062 2.796 0.129 5.133 0.129s4.046 -0.067 5.133 -0.13c0.85 -0.048 1.531 -0.67 1.611 -1.518 0.073 -0.772 0.14 -1.861 0.14 -3.27 0 -1.407 -0.067 -2.497 -0.14 -3.269 -0.08 -0.847 -0.761 -1.47 -1.611 -1.518a90.82 90.82 0 0 0 -5.133 -0.13 90.82 90.82 0 0 0 -5.133 0.13c-0.85 0.048 -1.531 0.67 -1.612 1.518 -0.073 0.772 -0.139 1.862 -0.139 3.27s0.066 2.497 0.14 3.27Z" stroke-width="4"></path> </g></g></svg>
