<svg xmlns="http://www.w3.org/2000/svg" viewBox="0 0 24 24" fill="none"><g transform="scale(0.5)"><g> <path fill="currentColor" d="M37.5125 19.417c0.7834 8.5208 1.2857 20.6858 1.0673 25.8633 -0.034 0.8029 -0.6954 1.4363 -1.499 1.4365h-8.7959c-0.7492 -0.0001 -1.3761 -0.5508 -1.4844 -1.2773l-0.0146 -0.1475c-0.2203 -4.4067 0.2869 -17.1245 1.0752 -25.8721 0.2645 0.0462 0.5347 0.0778 0.8096 0.0899 0.9914 0.0435 2.308 0.0791 3.9501 0.0791l1.2374 -0.0069c1.1687 -0.0135 2.1317 -0.0448 2.8886 -0.08l0.2725 -0.0196c0.1657 -0.0151 0.3302 -0.0373 0.4932 -0.0654M11.4666 34.3848c2.3559 0 4.085 0.0676 5.1904 0.1308 1.3153 0.0755 2.4205 1.0566 2.5498 2.4229 0.076 0.8033 0.1435 1.9238 0.1435 3.3633 0 1.4394 -0.0675 2.5599 -0.1435 3.3632 -0.1292 1.3664 -1.2345 2.3474 -2.5498 2.4229 -1.1054 0.0633 -2.8345 0.1309 -5.1904 0.1309 -2.35608 -0.0001 -4.0852 -0.0676 -5.19048 -0.1309 -1.31521 -0.0756 -2.42058 -1.0567 -2.5498 -2.4229 -0.07597 -0.8033 -0.14356 -1.9239 -0.14356 -3.3632 0.00001 -1.4395 0.06759 -2.56 0.14356 -3.3633 0.12927 -1.3662 1.23462 -2.3473 2.5498 -2.4229 1.10528 -0.0632 2.8344 -0.1308 5.19048 -0.1308M22.783 6.95508l-0.0245 0.21484c-0.0751 0.80123 -0.1386 1.88047 -0.1386 3.23628l0.0088 0.9141c0.0178 0.8912 0.0597 1.7095 0.1064 2.3975 0.03 0.4415 0.1062 0.8694 0.2217 1.2793 -0.0198 0 -0.0398 0.0009 -0.0596 0.0009 -3.7731 0 -6.89 -0.0141 -9.4306 -0.0302v6.3486c0 1.1046 -0.8955 2 -2 2 -1.2931 0.0002 -2.34174 1.0487 -2.34184 2.3418 0 1.2932 1.04864 2.3416 2.34184 2.3418 1.2932 0 2.3417 -1.0485 2.3417 -2.3418 0.0001 -1.1044 0.8957 -1.9998 2 -2 1.1045 0.0001 1.9999 0.8956 2 2 0 3.5024 -2.8393 6.3418 -6.3417 6.3418 -3.50234 -0.0002 -6.34184 -2.8395 -6.34184 -6.3418 0.00008 -2.8033 1.81973 -5.1808 4.34179 -6.0186v-4.705c-2.09124 -0.0224 -3.52387 -0.0437 -4.40918 -0.0616 -0.96438 -0.0195 -1.97708 -0.3938 -2.65625 -1.2441 -0.52554 -0.658 -1.04501 -1.4581 -1.416013 -2.2832 -0.36124 -0.8035 -0.63359 -1.74411 -0.523437 -2.63672 0.094466 -0.7639 0.5761 -1.26647 1.08984 -1.54589 0.48883 -0.26579 1.04759 -0.36118 1.52344 -0.36914 2.49948 -0.04145 9.07075 -0.12952 19.75485 -0.12989 -0.0173 0.09638 -0.0341 0.19326 -0.0468 0.29102m13.7822 -3.54102c1.5809 0.00549 2.8744 1.19562 3.0185 2.7666 0.1572 1.71647 0.194 3.86834 0.1123 5.79394 -0.0254 0.609 -0.0626 1.1954 -0.1123 1.7383 -0.0084 0.0925 -0.0217 0.1833 -0.038 0.2725 -0.0018 0.0094 -0.0031 0.0189 -0.0049 0.0283 -0.0152 0.0786 -0.0347 0.1555 -0.0557 0.2314 -0.0078 0.0286 -0.0159 0.0568 -0.0244 0.085 -0.0153 0.0497 -0.0311 0.099 -0.0488 0.1474 -0.424 1.1763 -1.5336 1.9679 -2.8047 2.0274 -0.4811 0.0224 -1.0536 0.0432 -1.7178 0.0586 -0.6644 0.0154 -1.4206 0.0254 -2.2686 0.0254l-1.1386 -0.0059c-0.7176 -0.0078 -1.3536 -0.0228 -1.9082 -0.041 -0.2775 -0.0091 -0.5347 -0.0189 -0.7715 -0.0293 -0.0877 -0.0039 -0.1742 -0.0125 -0.2598 -0.0234 -0.0251 -0.0031 -0.0502 -0.0062 -0.0752 -0.0098 -0.0668 -0.0102 -0.1328 -0.0232 -0.1982 -0.0371 -0.9315 -0.1958 -1.7087 -0.7842 -2.1514 -1.5938 -0.0183 -0.0334 -0.0356 -0.0674 -0.0527 -0.1015 -0.0367 -0.0733 -0.0704 -0.1482 -0.1016 -0.2246 -0.0077 -0.0189 -0.016 -0.0376 -0.0234 -0.0567 -0.0181 -0.0468 -0.0359 -0.0937 -0.0518 -0.1416 -0.0153 -0.0456 -0.0287 -0.092 -0.042 -0.1387 -0.0096 -0.034 -0.0197 -0.068 -0.0283 -0.1025 -0.0191 -0.0763 -0.0352 -0.1539 -0.0488 -0.2324 -0.0039 -0.0227 -0.0073 -0.0455 -0.0108 -0.0684 -0.0133 -0.0879 -0.0241 -0.1772 -0.0302 -0.2676 -0.0588 -0.8661 -0.1084 -1.9455 -0.1084 -3.1084 0 -0.1176 0.0029 -0.2328 0.0039 -0.3457 0.0096 -1.09688 0.0618 -1.96715 0.122 -2.6103 0.0185 -0.19666 0.057 -0.38783 0.1114 -0.57227 0.0034 -0.01167 0.0061 -0.02355 0.0097 -0.03516 0.2718 -0.88179 0.938 -1.59685 1.8331 -1.92089 2.4922 -0.9021 5.8453 -1.51817 8.8652 -1.50782m8.1426 3.38379c0.856 0.01195 2.2757 0.33972 2.6845 1.72168 0.2464 0.83357 0.2026 1.74877 0.0147 2.58397 -0.1899 0.8436 -0.5422 1.6776 -0.9903 2.3819 -0.6403 1.0061 -1.757 1.3664 -2.707 1.3808 -0.3517 0.0053 -0.7822 0.0101 -1.289 0.0166 0.07 -0.2889 0.1221 -0.5879 0.1503 -0.8965 0.198 -2.1623 0.2192 -4.91713 0.0665 -7.21482 0.8532 0.01005 1.5473 0.01908 2.0703 0.02637"></path> </g></g></svg>
