<svg xmlns="http://www.w3.org/2000/svg" viewBox="0 0 24 24" fill="none"><path d="M12 1.25C15.0376 1.25 17.5 3.71243 17.5 6.75V8.52734C19.0676 9.0071 20.2509 10.3866 20.4756 12.0557C20.6237 13.1559 20.75 14.312 20.75 15.5C20.75 16.688 20.6237 17.8441 20.4756 18.9443C20.204 20.9613 18.5327 22.5558 16.4746 22.6504C15.0462 22.7161 13.5958 22.75 12 22.75C10.4042 22.75 8.95376 22.7161 7.52539 22.6504C5.46733 22.5558 3.79598 20.9613 3.52441 18.9443C3.37629 17.8441 3.25 16.688 3.25 15.5C3.25 14.312 3.37629 13.1559 3.52441 12.0557C3.74914 10.3866 4.93236 9.0071 6.5 8.52734V6.75C6.5 3.71243 8.96243 1.25 12 1.25ZM11.9932 14C11.1685 14.0001 10.5 14.6716 10.5 15.5C10.5 16.3284 11.1685 16.9999 11.9932 17H12.0068C12.8315 16.9999 13.5 16.3284 13.5 15.5C13.5 14.6716 12.8315 14.0001 12.0068 14H11.9932ZM12 3.25C10.067 3.25 8.5 4.817 8.5 6.75V8.31055C9.61773 8.27087 10.7654 8.25 12 8.25C13.2346 8.25 14.3823 8.27087 15.5 8.31055V6.75C15.5 4.817 13.933 3.25 12 3.25Z" fill="currentColor"/></svg>
