<svg xmlns="http://www.w3.org/2000/svg" viewBox="0 0 24 24" fill="none"><path d="M6.00001 2C6.37726 2 6.69142 2.16356 6.87208 2.27246C7.08018 2.39791 7.28251 2.55861 7.46485 2.71973C7.83171 3.04393 8.21545 3.45737 8.55177 3.84473C8.8924 4.23707 9.20471 4.62647 9.43067 4.91602C9.54408 5.06133 9.63652 5.18294 9.70118 5.26855C9.73353 5.31139 9.75881 5.34556 9.77638 5.36914C9.78515 5.38091 9.79212 5.39006 9.79689 5.39648C9.79913 5.39951 9.80143 5.40154 9.80274 5.40332L9.8047 5.40625V5.40723H9.80567C10.1329 5.8519 10.0374 6.47825 9.59278 6.80566C9.14811 7.13284 8.52176 7.03735 8.19435 6.59277V6.5918C8.19359 6.59078 8.19212 6.58918 8.19044 6.58691L8.10548 6.47363C8.04626 6.39523 7.96042 6.28222 7.8545 6.14648C7.64155 5.87361 7.35145 5.51281 7.04103 5.15527C6.72643 4.79295 6.41016 4.45593 6.14064 4.21777C6.08903 4.17218 6.04135 4.13447 6.00001 4.10156C5.9588 4.13437 5.91178 4.17235 5.86036 4.21777C5.59081 4.45594 5.27363 4.79291 4.95899 5.15527C4.64857 5.5128 4.35847 5.87361 4.14552 6.14648C4.03959 6.28222 3.95376 6.39523 3.89454 6.47363L3.80958 6.58691C3.8079 6.58918 3.80643 6.59078 3.80567 6.5918V6.59277L3.74024 6.67188C3.39999 7.04764 2.82418 7.11177 2.40724 6.80469C1.96274 6.47726 1.8672 5.85187 2.19435 5.40723H2.19532V5.40625C2.19572 5.4057 2.19661 5.40423 2.19728 5.40332C2.19859 5.40155 2.20089 5.39952 2.20313 5.39648C2.20789 5.39006 2.21488 5.3809 2.22364 5.36914C2.24121 5.34556 2.26649 5.31139 2.29884 5.26855C2.3635 5.18294 2.45593 5.06134 2.56935 4.91602C2.79531 4.62647 3.10761 4.23707 3.44825 3.84473C3.78456 3.45739 4.16832 3.04392 4.53517 2.71973C4.71751 2.55861 4.91984 2.39791 5.12794 2.27246C5.3086 2.16356 5.62275 2.00001 6.00001 2Z" fill="currentColor"/><path d="M17.1954 14.4073C17.5228 13.9628 18.1482 13.8673 18.5928 14.1944V14.1954H18.5938C18.5943 14.1958 18.5958 14.1967 18.5967 14.1973C18.5985 14.1986 18.6005 14.201 18.6036 14.2032C18.61 14.208 18.6191 14.2149 18.6309 14.2237C18.6545 14.2413 18.6887 14.2665 18.7315 14.2989C18.8171 14.3636 18.9387 14.456 19.084 14.5694C19.3736 14.7954 19.763 15.1077 20.1553 15.4483C20.5427 15.7846 20.9561 16.1684 21.2803 16.5352C21.4414 16.7176 21.6021 16.9199 21.7276 17.128C21.8365 17.3087 22 17.6228 22 18.0001C22 18.3773 21.8365 18.6915 21.7276 18.8721C21.6021 19.0802 21.4414 19.2826 21.2803 19.4649C20.9561 19.8318 20.5427 20.2155 20.1553 20.5518C19.763 20.8925 19.3736 21.2048 19.084 21.4307C18.9387 21.5441 18.8171 21.6366 18.7315 21.7012C18.6887 21.7336 18.6545 21.7589 18.6309 21.7764C18.6191 21.7852 18.61 21.7922 18.6036 21.7969C18.6005 21.7992 18.5985 21.8015 18.5967 21.8028L18.5938 21.8048H18.5928V21.8057C18.1481 22.1329 17.5218 22.0374 17.1944 21.5928C16.8672 21.1482 16.9627 20.5218 17.4073 20.1944H17.4082C17.4093 20.1937 17.4109 20.1922 17.4131 20.1905L17.5264 20.1055C17.6048 20.0463 17.7178 19.9605 17.8536 19.8546C18.1264 19.6416 18.4872 19.3515 18.8448 19.0411C19.2071 18.7265 19.5441 18.4102 19.7823 18.1407C19.8277 18.0893 19.8647 18.0413 19.8975 18.0001C19.8648 17.959 19.8275 17.9116 19.7823 17.8604C19.5441 17.5909 19.2071 17.2737 18.8448 16.9591C18.4872 16.6486 18.1264 16.3585 17.8536 16.1456C17.7178 16.0397 17.6048 15.9538 17.5264 15.8946L17.4131 15.8096C17.4109 15.808 17.4093 15.8065 17.4082 15.8057H17.4073C16.9626 15.4782 16.8678 14.852 17.1954 14.4073Z" fill="currentColor"/><path opacity="0.4" d="M5.00006 10V4C5.00006 3.44772 5.44778 3 6.00006 3C6.55235 3 7.00006 3.44772 7.00006 4V10C7.00006 11.9139 7.00235 13.2487 7.13776 14.2559C7.2693 15.2342 7.50996 15.7521 7.87897 16.1211C8.24798 16.4901 8.76586 16.7308 9.7442 16.8623C10.7513 16.9977 12.0862 17 14.0001 17H20.0001C20.5523 17 21.0001 17.4477 21.0001 18C21.0001 18.5523 20.5523 19 20.0001 19H14.0001C12.1427 19 10.649 19.0022 9.4776 18.8447C8.27751 18.6834 7.26744 18.3377 6.46491 17.5352C5.66238 16.7326 5.3167 15.7226 5.15534 14.5225C4.99785 13.3511 5.00006 11.8573 5.00006 10Z" fill="currentColor"/><path d="M11.7929 10.7929C12.1834 10.4024 12.8164 10.4024 13.207 10.7929C13.5975 11.1834 13.5975 11.8164 13.207 12.207L8.76654 16.6464C8.37362 16.5135 8.09922 16.3414 7.87885 16.121C7.65825 15.9004 7.48544 15.6259 7.35248 15.2323L11.7929 10.7929Z" fill="currentColor"/></svg>
