<svg xmlns="http://www.w3.org/2000/svg" viewBox="0 0 24 24" fill="none"><path d="M5.99949 2C6.3767 2 6.69089 2.16356 6.87156 2.27246C7.07964 2.3979 7.282 2.55862 7.46433 2.71973C7.83117 3.04392 8.21494 3.45738 8.55125 3.84473C8.89187 4.23706 9.20419 4.62647 9.43015 4.91602C9.54354 5.06131 9.636 5.18294 9.70066 5.26855C9.733 5.31137 9.75829 5.34556 9.77586 5.36914C9.78461 5.38089 9.7916 5.39006 9.79636 5.39648C9.79859 5.39949 9.80091 5.40155 9.80222 5.40332L9.80418 5.40625V5.40723H9.80515C10.1323 5.8519 10.0368 6.47825 9.59226 6.80566C9.14759 7.1328 8.52123 7.03733 8.19383 6.59277V6.5918C8.19307 6.59078 8.19158 6.58916 8.18992 6.58691L8.10496 6.47363C8.04574 6.39523 7.95989 6.2822 7.85398 6.14648C7.64103 5.87361 7.35091 5.51279 7.0405 5.15527C7.02687 5.13957 7.01313 5.124 6.99949 5.1084V10C6.99949 11.9139 7.00178 13.2487 7.13718 14.2559C7.19008 14.6493 7.26258 14.9677 7.35203 15.2324L11.7925 10.793C12.1829 10.4025 12.816 10.4026 13.2065 10.793C13.597 11.1835 13.597 11.8165 13.2065 12.207L8.76609 16.6465C9.03109 16.7361 9.34959 16.8093 9.74363 16.8623C10.7507 16.9977 12.0857 17 13.9995 17H18.8901C18.8747 16.9865 18.8597 16.9724 18.8442 16.959C18.4867 16.6486 18.1259 16.3584 17.853 16.1455C17.7173 16.0396 17.6042 15.9537 17.5259 15.8945L17.4126 15.8096C17.4104 15.8079 17.4087 15.8064 17.4077 15.8057H17.4067C16.9621 15.4781 16.8673 14.8519 17.1948 14.4072C17.5222 13.9628 18.1476 13.8673 18.5923 14.1943V14.1953H18.5932C18.5938 14.1957 18.5953 14.1966 18.5962 14.1973C18.5979 14.1986 18.6 14.2009 18.603 14.2031C18.6094 14.2079 18.6186 14.2149 18.6303 14.2236C18.6539 14.2412 18.6882 14.2665 18.7309 14.2988C18.8165 14.3635 18.9382 14.456 19.0835 14.5693C19.373 14.7953 19.7625 15.1076 20.1548 15.4482C20.5421 15.7845 20.9556 16.1683 21.2798 16.5352C21.4409 16.7175 21.6016 16.9199 21.727 17.1279C21.8359 17.3086 21.9995 17.6228 21.9995 18C21.9995 18.3772 21.8359 18.6914 21.727 18.8721C21.6016 19.0802 21.4409 19.2825 21.2798 19.4648C20.9556 19.8317 20.5421 20.2154 20.1548 20.5518C19.7624 20.8924 19.373 21.2047 19.0835 21.4307C18.9382 21.5441 18.8165 21.6365 18.7309 21.7012C18.6881 21.7335 18.6539 21.7588 18.6303 21.7764C18.6186 21.7851 18.6094 21.7921 18.603 21.7969C18.6 21.7991 18.5979 21.8014 18.5962 21.8027L18.5932 21.8047H18.5923V21.8057C18.1476 22.1328 17.5212 22.0373 17.1938 21.5928C16.8667 21.1481 16.9622 20.5217 17.4067 20.1943H17.4077C17.4087 20.1936 17.4103 20.1921 17.4126 20.1904L17.5259 20.1055C17.6043 20.0463 17.7173 19.9604 17.853 19.8545C18.1259 19.6415 18.4867 19.3514 18.8442 19.041C18.8597 19.0275 18.8747 19.0135 18.8901 19H13.9995C12.1422 19 10.6484 19.0022 9.47703 18.8447C8.27699 18.6834 7.26684 18.3377 6.46433 17.5352C5.66185 16.7326 5.31612 15.7225 5.15476 14.5225C4.99728 13.3511 4.99949 11.8573 4.99949 10V5.1084C4.98586 5.12399 4.9721 5.13958 4.95847 5.15527C4.64806 5.51279 4.35794 5.87362 4.145 6.14648C4.03908 6.2822 3.95323 6.39524 3.89402 6.47363L3.80906 6.58691C3.80739 6.58917 3.8059 6.59078 3.80515 6.5918V6.59277L3.73972 6.67188C3.39947 7.04761 2.82365 7.11176 2.40672 6.80469C1.96227 6.47726 1.86672 5.85185 2.19383 5.40723H2.1948V5.40625C2.1952 5.40571 2.19609 5.40423 2.19675 5.40332C2.19806 5.40155 2.20038 5.3995 2.20261 5.39648C2.20737 5.39007 2.21437 5.38088 2.22312 5.36914C2.24069 5.34557 2.26598 5.31137 2.29832 5.26855C2.36298 5.18295 2.45542 5.06133 2.56883 4.91602C2.79478 4.62648 3.1071 4.23706 3.44773 3.84473C3.78403 3.4574 4.16781 3.04391 4.53465 2.71973C4.71698 2.55862 4.91934 2.39791 5.12742 2.27246C5.30806 2.16357 5.62227 2.00003 5.99949 2Z" fill="currentColor" fill-rule="evenodd" clip-rule="evenodd"/></svg>
