<svg xmlns="http://www.w3.org/2000/svg" viewBox="0 0 24 24" fill="none"><path d="M13.5008 5.25C15.1739 5.25012 16.7618 6.26574 17.4265 7.86426C18.0478 9.35863 17.7014 10.6443 17.0213 11.7041C16.3766 12.7086 15.381 13.5831 14.6502 14.2871C14.3415 14.5843 13.9289 14.7499 13.5008 14.75C13.0728 14.75 12.6609 14.5841 12.3523 14.2871L12.3504 14.2852C11.6235 13.5808 10.626 12.7064 9.98122 11.7041C9.30013 10.6452 8.95289 9.36049 9.57497 7.86426C10.2398 6.26573 11.8275 5.25003 13.5008 5.25ZM13.4998 8C12.6715 8.00012 11.9998 8.67165 11.9998 9.5C11.9998 10.3284 12.6715 10.9999 13.4998 11C14.3282 11 14.9998 10.3284 14.9998 9.5C14.9998 8.67157 14.3282 8 13.4998 8Z" fill="currentColor" fill-rule="evenodd" clip-rule="evenodd"/><path d="M12 1.25C17.9371 1.25 22.75 6.06294 22.75 12C22.75 17.9371 17.9371 22.75 12 22.75C9.39131 22.75 7.00038 21.8199 5.13867 20.2744L10.4668 14.9473L15.5596 20.04C18.6427 18.6731 20.7947 15.5888 20.7949 11.999C20.7949 7.14143 16.8566 3.20312 11.999 3.20312C8.40947 3.20331 5.3241 5.35462 3.95703 8.4375L9.05273 13.5332L3.72461 18.8604C2.17965 16.9988 1.25 14.6082 1.25 12C1.25 6.06294 6.06294 1.25 12 1.25Z" fill="currentColor"/></svg>
