<svg xmlns="http://www.w3.org/2000/svg" viewBox="0 0 24 24" fill="none"><path d="M7.0004 1.25C10.176 1.25 12.7504 3.82436 12.7504 7C12.7504 9.47221 11.1899 11.5791 9.0004 12.3916V13.124C9.0004 13.3596 9.00034 14.4761 9.02676 14.5898C9.03641 14.6309 9.04912 14.6714 9.06387 14.7109C9.10437 14.8194 9.16966 14.9175 9.3002 15.1133L9.32755 15.1543C9.59745 15.5591 9.73213 15.762 9.76505 15.9834C9.78224 16.0992 9.7789 16.2173 9.75528 16.332C9.7101 16.5512 9.56378 16.7456 9.27188 17.1348L9.19571 17.2363C8.961 17.5493 8.84352 17.7061 8.79239 17.876C8.73588 18.0638 8.73593 18.2643 8.79239 18.4521C8.84351 18.622 8.96104 18.7789 9.19571 19.0918C9.46394 19.4494 9.59827 19.6283 9.64786 19.8193C9.70261 20.0306 9.68702 20.2546 9.60294 20.4561C9.52681 20.6381 9.36819 20.7963 9.05215 21.1123L8.41446 21.75C7.74785 22.4166 7.41459 22.75 7.0004 22.75C6.68968 22.75 6.42424 22.5627 6.02969 22.1875L5.58633 21.75C5.29738 21.461 5.1527 21.3165 5.07657 21.1328C5.00046 20.9491 5.0004 20.7446 5.0004 20.3359V12.3916C2.81092 11.5791 1.2504 9.47221 1.2504 7C1.2504 3.82436 3.82476 1.25 7.0004 1.25ZM7.0004 5.25C6.03389 5.25 5.2504 6.03351 5.2504 7C5.2504 7.9665 6.0339 8.75 7.0004 8.75C7.96689 8.75 8.7504 7.9665 8.7504 7C8.7504 6.0335 7.96689 5.25 7.0004 5.25Z" fill="currentColor"/><path d="M20.6635 13.2783C20.3508 13.25 19.9691 13.25 19.5268 13.25H13.1586C12.2158 13.25 11.7444 13.25 11.4515 13.5429C11.1586 13.8358 11.1586 14.3072 11.1586 15.25V17.75C11.1586 18.6928 11.1586 19.1642 11.4515 19.4571C11.7444 19.75 12.2158 19.75 13.1586 19.75H19.5268C19.9691 19.75 20.3508 19.75 20.6635 19.7217C20.9925 19.6918 21.3183 19.6255 21.6254 19.4482C21.9673 19.2508 22.2512 18.9669 22.4486 18.625C22.6259 18.3179 22.6922 17.9921 22.7221 17.6631C22.7504 17.3504 22.7504 16.9687 22.7504 16.5264V16.4736C22.7504 16.0313 22.7504 15.6496 22.7221 15.3369C22.6922 15.0079 22.6259 14.6821 22.4486 14.375C22.2512 14.0331 21.9673 13.7492 21.6254 13.5518C21.3183 13.3745 20.9925 13.3082 20.6635 13.2783Z" fill="currentColor"/><path d="M19.5268 4.25C19.9691 4.24999 20.3508 4.24998 20.6635 4.27832C20.9925 4.30817 21.3183 4.37447 21.6254 4.55176C21.9673 4.74921 22.2512 5.03306 22.4486 5.375L22.5102 5.49121C22.642 5.76376 22.696 6.04904 22.7221 6.33691C22.7504 6.64959 22.7504 7.03134 22.7504 7.47363V7.52637C22.7504 7.96866 22.7504 8.35041 22.7221 8.66309C22.696 8.95096 22.642 9.23624 22.5102 9.50879L22.4486 9.625C22.2512 9.96694 21.9673 10.2508 21.6254 10.4482C21.3183 10.6255 20.9925 10.6918 20.6635 10.7217C20.3508 10.75 19.9691 10.75 19.5268 10.75H14.6262C14.0198 10.75 13.7166 10.75 13.5972 10.5796C13.4777 10.4092 13.5912 10.0964 13.8182 9.47078C14.0979 8.70002 14.2504 7.86807 14.2504 7C14.2504 6.44513 14.1877 5.90497 14.0694 5.38596C13.9424 4.82942 13.879 4.55115 13.9991 4.40057C14.1192 4.25 14.3803 4.25 14.9024 4.25H19.5268Z" fill="currentColor"/></svg>
