<svg xmlns="http://www.w3.org/2000/svg" viewBox="0 0 24 24" fill="none"><path d="M12.0004 1.25C12.5527 1.25 13.0004 1.69772 13.0004 2.25V3.25H15.056C15.6495 3.25 16.1472 3.24976 16.5541 3.2793C16.9705 3.30957 17.3681 3.37525 17.7513 3.5459C18.5067 3.88225 19.1115 4.48031 19.4515 5.22754C19.624 5.60674 19.6905 6.00008 19.7211 6.41211C19.7509 6.81451 19.7504 7.30662 19.7504 7.89355C19.7504 8.84161 19.7513 9.60549 19.7054 10.2236C19.6588 10.8511 19.56 11.405 19.3236 11.9248C18.8379 12.9924 17.9731 13.8476 16.8939 14.3281C16.7582 14.3885 16.6199 14.4388 16.4789 14.4824C19.0368 16.0096 20.7504 18.8044 20.7504 22C20.7504 22.4142 20.4146 22.75 20.0004 22.75H4.00037C3.58615 22.75 3.25037 22.4142 3.25037 22C3.25037 18.8047 4.96333 16.0097 7.52087 14.4824C7.38019 14.4389 7.24225 14.3884 7.10681 14.3281C6.02762 13.8476 5.16288 12.9924 4.67712 11.9248C4.4407 11.405 4.34286 10.8511 4.29626 10.2236C4.2504 9.60549 4.25037 8.84161 4.25037 7.89355C4.25037 7.30662 4.24981 6.81451 4.27966 6.41211C4.31026 6.00008 4.37669 5.60674 4.54919 5.22754C4.8892 4.48031 5.49404 3.88225 6.24939 3.5459C6.63267 3.37525 7.0302 3.30957 7.44666 3.2793C7.85348 3.24976 8.35127 3.25 8.9447 3.25H11.0004V2.25C11.0004 1.69772 11.4481 1.25 12.0004 1.25ZM8.9447 5.16699C8.32295 5.16699 7.90865 5.16726 7.58923 5.19043C7.28012 5.21288 7.136 5.2527 7.04529 5.29297C6.72151 5.43712 6.46152 5.69436 6.3158 6.01465C6.27505 6.10437 6.23402 6.24664 6.2113 6.55273C6.18787 6.8687 6.18787 7.2785 6.18787 7.89355C6.18787 8.86984 6.18846 9.55132 6.22791 10.083C6.26667 10.6051 6.3399 10.9083 6.4447 11.1387C6.73612 11.7788 7.25364 12.2918 7.90076 12.5801C8.13363 12.6838 8.44038 12.7556 8.96814 12.7939C9.50559 12.833 10.1942 12.833 11.181 12.833H12.8197C13.8066 12.833 14.4951 12.833 15.0326 12.7939C15.5604 12.7556 15.8671 12.6838 16.1 12.5801C16.7471 12.2918 17.2646 11.7788 17.556 11.1387C17.6608 10.9083 17.7341 10.6051 17.7728 10.083C17.8123 9.55132 17.8129 8.86984 17.8129 7.89355C17.8129 7.2785 17.8129 6.8687 17.7894 6.55273C17.7667 6.24664 17.7257 6.10437 17.6849 6.01465C17.5392 5.69436 17.2792 5.43712 16.9554 5.29297C16.8647 5.2527 16.7206 5.21288 16.4115 5.19043C16.0921 5.16726 15.6778 5.16699 15.056 5.16699H8.9447ZM9.35291 7.25488C9.85703 7.30621 10.2504 7.73232 10.2504 8.25C10.2504 8.80229 9.80265 9.25 9.25037 9.25C8.69808 9.25 8.25037 8.80228 8.25037 8.25C8.25037 7.69772 8.69808 7.25 9.25037 7.25L9.35291 7.25488ZM14.8529 7.25488C15.357 7.30621 15.7504 7.73232 15.7504 8.25C15.7504 8.80229 15.3026 9.25 14.7504 9.25C14.1981 9.25 13.7504 8.80228 13.7504 8.25C13.7504 7.69772 14.1981 7.25 14.7504 7.25L14.8529 7.25488Z" fill="currentColor"/></svg>
