<svg xmlns="http://www.w3.org/2000/svg" viewBox="0 0 24 24" fill="none"><path opacity="0.4" d="M1.25009 7.94443V11.0001V11.066C1.25007 13.3701 1.25006 15.1763 1.43955 16.586C1.63379 18.0308 2.03985 19.1707 2.93466 20.0655C3.82947 20.9603 4.96942 21.3664 6.41415 21.5606C7.82385 21.7501 9.63009 21.7501 11.9342 21.7501H12.0001H13.2501H13.2835C15.0075 21.7501 16.3584 21.7501 17.4337 21.6407C18.5283 21.5294 19.4202 21.2986 20.1944 20.7813C20.8223 20.3618 21.3618 19.8223 21.7813 19.1944C22.2986 18.4202 22.5294 17.5283 22.6407 16.4337C22.7501 15.3584 22.7501 14.0075 22.7501 12.2835V12.2501V12.2263C22.7501 11.1998 22.7501 10.3729 22.6827 9.71005C22.6135 9.02964 22.467 8.43911 22.1183 7.91708C21.8447 7.50762 21.4926 7.15552 21.0831 6.88193C20.5611 6.53322 19.9705 6.38669 19.2901 6.31747C18.6273 6.25008 17.8004 6.25008 16.7739 6.25009H16.7501H12.464L12.0372 5.39755C11.5503 4.42364 10.9535 3.04736 9.46298 2.48837C8.7959 2.23822 8.04912 2.25009 6.94443 2.25009L6.9283 2.25009C6.04108 2.25009 5.32644 2.25009 4.75009 2.30087C4.16041 2.35285 3.64421 2.46271 3.17294 2.72568C2.5657 3.06455 2.06456 3.56569 1.72568 4.17294C1.46271 4.64421 1.35285 5.1604 1.30087 5.75009C1.25009 6.32644 1.25009 7.0411 1.25009 7.92833V7.94443Z" fill="currentColor"/><path d="M12.0001 11.25C13.1657 11.25 14.1594 11.9762 14.5597 13H18.0001C18.5524 13 19.0001 13.4477 19.0001 14C19.0001 14.5523 18.5524 15 18.0001 15H14.5597C14.1594 16.0238 13.1657 16.75 12.0001 16.75C10.8345 16.75 9.84081 16.0238 9.44052 15H6.00009C5.44781 15 5.00009 14.5523 5.00009 14C5.00009 13.4477 5.44781 13 6.00009 13H9.44052C9.84081 11.9762 10.8345 11.25 12.0001 11.25Z" fill="currentColor"/></svg>
