<svg xmlns="http://www.w3.org/2000/svg" viewBox="0 0 24 24" fill="none"><path d="M6.94443 2.25009C8.0491 2.25009 8.7959 2.23823 9.46298 2.48837C10.9535 3.04734 11.5503 4.42365 12.0372 5.39755L12.464 6.25009H16.7735C17.8 6.25008 18.6273 6.25008 19.2901 6.31747C19.9705 6.38669 20.5611 6.53324 21.0831 6.88193C21.4925 7.15551 21.8447 7.50764 22.1183 7.91708C22.4669 8.43909 22.6135 9.02967 22.6827 9.71005C22.7501 10.3729 22.7501 11.2002 22.7501 12.2267V12.2833C22.7501 14.0073 22.7501 15.3584 22.6407 16.4337C22.5294 17.5282 22.2986 18.4202 21.7813 19.1944C21.3618 19.8223 20.8223 20.3618 20.1944 20.7813C19.4202 21.2986 18.5283 21.5294 17.4337 21.6407C16.3584 21.7501 15.0073 21.7501 13.2833 21.7501H11.9347C9.63054 21.7501 7.82385 21.7501 6.41415 21.5606C4.96942 21.3664 3.82947 20.9603 2.93466 20.0655C2.03988 19.1707 1.63378 18.0307 1.43955 16.586C1.25008 15.1764 1.25007 13.3704 1.25009 11.0665V7.9288C1.25009 7.04156 1.25009 6.32644 1.30087 5.75009C1.35286 5.16044 1.46273 4.64419 1.72568 4.17294C2.06456 3.56572 2.56572 3.06454 3.17294 2.72568C3.6442 2.46273 4.16042 2.35285 4.75009 2.30087C5.32633 2.2501 6.04083 2.25009 6.92783 2.25009H6.94443ZM12.0001 11.2501C10.8345 11.2501 9.84081 11.9763 9.44052 13.0001H6.00009C5.44781 13.0001 5.00009 13.4478 5.00009 14.0001C5.00009 14.5524 5.44781 15.0001 6.00009 15.0001H9.44052C9.84081 16.0239 10.8345 16.7501 12.0001 16.7501C13.1657 16.7501 14.1594 16.0239 14.5597 15.0001H18.0001C18.5524 15.0001 19.0001 14.5524 19.0001 14.0001C19.0001 13.4478 18.5524 13.0001 18.0001 13.0001H14.5597C14.1594 11.9763 13.1657 11.2501 12.0001 11.2501Z" fill="currentColor" fill-rule="evenodd" clip-rule="evenodd"/></svg>
