<svg xmlns="http://www.w3.org/2000/svg" viewBox="0 0 24 24" fill="none"><path d="M13.6373 1.416C13.7353 1.45076 13.8314 1.49075 13.9251 1.53582C14.3799 1.75449 14.7362 2.11356 15.1387 2.51921L19.9215 7.32686L19.9215 7.32686C20.3889 7.79521 20.8036 8.21088 21.0277 8.75463C21.1265 8.99435 21.1816 9.24282 21.2122 9.50258H19.2314C17.8638 9.5026 17.2152 9.50181 16.3483 9.38525C15.4481 9.26424 14.6903 9.00534 14.0884 8.40343C13.4864 7.80151 13.2275 7.04364 13.1065 6.14353C12.9902 5.27834 12.9902 4.63063 12.9902 3.2688V3.26877V1.27734C13.2136 1.30042 13.4283 1.34184 13.6373 1.416Z" fill="currentColor"/><path d="M5.25 18.498C5.25 17.7734 5.57199 17.1876 5.93066 16.7559C6.28546 16.3288 6.7269 15.9898 7.09668 15.7363C7.49322 15.4643 7.75 15.0111 7.75 14.498C7.75 13.6696 7.07842 12.998 6.25 12.998C5.42158 12.998 4.75 13.6696 4.75 14.498C4.75 15.0503 4.30228 15.498 3.75 15.498C3.19772 15.498 2.75 15.0503 2.75 14.498C2.75 12.565 4.31702 10.998 6.25 10.998C8.18298 10.998 9.75 12.565 9.75 14.498C9.75 15.6986 9.14415 16.7578 8.22656 17.3867C7.91323 17.6015 7.64885 17.8174 7.46875 18.0342C7.29259 18.2463 7.25 18.3943 7.25 18.498C7.25 19.0503 6.80228 19.498 6.25 19.498C5.69772 19.498 5.25 19.0503 5.25 18.498Z" fill="currentColor"/><path d="M6.25 20.748C6.80228 20.748 7.25 21.1958 7.25 21.748C7.25 22.3003 6.80228 22.748 6.25 22.748C5.69772 22.748 5.25 22.3003 5.25 21.748C5.25 21.1958 5.69771 20.748 6.25 20.748Z" fill="currentColor"/><path opacity="0.4" d="M12.0896 1.24815L12.0879 1.24815C10.5624 1.24813 9.15452 1.24856 8.17578 1.36338C7.16314 1.48223 6.29458 1.7355 5.55957 2.33116C5.29006 2.54963 5.0445 2.79657 4.82715 3.06749C4.23462 3.80621 3.98252 4.67866 3.86426 5.69639C3.75 6.6801 3.74998 7.91694 3.75 9.4503V10.4591C4.4762 10.0087 5.33262 9.74815 6.25 9.74815C8.8733 9.74815 10.9999 11.8748 11 14.4981C11 16.1289 10.176 17.5665 8.93359 18.4181C8.70789 18.5728 8.56373 18.6936 8.47949 18.7794C8.41379 19.3055 8.16531 19.7736 7.80176 20.1222C8.23093 20.5319 8.49997 21.108 8.5 21.7481C8.5 22.0579 8.43645 22.3527 8.32324 22.6212C9.42799 22.7459 10.9112 22.7482 12.5713 22.7481H12.5866C14.3521 22.7482 15.776 22.7482 16.8965 22.5968C18.0633 22.4391 19.0459 22.1008 19.8262 21.3165C20.6061 20.5323 20.9418 19.5448 21.0986 18.3722C21.2497 17.2426 21.25 15.8062 21.25 14.0245V10.5499C21.251 9.88665 21.2514 9.29769 21.0273 8.75401C20.8033 8.21051 20.3891 7.79445 19.9219 7.32628L15.1387 2.51866C14.7362 2.11306 14.3796 1.75391 13.9248 1.53526C13.8312 1.4903 13.7355 1.44984 13.6377 1.41514C13.1629 1.24671 12.6586 1.24739 12.0896 1.24815Z" fill="currentColor"/></svg>
