<svg xmlns="http://www.w3.org/2000/svg" viewBox="0 0 24 24" fill="none"><path d="M5.24951 18.498C5.24951 17.7734 5.57151 17.1876 5.93018 16.7559C6.28497 16.3288 6.72641 15.9898 7.09619 15.7363C7.49273 15.4643 7.74951 15.0111 7.74951 14.498C7.74951 13.6696 7.07793 12.998 6.24951 12.998C5.42109 12.998 4.74951 13.6696 4.74951 14.498C4.74951 15.0503 4.3018 15.498 3.74951 15.498C3.19723 15.498 2.74951 15.0503 2.74951 14.498C2.74951 12.565 4.31653 10.998 6.24951 10.998C8.18249 10.998 9.74951 12.565 9.74951 14.498C9.74951 15.6986 9.14366 16.7578 8.22607 17.3867C7.91274 17.6015 7.64837 17.8174 7.46826 18.0342C7.2921 18.2463 7.24951 18.3943 7.24951 18.498C7.24951 19.0503 6.8018 19.498 6.24951 19.498C5.69723 19.498 5.24951 19.0503 5.24951 18.498Z" fill="currentColor"/><path d="M6.24951 20.748C6.8018 20.748 7.24951 21.1958 7.24951 21.748C7.24951 22.3003 6.80179 22.748 6.24951 22.748C5.69723 22.748 5.24951 22.3003 5.24951 21.748C5.24951 21.1958 5.69722 20.748 6.24951 20.748Z" fill="currentColor"/><path d="M12.0874 1.24815C12.6571 1.24739 13.1619 1.24654 13.6372 1.41514C13.735 1.44984 13.8308 1.4903 13.9243 1.53526C14.3791 1.75391 14.7358 2.11306 15.1382 2.51866L19.9214 7.32628C20.3886 7.79445 20.8028 8.21051 21.0269 8.75401C21.2509 9.29769 21.2505 9.88665 21.2495 10.5499V14.0245C21.2495 15.8062 21.2492 17.2426 21.0981 18.3722C20.9413 19.5448 20.6056 20.5323 19.8257 21.3165C19.0454 22.1008 18.0628 22.4391 16.896 22.5968C15.7722 22.7486 14.3434 22.7482 12.5708 22.7481C10.9107 22.7482 9.42751 22.7459 8.32275 22.6212C8.43596 22.3527 8.49951 22.0579 8.49951 21.7481C8.49948 21.108 8.23044 20.5319 7.80127 20.1222C8.16483 19.7736 8.4133 19.3055 8.479 18.7794C8.56324 18.6936 8.7074 18.5728 8.93311 18.4181C10.1755 17.5665 10.9995 16.1289 10.9995 14.4981C10.9995 11.8748 8.87281 9.74815 6.24951 9.74815C5.33214 9.74815 4.47571 10.0087 3.74951 10.4591V9.4503C3.74949 7.91694 3.74951 6.6801 3.86377 5.69639C3.98203 4.67866 4.23413 3.80621 4.82666 3.06749C5.04401 2.79657 5.28957 2.54963 5.55908 2.33116C6.29409 1.7355 7.16265 1.48223 8.17529 1.36338C9.15403 1.24856 10.5619 1.24813 12.0874 1.24815ZM12.9897 3.26866C12.9897 4.62995 12.9897 5.27785 13.106 6.14268C13.2269 7.04251 13.4859 7.80062 14.0874 8.40245C14.6893 9.00436 15.448 9.26385 16.3481 9.38487C17.2149 9.50138 17.8636 9.50208 19.231 9.50206C19.1741 9.36429 19.0685 9.23344 18.4507 8.61241L13.8462 3.9835C13.3133 3.44787 13.1714 3.31455 12.9897 3.25987V3.26866Z" fill="currentColor" fill-rule="evenodd" clip-rule="evenodd"/></svg>
