<svg xmlns="http://www.w3.org/2000/svg" viewBox="0 0 24 24" fill="none"><path d="M10.5755 9.88385C10.9516 9.77541 11.3468 9.70277 11.7464 9.7862C12.1298 9.86631 12.4397 10.0613 12.7229 10.2911C12.9905 10.5081 13.3874 10.9014 13.7337 11.2442C14.1088 11.6143 14.4483 11.9483 14.6214 12.4171C14.7944 12.8859 14.7563 13.3186 14.7151 13.7891C14.4852 16.4639 13.5621 18.4682 12.6878 19.7286C12.2518 20.357 11.8277 20.8191 11.5071 21.128C11.3468 21.2825 11.0579 21.5302 10.9417 21.6124C10.7638 21.7382 10.5399 21.7809 10.3284 21.7286C8.22706 21.2085 6.31507 20.2791 4.86845 18.5743C4.52895 18.1742 4.21987 17.7347 3.94071 17.2549C4.30456 17.2889 4.72615 17.31 5.1829 17.2999C6.62604 17.2678 8.51805 16.9187 10.0071 15.5528C10.3124 15.2728 10.333 14.7985 10.053 14.4932C9.77303 14.1881 9.29865 14.1674 8.99345 14.4473C7.88458 15.4645 6.41693 15.7717 5.1497 15.7999C4.52418 15.8138 3.97137 15.7588 3.57548 15.7003C3.41317 15.6763 3.27811 15.652 3.17704 15.6319C2.70246 14.368 2.38727 12.8844 2.25224 11.1465C2.23229 10.8887 2.34684 10.639 2.55497 10.4854C2.7631 10.332 3.03522 10.2965 3.27567 10.3917C5.09739 11.1131 6.91688 11.252 9.20829 10.3731C9.75177 10.1646 10.2047 9.99078 10.5755 9.88385Z" fill="currentColor" fill-rule="evenodd" clip-rule="evenodd"/><path d="M21.477 3.93537C21.8555 3.53319 21.8363 2.90032 21.4342 2.5218C21.032 2.14329 20.3991 2.16246 20.0206 2.56464L13.5953 9.39149C13.9134 9.66306 14.367 10.1119 14.662 10.404C14.7719 10.5121 14.8999 10.6378 15.032 10.7832L21.477 3.93537Z" fill="currentColor"/><path d="M8.99963 7.5C8.99963 8.32843 8.32806 9 7.49963 9C6.67121 9 5.99963 8.32843 5.99963 7.5C5.99963 6.67157 6.67121 6 7.49963 6C8.32806 6 8.99963 6.67157 8.99963 7.5Z" fill="currentColor"/><path d="M10.9996 3C11.5519 3 11.9996 3.4264 11.9996 3.95238V4.04762C11.9996 4.5736 11.5519 5 10.9996 5C10.4473 5 9.99963 4.5736 9.99963 4.04762V3.95238C9.99963 3.4264 10.4473 3 10.9996 3Z" fill="currentColor" fill-rule="evenodd" clip-rule="evenodd"/></svg>
