<svg xmlns="http://www.w3.org/2000/svg" viewBox="0 0 24 24" fill="none"><path opacity="0.4" d="M19.5831 11.3003C18.9861 10.1165 16.6902 6.24951 12.0001 6.24951C7.30991 6.24951 5.014 10.1165 4.41706 11.3003C4.19411 11.7425 4.19411 12.2565 4.41706 12.6987C5.014 13.8825 7.30991 17.7495 12.0001 17.7495C16.6902 17.7495 18.9861 13.8825 19.5831 12.6987C19.806 12.2565 19.806 11.7425 19.5831 11.3003Z" fill="currentColor"/><path d="M12.0001 14.7495C13.5189 14.7495 14.7501 13.5183 14.7501 11.9995C14.7501 10.4807 13.5189 9.24951 12.0001 9.24951C10.4813 9.24951 9.25009 10.4807 9.25009 11.9995C9.25009 13.5183 10.4813 14.7495 12.0001 14.7495Z" fill="currentColor"/><path d="M2.6779 15.4174C3.21622 15.3907 3.67483 15.8057 3.70173 16.3439C3.78971 18.1189 4.05255 18.9072 4.57304 19.4277C5.09353 19.9478 5.88137 20.21 7.65597 20.298C8.19429 20.3248 8.60924 20.7834 8.58256 21.3217C8.5558 21.8601 8.09714 22.275 7.55873 22.2483C5.72964 22.1576 4.26977 21.8859 3.19173 20.8079C2.11371 19.7299 1.84197 18.2702 1.75131 16.4411C1.72463 15.9028 2.13958 15.4442 2.6779 15.4174ZM21.3223 15.4174C21.8606 15.4442 22.2756 15.9019 22.2489 16.4402C22.1582 18.2693 21.8864 19.729 20.8085 20.807C19.7304 21.885 18.2705 22.1567 16.4415 22.2473C15.903 22.274 15.4443 21.8592 15.4176 21.3208C15.3909 20.7825 15.8059 20.3248 16.3442 20.298C18.1189 20.21 18.9067 19.9469 19.4271 19.4267C19.9476 18.9063 20.2105 18.1186 20.2985 16.3439C20.3251 15.8055 20.7838 15.3907 21.3223 15.4174ZM16.4415 1.75168C18.2705 1.84235 19.7304 2.11404 20.8085 3.19203C21.8865 4.27005 22.1582 5.7298 22.2489 7.55883C22.2756 8.09718 21.8606 8.55579 21.3223 8.58262C20.784 8.60929 20.3254 8.19429 20.2985 7.65606C20.2105 5.88109 19.9476 5.09279 19.4271 4.57233C18.9067 4.05213 18.1188 3.78996 16.3442 3.70202C15.8059 3.67519 15.3909 3.21658 15.4176 2.67823C15.4444 2.13987 15.903 1.725 16.4415 1.75168ZM7.55873 1.75073C8.0971 1.72405 8.55573 2.13898 8.58256 2.67728C8.60924 3.21562 8.19429 3.67423 7.65597 3.70106C5.88091 3.78903 5.09352 4.05187 4.57304 4.57233C4.05255 5.09279 3.78971 5.88014 3.70173 7.65511C3.6749 8.19341 3.21627 8.60834 2.6779 8.58166C2.13958 8.55483 1.72463 8.09622 1.75131 7.55788C1.84198 5.72887 2.11368 4.26907 3.19173 3.19108C4.26977 2.11308 5.72963 1.8414 7.55873 1.75073Z" fill="currentColor"/></svg>
