<svg xmlns="http://www.w3.org/2000/svg" viewBox="0 0 24 24" fill="none"><path d="M14.1373 1.416C14.2353 1.45076 14.3313 1.49075 14.425 1.53582C14.8799 1.75449 15.2361 2.11356 15.6386 2.51921L20.4214 7.32686L20.4214 7.32686C20.8888 7.79521 21.3036 8.21088 21.5277 8.75463C21.6264 8.99435 21.6815 9.24282 21.7121 9.50258H19.7313C18.3637 9.5026 17.7152 9.50181 16.8482 9.38525C15.9481 9.26424 15.1902 9.00534 14.5883 8.40343C13.9864 7.80151 13.7275 7.04364 13.6065 6.14353C13.4901 5.27834 13.4902 4.63063 13.4902 3.2688V3.26877V1.27734C13.7136 1.30042 13.9282 1.34184 14.1373 1.416Z" fill="currentColor"/><path d="M5.65721 14.9444C6.10189 14.6173 6.72823 14.7128 7.05565 15.1573C7.38283 15.602 7.28733 16.2284 6.84276 16.5558H6.84178C6.84076 16.5565 6.83917 16.558 6.8369 16.5597L6.72362 16.6446C6.64522 16.7039 6.5322 16.7897 6.39647 16.8956C6.12359 17.1086 5.76279 17.3987 5.40526 17.7091C5.04294 18.0237 4.70592 18.34 4.46776 18.6095C4.42238 18.6608 4.38435 18.7079 4.35155 18.7491C4.38445 18.7905 4.42212 18.8381 4.46776 18.8898C4.70592 19.1593 5.0429 19.4765 5.40526 19.7911C5.76279 20.1016 6.1236 20.3916 6.39647 20.6046C6.5322 20.7105 6.64522 20.7964 6.72362 20.8556L6.8369 20.9405C6.83917 20.9422 6.84076 20.9437 6.84178 20.9444H6.84276C7.28745 21.272 7.38219 21.8982 7.05467 22.3429C6.72724 22.7874 6.10186 22.8829 5.65721 22.5558V22.5548H5.65623C5.65569 22.5544 5.65421 22.5535 5.65331 22.5528C5.65153 22.5515 5.6495 22.5492 5.64647 22.547C5.64005 22.5422 5.63089 22.5352 5.61913 22.5265C5.59555 22.5089 5.56137 22.4836 5.51854 22.4513C5.43293 22.3866 5.31133 22.2942 5.166 22.1808C4.87646 21.9548 4.48705 21.6425 4.09471 21.3019C3.70737 20.9656 3.2939 20.5818 2.96971 20.215C2.8086 20.0326 2.64789 19.8303 2.52245 19.6222C2.42718 19.4641 2.28966 19.204 2.25682 18.8888L2.24998 18.7501L2.25682 18.6114C2.28965 18.2962 2.42718 18.0361 2.52245 17.878C2.6479 17.6699 2.80859 17.4676 2.96971 17.2853C3.29391 16.9184 3.70736 16.5347 4.09471 16.1984C4.48706 15.8577 4.87645 15.5454 5.166 15.3194C5.31131 15.206 5.43293 15.1136 5.51854 15.0489C5.56137 15.0166 5.59555 14.9913 5.61913 14.9737C5.6309 14.965 5.64004 14.958 5.64647 14.9532C5.6495 14.951 5.65153 14.9487 5.65331 14.9474L5.65623 14.9454H5.65721V14.9444Z" fill="currentColor"/><path d="M10.8428 14.9444C10.3981 14.6173 9.77174 14.7128 9.44432 15.1573C9.11714 15.602 9.21264 16.2284 9.65721 16.5558H9.65819C9.65921 16.5565 9.6608 16.558 9.66307 16.5597L9.77635 16.6446C9.85475 16.7039 9.96777 16.7897 10.1035 16.8956C10.3764 17.1086 10.7372 17.3987 11.0947 17.7091C11.457 18.0237 11.7941 18.34 12.0322 18.6095C12.0776 18.6608 12.1156 18.7079 12.1484 18.7491C12.1155 18.7905 12.0779 18.8381 12.0322 18.8898C11.794 19.1593 11.4571 19.4765 11.0947 19.7911C10.7372 20.1016 10.3764 20.3916 10.1035 20.6046C9.96777 20.7105 9.85475 20.7964 9.77635 20.8556L9.66307 20.9405C9.6608 20.9422 9.65921 20.9437 9.65819 20.9444H9.65721C9.21252 21.272 9.11778 21.8982 9.4453 22.3429C9.77273 22.7874 10.3981 22.8829 10.8428 22.5558V22.5548H10.8437C10.8443 22.5544 10.8458 22.5535 10.8467 22.5528C10.8484 22.5515 10.8505 22.5492 10.8535 22.547C10.8599 22.5422 10.8691 22.5352 10.8808 22.5265C10.9044 22.5089 10.9386 22.4836 10.9814 22.4513C11.067 22.3866 11.1886 22.2942 11.334 22.1808C11.6235 21.9548 12.0129 21.6425 12.4053 21.3019C12.7926 20.9656 13.2061 20.5818 13.5303 20.215C13.6914 20.0326 13.8521 19.8303 13.9775 19.6222C14.0728 19.4641 14.2103 19.204 14.2431 18.8888L14.25 18.7501L14.2431 18.6114C14.2103 18.2962 14.0728 18.0361 13.9775 17.878C13.8521 17.6699 13.6914 17.4676 13.5303 17.2853C13.2061 16.9184 12.7926 16.5347 12.4053 16.1984C12.0129 15.8577 11.6235 15.5454 11.334 15.3194C11.1887 15.206 11.067 15.1136 10.9814 15.0489C10.9386 15.0166 10.9044 14.9913 10.8808 14.9737C10.8691 14.965 10.8599 14.958 10.8535 14.9532C10.8505 14.951 10.8484 14.9487 10.8467 14.9474L10.8437 14.9454H10.8428V14.9444Z" fill="currentColor"/><path opacity="0.4" d="M12.5877 1.2501C13.1575 1.24934 13.6622 1.24847 14.1375 1.4171C14.2353 1.4518 14.331 1.49224 14.4246 1.53721C14.8794 1.75587 15.236 2.11499 15.6385 2.52061L20.4217 7.32823C20.8889 7.79645 21.3031 8.2124 21.5272 8.75596C21.7512 9.29967 21.7508 9.88856 21.7498 10.5519V14.0265C21.7498 15.8083 21.7495 17.2445 21.5984 18.3741C21.4416 19.547 21.1062 20.5351 20.326 21.3194C19.5458 22.1037 18.563 22.4411 17.3963 22.5987C16.2725 22.7506 14.8437 22.7501 13.0711 22.7501C12.921 22.7501 12.7719 22.7492 12.6248 22.7491C12.8147 22.5942 13.019 22.4245 13.2244 22.2462C13.6272 21.8965 14.0887 21.4706 14.4666 21.0431C14.6535 20.8316 14.8681 20.5655 15.0477 20.2677C15.1751 20.0563 15.4247 19.6071 15.4861 19.0187C15.5187 18.8091 15.4997 18.5739 15.4861 18.4825C15.4248 17.8939 15.1751 17.4439 15.0477 17.2325C14.8681 16.9348 14.6534 16.6686 14.4666 16.4571C14.0888 16.0296 13.6272 15.6047 13.2244 15.255C12.8103 14.8954 12.4024 14.5682 12.1024 14.3341C11.9503 14.2154 11.6119 13.9646 11.5233 13.8976C10.5898 13.2552 9.33192 13.4109 8.58283 14.2384L8.43732 14.4171C8.36503 14.5154 8.3039 14.6187 8.24982 14.7237C8.19573 14.6187 8.13461 14.5144 8.06232 14.4161L7.91681 14.2384C7.16771 13.4109 5.9098 13.2552 4.97638 13.8976C4.88769 13.9646 4.54931 14.2155 4.39728 14.3341C4.35056 14.3705 4.30139 14.4096 4.24982 14.4503V9.45323C4.2498 7.91957 4.2498 6.68219 4.36408 5.69835C4.48233 4.68057 4.73442 3.80819 5.32697 3.06944C5.54434 2.79849 5.78984 2.55161 6.05939 2.33311C6.79441 1.7374 7.66291 1.48419 8.6756 1.36534C9.65434 1.25052 11.0622 1.25008 12.5877 1.2501Z" fill="currentColor"/></svg>
