<svg xmlns="http://www.w3.org/2000/svg" viewBox="0 0 24 24" fill="none"><path d="M5.65672 14.9444C6.1014 14.6173 6.72774 14.7128 7.05516 15.1573C7.38234 15.602 7.28684 16.2284 6.84227 16.5558H6.84129C6.84027 16.5565 6.83868 16.558 6.83641 16.5597L6.72313 16.6446C6.64473 16.7039 6.53171 16.7897 6.39598 16.8956C6.12311 17.1086 5.7623 17.3987 5.40477 17.7091C5.04245 18.0237 4.70543 18.34 4.46727 18.6095C4.42189 18.6608 4.38386 18.7079 4.35106 18.7491C4.38397 18.7905 4.42163 18.8381 4.46727 18.8898C4.70544 19.1593 5.04241 19.4765 5.40477 19.7911C5.7623 20.1016 6.12311 20.3916 6.39598 20.6046C6.53171 20.7105 6.64473 20.7964 6.72313 20.8556L6.83641 20.9405C6.83868 20.9422 6.84027 20.9437 6.84129 20.9444H6.84227C7.28696 21.272 7.3817 21.8982 7.05418 22.3429C6.72675 22.7874 6.10137 22.8829 5.65672 22.5558V22.5548H5.65575C5.6552 22.5544 5.65372 22.5535 5.65282 22.5528C5.65104 22.5515 5.64901 22.5492 5.64598 22.547C5.63956 22.5422 5.6304 22.5352 5.61864 22.5265C5.59506 22.5089 5.56088 22.4836 5.51805 22.4513C5.43244 22.3866 5.31084 22.2942 5.16551 22.1808C4.87597 21.9548 4.48657 21.6425 4.09422 21.3019C3.70688 20.9656 3.29342 20.5818 2.96922 20.215C2.80811 20.0326 2.64741 19.8303 2.52196 19.6222C2.42669 19.4641 2.28918 19.204 2.25633 18.8888L2.2495 18.7501L2.25633 18.6114C2.28916 18.2962 2.42669 18.0361 2.52196 17.878C2.64741 17.6699 2.80811 17.4676 2.96922 17.2853C3.29342 16.9184 3.70687 16.5347 4.09422 16.1984C4.48657 15.8577 4.87596 15.5454 5.16551 15.3194C5.31082 15.206 5.43244 15.1136 5.51805 15.0489C5.56088 15.0166 5.59506 14.9913 5.61864 14.9737C5.63041 14.965 5.63955 14.958 5.64598 14.9532C5.64901 14.951 5.65104 14.9487 5.65282 14.9474L5.65575 14.9454H5.65672V14.9444Z" fill="currentColor"/><path d="M10.8423 14.9444C10.3976 14.6173 9.77125 14.7128 9.44383 15.1573C9.11665 15.602 9.21215 16.2284 9.65672 16.5558H9.6577C9.65872 16.5565 9.66031 16.558 9.66258 16.5597L9.77586 16.6446C9.85427 16.7039 9.96728 16.7897 10.103 16.8956C10.3759 17.1086 10.7367 17.3987 11.0942 17.7091C11.4565 18.0237 11.7936 18.34 12.0317 18.6095C12.0771 18.6608 12.1151 18.7079 12.1479 18.7491C12.115 18.7905 12.0774 18.8381 12.0317 18.8898C11.7936 19.1593 11.4566 19.4765 11.0942 19.7911C10.7367 20.1016 10.3759 20.3916 10.103 20.6046C9.96728 20.7105 9.85426 20.7964 9.77586 20.8556L9.66258 20.9405C9.66031 20.9422 9.65872 20.9437 9.6577 20.9444H9.65672C9.21203 21.272 9.11729 21.8982 9.44481 22.3429C9.77224 22.7874 10.3976 22.8829 10.8423 22.5558V22.5548H10.8432C10.8438 22.5544 10.8453 22.5535 10.8462 22.5528C10.848 22.5515 10.85 22.5492 10.853 22.547C10.8594 22.5422 10.8686 22.5352 10.8804 22.5265C10.9039 22.5089 10.9381 22.4836 10.9809 22.4513C11.0666 22.3866 11.1882 22.2942 11.3335 22.1808C11.623 21.9548 12.0124 21.6425 12.4048 21.3019C12.7921 20.9656 13.2056 20.5818 13.5298 20.215C13.6909 20.0326 13.8516 19.8303 13.977 19.6222C14.0723 19.4641 14.2098 19.204 14.2427 18.8888L14.2495 18.7501L14.2427 18.6114C14.2098 18.2962 14.0723 18.0361 13.977 17.878C13.8516 17.6699 13.6909 17.4676 13.5298 17.2853C13.2056 16.9184 12.7921 16.5347 12.4048 16.1984C12.0124 15.8577 11.623 15.5454 11.3335 15.3194C11.1882 15.206 11.0666 15.1136 10.9809 15.0489C10.9381 15.0166 10.9039 14.9913 10.8804 14.9737C10.8686 14.965 10.8594 14.958 10.853 14.9532C10.85 14.951 10.848 14.9487 10.8462 14.9474L10.8432 14.9454H10.8423V14.9444Z" fill="currentColor"/><path d="M12.5873 1.24962C13.157 1.24885 13.6618 1.24801 14.1371 1.41661C14.2349 1.45131 14.3307 1.49176 14.4242 1.53672C14.879 1.75537 15.2357 2.11453 15.6381 2.52012L20.4213 7.32774C20.8885 7.79592 21.3027 8.21197 21.5267 8.75547C21.7508 9.29915 21.7504 9.88811 21.7494 10.5514V14.026C21.7494 15.8077 21.7491 17.2441 21.598 18.3736C21.4412 19.5463 21.1055 20.5337 20.3256 21.318C19.5453 22.1023 18.5627 22.4406 17.3959 22.5982C16.2721 22.7501 14.8433 22.7496 13.0707 22.7496C12.9204 22.7496 12.7716 22.7487 12.6244 22.7486C12.8143 22.5937 13.0186 22.424 13.224 22.2457C13.6268 21.896 14.0883 21.4702 14.4662 21.0426C14.653 20.8311 14.8677 20.565 15.0473 20.2672C15.1747 20.0558 15.4243 19.6066 15.4857 19.0182C15.5183 18.8086 15.4993 18.5734 15.4857 18.482C15.4244 17.8934 15.1747 17.4434 15.0473 17.232C14.8677 16.9343 14.653 16.6681 14.4662 16.4566C14.0884 16.0292 13.6268 15.6042 13.224 15.2545C12.8099 14.895 12.4019 14.5677 12.1019 14.3336C11.9499 14.2149 11.6115 13.9641 11.5228 13.8971C10.5894 13.2547 9.33151 13.4104 8.58241 14.2379L8.43691 14.4166C8.36462 14.5149 8.30348 14.6182 8.24941 14.7232C8.19532 14.6182 8.13419 14.5139 8.06191 14.4156L7.9164 14.2379C7.1673 13.4104 5.90938 13.2547 4.97597 13.8971C4.88728 13.9641 4.5489 14.215 4.39687 14.3336C4.35015 14.3701 4.30097 14.4091 4.24941 14.4498V9.45176C4.24939 7.9184 4.2494 6.68156 4.36366 5.69786C4.48193 4.68012 4.73402 3.80767 5.32655 3.06895C5.5439 2.79804 5.78947 2.5511 6.05898 2.33262C6.79398 1.73697 7.66254 1.4837 8.67519 1.36485C9.65393 1.25003 11.0618 1.2496 12.5873 1.24962ZM13.4896 3.27012C13.4896 4.63142 13.4896 5.27931 13.6059 6.14415C13.7268 7.04397 13.9858 7.80209 14.5873 8.40391C15.1892 9.00582 15.9479 9.26532 16.848 9.38633C17.7148 9.50284 18.3635 9.50354 19.7309 9.50352C19.674 9.36576 19.5684 9.23491 18.9506 8.61387L14.3461 3.98497C13.8132 3.44934 13.6713 3.31602 13.4896 3.26133V3.27012Z" fill="currentColor" fill-rule="evenodd" clip-rule="evenodd"/></svg>
