<svg xmlns="http://www.w3.org/2000/svg" viewBox="0 0 24 24" fill="none"><path d="M20.5 10.75C21.7426 10.75 22.75 9.74264 22.75 8.5V7C22.75 5.75736 21.7426 4.75 20.5 4.75H17.25V4C17.25 3.30964 17.8096 2.75 18.5 2.75C18.8454 2.75 19.1568 2.88918 19.3838 3.11621C19.6766 3.40905 20.1514 3.40895 20.4443 3.11621C20.7372 2.82332 20.7372 2.34856 20.4443 2.05566C19.9475 1.55883 19.2592 1.25 18.5 1.25C16.9812 1.25 15.75 2.48122 15.75 4V4.88086C14.8766 5.18999 14.25 6.02067 14.25 7V8.5C14.25 9.74264 15.2574 10.75 16.5 10.75H20.5Z" fill="currentColor"/><path opacity="0.4" d="M12 2.25C13.0236 2.25 13.9613 2.3126 14.8184 2.43359C14.6134 2.91466 14.5 3.44408 14.5 4V4.13281C13.5958 4.76349 13 5.80878 13 7V8.5C13 10.433 14.567 12 16.5 12H20.5C21.3481 12 22.1257 11.6982 22.7314 11.1963C22.7428 11.4629 22.75 11.731 22.75 12C22.75 14.6251 21.9907 17.0854 20.208 18.8906C18.4216 20.6995 15.7071 21.75 12 21.75C10.4515 21.75 9.09789 21.5985 7.91992 21.3096C7.58951 21.2285 7.18966 21.3207 6.83789 21.5801C6.02979 22.1762 4.78902 22.75 3 22.75C2.67 22.75 2.37843 22.5344 2.28223 22.2188C2.18605 21.9031 2.30807 21.561 2.58203 21.377C3.1813 20.9741 3.81966 19.617 2.7373 17.9004C1.63081 16.2122 1.25 14.1434 1.25 12C1.25 9.42427 1.8005 6.95115 3.50098 5.125C5.21037 3.28928 7.94704 2.25 12 2.25Z" fill="currentColor"/><path d="M8 11C8.55228 11 9 11.4477 9 12C9 12.5523 8.55228 13 8 13C7.44772 13 7 12.5523 7 12C7 11.4477 7.44771 11 8 11ZM12.1025 11.0049C12.6066 11.0563 13 11.4824 13 12C13 12.5522 12.5522 12.9999 12 13C11.4823 13 11.0562 12.6067 11.0049 12.1025L11 12L11.0049 11.8975C11.0562 11.3933 11.4823 11 12 11L12.1025 11.0049Z" fill="currentColor"/></svg>
