<svg xmlns="http://www.w3.org/2000/svg" viewBox="0 0 24 24" fill="none"><path d="M20.5 10.7499C21.7426 10.7499 22.75 9.74252 22.75 8.49988V6.99988C22.75 5.75724 21.7426 4.74988 20.5 4.74988H17.25V3.99988C17.25 3.30952 17.8096 2.74988 18.5 2.74988C18.8454 2.74988 19.1568 2.88906 19.3838 3.11609C19.6766 3.40893 20.1514 3.40883 20.4443 3.11609C20.7372 2.8232 20.7372 2.34844 20.4443 2.05554C19.9475 1.55871 19.2592 1.24988 18.5 1.24988C16.9812 1.24988 15.75 2.48109 15.75 3.99988V4.88074C14.8766 5.18987 14.25 6.02055 14.25 6.99988V8.49988C14.25 9.74252 15.2574 10.7499 16.5 10.7499H20.5Z" fill="currentColor"/><path d="M12 2.24988C13.0236 2.24988 13.9613 2.31248 14.8184 2.43347C14.6134 2.91454 14.5 3.44396 14.5 3.99988V4.13269C13.5958 4.76337 13 5.80865 13 6.99988V8.49988C13 10.4329 14.567 11.9999 16.5 11.9999H20.5C21.3481 11.9999 22.1257 11.6981 22.7314 11.1962C22.7428 11.4628 22.75 11.7309 22.75 11.9999C22.75 14.625 21.9907 17.0853 20.208 18.8905C18.4216 20.6994 15.7071 21.7499 12 21.7499C10.4515 21.7499 9.09789 21.5984 7.91992 21.3094C7.58951 21.2284 7.18966 21.3205 6.83789 21.58C6.02979 22.1761 4.78902 22.7499 3 22.7499C2.67 22.7499 2.37843 22.5343 2.28223 22.2186C2.18605 21.9029 2.30807 21.5608 2.58203 21.3768C3.1813 20.9739 3.81966 19.6169 2.7373 17.9003C1.63081 16.2121 1.25 14.1433 1.25 11.9999C1.25 9.42415 1.8005 6.95103 3.50098 5.12488C5.21037 3.28916 7.94704 2.24988 12 2.24988ZM8 10.9999C7.44771 10.9999 7 11.4476 7 11.9999C7 12.5522 7.44772 12.9999 8 12.9999C8.55228 12.9999 9 12.5522 9 11.9999C9 11.4476 8.55228 10.9999 8 10.9999ZM12 10.9999C11.4823 10.9999 11.0562 11.3932 11.0049 11.8973L11 11.9999L11.0049 12.1024C11.0562 12.6065 11.4823 12.9999 12 12.9999C12.5522 12.9998 13 12.5521 13 11.9999C13 11.4823 12.6066 11.0562 12.1025 11.0048L12 10.9999Z" fill="currentColor"/></svg>
