<svg xmlns="http://www.w3.org/2000/svg" fill="none" viewBox="0 0 48 48">
  <g>
    <path fill="currentColor" fill-opacity="0.4" d="M20.8427 2c-1.3766 0 -2.5765 0.93689 -2.9104 2.27239l-0.4472 1.78858c-4.3529 0.08194 -7.69325 0.22898 -9.62162 0.33015 -1.20469 0.06321 -2.36218 0.57242 -2.94714 1.62747 -0.32512 0.58639 -0.64979 1.32929 -0.85617 2.20511 -0.04308 0.1828 -0.06017 0.3709 -0.06017 0.5587 0 1.4383 1.07206 2.6358 2.50675 2.7374C9.40612 13.725 14.9746 14 24.0008 14c9.0257 0 14.5934 -0.2749 17.4924 -0.4802C42.9279 13.4182 44 12.2207 44 10.7824c0 -0.1878 -0.0171 -0.3759 -0.0602 -0.5587 -0.2063 -0.87583 -0.531 -1.61872 -0.8561 -2.20511 -0.585 -1.05505 -1.7425 -1.56426 -2.9472 -1.62747 -1.9282 -0.10117 -5.2683 -0.24819 -9.6209 -0.33014l-0.4471 -1.78859C29.7346 2.93689 28.5347 2 27.1581 2h-6.3154Z" stroke-width="1"></path>
    <path stroke="currentColor" stroke-linejoin="round" d="M20.8427 2c-1.3766 0 -2.5765 0.93689 -2.9104 2.27239l-0.4472 1.78858c-4.3529 0.08194 -7.69325 0.22898 -9.62162 0.33015 -1.20469 0.06321 -2.36218 0.57242 -2.94714 1.62747 -0.32512 0.58639 -0.64979 1.32929 -0.85617 2.20511 -0.04308 0.1828 -0.06017 0.3709 -0.06017 0.5587 0 1.4383 1.07206 2.6358 2.50675 2.7374C9.40612 13.725 14.9746 14 24.0008 14c9.0257 0 14.5934 -0.2749 17.4924 -0.4802C42.9279 13.4182 44 12.2207 44 10.7824c0 -0.1878 -0.0171 -0.3759 -0.0602 -0.5587 -0.2063 -0.87583 -0.531 -1.61872 -0.8561 -2.20511 -0.585 -1.05505 -1.7425 -1.56426 -2.9472 -1.62747 -1.9282 -0.10117 -5.2683 -0.24819 -9.6209 -0.33014l-0.4471 -1.78859C29.7346 2.93689 28.5347 2 27.1581 2h-6.3154Z" stroke-width="1"></path>
    <path fill="#8fbffa" d="M7.35156 13.5762c3.08064 0.1957 8.43244 0.4236 16.65064 0.4236 8.2175 0 13.5686 -0.2279 16.6489 -0.4236 -1.3402 12.7535 -3.401 23.1918 -4.3997 27.8308 -0.3564 1.6555 -1.4454 3.0489 -3.0772 3.5017 -1.9047 0.5285 -4.929 1.0912 -9.172 1.0912 -4.2433 0 -7.2677 -0.5628 -9.1723 -1.0913 -1.6316 -0.4528 -2.7205 -1.8458 -3.077 -3.5011 -0.9991 -4.6388 -3.06098 -15.0773 -4.40134 -27.8313Z" stroke-width="1"></path>
    <path stroke="currentColor" stroke-linecap="round" stroke-linejoin="round" d="M7.35156 13.5762c3.08064 0.1957 8.43244 0.4236 16.65064 0.4236 8.2175 0 13.5686 -0.2279 16.6489 -0.4236 -1.3402 12.7535 -3.401 23.1918 -4.3997 27.8308 -0.3564 1.6555 -1.4454 3.0489 -3.0772 3.5017 -1.9047 0.5285 -4.929 1.0912 -9.172 1.0912 -4.2433 0 -7.2677 -0.5628 -9.1723 -1.0913 -1.6316 -0.4528 -2.7205 -1.8458 -3.077 -3.5011 -0.9991 -4.6388 -3.06098 -15.0773 -4.40134 -27.8313Z" stroke-width="1"></path>
  </g>
</svg>
