<svg xmlns="http://www.w3.org/2000/svg" fill="none" viewBox="0 0 48 48">
  <g>
    <path fill="currentColor" fill-opacity="0.4" d="M7.41498 12.5782c-0.29389 -0.0187 -0.58107 0.0931 -0.78495 0.3056 -0.20389 0.2125 -0.30376 0.504 -0.27299 0.7969 1.34525 12.8004 3.41433 23.2761 4.41826 27.9374 0.4175 1.9379 1.7241 3.6816 3.7872 4.2541 1.9924 0.5528 5.1068 1.1277 9.4397 1.1277 4.3327 0 7.4469 -0.5748 9.4393 -1.1276 2.0635 -0.5726 3.3702 -2.3166 3.7875 -4.2548 1.0035 -4.6615 3.0716 -15.1368 4.4166 -27.9368 0.0308 -0.2928 -0.0691 -0.5844 -0.273 -0.7969 -0.2039 -0.2124 -0.491 -0.3242 -0.7849 -0.3056 -3.0565 0.1942 -8.3862 0.4216 -16.5855 0.4216 -8.1999 0 -13.5304 -0.2274 -16.58722 -0.4216Z" stroke-width="3.429"></path>
    <path fill="currentColor" d="M20.8427 1c-1.8355 0 -3.4354 1.24919 -3.8806 3.02986l-0.2616 1.04657c-3.9923 0.08423 -7.0664 0.22042 -8.88941 0.31607 -1.4211 0.07456 -2.9633 0.68745 -3.76932 2.14119 -0.36133 0.6517 -0.72393 1.4803 -0.95495 2.46067C3.02236 10.2679 3 10.5352 3 10.7824c0 1.9411 1.45617 3.5947 3.43613 3.7349C9.36235 14.7244 14.9546 15 24.0008 15c9.0457 0 14.6372 -0.2755 17.5631 -0.4827C43.5438 14.3771 45 12.7235 45 10.7824c0 -0.2472 -0.0224 -0.5145 -0.0868 -0.78805 -0.231 -0.98037 -0.5936 -1.80896 -0.955 -2.46066 -0.806 -1.45374 -2.3482 -2.06663 -3.7693 -2.14119 -1.8229 -0.09565 -4.8967 -0.23183 -8.8886 -0.31605l-0.2617 -1.04659C30.5935 2.24919 28.9935 1 27.1581 1h-6.3154Z" stroke-width="3.429"></path>
  </g>
</svg>
