<svg xmlns="http://www.w3.org/2000/svg" fill="none" viewBox="0 0 48 48">
  <g>
    <path fill="currentColor" fill-rule="evenodd" d="M16.9621 3.52986C17.4073 1.74919 19.0072 0.5 20.8427 0.5h6.3154c1.8354 0 3.4354 1.24919 3.8805 3.02986l0.2617 1.04659c3.9919 0.08422 7.0657 0.2204 8.8886 0.31605 1.4211 0.07456 2.9633 0.68745 3.7693 2.14119 0.3614 0.6517 0.724 1.48029 0.955 2.46066 0.0644 0.27356 0.0868 0.54085 0.0868 0.78805 0 1.5888 -0.9755 2.985 -2.4153 3.5163 -1.3507 12.6126 -3.3842 22.9079 -4.3791 27.5292 -0.4781 2.221 -2.0026 4.3157 -4.4977 5.008 -2.0802 0.5772 -5.2844 1.164 -9.7066 1.164 -4.4226 0 -7.627 -0.5869 -9.7071 -1.1641 -2.4948 -0.6923 -4.0191 -2.7865 -4.49742 -5.0072 -0.99533 -4.6211 -3.02982 -14.9166 -4.38073 -27.5296C3.97585 13.2678 3 11.8715 3 10.2824c0 -0.2472 0.02236 -0.51449 0.08682 -0.78804 0.23102 -0.98037 0.59362 -1.80897 0.95495 -2.46067 0.80602 -1.45374 2.34822 -2.06663 3.76932 -2.14119 1.82301 -0.09565 4.89711 -0.23184 8.88941 -0.31607l0.2616 -1.04657ZM9.48291 14.1971c1.33029 12.0545 3.26959 21.8574 4.22419 26.2893 0.2348 1.0899 0.8882 1.7818 1.6566 1.995 1.7291 0.4798 4.5735 1.0185 8.6376 1.0185 4.0637 0 6.9081 -0.5386 8.6372 -1.0184 0.7685 -0.2132 1.422 -0.9053 1.6567 -1.9954 0.9542 -4.4322 2.8925 -14.2348 4.2226 -26.289 -3.2272 0.1584 -7.9663 0.3029 -14.517 0.3029 -6.5507 0 -11.2903 -0.1445 -14.51789 -0.3029Z" clip-rule="evenodd" stroke-width="1"></path>
  </g>
</svg>
