<svg xmlns="http://www.w3.org/2000/svg" fill="none" viewBox="0 0 48 48">
  <g>
    <path fill="currentColor" fill-rule="evenodd" d="M16.9621 4.02986C17.4073 2.24919 19.0072 1 20.8427 1h6.3154c1.8354 0 3.4354 1.24919 3.8805 3.02986l0.2617 1.04659c3.9919 0.08422 7.0657 0.2204 8.8886 0.31605 1.4211 0.07456 2.9633 0.68745 3.7693 2.14119 0.3614 0.6517 0.724 1.48029 0.955 2.46066 0.0644 0.27355 0.0868 0.54085 0.0868 0.78805 0 1.9411 -1.4562 3.5947 -3.4361 3.7349 -2.9259 0.2072 -8.5174 0.4827 -17.5631 0.4827 -9.0462 0 -14.63845 -0.2756 -17.56467 -0.4827C4.45617 14.3771 3 12.7235 3 10.7824c0 -0.2472 0.02236 -0.5145 0.08682 -0.78804 0.23102 -0.98037 0.59362 -1.80897 0.95495 -2.46067 0.80602 -1.45374 2.34822 -2.06663 3.76932 -2.14119 1.82301 -0.09565 4.89711 -0.23184 8.88941 -0.31607l0.2616 -1.04657ZM7.13738 17.4233c0.20324 -0.2163 0.49209 -0.3312 0.7884 -0.3135 3.12522 0.1865 8.31572 0.3902 16.07672 0.3902 7.7572 0 12.9459 -0.2035 16.0712 -0.3899 0.2963 -0.0177 0.5851 0.0972 0.7884 0.3135 0.2032 0.2164 0.2998 0.5118 0.2637 0.8064 -1.3128 10.706 -3.0165 19.2909 -3.8985 23.3877 -0.4172 1.9382 -1.724 3.6822 -3.7874 4.2548 -1.9924 0.5528 -5.1067 1.1276 -9.4393 1.1276 -4.3329 0 -7.4473 -0.5749 -9.4397 -1.1277 -2.0632 -0.5725 -3.3698 -2.3162 -3.7872 -4.2541 -0.88235 -4.0966 -2.58689 -12.682 -3.90004 -23.3885 -0.03614 -0.2947 0.06048 -0.5901 0.26372 -0.8065Z" clip-rule="evenodd" stroke-width="3.429"></path>
  </g>
</svg>
