<svg xmlns="http://www.w3.org/2000/svg" viewBox="0 0 24 24" fill="none"><path d="M10.9849 2.57155C12.1584 1.39838 13.824 1.06719 15.4498 1.33815C17.0777 1.60964 18.7527 2.48882 20.1314 3.86745C21.5102 5.24629 22.3893 6.92192 22.6607 8.55006C22.9316 10.1758 22.6006 11.8405 21.4273 13.0139C19.497 14.9442 16.7376 16.3127 14.2173 16.9534C12.9529 17.2748 11.7033 17.4253 10.608 17.3508C9.53762 17.278 8.46989 16.9792 7.74468 16.2542C7.01945 15.5289 6.72086 14.4613 6.648 13.3909C6.57349 12.2955 6.724 11.046 7.04546 9.78151C7.68618 7.26146 9.05475 4.5018 10.9849 2.57155ZM15.1304 3.25221C13.9424 3.05421 12.9717 3.32803 12.356 3.94362C11.7405 4.55925 11.4667 5.52928 11.6646 6.71706C11.8622 7.90287 12.5259 9.22094 13.6519 10.3469C14.7779 11.473 16.0959 12.1366 17.2818 12.3342C18.4695 12.5322 19.4395 12.259 20.0552 11.6438C20.6709 11.0281 20.9456 10.0565 20.7476 8.86842C20.5499 7.6827 19.8862 6.36439 18.7603 5.23854C17.6344 4.11274 16.3162 3.44992 15.1304 3.25221Z" fill="currentColor" fill-rule="evenodd" clip-rule="evenodd"/><path d="M16.2834 6.18667C16.016 6.09753 15.4393 5.98643 14.9652 6.37606L14.8724 6.46034C14.3834 6.94931 14.5037 7.586 14.5987 7.87133C14.7143 8.21807 14.934 8.54181 15.1963 8.80409C15.4585 9.06625 15.7815 9.2861 16.1281 9.40163C16.4133 9.49668 17.0501 9.61673 17.5391 9.12796C18.028 8.63908 17.9078 8.00237 17.8127 7.71697C17.6972 7.37023 17.4775 7.0465 17.2152 6.78421C16.953 6.52201 16.63 6.30223 16.2834 6.18667Z" fill="currentColor"/><path d="M6.02776 15.967C6.23687 16.3863 6.50812 16.7853 6.86077 17.1379C7.21394 17.491 7.61368 17.7617 8.03362 17.9709L6.48089 19.5237C7.21896 20.2617 7.21896 21.4585 6.48089 22.1965C5.74282 22.9346 4.54609 22.9346 3.80804 22.1965C3.40842 21.7968 3.22785 21.2625 3.26116 20.7395C2.73822 20.7728 2.20387 20.5921 1.80413 20.1926C1.06606 19.4546 1.06606 18.2578 1.80413 17.5198C2.5422 16.7817 3.73892 16.7817 4.47698 17.5198L6.02776 15.967Z" fill="currentColor"/></svg>
