<svg xmlns="http://www.w3.org/2000/svg" viewBox="0 0 24 24" fill="none"><path opacity="0.4" d="M17.3897 1.36612C17.0466 1.32 16.6667 1.29208 16.248 1.2753V1.99991L16.2481 2.05169C16.2481 2.71554 16.2481 3.28781 16.1865 3.746C16.1204 4.23755 15.9711 4.70854 15.5889 5.09073C15.2067 5.47291 14.7357 5.62227 14.2441 5.68839C13.7859 5.74999 13.2137 5.74995 12.5498 5.74991L12.498 5.74991H11.498L11.4463 5.74991C10.7824 5.74995 10.2101 5.74999 9.75196 5.68839C9.2604 5.62227 8.78941 5.47291 8.40723 5.09073C8.02504 4.70854 7.87569 4.23755 7.80957 3.746C7.74637 3.27594 7.74805 2.68581 7.74805 1.99991V1.2753C7.32943 1.29208 6.94951 1.32 6.60645 1.36612C5.70634 1.48714 4.9486 1.74663 4.34668 2.34854C3.74476 2.95046 3.48528 3.7082 3.36426 4.60831C3.248 5.47322 3.24802 6.57239 3.24805 7.93546V16.0644C3.24802 17.4274 3.248 18.5266 3.36426 19.3915C3.48527 20.2916 3.74477 21.0494 4.34668 21.6513C4.9486 22.2532 5.70634 22.5127 6.60645 22.6337C7.47136 22.75 8.57054 22.7499 9.9336 22.7499H14.0625C15.4256 22.7499 16.5247 22.75 17.3897 22.6337C18.2898 22.5127 19.0475 22.2532 19.6494 21.6513C20.2513 21.0494 20.5108 20.2916 20.6318 19.3915C20.7481 18.5266 20.7481 17.4274 20.748 16.0644V7.93546C20.7481 6.57239 20.7481 5.47322 20.6318 4.60831C20.5108 3.7082 20.2513 2.95046 19.6494 2.34854C19.0475 1.74663 18.2898 1.48714 17.3897 1.36612Z" fill="currentColor"/><path d="M14.0625 1.25186C14.2989 1.25186 14.5274 1.25224 14.748 1.25284V2.00186C14.748 2.73009 14.7468 3.20089 14.7002 3.54776C14.6565 3.87306 14.5854 3.97504 14.5283 4.03214C14.4712 4.08923 14.3692 4.16027 14.0439 4.20401C13.6971 4.25063 13.2263 4.25186 12.498 4.25186H11.498C10.7698 4.25186 10.299 4.25063 9.95215 4.20401C9.62685 4.16027 9.52487 4.08923 9.46777 4.03214C9.41068 3.97504 9.33963 3.87306 9.2959 3.54776C9.24928 3.20089 9.24805 2.73008 9.24805 2.00186V1.25284C9.46873 1.25224 9.69719 1.25186 9.93359 1.25186H14.0625Z" fill="currentColor"/><path d="M9.91205 9.0334C10.1708 8.70996 10.6433 8.65746 10.9667 8.91622C11.2902 9.17497 11.3427 9.64746 11.0839 9.9709L9.08393 12.4709C8.95066 12.6375 8.75201 12.7394 8.53901 12.7512C8.32616 12.7628 8.11846 12.6832 7.96772 12.5324L6.96772 11.5324C6.67482 11.2395 6.67482 10.7648 6.96772 10.4719C7.26061 10.179 7.73537 10.179 8.02826 10.4719L8.43549 10.8791L9.91205 9.0334Z" fill="currentColor"/><path d="M16.998 16.2519C17.4123 16.2519 17.748 16.5876 17.748 17.0019C17.748 17.4161 17.4123 17.7519 16.998 17.7519H13.998C13.5838 17.7519 13.248 17.4161 13.248 17.0019C13.248 16.5876 13.5838 16.2519 13.998 16.2519H16.998ZM16.998 10.2519C17.4123 10.2519 17.748 10.5876 17.748 11.0019C17.748 11.4161 17.4123 11.7519 16.998 11.7519H13.998C13.5838 11.7519 13.248 11.4161 13.248 11.0019C13.248 10.5876 13.5838 10.2519 13.998 10.2519H16.998Z" fill="currentColor"/><path d="M8.5 16.0019C9.05228 16.0019 9.5 16.4496 9.5 17.0019C9.5 17.5541 9.05228 18.0019 8.5 18.0019H8.49023C7.93795 18.0019 7.49023 17.5541 7.49023 17.0019C7.49023 16.4496 7.93795 16.0019 8.49023 16.0019H8.5Z" fill="currentColor"/></svg>
