<svg xmlns="http://www.w3.org/2000/svg" viewBox="0 0 24 24" fill="none"><path d="M16.248 1.27628C16.6667 1.29306 17.0466 1.32098 17.3896 1.3671C18.2898 1.48811 19.0475 1.7476 19.6494 2.34952C20.2513 2.95143 20.5108 3.70918 20.6318 4.60928C20.7481 5.4742 20.7481 6.57337 20.748 7.93643L20.748 16.0653C20.7481 17.4284 20.7481 18.5276 20.6318 19.3925C20.5108 20.2926 20.2513 21.0503 19.6494 21.6523C19.0475 22.2542 18.2898 22.5137 17.3896 22.6347C16.5247 22.7509 15.4256 22.7509 14.0625 22.7509L9.93359 22.7509C8.57053 22.7509 7.47136 22.7509 6.60645 22.6347C5.70634 22.5137 4.9486 22.2542 4.34668 21.6523C3.74477 21.0503 3.48527 20.2926 3.36426 19.3925C3.24799 18.5276 3.24802 17.4284 3.24805 16.0653L3.24805 7.93643C3.24802 6.57337 3.24799 5.4742 3.36426 4.60928C3.48527 3.70918 3.74476 2.95143 4.34668 2.34952C4.9486 1.7476 5.70634 1.48811 6.60645 1.3671C6.94951 1.32098 7.32943 1.29306 7.74805 1.27628V2.00089C7.74805 2.68679 7.74637 3.27692 7.80957 3.74698C7.87569 4.23853 8.02504 4.70952 8.40723 5.09171C8.78941 5.47389 9.2604 5.62325 9.75195 5.68936C10.222 5.75256 10.8121 5.75089 11.498 5.75089L12.498 5.75089C13.1839 5.75089 13.7741 5.75256 14.2441 5.68936C14.7357 5.62325 15.2067 5.47389 15.5889 5.09171C15.9711 4.70952 16.1204 4.23853 16.1865 3.74698C16.2497 3.27692 16.248 2.68679 16.248 2.00089V1.27628ZM8.49023 16.0009C7.93795 16.0009 7.49023 16.4486 7.49023 17.0009C7.49023 17.5532 7.93795 18.0009 8.49023 18.0009H8.5C9.05228 18.0009 9.5 17.5532 9.5 17.0009C9.5 16.4486 9.05228 16.0009 8.5 16.0009H8.49023ZM13.998 16.2509C13.5838 16.2509 13.248 16.5867 13.248 17.0009C13.248 17.4151 13.5838 17.7509 13.998 17.7509H16.998C17.4123 17.7509 17.748 17.4151 17.748 17.0009C17.748 16.5867 17.4123 16.2509 16.998 16.2509L13.998 16.2509ZM10.9668 8.91495C10.6434 8.65634 10.1709 8.70891 9.91211 9.03214L8.43555 10.8778L8.02832 10.4706C7.73548 10.1779 7.26064 10.1779 6.96777 10.4706C6.67492 10.7635 6.675 11.2383 6.96777 11.5312L7.96777 12.5312C8.11851 12.6819 8.32622 12.7616 8.53906 12.7499C8.75204 12.7381 8.95073 12.6362 9.08398 12.4696L11.084 9.96964C11.3426 9.64619 11.2902 9.17365 10.9668 8.91495ZM13.998 10.2509C13.5838 10.2509 13.248 10.5867 13.248 11.0009C13.248 11.4151 13.5838 11.7509 13.998 11.7509L16.998 11.7509C17.4123 11.7509 17.748 11.4151 17.748 11.0009C17.748 10.5867 17.4123 10.2509 16.998 10.2509L13.998 10.2509ZM14.748 1.25186V2.00089C14.748 2.72911 14.7468 3.19992 14.7002 3.54678C14.6565 3.87209 14.5854 3.97407 14.5283 4.03116C14.4712 4.08825 14.3692 4.1593 14.0439 4.20303C13.6971 4.24965 13.2263 4.25089 12.498 4.25089H11.498C10.7698 4.25089 10.299 4.24965 9.95215 4.20303C9.62685 4.1593 9.52487 4.08825 9.46777 4.03116C9.41068 3.97406 9.33963 3.87208 9.2959 3.54678C9.24928 3.19992 9.24805 2.72911 9.24805 2.00089V1.25186C9.46873 1.25126 9.69719 1.25088 9.93359 1.25089L14.0625 1.25089C14.2989 1.25088 14.5274 1.25126 14.748 1.25186Z" fill="currentColor"/></svg>
