<svg xmlns="http://www.w3.org/2000/svg" viewBox="0 0 24 24" fill="none"><path d="M6.75 19.748C6.75 19.1957 6.30228 18.748 5.75 18.748C5.19772 18.748 4.75 19.1957 4.75 19.748C4.75 20.3003 5.19772 20.748 5.75 20.748C6.30228 20.748 6.75 20.3003 6.75 19.748ZM8.75 19.748C8.75 21.4048 7.40685 22.748 5.75 22.748C4.09315 22.748 2.75 21.4048 2.75 19.748C2.75 18.0911 4.09315 16.748 5.75 16.748C6.21245 16.748 6.64885 16.856 7.04004 17.0429L11.043 13.0409C11.4335 12.6504 12.0665 12.6504 12.457 13.0409C12.8476 13.4315 12.8476 14.0645 12.457 14.455L11.9141 14.998L12.457 15.5409C12.8476 15.9315 12.8476 16.5645 12.457 16.955C12.0665 17.3455 11.4335 17.3455 11.043 16.955L10.5 16.412L8.4541 18.457C8.64135 18.8484 8.75 19.2851 8.75 19.748Z" fill="currentColor"/><path opacity="0.4" d="M12.0896 1.24815L12.0879 1.24815C10.5624 1.24813 9.15452 1.24856 8.17578 1.36338C7.16314 1.48223 6.29458 1.7355 5.55957 2.33116C5.29006 2.54963 5.0445 2.79657 4.82715 3.06749C4.23462 3.80621 3.98252 4.67866 3.86426 5.69639C3.75 6.6801 3.74998 7.91694 3.75 9.4503V14.0245C3.74999 14.734 3.75212 15.3889 3.76172 15.9913C4.35504 15.6766 5.03161 15.4981 5.75 15.4981C6.07999 15.4981 6.3999 15.537 6.70606 15.6085L10.1592 12.1573L10.3301 12.003C11.2138 11.2822 12.517 11.3335 13.3408 12.1573C14.1133 12.9299 14.206 14.1237 13.6201 14.9981C14.2059 15.8726 14.1133 17.0665 13.3408 17.839C12.5791 18.6006 11.408 18.7007 10.5371 18.1417L9.88867 18.7892C9.96065 19.0959 10 19.4169 10 19.7481C9.99995 20.8802 9.55565 21.9074 8.83398 22.669C9.86764 22.7464 11.1552 22.7482 12.5713 22.7481H12.5866C14.3521 22.7482 15.776 22.7482 16.8965 22.5968C18.0633 22.4391 19.0459 22.1008 19.8262 21.3165C20.6061 20.5323 20.9418 19.5448 21.0986 18.3722C21.2497 17.2426 21.25 15.8062 21.25 14.0245V10.5499C21.251 9.88665 21.2514 9.29769 21.0273 8.75401C20.8033 8.21051 20.3891 7.79445 19.9219 7.32628L15.1387 2.51866C14.7362 2.11306 14.3796 1.75391 13.9248 1.53526C13.8312 1.4903 13.7355 1.44984 13.6377 1.41514C13.1629 1.24671 12.6586 1.24739 12.0896 1.24815Z" fill="currentColor"/><path d="M13.6373 1.41405C13.7353 1.44881 13.8314 1.4888 13.9251 1.53386C14.3799 1.75253 14.7362 2.11161 15.1387 2.51725L19.9215 7.3249L19.9215 7.32491C20.3889 7.79326 20.8036 8.20892 21.0277 8.75267C21.1265 8.9924 21.1816 9.24087 21.2122 9.50063H19.2314C17.8638 9.50065 17.2152 9.49986 16.3483 9.3833C15.4481 9.26228 14.6903 9.00339 14.0884 8.40147C13.4864 7.79956 13.2275 7.04168 13.1065 6.14158C12.9902 5.27639 12.9902 4.62868 12.9902 3.26684V3.26681V1.27539C13.2136 1.29846 13.4283 1.33988 13.6373 1.41405Z" fill="currentColor"/></svg>
