<svg xmlns="http://www.w3.org/2000/svg" viewBox="0 0 24 24" fill="none"><path d="M6.74951 19.748C6.74951 19.1957 6.3018 18.748 5.74951 18.748C5.19723 18.748 4.74951 19.1957 4.74951 19.748C4.74951 20.3003 5.19723 20.748 5.74951 20.748C6.3018 20.748 6.74951 20.3003 6.74951 19.748ZM8.74951 19.748C8.74951 21.4048 7.40637 22.748 5.74951 22.748C4.09266 22.748 2.74951 21.4048 2.74951 19.748C2.74951 18.0911 4.09266 16.748 5.74951 16.748C6.21197 16.748 6.64836 16.856 7.03955 17.0429L11.0425 13.0409C11.433 12.6504 12.066 12.6504 12.4565 13.0409C12.8471 13.4315 12.8471 14.0645 12.4565 14.455L11.9136 14.998L12.4565 15.5409C12.8471 15.9315 12.8471 16.5645 12.4565 16.955C12.066 17.3455 11.433 17.3455 11.0425 16.955L10.4995 16.412L8.45361 18.457C8.64086 18.8484 8.74951 19.2851 8.74951 19.748Z" fill="currentColor"/><path d="M12.0874 1.24815C12.6571 1.24739 13.1619 1.24654 13.6372 1.41514C13.735 1.44984 13.8308 1.4903 13.9243 1.53526C14.3791 1.75391 14.7358 2.11306 15.1382 2.51866L19.9214 7.32628C20.3886 7.79445 20.8028 8.21051 21.0269 8.75401C21.2509 9.29769 21.2505 9.88665 21.2495 10.5499V14.0245C21.2495 15.8062 21.2492 17.2426 21.0981 18.3722C20.9413 19.5448 20.6056 20.5323 19.8257 21.3165C19.0454 22.1008 18.0628 22.4391 16.896 22.5968C15.7722 22.7486 14.3434 22.7482 12.5708 22.7481C11.1547 22.7482 9.86716 22.7464 8.8335 22.669C9.55516 21.9074 9.99946 20.8802 9.99951 19.7481C9.99951 19.4169 9.96016 19.0959 9.88818 18.7892L10.5366 18.1417C11.4075 18.7007 12.5786 18.6006 13.3403 17.839C14.1128 17.0665 14.2054 15.8726 13.6196 14.9981C14.2055 14.1237 14.1128 12.9299 13.3403 12.1573C12.5165 11.3335 11.2133 11.2822 10.3296 12.003L10.1587 12.1573L6.70557 15.6085C6.39941 15.537 6.0795 15.4981 5.74951 15.4981C5.03112 15.4981 4.35455 15.6766 3.76123 15.9913C3.75164 15.3889 3.7495 14.734 3.74951 14.0245V9.4503C3.74949 7.91694 3.74951 6.6801 3.86377 5.69639C3.98203 4.67866 4.23413 3.80621 4.82666 3.06749C5.04401 2.79657 5.28957 2.54963 5.55908 2.33116C6.29409 1.7355 7.16265 1.48223 8.17529 1.36338C9.15403 1.24856 10.5619 1.24813 12.0874 1.24815ZM12.9897 3.26866C12.9897 4.62995 12.9897 5.27785 13.106 6.14268C13.2269 7.04251 13.4859 7.80062 14.0874 8.40245C14.6893 9.00436 15.448 9.26385 16.3481 9.38487C17.2149 9.50138 17.8636 9.50208 19.231 9.50206C19.1741 9.36429 19.0685 9.23344 18.4507 8.61241L13.8462 3.9835C13.3133 3.44787 13.1714 3.31455 12.9897 3.25987V3.26866Z" fill="currentColor" fill-rule="evenodd" clip-rule="evenodd"/></svg>
