<svg xmlns="http://www.w3.org/2000/svg" viewBox="0 0 24 24" fill="none"><path opacity="0.4" d="M19.75 15.0579V15V9V8.94211C19.75 7.34052 19.75 6.06221 19.6152 5.05957C19.4759 4.02332 19.18 3.17025 18.5049 2.49512C17.8298 1.81999 16.9767 1.52409 15.9404 1.38477C14.9378 1.24996 13.6595 1.24998 12.0579 1.25H12H11.9421C10.3405 1.24998 9.06221 1.24996 8.05957 1.38477C7.02332 1.52409 6.17025 1.81999 5.49512 2.49512C4.81999 3.17025 4.52409 4.02332 4.38477 5.05957C4.24996 6.06221 4.24998 7.34053 4.25 8.94213V9V15V15.0579C4.24998 16.6595 4.24996 17.9378 4.38477 18.9404C4.52409 19.9767 4.81999 20.8298 5.49512 21.5049C6.17025 22.18 7.02332 22.4759 8.05957 22.6152C9.06221 22.75 10.3405 22.75 11.9421 22.75H12H12.0579C13.6595 22.75 14.9378 22.75 15.9404 22.6152C16.9767 22.4759 17.8298 22.18 18.5049 21.5049C19.18 20.8298 19.4759 19.9767 19.6152 18.9404C19.75 17.9378 19.75 16.6595 19.75 15.0579Z" fill="currentColor"/><path d="M12 18C12.5523 18 13 18.4477 13 19C13 19.5523 12.5523 20 12 20C11.4477 20 11 19.5523 11 19C11 18.4477 11.4477 18 12 18Z" fill="currentColor"/><path d="M12 6.5C13.3776 6.5 14.6877 7.34014 15.2334 8.65234C16.241 11.076 14.1769 12.7559 12.6289 14.2471C12.4603 14.4094 12.2345 14.5 12 14.5C11.7655 14.5 11.5397 14.4095 11.3711 14.2471C9.82691 12.7508 7.75787 11.0789 8.7666 8.65234C9.31228 7.34019 10.6224 6.50006 12 6.5ZM12 8.75C11.3097 8.75004 10.75 9.30967 10.75 10C10.75 10.6903 11.3097 11.25 12 11.25C12.6903 11.25 13.25 10.6904 13.25 10C13.25 9.30965 12.6904 8.75 12 8.75Z" fill="currentColor" fill-rule="evenodd" clip-rule="evenodd"/></svg>
