<svg xmlns="http://www.w3.org/2000/svg" viewBox="0 0 24 24" fill="none"><path d="M12 8.75C12.6904 8.75 13.25 9.30965 13.25 10C13.25 10.6904 12.6904 11.25 12 11.25C11.3096 11.25 10.75 10.6904 10.75 10C10.75 9.30965 11.3096 8.75 12 8.75Z" fill="currentColor"/><path d="M12.0576 1.25C13.6592 1.24998 14.9378 1.24996 15.9404 1.38477C16.9767 1.52409 17.8298 1.81999 18.5049 2.49512C19.18 3.17025 19.4759 4.02332 19.6152 5.05957C19.75 6.06221 19.75 7.34079 19.75 8.94238V15.0576C19.75 16.6592 19.75 17.9378 19.6152 18.9404C19.4759 19.9767 19.18 20.8298 18.5049 21.5049C17.8298 22.18 16.9767 22.4759 15.9404 22.6152C14.9378 22.75 13.6592 22.75 12.0576 22.75H11.9424C10.3408 22.75 9.06221 22.75 8.05957 22.6152C7.02332 22.4759 6.17025 22.18 5.49512 21.5049C4.81999 20.8298 4.52409 19.9767 4.38477 18.9404C4.24996 17.9378 4.24998 16.6592 4.25 15.0576V8.94238C4.24998 7.34078 4.24996 6.06221 4.38477 5.05957C4.52409 4.02332 4.81998 3.17025 5.49512 2.49512C6.17025 1.81998 7.02332 1.52409 8.05957 1.38477C9.06221 1.24996 10.3408 1.24998 11.9424 1.25H12.0576ZM12 18C11.4477 18 11 18.4477 11 19C11 19.5523 11.4477 20 12 20C12.5523 20 13 19.5523 13 19C13 18.4477 12.5523 18 12 18ZM12 6.5C10.6224 6.50003 9.31229 7.34016 8.7666 8.65234C7.75784 11.079 9.8269 12.7508 11.3711 14.2471C11.5397 14.4095 11.7654 14.5 12 14.5C12.2346 14.5 12.4603 14.4095 12.6289 14.2471C14.1769 12.7559 16.2409 11.0759 15.2334 8.65234C14.6877 7.34014 13.3776 6.5 12 6.5Z" fill="currentColor"/></svg>
