<svg xmlns="http://www.w3.org/2000/svg" viewBox="0 0 24 24" fill="none"><path opacity="0.4" d="M13.6182 1.47369C12.5602 1.17531 11.4398 1.17531 10.3818 1.47369C9.58339 1.69892 8.88184 2.14433 8.12011 2.78228C7.37451 3.40676 6.51971 4.26158 5.42871 5.3526L5.39062 5.39068L5.35254 5.42877C4.26152 6.51977 3.4067 7.37457 2.78222 8.12017C2.14427 8.8819 1.69886 9.58346 1.47363 10.3819C1.17525 11.4399 1.17525 12.5603 1.47363 13.6182C1.69886 14.4167 2.14427 15.1182 2.78222 15.8799C3.40671 16.6256 4.26155 17.4804 5.35259 18.5714L5.39062 18.6094L5.42867 18.6475C6.51969 19.7385 7.3745 20.5933 8.12011 21.2178C8.88184 21.8558 9.58339 22.3012 10.3818 22.5264C11.4398 22.8248 12.5602 22.8248 13.6182 22.5264C14.4166 22.3012 15.1182 21.8558 15.8799 21.2178C16.6255 20.5933 17.4803 19.7385 18.5714 18.6474L18.6094 18.6094L18.6473 18.5715C19.7384 17.4804 20.5933 16.6256 21.2178 15.8799C21.8557 15.1182 22.3011 14.4167 22.5264 13.6182C22.8247 12.5603 22.8247 11.4399 22.5264 10.3819C22.3011 9.58346 21.8557 8.8819 21.2178 8.12017C20.5933 7.37456 19.7385 6.51975 18.6474 5.42874L18.6094 5.39068L18.5713 5.35265C17.4803 4.26161 16.6255 3.40677 15.8799 2.78228C15.1182 2.14433 14.4166 1.69892 13.6182 1.47369Z" fill="currentColor"/><path d="M10.9998 15.9999V11.9999C10.9998 11.4476 11.4476 10.9999 11.9998 10.9999C12.5521 10.9999 12.9998 11.4476 12.9998 11.9999V15.9999C12.9998 16.5522 12.5521 16.9999 11.9998 16.9999C11.4476 16.9999 10.9998 16.5522 10.9998 15.9999Z" fill="currentColor"/><path d="M11.9998 7.24991C12.5521 7.24991 12.9998 7.69762 12.9998 8.24991C12.9998 8.80219 12.5521 9.24991 11.9998 9.24991C11.4476 9.24991 10.9998 8.80219 10.9998 8.24991C10.9998 7.69762 11.4476 7.24991 11.9998 7.24991Z" fill="currentColor"/></svg>
