<svg xmlns="http://www.w3.org/2000/svg" viewBox="0 0 24 24" fill="none"><path d="M10.3818 1.47367C11.4397 1.17531 12.5602 1.17534 13.6181 1.47367C14.4165 1.69888 15.1182 2.14438 15.8799 2.78226C16.6254 3.40671 17.4803 4.26163 18.5713 5.35257L18.6474 5.42874C19.7384 6.51968 20.5933 7.37458 21.2177 8.12015C21.8556 8.88181 22.3011 9.5835 22.5263 10.3819C22.8247 11.4398 22.8247 12.5603 22.5263 13.6182C22.3011 14.4166 21.8557 15.1182 21.2177 15.8799C20.5933 16.6255 19.7385 17.4803 18.6474 18.5713L18.5713 18.6475C17.4803 19.7385 16.6255 20.5933 15.8799 21.2178C15.1181 21.8558 14.4166 22.3012 13.6181 22.5264C12.5602 22.8247 11.4397 22.8248 10.3818 22.5264C9.58344 22.3012 8.88175 21.8557 8.12009 21.2178C7.37452 20.5933 6.51962 19.7384 5.42868 18.6475L5.35251 18.5713C4.26156 17.4804 3.40665 16.6255 2.7822 15.8799C2.14432 15.1183 1.69882 14.4166 1.4736 13.6182C1.17528 12.5603 1.17525 11.4398 1.4736 10.3819C1.69884 9.58347 2.14427 8.88184 2.7822 8.12015C3.40668 7.37455 4.2615 6.51974 5.35251 5.42874L5.42868 5.35257C6.51968 4.26156 7.37449 3.40674 8.12009 2.78226C8.88178 2.14433 9.58341 1.6989 10.3818 1.47367ZM12 11C11.4477 11 11 11.4477 11 12V16C11 16.5523 11.4477 17 12 17C12.5523 17 13 16.5523 13 16V12C13 11.4477 12.5523 11 12 11ZM12 7.25003C11.4477 7.25003 11 7.69775 11 8.25003C11 8.80231 11.4477 9.25003 12 9.25003C12.5523 9.25003 13 8.80232 13 8.25003C13 7.69775 12.5523 7.25003 12 7.25003Z" fill="currentColor" fill-rule="evenodd" clip-rule="evenodd"/></svg>
