<svg xmlns="http://www.w3.org/2000/svg" viewBox="0 0 24 24" fill="none"><path d="M5.99963 17V3.5C5.99963 2.94772 6.44735 2.5 6.99963 2.5C7.55192 2.5 7.99963 2.94772 7.99963 3.5V17C7.99963 17.5523 7.55192 18 6.99963 18C6.44735 18 5.99963 17.5523 5.99963 17Z" fill="currentColor"/><path d="M15.9996 17V3.5C15.9996 2.94772 16.4473 2.5 16.9996 2.5C17.5519 2.5 17.9996 2.94772 17.9996 3.5V17C17.9996 17.5523 17.5519 18 16.9996 18C16.4473 18 15.9996 17.5523 15.9996 17Z" fill="currentColor"/><path opacity="0.4" d="M19.9996 20C20.5519 20 20.9996 20.4477 20.9996 21C20.9996 21.5523 20.5519 22 19.9996 22H3.99963C3.44735 22 2.99963 21.5523 2.99963 21C2.99963 20.4477 3.44735 20 3.99963 20H19.9996Z" fill="currentColor"/><path d="M6.99958 2C7.37683 2 7.69099 2.16356 7.87165 2.27246C8.07975 2.39791 8.28208 2.55861 8.46443 2.71973C8.83128 3.04393 9.21503 3.45737 9.55134 3.84473C9.89197 4.23707 10.2043 4.62647 10.4302 4.91602C10.5436 5.06133 10.6361 5.18294 10.7008 5.26855C10.7331 5.31139 10.7584 5.34556 10.7759 5.36914C10.7847 5.38091 10.7917 5.39006 10.7965 5.39648C10.7987 5.39951 10.801 5.40154 10.8023 5.40332L10.8043 5.40625V5.40723H10.8052C11.1324 5.8519 11.0369 6.47825 10.5924 6.80566C10.1477 7.13284 9.52134 7.03735 9.19392 6.59277V6.5918C9.19317 6.59078 9.19169 6.58918 9.19001 6.58691L9.10505 6.47363C9.04583 6.39523 8.96 6.28222 8.85407 6.14648C8.64113 5.87361 8.35102 5.51281 8.0406 5.15527C7.726 4.79295 7.40973 4.45593 7.14021 4.21777C7.08861 4.17218 7.04092 4.13447 6.99958 4.10156C6.95837 4.13437 6.91135 4.17235 6.85993 4.21777C6.59038 4.45594 6.27321 4.79291 5.95857 5.15527C5.64814 5.5128 5.35804 5.87361 5.14509 6.14648C5.03917 6.28222 4.95333 6.39523 4.89411 6.47363L4.80915 6.58691C4.80747 6.58918 4.806 6.59078 4.80525 6.5918V6.59277L4.73982 6.67188C4.39957 7.04764 3.82376 7.11177 3.40681 6.80469C2.96231 6.47726 2.86677 5.85187 3.19392 5.40723H3.1949V5.40625C3.1953 5.4057 3.19618 5.40423 3.19685 5.40332C3.19816 5.40154 3.20046 5.39952 3.20271 5.39648C3.20747 5.39006 3.21445 5.3809 3.22322 5.36914C3.24079 5.34556 3.26606 5.31139 3.29841 5.26855C3.36308 5.18294 3.4555 5.06134 3.56892 4.91602C3.79488 4.62647 4.10718 4.23707 4.44782 3.84473C4.78414 3.45739 5.16789 3.04392 5.53474 2.71973C5.71709 2.55861 5.91942 2.39791 6.12751 2.27246C6.30817 2.16356 6.62233 2.00001 6.99958 2Z" fill="currentColor"/><path d="M16.9996 2C17.3768 2 17.691 2.16356 17.8717 2.27246C18.0798 2.39791 18.2821 2.55861 18.4644 2.71973C18.8313 3.04393 19.215 3.45737 19.5513 3.84473C19.892 4.23707 20.2043 4.62647 20.4302 4.91602C20.5436 5.06133 20.6361 5.18294 20.7008 5.26855C20.7331 5.31139 20.7584 5.34556 20.7759 5.36914C20.7847 5.38091 20.7917 5.39006 20.7965 5.39648C20.7987 5.39951 20.801 5.40154 20.8023 5.40332L20.8043 5.40625V5.40723H20.8052C21.1324 5.8519 21.0369 6.47825 20.5924 6.80566C20.1477 7.13284 19.5213 7.03735 19.1939 6.59277V6.5918C19.1932 6.59078 19.1917 6.58918 19.19 6.58691L19.1051 6.47363C19.0458 6.39523 18.96 6.28222 18.8541 6.14648C18.6411 5.87361 18.351 5.51281 18.0406 5.15527C17.726 4.79295 17.4097 4.45593 17.1402 4.21777C17.0886 4.17218 17.0409 4.13447 16.9996 4.10156C16.9584 4.13437 16.9114 4.17235 16.8599 4.21777C16.5904 4.45594 16.2732 4.79291 15.9586 5.15527C15.6481 5.5128 15.358 5.87361 15.1451 6.14648C15.0392 6.28222 14.9533 6.39523 14.8941 6.47363L14.8092 6.58691C14.8075 6.58918 14.806 6.59078 14.8052 6.5918V6.59277L14.7398 6.67188C14.3996 7.04764 13.8238 7.11177 13.4068 6.80469C12.9623 6.47726 12.8668 5.85187 13.1939 5.40723H13.1949V5.40625C13.1953 5.4057 13.1962 5.40423 13.1968 5.40332C13.1982 5.40154 13.2005 5.39952 13.2027 5.39648C13.2075 5.39006 13.2145 5.3809 13.2232 5.36914C13.2408 5.34556 13.2661 5.31139 13.2984 5.26855C13.3631 5.18294 13.4555 5.06134 13.5689 4.91602C13.7949 4.62647 14.1072 4.23707 14.4478 3.84473C14.7841 3.45739 15.1679 3.04392 15.5347 2.71973C15.7171 2.55861 15.9194 2.39791 16.1275 2.27246C16.3082 2.16356 16.6223 2.00001 16.9996 2Z" fill="currentColor"/></svg>
