<svg xmlns="http://www.w3.org/2000/svg" viewBox="0 0 24 24" fill="none"><path d="M19.9995 20.0005C20.5518 20.0005 20.9995 20.4482 20.9995 21.0005C20.9995 21.5528 20.5518 22.0005 19.9995 22.0005H3.99955C3.44732 22.0004 2.99955 21.5527 2.99955 21.0005C2.99955 20.4482 3.44732 20.0006 3.99955 20.0005H19.9995ZM6.99955 2.00049C7.37676 2.00049 7.69095 2.16405 7.87162 2.27295C8.0797 2.39839 8.28206 2.55911 8.46439 2.72021C8.83123 3.04441 9.215 3.45787 9.55131 3.84521C9.89193 4.23754 10.2043 4.62696 10.4302 4.9165C10.5436 5.0618 10.6361 5.18343 10.7007 5.26904C10.7331 5.31185 10.7583 5.34605 10.7759 5.36963C10.7847 5.38138 10.7917 5.39055 10.7964 5.39697C10.7987 5.39998 10.801 5.40204 10.8023 5.40381L10.8042 5.40674V5.40771H10.8052C11.1324 5.85239 11.0369 6.47874 10.5923 6.80615C10.1477 7.13329 9.52129 7.03782 9.19389 6.59326V6.59229C9.19313 6.59126 9.19164 6.58965 9.18998 6.5874L9.10502 6.47412C9.0458 6.39572 8.95995 6.28269 8.85404 6.14697C8.6411 5.8741 8.35097 5.51328 8.04057 5.15576C8.02693 5.14006 8.01319 5.12449 7.99955 5.10889V17.0005C7.99955 17.5528 7.55184 18.0005 6.99955 18.0005C6.44732 18.0004 5.99955 17.5527 5.99955 17.0005V5.10889C5.98592 5.12448 5.97216 5.14007 5.95853 5.15576C5.64812 5.51328 5.358 5.87411 5.14506 6.14697C5.03915 6.28269 4.9533 6.39573 4.89408 6.47412L4.80912 6.5874C4.80745 6.58965 4.80596 6.59127 4.80521 6.59229V6.59326L4.73978 6.67236C4.39953 7.0481 3.82371 7.11225 3.40678 6.80518C2.96233 6.47774 2.86678 5.85234 3.19389 5.40771H3.19486V5.40674C3.19526 5.4062 3.19615 5.40472 3.19682 5.40381C3.19812 5.40204 3.20044 5.39999 3.20268 5.39697C3.20743 5.39056 3.21443 5.38137 3.22318 5.36963C3.24075 5.34606 3.26604 5.31186 3.29838 5.26904C3.36304 5.18344 3.45548 5.06182 3.56889 4.9165C3.79484 4.62697 4.10716 4.23755 4.44779 3.84521C4.78409 3.45789 5.16787 3.0444 5.53471 2.72021C5.71704 2.55911 5.9194 2.39839 6.12748 2.27295C6.30812 2.16406 6.62233 2.00052 6.99955 2.00049ZM16.9995 2.00049C17.3768 2.00049 17.6909 2.16405 17.8716 2.27295C18.0797 2.39839 18.2821 2.55911 18.4644 2.72021C18.8312 3.04441 19.215 3.45787 19.5513 3.84521C19.8919 4.23754 20.2043 4.62696 20.4302 4.9165C20.5436 5.0618 20.6361 5.18343 20.7007 5.26904C20.7331 5.31185 20.7583 5.34605 20.7759 5.36963C20.7847 5.38138 20.7917 5.39055 20.7964 5.39697C20.7987 5.39998 20.801 5.40204 20.8023 5.40381L20.8042 5.40674V5.40771H20.8052C21.1324 5.85239 21.0369 6.47874 20.5923 6.80615C20.1476 7.13329 19.5213 7.03782 19.1939 6.59326V6.59229C19.1931 6.59126 19.1916 6.58965 19.19 6.5874L19.105 6.47412C19.0458 6.39572 18.9599 6.28269 18.854 6.14697C18.6411 5.8741 18.351 5.51328 18.0406 5.15576C18.0269 5.14006 18.0132 5.12449 17.9995 5.10889V17.0005C17.9995 17.5528 17.5518 18.0005 16.9995 18.0005C16.4473 18.0004 15.9995 17.5527 15.9995 17.0005V5.10889C15.9859 5.12448 15.9722 5.14007 15.9585 5.15576C15.6481 5.51328 15.358 5.87411 15.1451 6.14697C15.0391 6.28269 14.9533 6.39573 14.8941 6.47412L14.8091 6.5874C14.8075 6.58965 14.806 6.59127 14.8052 6.59229V6.59326L14.7398 6.67236C14.3995 7.0481 13.8237 7.11225 13.4068 6.80518C12.9623 6.47774 12.8668 5.85234 13.1939 5.40771H13.1949V5.40674C13.1953 5.4062 13.1961 5.40472 13.1968 5.40381C13.1981 5.40204 13.2004 5.39999 13.2027 5.39697C13.2074 5.39056 13.2144 5.38137 13.2232 5.36963C13.2407 5.34606 13.266 5.31186 13.2984 5.26904C13.363 5.18344 13.4555 5.06182 13.5689 4.9165C13.7948 4.62697 14.1072 4.23755 14.4478 3.84521C14.7841 3.45789 15.1679 3.0444 15.5347 2.72021C15.717 2.55911 15.9194 2.39839 16.1275 2.27295C16.3081 2.16406 16.6223 2.00052 16.9995 2.00049Z" fill="currentColor" fill-rule="evenodd" clip-rule="evenodd"/></svg>
