<svg xmlns="http://www.w3.org/2000/svg" viewBox="0 0 24 24" fill="none"><path d="M12.0528 7.25C12.7165 7.24998 13.2604 7.24995 13.7032 7.28613C14.1665 7.32398 14.585 7.40541 14.9757 7.60449C15.5871 7.91605 16.084 8.41305 16.3956 9.02442C16.5947 9.41515 16.6761 9.83363 16.714 10.2969C16.7312 10.5079 16.7385 10.742 16.7433 11.001C16.1744 11.0012 15.6456 11.0033 15.1954 11.04C14.653 11.0844 14.0524 11.1879 13.4571 11.4912C12.6107 11.9226 11.9227 12.6106 11.4913 13.457C11.188 14.0523 11.0845 14.6529 11.0401 15.1953C11.0034 15.6455 11.0013 16.1743 11.0011 16.7432C10.7421 16.7384 10.508 16.7311 10.297 16.7139C9.83372 16.676 9.41525 16.5946 9.02451 16.3955C8.41315 16.0839 7.91615 15.587 7.60459 14.9756C7.40551 14.5849 7.32408 14.1664 7.28623 13.7031C7.25005 13.2603 7.25008 12.7164 7.2501 12.0527V11.9473C7.25008 11.2836 7.25005 10.7397 7.28623 10.2969C7.32408 9.83363 7.4055 9.41515 7.60459 9.02442C7.91615 8.41305 8.41315 7.91605 9.02451 7.60449C9.41525 7.4054 9.83372 7.32398 10.297 7.28613C10.7398 7.24995 11.2837 7.24998 11.9474 7.25H12.0528Z" fill="currentColor"/><path opacity="0.4" d="M7.05283 2.25C7.7165 2.24998 8.26041 2.24995 8.70323 2.28613C9.16648 2.32398 9.58495 2.40541 9.97569 2.60449C10.5871 2.91605 11.084 3.41305 11.3956 4.02442C11.5947 4.41515 11.6761 4.83363 11.714 5.29688C11.7312 5.50794 11.7385 5.74198 11.7433 6.00098C11.1744 6.00116 10.6456 6.00327 10.1954 6.04004C9.65305 6.08436 9.05242 6.1879 8.45713 6.49121C7.61065 6.9226 6.9227 7.61055 6.49131 8.45703C6.188 9.05232 6.08446 9.65295 6.04014 10.1953C6.00337 10.6455 6.00126 11.1743 6.00108 11.7432C5.74208 11.7384 5.50804 11.7311 5.29698 11.7139C4.83372 11.676 4.41525 11.5946 4.02451 11.3955C3.41315 11.0839 2.91615 10.587 2.60459 9.97559C2.40551 9.58485 2.32408 9.16638 2.28623 8.70313C2.25005 8.26031 2.25008 7.7164 2.2501 7.05274V6.94727C2.25008 6.2836 2.25005 5.73969 2.28623 5.29688C2.32408 4.83363 2.4055 4.41515 2.60459 4.02442C2.91615 3.41305 3.41315 2.91605 4.02451 2.60449C4.41525 2.4054 4.83372 2.32398 5.29698 2.28613C5.73979 2.24995 6.2837 2.24998 6.94737 2.25H7.05283Z" fill="currentColor"/><path opacity="0.4" d="M21.7501 17.0528L21.7501 17L21.7501 16.9472C21.7501 16.2835 21.7501 15.7397 21.714 15.2969C21.6761 14.8336 21.5947 14.4152 21.3956 14.0244C21.084 13.413 20.5871 12.9161 19.9757 12.6045C19.585 12.4054 19.1665 12.324 18.7032 12.2861C18.2604 12.25 17.7166 12.25 17.0529 12.25L17.0001 12.25L16.9473 12.25C16.2836 12.25 15.7398 12.25 15.297 12.2861C14.8337 12.324 14.4153 12.4054 14.0245 12.6045C13.4131 12.9161 12.9162 13.413 12.6046 14.0244C12.4055 14.4152 12.3241 14.8336 12.2862 15.2969C12.2501 15.7397 12.2501 16.2835 12.2501 16.9472L12.2501 17L12.2501 17.0528C12.2501 17.7165 12.2501 18.2603 12.2862 18.7031C12.3241 19.1664 12.4055 19.5849 12.6046 19.9756C12.9162 20.587 13.4131 21.084 14.0245 21.3955C14.4153 21.5946 14.8337 21.676 15.297 21.7139C15.7398 21.75 16.2836 21.75 16.9473 21.75L17.0001 21.75L17.0529 21.75C17.7166 21.75 18.2604 21.75 18.7032 21.7139C19.1665 21.676 19.585 21.5946 19.9757 21.3955C20.5871 21.084 21.084 20.587 21.3956 19.9756C21.5947 19.5849 21.6761 19.1664 21.714 18.7031C21.7501 18.2603 21.7501 17.7165 21.7501 17.0528Z" fill="currentColor"/></svg>
