<svg xmlns="http://www.w3.org/2000/svg" viewBox="0 0 24 24" fill="none"><path opacity="0.4" d="M16.7111 2.35252C13.3709 1.73898 10.1657 3.94897 9.55192 7.28904C9.34262 8.42845 8.42863 9.34244 7.28922 9.55174C3.94915 10.1655 1.73917 13.3707 2.3527 16.7109C2.96647 20.051 6.1717 22.261 9.51188 21.6474C15.6732 20.5155 20.5157 15.673 21.6476 9.5117C22.2612 6.17152 20.0512 2.96629 16.7111 2.35252Z" fill="currentColor"/><path d="M10.3305 5.22693C11.8855 5.77528 13.0005 7.25676 13.0005 8.99939C13.0005 11.2084 11.2095 12.9993 9.00046 12.9994C7.25798 12.9994 5.77549 11.8852 5.22702 10.3304C5.84453 9.95831 6.53848 9.68916 7.28952 9.55115C8.42876 9.34179 9.34286 8.42769 9.55222 7.28845C9.69014 6.53787 9.95876 5.84415 10.3305 5.22693Z" fill="currentColor"/></svg>
