<svg xmlns="http://www.w3.org/2000/svg" viewBox="0 0 24 24" fill="none"><path d="M10.7711 4.59199C12.1378 2.86222 14.3913 1.92594 16.7106 2.35176C20.0505 2.9655 22.2604 6.17088 21.6471 9.51094C20.5152 15.6722 15.6726 20.5148 9.51136 21.6467C6.17131 22.26 2.96593 20.0501 2.35218 16.7102C1.92637 14.3909 2.86264 12.1374 4.59242 10.7707C5.29451 12.5167 7.00257 13.75 8.99964 13.7502C11.6229 13.7502 13.7495 11.6234 13.7496 9.00019C13.7496 7.00297 12.5171 5.29417 10.7711 4.59199ZM9.98109 5.90058C11.2966 6.31656 12.2496 7.54716 12.2496 9.00019C12.2495 10.795 10.7945 12.2502 8.99964 12.2502C7.54675 12.25 6.3169 11.2961 5.90101 9.98066C6.33602 9.78757 6.80001 9.64081 7.28871 9.55098C8.42812 9.34168 9.34211 8.42769 9.5514 7.28828C9.64123 6.79958 9.788 6.33559 9.98109 5.90058Z" fill="currentColor" fill-rule="evenodd" clip-rule="evenodd"/></svg>
