<svg xmlns="http://www.w3.org/2000/svg" viewBox="0 0 24 24" fill="none"><path d="M17.0001 3.99963C17.5524 3.99963 18.0001 4.44735 18.0001 4.99963C18.0001 5.55192 17.5524 5.99963 17.0001 5.99963H3.00012C2.44784 5.99963 2.00012 5.55192 2.00012 4.99963C2.00012 4.44735 2.44784 3.99963 3.00012 3.99963H17.0001Z" fill="currentColor"/><path d="M12.0001 10.9996C12.5524 10.9996 13.0001 11.4473 13.0001 11.9996C13.0001 12.5519 12.5524 12.9996 12.0001 12.9996H3.00012C2.44784 12.9996 2.00012 12.5519 2.00012 11.9996C2.00012 11.4473 2.44784 10.9996 3.00012 10.9996H12.0001Z" fill="currentColor"/><path d="M20.2843 8.79747C20.6744 8.40666 21.3075 8.40545 21.6983 8.79551C22.0891 9.18566 22.0894 9.81871 21.6993 10.2096L19.9132 11.9986L21.7081 13.7975C22.0979 14.1883 22.0969 14.8215 21.7062 15.2115C21.3153 15.6013 20.6822 15.6003 20.2921 15.2096L18.5001 13.4147L16.7081 15.2096C16.318 15.6003 15.6849 15.6013 15.294 15.2115C14.9033 14.8215 14.9023 14.1883 15.2921 13.7975L17.086 11.9986L15.3009 10.2096C14.9108 9.81871 14.9111 9.18566 15.3019 8.79551C15.6927 8.40545 16.3258 8.40666 16.7159 8.79747L18.5001 10.5836L20.2843 8.79747Z" fill="currentColor"/><path d="M17.0001 17.9996C17.5524 17.9996 18.0001 18.4473 18.0001 18.9996C18.0001 19.5519 17.5524 19.9996 17.0001 19.9996H3.00012C2.44784 19.9996 2.00012 19.5519 2.00012 18.9996C2.00012 18.4473 2.44784 17.9996 3.00012 17.9996H17.0001Z" fill="currentColor"/></svg>
