<svg xmlns="http://www.w3.org/2000/svg" viewBox="0 0 24 24" fill="none"><path opacity="0.4" d="M5.43002 8.51254C5.57251 8.34592 5.78077 8.25 6.00001 8.25H18C18.2192 8.25 18.4275 8.34592 18.57 8.51254C18.7125 8.67915 18.7749 8.89977 18.7409 9.11634L17.2553 18.577L17.2553 18.5771C17.1372 19.3297 17.0376 19.9642 16.8916 20.466C16.7364 20.9997 16.5056 21.4715 16.069 21.8385C15.6139 22.221 14.9237 22.4343 14.2589 22.5606C13.5611 22.6933 12.7587 22.7535 11.9716 22.7498C11.1842 22.7462 10.3873 22.6785 9.69993 22.5442C9.04862 22.4169 8.36979 22.2073 7.93101 21.8385C7.49442 21.4715 7.26364 20.9997 7.10839 20.466C6.96244 19.9642 6.86283 19.3297 6.74467 18.577L6.74466 18.577L5.25908 9.11634C5.22508 8.89977 5.28753 8.67915 5.43002 8.51254Z" fill="currentColor"/><path d="M5.9767 10C5.99206 10.0004 6.00739 10.0004 6.02268 10H17.9773C17.9926 10.0004 18.0079 10.0004 18.0233 10H19C19.5523 10 20 9.55228 20 9C20 8.44772 19.5523 8 19 8H18.677L18.414 7.34252C17.3649 4.71979 14.8248 3 12 3C9.17523 3 6.63505 4.71979 5.58596 7.34252L5.32297 8H5C4.44772 8 4 8.44772 4 9C4 9.55228 4.44772 10 5 10H5.9767ZM7.47796 8H16.522C15.7563 6.18469 13.9762 5 12 5C10.0238 5 8.2437 6.18468 7.47796 8Z" fill="currentColor" fill-rule="evenodd" clip-rule="evenodd"/><path d="M16.3957 1.08142C16.9033 1.29897 17.1385 1.88685 16.9209 2.39448L13.9209 9.39448C13.7034 9.90211 13.1155 10.1373 12.6079 9.91971C12.1002 9.70215 11.8651 9.11428 12.0826 8.60665L15.0826 1.60665C15.3002 1.09902 15.8881 0.863864 16.3957 1.08142Z" fill="currentColor" fill-rule="evenodd" clip-rule="evenodd"/><path d="M13 12C13.5523 12 14 12.4477 14 13C14 13.5523 13.5523 14 13 14C12.4477 14 12 13.5523 12 13C12 12.4477 12.4477 12 13 12Z" fill="currentColor"/><path d="M13.5 17C14.0523 17 14.5 17.4477 14.5 18C14.5 18.5523 14.0523 19 13.5 19C12.9823 19 12.5562 18.6067 12.5049 18.1025L12.5 18L12.5049 17.8975C12.5562 17.3933 12.9823 17 13.5 17Z" fill="currentColor"/><path d="M10 14.5C10.5523 14.5 11 14.9477 11 15.5C11 16.0523 10.5523 16.5 10 16.5C9.44772 16.5 9 16.0523 9 15.5C9 14.9477 9.44771 14.5 10 14.5Z" fill="currentColor"/></svg>
