<svg xmlns="http://www.w3.org/2000/svg" viewBox="0 0 24 24" fill="none"><path d="M5.9767 9.99982C5.99206 10.0002 6.00739 10.0002 6.02268 9.99982H17.9773C17.9926 10.0002 18.0079 10.0002 18.0233 9.99982H19C19.5523 9.99982 20 9.5521 20 8.99982C20 8.44753 19.5523 7.99982 19 7.99982H18.677L18.414 7.34233C17.3649 4.7196 14.8248 2.99982 12 2.99982C9.17523 2.99982 6.63505 4.7196 5.58596 7.34233L5.32297 7.99982H5C4.44772 7.99982 4 8.44753 4 8.99982C4 9.5521 4.44772 9.99982 5 9.99982H5.9767ZM7.47796 7.99982H16.522C15.7563 6.1845 13.9762 4.99982 12 4.99982C10.0238 4.99982 8.2437 6.1845 7.47796 7.99982Z" fill="currentColor" fill-rule="evenodd" clip-rule="evenodd"/><path d="M16.3957 1.08124C16.9033 1.29879 17.1385 1.88667 16.9209 2.3943L13.9209 9.3943C13.7034 9.90193 13.1155 10.1371 12.6079 9.91953C12.1002 9.70197 11.8651 9.11409 12.0826 8.60646L15.0826 1.60646C15.3002 1.09883 15.8881 0.863681 16.3957 1.08124Z" fill="currentColor" fill-rule="evenodd" clip-rule="evenodd"/><path d="M11.9718 22.7493C12.7589 22.753 13.5612 22.6935 14.2589 22.5608C14.9237 22.4345 15.6144 22.2207 16.0695 21.8382C16.5058 21.4713 16.7365 20.9996 16.8917 20.4661C17.0377 19.9644 17.1369 19.3291 17.255 18.5765L18.7414 9.11651C18.7754 8.89994 18.7129 8.67863 18.5705 8.51202C18.428 8.34544 18.2193 8.25034 18.0001 8.2503L6.00015 8.2503C5.78096 8.2503 5.57232 8.34547 5.42983 8.51202C5.28734 8.67863 5.22493 8.89993 5.25894 9.11651L6.74429 18.5765C6.86245 19.3291 6.96259 19.9644 7.10854 20.4661C7.26377 20.9996 7.49444 21.4713 7.93081 21.8382C8.3696 22.207 9.04903 22.417 9.70034 22.5442C10.3876 22.6785 11.1847 22.7457 11.9718 22.7493ZM13.0001 14.0003C12.448 14.0003 12.0004 13.5524 12.0001 13.0003C12.0001 12.448 12.4479 12.0003 13.0001 12.0003C13.5524 12.0004 14.0001 12.4481 14.0001 13.0003C13.9999 13.5523 13.5522 14.0002 13.0001 14.0003ZM10.0001 16.5003C9.44802 16.5003 9.0004 16.0524 9.00015 15.5003C9.00015 14.948 9.44786 14.5003 10.0001 14.5003C10.5524 14.5004 11.0001 14.9481 11.0001 15.5003C10.9999 16.0523 10.5522 16.5002 10.0001 16.5003ZM13.5001 19.0003C12.9826 19.0003 12.5566 18.6067 12.505 18.1028L12.5001 18.0003L12.505 17.8978C12.5564 17.3936 12.9825 17.0003 13.5001 17.0003C14.0524 17.0004 14.5001 17.4481 14.5001 18.0003C14.4999 18.5523 14.0522 19.0002 13.5001 19.0003Z" fill="currentColor" fill-rule="evenodd" clip-rule="evenodd"/></svg>
