<svg xmlns="http://www.w3.org/2000/svg" viewBox="0 0 24 24" fill="none"><path d="M22.5 10.752C22.7974 10.7519 23.0668 10.5759 23.1866 10.3037C23.3061 10.0316 23.2536 9.71429 23.0528 9.49512L18.7422 4.79199C18.2007 4.20123 17.7903 3.73199 17.2276 3.48438C16.6648 3.23685 16.0416 3.25195 15.2403 3.25195H7.00003C6.81605 3.25195 6.63941 3.31968 6.50296 3.44043L6.4473 3.49512L4.75003 5.34668V4C4.75003 3.58582 4.4142 3.25006 4.00003 3.25C3.58582 3.25 3.25003 3.58579 3.25003 4V6.9834L0.9473 9.49512C0.667433 9.80043 0.687944 10.2748 0.993198 10.5547C1.29851 10.8345 1.7729 10.814 2.05277 10.5088L6.99906 5.11133L10.7578 9.21191C11.2994 9.80269 11.7097 10.2719 12.2725 10.5195C12.8353 10.767 13.4584 10.752 14.2598 10.752H22.5Z" fill="currentColor"/><path opacity="0.4" d="M11.2501 11.3779C10.6595 10.988 10.2084 10.4628 9.83606 10.0566L6.99915 6.96094L2.97473 11.3535C2.76672 11.5803 2.51773 11.7464 2.25012 11.8545V16.0459C2.2501 16.9468 2.25009 17.6979 2.3302 18.2939C2.41461 18.9217 2.60032 19.4889 3.05579 19.9443C3.51113 20.3996 4.07764 20.5855 4.7052 20.6699C5.30111 20.75 6.05248 20.75 6.95325 20.75H11.2501V11.3779Z" fill="currentColor"/><path d="M6.75012 11C7.30241 11 7.75012 11.4477 7.75012 12C7.75012 12.5523 7.3024 13 6.75012 13C6.19784 13 5.75012 12.5523 5.75012 12C5.75012 11.4477 6.19783 11 6.75012 11Z" fill="currentColor"/><path d="M7.75012 16C7.75012 15.4477 7.30241 15 6.75012 15C6.19784 15 5.75012 15.4477 5.75012 16V20.7412C6.11565 20.7503 6.51692 20.75 6.95325 20.75H7.75012V16Z" fill="currentColor"/><path opacity="0.4" d="M17.047 20.75C17.9478 20.75 18.6991 20.75 19.295 20.6699C19.9226 20.5855 20.4891 20.3996 20.9445 19.9443C21.3999 19.4889 21.5856 18.9217 21.67 18.2939C21.7502 17.6979 21.7501 16.9468 21.7501 16.0459V12.002H13.6954C13.3967 11.9986 13.0761 11.9857 12.7501 11.9375V20.75H17.047Z" fill="currentColor"/><path d="M16.2501 14L18.2501 14C18.8024 14 19.2501 14.4477 19.2501 15C19.2501 15.5523 18.8024 16 18.2501 16L16.2501 16C15.6978 16 15.2501 15.5523 15.2501 15C15.2501 14.4477 15.6978 14 16.2501 14Z" fill="currentColor"/></svg>
