<svg xmlns="http://www.w3.org/2000/svg" viewBox="0 0 24 24" fill="none"><path d="M22.4999 10.7521C22.7973 10.752 23.0667 10.5761 23.1864 10.3038C23.306 10.0317 23.2535 9.71438 23.0527 9.49524L18.7421 4.79211C18.2006 4.20132 17.7903 3.73209 17.2275 3.4845C16.6647 3.23696 16.0415 3.25207 15.2402 3.25208H6.99992C6.81596 3.25208 6.63929 3.31982 6.50285 3.44055L6.44719 3.49524L4.74992 5.3468V4.00012C4.74992 3.58591 4.41414 3.25012 3.99992 3.25012C3.58571 3.25012 3.24992 3.58591 3.24992 4.00012L3.24992 6.98352L0.947189 9.49524C0.667335 9.80053 0.687873 10.2749 0.993088 10.5548C1.2984 10.8347 1.77275 10.8142 2.05266 10.5089L6.99895 5.11145L10.7577 9.21204C11.2993 9.80285 11.7095 10.2721 12.2724 10.5197C12.8352 10.7672 13.4583 10.7521 14.2597 10.7521H22.4999ZM11.2499 11.3781C10.6593 10.9881 10.2082 10.463 9.83586 10.0568L6.99895 6.96106L2.97453 11.3536C2.76652 11.5805 2.51753 11.7466 2.24992 11.8546V16.046C2.2499 16.947 2.24989 17.698 2.33 18.2941C2.41441 18.9219 2.60012 19.489 3.05559 19.9445C3.51093 20.3997 4.07744 20.5856 4.705 20.67C5.01226 20.7114 5.36084 20.7316 5.74992 20.7413L5.74992 16.0001C5.74992 15.4478 6.19764 15.0001 6.74992 15.0001C7.30221 15.0001 7.74992 15.4478 7.74992 16.0001L7.74992 20.7501H11.2499L11.2499 11.3781ZM6.74992 13.0001C6.19764 13.0001 5.74992 12.5524 5.74992 12.0001C5.74992 11.4478 6.19764 11.0001 6.74992 11.0001C7.30221 11.0001 7.74992 11.4478 7.74992 12.0001C7.74992 12.5524 7.30221 13.0001 6.74992 13.0001ZM17.0468 20.7501C17.9476 20.7501 18.6989 20.7502 19.2948 20.67C19.9224 20.5856 20.4889 20.3997 20.9443 19.9445C21.3997 19.489 21.5854 18.9219 21.6698 18.2941C21.75 17.698 21.7499 16.947 21.7499 16.046V12.0021H13.6952C13.3965 11.9987 13.0759 11.9858 12.7499 11.9376L12.7499 20.7501L17.0468 20.7501ZM16.2499 16.0001C15.6976 16.0001 15.2499 15.5524 15.2499 15.0001C15.2499 14.4478 15.6976 14.0001 16.2499 14.0001H18.2499C18.8022 14.0001 19.2499 14.4478 19.2499 15.0001C19.2499 15.5524 18.8022 16.0001 18.2499 16.0001H16.2499Z" fill="currentColor" fill-rule="evenodd" clip-rule="evenodd"/></svg>
