<svg xmlns="http://www.w3.org/2000/svg" viewBox="0 0 24 24" fill="none"><path opacity="0.4" d="M1.25 7.94443V11.0001V11.066C1.24998 13.3701 1.24997 15.1763 1.43945 16.586C1.63369 18.0308 2.03976 19.1707 2.93457 20.0655C3.82938 20.9603 4.96933 21.3664 6.41406 21.5606C7.82376 21.7501 9.63 21.7501 11.9341 21.7501H12H13.25H13.2834C15.0074 21.7501 16.3583 21.7501 17.4336 21.6407C18.5282 21.5294 19.4201 21.2986 20.1943 20.7813C20.8222 20.3618 21.3617 19.8223 21.7812 19.1944C22.2985 18.4202 22.5293 17.5283 22.6406 16.4337C22.75 15.3584 22.75 14.0075 22.75 12.2835V12.2501V12.2263C22.75 11.1998 22.75 10.3729 22.6826 9.71005C22.6134 9.02964 22.4669 8.43911 22.1182 7.91708C21.8446 7.50762 21.4925 7.15552 21.083 6.88193C20.561 6.53322 19.9705 6.38669 19.29 6.31747C18.6272 6.25008 17.8003 6.25008 16.7738 6.25009H16.75H12.4639L12.0371 5.39755C11.5502 4.42364 10.9534 3.04736 9.46289 2.48837C8.7958 2.23822 8.04903 2.25009 6.94434 2.25009L6.92821 2.25009C6.04099 2.25009 5.32634 2.25009 4.75 2.30087C4.16032 2.35285 3.64412 2.46271 3.17285 2.72568C2.56561 3.06455 2.06447 3.56569 1.72559 4.17294C1.46262 4.64421 1.35276 5.1604 1.30078 5.75009C1.25 6.32644 1.25 7.0411 1.25 7.92833V7.94443Z" fill="currentColor"/><path d="M10 14C10 12.8954 10.8954 12 12 12C13.1046 12 14 12.8954 14 14C14 15.1046 13.1046 16 12 16C10.8954 16 10 15.1046 10 14Z" fill="currentColor"/></svg>
