<svg xmlns="http://www.w3.org/2000/svg" viewBox="0 0 24 24" fill="none"><path opacity="0.4" d="M12 22.75C17.9371 22.75 22.75 17.9371 22.75 12C22.75 6.06294 17.9371 1.25 12 1.25C6.06294 1.25 1.25 6.06294 1.25 12C1.25 17.9371 6.06294 22.75 12 22.75Z" fill="currentColor"/><path d="M12.0095 15C12.5618 15 13.0095 15.4477 13.0095 16C13.0095 16.5523 12.5618 17 12.0095 17H11.9998C11.4475 17 10.9998 16.5523 10.9998 16C10.9998 15.4477 11.4475 15 11.9998 15H12.0095ZM12.0037 10.9922C13.1397 10.9945 14.2414 11.3839 15.1267 12.0957C15.5567 12.4418 15.6249 13.0707 15.2791 13.501C14.933 13.9314 14.3033 14.0003 13.8728 13.6543C13.3417 13.2273 12.6813 12.9936 11.9998 12.9922C11.3182 12.9908 10.6558 13.2215 10.1228 13.6465C9.69102 13.9906 9.06182 13.92 8.71755 13.4883C8.37331 13.0565 8.44494 12.4273 8.87673 12.083C9.76494 11.3748 10.8677 10.9899 12.0037 10.9922ZM11.9998 7C14.0446 7 16.0285 7.69658 17.6248 8.97461C18.0558 9.31981 18.1252 9.94879 17.7801 10.3799C17.4349 10.8109 16.8059 10.8803 16.3748 10.5352C15.1333 9.54125 13.5901 9 11.9998 9C10.4094 9 8.86627 9.54125 7.62478 10.5352C7.19368 10.8803 6.5647 10.8109 6.21951 10.3799C5.87436 9.94879 5.94375 9.31981 6.37478 8.97461C7.97104 7.69658 9.95493 7 11.9998 7Z" fill="currentColor"/></svg>
