<svg xmlns="http://www.w3.org/2000/svg" viewBox="0 0 24 24" fill="none"><path d="M12 1.25C17.9371 1.25 22.75 6.06294 22.75 12C22.75 17.9371 17.9371 22.75 12 22.75C6.06294 22.75 1.25 17.9371 1.25 12C1.25 6.06294 6.06294 1.25 12 1.25ZM12 15C11.4477 15 11 15.4477 11 16C11 16.5523 11.4477 17 12 17H12.0098C12.5619 16.9999 13.0098 16.5522 13.0098 16C13.0098 15.4478 12.5619 15.0001 12.0098 15H12ZM12.0039 10.9922C10.868 10.9899 9.76513 11.3749 8.87695 12.083C8.44517 12.4273 8.37353 13.0565 8.71777 13.4883C9.06206 13.9199 9.69127 13.9906 10.123 13.6465C10.656 13.2216 11.3184 12.9908 12 12.9922C12.6814 12.9937 13.342 13.2274 13.873 13.6543C14.3035 14.0002 14.9333 13.9314 15.2793 13.501C15.625 13.0707 15.5568 12.4418 15.127 12.0957C14.2417 11.384 13.1398 10.9945 12.0039 10.9922ZM12 7C9.95521 7 7.97124 7.69665 6.375 8.97461C5.94397 9.31981 5.87458 9.94879 6.21973 10.3799C6.56494 10.8108 7.19394 10.8803 7.625 10.5352C8.86647 9.54132 10.4097 9 12 9C13.5903 9.00005 15.1336 9.5413 16.375 10.5352C16.8061 10.8802 17.4351 10.8109 17.7803 10.3799C18.1253 9.94884 18.0559 9.3198 17.625 8.97461C16.0288 7.69662 14.0448 7.00005 12 7Z" fill="currentColor"/></svg>
