<svg xmlns="http://www.w3.org/2000/svg" fill="none" viewBox="0 0 48 48">
  <g>
    <path fill="currentColor" fill-opacity="0.4" d="M24 5.5C11.0213 5.5 0.5 16.0213 0.5 29c0 3.305 0.68316 6.4544 1.91741 9.3116 1.02324 2.3687 3.72928 2.9555 5.75359 2.136C11.7716 38.99 17.1307 37.5 24 37.5c6.8689 0 12.2283 1.4898 15.8295 2.9474 2.0243 0.8193 4.7301 0.2324 5.7533 -2.1362C46.8169 35.4541 47.5 32.3049 47.5 29 47.5 16.0213 36.9787 5.5 24 5.5Z" stroke-width="1"></path>
    <path fill="currentColor" fill-rule="evenodd" d="M4 29c0 -1.1046 0.89543 -2 2 -2l1 0c1.10457 0 2 0.8954 2 2s-0.89543 2 -2 2l-1 0c-1.10457 0 -2 -0.8954 -2 -2Z" clip-rule="evenodd" stroke-width="1"></path>
    <path fill="currentColor" fill-rule="evenodd" d="M44 29c0 -1.1046 -0.8954 -2 -2 -2l-1 0c-1.1046 0 -2 0.8954 -2 2s0.8954 2 2 2l1 0c1.1046 0 2 -0.8954 2 -2Z" clip-rule="evenodd" stroke-width="1"></path>
    <path fill="currentColor" fill-rule="evenodd" d="M9.85727 14.8576c0.78103 -0.7811 2.04733 -0.7811 2.82843 0l0.7071 0.7071c0.7811 0.781 0.7811 2.0474 0 2.8284 -0.781 0.7811 -2.0474 0.7811 -2.8284 0l-0.70713 -0.7071c-0.78105 -0.781 -0.78105 -2.0474 0 -2.8284Z" clip-rule="evenodd" stroke-width="1"></path>
    <path fill="currentColor" fill-rule="evenodd" d="M38.1408 14.8576c-0.7811 -0.7811 -2.0474 -0.7811 -2.8285 0l-0.7071 0.7071c-0.781 0.781 -0.781 2.0474 0 2.8284 0.7811 0.7811 2.0474 0.7811 2.8285 0l0.7071 -0.7071c0.781 -0.781 0.781 -2.0474 0 -2.8284Z" clip-rule="evenodd" stroke-width="1"></path>
    <path fill="currentColor" fill-rule="evenodd" d="M24 9c1.1046 0 2 0.89543 2 2v1c0 1.1046 -0.8954 2 -2 2s-2 -0.8954 -2 -2v-1c0 -1.10457 0.8954 -2 2 -2Z" clip-rule="evenodd" stroke-width="1"></path>
    <path fill="currentColor" fill-rule="evenodd" d="M38.4142 22.5858c0.7811 0.781 0.7811 2.0474 0 2.8284l-13 13c-0.781 0.7811 -2.0474 0.7811 -2.8284 0 -0.7811 -0.781 -0.7811 -2.0474 0 -2.8284l13 -13c0.781 -0.7811 2.0474 -0.7811 2.8284 0Z" clip-rule="evenodd" stroke-width="1"></path>
    <path fill="currentColor" d="M24 31.5c-3.0376 0 -5.5 2.4624 -5.5 5.5s2.4624 5.5 5.5 5.5 5.5 -2.4624 5.5 -5.5 -2.4624 -5.5 -5.5 -5.5Z" stroke-width="1"></path>
  </g>
</svg>
