<svg xmlns="http://www.w3.org/2000/svg" viewBox="0 0 24 24" fill="none"><path d="M12 2.25C13.7397 2.25 15.2304 2.43164 16.5 2.77441V4.13184C15.7189 3.85598 14.8156 4.02086 14.1816 4.63672C13.2907 5.50332 13.2713 6.92795 14.1367 7.81836C14.3717 8.11758 15.1213 9.05714 15.4395 9.43262C15.7492 9.79812 16.1362 10.226 16.5508 10.5791C16.7608 10.7579 17.0289 10.9619 17.3428 11.1299L17.6006 11.2539C17.893 11.3804 18.2864 11.5 18.75 11.5C19.368 11.4999 19.8612 11.2882 20.1572 11.1299C20.4711 10.9619 20.7392 10.7579 20.9492 10.5791C21.3636 10.2261 21.75 9.79798 22.0596 9.43262C22.1974 9.26994 22.3314 9.10259 22.46 8.94238C22.6681 9.92289 22.75 10.9547 22.75 12C22.75 14.6251 21.9907 17.0854 20.208 18.8906C18.4216 20.6995 15.7071 21.75 12 21.75C10.4515 21.75 9.09789 21.5985 7.91992 21.3096C7.58951 21.2285 7.18966 21.3207 6.83789 21.5801C6.02979 22.1762 4.78902 22.75 3 22.75C2.67 22.75 2.37843 22.5344 2.28223 22.2188C2.18605 21.9031 2.30807 21.561 2.58203 21.377C3.1813 20.9741 3.81966 19.617 2.7373 17.9004C1.63081 16.2122 1.25 14.1434 1.25 12C1.25 9.42427 1.8005 6.95115 3.50098 5.125C5.21037 3.28928 7.94704 2.25 12 2.25ZM8 11C7.44771 11 7 11.4477 7 12C7 12.5523 7.44772 13 8 13C8.55228 13 9 12.5523 9 12C9 11.4477 8.55228 11 8 11ZM12 11C11.4823 11 11.0562 11.3933 11.0049 11.8975L11 12L11.0049 12.1025C11.0562 12.6067 11.4823 13 12 13C12.5522 12.9999 13 12.5522 13 12C13 11.4824 12.6066 11.0563 12.1025 11.0049L12 11Z" fill="currentColor"/><path d="M17.7499 2.25V7.125C17.5385 6.86772 17.3305 6.60558 17.1356 6.35742C16.9063 6.06552 16.6597 5.75133 16.4666 5.55273C16.0817 5.15698 15.4485 5.14836 15.0526 5.5332C14.6568 5.91817 14.6482 6.55133 15.0331 6.94727C15.135 7.05219 15.3063 7.26558 15.5633 7.59277C15.8027 7.89748 16.0933 8.26987 16.3934 8.62402C16.6899 8.97392 17.0244 9.34114 17.3612 9.62793C17.53 9.7717 17.7231 9.91532 17.9325 10.0273C18.1339 10.1351 18.4172 10.25 18.7499 10.25C19.0825 10.25 19.3658 10.1351 19.5672 10.0273C19.7766 9.91532 19.9697 9.7717 20.1385 9.62793C20.4753 9.34114 20.8098 8.97392 21.1063 8.62402C21.4064 8.26987 21.697 7.89748 21.9364 7.59277C22.1934 7.26558 22.3647 7.05219 22.4666 6.94727C22.8515 6.55133 22.8429 5.91817 22.4471 5.5332C22.0512 5.14836 21.418 5.15698 21.0331 5.55273C20.84 5.75133 20.5934 6.06552 20.3641 6.35742C20.1692 6.60558 19.9612 6.86772 19.7499 7.125V2.25C19.7499 1.69772 19.3021 1.25 18.7499 1.25C18.1976 1.25 17.7499 1.69772 17.7499 2.25Z" fill="currentColor"/></svg>
