<svg xmlns="http://www.w3.org/2000/svg" viewBox="0 0 24 24" fill="none"><path d="M17.125 20.8752C17.125 19.2371 16.8446 17.6666 16.3291 16.2082C16.1451 15.6875 16.4178 15.1169 16.9385 14.9328C17.4592 14.7488 18.0298 15.0215 18.2139 15.5422C18.8039 17.2116 19.125 19.007 19.125 20.8752C19.125 21.4275 18.6773 21.8752 18.125 21.8752C17.5727 21.8752 17.125 21.4275 17.125 20.8752ZM3.125 4.87521C5.39869 4.87521 7.56412 5.35033 9.52539 6.20724C10.0314 6.4284 10.2621 7.0176 10.041 7.52365C9.81987 8.02969 9.23067 8.26039 8.72461 8.03928C7.01115 7.29066 5.11787 6.87521 3.125 6.87521C2.57272 6.87521 2.125 6.4275 2.125 5.87521C2.125 5.32293 2.57272 4.87521 3.125 4.87521Z" fill="currentColor"/><path d="M10.125 20.8752C10.125 17.0092 6.99099 13.8752 3.125 13.8752C2.57272 13.8752 2.125 13.4275 2.125 12.8752C2.125 12.3229 2.57272 11.8752 3.125 11.8752C8.09556 11.8752 12.125 15.9047 12.125 20.8752C12.125 21.4275 11.6773 21.8752 11.125 21.8752C10.5727 21.8752 10.125 21.4275 10.125 20.8752Z" fill="currentColor"/><path d="M3.625 18.8752C4.45342 18.8752 5.125 19.5468 5.125 20.3752C5.125 21.2036 4.45342 21.8752 3.625 21.8752C2.79657 21.8752 2.125 21.2036 2.125 20.3752C2.125 19.5468 2.79657 18.8752 3.625 18.8752Z" fill="currentColor"/><path d="M17.125 2.12521C18.6438 2.12521 19.875 3.35643 19.875 4.87521V6.1633C20.1744 6.19691 20.47 6.26533 20.75 6.42697C21.0919 6.62442 21.3758 6.90828 21.5732 7.25021L21.6348 7.36642C21.7666 7.63897 21.8206 7.92426 21.8467 8.21213C21.875 8.5248 21.875 8.90655 21.875 9.34885V9.40158C21.875 9.84388 21.875 10.2256 21.8467 10.5383C21.8206 10.8262 21.7666 11.1115 21.6348 11.384L21.5732 11.5002C21.4006 11.7993 21.1619 12.0541 20.876 12.2453L20.75 12.3235C20.4429 12.5007 20.1171 12.567 19.7881 12.5969C19.4754 12.6252 19.0937 12.6252 18.6514 12.6252H15.5986C15.1563 12.6252 14.7746 12.6252 14.4619 12.5969C14.174 12.5708 13.8888 12.5168 13.6162 12.385L13.5 12.3235C13.1581 12.126 12.8742 11.8422 12.6768 11.5002C12.4995 11.1931 12.4332 10.8673 12.4033 10.5383C12.375 10.2256 12.375 9.84388 12.375 9.40158V9.34885C12.375 8.90655 12.375 8.5248 12.4033 8.21213C12.4332 7.8831 12.4995 7.55729 12.6768 7.25021C12.8742 6.90828 13.1581 6.62442 13.5 6.42697C13.78 6.26533 14.0756 6.19691 14.375 6.1633V4.87521C14.375 3.35643 15.6062 2.12521 17.125 2.12521ZM17.125 3.62521C16.4346 3.62521 15.875 4.18486 15.875 4.87521V6.12521H18.375V4.87521C18.375 4.18486 17.8154 3.62521 17.125 3.62521Z" fill="currentColor"/></svg>
