<svg xmlns="http://www.w3.org/2000/svg" viewBox="0 0 24 24" fill="none"><path d="M19.0254 13.25C19.4698 13.25 19.8409 13.2497 20.1455 13.2705C20.4626 13.2921 20.7624 13.3387 21.0527 13.459C21.7264 13.7381 22.2619 14.2736 22.541 14.9473C22.6613 15.2376 22.7079 15.5374 22.7295 15.8545C22.7503 16.1591 22.75 16.5809 22.75 17.0254C22.75 17.4698 22.7503 17.8409 22.7295 18.1455C22.7079 18.4626 22.6613 18.7624 22.541 19.0527C22.2619 19.7264 21.7264 20.2619 21.0527 20.541C20.7624 20.6613 20.4626 20.7079 20.1455 20.7295C19.8409 20.7503 19.4698 20.75 19.0254 20.75H4.97461C4.53021 20.75 4.15907 20.7503 3.85449 20.7295C3.53744 20.7079 3.23762 20.6613 2.94727 20.541C2.27358 20.2619 1.73809 19.7264 1.45898 19.0527C1.33872 18.7624 1.29215 18.4626 1.27051 18.1455C1.24973 17.8409 1.24999 17.4698 1.25 17.0254C1.24999 16.5809 1.24972 16.1591 1.27051 15.8545C1.29215 15.5374 1.33872 15.2376 1.45898 14.9473C1.73809 14.2736 2.27358 13.7381 2.94727 13.459C3.23762 13.3387 3.53744 13.2921 3.85449 13.2705C4.15907 13.2497 4.53021 13.25 4.97461 13.25H19.0254ZM6 16C5.44772 16 5 16.4477 5 17C5 17.5523 5.44772 18 6 18H6.00977C6.56205 18 7.00977 17.5523 7.00977 17C7.00977 16.4477 6.56205 16 6.00977 16H6ZM10 16C9.44772 16 9 16.4477 9 17C9 17.5523 9.44772 18 10 18H10.0098C10.5621 18 11.0098 17.5523 11.0098 17C11.0098 16.4477 10.562 16 10.0098 16H10Z" fill="currentColor"/><path d="M19.0254 3.25C19.4698 3.24999 19.8409 3.24973 20.1455 3.27051C20.4626 3.29215 20.7624 3.33872 21.0527 3.45898C21.7264 3.73809 22.2619 4.27358 22.541 4.94727C22.6613 5.23762 22.7079 5.53744 22.7295 5.85449C22.7503 6.1591 22.75 6.58093 22.75 7.02539C22.75 7.46979 22.7503 7.84093 22.7295 8.14551C22.7079 8.46256 22.6613 8.76238 22.541 9.05273C22.2619 9.72642 21.7264 10.2619 21.0527 10.541C20.7624 10.6613 20.4626 10.7079 20.1455 10.7295C19.8409 10.7503 19.4698 10.75 19.0254 10.75H4.97461C4.53021 10.75 4.15907 10.7503 3.85449 10.7295C3.53744 10.7079 3.23762 10.6613 2.94727 10.541C2.27358 10.2619 1.73809 9.72642 1.45898 9.05273C1.33872 8.76238 1.29215 8.46256 1.27051 8.14551C1.24973 7.84093 1.24999 7.46979 1.25 7.02539C1.24999 6.58093 1.24972 6.15911 1.27051 5.85449C1.29215 5.53744 1.33872 5.23762 1.45898 4.94727C1.73809 4.27358 2.27358 3.73809 2.94727 3.45898C3.23762 3.33872 3.53744 3.29215 3.85449 3.27051C4.15907 3.24973 4.53021 3.24999 4.97461 3.25H19.0254ZM6 6C5.44772 6 5 6.44772 5 7C5 7.55228 5.44772 8 6 8H6.00977C6.56205 8 7.00977 7.55228 7.00977 7C7.00977 6.44772 6.56205 6 6.00977 6H6ZM10 6C9.44771 6 9 6.44772 9 7C9 7.55228 9.44771 8 10 8H10.0098C10.5621 8 11.0098 7.55228 11.0098 7C11.0098 6.44772 10.5621 6 10.0098 6H10Z" fill="currentColor"/></svg>
