<svg xmlns="http://www.w3.org/2000/svg" viewBox="0 0 24 24" fill="none"><path d="M19.2886 8.575C19.2969 9.14801 19.3 9.79305 19.3 10.525C19.3 11.0635 19.7365 11.5 20.275 11.5C20.8135 11.5 21.25 11.0635 21.25 10.525V10.4507C21.25 8.6742 21.2501 7.24203 21.0986 6.1156C20.9413 4.94551 20.6042 3.96069 19.8218 3.17822C19.0393 2.39576 18.0545 2.05872 16.8844 1.90139C15.758 1.74995 14.3258 1.74997 12.5492 1.75H12.475H10.525H10.4508C8.67424 1.74997 7.24204 1.74995 6.1156 1.90139C4.94551 2.05872 3.96069 2.39576 3.17822 3.17822C2.39576 3.96069 2.05872 4.94551 1.90139 6.1156C1.74995 7.24204 1.74997 8.67424 1.75 10.4508V10.525V12.475V12.5492C1.74997 14.3258 1.74995 15.758 1.90139 16.8844C2.05872 18.0545 2.39576 19.0393 3.17822 19.8218C3.96069 20.6042 4.94551 20.9413 6.1156 21.0986C7.24203 21.2501 8.6742 21.25 10.4507 21.25H10.525C11.0635 21.25 11.5 20.8135 11.5 20.275C11.5 19.7365 11.0635 19.3 10.525 19.3C8.65896 19.3 7.35749 19.2978 6.37554 19.1657C5.42166 19.0375 4.91672 18.8029 4.55693 18.4431C4.19715 18.0833 3.9625 17.5783 3.83425 16.6245C3.70223 15.6425 3.7 14.341 3.7 12.475V10.525C3.7 9.79305 3.70307 9.14801 3.71143 8.575H19.2886Z" fill="currentColor"/><path d="M17.5 11.75C19.0188 11.75 20.25 12.9812 20.25 14.5V15.7881C20.5494 15.8217 20.845 15.8901 21.125 16.0518C21.4669 16.2492 21.7508 16.5331 21.9482 16.875L22.0098 16.9912C22.1416 17.2638 22.1956 17.549 22.2217 17.8369C22.25 18.1496 22.25 18.5313 22.25 18.9736V19.0264C22.25 19.4687 22.25 19.8504 22.2217 20.1631C22.1956 20.451 22.1416 20.7362 22.0098 21.0088L21.9482 21.125C21.7756 21.4241 21.5369 21.6788 21.251 21.8701L21.125 21.9482C20.8179 22.1255 20.4921 22.1918 20.1631 22.2217C19.8504 22.25 19.4687 22.25 19.0264 22.25H15.9736C15.5313 22.25 15.1496 22.25 14.8369 22.2217C14.549 22.1956 14.2638 22.1416 13.9912 22.0098L13.875 21.9482C13.5331 21.7508 13.2492 21.4669 13.0518 21.125C12.8745 20.8179 12.8082 20.4921 12.7783 20.1631C12.75 19.8504 12.75 19.4687 12.75 19.0264V18.9736C12.75 18.5313 12.75 18.1496 12.7783 17.8369C12.8082 17.5079 12.8745 17.1821 13.0518 16.875C13.2492 16.5331 13.5331 16.2492 13.875 16.0518C14.155 15.8901 14.4506 15.8217 14.75 15.7881V14.5C14.75 12.9812 15.9812 11.75 17.5 11.75ZM17.5 13.25C16.8096 13.25 16.25 13.8096 16.25 14.5V15.75H18.75V14.5C18.75 13.8096 18.1904 13.25 17.5 13.25Z" fill="currentColor"/></svg>
