<svg xmlns="http://www.w3.org/2000/svg" viewBox="0 0 24 24" fill="none"><path d="M12.125 18.3261C12.7412 18.3881 13.2225 18.9053 13.2225 19.5347C13.2225 20.2058 12.6754 20.7498 12.001 20.75C11.3685 20.75 10.8477 20.2719 10.7851 19.6591L10.7794 19.5347L10.7851 19.4103C10.8477 18.7976 11.3685 18.3194 12.001 18.3194L12.125 18.3261ZM2.51355 3.53476C2.8952 3.15508 3.51383 3.15508 3.89548 3.53476L19.5319 19.0904C19.9135 19.4701 19.9135 20.0855 19.5319 20.4652C19.1502 20.8448 18.5316 20.8448 18.15 20.4652L14.3 16.6351C13.6352 16.1534 12.8315 15.8879 12 15.8879C10.9769 15.8879 9.99452 16.2873 9.26382 16.9997C8.87846 17.3755 8.25973 17.3696 7.88189 16.9864C7.50416 16.6031 7.51005 15.9875 7.89525 15.6116C8.89781 14.634 10.2165 14.0503 11.6087 13.9577L9.1407 11.5025C7.91483 11.9217 6.78617 12.6101 5.84335 13.5295C5.45793 13.9052 4.83921 13.8986 4.46142 13.5153C4.08364 13.1318 4.08944 12.5164 4.47478 12.1405C5.40031 11.238 6.47317 10.519 7.63566 10.0052L5.44919 7.83002C4.53233 8.32753 3.66885 8.93026 2.87907 9.63301C2.47682 9.99092 1.85888 9.9562 1.49905 9.55611C1.13927 9.15593 1.17324 8.5412 1.5754 8.18322C2.33392 7.50828 3.15304 6.91516 4.01668 6.40491L2.51355 4.90955C2.1319 4.52987 2.1319 3.91444 2.51355 3.53476ZM13.255 10.0868C13.377 9.56394 13.9022 9.23832 14.4279 9.35957C16.3363 9.79978 18.104 10.7546 19.5252 12.1405C19.9106 12.5164 19.9164 13.1318 19.5386 13.5153C19.1608 13.8986 18.5421 13.9052 18.1566 13.5295C16.9939 12.3956 15.5476 11.6139 13.986 11.2537C13.4605 11.1323 13.1331 10.6098 13.255 10.0868ZM12 4.22215C15.8462 4.22215 19.5578 5.63233 22.4246 8.18322C22.8268 8.5412 22.8607 9.15593 22.5009 9.55611C22.1411 9.9562 21.5232 9.99092 21.1209 9.63301C18.6125 7.40098 15.3654 6.16661 12 6.16661C11.1542 6.16661 10.3158 6.24425 9.49478 6.39637C8.96419 6.49465 8.45408 6.14663 8.35526 5.61878C8.2565 5.09099 8.60638 4.58352 9.13689 4.48515C10.0752 4.31128 11.0334 4.22215 12 4.22215Z" fill="currentColor"/></svg>
