<svg xmlns="http://www.w3.org/2000/svg" viewBox="0 0 24 24" fill="none"><path d="M7.54203 6.48108C7.33481 6.27385 7.02907 6.20831 6.75981 6.30432L6.6475 6.35608C5.38598 7.05674 4.13818 7.97593 3.16411 9.06213C2.19259 10.1455 1.45605 11.4378 1.30864 12.8746C1.10639 14.8469 1.47057 16.2913 1.77055 17.4371C2.0791 18.6158 2.25143 19.3038 1.99321 20.0533C1.89995 20.3244 1.96926 20.625 2.17192 20.8278C2.37462 21.0305 2.67528 21.0997 2.94633 21.0065C3.6958 20.7483 4.38403 20.9206 5.56254 21.2291C6.7084 21.5291 8.15276 21.8933 10.125 21.691C11.562 21.5437 12.8541 20.8071 13.9375 19.8356C15.0238 18.8615 15.9439 17.6137 16.6446 16.3522C16.8069 16.0595 16.7553 15.6943 16.5186 15.4576L7.54203 6.48108Z" fill="currentColor"/><path d="M9.32621 2.98889C10.5386 2.21975 13.7507 1.47499 17 3.943C19.3217 2.53966 21.4378 2.95968 22.3829 3.73206C22.8102 4.08169 22.873 4.71181 22.5235 5.13928C22.1738 5.56649 21.5437 5.62942 21.1163 5.27991C20.9476 5.14308 19.9751 4.72141 18.5469 5.38147C21.619 8.8334 20.8287 12.3842 20.0108 13.6735C19.9169 13.8214 19.8094 13.9363 19.7256 14.0201C19.5627 14.183 19.3772 14.3298 19.1719 14.4479C18.8781 14.6168 18.5073 14.5673 18.2676 14.3278L8.67192 4.73206C8.43225 4.49237 8.38283 4.1216 8.5518 3.82776C8.66988 3.62245 8.81665 3.43694 8.97953 3.27405C9.06335 3.19024 9.17831 3.08273 9.32621 2.98889Z" fill="currentColor"/><path d="M1.54298 1.54265C1.93351 1.15212 2.56652 1.15212 2.95705 1.54265L22.457 21.0426C22.8476 21.4332 22.8476 22.0662 22.457 22.4567C22.0665 22.8472 21.4335 22.8472 21.043 22.4567L1.54298 2.95671C1.15246 2.56619 1.15246 1.93317 1.54298 1.54265Z" fill="currentColor"/></svg>
