<svg xmlns="http://www.w3.org/2000/svg" fill="none" viewBox="0 0 48 48">
  <g>
    <path stroke="currentColor" stroke-linejoin="round" d="m24.0009 4.3934 -1.3347 -1.627c-0.7968 -0.97127 -2.2345 -1.10196 -3.1934 -0.29026L18.147 3.59852c-0.938 0.79412 -1.0653 2.19406 -0.2858 3.1443l3.041 3.70708v8.0983l-6.9039 -4.0493 -1.6237 -4.4843c-0.4261 -1.17686 -1.7307 -1.77977 -2.90314 -1.34169l-1.60063 0.59808c-1.15565 0.43181 -1.74806 1.71371 -1.32806 2.87371l0.74294 2.0519 -2.0807 0.3653c-1.21935 0.2141 -2.03668 1.373 -1.82903 2.5935l0.30066 1.7672c0.2092 1.2296 1.37873 2.0544 2.60722 1.8387l4.61574 -0.8104L17.8034 24l-6.9028 4.0486 -4.61581 -0.8104c-1.22849 -0.2157 -2.39802 0.6091 -2.60722 1.8387l-0.30065 1.7672c-0.20764 1.2205 0.60968 2.3794 1.82903 2.5935l2.08066 0.3653 -0.74293 2.0519c-0.42001 1.16 0.1724 2.4419 1.32805 2.8737l1.60064 0.5981c1.17243 0.438 2.47703 -0.1649 2.90313 -1.3417l1.6236 -4.4843 6.9031 -4.0487 0 8.0976 -3.041 3.7071c-0.7795 0.9502 -0.6522 2.3502 0.2858 3.1443l1.3258 1.1223c0.9589 0.8117 2.3966 0.681 3.1934 -0.2902l1.3346 -1.627 1.3347 1.627c0.7967 0.9713 2.2345 1.1019 3.1933 0.2902l1.3258 -1.1223c0.9381 -0.7942 1.0653 -2.1941 0.2858 -3.1443l-3.041 -3.7071v-8.0973l6.9026 4.0484 1.6237 4.4843c0.4261 1.1768 1.7307 1.7797 2.9031 1.3417l1.6006 -0.5981c1.1557 -0.4318 1.7481 -1.7137 1.3281 -2.8737l-0.7429 -2.0519 2.0806 -0.3653c1.2194 -0.2141 2.0367 -1.373 1.8291 -2.5935l-0.3007 -1.7672c-0.2092 -1.2296 -1.3787 -2.0544 -2.6072 -1.8387l-4.6158 0.8104L30.1977 24l6.9039 -4.0491 4.6157 0.8104c1.2285 0.2157 2.398 -0.6091 2.6072 -1.8387l0.3007 -1.7672c0.2076 -1.2205 -0.6097 -2.3794 -1.829 -2.5935l-2.0807 -0.3653 0.7429 -2.0519c0.42 -1.16 -0.1724 -2.44189 -1.3281 -2.87371l-1.6006 -0.59808c-1.1724 -0.43808 -2.477 0.16483 -2.9031 1.34169l-1.6237 4.4843 -6.9035 4.049 0 -8.0979 3.0411 -3.70718c0.7795 -0.95024 0.6522 -2.35017 -0.2858 -3.14429l-1.3258 -1.12237c-0.9589 -0.8117 -2.3966 -0.68101 -3.1934 0.29026L24.0009 4.3934Z" stroke-width="1"></path>
  </g>
</svg>
