<svg xmlns="http://www.w3.org/2000/svg" fill="none" viewBox="0 0 48 48">
  <g>
    <path fill="currentColor" fill-rule="evenodd" d="M24 1.72781C23.0353 0.728549 21.7763 0.407727 20.6183 0.52198c-1.1743 0.115869 -2.2538 0.66387 -3.0785 1.34144 -0.8242 0.67711 -1.57 1.62837 -1.9096 2.75365 -0.3603 1.19417 -0.2494 2.6064 0.74 3.79427l2.5547 3.06746v3.7269l-3.2242 -1.8625 -1.3615 -3.70379C13.5276 7.43168 11.07 6.33883 8.89013 7.1411l-1.58848 0.58461C5.217 8.49293 4.07608 10.7405 4.71764 12.8637c-2.1146 0.5172 -3.53828 2.5775 -3.15676 4.7862l0.29838 1.7273c0.40022 2.317 2.61795 3.8222 4.89905 3.4277l3.86679 -0.6687 3.2262 1.8637 -3.2253 1.8633 -3.86677 -0.6687c-2.2811 -0.3945 -4.49883 1.1106 -4.89904 3.4276l-0.29838 1.7274c-0.38151 2.2087 1.04216 4.2689 3.15673 4.7861 -0.64156 2.1232 0.49936 4.3708 2.58401 5.138l1.58848 0.5846c2.17987 0.8023 4.63747 -0.2906 5.44907 -2.4983l1.3615 -3.7037 3.2233 -1.8621 0 3.7263 -2.5548 3.0675c-0.9893 1.1879 -1.1002 2.6001 -0.7399 3.7943 0.3396 1.1253 1.0854 2.0765 1.9096 2.7536 0.8247 0.6776 1.9042 1.2256 3.0786 1.3414 1.1579 0.1143 2.4168 -0.2065 3.3816 -1.2058 0.9647 0.9993 2.2236 1.3201 3.3816 1.2058 1.1743 -0.1158 2.2538 -0.6638 3.0785 -1.3414 0.8242 -0.6771 1.5701 -1.6284 1.9096 -2.7536 0.3603 -1.1942 0.2494 -2.6064 -0.74 -3.7943l-2.5547 -3.0675v-3.726l3.2229 1.8618 1.3614 3.7037c0.8116 2.2077 3.2692 3.3006 5.4491 2.4983l1.5885 -0.5846c2.0846 -0.7672 3.2255 -3.0148 2.584 -5.138 2.1146 -0.5172 3.5382 -2.5774 3.1567 -4.7861l-0.2984 -1.7274 -1.9708 0.3404 1.9708 -0.3404c-0.4002 -2.317 -2.6179 -3.8221 -4.899 -3.4276l-3.8668 0.6687 -3.2253 -1.8633 3.2263 -1.8637 3.8667 0.6687c2.2811 0.3945 4.4988 -1.1107 4.8991 -3.4277l0.2983 -1.7273c0.3816 -2.2087 -1.0421 -4.269 -3.1567 -4.7862 0.6415 -2.1232 -0.4994 -4.37077 -2.584 -5.13799l-1.5885 -0.58461c-2.1799 -0.80227 -4.6375 0.29058 -5.449 2.49832l-1.3616 3.70378 -3.2237 1.8623 0 -3.7266 2.5548 -3.06757c0.9893 -1.18788 1.1003 -2.6001 0.7399 -3.79427 -0.3395 -1.12527 -1.0854 -2.07653 -1.9095 -2.75364 -0.8248 -0.67756 -1.9043 -1.22556 -3.0786 -1.341423C26.2237 0.40775 24.9647 0.72857 24 1.72781Zm-4.5576 4.12203c0.0005 0.00053 0.0009 0.00107 0.0014 0.00162l2.96 3.55405c0.3367 0.40429 0.5211 0.91379 0.5211 1.43989v7.3923c0 1.7323 -1.8755 2.8148 -3.3755 1.9483l-6.3981 -3.6961c-0.4558 -0.2633 -0.8048 -0.678 -0.9864 -1.172l-1.5801 -4.2984c-0.0342 -0.0929 -0.166 -0.1787 -0.3131 -0.1246l-1.58852 0.5847c-0.13103 0.0482 -0.15988 0.1649 -0.13155 0.2419l0.63382 1.7242c0.48472 1.3186 -0.34411 2.754 -1.72842 2.9934l-1.76938 0.306c-0.14844 0.0257 -0.19866 0.1457 -0.18514 0.2239l0.29838 1.7274c0.01501 0.0869 0.11857 0.1942 0.2758 0.167l4.49141 -0.7767c0.5189 -0.0898 1.0529 0.0053 1.5089 0.2688l6.3983 3.6962c1.4994 0.8661 1.4994 3.0304 0 3.8965l-6.3973 3.6957c-0.456 0.2634 -0.99 0.3585 -1.5089 0.2688l-4.49149 -0.7767c-0.15723 -0.0272 -0.26079 0.0801 -0.27579 0.1669l-0.29838 1.7274c-0.01351 0.0783 0.0367 0.1982 0.18515 0.2239l1.76933 0.306c1.38432 0.2394 2.21314 1.6748 1.72843 2.9934l-0.63382 1.7242c-0.02833 0.077 0.00052 0.1937 0.13155 0.242l1.58852 0.5846 -0.6908 1.8769 0.6908 -1.8769c0.1471 0.0541 0.2789 -0.0317 0.3131 -0.1246l1.5801 -4.2983c0.1816 -0.494 0.5306 -0.9087 0.9863 -1.172l6.3973 -3.6956c1.5 -0.8665 3.3755 0.216 3.3755 1.9483l0 7.3915c0 0.5262 -0.1844 1.0357 -0.5211 1.44l-2.96 3.5541c-0.0005 0.0005 -0.0009 0.0011 -0.0014 0.0016 0.0019 0.0159 0.0064 0.0413 0.0173 0.0773 0.0596 0.1977 0.2551 0.5193 0.6193 0.8184 0.3636 0.2987 0.7194 0.4305 0.9321 0.4515 0.1184 0.0117 0.1223 -0.0044 0.1251 -0.0158 0.0006 -0.0023 0.0011 -0.0044 0.0024 -0.006l1.1324 -1.3597c0.8996 -1.0801 2.5583 -1.0801 3.4579 0l1.1324 1.3597c0.0013 0.0016 0.0018 0.0037 0.0024 0.006 0.0028 0.0114 0.0067 0.0275 0.1251 0.0158 0.2128 -0.021 0.5685 -0.1528 0.9321 -0.4515 0.3642 -0.2991 0.5597 -0.6207 0.6193 -0.8184 0.0109 -0.036 0.0154 -0.0614 0.0173 -0.0773 -0.0005 -0.0005 -0.0009 -0.0011 -0.0014 -0.0016l-2.96 -3.5541c-0.3367 -0.4043 -0.5211 -0.9138 -0.5211 -1.44v-7.3912c0 -1.7323 1.8755 -2.8149 3.3755 -1.9483l6.3968 3.6953c0.4557 0.2633 0.8048 0.678 0.9863 1.172l1.5801 4.2983c0.0342 0.0929 0.166 0.1787 0.3132 0.1246l1.5884 -0.5846c0.1311 -0.0483 0.1599 -0.165 0.1316 -0.242l-0.6338 -1.7242c-0.4847 -1.3186 0.3441 -2.754 1.7284 -2.9934l1.7693 -0.306c0.1485 -0.0257 0.1987 -0.1456 0.1852 -0.2239l-0.2984 -1.7274c-0.015 -0.0868 -0.1186 -0.1941 -0.2758 -0.1669l-4.4915 0.7767c-0.5189 0.0897 -1.0529 -0.0054 -1.5089 -0.2688l-6.3973 -3.6957c-1.4993 -0.8661 -1.4993 -3.0304 0 -3.8965l6.3983 -3.6962c0.456 -0.2635 0.99 -0.3586 1.5089 -0.2688l4.4914 0.7767c0.1573 0.0272 0.2608 -0.0801 0.2758 -0.167l0.2984 -1.7274c0.0135 -0.0782 -0.0367 -0.1982 -0.1851 -0.2239l-1.7694 -0.306c-1.3843 -0.2394 -2.2131 -1.6748 -1.7284 -2.9934l0.6338 -1.7242c0.0283 -0.077 -0.0005 -0.1937 -0.1316 -0.2419l-1.5884 -0.5847c-0.1472 -0.0541 -0.279 0.0317 -0.3132 0.1246l-1.5801 4.2984c-0.1816 0.494 -0.5306 0.9087 -0.9863 1.172l-6.3977 3.6958c-1.5 0.8665 -3.3755 -0.216 -3.3755 -1.9483l0 -7.3918c0 -0.5262 0.1844 -1.03567 0.5211 -1.43996l2.9601 -3.55417c0.0004 -0.00055 0.0009 -0.0011 0.0013 -0.00163 -0.0018 -0.01589 -0.0064 -0.04128 -0.0172 -0.07727 -0.0597 -0.19773 -0.2552 -0.51928 -0.6193 -0.81845 -0.3636 -0.29871 -0.7194 -0.43046 -0.9322 -0.45145 -0.1184 -0.01169 -0.1223 0.00439 -0.1251 0.01579 -0.0005 0.00229 -0.001 0.00438 -0.0024 0.00603l-1.1324 1.35968c-0.8996 1.0801 -2.5582 1.0801 -3.4578 0.00001l-1.1325 -1.35971c-0.0013 -0.00164 -0.0018 -0.00374 -0.0024 -0.00602 -0.0028 -0.01141 -0.0067 -0.02749 -0.1251 -0.0158 -0.2127 0.02099 -0.5685 0.15274 -0.9321 0.45146 -0.3641 0.29917 -0.5596 0.62072 -0.6193 0.81844 -0.0109 0.03601 -0.0154 0.0614 -0.0173 0.07729Z" clip-rule="evenodd" stroke-width="3.429"></path>
  </g>
</svg>
