<svg xmlns="http://www.w3.org/2000/svg" fill="none" viewBox="0 0 48 48">
  <g>
    <path fill="currentColor" d="m23.9984 3.54007 -1.6302 -1.97945c-0.708 -0.859622 -1.9817 -0.975404 -2.8331 -0.25752l-1.9293 1.62681c-0.8375 0.70621 -0.951 1.9548 -0.2545 2.80045l3.0588 3.71409c0.2212 0.26857 0.3422 0.60565 0.3422 0.95365v7.9122l-6.7648 -3.952c-0.3024 -0.1766 -0.5335 -0.4535 -0.6531 -0.7827l-1.6381 -4.50609c-0.3794 -1.04371 -1.5364 -1.57847 -2.57722 -1.19111l-2.34427 0.87248c-1.02962 0.3832 -1.55739 1.52512 -1.18206 2.55762l0.89457 2.461 -2.52685 0.4419c-1.08502 0.1897 -1.81237 1.2211 -1.62691 2.3068l0.4322 2.5303c0.1865 1.0918 1.22488 1.8242 2.31598 1.6334l4.65062 -0.8134c0.34924 -0.061 0.70884 0.0036 1.01504 0.1824l6.7585 3.9483 -6.7575 3.9476c-0.3061 0.1789 -0.6657 0.2435 -1.015 0.1824l-4.65068 -0.8133c-1.0911 -0.1908 -2.12948 0.5415 -2.31598 1.6333l-0.4322 2.5303c-0.18545 1.0858 0.5419 2.1171 1.62692 2.3069l2.52681 0.4419 -0.89457 2.4609c-0.37533 1.0325 0.15244 2.1744 1.18206 2.5576l2.34426 0.8725c1.04078 0.3874 2.19788 -0.1474 2.57728 -1.1911l1.638 -4.506c0.1196 -0.3291 0.3507 -0.6061 0.6531 -0.7827l6.7639 -3.9514 0 7.9114c0 0.348 -0.121 0.6851 -0.3422 0.9536l-3.0589 3.7142c-0.6964 0.8456 -0.5829 2.0942 0.2546 2.8004l1.9293 1.6268c0.8514 0.7179 2.1251 0.6021 2.8331 -0.2575l1.6302 -1.9794 1.6302 1.9794c0.708 0.8596 1.9817 0.9754 2.8331 0.2575l1.9293 -1.6268c0.8375 -0.7062 0.951 -1.9548 0.2546 -2.8004l-3.0589 -3.7142c-0.2212 -0.2685 -0.3422 -0.6056 -0.3422 -0.9536v-7.9111l6.7634 3.9511c0.3024 0.1766 0.5335 0.4536 0.6531 0.7827l1.638 4.506c0.3794 1.0437 1.5365 1.5785 2.5773 1.1911l2.3442 -0.8725c1.0296 -0.3832 1.5574 -1.5251 1.1821 -2.5576l-0.8946 -2.4609 2.5268 -0.4419c1.085 -0.1898 1.8124 -1.2211 1.6269 -2.3069l-0.4322 -2.5303c-0.1864 -1.0918 -1.2248 -1.8241 -2.3159 -1.6333l-4.6507 0.8133c-0.3493 0.0611 -0.7089 -0.0035 -1.015 -0.1824l-6.7575 -3.9476 6.7585 -3.9483c0.3061 -0.1788 0.6658 -0.2434 1.015 -0.1824l4.6506 0.8134c1.0911 0.1908 2.1295 -0.5416 2.316 -1.6334l0.4322 -2.5303c0.1855 -1.0857 -0.5419 -2.1171 -1.6269 -2.3068l-2.5268 -0.4419 0.8945 -2.461c0.3754 -1.0325 -0.1524 -2.17442 -1.182 -2.55762l-2.3443 -0.87248c-1.0408 -0.38736 -2.1979 0.1474 -2.5773 1.19111l-1.638 4.50609c-0.1196 0.3292 -0.3507 0.6061 -0.6531 0.7827L27.2445 18.31l0 -7.9118c0 -0.3479 0.121 -0.68504 0.3422 -0.95361l3.0589 -3.71423c0.6965 -0.84565 0.583 -2.09424 -0.2546 -2.80045l-1.9293 -1.6268c-0.8513 -0.717876 -2.1251 -0.602088 -2.8331 0.25754l-1.6302 1.97942Z" stroke-width="3.429"></path>
  </g>
</svg>
