<svg xmlns="http://www.w3.org/2000/svg" viewBox="0 0 24 24" fill="none"><path d="M12 1.25C15.0376 1.25 17.5 3.71243 17.5 6.75V9.54004C18.8907 10.9409 19.75 12.8701 19.75 15C19.75 19.2802 16.2802 22.75 12 22.75C7.71979 22.75 4.25 19.2802 4.25 15C4.25 12.8701 5.10927 10.9409 6.5 9.54004V6.75C6.5 3.71243 8.96243 1.25 12 1.25ZM11.9922 13.5C11.1638 13.5 10.4922 14.1716 10.4922 15C10.4922 15.8284 11.1638 16.5 11.9922 16.5H12.0059C12.8342 16.4999 13.5059 15.8284 13.5059 15C13.5059 14.1716 12.8342 13.5001 12.0059 13.5H11.9922ZM12 3.25C10.067 3.25 8.5 4.817 8.5 6.75V8.08594C9.55158 7.55256 10.7402 7.25 12 7.25C13.2598 7.25 14.4484 7.55256 15.5 8.08594V6.75C15.5 4.817 13.933 3.25 12 3.25Z" fill="currentColor"/></svg>
