<svg xmlns="http://www.w3.org/2000/svg" viewBox="0 0 24 24" fill="none"><path opacity="0.4" d="M22.25 12.0526V12V11.9474C22.25 9.75475 22.25 8.03277 22.0693 6.68848C21.8842 5.31182 21.4969 4.21953 20.6387 3.36133C19.7805 2.50313 18.6882 2.11575 17.3115 1.93066C15.9672 1.74998 14.2452 1.74999 12.0526 1.75H12H11.9474C9.75476 1.74999 8.03277 1.74998 6.68848 1.93066C5.31182 2.11575 4.21953 2.50313 3.36133 3.36133C2.50313 4.21953 2.11575 5.31182 1.93066 6.68848C1.74998 8.03277 1.74999 9.75476 1.75 11.9474V12V12.0526C1.74999 14.2452 1.74998 15.9672 1.93066 17.3115C2.11575 18.6882 2.50313 19.7805 3.36133 20.6387C4.21953 21.4969 5.31182 21.8842 6.68848 22.0693C8.03277 22.25 9.75475 22.25 11.9474 22.25H12H12.0526C14.2452 22.25 15.9672 22.25 17.3115 22.0693C18.6882 21.8842 19.7805 21.4969 20.6387 20.6387C21.4969 19.7805 21.8842 18.6882 22.0693 17.3115C22.25 15.9672 22.25 14.2452 22.25 12.0526Z" fill="currentColor"/><path d="M12.0095 15C12.5618 15 13.0095 15.4477 13.0095 16C13.0095 16.5523 12.5618 17 12.0095 17H11.9998C11.4475 17 10.9998 16.5523 10.9998 16C10.9998 15.4477 11.4475 15 11.9998 15H12.0095ZM12.0037 10.9922C13.1397 10.9945 14.2414 11.3839 15.1267 12.0957C15.5567 12.4418 15.6249 13.0707 15.2791 13.501C14.933 13.9314 14.3033 14.0003 13.8728 13.6543C13.3417 13.2273 12.6813 12.9936 11.9998 12.9922C11.3182 12.9908 10.6558 13.2215 10.1228 13.6465C9.69102 13.9906 9.06182 13.92 8.71755 13.4883C8.37331 13.0565 8.44494 12.4273 8.87673 12.083C9.76494 11.3748 10.8677 10.9899 12.0037 10.9922ZM11.9998 7C14.0446 7 16.0285 7.69658 17.6248 8.97461C18.0558 9.31981 18.1252 9.94879 17.7801 10.3799C17.4349 10.8109 16.8059 10.8803 16.3748 10.5352C15.1333 9.54125 13.5901 9 11.9998 9C10.4094 9 8.86627 9.54125 7.62478 10.5352C7.19368 10.8803 6.5647 10.8109 6.21951 10.3799C5.87436 9.94879 5.94375 9.31981 6.37478 8.97461C7.97104 7.69658 9.95493 7 11.9998 7Z" fill="currentColor"/></svg>
