<svg xmlns="http://www.w3.org/2000/svg" viewBox="0 0 24 24" fill="none"><path d="M12.0527 1.75C14.2453 1.74999 15.9673 1.74998 17.3115 1.93066C18.6882 2.11575 19.7805 2.50313 20.6387 3.36133C21.4969 4.21953 21.8842 5.31182 22.0693 6.68848C22.25 8.03274 22.25 9.75468 22.25 11.9473V12.0527C22.25 14.2453 22.25 15.9673 22.0693 17.3115C21.8842 18.6882 21.4969 19.7805 20.6387 20.6387C19.7805 21.4969 18.6882 21.8842 17.3115 22.0693C15.9673 22.25 14.2453 22.25 12.0527 22.25H11.9473C9.75468 22.25 8.03274 22.25 6.68848 22.0693C5.31182 21.8842 4.21953 21.4969 3.36133 20.6387C2.50313 19.7805 2.11575 18.6882 1.93066 17.3115C1.74998 15.9673 1.74999 14.2453 1.75 12.0527V11.9473C1.74999 9.75468 1.74998 8.03274 1.93066 6.68848C2.11575 5.31182 2.50313 4.21953 3.36133 3.36133C4.21953 2.50313 5.31182 2.11575 6.68848 1.93066C8.03274 1.74998 9.75468 1.74999 11.9473 1.75H12.0527ZM12 15C11.4477 15 11 15.4477 11 16C11 16.5523 11.4477 17 12 17H12.0098C12.5619 16.9999 13.0098 16.5522 13.0098 16C13.0098 15.4478 12.5619 15.0001 12.0098 15H12ZM12.0039 10.9922C10.868 10.9899 9.76513 11.3749 8.87695 12.083C8.44517 12.4273 8.37353 13.0565 8.71777 13.4883C9.06206 13.9199 9.69127 13.9906 10.123 13.6465C10.656 13.2216 11.3184 12.9908 12 12.9922C12.6814 12.9937 13.342 13.2274 13.873 13.6543C14.3035 14.0002 14.9333 13.9314 15.2793 13.501C15.625 13.0707 15.5568 12.4418 15.127 12.0957C14.2417 11.384 13.1398 10.9945 12.0039 10.9922ZM12 7C9.95521 7 7.97124 7.69665 6.375 8.97461C5.94397 9.31981 5.87458 9.94879 6.21973 10.3799C6.56494 10.8108 7.19394 10.8803 7.625 10.5352C8.86647 9.54132 10.4097 9 12 9C13.5903 9.00005 15.1336 9.5413 16.375 10.5352C16.8061 10.8802 17.4351 10.8109 17.7803 10.3799C18.1253 9.94884 18.0559 9.3198 17.625 8.97461C16.0288 7.69662 14.0448 7.00005 12 7Z" fill="currentColor"/></svg>
