<svg xmlns="http://www.w3.org/2000/svg" viewBox="0 0 24 24" fill="none"><path d="M16 4.25073C18.5578 4.25073 20.5084 4.70596 21.5195 5.01929C22.3186 5.34581 22.7499 6.13622 22.75 6.92749V16.6833C22.7499 17.5308 22.2837 18.227 21.6904 18.6589C21.1365 19.0622 20.4095 19.2844 19.6826 19.1902C18.7875 19.0212 17.4632 18.8601 16 18.8601C13.6966 18.8601 12.3677 19.2881 10.5127 19.5632C8.78314 19.8197 6.81344 19.8898 3.63574 19.2498L2.9834 19.1121C1.95787 18.8859 1.25012 17.9693 1.25 16.9392V6.92163C1.25017 5.44301 2.6335 4.41222 4.02441 4.68823L4.58496 4.79468C7.31829 5.2841 8.99031 5.1758 10.4746 4.94214C12.0595 4.69263 13.6323 4.25073 16 4.25073ZM12 9.00073C10.3431 9.00073 9 10.3439 9 12.0007C9 13.6576 10.3431 15.0007 12 15.0007C13.6569 15.0007 15 13.6576 15 12.0007C15 10.3439 13.6569 9.00073 12 9.00073ZM5.5 11.4998C4.94771 11.4998 4.5 11.9475 4.5 12.4998C4.5 13.052 4.94772 13.4998 5.5 13.4998C6.05228 13.4998 6.5 13.052 6.5 12.4998C6.5 11.9475 6.05228 11.4998 5.5 11.4998ZM18.5 10.4998C17.9477 10.4998 17.5 10.9475 17.5 11.4998C17.5 12.052 17.9477 12.4998 18.5 12.4998C19.0523 12.4998 19.5 12.052 19.5 11.4998C19.5 10.9475 19.0523 10.4998 18.5 10.4998Z" fill="currentColor"/></svg>
