<svg xmlns="http://www.w3.org/2000/svg" viewBox="0 0 24 24" fill="none"><path d="M7.27682 3.51108C8.60423 2.12116 10.4513 1.25 12.5 1.25C14.5487 1.25 16.3958 2.12116 17.7232 3.51108C18.1046 3.91048 18.0901 4.54348 17.6907 4.92492C17.2913 5.30636 16.6583 5.2918 16.2768 4.8924C15.3009 3.87054 13.966 3.25 12.5 3.25C11.034 3.25 9.69908 3.87054 8.72318 4.8924C8.34174 5.2918 7.70875 5.30636 7.30934 4.92492C6.90994 4.54348 6.89538 3.91048 7.27682 3.51108ZM9.52682 5.86703C10.2784 5.08006 11.33 4.58182 12.5 4.58182C13.67 4.58182 14.7216 5.08006 15.4732 5.86703C15.8546 6.26644 15.8401 6.89943 15.4407 7.28087C15.0413 7.66231 14.4083 7.64775 14.0268 7.24835C13.6267 6.82944 13.0873 6.58182 12.5 6.58182C11.9127 6.58182 11.3733 6.82944 10.9732 7.24835C10.5917 7.64775 9.95875 7.66231 9.55934 7.28087C9.15994 6.89943 9.14538 6.26644 9.52682 5.86703ZM11.4996 9.25C11.4996 8.69772 11.9473 8.25 12.4996 8.25H12.5086C13.0609 8.25 13.5086 8.69772 13.5086 9.25C13.5086 9.80228 13.0609 10.25 12.5086 10.25H12.4996C11.9473 10.25 11.4996 9.80228 11.4996 9.25Z" fill="currentColor" fill-rule="evenodd" clip-rule="evenodd"/><path d="M17.5459 11.25C18.4439 11.25 19.1854 11.2496 19.7812 11.3213C20.4064 11.3966 20.9605 11.5598 21.4404 11.9473C21.7155 12.1694 21.9548 12.4353 22.1504 12.7344C22.4839 13.2444 22.6215 13.8254 22.6865 14.4922C22.7498 15.1408 22.75 15.9526 22.75 16.9609V17.0391C22.75 18.0474 22.7498 18.8592 22.6865 19.5078C22.6215 20.1746 22.4839 20.7556 22.1504 21.2656C21.9548 21.5647 21.7155 21.8306 21.4404 22.0527C20.9605 22.4402 20.4064 22.6034 19.7812 22.6787C19.1854 22.7504 18.4439 22.75 17.5459 22.75H6.4541C5.55607 22.75 4.81459 22.7504 4.21875 22.6787C3.59355 22.6034 3.03951 22.4402 2.55957 22.0527C2.28448 21.8306 2.0452 21.5647 1.84961 21.2656C1.51608 20.7556 1.37851 20.1746 1.31348 19.5078C1.25024 18.8592 1.24999 18.0474 1.25 17.0391V16.9609C1.24999 15.9526 1.25024 15.1408 1.31348 14.4922C1.37851 13.8254 1.51608 13.2444 1.84961 12.7344C2.0452 12.4353 2.28448 12.1694 2.55957 11.9473C3.03951 11.5598 3.59355 11.3966 4.21875 11.3213C4.81458 11.2496 5.55608 11.25 6.4541 11.25H17.5459ZM6 16C5.44772 16 5 16.4477 5 17C5 17.5523 5.44772 18 6 18H10C10.5523 18 11 17.5523 11 17C11 16.4477 10.5523 16 10 16H6ZM13.9951 16C13.4454 16.0001 13 16.4478 13 17C13 17.5522 13.4454 17.9999 13.9951 18H14.0039C14.5537 18 15 17.5523 15 17C15 16.4477 14.5537 16 14.0039 16H13.9951ZM17.9951 16C17.4454 16.0001 17 16.4478 17 17C17 17.5522 17.4454 17.9999 17.9951 18H18.0039C18.5537 18 19 17.5523 19 17C19 16.4477 18.5537 16 18.0039 16H17.9951Z" fill="currentColor" fill-rule="evenodd" clip-rule="evenodd"/></svg>
