<svg xmlns="http://www.w3.org/2000/svg" viewBox="0 0 24 24" fill="none"><path d="M1.54285 1.54314C1.93337 1.15261 2.56639 1.15261 2.95691 1.54314L22.4569 21.0431C22.8474 21.4337 22.8474 22.0667 22.4569 22.4572C22.0664 22.8477 21.4334 22.8477 21.0428 22.4572L1.54285 2.9572C1.15232 2.56668 1.15232 1.93366 1.54285 1.54314Z" fill="currentColor"/><path d="M19.7461 19.7462C19.0651 20.0691 18.3037 20.2501 17.5 20.2501H7C3.82436 20.2501 1.25 17.6758 1.25 14.5001C1.25 11.7173 3.22637 9.39642 5.85254 8.86438C5.99655 8.0802 6.28808 7.34781 6.69531 6.69543L19.7461 19.7462Z" fill="currentColor"/><path opacity="0.4" d="M12 3.75012C15.3858 3.75012 18.1429 6.44236 18.2471 9.80286C20.7927 10.1655 22.75 12.3543 22.75 15.0001C22.75 16.1859 22.3564 17.2794 21.6934 18.1583L8.41504 4.88C9.42991 4.16807 10.666 3.75012 12 3.75012Z" fill="currentColor"/></svg>
