<svg xmlns="http://www.w3.org/2000/svg" viewBox="0 0 24 24" fill="none"><path d="M1.54236 1.54314C1.93288 1.15261 2.5659 1.15261 2.95642 1.54314L22.4564 21.0431C22.8469 21.4337 22.8469 22.0667 22.4564 22.4572C22.0659 22.8477 21.4329 22.8477 21.0424 22.4572L1.54236 2.9572C1.15183 2.56668 1.15183 1.93366 1.54236 1.54314Z" fill="currentColor"/><path d="M19.7456 19.7462C19.0646 20.0691 18.3033 20.2501 17.4995 20.2501H6.99951C3.82387 20.2501 1.24951 17.6758 1.24951 14.5001C1.24951 11.7173 3.22588 9.39642 5.85205 8.86438C5.99606 8.0802 6.2876 7.34782 6.69482 6.69543L19.7456 19.7462Z" fill="currentColor"/><path d="M11.9995 3.75012C15.3853 3.75012 18.1424 6.44236 18.2466 9.80286C20.7922 10.1655 22.7495 12.3543 22.7495 15.0001C22.7495 16.1859 22.3559 17.2794 21.6929 18.1583L8.41455 4.88C9.42942 4.16807 10.6656 3.75012 11.9995 3.75012Z" fill="currentColor"/></svg>
