<svg xmlns="http://www.w3.org/2000/svg" viewBox="0 0 24 24" fill="none"><path d="M13.8975 1.36441C14.2488 1.58394 14.3555 2.04665 14.136 2.3979L12.3532 5.25041H15C15.2726 5.25041 15.5238 5.39836 15.656 5.63683C15.7882 5.8753 15.7805 6.1667 15.636 6.3979L13.136 10.3979C12.9165 10.7492 12.4538 10.8559 12.1025 10.6364C11.7512 10.4169 11.6445 9.95416 11.864 9.60291L13.6468 6.75041H11C10.7274 6.75041 10.4762 6.60245 10.344 6.36398C10.2118 6.12552 10.2195 5.83411 10.364 5.60291L12.864 1.60291C13.0835 1.25165 13.5462 1.14487 13.8975 1.36441Z" fill="currentColor" fill-rule="evenodd" clip-rule="evenodd"/><path opacity="0.4" d="M8.75233 6.10197C8.3133 6.26777 7.93769 6.44162 7.63984 6.60469L7.63464 6.60756C5.70308 7.68502 4.22333 9.34679 3.5876 11.3375C3.49377 11.6081 3.15677 11.6774 3 11.6782C1.9856 11.6782 1.25 12.5432 1.25 13.4996V15.0578C1.25 15.7281 1.62349 16.2861 2.01729 16.703C2.42306 17.1327 2.95227 17.5202 3.4751 17.8564C4.00277 18.1957 5.66469 19.1457 6.14191 19.4092C6.20959 19.4559 6.25 19.5328 6.25 19.615V21.9996C6.25 22.4138 6.58579 22.7496 7 22.7496H9C9.24458 22.7496 9.47379 22.6303 9.61417 22.4301L10.313 21.433C12.0688 21.8579 13.9312 21.8579 15.687 21.433L16.3858 22.4301C16.5262 22.6303 16.7554 22.7496 17 22.7496H19C19.4142 22.7496 19.75 22.4138 19.75 21.9996V19.5915C19.75 19.5204 19.7853 19.4287 19.876 19.3523C21.6296 17.8775 22.75 15.8129 22.75 13.4996C22.75 10.5728 20.9631 8.05658 18.3654 6.60754L18.3602 6.60469C17.9913 6.40274 17.6201 6.22819 17.2486 6.07843C17.235 6.46639 17.1211 6.85103 16.908 7.19202L14.408 11.192C13.7494 12.2458 12.3613 12.5661 11.3075 11.9075C10.2537 11.2489 9.93341 9.86078 10.592 8.80702L10.9409 8.24874C10.1459 8.22795 9.419 7.78839 9.03206 7.09025C8.86084 6.78133 8.76783 6.44279 8.75233 6.10197Z" fill="currentColor"/><path d="M6.5 12.0003C6.5 11.448 6.94772 11.0003 7.5 11.0003H7.50898C8.06127 11.0003 8.50898 11.448 8.50898 12.0003C8.50898 12.5526 8.06127 13.0003 7.50898 13.0003H7.5C6.94772 13.0003 6.5 12.5526 6.5 12.0003Z" fill="currentColor" fill-rule="evenodd" clip-rule="evenodd"/></svg>
