<svg xmlns="http://www.w3.org/2000/svg" viewBox="0 0 24 24" fill="none"><path d="M13.8975 1.36459C14.2488 1.58412 14.3555 2.04684 14.136 2.39809L12.3532 5.25059H15C15.2726 5.25059 15.5238 5.39855 15.656 5.63701C15.7882 5.87548 15.7805 6.16689 15.636 6.39809L13.136 10.3981C12.9165 10.7493 12.4538 10.8561 12.1025 10.6366C11.7512 10.4171 11.6445 9.95434 11.864 9.60309L13.6468 6.75059H11C10.7274 6.75059 10.4762 6.60263 10.344 6.36417C10.2118 6.1257 10.2195 5.83429 10.364 5.60309L12.864 1.60309C13.0835 1.25184 13.5462 1.14506 13.8975 1.36459Z" fill="currentColor" fill-rule="evenodd" clip-rule="evenodd"/><path d="M17.249 6.07861C17.6204 6.22834 17.9916 6.4031 18.3604 6.60498L18.3652 6.60791C20.9629 8.0569 22.7499 10.5729 22.75 13.4995C22.75 15.8127 21.6295 17.8772 19.876 19.3521C19.7854 19.4282 19.7501 19.5203 19.75 19.5913V21.9995C19.75 22.4137 19.4142 22.7495 19 22.7495H17C16.7554 22.7495 16.5261 22.6305 16.3857 22.4302L15.6865 21.4331C13.931 21.8579 12.069 21.8579 10.3135 21.4331L9.61426 22.4302C9.47388 22.6305 9.24458 22.7495 9 22.7495H7C6.58579 22.7495 6.25 22.4137 6.25 21.9995V19.6147C6.24985 19.5327 6.20915 19.4562 6.1416 19.4097C5.66437 19.1462 4.00377 18.1965 3.47559 17.8569C2.9529 17.5208 2.4233 17.1331 2.01758 16.7036C1.62379 16.2867 1.25003 15.7283 1.25 15.0581V13.4995C1.25014 12.5432 1.9857 11.6782 3 11.6782C3.15677 11.6774 3.49406 11.608 3.58789 11.3374C4.22369 9.34685 5.70332 7.6853 7.63477 6.60791L7.63965 6.60498C7.93743 6.44196 8.31305 6.26782 8.75195 6.10205C8.76746 6.44287 8.86101 6.78141 9.03223 7.09033C9.41917 7.78847 10.1464 8.22774 10.9414 8.24854L10.5918 8.80713C9.93323 9.86088 10.2539 11.2491 11.3076 11.9077C12.3614 12.5662 13.7496 12.2456 14.4082 11.1919L16.9082 7.19189C17.1212 6.85099 17.2354 6.46646 17.249 6.07861ZM7.5 11.0005C6.94772 11.0005 6.5 11.4482 6.5 12.0005C6.5 12.5528 6.94772 13.0005 7.5 13.0005H7.50879C8.06107 13.0005 8.50879 12.5528 8.50879 12.0005C8.50879 11.4482 8.06107 11.0005 7.50879 11.0005H7.5Z" fill="currentColor"/></svg>
