<svg xmlns="http://www.w3.org/2000/svg" viewBox="0 0 24 24" fill="none"><path opacity="0.4" d="M21.75 12.0416V12V11.9584C21.75 9.87807 21.75 8.24041 21.5781 6.96191C21.4022 5.65356 21.0334 4.60957 20.2119 3.78809C19.3904 2.9666 18.3464 2.59783 17.0381 2.42188C15.7596 2.24999 14.1219 2.24999 12.0416 2.25H12H11.9584C9.87806 2.24999 8.24041 2.24999 6.96191 2.42188C5.65356 2.59783 4.60957 2.9666 3.78809 3.78809C2.9666 4.60957 2.59783 5.65356 2.42188 6.96191C2.24999 8.24041 2.24999 9.87806 2.25 11.9584V12V12.0416C2.24999 14.1219 2.24999 15.7596 2.42188 17.0381C2.59783 18.3464 2.9666 19.3904 3.78809 20.2119C4.60957 21.0334 5.65356 21.4022 6.96191 21.5781C8.24041 21.75 9.87807 21.75 11.9584 21.75H12H12.0416C14.1219 21.75 15.7596 21.75 17.0381 21.5781C18.3464 21.4022 19.3904 21.0334 20.2119 20.2119C21.0334 19.3904 21.4022 18.3464 21.5781 17.0381C21.75 15.7596 21.75 14.1219 21.75 12.0416Z" fill="currentColor"/><path d="M16 12C16 14.2091 14.2091 16 12 16C9.79086 16 8 14.2091 8 12C8 9.79086 9.79086 8 12 8C14.2091 8 16 9.79086 16 12Z" fill="currentColor"/><path d="M17.25 5.75C17.8023 5.75 18.25 6.19772 18.25 6.75C18.25 7.30229 17.8023 7.75 17.25 7.75C16.6977 7.75 16.25 7.30228 16.25 6.75C16.25 6.19772 16.6977 5.75 17.25 5.75Z" fill="currentColor"/></svg>
