<svg xmlns="http://www.w3.org/2000/svg" viewBox="0 0 24 24" fill="none"><path d="M13.5838 13.25C14.5244 13.25 15.337 13.2478 15.9368 13.3306C16.4635 13.4033 17.1966 13.5874 17.561 14.258L17.6293 14.399L17.6826 14.5455C17.9107 15.2721 17.5255 15.9098 17.2055 16.3253C16.8411 16.7982 16.265 17.3578 15.6 18.0071L14.017 19.5516C13.7207 19.8409 13.4317 20.1259 13.1619 20.327C12.8697 20.5446 12.4908 20.75 12.0017 20.75C11.5126 20.75 11.1337 20.5446 10.8416 20.327C10.5717 20.1259 10.2828 19.8409 9.98646 19.5516L8.40344 18.0071C7.73848 17.3578 7.16232 16.7982 6.79796 16.3253C6.45665 15.8822 6.0405 15.186 6.37414 14.399L6.44244 14.258C6.80687 13.5874 7.53995 13.4033 8.06663 13.3306C8.66647 13.2478 9.47905 13.25 10.4196 13.25H13.5838ZM10.4196 15.125C9.41493 15.125 8.76753 15.1274 8.33421 15.1873C8.33041 15.1878 8.32669 15.1886 8.32298 15.1891C8.32483 15.1915 8.3267 15.194 8.32859 15.1964C8.59147 15.5376 9.04671 15.9858 9.75724 16.6796L11.3393 18.225C11.6734 18.5512 11.8582 18.7277 12.0017 18.8347C12.1453 18.7277 12.33 18.5512 12.6641 18.225L14.2462 16.6796C14.9567 15.9858 15.412 15.5376 15.6749 15.1964C15.6766 15.1941 15.6778 15.1914 15.6795 15.1891C15.6761 15.1886 15.6727 15.1877 15.6692 15.1873C15.2359 15.1274 14.5885 15.125 13.5838 15.125H10.4196Z" fill="currentColor"/><path d="M15.9368 10.6694C15.337 10.7522 14.5244 10.75 13.5838 10.75H10.4196C9.47905 10.75 8.66647 10.7522 8.06663 10.6694C7.53995 10.5967 6.80687 10.4126 6.44244 9.742L6.37414 9.60101C6.0405 8.81397 6.45665 8.11782 6.79796 7.67474C7.16232 7.20181 7.73848 6.64217 8.40344 5.99292L9.98646 4.44842C10.2828 4.15911 10.5717 3.87405 10.8416 3.67297C11.1337 3.45535 11.5126 3.25 12.0017 3.25C12.4908 3.25 12.8697 3.45535 13.1619 3.67297C13.4317 3.87405 13.7207 4.15911 14.017 4.44842L15.6 5.99292L15.6469 6.03872C16.292 6.66853 16.8497 7.21297 17.2055 7.67474C17.5255 8.09016 17.9107 8.72787 17.6826 9.45452L17.6293 9.60101L17.561 9.742C17.1966 10.4126 16.4635 10.5967 15.9368 10.6694Z" fill="currentColor"/></svg>
