<svg xmlns="http://www.w3.org/2000/svg" viewBox="0 0 24 24" fill="none"><path d="M1.54302 1.54265C1.93354 1.15212 2.56655 1.15212 2.95708 1.54265L22.4571 21.0426C22.8476 21.4332 22.8476 22.0662 22.4571 22.4567C22.0666 22.8472 21.4335 22.8472 21.043 22.4567L1.54302 2.95671C1.15249 2.56619 1.15249 1.93317 1.54302 1.54265Z" fill="currentColor"/><path d="M6.24997 19.7497H3.99997C3.5835 19.7497 3.22797 19.7556 2.91794 19.6726C2.14168 19.4644 1.53513 18.8581 1.32712 18.0818C1.24416 17.7717 1.24997 17.4162 1.24997 16.9997C1.24997 16.5832 1.24408 16.2278 1.32712 15.9177C1.53519 15.1414 2.14167 14.535 2.91794 14.3269C3.22797 14.2438 3.5835 14.2497 3.99997 14.2497H6.24997V19.7497Z" fill="currentColor"/><path d="M18.75 18.7497V18.9997C18.75 19.4139 18.4142 19.7497 18 19.7497H7.74997V14.2497H14.25L18.75 18.7497Z" fill="currentColor"/><path opacity="0.4" d="M20.5537 14.3972C20.7448 14.2558 20.9924 14.2135 21.2197 14.2829C21.9754 14.5141 22.5077 15.1636 22.6846 15.9167C22.7553 16.2183 22.75 16.5655 22.75 16.9997C22.75 17.4339 22.7554 17.7811 22.6846 18.0827C22.6217 18.3501 22.5128 18.6036 22.3662 18.8307L20.25 16.7145V14.9997C20.25 14.7622 20.3631 14.5386 20.5537 14.3972Z" fill="currentColor"/><path opacity="0.4" d="M17 9.24969C17.4164 9.24969 17.772 9.24391 18.082 9.32684C18.8584 9.53488 19.4647 10.1413 19.6729 10.9177C19.7559 11.2278 19.75 11.5831 19.75 11.9997C19.75 12.4139 19.4142 12.7497 19 12.7497C18.586 12.7494 18.25 12.4138 18.25 11.9997C18.25 11.4865 18.2437 11.3767 18.2246 11.3054C18.1552 11.0468 17.953 10.8444 17.6943 10.7751C17.623 10.7561 17.5122 10.7497 17 10.7497H15C14.586 10.7494 14.25 10.4138 14.25 9.99969C14.25 9.58568 14.586 9.24994 15 9.24969H17Z" fill="currentColor"/><path opacity="0.4" d="M13 4.24969C13.4142 4.24969 13.75 4.58548 13.75 4.99969C13.75 5.6899 14.3099 6.24945 15 6.24969H18C18.9214 6.24969 19.6888 6.24833 20.2949 6.32977C20.9224 6.41419 21.489 6.60017 21.9443 7.05536C22.3997 7.5107 22.5855 8.07718 22.6699 8.70477C22.7514 9.31099 22.75 10.0781 22.75 10.9997V11.9997C22.75 12.4139 22.4142 12.7497 22 12.7497C21.586 12.7494 21.25 12.4138 21.25 11.9997V10.9997C21.25 10.0357 21.2485 9.388 21.1836 8.90497C21.1215 8.44362 21.0141 8.24621 20.8838 8.11591C20.7535 7.9857 20.5558 7.87811 20.0947 7.8161C19.6117 7.75122 18.9637 7.74969 18 7.74969H15C13.4814 7.74945 12.25 6.51833 12.25 4.99969C12.25 4.58563 12.586 4.24994 13 4.24969Z" fill="currentColor"/></svg>
