<svg xmlns="http://www.w3.org/2000/svg" viewBox="0 0 24 24" fill="none"><path d="M12 1.25C8.12743 1.25 4.84401 3.76511 3.6911 7.25H3.5C2.25736 7.25 1.25 8.25736 1.25 9.5C1.25 10.7175 2.21704 11.7092 3.42492 11.7488C4.23552 15.7436 7.76614 18.75 12 18.75C16.261 18.75 19.8098 15.7049 20.5903 11.6718C21.5466 11.4124 22.25 10.5384 22.25 9.5C22.25 8.36467 21.4091 7.42573 20.3162 7.27204C19.1698 3.77572 15.8807 1.25 12 1.25ZM2.75 9.5003C2.75 9.08609 3.08579 8.7503 3.5 8.7503H6C8.6122 8.7503 10.8778 7.26647 12 5.0957C13.1222 7.26647 15.3878 8.7503 18 8.7503H20C20.4142 8.7503 20.75 9.08609 20.75 9.5003C20.75 9.91452 20.4142 10.2503 20 10.2503H19.9381C19.5598 10.2503 19.2407 10.5321 19.1939 10.9075C18.748 14.4831 15.6966 17.2503 12 17.2503C8.30341 17.2503 5.252 14.4831 4.80613 10.9075C4.75932 10.5321 4.44022 10.2503 4.06189 10.2503H3.5C3.08579 10.2503 2.75 9.91452 2.75 9.5003Z" fill="currentColor" fill-rule="evenodd" clip-rule="evenodd"/><path d="M10.25 14C10.25 13.5858 10.5858 13.25 11 13.25H13C13.4142 13.25 13.75 13.5858 13.75 14C13.75 14.9665 12.9665 15.75 12 15.75C11.0335 15.75 10.25 14.9665 10.25 14Z" fill="currentColor" fill-rule="evenodd" clip-rule="evenodd"/><path d="M7.53496 16.9377C7.672 16.8167 7.84849 16.75 8.03126 16.75L12 18L15.9687 16.75C16.1515 16.75 16.328 16.8167 16.465 16.9377C17.8651 18.1734 18.75 19.9839 18.75 22C18.75 22.4142 18.4142 22.75 18 22.75H6C5.58579 22.75 5.25 22.4142 5.25 22C5.25 19.9839 6.13487 18.1734 7.53496 16.9377Z" fill="currentColor"/><path d="M8.35254 10.0049C8.85667 10.0562 9.25 10.4823 9.25 11C9.25 11.5523 8.80228 12 8.25 12C7.69772 12 7.25 11.5523 7.25 11C7.25 10.4477 7.69771 10 8.25 10L8.35254 10.0049ZM15.8525 10.0049C16.3567 10.0562 16.75 10.4823 16.75 11C16.75 11.5523 16.3023 12 15.75 12C15.1977 12 14.75 11.5523 14.75 11C14.75 10.4477 15.1977 10 15.75 10L15.8525 10.0049Z" fill="currentColor"/></svg>
