<svg xmlns="http://www.w3.org/2000/svg" viewBox="0 0 24 24" fill="none"><path d="M7.24951 3C7.24951 2.0335 8.03301 1.25 8.99951 1.25H13.9995C14.966 1.25 15.7495 2.0335 15.7495 3C15.7495 3.9665 14.966 4.75 13.9995 4.75H8.99951C8.03301 4.75 7.24951 3.9665 7.24951 3Z" fill="currentColor" fill-rule="evenodd" clip-rule="evenodd"/><path d="M16.4448 10.4072C16.7723 9.96283 17.3977 9.86727 17.8423 10.1944L17.8433 10.1953C17.8438 10.1957 17.8453 10.1966 17.8462 10.1973C17.848 10.1986 17.85 10.2009 17.853 10.2031C17.8594 10.2079 17.8686 10.2149 17.8804 10.2237C17.9039 10.2412 17.9381 10.2665 17.981 10.2989C18.0666 10.3635 18.1882 10.456 18.3335 10.5694C18.623 10.7953 19.0125 11.1076 19.4048 11.4483C19.7921 11.7846 20.2056 12.1683 20.5298 12.5352C20.6909 12.7175 20.8516 12.9199 20.9771 13.128C21.0859 13.3086 21.2495 13.6228 21.2495 14C21.2495 14.3772 21.086 14.6914 20.9771 14.8721C20.8516 15.0802 20.6909 15.2825 20.5298 15.4649C20.2056 15.8317 19.7921 16.2155 19.4048 16.5518C19.0125 16.8924 18.623 17.2047 18.3335 17.4307C18.1882 17.5441 18.0666 17.6365 17.981 17.7012C17.9382 17.7335 17.9039 17.7588 17.8804 17.7764C17.8686 17.7851 17.8595 17.7921 17.853 17.7969C17.85 17.7991 17.848 17.8014 17.8462 17.8028L17.8433 17.8047L17.8423 17.8057C17.3976 18.1329 16.7713 18.0374 16.4438 17.5928C16.1167 17.1481 16.2122 16.5218 16.6567 16.1944C16.6578 16.1936 16.6604 16.1921 16.6626 16.1905L16.7759 16.1055C16.8543 16.0463 16.9673 15.9604 17.103 15.8545C17.3759 15.6416 17.7367 15.3514 18.0942 15.041C18.1098 15.0276 18.1247 15.0135 18.1401 15H10.2495C9.69723 15 9.24951 14.5523 9.24951 14C9.24953 13.4478 9.69724 13 10.2495 13H18.1401C18.1247 12.9866 18.1097 12.9725 18.0942 12.959C17.7367 12.6486 17.3759 12.3585 17.103 12.1455C16.9673 12.0396 16.8543 11.9538 16.7759 11.8946L16.6626 11.8096C16.6604 11.8079 16.6587 11.8064 16.6577 11.8057C16.2131 11.4782 16.1173 10.8519 16.4448 10.4072Z" fill="currentColor"/><path opacity="0.4" d="M16.9956 3.13281C17.8497 3.25976 18.5725 3.51934 19.1509 4.09766C19.7526 4.69966 20.0122 5.45824 20.1333 6.3584C20.2496 7.22349 20.2495 8.3242 20.2495 9.6875V10.5264C20.241 10.5189 20.2326 10.5113 20.2241 10.5039C20.0172 10.3242 19.8117 10.1529 19.6206 9.99707L19.103 9.58398L18.5737 9.18164C17.5729 8.45271 16.1718 8.67013 15.438 9.66602C14.9786 10.2899 14.8901 11.0714 15.1294 11.75H10.2495C9.08468 11.75 8.12673 12.6353 8.01123 13.7695L7.99951 14C7.99951 15.2426 9.00687 16.25 10.2495 16.25H15.1284C14.8892 16.9287 14.9784 17.7105 15.437 18.334L15.5835 18.5127C16.3361 19.3432 17.6013 19.4962 18.5356 18.8438C18.6244 18.7767 18.95 18.5347 19.1021 18.416C19.402 18.1819 19.8101 17.8555 20.2241 17.4961C20.2298 17.4911 20.235 17.4855 20.2407 17.4805C20.2306 18.2145 20.2062 18.8494 20.1333 19.3916C20.0122 20.2918 19.7526 21.0503 19.1509 21.6523C18.549 22.2542 17.791 22.5128 16.8911 22.6338C16.0263 22.7501 14.9269 22.75 13.564 22.75H9.43506C8.07213 22.75 6.97276 22.7501 6.10791 22.6338C5.20805 22.5128 4.44998 22.2542 3.84815 21.6523C3.24639 21.0503 2.98678 20.2918 2.86572 19.3916C2.74947 18.5266 2.74949 17.4257 2.74951 16.0625V9.6875C2.74949 8.32433 2.74947 7.22343 2.86572 6.3584C2.98678 5.45824 3.24639 4.69966 3.84815 4.09766C4.42627 3.51955 5.14881 3.25981 6.00244 3.13281C6.07194 4.72804 7.38716 6 8.99951 6H13.9995C15.6118 6 16.9261 4.72802 16.9956 3.13281Z" fill="currentColor"/></svg>
