<svg xmlns="http://www.w3.org/2000/svg" viewBox="0 0 24 24" fill="none"><path d="M7.24951 3.00049C7.24951 2.03399 8.03301 1.25049 8.99951 1.25049H13.9995C14.966 1.25049 15.7495 2.03399 15.7495 3.00049C15.7495 3.96699 14.966 4.75049 13.9995 4.75049H8.99951C8.03301 4.75049 7.24951 3.96699 7.24951 3.00049Z" fill="currentColor" fill-rule="evenodd" clip-rule="evenodd"/><path d="M16.4448 10.4077C16.7723 9.96332 17.3977 9.86776 17.8423 10.1948L17.8433 10.1958C17.8438 10.1962 17.8453 10.1971 17.8462 10.1978C17.848 10.1991 17.85 10.2014 17.853 10.2036C17.8594 10.2084 17.8686 10.2154 17.8804 10.2241C17.9039 10.2417 17.9381 10.267 17.981 10.2993C18.0666 10.364 18.1882 10.4564 18.3335 10.5698C18.623 10.7958 19.0125 11.1081 19.4048 11.4488C19.7921 11.785 20.2056 12.1688 20.5298 12.5357C20.6909 12.718 20.8516 12.9204 20.9771 13.1284C21.0859 13.3091 21.2495 13.6233 21.2495 14.0005C21.2495 14.3777 21.086 14.6919 20.9771 14.8726C20.8516 15.0807 20.6909 15.283 20.5298 15.4654C20.2056 15.8322 19.7921 16.216 19.4048 16.5523C19.0125 16.8929 18.623 17.2052 18.3335 17.4312C18.1882 17.5445 18.0666 17.637 17.981 17.7017C17.9382 17.734 17.9039 17.7593 17.8804 17.7769C17.8686 17.7856 17.8595 17.7926 17.853 17.7974C17.85 17.7996 17.848 17.8019 17.8462 17.8032L17.8433 17.8052L17.8423 17.8062C17.3976 18.1334 16.7713 18.0379 16.4438 17.5933C16.1167 17.1486 16.2122 16.5222 16.6567 16.1948C16.6578 16.1941 16.6604 16.1926 16.6626 16.1909L16.7759 16.106C16.8543 16.0468 16.9673 15.9609 17.103 15.855C17.3759 15.6421 17.7367 15.3519 18.0942 15.0415C18.1098 15.0281 18.1247 15.014 18.1401 15.0005H10.2495C9.69723 15.0005 9.24951 14.5528 9.24951 14.0005C9.24953 13.4482 9.69724 13.0005 10.2495 13.0005H18.1401C18.1247 12.987 18.1097 12.973 18.0942 12.9595C17.7367 12.6491 17.3759 12.359 17.103 12.146C16.9673 12.0401 16.8543 11.9543 16.7759 11.895L16.6626 11.8101C16.6604 11.8084 16.6587 11.8069 16.6577 11.8062C16.2131 11.4787 16.1173 10.8524 16.4448 10.4077Z" fill="currentColor"/><path d="M16.9956 3.1333C17.8497 3.26024 18.5725 3.51983 19.1509 4.09814C19.7526 4.70015 20.0122 5.45873 20.1333 6.35889C20.2496 7.22398 20.2495 8.32469 20.2495 9.68799V10.5269C20.241 10.5194 20.2326 10.5118 20.2241 10.5044C20.0172 10.3247 19.8117 10.1534 19.6206 9.99756L19.103 9.58447L18.5737 9.18213C17.5729 8.4532 16.1718 8.67062 15.438 9.6665C14.9786 10.2904 14.8901 11.0719 15.1294 11.7505H10.2495C9.08468 11.7505 8.12673 12.6358 8.01123 13.77L7.99951 14.0005C7.99951 15.2431 9.00687 16.2505 10.2495 16.2505H15.1284C14.8892 16.9292 14.9784 17.711 15.437 18.3345L15.5835 18.5132C16.3361 19.3437 17.6013 19.4967 18.5356 18.8442C18.6244 18.7772 18.95 18.5352 19.1021 18.4165C19.402 18.1824 19.8101 17.856 20.2241 17.4966C20.2298 17.4916 20.235 17.486 20.2407 17.481C20.2306 18.215 20.2062 18.8498 20.1333 19.3921C20.0122 20.2922 19.7526 21.0508 19.1509 21.6528C18.549 22.2546 17.791 22.5132 16.8911 22.6343C16.0263 22.7506 14.9269 22.7505 13.564 22.7505H9.43506C8.07213 22.7505 6.97276 22.7506 6.10791 22.6343C5.20805 22.5132 4.44998 22.2546 3.84815 21.6528C3.24639 21.0508 2.98678 20.2922 2.86572 19.3921C2.74947 18.5271 2.74949 17.4262 2.74951 16.063V9.68799C2.74949 8.32482 2.74947 7.22392 2.86572 6.35889C2.98678 5.45873 3.24639 4.70015 3.84815 4.09814C4.42627 3.52004 5.14881 3.2603 6.00244 3.1333C6.07194 4.72853 7.38716 6.00049 8.99951 6.00049H13.9995C15.6118 6.00049 16.9261 4.72851 16.9956 3.1333Z" fill="currentColor"/></svg>
