<svg xmlns="http://www.w3.org/2000/svg" viewBox="0 0 24 24" fill="none"><path d="M2.25012 14.9722V6.22222C2.25012 5.68528 2.68385 5.25 3.21887 5.25C3.7539 5.25 4.18762 5.68528 4.18762 6.22222V14.9722C4.18762 16.6037 4.18962 17.7295 4.30304 18.5763C4.41274 19.3951 4.61061 19.8059 4.89716 20.0935C5.18371 20.3811 5.59305 20.5796 6.40894 20.6897C7.25268 20.8035 8.37449 20.8056 10.0001 20.8056H16.7814C17.3164 20.8056 17.7501 21.2408 17.7501 21.7778C17.7501 22.3147 17.3164 22.75 16.7814 22.75H10.0001C8.42921 22.75 7.15352 22.7524 6.15067 22.6171C5.11993 22.478 4.23383 22.1773 3.52729 21.4683C2.82075 20.7592 2.52115 19.8699 2.38257 18.8355C2.24775 17.829 2.25012 16.5488 2.25012 14.9722Z" fill="currentColor"/><path opacity="0.4" d="M21.7501 11.0579V11V9V8.94211C21.7501 7.34052 21.7502 6.06221 21.6154 5.05957C21.476 4.02332 21.1801 3.17025 20.505 2.49512C19.8299 1.81999 18.9768 1.52409 17.9406 1.38477C16.9379 1.24996 15.6596 1.24998 14.058 1.25H14.0001H13.9423C12.3407 1.24998 11.0623 1.24996 10.0597 1.38477C9.02344 1.52409 8.17037 1.81999 7.49524 2.49512C6.82011 3.17025 6.52421 4.02332 6.38489 5.05957C6.25009 6.06221 6.2501 7.34053 6.25012 8.94213V9V11V11.0579C6.2501 12.6595 6.25009 13.9378 6.38489 14.9404C6.52421 15.9767 6.82011 16.8298 7.49524 17.5049C8.17037 18.18 9.02344 18.4759 10.0597 18.6152C11.0623 18.75 12.3406 18.75 13.9422 18.75H14.0001H14.058C15.6596 18.75 16.9379 18.75 17.9406 18.6152C18.9768 18.4759 19.8299 18.18 20.505 17.5049C21.1801 16.8298 21.476 15.9767 21.6154 14.9404C21.7502 13.9378 21.7501 12.6595 21.7501 11.0579Z" fill="currentColor"/><path d="M13.0002 13V10.9951H11.0051C10.4529 10.9951 10.0052 10.5473 10.0051 9.99512C10.0051 9.44283 10.4528 8.99512 11.0051 8.99512H13.0002V7C13.0002 6.44772 13.448 6 14.0002 6C14.5525 6.00006 15.0002 6.44775 15.0002 7V8.99512H17.0051C17.5574 8.99512 18.0051 9.44283 18.0051 9.99512C18.0051 10.5473 17.5574 10.9951 17.0051 10.9951H15.0002V13C15.0002 13.5522 14.5525 13.9999 14.0002 14C13.448 14 13.0002 13.5523 13.0002 13Z" fill="currentColor"/></svg>
