<svg xmlns="http://www.w3.org/2000/svg" viewBox="0 0 24 24" fill="none"><path opacity="0.4" d="M22.75 15.0645V15V12.5V12.4355C22.75 11.0725 22.7501 9.9733 22.6338 9.1084C22.5128 8.20829 22.2533 7.45055 21.6514 6.84863C21.0495 6.24672 20.2917 5.98723 19.3916 5.86621C18.5267 5.74995 17.4275 5.74997 16.0644 5.75H16H8H7.93562C6.57252 5.74997 5.47333 5.74995 4.6084 5.86621C3.70829 5.98723 2.95055 6.24672 2.34863 6.84863C1.74672 7.45055 1.48723 8.20829 1.36621 9.1084C1.24995 9.97333 1.24997 11.0725 1.25 12.4356V12.5V15V15.0644C1.24997 16.4275 1.24995 17.5267 1.36621 18.3916C1.48723 19.2917 1.74672 20.0495 2.34863 20.6514C2.95055 21.2533 3.70829 21.5128 4.6084 21.6338C5.47332 21.7501 6.5725 21.75 7.93557 21.75H8H16H16.0644C17.4275 21.75 18.5267 21.7501 19.3916 21.6338C20.2917 21.5128 21.0495 21.2533 21.6514 20.6514C22.2533 20.0495 22.5128 19.2917 22.6338 18.3916C22.7501 17.5267 22.75 16.4275 22.75 15.0645Z" fill="currentColor"/><path d="M8.5 15.75C9.4665 15.75 10.25 14.9665 10.25 14V12C10.25 11.0335 9.4665 10.25 8.5 10.25H5.5C4.5335 10.25 3.75 11.0335 3.75 12V14C3.75 14.9665 4.5335 15.75 5.5 15.75H8.5Z" fill="currentColor"/><path d="M12 2.25C12.6865 2.25 13.2579 2.24903 13.7188 2.2959C14.1922 2.34406 14.6314 2.44934 15.0273 2.71387C15.3276 2.9145 15.5855 3.17239 15.7861 3.47266C16.0507 3.86862 16.1559 4.30784 16.2041 4.78125C16.2327 5.06263 16.2411 5.38521 16.2451 5.75H14.7461C14.7423 5.418 14.7345 5.1544 14.7119 4.93262C14.6758 4.57788 14.6115 4.4141 14.5391 4.30567C14.4479 4.16921 14.3308 4.05212 14.1943 3.96094C14.0859 3.88849 13.9221 3.82419 13.5674 3.78809C13.2 3.75071 12.7178 3.75 12 3.75C11.2822 3.75 10.8 3.75071 10.4326 3.78809C10.0779 3.82419 9.9141 3.88849 9.80566 3.96094C9.66921 4.05212 9.55212 4.16921 9.46094 4.30567C9.38849 4.4141 9.32419 4.57788 9.28809 4.93262C9.26552 5.1544 9.25766 5.418 9.25391 5.75H7.75391C7.75797 5.38521 7.76729 5.06264 7.7959 4.78125C7.84406 4.30784 7.94934 3.86862 8.21387 3.47266C8.4145 3.17239 8.67238 2.9145 8.97266 2.71387C9.36862 2.44934 9.80783 2.34406 10.2812 2.2959C10.7421 2.24903 11.3135 2.25 12 2.25Z" fill="currentColor"/><path d="M7.75 16.75V21.749C7.20755 21.7489 6.70824 21.7469 6.25 21.7373V16.75H7.75Z" fill="currentColor"/><path d="M16.25 5.75C16.7924 5.75009 17.2918 5.75215 17.75 5.76172V21.7373C17.2918 21.7469 16.7924 21.7489 16.25 21.749V5.75Z" fill="currentColor"/><path d="M7.75 9.25H6.25V5.76172C6.70823 5.75215 7.20756 5.75009 7.75 5.75V9.25Z" fill="currentColor"/></svg>
