<svg xmlns="http://www.w3.org/2000/svg" viewBox="0 0 24 24" fill="none"><path d="M12 22.75C17.9371 22.75 22.75 17.9371 22.75 12C22.75 6.06294 17.9371 1.25 12 1.25C6.06294 1.25 1.25 6.06294 1.25 12C1.25 17.9371 6.06294 22.75 12 22.75ZM7.875 10.25C7.33479 10.25 7.04739 9.83182 6.93945 9.61621C6.8093 9.3559 6.75 9.04829 6.75 8.75C6.75 8.45171 6.8093 8.1441 6.93945 7.88379C7.04739 7.66817 7.33479 7.25 7.875 7.25C8.41521 7.25 8.70261 7.66818 8.81055 7.88379C8.9407 8.1441 9 8.4517 9 8.75C9 9.04829 8.9407 9.3559 8.81055 9.61621C8.70261 9.83182 8.41522 10.25 7.875 10.25ZM16.125 10.25C15.5848 10.25 15.2974 9.83182 15.1895 9.61621C15.0593 9.3559 15 9.04829 15 8.75C15 8.45171 15.0593 8.1441 15.1895 7.88379C15.2974 7.66817 15.5848 7.25 16.125 7.25C16.6652 7.25 16.9526 7.66818 17.0605 7.88379C17.1907 8.1441 17.25 8.4517 17.25 8.75C17.25 9.04829 17.1907 9.3559 17.0605 9.61621C16.9526 9.83182 16.6652 10.25 16.125 10.25ZM12 18.75C10.3337 18.75 9.25 17.1301 9.25 15.5C9.25 13.8699 10.3337 12.25 12 12.25C13.6663 12.25 14.75 13.8699 14.75 15.5C14.75 17.1301 13.6663 18.75 12 18.75Z" fill="currentColor"/></svg>
