<svg xmlns="http://www.w3.org/2000/svg" viewBox="0 0 24 24" fill="none"><path d="M20.0001 6C20.5524 6 21.0001 6.44772 21.0001 7C21.0001 7.55228 20.5524 8 20.0001 8H4.00012C3.44784 8 3.00012 7.55228 3.00012 7C3.00012 6.44772 3.44784 6 4.00012 6H20.0001Z" fill="currentColor"/><path d="M20.0001 10C20.5524 10 21.0001 10.4477 21.0001 11C21.0001 11.5523 20.5524 12 20.0001 12H4.00012C3.44784 12 3.00012 11.5523 3.00012 11C3.00012 10.4477 3.44784 10 4.00012 10H20.0001Z" fill="currentColor"/><path opacity="0.4" d="M12.0001 2C15.8661 2 19.0001 5.13401 19.0001 9C19.0001 12.866 15.8661 16 12.0001 16H8.00006V21C8.00006 21.5523 7.55235 22 7.00006 22C6.44778 22 6.00006 21.5523 6.00006 21V4C6.00006 2.89543 6.89549 2 8.00006 2H12.0001ZM8.00006 14H12.0001C14.7615 14 17.0001 11.7614 17.0001 9C17.0001 6.23858 14.7615 4 12.0001 4H8.00006V14Z" fill="currentColor" fill-rule="evenodd" clip-rule="evenodd"/></svg>
