<svg xmlns="http://www.w3.org/2000/svg" viewBox="0 0 24 24" fill="none"><path d="M12.0001 2C14.7923 2 17.2018 3.6353 18.3253 6H20.0001C20.5524 6 21.0001 6.44772 21.0001 7C21.0001 7.55228 20.5524 8 20.0001 8H18.9279C18.9746 8.32666 19.0001 8.66041 19.0001 9C19.0001 9.33959 18.9746 9.67334 18.9279 10H20.0001C20.5524 10 21.0001 10.4477 21.0001 11C21.0001 11.5523 20.5524 12 20.0001 12H18.3253C17.2018 14.3647 14.7923 16 12.0001 16H8.00012V21C8.00012 21.5523 7.55241 22 7.00012 22C6.44784 22 6.00012 21.5523 6.00012 21V12H4.00012C3.44784 12 3.00012 11.5523 3.00012 11C3.00012 10.4477 3.44784 10 4.00012 10H6.00012V8H4.00012C3.44784 8 3.00012 7.55228 3.00012 7C3.00012 6.44772 3.44784 6 4.00012 6H6.00012V4C6.00012 2.89543 6.89555 2 8.00012 2H12.0001ZM8.00012 14H12.0001C13.6359 14 15.0879 13.2143 16.0001 12H8.00012V14ZM8.00012 10H16.8995C16.9651 9.67686 17.0001 9.3425 17.0001 9C17.0001 8.6575 16.9651 8.32314 16.8995 8H8.00012V10ZM8.00012 6H16.0001C15.0879 4.78565 13.6359 4 12.0001 4H8.00012V6Z" fill="currentColor"/></svg>
