<svg xmlns="http://www.w3.org/2000/svg" viewBox="0 0 24 24" fill="none"><path d="M12.125 18.2052C12.7412 18.2671 13.2225 18.7835 13.2225 19.4118C13.2225 20.0817 12.6754 20.6248 12.001 20.625C11.3685 20.625 10.8477 20.1477 10.7851 19.5359L10.7794 19.4118L10.7851 19.2876C10.8477 18.6759 11.3685 18.1985 12.001 18.1985L12.125 18.2052ZM8.48219 14.9948C8.91394 14.6735 9.52603 14.7605 9.8498 15.1891C10.1736 15.618 10.0859 16.2267 9.65416 16.5483C9.51762 16.6501 9.38711 16.761 9.26382 16.881C8.87846 17.2562 8.25973 17.2503 7.88189 16.8678C7.50416 16.485 7.51005 15.8705 7.89525 15.4953C8.0804 15.315 8.27695 15.1477 8.48219 14.9948ZM14.1502 15.1891C14.474 14.7605 15.0861 14.6735 15.5178 14.9948C15.7231 15.1477 15.9196 15.315 16.1048 15.4953C16.4899 15.8705 16.4958 16.485 16.1181 16.8678C15.7403 17.2503 15.1215 17.2562 14.7362 16.881C14.6129 16.761 14.4824 16.6501 14.3458 16.5483C13.9141 16.2267 13.8264 15.618 14.1502 15.1891ZM11.0227 15.7721V5.09559C11.0227 4.55955 11.4603 4.125 12 4.125C12.5397 4.125 12.9773 4.55955 12.9773 5.09559V15.7721C12.9773 16.3081 12.5397 16.7426 12 16.7426C11.4603 16.7426 11.0227 16.3081 11.0227 15.7721ZM8.77518 9.46987C9.29 9.30916 9.83868 9.59363 10.0006 10.1049C10.1622 10.6161 9.87588 11.1612 9.36116 11.3219C8.05034 11.7315 6.84235 12.4442 5.84335 13.4167C5.45793 13.7918 4.83921 13.7851 4.46142 13.4025C4.08364 13.0197 4.08944 12.4052 4.47478 12.03C5.69591 10.8412 7.17308 9.9703 8.77518 9.46987ZM13.9994 10.1049C14.1613 9.59363 14.71 9.30916 15.2248 9.46987C16.8269 9.9703 18.3041 10.8412 19.5252 12.03C19.9106 12.4052 19.9164 13.0197 19.5386 13.4025C19.1608 13.7851 18.5421 13.7918 18.1566 13.4167C17.1576 12.4442 15.9497 11.7315 14.6388 11.3219C14.1241 11.1612 13.8378 10.6161 13.9994 10.1049ZM8.87252 4.43874C9.40119 4.33155 9.91723 4.67019 10.0254 5.19511C10.1334 5.72029 9.79259 6.23379 9.26382 6.34105C6.9048 6.81932 4.69778 7.91117 2.87907 9.52674C2.47682 9.88404 1.85888 9.84939 1.49905 9.44997C1.13927 9.05047 1.17324 8.43677 1.5754 8.07939C3.65392 6.23303 6.17666 4.98533 8.87252 4.43874ZM13.9746 5.19511C14.0828 4.67019 14.5988 4.33155 15.1275 4.43874C17.8233 4.98533 20.3461 6.23303 22.4246 8.07939C22.8268 8.43677 22.8607 9.05047 22.5009 9.44997C22.1411 9.84939 21.5232 9.88404 21.1209 9.52674C19.3022 7.91117 17.0952 6.81932 14.7362 6.34105C14.2074 6.23379 13.8666 5.72029 13.9746 5.19511Z" fill="currentColor"/></svg>
