<svg xmlns="http://www.w3.org/2000/svg" fill="none" viewBox="0 0 48 48">
  <g>
    <path stroke="currentColor" stroke-linecap="round" stroke-linejoin="round" d="m11.5 45.0002 24.0207 0c3.4951 0 6.2655 -2.9713 6.0854 -6.4618C41.3263 33.1155 41 24.7103 41 15.0002c0 -2.7986 0.2053 -5.4764 0.4299 -7.56833 0.2454 -2.28666 -1.3521 -4.4284 -3.6444 -4.61305 -7.7034 -0.62047 -17.1918 -0.70275 -24.3975 -0.14853 -1.9569 0.15051 -3.44322 1.77074 -3.47457 3.73318C9.87615 8.73762 9.86712 11.9523 10 15.0002c0.2199 5.0442 0.8319 12.6798 1.2027 17.0688" stroke-width="3.429"></path>
    <path stroke="currentColor" stroke-linecap="round" stroke-linejoin="round" d="M29 38.9024C29 42.8049 31.9999 45 35 45l-13 0 -13 0c-3.00011 0 -6 -2.1951 -6 -6.0976l0 -3.6487c0 -1.3466 0.90342 -2.5019 2.23694 -2.6893C7.13359 32.2978 10.3036 32 15 32c5.0938 0 9.1102 0.3504 11.5112 0.6312C27.9561 32.8002 29 34.0356 29 35.4903l0 3.4121Z" stroke-width="3.429"></path>
    <path stroke="currentColor" stroke-linecap="round" d="m17.7705 10.5938 15.2295 0" stroke-width="3.429"></path>
    <path stroke="currentColor" stroke-linecap="round" d="m17.7705 17.6436 15.2295 0" stroke-width="3.429"></path>
    <path stroke="currentColor" stroke-linecap="round" d="m17.7705 24.6934 8.5523 0" stroke-width="3.429"></path>
  </g>
</svg>
