<svg xmlns="http://www.w3.org/2000/svg" fill="none" viewBox="0 0 48 48">
  <g>
    <path fill="currentColor" fill-rule="evenodd" d="M37.946 0.826253C30.152 0.198471 20.5578 0.113905 13.2346 0.677152 10.2206 0.908973 7.96108 3.40507 7.91369 6.3725c-0.03757 2.3522 -0.04714 5.6112 0.08821 8.7158 0.19032 4.3651 0.66995 10.6297 1.03639 15.0916 -1.71179 0.1116 -3.06058 0.2607 -4.07968 0.4039C2.53231 30.9248 1 33.0204 1 35.2537v3.6487C1 44.0604 5.05257 47 9 47h2.4315c0.0227 0.0008 0.0456 0.0012 0.0685 0.0012l24.0207 0c4.6625 0 8.3206 -3.9533 8.0827 -8.5648C43.3249 33.0381 43 24.6685 43 15.0012c0 -2.7065 0.1989 -5.30968 0.4184 -7.35489 0.3524 -3.28293 -1.939 -6.53546 -5.4724 -6.820057M35 43c0.023 0 0.0459 0.0004 0.0686 0.0012h0.4521c2.3277 0 4.2103 -1.9894 4.088 -4.3587C39.3277 33.1948 39 24.7542 39 15.0012c0 -2.8907 0.2117 -5.64317 0.4413 -7.78181 0.1385 -1.29041 -0.765 -2.32136 -1.8164 -2.40605 -7.6126 -0.61317 -16.9952 -0.69315 -24.0835 -0.14797 -0.8998 0.06921 -1.6129 0.81357 -1.6282 1.77101 -0.037 2.31611 -0.0455 5.48632 0.0849 8.47762 0.1893 4.3414 0.6732 10.6438 1.0404 15.1037C13.6617 30.0062 14.3153 30 15 30c5.184 0 9.279 0.3565 11.7435 0.6447C29.2501 30.9379 31 33.076 31 35.4903v3.4121C31 41.5494 32.9472 43 35 43M17.7705 8.59375c-1.1046 0 -2 0.89543 -2 1.99995 0 1.1046 0.8954 2 2 2l15.2295 0c1.1046 0 2 -0.8954 2 -1.9999 0 -1.10462 -0.8954 -2.00005 -2 -2.00005zm-2 9.05075c0 -1.1045 0.8954 -2 2 -2l15.2295 0c1.1046 0 2 0.8955 2 2 0 1.1046 -0.8954 2 -2 2l-15.2295 0c-1.1046 0 -2 -0.8954 -2 -2m2 5.0489c-1.1046 0 -2 0.8954 -2 2 0 1.1045 0.8954 2 2 2h8.5523c1.1045 0 2 -0.8955 2 -2 0 -1.1046 -0.8955 -2 -2 -2z" clip-rule="evenodd" stroke-width="1"></path>
  </g>
</svg>
