<svg xmlns="http://www.w3.org/2000/svg" fill="none" viewBox="0 0 48 48">
  <g>
    <path fill="currentColor" fill-rule="evenodd" d="M37.9059 1.32366C30.1346 0.697707 20.5668 0.613714 13.273 1.1747c-2.7498 0.2115 -4.81599 2.48863 -4.85937 5.20481 -0.0375 2.34769 -0.04694 5.59559 0.0878 8.68599 0.1568 3.5964 0.51071 8.4892 0.83554 12.5965C10.915 27.5648 12.7944 27.5 15 27.5c4.1088 0 7.529 0.2249 9.988 0.4611 3.2382 0.3109 5.512 3.0652 5.512 6.2056v1.7357c0 2.9608 2.2104 4.5976 4.5 4.5976 0.8284 0 1.5 0.6716 1.5 1.5s-0.6716 1.5 -1.5 1.5c-3.7106 0 -7.5 -2.7535 -7.5 -7.5976v-1.7357c0 -1.7085 -1.2101 -3.0668 -2.7988 -3.2194C22.3242 30.7191 19.0005 30.5 15 30.5c-4.1928 0 -7.12995 0.2406 -9.00015 0.4761 -0.65427 0.0823 -1.17789 0.164 -1.57895 0.2346C2.61991 31.746 1.5 33.4383 1.5 35.2537v3.6487C1.5 43.7465 5.2894 46.5 9 46.5h2.4766l0.0234 0.0002h24.0208c4.3705 0 7.8067 -3.7078 7.5833 -8.039 -0.2789 -5.4045 -0.6041 -13.783 -0.6041 -23.461 0 -2.7295 0.2005 -5.35134 0.4213 -7.40823 0.3257 -3.03386 -1.7923 -6.0087 -5.0154 -6.26831Zm-20.1354 6.149c-0.8284 0 -1.5 0.67157 -1.5 1.5 0 0.82842 0.6716 1.50004 1.5 1.50004l15.2295 0c0.8284 0 1.5 -0.67162 1.5 -1.50004 0 -0.82843 -0.6716 -1.5 -1.5 -1.5l-15.2295 0Zm-1.5 8.35544c0 -0.8284 0.6716 -1.5 1.5 -1.5l15.2295 0c0.8284 0 1.5 0.6716 1.5 1.5 0 0.8285 -0.6716 1.5 -1.5 1.5l-15.2295 0c-0.8284 0 -1.5 -0.6715 -1.5 -1.5Zm1.5 5.3545c-0.8284 0 -1.5 0.6716 -1.5 1.5s0.6716 1.5 1.5 1.5h8.5523c0.8284 0 1.5 -0.6716 1.5 -1.5s-0.6716 -1.5 -1.5 -1.5h-8.5523Z" clip-rule="evenodd" stroke-width="3.429"></path>
  </g>
</svg>
