<svg xmlns="http://www.w3.org/2000/svg" fill="none" viewBox="0 0 48 48">
  <path fill="currentColor" fill-opacity="0.4" fill-rule="evenodd" d="M1.6934 20.7695c-1.316976 1.6427 -0.41536 3.7199 1.68233 3.9002 0.65985 0.0568 1.4144 0.1141 2.27439 0.1699 0.07463 7.2176 0.26505 13.6178 0.39377 17.3204 0.06841 1.9678 1.49355 3.593 3.45207 3.7958 2.82454 0.2924 7.49904 0.6223 14.21404 0.6223 1.3803 0 2.6744 -0.0139 3.8841 -0.0386 -0.4228 -0.8527 -0.6882 -1.7972 -0.7581 -2.7957 -1.1454 -0.2158 -2.2401 -0.7668 -3.1265 -1.6532 -1.0439 -1.0439 -1.6227 -2.3767 -1.7365 -3.741 -0.917 -0.2764 -1.781 -0.777 -2.5057 -1.5016 -2.3431 -2.3432 -2.3431 -6.1422 0 -8.4853 6.686 -6.686 16.7588 -7.9212 24.6961 -3.7054 2.0117 -0.248 2.8538 -2.2774 1.562 -3.8886 -1.6909 -2.1087 -4.418 -5.2567 -8.6644 -9.5846 -5.2687 -5.36984 -8.9783 -8.01492 -11.1282 -9.27943 -1.3958 -0.82089 -3.0497 -0.82079 -4.4454 0.00021 -2.1497 1.26459 -5.859 3.90968 -11.1283 9.27912 -4.24781 4.3286 -6.97507 7.4768 -8.6657 9.5855Zm40.0385 7.1398c-5.3343 -2.5852 -11.7398 -2.2174 -16.7693 1.1034 -0.9427 0.6224 -1.837 1.3485 -2.6669 2.1784 -0.781 0.781 -0.781 2.0474 0 2.8284 0.2043 0.2043 0.4417 0.3551 0.695 0.4525 0.4968 0.1912 1.0546 0.1767 1.5422 -0.0433 0.2144 -0.0967 0.4152 -0.2331 0.5913 -0.4092 4.4953 -4.4953 11.4636 -5.0102 16.5255 -1.5447 0.0306 -1.4501 0.0587 -2.9794 0.0822 -4.5655Zm-0.1635 8.0314c-4.1446 -3.6413 -10.373 -3.6384 -14.5144 0.0086 -0.1751 0.1542 -0.3465 0.3149 -0.5138 0.4821l-0.0023 0.0023c-0.4707 0.4708 -0.6577 1.1178 -0.561 1.7286 0.0637 0.4026 0.2507 0.7896 0.561 1.0999 0.3072 0.3072 0.6895 0.4936 1.0879 0.5591 0.6143 0.1011 1.2667 -0.0853 1.7406 -0.5591 1.3671 -1.3672 3.1591 -2.0506 4.951 -2.0503 1.7904 0.0003 3.5807 0.6833 4.947 2.0488l0.0015 0.0015c0.4744 0.4744 1.1279 0.6606 1.7429 0.5587 0.1549 -0.0257 0.3074 -0.0696 0.454 -0.1319 0.0345 -1.1241 0.0705 -2.3821 0.1056 -3.7483ZM36.28 46.1103c0.9278 -0.6295 1.5374 -1.6927 1.5374 -2.8984 0 -0.03 -0.0004 -0.0599 -0.0011 -0.0897 -0.0171 -0.677 -0.2263 -1.3062 -0.5753 -1.8352 -0.626 -0.9489 -1.7017 -1.5751 -2.9236 -1.5751 -1.2226 0 -2.2987 0.6268 -2.9246 1.5767 -0.3482 0.5282 -0.557 1.1564 -0.5743 1.8322 -0.0007 0.0303 -0.0011 0.0606 -0.0011 0.0911 0 1.3766 0.7947 2.5676 1.9504 3.1391 1.3327 -0.072 2.5019 -0.1552 3.5122 -0.2407Z" clip-rule="evenodd" stroke-width="3.429"></path>
  <path fill="currentColor" fill-rule="evenodd" d="M25.1242 34.0185c5.0768 -5.0768 13.3079 -5.0768 18.3848 0 0.781 0.7811 2.0473 0.7811 2.8284 0 0.781 -0.781 0.781 -2.0473 0 -2.8284 -6.6389 -6.6389 -17.4027 -6.6389 -24.0417 0 -0.781 0.7811 -0.781 2.0474 0 2.8284 0.7811 0.7811 2.0474 0.7811 2.8285 0Zm14.1417 5.2427c-2.7337 -2.7337 -7.1659 -2.7337 -9.8995 0 -0.7811 0.781 -2.0474 0.781 -2.8285 0 -0.781 -0.7811 -0.781 -2.0474 0 -2.8284 4.2958 -4.2958 11.2606 -4.2958 15.5564 0 0.781 0.781 0.781 2.0473 0 2.8284 -0.7811 0.781 -2.0474 0.781 -2.8284 0Zm-4.9485 0.4497c-1.933 0 -3.5 1.567 -3.5 3.5s1.567 3.5 3.5 3.5 3.5 -1.567 3.5 -3.5 -1.567 -3.5 -3.5 -3.5Z" clip-rule="evenodd" stroke-width="3.429"></path>
</svg>
