<svg xmlns="http://www.w3.org/2000/svg" fill="none" viewBox="0 0 48 48">
  <path stroke="currentColor" stroke-linecap="round" stroke-linejoin="round" d="M23.6335 45.2783c-6.3098 0 -10.7022 -0.31 -13.3564 -0.5847 -1.84036 -0.1906 -3.17953 -1.7178 -3.24381 -3.5668 -0.12095 -3.4793 -0.29988 -9.4933 -0.37001 -16.2755 -0.8081 -0.0524 -1.51713 -0.1063 -2.13717 -0.1596 -1.97112 -0.1694 -2.81835 -2.1213 -1.58083 -3.6649 1.58863 -1.9815 4.15135 -4.9398 8.14282 -9.0071 4.9514 -5.04556 8.4369 -7.53106 10.457 -8.71936 1.3114 -0.77147 2.8656 -0.77156 4.1771 -0.0002 2.0203 1.18822 5.506 3.67372 10.4568 8.71956 3.9903 4.0668 6.5528 7.0249 8.1417 9.0064 0.4506 0.562 0.6249 1.1782 0.5692 1.7428" stroke-width="3.429"></path>
  <path stroke="currentColor" stroke-linecap="round" stroke-linejoin="round" d="M22.6338 32.2783c6.3513 -6.6666 16.6487 -6.6666 23 0" stroke-width="3.429"></path>
  <path stroke="currentColor" stroke-linecap="round" stroke-linejoin="round" d="M26.6338 36.7783c4.1421 -4.6666 10.8579 -4.6666 15 0" stroke-width="3.429"></path>
  <path stroke="currentColor" stroke-linecap="round" stroke-linejoin="round" d="M37.1338 42.2783c0 1.6569 -1.3432 3 -3 3 -1.6569 0 -3 -1.3431 -3 -3 0 -1.6568 1.3431 -3 3 -3 1.6568 0 3 1.3432 3 3Z" stroke-width="3.429"></path>
</svg>
