<svg xmlns="http://www.w3.org/2000/svg" fill="none" viewBox="0 0 48 48">
  <path fill="currentColor" fill-rule="evenodd" d="M22.5599 5.02419c0.6856 -0.40331 1.4636 -0.40334 2.1491 -0.00012 1.8387 1.08143 5.1884 3.44832 10.0432 8.39633 3.9513 4.0271 6.4682 6.9353 8.0089 8.8568 0.0801 0.0999 0.1134 0.1763 0.1274 0.2206 0.0139 0.0442 0.0125 0.0683 0.0119 0.0748 -0.1085 1.0992 0.6947 2.0783 1.794 2.1867 1.0992 0.1084 2.0782 -0.6948 2.1866 -1.794 0.1116 -1.1313 -0.2521 -2.2585 -0.9992 -3.1903 -1.637 -2.0416 -4.2452 -5.0495 -8.2744 -9.156 -5.0468 -5.14367 -8.6687 -7.74777 -10.8705 -9.04279l-0.9984 1.69758 0.9984 -1.69758c-1.9374 -1.1395 -4.2679 -1.13934 -6.2051 0.00028 -2.2015 1.29505 -5.8231 3.89909 -10.87037 9.04231 -4.03052 4.1072 -6.63898 7.1154 -8.2758 9.157C0.34963 21.068 0.0718257 22.721 0.697412 24.1682c0.624348 1.4443 2.014798 2.3749 3.658158 2.5162 0.1076 0.0092 0.21772 0.0185 0.33042 0.0278 0.08076 6.0419 0.23903 11.3127 0.34928 14.484 0.09666 2.7806 2.1387 5.1867 5.03663 5.4867l0.1936 -1.8699 -0.1936 1.8699c2.7258 0.2822 7.187 0.5954 13.5624 0.5954 1.1046 0 2 -0.8954 2 -2 0 -1.1045 -0.8954 -2 -2 -2 -6.2443 0 -10.5679 -0.3067 -13.1505 -0.5741 -0.78276 -0.0811 -1.41905 -0.7293 -1.45094 -1.6469 -0.1206 -3.469 -0.29901 -9.4659 -0.36892 -16.2266 -0.01082 -1.0463 -0.8263 -1.9075 -1.87047 -1.9752 -0.79517 -0.0515 -1.4902 -0.1044 -2.09528 -0.1564 -0.17508 -0.0151 -0.26216 -0.0629 -0.29399 -0.0847 -0.01763 -0.012 -0.02643 -0.0215 -0.03016 -0.026 -0.00376 -0.0045 -0.0048 -0.007 -0.005 -0.0074l-0.00001 0c-0.0002 -0.0005 -0.00097 -0.0023 -0.00152 -0.0067 -0.00054 -0.0044 -0.00137 -0.0155 0.00164 -0.0345 0.00532 -0.0336 0.0286 -0.1263 0.13732 -0.2619 1.54044 -1.9214 4.05742 -4.8298 8.00993 -8.8574 4.8555 -4.9478 8.2049 -7.31476 10.0435 -8.39631ZM34.1341 45.8252c1.9589 0 3.5468 -1.588 3.5468 -3.5469 0 -1.9589 -1.5879 -3.5469 -3.5468 -3.5469s-3.5469 1.588 -3.5469 3.5469c0 1.9589 1.588 3.5469 3.5469 3.5469ZM44.186 33.6579c-5.5631 -5.8394 -14.5407 -5.8394 -20.1039 0 -0.7619 0.7997 -2.0278 0.8304 -2.8276 0.0685 -0.7997 -0.7619 -0.8304 -2.0279 -0.0685 -2.8276 7.1394 -7.494 18.7567 -7.494 25.8961 0 0.7619 0.7997 0.7313 2.0657 -0.0685 2.8276 -0.7997 0.7619 -2.0657 0.7312 -2.8276 -0.0685Zm-15.3823 4.7674c2.9743 -3.3509 7.6865 -3.3509 10.6608 0 0.7332 0.8261 1.9973 0.9014 2.8234 0.1681 0.8261 -0.7332 0.9014 -1.9973 0.1681 -2.8234 -4.5657 -5.1439 -12.0782 -5.1439 -16.6439 0 -0.7332 0.8261 -0.6579 2.0902 0.1681 2.8234 0.8261 0.7333 2.0902 0.658 2.8235 -0.1681Z" clip-rule="evenodd" stroke-width="1"></path>
</svg>
