<svg xmlns="http://www.w3.org/2000/svg" fill="none" viewBox="0 0 48 48">
  <path fill="currentColor" fill-rule="evenodd" d="M3.37573 24.6697c-2.09769 -0.1803 -2.999306 -2.2575 -1.68233 -3.9002 1.69063 -2.1087 4.41789 -5.2569 8.6657 -9.5855 5.2693 -5.36944 8.9786 -8.01453 11.1283 -9.27912 1.3957 -0.821 3.0496 -0.8211 4.4454 -0.00021 2.1499 1.26451 5.8595 3.90959 11.1282 9.27943 4.2464 4.3279 6.9735 7.4759 8.6644 9.5846 1.2918 1.6112 0.4497 3.6406 -1.562 3.8886 -7.9373 -4.2158 -18.0101 -2.9806 -24.6961 3.7054 -2.3431 2.3431 -2.3431 6.1421 0 8.4853 0.7247 0.7246 1.5887 1.2252 2.5057 1.5016 0.1138 1.3643 0.6926 2.6971 1.7365 3.741 0.8864 0.8864 1.9811 1.4374 3.1265 1.6532 0.0699 0.9985 0.3353 1.943 0.7581 2.7957 -1.2097 0.0247 -2.5038 0.0386 -3.8841 0.0386 -6.715 0 -11.3895 -0.3299 -14.21404 -0.6223 -1.95852 -0.2028 -3.38366 -1.828 -3.45207 -3.7958 -0.12872 -3.7026 -0.31914 -10.1028 -0.39377 -17.3204 -0.85999 -0.0558 -1.61454 -0.1131 -2.27439 -0.1699Zm21.58687 4.343c5.0295 -3.3208 11.435 -3.6886 16.7693 -1.1034 1.6642 0.8065 3.2241 1.9005 4.6055 3.2818 0.781 0.781 0.781 2.0474 0 2.8284 -0.7811 0.7811 -2.0474 0.7811 -2.8284 0 -0.5816 -0.5815 -1.2045 -1.0964 -1.8593 -1.5447 -5.0619 -3.4655 -12.0302 -2.9506 -16.5255 1.5447 -0.022 0.022 -0.0444 0.0434 -0.0672 0.0642 -0.1594 0.1454 -0.3365 0.2604 -0.5241 0.345 -0.4876 0.22 -1.0454 0.2345 -1.5422 0.0433 -0.2533 -0.0974 -0.4907 -0.2482 -0.6949 -0.4524 0 0 0 -0.0001 -0.0001 -0.0001 -0.781 -0.781 -0.781 -2.0474 0 -2.8284 0.8299 -0.8299 1.7242 -1.556 2.6669 -2.1784Zm2.0914 6.9366c4.1414 -3.647 10.3698 -3.6499 14.5144 -0.0086 0.1793 0.1575 0.3547 0.3219 0.5259 0.493 0.781 0.7811 0.781 2.0474 0 2.8285 -0.1871 0.1871 -0.4021 0.3293 -0.6315 0.4268 -0.1466 0.0623 -0.2991 0.1062 -0.454 0.1319 -0.615 0.1019 -1.2685 -0.0843 -1.7429 -0.5587l-0.0015 -0.0015c-1.3663 -1.3655 -3.1566 -2.0485 -4.947 -2.0488 -1.7919 -0.0003 -3.5839 0.6831 -4.951 2.0503 -0.4739 0.4738 -1.1263 0.6602 -1.7406 0.5591 -0.3983 -0.0655 -0.7806 -0.2519 -1.0878 -0.5591l-0.0001 0c-0.3103 -0.3103 -0.4973 -0.6973 -0.561 -1.0999 -0.0967 -0.6108 0.0903 -1.2578 0.561 -1.7286 0.0005 -0.0004 0.0009 -0.0008 0.0013 -0.0012 0.0003 -0.0004 0.0007 -0.0007 0.001 -0.0011 0.1673 -0.1672 0.3387 -0.3279 0.5138 -0.4821Zm10.7634 7.2626c0 1.2057 -0.6096 2.2689 -1.5374 2.8984 -0.5598 0.3797 -1.2353 0.6016 -1.9626 0.6016 -0.5564 0 -1.0825 -0.1298 -1.5496 -0.3609 -1.1557 -0.5715 -1.9504 -1.7625 -1.9504 -3.1391 0 -0.0305 0.0004 -0.0608 0.0011 -0.0911 0.0173 -0.6758 0.2261 -1.304 0.5743 -1.8322 0.6259 -0.9499 1.702 -1.5767 2.9246 -1.5767 1.2219 0 2.2976 0.6262 2.9236 1.5751 0.349 0.529 0.5582 1.1582 0.5753 1.8352 0.0007 0.0298 0.0011 0.0597 0.0011 0.0897Z" clip-rule="evenodd" stroke-width="3.429"></path>
</svg>
