<svg xmlns="http://www.w3.org/2000/svg" fill="none" viewBox="0 0 48 48">
  <g>
    <path fill="currentColor" fill-opacity="0.4" fill-rule="evenodd" d="M47.5 24c0 12.8406 -10.4094 23.25 -23.25 23.25S1 36.8406 1 24 11.4094 0.75 24.25 0.75 47.5 11.1594 47.5 24Z" clip-rule="evenodd" stroke-width="1"></path>
    <path fill="currentColor" fill-rule="evenodd" d="M19.1558 18.5566c0 -2.2426 -0.0499 -3.624 -0.0957 -4.4191 -0.0446 -0.775 -0.61 -1.4162 -1.4234 -1.4744 -0.393 -0.0281 -0.9265 -0.0498 -1.6379 -0.0498 -0.7114 0 -1.2449 0.0217 -1.6379 0.0498 -0.8134 0.0582 -1.3788 0.6994 -1.4234 1.4744 -0.0458 0.7951 -0.0957 2.1765 -0.0957 4.4191 0 2.2427 0.0499 3.6241 0.0957 4.4192 0.0446 0.775 0.61 1.4162 1.4234 1.4744 0.393 0.0281 0.9265 0.0498 1.6379 0.0498 0.7114 0 1.2449 -0.0217 1.6379 -0.0498 0.8134 -0.0582 1.3788 -0.6994 1.4234 -1.4744 0.0458 -0.7951 0.0957 -2.1765 0.0957 -4.4192Zm16 0c0 -2.2426 -0.0499 -3.624 -0.0957 -4.4191 -0.0446 -0.775 -0.61 -1.4162 -1.4234 -1.4744 -0.393 -0.0281 -0.9265 -0.0498 -1.6379 -0.0498 -0.7114 0 -1.2449 0.0217 -1.6379 0.0498 -0.8134 0.0582 -1.3788 0.6994 -1.4234 1.4744 -0.0458 0.7951 -0.0957 2.1765 -0.0957 4.4191 0 2.2427 0.0499 3.6241 0.0957 4.4192 0.0446 0.775 0.61 1.4162 1.4234 1.4744 0.393 0.0281 0.9265 0.0498 1.6379 0.0498 0.7114 0 1.2449 -0.0217 1.6379 -0.0498 0.8134 -0.0582 1.3788 -0.6994 1.4234 -1.4744 0.0458 -0.7951 0.0957 -2.1765 0.0957 -4.4192ZM24.0006 39.5c1.3354 0 2.3282 -0.0573 3.0174 -0.1206 0.9509 -0.0873 1.7227 -0.7887 1.8293 -1.7667 0.209 -1.9175 0.1766 -5.0083 -0.11 -6.5629 -0.0642 -0.3483 -0.19 -0.6818 -0.3806 -0.9868 -0.4952 -0.7927 -1.8753 -2.563 -4.3561 -2.563 -2.4809 0 -3.861 1.7703 -4.3562 2.563 -0.1905 0.305 -0.3164 0.6385 -0.3806 0.9868 -0.2865 1.5546 -0.319 4.6454 -0.1099 6.5629 0.1066 0.978 0.8783 1.6794 1.8292 1.7667 0.6892 0.0633 1.682 0.1206 3.0175 0.1206Z" clip-rule="evenodd" stroke-width="1"></path>
  </g>
</svg>
