<svg xmlns="http://www.w3.org/2000/svg" fill="none" viewBox="0 0 48 48">
  <g>
    <path stroke="currentColor" stroke-linejoin="round" d="M24.25 2.25C12.2378 2.25 2.5 11.9878 2.5 24s9.7378 21.75 21.75 21.75S46 36.0122 46 24 36.2622 2.25001 24.25 2.25Z" stroke-width="3.429"></path>
    <path stroke="currentColor" stroke-linejoin="round" d="M17.6014 13.1618c0.5435 0.0389 0.9287 0.4605 0.96 1.0044 0.045 0.7833 0.0948 2.1548 0.0948 4.3904 0 2.2357 -0.0498 3.6072 -0.0948 4.3905 -0.0313 0.5439 -0.4165 0.9655 -0.96 1.0044 -0.3793 0.0271 -0.9008 0.0485 -1.6022 0.0485s-1.2228 -0.0214 -1.6021 -0.0485c-0.5435 -0.0389 -0.9287 -0.4605 -0.96 -1.0044 -0.0451 -0.7833 -0.0949 -2.1548 -0.0949 -4.3905 0 -2.2356 0.0498 -3.6071 0.0949 -4.3904 0.0313 -0.5439 0.4165 -0.9655 0.96 -1.0044 0.3793 -0.0271 0.9007 -0.0485 1.6021 -0.0485 0.7014 0 1.2229 0.0214 1.6022 0.0485Z" stroke-width="3.429"></path>
    <path stroke="currentColor" stroke-linejoin="round" d="M33.6014 13.1618c0.5435 0.0389 0.9287 0.4605 0.96 1.0044 0.045 0.7833 0.0948 2.1548 0.0948 4.3904 0 2.2357 -0.0498 3.6072 -0.0948 4.3905 -0.0313 0.5439 -0.4165 0.9655 -0.96 1.0044 -0.3793 0.0271 -0.9008 0.0485 -1.6022 0.0485s-1.2228 -0.0214 -1.6021 -0.0485c-0.5435 -0.0389 -0.9287 -0.4605 -0.96 -1.0044 -0.0451 -0.7833 -0.0949 -2.1548 -0.0949 -4.3905 0 -2.2356 0.0498 -3.6071 0.0949 -4.3904 0.0313 -0.5439 0.4165 -0.9655 0.96 -1.0044 0.3793 -0.0271 0.9007 -0.0485 1.6021 -0.0485 0.7014 0 1.2229 0.0214 1.6022 0.0485Z" stroke-width="3.429"></path>
    <path stroke="currentColor" stroke-linejoin="round" d="M28.3507 37.5585c-0.0793 0.7274 -0.6494 1.2561 -1.3779 1.323 -0.6731 0.0618 -1.6506 0.1185 -2.9718 0.1185s-2.2987 -0.0567 -2.9718 -0.1185c-0.7286 -0.0669 -1.2986 -0.5956 -1.3779 -1.323 -0.2055 -1.8851 -0.1706 -4.9248 0.1047 -6.4181 0.0533 -0.2892 0.1571 -0.5631 0.3129 -0.8125C20.5362 29.5798 21.7855 28 24.001 28c2.2155 0 3.4647 1.5798 3.9321 2.3279 0.1558 0.2494 0.2596 0.5233 0.3129 0.8125 0.2753 1.4933 0.3102 4.533 0.1047 6.4181Z" stroke-width="3.429"></path>
  </g>
</svg>
