<svg xmlns="http://www.w3.org/2000/svg" fill="none" viewBox="0 0 48 48">
  <g>
    <path fill="currentColor" fill-rule="evenodd" d="M24.25 43.75C35.1576 43.75 44 34.9076 44 24S35.1576 4.25 24.25 4.25 4.5 13.0924 4.5 24s8.8424 19.75 19.75 19.75M48 24c0 13.1168 -10.6332 23.75 -23.75 23.75S0.5 37.1168 0.5 24 11.1332 0.25 24.25 0.25 48 10.8832 48 24m-27.9415 -9.9199c0.0471 0.8187 0.0973 2.2199 0.0973 4.4765 0 2.2567 -0.0502 3.6578 -0.0973 4.4766 -0.0712 1.237 -0.997 2.3176 -2.3505 2.4144 -0.4203 0.0301 -0.9779 0.0524 -1.7092 0.0524s-1.2889 -0.0223 -1.7092 -0.0524c-1.3535 -0.0968 -2.2793 -1.1774 -2.3505 -2.4144 -0.0471 -0.8188 -0.0973 -2.2199 -0.0973 -4.4766 0 -2.2566 0.0502 -3.6578 0.0973 -4.4766 0.0712 -1.2369 0.997 -2.3175 2.3505 -2.4144 0.4203 -0.03 0.9779 -0.0523 1.7092 -0.0523s1.2889 0.0223 1.7092 0.0523c1.3535 0.0969 2.2793 1.1775 2.3505 2.4145m16 0c0.0471 0.8187 0.0973 2.2199 0.0973 4.4765 0 2.2567 -0.0502 3.6578 -0.0973 4.4766 -0.0712 1.237 -0.997 2.3176 -2.3505 2.4144 -0.4203 0.0301 -0.9779 0.0524 -1.7092 0.0524s-1.2889 -0.0223 -1.7092 -0.0524c-1.3535 -0.0968 -2.2793 -1.1774 -2.3505 -2.4144 -0.0471 -0.8188 -0.0973 -2.2199 -0.0973 -4.4766 0 -2.2566 0.0502 -3.6578 0.0973 -4.4766 0.0712 -1.2369 0.997 -2.3175 2.3505 -2.4144 0.4203 -0.03 0.9779 -0.0523 1.7092 -0.0523s1.2889 0.0223 1.7092 0.0523c1.3535 0.0969 2.2793 1.1775 2.3505 2.4145m-8.949 26.2951c-0.7215 0.0663 -1.7449 0.1248 -3.1089 0.1248s-2.3874 -0.0585 -3.1089 -0.1248c-1.3955 -0.1281 -2.5707 -1.1749 -2.7319 -2.6541 -0.2161 -1.9823 -0.1886 -5.1754 0.1206 -6.8526 0.086 -0.4664 0.2559 -0.9191 0.5159 -1.3353 0.551 -0.882 2.1928 -3.0332 5.2043 -3.0332s4.6532 2.1512 5.2042 3.0332c0.2601 0.4162 0.43 0.8689 0.5159 1.3353 0.3092 1.6772 0.3368 4.8703 0.1207 6.8526 -0.1613 1.4792 -1.3364 2.526 -2.7319 2.6541" clip-rule="evenodd" stroke-width="3.429"></path>
  </g>
</svg>
