<svg xmlns="http://www.w3.org/2000/svg" fill="none" viewBox="0 0 48 48">
  <g>
    <path fill="currentColor" fill-rule="evenodd" d="M24.25 47.25C37.0906 47.25 47.5 36.8406 47.5 24S37.0906 0.75 24.25 0.75 1 11.1594 1 24s10.4094 23.25 23.25 23.25Zm-5.1899 -33.1125c0.0458 0.7951 0.0957 2.1765 0.0957 4.4191 0 2.2427 -0.0499 3.6241 -0.0957 4.4192 -0.0446 0.775 -0.61 1.4162 -1.4234 1.4744 -0.393 0.0281 -0.9265 0.0498 -1.6379 0.0498 -0.7114 0 -1.2449 -0.0217 -1.6379 -0.0498 -0.8134 -0.0582 -1.3788 -0.6994 -1.4234 -1.4744 -0.0458 -0.7951 -0.0957 -2.1765 -0.0957 -4.4192 0 -2.2426 0.0499 -3.624 0.0957 -4.4191 0.0446 -0.775 0.61 -1.4162 1.4234 -1.4744 0.393 -0.0281 0.9265 -0.0498 1.6379 -0.0498 0.7114 0 1.2449 0.0217 1.6379 0.0498 0.8134 0.0582 1.3788 0.6994 1.4234 1.4744Zm16 0c0.0458 0.7951 0.0957 2.1765 0.0957 4.4191 0 2.2427 -0.0499 3.6241 -0.0957 4.4192 -0.0446 0.775 -0.61 1.4162 -1.4234 1.4744 -0.393 0.0281 -0.9265 0.0498 -1.6379 0.0498 -0.7114 0 -1.2449 -0.0217 -1.6379 -0.0498 -0.8134 -0.0582 -1.3788 -0.6994 -1.4234 -1.4744 -0.0458 -0.7951 -0.0957 -2.1765 -0.0957 -4.4192 0 -2.2426 0.0499 -3.624 0.0957 -4.4191 0.0446 -0.775 0.61 -1.4162 1.4234 -1.4744 0.393 -0.0281 0.9265 -0.0498 1.6379 -0.0498 0.7114 0 1.2449 0.0217 1.6379 0.0498 0.8134 0.0582 1.3788 0.6994 1.4234 1.4744ZM27.018 39.3794c-0.6892 0.0633 -1.682 0.1206 -3.0174 0.1206 -1.3355 0 -2.3283 -0.0573 -3.0175 -0.1206 -0.9509 -0.0873 -1.7226 -0.7887 -1.8292 -1.7667 -0.2091 -1.9175 -0.1766 -5.0083 0.1099 -6.5629 0.0642 -0.3483 0.1901 -0.6818 0.3806 -0.9868 0.4952 -0.7927 1.8753 -2.563 4.3562 -2.563 2.4808 0 3.8609 1.7703 4.3561 2.563 0.1906 0.305 0.3164 0.6385 0.3806 0.9868 0.2866 1.5546 0.319 4.6454 0.11 6.5629 -0.1066 0.978 -0.8784 1.6794 -1.8293 1.7667Z" clip-rule="evenodd" stroke-width="1"></path>
  </g>
</svg>
