<svg xmlns="http://www.w3.org/2000/svg" viewBox="0 0 24 24" fill="none"><path opacity="0.4" d="M11 15C11.5523 15 12 15.4477 12 16C12 16.5523 11.5523 17 11 17H7C6.44772 17 6 16.5523 6 16C6 15.4477 6.44772 15 7 15H11Z" fill="currentColor"/><path opacity="0.4" d="M15 10C15.5523 10 16 10.4477 16 11C16 11.5523 15.5523 12 15 12H7C6.44772 12 6 11.5523 6 11C6 10.4477 6.44772 10 7 10H15Z" fill="currentColor"/><path opacity="0.4" d="M19 5C19.5523 5 20 5.44772 20 6C20 6.55228 19.5523 7 19 7H7C6.44772 7 6 6.55228 6 6C6 5.44772 6.44772 5 7 5H19Z" fill="currentColor"/><path d="M2 13V3C2 2.44772 2.44772 2 3 2C3.55229 2 4 2.44772 4 3V13C4 14.9139 4.00229 16.2487 4.1377 17.2559C4.26924 18.2342 4.5099 18.7521 4.87891 19.1211C5.24792 19.4901 5.7658 19.7308 6.74414 19.8623C7.75128 19.9977 9.08611 20 11 20H21C21.5523 20 22 20.4477 22 21C22 21.5523 21.5523 22 21 22H11C9.14265 22 7.64892 22.0022 6.47754 21.8447C5.27745 21.6834 4.26738 21.3377 3.46485 20.5352C2.66231 19.7326 2.31664 18.7226 2.15528 17.5225C1.99779 16.3511 2 14.8573 2 13Z" fill="currentColor"/></svg>
