<svg xmlns="http://www.w3.org/2000/svg" viewBox="0 0 24 24" fill="none"><path opacity="0.4" d="M19.8431 4.84822C20.6071 4.95093 21.2694 5.17321 21.7981 5.7019C22.3268 6.2306 22.5491 6.89294 22.6518 7.65689C22.75 8.38774 22.75 9.31347 22.75 10.4463V10.4463V13.5537V13.5537C22.75 14.6865 22.75 15.6123 22.6518 16.3431C22.5491 17.1071 22.3268 17.7694 21.7981 18.2981C21.2694 18.8268 20.6071 19.0491 19.8431 19.1518C19.1123 19.25 18.1865 19.25 17.0537 19.25H6.94631C5.81348 19.25 4.88775 19.25 4.15689 19.1518C3.39294 19.0491 2.7306 18.8268 2.2019 18.2981C1.67321 17.7694 1.45093 17.1071 1.34822 16.3431C1.24996 15.6123 1.24998 14.6865 1.25 13.5537V13.5537V10.4463V10.4463C1.24998 9.31347 1.24996 8.38774 1.34822 7.65689C1.45093 6.89294 1.67321 6.2306 2.2019 5.70191C2.7306 5.17321 3.39294 4.95093 4.15689 4.84822C4.88774 4.74996 5.81346 4.74998 6.94627 4.75H6.94631H17.0537H17.0537C18.1865 4.74998 19.1123 4.74996 19.8431 4.84822Z" fill="currentColor"/><path d="M19 11C19.5523 11 20 11.4477 20 12C20 12.5523 19.5523 13 19 13C18.4477 13 18 12.5523 18 12C18 11.4477 18.4477 11 19 11Z" fill="currentColor"/></svg>
