<svg xmlns="http://www.w3.org/2000/svg" viewBox="0 0 24 24" fill="none"><path d="M17.8643 4.75195C18.6368 4.75654 19.2946 4.77495 19.8428 4.84863C20.6067 4.95134 21.2692 5.17346 21.7979 5.70215C22.3265 6.23084 22.5487 6.89328 22.6514 7.65723C22.7496 8.38804 22.75 9.31361 22.75 10.4463V13.5537L22.748 14.3643C22.7435 15.1368 22.725 15.7946 22.6514 16.3428C22.5487 17.1067 22.3265 17.7692 21.7979 18.2979C21.2692 18.8265 20.6067 19.0487 19.8428 19.1514C19.112 19.2496 18.1864 19.25 17.0537 19.25H6.94629C5.81361 19.25 4.88804 19.2496 4.15723 19.1514C3.39328 19.0487 2.73084 18.8265 2.20215 18.2979C1.67346 17.7692 1.45134 17.1067 1.34863 16.3428C1.25041 15.612 1.24998 14.6864 1.25 13.5537V10.4463L1.25195 9.63574C1.25654 8.86316 1.27495 8.20542 1.34863 7.65723C1.45134 6.89328 1.67346 6.23084 2.20215 5.70215C2.73084 5.17346 3.39328 4.95134 4.15723 4.84863C4.88804 4.75041 5.81362 4.74998 6.94629 4.75H17.0537L17.8643 4.75195ZM19 11C18.4477 11 18 11.4477 18 12C18 12.5523 18.4477 13 19 13C19.5523 13 20 12.5523 20 12C20 11.4477 19.5523 11 19 11Z" fill="currentColor"/></svg>
