<svg xmlns="http://www.w3.org/2000/svg" viewBox="0 0 24 24" fill="none"><path opacity="0.4" d="M21.25 15.9092V9.06831C21.25 8.2224 21.2579 7.60785 21.1168 7.07942C20.7567 5.73043 19.7072 4.67704 18.3632 4.31558C17.8367 4.17399 17.2244 4.18197 16.3816 4.18197C15.8438 4.18197 15.4079 4.6195 15.4079 5.15924C15.4079 5.69897 15.8438 6.13651 16.3816 6.13651C17.3498 6.13651 17.6428 6.14511 17.8592 6.20331C18.5312 6.38404 19.056 6.91073 19.236 7.58523C19.294 7.80246 19.3026 8.09657 19.3026 9.06831V15.9092C19.3026 17.3186 19.3008 18.2775 19.2047 18.9956C19.1122 19.6856 18.9488 20.0054 18.7321 20.2229C18.5154 20.4404 18.1968 20.6045 17.5093 20.6973C16.7939 20.7937 15.8385 20.7955 14.4342 20.7955H9.56585C8.1616 20.7955 7.20622 20.7937 6.49079 20.6973C5.80332 20.6045 5.4847 20.4404 5.26799 20.2229C5.05128 20.0054 4.88784 19.6856 4.79541 18.9956C4.69927 18.2775 4.69747 17.3186 4.69747 15.9092V12.9774C4.69747 12.4377 4.26154 12.0001 3.7238 12.0001C3.18605 12.0001 2.75012 12.4377 2.75012 12.9774V15.9092C2.75012 17.2635 2.74846 18.3776 2.86613 19.2562C2.98759 20.1629 3.25231 20.9637 3.89115 21.6049C4.52999 22.246 5.3278 22.5117 6.2312 22.6337C7.10657 22.7518 8.21649 22.7501 9.56585 22.7501H14.4342C15.7836 22.7501 16.8935 22.7518 17.7689 22.6337C18.6723 22.5117 19.4701 22.246 20.1089 21.6049C20.7478 20.9637 21.0125 20.1629 21.134 19.2562C21.2516 18.3776 21.25 17.2635 21.25 15.9092Z" fill="currentColor"/><path d="M4.69743 9.06823C4.69743 8.09648 4.706 7.80237 4.76399 7.58514C4.94406 6.91065 5.46881 6.38395 6.14083 6.20322C6.35726 6.14502 6.65029 6.13642 7.61846 6.13642H10.433C10.418 6.14959 10.4034 6.16333 10.3883 6.1765C10.0402 6.47987 9.68887 6.76337 9.42318 6.97149C9.29102 7.075 9.18098 7.15889 9.10465 7.21676L8.99435 7.29979C8.99213 7.30143 8.98959 7.3036 8.98959 7.3036C8.55672 7.62358 8.46279 8.23569 8.78136 8.67026C9.10015 9.10472 9.71001 9.19805 10.143 8.87831L10.1439 8.87735L10.1468 8.87544C10.1485 8.87416 10.1505 8.87191 10.1534 8.86972C10.1597 8.86506 10.1686 8.85825 10.1801 8.84968C10.203 8.8325 10.2363 8.80781 10.278 8.77619C10.3614 8.713 10.4798 8.62266 10.6213 8.51183C10.9032 8.291 11.2823 7.9858 11.6643 7.6529C12.0415 7.32423 12.4441 6.94921 12.7597 6.59069C12.9166 6.41249 13.0731 6.21476 13.1952 6.01139C13.288 5.85695 13.4219 5.60273 13.4539 5.29467L13.4605 5.15915L13.4539 5.02363C13.4219 4.71557 13.288 4.46134 13.1952 4.3069C13.0731 4.10353 12.9166 3.9058 12.7597 3.7276C12.4441 3.36909 12.0415 2.99406 11.6643 2.66539C11.2823 2.3325 10.9032 2.02729 10.6213 1.80646C10.4798 1.69563 10.3614 1.6053 10.278 1.5421C10.2363 1.51049 10.203 1.48579 10.1801 1.46862C10.1686 1.46005 10.1597 1.45323 10.1534 1.44858C10.1505 1.44638 10.1485 1.44413 10.1468 1.44285L10.1439 1.44094L10.143 1.43999C9.71004 1.12028 9.10112 1.21364 8.78231 1.64804C8.46342 2.08263 8.55565 2.69462 8.98864 3.01469C8.98864 3.01469 8.99214 3.01687 8.99435 3.01851L9.10465 3.10154C9.18098 3.15941 9.29102 3.24329 9.42318 3.34681C9.68887 3.55492 10.0402 3.83843 10.3883 4.14179C10.4034 4.15496 10.418 4.16871 10.433 4.18188H7.61846C6.77566 4.18188 6.16336 4.1739 5.63688 4.31549C4.29285 4.67695 3.24333 5.73034 2.8832 7.07933C2.74213 7.60776 2.75008 8.22231 2.75008 9.06823C2.75008 9.60796 3.18601 10.0455 3.72376 10.0455C4.2615 10.0455 4.69743 9.60796 4.69743 9.06823Z" fill="currentColor"/></svg>
