<svg xmlns="http://www.w3.org/2000/svg" viewBox="0 0 24 24" fill="none"><path opacity="0.4" d="M22.75 16.4218V16.375V16.3282C22.75 15.4274 22.75 14.676 22.6699 14.0801C22.5855 13.4525 22.3997 12.886 21.9443 12.4307C21.489 11.9753 20.9225 11.7895 20.2949 11.7051C19.699 11.625 18.9475 11.625 18.0467 11.625H18H6H5.95332C5.05246 11.625 4.30103 11.625 3.70508 11.7051C3.07747 11.7895 2.51103 11.9753 2.05567 12.4307C1.60031 12.886 1.41451 13.4525 1.33008 14.0801C1.24996 14.676 1.24998 15.4275 1.25 16.3283V16.375V16.4217C1.24998 17.3225 1.24996 18.074 1.33008 18.6699C1.41451 19.2975 1.60031 19.864 2.05567 20.3193C2.51103 20.7747 3.07747 20.9605 3.70508 21.0449C4.30102 21.125 5.05244 21.125 5.95327 21.125H6H18H18.0467C18.9476 21.125 19.699 21.125 20.2949 21.0449C20.9225 20.9605 21.489 20.7747 21.9443 20.3193C22.3997 19.864 22.5855 19.2975 22.6699 18.6699C22.75 18.074 22.75 17.3226 22.75 16.4218Z" fill="currentColor"/><path d="M10 15.375C10.5523 15.375 11 15.8227 11 16.375C11 16.9273 10.5523 17.375 10 17.375H6C5.44772 17.375 5 16.9273 5 16.375C5 15.8227 5.44772 15.375 6 15.375H10Z" fill="currentColor"/><path d="M18 15.375C18.5523 15.375 19 15.8227 19 16.375C19 16.9273 18.5523 17.375 18 17.375C17.4477 17.375 17 16.9273 17 16.375C17 15.8227 17.4477 15.375 18 15.375Z" fill="currentColor"/><path d="M14 15.375C14.5523 15.375 15 15.8227 15 16.375C15 16.9273 14.5523 17.375 14 17.375C13.4477 17.375 13 16.9273 13 16.375C13 15.8227 13.4477 15.375 14 15.375Z" fill="currentColor"/><path d="M12.0002 9.625C12.5523 9.62524 13.0002 10.0729 13.0002 10.625V11.625H11.0002V10.625C11.0002 10.0727 11.4479 9.625 12.0002 9.625Z" fill="currentColor"/><path d="M12.0041 5.61719C13.1399 5.61959 14.2419 6.00904 15.1272 6.7207C15.5569 7.06677 15.625 7.69578 15.2795 8.12598C14.9335 8.55632 14.3037 8.62509 13.8733 8.2793C13.3422 7.85243 12.6815 7.61871 12.0002 7.61719C11.3187 7.61582 10.6561 7.84667 10.1233 8.27148C9.69151 8.61556 9.06228 8.54484 8.71798 8.11328C8.37374 7.68147 8.44537 7.0523 8.87716 6.70801C9.76532 5.99998 10.8683 5.61492 12.0041 5.61719Z" fill="currentColor"/><path d="M12.0002 1.625C14.0449 1.6251 16.0291 2.32167 17.6252 3.59961C18.0559 3.9448 18.1254 4.57389 17.7805 5.00488C17.4354 5.43583 16.8063 5.50506 16.3752 5.16016C15.1338 4.16634 13.5904 3.6251 12.0002 3.625C10.41 3.625 8.86666 4.16639 7.62521 5.16016C7.19418 5.50525 6.56516 5.43573 6.21993 5.00488C5.87478 4.57379 5.94418 3.94481 6.37521 3.59961C7.97142 2.32172 9.95547 1.625 12.0002 1.625Z" fill="currentColor"/></svg>
