<svg xmlns="http://www.w3.org/2000/svg" viewBox="0 0 24 24" fill="none"><path d="M12 9.625C12.5522 9.62512 13 10.0728 13 10.625V11.625H18.0469C18.9476 11.625 19.699 11.625 20.2949 11.7051C20.9225 11.7895 21.489 11.9753 21.9443 12.4307C22.3997 12.886 22.5855 13.4525 22.6699 14.0801C22.75 14.676 22.75 15.4274 22.75 16.3281V16.4219C22.75 17.3226 22.75 18.074 22.6699 18.6699C22.5855 19.2975 22.3997 19.864 21.9443 20.3193C21.489 20.7747 20.9225 20.9605 20.2949 21.0449C19.699 21.125 18.9476 21.125 18.0469 21.125H5.95312C5.05236 21.125 4.30099 21.125 3.70508 21.0449C3.07747 20.9605 2.51102 20.7747 2.05566 20.3193C1.60031 19.864 1.41451 19.2975 1.33008 18.6699C1.24996 18.074 1.24998 17.3226 1.25 16.4219V16.3281C1.24998 15.4274 1.24996 14.676 1.33008 14.0801C1.41451 13.4525 1.60031 12.886 2.05566 12.4307C2.51102 11.9753 3.07747 11.7895 3.70508 11.7051C4.30099 11.625 5.05236 11.625 5.95312 11.625H11V10.625C11 10.0727 11.4477 9.625 12 9.625ZM6 15.375C5.44772 15.375 5 15.8227 5 16.375C5 16.9273 5.44772 17.375 6 17.375H10C10.5523 17.375 11 16.9273 11 16.375C11 15.8227 10.5523 15.375 10 15.375H6ZM14 15.375C13.4477 15.375 13 15.8227 13 16.375C13 16.9273 13.4477 17.375 14 17.375C14.5523 17.375 15 16.9273 15 16.375C15 15.8227 14.5523 15.375 14 15.375ZM18 15.375C17.4477 15.375 17 15.8227 17 16.375C17 16.9273 17.4477 17.375 18 17.375C18.5523 17.375 19 16.9273 19 16.375C19 15.8227 18.5523 15.375 18 15.375ZM12.0039 5.61719C13.1398 5.61954 14.2417 6.00899 15.127 6.7207C15.5568 7.06677 15.625 7.69573 15.2793 8.12598C14.9333 8.55637 14.3035 8.62521 13.873 8.2793C13.342 7.85238 12.6814 7.61866 12 7.61719C11.3184 7.61582 10.656 7.84661 10.123 8.27148C9.69127 8.61559 9.06206 8.54494 8.71777 8.11328C8.37353 7.68147 8.44517 7.0523 8.87695 6.70801C9.76513 5.99991 10.868 5.61492 12.0039 5.61719ZM12 1.625C14.0448 1.62505 16.0288 2.32162 17.625 3.59961C18.0559 3.9448 18.1253 4.57384 17.7803 5.00488C17.4351 5.43588 16.8061 5.50519 16.375 5.16016C15.1336 4.1663 13.5903 3.62505 12 3.625C10.4097 3.625 8.86647 4.16632 7.625 5.16016C7.19394 5.50528 6.56494 5.43583 6.21973 5.00488C5.87458 4.57379 5.94397 3.94481 6.375 3.59961C7.97124 2.32165 9.95521 1.625 12 1.625Z" fill="currentColor"/></svg>
