<svg xmlns="http://www.w3.org/2000/svg" viewBox="0 0 24 24" fill="none"><path d="M12 1.25C13.4014 1.25 14.7414 1.51893 15.9707 2.00781L15.6309 2.36328C14.783 3.13931 14.25 4.25834 14.25 5.5C14.2503 7.847 16.1529 9.75 18.5 9.75C19.73 9.75 20.8392 9.22563 21.6143 8.3916L22.0078 8.07129C22.4863 9.28916 22.75 10.6145 22.75 12C22.75 17.9371 17.9371 22.75 12 22.75C6.06294 22.75 1.25 17.9371 1.25 12C1.25 6.06294 6.06294 1.25 12 1.25ZM14 13.25C12.4812 13.25 11.25 14.4812 11.25 16C11.25 17.5188 12.4812 18.75 14 18.75C15.5188 18.75 16.75 17.5188 16.75 16C16.75 14.4812 15.5188 13.25 14 13.25ZM14 14.75C14.6904 14.75 15.25 15.3096 15.25 16C15.25 16.6904 14.6904 17.25 14 17.25C13.3096 17.25 12.75 16.6904 12.75 16C12.75 15.3096 13.3096 14.75 14 14.75ZM7 13C6.44772 13 6 13.4477 6 14C6 14.5523 6.44772 15 7 15H7.00684C7.5589 14.9997 8.00684 14.5521 8.00684 14C8.00684 13.4479 7.5589 13.0003 7.00684 13H7ZM10 7C9.44771 7 9 7.44772 9 8C9 8.55228 9.44771 9 10 9H10.0068C10.5589 8.99974 11.0068 8.55212 11.0068 8C11.0068 7.44788 10.5589 7.00026 10.0068 7H10ZM17.3877 2.69727C19.0323 3.65163 20.4002 5.02844 21.3428 6.68066L20.5811 7.29785L20.542 7.3418C20.0377 7.90035 19.3101 8.25 18.5 8.25C16.9814 8.25 15.7503 7.01857 15.75 5.5C15.75 4.68994 16.0997 3.96234 16.6582 3.45801L16.6787 3.43945L17.3877 2.69727Z" fill="currentColor"/></svg>
