<svg xmlns="http://www.w3.org/2000/svg" viewBox="0 0 24 24" fill="none"><path opacity="0.4" d="M21.7501 12.0416V12V11.9584C21.7501 9.87807 21.7501 8.24041 21.5782 6.96191C21.4023 5.65356 21.0335 4.60957 20.212 3.78809C19.3905 2.9666 18.3466 2.59783 17.0382 2.42188C15.7597 2.24999 14.1221 2.24999 12.0417 2.25H12.0001H11.9585C9.87818 2.24999 8.24053 2.24999 6.96204 2.42188C5.65368 2.59783 4.60969 2.9666 3.78821 3.78809C2.96672 4.60957 2.59796 5.65356 2.422 6.96191C2.25011 8.24041 2.25011 9.87806 2.25012 11.9584V12V12.0416C2.25011 14.1219 2.25011 15.7596 2.422 17.0381C2.59796 18.3464 2.96672 19.3904 3.78821 20.2119C4.60969 21.0334 5.65368 21.4022 6.96204 21.5781C8.24053 21.75 9.87819 21.75 11.9585 21.75H12.0001H12.0417C14.1221 21.75 15.7597 21.75 17.0382 21.5781C18.3466 21.4022 19.3905 21.0334 20.212 20.2119C21.0335 19.3904 21.4023 18.3464 21.5782 17.0381C21.7501 15.7596 21.7501 14.1219 21.7501 12.0416Z" fill="currentColor"/><path d="M10 14C10.5523 14 11 14.4477 11 15C11 15.5523 10.5523 16 10 16H9C8.44772 16 8 15.5523 8 15C8 14.4477 8.44772 14 9 14H10Z" fill="currentColor"/><path d="M15 14C15.5523 14 16 14.4477 16 15C16 15.5523 15.5523 16 15 16H14C13.4477 16 13 15.5523 13 15C13 14.4477 13.4477 14 14 14H15Z" fill="currentColor"/><path d="M21.7402 14C21.7322 14.7344 21.7181 15.3992 21.6787 16H19C18.4477 16 18 15.5523 18 15C18 14.4477 18.4477 14 19 14H21.7402Z" fill="currentColor"/><path d="M5 14C5.55226 14 6 14.4477 6 15C6 15.5523 5.55226 16 5 16H2.32129C2.2819 15.3992 2.26779 14.7344 2.25977 14H5Z" fill="currentColor"/><path d="M10 8C10.5523 8.00003 11 8.44774 11 9C11 9.55226 10.5523 9.99997 10 10H9C8.44772 10 8 9.55228 8 9C8 8.44772 8.44772 8 9 8H10Z" fill="currentColor"/><path d="M15 8C15.5523 8.00003 16 8.44774 16 9C16 9.55226 15.5523 9.99997 15 10H14C13.4477 10 13 9.55228 13 9C13 8.44772 13.4477 8 14 8H15Z" fill="currentColor"/><path d="M21.6787 8C21.7181 8.60079 21.7322 9.26558 21.7402 10H19C18.4477 10 18 9.55228 18 9C18 8.44772 18.4477 8 19 8H21.6787Z" fill="currentColor"/><path d="M5 8C5.55226 8.00003 6 8.44774 6 9C6 9.55226 5.55226 9.99997 5 10H2.25977C2.26779 9.26558 2.2819 8.60079 2.32129 8H5Z" fill="currentColor"/></svg>
