<svg xmlns="http://www.w3.org/2000/svg" viewBox="0 0 24 24" fill="none"><path d="M12.0421 2.25C14.1223 2.24999 15.7598 2.25 17.0382 2.42188C18.3466 2.59783 19.3905 2.9666 20.212 3.78809C21.0335 4.60957 21.4023 5.65356 21.5782 6.96191C21.6216 7.28462 21.6546 7.63018 21.6788 8H19.0001C18.4478 8 18.0001 8.44772 18.0001 9C18.0001 9.55228 18.4478 10 19.0001 10H21.7404C21.747 10.6044 21.7501 11.256 21.7501 11.958V12.042C21.7501 12.744 21.747 13.3956 21.7404 14H19.0001C18.4478 14 18.0001 14.4477 18.0001 15C18.0001 15.5523 18.4478 16 19.0001 16H21.6788C21.6546 16.3698 21.6216 16.7154 21.5782 17.0381C21.4023 18.3464 21.0335 19.3904 20.212 20.2119C19.3905 21.0334 18.3466 21.4022 17.0382 21.5781C15.7598 21.75 14.1223 21.75 12.0421 21.75H11.9581C9.87798 21.75 8.24045 21.75 6.96204 21.5781C5.65368 21.4022 4.60969 21.0334 3.78821 20.2119C2.96672 19.3904 2.59796 18.3464 2.422 17.0381C2.37861 16.7154 2.34566 16.3698 2.32141 16H5.00012C5.55238 16 6.00012 15.5523 6.00012 15C6.00012 14.4477 5.55238 14 5.00012 14H2.25989C2.25328 13.3956 2.25012 12.744 2.25012 12.042V11.958C2.25012 11.256 2.25328 10.6044 2.25989 10H5.00012C5.55238 9.99997 6.00012 9.55226 6.00012 9C6.00012 8.44774 5.55238 8.00003 5.00012 8H2.32141C2.34566 7.63018 2.37861 7.28462 2.422 6.96191C2.59796 5.65356 2.96672 4.60957 3.78821 3.78809C4.60969 2.9666 5.65368 2.59783 6.96204 2.42188C8.24045 2.25 9.87798 2.24999 11.9581 2.25H12.0421ZM9.00012 14C8.44784 14 8.00012 14.4477 8.00012 15C8.00012 15.5523 8.44784 16 9.00012 16H10.0001C10.5524 16 11.0001 15.5523 11.0001 15C11.0001 14.4477 10.5524 14 10.0001 14H9.00012ZM14.0001 14C13.4478 14 13.0001 14.4477 13.0001 15C13.0001 15.5523 13.4478 16 14.0001 16H15.0001C15.5524 16 16.0001 15.5523 16.0001 15C16.0001 14.4477 15.5524 14 15.0001 14H14.0001ZM9.00012 8C8.44784 8 8.00012 8.44772 8.00012 9C8.00012 9.55228 8.44784 10 9.00012 10H10.0001C10.5524 9.99997 11.0001 9.55226 11.0001 9C11.0001 8.44774 10.5524 8.00003 10.0001 8H9.00012ZM14.0001 8C13.4478 8 13.0001 8.44772 13.0001 9C13.0001 9.55228 13.4478 10 14.0001 10H15.0001C15.5524 9.99997 16.0001 9.55226 16.0001 9C16.0001 8.44774 15.5524 8.00003 15.0001 8H14.0001Z" fill="currentColor"/></svg>
