<svg xmlns="http://www.w3.org/2000/svg" viewBox="0 0 24 24" fill="none"><path d="M21.3136 19.7881C22.0359 18.9332 22.7501 17.8131 22.7501 16.6387C22.75 15.1051 21.6314 13.75 20.0001 13.75C19.3244 13.75 18.6892 13.9555 18.0001 14.5117C17.311 13.9555 16.6757 13.75 16.0001 13.75C14.3688 13.75 13.2502 15.1051 13.2501 16.6387C13.2501 17.8131 13.9643 18.9332 14.6866 19.7881C15.4342 20.6729 16.3208 21.4235 16.9073 21.875C17.5566 22.3747 18.4435 22.3747 19.0929 21.875C19.6794 21.4235 20.566 20.6729 21.3136 19.7881Z" fill="currentColor"/><path d="M6.94443 1.75009C8.0491 1.75009 8.7959 1.73823 9.46298 1.98837C10.9535 2.54734 11.5503 3.92365 12.0372 4.89755L12.464 5.75009H16.7735C17.8 5.75008 18.6273 5.75008 19.2901 5.81747C19.9705 5.88669 20.5611 6.03324 21.0831 6.38193C21.4925 6.65551 21.8447 7.00764 22.1183 7.41708C22.4669 7.93909 22.6135 8.52967 22.6827 9.21005C22.7501 9.87289 22.7501 10.7002 22.7501 11.7267V11.7833C22.7501 12.4424 22.7474 13.0472 22.7413 13.6026C22.056 12.9315 21.1194 12.5001 20.0001 12.5001C19.3029 12.5001 18.644 12.6612 18.0001 13.0118C17.3562 12.6612 16.6973 12.5001 16.0001 12.5001C13.5721 12.5001 12.0002 14.5263 12.0001 16.6388C12.0001 18.281 12.972 19.6959 13.7315 20.5948C13.9239 20.8225 14.1242 21.0406 14.3253 21.2481C13.994 21.2492 13.6468 21.2501 13.2833 21.2501H11.9347C9.63054 21.2501 7.82385 21.2501 6.41415 21.0606C4.96942 20.8664 3.82947 20.4603 2.93466 19.5655C2.03988 18.6707 1.63378 17.5307 1.43955 16.086C1.25008 14.6764 1.25007 12.8704 1.25009 10.5665V7.4288C1.25009 6.54156 1.25009 5.82644 1.30087 5.25009C1.35286 4.66044 1.46273 4.14419 1.72568 3.67294C2.06456 3.06572 2.56572 2.56454 3.17294 2.22568C3.6442 1.96273 4.16042 1.85285 4.75009 1.80087C5.32633 1.7501 6.04083 1.75009 6.92783 1.75009H6.94443Z" fill="currentColor"/></svg>
