<svg xmlns="http://www.w3.org/2000/svg" viewBox="0 0 24 24" fill="none"><path d="M12 1.25C17.9371 1.25 22.75 6.06294 22.75 12C22.75 12.9748 22.6554 13.9549 22.1797 14.7412C21.6695 15.5845 20.8112 16.07 19.6064 16.2422C18.387 16.4164 17.3427 16.417 16.4932 16.417H16.4814C15.593 16.417 15.0099 16.4232 14.5605 16.5537C14.1885 16.6618 13.911 16.8549 13.6709 17.335C13.4714 17.734 13.4788 17.9907 13.5312 18.1904C13.5964 18.4378 13.7465 18.6737 13.9902 19.0352L14.0225 19.083C14.318 19.5202 14.75 20.1588 14.75 21C14.75 21.4139 14.6394 21.7983 14.3818 22.1074C14.1314 22.4079 13.8055 22.5601 13.5176 22.6406C13.0736 22.7648 12.5346 22.7573 12.1748 22.752C12.1102 22.751 12.0515 22.75 12 22.75C6.06294 22.75 1.25 17.9371 1.25 12C1.25 6.06294 6.06294 1.25 12 1.25ZM7.96582 14.7412C7.82348 14.208 7.27791 13.8915 6.74707 14.0342L6.73828 14.0371C6.20725 14.1801 5.89189 14.7283 6.03418 15.2617C6.17656 15.7949 6.72214 16.1114 7.25293 15.9688L7.26172 15.9658C7.79275 15.8229 8.10811 15.2747 7.96582 14.7412ZM16.5 7.25C15.2574 7.25 14.25 8.25736 14.25 9.5C14.25 10.7426 15.2574 11.75 16.5 11.75C17.7426 11.75 18.75 10.7426 18.75 9.5C18.75 8.25736 17.7426 7.25 16.5 7.25ZM9.5 6.25C8.25736 6.25 7.25 7.25736 7.25 8.5C7.25 9.74264 8.25736 10.75 9.5 10.75C10.7426 10.75 11.75 9.74264 11.75 8.5C11.75 7.25736 10.7426 6.25 9.5 6.25Z" fill="currentColor"/></svg>
