<svg xmlns="http://www.w3.org/2000/svg" viewBox="0 0 24 24" fill="none"><path d="M12 10.25C12.9665 10.25 13.75 11.0335 13.75 12C13.75 12.9665 12.9665 13.75 12 13.75C11.0335 13.75 10.25 12.9665 10.25 12C10.25 11.0335 11.0335 10.25 12 10.25Z" fill="currentColor"/><path d="M2.29302 2.29297C2.68354 1.90245 3.31655 1.90245 3.70708 2.29297L7.99809 6.58399C7.99817 6.52526 8.00005 6.46412 8.00005 6.40039V5C8.00005 4.44772 8.44776 4 9.00005 4C9.55233 4 10 4.44772 10 5V6.40039C10 6.9848 10.002 7.52393 9.94341 7.95996C9.88088 8.42478 9.73329 8.9191 9.32622 9.32617C8.91915 9.73324 8.42483 9.88084 7.96001 9.94336C7.52398 10.002 6.98484 10 6.40044 10H5.00005C4.44776 10 4.00005 9.55229 4.00005 9C4.00005 8.44772 4.44776 8 5.00005 8H6.40044C6.46416 8 6.52531 7.99812 6.58403 7.99805L2.29302 3.70703C1.90249 3.31651 1.90249 2.68349 2.29302 2.29297Z" fill="currentColor"/><path d="M20.293 2.29297C20.6835 1.90245 21.3165 1.90245 21.707 2.29297C22.0976 2.68349 22.0976 3.31651 21.707 3.70703L17.415 7.99805C17.4741 7.99812 17.5355 8 17.5996 8H19C19.5523 8 20 8.44772 20 9C20 9.55229 19.5523 10 19 10H17.5996C17.0152 10 16.4761 10.002 16.04 9.94336C15.5752 9.88084 15.0809 9.73324 14.6738 9.32617C14.2668 8.9191 14.1192 8.42478 14.0566 7.95996C13.998 7.52393 14 6.9848 14 6.40039V5C14 4.44772 14.4477 4 15 4C15.5523 4 16 4.44772 16 5V6.40039C16 6.46412 16.0009 6.52527 16.001 6.58399L20.293 2.29297Z" fill="currentColor"/><path d="M8.00005 19V17.5996C8.00005 17.5355 7.99817 17.4741 7.99809 17.415L3.70708 21.707C3.31655 22.0976 2.68354 22.0976 2.29302 21.707C1.90249 21.3165 1.90249 20.6835 2.29302 20.293L6.58403 16.001C6.52531 16.0009 6.46416 16 6.40044 16H5.00005C4.44776 16 4.00005 15.5523 4.00005 15C4.00005 14.4477 4.44776 14 5.00005 14H6.40044C6.98484 14 7.52398 13.998 7.96001 14.0566C8.42483 14.1192 8.91915 14.2668 9.32622 14.6738C9.73329 15.0809 9.88088 15.5752 9.94341 16.04C10.002 16.4761 10 17.0152 10 17.5996V19C10 19.5523 9.55233 20 9.00005 20C8.44776 20 8.00005 19.5523 8.00005 19Z" fill="currentColor"/><path d="M14 19V17.5996C14 17.0152 13.998 16.4761 14.0566 16.04C14.1192 15.5752 14.2668 15.0809 14.6738 14.6738C15.0809 14.2668 15.5752 14.1192 16.04 14.0566C16.4761 13.998 17.0152 14 17.5996 14H19C19.5523 14 20 14.4477 20 15C20 15.5523 19.5523 16 19 16H17.5996C17.5355 16 17.4741 16.0009 17.415 16.001L21.707 20.293C22.0976 20.6835 22.0976 21.3165 21.707 21.707C21.3165 22.0976 20.6835 22.0976 20.293 21.707L16.001 17.415C16.0009 17.4741 16 17.5355 16 17.5996V19C16 19.5523 15.5523 20 15 20C14.4477 20 14 19.5523 14 19Z" fill="currentColor"/></svg>
