<svg xmlns="http://www.w3.org/2000/svg" viewBox="0 0 24 24" fill="none"><path opacity="0.4" d="M12.0002 22.75C6.06314 22.75 1.2502 17.9371 1.2502 12C1.2502 6.06297 6.06314 1.25003 12.0002 1.25003C17.9373 1.25003 22.7502 6.06297 22.7502 12C22.7502 17.9371 17.9373 22.75 12.0002 22.75Z" fill="currentColor"/><path d="M5.0002 16.0001C3.69627 16.0001 2.69798 15.8756 1.90254 15.6993C1.64106 14.9858 1.45713 14.2362 1.35176 13.461C1.52658 13.5246 1.7206 13.59 1.95235 13.6534C2.6281 13.8382 3.58018 14.0001 5.0002 14.0001C6.50358 14 7.7454 13.6347 8.44649 13.168C8.9062 12.8623 9.52627 12.9867 9.83223 13.4464C10.138 13.906 10.0134 14.5261 9.55391 14.8321C8.43083 15.5797 6.76786 16 5.0002 16.0001Z" fill="currentColor"/><path d="M7.6252 7.25003C7.08498 7.25003 6.79759 7.66821 6.68965 7.88382C6.5595 8.14413 6.5002 8.45174 6.5002 8.75003C6.5002 9.04832 6.5595 9.35593 6.68965 9.61624C6.79759 9.83185 7.08498 10.25 7.6252 10.25C8.16541 10.25 8.45281 9.83185 8.56075 9.61624C8.6909 9.35593 8.7502 9.04832 8.7502 8.75003C8.7502 8.45174 8.6909 8.14413 8.56075 7.88382C8.4528 7.66821 8.16541 7.25003 7.6252 7.25003Z" fill="currentColor"/></svg>
