<svg xmlns="http://www.w3.org/2000/svg" viewBox="0 0 24 24" fill="none"><path d="M12.0002 22.75C17.9373 22.75 22.7502 17.9371 22.7502 12C22.7502 6.06297 17.9373 1.25003 12.0002 1.25003C6.06314 1.25003 1.2502 6.06297 1.2502 12C1.2502 12.4957 1.28681 12.9831 1.35176 13.461C1.52677 13.5246 1.72126 13.5899 1.95332 13.6534C2.62906 13.8381 3.58126 14 5.00117 14C6.50449 13.9999 7.7464 13.6347 8.44746 13.168C8.90716 12.8623 9.52727 12.9867 9.83321 13.4463C10.1389 13.9059 10.0143 14.526 9.55489 14.8321C8.43184 15.5796 6.76878 15.9999 5.00117 16C3.69683 16 2.6981 15.8756 1.90254 15.6992C3.41042 19.8141 7.36287 22.75 12.0002 22.75ZM7.6252 10.25C7.08498 10.25 6.79759 9.83185 6.68965 9.61624C6.5595 9.35593 6.5002 9.04832 6.5002 8.75003C6.5002 8.45174 6.55949 8.14413 6.68965 7.88382C6.79759 7.66821 7.08498 7.25003 7.6252 7.25003C8.16541 7.25003 8.4528 7.66821 8.56075 7.88382C8.6909 8.14413 8.7502 8.45174 8.7502 8.75003C8.7502 9.04832 8.6909 9.35593 8.56075 9.61624C8.45281 9.83185 8.16541 10.25 7.6252 10.25Z" fill="currentColor"/></svg>
