<svg xmlns="http://www.w3.org/2000/svg" viewBox="0 0 24 24" fill="none"><path d="M19.2101 19.2095C18.9035 19.6487 18.5581 20.0536 18.174 20.4185C16.5712 21.9407 14.3787 22.7495 12.0002 22.7495C9.6216 22.7495 7.4291 21.9407 5.82632 20.4185C4.21769 18.8905 3.25015 16.688 3.25015 13.9995C3.25015 11.3459 4.19262 8.21214 5.70328 5.73389C5.70723 5.7274 5.71103 5.72083 5.715 5.71436L19.2101 19.2095Z" fill="currentColor"/><path opacity="0.4" d="M12.0002 1.24951C14.6131 1.24958 16.809 3.29283 18.2971 5.73389C19.8077 8.21213 20.7502 11.3459 20.7502 13.9995C20.7502 15.0119 20.6126 15.9553 20.3557 16.8198L7.22577 3.68994C8.54646 2.25159 10.1708 1.24951 12.0002 1.24951Z" fill="currentColor"/><path d="M1.54302 1.5424C1.93354 1.15188 2.56655 1.15188 2.95708 1.5424L22.4571 21.0424C22.8476 21.4329 22.8476 22.0659 22.4571 22.4565C22.0666 22.847 21.4335 22.847 21.043 22.4565L1.54302 2.95647C1.15249 2.56594 1.15249 1.93293 1.54302 1.5424Z" fill="currentColor"/></svg>
