<svg xmlns="http://www.w3.org/2000/svg" fill="none" viewBox="0 0 48 48">
  <g>
    <path fill="currentColor" fill-rule="evenodd" d="M14.5 1c-0.2669 0 -0.5159 0.00388 -0.7481 0.01094 -2.3056 0.07011 -3.665 1.93637 -3.7239 4.00048 -0.0033 0.1152 -0.0064 0.23354 -0.0092 0.35493 -0.69727 0.04166 -1.33359 0.08441 -1.91054 0.12683 -3.51747 0.25864 -6.29337 2.94271 -6.59669 6.48842C1.25496 14.9813 1 19.5777 1 26s0.25496 11.0186 0.51156 14.0184c0.30332 3.5457 3.07922 6.2298 6.59669 6.4884C11.3888 46.748 16.5891 47 24 47s12.6112 -0.252 15.8918 -0.4932c3.5174 -0.2586 6.2933 -2.9427 6.5966 -6.4884C46.745 37.0186 47 32.4223 47 26s-0.255 -11.0186 -0.5116 -14.0184c-0.3033 -3.5457 -3.0792 -6.22978 -6.5967 -6.48841 -0.5769 -0.04243 -1.2132 -0.08518 -1.9105 -0.12684 -0.0028 -0.12138 -0.0059 -0.23973 -0.0092 -0.35493 -0.0589 -2.06411 -1.4183 -3.93037 -3.7239 -4.00048C34.0159 1.00388 33.7669 1 33.5 1c-0.2669 0 -0.5159 0.00388 -0.7481 0.01094 -2.3056 0.07011 -3.665 1.93637 -3.7239 4.00048l-0.0009 0.02965C27.4799 5.01496 25.8055 5 24 5c-1.8055 0 -3.4799 0.01496 -5.0271 0.04107l-0.0009 -0.02965c-0.0589 -2.06411 -1.4183 -3.93037 -3.7239 -4.00048C15.0159 1.00388 14.7669 1 14.5 1ZM8.40158 9.48241c0.50224 -0.03693 1.05267 -0.07424 1.65242 -0.1109 0.2059 1.90669 1.5359 3.55179 3.6979 3.61759 0.2322 0.007 0.4812 0.0109 0.7481 0.0109 0.2669 0 0.5159 -0.0039 0.7481 -0.0109 2.2858 -0.0695 3.6416 -1.9045 3.7221 -3.94741C20.514 9.01523 22.1892 9 24 9c1.8109 0 3.486 0.01523 5.0298 0.04169 0.0805 2.04291 1.4363 3.87791 3.7221 3.94741 0.2322 0.007 0.4812 0.0109 0.7481 0.0109 0.2669 0 0.5159 -0.0039 0.7481 -0.0109 2.162 -0.0658 3.492 -1.7109 3.6979 -3.61758 0.5997 0.03665 1.1502 0.07397 1.6524 0.1109 1.5894 0.11686 2.7715 1.28388 2.9046 2.84018C42.7492 15.201 43 19.6832 43 26c0 6.3168 -0.2508 10.799 -0.497 13.6774 -0.1331 1.5563 -1.3152 2.7233 -2.9046 2.8402C36.4227 42.7511 31.3205 43 24 43c-7.3205 0 -12.4227 -0.2489 -15.59842 -0.4824 -1.58941 -0.1169 -2.77144 -1.2839 -2.90457 -2.8402C5.25078 36.799 5 32.3168 5 26c0 -6.3168 0.25078 -10.799 0.49701 -13.6774 0.13314 -1.5563 1.31517 -2.72332 2.90457 -2.84019ZM26.5472 16.2963c-1.5713 -0.9889 -3.5215 -0.9888 -5.0929 0.0002 -2.1976 1.3831 -5.8529 4.0506 -9.7565 8.4588 -0.8363 0.9443 -1.0374 2.1553 -0.6167 3.1841 0.4216 1.0312 1.4161 1.7522 2.6812 1.8261 0.0779 0.0046 0.1573 0.0091 0.2381 0.0136v2.2055c0 1.8914 0.1273 3.4009 0.2719 4.5058 0.2301 1.7567 1.6164 3.033 3.3404 3.2094 1.4088 0.144 3.5192 0.2848 6.3877 0.2848 2.8684 0 4.9788 -0.1408 6.3877 -0.2848 1.724 -0.1764 3.1103 -1.4527 3.3403 -3.2094 0.1447 -1.1049 0.272 -2.6144 0.272 -4.5058v-2.2055c0.0811 -0.0045 0.1608 -0.009 0.2391 -0.0136 1.265 -0.0739 2.2595 -0.7949 2.6811 -1.8261 0.4207 -1.0288 0.2196 -2.2397 -0.6166 -3.1841 -3.9037 -4.4085 -7.559 -7.0759 -9.7568 -8.459ZM24 30.5c-0.5227 0 -0.9746 0.0261 -1.3582 0.0652 -0.9114 0.0928 -1.4804 0.7789 -1.5302 1.611 -0.0575 0.9594 -0.1116 2.3229 -0.1116 4.0571v1.202c0.8635 0.0393 1.8617 0.0647 2.9993 0.0647 1.1382 0 2.1369 -0.0254 3.0007 -0.0648v-1.2019c0 -1.7342 -0.0541 -3.0977 -0.1116 -4.0571 -0.0498 -0.8321 -0.6188 -1.5182 -1.5302 -1.611 -0.3836 -0.0391 -0.8355 -0.0652 -1.3582 -0.0652Z" clip-rule="evenodd" stroke-width="1"></path>
  </g>
</svg>
