<svg xmlns="http://www.w3.org/2000/svg" viewBox="0 0 24 24" fill="none"><path d="M12 1.75C17.6609 1.75 22.25 6.33908 22.25 12C22.25 17.6609 17.6609 22.25 12 22.25C10.2448 22.25 8.59046 21.8084 7.14453 21.0293C6.38511 20.6201 5.78228 20.6112 5.23633 20.7139C4.94458 20.7688 4.66731 20.8556 4.3584 20.9531L4.34082 20.959C4.05369 21.0496 3.7164 21.1558 3.37793 21.207C2.95556 21.2709 2.5542 21.1147 2.2793 20.8398C1.8481 20.4083 1.80203 19.788 2.00293 19.3145L2.07617 19.1318C2.43613 18.1714 2.70956 16.5536 2.27148 15.2363C1.9329 14.2181 1.75 13.1296 1.75 12C1.75 6.33908 6.33908 1.75 12 1.75ZM8 11C7.44771 11 7 11.4477 7 12C7 12.5523 7.44772 13 8 13C8.55228 13 9 12.5523 9 12C9 11.4477 8.55228 11 8 11ZM12.001 11C11.4833 11 11.0572 11.3933 11.0059 11.8975L11.001 12L11.0059 12.1025C11.0572 12.6067 11.4833 13 12.001 13C12.5532 12.9999 13.001 12.5522 13.001 12C13.001 11.4821 12.607 11.0559 12.1025 11.0049L12.001 11ZM16 11C15.4477 11 15 11.4477 15 12C15 12.5523 15.4477 13 16 13C16.5523 13 17 12.5523 17 12C17 11.4477 16.5523 11 16 11Z" fill="currentColor"/></svg>
