<svg xmlns="http://www.w3.org/2000/svg" viewBox="0 0 24 24" fill="none"><path d="M16.1904 6.42871C16.5717 6.04749 17.1901 6.04749 17.5713 6.42871C17.9521 6.80985 17.9521 7.42744 17.5713 7.80859L10.8535 14.5254C10.9621 14.8018 11.0234 15.1021 11.0234 15.417C11.0234 16.7648 9.93085 17.8574 8.58301 17.8574C7.23519 17.8574 6.14258 16.7648 6.14258 15.417C6.1426 14.0692 7.23521 12.9766 8.58301 12.9766C8.89713 12.9766 9.19685 13.0374 9.47266 13.1455L10.6191 12L9.47363 10.8535C9.1975 10.9619 8.89759 11.0234 8.58301 11.0234C7.23519 11.0234 6.14258 9.93083 6.14258 8.58301C6.1426 7.23521 7.23521 6.1426 8.58301 6.14258C9.93083 6.14258 11.0234 7.23519 11.0234 8.58301C11.0234 8.89759 10.9619 9.1975 10.8535 9.47363L12 10.6191L16.1904 6.42871ZM13.75 13.75C14.1312 13.3688 14.7496 13.3688 15.1309 13.75L17.5713 16.1904C17.9522 16.5715 17.952 17.1891 17.5713 17.5703C17.1901 17.9515 16.5717 17.9515 16.1904 17.5703L13.75 15.1299C13.369 14.7487 13.3689 14.1312 13.75 13.75ZM8.58301 14.9287C8.31348 14.9287 8.09475 15.1475 8.09473 15.417C8.09473 15.6865 8.31346 15.9052 8.58301 15.9053C8.85258 15.9053 9.07129 15.6866 9.07129 15.417C9.07127 15.1474 8.85256 14.9287 8.58301 14.9287ZM8.58301 8.09473C8.31348 8.09475 8.09475 8.31347 8.09473 8.58301C8.09473 8.85256 8.31346 9.07126 8.58301 9.07129C8.85258 9.07129 9.07129 8.85257 9.07129 8.58301C9.07127 8.31346 8.85256 8.09473 8.58301 8.09473Z" fill="currentColor"/><path opacity="0.4" d="M8.62147 20.2661C9.05902 20.2834 9.53579 20.2926 10.0572 20.2976C10.5962 20.3028 11.029 20.7442 11.0238 21.2833C11.0185 21.8223 10.5771 22.2551 10.0381 22.25C9.50645 22.2449 9.00928 22.2349 8.5452 22.2166C8.00661 22.1953 7.587 21.7418 7.6081 21.2032C7.6294 20.6647 8.08294 20.2451 8.62147 20.2661ZM15.3785 20.2661C15.9171 20.245 16.3706 20.6646 16.3919 21.2032C16.413 21.7418 15.9934 22.1953 15.4548 22.2166C14.9907 22.2349 14.4936 22.2449 13.9619 22.25C13.4229 22.2551 12.9815 21.8223 12.9762 21.2833C12.971 20.7443 13.4038 20.3028 13.9428 20.2976C14.4642 20.2926 14.941 20.2834 15.3785 20.2661ZM20.2976 12.0028C20.2976 9.78894 20.2955 8.22662 20.1365 7.04373C19.9813 5.88884 19.6926 5.2425 19.2251 4.77485C18.7577 4.30735 18.1123 4.01874 16.9582 3.86349C15.7757 3.70445 14.2135 3.70238 12 3.70238C9.78654 3.70238 8.22433 3.70445 7.04183 3.86349C5.88773 4.01874 5.24227 4.30735 4.77486 4.77485C4.30735 5.2425 4.01871 5.88884 3.86349 7.04373C3.70454 8.22662 3.70238 9.78894 3.70238 12.0028C3.70238 14.2167 3.70454 15.7791 3.86349 16.962C4.01871 18.1168 4.30735 18.7632 4.77486 19.2308C4.99712 19.4531 5.25155 19.6272 5.5642 19.7666C6.05652 19.9861 6.27745 20.5631 6.05801 21.0555C5.83851 21.5478 5.26155 21.7687 4.76914 21.5493C4.25128 21.3184 3.79456 21.0124 3.39351 20.6112C2.50301 19.7204 2.11257 18.5934 1.92827 17.2222C1.74776 15.879 1.75 14.1617 1.75 12.0028C1.75 9.844 1.74776 8.12667 1.92827 6.78347C2.11257 5.41228 2.50301 4.28532 3.39351 3.39446C4.28409 2.5036 5.41073 2.11267 6.78158 1.92827C8.12446 1.74767 9.84175 1.75 12 1.75C14.1583 1.75 15.8755 1.74767 17.2184 1.92827C18.5893 2.11267 19.7159 2.5036 20.6065 3.39446C21.497 4.28532 21.8874 5.41228 22.0717 6.78347C22.2522 8.12667 22.25 9.844 22.25 12.0028C22.25 14.1617 22.2522 15.879 22.0717 17.2222C21.8874 18.5934 21.497 19.7204 20.6065 20.6112C20.2054 21.0124 19.7487 21.3184 19.2309 21.5493C18.7384 21.7687 18.1615 21.5478 17.942 21.0555C17.7225 20.5631 17.9435 19.9861 18.4358 19.7666C18.7484 19.6272 19.0029 19.4531 19.2251 19.2308C19.6926 18.7632 19.9813 18.1168 20.1365 16.962C20.2955 15.7791 20.2976 14.2167 20.2976 12.0028Z" fill="currentColor"/></svg>
