<svg xmlns="http://www.w3.org/2000/svg" viewBox="0 0 24 24" fill="none"><path d="M8.62061 20.2666C9.05816 20.2839 9.53577 20.2929 10.0571 20.2979C10.5959 20.3033 11.0281 20.7443 11.0229 21.2832C11.0177 21.8222 10.5766 22.2552 10.0376 22.25C9.50596 22.2449 9.00852 22.2351 8.54443 22.2168C8.00597 22.1954 7.58682 21.7416 7.60791 21.2031C7.62926 20.6647 8.08227 20.2457 8.62061 20.2666ZM15.3784 20.2666C15.9168 20.2457 16.3698 20.6647 16.3911 21.2031C16.4122 21.7416 15.993 22.1954 15.4546 22.2168C14.9905 22.2351 14.4931 22.2449 13.9614 22.25C13.4224 22.2552 12.9813 21.8222 12.9761 21.2832C12.971 20.7444 13.4031 20.3034 13.9419 20.2979C14.4632 20.2929 14.9409 20.2839 15.3784 20.2666ZM11.9995 1.75C14.1578 1.75 15.8754 1.74811 17.2183 1.92871C18.5889 2.11313 19.7155 2.50376 20.606 3.39453C21.4964 4.28532 21.8865 5.41216 22.0708 6.7832C22.2513 8.1264 22.2495 9.8441 22.2495 12.0029C22.2495 14.1617 22.2513 15.8795 22.0708 17.2227C21.8865 18.5936 21.4963 19.7206 20.606 20.6113C20.2049 21.0125 19.7478 21.318 19.23 21.5488C18.7377 21.7681 18.1615 21.5478 17.9419 21.0557C17.7225 20.5634 17.9429 19.9862 18.4351 19.7666C18.7477 19.6273 19.0028 19.4528 19.2251 19.2305C19.6924 18.7629 19.9811 18.1165 20.1362 16.9619C20.2952 15.779 20.2974 14.2167 20.2974 12.0029C20.2974 9.78918 20.2951 8.22681 20.1362 7.04395C19.981 5.88906 19.6926 5.24206 19.2251 4.77441C18.7577 4.30691 18.1116 4.01853 16.9575 3.86328C15.775 3.70427 14.2129 3.70215 11.9995 3.70215C9.78617 3.70215 8.22398 3.70427 7.0415 3.86328C5.88741 4.01853 5.24134 4.30691 4.77393 4.77441C4.30642 5.24206 4.01802 5.88906 3.86279 7.04395C3.70388 8.22681 3.70166 9.78918 3.70166 12.0029C3.70166 14.2167 3.70386 15.779 3.86279 16.9619C4.01797 18.1165 4.30666 18.7629 4.77393 19.2305C4.99619 19.4528 5.25132 19.6273 5.56396 19.7666C6.05613 19.9862 6.27654 20.5634 6.05713 21.0557C5.83755 21.5478 5.26131 21.7681 4.76904 21.5488C4.25122 21.318 3.7941 21.0125 3.39307 20.6113C2.50267 19.7206 2.11255 18.5936 1.92822 17.2227C1.74772 15.8795 1.74951 14.1617 1.74951 12.0029C1.74951 9.8441 1.74771 8.1264 1.92822 6.7832C2.11253 5.41216 2.50265 4.28532 3.39307 3.39453C4.28357 2.50376 5.41008 2.11313 6.78076 1.92871C8.12365 1.74811 9.84126 1.75 11.9995 1.75ZM16.1909 6.42871C16.5722 6.04757 17.1896 6.04751 17.5708 6.42871C17.952 6.80991 17.9519 7.42738 17.5708 7.80859L10.853 14.5264C10.9615 14.8026 11.0239 15.1023 11.0239 15.417C11.0239 16.7647 9.93113 17.8572 8.5835 17.8574C7.23566 17.8574 6.14307 16.7648 6.14307 15.417C6.14309 14.0692 7.23567 12.9766 8.5835 12.9766C8.8973 12.9766 9.19661 13.0376 9.47217 13.1455L10.6196 12L9.47314 10.8535C9.19726 10.9618 8.89776 11.0234 8.5835 11.0234C7.23566 11.0234 6.14307 9.93084 6.14307 8.58301C6.14309 7.23519 7.23567 6.14258 8.5835 6.14258C9.93112 6.14282 11.0239 7.23534 11.0239 8.58301C11.0239 8.89734 10.9613 9.19671 10.853 9.47266L11.9995 10.6191L16.1909 6.42871ZM13.7505 13.75C14.1317 13.3689 14.7492 13.3688 15.1304 13.75L17.5708 16.1904C17.952 16.5716 17.9519 17.1891 17.5708 17.5703C17.1896 17.9515 16.5721 17.9515 16.1909 17.5703L13.7505 15.1299C13.3693 14.7487 13.3693 14.1312 13.7505 13.75ZM8.5835 14.9287C8.31394 14.9287 8.09524 15.1474 8.09521 15.417C8.09521 15.6866 8.31393 15.9053 8.5835 15.9053C8.85286 15.905 9.0708 15.6864 9.0708 15.417C9.07078 15.1476 8.85285 14.9289 8.5835 14.9287ZM8.5835 8.09473C8.31394 8.09473 8.09524 8.31346 8.09521 8.58301C8.09521 8.85257 8.31393 9.07129 8.5835 9.07129C8.85286 9.07105 9.0708 8.85243 9.0708 8.58301C9.07078 8.31361 8.85285 8.09497 8.5835 8.09473Z" fill="currentColor"/></svg>
