<svg xmlns="http://www.w3.org/2000/svg" viewBox="0 0 24 24" fill="none"><path d="M13.6374 1.41698C13.7353 1.45174 13.8314 1.49173 13.9251 1.53679C14.38 1.75546 14.7362 2.11454 15.1387 2.52018L19.9215 7.32783L19.9215 7.32784C20.3889 7.79619 20.8037 8.21185 21.0277 8.7556C21.1265 8.99533 21.1816 9.2438 21.2122 9.50356H19.2314C17.8638 9.50358 17.2152 9.50279 16.3483 9.38623C15.4482 9.26521 14.6903 9.00632 14.0884 8.4044C13.4865 7.80249 13.2276 7.04461 13.1066 6.14451C12.9902 5.27932 12.9902 4.63161 12.9903 3.26977V3.26974V1.27832C13.2136 1.30139 13.4283 1.34281 13.6374 1.41698Z" fill="currentColor"/><path d="M12.2501 18.0014C12.2501 17.3667 12.0045 16.7232 11.5069 16.1703C11.1375 15.7598 11.1707 15.1277 11.5811 14.7582C11.9916 14.3888 12.6238 14.422 12.9933 14.8324C13.7939 15.722 14.2501 16.833 14.2501 18.0014C14.2501 19.1697 13.7939 20.2807 12.9933 21.1703C12.6238 21.5808 11.9916 21.614 11.5811 21.2445C11.1707 20.8751 11.1375 20.2429 11.5069 19.8324C12.0045 19.2796 12.2501 18.6361 12.2501 18.0014Z" fill="currentColor"/><path d="M9.25003 20.4544L9.25003 20.4162V15.5861L9.25003 15.5479C9.25007 15.1158 9.25011 14.712 9.20609 14.4026C9.16582 14.1196 9.05662 13.661 8.62601 13.4055L8.53616 13.3576L8.44046 13.3166C7.96527 13.1401 7.53883 13.3519 7.29593 13.5041C7.02487 13.674 6.70916 13.9455 6.37405 14.2307L5.42288 15.0403C5.29344 15.1504 5.13237 15.2091 4.96878 15.2092C3.729 15.2092 2.75011 16.2308 2.75003 17.4582V18.5442C2.75011 19.7715 3.729 20.7932 4.96878 20.7932C5.13237 20.7933 5.29344 20.852 5.42288 20.9621L6.37405 21.7717C6.70916 22.0568 7.02487 22.3284 7.29593 22.4983C7.55498 22.6606 8.02307 22.8901 8.53616 22.6447C9.04172 22.4027 9.16316 21.9015 9.20609 21.5998C9.25011 21.2904 9.25007 20.8866 9.25003 20.4544Z" fill="currentColor"/><path opacity="0.4" d="M13.6377 1.41514C13.163 1.24676 12.6588 1.24739 12.0899 1.24815H12.0879C10.5624 1.24813 9.15455 1.24856 8.17581 1.36338C7.16321 1.48222 6.29459 1.73556 5.5596 2.33116C5.29013 2.5496 5.0445 2.79662 4.82718 3.06748C4.23469 3.80616 3.98256 4.67874 3.86429 5.69639C3.75003 6.68005 3.75001 7.91703 3.75003 9.4503V14.1769C4.06452 14.0581 4.40197 13.9833 4.75589 13.962L5.56448 13.2745C5.86796 13.0163 6.26506 12.6704 6.63187 12.4405C6.95994 12.235 7.94381 11.6843 9.0762 12.2257C10.1392 12.7347 10.3687 13.7525 10.4336 14.1681C10.5235 14.0454 10.6277 13.9301 10.7451 13.8243C11.6686 12.9934 13.0906 13.068 13.9219 13.9913C14.9116 15.091 15.4999 16.4942 15.5 17.9962C15.5 19.4044 14.9836 20.7263 14.1035 21.7921C13.9032 21.9962 13.3162 22.4732 12.5713 22.7481H12.5869C14.3523 22.7482 15.7761 22.7482 16.8965 22.5968C18.0633 22.4391 19.046 22.1008 19.8262 21.3165C20.6061 20.5323 20.9418 19.5448 21.0987 18.3722C21.2497 17.2426 21.2501 15.8061 21.25 14.0245V10.5499C21.251 9.88673 21.2514 9.29763 21.0274 8.75401C20.8033 8.21059 20.389 7.7944 19.9219 7.32627L15.1387 2.51866C14.7363 2.1131 14.3796 1.75389 13.9248 1.53526C13.8313 1.49031 13.7355 1.44983 13.6377 1.41514Z" fill="currentColor"/></svg>
