<svg xmlns="http://www.w3.org/2000/svg" viewBox="0 0 24 24" fill="none"><path opacity="0.4" d="M4.25005 6C4.25005 5.0335 5.03355 4.25 6.00005 4.25C6.96654 4.25 7.75005 5.0335 7.75005 6C7.75005 6.9665 6.96654 7.75 6.00005 7.75C5.03355 7.75 4.25005 6.9665 4.25005 6Z" fill="currentColor"/><path opacity="0.4" d="M4.25005 12C4.25005 11.0335 5.03355 10.25 6.00005 10.25C6.96654 10.25 7.75005 11.0335 7.75005 12C7.75005 12.9665 6.96654 13.75 6.00005 13.75C5.03355 13.75 4.25005 12.9665 4.25005 12Z" fill="currentColor"/><path opacity="0.4" d="M4.25005 18C4.25005 17.0335 5.03355 16.25 6.00005 16.25C6.96654 16.25 7.75005 17.0335 7.75005 18C7.75005 18.9665 6.96654 19.75 6.00005 19.75C5.03355 19.75 4.25005 18.9665 4.25005 18Z" fill="currentColor"/><path opacity="0.4" d="M16.25 6C16.25 5.0335 17.0335 4.25 18 4.25C18.9665 4.25 19.75 5.0335 19.75 6C19.75 6.9665 18.9665 7.75 18 7.75C17.0335 7.75 16.25 6.9665 16.25 6Z" fill="currentColor"/><path opacity="0.4" d="M16.25 12C16.25 11.0335 17.0335 10.25 18 10.25C18.9665 10.25 19.75 11.0335 19.75 12C19.75 12.9665 18.9665 13.75 18 13.75C17.0335 13.75 16.25 12.9665 16.25 12Z" fill="currentColor"/><path opacity="0.4" d="M10.25 12C10.25 11.0335 11.0335 10.25 12 10.25C12.9665 10.25 13.75 11.0335 13.75 12C13.75 12.9665 12.9665 13.75 12 13.75C11.0335 13.75 10.25 12.9665 10.25 12Z" fill="currentColor"/><path opacity="0.4" d="M10.25 6C10.25 5.0335 11.0335 4.25 12 4.25C12.9665 4.25 13.75 5.0335 13.75 6C13.75 6.9665 12.9665 7.75 12 7.75C11.0335 7.75 10.25 6.9665 10.25 6Z" fill="currentColor"/><path opacity="0.4" d="M16.25 18C16.25 17.0335 17.0335 16.25 18 16.25C18.9665 16.25 19.75 17.0335 19.75 18C19.75 18.9665 18.9665 19.75 18 19.75C17.0335 19.75 16.25 18.9665 16.25 18Z" fill="currentColor"/><path opacity="0.4" d="M10.25 18C10.25 17.0335 11.0335 16.25 12 16.25C12.9665 16.25 13.75 17.0335 13.75 18C13.75 18.9665 12.9665 19.75 12 19.75C11.0335 19.75 10.25 18.9665 10.25 18Z" fill="currentColor"/></svg>
