<svg xmlns="http://www.w3.org/2000/svg" viewBox="0 0 24 24" fill="none"><path opacity="0.4" d="M11.0002 19.7493C15.8327 19.7493 19.7502 15.8318 19.7502 10.9993C19.7502 6.16678 15.8327 2.24927 11.0002 2.24927C6.16769 2.24927 2.25018 6.16678 2.25018 10.9993C2.25018 15.8318 6.16769 19.7493 11.0002 19.7493Z" fill="currentColor"/><path d="M8.40741 7.69374C8.85209 7.36656 9.47843 7.46206 9.80585 7.90663C10.133 8.35131 10.0375 8.97765 9.59296 9.30507L9.59198 9.30409V9.30507C9.59113 9.3057 9.58984 9.30669 9.58807 9.308C9.58412 9.31093 9.57782 9.31548 9.56952 9.32167C9.55283 9.33411 9.52761 9.35293 9.4953 9.37733C9.43056 9.42623 9.33717 9.49764 9.22479 9.58534C8.99879 9.76171 8.70049 10.0011 8.40546 10.2572C8.10551 10.5176 7.83118 10.776 7.63983 10.9926C7.63785 10.9948 7.63592 10.9972 7.63397 10.9994C7.63592 11.0016 7.63785 11.004 7.63983 11.0062C7.83118 11.2228 8.10552 11.4812 8.40546 11.7416C8.70049 11.9978 8.9988 12.2371 9.22479 12.4135C9.33717 12.5012 9.43056 12.5726 9.4953 12.6215C9.52761 12.6459 9.55283 12.6647 9.56952 12.6771C9.57782 12.6833 9.58412 12.6879 9.58807 12.6908L9.59198 12.6937H9.59296C10.0377 13.0213 10.1324 13.6475 9.80487 14.0922C9.47744 14.5367 8.85206 14.6322 8.40741 14.3051V14.3041H8.40643L8.40448 14.3021C8.40291 14.301 8.40039 14.2993 8.39764 14.2973C8.39217 14.2932 8.38401 14.288 8.37421 14.2807C8.35434 14.2658 8.32607 14.2443 8.29022 14.2172C8.21828 14.1628 8.11623 14.0848 7.99432 13.9896C7.75161 13.8002 7.42481 13.5378 7.09491 13.2514C6.77005 12.9693 6.41911 12.6443 6.14178 12.3305C6.00411 12.1746 5.86294 11.9973 5.75116 11.8119C5.66781 11.6736 5.53808 11.4313 5.50702 11.1312L5.50018 10.9994L5.50702 10.8676C5.53807 10.5675 5.6678 10.3252 5.75116 10.1869C5.86294 10.0015 6.0041 9.82417 6.14178 9.66835C6.41911 9.35454 6.77004 9.02951 7.09491 8.74745C7.42482 8.46102 7.7516 8.19859 7.99432 8.00917C8.11623 7.91404 8.21828 7.83597 8.29022 7.78163C8.32607 7.75456 8.35433 7.73297 8.37421 7.71815C8.38399 7.71086 8.39217 7.70561 8.39764 7.70155C8.40038 7.69953 8.40291 7.69783 8.40448 7.69667L8.40643 7.69472H8.40741V7.69374Z" fill="currentColor"/><path d="M13.593 7.69374C13.1483 7.36656 12.5219 7.46206 12.1945 7.90663C11.8673 8.35131 11.9628 8.97765 12.4074 9.30507L12.4123 9.308C12.4163 9.31093 12.4225 9.31548 12.4308 9.32167C12.4475 9.33411 12.4728 9.35293 12.5051 9.37734C12.5698 9.42623 12.6632 9.49764 12.7756 9.58534C13.0016 9.76171 13.2999 10.0011 13.5949 10.2572C13.8949 10.5176 14.1692 10.776 14.3605 10.9926C14.3625 10.9948 14.3644 10.9972 14.3664 10.9994C14.3644 11.0016 14.3625 11.004 14.3605 11.0062C14.1692 11.2228 13.8949 11.4812 13.5949 11.7416C13.2999 11.9978 13.0016 12.2371 12.7756 12.4135C12.6632 12.5012 12.5698 12.5726 12.5051 12.6215C12.4728 12.6459 12.4475 12.6647 12.4308 12.6771C12.4225 12.6833 12.4163 12.6879 12.4123 12.6908L12.4084 12.6937H12.4074C11.9627 13.0213 11.868 13.6475 12.1955 14.0922C12.5229 14.5367 13.1483 14.6322 13.593 14.3051V14.3041H13.5939L13.5959 14.3021C13.5975 14.301 13.6 14.2993 13.6027 14.2973C13.6082 14.2932 13.6164 14.288 13.6262 14.2807C13.646 14.2658 13.6743 14.2443 13.7101 14.2172C13.7821 14.1628 13.8841 14.0848 14.006 13.9896C14.2488 13.8002 14.5756 13.5378 14.9055 13.2514C15.2303 12.9693 15.5813 12.6443 15.8586 12.3305C15.9963 12.1746 16.1374 11.9973 16.2492 11.8119C16.3326 11.6736 16.4623 11.4313 16.4933 11.1312L16.5002 10.9994L16.4933 10.8676C16.4623 10.5675 16.3326 10.3252 16.2492 10.1869C16.1374 10.0015 15.9963 9.82417 15.8586 9.66835C15.5813 9.35454 15.2303 9.02952 14.9055 8.74745C14.5756 8.46102 14.2488 8.19859 14.006 8.00917C13.8841 7.91404 13.7821 7.83597 13.7101 7.78163C13.6743 7.75456 13.646 7.73297 13.6262 7.71816C13.6164 7.71087 13.6082 7.70561 13.6027 7.70155C13.6 7.69953 13.5975 7.69783 13.5959 7.69667L13.5939 7.69472H13.593V7.69374Z" fill="currentColor"/><path d="M20.0432 21.4566C20.4337 21.8471 21.0667 21.8471 21.4572 21.4566C21.8477 21.0661 21.8477 20.433 21.4572 20.0425L17.8517 16.438C17.4356 16.9616 16.9613 17.436 16.4377 17.8521L20.0432 21.4566Z" fill="currentColor"/></svg>
