<svg xmlns="http://www.w3.org/2000/svg" viewBox="0 0 24 24" fill="none"><path d="M16.0431 16.0425C16.4337 15.652 17.0667 15.652 17.4572 16.0425L21.4572 20.0425C21.8477 20.433 21.8477 21.066 21.4572 21.4565C21.0667 21.8471 20.4337 21.8471 20.0431 21.4565L16.0431 17.4565C15.6526 17.066 15.6526 16.433 16.0431 16.0425Z" fill="currentColor"/><path d="M11.0002 19.7496C15.8327 19.7496 19.7502 15.832 19.7502 10.9996C19.7502 6.16707 15.8327 2.24956 11.0002 2.24956C6.16769 2.24956 2.25018 6.16707 2.25018 10.9996C2.25018 15.832 6.16769 19.7496 11.0002 19.7496ZM9.80487 14.0923C9.47744 14.5368 8.85206 14.6324 8.40741 14.3052V14.3042H8.40643L8.40448 14.3023C8.40291 14.3011 8.40036 14.2994 8.39764 14.2974C8.39217 14.2934 8.38398 14.2881 8.37421 14.2808C8.35434 14.266 8.32604 14.2444 8.29022 14.2173C8.21828 14.163 8.1162 14.0849 7.99432 13.9898C7.75161 13.8004 7.42479 13.5379 7.09491 13.2515C6.77006 12.9695 6.41909 12.6444 6.14178 12.3306C6.00412 12.1748 5.86292 11.9975 5.75116 11.8121C5.66781 11.6737 5.53808 11.4314 5.50702 11.1314L5.50018 10.9996L5.50702 10.8677C5.53809 10.5677 5.66781 10.3253 5.75116 10.1871C5.86293 10.0017 6.00412 9.8243 6.14178 9.6685C6.41911 9.35471 6.77006 9.02965 7.09491 8.7476C7.4248 8.46119 7.75161 8.19873 7.99432 8.00932C8.11621 7.91421 8.21829 7.83611 8.29022 7.78178C8.32605 7.75473 8.35434 7.73311 8.37421 7.71831C8.38397 7.71103 8.39218 7.70575 8.39764 7.70171C8.40036 7.6997 8.40292 7.69797 8.40448 7.69682L8.40643 7.69487H8.40741V7.69389C8.85206 7.36678 9.47843 7.46229 9.80585 7.90678C10.133 8.35144 10.0375 8.9778 9.59296 9.30522L9.59198 9.30424V9.30522C9.59114 9.30584 9.58981 9.30686 9.58807 9.30815C9.58413 9.31108 9.5778 9.31565 9.56952 9.32182C9.55284 9.33425 9.52759 9.3531 9.4953 9.37749C9.43057 9.42638 9.33715 9.49781 9.22479 9.58549C8.99881 9.76185 8.70047 10.0012 8.40546 10.2574C8.10554 10.5178 7.83118 10.7762 7.63983 10.9927C7.63786 10.9949 7.6359 10.9974 7.63397 10.9996C7.6359 11.0018 7.63787 11.0042 7.63983 11.0064C7.83117 11.2229 8.10554 11.4813 8.40546 11.7417C8.70046 11.9979 8.9988 12.2373 9.22479 12.4136C9.33714 12.5013 9.43056 12.5727 9.4953 12.6216C9.52758 12.646 9.55283 12.6649 9.56952 12.6773C9.57779 12.6835 9.58411 12.688 9.58807 12.691L9.59198 12.6939H9.59296C10.0376 13.0214 10.1323 13.6476 9.80487 14.0923ZM13.593 14.3052C13.1483 14.6324 12.5229 14.5368 12.1955 14.0923C11.868 13.6476 11.9627 13.0214 12.4074 12.6939H12.4084L12.4123 12.691C12.4163 12.688 12.4226 12.6835 12.4308 12.6773C12.4475 12.6649 12.4728 12.646 12.5051 12.6216C12.5698 12.5727 12.6632 12.5013 12.7756 12.4136C13.0016 12.2373 13.2999 11.9979 13.5949 11.7417C13.8948 11.4813 14.1692 11.2229 14.3605 11.0064C14.3625 11.0042 14.3645 11.0018 14.3664 10.9996C14.3645 10.9974 14.3625 10.9949 14.3605 10.9927C14.1692 10.7762 13.8948 10.5178 13.5949 10.2574C13.2999 10.0012 13.0016 9.76185 12.7756 9.58549C12.6632 9.49781 12.5698 9.42638 12.5051 9.37749C12.4728 9.3531 12.4475 9.33425 12.4308 9.32182C12.4226 9.31565 12.4162 9.31108 12.4123 9.30815L12.4074 9.30522C11.9629 8.97779 11.8674 8.35144 12.1945 7.90678C12.5219 7.46229 13.1483 7.36677 13.593 7.69389V7.69487H13.5939L13.5959 7.69682C13.5974 7.69797 13.6 7.6997 13.6027 7.70171C13.6082 7.70575 13.6164 7.71104 13.6262 7.71831C13.646 7.73311 13.6743 7.75473 13.7101 7.78178C13.7821 7.83611 13.8842 7.91421 14.006 8.00932C14.2488 8.19873 14.5756 8.46119 14.9055 8.7476C15.2303 9.02965 15.5813 9.35471 15.8586 9.6685C15.9962 9.8243 16.1374 10.0017 16.2492 10.1871C16.3326 10.3253 16.4623 10.5677 16.4933 10.8677L16.5002 10.9996L16.4933 11.1314C16.4623 11.4314 16.3326 11.6737 16.2492 11.8121C16.1374 11.9974 15.9962 12.1748 15.8586 12.3306C15.5813 12.6444 15.2303 12.9695 14.9055 13.2515C14.5756 13.5379 14.2488 13.8004 14.006 13.9898C13.8842 14.0849 13.7821 14.163 13.7101 14.2173C13.6743 14.2444 13.646 14.266 13.6262 14.2808C13.6164 14.2881 13.6082 14.2934 13.6027 14.2974C13.6 14.2994 13.5975 14.3011 13.5959 14.3023L13.5939 14.3042H13.593V14.3052Z" fill="currentColor"/></svg>
