<svg xmlns="http://www.w3.org/2000/svg" viewBox="0 0 24 24" fill="none"><path opacity="0.4" d="M3.99965 4.07994C3.99965 3.44569 4.4839 3.00012 4.99831 3.00012C5.5506 3.00012 5.99831 2.55241 5.99831 2.00012C5.99831 1.44784 5.5506 1.00012 4.99831 1.00012C3.30506 1.00012 1.99965 2.41689 1.99965 4.07994C1.99965 4.13535 1.99927 4.19281 1.99889 4.25209L1.99889 4.25209C1.99333 5.10205 1.98532 6.32721 3.04678 7.30173L4.43224 10.7728L4.43225 10.7728C4.7269 11.5107 4.95033 12.0703 5.33046 12.541C5.71059 13.0118 6.21053 13.348 6.86982 13.7915L8.41125 14.8296C8.74611 15.0551 9.18374 15.0571 9.52069 14.8348L11.0901 13.7991C11.7643 13.3547 12.2756 13.0177 12.664 12.5413C13.0524 12.0648 13.2795 11.4961 13.5789 10.7462L14.9543 7.30013C16.0139 6.32589 16.006 5.10167 16.0004 4.25218L16.0004 4.25174C16 4.19273 15.9996 4.13533 15.9996 4.08015C15.9996 2.41698 14.6941 1.00012 13.0008 1.00012C12.4485 1.00012 12.0008 1.44784 12.0008 2.00012C12.0008 2.55241 12.4485 3.00012 13.0008 3.00012C13.5153 3.00012 13.9996 3.44579 13.9996 4.08015C13.9996 5.12571 13.9827 5.48005 13.5954 5.83259C12.3204 6.99321 11.4335 7.79803 10.6826 8.3241C9.95394 8.83456 9.4651 9.00012 8.99965 9.00012C8.5342 9.00012 8.04536 8.83456 7.31674 8.3241C6.56583 7.79803 5.67886 6.99321 4.40388 5.83259C4.01656 5.48001 3.99965 5.12564 3.99965 4.07994Z" fill="currentColor"/><path opacity="0.4" d="M14 13.0001C14 10.791 15.7909 9.00012 18 9.00012C20.2091 9.00012 22 10.791 22 13.0001C22 15.2093 20.2091 17.0001 18 17.0001C15.7909 17.0001 14 15.2093 14 13.0001Z" fill="currentColor"/><path d="M19.5 13.0001C19.5 13.8285 18.8314 14.5001 18.0067 14.5001L17.9933 14.5001C17.1686 14.5001 16.5 13.8285 16.5 13.0001C16.5 12.1717 17.1686 11.5001 17.9933 11.5001L18.0067 11.5001C18.8314 11.5001 19.5 12.1717 19.5 13.0001Z" fill="currentColor" fill-rule="evenodd" clip-rule="evenodd"/><path d="M9.52051 14.8361C9.18361 15.0583 8.74592 15.0566 8.41113 14.8312L8 14.5538V17.5011C8.00001 20.5387 10.4624 23.0009 13.5 23.0011C16.5377 23.0011 19.001 20.5388 19.001 17.5011V16.8732C18.681 16.9556 18.3457 17.0001 18 17.0001C17.655 17.0001 17.3203 16.9563 17.001 16.8741V17.5011C17.001 19.4343 15.4332 21.0011 13.5 21.0011C11.567 21.0009 10 19.4342 10 17.5011V14.5197L9.52051 14.8361Z" fill="currentColor"/></svg>
