<svg xmlns="http://www.w3.org/2000/svg" viewBox="0 0 24 24" fill="none"><path opacity="0.4" d="M12 1.25C6.06294 1.25 1.25 6.06294 1.25 12C1.25 17.9371 6.06294 22.75 12 22.75C17.9371 22.75 22.75 17.9371 22.75 12C22.75 6.06294 17.9371 1.25 12 1.25ZM12 20C16.4183 20 20 16.4183 20 12C20 7.58172 16.4183 4 12 4C7.58172 4 4 7.58172 4 12C4 16.4183 7.58172 20 12 20Z" fill="currentColor" fill-rule="evenodd" clip-rule="evenodd"/><path d="M12 10C14.334 10 16.566 10.238 18.6191 10.6719C18.7048 11.1013 18.75 11.5454 18.75 12C18.75 12.9168 18.5674 13.7909 18.2363 14.5879C16.6451 15.3471 15.3471 16.6451 14.5879 18.2363C13.7909 18.5674 12.9168 18.75 12 18.75C11.0832 18.75 10.2091 18.5674 9.41211 18.2363C8.65289 16.6451 7.35492 15.3471 5.76367 14.5879C5.43259 13.7909 5.25 12.9168 5.25 12C5.25 11.5454 5.29517 11.1013 5.38086 10.6719C7.43399 10.238 9.66605 10 12 10ZM12 12.5C11.1716 12.5 10.5 13.1716 10.5 14C10.5 14.8284 11.1716 15.5 12 15.5H12.0088C12.8372 15.5 13.5088 14.8284 13.5088 14C13.5088 13.1716 12.8372 12.5 12.0088 12.5H12Z" fill="currentColor"/></svg>
