<svg xmlns="http://www.w3.org/2000/svg" viewBox="0 0 24 24" fill="none"><path opacity="0.4" d="M18.7959 1.5312L13.1924 1.25484C12.1015 1.20099 11.038 1.61042 10.2656 2.38277L2.68751 9.96187C0.771068 11.8786 0.770917 14.9857 2.68751 16.9023L7.09767 21.3125C9.01426 23.229 12.1214 23.2289 14.0381 21.3125L21.6172 13.7343C22.3895 12.962 22.799 11.8985 22.7451 10.8076L22.4688 5.20405C22.3706 3.21771 20.7822 1.62937 18.7959 1.5312Z" fill="currentColor"/><path d="M10.9767 8.50014C11.529 8.49724 11.9797 8.94298 11.9826 9.49525L11.9904 11.2374L13.467 10.3497C13.9402 10.0652 14.5544 10.2183 14.839 10.6915C15.1235 11.1648 14.9704 11.779 14.4972 12.0636L12.9797 12.9757L14.4943 13.837C14.9744 14.1101 15.1424 14.7213 14.8693 15.2013C14.5961 15.6811 13.9859 15.8483 13.506 15.5753L12.0089 14.7238L12.0187 16.4953C12.0214 17.0472 11.5765 17.497 11.0246 17.5001C10.4723 17.503 10.0216 17.0573 10.0187 16.505L10.0089 14.7628L8.53434 15.6505C8.06108 15.9352 7.44695 15.782 7.16227 15.3087C6.87777 14.8355 7.03001 14.2213 7.50309 13.9367L9.01969 13.0236L7.50602 12.1632C7.02595 11.8902 6.85797 11.279 7.13102 10.799C7.40406 10.3192 8.01437 10.1513 8.4943 10.424L9.99137 11.2755L9.98258 9.50502C9.97988 8.95298 10.4247 8.50315 10.9767 8.50014Z" fill="currentColor"/><path d="M18.0001 5.00012C18.5524 5.00012 19.0001 5.44784 19.0001 6.00012C19.0001 6.55241 18.5524 7.00012 18.0001 7.00012C17.4478 7.00012 17.0001 6.55241 17.0001 6.00012C17.0001 5.44784 17.4478 5.00012 18.0001 5.00012Z" fill="currentColor"/></svg>
