<svg xmlns="http://www.w3.org/2000/svg" viewBox="0 0 24 24" fill="none"><path d="M7.09765 21.3126C9.01425 23.229 12.1214 23.2289 14.0381 21.3126L21.6172 13.7344C22.3895 12.9621 22.7989 11.8986 22.7451 10.8077L22.4687 5.20417C22.3706 3.21787 20.7822 1.62955 18.7959 1.53132L13.1924 1.25496C12.1014 1.20111 11.038 1.61054 10.2656 2.38288L2.6875 9.96199C0.771083 11.8787 0.770912 14.9858 2.6875 16.9024L7.09765 21.3126ZM18 7.00007C17.4477 7.00007 17 6.55236 17 6.00007C17 5.44779 17.4477 5.00007 18 5.00007C18.5523 5.00007 19 5.44779 19 6.00007C19 6.55236 18.5523 7.00007 18 7.00007ZM11.0244 17.5001C10.4721 17.5029 10.0214 17.0572 10.0186 16.505L10.0088 14.7628L8.53418 15.6505C8.06092 15.9351 7.44678 15.7819 7.16211 15.3087C6.87763 14.8355 7.02988 14.2213 7.50293 13.9366L9.01953 13.0235L7.50586 12.1632C7.02582 11.8901 6.85782 11.279 7.13086 10.7989C7.40389 10.3192 8.01421 10.1512 8.49414 10.4239L9.99121 11.2755L9.98242 9.50496C9.97972 8.95293 10.4245 8.5031 10.9766 8.50007C11.5288 8.49718 11.9795 8.94292 11.9824 9.49519L11.9902 11.2374L13.4668 10.3497C13.94 10.0651 14.5542 10.2183 14.8389 10.6915C15.1233 11.1647 14.9702 11.7789 14.4971 12.0635L12.9795 12.9757L14.4941 13.837C14.9742 14.1101 15.1422 14.7212 14.8691 15.2012C14.596 15.681 13.9858 15.8482 13.5059 15.5753L12.0088 14.7237L12.0186 16.4952C12.0213 17.0471 11.5763 17.4969 11.0244 17.5001Z" fill="currentColor" fill-rule="evenodd" clip-rule="evenodd"/></svg>
