<svg xmlns="http://www.w3.org/2000/svg" viewBox="0 0 24 24" fill="none"><path d="M17.7501 14.75C17.7501 13.6454 16.8547 12.75 15.7501 12.75C14.6455 12.75 13.7501 13.6454 13.7501 14.75C13.7501 15.8546 14.6455 16.75 15.7501 16.75C16.8547 16.75 17.7501 15.8546 17.7501 14.75ZM19.7501 14.75C19.7501 15.4917 19.5472 16.1858 19.1954 16.7812L21.4571 19.043C21.8476 19.4335 21.8476 20.0665 21.4571 20.457C21.0666 20.8476 20.4336 20.8476 20.0431 20.457L17.7813 18.1953C17.1859 18.5471 16.4918 18.75 15.7501 18.75C13.541 18.75 11.7501 16.9591 11.7501 14.75C11.7501 12.5409 13.541 10.75 15.7501 10.75C17.9592 10.75 19.7501 12.5409 19.7501 14.75Z" fill="currentColor"/><path opacity="0.4" d="M14.9589 1.25L14.956 1.25H8.99997L8.99243 1.25C7.67354 1.24998 6.58593 1.24996 5.72556 1.36621C4.82362 1.48814 4.02743 1.7544 3.38962 2.39551C2.75174 3.03671 2.48746 3.8374 2.36618 4.74414C2.25033 5.61062 2.24995 6.70606 2.24997 8.03516V19.8184C2.25007 21.4375 3.55619 22.75 5.16696 22.75H18.7773C19.3143 22.75 19.75 22.3122 19.75 21.7725C19.75 21.7692 19.749 21.766 19.749 21.7627C19.5366 21.657 19.3362 21.5179 19.1591 21.3408L18.6123 20.7939H5.16696C4.63011 20.7939 4.19445 20.357 4.19431 19.8174C4.19431 19.2777 4.63002 18.8398 5.16696 18.8398H12.4599C11.2652 17.8775 10.5 16.4035 10.5 14.75C10.5 11.8505 12.8505 9.50007 15.75 9.5C17.3523 9.5 18.787 10.218 19.75 11.3496V6.06836C19.75 5.20363 19.7497 4.45822 19.6699 3.86133C19.5842 3.22092 19.3907 2.60734 18.8955 2.10938C18.4001 1.61138 17.7895 1.41623 17.1523 1.33008C16.559 1.2499 15.8182 1.24995 14.9589 1.25Z" fill="currentColor"/></svg>
