<svg xmlns="http://www.w3.org/2000/svg" viewBox="0 0 24 24" fill="none"><path d="M17.7496 14.75C17.7496 13.6454 16.8542 12.75 15.7496 12.75C14.645 12.75 13.7496 13.6454 13.7496 14.75C13.7496 15.8546 14.645 16.75 15.7496 16.75C16.8542 16.75 17.7496 15.8546 17.7496 14.75ZM19.7496 14.75C19.7496 15.4917 19.5468 16.1858 19.1949 16.7812L21.4566 19.043C21.8472 19.4335 21.8472 20.0665 21.4566 20.457C21.0661 20.8476 20.4331 20.8476 20.0426 20.457L17.7809 18.1953C17.1854 18.5471 16.4913 18.75 15.7496 18.75C13.5405 18.75 11.7496 16.9591 11.7496 14.75C11.7496 12.5409 13.5405 10.75 15.7496 10.75C17.9587 10.75 19.7496 12.5409 19.7496 14.75Z" fill="currentColor"/><path d="M14.9584 1.25L14.9555 1.25H8.99948L8.99194 1.25C7.67305 1.24998 6.58544 1.24996 5.72507 1.36621C4.82313 1.48814 4.02695 1.7544 3.38913 2.39551C2.75125 3.03671 2.48697 3.8374 2.36569 4.74414C2.24984 5.61062 2.24946 6.70606 2.24948 8.03516V19.8184C2.24958 21.4375 3.5557 22.75 5.16647 22.75H18.7768C19.3138 22.75 19.7495 22.3122 19.7495 21.7725C19.7495 21.7692 19.7485 21.766 19.7485 21.7627C19.5361 21.657 19.3357 21.5179 19.1587 21.3408L18.6118 20.7939H5.16647C4.62962 20.7939 4.19396 20.357 4.19382 19.8174C4.19382 19.2777 4.62953 18.8398 5.16647 18.8398H12.4594C11.2647 17.8775 10.4995 16.4035 10.4995 14.75C10.4995 11.8505 12.85 9.50007 15.7495 9.5C17.3518 9.5 18.7865 10.218 19.7495 11.3496V6.06836C19.7495 5.20363 19.7492 4.45822 19.6694 3.86133C19.5837 3.22092 19.3902 2.60734 18.895 2.10938C18.3996 1.61138 17.789 1.41623 17.1518 1.33008C16.5585 1.2499 15.8177 1.24995 14.9584 1.25Z" fill="currentColor"/></svg>
