<svg xmlns="http://www.w3.org/2000/svg" viewBox="0 0 24 24" fill="none"><path opacity="0.4" d="M17.8927 1.24964C18.5472 1.24964 19.1355 1.2473 19.6085 1.31117C20.1093 1.37882 20.6232 1.53683 21.044 1.95961C21.4646 2.38232 21.6212 2.89804 21.6886 3.40101C21.7522 3.87627 21.7501 4.46703 21.7501 5.12464V11.9059C21.7501 12.4408 21.3186 12.8744 20.7862 12.8746H20.6964C20.6663 12.9103 20.634 12.9493 20.6026 12.9928C20.4366 13.2232 20.3038 13.5125 20.3038 13.8434C20.3038 14.1743 20.4366 14.4635 20.6026 14.694C20.634 14.7375 20.6663 14.7765 20.6964 14.8121H20.7862C21.3186 14.8124 21.7501 15.246 21.7501 15.7809C21.7501 16.3158 21.3186 16.7494 20.7862 16.7496H11.1427C9.54512 16.7495 8.25009 15.4484 8.25009 13.8434V4.15589C8.2501 2.55092 9.54512 1.24979 11.1427 1.24964H17.8927ZM11.1427 12.8746C10.6102 12.8748 10.1788 13.3085 10.1788 13.8434C10.1788 14.3783 10.6102 14.812 11.1427 14.8121H18.5265C18.4353 14.5231 18.3751 14.1993 18.3751 13.8434C18.3751 13.4875 18.4353 13.1637 18.5265 12.8746H11.1427Z" fill="currentColor" fill-rule="evenodd" clip-rule="evenodd"/><path d="M7.00009 7.24963V18.8746H5.14267C4.61025 18.8748 4.17881 19.3085 4.1788 19.8434C4.1788 20.3783 4.61025 20.812 5.14267 20.8121H12.5265C12.4353 20.5231 12.3751 20.1993 12.3751 19.8434C12.3751 19.4875 12.4353 19.1637 12.5265 18.8746H14.6964C14.6663 18.9103 14.634 18.9493 14.6026 18.9928C14.4366 19.2232 14.3038 19.5125 14.3038 19.8434C14.3038 20.1743 14.4366 20.4635 14.6026 20.694C14.634 20.7375 14.6663 20.7765 14.6964 20.8121H14.7862C15.3186 20.8124 15.7501 21.246 15.7501 21.7809C15.7501 22.3158 15.3186 22.7494 14.7862 22.7496H5.14267C3.54512 22.7495 2.25009 21.4484 2.25009 19.8434V10.1559C2.25011 8.55091 3.54513 7.24978 5.14267 7.24963H7.00009Z" fill="currentColor"/></svg>
