<svg xmlns="http://www.w3.org/2000/svg" viewBox="0 0 24 24" fill="none"><path d="M2.00959 20.9494C3.17894 22.1636 5.1281 21.9668 6.05256 20.5636L8.3426 17.0881C8.80097 16.3924 9.01909 16.3451 9.0467 16.3429C9.08253 16.3402 9.30003 16.362 9.85432 16.9377C9.97416 17.0622 10.2113 17.3366 10.3602 17.509C10.5507 17.7286 10.7698 17.9764 11.0086 18.2052C11.4619 18.6397 12.1216 19.1425 12.9559 19.133C13.5204 19.1264 13.9707 18.8769 14.3709 18.548C14.7434 18.2419 15.1486 17.8021 15.619 17.2912C18.4212 14.2481 20.4408 11.7628 21.6697 10.1115C21.9774 9.69827 22.254 9.32581 22.4412 8.97868C22.6505 8.59062 22.7751 8.1886 22.7459 7.71208C22.7282 7.424 22.6295 7.1355 22.5154 6.882C22.397 6.61872 22.2382 6.34247 22.0574 6.06755C21.6958 5.51752 21.2157 4.92733 20.699 4.38591C20.1831 3.84524 19.6116 3.3326 19.0613 2.94938C18.5498 2.59318 17.9203 2.25017 17.3201 2.25017C16.7599 2.25019 16.3082 2.49547 15.9041 2.8156C15.5251 3.1159 15.1074 3.54952 14.6199 4.05583L2.00959 17.1515C0.996804 18.2033 0.996803 19.8976 2.00959 20.9494ZM17.9949 9.00017C17.4453 8.99994 16.9998 8.55231 16.9998 8.00017C16.9998 7.44802 17.4453 7.00039 17.9949 7.00017H18.0047C18.5543 7.00039 18.9998 7.44802 18.9998 8.00017C18.9998 8.55231 18.5543 8.99994 18.0047 9.00017H17.9949Z" fill="currentColor" fill-rule="evenodd" clip-rule="evenodd"/></svg>
