<svg xmlns="http://www.w3.org/2000/svg" viewBox="0 0 24 24" fill="none"><path opacity="0.4" d="M18.0527 5.25183C18.9504 5.2518 19.701 5.25198 20.2969 5.33386C20.9276 5.42056 21.4955 5.61132 21.9502 6.07605C22.4026 6.53847 22.5861 7.11219 22.6699 7.7489C22.7496 8.35463 22.75 9.11899 22.75 10.0389V16.8818C22.75 17.8015 22.7496 18.5652 22.6699 19.1708C22.5861 19.8077 22.4027 20.3821 21.9502 20.8447C21.4955 21.3093 20.9275 21.5002 20.2969 21.5868C19.701 21.6687 18.9504 21.6689 18.0527 21.6689H15.8594C15.7991 21.6688 15.7502 21.6198 15.75 21.5595V5.42273C15.7501 5.3284 15.8266 5.25207 15.9209 5.25183H18.0527ZM6.54492 2.55261C6.81982 2.42565 6.95754 2.36216 7.08789 2.42957C7.10275 2.43726 7.12051 2.44858 7.13379 2.45886C7.24964 2.54894 7.25 2.71336 7.25 3.0409V18.3954C7.25 18.5844 7.2497 18.6791 7.20605 18.7509C7.16229 18.8228 7.07166 18.8703 6.89062 18.9638C6.65444 19.0858 6.4011 19.2323 6.11816 19.3964C5.49925 19.7555 4.92784 20.0879 4.50195 20.2802C4.07118 20.4747 3.60343 20.6221 3.11035 20.5341C2.57715 20.439 2.09846 20.1526 1.75879 19.7314C1.44731 19.3449 1.34377 18.8665 1.29688 18.3906C1.25046 17.9191 1.24999 17.3159 1.25 16.5868V8.34753C1.24999 7.79665 1.24967 7.33047 1.28711 6.94421C1.32692 6.53391 1.41354 6.15448 1.62012 5.79187C1.82717 5.42855 2.10819 5.16265 2.44043 4.92273C2.75206 4.6977 3.15106 4.46767 3.61914 4.19616L4.90723 3.44812C5.55422 3.07279 6.08413 2.76544 6.54492 2.55261Z" fill="currentColor"/><path d="M8.75 18.2658C8.75 18.4684 8.75 18.5697 8.7977 18.6438C8.84539 18.718 8.94451 18.7631 9.14275 18.8535C9.36402 18.9543 9.64479 19.0923 10.0237 19.2807L13.8376 21.177C14.0293 21.2725 14.25 21.133 14.25 20.9189V5.16182C14.25 4.98097 14.25 4.89055 14.205 4.81795C14.16 4.74535 14.0791 4.70509 13.9171 4.62457L11.1426 3.24498C10.4736 2.91233 9.92553 2.63981 9.45232 2.45723C9.16027 2.34455 9.01425 2.28821 8.88544 2.37272C8.88226 2.37481 8.87831 2.37752 8.87522 2.37973C8.75 2.46949 8.75 2.63848 8.75 2.97647L8.75 18.2658Z" fill="currentColor"/></svg>
