<svg xmlns="http://www.w3.org/2000/svg" viewBox="0 0 24 24" fill="none"><path opacity="0.4" d="M12 1.25C17.9371 1.25 22.75 6.06294 22.75 12C22.75 17.9371 17.9371 22.75 12 22.75C6.06294 22.75 1.25 17.9371 1.25 12C1.25 6.06294 6.06294 1.25 12 1.25Z" fill="currentColor"/><path d="M17.5 12C17.5 15.0376 15.0376 17.5 12 17.5C8.96243 17.5 6.5 15.0376 6.5 12C6.5 8.96243 8.96243 6.5 12 6.5C15.0376 6.5 17.5 8.96243 17.5 12ZM19.5 12C19.5 7.85786 16.1421 4.5 12 4.5C7.85786 4.5 4.5 7.85786 4.5 12C4.5 16.1421 7.85786 19.5 12 19.5C16.1421 19.5 19.5 16.1421 19.5 12Z" fill="currentColor"/><path d="M12 10C13.1046 10 14 10.8954 14 12C14 13.1046 13.1046 14 12 14C10.8954 14 10 13.1046 10 12C10 10.8954 10.8954 10 12 10Z" fill="currentColor"/></svg>
