<svg xmlns="http://www.w3.org/2000/svg" viewBox="0 0 24 24" fill="none"><path d="M1.25006 12.0556V6.22222C1.25006 5.68528 1.68534 5.25 2.22228 5.25C2.75923 5.25 3.19451 5.68528 3.19451 6.22222V12.0556C3.19451 14.3746 3.19627 16.0165 3.36351 17.2604C3.52699 18.4762 3.8327 19.1661 4.33383 19.6672C4.83489 20.1681 5.52429 20.4731 6.7397 20.6366C7.98361 20.8038 9.62548 20.8056 11.9445 20.8056H17.7778C18.3147 20.8056 18.75 21.2409 18.7501 21.7778C18.7501 22.3147 18.3148 22.75 17.7778 22.75H11.9445C9.68071 22.75 7.88497 22.7525 6.48145 22.5639C5.05009 22.3715 3.88163 21.9643 2.95905 21.042C2.03648 20.1194 1.62959 18.951 1.4371 17.5196C1.24839 16.116 1.25006 14.3196 1.25006 12.0556Z" fill="currentColor"/><path opacity="0.4" d="M22.7501 12.0645V12V7.12114C22.7501 6.29843 22.7568 5.74218 22.6065 5.21489C22.5277 4.93824 22.4172 4.67137 22.2774 4.41997C22.0108 3.94075 21.6122 3.55167 21.0303 2.96977C20.4484 2.38787 20.0594 1.98932 19.5801 1.7227C19.3287 1.58288 19.0619 1.47246 18.7852 1.3936C18.2579 1.24334 17.7017 1.25004 16.879 1.25005H12.0001L11.9356 1.25004C10.5726 1.25002 9.47338 1.24999 8.60846 1.36626C7.70835 1.48727 6.95061 1.74676 6.3487 2.34868C5.74678 2.95059 5.48729 3.70834 5.36627 4.60844C5.25001 5.47337 5.25003 6.57257 5.25006 7.93566V8.00005V12V12.0644C5.25003 13.4275 5.25001 14.5267 5.36627 15.3916C5.48729 16.2918 5.74678 17.0495 6.3487 17.6514C6.95061 18.2533 7.70835 18.5128 8.60846 18.6338C9.47337 18.7501 10.5725 18.7501 11.9356 18.75H12.0001H16.0001H16.0646C17.4276 18.7501 18.5268 18.7501 19.3917 18.6338C20.2918 18.5128 21.0495 18.2533 21.6514 17.6514C22.2533 17.0495 22.5128 16.2918 22.6339 15.3916C22.7501 14.5267 22.7501 13.4276 22.7501 12.0645Z" fill="currentColor"/><path d="M14.0469 10.25C14.9477 10.25 15.6991 10.25 16.295 10.3301C16.9226 10.4145 17.489 10.6003 17.9444 11.0557C18.3997 11.511 18.5855 12.0775 18.67 12.7051C18.7501 13.301 18.7501 14.0524 18.7501 14.9532V18.6963C18.0014 18.7489 17.1107 18.7501 16.0645 18.75H11.9356C10.8894 18.7501 9.99873 18.7489 9.25006 18.6963V14.9532C9.25004 14.0524 9.25002 13.301 9.33014 12.7051C9.41458 12.0775 9.60037 11.511 10.0557 11.0557C10.5111 10.6003 11.0775 10.4145 11.7051 10.3301C12.3011 10.25 13.0524 10.25 13.9532 10.25H14.0469Z" fill="currentColor"/><path d="M16.879 1.25003C17.6835 1.25003 18.233 1.24454 18.7501 1.38479V2.04495C18.7501 2.94619 18.7501 3.69779 18.67 4.29397C18.5856 4.92176 18.3999 5.4889 17.9444 5.94437C17.489 6.39966 16.9226 6.58553 16.295 6.66995C15.6991 6.75007 14.9477 6.75005 14.0469 6.75003H13.9532C13.0524 6.75005 12.3011 6.75007 11.7051 6.66995C11.0776 6.58553 10.5111 6.39966 10.0557 5.94437C9.60027 5.4889 9.41454 4.92176 9.33014 4.29397C9.25002 3.69778 9.25004 2.9462 9.25006 2.04495V1.30276C9.99873 1.2502 10.8894 1.25001 11.9356 1.25003H16.879Z" fill="currentColor"/></svg>
