<svg xmlns="http://www.w3.org/2000/svg" fill="none" viewBox="0 0 48 48">
  <g>
    <path fill="currentColor" fill-rule="evenodd" d="M28.1027 12.8321c-0.5889 0.0336 -1.2735 0.0613 -2.0682 0.079v12.5463c0.3739 -0.132 0.7656 -0.229 1.1714 -0.287l7.2543 -1.0363c1.0023 -0.1432 1.7468 -1.0016 1.7468 -2.0141v-0.08c-1.9677 -0.2014 -3.4587 -1.7782 -3.5307 -3.7881 -0.0179 -0.4995 -0.0296 -1.0837 -0.0296 -1.7581s0.0117 -1.2587 0.0296 -1.7581c0.0752 -2.103 1.7042 -3.7319 3.8071 -3.8072 0.4995 -0.0179 1.0837 -0.0296 1.7581 -0.0296s1.2587 0.0117 1.7582 0.0296c2.1029 0.0753 3.7319 1.7042 3.8071 3.8072 0.0179 0.4994 0.0296 1.0836 0.0296 1.7581s-0.0117 1.2586 -0.0296 1.7581c-0.072 2.0099 -1.563 3.5867 -3.5307 3.7882v0.0799c0 3.0374 -2.2335 5.6126 -5.2404 6.0422l-7.2544 1.0364c-1.0015 0.143 -1.7456 1.0001 -1.7468 2.0115v3.4045c2.6564 0.8582 4.5776 3.3514 4.5776 6.2933 0 3.6518 -2.9603 6.6121 -6.6121 6.6121s-6.6121 -2.9603 -6.6121 -6.6121c0 -2.9419 1.9213 -5.4351 4.5776 -6.2933v-0.3502c0 -1.0125 -0.7445 -1.8709 -1.7468 -2.0141l-7.2544 -1.0363c-2.8012 -0.4002 -4.9311 -2.6624 -5.2094 -5.4258 -2.1004 -0.8057 -3.5913 -2.8415 -3.5913 -5.2254 0 -3.09 2.5049 -5.5949 5.5949 -5.5949s5.5949 2.5049 5.5949 5.5949c0 2.3411 -1.4379 4.3463 -3.4787 5.1809 0.2192 0.7488 0.8586 1.327 1.6651 1.4421l7.2543 1.0364c0.4058 0.058 0.7975 0.1549 1.1714 0.287V12.9111c-0.795 -0.0177 -1.48 -0.0454 -2.069 -0.0791 -1.3248 -0.0756 -2.4773 -0.7492 -3.0528 -1.8842 -0.5717 -1.1276 -0.4419 -2.4499 0.2452 -3.5646 0.4603 -0.7467 1.0411 -1.6445 1.7693 -2.7046 0.8171 -1.1895 1.522 -2.0865 2.116 -2.7631C21.7677 1.0115 22.8426 0.4801 24 0.48c1.1573 -0.0001 2.2324 0.5313 3.0259 1.4353 0.594 0.6767 1.299 1.5738 2.1159 2.7634 0.728 1.0598 1.3085 1.9573 1.7687 2.7039 0.6872 1.1149 0.817 2.4373 0.2453 3.565 -0.5755 1.1351 -1.7282 1.8088 -3.0531 1.8845Z" clip-rule="evenodd" stroke-width="1"></path>
  </g>
</svg>
