<svg xmlns="http://www.w3.org/2000/svg" viewBox="0 0 24 24" fill="none"><path opacity="0.4" d="M12 22.75C17.9371 22.75 22.75 17.9371 22.75 12C22.75 6.06294 17.9371 1.25 12 1.25C6.06294 1.25 1.25 6.06294 1.25 12C1.25 17.9371 6.06294 22.75 12 22.75Z" fill="currentColor"/><path d="M17.75 10.5C17.75 8.98122 16.5188 7.75 15 7.75C13.4812 7.75 12.25 8.98122 12.25 10.5C12.25 12.0188 13.4812 13.25 15 13.25C16.5188 13.25 17.75 12.0188 17.75 10.5ZM19.25 19C19.25 19.476 19.2507 19.7955 19.2676 20.043C19.284 20.2837 19.3128 20.4014 19.3447 20.4785C19.4716 20.7848 19.7152 21.0284 20.0215 21.1553C20.0986 21.1872 20.2163 21.216 20.457 21.2324C20.7045 21.2493 21.024 21.25 21.5 21.25C21.9142 21.25 22.25 21.5858 22.25 22C22.25 22.4142 21.9142 22.75 21.5 22.75C21.0443 22.75 20.6649 22.7507 20.3545 22.7295C20.0374 22.7079 19.7376 22.6613 19.4473 22.541C18.7736 22.2619 18.2381 21.7264 17.959 21.0527C17.8387 20.7624 17.7921 20.4626 17.7705 20.1455C17.7493 19.8351 17.75 19.4557 17.75 19V13.7383C17.0086 14.3685 16.0493 14.75 15 14.75C12.6528 14.75 10.75 12.8472 10.75 10.5C10.75 8.15279 12.6528 6.25 15 6.25C17.3472 6.25 19.25 8.15279 19.25 10.5V19Z" fill="currentColor"/><path d="M8 9.25C8.41421 9.25 8.75 9.58579 8.75 10C8.75 10.4142 8.41421 10.75 8 10.75H6C5.58579 10.75 5.25 10.4142 5.25 10C5.25 9.58579 5.58579 9.25 6 9.25H8Z" fill="currentColor"/><path d="M15 9.5C15.5523 9.5 16 9.94772 16 10.5C16 11.0523 15.5523 11.5 15 11.5C14.4477 11.5 14 11.0523 14 10.5C14 9.94772 14.4477 9.5 15 9.5Z" fill="currentColor"/><path d="M7.54967 15.4003C7.88087 15.1516 8.35075 15.2185 8.59948 15.5497C9.37606 16.5836 10.6101 17.2499 11.9999 17.2499C12.4141 17.2499 12.7499 17.5857 12.7499 17.9999C12.7499 18.4141 12.4141 18.7499 11.9999 18.7499C10.1183 18.7499 8.44793 17.845 7.40026 16.4501C7.15159 16.1189 7.2185 15.649 7.54967 15.4003Z" fill="currentColor"/></svg>
