<svg xmlns="http://www.w3.org/2000/svg" viewBox="0 0 24 24" fill="none"><path d="M19.3457 20.4787C19.3137 20.4016 19.285 20.2839 19.2685 20.0432V19.9215C18.8507 20.305 18.4024 20.656 17.9277 20.9702C17.9378 20.9979 17.9486 21.0255 17.9599 21.053C18.2391 21.7266 18.7745 22.2621 19.4482 22.5412C19.7386 22.6615 20.0384 22.7081 20.3555 22.7297C20.6566 22.7503 21.0227 22.7502 21.4604 22.7502L21.501 22.7502C21.9152 22.7502 22.251 22.4144 22.251 22.0002C22.251 21.586 21.9152 21.2502 21.501 21.2502C21.0249 21.2502 20.7054 21.2495 20.458 21.2326C20.2173 21.2162 20.0996 21.1874 20.0224 21.1555C19.7162 21.0286 19.4726 20.785 19.3457 20.4787Z" fill="currentColor"/><path d="M12 22.7501C14.1915 22.7501 16.229 22.0929 17.9287 20.9669C17.8327 20.703 17.79 20.4318 17.7705 20.1456C17.7493 19.8352 17.75 19.4558 17.75 19.0001V13.7384C17.0086 14.3686 16.0493 14.7501 15 14.7501C12.6528 14.7501 10.75 12.8473 10.75 10.5001C10.75 8.15287 12.6528 6.25008 15 6.25008C17.3472 6.25008 19.25 8.15287 19.25 10.5001V19.0001C19.25 19.4032 19.2523 19.694 19.2627 19.9239C21.4056 17.9587 22.75 15.1368 22.75 12.0001C22.75 6.06301 17.9371 1.25008 12 1.25008C6.06294 1.25008 1.25 6.06301 1.25 12.0001C1.25 17.9371 6.06294 22.7501 12 22.7501ZM15 13.2501C16.5188 13.2501 17.75 12.0189 17.75 10.5001C17.75 8.98129 16.5188 7.75008 15 7.75008C13.4812 7.75008 12.25 8.98129 12.25 10.5001C12.25 12.0189 13.4812 13.2501 15 13.2501ZM6 10.7501C5.58579 10.7501 5.25 10.4143 5.25 10.0001C5.25 9.58586 5.58579 9.25008 6 9.25008H8C8.41421 9.25008 8.75 9.58586 8.75 10.0001C8.75 10.4143 8.41421 10.7501 8 10.7501H6ZM15 11.5001C14.4477 11.5001 14 11.0524 14 10.5001C14 9.94779 14.4477 9.50008 15 9.50008C15.5523 9.50008 16 9.94779 16 10.5001C16 11.0524 15.5523 11.5001 15 11.5001ZM12 18.7501C10.1185 18.7501 8.44807 17.8451 7.40039 16.4503C7.15172 16.1191 7.21863 15.6492 7.5498 15.4005C7.881 15.1518 8.35089 15.2187 8.59961 15.5499C9.37619 16.5837 10.6103 17.2501 12 17.2501C12.4142 17.2501 12.75 17.5859 12.75 18.0001C12.7499 18.4142 12.4141 18.75 12 18.7501Z" fill="currentColor"/></svg>
