<svg xmlns="http://www.w3.org/2000/svg" viewBox="0 0 24 24" fill="none"><path d="M19.9722 6C19.9722 5.55029 19.9718 5.25977 19.9575 5.03755C19.9437 4.82382 19.9198 4.74234 19.9045 4.70331C19.8143 4.4736 19.6413 4.29118 19.4236 4.19598C19.3458 4.16198 19.2 4.13013 18.632 4.12547C18.1411 4.12143 17.7462 3.69829 17.75 3.18042C17.7539 2.66257 18.155 2.246 18.6459 2.25003C19.1657 2.25429 19.6575 2.26822 20.1042 2.4634C20.7573 2.74894 21.2763 3.2963 21.5469 3.98536C21.6669 4.29099 21.7109 4.60098 21.7309 4.91026C21.7503 5.21105 21.75 5.57611 21.75 6C21.75 6.42399 21.7504 6.78893 21.7309 7.08974C21.7109 7.39893 21.6668 7.70818 21.5469 8.01372C21.2763 8.70293 20.7574 9.25105 20.1042 9.5366C19.6575 9.73178 19.1657 9.74571 18.6459 9.74997C18.1551 9.754 17.754 9.33727 17.75 8.81958C17.7462 8.30171 18.1411 7.87857 18.632 7.87453C19.2 7.86987 19.3458 7.83802 19.4236 7.80402C19.6413 7.70887 19.8143 7.52631 19.9045 7.29669C19.9198 7.25769 19.9436 7.17603 19.9575 6.96245C19.9718 6.74025 19.9722 6.44965 19.9722 6Z" fill="currentColor"/><path d="M13.9722 6C13.9722 5.55029 13.9718 5.25977 13.9575 5.03755C13.9437 4.82382 13.9198 4.74234 13.9045 4.70331C13.8143 4.4736 13.6413 4.29118 13.4236 4.19598C13.3458 4.16198 13.2 4.13013 12.632 4.12547C12.1411 4.12143 11.7462 3.69829 11.75 3.18042C11.7539 2.66257 12.155 2.246 12.6459 2.25003C13.1657 2.25429 13.6575 2.26822 14.1042 2.4634C14.7573 2.74894 15.2763 3.2963 15.5469 3.98536C15.6669 4.29099 15.7109 4.60098 15.7309 4.91026C15.7503 5.21105 15.75 5.57611 15.75 6C15.75 6.42399 15.7504 6.78893 15.7309 7.08974C15.7109 7.39893 15.6668 7.70818 15.5469 8.01372C15.2763 8.70293 14.7574 9.25105 14.1042 9.5366C13.6575 9.73178 13.1657 9.74571 12.6459 9.74997C12.1551 9.754 11.754 9.33727 11.75 8.81958C11.7462 8.30171 12.1411 7.87857 12.632 7.87453C13.2 7.86987 13.3458 7.83802 13.4236 7.80402C13.6413 7.70887 13.8143 7.52631 13.9045 7.29669C13.9198 7.25769 13.9436 7.17603 13.9575 6.96245C13.9718 6.74025 13.9722 6.44965 13.9722 6Z" fill="currentColor"/><path d="M2.25 13C2.25 12.4477 2.69772 12 3.25 12C3.80229 12 4.25 12.4477 4.25 13C4.25 13.7165 4.25032 14.1938 4.28028 14.5605C4.30924 14.9151 4.36072 15.0777 4.41309 15.1807C4.5569 15.4629 4.7871 15.6931 5.06934 15.8369C5.17228 15.8893 5.3349 15.9408 5.68946 15.9697C5.98012 15.9935 6.3403 15.9968 6.83399 15.998L6.54297 15.707C6.15245 15.3165 6.15245 14.6835 6.54297 14.293C6.9335 13.9024 7.56651 13.9024 7.95703 14.293L9.95703 16.293C10.3476 16.6835 10.3476 17.3165 9.95703 17.707L7.95703 19.707C7.56651 20.0976 6.9335 20.0976 6.54297 19.707C6.15245 19.3165 6.15245 18.6835 6.54297 18.293L6.83692 17.998C6.33222 17.9969 5.89606 17.9931 5.52637 17.9629C5.04772 17.9238 4.59294 17.8382 4.16114 17.6182C3.50262 17.2826 2.96739 16.7474 2.63184 16.0889C2.41182 15.6571 2.32623 15.2023 2.28711 14.7236C2.24895 14.2566 2.25 13.6836 2.25 13Z" fill="currentColor"/><path opacity="0.4" d="M9.75 6.04057L9.75 6L9.75 5.95944C9.75002 5.52175 9.75004 5.1556 9.72949 4.85449C9.70786 4.53744 9.66129 4.23762 9.54102 3.94727C9.26191 3.27359 8.72642 2.73809 8.05274 2.45899C7.76239 2.33872 7.46256 2.29215 7.14551 2.27051C6.8444 2.24997 6.47826 2.24998 6.04057 2.25L6 2.25L5.95943 2.25C5.52175 2.24998 5.1556 2.24997 4.85449 2.27051C4.53744 2.29215 4.23762 2.33872 3.94727 2.45899C3.27359 2.73809 2.73809 3.27359 2.45899 3.94727C2.33872 4.23762 2.29215 4.53744 2.27051 4.85449C2.24997 5.1556 2.24998 5.52175 2.25 5.95943L2.25 6L2.25 6.04057C2.24998 6.47826 2.24997 6.8444 2.27051 7.14551C2.29215 7.46256 2.33872 7.76239 2.45899 8.05274C2.73809 8.72642 3.27359 9.26191 3.94727 9.54102C4.23762 9.66129 4.53744 9.70786 4.85449 9.72949C5.1556 9.75004 5.52175 9.75002 5.95944 9.75L6 9.75L6.04057 9.75C6.47825 9.75002 6.8444 9.75004 7.14551 9.72949C7.46256 9.70786 7.76239 9.66129 8.05274 9.54102C8.72642 9.26191 9.26191 8.72642 9.54102 8.05274C9.66129 7.76239 9.70786 7.46256 9.72949 7.14551C9.75004 6.8444 9.75002 6.47825 9.75 6.04057Z" fill="currentColor"/><path opacity="0.4" d="M21.75 17.0528L21.75 17L21.75 16.9472C21.75 16.2835 21.75 15.7397 21.7139 15.2969C21.676 14.8336 21.5946 14.4152 21.3955 14.0244C21.084 13.413 20.587 12.9161 19.9756 12.6045C19.5849 12.4054 19.1664 12.324 18.7031 12.2861C18.2603 12.25 17.7165 12.25 17.0528 12.25L17 12.25L16.9472 12.25C16.2835 12.25 15.7397 12.25 15.2969 12.2861C14.8336 12.324 14.4152 12.4054 14.0244 12.6045C13.413 12.9161 12.9161 13.413 12.6045 14.0244C12.4054 14.4152 12.324 14.8336 12.2861 15.2969C12.25 15.7397 12.25 16.2835 12.25 16.9472L12.25 17L12.25 17.0528C12.25 17.7165 12.25 18.2603 12.2861 18.7031C12.324 19.1664 12.4054 19.5849 12.6045 19.9756C12.9161 20.587 13.413 21.084 14.0244 21.3955C14.4152 21.5946 14.8336 21.676 15.2969 21.7139C15.7397 21.75 16.2835 21.75 16.9472 21.75L17 21.75L17.0528 21.75C17.7165 21.75 18.2603 21.75 18.7031 21.7139C19.1664 21.676 19.5849 21.5946 19.9756 21.3955C20.587 21.084 21.084 20.587 21.3955 19.9756C21.5946 19.5849 21.676 19.1664 21.7139 18.7031C21.75 18.2603 21.75 17.7165 21.75 17.0528Z" fill="currentColor"/></svg>
