<svg xmlns="http://www.w3.org/2000/svg" viewBox="0 0 24 24" fill="none"><path opacity="0.4" d="M21.75 17.9533V17.918V10.9893V10.9725C21.75 10.1915 21.75 9.5551 21.7021 9.03125C21.6526 8.48893 21.5484 8.01326 21.3096 7.55762C21.0702 7.10121 20.7391 6.74613 20.3223 6.40137C19.9252 6.073 19.4122 5.72396 18.7859 5.29788L18.75 5.27344L14.6406 2.47754L14.6119 2.45798C14.1005 2.11003 13.6672 1.81519 13.2852 1.6123C12.8797 1.39702 12.4697 1.25 12 1.25C11.5303 1.25 11.1203 1.39702 10.7148 1.6123C10.3328 1.81519 9.89948 2.11003 9.38812 2.45798L9.35938 2.47754L5.25 5.27344L5.21408 5.29788C4.58783 5.72396 4.07481 6.073 3.67774 6.40137C3.26086 6.74613 2.92976 7.10121 2.69043 7.55762C2.4516 8.01326 2.3474 8.48893 2.29785 9.03125C2.25 9.55511 2.25 10.1915 2.25 10.9725V10.9893V17.918V17.9533C2.24999 18.8786 2.24998 19.6465 2.33008 20.2549C2.41388 20.891 2.59727 21.4647 3.04981 21.9268C3.50452 22.3908 4.07267 22.5814 4.70313 22.668C5.30122 22.75 6.05518 22.75 6.95752 22.75H7H17H17.0425C17.9448 22.75 18.6988 22.75 19.2969 22.668C19.9273 22.5814 20.4955 22.3908 20.9502 21.9268C21.4027 21.4647 21.5861 20.891 21.6699 20.2549C21.75 19.6465 21.75 18.8786 21.75 17.9533Z" fill="currentColor"/><path d="M17.7187 15.25C17.7071 15.056 17.6926 14.8742 17.6699 14.7051C17.5855 14.0775 17.3997 13.511 16.9443 13.0557C16.489 12.6003 15.9225 12.4145 15.2949 12.3301C14.699 12.25 13.9476 12.25 13.0469 12.25H10.9531C10.0523 12.25 9.30097 12.25 8.70506 12.3301C8.07745 12.4145 7.51101 12.6003 7.05565 13.0557C6.60029 13.511 6.4145 14.0775 6.33006 14.7051C6.30732 14.8742 6.2929 15.056 6.28123 15.25H17.7187Z" fill="currentColor"/><path d="M17.75 16.75H6.24998C6.24995 16.8169 6.24998 18.1814 6.24998 18.25H17.75V16.75Z" fill="currentColor"/><path d="M17.75 22.748V19.75H6.24998V22.748C6.47446 22.7497 6.71018 22.75 6.95702 22.75H17.043C17.2898 22.75 17.5255 22.7497 17.75 22.748Z" fill="currentColor"/><path d="M12 6C12.5523 6 13 6.44772 13 7C13 7.55229 12.5523 8 12 8C11.4477 8 11 7.55228 11 7C11 6.44772 11.4477 6 12 6Z" fill="currentColor"/></svg>
