<svg xmlns="http://www.w3.org/2000/svg" viewBox="0 0 24 24" fill="none"><path d="M17.75 22.749C18.3459 22.7446 18.8625 22.7276 19.2969 22.668C19.9273 22.5814 20.4955 22.3908 20.9502 21.9268C21.4027 21.4647 21.5861 20.891 21.6699 20.2549C21.75 19.6465 21.75 18.8784 21.75 17.9531V10.9727C21.75 10.1917 21.75 9.5551 21.7021 9.03125C21.6526 8.48893 21.5484 8.01326 21.3096 7.55762C21.0702 7.10121 20.7391 6.74613 20.3223 6.40137C19.9252 6.07302 19.4123 5.72389 18.7861 5.29785L18.75 5.27344L14.6406 2.47754L14.6123 2.45801C14.1009 2.11006 13.6672 1.81519 13.2852 1.6123C12.8797 1.39702 12.4697 1.25 12 1.25C11.5303 1.25 11.1203 1.39702 10.7148 1.6123C10.3328 1.81519 9.89906 2.11006 9.3877 2.45801L9.35938 2.47754L5.25 5.27344L5.21387 5.29785C4.58767 5.72389 4.07478 6.07302 3.67773 6.40137C3.26086 6.74613 2.92976 7.10121 2.69043 7.55762C2.4516 8.01326 2.3474 8.48893 2.29785 9.03125C2.24999 9.55511 2.25 10.1916 2.25 10.9727L2.25 17.9531C2.24999 18.8784 2.24998 19.6465 2.33008 20.2549C2.41388 20.891 2.59727 21.4647 3.0498 21.9268C3.50452 22.3908 4.07267 22.5814 4.70312 22.668C5.13749 22.7276 5.65407 22.7446 6.25 22.749L6.25 17C6.25 16.675 6.25056 16.3693 6.25391 16.083C6.25091 16.0558 6.25 16.028 6.25 16C6.25 15.9665 6.25259 15.9337 6.25684 15.9014C6.26498 15.4508 6.28348 15.0517 6.33008 14.7051C6.41451 14.0775 6.60031 13.511 7.05566 13.0557C7.51102 12.6003 8.07747 12.4145 8.70508 12.3301C9.3113 12.2486 10.0784 12.25 11 12.25H13C13.9216 12.25 14.6887 12.2486 15.2949 12.3301C15.9225 12.4145 16.489 12.6003 16.9443 13.0557C17.3997 13.511 17.5855 14.0775 17.6699 14.7051C17.7165 15.0516 17.734 15.4508 17.7422 15.9014C17.7464 15.9337 17.75 15.9665 17.75 16C17.75 16.0281 17.7481 16.0557 17.7451 16.083C17.7485 16.3693 17.75 16.675 17.75 17V22.749ZM12 8C11.4477 8 11 7.55229 11 7C11 6.44772 11.4477 6 12 6C12.5523 6 13 6.44772 13 7C13 7.55229 12.5523 8 12 8ZM16.1836 14.9053C16.1215 14.4439 16.0141 14.2465 15.8838 14.1162C15.7535 13.9859 15.5561 13.8784 15.0947 13.8164C14.6117 13.7515 13.964 13.75 13 13.75H11C10.036 13.75 9.38831 13.7515 8.90527 13.8164C8.44388 13.8785 8.24652 13.9859 8.11621 14.1162C7.9859 14.2465 7.87845 14.4439 7.81641 14.9053C7.80211 15.0116 7.79201 15.1261 7.7832 15.25L16.2168 15.25C16.208 15.1261 16.1979 15.0116 16.1836 14.9053ZM16.25 17C16.25 16.9142 16.2481 16.8309 16.248 16.75H7.75195C7.75189 16.8309 7.75 16.9142 7.75 17V18.25H16.25V17ZM16.25 19.75H7.75V22.75H16.25V19.75Z" fill="currentColor"/></svg>
