<svg xmlns="http://www.w3.org/2000/svg" viewBox="0 0 24 24" fill="none"><path opacity="0.4" d="M8.82121 9.07733C9.93438 8.78308 10.9815 8.68768 11.8886 8.78924C12.7814 8.88923 13.6269 9.19166 14.2177 9.78241C14.8084 10.3732 15.1109 11.2187 15.2109 12.1115C15.3124 13.0186 15.217 14.0657 14.9228 15.1789C14.333 17.4098 12.9198 20.0012 10.4638 22.4572C10.0733 22.8477 9.44025 22.8477 9.04973 22.4572C8.6592 22.0667 8.6592 21.4337 9.04973 21.0432C11.2855 18.8074 12.4998 16.5191 12.9892 14.6682C13.2344 13.7405 13.2921 12.946 13.2236 12.3342C13.1534 11.708 12.9626 11.3573 12.8027 11.1974C12.6428 11.0375 12.2921 10.8467 11.6659 10.7765C11.0541 10.708 10.2596 10.7657 9.33195 11.0109C7.48102 11.5003 5.1927 12.7146 2.95695 14.9504C2.56643 15.3409 1.93342 15.3409 1.54289 14.9504C1.15237 14.5599 1.15237 13.9268 1.54289 13.5363C3.99889 11.0803 6.59032 9.66711 8.82121 9.07733Z" fill="currentColor"/><path d="M8.79295 4.79289C9.18348 4.40237 9.81649 4.40237 10.207 4.79289L19.207 13.7929C19.5975 14.1834 19.5975 14.8164 19.207 15.207C18.8165 15.5975 18.1835 15.5975 17.793 15.207L8.79295 6.20696C8.40243 5.81643 8.40243 5.18342 8.79295 4.79289Z" fill="currentColor"/><path d="M8 6.75C9.51878 6.75 10.75 5.51878 10.75 4C10.75 2.48122 9.51878 1.25 8 1.25C6.48122 1.25 5.25 2.48122 5.25 4C5.25 5.51878 6.48122 6.75 8 6.75Z" fill="currentColor"/><path d="M20 18.75C21.5188 18.75 22.75 17.5188 22.75 16C22.75 14.4812 21.5188 13.25 20 13.25C18.4812 13.25 17.25 14.4812 17.25 16C17.25 17.5188 18.4812 18.75 20 18.75Z" fill="currentColor"/></svg>
