<svg xmlns="http://www.w3.org/2000/svg" viewBox="0 0 24 24" fill="none"><path d="M8.82072 9.07733C9.93389 8.78308 10.9811 8.68768 11.8881 8.78924C12.7809 8.88923 13.6265 9.19166 14.2172 9.78241C14.808 10.3732 15.1104 11.2187 15.2104 12.1115C15.3119 13.0186 15.2165 14.0657 14.9223 15.1789C14.3325 17.4098 12.9193 20.0012 10.4633 22.4572C10.0728 22.8477 9.43976 22.8477 9.04924 22.4572C8.65871 22.0667 8.65871 21.4337 9.04924 21.0432C11.285 18.8074 12.4994 16.5191 12.9887 14.6682C13.2339 13.7405 13.2916 12.946 13.2231 12.3342C13.153 11.708 12.9621 11.3573 12.8022 11.1974C12.6423 11.0375 12.2916 10.8467 11.6655 10.7765C11.0536 10.708 10.2591 10.7657 9.33147 11.0109C7.48053 11.5003 5.19221 12.7146 2.95647 14.9504C2.56594 15.3409 1.93293 15.3409 1.5424 14.9504C1.15188 14.5599 1.15188 13.9268 1.5424 13.5363C3.9984 11.0803 6.58983 9.66711 8.82072 9.07733Z" fill="currentColor"/><path d="M8.79247 4.79289C9.18299 4.40237 9.816 4.40237 10.2065 4.79289L19.2065 13.7929C19.5971 14.1834 19.5971 14.8164 19.2065 15.207C18.816 15.5975 18.183 15.5975 17.7925 15.207L8.79247 6.20696C8.40194 5.81643 8.40194 5.18342 8.79247 4.79289Z" fill="currentColor"/><path d="M7.99951 6.75C9.51829 6.75 10.7495 5.51878 10.7495 4C10.7495 2.48122 9.51829 1.25 7.99951 1.25C6.48073 1.25 5.24951 2.48122 5.24951 4C5.24951 5.51878 6.48073 6.75 7.99951 6.75Z" fill="currentColor"/><path d="M19.9995 18.75C21.5183 18.75 22.7495 17.5188 22.7495 16C22.7495 14.4812 21.5183 13.25 19.9995 13.25C18.4807 13.25 17.2495 14.4812 17.2495 16C17.2495 17.5188 18.4807 18.75 19.9995 18.75Z" fill="currentColor"/></svg>
