<svg xmlns="http://www.w3.org/2000/svg" viewBox="0 0 24 24" fill="none"><path opacity="0.4" d="M22.75 11.024V10.9688V9.03125V8.97596C22.75 7.65837 22.75 6.57242 22.6336 5.71347C22.5117 4.81464 22.246 4.02086 21.6048 3.38525C20.9636 2.74965 20.1628 2.48626 19.2561 2.36542C18.3896 2.24996 17.2941 2.24998 15.9649 2.25H15.9091H8.09091H8.03511C6.70594 2.24998 5.61045 2.24996 4.74394 2.36542C3.8372 2.48626 3.03644 2.74965 2.39524 3.38525C1.75405 4.02086 1.48834 4.81464 1.36643 5.71347C1.24996 6.57242 1.24998 7.65836 1.25 8.97594V9.03125V10.9688V11.0241C1.24998 12.3416 1.24996 13.4276 1.36643 14.2865C1.48834 15.1854 1.75405 15.9791 2.39524 16.6147C3.03644 17.2504 3.8372 17.5137 4.74394 17.6346C5.61044 17.75 6.70593 17.75 8.0351 17.75H8.09091H15.9091H15.9649C17.2941 17.75 18.3896 17.75 19.2561 17.6346C20.1628 17.5137 20.9636 17.2503 21.6048 16.6147C22.246 15.9791 22.5117 15.1854 22.6336 14.2865C22.75 13.4276 22.75 12.3416 22.75 11.024Z" fill="currentColor"/><circle cx="7.5" cy="8.5" r="1.5" fill="currentColor"/><path d="M15.9091 15.8125H8.09091C7.74174 15.8125 7.42022 15.8124 7.12317 15.8107L13.8204 8.71962C14.2542 8.2603 14.858 8 15.4898 8C16.1335 8 16.7476 8.27016 17.1826 8.74465L20.7844 12.6739C20.7726 13.2119 20.748 13.6532 20.6972 14.0282C20.6044 14.7122 20.4403 15.0292 20.2228 15.2448C20.0053 15.4605 19.6855 15.6231 18.9955 15.715C18.2774 15.8107 17.3185 15.8125 15.9091 15.8125Z" fill="currentColor"/><path d="M13.5 17.75V19.25C13.5 19.5261 13.7239 19.75 14 19.75H16C16.5523 19.75 17 20.1977 17 20.75C17 21.3023 16.5523 21.75 16 21.75H8C7.44772 21.75 7 21.3023 7 20.75C7 20.1977 7.44772 19.75 8 19.75H10C10.2761 19.75 10.5 19.5261 10.5 19.25V17.75H13.5Z" fill="currentColor"/></svg>
