<svg xmlns="http://www.w3.org/2000/svg" viewBox="0 0 24 24" fill="none"><path d="M15.9646 2.25C17.2937 2.24998 18.3891 2.2498 19.2556 2.36523C20.1624 2.48608 20.9631 2.75014 21.6042 3.38574C22.2454 4.02133 22.5116 4.81508 22.6335 5.71387C22.75 6.57267 22.7498 7.65838 22.7498 8.97559V11.0244C22.7498 12.3416 22.75 13.4273 22.6335 14.2861C22.5116 15.1849 22.2454 15.9787 21.6042 16.6143C20.9631 17.2499 20.1624 17.5139 19.2556 17.6348C18.3891 17.7502 17.2937 17.75 15.9646 17.75H13.4998V19.25C13.4998 19.5261 13.7236 19.75 13.9998 19.75H15.9998C16.552 19.75 16.9998 20.1977 16.9998 20.75C16.9998 21.3023 16.552 21.75 15.9998 21.75H7.99976C7.44747 21.75 6.99976 21.3023 6.99976 20.75C6.99976 20.1977 7.44747 19.75 7.99976 19.75H9.99976C10.2759 19.75 10.4998 19.5261 10.4998 19.25V17.75H8.03491C6.70586 17.75 5.61036 17.7502 4.7439 17.6348C3.83715 17.5139 3.03646 17.2499 2.39526 16.6143C1.75415 15.9787 1.48787 15.1849 1.36597 14.2861C1.24956 13.4273 1.24973 12.3416 1.24976 11.0244V8.97559C1.24973 7.65838 1.24956 6.57267 1.36597 5.71387C1.48787 4.81508 1.75415 4.02133 2.39526 3.38574C3.03646 2.75014 3.83715 2.48608 4.7439 2.36523C5.61037 2.2498 6.70585 2.24998 8.03491 2.25H15.9646ZM15.49 8C14.8582 8 14.2539 8.26041 13.8201 8.71973L7.1228 15.8105C7.41983 15.8122 7.74144 15.8125 8.09058 15.8125H15.9089C17.3181 15.8125 18.2769 15.8104 18.9949 15.7148C19.6846 15.6229 20.0049 15.4606 20.2224 15.2451C20.4399 15.0295 20.6042 14.7123 20.697 14.0283C20.7479 13.6533 20.7721 13.2118 20.7839 12.6738L17.1824 8.74512C16.7475 8.27072 16.1335 8.00011 15.49 8ZM7.49976 7C6.67133 7 5.99976 7.67157 5.99976 8.5C5.99976 9.32843 6.67133 10 7.49976 10C8.32818 10 8.99976 9.32843 8.99976 8.5C8.99976 7.67157 8.32818 7 7.49976 7Z" fill="currentColor"/></svg>
