<svg xmlns="http://www.w3.org/2000/svg" viewBox="0 0 24 24" fill="none"><path d="M20 21V9C20 8.44772 20.4477 8 21 8C21.5523 8 22 8.44772 22 9V21C22 21.5523 21.5523 22 21 22C20.4477 22 20 21.5523 20 21Z" fill="currentColor"/><path d="M14 21V15C14 14.4477 14.4477 14 15 14C15.5523 14 16 14.4477 16 15V21C16 21.5523 15.5523 22 15 22C14.4477 22 14 21.5523 14 21Z" fill="currentColor"/><path opacity="0.4" d="M20.293 2.29289C20.6835 1.90237 21.3166 1.90237 21.7071 2.29289C22.0976 2.68342 22.0976 3.31643 21.7071 3.70696L14.9444 10.4697C14.6812 10.7285 14.4139 10.9686 14.1104 11.1191C13.411 11.4657 12.5891 11.4657 11.8897 11.1191C11.4851 10.9185 11.1448 10.5588 10.793 10.207C10.5808 9.9947 10.4505 9.86504 10.3467 9.77239C10.254 9.68959 10.2219 9.67278 10.2217 9.67278C10.0821 9.60375 9.91801 9.60375 9.77837 9.67278C9.77822 9.67278 9.7461 9.68959 9.65337 9.77239C9.54962 9.86504 9.41933 9.9947 9.20708 10.207L3.70708 15.707C3.31655 16.0975 2.68354 16.0975 2.29302 15.707C1.90249 15.3164 1.90249 14.6834 2.29302 14.2929L8.05571 8.5302C8.3189 8.27131 8.58617 8.03121 8.8897 7.88078C9.58914 7.53418 10.411 7.53418 11.1104 7.88078C11.515 8.08133 11.8553 8.44107 12.2071 8.79289C12.4193 9.00515 12.5496 9.13481 12.6534 9.22746C12.7461 9.31026 12.7782 9.32707 12.7784 9.32707C12.918 9.3961 13.0821 9.3961 13.2217 9.32707C13.2219 9.32707 13.254 9.31026 13.3467 9.22746C13.4505 9.13481 13.5808 9.00515 13.793 8.79289L20.293 2.29289Z" fill="currentColor"/><path d="M8 21V14C8 13.4477 8.44772 13 9 13C9.55228 13 10 13.4477 10 14V21C10 21.5523 9.55228 22 9 22C8.44772 22 8 21.5523 8 21Z" fill="currentColor"/><path d="M2 21V19C2 18.4477 2.44772 18 3 18C3.55228 18 4 18.4477 4 19V21C4 21.5523 3.55228 22 3 22C2.44772 22 2 21.5523 2 21Z" fill="currentColor"/></svg>
