<svg xmlns="http://www.w3.org/2000/svg" viewBox="0 0 24 24" fill="none"><path opacity="0.5" d="M11.6728 14.0821C11.7559 13.772 11.75 13.4167 11.75 13.0001V11.0001C11.75 10.5835 11.7559 10.2282 11.6728 9.91806C11.4648 9.1416 10.8585 8.53529 10.082 8.32724C9.77188 8.24418 9.41659 8.25009 8.99997 8.25009C8.58335 8.25009 8.22806 8.24418 7.91794 8.32724C7.14148 8.53529 6.53517 9.1416 6.32712 9.91806C6.24406 10.2282 6.24997 10.5835 6.24997 11.0001V13.0001C6.24997 13.4167 6.24406 13.772 6.32712 14.0821C6.53517 14.8586 7.14148 15.4649 7.91794 15.6729C8.22806 15.756 8.58335 15.7501 8.99997 15.7501C9.41659 15.7501 9.77187 15.756 10.082 15.6729C10.8585 15.4649 11.4648 14.8586 11.6728 14.0821Z" fill="currentColor"/><path opacity="0.5" d="M19.6728 13.0821C19.7559 12.772 19.75 12.4167 19.75 12.0001V8.00009C19.75 7.58347 19.7559 7.22819 19.6728 6.91806C19.4648 6.1416 18.8585 5.53529 18.082 5.32724C17.7719 5.24418 17.4166 5.25009 17 5.25009C16.5833 5.25009 16.2281 5.24418 15.9179 5.32724C15.1415 5.53529 14.5352 6.1416 14.3271 6.91806C14.2441 7.22819 14.25 7.58347 14.25 8.00009V12.0001C14.25 12.4167 14.2441 12.772 14.3271 13.0821C14.5352 13.8586 15.1415 14.4649 15.9179 14.6729C16.2281 14.756 16.5833 14.7501 17 14.7501C17.4166 14.7501 17.7719 14.756 18.082 14.6729C18.8585 14.4649 19.4648 13.8586 19.6728 13.0821Z" fill="currentColor"/><path d="M2 13V3C2 2.44772 2.44772 2 3 2C3.55229 2 4 2.44772 4 3V13C4 14.9139 4.00229 16.2487 4.1377 17.2559C4.26924 18.2342 4.5099 18.7521 4.87891 19.1211C5.24792 19.4901 5.7658 19.7308 6.74414 19.8623C7.75128 19.9977 9.08611 20 11 20H21C21.5523 20 22 20.4477 22 21C22 21.5523 21.5523 22 21 22H11C9.14265 22 7.64892 22.0022 6.47754 21.8447C5.27745 21.6834 4.26738 21.3377 3.46485 20.5352C2.66231 19.7326 2.31664 18.7226 2.15528 17.5225C1.99779 16.3511 2 14.8573 2 13Z" fill="currentColor"/><path d="M10 17C10 17.5523 9.55228 18 9 18C8.44772 18 8 17.5523 8 17V15.6914C8.29047 15.7538 8.61954 15.75 9 15.75C9.38047 15.75 9.70952 15.7538 10 15.6914V17Z" fill="currentColor"/><path d="M9 4C9.55228 4 10 4.44772 10 5V8.30762C9.70958 8.24526 9.38036 8.25 9 8.25C8.61965 8.25 8.29042 8.24527 8 8.30762V5C8 4.44772 8.44772 4 9 4Z" fill="currentColor"/><path d="M18 17C18 17.5523 17.5523 18 17 18C16.4477 18 16 17.5523 16 17V14.6914C16.2905 14.7538 16.6195 14.75 17 14.75C17.3805 14.75 17.7095 14.7538 18 14.6914V17Z" fill="currentColor"/><path d="M17 2C17.5523 2 18 2.44772 18 3V5.30762C17.7096 5.24526 17.3804 5.25 17 5.25C16.6196 5.25 16.2904 5.24527 16 5.30762V3C16 2.44772 16.4477 2 17 2Z" fill="currentColor"/></svg>
