<svg xmlns="http://www.w3.org/2000/svg" viewBox="0 0 24 24" fill="none"><path d="M11.6725 14.0821C11.7555 13.772 11.7496 13.4167 11.7496 13.0001V11.0001C11.7496 10.5835 11.7555 10.2282 11.6725 9.91806C11.4644 9.1416 10.8581 8.53529 10.0816 8.32724C9.77151 8.24418 9.41623 8.25009 8.9996 8.25009C8.58298 8.25009 8.2277 8.24418 7.91757 8.32724C7.14112 8.53529 6.5348 9.1416 6.32675 9.91806C6.24369 10.2282 6.2496 10.5835 6.2496 11.0001V13.0001C6.2496 13.4167 6.24369 13.772 6.32675 14.0821C6.5348 14.8586 7.14112 15.4649 7.91757 15.6729C8.2277 15.756 8.58298 15.7501 8.9996 15.7501C9.41623 15.7501 9.77151 15.756 10.0816 15.6729C10.8581 15.4649 11.4644 14.8586 11.6725 14.0821Z" fill="currentColor"/><path d="M19.6725 13.0821C19.7555 12.772 19.7496 12.4167 19.7496 12.0001V8.00009C19.7496 7.58347 19.7555 7.22819 19.6725 6.91806C19.4644 6.1416 18.8581 5.53529 18.0816 5.32724C17.7715 5.24418 17.4162 5.25009 16.9996 5.25009C16.583 5.25009 16.2277 5.24418 15.9176 5.32724C15.1411 5.53529 14.5348 6.1416 14.3268 6.91806C14.2437 7.22819 14.2496 7.58347 14.2496 8.00009V12.0001C14.2496 12.4167 14.2437 12.772 14.3268 13.0821C14.5348 13.8586 15.1411 14.4649 15.9176 14.6729C16.2277 14.756 16.583 14.7501 16.9996 14.7501C17.4162 14.7501 17.7715 14.756 18.0816 14.6729C18.8581 14.4649 19.4644 13.8586 19.6725 13.0821Z" fill="currentColor"/><path d="M7.99963 17V15C7.99963 14.4477 8.44735 14 8.99963 14C9.55192 14 9.99963 14.4477 9.99963 15V17C9.99963 17.5523 9.55192 18 8.99963 18C8.44735 18 7.99963 17.5523 7.99963 17ZM7.99963 9V5C7.99963 4.44772 8.44735 4 8.99963 4C9.55192 4 9.99963 4.44772 9.99963 5V9C9.99963 9.55228 9.55192 10 8.99963 10C8.44735 10 7.99963 9.55228 7.99963 9Z" fill="currentColor"/><path d="M15.9996 17V14C15.9996 13.4477 16.4473 13 16.9996 13C17.5519 13 17.9996 13.4477 17.9996 14V17C17.9996 17.5523 17.5519 18 16.9996 18C16.4473 18 15.9996 17.5523 15.9996 17ZM15.9996 6V3C15.9996 2.44772 16.4473 2 16.9996 2C17.5519 2 17.9996 2.44772 17.9996 3V6C17.9996 6.55228 17.5519 7 16.9996 7C16.4473 7 15.9996 6.55228 15.9996 6Z" fill="currentColor"/><path d="M1.99964 13V3C1.99964 2.44772 2.44735 2 2.99964 2C3.55192 2 3.99964 2.44772 3.99964 3V13C3.99964 14.9139 4.00192 16.2487 4.13733 17.2559C4.26887 18.2342 4.50953 18.7521 4.87854 19.1211C5.24755 19.4901 5.76544 19.7308 6.74378 19.8623C7.75091 19.9977 9.08575 20 10.9996 20H20.9996C21.5519 20 21.9996 20.4477 21.9996 21C21.9996 21.5523 21.5519 22 20.9996 22H10.9996C9.14229 22 7.64855 22.0022 6.47717 21.8447C5.27708 21.6834 4.26701 21.3377 3.46448 20.5352C2.66195 19.7326 2.31627 18.7226 2.15491 17.5225C1.99742 16.3511 1.99964 14.8573 1.99964 13Z" fill="currentColor"/></svg>
