<svg xmlns="http://www.w3.org/2000/svg" viewBox="0 0 24 24" fill="none"><path opacity="0.4" d="M22.7101 12.7764C22.736 12.0409 22.7501 11.2795 22.7501 10.5C22.7501 9.72053 22.736 8.95905 22.7101 8.22363C22.6299 5.95045 22.6168 4.41312 21.4025 3.18945C20.7922 2.57464 20.0996 2.26171 19.2589 2.0918C18.4719 1.93276 17.509 1.8916 16.3417 1.8417L16.2755 1.83887C14.9256 1.78112 13.4894 1.75 12.0001 1.75C10.5109 1.75 9.07462 1.78112 7.72473 1.83887L7.65855 1.8417C6.49121 1.8916 5.52832 1.93276 4.74133 2.0918C3.90061 2.26171 3.208 2.57464 2.59778 3.18945C1.38343 4.41312 1.37035 5.95046 1.29016 8.22363C1.26422 8.95905 1.25012 9.72053 1.25012 10.5C1.25012 11.2795 1.26422 12.0409 1.29016 12.7764C1.37035 15.0495 1.38343 16.5869 2.59778 17.8105C3.208 18.4254 3.90061 18.7383 4.74133 18.9082C5.43468 19.0483 6.26431 19.0959 7.25012 19.1396V20.7705C7.25035 21.5875 7.91261 22.2498 8.72961 22.25C9.08298 22.25 9.42523 22.1236 9.69348 21.8936L11.8732 20.0244C12.4617 19.5198 12.624 19.3938 12.799 19.3271C12.9734 19.2607 13.1864 19.2466 13.9835 19.2314C14.7697 19.2165 15.5356 19.1928 16.2755 19.1611L16.3417 19.1583C17.509 19.1084 18.4719 19.0672 19.2589 18.9082C20.0996 18.7383 20.7922 18.4254 21.4025 17.8105C22.6168 16.5869 22.6299 15.0495 22.7101 12.7764Z" fill="currentColor"/><path d="M11.0002 11V9.49414H9.50513C8.95284 9.49414 8.50513 9.04643 8.50513 8.49414C8.50513 7.94186 8.95284 7.49414 9.50513 7.49414H11.0002V6C11.0002 5.44772 11.448 5 12.0002 5C12.5525 5.00007 13.0002 5.44776 13.0002 6V7.49414H14.5051C15.0574 7.49414 15.5051 7.94186 15.5051 8.49414C15.5051 9.04643 15.0574 9.49414 14.5051 9.49414H13.0002V11C13.0002 11.5522 12.5525 11.9999 12.0002 12C11.448 12 11.0002 11.5523 11.0002 11Z" fill="currentColor"/><path d="M14.5051 14C15.0574 14 15.5051 14.4477 15.5051 15C15.5051 15.5523 15.0574 16 14.5051 16H9.50513C8.95284 16 8.50513 15.5523 8.50513 15C8.50513 14.4477 8.95284 14 9.50513 14H14.5051Z" fill="currentColor"/></svg>
