<svg xmlns="http://www.w3.org/2000/svg" viewBox="0 0 24 24" fill="none"><path d="M12.0001 1.75C13.4894 1.75 14.9256 1.78112 16.2755 1.83887L16.3419 1.8418C17.5092 1.89169 18.472 1.93277 19.2589 2.0918C20.0996 2.26171 20.7922 2.57464 21.4025 3.18945C22.6168 4.41312 22.6299 5.95045 22.7101 8.22363C22.736 8.95905 22.7501 9.72053 22.7501 10.5C22.7501 11.2795 22.736 12.0409 22.7101 12.7764C22.6299 15.0495 22.6168 16.5869 21.4025 17.8105C20.7922 18.4254 20.0996 18.7383 19.2589 18.9082C18.472 19.0672 17.5092 19.1083 16.3419 19.1582L16.2755 19.1611C15.5356 19.1928 14.7697 19.2165 13.9835 19.2314C13.1864 19.2466 12.9734 19.2607 12.799 19.3271C12.624 19.3938 12.4617 19.5198 11.8732 20.0244L9.69348 21.8936C9.42523 22.1236 9.08298 22.25 8.72961 22.25C7.91261 22.2498 7.25035 21.5875 7.25012 20.7705V19.1396C6.26431 19.0959 5.43468 19.0483 4.74133 18.9082C3.90061 18.7383 3.208 18.4254 2.59778 17.8105C1.38343 16.5869 1.37035 15.0495 1.29016 12.7764C1.26422 12.0409 1.25012 11.2795 1.25012 10.5C1.25012 9.72053 1.26422 8.95905 1.29016 8.22363C1.37035 5.95046 1.38343 4.41312 2.59778 3.18945C3.208 2.57464 3.90061 2.26171 4.74133 2.0918C5.52827 1.93277 6.49109 1.89169 7.65833 1.8418L7.72473 1.83887C9.07462 1.78112 10.5109 1.75 12.0001 1.75ZM9.505 14C8.95278 14.0001 8.505 14.4478 8.505 15C8.505 15.5522 8.95278 15.9999 9.505 16H14.505C15.0573 16 15.505 15.5523 15.505 15C15.505 14.4477 15.0573 14 14.505 14H9.505ZM12.0001 5C11.4479 5.00007 11.0001 5.44776 11.0001 6V7.49414H9.505C8.95278 7.49421 8.505 7.9419 8.505 8.49414C8.505 9.04638 8.95278 9.49407 9.505 9.49414H11.0001V11C11.0001 11.5522 11.4479 11.9999 12.0001 12C12.5524 11.9999 13.0001 11.5522 13.0001 11V9.49414H14.505C15.0573 9.49414 15.505 9.04643 15.505 8.49414C15.505 7.94186 15.0573 7.49414 14.505 7.49414H13.0001V6C13.0001 5.44776 12.5524 5.00007 12.0001 5Z" fill="currentColor"/></svg>
