<svg xmlns="http://www.w3.org/2000/svg" viewBox="0 0 24 24" fill="none"><path d="M2.54295 2.5424C2.93348 2.15188 3.56649 2.15188 3.95702 2.5424L21.457 20.0424C21.8475 20.4329 21.8475 21.0659 21.457 21.4565C21.0665 21.847 20.4335 21.847 20.043 21.4565L2.54295 3.95647C2.15243 3.56594 2.15243 2.93293 2.54295 2.5424Z" fill="currentColor"/><path d="M15.6781 15.6782C13.5993 15.6338 12.2985 14.0691 11.7757 13.2837L9.28745 15.772C9.82109 15.5039 10.4449 15.3257 11.1576 15.3257C12.9764 15.3259 14.2128 16.4916 14.8656 17.3286C15.2526 17.8249 15.2525 18.5002 14.8656 18.9966C14.2128 19.8336 12.9765 20.9993 11.1576 20.9995C8.32941 20.9994 6.91087 18.1809 6.9017 18.1626C6.9017 18.1626 6.90262 18.1587 6.90463 18.1548L3.53061 21.5308C3.2379 21.8235 2.763 21.8231 2.47006 21.5308C2.17738 21.2379 2.17729 20.7631 2.47006 20.4702L5.84506 17.0942C5.84087 17.0964 5.83725 17.0991 5.83725 17.0991C5.80993 17.0854 3.00035 15.6667 3.00034 12.8433C3.0004 11.0241 4.16713 9.78798 5.00424 9.13525C5.5006 8.74864 6.17502 8.74834 6.67124 9.13525C7.50833 9.78803 8.67508 11.0242 8.67514 12.8433C8.67514 13.5548 8.49625 14.1774 8.22885 14.7104L10.7142 12.2241C9.92723 11.6995 8.36467 10.3986 8.32163 8.32178L15.6781 15.6782Z" fill="currentColor"/><path opacity="0.4" d="M16.1634 3.58084C17.5523 2.19225 19.3951 2.16207 20.5071 2.30936C21.1309 2.39216 21.608 2.86918 21.6907 3.49295C21.838 4.60494 21.8089 6.44783 20.4202 7.8367C18.9855 9.27129 17.0668 9.25247 15.9691 9.08963L14.9769 10.0828C15.2271 10.0339 15.4915 10.0066 15.7689 10.0066C17.5877 10.007 18.8241 11.1726 19.4769 12.0096C19.8638 12.5059 19.8638 13.1812 19.4769 13.6775C19.2011 14.0311 18.8192 14.4413 18.3353 14.7996L9.19952 5.66385C9.55764 5.18037 9.97015 4.80076 10.3235 4.52518C10.8199 4.13836 11.4952 4.13819 11.9915 4.52518C12.8286 5.17797 13.9954 6.41422 13.9954 8.23318C13.9954 8.50823 13.9674 8.76996 13.9193 9.01834L14.9085 8.02908C14.7459 6.93119 14.7299 5.01461 16.1634 3.58084Z" fill="currentColor"/></svg>
