<svg xmlns="http://www.w3.org/2000/svg" viewBox="0 0 24 24" fill="none"><path d="M2.54292 2.54216C2.93345 2.15164 3.56646 2.15164 3.95699 2.54216L21.457 20.0422C21.8475 20.4327 21.8475 21.0657 21.457 21.4562C21.0665 21.8467 20.4334 21.8467 20.0429 21.4562L2.54292 3.95622C2.1524 3.5657 2.1524 2.93269 2.54292 2.54216Z" fill="currentColor"/><path d="M15.678 15.678C13.5993 15.6336 12.2985 14.0688 11.7757 13.2835L9.28742 15.7718C9.82106 15.5037 10.4449 15.3255 11.1575 15.3255C12.9764 15.3256 14.2127 16.4914 14.8655 17.3284C15.2525 17.8247 15.2524 18.5 14.8655 18.9964C14.2127 19.8334 12.9764 20.9991 11.1575 20.9993C8.32938 20.9992 6.91084 18.1807 6.90167 18.1624C6.90167 18.1624 6.90259 18.1585 6.9046 18.1546L3.53058 21.5305C3.23787 21.8233 2.76297 21.8229 2.47003 21.5305C2.17735 21.2377 2.17726 20.7628 2.47003 20.47L5.84503 17.094C5.84084 17.0962 5.83722 17.0989 5.83722 17.0989C5.8099 17.0852 3.00032 15.6665 3.00031 12.843C3.00037 11.0238 4.1671 9.78777 5.00421 9.13504C5.50057 8.74843 6.17499 8.74812 6.67121 9.13504C7.5083 9.78782 8.67505 11.024 8.67511 12.843C8.67511 13.5546 8.49622 14.1771 8.22882 14.7102L10.7142 12.2239C9.9272 11.6993 8.36464 10.3984 8.3216 8.32156L15.678 15.678Z" fill="currentColor"/><path d="M16.1634 3.58133C17.5523 2.19274 19.3951 2.16256 20.5071 2.30984C21.1309 2.39265 21.608 2.86967 21.6907 3.49344C21.838 4.60542 21.8089 6.44832 20.4202 7.83719C18.9855 9.27178 17.0668 9.25296 15.9691 9.09012L14.9769 10.0833C15.2271 10.0344 15.4916 10.0071 15.7689 10.0071C17.5877 10.0074 18.8241 11.1731 19.4769 12.01C19.8638 12.5064 19.8638 13.1816 19.4769 13.678C19.2011 14.0316 18.8192 14.4418 18.3353 14.8001L9.19953 5.66434C9.55764 5.18086 9.97015 4.80125 10.3235 4.52566C10.8199 4.13885 11.4952 4.13868 11.9915 4.52566C12.8286 5.17846 13.9954 6.41471 13.9954 8.23367C13.9954 8.50871 13.9674 8.77045 13.9193 9.01883L14.9085 8.02957C14.7459 6.93168 14.7299 5.0151 16.1634 3.58133Z" fill="currentColor"/></svg>
