<svg xmlns="http://www.w3.org/2000/svg" viewBox="0 0 24 24" fill="none"><path d="M13.0732 1C14.8967 0.999973 16.3665 0.999862 17.5225 1.15527C18.7226 1.31663 19.7326 1.66231 20.5352 2.46484C21.3377 3.26737 21.6834 4.27744 21.8447 5.47754C22.0001 6.63348 22 8.10334 22 9.92676V14.0732C22 15.8967 22.0001 17.3665 21.8447 18.5225C21.6834 19.7226 21.3377 20.7326 20.5352 21.5352C19.7326 22.3377 18.7226 22.6834 17.5225 22.8447C16.3665 23.0001 14.8967 23 13.0732 23H10.9268C9.10334 23 7.63348 23.0001 6.47754 22.8447C5.27744 22.6834 4.26737 22.3377 3.46484 21.5352C2.66231 20.7326 2.31663 19.7226 2.15527 18.5225C1.99986 17.3665 1.99997 15.8967 2 14.0732V9.92676C1.99997 8.10334 1.99986 6.63348 2.15527 5.47754C2.31664 4.27744 2.66231 3.26737 3.46484 2.46484C4.26737 1.66231 5.27744 1.31664 6.47754 1.15527C7.63347 0.999862 9.10335 0.999973 10.9268 1H13.0732ZM10.707 14.293C10.3165 13.9024 9.68349 13.9024 9.29297 14.293L8.5 15.0859L7.70703 14.293C7.31651 13.9024 6.68349 13.9024 6.29297 14.293C5.90244 14.6835 5.90244 15.3165 6.29297 15.707L7.08594 16.5L6.29297 17.293C5.90244 17.6835 5.90244 18.3165 6.29297 18.707C6.68349 19.0976 7.31651 19.0976 7.70703 18.707L8.5 17.9141L9.29297 18.707C9.68349 19.0976 10.3165 19.0976 10.707 18.707C11.0976 18.3165 11.0976 17.6835 10.707 17.293L9.91406 16.5L10.707 15.707C11.0976 15.3165 11.0976 14.6835 10.707 14.293ZM15 17C14.4477 17 14 17.4477 14 18C14 18.5523 14.4477 19 15 19H15.0088C15.5611 19 16.0088 18.5523 16.0088 18C16.0088 17.4477 15.5611 17 15.0088 17H15ZM16.9912 14C16.4389 14 15.9912 14.4477 15.9912 15C15.9912 15.5523 16.4389 16 16.9912 16H17C17.5523 16 18 15.5523 18 15C18 14.4477 17.5523 14 17 14H16.9912ZM11 3C9.08611 3 7.75127 3.00229 6.74414 3.1377C5.7658 3.26923 5.24792 3.50989 4.87891 3.87891C4.50989 4.24792 4.26923 4.7658 4.1377 5.74414C4.00229 6.75127 4 7.08611 4 9V9.25C4 9.7214 4.00004 9.95707 4.14648 10.1035C4.29293 10.25 4.5286 10.25 5 10.25H19C19.4714 10.25 19.7071 10.25 19.8535 10.1035C20 9.95707 20 9.7214 20 9.25V9C20 7.08611 19.9977 6.75127 19.8623 5.74414C19.7308 4.7658 19.4901 4.24792 19.1211 3.87891C18.7521 3.50989 18.2342 3.26923 17.2559 3.1377C16.2487 3.00229 14.9139 3 13 3H11Z" fill="currentColor"/></svg>
