<svg xmlns="http://www.w3.org/2000/svg" viewBox="0 0 24 24" fill="none"><path d="M19.7502 6.76804C19.7501 5.37767 18.623 4.25058 17.2326 4.25046C15.965 4.25046 14.9148 5.18845 14.7404 6.40768C14.6621 6.95424 14.1552 7.33353 13.6086 7.25534C13.062 7.17713 12.682 6.67104 12.76 6.12448C13.0733 3.93415 14.9558 2.25046 17.2326 2.25046C19.7275 2.25058 21.7501 4.2731 21.7502 6.76804C21.7502 9.04489 20.0665 10.9274 17.8762 11.2407C17.3296 11.3187 16.8235 10.9386 16.7453 10.3921C16.6671 9.84544 17.0464 9.33857 17.593 9.26022C18.8122 9.08583 19.7502 8.0356 19.7502 6.76804Z" fill="currentColor"/><path d="M4.24981 6.76804C4.24994 5.37767 5.37703 4.25058 6.76739 4.25046C8.03496 4.25046 9.08518 5.18845 9.25958 6.40768C9.33793 6.95424 9.8448 7.33353 10.3914 7.25534C10.938 7.17713 11.318 6.67104 11.24 6.12448C10.9267 3.93415 9.04424 2.25046 6.76739 2.25046C4.27246 2.25058 2.24994 4.2731 2.24981 6.76804C2.24981 9.04489 3.93351 10.9274 6.12384 11.2407C6.67039 11.3187 7.17649 10.9386 7.25469 10.3921C7.33288 9.84544 6.95359 9.33857 6.40704 9.26022C5.18781 9.08583 4.24981 8.0356 4.24981 6.76804Z" fill="currentColor"/><path d="M19.7502 17.2329C19.7501 18.6232 18.623 19.7503 17.2326 19.7505C15.965 19.7505 14.9148 18.8125 14.7404 17.5932C14.6621 17.0467 14.1552 16.6674 13.6086 16.7456C13.062 16.8238 12.682 17.3299 12.76 17.8764C13.0733 20.0668 14.9558 21.7505 17.2326 21.7505C19.7275 21.7503 21.7501 19.7278 21.7502 17.2329C21.7502 14.956 20.0665 13.0735 17.8762 12.7602C17.3296 12.6823 16.8235 13.0623 16.7453 13.6089C16.6671 14.1555 17.0464 14.6623 17.593 14.7407C18.8122 14.9151 19.7502 15.9653 19.7502 17.2329Z" fill="currentColor"/><path d="M4.24981 17.2329C4.24994 18.6232 5.37703 19.7503 6.76739 19.7505C8.03496 19.7505 9.08518 18.8125 9.25958 17.5932C9.33793 17.0467 9.8448 16.6674 10.3914 16.7456C10.938 16.8238 11.318 17.3299 11.24 17.8764C10.9267 20.0668 9.04424 21.7505 6.76739 21.7505C4.27246 21.7503 2.24994 19.7278 2.24981 17.2329C2.24981 14.956 3.93351 13.0735 6.12384 12.7602C6.67039 12.6823 7.17649 13.0623 7.25469 13.6089C7.33288 14.1555 6.95359 14.6623 6.40704 14.7407C5.18781 14.9151 4.24981 15.9653 4.24981 17.2329Z" fill="currentColor"/><path opacity="0.4" d="M16.2928 6.29343C16.6833 5.9029 17.3163 5.9029 17.7068 6.29343C18.0972 6.68396 18.0973 7.31702 17.7068 7.70749L15.5164 9.89694C15.5239 9.91409 15.5336 9.93039 15.5408 9.94772C15.6611 10.238 15.7077 10.5379 15.7293 10.855C15.7498 11.156 15.7498 11.522 15.7498 11.9594V12.0405C15.7498 12.4782 15.7498 12.8449 15.7293 13.146C15.7077 13.463 15.6611 13.7629 15.5408 14.0532C15.5337 14.0703 15.5238 14.0861 15.5164 14.103L17.7068 16.2934C18.0972 16.684 18.0973 17.317 17.7068 17.7075C17.3164 18.098 16.6833 18.0979 16.2928 17.7075L14.1024 15.5171C14.0854 15.5245 14.0696 15.5344 14.0525 15.5415C13.7622 15.6617 13.4623 15.7083 13.1453 15.73C12.8442 15.7505 12.4775 15.7505 12.0399 15.7505H11.9588C11.5213 15.7505 11.1553 15.7505 10.8543 15.73C10.5373 15.7083 10.2374 15.6617 9.94708 15.5415C9.92975 15.5343 9.91344 15.5246 9.8963 15.5171L7.70684 17.7075C7.31637 18.098 6.68332 18.0979 6.29278 17.7075C5.90226 17.317 5.90226 16.684 6.29278 16.2934L8.48223 14.103C8.47488 14.0862 8.46582 14.0702 8.4588 14.0532C8.33854 13.7629 8.29196 13.463 8.27032 13.146C8.24978 12.8449 8.24979 12.4782 8.24981 12.0405V11.9594C8.24979 11.522 8.24979 11.156 8.27032 10.855C8.29196 10.5379 8.33854 10.2381 8.4588 9.94772C8.46593 9.9305 8.47476 9.91399 8.48223 9.89694L6.29278 7.70749C5.90226 7.31697 5.90226 6.68395 6.29278 6.29343C6.6833 5.9029 7.31632 5.9029 7.70684 6.29343L9.8963 8.48288C9.91334 8.47541 9.92985 8.46658 9.94708 8.45944C10.2374 8.33919 10.5373 8.2926 10.8543 8.27097C11.1553 8.25043 11.5213 8.25044 11.9588 8.25046H12.0399C12.4775 8.25044 12.8442 8.25042 13.1453 8.27097C13.4623 8.29261 13.7622 8.33919 14.0525 8.45944C14.0695 8.46647 14.0856 8.47553 14.1024 8.48288L16.2928 6.29343Z" fill="currentColor" fill-rule="evenodd" clip-rule="evenodd"/></svg>
