<svg xmlns="http://www.w3.org/2000/svg" viewBox="0 0 24 24" fill="none"><path d="M19.7502 6.76804C19.7501 5.37767 18.623 4.25058 17.2326 4.25046C15.965 4.25046 14.9148 5.18845 14.7404 6.40768C14.6621 6.95424 14.1552 7.33353 13.6086 7.25534C13.062 7.17713 12.682 6.67104 12.76 6.12448C13.0733 3.93415 14.9558 2.25046 17.2326 2.25046C19.7275 2.25058 21.7501 4.2731 21.7502 6.76804C21.7502 9.04489 20.0665 10.9274 17.8762 11.2407C17.3296 11.3187 16.8235 10.9386 16.7453 10.3921C16.6671 9.84544 17.0464 9.33857 17.593 9.26022C18.8122 9.08583 19.7502 8.0356 19.7502 6.76804Z" fill="currentColor"/><path d="M4.24981 6.76804C4.24994 5.37767 5.37703 4.25058 6.76739 4.25046C8.03496 4.25046 9.08518 5.18845 9.25958 6.40768C9.33793 6.95424 9.8448 7.33353 10.3914 7.25534C10.938 7.17713 11.318 6.67104 11.24 6.12448C10.9267 3.93415 9.04424 2.25046 6.76739 2.25046C4.27246 2.25058 2.24994 4.2731 2.24981 6.76804C2.24981 9.04489 3.93351 10.9274 6.12384 11.2407C6.67039 11.3187 7.17649 10.9386 7.2547 10.3921C7.33288 9.84544 6.95359 9.33857 6.40704 9.26022C5.18781 9.08583 4.24981 8.0356 4.24981 6.76804Z" fill="currentColor"/><path d="M19.7502 17.2329C19.7501 18.6232 18.623 19.7503 17.2326 19.7505C15.965 19.7505 14.9148 18.8125 14.7404 17.5932C14.6621 17.0467 14.1552 16.6674 13.6086 16.7456C13.062 16.8238 12.682 17.3299 12.76 17.8764C13.0733 20.0668 14.9558 21.7505 17.2326 21.7505C19.7275 21.7503 21.7501 19.7278 21.7502 17.2329C21.7502 14.956 20.0665 13.0735 17.8762 12.7602C17.3296 12.6823 16.8235 13.0623 16.7453 13.6089C16.6671 14.1555 17.0464 14.6623 17.593 14.7407C18.8122 14.9151 19.7502 15.9653 19.7502 17.2329Z" fill="currentColor"/><path d="M4.24981 17.2329C4.24994 18.6232 5.37703 19.7503 6.76739 19.7505C8.03496 19.7505 9.08518 18.8125 9.25958 17.5932C9.33793 17.0467 9.8448 16.6674 10.3914 16.7456C10.938 16.8238 11.318 17.3299 11.24 17.8764C10.9267 20.0668 9.04424 21.7505 6.76739 21.7505C4.27246 21.7503 2.24994 19.7278 2.24981 17.2329C2.24981 14.956 3.93351 13.0735 6.12384 12.7602C6.67039 12.6823 7.17649 13.0623 7.2547 13.6089C7.33288 14.1555 6.95359 14.6623 6.40704 14.7407C5.18781 14.9151 4.24981 15.9653 4.24981 17.2329Z" fill="currentColor"/><path d="M15.7498 12.041L15.7498 12.0005L15.7498 11.9599C15.7498 11.5222 15.7498 11.1561 15.7293 10.855C15.7077 10.5379 15.6611 10.2381 15.5408 9.94773C15.2617 9.27404 14.7262 8.73855 14.0525 8.45944C13.7622 8.33918 13.4624 8.29261 13.1453 8.27097C12.8442 8.25042 12.4781 8.25044 12.0404 8.25046L11.9998 8.25046L11.9592 8.25046C11.5216 8.25044 11.1554 8.25042 10.8543 8.27097C10.5372 8.29261 10.2374 8.33918 9.94708 8.45944C9.27339 8.73855 8.7379 9.27404 8.4588 9.94773C8.33853 10.2381 8.29196 10.5379 8.27032 10.855C8.24978 11.1561 8.24979 11.5222 8.24981 11.9599L8.24981 12.0005L8.24981 12.041C8.24979 12.4787 8.24978 12.8449 8.27032 13.146C8.29196 13.463 8.33853 13.7628 8.4588 14.0532C8.7379 14.7269 9.2734 15.2624 9.94708 15.5415C10.2374 15.6617 10.5373 15.7083 10.8543 15.73C11.1554 15.7505 11.5216 15.7505 11.9592 15.7505L11.9998 15.7505L12.0404 15.7505C12.4781 15.7505 12.8442 15.7505 13.1453 15.73C13.4624 15.7083 13.7622 15.6617 14.0525 15.5415C14.7262 15.2624 15.2617 14.7269 15.5408 14.0532C15.6611 13.7628 15.7077 13.463 15.7293 13.146C15.7498 12.8449 15.7498 12.4787 15.7498 12.041Z" fill="currentColor"/><path d="M8.79278 13.7934C9.18331 13.4029 9.81632 13.4029 10.2068 13.7934C10.5974 14.184 10.5974 14.817 10.2068 15.2075L7.70685 17.7075C7.31632 18.098 6.68331 18.098 6.29278 17.7075C5.90226 17.317 5.90226 16.684 6.29278 16.2934L8.79278 13.7934ZM13.7928 13.7934C14.1833 13.4029 14.8163 13.4029 15.2068 13.7934L17.7068 16.2934C18.0974 16.684 18.0974 17.317 17.7068 17.7075C17.3163 18.098 16.6833 18.098 16.2928 17.7075L13.7928 15.2075C13.4023 14.817 13.4023 14.184 13.7928 13.7934ZM6.29278 6.29343C6.68331 5.9029 7.31632 5.9029 7.70685 6.29343L10.2068 8.79343C10.5974 9.18395 10.5974 9.81697 10.2068 10.2075C9.81632 10.598 9.18331 10.598 8.79278 10.2075L6.29278 7.70749C5.90226 7.31697 5.90226 6.68395 6.29278 6.29343ZM16.2928 6.29343C16.6833 5.9029 17.3163 5.9029 17.7068 6.29343C18.0974 6.68395 18.0974 7.31697 17.7068 7.70749L15.2068 10.2075C14.8163 10.598 14.1833 10.598 13.7928 10.2075C13.4023 9.81697 13.4023 9.18395 13.7928 8.79343L16.2928 6.29343Z" fill="currentColor"/></svg>
