<svg xmlns="http://www.w3.org/2000/svg" viewBox="0 0 24 24" fill="none"><path d="M12.0723 1.75C14.1963 1.74998 15.8901 1.75023 17.2178 1.92871C18.5887 2.11303 19.7158 2.50289 20.6064 3.39355C21.4971 4.28422 21.887 5.41128 22.0713 6.78223C22.2498 8.10995 22.25 9.80367 22.25 11.9277V12.0723C22.25 14.1963 22.2498 15.89 22.0713 17.2178C21.887 18.5887 21.4971 19.7158 20.6064 20.6064C19.7158 21.4971 18.5887 21.887 17.2178 22.0713C15.89 22.2498 14.1963 22.25 12.0723 22.25H11.9277C9.80367 22.25 8.10995 22.2498 6.78223 22.0713C6.0729 21.9759 5.42948 21.8246 4.85013 21.5776C4.54998 21.4497 4.39991 21.3857 4.36962 21.2293C4.33933 21.0728 4.46451 20.9476 4.71487 20.6973L10.2828 15.1303C10.4828 14.9303 10.5828 14.8303 10.707 14.8303C10.8313 14.8303 10.9313 14.9303 11.1313 15.1303L16.1162 20.1152C16.1781 20.1771 16.2643 20.2096 16.3516 20.2021C16.5644 20.184 16.7663 20.1625 16.958 20.1367C18.1122 19.9815 18.7582 19.6928 19.2256 19.2256C19.693 18.7582 19.9815 18.1122 20.1367 16.958C20.2957 15.7755 20.2979 14.2133 20.2979 12C20.2979 9.78658 20.2957 8.22451 20.1367 7.04199C19.9815 5.88755 19.693 5.24186 19.2256 4.77441C18.7581 4.30703 18.1124 4.01848 16.958 3.86328C15.7755 3.70434 14.2133 3.70215 12 3.70215C9.78701 3.70215 8.22537 3.70435 7.04297 3.86328C5.88863 4.01848 5.24283 4.30704 4.77539 4.77441C4.30794 5.24186 4.01947 5.88755 3.86426 7.04199C3.83847 7.2338 3.81604 7.43551 3.79785 7.64844C3.7904 7.73569 3.82284 7.82186 3.88477 7.88379L8.86867 12.8677C9.06869 13.0677 9.16869 13.1677 9.16869 13.292C9.16868 13.4163 9.06867 13.5163 8.86864 13.7163L3.30105 19.283C3.0506 19.5334 2.92537 19.6586 2.76885 19.6283C2.61232 19.5979 2.54847 19.4477 2.42075 19.1474C2.17467 18.5686 2.02392 17.926 1.92871 17.2178C1.75023 15.8901 1.74998 14.1963 1.75 12.0723V11.9277C1.74998 9.80369 1.75023 8.10994 1.92871 6.78223C2.11303 5.41128 2.50289 4.28422 3.39355 3.39355C4.28422 2.50289 5.41128 2.11303 6.78223 1.92871C8.10994 1.75023 9.80369 1.74998 11.9277 1.75H12.0723Z" fill="currentColor"/><path d="M14.5 5.24994C16.7053 5.24994 18.5 7.02915 18.5 9.23236C18.5 10.5002 17.9753 11.4905 17.0244 12.3203C16.4838 12.7919 15.5142 13.8285 15.125 14.415C14.9837 14.6277 14.7437 14.7539 14.4883 14.7499C14.2328 14.7459 13.9968 14.6117 13.8623 14.3945C13.5049 13.8173 12.5297 12.8037 11.9756 12.3203C11.0247 11.4905 10.5 10.5002 10.5 9.23236C10.5 7.02915 12.2947 5.24994 14.5 5.24994ZM14.5 7.74994C13.6716 7.74994 13 8.42152 13 9.24994C13 10.0784 13.6716 10.7499 14.5 10.7499C15.3284 10.7499 16 10.0784 16 9.24994C16 8.42151 15.3284 7.74994 14.5 7.74994Z" fill="currentColor"/></svg>
