<svg xmlns="http://www.w3.org/2000/svg" viewBox="0 0 24 24" fill="none"><path opacity="0.4" d="M22.75 15.0156V15V9V8.98438C22.75 8.0708 22.75 7.33485 22.6963 6.74219C22.6482 6.21172 22.5539 5.73965 22.3447 5.30762L22.248 5.125C21.9189 4.55493 21.4451 4.08108 20.875 3.75195C20.3939 3.47422 19.864 3.35867 19.2578 3.30371C18.6652 3.25 17.9292 3.25 17.0156 3.25H17H16.9844C16.0708 3.25 15.3348 3.25 14.7422 3.30371C14.136 3.35867 13.6061 3.47422 13.125 3.75195C12.5549 4.08108 12.0811 4.55493 11.752 5.125C11.4742 5.60613 11.3587 6.13603 11.3037 6.74219C11.25 7.33484 11.25 8.07079 11.25 8.98435V9V15V15.0156C11.25 15.9292 11.25 16.6652 11.3037 17.2578C11.3587 17.864 11.4742 18.3939 11.752 18.875C12.0811 19.4451 12.5549 19.9189 13.125 20.248L13.3076 20.3447C13.7397 20.5539 14.2117 20.6482 14.7422 20.6963C15.3348 20.75 16.0708 20.75 16.9843 20.75H17H17.0157C17.9292 20.75 18.6652 20.75 19.2578 20.6963C19.864 20.6413 20.3939 20.5258 20.875 20.248C21.4451 19.9189 21.9189 19.4451 22.248 18.875C22.5258 18.3939 22.6413 17.864 22.6963 17.2578C22.75 16.6652 22.75 15.9292 22.75 15.0156Z" fill="currentColor"/><path d="M17 16.75C18.2426 16.75 19.25 15.7426 19.25 14.5C19.25 13.2574 18.2426 12.25 17 12.25C15.7574 12.25 14.75 13.2574 14.75 14.5C14.75 15.7426 15.7574 16.75 17 16.75Z" fill="currentColor"/><path d="M18 8.25C18 8.80228 17.5523 9.25 17 9.25C16.4477 9.25 16 8.80228 16 8.25C16 7.69772 16.4477 7.25 17 7.25C17.5523 7.25 18 7.69772 18 8.25Z" fill="currentColor"/><path d="M10.6689 4.5C10.9409 4.02889 11.2874 3.60724 11.6924 3.25H7.93555C6.57249 3.24997 5.47331 3.24995 4.6084 3.36621C3.70829 3.48723 2.95055 3.74672 2.34863 4.34863C1.74672 4.95055 1.48723 5.70829 1.36621 6.6084C1.24995 7.47331 1.24997 8.57249 1.25 9.93555V10.0645C1.24997 11.4275 1.24995 12.5267 1.36621 13.3916C1.48723 14.2917 1.74672 15.0495 2.34863 15.6514C2.95055 16.2533 3.70829 16.5128 4.6084 16.6338C5.25883 16.7212 6.07201 16.7602 7 16.7655V18.25C7 18.526 6.77597 18.7498 6.5 18.75H4.5C3.94772 18.75 3.5 19.1977 3.5 19.75C3.5 20.3023 3.94772 20.75 4.5 20.75H9C9.55212 20.7498 10 20.3022 10 19.75V18.25L10 15.0723V8.92774C9.99996 8.05778 9.99992 7.2763 10.0586 6.62891C10.1213 5.93744 10.2629 5.20354 10.6689 4.5Z" fill="currentColor"/></svg>
