<svg xmlns="http://www.w3.org/2000/svg" viewBox="0 0 24 24" fill="none"><path d="M17.0151 3.25C17.9287 3.25 18.6647 3.25 19.2573 3.30371C19.8635 3.35867 20.3934 3.47422 20.8745 3.75195C21.4446 4.08108 21.9184 4.55493 22.2476 5.125L22.3442 5.30762C22.5534 5.73965 22.6477 6.21172 22.6958 6.74219C22.7495 7.33485 22.7495 8.0708 22.7495 8.98438V15.0156C22.7495 15.9292 22.7495 16.6652 22.6958 17.2578C22.6408 17.864 22.5253 18.3939 22.2476 18.875C21.9184 19.4451 21.4446 19.9189 20.8745 20.248C20.3934 20.5258 19.8635 20.6413 19.2573 20.6963C18.6647 20.75 17.9287 20.75 17.0151 20.75H16.9839C16.0704 20.75 15.3343 20.75 14.7417 20.6963C14.2112 20.6482 13.7392 20.5539 13.3071 20.3447L13.1245 20.248C12.5544 19.9189 12.0806 19.4451 11.7515 18.875C11.4737 18.3939 11.3582 17.864 11.3032 17.2578C11.2495 16.6652 11.2495 15.9292 11.2495 15.0156V8.98438C11.2495 8.07081 11.2495 7.33484 11.3032 6.74219C11.3582 6.13603 11.4737 5.60613 11.7515 5.125C12.0806 4.55493 12.5544 4.08108 13.1245 3.75195C13.6056 3.47422 14.1355 3.35867 14.7417 3.30371C15.3344 3.25 16.0703 3.25 16.9839 3.25H17.0151ZM16.9995 12.25C15.7569 12.25 14.7495 13.2574 14.7495 14.5C14.7495 15.7426 15.7569 16.75 16.9995 16.75C18.2422 16.75 19.2495 15.7426 19.2495 14.5C19.2495 13.2574 18.2422 12.25 16.9995 12.25ZM16.9995 7.25C16.4472 7.25 15.9995 7.69772 15.9995 8.25C15.9995 8.80228 16.4472 9.25 16.9995 9.25C17.5518 9.25 17.9995 8.80228 17.9995 8.25C17.9995 7.69772 17.5518 7.25 16.9995 7.25Z" fill="currentColor"/><path d="M10.6685 4.5C10.9405 4.02889 11.287 3.60724 11.6919 3.25H7.93506C6.572 3.24997 5.47282 3.24995 4.60791 3.36621C3.7078 3.48723 2.95006 3.74672 2.34815 4.34863C1.74623 4.95055 1.48674 5.70829 1.36572 6.6084C1.24946 7.47331 1.24948 8.57249 1.24951 9.93555V10.0645C1.24948 11.4275 1.24946 12.5267 1.36572 13.3916C1.48674 14.2917 1.74623 15.0495 2.34815 15.6514C2.95006 16.2533 3.7078 16.5128 4.60791 16.6338C5.25834 16.7212 6.07152 16.7602 6.99951 16.7655V18.25C6.99951 18.526 6.77549 18.7498 6.49951 18.75H4.49951C3.94723 18.75 3.49951 19.1977 3.49951 19.75C3.49951 20.3023 3.94723 20.75 4.49951 20.75H8.99951C9.55163 20.7498 9.99951 20.3022 9.99951 19.75V18.25L9.99951 15.0723V8.92774C9.99947 8.05778 9.99943 7.2763 10.0581 6.62891C10.1208 5.93744 10.2624 5.20354 10.6685 4.5Z" fill="currentColor"/></svg>
