<svg xmlns="http://www.w3.org/2000/svg" viewBox="0 0 24 24" fill="none"><path d="M1.54302 1.54387C1.93354 1.15335 2.56655 1.15335 2.95708 1.54387L22.4571 21.0439C22.8476 21.4344 22.8476 22.0674 22.4571 22.4579C22.0666 22.8485 21.4335 22.8485 21.043 22.4579L1.54302 2.95793C1.15249 2.56741 1.15249 1.93439 1.54302 1.54387Z" fill="currentColor"/><path d="M14.8702 14.8701C14.4972 16.1025 13.3542 16.9999 12.0001 17C11.448 17 11.0004 17.4479 11.0001 18C11.0003 18.5521 11.448 19 12.0001 19C13.8952 19 15.5437 17.9458 16.3917 16.3916L19.2892 19.2891C17.6971 21.3235 15.1954 22.75 12.0001 22.75C6.2576 22.75 2.75017 18.1455 2.75012 13.6777C2.75025 11.3796 3.72941 9.15444 4.97668 7.24121C5.27451 6.7844 5.58979 6.34118 5.91516 5.91504L14.8702 14.8701Z" fill="currentColor"/><path opacity="0.4" d="M14.922 2.42782C13.2678 0.857354 10.7325 0.857434 9.07825 2.42782C8.59328 2.88838 8.06634 3.4151 7.53137 3.99618L20.5831 17.0479C21.0194 15.9682 21.2501 14.8187 21.2501 13.6778C21.25 11.3797 20.2708 9.15452 19.0236 7.24129C17.7706 5.31945 16.2019 3.64333 14.922 2.42782Z" fill="currentColor"/></svg>
