<svg xmlns="http://www.w3.org/2000/svg" viewBox="0 0 24 24" fill="none"><path d="M1.54302 1.54387C1.93354 1.15335 2.56655 1.15335 2.95708 1.54387L22.4571 21.0439C22.8476 21.4344 22.8476 22.0674 22.4571 22.4579C22.0666 22.8485 21.4335 22.8485 21.043 22.4579L1.54302 2.95793C1.15249 2.56741 1.15249 1.93439 1.54302 1.54387Z" fill="currentColor"/><path d="M14.8702 14.8702C14.4972 16.1026 13.3542 17 12.0001 17.0001C11.448 17.0001 11.0004 17.448 11.0001 18.0001C11.0003 18.5522 11.448 19.0001 12.0001 19.0001C13.8952 19 15.5437 17.9458 16.3917 16.3917L19.2892 19.2891C17.6971 21.3236 15.1954 22.75 12.0001 22.7501C6.2576 22.7501 2.75017 18.1456 2.75012 13.6778C2.75025 11.3797 3.72941 9.15452 4.97668 7.24129C5.27451 6.78448 5.58979 6.34126 5.91516 5.91512L14.8702 14.8702Z" fill="currentColor"/><path d="M9.07825 2.42782C10.7325 0.857434 13.2678 0.857354 14.922 2.42782C16.2019 3.64333 17.7706 5.31945 19.0236 7.24129C20.2708 9.15452 21.25 11.3797 21.2501 13.6778C21.2501 14.8187 21.0194 15.9682 20.5831 17.0479L7.53137 3.99618C8.06634 3.4151 8.59328 2.88838 9.07825 2.42782Z" fill="currentColor"/></svg>
