<svg xmlns="http://www.w3.org/2000/svg" viewBox="0 0 24 24" fill="none"><path d="M9.99963 17.75C10.9661 17.75 11.7496 16.9665 11.7496 16V10C11.7496 9.0335 10.9661 8.25 9.99963 8.25H8.99963C8.03314 8.25 7.24963 9.0335 7.24963 10V16C7.24963 16.9665 8.03314 17.75 8.99963 17.75H9.99963Z" fill="currentColor"/><path d="M16.9996 17.75C17.9661 17.75 18.7496 16.9665 18.7496 16V6C18.7496 5.0335 17.9661 4.25 16.9996 4.25H15.9996C15.0331 4.25 14.2496 5.0335 14.2496 6V16C14.2496 16.9665 15.0331 17.75 15.9996 17.75H16.9996Z" fill="currentColor"/><path d="M1.99964 13V3C1.99964 2.44772 2.44735 2 2.99964 2C3.55192 2 3.99964 2.44772 3.99964 3V13C3.99964 14.9139 4.00192 16.2487 4.13733 17.2559C4.26887 18.2342 4.50953 18.7521 4.87854 19.1211C5.24755 19.4901 5.76544 19.7308 6.74378 19.8623C7.75091 19.9977 9.08575 20 10.9996 20H20.9996C21.5519 20 21.9996 20.4477 21.9996 21C21.9996 21.5523 21.5519 22 20.9996 22H10.9996C9.14229 22 7.64855 22.0022 6.47717 21.8447C5.27708 21.6834 4.26701 21.3377 3.46448 20.5352C2.66195 19.7326 2.31627 18.7226 2.15491 17.5225C1.99742 16.3511 1.99964 14.8573 1.99964 13Z" fill="currentColor"/></svg>
