<svg xmlns="http://www.w3.org/2000/svg" viewBox="0 0 24 24" fill="none"><path d="M2 13.75V2.75C2 2.19772 2.44772 1.75 3 1.75C3.55229 1.75 4 2.19772 4 2.75V13.75C4 15.4281 4.00207 16.5861 4.11914 17.457C4.23238 18.2992 4.43663 18.7218 4.73242 19.0176C5.02822 19.3134 5.45076 19.5176 6.29297 19.6309C7.16393 19.7479 8.32193 19.75 10 19.75H21C21.5523 19.75 22 20.1977 22 20.75C22 21.3023 21.5523 21.75 21 21.75H10C8.37841 21.75 7.06157 21.7524 6.02637 21.6133C4.96238 21.4702 4.04769 21.161 3.31836 20.4316C2.58903 19.7023 2.27977 18.7876 2.13672 17.7236C1.99755 16.6884 2 15.3716 2 13.75Z" fill="currentColor"/><path d="M19.293 3.04311C19.6835 2.65258 20.3166 2.65258 20.7071 3.04311C21.0976 3.43363 21.0976 4.06665 20.7071 4.45717L5.20708 19.9572C4.81655 20.3477 4.18354 20.3477 3.79302 19.9572C3.40249 19.5666 3.40249 18.9336 3.79302 18.5431L19.293 3.04311Z" fill="currentColor"/><path opacity="0.4" d="M13.25 15.75C13.9404 15.75 14.5 16.3096 14.5 17C14.5 17.6904 13.9404 18.25 13.25 18.25C12.5596 18.25 12 17.6904 12 17C12 16.3096 12.5596 15.75 13.25 15.75Z" fill="currentColor"/><path opacity="0.4" d="M19.25 9.75C19.9404 9.75 20.5 10.3096 20.5 11C20.5 11.6904 19.9404 12.25 19.25 12.25C18.5596 12.25 18 11.6904 18 11C18 10.3096 18.5596 9.75 19.25 9.75Z" fill="currentColor"/><path opacity="0.4" d="M14.25 2.75C14.9404 2.75 15.5 3.30965 15.5 4C15.5 4.69036 14.9404 5.25 14.25 5.25C13.5596 5.25 13 4.69036 13 4C13 3.30965 13.5596 2.75 14.25 2.75Z" fill="currentColor"/><path opacity="0.4" d="M9.25 4.75C9.94035 4.75 10.5 5.30965 10.5 6C10.5 6.69036 9.94035 7.25 9.25 7.25C8.55964 7.25 8 6.69036 8 6C8 5.30965 8.55964 4.75 9.25 4.75Z" fill="currentColor"/><path opacity="0.4" d="M7.25 9.75C7.94035 9.75 8.5 10.3096 8.5 11C8.5 11.6904 7.94035 12.25 7.25 12.25C6.55964 12.25 6 11.6904 6 11C6 10.3096 6.55964 9.75 7.25 9.75Z" fill="currentColor"/></svg>
