<svg xmlns="http://www.w3.org/2000/svg" viewBox="0 0 24 24" fill="none"><path opacity="0.4" d="M20.75 14.0516V14V13.9484C20.75 12.5839 20.75 11.5019 20.6621 10.6377C20.5718 9.75019 20.3823 9.00948 19.9492 8.36133C19.6027 7.84268 19.1573 7.39733 18.6387 7.05078C17.9905 6.61773 17.2498 6.42819 16.3623 6.33789C15.4981 6.24997 14.4161 6.24999 13.0516 6.25H13H11H10.9484C9.58389 6.24999 8.50193 6.24997 7.6377 6.33789C6.75019 6.42819 6.00948 6.61773 5.36133 7.05078C4.84268 7.39733 4.39733 7.84268 4.05078 8.36133C3.61773 9.00948 3.42819 9.75019 3.33789 10.6377C3.24997 11.5019 3.24999 12.5839 3.25 13.9484V14V14.0516C3.24999 15.4161 3.24997 16.4981 3.33789 17.3623C3.42819 18.2498 3.61773 18.9905 4.05078 19.6387C4.39733 20.1573 4.84268 20.6027 5.36133 20.9492C6.00948 21.3823 6.75019 21.5718 7.6377 21.6621C8.50193 21.75 9.58387 21.75 10.9483 21.75H11H13H13.0517C14.4161 21.75 15.4981 21.75 16.3623 21.6621C17.2498 21.5718 17.9905 21.3823 18.6387 20.9492C19.1573 20.6027 19.6027 20.1573 19.9492 19.6387C20.3823 18.9905 20.5718 18.2498 20.6621 17.3623C20.75 16.4981 20.75 15.4161 20.75 14.0516Z" fill="currentColor"/><path d="M14 16C14.5523 16 15 16.4477 15 17C15 17.5523 14.5523 18 14 18H10C9.44772 18 9 17.5523 9 17C9 16.4477 9.44772 16 10 16H14Z" fill="currentColor"/><path d="M14 13V11C14 10.4477 14.4477 10 15 10C15.5523 10 16 10.4477 16 11V13C16 13.5523 15.5523 14 15 14C14.4477 14 14 13.5523 14 13Z" fill="currentColor"/><path d="M8 13V11C8 10.4477 8.44772 10 9 10C9.55228 10 10 10.4477 10 11V13C10 13.5523 9.55228 14 9 14C8.44772 14 8 13.5523 8 13Z" fill="currentColor"/><path d="M3.25 13.9482V14.0518C3.25 14.3843 3.24971 14.7001 3.25098 15H2.25C1.69772 15 1.25 14.5523 1.25 14C1.25 13.4477 1.69772 13 2.25 13H3.25098C3.24971 13.2999 3.25 13.6157 3.25 13.9482Z" fill="currentColor"/><path d="M21.75 13C22.3023 13 22.75 13.4477 22.75 14C22.75 14.5523 22.3023 15 21.75 15H20.749C20.7503 14.7001 20.75 14.3843 20.75 14.0518V13.9482C20.75 13.6157 20.7503 13.2999 20.749 13H21.75Z" fill="currentColor"/><path d="M8 2.25001C8.91454 2.25001 9.70138 2.24777 10.3281 2.33204C10.9835 2.42019 11.6115 2.61933 12.1211 3.12891C12.6307 3.63849 12.8298 4.26648 12.918 4.92188C12.9697 5.30672 12.9871 5.75195 12.9941 6.25001H10.9932C10.9866 5.80923 10.9732 5.46852 10.9355 5.18848C10.8772 4.75494 10.7831 4.61908 10.707 4.54297C10.6309 4.46686 10.4951 4.37278 10.0615 4.31446C9.59902 4.25228 8.97108 4.25001 8 4.25001C7.44772 4.25001 7 3.80229 7 3.25001C7 2.69772 7.44772 2.25001 8 2.25001Z" fill="currentColor"/></svg>
