<svg xmlns="http://www.w3.org/2000/svg" viewBox="0 0 24 24" fill="none"><path d="M8 2.25001C8.91454 2.25001 9.70138 2.24777 10.3281 2.33204C10.9835 2.42019 11.6115 2.61933 12.1211 3.12891C12.6307 3.63849 12.8298 4.26648 12.918 4.92188C12.9697 5.30672 12.9871 5.75195 12.9941 6.25001H13.0518C14.4162 6.24999 15.4981 6.24998 16.3623 6.3379C17.2498 6.4282 17.9905 6.61773 18.6387 7.05079C19.1573 7.39734 19.6027 7.84268 19.9492 8.36133C20.3823 9.00948 20.5718 9.75019 20.6621 10.6377C20.7286 11.2913 20.7451 12.0694 20.749 13H21.75C22.3023 13 22.75 13.4477 22.75 14C22.75 14.5523 22.3023 15 21.75 15H20.749C20.7451 15.9306 20.7286 16.7087 20.6621 17.3623C20.5718 18.2498 20.3823 18.9905 19.9492 19.6387C19.6027 20.1573 19.1573 20.6027 18.6387 20.9492C17.9905 21.3823 17.2498 21.5718 16.3623 21.6621C15.4981 21.75 14.4162 21.75 13.0518 21.75H10.9482C9.58382 21.75 8.50191 21.75 7.6377 21.6621C6.75019 21.5718 6.00947 21.3823 5.36133 20.9492C4.84268 20.6027 4.39733 20.1573 4.05078 19.6387C3.61773 18.9905 3.42819 18.2498 3.33789 17.3623C3.2714 16.7087 3.25492 15.9306 3.25098 15H2.25C1.69772 15 1.25 14.5523 1.25 14C1.25 13.4477 1.69772 13 2.25 13H3.25098C3.25492 12.0694 3.2714 11.2913 3.33789 10.6377C3.42819 9.75019 3.61773 9.00948 4.05078 8.36133C4.39733 7.84268 4.84268 7.39734 5.36133 7.05079C6.00947 6.61773 6.75019 6.4282 7.6377 6.3379C8.50191 6.24998 9.58382 6.24999 10.9482 6.25001H10.9932C10.9866 5.80923 10.9732 5.46852 10.9355 5.18848C10.8772 4.75494 10.7831 4.61908 10.707 4.54297C10.6309 4.46686 10.4951 4.37278 10.0615 4.31446C9.59902 4.25228 8.97108 4.25001 8 4.25001C7.44772 4.25001 7 3.80229 7 3.25001C7 2.69772 7.44772 2.25001 8 2.25001ZM10 16C9.44772 16 9 16.4477 9 17C9 17.5523 9.44772 18 10 18H14C14.5523 18 15 17.5523 15 17C15 16.4477 14.5523 16 14 16H10ZM9 10C8.44772 10 8 10.4477 8 11V13C8 13.5523 8.44772 14 9 14C9.55229 14 10 13.5523 10 13V11C10 10.4477 9.55228 10 9 10ZM15 10C14.4477 10 14 10.4477 14 11V13C14 13.5523 14.4477 14 15 14C15.5523 14 16 13.5523 16 13V11C16 10.4477 15.5523 10 15 10Z" fill="currentColor" fill-rule="evenodd" clip-rule="evenodd"/></svg>
