<svg xmlns="http://www.w3.org/2000/svg" viewBox="0 0 24 24" fill="none"><path opacity="0.4" d="M2.75008 15.9091V9.06819C2.75008 8.22228 2.74213 7.60772 2.8832 7.0793C3.24333 5.7303 4.29285 4.67692 5.63688 4.31546C6.16336 4.17386 6.77566 4.18184 7.61846 4.18184C8.15621 4.18184 8.59214 4.61938 8.59214 5.15911C8.59214 5.69884 8.15621 6.13638 7.61846 6.13638C6.65029 6.13638 6.35726 6.14498 6.14083 6.20319C5.46882 6.38392 4.94406 6.91061 4.76399 7.58511C4.706 7.80233 4.69743 8.09645 4.69743 9.06819V15.9091C4.69743 17.3185 4.69923 18.2774 4.79537 18.9955C4.8878 19.6855 5.05123 20.0053 5.26795 20.2228C5.48466 20.4403 5.80328 20.6044 6.49075 20.6971C7.20618 20.7936 8.16156 20.7954 9.56581 20.7954H14.4342C15.8384 20.7954 16.7938 20.7936 17.5093 20.6971C18.1967 20.6044 18.5153 20.4403 18.7321 20.2228C18.9488 20.0053 19.1122 19.6855 19.2046 18.9955C19.3008 18.2774 19.3026 17.3185 19.3026 15.9091V12.9773C19.3026 12.4375 19.7385 12 20.2762 12C20.814 12 21.2499 12.4375 21.2499 12.9773V15.9091C21.2499 17.2634 21.2516 18.3774 21.1339 19.256C21.0125 20.1628 20.7477 20.9635 20.1089 21.6047C19.4701 22.2459 18.6722 22.5116 17.7688 22.6335C16.8935 22.7516 15.7835 22.75 14.4342 22.75H9.56581C8.21645 22.75 7.10653 22.7516 6.23116 22.6335C5.32776 22.5116 4.52995 22.2459 3.89111 21.6047C3.25227 20.9635 2.98755 20.1628 2.86609 19.256C2.74842 18.3774 2.75008 17.2634 2.75008 15.9091Z" fill="currentColor"/><path d="M19.3025 9.06823C19.3025 8.09648 19.2939 7.80237 19.236 7.58514C19.0559 6.91065 18.5311 6.38395 17.8591 6.20322C17.6427 6.14502 17.3497 6.13642 16.3815 6.13642H13.567C13.582 6.14959 13.5965 6.16333 13.6116 6.1765C13.9598 6.47987 14.3111 6.76337 14.5768 6.97149C14.7089 7.075 14.819 7.15889 14.8953 7.21676L15.0056 7.29979C15.0078 7.30143 15.0103 7.3036 15.0103 7.3036C15.4432 7.62358 15.5372 8.23569 15.2186 8.67026C14.8998 9.10472 14.2899 9.19805 13.857 8.87831L13.856 8.87735L13.8532 8.87544C13.8514 8.87416 13.8495 8.87191 13.8465 8.86972C13.8402 8.86506 13.8313 8.85825 13.8199 8.84968C13.7969 8.8325 13.7636 8.80781 13.7219 8.77619C13.6386 8.713 13.5202 8.62266 13.3787 8.51183C13.0968 8.291 12.7176 7.9858 12.3356 7.6529C11.9584 7.32423 11.5559 6.94921 11.2402 6.59069C11.0833 6.41249 10.9269 6.21476 10.8047 6.01139C10.712 5.85695 10.5781 5.60273 10.5461 5.29467L10.5394 5.15915L10.5461 5.02363C10.5781 4.71557 10.712 4.46134 10.8047 4.3069C10.9269 4.10353 11.0833 3.9058 11.2402 3.7276C11.5559 3.36909 11.9584 2.99406 12.3356 2.66539C12.7176 2.3325 13.0968 2.02729 13.3787 1.80646C13.5202 1.69563 13.6386 1.6053 13.7219 1.5421C13.7636 1.51049 13.7969 1.48579 13.8199 1.46862C13.8313 1.46005 13.8402 1.45323 13.8465 1.44858C13.8495 1.44638 13.8514 1.44413 13.8532 1.44285L13.856 1.44094L13.857 1.43999C14.2899 1.12028 14.8988 1.21364 15.2176 1.64804C15.5365 2.08263 15.4443 2.69462 15.0113 3.01469C15.0113 3.01469 15.0078 3.01687 15.0056 3.01851L14.8953 3.10154C14.819 3.15941 14.7089 3.24329 14.5768 3.34681C14.3111 3.55492 13.9598 3.83843 13.6116 4.14179C13.5965 4.15496 13.582 4.16871 13.567 4.18188H16.3815C17.2243 4.18188 17.8366 4.1739 18.3631 4.31549C19.7071 4.67695 20.7566 5.73034 21.1167 7.07933C21.2578 7.60776 21.2499 8.22231 21.2499 9.06823C21.2499 9.60796 20.8139 10.0455 20.2762 10.0455C19.7384 10.0455 19.3025 9.60796 19.3025 9.06823Z" fill="currentColor"/></svg>
