<svg xmlns="http://www.w3.org/2000/svg" viewBox="0 0 24 24" fill="none"><path d="M2.74972 15.9091V9.06823C2.74972 8.22231 2.74177 7.60776 2.88284 7.07933C3.24297 5.73034 4.29248 4.67695 5.63651 4.31549C6.163 4.1739 6.77529 4.18188 7.61809 4.18188C8.15584 4.18188 8.59177 4.61942 8.59177 5.15915C8.59177 5.69888 8.15584 6.13642 7.61809 6.13642C6.64992 6.13642 6.35689 6.14502 6.14046 6.20322C5.46845 6.38395 4.94369 6.91065 4.76363 7.58514C4.70564 7.80237 4.69707 8.09648 4.69707 9.06823V15.9091C4.69707 17.3186 4.69886 18.2775 4.795 18.9955C4.88743 19.6855 5.05087 20.0053 5.26758 20.2228C5.48429 20.4404 5.80291 20.6044 6.49038 20.6972C7.20581 20.7937 8.16119 20.7955 9.56544 20.7955H14.4338C15.8381 20.7955 16.7935 20.7937 17.5089 20.6972C18.1964 20.6044 18.515 20.4404 18.7317 20.2228C18.9484 20.0053 19.1118 19.6855 19.2043 18.9955C19.3004 18.2775 19.3022 17.3186 19.3022 15.9091V12.9773C19.3022 12.4376 19.7381 12 20.2759 12C20.8136 12 21.2496 12.4376 21.2496 12.9773V15.9091C21.2496 17.2635 21.2512 18.3775 21.1335 19.2561C21.0121 20.1628 20.7474 20.9636 20.1085 21.6048C19.4697 22.246 18.6719 22.5117 17.7685 22.6336C16.8931 22.7517 15.7832 22.75 14.4338 22.75H9.56544C8.21609 22.75 7.10616 22.7517 6.2308 22.6336C5.32739 22.5117 4.52958 22.246 3.89074 21.6048C3.2519 20.9636 2.98718 20.1628 2.86572 19.2561C2.74805 18.3775 2.74972 17.2635 2.74972 15.9091ZM19.3022 9.06823C19.3022 8.09648 19.2936 7.80237 19.2356 7.58514C19.0556 6.91065 18.5308 6.38395 17.8588 6.20322C17.6424 6.14502 17.3493 6.13642 16.3812 6.13642H13.5666C13.5817 6.14959 13.5962 6.16333 13.6113 6.1765C13.9595 6.47987 14.3108 6.76337 14.5765 6.97149C14.7086 7.075 14.8186 7.15889 14.895 7.21676L15.0053 7.29979C15.0075 7.30143 15.009 7.30287 15.01 7.3036C15.4429 7.62358 15.5368 8.23569 15.2183 8.67026C14.8995 9.10472 14.2896 9.19805 13.8567 8.87831L13.8557 8.87735C13.8552 8.87696 13.8537 8.8761 13.8528 8.87544C13.8511 8.87416 13.8491 8.87191 13.8462 8.86972C13.8399 8.86506 13.831 8.85825 13.8196 8.84968C13.7966 8.8325 13.7633 8.80781 13.7216 8.77619C13.6383 8.713 13.5199 8.62266 13.3784 8.51183C13.0964 8.291 12.7173 7.9858 12.3353 7.6529C11.9581 7.32423 11.5556 6.94921 11.2399 6.59069C11.083 6.41249 10.9266 6.21476 10.8044 6.01139C10.7117 5.85695 10.5777 5.60273 10.5458 5.29467L10.5391 5.15915L10.5458 5.02363C10.5777 4.71557 10.7117 4.46134 10.8044 4.3069C10.9266 4.10353 11.083 3.9058 11.2399 3.7276C11.5556 3.36909 11.9581 2.99406 12.3353 2.66539C12.7173 2.3325 13.0965 2.02729 13.3784 1.80646C13.5199 1.69563 13.6383 1.6053 13.7216 1.5421C13.7633 1.51049 13.7966 1.48579 13.8196 1.46862C13.831 1.46005 13.8399 1.45323 13.8462 1.44858C13.8491 1.44638 13.8511 1.44413 13.8528 1.44285L13.8557 1.44094L13.8567 1.43999C14.2896 1.12028 14.8985 1.21364 15.2173 1.64804C15.5362 2.08263 15.444 2.69462 15.011 3.01469C15.01 3.01542 15.0075 3.01687 15.0053 3.01851L14.895 3.10154C14.8187 3.15941 14.7086 3.24329 14.5765 3.34681C14.3108 3.55492 13.9595 3.83843 13.6113 4.14179C13.5962 4.15496 13.5817 4.16871 13.5666 4.18188H16.3812C17.224 4.18188 17.8363 4.1739 18.3628 4.31549C19.7068 4.67695 20.7563 5.73034 21.1164 7.07933C21.2575 7.60776 21.2496 8.22231 21.2496 9.06823C21.2496 9.60796 20.8136 10.0455 20.2759 10.0455C19.7381 10.0455 19.3022 9.60796 19.3022 9.06823Z" fill="currentColor"/></svg>
