<svg xmlns="http://www.w3.org/2000/svg" viewBox="0 0 24 24" fill="none"><path d="M18.7446 6.75V5.24512H17.2495C16.6973 5.24512 16.2496 4.79735 16.2495 4.24512C16.2495 3.69283 16.6972 3.24512 17.2495 3.24512H18.7446V1.75C18.7446 1.19772 19.1923 0.75 19.7446 0.75C20.2969 0.750063 20.7446 1.19775 20.7446 1.75V3.24512H22.2495C22.8018 3.24512 23.2495 3.69283 23.2495 4.24512C23.2494 4.79735 22.8018 5.24512 22.2495 5.24512H20.7446V6.75C20.7446 7.30225 20.2969 7.74994 19.7446 7.75C19.1923 7.75 18.7446 7.30228 18.7446 6.75Z" fill="currentColor"/><path d="M11.4995 23.25C17.4366 23.25 22.2495 18.4371 22.2495 12.5C22.2495 11.0027 21.9422 9.57737 21.3892 8.28223C20.9784 8.72287 20.3944 8.99993 19.7446 9C18.502 9 17.4946 7.99264 17.4946 6.75V6.49512H17.2495C16.0068 6.49512 14.9997 5.48745 14.9995 4.24512C14.9995 3.59868 15.2739 3.01782 15.7104 2.60742C14.4171 2.05619 12.9942 1.75 11.4995 1.75C5.56245 1.75 0.749512 6.56294 0.749512 12.5C0.749512 18.4371 5.56245 23.25 11.4995 23.25ZM7.87451 10.75C7.3343 10.75 7.0469 10.3318 6.93896 10.1162C6.80881 9.8559 6.74951 9.54829 6.74951 9.25C6.74951 8.95171 6.80881 8.6441 6.93896 8.38379C7.04691 8.16817 7.3343 7.75 7.87451 7.75C8.41473 7.75 8.70212 8.16818 8.81006 8.38379C8.94022 8.6441 8.99951 8.9517 8.99951 9.25C8.99951 9.54829 8.94021 9.8559 8.81006 10.1162C8.70212 10.3318 8.41473 10.75 7.87451 10.75ZM15.1245 10.75C14.5843 10.75 14.2969 10.3318 14.189 10.1162C14.0588 9.8559 13.9995 9.54829 13.9995 9.25C13.9995 8.95171 14.0588 8.6441 14.189 8.38379C14.2969 8.16817 14.5843 7.75 15.1245 7.75C15.6647 7.75 15.9521 8.16818 16.0601 8.38379C16.1902 8.6441 16.2495 8.9517 16.2495 9.25C16.2495 9.54829 16.1902 9.8559 16.0601 10.1162C15.9521 10.3318 15.6647 10.75 15.1245 10.75ZM11.4995 18.5C9.53607 18.4999 7.79253 17.5556 6.69971 16.1006C6.36828 15.659 6.45744 15.0318 6.89893 14.7002C7.34046 14.3686 7.96763 14.458 8.29932 14.8994C9.03068 15.8731 10.1918 16.4999 11.4995 16.5C12.8073 16.5 13.9683 15.8732 14.6997 14.8994C15.0313 14.4579 15.6585 14.3688 16.1001 14.7002C16.5417 15.0318 16.6309 15.659 16.2993 16.1006C15.2065 17.5557 13.463 18.5 11.4995 18.5Z" fill="currentColor" fill-rule="evenodd" clip-rule="evenodd"/></svg>
