<svg xmlns="http://www.w3.org/2000/svg" viewBox="0 0 24 24" fill="none"><path opacity="0.4" d="M22.71 12.7764C22.7359 12.0409 22.75 11.2795 22.75 10.5C22.75 9.72053 22.7359 8.95905 22.71 8.22363C22.6298 5.95045 22.6167 4.41312 21.4023 3.18945C20.7921 2.57464 20.0995 2.26171 19.2588 2.0918C18.4718 1.93276 17.5089 1.8916 16.3416 1.8417L16.2754 1.83887C14.9255 1.78112 13.4892 1.75 12 1.75C10.5108 1.75 9.0745 1.78112 7.72461 1.83887L7.65843 1.8417C6.49109 1.8916 5.5282 1.93276 4.74121 2.0918C3.90049 2.26171 3.20788 2.57464 2.59766 3.18945C1.38331 4.41312 1.37023 5.95046 1.29004 8.22363C1.26409 8.95905 1.25 9.72053 1.25 10.5C1.25 11.2795 1.26409 12.0409 1.29004 12.7764C1.37023 15.0495 1.38331 16.5869 2.59766 17.8105C3.20788 18.4254 3.90049 18.7383 4.74121 18.9082C5.43456 19.0483 6.26419 19.0959 7.25 19.1396V20.7705C7.25022 21.5875 7.91249 22.2498 8.72949 22.25C9.08286 22.25 9.4251 22.1236 9.69336 21.8936L11.873 20.0244C12.4615 19.5198 12.6239 19.3938 12.7988 19.3271C12.9733 19.2607 13.1863 19.2466 13.9834 19.2314C14.7696 19.2165 15.5355 19.1928 16.2754 19.1611L16.3415 19.1583C17.5089 19.1084 18.4718 19.0672 19.2588 18.9082C20.0995 18.7383 20.7921 18.4254 21.4023 17.8105C22.6167 16.5869 22.6298 15.0495 22.71 12.7764Z" fill="currentColor"/><path d="M11 11.5C11 10.7672 11.3371 10.1833 11.6699 9.7627C11.9945 9.35241 12.4097 8.98484 12.6816 8.73145C12.8788 8.54759 13 8.28878 13 8C13 7.44772 12.5523 7 12 7C11.4823 7 11.0562 7.39333 11.0049 7.89746L10.9951 8.10254C10.9438 8.60667 10.5177 9 10 9C9.44772 9 9 8.55228 9 8C9 6.34315 10.3431 5 12 5C13.6569 5 15 6.34315 15 8C15 8.86662 14.6312 9.64897 14.0449 10.1953C13.7109 10.5066 13.4437 10.7433 13.2383 11.0029C13.041 11.2522 13 11.4046 13 11.5C13 12.0523 12.5523 12.5 12 12.5C11.4477 12.5 11 12.0523 11 11.5Z" fill="currentColor"/><path d="M12 13.75C12.5523 13.75 13 14.1977 13 14.75C13 15.3023 12.5523 15.75 12 15.75C11.4477 15.75 11 15.3023 11 14.75C11 14.1977 11.4477 13.75 12 13.75Z" fill="currentColor"/></svg>
