<svg xmlns="http://www.w3.org/2000/svg" viewBox="0 0 24 24" fill="none"><path d="M12 1.75C13.4892 1.75 14.9255 1.78112 16.2754 1.83887L16.3418 1.8418C17.509 1.89169 18.4719 1.93277 19.2588 2.0918C20.0995 2.26171 20.7921 2.57464 21.4023 3.18945C22.6167 4.41312 22.6298 5.95045 22.71 8.22363C22.7359 8.95905 22.75 9.72053 22.75 10.5C22.75 11.2795 22.7359 12.0409 22.71 12.7764C22.6298 15.0495 22.6167 16.5869 21.4023 17.8105C20.7921 18.4254 20.0995 18.7383 19.2588 18.9082C18.4718 19.0672 17.5091 19.1083 16.3418 19.1582L16.2754 19.1611C15.5355 19.1928 14.7696 19.2165 13.9834 19.2314C13.1863 19.2466 12.9733 19.2607 12.7988 19.3271C12.6239 19.3938 12.4615 19.5198 11.873 20.0244L9.69336 21.8936C9.4251 22.1236 9.08286 22.25 8.72949 22.25C7.91249 22.2498 7.25022 21.5875 7.25 20.7705V19.1396C6.26419 19.0959 5.43456 19.0483 4.74121 18.9082C3.90049 18.7383 3.20788 18.4254 2.59766 17.8105C1.38331 16.5869 1.37023 15.0495 1.29004 12.7764C1.26409 12.0409 1.25 11.2795 1.25 10.5C1.25 9.72053 1.26409 8.95905 1.29004 8.22363C1.37023 5.95046 1.38331 4.41312 2.59766 3.18945C3.20788 2.57464 3.90049 2.26171 4.74121 2.0918C5.52815 1.93277 6.49097 1.89169 7.6582 1.8418L7.72461 1.83887C9.0745 1.78112 10.5108 1.75 12 1.75ZM12 13.75C11.4477 13.75 11 14.1977 11 14.75C11 15.3023 11.4477 15.75 12 15.75C12.5523 15.75 13 15.3023 13 14.75C13 14.1977 12.5523 13.75 12 13.75ZM12 5C10.3431 5 9 6.34315 9 8C9 8.55228 9.44771 9 10 9C10.5177 9 10.9438 8.60667 10.9951 8.10254L11.0049 7.89746C11.0562 7.39333 11.4823 7 12 7C12.5523 7 13 7.44772 13 8C13 8.28878 12.8788 8.54759 12.6816 8.73145C12.4097 8.98484 11.9945 9.35241 11.6699 9.7627C11.3371 10.1833 11 10.7672 11 11.5C11 12.0523 11.4477 12.5 12 12.5C12.5523 12.5 13 12.0523 13 11.5C13 11.4046 13.041 11.2522 13.2383 11.0029C13.4437 10.7433 13.7109 10.5066 14.0449 10.1953C14.6312 9.64897 15 8.86662 15 8C15 6.34315 13.6569 5 12 5Z" fill="currentColor"/></svg>
