<svg xmlns="http://www.w3.org/2000/svg" viewBox="0 0 24 24" fill="none"><path opacity="0.4" d="M11.5873 1.2501C12.1573 1.24934 12.6618 1.24866 13.1372 1.41733C13.2352 1.45209 13.3313 1.49208 13.425 1.53715C13.8798 1.75582 14.2361 2.11489 14.6386 2.52054L19.4214 7.32819C19.8888 7.79654 20.3036 8.2122 20.5276 8.75596C20.7517 9.29971 20.7508 9.88846 20.7498 10.5518L20.7496 14.0261C20.7497 15.8081 20.7497 17.2445 20.5986 18.3741C20.4417 19.547 20.1061 20.5345 19.3259 21.3188C18.5456 22.1031 17.5632 22.4405 16.3964 22.5982C15.2726 22.75 13.8437 22.75 12.0709 22.75C10.2981 22.75 8.72696 22.75 7.60313 22.5982C6.43634 22.4405 5.45392 22.1031 4.67367 21.3188C3.89342 20.5345 3.55783 19.547 3.40096 18.3741C3.24986 17.2445 3.24988 15.8081 3.24991 14.0262V14.0261V9.45263V9.4526C3.24989 7.91893 3.24987 6.6824 3.36415 5.69856C3.48239 4.6806 3.73409 3.80839 4.32672 3.06954C4.54426 2.79833 4.79002 2.55128 5.05983 2.33261C5.79486 1.7369 6.66256 1.48389 7.67525 1.36504C8.65401 1.25017 10.0616 1.25008 11.5873 1.2501Z" fill="currentColor"/><path d="M13.1372 1.416C13.2352 1.45076 13.3313 1.49075 13.425 1.53582C13.8798 1.75449 14.2361 2.11356 14.6386 2.51921L19.4214 7.32686L19.4214 7.32686C19.8888 7.79521 20.3036 8.21088 20.5276 8.75463C20.6264 8.99435 20.6815 9.24282 20.7121 9.50258H18.7313C17.3637 9.5026 16.7151 9.50181 15.8482 9.38525C14.9481 9.26424 14.1902 9.00534 13.5883 8.40343C12.9863 7.80151 12.7275 7.04364 12.6064 6.14353C12.4901 5.27834 12.4901 4.63063 12.4901 3.2688V3.26877V1.27734C12.7135 1.30042 12.9282 1.34184 13.1372 1.416Z" fill="currentColor"/><path d="M12.2929 12.293C12.6834 11.9024 13.3164 11.9024 13.7069 12.293C14.0975 12.6835 14.0975 13.3165 13.7069 13.707L10.4364 16.9766C10.8357 16.9969 11.338 17 11.9999 17H15.9999C16.5522 17 16.9999 17.4477 16.9999 18C16.9999 18.5523 16.5522 19 15.9999 19H11.9999C11.0854 19 10.2985 19.0022 9.67179 18.918C9.01639 18.8298 8.3884 18.6307 7.87882 18.1211C7.36924 17.6115 7.1701 16.9835 7.08195 16.3281C6.99768 15.7014 6.99991 14.9145 6.99991 14V10C6.99991 9.44772 7.44763 9 7.99991 9C8.5522 9 8.99991 9.44772 8.99991 10V14C8.99991 14.6614 9.0021 15.1634 9.02238 15.5625L12.2929 12.293Z" fill="currentColor"/></svg>
