<svg xmlns="http://www.w3.org/2000/svg" viewBox="0 0 24 24" fill="none"><path d="M11.5873 1.2501C12.1571 1.24934 12.6618 1.24848 13.1371 1.4171C13.2349 1.4518 13.3307 1.49224 13.4242 1.53721C13.879 1.75587 14.2356 2.11499 14.6381 2.52061L19.4213 7.32823C19.8885 7.79643 20.3027 8.21242 20.5268 8.75596C20.7508 9.29967 20.7504 9.88856 20.7494 10.5519V14.0265C20.7494 15.8082 20.7491 17.2445 20.5981 18.3741C20.4412 19.5468 20.1056 20.5342 19.3256 21.3185C18.5453 22.1028 17.5627 22.441 16.3959 22.5987C15.2722 22.7506 13.8433 22.7501 12.0707 22.7501C10.2981 22.7501 8.72675 22.7506 7.60294 22.5987C6.43615 22.441 5.4535 22.1028 4.67325 21.3185C3.89318 20.5342 3.55764 19.5469 3.40079 18.3741C3.24972 17.2445 3.24939 15.8083 3.24942 14.0265V9.45225C3.2494 7.91884 3.24942 6.68207 3.36368 5.69835C3.48194 4.68057 3.73402 3.80819 4.32657 3.06944C4.54393 2.7985 4.78946 2.5516 5.05899 2.33311C5.79401 1.73743 6.66253 1.48419 7.6752 1.36534C8.65394 1.25052 10.0618 1.25008 11.5873 1.2501ZM7.99942 9.0001C7.44714 9.00011 6.99942 9.44782 6.99942 10.0001V14.0001C6.99942 14.9146 6.99719 15.7015 7.08145 16.3282C7.1696 16.9836 7.36875 17.6116 7.87833 18.1212C8.38791 18.6308 9.01589 18.8299 9.6713 18.9181C10.298 19.0023 11.0849 19.0001 11.9994 19.0001H15.9994C16.5517 19.0001 16.9994 18.5524 16.9994 18.0001C16.9994 17.4478 16.5517 17.0001 15.9994 17.0001H11.9994C11.3375 17.0001 10.8352 16.997 10.4359 16.9767L13.7065 13.7071C14.097 13.3166 14.097 12.6836 13.7065 12.2931C13.3159 11.9026 12.6829 11.9025 12.2924 12.2931L9.02188 15.5626C9.00161 15.1635 8.99942 14.6615 8.99942 14.0001V10.0001C8.99942 9.44782 8.55171 9.0001 7.99942 9.0001ZM12.4897 3.27061C12.4896 4.63196 12.4896 5.27975 12.6059 6.14463C12.7268 7.04449 12.9858 7.80257 13.5873 8.4044C14.1892 9.00631 14.948 9.26581 15.8481 9.38682C16.7148 9.50333 17.3635 9.50403 18.7309 9.50401C18.6741 9.36621 18.5685 9.23553 17.9506 8.61436L13.3461 3.98546C12.8132 3.44978 12.6713 3.31651 12.4897 3.26182V3.27061Z" fill="currentColor" fill-rule="evenodd" clip-rule="evenodd"/></svg>
