<svg xmlns="http://www.w3.org/2000/svg" viewBox="0 0 24 24" fill="none"><path d="M2.25 16.1875C2.25 15.6697 2.68652 15.25 3.225 15.25H17.85C20.0039 15.25 21.75 16.9289 21.75 19C21.75 21.0711 20.0039 22.75 17.85 22.75H3.225C2.68652 22.75 2.25 22.3303 2.25 21.8125C2.25 21.2947 2.68652 20.875 3.225 20.875H17.85C18.927 20.875 19.8 20.0355 19.8 19C19.8 17.9645 18.927 17.125 17.85 17.125H3.225C2.68652 17.125 2.25 16.7053 2.25 16.1875Z" fill="currentColor" fill-rule="evenodd" clip-rule="evenodd"/><path d="M4 19C4 18.4477 4.44772 18 5 18H5.00898C5.56126 18 6.00898 18.4477 6.00898 19C6.00898 19.5523 5.56126 20 5.00898 20H5C4.44772 20 4 19.5523 4 19ZM9.99551 19C9.99551 18.4477 10.4432 18 10.9955 18H11.0045C11.5568 18 12.0045 18.4477 12.0045 19C12.0045 19.5523 11.5568 20 11.0045 20H10.9955C10.4432 20 9.99551 19.5523 9.99551 19ZM15.991 19C15.991 18.4477 16.4387 18 16.991 18H17C17.5523 18 18 18.4477 18 19C18 19.5523 17.5523 20 17 20H16.991C16.4387 20 15.991 19.5523 15.991 19Z" fill="currentColor" fill-rule="evenodd" clip-rule="evenodd"/><path d="M8.58013 1.25H13.4199C14.0375 1.24997 14.5733 1.24995 15.0163 1.29337C15.4916 1.33994 15.9478 1.44271 16.3772 1.7007C16.8099 1.96064 17.0979 2.30744 17.3348 2.69545C17.5527 3.0522 17.7609 3.50261 17.997 4.01337L18.6685 5.46574C18.883 5.92953 18.6595 6.47001 18.1693 6.67292C17.6792 6.87583 17.108 6.66434 16.8935 6.20054L16.2415 4.79035C15.98 4.22482 15.8144 3.86996 15.6573 3.61268C15.5133 3.37687 15.4186 3.2963 15.3388 3.24835C15.2557 3.19844 15.127 3.14727 14.8167 3.11687C14.4854 3.0844 14.0508 3.08326 13.3734 3.08326H8.62664C7.94917 3.08326 7.51463 3.0844 7.18325 3.11687C6.87301 3.14727 6.74431 3.19844 6.66124 3.24835C6.58143 3.2963 6.4867 3.37687 6.34269 3.61268C6.18557 3.86996 6.01997 4.22482 5.75849 4.79035L5.10646 6.20054C4.89202 6.66434 4.32084 6.87583 3.83068 6.67292C3.34053 6.47001 3.11702 5.92953 3.33146 5.46574L3.98349 4.05554C3.99001 4.04143 3.99651 4.02737 4.00299 4.01335C4.23911 3.5026 4.44732 3.05219 4.66519 2.69545C4.90214 2.30744 5.19007 1.96064 5.62276 1.7007C6.05218 1.44271 6.50841 1.33994 6.98368 1.29337C7.42672 1.24995 7.96248 1.24997 8.58013 1.25Z" fill="currentColor" fill-rule="evenodd" clip-rule="evenodd"/><path d="M11.832 16.75C13.2525 16.75 14.3936 16.7504 15.29 16.6318C16.2182 16.509 16.9966 16.2464 17.6152 15.6377C18.2353 15.0274 18.5034 14.2567 18.6289 13.3379C18.7497 12.4535 18.75 11.3291 18.75 9.93359V6C18.75 5.58579 18.4142 5.25 18 5.25L4 5.25C3.58579 5.25 3.25 5.58579 3.25 6L3.25 9.93359C3.24998 11.3291 3.25028 12.4535 3.37109 13.3379C3.49664 14.2567 3.76471 15.0274 4.38477 15.6377C5.00338 16.2464 5.78183 16.509 6.70996 16.6318C7.60638 16.7504 8.74753 16.75 10.168 16.75H11.832ZM9.5 10C8.94772 10 8.5 9.55228 8.5 9C8.5 8.44772 8.94772 8 9.5 8L12.5 8C13.0523 8 13.5 8.44771 13.5 9C13.5 9.55228 13.0523 10 12.5 10H9.5Z" fill="currentColor"/></svg>
