<svg xmlns="http://www.w3.org/2000/svg" viewBox="0 0 24 24" fill="none"><path d="M12 16.75C14.6234 16.75 16.75 14.6234 16.75 12C16.75 9.37665 14.6234 7.25 12 7.25C9.37665 7.25 7.25 9.37665 7.25 12C7.25 14.6234 9.37665 16.75 12 16.75Z" fill="currentColor"/><path d="M2.38968 12.298C2.93857 12.237 3.43319 12.6329 3.49418 13.1818C3.81421 16.0609 5.59466 18.5788 8.21488 19.8507C8.71135 20.092 8.91868 20.69 8.67777 21.1867C8.4366 21.6835 7.8377 21.8907 7.34085 21.6495C4.10582 20.0791 1.90205 16.9674 1.50589 13.4025C1.44491 12.8536 1.84078 12.359 2.38968 12.298ZM21.6104 12.298C22.1593 12.359 22.5552 12.8536 22.4942 13.4025C22.098 16.9674 19.8942 20.0791 16.6592 21.6495C16.1624 21.8907 15.5635 21.6835 15.3223 21.1867C15.0814 20.69 15.2887 20.092 15.7852 19.8507C18.4054 18.5788 20.1859 16.0609 20.5059 13.1818C20.5669 12.6329 21.0615 12.237 21.6104 12.298ZM5.24613 4.11244C9.11367 0.962521 14.6755 0.962521 18.543 4.11244C18.9711 4.46123 19.0353 5.09149 18.6866 5.51966C18.3378 5.94779 17.7075 6.01196 17.2793 5.66322C14.1474 3.11259 9.64178 3.11265 6.5098 5.66322C6.08164 6.01193 5.45138 5.94771 5.10257 5.51966C4.75382 5.09145 4.81794 4.46121 5.24613 4.11244Z" fill="currentColor"/><path d="M12 20.25C12.5523 20.25 13 20.6977 13 21.25C13 21.8023 12.5523 22.25 12 22.25C11.4477 22.25 11 21.8023 11 21.25C11 20.6977 11.4477 20.25 12 20.25ZM3 7.5C3.55228 7.5 4 7.94772 4 8.5C4 9.05229 3.55228 9.5 3 9.5C2.44772 9.5 2 9.05228 2 8.5C2 7.94772 2.44771 7.5 3 7.5ZM21 7.5C21.5523 7.5 22 7.94772 22 8.5C22 9.05229 21.5523 9.5 21 9.5C20.4477 9.5 20 9.05228 20 8.5C20 7.94772 20.4477 7.5 21 7.5Z" fill="currentColor"/></svg>
