<svg xmlns="http://www.w3.org/2000/svg" viewBox="0 0 24 24" fill="none"><path d="M12.6971 2.75004C13.358 2.75004 13.8679 2.74046 14.3368 2.90434C14.6056 2.99831 14.8585 3.13322 15.0858 3.30473C15.4823 3.604 15.7573 4.03416 16.1239 4.58403L16.1464 4.61821C16.2435 4.76399 16.3556 4.93163 16.4579 5.07915C16.5131 5.15876 16.624 5.30636 16.6649 5.36137C16.8496 5.55541 17.0915 5.68543 17.3553 5.73149C17.4468 5.74743 17.5533 5.75004 17.9462 5.75005C18.8752 5.75005 19.4953 5.74275 20.0214 5.89165C21.2742 6.24631 22.2536 7.22573 22.6083 8.47856C22.7572 9.00464 22.7499 9.62471 22.7499 10.5538V14.5645C22.7499 15.9275 22.7499 17.0267 22.6337 17.8916C22.5127 18.7917 22.2531 19.5495 21.6512 20.1514C21.0493 20.7533 20.2916 21.0128 19.3915 21.1338C18.5266 21.2501 17.4274 21.2501 16.0643 21.25H7.93542C6.57239 21.2501 5.47318 21.2501 4.60827 21.1338C3.7082 21.0128 2.95041 20.7533 2.34851 20.1514C1.74665 19.5495 1.4871 18.7917 1.36609 17.8916C1.24984 17.0267 1.24985 15.9275 1.24988 14.5645V10.5538C1.24988 9.62471 1.24256 9.00464 1.39148 8.47856C1.74617 7.22572 2.72554 6.24632 3.97839 5.89165C4.50448 5.74272 5.12452 5.75004 6.05359 5.75005C6.4464 5.75005 6.55298 5.74742 6.64441 5.73149C6.90828 5.68544 7.15018 5.55542 7.33484 5.36137C7.37577 5.3064 7.48663 5.15878 7.54187 5.07915C7.65228 4.91994 7.77363 4.73737 7.87585 4.58403C8.24245 4.03413 8.51743 3.60401 8.91394 3.30473C9.1413 3.13319 9.3941 2.99832 9.66296 2.90434C10.1319 2.74044 10.6417 2.75004 11.3026 2.75004H12.6971ZM11.1854 8.96977C10.9648 8.74932 10.6308 8.68797 10.3466 8.81645C8.81747 9.50773 7.74991 11.0468 7.74988 12.8379C7.74997 15.2746 9.72528 17.25 12.162 17.25C13.9532 17.25 15.4922 16.1825 16.1835 14.6534C16.3119 14.3691 16.2506 14.0351 16.0301 13.8145C15.8095 13.5939 15.4756 13.5328 15.1913 13.6612C14.8257 13.8264 14.4205 13.919 13.993 13.919C12.3848 13.9189 11.0811 12.6151 11.0809 11.0069C11.0809 10.5795 11.1735 10.1742 11.3387 9.80864C11.4671 9.52433 11.406 9.19037 11.1854 8.96977ZM18.9999 8.50004C18.4476 8.50004 17.9999 8.94776 17.9999 9.50004V9.50981C17.9999 10.0621 18.4476 10.5098 18.9999 10.5098C19.5522 10.5098 19.9999 10.0621 19.9999 9.50981V9.50004C19.9999 8.94776 19.5522 8.50004 18.9999 8.50004Z" fill="currentColor" fill-rule="evenodd" clip-rule="evenodd"/></svg>
