<svg xmlns="http://www.w3.org/2000/svg" fill="none" viewBox="0 0 48 48" stroke-width="10.286">
  <g>
    <path fill="#8fbffa" d="M6.0113 25.0455C3.54974 27.2431 2 30.4406 2 34c0 6.6274 5.37258 12 12 12 6.6274 0 12-5.3726 12-12 0-3.5594-1.5497-6.7569-4.0113-8.9545C21.996 24.085 22 23.0707 22 22c0-5.8561-.1182-10.0243-.2637-12.93706-.1953-3.90988-2.6551-6.94762-6.5685-7.04835C14.7994 2.00512 14.4104 2 14 2s-.7994.00512-1.1678.0146c-3.91342.10072-6.37325 3.13845-6.56855 7.04834C6.11815 11.9757 6 16.1439 6 22c0 1.0707.00395 2.085.0113 3.0455"></path>
    <path stroke="currentColor" stroke-linejoin="round" d="M6.0113 25.0455C3.54974 27.2431 2 30.4406 2 34c0 6.6274 5.37258 12 12 12 6.6274 0 12-5.3726 12-12 0-3.5594-1.5497-6.7569-4.0113-8.9545C21.996 24.085 22 23.0707 22 22c0-5.8561-.1182-10.0243-.2637-12.93706-.1953-3.90988-2.6551-6.94762-6.5685-7.04835C14.7994 2.00512 14.4104 2 14 2s-.7994.00512-1.1678.0146c-3.91342.10072-6.37325 3.13845-6.56855 7.04834C6.11815 11.9757 6 16.1439 6 22c0 1.0707.00395 2.085.0113 3.0455Z"></path>
    <path fill="currentColor" fill-opacity="0.4" transform="matrix(-1 0 0 1 18 30)" d="M0 4a4 4 0 1 0 8 0 4 4 0 1 0-8 0"></path>
    <path stroke="currentColor" stroke-linecap="round" stroke-linejoin="round" d="M14 9v21"></path>
    <path stroke="currentColor" stroke-linecap="round" stroke-linejoin="round" d="m29.4167 20 5.3722-16.1165C35.0643 3.05729 35.8375 2.5 36.7084 2.5v0c.8709 0 1.6441.55729 1.9195 1.3835L44.0001 20m-12.6389-5.8333h10.6944"></path>
    <path stroke="currentColor" stroke-linejoin="round" d="M10 34c0 2.2091 1.7909 4 4 4s4-1.7909 4-4-1.7909-4-4-4-4 1.7909-4 4Z"></path>
  </g>
</svg>
