<svg xmlns="http://www.w3.org/2000/svg" fill="none" viewBox="0 0 48 48">
  <g>
    <path fill="currentColor" fill-rule="evenodd" d="M12.7808 0.015257C13.1669 0.00532246 13.573 0 14 0s0.8331 0.00532222 1.2192 0.0152566l0 4e-7C20.4141 0.14896 23.499 4.262 23.7339 8.96317 23.8813 11.9158 24 16.118 24 22c0 0.7598 -0.002 1.4916 -0.0057 2.1962C26.4698 26.7199 28 30.1823 28 34c0 7.732 -6.268 14 -14 14 -7.73199 0 -14 -6.268 -14 -14 0 -3.8177 1.53021 -7.2801 4.00575 -9.8038C4.00198 23.4916 4 22.7598 4 22c0 -5.882 0.11865 -10.0842 0.26614 -13.03684C4.50096 4.262 7.58592 0.148961 12.7808 0.0152572zM14 4c-0.3938 0 -0.7656 0.00491 -1.1163 0.01393 -2.6321 0.06775 -4.46677 2.03018 -4.62254 5.14879C8.11766 12.0356 8 16.1698 8 22c0 1.0658 0.00393 2.075 0.01124 3.0302 0.0044 0.5751 -0.23898 1.1242 -0.66799 1.5072C5.28874 28.3716 4 31.034 4 34c0 5.5229 4.47715 10 10 10 5.5228 0 10 -4.4771 10 -10 0 -2.966 -1.2887 -5.6284 -3.3433 -7.4626 -0.429 -0.383 -0.6723 -0.9321 -0.6679 -1.5072C19.9961 24.075 20 23.0658 20 22c0 -5.8302 -0.1177 -9.9644 -0.2612 -12.83728 -0.1557 -3.1186 -1.9904 -5.08104 -4.6225 -5.14879C14.7656 4.00491 14.3938 4 14 4m-2 5v19.3414C9.66962 29.1651 8 31.3876 8 34c0 3.3137 2.6863 6 6 6s6 -2.6863 6 -6c0 -2.6124 -1.6696 -4.8349 -4 -5.6586V9c0 -1.10457 -0.8954 -2 -2 -2s-2 0.89543 -2 2m24.6863 -4.48405c0.0011 -0.00349 0.0022 -0.00519 0.0031 -0.00636 0.0011 -0.00154 0.0029 -0.00341 0.0054 -0.00519 0.0024 -0.00177 0.0048 -0.00286 0.0066 -0.00346 0.0014 -0.00045 0.0033 -0.00094 0.007 -0.00094 0.0022 0 0.0038 0.00017 0.005 0.00041 0.0008 0.00016 0.0015 0.00035 0.002 0.00053 0.0019 0.0006 0.0042 0.00169 0.0067 0.00346 0.0024 0.00178 0.0042 0.00365 0.0053 0.00519 0.0005 0.00063 0.001 0.00142 0.0016 0.00256 0.0005 0.00097 0.001 0.0022 0.0015 0.0038l2.5503 7.65075H34.136zm3.839 -1.26491 3.4129 10.23886c0.0105 0.0291 0.0203 0.0584 0.0294 0.0881l1.9298 5.7895c0.3493 1.0479 -0.217 2.1806 -1.2649 2.5299s-2.1805 -0.2171 -2.5298 -1.2649l-1.4886 -4.4658h-7.8114l-1.4886 4.4658c-0.3493 1.0478 -1.4819 1.6142 -2.5298 1.2649s-1.6142 -1.482 -1.2649 -2.5299l1.9298 -5.7895c0.0092 -0.0297 0.0189 -0.059 0.0294 -0.0881l3.4129 -10.23886C33.4392 1.60815 34.9766 0.5 36.7084 0.5s3.2692 1.10815 3.8169 2.75104" clip-rule="evenodd" stroke-width="3.429"></path>
  </g>
</svg>
