<svg xmlns="http://www.w3.org/2000/svg" fill="none" viewBox="0 0 48 48">
  <g>
    <path fill="currentColor" fill-rule="evenodd" d="M14 0.5c-0.4229 0 -0.8247 0.005271 -1.2063 0.015093C7.91914 0.640548 4.99046 4.48476 4.76552 8.98811 4.61853 11.9308 4.5 16.1245 4.5 22c0 0.834 0.00239 1.6341 0.00691 2.4015C2.03463 26.847 0.5 30.2451 0.5 34c0 7.4558 6.04416 13.5 13.5 13.5 7.4558 0 13.5 -6.0442 13.5 -13.5 0 -3.7549 -1.5346 -7.153 -4.0069 -9.5985 0.0045 -0.7674 0.0069 -1.5675 0.0069 -2.4015 0 -5.8755 -0.1185 -10.0692 -0.2655 -13.01189 -0.225 -4.50335 -3.1536 -8.347561 -8.0281 -8.473016C14.8247 0.505271 14.4229 0.5 14 0.5ZM16 9c0 -1.10457 -0.8954 -2 -2 -2s-2 0.89543 -2 2v19.8749C9.95132 29.675 8.5 31.668 8.5 34c0 3.0376 2.4624 5.5 5.5 5.5s5.5 -2.4624 5.5 -5.5c0 -2.332 -1.4513 -4.325 -3.5 -5.1251V9Zm20.6863 -4.48405c0.0011 -0.00349 0.0022 -0.00519 0.0031 -0.00636 0.0011 -0.00154 0.0029 -0.00341 0.0054 -0.00519 0.0024 -0.00177 0.0048 -0.00286 0.0066 -0.00346 0.0014 -0.00045 0.0033 -0.00094 0.007 -0.00094s0.0057 0.00049 0.007 0.00094c0.0019 0.0006 0.0042 0.00169 0.0067 0.00346 0.0024 0.00178 0.0042 0.00365 0.0053 0.00519 0.0009 0.00117 0.002 0.00286 0.0031 0.00636l2.5503 7.65075H34.136l2.5503 -7.65075Zm3.839 -1.26491 3.4129 10.23886c0.0105 0.0291 0.0203 0.0584 0.0294 0.0881l1.9298 5.7895c0.3493 1.0479 -0.217 2.1806 -1.2649 2.5299 -1.0479 0.3493 -2.1805 -0.2171 -2.5298 -1.2649l-1.4886 -4.4658h-7.8114l-1.4886 4.4658c-0.3493 1.0478 -1.4819 1.6142 -2.5298 1.2649 -1.0479 -0.3493 -1.6142 -1.482 -1.2649 -2.5299l1.9298 -5.7895c0.0092 -0.0297 0.0189 -0.059 0.0294 -0.0881l3.4129 -10.23886C33.4392 1.60815 34.9766 0.5 36.7084 0.5c1.7318 0 3.2692 1.10815 3.8169 2.75104Z" clip-rule="evenodd" stroke-width="1"></path>
  </g>
</svg>
