<svg xmlns="http://www.w3.org/2000/svg" viewBox="0 0 24 24" fill="none"><path d="M19.021 12.917L17.4692 14.4697C17.1763 14.7626 17.1763 15.2374 17.4692 15.5303C17.7621 15.8231 18.2369 15.8231 18.5298 15.5303L20.0805 13.9785C20.477 14.3761 20.8119 14.7178 21.0639 15.0283C21.3732 15.4094 21.6146 15.8075 21.7036 16.29C21.7647 16.6218 21.7648 16.9622 21.7036 17.2939C21.6146 17.7764 21.3732 18.1736 21.0639 18.5547C20.7695 18.9176 20.3627 19.3243 19.8755 19.8115L19.811 19.876C19.3239 20.3631 18.9171 20.77 18.5542 21.0644C18.1731 21.3737 17.7759 21.615 17.2934 21.7041C16.9617 21.7653 16.6213 21.7652 16.2895 21.7041C15.807 21.6151 15.409 21.3737 15.0278 21.0644C14.6649 20.7699 14.2582 20.3632 13.771 19.876L11.8608 17.9658L17.9653 11.8613L19.021 12.917ZM6.70555 2.29588C7.03731 2.23469 7.37769 2.23472 7.70945 2.29588C8.19199 2.38489 8.59002 2.62624 8.97117 2.93553C9.28145 3.18734 9.62279 3.52195 10.02 3.91795L8.46922 5.46971C8.17633 5.7626 8.17633 6.23736 8.46922 6.53025C8.76212 6.82309 9.23689 6.82313 9.52977 6.53025L11.0815 4.97752L12.1372 6.03318L6.0327 12.1377L4.12352 10.2285C3.63625 9.74126 3.22959 9.3346 2.93504 8.97166C2.62575 8.59051 2.38441 8.19248 2.29539 7.70994C2.23423 7.37818 2.2342 7.0378 2.29539 6.70604C2.38442 6.22359 2.62581 5.82638 2.93504 5.44529C3.23607 5.07432 3.65406 4.65792 4.15574 4.15623C4.65743 3.65455 5.07383 3.23656 5.44481 2.93553C5.82589 2.6263 6.2231 2.38491 6.70555 2.29588Z" fill="currentColor" fill-rule="evenodd" clip-rule="evenodd"/><path d="M18.4985 9.56055L7.896 20.1641C7.56559 20.4945 7.15678 20.7359 6.70752 20.8643L3.76416 21.7051C3.65812 21.7353 3.54825 21.751 3.43799 21.751C2.7816 21.7509 2.24951 21.2179 2.24951 20.5615C2.24956 20.4513 2.26512 20.3414 2.29541 20.2354L3.13623 17.293C3.26463 16.8436 3.50499 16.434 3.83545 16.1035L14.438 5.5L18.4985 9.56055Z" fill="currentColor"/><path d="M18.7495 2.25C19.4286 2.25002 20.0799 2.51983 20.5601 3L20.9995 3.43945C21.4797 3.91966 21.7495 4.57091 21.7495 5.25C21.7495 5.92909 21.4797 6.58034 20.9995 7.06055L19.5601 8.5L15.4995 4.43945L16.939 3C17.4192 2.51984 18.0704 2.25 18.7495 2.25Z" fill="currentColor"/></svg>
