<svg xmlns="http://www.w3.org/2000/svg" viewBox="0 0 24 24" fill="none"><path d="M13.0001 10.9998V15.2693C13.5974 15.6152 14.0001 16.2598 14.0001 16.9998C14.0001 18.1043 13.1046 18.9998 12.0001 18.9998C10.8955 18.9998 10.0001 18.1043 10.0001 16.9998C10.0001 16.2598 10.4027 15.6152 11.0001 15.2693V10.9998H13.0001Z" fill="currentColor"/><path d="M13.0489 1.24976C14.8254 1.24973 16.2584 1.24932 17.3849 1.40112C18.5547 1.55882 19.539 1.89732 20.3214 2.6814C21.1038 3.46569 21.4414 4.45291 21.5987 5.62573C21.7501 6.7547 21.7501 8.19006 21.7501 9.97046V11.0222H2.25009V9.97046C2.25006 8.19005 2.25005 6.7547 2.40146 5.62573C2.55879 4.45291 2.89634 3.46569 3.6788 2.6814C4.46117 1.89732 5.44547 1.55882 6.61533 1.40112C7.74177 1.24932 9.17474 1.24973 10.9513 1.24976H13.0489ZM4.23544 7.11401C4.21135 7.67554 4.20453 8.31953 4.20224 9.06812H19.7979C19.7957 8.31953 19.7888 7.67554 19.7647 7.11401H4.23544ZM11.0255 3.20484C9.1597 3.20484 7.85798 3.20733 6.87607 3.3396C5.92219 3.46815 5.41652 3.70358 5.05673 4.06421C4.80187 4.3198 4.61155 4.6488 4.47568 5.15894H19.5245C19.3886 4.6488 19.1983 4.3198 18.9435 4.06421C18.5837 3.70358 18.078 3.46815 17.1241 3.3396C16.1422 3.20733 14.8405 3.20484 12.9747 3.20484H11.0255Z" fill="currentColor" fill-rule="evenodd" clip-rule="evenodd"/><path opacity="0.4" d="M21.7501 14.0287V13.9543V11.0225H2.25009V13.9543V14.0287C2.25006 15.8094 2.25004 17.2449 2.40148 18.374C2.55881 19.5468 2.89585 20.5339 3.67832 21.3182C4.46078 22.1025 5.4456 22.4403 6.61569 22.598C7.74214 22.7498 9.17433 22.7498 10.9509 22.7498H11.0251H12.9751H13.0493C14.8259 22.7498 16.258 22.7498 17.3845 22.598C18.5546 22.4403 19.5394 22.1025 20.3219 21.3182C21.1043 20.5339 21.4414 19.5468 21.5987 18.374C21.7501 17.2449 21.7501 15.8094 21.7501 14.0287Z" fill="currentColor"/></svg>
