<svg xmlns="http://www.w3.org/2000/svg" fill="none" viewBox="0 0 48 48">
  <g>
    <path fill="currentColor" fill-opacity="0.4" fill-rule="evenodd" d="M8.44103 2.01949C11.7267 1.76134 16.8247 1.5 24 1.5s12.2733 0.26134 15.559 0.5195c3.4733 0.27289 6.0698 3.03966 6.3003 6.45376 0.2877 4.26124 0.6402 11.18104 0.6407 19.51084l0.0001 0.0159c0 5.2674 -0.2747 9.4421 -0.539 12.2398 -0.2879 3.0481 -2.5614 5.5186 -5.6837 5.8551 -2.0152 0.2172 -4.7744 0.406 -8.2774 0.406 -0.8284 0 -1.5 -0.6716 -1.5 -1.5v-2.9624c0 -5.7287 3.1036 -10.7778 7.7713 -13.4847C31.7084 26.604 26.4518 21.6976 24 15.4072c-2.4517 6.2904 -7.7084 11.1968 -14.27122 13.1466 4.66762 2.7069 7.77132 7.756 7.77132 13.4847v2.9624c0 0.8284 -0.6716 1.5 -1.5 1.5 -3.5031 0 -6.26227 -0.1888 -8.2774 -0.406 -3.12236 -0.3365 -5.39587 -2.807 -5.68377 -5.8551C1.77468 37.4421 1.5 33.2674 1.5 28c0 -8.3369 0.35282 -15.2628 0.64067 -19.52674 0.23048 -3.41411 2.82707 -6.18087 6.30036 -6.45377Z" clip-rule="evenodd" stroke-width="3.429"></path>
    <path fill="currentColor" fill-rule="evenodd" d="M1.50847 29.5961C1.50293 29.0759 1.5 28.5438 1.5 28c0 -0.4844 0.00119 -0.9641 0.00349 -1.4387 0.17004 0.0264 0.42057 0.0644 0.74013 0.11 0.52982 0.0757 1.24855 0.1725 2.10411 0.2729C9.7346 20.387 11.5002 13.5081 11.5003 8.99997c0 -0.82842 0.6716 -1.49998 1.5 -1.49997 0.8285 0.00001 1.5 0.6716 1.5 1.50003 -0.0001 4.82497 -1.7257 11.66617 -6.61857 18.28877 1.46972 0.1129 3.06757 0.196 4.67197 0.2093 -0.9097 0.4134 -1.853 0.767 -2.82492 1.0557 0.95562 0.5542 1.84572 1.2066 2.65702 1.9429 -2.86547 -0.0308 -5.67282 -0.2694 -7.80121 -0.5059 -1.14288 -0.127 -2.09606 -0.254 -2.76524 -0.3496 -0.11164 -0.016 -0.21541 -0.0311 -0.31088 -0.0451Zm34.10583 0.9006c0.8113 -0.7363 1.7014 -1.3887 2.657 -1.9429 -0.9719 -0.2887 -1.9152 -0.6423 -2.825 -1.0557 1.6046 -0.0132 3.2026 -0.0964 4.6724 -0.2093 -4.8929 -6.6226 -6.6185 -13.4638 -6.6186 -18.28877 0 -0.82843 0.6716 -1.50002 1.5 -1.50003 0.8285 -0.00001 1.5 0.67155 1.5 1.49997 0.0001 4.50813 1.7658 11.38703 7.1526 17.94423 0.8556 -0.1004 1.5743 -0.1972 2.1042 -0.2729 0.3192 -0.0456 0.5696 -0.0835 0.7396 -0.1099 0.0023 0.4694 0.0035 0.9437 0.0035 1.4227l0.0001 0.0159c0 0.5438 -0.003 1.076 -0.0085 1.5961 -0.0954 0.0141 -0.199 0.0291 -0.3105 0.0451 -0.6692 0.0956 -1.6223 0.2226 -2.7652 0.3496 -2.1285 0.2365 -4.936 0.4751 -7.8016 0.5059Z" clip-rule="evenodd" stroke-width="3.429"></path>
  </g>
</svg>
