<svg xmlns="http://www.w3.org/2000/svg" viewBox="0 0 24 24" fill="none"><path d="M13.0489 1.2496C14.8254 1.24957 16.2584 1.24917 17.3849 1.40097C18.5547 1.55867 19.539 1.89717 20.3214 2.68124C21.1038 3.46554 21.4414 4.45276 21.5987 5.62558C21.7501 6.75455 21.7501 8.1899 21.7501 9.97031V14.0289C21.7501 15.8093 21.7501 17.2447 21.5987 18.3736C21.4414 19.5464 21.1038 20.5337 20.3214 21.318C19.539 22.102 18.5547 22.4405 17.3849 22.5982C16.2584 22.75 14.8255 22.7496 13.0489 22.7496H10.9513C9.17472 22.7496 7.74178 22.75 6.61533 22.5982C5.44547 22.4405 4.46117 22.102 3.6788 21.318C2.89634 20.5337 2.55879 19.5464 2.40146 18.3736C2.25005 17.2447 2.25006 15.8093 2.25009 14.0289V9.97031C2.25006 8.1899 2.25005 6.75455 2.40146 5.62558C2.55879 4.45276 2.89634 3.46554 3.6788 2.68124C4.46117 1.89717 5.44547 1.55867 6.61533 1.40097C7.74177 1.24917 9.17474 1.24957 10.9513 1.2496H13.0489ZM11.0001 15.2691C10.4028 15.6151 10.0001 16.2597 10.0001 16.9996C10.0001 18.1042 10.8955 18.9996 12.0001 18.9996C13.1047 18.9996 14.0001 18.1042 14.0001 16.9996C14.0001 16.2597 13.5974 15.6151 13.0001 15.2691V10.9996H11.0001V15.2691ZM4.23544 7.11386C4.21135 7.67539 4.20453 8.31937 4.20224 9.06796H19.7979C19.7957 8.31937 19.7888 7.67539 19.7647 7.11386H4.23544ZM11.0255 3.20468C9.1597 3.20468 7.85798 3.20717 6.87607 3.33945C5.92219 3.468 5.41652 3.70343 5.05673 4.06406C4.80187 4.31964 4.61155 4.64865 4.47568 5.15878H19.5245C19.3886 4.64865 19.1983 4.31964 18.9435 4.06406C18.5837 3.70343 18.078 3.468 17.1241 3.33945C16.1422 3.20717 14.8405 3.20468 12.9747 3.20468H11.0255Z" fill="currentColor" fill-rule="evenodd" clip-rule="evenodd"/></svg>
