<svg xmlns="http://www.w3.org/2000/svg" fill="none" viewBox="0 0 48 48">
  <g>
    <path fill="currentColor" fill-rule="evenodd" d="M29.4336 18.6542c0.5656 -0.5657 1.4757 -0.5879 2.0683 -0.0506 6.642 6.0228 11.433 10.2774 13.9015 12.4556 1.3925 1.2287 2.8607 3.5186 1.6619 5.9201 -0.3756 0.7525 -0.9267 1.5609 -1.7259 2.3601 -0.7992 0.7992 -1.6076 1.3503 -2.3601 1.7259 -2.4015 1.1988 -4.6914 -0.2694 -5.9201 -1.6619 -2.1782 -2.4685 -6.4328 -7.2595 -12.4556 -13.9015 -0.5373 -0.5926 -0.5151 -1.5026 0.0506 -2.0683l4.7794 -4.7794ZM14.2423 36.5c-1.6869 0 -4.38049 0.0947 -5.574 0.1818 -1.37506 0.1004 -2.77088 0.7602 -3.59641 2.0777 -0.7549 1.2048 -1.74423 3.1492 -2.31725 5.7405H2c-0.82843 0 -1.5 0.6716 -1.5 1.5s0.67157 1.5 1.5 1.5h24c0.8284 0 1.5 -0.6716 1.5 -1.5s-0.6716 -1.5 -1.5 -1.5h-0.7451c-0.4761 -2.3113 -1.1921 -4.1009 -1.7794 -5.2999 -0.7723 -1.5766 -2.3285 -2.426 -3.9111 -2.5362 -1.1761 -0.0819 -3.7533 -0.1639 -5.3221 -0.1639Z" clip-rule="evenodd" stroke-width="1"></path>
    <path fill="currentColor" fill-opacity="0.4" fill-rule="evenodd" d="M29.4137 1.75857c-2.0566 -1.7245195 -4.8135 -1.644213 -6.8331 0.00812 -1.6265 1.33081 -4.1004 3.53072 -7.6898 7.12016 -3.5895 3.58945 -5.78939 6.06335 -7.1202 7.68985 -1.65234 2.0196 -1.73264 4.7764 -0.00812 6.8331 0.77728 0.9269 1.84948 2.1096 3.32252 3.5827 1.473 1.473 2.6557 2.5452 3.5827 3.3225 2.0566 1.7245 4.8134 1.6442 6.833 -0.0082 1.6266 -1.3308 4.1004 -3.5307 7.6899 -7.1201 3.5894 -3.5895 5.7893 -6.0633 7.1201 -7.6899 1.6524 -2.0196 1.7327 -4.7764 0.0082 -6.83303 -0.7773 -0.92698 -1.8495 -2.10969 -3.3225 -3.5827 -1.4731 -1.47301 -2.6558 -2.54521 -3.5827 -3.3225Z" clip-rule="evenodd" stroke-width="1"></path>
  </g>
</svg>
