<svg xmlns="http://www.w3.org/2000/svg" fill="none" viewBox="0 0 48 48">
  <g>
    <path stroke="currentColor" stroke-linecap="round" stroke-linejoin="round" d="M24 46c-0.4204 -2.7595 -1.236 -4.8423 -1.8716 -6.14 -0.5008 -1.0225 -1.5324 -1.6207 -2.6682 -1.6997C18.3257 38.0813 15.784 38 14.2423 38c-1.6567 0 -4.31337 0.0938 -5.46484 0.1779 -0.98961 0.0722 -1.90764 0.5373 -2.4345 1.3781C5.55099 40.8199 4.45495 43.0137 4 46" stroke-width="1"></path>
    <path stroke="currentColor" stroke-linecap="round" stroke-linejoin="round" d="M28.4498 2.90793c-1.476 -1.23768 -3.4285 -1.20011 -4.9193 0.01966 -1.5785 1.29148 -4.015 3.45579 -7.5791 7.01988 -3.5641 3.56413 -5.7284 6.00063 -7.0199 7.57903 -1.21977 1.4909 -1.25734 3.4434 -0.01967 4.9194 0.74499 0.8885 1.78677 2.0389 3.23377 3.4859 1.447 1.4469 2.5974 2.4887 3.4858 3.2337 1.476 1.2377 3.4286 1.2001 4.9194 -0.0196 1.5785 -1.2915 4.015 -3.4558 7.5791 -7.0199 3.5641 -3.5641 5.7284 -6.0006 7.0199 -7.5791 1.2197 -1.4908 1.2573 -3.4434 0.0196 -4.91938 -0.745 -0.88845 -1.7868 -2.03887 -3.2337 -3.48583 -1.447 -1.44697 -2.5974 -2.48878 -3.4859 -3.23376Z" stroke-width="1"></path>
    <path stroke="currentColor" stroke-linecap="round" stroke-linejoin="round" d="M30.4962 19.7148c6.6476 6.0278 11.4436 10.2869 13.9168 12.4691 1.226 1.0818 2.0424 2.6625 1.3122 4.1254 -0.3045 0.61 -0.761 1.286 -1.4445 1.9694 -0.6835 0.6835 -1.3595 1.1401 -1.9694 1.4445 -1.4629 0.7303 -3.0436 -0.0862 -4.1254 -1.3122 -2.1822 -2.4731 -6.4414 -7.2692 -12.4691 -13.9167" stroke-width="1"></path>
    <path stroke="currentColor" stroke-linecap="round" stroke-linejoin="round" d="M2 46h24" stroke-width="1"></path>
  </g>
</svg>
