<svg xmlns="http://www.w3.org/2000/svg" fill="none" viewBox="0 0 48 48">
  <g>
    <path fill="currentColor" fill-rule="evenodd" d="M29.6264 1.85852C27.4102 0.000001043 24.43 0.0936995 22.2684 1.86234c-1.6063 1.31435 -4.0366 3.47655 -7.5526 6.9928 -3.516 3.51626 -5.67809 5.94676 -6.99234 7.55326 -1.76844 2.1616 -1.86212 5.1418 -0.00382 7.3581 0.77093 0.9195 1.82932 2.0866 3.27776 3.5351 1.4485 1.4486 2.6155 2.5071 3.5349 3.2781 2.2163 1.8585 5.1964 1.7648 7.358 -0.0039 0.9302 -0.7611 2.1368 -1.8066 3.6705 -3.2347 5.1601 5.7046 8.8364 9.8458 10.794 12.0645 1.2527 1.4199 3.7428 3.0867 6.4236 1.7484 0.7861 -0.3924 1.623 -0.9645 2.4451 -1.7867 0.8221 -0.8221 1.3942 -1.6591 1.7865 -2.4452 1.3381 -2.6808 -0.3284 -5.1709 -1.7482 -6.4238 -2.2185 -1.9577 -6.3595 -5.6343 -12.0637 -10.7949 1.4294 -1.5352 2.4756 -2.7427 3.2372 -3.6736 1.7684 -2.1616 1.8621 -5.1418 0.0038 -7.35812 -0.7709 -0.91946 -1.8293 -2.08659 -3.2778 -3.53515 -1.4484 -1.44855 -2.6155 -2.50702 -3.5349 -3.27801Zm9.7278 34.90068c-1.9775 -2.2413 -5.6924 -6.4259 -10.906 -12.1887 0.3215 -0.3167 0.653 -0.6457 0.9948 -0.9875 0.3407 -0.3408 0.6688 -0.6714 0.9846 -0.992 5.7623 5.2139 9.9464 8.9289 12.1876 10.9066 0.4211 0.3716 0.6904 0.7621 0.8072 1.0752 0.1022 0.274 0.0753 0.4295 0.0087 0.5629 -0.2026 0.4058 -0.5227 0.8898 -1.0361 1.4033 -0.5134 0.5134 -0.9974 0.8336 -1.4032 1.0361 -0.1332 0.0666 -0.2886 0.0935 -0.5626 -0.0087 -0.3129 -0.1167 -0.7034 -0.386 -1.075 -0.8072Zm-25.1304 2.9241c-1.5783 0 -4.1248 0.0905 -5.19371 0.1685 -0.45281 0.0331 -0.71271 0.2277 -0.8293 0.4138 -0.44788 0.7149 -1.02462 1.8055 -1.47376 3.2332H21.7205c-0.4491 -1.4277 -1.0258 -2.5183 -1.4737 -3.2332 -0.1166 -0.1861 -0.3765 -0.3807 -0.8293 -0.4138 -1.069 -0.078 -3.6154 -0.1685 -5.1937 -0.1685Zm-9.90583 7.8155c-0.06527 0.0032 -0.13117 0.0033 -0.19753 0H2.5c-1.10457 0 -2 -0.8954 -2 -2s0.89543 -2 2 -2h0.07619c0.58562 -2.3942 1.51378 -4.2058 2.23487 -5.3568 0.91292 -1.4572 2.4469 -2.1715 3.92784 -2.2796 1.18108 -0.0862 3.826 -0.1791 5.4849 -0.1791 1.6589 0 4.3038 0.0929 5.4849 0.1791 1.4809 0.1081 3.0149 0.8224 3.9278 2.2796 0.7211 1.151 1.6493 2.9626 2.2349 5.3568h0.0772c1.1046 0 2 0.8954 2 2s-0.8954 2 -2 2h-1.6214c-0.0664 0.0033 -0.1324 0.0032 -0.1977 0H4.31797Z" clip-rule="evenodd" stroke-width="3.429"></path>
  </g>
</svg>
