<svg xmlns="http://www.w3.org/2000/svg" fill="none" viewBox="0 0 48 48">
  <g>
    <path fill="currentColor" fill-rule="evenodd" d="M22.5806 1.76669c2.0196 -1.652333 4.7765 -1.7326396 6.8331 -0.00812 0.9269 0.77729 2.1096 1.84949 3.5827 3.3225 1.473 1.47301 2.5452 2.65572 3.3225 3.5827 1.7245 2.05663 1.6442 4.81343 -0.0082 6.83303 -1.3308 1.6266 -3.5307 4.1004 -7.1201 7.6899 -3.5895 3.5894 -6.0633 5.7893 -7.6899 7.1201 -2.0196 1.6524 -4.7764 1.7327 -6.833 0.0082 -0.927 -0.7773 -2.1097 -1.8495 -3.5827 -3.3225 -1.47304 -1.4731 -2.54524 -2.6558 -3.32252 -3.5827 -1.72452 -2.0567 -1.64422 -4.8135 0.00812 -6.8331 1.33081 -1.6265 3.5307 -4.1004 7.1202 -7.68985 3.5894 -3.58944 6.0633 -5.78935 7.6898 -7.12016Zm4.7319 26.72921c4.6007 5.0973 7.9111 8.8271 9.7467 10.9075 1.2287 1.3925 3.5187 2.8606 5.9201 1.6619 0.7526 -0.3757 1.5609 -0.9267 2.3602 -1.726 0.7992 -0.7992 1.3502 -1.6075 1.7259 -2.3601 1.1987 -2.4015 -0.2694 -4.6914 -1.6619 -5.9201 -2.0803 -1.8356 -5.8102 -5.146 -10.9073 -9.7466 -1.0037 1.0689 -2.1739 2.2782 -3.5377 3.642 -1.3655 1.3655 -2.5761 2.5369 -3.646 3.5414ZM8.6683 36.6818c1.19351 -0.0871 3.8871 -0.1818 5.574 -0.1818 1.5688 0 4.146 0.082 5.3221 0.1639 1.5826 0.1102 3.1388 0.9596 3.9111 2.5362 0.5873 1.199 1.3033 2.9886 1.7794 5.2999H26c0.8284 0 1.5 0.6716 1.5 1.5s-0.6716 1.5 -1.5 1.5H2c-0.82843 0 -1.5 -0.6716 -1.5 -1.5s0.67157 -1.5 1.5 -1.5h0.75464c0.57302 -2.5913 1.56235 -4.5357 2.31725 -5.7405 0.82553 -1.3175 2.22135 -1.9773 3.59641 -2.0777Z" clip-rule="evenodd" stroke-width="1"></path>
  </g>
</svg>
