<svg xmlns="http://www.w3.org/2000/svg" viewBox="0 0 24 24" fill="none"><path d="M12 17.7501C14.0711 17.7501 15.75 16.0712 15.75 14.0001C15.75 11.9291 14.0711 10.2501 12 10.2501C9.92893 10.2501 8.25 11.9291 8.25 14.0001C8.25 16.0712 9.92893 17.7501 12 17.7501Z" fill="currentColor"/><path d="M14.75 22.0001C14.75 22.2842 14.589 22.544 14.335 22.671C14.081 22.7978 13.777 22.7701 13.5498 22.5997L12 21.4366L10.4502 22.5997C10.223 22.7701 9.91905 22.7978 9.66504 22.671C9.41095 22.544 9.25 22.2842 9.25 22.0001V18.1759C10.039 18.6966 10.984 19.0001 12 19.0001C13.016 19.0001 13.961 18.6966 14.75 18.1759V22.0001Z" fill="currentColor"/><path d="M4.35234 15.6753C4.20248 14.5613 4.2 13.0882 4.2 10.9938C4.2 9.30399 4.20161 8.0187 4.28093 7.00012H19.7191C19.7984 8.0187 19.8 9.30399 19.8 10.9938C19.8 13.0882 19.7975 14.5613 19.6477 15.6753C19.5016 16.761 19.2314 17.3587 18.8002 17.7895C18.5005 18.0891 18.1274 18.3048 17.5843 18.4585C17.0663 18.6051 16.7654 19.1435 16.9121 19.6612C17.0589 20.179 17.5976 20.4796 18.1156 20.333C18.9163 20.1063 19.6018 19.7442 20.179 19.1674C21.0328 18.3141 21.4053 17.2369 21.5805 15.935C21.75 14.675 21.75 13.0688 21.75 11.0606V10.9938V10.9269C21.75 8.91874 21.75 7.31253 21.5805 6.05248C21.4053 4.75058 21.0328 3.6734 20.179 2.82014C19.3251 1.96689 18.2473 1.59457 16.9445 1.41949C15.6836 1.25008 14.0764 1.2501 12.0669 1.25012H12H11.9331C9.92363 1.2501 8.31638 1.25008 7.05549 1.41949C5.75275 1.59457 4.67486 1.96689 3.82105 2.82014C2.96723 3.6734 2.59467 4.75058 2.41948 6.05248C2.24996 7.31253 2.24998 8.91874 2.25 10.9269V10.9938V11.0606C2.24998 13.0688 2.24996 14.675 2.41948 15.935C2.59467 17.2369 2.96723 18.3141 3.82105 19.1674C4.39825 19.7442 5.08369 20.1063 5.88435 20.333C6.40245 20.4796 6.94112 20.179 7.08787 19.6612C7.23457 19.1435 6.93372 18.6051 6.41565 18.4585C5.87264 18.3048 5.49945 18.0891 5.19976 17.7895C4.76861 17.3587 4.49845 16.761 4.35234 15.6753Z" fill="currentColor"/></svg>
