<svg xmlns="http://www.w3.org/2000/svg" viewBox="0 0 24 24" fill="none"><path opacity="0.4" d="M22.2344 12.0526V12V11.9474C22.2344 9.75475 22.2344 8.03277 22.0537 6.68848C21.8686 5.31182 21.4812 4.21953 20.623 3.36133C19.7648 2.50313 18.6726 2.11575 17.2959 1.93066C15.9516 1.74998 14.2296 1.74999 12.037 1.75H11.9844H11.9318C9.73913 1.74999 8.01714 1.74998 6.67285 1.93066C5.29619 2.11575 4.2039 2.50313 3.3457 3.36133C2.48751 4.21953 2.10013 5.31182 1.91504 6.68848C1.73435 8.03277 1.73436 9.75476 1.73438 11.9474V12V12.0526C1.73436 14.2452 1.73435 15.9672 1.91504 17.3115C2.10013 18.6882 2.48751 19.7805 3.3457 20.6387C4.2039 21.4969 5.29619 21.8842 6.67285 22.0693C8.01714 22.25 9.73913 22.25 11.9318 22.25H11.9844H12.037C14.2296 22.25 15.9516 22.25 17.2959 22.0693C18.6726 21.8842 19.7648 21.4969 20.623 20.6387C21.4812 19.7805 21.8686 18.6882 22.0537 17.3115C22.2344 15.9672 22.2344 14.2452 22.2344 12.0526Z" fill="currentColor"/><path d="M12.1123 15.7568C12.7425 15.8209 13.2344 16.3529 13.2344 17C13.2344 17.6904 12.6747 18.25 11.9844 18.25C11.294 18.25 10.7344 17.6904 10.7344 17C10.7344 16.3096 11.294 15.75 11.9844 15.75L12.1123 15.7568ZM12.1123 10.7568C12.7425 10.8209 13.2344 11.3529 13.2344 12C13.2344 12.6904 12.6747 13.25 11.9844 13.25C11.294 13.25 10.7344 12.6904 10.7344 12C10.7344 11.3096 11.294 10.75 11.9844 10.75L12.1123 10.7568ZM12.1123 5.75684C12.7425 5.82092 13.2344 6.35285 13.2344 7C13.2344 7.69036 12.6747 8.25 11.9844 8.25C11.294 8.25 10.7344 7.69036 10.7344 7C10.7344 6.30965 11.294 5.75 11.9844 5.75L12.1123 5.75684Z" fill="currentColor"/></svg>
