<svg xmlns="http://www.w3.org/2000/svg" viewBox="0 0 24 24" fill="none"><path d="M12.0371 1.75C14.2297 1.74999 15.9516 1.74998 17.2959 1.93066C18.6726 2.11575 19.7648 2.50313 20.623 3.36133C21.4812 4.21953 21.8686 5.31182 22.0537 6.68848C22.2344 8.03274 22.2344 9.75468 22.2344 11.9473V12.0527C22.2344 14.2453 22.2344 15.9673 22.0537 17.3115C21.8686 18.6882 21.4812 19.7805 20.623 20.6387C19.7648 21.4969 18.6726 21.8842 17.2959 22.0693C15.9516 22.25 14.2297 22.25 12.0371 22.25H11.9316C9.73906 22.25 8.01711 22.25 6.67285 22.0693C5.29619 21.8842 4.2039 21.4969 3.3457 20.6387C2.48751 19.7805 2.10013 18.6882 1.91504 17.3115C1.73436 15.9673 1.73436 14.2453 1.73438 12.0527V11.9473C1.73436 9.75468 1.73436 8.03274 1.91504 6.68848C2.10013 5.31182 2.48751 4.21953 3.3457 3.36133C4.2039 2.50313 5.29619 2.11575 6.67285 1.93066C8.01711 1.74998 9.73906 1.74999 11.9316 1.75H12.0371ZM11.9844 15.75C11.294 15.75 10.7344 16.3096 10.7344 17C10.7344 17.6904 11.294 18.25 11.9844 18.25C12.6747 18.25 13.2344 17.6904 13.2344 17C13.2344 16.3529 12.7425 15.8209 12.1123 15.7568L11.9844 15.75ZM11.9844 10.75C11.294 10.75 10.7344 11.3096 10.7344 12C10.7344 12.6904 11.294 13.25 11.9844 13.25C12.6747 13.25 13.2344 12.6904 13.2344 12C13.2344 11.3529 12.7425 10.8209 12.1123 10.7568L11.9844 10.75ZM11.9844 5.75C11.294 5.75 10.7344 6.30965 10.7344 7C10.7344 7.69036 11.294 8.25 11.9844 8.25C12.6747 8.25 13.2344 7.69036 13.2344 7C13.2344 6.35285 12.7425 5.82092 12.1123 5.75684L11.9844 5.75Z" fill="currentColor"/></svg>
