<svg xmlns="http://www.w3.org/2000/svg" viewBox="0 0 24 24" fill="none"><path opacity="0.4" d="M20.67 8.27499C20.7228 8.02418 20.7501 7.76468 20.7501 7.4996C20.7501 5.72626 19.52 4.24173 17.8673 3.85019C17.773 3.82786 17.6613 3.7307 17.6241 3.60117C17.2343 2.24387 15.9843 1.2496 14.5001 1.2496C13.4947 1.2496 12.5963 1.70637 12.0001 2.42343C11.404 1.70641 10.5055 1.2496 9.50012 1.2496C8.01596 1.2496 6.76592 2.24391 6.3761 3.60117C6.33891 3.7307 6.22721 3.82786 6.13293 3.85019C4.48026 4.24171 3.25017 5.72629 3.25012 7.4996C3.25012 7.76465 3.27743 8.02421 3.3302 8.27499C3.36411 8.43605 3.25929 8.67379 3.11731 8.75644C2.00257 9.40474 1.25016 10.6138 1.25012 11.9996C1.25012 13.3855 2.00255 14.5944 3.11731 15.2428C3.25933 15.3254 3.36412 15.5631 3.3302 15.7242C3.27741 15.975 3.25013 16.2345 3.25012 16.4996C3.25012 18.2729 4.48025 19.7575 6.13293 20.149C6.22721 20.1713 6.33891 20.2685 6.3761 20.398C6.76587 21.7554 8.01589 22.7496 9.50012 22.7496C10.5058 22.7496 11.404 22.2922 12.0001 21.5748C12.5963 22.2922 13.4945 22.7496 14.5001 22.7496C15.9843 22.7496 17.2343 21.7553 17.6241 20.398C17.6613 20.2685 17.773 20.1713 17.8673 20.149C19.52 19.7575 20.7501 18.2729 20.7501 16.4996C20.7501 16.2345 20.7228 15.975 20.67 15.7242C20.6361 15.5631 20.7409 15.3254 20.8829 15.2428C21.9977 14.5944 22.7501 13.3855 22.7501 11.9996C22.7501 10.6137 21.9977 9.40476 20.8829 8.75644C20.7409 8.67381 20.6361 8.43606 20.67 8.27499Z" fill="currentColor"/><path d="M11.0001 15.9996V15.3531C10.7673 15.2838 10.5448 15.1914 10.3351 15.0777L9.87903 15.5348C9.4885 15.9253 8.85549 15.9253 8.46497 15.5348C8.07444 15.1442 8.07444 14.5112 8.46497 14.1207L8.92102 13.6637C8.80759 13.4542 8.71482 13.2321 8.64563 12.9996H8.00012C7.44784 12.9996 7.00012 12.5519 7.00012 11.9996C7.00012 11.4473 7.44784 10.9996 8.00012 10.9996H8.64563C8.71491 10.7669 8.8074 10.5442 8.92102 10.3346L8.46497 9.87851C8.07444 9.48799 8.07444 8.85497 8.46497 8.46445C8.85549 8.07392 9.4885 8.07392 9.87903 8.46445L10.3351 8.9205C10.5448 8.80688 10.7674 8.71439 11.0001 8.64511V7.9996C11.0001 7.44732 11.4478 6.9996 12.0001 6.9996C12.5524 6.9996 13.0001 7.44732 13.0001 7.9996V8.64511C13.2326 8.7143 13.4547 8.80707 13.6642 8.9205L14.1212 8.46445C14.5117 8.07392 15.1448 8.07392 15.5353 8.46445C15.9258 8.85497 15.9258 9.48799 15.5353 9.87851L15.0782 10.3346C15.192 10.5444 15.2853 10.7667 15.3546 10.9996H16.0001C16.5524 10.9996 17.0001 11.4473 17.0001 11.9996C17.0001 12.5519 16.5524 12.9996 16.0001 12.9996H15.3546C15.2854 13.2322 15.1918 13.4541 15.0782 13.6637L15.5353 14.1207C15.9258 14.5112 15.9258 15.1442 15.5353 15.5348C15.1448 15.9253 14.5117 15.9253 14.1212 15.5348L13.6642 15.0777C13.4547 15.1912 13.2326 15.2839 13.0001 15.3531V15.9996C13.0001 16.5519 12.5524 16.9996 12.0001 16.9996C11.4478 16.9996 11.0001 16.5519 11.0001 15.9996ZM12.0001 10.4996C11.1717 10.4996 10.5001 11.1712 10.5001 11.9996C10.5001 12.828 11.1717 13.4996 12.0001 13.4996C12.8285 13.4996 13.5001 12.828 13.5001 11.9996C13.5001 11.1712 12.8285 10.4996 12.0001 10.4996Z" fill="currentColor"/></svg>
