<svg xmlns="http://www.w3.org/2000/svg" viewBox="0 0 24 24" fill="none"><path opacity="0.4" d="M12.6973 17.5333C12.7537 17.2494 12.75 16.9256 12.75 16.4971V7.50005C12.75 7.07153 12.7537 6.74774 12.6973 6.46392C12.4803 5.37302 11.6271 4.51978 10.5362 4.30278C10.2524 4.24639 9.92857 4.25005 9.50005 4.25005C9.07153 4.25005 8.74774 4.24639 8.46392 4.30278C7.37302 4.51978 6.51978 5.37302 6.30278 6.46392C6.24639 6.74774 6.25005 7.07153 6.25005 7.50005V16.4971C6.25005 16.9256 6.24638 17.2494 6.30278 17.5333C6.51978 18.6242 7.37302 19.4774 8.46392 19.6944C8.74773 19.7508 9.07153 19.7471 9.50005 19.7471C9.92857 19.7471 10.2524 19.7508 10.5362 19.6944C11.6271 19.4774 12.4803 18.6242 12.6973 17.5333Z" fill="currentColor"/><path opacity="0.4" d="M21.6973 14.5333C21.7537 14.2494 21.75 13.9256 21.75 13.4971V10.5C21.75 10.0715 21.7537 9.74774 21.6973 9.46392C21.4803 8.37302 20.6271 7.51978 19.5362 7.30278C19.2524 7.24639 18.9286 7.25005 18.5 7.25005C18.0715 7.25005 17.7477 7.24639 17.4639 7.30278C16.373 7.51978 15.5198 8.37302 15.3028 9.46392C15.2464 9.74774 15.25 10.0715 15.25 10.5V13.4971C15.25 13.9256 15.2464 14.2494 15.3028 14.5333C15.5198 15.6242 16.373 16.4774 17.4639 16.6944C17.7477 16.7508 18.0715 16.7471 18.5 16.7471C18.9286 16.7471 19.2524 16.7508 19.5362 16.6944C20.6271 16.4774 21.4803 15.6242 21.6973 14.5333Z" fill="currentColor"/><path d="M2.25006 21.75V2.25C2.25006 1.69772 2.69778 1.25 3.25006 1.25C3.80235 1.25 4.25006 1.69772 4.25006 2.25V21.75C4.25006 22.3023 3.80235 22.75 3.25006 22.75C2.69778 22.75 2.25006 22.3023 2.25006 21.75Z" fill="currentColor"/></svg>
