<svg xmlns="http://www.w3.org/2000/svg" viewBox="0 0 24 24" fill="none"><path opacity="0.4" d="M21.7501 15.0641V14.9996V12.9996C21.7501 11.603 21.7689 10.6518 21.3546 9.82287C20.9401 8.99387 20.1674 8.43734 19.0499 7.59924C18.2958 7.03369 17.7895 6.6433 17.1856 6.44201C16.5818 6.2408 15.9427 6.24963 15.0001 6.24963H9.0001C8.05745 6.24963 7.4184 6.2408 6.81455 6.44201C6.2107 6.6433 5.70435 7.03369 4.95029 7.59924C3.83284 8.43734 3.0601 8.99389 2.6456 9.82287C2.23132 10.6518 2.25011 11.603 2.2501 12.9996V14.9996L2.25009 15.0641C2.25007 16.4271 2.25004 17.5263 2.36631 18.3912C2.48732 19.2913 2.74681 20.0491 3.34873 20.651C3.95064 21.2529 4.70839 21.5124 5.60849 21.6334C6.47341 21.7497 7.57259 21.7497 8.93566 21.7496H9.0001H15.0001H15.0645C16.4276 21.7497 17.5268 21.7497 18.3917 21.6334C19.2918 21.5124 20.0495 21.2529 20.6515 20.651C21.2534 20.0491 21.5129 19.2913 21.6339 18.3912C21.7501 17.5263 21.7501 16.4272 21.7501 15.0641Z" fill="currentColor"/><path d="M16 11.2496C16.4142 11.2496 16.75 11.5854 16.75 11.9996V13.2496H21.75V14.7496H16.75V15.9996C16.75 16.4138 16.4142 16.7496 16 16.7496C15.5858 16.7496 15.25 16.4138 15.25 15.9996V14.7496H8.75002V15.9996C8.75002 16.4138 8.41423 16.7496 8.00002 16.7496C7.5858 16.7496 7.25002 16.4138 7.25002 15.9996V14.7496H2.25002V13.2496H7.25002V11.9996C7.25002 11.5854 7.5858 11.2496 8.00002 11.2496C8.41423 11.2496 8.75002 11.5854 8.75002 11.9996V13.2496H15.25V11.9996C15.25 11.5854 15.5858 11.2496 16 11.2496Z" fill="currentColor"/><path d="M11.9999 2.24958C12.6434 2.24958 13.1973 2.24813 13.6474 2.29255C14.1132 2.33855 14.5719 2.44156 14.9911 2.71345C15.3002 2.91395 15.5658 3.17129 15.7724 3.47126C16.0525 3.87818 16.1586 4.32381 16.2059 4.77595C16.2492 5.18861 16.2489 5.69113 16.2489 6.27204C15.8885 6.24702 15.4842 6.24958 14.9999 6.24958H14.3602C14.36 5.65741 14.3577 5.2632 14.3261 4.96149C14.2939 4.65441 14.2402 4.54529 14.202 4.48981C14.1332 4.38993 14.0442 4.30465 13.9413 4.23786C13.8841 4.2008 13.7722 4.148 13.4559 4.11677C13.1237 4.084 12.6825 4.08259 11.9999 4.08259C11.3172 4.08259 10.8761 4.08398 10.5438 4.11677C10.2274 4.14802 10.1156 4.20079 10.0585 4.23786C9.95572 4.30457 9.86749 4.3901 9.79872 4.48981C9.76053 4.54529 9.70592 4.65441 9.67372 4.96149C9.64214 5.26319 9.63981 5.65743 9.63954 6.24958H8.99989C8.51511 6.24958 8.11059 6.24693 7.74989 6.27204C7.74988 5.69114 7.75062 5.1886 7.79384 4.77595C7.84123 4.32381 7.94729 3.87818 8.22743 3.47126C8.43399 3.1713 8.69966 2.91396 9.00868 2.71345C9.42784 2.44161 9.88671 2.33856 10.3524 2.29255C10.8024 2.24813 11.3565 2.24958 11.9999 2.24958Z" fill="currentColor"/></svg>
