<svg xmlns="http://www.w3.org/2000/svg" viewBox="0 0 24 24" fill="none"><path d="M14.3612 6.83297V6.37464C14.3612 5.71185 14.36 5.28364 14.3262 4.96114C14.294 4.65406 14.2398 4.54575 14.2017 4.49028C14.1328 4.39037 14.0445 4.30464 13.9416 4.23784C13.8844 4.20077 13.7728 4.14824 13.4564 4.11699C13.1242 4.08418 12.683 4.08297 12.0001 4.08297C11.3172 4.08297 10.8761 4.08418 10.5438 4.11699C10.2274 4.14824 10.1158 4.20077 10.0586 4.23784C9.95571 4.30464 9.86739 4.39037 9.79856 4.49028C9.76037 4.54575 9.70624 4.65406 9.67405 4.96114C9.64025 5.28364 9.639 5.71185 9.639 6.37464V6.83297C9.639 7.33923 9.21616 7.74963 8.69456 7.74963C8.17295 7.74963 7.75011 7.33923 7.75011 6.83297V6.37464C7.75011 5.75008 7.74862 5.21263 7.79438 4.77584C7.84177 4.3237 7.94773 3.87849 8.22787 3.47156C8.43449 3.17151 8.69992 2.91389 9.00906 2.71334C9.42832 2.44144 9.88703 2.3386 10.3529 2.29261C10.8029 2.24819 11.3566 2.24964 12.0001 2.24964C12.6436 2.24964 13.1973 2.24819 13.6473 2.29261C14.1132 2.3386 14.5719 2.44144 14.9912 2.71334C15.3003 2.91389 15.5657 3.17151 15.7723 3.47156C16.0525 3.87849 16.1584 4.3237 16.2058 4.77584C16.2516 5.21263 16.2501 5.75008 16.2501 6.37464V6.83297C16.2501 7.33923 15.8273 7.74963 15.3057 7.74963C14.7841 7.74963 14.3612 7.33923 14.3612 6.83297Z" fill="currentColor"/><path d="M7.2501 14.7496V15.9996C7.2501 16.4138 7.58594 16.7496 8.0001 16.7496C8.41431 16.7496 8.7501 16.4138 8.7501 15.9996V14.7496H15.2501V15.9996C15.2501 16.4138 15.5859 16.7496 16.0001 16.7496C16.4143 16.7496 16.7501 16.4138 16.7501 15.9996V14.7496H21.7501V15.0641C21.7501 16.4271 21.7501 17.5263 21.6339 18.3912C21.5129 19.2913 21.2534 20.0491 20.6515 20.651C20.0495 21.2529 19.2918 21.5124 18.3917 21.6334C17.5268 21.7497 16.4276 21.7497 15.0645 21.7496H8.93564C7.57264 21.7497 6.47338 21.7497 5.60849 21.6334C4.70845 21.5124 3.95061 21.2529 3.34873 20.651C2.7469 20.0491 2.48731 19.2913 2.36631 18.3912C2.25006 17.5263 2.25007 16.4271 2.2501 15.0641V14.7496H7.2501ZM15.0001 6.24963C15.9427 6.24963 16.5818 6.24085 17.1856 6.44201C17.7895 6.64328 18.2959 7.03375 19.0499 7.59924C20.1673 8.43729 20.9401 8.99395 21.3546 9.82287C21.7689 10.6518 21.7501 11.6031 21.7501 12.9996V13.2496H16.7501V11.9996C16.7501 11.5854 16.4143 11.2496 16.0001 11.2496C15.586 11.2497 15.2501 11.5855 15.2501 11.9996V13.2496H8.7501V11.9996C8.75006 11.5854 8.41429 11.2496 8.0001 11.2496C7.58596 11.2497 7.25013 11.5855 7.2501 11.9996V13.2496H2.2501V12.9996C2.25011 11.6031 2.23133 10.6517 2.6456 9.82287C3.0601 8.99392 3.83287 8.43731 4.95029 7.59924C5.70431 7.03371 6.21073 6.64331 6.81455 6.44201C7.41837 6.24081 8.05752 6.24963 9.0001 6.24963H15.0001Z" fill="currentColor" fill-rule="evenodd" clip-rule="evenodd"/></svg>
