<svg xmlns="http://www.w3.org/2000/svg" viewBox="0 0 24 24" fill="none"><path opacity="0.4" d="M21.875 14.6829V14.625V12.1143C21.875 10.5067 21.8924 9.45529 21.4424 8.53516C20.9923 7.61522 20.1517 6.98397 18.8828 5.99707L16.8828 4.44141L16.8516 4.41712C15.8484 3.63683 15.043 3.01037 14.3369 2.58496C13.6063 2.14473 12.9123 1.875 12.125 1.875C11.3378 1.875 10.6438 2.14473 9.91312 2.58496C9.20709 3.01037 8.40167 3.63682 7.39847 4.4171L7.36722 4.44141L5.36722 5.99707C4.09835 6.98397 3.25776 7.61522 2.80765 8.53516C2.35762 9.45529 2.37503 10.5067 2.37503 12.1143V14.625L2.37503 14.6829C2.37501 16.2845 2.37499 17.5628 2.50979 18.5654C2.64912 19.6017 2.94501 20.4548 3.62015 21.1299C4.29528 21.805 5.14835 22.1009 6.1846 22.2402C7.18724 22.375 8.46555 22.375 10.0671 22.375H10.125H14.125H14.1829C15.7845 22.375 17.0628 22.375 18.0655 22.2402C19.1017 22.1009 19.9548 21.805 20.6299 21.1299C21.305 20.4548 21.6009 19.6017 21.7403 18.5654C21.8751 17.5628 21.875 16.2845 21.875 14.6829Z" fill="currentColor"/><path d="M12.1345 16.625C12.6868 16.625 13.1345 17.0727 13.1345 17.625C13.1345 18.1773 12.6868 18.625 12.1345 18.625H12.1247C11.5724 18.625 11.1247 18.1773 11.1247 17.625C11.1247 17.0727 11.5724 16.625 12.1247 16.625H12.1345ZM12.1286 12.6172C13.2646 12.6195 14.3663 13.0089 15.2517 13.7207C15.6817 14.0668 15.7498 14.6957 15.404 15.126C15.058 15.5564 14.4282 15.6253 13.9978 15.2793C13.4666 14.8523 12.8062 14.6186 12.1247 14.6172C11.4431 14.6158 10.7807 14.8465 10.2478 15.2715C9.81595 15.6156 9.18675 15.545 8.84249 15.1133C8.49825 14.6815 8.56988 14.0523 9.00167 13.708C9.88987 12.9998 10.9927 12.6149 12.1286 12.6172ZM12.1247 8.625C14.1696 8.625 16.1535 9.32158 17.7497 10.5996C18.1807 10.9448 18.2501 11.5738 17.905 12.0049C17.5598 12.4359 16.9308 12.5053 16.4997 12.1602C15.2582 11.1662 13.7151 10.625 12.1247 10.625C10.5344 10.625 8.99121 11.1662 7.74972 12.1602C7.31862 12.5053 6.68964 12.4359 6.34444 12.0049C5.9993 11.5738 6.06869 10.9448 6.49972 10.5996C8.09598 9.32158 10.0799 8.625 12.1247 8.625Z" fill="currentColor"/></svg>
