<svg xmlns="http://www.w3.org/2000/svg" viewBox="0 0 24 24" fill="none"><path d="M12.125 1.875C12.9123 1.875 13.6063 2.14475 14.3369 2.58496C15.0429 3.01035 15.8484 3.63675 16.8516 4.41699L16.8828 4.44141L18.8828 5.99707C20.1517 6.98396 20.9923 7.61524 21.4424 8.53516C21.8924 9.45529 21.875 10.5067 21.875 12.1143V14.6826C21.875 16.2842 21.8751 17.5628 21.7403 18.5654C21.6009 19.6017 21.305 20.4548 20.6299 21.1299C19.9548 21.805 19.1017 22.1009 18.0655 22.2402C17.0628 22.375 15.7842 22.375 14.1826 22.375H10.0674C8.46582 22.375 7.18724 22.375 6.1846 22.2402C5.14839 22.1009 4.29526 21.805 3.62015 21.1299C2.94505 20.4548 2.64912 19.6017 2.50979 18.5654C2.375 17.5628 2.37501 16.2842 2.37503 14.6826V12.1143C2.37503 10.5067 2.35764 9.45528 2.80765 8.53516C3.25775 7.61524 4.09838 6.98394 5.36722 5.99707L7.36722 4.44141L7.39847 4.41699C8.40164 3.63673 9.20711 3.01037 9.91312 2.58496C10.6437 2.14474 11.3378 1.87502 12.125 1.875ZM12.125 16.625C11.5727 16.625 11.125 17.0727 11.125 17.625C11.125 18.1773 11.5727 18.625 12.125 18.625H12.1348C12.687 18.6249 13.1348 18.1772 13.1348 17.625C13.1348 17.0728 12.687 16.6251 12.1348 16.625H12.125ZM12.1289 12.6172C10.993 12.6149 9.89016 12.9999 9.00198 13.708C8.57019 14.0523 8.49856 14.6815 8.8428 15.1133C9.18708 15.5449 9.8163 15.6156 10.2481 15.2715C10.781 14.8466 11.4435 14.6158 12.125 14.6172C12.8064 14.6187 13.467 14.8524 13.9981 15.2793C14.4285 15.6252 15.0583 15.5564 15.4043 15.126C15.75 14.6957 15.6818 14.0668 15.252 13.7207C14.3667 13.009 13.2648 12.6195 12.1289 12.6172ZM12.125 8.625C10.0802 8.625 8.09627 9.32165 6.50003 10.5996C6.069 10.9448 5.99961 11.5738 6.34476 12.0049C6.68997 12.4358 7.31897 12.5053 7.75003 12.1602C8.9915 11.1663 10.5347 10.625 12.125 10.625C13.7153 10.6251 15.2586 11.1663 16.5 12.1602C16.9311 12.5052 17.5601 12.4359 17.9053 12.0049C18.2503 11.5738 18.1809 10.9448 17.75 10.5996C16.1538 9.32162 14.1698 8.62505 12.125 8.625Z" fill="currentColor" fill-rule="evenodd" clip-rule="evenodd"/></svg>
