<svg xmlns="http://www.w3.org/2000/svg" fill="none" viewBox="0 0 48 48">
  <g>
    <path fill="currentColor" fill-opacity="0.4" d="M24 0.48C12.4987 0.48 3.175 9.8037 3.175 21.305c0 6.6997 3.1045 12.2395 6.7776 16.448 3.672 4.2075 8.0023 7.192 10.6972 8.8245 2.0744 1.2567 4.626 1.2567 6.7004 0 2.6949 -1.6325 7.0252 -4.617 10.6972 -8.8245 3.6731 -4.2085 6.7776 -9.7483 6.7776 -16.448C44.825 9.8037 35.5013 0.48 24 0.48Z" stroke-width="3.429"></path>
    <path fill="currentColor" d="M17.9049 11.6544c0.059 0 0.1173 0.0033 0.1746 0.0098 0.2863 -0.0004 0.5865 -0.0025 0.8909 -0.0047 0.7095 -0.005 1.4418 -0.0102 2.0731 0.0049 1.6062 0.0385 3.0157 0.3955 4.3576 0.7353 0.4274 0.1082 0.8482 0.2148 1.266 0.3087 1.7457 0.3922 3.5655 0.6066 5.9672 -0.0224 0.5973 -0.1565 1.1851 0.0361 1.5689 0.416 0.3897 0.3857 0.5819 0.9822 0.3468 1.5914 -0.4842 1.2548 -1.2078 2.9683 -2.1593 4.7838 0.095 0.4543 0.3557 1.0415 0.713 1.6763 0.3898 0.693 0.8632 1.3888 1.2634 1.9408 0.5771 0.7962 0.3068 2.0242 -0.7216 2.3496 -2.8538 0.9027 -4.9877 0.7221 -6.9398 0.3061 -0.5702 -0.1215 -1.1115 -0.2585 -1.6434 -0.3932 -1.3086 -0.3313 -2.5601 -0.648 -4.0432 -0.6836 -0.3934 -0.0094 -1.0114 -0.0107 -1.5904 -0.0091v7.8152c0 0.8416 -0.6823 1.5238 -1.5238 1.5238s-1.5238 -0.6822 -1.5238 -1.5238V13.1782c0 -0.8416 0.6823 -1.5238 1.5238 -1.5238Z" stroke-width="3.429"></path>
  </g>
</svg>
