<svg xmlns="http://www.w3.org/2000/svg" fill="none" viewBox="0 0 48 48">
  <g>
    <path stroke="currentColor" stroke-linejoin="round" d="M43.3012 21.305c0 12.4106 -11.4913 20.7893 -16.7405 23.9692 -1.5891 0.9627 -3.5323 0.9627 -5.1213 0C16.1901 42.0943 4.6988 33.7156 4.6988 21.305 4.6988 10.6452 13.3403 2.0038 24 2.0038s19.3012 8.6414 19.3012 19.3012Z" stroke-width="3.429"></path>
    <path stroke="currentColor" stroke-linecap="round" stroke-linejoin="round" d="M17.9753 12.1724c0.9922 -0.0002 2.1276 -0.0224 3.055 -0.0002 4.1022 0.0984 6.7192 2.3179 11.7317 1.0051 0.8285 -0.2169 1.6214 0.5344 1.3131 1.3332 -0.4928 1.2771 -1.2355 3.0327 -2.2149 4.8823 0.1518 1.1468 1.2827 2.8796 2.0947 3.9996 0.402 0.5548 0.1897 1.3606 -0.4636 1.5672 -5.4971 1.739 -8.1644 -0.6911 -12.461 -0.7941 -0.9274 -0.0223 -3.055 0 -3.055 0" stroke-width="3.429"></path>
    <path stroke="currentColor" stroke-linecap="round" stroke-linejoin="round" d="M17.9049 12.1623v20.317" stroke-width="3.429"></path>
  </g>
</svg>
