<svg xmlns="http://www.w3.org/2000/svg" fill="none" viewBox="0 0 48 48">
  <g>
    <path fill="currentColor" fill-rule="evenodd" d="M7 21.3658C7 12.0644 14.5978 4.5 24 4.5s17 7.5644 17 16.8658c0 5.4117 -2.5197 10.0406 -5.8041 13.7773 -3.2854 3.7378 -7.2143 6.4385 -9.7061 7.9373 -0.93 0.5595 -2.0496 0.5595 -2.9796 0 -2.4918 -1.4988 -6.4207 -4.1995 -9.7061 -7.9373C9.51967 31.4064 7 26.7775 7 21.3658ZM24 0.5C12.4154 0.5 3 9.82858 3 21.3658c0 6.719 3.13632 12.2502 6.7997 16.418 3.6624 4.1668 7.9732 7.115 10.6487 8.7243 2.1986 1.3225 4.9046 1.3225 7.1032 0 2.6755 -1.6093 6.9863 -4.5575 10.6487 -8.7243C41.8637 33.616 45 28.0848 45 21.3658 45 9.82858 35.5846 0.5 24 0.5Zm-4.9664 10.5051h-0.0001c-0.3337 0.0023 -0.66 0.0046 -0.9644 0.0047 -0.0518 0 -0.1027 0.004 -0.1524 0.0116 -1.204 0.0438 -2.1667 1.0337 -2.1667 2.2485v18.73c0 1.2427 1.0074 2.25 2.25 2.25s2.25 -1.0073 2.25 -2.25v-7.1932c0.3073 0.0011 0.5898 0.0037 0.8027 0.0088 1.401 0.0336 2.5536 0.3256 3.8182 0.6459l0.0001 0c0.5335 0.1352 1.0869 0.2753 1.6873 0.4033 1.9816 0.4223 4.1737 0.6077 7.0866 -0.3137 1.3814 -0.4371 1.7046 -2.0616 0.9643 -3.083 -0.3882 -0.5355 -0.8421 -1.2033 -1.2129 -1.8623 -0.2993 -0.532 -0.5061 -0.9922 -0.6067 -1.3416 0.9045 -1.7456 1.5948 -3.3837 2.0613 -4.5925 0.3111 -0.8062 0.0519 -1.5991 -0.4562 -2.102 -0.4965 -0.4914 -1.2547 -0.739 -2.0227 -0.5378 -2.2614 0.5923 -3.9668 0.3934 -5.6378 0.0179 -0.387 -0.087 -0.7853 -0.1879 -1.1963 -0.2921 -1.3305 -0.3372 -2.7941 -0.7082 -4.4373 -0.7476 -0.629 -0.0151 -1.3642 -0.0099 -2.067 -0.0049Z" clip-rule="evenodd" stroke-width="3.429"></path>
  </g>
</svg>
