<svg xmlns="http://www.w3.org/2000/svg" fill="none" viewBox="0 0 48 48">
  <g>
    <path fill="currentColor" fill-rule="evenodd" d="M3.175 21.305C3.175 9.8037 12.4987 0.48 24 0.48s20.825 9.3237 20.825 20.825c0 6.6997 -3.1045 12.2395 -6.7776 16.448 -3.672 4.2075 -8.0023 7.192 -10.6972 8.8245 -2.0744 1.2567 -4.626 1.2567 -6.7004 0 -2.6949 -1.6325 -7.0252 -4.617 -10.6972 -8.8245 -3.6731 -4.2085 -6.7776 -9.7483 -6.7776 -16.448Zm14.9045 -9.6408c-0.0573 -0.0065 -0.1156 -0.0098 -0.1746 -0.0098 -0.8415 0 -1.5238 0.6822 -1.5238 1.5238v19.3012c0 0.8415 0.6823 1.5237 1.5238 1.5237s1.5238 -0.6822 1.5238 -1.5237v-7.8153c0.579 -0.0016 1.197 -0.0003 1.5904 0.0091 1.4831 0.0356 2.7345 0.3523 4.0432 0.6836 0.5319 0.1347 1.0732 0.2717 1.6434 0.3932 1.9521 0.416 4.086 0.5967 6.9398 -0.3061 1.0284 -0.3254 1.2987 -1.5534 0.7216 -2.3496 -0.4002 -0.552 -0.8736 -1.2478 -1.2634 -1.9408 -0.3573 -0.6348 -0.618 -1.222 -0.713 -1.6762 0.9515 -1.8156 1.6751 -3.5291 2.1593 -4.7839 0.2351 -0.6092 0.0429 -1.2057 -0.3468 -1.5914 -0.3838 -0.3799 -0.9716 -0.5725 -1.5689 -0.416 -2.4017 0.629 -4.2215 0.4147 -5.9672 0.0224 -0.4177 -0.0939 -0.8384 -0.2004 -1.2657 -0.3087h-0.0003c-1.3419 -0.3398 -2.7514 -0.6968 -4.3576 -0.7353 -0.6313 -0.0151 -1.3636 -0.0099 -2.073 -0.0049h-0.0001c-0.3044 0.0022 -0.6046 0.0043 -0.8909 0.0047Z" clip-rule="evenodd" stroke-width="1"></path>
  </g>
</svg>
