<svg xmlns="http://www.w3.org/2000/svg" viewBox="0 0 24 24" fill="none"><path d="M16.7501 21.25V20.6035C16.5173 20.5342 16.2948 20.4418 16.0851 20.3281L15.629 20.7852C15.2385 21.1757 14.6055 21.1757 14.2149 20.7852C13.8244 20.3946 13.8244 19.7616 14.2149 19.3711L14.671 18.9141C14.5576 18.7046 14.4648 18.4824 14.3956 18.25H13.7501C13.1978 18.25 12.7501 17.8023 12.7501 17.25C12.7501 16.6977 13.1978 16.25 13.7501 16.25H14.3956C14.4649 16.0173 14.5574 15.7946 14.671 15.585L14.2149 15.1289C13.8244 14.7384 13.8244 14.1054 14.2149 13.7148C14.6055 13.3243 15.2385 13.3243 15.629 13.7148L16.0851 14.1709C16.2947 14.0573 16.5174 13.9648 16.7501 13.8955V13.25C16.7501 12.6977 17.1978 12.25 17.7501 12.25C18.3024 12.25 18.7501 12.6977 18.7501 13.25V13.8955C18.9825 13.9647 19.2047 14.0575 19.4142 14.1709L19.8712 13.7148C20.2617 13.3243 20.8947 13.3243 21.2852 13.7148C21.6758 14.1054 21.6758 14.7384 21.2852 15.1289L20.8282 15.585C20.9419 15.7948 21.0353 16.0171 21.1046 16.25H21.7501C22.3024 16.25 22.7501 16.6977 22.7501 17.25C22.7501 17.8023 22.3024 18.25 21.7501 18.25H21.1046C21.0353 18.4826 20.9418 18.7045 20.8282 18.9141L21.2852 19.3711C21.6758 19.7616 21.6758 20.3946 21.2852 20.7852C20.8947 21.1757 20.2617 21.1757 19.8712 20.7852L19.4142 20.3281C19.2047 20.4416 18.9826 20.5343 18.7501 20.6035V21.25C18.7501 21.8023 18.3024 22.25 17.7501 22.25C17.1978 22.25 16.7501 21.8023 16.7501 21.25ZM17.7501 15.75C16.9217 15.75 16.2501 16.4216 16.2501 17.25C16.2501 18.0784 16.9217 18.75 17.7501 18.75C18.5785 18.75 19.2501 18.0784 19.2501 17.25C19.2501 16.4216 18.5785 15.75 17.7501 15.75Z" fill="currentColor"/><path d="M6.94443 1.75009C8.0491 1.75009 8.7959 1.73823 9.46298 1.98837C10.9535 2.54734 11.5503 3.92365 12.0372 4.89755L12.464 5.75009H16.7735C17.8 5.75008 18.6273 5.75008 19.2901 5.81747C19.9705 5.88669 20.5611 6.03324 21.0831 6.38193C21.4925 6.65551 21.8447 7.00764 22.1183 7.41708C22.4669 7.93909 22.6135 8.52967 22.6827 9.21005C22.7501 9.87289 22.7501 10.7002 22.7501 11.7267V11.7833C22.7501 12.5208 22.7479 13.1903 22.7393 13.7989C22.6581 13.5144 22.5196 13.2427 22.3233 13.002L22.169 12.8311L21.9981 12.6768C21.3679 12.1628 20.525 12.043 19.794 12.3145C19.4387 11.5395 18.6585 11.0001 17.7501 11.0001C16.8416 11.0001 16.0604 11.5393 15.7052 12.3145C14.9744 12.0435 14.132 12.163 13.502 12.6768L13.3311 12.8311C12.689 13.4733 12.5181 14.4061 12.8145 15.2052C12.0393 15.5604 11.5001 16.3416 11.5001 17.2501C11.5001 18.1585 12.0395 18.9387 12.8145 19.294C12.5773 19.9329 12.6397 20.657 13.002 21.2501H11.9347C9.63054 21.2501 7.82385 21.2501 6.41415 21.0606C4.96942 20.8664 3.82947 20.4603 2.93466 19.5655C2.03988 18.6707 1.63378 17.5307 1.43955 16.086C1.25008 14.6764 1.25007 12.8704 1.25009 10.5665V7.4288C1.25009 6.54156 1.25009 5.82644 1.30087 5.25009C1.35286 4.66044 1.46273 4.14419 1.72568 3.67294C2.06456 3.06572 2.56572 2.56454 3.17294 2.22568C3.6442 1.96273 4.16042 1.85285 4.75009 1.80087C5.32633 1.7501 6.04083 1.75009 6.92783 1.75009H6.94443Z" fill="currentColor"/></svg>
