<svg xmlns="http://www.w3.org/2000/svg" viewBox="0 0 24 24" fill="none"><path opacity="0.4" d="M19.2158 17.5254C20.9794 16.1291 21.75 13.8446 21.75 10.5C21.75 7.1554 20.9794 4.87091 19.2158 3.47461C17.4996 2.11595 15.0164 1.75 12 1.75C8.98359 1.75 6.50038 2.11595 4.78418 3.47461C3.02063 4.87091 2.25 7.1554 2.25 10.5C2.25 12.8656 2.63316 14.6999 3.48828 16.0713C4.25982 17.3085 5.37047 18.0961 6.75 18.5762V21.1465C6.75 21.7558 7.24425 22.25 7.85352 22.25C8.14687 22.2499 8.42782 22.1327 8.63477 21.9248L11.3037 19.2412C11.5318 19.246 11.7639 19.25 12 19.25C15.0164 19.25 17.4996 18.8841 19.2158 17.5254Z" fill="currentColor"/><path d="M8.93761 5.75365C9.16113 5.77578 9.36277 5.89689 9.48741 6.08373L10.5773 7.71752C10.8964 8.19678 10.833 8.83465 10.4259 9.24193L9.77355 9.8933C10.1057 10.432 10.5157 10.9841 11.0157 11.4841C11.5154 11.9838 12.0673 12.3934 12.6056 12.7253L13.2579 12.074L13.337 12.0017C13.7444 11.6606 14.3331 11.6234 14.7823 11.9226L16.4161 13.0124C16.603 13.1371 16.7241 13.3387 16.7462 13.5622C16.7683 13.7858 16.6892 14.0079 16.5304 14.1667L15.9249 14.7722C15.5142 15.1829 14.8897 15.3712 14.2892 15.1667C13.8363 15.0126 13.142 14.7425 12.3702 14.322C11.5966 13.9006 10.7321 13.3216 9.95519 12.5447C9.17827 11.7677 8.5993 10.9032 8.17784 10.1296C7.75739 9.35783 7.48729 8.6635 7.33312 8.21068C7.12866 7.61016 7.31695 6.98564 7.72765 6.57494L8.33312 5.96947C8.49198 5.81061 8.71404 5.73155 8.93761 5.75365Z" fill="currentColor"/><path d="M16.25 10C16.25 8.20507 14.7949 6.75 13 6.75C12.5858 6.75 12.25 6.41421 12.25 6C12.25 5.58579 12.5858 5.25 13 5.25C15.6234 5.25 17.75 7.37665 17.75 10C17.75 10.4142 17.4142 10.75 17 10.75C16.5858 10.75 16.25 10.4142 16.25 10Z" fill="currentColor"/><path d="M13.25 10C13.25 9.86193 13.1381 9.75 13 9.75C12.5858 9.75 12.25 9.41421 12.25 9C12.25 8.58579 12.5858 8.25 13 8.25C13.9665 8.25 14.75 9.0335 14.75 10C14.75 10.4142 14.4142 10.75 14 10.75C13.5858 10.75 13.25 10.4142 13.25 10Z" fill="currentColor"/></svg>
