<svg xmlns="http://www.w3.org/2000/svg" viewBox="0 0 24 24" fill="none"><path d="M12 1.75C15.0164 1.75 17.4996 2.11595 19.2158 3.47461C20.9794 4.87091 21.75 7.1554 21.75 10.5C21.75 13.8446 20.9794 16.1291 19.2158 17.5254C17.4996 18.8841 15.0164 19.25 12 19.25C11.7639 19.25 11.5318 19.246 11.3037 19.2412L8.63477 21.9248C8.42782 22.1327 8.14687 22.2499 7.85352 22.25C7.24425 22.25 6.75 21.7558 6.75 21.1465V18.5762C5.37047 18.0961 4.25982 17.3085 3.48828 16.0713C2.63316 14.6999 2.25 12.8656 2.25 10.5C2.25 7.1554 3.02063 4.87091 4.78418 3.47461C6.50038 2.11595 8.98359 1.75 12 1.75ZM8.9375 5.75391C8.71396 5.73183 8.49185 5.81089 8.33301 5.96973L7.72754 6.5752C7.31697 6.9859 7.12858 7.6105 7.33301 8.21094C7.4872 8.66376 7.75734 9.3582 8.17773 10.1299C8.59918 10.9034 9.17821 11.7681 9.95508 12.5449C10.732 13.3218 11.5965 13.9008 12.3701 14.3223C13.1419 14.7427 13.8362 15.0128 14.2891 15.167C14.8895 15.3714 15.5141 15.183 15.9248 14.7725L16.5303 14.167C16.6891 14.0082 16.7681 13.786 16.7461 13.5625C16.724 13.339 16.6028 13.1373 16.416 13.0127L14.7822 11.9229C14.3329 11.6237 13.7443 11.6608 13.3369 12.002L13.2578 12.0742L12.6055 12.7256C12.0672 12.3936 11.5153 11.984 11.0156 11.4844C10.5156 10.9844 10.1055 10.4322 9.77344 9.89355L10.4258 9.24219C10.8328 8.83494 10.8962 8.19702 10.5771 7.71777L9.4873 6.08398C9.36266 5.89714 9.16102 5.77604 8.9375 5.75391ZM13 8.25C12.5858 8.25 12.25 8.58579 12.25 9C12.25 9.41421 12.5858 9.75 13 9.75C13.1381 9.75 13.25 9.86193 13.25 10C13.25 10.4142 13.5858 10.75 14 10.75C14.4142 10.75 14.75 10.4142 14.75 10C14.75 9.0335 13.9665 8.25 13 8.25ZM13 5.25C12.5858 5.25 12.25 5.58579 12.25 6C12.25 6.41421 12.5858 6.75 13 6.75C14.7949 6.75 16.25 8.20507 16.25 10C16.25 10.4142 16.5858 10.75 17 10.75C17.4142 10.75 17.75 10.4142 17.75 10C17.75 7.37665 15.6234 5.25 13 5.25Z" fill="currentColor"/></svg>
