<svg xmlns="http://www.w3.org/2000/svg" fill="none" viewBox="0 0 48 48">
  <g>
    <path fill="currentColor" fill-opacity="0.4" fill-rule="evenodd" d="M21.5 6.5c-6.6552 0 -11.3834 0.19878 -14.43007 0.39508C3.81006 7.10512 1.19966 9.5504 0.915627 12.8559 0.698974 15.3772 0.5 19.0423 0.5 24c0.000002 4.9577 0.198975 8.6228 0.415628 11.1441 0.284032 3.3055 2.894432 5.7508 6.154312 5.9608C10.1166 41.3012 14.8448 41.5 21.5 41.5c6.6552 0 11.3834 -0.1988 14.4301 -0.3951 3.2598 -0.21 5.8702 -2.6553 6.1543 -5.9608 0.0574 -0.6685 0.1136 -1.4173 0.1652 -2.2494l0.5027 -0.0492c1.9176 -0.1879 3.7972 -1.4384 4.2495 -3.6067 0.2655 -1.2727 0.4982 -3.0178 0.4982 -5.223 0 -2.211 -0.2339 -3.9595 -0.5003 -5.233 -0.4518 -2.1605 -2.3219 -3.4093 -4.232 -3.6033l-0.5168 -0.0524c-0.0519 -0.8408 -0.1086 -1.5969 -0.1665 -2.2712 -0.2841 -3.3055 -2.8945 -5.75079 -6.1543 -5.96082C32.8834 6.69878 28.1552 6.5 21.5 6.5Z" clip-rule="evenodd" stroke-width="1"></path>
    <path fill="currentColor" fill-rule="evenodd" d="M23.7883 17.5119c-0.3675 -1.8371 -2.5503 -2.6322 -4.0132 -1.4619l-8.3424 6.6739c-1.56985 1.2559 -0.5135 3.7829 1.4831 3.548l4.8896 -0.5752 0.7133 3.5666c0.3674 1.837 2.5503 2.6322 4.0132 1.4618l8.3424 -6.6738c1.5698 -1.2559 0.5135 -3.783 -1.4831 -3.5481l-4.8896 0.5753 -0.7133 -3.5666Z" clip-rule="evenodd" stroke-width="1"></path>
  </g>
</svg>
