<svg xmlns="http://www.w3.org/2000/svg" fill="none" viewBox="0 0 48 48">
  <g>
    <path fill="currentColor" fill-rule="evenodd" d="M7.06993 6.89508C10.1166 6.69878 14.8448 6.5 21.5 6.5c6.6552 0 11.3834 0.19878 14.4301 0.39508 3.2598 0.21003 5.8702 2.65532 6.1543 5.96082 0.0579 0.6743 0.1146 1.4304 0.1665 2.2712l0.5168 0.0524c1.9101 0.194 3.7802 1.4428 4.232 3.6033 0.2664 1.2735 0.5003 3.022 0.5003 5.233 0 2.2052 -0.2327 3.9503 -0.4982 5.223 -0.4523 2.1683 -2.3319 3.4188 -4.2495 3.6067l-0.5027 0.0492c-0.0516 0.8321 -0.1078 1.5809 -0.1652 2.2494 -0.2841 3.3055 -2.8945 5.7508 -6.1543 5.9608 -3.0467 0.1963 -7.7749 0.3951 -14.4301 0.3951s-11.3834 -0.1988 -14.43006 -0.3951c-3.25988 -0.21 -5.87028 -2.6553 -6.154312 -5.9608C0.698975 32.6228 0.500002 28.9577 0.5 24c0 -4.9577 0.198974 -8.6228 0.415627 -11.1441C1.19966 9.5504 3.81006 7.10512 7.06993 6.89508ZM19.7751 16.05c1.4629 -1.1703 3.6457 -0.3752 4.0132 1.4619l0.7133 3.5666 4.8896 -0.5753c1.9966 -0.2349 3.0529 2.2922 1.4831 3.5481l-8.3424 6.6738c-1.4629 1.1704 -3.6458 0.3752 -4.0132 -1.4618l-0.7133 -3.5666 -4.8896 0.5752c-1.9966 0.2349 -3.05295 -2.2921 -1.4831 -3.548l8.3424 -6.6739Z" clip-rule="evenodd" stroke-width="3.429"></path>
  </g>
</svg>
