<svg xmlns="http://www.w3.org/2000/svg" viewBox="0 0 24 24" fill="none"><path d="M11.9995 1.25C17.9366 1.25 22.7495 6.06294 22.7495 12C22.7495 17.9371 17.9366 22.75 11.9995 22.75C6.06245 22.75 1.24951 17.9371 1.24951 12C1.24951 6.06294 6.06245 1.25 11.9995 1.25ZM11.9995 8C9.79037 8 7.99951 9.79086 7.99951 12C7.99951 14.2091 9.79037 16 11.9995 16C14.2087 16 15.9995 14.2091 15.9995 12C15.9995 9.79086 14.2087 8 11.9995 8Z" fill="currentColor"/><path d="M11.9995 11C12.5518 11 12.9995 11.4477 12.9995 12C12.9995 12.5523 12.5518 13 11.9995 13C11.4472 13 10.9995 12.5523 10.9995 12C10.9995 11.4477 11.4472 11 11.9995 11Z" fill="currentColor"/></svg>
