<svg xmlns="http://www.w3.org/2000/svg" viewBox="0 0 24 24" fill="none"><path d="M12.6952 2.75004C13.3561 2.75004 13.8659 2.74046 14.3348 2.90434C14.6037 2.99831 14.8565 3.13322 15.0839 3.30473C15.4804 3.604 15.7554 4.03416 16.1219 4.58403L16.1444 4.61821C16.2416 4.76399 16.3536 4.93163 16.4559 5.07915C16.5111 5.15876 16.622 5.30636 16.663 5.36137C16.8476 5.55541 17.0895 5.68543 17.3534 5.73149C17.4448 5.74743 17.5514 5.75004 17.9442 5.75005C18.8733 5.75005 19.4933 5.74275 20.0194 5.89165C21.2723 6.24631 22.2516 7.22573 22.6063 8.47856C22.7552 9.00464 22.7479 9.62471 22.7479 10.5538V14.5645C22.748 15.9275 22.748 17.0267 22.6317 17.8916C22.5107 18.7917 22.2512 19.5495 21.6493 20.1514C21.0474 20.7533 20.2896 21.0128 19.3895 21.1338C18.5246 21.2501 17.4254 21.2501 16.0624 21.25H7.93347C6.57044 21.2501 5.47122 21.2501 4.60632 21.1338C3.70624 21.0128 2.94846 20.7533 2.34656 20.1514C1.7447 19.5495 1.48514 18.7917 1.36413 17.8916C1.24789 17.0267 1.24789 15.9275 1.24792 14.5645V10.5538C1.24792 9.62471 1.2406 9.00464 1.38952 8.47856C1.74421 7.22572 2.72359 6.24632 3.97644 5.89165C4.50253 5.74272 5.12256 5.75004 6.05163 5.75005C6.44444 5.75005 6.55102 5.74742 6.64245 5.73149C6.90633 5.68544 7.14823 5.55542 7.33288 5.36137C7.37382 5.3064 7.48468 5.15878 7.53991 5.07915C7.65033 4.91994 7.77167 4.73737 7.8739 4.58403C8.2405 4.03413 8.51548 3.60401 8.91198 3.30473C9.13935 3.13319 9.39214 2.99832 9.66101 2.90434C10.13 2.74044 10.6398 2.75004 11.3007 2.75004H12.6952ZM11.9979 8.00004C9.23649 8.00004 6.99792 10.2386 6.99792 13C6.99792 15.7615 9.23649 18 11.9979 18C14.7594 18 16.9979 15.7615 16.9979 13C16.9979 10.2386 14.7594 8.00004 11.9979 8.00004ZM11.9979 10C13.6548 10 14.9979 11.3432 14.9979 13C14.9979 14.6569 13.6548 16 11.9979 16C10.3411 16 8.99792 14.6569 8.99792 13C8.99792 11.3432 10.3411 10 11.9979 10ZM18.9979 8.50004C18.4456 8.50004 17.9979 8.94776 17.9979 9.50004V9.50981C17.9979 10.0621 18.4456 10.5098 18.9979 10.5098C19.5502 10.5098 19.9979 10.0621 19.9979 9.50981V9.50004C19.9979 8.94776 19.5502 8.50004 18.9979 8.50004Z" fill="currentColor" fill-rule="evenodd" clip-rule="evenodd"/></svg>
