<svg xmlns="http://www.w3.org/2000/svg" viewBox="0 0 24 24" fill="none"><path d="M3.41999 2.24183C3.83215 1.37715 4.88396 0.999975 5.76374 1.42445C5.94446 1.51169 6.10052 1.64536 6.22468 1.75844C6.35806 1.87992 6.52188 2.04168 6.71687 2.235C6.80441 2.32179 6.85631 2.37272 6.89656 2.4098C6.9185 2.43002 6.93001 2.44033 6.93464 2.44398C7.01032 2.49308 7.10816 2.49851 7.18952 2.45765C7.19427 2.45473 7.20694 2.44641 7.23152 2.42836C7.27567 2.39589 7.33311 2.35072 7.42976 2.27406L7.60163 2.13734C8.02378 1.80252 8.38233 1.50459 8.79792 1.36879C9.25406 1.21979 9.74608 1.21982 10.2022 1.36879C10.6178 1.50458 10.9764 1.80254 11.3985 2.13734L11.4659 2.19105C11.6528 2.33931 11.7626 2.42543 11.8487 2.48402C11.8984 2.51783 11.9231 2.53102 11.9317 2.5348C11.9762 2.54699 12.0239 2.54699 12.0684 2.5348C12.0769 2.53109 12.1015 2.518 12.1514 2.48402C12.2375 2.42543 12.3473 2.33937 12.5343 2.19105L12.6016 2.13734C13.0238 1.80252 13.3823 1.50459 13.7979 1.36879C14.2541 1.21979 14.7461 1.21982 15.2022 1.36879C15.6178 1.50458 15.9764 1.80254 16.3985 2.13734L16.5704 2.27406C16.667 2.35067 16.7245 2.3959 16.7686 2.42836C16.793 2.44628 16.8058 2.45467 16.8106 2.45765C16.892 2.49851 16.9898 2.49308 17.0655 2.44398C17.0701 2.44039 17.0815 2.43016 17.1036 2.4098C17.1438 2.37271 17.1957 2.32185 17.2833 2.235C17.4783 2.04165 17.6421 1.87994 17.7755 1.75844C17.8996 1.64535 18.0556 1.51171 18.2364 1.42445L18.4141 1.35023C19.3133 1.03094 20.3301 1.49302 20.6534 2.42152C20.7196 2.61186 20.7351 2.81705 20.7423 2.98402C20.7499 3.16371 20.7501 3.39332 20.7501 3.66664V20.6979C20.7501 20.9143 20.7525 21.1238 20.7296 21.2721C20.5284 22.571 19.0193 23.1783 17.9669 22.4127C17.8458 22.3245 17.6987 22.1755 17.544 22.0221C17.4172 21.8964 17.3896 21.8699 17.3692 21.8532C17.1152 21.645 16.7513 21.6246 16.4747 21.8043C16.4524 21.8188 16.4218 21.8422 16.2823 21.9528L16.1456 22.0612C15.9387 22.2253 15.7632 22.3681 15.5762 22.4694C14.9054 22.8326 14.0948 22.8326 13.4239 22.4694C13.237 22.3681 13.0614 22.2253 12.8546 22.0612L12.7843 22.0055C12.4573 21.7462 12.3861 21.6953 12.3282 21.6676C12.1212 21.5687 11.8789 21.5687 11.6719 21.6676C11.614 21.6953 11.5429 21.7461 11.2159 22.0055L11.1456 22.0612C10.9387 22.2253 10.7632 22.3681 10.5762 22.4694C9.90539 22.8326 9.09475 22.8326 8.4239 22.4694C8.23697 22.3681 8.06141 22.2252 7.85456 22.0612L7.71784 21.9528C7.57845 21.8422 7.5477 21.8188 7.52546 21.8043C7.28331 21.647 6.97408 21.6427 6.73054 21.7838L6.63093 21.8532C6.61051 21.8699 6.583 21.8963 6.45613 22.0221C6.30135 22.1756 6.15434 22.3246 6.03327 22.4127C4.98088 23.1783 3.47176 22.571 3.27058 21.2721C3.24769 21.1238 3.25007 20.9143 3.25007 20.6979V3.66664C3.25007 3.39332 3.2502 3.16371 3.25788 2.98402C3.26503 2.81705 3.2805 2.61186 3.34675 2.42152L3.41999 2.24183ZM11.5001 6.74965C10.5336 6.74971 9.75007 7.53319 9.75007 8.49965V10.7496H8.50007C8.08591 10.7497 7.75007 11.0855 7.75007 11.4996C7.75007 11.9138 8.08591 12.2496 8.50007 12.2496H9.75007V13.7496H8.50007C8.08591 13.7497 7.75007 14.0855 7.75007 14.4996C7.75007 14.9138 8.08591 15.2496 8.50007 15.2496H9.75007V16.4996C9.75007 16.9138 10.0859 17.2496 10.5001 17.2496C10.9143 17.2496 11.2501 16.9139 11.2501 16.4996V15.2496H13.5001C13.9143 15.2496 14.2501 14.9139 14.2501 14.4996C14.2501 14.0854 13.9143 13.7496 13.5001 13.7496H11.2501V12.2496H13.5001C15.0189 12.2496 16.2501 11.0184 16.2501 9.49965C16.2501 7.98086 15.0189 6.74965 13.5001 6.74965H11.5001ZM13.5001 8.24965C14.1904 8.24965 14.7501 8.80929 14.7501 9.49965C14.7501 10.19 14.1904 10.7496 13.5001 10.7496H11.2501V8.49965C11.2501 8.36162 11.3621 8.24971 11.5001 8.24965H13.5001Z" fill="currentColor" fill-rule="evenodd" clip-rule="evenodd"/></svg>
