<svg xmlns="http://www.w3.org/2000/svg" viewBox="0 0 24 24" fill="none"><path d="M9.97395 2.25018H14.026C15.8081 2.25016 17.2444 2.25014 18.3741 2.4C19.547 2.55559 20.5345 2.88846 21.3188 3.66235C22.1031 4.43624 22.4405 5.41065 22.5982 6.56793C22.75 7.68261 22.75 9.09989 22.75 10.8582V14.7859C22.75 15.3185 22.3125 15.7502 21.7727 15.7502C21.233 15.7502 20.7955 15.3185 20.7955 14.7859V10.9288C20.7955 9.08322 20.7934 7.79607 20.6611 6.82491C20.5325 5.88148 20.2974 5.38189 19.9367 5.02605C19.5761 4.67022 19.0698 4.43821 18.1137 4.31137C17.1294 4.1808 15.8249 4.17876 13.9545 4.17876H10.0455C8.17506 4.17876 6.87058 4.1808 5.88634 4.31137C4.93021 4.43821 4.42389 4.67022 4.06326 5.02605C3.70263 5.38189 3.4675 5.88148 3.33895 6.82491C3.20662 7.79608 3.20455 9.08322 3.20455 10.9288V14.7859C3.20455 15.3185 2.76701 15.7502 2.22727 15.7502C1.68754 15.7502 1.25 15.3185 1.25 14.7859L1.25 10.8582C1.24997 9.09987 1.24995 7.6826 1.40183 6.56793C1.55952 5.41065 1.89687 4.43624 2.68118 3.66235C3.4655 2.88846 4.45303 2.55559 5.6259 2.4C6.75559 2.25014 8.19194 2.25016 9.97395 2.25018Z" fill="currentColor" fill-rule="evenodd" clip-rule="evenodd"/><path d="M9.5 7.00018C9.5 6.4479 9.94772 6.00018 10.5 6.00018H13.5C14.0523 6.00018 14.5 6.4479 14.5 7.00018C14.5 7.55247 14.0523 8.00018 13.5 8.00018H10.5C9.94772 8.00018 9.5 7.55247 9.5 7.00018Z" fill="currentColor" fill-rule="evenodd" clip-rule="evenodd"/><path d="M6.9916 10.8286C10.1133 10.0579 13.8875 10.0579 17.0092 10.8286C17.8102 11.0264 18.4179 11.6143 18.6937 12.3657C19.1102 13.5006 19.5824 15.3988 19.7426 17.9594C19.8655 19.9254 18.4269 20.9613 17.2035 21.5903C16.4703 21.9672 15.5924 21.6526 15.2396 20.9272L14.4184 19.2368C14.3786 19.1551 14.2917 19.0982 14.1918 19.0981H9.80898C9.70898 19.0981 9.62225 19.1551 9.58242 19.2368L8.76015 20.9272C8.40739 21.6526 7.53045 21.9672 6.79726 21.5903C5.57384 20.9614 4.13429 19.9256 4.25722 17.9594C4.41734 15.3987 4.88956 13.5006 5.30605 12.3657C5.58187 11.6141 6.19039 11.0264 6.9916 10.8286ZM8.99941 13.7505C8.30905 13.7505 7.74941 14.3101 7.74941 15.0005C7.74957 15.6907 8.30915 16.2505 8.99941 16.2505H9.0082C9.69828 16.2503 10.258 15.6906 10.2582 15.0005C10.2582 14.3102 9.69838 13.7507 9.0082 13.7505H8.99941ZM14.9994 13.7505C14.3091 13.7505 13.7494 14.3101 13.7494 15.0005C13.7496 15.6907 14.3092 16.2505 14.9994 16.2505H15.0082C15.6983 16.2503 16.258 15.6906 16.2582 15.0005C16.2582 14.3102 15.6984 13.7507 15.0082 13.7505H14.9994Z" fill="currentColor" fill-rule="evenodd" clip-rule="evenodd"/></svg>
