<svg xmlns="http://www.w3.org/2000/svg" viewBox="0 0 24 24" fill="none"><path d="M7.74805 3.00056C7.74805 2.03407 8.53155 1.25056 9.49805 1.25056H14.498C15.4645 1.25056 16.248 2.03407 16.248 3.00056C16.248 3.96706 15.4645 4.75056 14.498 4.75056H9.49805C8.53155 4.75056 7.74805 3.96706 7.74805 3.00056Z" fill="currentColor" fill-rule="evenodd" clip-rule="evenodd"/><path d="M17.4941 3.13338C18.3482 3.26032 19.0711 3.51991 19.6494 4.09822C20.2512 4.70022 20.5108 5.45881 20.6318 6.35896C20.7481 7.22405 20.7481 8.32477 20.748 9.68806L20.748 16.0631C20.7481 17.4264 20.7481 18.5271 20.6318 19.3922C20.5108 20.2923 20.2512 21.0509 19.6494 21.6529C19.0476 22.2547 18.2895 22.5133 17.3896 22.6344C16.5248 22.7507 15.4255 22.7506 14.0625 22.7506L9.93359 22.7506C8.57067 22.7506 7.47129 22.7507 6.60645 22.6344C5.70658 22.5133 4.94852 22.2547 4.34668 21.6529C3.74493 21.0509 3.48532 20.2923 3.36426 19.3922C3.248 18.5271 3.24802 17.4262 3.24805 16.0631L3.24805 9.68806C3.24802 8.32489 3.248 7.224 3.36426 6.35896C3.48532 5.4588 3.74493 4.70022 4.34668 4.09822C4.9248 3.52012 5.64734 3.26037 6.50098 3.13338C6.57047 4.7286 7.8857 6.00056 9.49805 6.00056L14.498 6.00056C16.1104 6.00056 17.4246 4.72858 17.4941 3.13338ZM8.5 16.0006C7.94772 16.0006 7.5 16.4483 7.5 17.0006C7.5 17.5528 7.94772 18.0006 8.5 18.0006H8.50977C9.06199 18.0005 9.50977 17.5528 9.50977 17.0006C9.50977 16.4483 9.06199 16.0006 8.50977 16.0006H8.5ZM13.998 16.2506C13.5838 16.2506 13.248 16.5864 13.248 17.0006C13.248 17.4148 13.5838 17.7506 13.998 17.7506L16.998 17.7506C17.4123 17.7506 17.748 17.4148 17.748 17.0006C17.748 16.5864 17.4123 16.2506 16.998 16.2506L13.998 16.2506ZM10.9668 8.91463C10.6434 8.65602 10.1709 8.70859 9.91211 9.03181L8.43555 10.8775L8.02832 10.4703C7.73548 10.1776 7.26064 10.1776 6.96777 10.4703C6.67492 10.7631 6.675 11.2379 6.96777 11.5308L7.96777 12.5308C8.11851 12.6816 8.32622 12.7612 8.53906 12.7496C8.75204 12.7378 8.95073 12.6359 9.08398 12.4693L11.084 9.96931C11.3426 9.64587 11.2902 9.17333 10.9668 8.91463ZM13.998 10.2506C13.5838 10.2506 13.248 10.5864 13.248 11.0006C13.248 11.4148 13.5838 11.7506 13.998 11.7506L16.998 11.7506C17.4123 11.7506 17.748 11.4148 17.748 11.0006C17.748 10.5864 17.4123 10.2506 16.998 10.2506L13.998 10.2506Z" fill="currentColor"/></svg>
