<svg xmlns="http://www.w3.org/2000/svg" fill="none" viewBox="0 0 48 48">
  <g>
    <path fill="currentColor" fill-opacity="0.4" d="M45.9511 38.3203c-0.1171 -1.3084 -1.2291 -2.036 -2.5417 -2.0886C40.875 36.1301 35.4028 36 24 36c-11.4028 0 -16.87496 0.1301 -19.40935 0.2317 -1.31262 0.0526 -2.42462 0.7802 -2.54178 2.0886C2.01856 38.6588 2 39.0499 2 39.5c0 0.4501 0.01856 0.8412 0.04887 1.1797 0.11715 1.3084 1.22916 2.036 2.54178 2.0886C7.12505 42.8699 12.5972 43 24 43s16.875 -0.1301 19.4094 -0.2317c1.3126 -0.0526 2.4246 -0.7802 2.5417 -2.0886 0.0303 -0.3385 0.0489 -0.7296 0.0489 -1.1797 0 -0.4501 -0.0186 -0.8412 -0.0489 -1.1797Z" stroke-width="3.429"></path>
    <path stroke="currentColor" stroke-linejoin="round" d="M45.9511 38.3203c-0.1171 -1.3084 -1.2291 -2.036 -2.5417 -2.0886C40.875 36.1301 35.4028 36 24 36c-11.4028 0 -16.87496 0.1301 -19.40935 0.2317 -1.31262 0.0526 -2.42462 0.7802 -2.54178 2.0886C2.01856 38.6588 2 39.0499 2 39.5c0 0.4501 0.01856 0.8412 0.04887 1.1797 0.11715 1.3084 1.22916 2.036 2.54178 2.0886C7.12505 42.8699 12.5972 43 24 43s16.875 -0.1301 19.4094 -0.2317c1.3126 -0.0526 2.4246 -0.7802 2.5417 -2.0886 0.0303 -0.3385 0.0489 -0.7296 0.0489 -1.1797 0 -0.4501 -0.0186 -0.8412 -0.0489 -1.1797Z" stroke-width="3.429"></path>
    <path fill="#8fbffa" fill-rule="evenodd" d="M42.4161 5.54664c2.3913 0.14973 3.5211 2.89088 1.9274 4.68006 -6.0701 6.8147 -13.5693 14.2081 -18.2052 17.47 -1.3119 0.9232 -3.003 1.0083 -4.342 0.1248 -4.645 -3.0646 -12.11223 -10.6927 -18.157 -17.5798 -1.58053 -1.8008 -0.4462 -4.54533 1.94513 -4.69506C9.77346 5.28434 16.1296 5 24.0003 5c7.8706 0 14.2267 0.28434 18.4158 0.54664Z" clip-rule="evenodd" stroke-width="3.429"></path>
    <path fill-rule="evenodd" stroke="currentColor" stroke-linejoin="round" d="M42.4161 5.54664c2.3913 0.14973 3.5211 2.89088 1.9274 4.68006 -6.0701 6.8147 -13.5693 14.2081 -18.2052 17.47 -1.3119 0.9232 -3.003 1.0083 -4.342 0.1248 -4.645 -3.0646 -12.11223 -10.6927 -18.157 -17.5798 -1.58053 -1.8008 -0.4462 -4.54533 1.94513 -4.69506C9.77346 5.28434 16.1296 5 24.0003 5c7.8706 0 14.2267 0.28434 18.4158 0.54664Z" clip-rule="evenodd" stroke-width="3.429"></path>
  </g>
</svg>
