<svg xmlns="http://www.w3.org/2000/svg" fill="none" viewBox="0 0 48 48">
  <g>
    <path fill="currentColor" d="M24 35.5c12.1332 0 17.8513 0.1348 20.4483 0.2374 1.431 0.0566 2.8326 0.8614 2.9929 2.4793 0.0366 0.3685 0.0588 0.7938 0.0588 1.2833 0 0.4895 -0.0222 0.9148 -0.0588 1.2833 -0.1603 1.6179 -1.5619 2.4227 -2.9929 2.4793 -2.597 0.1026 -8.3151 0.2374 -20.4483 0.2374 -12.1331 0 -17.85133 -0.1348 -20.44832 -0.2374 -1.43095 -0.0566 -2.832552 -0.8614 -2.99291 -2.4793C0.522244 40.4148 0.5 39.9895 0.5 39.5c0 -0.4895 0.022244 -0.9148 0.058769 -1.2833 0.160359 -1.6179 1.561951 -2.4227 2.992901 -2.4793C6.14866 35.6348 11.8668 35.5 24 35.5Z" stroke-width="3.429"></path>
    <path fill="currentColor" fill-opacity="0.4" d="M45.9124 10.5879c1.7997 -2.11281 0.4616 -5.284 -2.3076 -5.46901C39.2412 4.82734 32.4585 4.5 24.0004 4.5c-8.458 0 -15.24068 0.32734 -19.60435 0.61889 -2.77041 0.18509 -4.10839 3.35779 -2.32599 5.47951 6.36013 7.571 14.38734 16.1403 19.37514 19.5533 1.5605 1.0678 3.5491 0.9558 5.0498 -0.1397 4.9639 -3.6235 13.0207 -11.9145 19.4174 -19.4241Z" stroke-width="3.429"></path>
  </g>
</svg>
