<svg xmlns="http://www.w3.org/2000/svg" fill="none" viewBox="0 0 48 48">
  <g>
    <path fill="currentColor" fill-rule="evenodd" d="M5.3795 7.9386c4.2293 -0.2659 10.6583 -0.5549 18.6239 -0.5549 7.9655 0 14.3945 0.289 18.6237 0.5549 0.7232 0.0455 1.0613 0.8235 0.5611 1.3874 -6.164 6.9492 -13.6708 14.359 -18.1879 17.5508 -0.7014 0.4957 -1.5056 0.4945 -2.1116 0.093 -4.4702 -2.9618 -11.9093 -10.559 -18.0783 -17.6172 -0.5088 -0.582 -0.1488 -1.3688 0.5691 -1.414Zm18.6239 -4.6451c-8.0632 0 -14.5787 0.2925 -18.8806 0.563 -4.1521 0.2611 -6.1022 5.0871 -3.3921 8.1878l1.438 -1.2569 -1.438 1.2569c6.1413 7.0264 13.9095 15.0294 18.8988 18.3351 2.1209 1.4052 4.7607 1.2301 6.7312 -0.1622C32.2845 26.738 40.05 19.0278 46.2481 12.0401c2.7453 -3.095 0.7826 -7.9229 -3.3643 -8.1836 -4.3018 -0.2705 -10.8173 -0.563 -18.8804 -0.563Zm-19.871 33.47c2.6016 -0.1043 8.205 -0.2373 19.8674 -0.2373s17.2657 0.133 19.8674 0.2373c1.499 0.0601 2.9371 0.9188 3.0877 2.6009 0.0326 0.3625 0.0521 0.7777 0.0521 1.2519s-0.0195 0.8894 -0.0521 1.2518c-0.1506 1.6822 -1.5887 2.5409 -3.0877 2.6011 -2.6017 0.1043 -8.205 0.2373 -19.8674 0.2373s-17.2658 -0.133 -19.8674 -0.2373c-1.4991 -0.0602 -2.9372 -0.9189 -3.0878 -2.6011 -0.0325 -0.3624 -0.052 -0.7775 -0.052 -1.2518s0.0195 -0.8894 0.052 -1.2518c0.1506 -1.6822 1.5887 -2.5409 3.0878 -2.601Z" clip-rule="evenodd" stroke-width="1"></path>
  </g>
</svg>
