<svg xmlns="http://www.w3.org/2000/svg" fill="none" viewBox="0 0 48 48">
  <g>
    <path fill="currentColor" fill-rule="evenodd" d="M43.6048 5.11889c2.7692 0.18501 4.1073 3.3562 2.3076 5.46901 -6.3967 7.5096 -14.4535 15.8006 -19.4174 19.4241 -1.5007 1.0955 -3.4893 1.2075 -5.0498 0.1397 -4.9878 -3.413 -13.01501 -11.9823 -19.37514 -19.5533 -1.7824 -2.12172 -0.44442 -5.29442 2.32599 -5.47951C8.75972 4.82734 15.5424 4.5 24.0004 4.5c8.4581 0 15.2408 0.32734 19.6044 0.61889Zm0.8435 30.61851C41.8513 35.6348 36.1332 35.5 24 35.5s-17.85134 0.1348 -20.44833 0.2374c-1.43095 0.0566 -2.832542 0.8614 -2.992901 2.4793C0.522244 38.5852 0.5 39.0105 0.5 39.5c0 0.4895 0.022244 0.9148 0.05877 1.2833 0.160358 1.6179 1.56196 2.4227 2.99291 2.4793C6.14867 43.3652 11.8669 43.5 24 43.5c12.1332 0 17.8513 -0.1348 20.4483 -0.2374 1.431 -0.0566 2.8326 -0.8614 2.9929 -2.4793 0.0366 -0.3685 0.0588 -0.7938 0.0588 -1.2833 0 -0.4895 -0.0222 -0.9148 -0.0588 -1.2833 -0.1603 -1.6179 -1.5619 -2.4227 -2.9929 -2.4793Z" clip-rule="evenodd" stroke-width="1"></path>
  </g>
</svg>
