<svg xmlns="http://www.w3.org/2000/svg" fill="none" viewBox="0 0 48 48">
  <g>
    <path fill="currentColor" fill-opacity="0.4" d="M24 1.99987c-1.1417 0 -2.1261 0.07043 -2.9289 0.16363 -1.5145 0.17583 -2.5993 1.40505 -2.8181 2.91393 -0.1416 0.97661 -0.3055 2.15302 -0.4573 3.35616l12.4567 0c-0.0973 -1.05267 -0.1883 -2.08489 -0.2654 -2.98072 -0.1462 -1.69847 -1.3491 -3.12015 -3.0445 -3.29858 -0.8418 -0.08859 -1.8386 -0.15442 -2.9425 -0.15442Z" stroke-width="1"></path>
    <path fill="#8fbffa" d="M15.6697 12.747C12.2296 15.2978 10 19.3885 10 24c0 7.732 6.268 14 14 14s14 -6.268 14 -14c0 -4.6115 -2.2296 -8.7022 -5.6697 -11.253 -0.1426 -0.8131 -0.2837 -1.5832 -0.4061 -2.237 -0.2236 -1.19498 -1.1595 -2.11656 -2.3687 -2.24257C28.2695 8.13342 26.3893 8 24 8c-2.3893 0 -4.2695 0.13342 -5.5555 0.26743 -1.2092 0.12601 -2.1451 1.04759 -2.3687 2.24257 -0.1224 0.6538 -0.2635 1.4239 -0.4061 2.237Z" stroke-width="1"></path>
    <path stroke="currentColor" stroke-linecap="round" stroke-linejoin="round" d="m43 24 3 0" stroke-width="1"></path>
    <path stroke="currentColor" stroke-linecap="round" stroke-linejoin="round" d="m2 24 3 0" stroke-width="1"></path>
    <path stroke="currentColor" stroke-linecap="round" stroke-linejoin="round" d="m10.5652 37.4353 -2.12135 2.1213" stroke-width="1"></path>
    <path stroke="currentColor" stroke-linecap="round" stroke-linejoin="round" d="m37.4353 37.4353 2.1213 2.1213" stroke-width="1"></path>
    <path stroke="currentColor" stroke-linejoin="round" d="M17.7957 8.43359c0.1518 -1.20314 0.3157 -2.37955 0.4573 -3.35616 0.2188 -1.50888 1.3036 -2.7381 2.8181 -2.91393 0.8028 -0.0932 1.7872 -0.16363 2.9289 -0.16363 1.1039 0 2.1007 0.06583 2.9425 0.15442 1.6954 0.17843 2.8983 1.60011 3.0445 3.29858 0.0771 0.89583 0.1681 1.92805 0.2654 2.98072" stroke-width="1"></path>
    <path stroke="currentColor" stroke-linejoin="round" d="M15.6697 12.747C12.2296 15.2978 10 19.3885 10 24c0 7.732 6.268 14 14 14s14 -6.268 14 -14c0 -4.6115 -2.2296 -8.7022 -5.6697 -11.253 -0.1426 -0.8131 -0.2837 -1.5832 -0.4061 -2.237 -0.2236 -1.19498 -1.1595 -2.11656 -2.3687 -2.24257C28.2695 8.13342 26.3893 8 24 8c-2.3893 0 -4.2695 0.13342 -5.5555 0.26743 -1.2092 0.12601 -2.1451 1.04759 -2.3687 2.24257 -0.1224 0.6538 -0.2635 1.4239 -0.4061 2.237Z" stroke-width="1"></path>
    <path stroke="currentColor" stroke-linecap="round" stroke-linejoin="round" d="M32 24c0 4.4183 -3.5817 8 -8 8" stroke-width="1"></path>
    <path stroke="currentColor" stroke-linecap="round" stroke-linejoin="round" d="m24 46 0 -3" stroke-width="1"></path>
  </g>
</svg>
