<svg xmlns="http://www.w3.org/2000/svg" fill="none" viewBox="0 0 48 48">
  <g>
    <path fill="currentColor" d="M23.9993 0.939327c-1.1417 0.000001 -2.1261 0.070423 -2.929 0.163633 -1.5145 0.17582 -2.5992 1.40504 -2.818 2.91392 -0.1417 0.97661 -0.3055 2.15303 -0.4574 3.35617l12.4568 0c-0.0973 -1.05268 -0.1883 -2.08489 -0.2654 -2.98072 -0.1463 -1.69847 -1.3492 -3.12016 -3.0445 -3.29859 -0.8418 -0.08859 -1.8387 -0.154413 -2.9425 -0.154413Z" stroke-width="3.429"></path>
    <path fill="currentColor" fill-opacity="0.4" d="M15.1143 11.0635c-3.6694 2.7208 -6.04765 7.0842 -6.04765 12.0032C9.06665 31.3141 15.7525 38 24 38c8.2474 0 14.9333 -6.6859 14.9333 -14.9333 0 -4.919 -2.3782 -9.2824 -6.0476 -12.0032 -0.1522 -0.8673 -0.3027 -1.68876 -0.4332 -2.38613 -0.2385 -1.27468 -1.2368 -2.2577 -2.5267 -2.39211C28.5542 6.14231 26.5486 6 24 6c-2.5486 0 -4.5542 0.14231 -5.9259 0.28526 -1.2898 0.13441 -2.2881 1.11743 -2.5266 2.39211 -0.1306 0.69737 -0.281 1.51883 -0.4332 2.38613Z" stroke-width="3.429"></path>
    <path fill="currentColor" fill-rule="evenodd" d="M5 26c1.10457 0 2 -0.8954 2 -2s-0.89543 -2 -2 -2H2c-1.10457 0 -2 0.8954 -2 2s0.895431 2 2 2l3 0Zm41 0c1.1046 0 2 -0.8954 2 -2s-0.8954 -2 -2 -2h-3c-1.1046 0 -2 0.8954 -2 2s0.8954 2 2 2l3 0ZM7.02963 40.9709c0.78105 0.781 2.04738 0.781 2.82843 0l2.12134 -2.1214c0.781 -0.781 0.781 -2.0473 0 -2.8284 -0.7811 -0.781 -2.0474 -0.781 -2.82845 0l-2.12132 2.1213c-0.78104 0.7811 -0.78104 2.0474 0 2.8285Zm31.11277 0c0.7811 0.781 2.0474 0.781 2.8285 0 0.781 -0.7811 0.781 -2.0474 0 -2.8285l-2.1214 -2.1213c-0.781 -0.781 -2.0473 -0.781 -2.8284 0 -0.781 0.7811 -0.781 2.0474 0 2.8284l2.1213 2.1214ZM24 30.5c3.5899 0 6.5 -2.9101 6.5 -6.5 0 -0.8284 0.6716 -1.5 1.5 -1.5s1.5 0.6716 1.5 1.5c0 5.2467 -4.2533 9.5 -9.5 9.5 -0.8284 0 -1.5 -0.6716 -1.5 -1.5s0.6716 -1.5 1.5 -1.5ZM26 43c0 -1.1046 -0.8954 -2 -2 -2s-2 0.8954 -2 2v3c0 1.1046 0.8954 2 2 2s2 -0.8954 2 -2v-3Z" clip-rule="evenodd" stroke-width="3.429"></path>
  </g>
</svg>
