<svg xmlns="http://www.w3.org/2000/svg" fill="none" viewBox="0 0 48 48">
  <g>
    <path fill="currentColor" fill-rule="evenodd" d="M17.0329 6.56816c-1.5313 0.59487 -2.6222 1.9668 -2.923 3.57414 -0.0848 0.4528 -0.1785 0.9614 -0.2756 1.5019C10.2748 14.5759 8 19.0226 8 24.0001c0 8.8366 7.1634 16 16 16s16 -7.1634 16 -16c0 -4.9775 -2.2748 -9.4242 -5.8343 -12.3559 -0.0971 -0.5405 -0.1908 -1.0491 -0.2756 -1.5019 -0.2925 -1.56312 -1.3323 -2.90359 -2.7976 -3.52328 -0.0386 -0.43702 -0.0753 -0.85759 -0.1092 -1.25179 -0.1807 -2.09958 -1.6919 -3.97113 -3.9361 -4.20732C26.1753 1.06815 25.1432 1 24 1c-1.1828 0 -2.2058 0.07296 -3.0442 0.1703 -2.0365 0.23641 -3.4195 1.88157 -3.6924 3.76373 -0.0725 0.49988 -0.1509 1.05226 -0.2305 1.63413M7 24.0001c0 1.1046 -0.89543 2 -2 2H2c-1.104569 0 -2 -0.8954 -2 -2 0 -1.1045 0.89543 -2 2 -2h3c1.10457 0 2 0.8955 2 2m41 0c0 1.1046 -0.8954 2 -2 2h-3c-1.1046 0 -2 -0.8954 -2 -2 0 -1.1045 0.8954 -2 2 -2h3c1.1046 0 2 0.8955 2 2M9.85806 40.971c-0.78105 0.781 -2.04738 0.781 -2.82843 0 -0.78104 -0.7811 -0.78104 -2.0474 0 -2.8284l2.12132 -2.1214c0.78105 -0.781 2.04735 -0.781 2.82845 0 0.781 0.7811 0.781 2.0474 0 2.8285zm31.11284 0c-0.7811 0.781 -2.0474 0.781 -2.8285 0l-2.1213 -2.1213c-0.781 -0.7811 -0.781 -2.0474 0 -2.8285 0.7811 -0.781 2.0474 -0.781 2.8284 0l2.1214 2.1214c0.781 0.781 0.781 2.0473 0 2.8284M18.6518 10.2568c1.2223 -0.1274 3.0332 -0.2567 5.3482 -0.2567s4.1259 0.1293 5.3482 0.2567c0.2672 0.0278 0.5377 0.2338 0.6102 0.6213 0.1213 0.6481 0.2609 1.4106 0.402 2.2147 0.0886 0.5045 0.3673 0.9558 0.7787 1.2608C34.0923 16.5434 36 20.0488 36 24.0001c0 6.6274 -5.3726 12 -12 12s-12 -5.3726 -12 -12c0 -3.9513 1.9077 -7.4567 4.8609 -9.6465 0.4114 -0.305 0.6901 -0.7563 0.7787 -1.2608 0.141 -0.8041 0.2807 -1.5666 0.402 -2.2147 0.0725 -0.3875 0.343 -0.5935 0.6102 -0.6213M24 30.0001c3.3137 0 6 -2.6863 6 -6 0 -1.1045 0.8954 -2 2 -2s2 0.8955 2 2c0 5.5229 -4.4772 10 -10 10 -1.1046 0 -2 -0.8954 -2 -2 0 -1.1045 0.8954 -2 2 -2m2 13c0 -1.1045 -0.8954 -2 -2 -2s-2 0.8955 -2 2v3c0 1.1046 0.8954 2 2 2s2 -0.8954 2 -2z" clip-rule="evenodd" stroke-width="3.429"></path>
  </g>
</svg>
