<svg xmlns="http://www.w3.org/2000/svg" fill="none" viewBox="0 0 48 48">
  <g>
    <path fill="currentColor" fill-rule="evenodd" d="M23.9993 0.939453c-1.1417 0 -2.1261 0.070427 -2.9289 0.163627 -1.5145 0.17582 -2.5993 1.40504 -2.8181 2.91393 -0.0574 0.39556 -0.1184 0.82389 -0.1808 1.27351 0.0207 -0.00238 0.0414 -0.00465 0.0621 -0.00681 1.3814 -0.14395 3.3656 -0.28358 5.8664 -0.28358 2.5008 0 4.4851 0.13963 5.8665 0.28358 0.0669 0.00698 0.1334 0.01507 0.1994 0.02427 -0.0279 -0.31699 -0.0545 -0.62351 -0.0796 -0.91553 -0.1462 -1.69847 -1.3491 -3.12015 -3.0445 -3.29858 -0.8418 -0.08859 -1.8386 -0.154417 -2.9425 -0.154417ZM7 24c0 1.1046 -0.89543 2 -2 2H2c-1.104569 0 -2 -0.8954 -2 -2s0.89543 -2 2 -2h3c1.10457 0 2 0.8954 2 2Zm41 0c0 1.1046 -0.8954 2 -2 2h-3c-1.1046 0 -2 -0.8954 -2 -2s0.8954 -2 2 -2h3c1.1046 0 2 0.8954 2 2ZM9.85806 40.9709c-0.78105 0.781 -2.04738 0.781 -2.82843 0 -0.78104 -0.7811 -0.78104 -2.0474 0 -2.8285l2.12132 -2.1213c0.78105 -0.781 2.04735 -0.781 2.82845 0 0.781 0.7811 0.781 2.0474 0 2.8284l-2.12134 2.1214Zm31.11284 0c-0.7811 0.781 -2.0474 0.781 -2.8285 0l-2.1213 -2.1214c-0.781 -0.781 -0.781 -2.0473 0 -2.8284 0.7811 -0.781 2.0474 -0.781 2.8284 0l2.1214 2.1213c0.781 0.7811 0.781 2.0474 0 2.8285ZM10 24c0 -4.6115 2.2296 -8.7022 5.6697 -11.253 0.1426 -0.8131 0.2837 -1.5832 0.4061 -2.237 0.2236 -1.19498 1.1595 -2.11656 2.3687 -2.24257C19.7304 8.13342 21.6107 8 24 8c2.3893 0 4.2695 0.13342 5.5555 0.26743 1.2092 0.12601 2.1451 1.04759 2.3687 2.24257 0.1224 0.6538 0.2635 1.4239 0.4061 2.237C35.7704 15.2978 38 19.3885 38 24c0 7.732 -6.268 14 -14 14s-14 -6.268 -14 -14Zm20.5 0c0 3.5899 -2.9101 6.5 -6.5 6.5 -0.8284 0 -1.5 0.6716 -1.5 1.5s0.6716 1.5 1.5 1.5c5.2467 0 9.5 -4.2533 9.5 -9.5 0 -0.8284 -0.6716 -1.5 -1.5 -1.5s-1.5 0.6716 -1.5 1.5ZM26 43c0 -1.1046 -0.8954 -2 -2 -2s-2 0.8954 -2 2v3c0 1.1046 0.8954 2 2 2s2 -0.8954 2 -2v-3Z" clip-rule="evenodd" stroke-width="3.429"></path>
  </g>
</svg>
