<svg xmlns="http://www.w3.org/2000/svg" viewBox="0 0 24 24" fill="none"><path d="M11 15V12C11 11.4477 11.4477 11 12 11C12.5523 11 13 11.4477 13 12V15C13 15.5523 12.5523 16 12 16C11.4477 16 11 15.5523 11 15ZM11 7V5C11 4.44772 11.4477 4 12 4C12.5523 4 13 4.44772 13 5V7C13 7.55228 12.5523 8 12 8C11.4477 8 11 7.55228 11 7Z" fill="currentColor"/><path d="M12 18C12.5523 18 13 18.4477 13 19C13 19.5523 12.5523 20 12 20C11.4477 20 11 19.5523 11 19C11 18.4477 11.4477 18 12 18Z" fill="currentColor"/><path d="M3.29295 3.29295C3.68348 2.90243 4.31649 2.90243 4.70702 3.29295L20.707 19.293C21.0975 19.6835 21.0975 20.3165 20.707 20.707C20.3165 21.0975 19.6835 21.0975 19.293 20.707L3.29295 4.70702C2.90243 4.31649 2.90243 3.68348 3.29295 3.29295Z" fill="currentColor"/></svg>
