<svg xmlns="http://www.w3.org/2000/svg" viewBox="0 0 24 24" fill="none"><path opacity="0.4" d="M21.75 14.5579V14.5V11.9893C21.75 10.3817 21.7674 9.33029 21.3174 8.41016C20.8672 7.49022 20.0266 6.85897 18.7578 5.87207L16.7578 4.31641L16.7266 4.29212C15.7233 3.51183 14.9179 2.88537 14.2119 2.45996C13.4812 2.01973 12.7872 1.75 12 1.75C11.2127 1.75 10.5187 2.01973 9.78805 2.45996C9.08203 2.88537 8.27661 3.51182 7.2734 4.2921L7.24216 4.31641L5.24216 5.87207C3.97329 6.85897 3.1327 7.49022 2.68259 8.41016C2.23256 9.33029 2.24997 10.3817 2.24997 11.9893V14.5L2.24997 14.5579C2.24995 16.1595 2.24993 17.4378 2.38473 18.4404C2.52406 19.4767 2.81995 20.3298 3.49509 21.0049C4.17022 21.68 5.02329 21.9759 6.05954 22.1152C7.06218 22.25 8.34049 22.25 9.94208 22.25H9.99997H14H14.0579C15.6595 22.25 16.9378 22.25 17.9404 22.1152C18.9766 21.9759 19.8297 21.68 20.5049 21.0049C21.18 20.3298 21.4759 19.4767 21.6152 18.4404C21.75 17.4378 21.75 16.1595 21.75 14.5579Z" fill="currentColor"/><path d="M12.0098 16.5C12.5621 16.5 13.0098 16.9477 13.0098 17.5C13.0098 18.0523 12.5621 18.5 12.0098 18.5H12C11.4477 18.5 11 18.0523 11 17.5C11 16.9477 11.4477 16.5 12 16.5H12.0098ZM12.0039 12.4922C13.1399 12.4945 14.2416 12.8839 15.127 13.5957C15.557 13.9418 15.6251 14.5707 15.2793 15.001C14.9333 15.4314 14.3035 15.5003 13.8731 15.1543C13.3419 14.7273 12.6815 14.4936 12 14.4922C11.3184 14.4908 10.656 14.7215 10.1231 15.1465C9.69126 15.4906 9.06206 15.42 8.7178 14.9883C8.37356 14.5565 8.44519 13.9273 8.87698 13.583C9.76518 12.8748 10.868 12.4899 12.0039 12.4922ZM12 8.5C14.0449 8.5 16.0288 9.19658 17.625 10.4746C18.056 10.8198 18.1254 11.4488 17.7803 11.8799C17.4351 12.3109 16.8061 12.3803 16.375 12.0352C15.1335 11.0412 13.5904 10.5 12 10.5C10.4097 10.5 8.86652 11.0412 7.62502 12.0352C7.19393 12.3803 6.56494 12.3109 6.21975 11.8799C5.8746 11.4488 5.944 10.8198 6.37502 10.4746C7.97128 9.19658 9.95517 8.5 12 8.5Z" fill="currentColor"/></svg>
