<svg xmlns="http://www.w3.org/2000/svg" viewBox="0 0 24 24" fill="none"><path d="M11.9996 1.75C12.7868 1.75 13.4809 2.01975 14.2115 2.45996C14.9175 2.88535 15.723 3.51175 16.7262 4.29199L16.7574 4.31641L18.7574 5.87207C20.0263 6.85896 20.8669 7.49024 21.317 8.41016C21.767 9.33029 21.7496 10.3817 21.7496 11.9893V14.5576C21.7496 16.1592 21.7496 17.4378 21.6148 18.4404C21.4755 19.4767 21.1796 20.3298 20.5045 21.0049C19.8294 21.68 18.9763 21.9759 17.94 22.1152C16.9374 22.25 15.6588 22.25 14.0572 22.25H9.94198C8.34039 22.25 7.06181 22.25 6.05917 22.1152C5.02296 21.9759 4.16983 21.68 3.49472 21.0049C2.81962 20.3298 2.52369 19.4767 2.38437 18.4404C2.24957 17.4378 2.24958 16.1592 2.2496 14.5576V11.9893C2.2496 10.3817 2.23221 9.33028 2.68222 8.41016C3.13232 7.49024 3.97295 6.85894 5.24179 5.87207L7.24179 4.31641L7.27304 4.29199C8.27621 3.51173 9.08168 2.88537 9.78769 2.45996C10.5183 2.01974 11.2124 1.75002 11.9996 1.75ZM11.9996 16.5C11.4474 16.5001 10.9996 16.9478 10.9996 17.5C10.9996 18.0522 11.4474 18.4999 11.9996 18.5H12.0094C12.5617 18.5 13.0094 18.0523 13.0094 17.5C13.0094 16.9477 12.5617 16.5 12.0094 16.5H11.9996ZM12.0035 12.4922C10.8676 12.4899 9.76472 12.8749 8.87655 13.583C8.44487 13.9273 8.37322 14.5565 8.71738 14.9883C9.06161 15.42 9.69084 15.4905 10.1226 15.1465C10.6555 14.7216 11.318 14.4909 11.9996 14.4922C12.681 14.4936 13.3415 14.7274 13.8726 15.1543C14.3031 15.5003 14.9328 15.4313 15.2789 15.001C15.6247 14.5707 15.5566 13.9418 15.1266 13.5957C14.2412 12.884 13.1394 12.4945 12.0035 12.4922ZM11.9996 8.5C9.9548 8.50003 7.97082 9.19661 6.3746 10.4746C5.94368 10.8198 5.87427 11.4488 6.21933 11.8799C6.5645 12.3109 7.19351 12.3802 7.6246 12.0352C8.86606 11.0413 10.4093 10.5 11.9996 10.5C13.5899 10.5 15.1331 11.0413 16.3746 12.0352C16.8057 12.3803 17.4347 12.3109 17.7799 11.8799C18.125 11.4488 18.0556 10.8198 17.6246 10.4746C16.0284 9.19662 14.0444 8.5 11.9996 8.5Z" fill="currentColor" fill-rule="evenodd" clip-rule="evenodd"/></svg>
