<svg xmlns="http://www.w3.org/2000/svg" viewBox="0 0 24 24" fill="none"><path d="M18.8 10.8V8.9C18.8 7.52989 18.7982 6.59774 18.7019 5.89971C18.6094 5.22896 18.4457 4.91808 18.2287 4.70664C18.0117 4.4952 17.6926 4.33574 17.0042 4.24556C16.2878 4.15175 15.3312 4.15 13.925 4.15H8.075C6.66884 4.15 5.71216 4.15175 4.99575 4.24556C4.30735 4.33574 3.9883 4.4952 3.77129 4.70664C3.55428 4.91808 3.39063 5.22896 3.29807 5.89971C3.2018 6.59774 3.2 7.52989 3.2 8.9V10.8C3.2 11.3247 2.76348 11.75 2.225 11.75C1.68652 11.75 1.25 11.3247 1.25 10.8V8.9C1.25 7.58345 1.24834 6.50052 1.36616 5.64644C1.48779 4.765 1.75287 3.98659 2.39258 3.36328C3.03229 2.73998 3.83118 2.48169 4.73582 2.36318C5.61237 2.24838 6.72381 2.25 8.075 2.25H13.925C15.2762 2.25 16.3876 2.24838 17.2642 2.36318C18.1688 2.48169 18.9677 2.73998 19.6074 3.36328C20.2471 3.98659 20.5122 4.765 20.6338 5.64644C20.7517 6.50052 20.75 7.58345 20.75 8.9V10.8C20.75 11.3247 20.3135 11.75 19.775 11.75C19.2365 11.75 18.8 11.3247 18.8 10.8Z" fill="currentColor"/><path d="M6 12.25C7.9087 12.25 9.55357 13.3762 10.3086 15H20.3359C20.7446 15 20.9491 15.0001 21.1328 15.0762C21.3165 15.1523 21.4611 15.297 21.75 15.5859C22.4166 16.2525 22.75 16.5858 22.75 17C22.75 17.4142 22.4166 17.7475 21.75 18.4141L21.1123 19.0518C20.7963 19.3678 20.6381 19.5264 20.4561 19.6025C20.2546 19.6866 20.0306 19.7022 19.8193 19.6475C19.6282 19.5979 19.4495 19.4636 19.0918 19.1953C18.7789 18.9606 18.622 18.8431 18.4521 18.792C18.2643 18.7355 18.0638 18.7355 17.876 18.792C17.7061 18.8431 17.5493 18.9606 17.2363 19.1953L17.1348 19.2715C16.7456 19.5634 16.5512 19.7097 16.332 19.7549C16.2173 19.7785 16.0992 19.7818 15.9834 19.7646C15.762 19.7317 15.5591 19.597 15.1543 19.3271L15.1133 19.2998C14.9175 19.1693 14.8194 19.104 14.7109 19.0635C14.6714 19.0487 14.6309 19.036 14.5898 19.0264C14.4772 18.9999 14.3594 19 14.124 19H10.3086C9.55357 20.6238 7.9087 21.75 6 21.75C3.37665 21.75 1.25 19.6234 1.25 17C1.25 14.3766 3.37665 12.25 6 12.25ZM6 15.5C5.17157 15.5 4.5 16.1716 4.5 17C4.5 17.8284 5.17157 18.5 6 18.5C6.82842 18.5 7.5 17.8284 7.5 17C7.5 16.1716 6.82843 15.5 6 15.5Z" fill="currentColor" fill-rule="evenodd" clip-rule="evenodd"/></svg>
