<svg xmlns="http://www.w3.org/2000/svg" viewBox="0 0 24 24" fill="none"><path opacity="0.4" d="M12 22.75C17.9371 22.75 22.75 17.9371 22.75 12C22.75 6.06294 17.9371 1.25 12 1.25C6.06294 1.25 1.25 6.06294 1.25 12C1.25 17.9371 6.06294 22.75 12 22.75Z" fill="currentColor"/><path d="M8.375 9.25C8.91521 9.25 9.20261 9.66818 9.31055 9.88379C9.4407 10.1441 9.5 10.4517 9.5 10.75C9.5 11.0483 9.4407 11.3559 9.31055 11.6162C9.20261 11.8318 8.91522 12.25 8.375 12.25C7.83479 12.25 7.54739 11.8318 7.43945 11.6162C7.3093 11.3559 7.25 11.0483 7.25 10.75C7.25 10.4517 7.3093 10.1441 7.43945 9.88379C7.54739 9.66817 7.83479 9.25 8.375 9.25ZM15.625 9.25C16.1652 9.25 16.4526 9.66818 16.5605 9.88379C16.6907 10.1441 16.75 10.4517 16.75 10.75C16.75 11.0483 16.6907 11.3559 16.5605 11.6162C16.4526 11.8318 16.1652 12.25 15.625 12.25C15.0848 12.25 14.7974 11.8318 14.6895 11.6162C14.5593 11.3559 14.5 11.0483 14.5 10.75C14.5 10.4517 14.5593 10.1441 14.6895 9.88379C14.7974 9.66817 15.0848 9.25 15.625 9.25Z" fill="currentColor"/><path d="M7.39959 15.2004C7.84119 14.8688 8.46833 14.958 8.79998 15.3996C9.53137 16.3734 10.6924 17.0002 12.0002 17.0002C13.308 17.0002 14.469 16.3734 15.2004 15.3996C15.532 14.958 16.1592 14.8688 16.6008 15.2004C17.0423 15.532 17.1316 16.1592 16.8 16.6008C15.7071 18.0558 13.9637 19.0002 12.0002 19.0002C10.0367 19.0002 8.29322 18.0558 7.20037 16.6008C6.86876 16.1592 6.95801 15.532 7.39959 15.2004Z" fill="currentColor"/><path d="M13.0003 7.5C14.0212 7.5 14.8262 7.12946 15.3518 6.47754C15.8473 5.86278 16.0003 5.11478 16.0003 4.5C16.0003 3.39847 15.6697 2.47025 15.1263 1.71387C14.137 1.41365 13.0876 1.25 12.0003 1.25C11.5864 1.25001 11.1784 1.27672 10.7766 1.32227C11.4605 1.47325 12.0814 1.71248 12.5882 2.03516C13.4727 2.59854 14.0003 3.39487 14.0003 4.5C14.0002 4.81834 13.9176 5.07082 13.7952 5.22266C13.7028 5.33719 13.507 5.5 13.0003 5.5C12.8515 5.49991 12.7296 5.44777 12.6243 5.36426C12.5059 5.27021 12.4423 5.16186 12.429 5.12891C12.2239 4.61627 11.6419 4.36638 11.1292 4.57129C10.6167 4.77646 10.3667 5.35847 10.5716 5.87109C10.8335 6.5259 11.6576 7.49982 13.0003 7.5Z" fill="currentColor"/></svg>
