<svg xmlns="http://www.w3.org/2000/svg" viewBox="0 0 24 24" fill="none"><path d="M12 22.7198C17.9371 22.7198 22.75 17.9068 22.75 11.9698C22.75 7.1202 19.5381 3.02276 15.126 1.68365C15.6693 2.44001 16 3.36834 16 4.46979C16 5.08456 15.8471 5.83257 15.3516 6.44733C14.8259 7.09936 14.021 7.46979 13 7.46979C11.6571 7.46979 10.8332 6.49575 10.5713 5.84088C10.3663 5.32812 10.6162 4.74615 11.1289 4.54108C11.6416 4.33615 12.2237 4.58597 12.4287 5.09869C12.4421 5.13167 12.5055 5.23995 12.624 5.33405C12.7294 5.41763 12.8511 5.46979 13 5.46979C13.507 5.46979 13.7026 5.30699 13.7949 5.19244C13.9173 5.04061 14 4.78813 14 4.46979C14 3.36466 13.4725 2.56832 12.5879 2.00494C12.0812 1.68224 11.4602 1.44307 10.7764 1.29205C5.41567 1.89964 1.25 6.44661 1.25 11.9698C1.25 17.9068 6.06294 22.7198 12 22.7198ZM8.375 12.2198C7.83479 12.2198 7.54739 11.8016 7.43945 11.586C7.3093 11.3257 7.25 11.0181 7.25 10.7198C7.25 10.4215 7.3093 10.1139 7.43945 9.85358C7.54739 9.63796 7.83479 9.21979 8.375 9.21979C8.91521 9.21979 9.20261 9.63797 9.31055 9.85358C9.4407 10.1139 9.5 10.4215 9.5 10.7198C9.5 11.0181 9.4407 11.3257 9.31055 11.586C9.20261 11.8016 8.91522 12.2198 8.375 12.2198ZM15.625 12.2198C15.0848 12.2198 14.7974 11.8016 14.6895 11.586C14.5593 11.3257 14.5 11.0181 14.5 10.7198C14.5 10.4215 14.5593 10.1139 14.6895 9.85358C14.7974 9.63796 15.0848 9.21979 15.625 9.21979C16.1652 9.21979 16.4526 9.63797 16.5605 9.85358C16.6907 10.1139 16.75 10.4215 16.75 10.7198C16.75 11.0181 16.6907 11.3257 16.5605 11.586C16.4526 11.8016 16.1652 12.2198 15.625 12.2198ZM12 18.9698C10.0366 18.9697 8.29302 18.0254 7.2002 16.5704C6.86877 16.1288 6.95792 15.5016 7.39941 15.17C7.84095 14.8384 8.46811 14.9278 8.7998 15.3692C9.53117 16.3429 10.6923 16.9697 12 16.9698C13.3078 16.9698 14.4688 16.343 15.2002 15.3692C15.5318 14.9277 16.159 14.8386 16.6006 15.17C17.0422 15.5016 17.1314 16.1288 16.7998 16.5704C15.707 18.0255 13.9635 18.9698 12 18.9698Z" fill="currentColor"/></svg>
