<svg xmlns="http://www.w3.org/2000/svg" viewBox="0 0 24 24" fill="none"><path d="M12.002 6.75C14.4654 6.75 16.502 8.69263 16.502 11.1367C16.5019 12.5393 15.9083 13.6302 14.8321 14.5459C14.2035 15.0807 13.0775 16.2529 12.6221 16.9219C12.4801 17.1305 12.2426 17.2539 11.9903 17.25C11.738 17.246 11.5046 17.1152 11.3692 16.9023C10.9493 16.2411 9.81448 15.0925 9.17194 14.5459C8.09568 13.6302 7.50213 12.5393 7.50201 11.1367C7.50201 8.69263 9.53866 6.75 12.002 6.75ZM12.0118 9.5C11.1833 9.5 10.5118 10.1716 10.5118 11C10.5118 11.8284 11.1834 12.5 12.0118 12.5C12.8402 12.5 13.5118 11.8284 13.5118 11C13.5118 10.1716 12.8402 9.5 12.0118 9.5Z" fill="currentColor"/><path d="M20.7975 12.0001C20.7975 7.14298 16.8603 3.20461 12.002 3.20461C11.3984 3.20461 10.81 3.26498 10.2422 3.38021C9.71332 3.48756 9.1968 3.14643 9.08928 2.61767C8.98193 2.08879 9.32395 1.57226 9.85278 1.46479C10.5479 1.32368 11.267 1.25006 12.002 1.25006C17.94 1.25006 22.752 6.06371 22.752 12.0001C22.752 17.9364 17.94 22.7501 12.002 22.7501C11.267 22.7501 10.5479 22.6764 9.85278 22.5353C9.32395 22.4279 8.98193 21.9113 9.08928 21.3825C9.1968 20.8537 9.71332 20.5126 10.2422 20.6199C10.81 20.7351 11.3984 20.7955 12.002 20.7955C16.8603 20.7955 20.7975 16.8571 20.7975 12.0001ZM3.30104 16.5591C3.75146 16.2622 4.35714 16.3865 4.65434 16.8368C5.31222 17.8339 6.16814 18.6898 7.16528 19.3477C7.61553 19.6449 7.73989 20.2506 7.443 20.701C7.14576 21.1515 6.53926 21.276 6.08875 20.9788C4.87106 20.1753 3.82675 19.131 3.02332 17.9133C2.72608 17.4628 2.85053 16.8563 3.30104 16.5591ZM1.25201 12.0001C1.25201 11.265 1.32564 10.546 1.46675 9.85082C1.57421 9.322 2.09075 8.97997 2.61962 9.08733C3.14838 9.19485 3.48951 9.71137 3.38216 10.2402C3.26693 10.808 3.20656 11.3965 3.20656 12.0001C3.20656 12.6036 3.26693 13.1921 3.38216 13.7599C3.48951 14.2888 3.14838 14.8053 2.61962 14.9128C2.09075 15.0201 1.57421 14.6781 1.46675 14.1493C1.32564 13.4541 1.25201 12.7351 1.25201 12.0001ZM6.08875 3.02137C6.53926 2.72413 7.14576 2.84858 7.443 3.29909C7.73989 3.74951 7.61553 4.35519 7.16528 4.65238C6.16814 5.31027 5.31222 6.16619 4.65434 7.16332C4.35714 7.61358 3.75146 7.73793 3.30104 7.44105C2.85053 7.14381 2.72608 6.53731 3.02332 6.0868C3.82675 4.86911 4.87106 3.8248 6.08875 3.02137Z" fill="currentColor"/></svg>
