<svg xmlns="http://www.w3.org/2000/svg" viewBox="0 0 24 24" fill="none"><path opacity="0.4" d="M16.7409 13.2345C17.0058 13.0901 17.5071 12.873 18.0602 13.0929L18.1716 13.1427L18.278 13.2023C18.7839 13.5132 18.9111 14.0428 18.9548 14.3409C19.0025 14.6669 18.9997 15.0849 18.9997 15.4884V19.0001H19.9997C20.552 19.0001 20.9997 19.4478 20.9997 20.0001C20.9997 20.5524 20.552 21.0001 19.9997 21.0001H15.9997C15.4475 21 14.9997 20.5523 14.9997 20.0001C14.9997 19.4479 15.4475 19.0002 15.9997 19.0001H16.9997V15.4884L16.9987 15.4845L16.6003 15.7862C16.1591 16.1175 15.5327 16.0288 15.2009 15.588C14.869 15.1467 14.9578 14.5196 15.3991 14.1876L15.7985 13.8868C16.1202 13.6449 16.4519 13.3921 16.7409 13.2345Z" fill="currentColor"/><path opacity="0.4" d="M18.9998 6.00006C18.9998 5.44778 18.5521 5.00006 17.9998 5.00006C17.4475 5.00006 16.9998 5.44778 16.9998 6.00006V8.00006C16.9998 8.55235 17.4475 9.00006 17.9998 9.00006C18.5521 9.00006 18.9998 8.55235 18.9998 8.00006V6.00006ZM20.9998 8.00006C20.9998 9.65692 19.6567 11.0001 17.9998 11.0001C16.343 11.0001 14.9998 9.65692 14.9998 8.00006V6.00006C14.9998 4.34321 16.343 3.00006 17.9998 3.00006C19.6567 3.00006 20.9998 4.34321 20.9998 6.00006V8.00006Z" fill="currentColor"/><path d="M7.99976 3.00006C8.41002 3.00006 8.76497 3.17924 8.99098 3.31549C9.24432 3.46825 9.49591 3.66814 9.73121 3.87604C10.2043 4.29404 10.7052 4.83229 11.1502 5.34479C11.5994 5.86218 12.0121 6.3765 12.3113 6.75983C12.4613 6.952 12.5834 7.11269 12.6687 7.22565C12.7114 7.28214 12.7453 7.32658 12.7683 7.35748C12.7798 7.37294 12.7885 7.38529 12.7947 7.39362C12.7977 7.39774 12.8008 7.40111 12.8025 7.40338C12.8032 7.40428 12.804 7.40477 12.8045 7.40533V7.40729H12.8054C13.1326 7.85196 13.0371 8.47831 12.5925 8.80573C12.1479 9.13291 11.5215 9.03741 11.1941 8.59283L11.1931 8.59088C11.192 8.58931 11.1896 8.58724 11.1873 8.58405C11.1822 8.57726 11.175 8.56652 11.1648 8.5528C11.1442 8.5251 11.1129 8.4836 11.073 8.43073C10.9931 8.32499 10.8776 8.17287 10.7351 7.9903C10.449 7.62368 10.0593 7.13786 9.64039 6.65533C9.21713 6.16783 8.78273 5.70608 8.40699 5.37408C8.24166 5.22802 8.10448 5.12477 7.99976 5.0567C7.89505 5.12477 7.75786 5.22803 7.59254 5.37408C7.2168 5.70608 6.78241 6.16784 6.35914 6.65533C5.94019 7.13785 5.55052 7.62368 5.26441 7.9903C5.12193 8.17287 5.00639 8.32499 4.92652 8.43073C4.88659 8.4836 4.85536 8.5251 4.83473 8.5528C4.8245 8.56652 4.81729 8.57726 4.81226 8.58405C4.80989 8.58725 4.80756 8.58931 4.80641 8.59088L4.80543 8.59283L4.74 8.67194C4.39975 9.0477 3.82394 9.11183 3.40699 8.80475C2.96249 8.47732 2.86696 7.85193 3.1941 7.40729H3.19508V7.40533C3.19556 7.40467 3.19718 7.4045 3.19801 7.40338C3.19968 7.40111 3.2018 7.39772 3.20484 7.39362C3.21101 7.38529 3.2197 7.37293 3.23121 7.35748C3.25424 7.32658 3.28814 7.28215 3.33082 7.22565C3.41614 7.11269 3.53826 6.95201 3.68824 6.75983C3.98739 6.37651 4.40016 5.86217 4.84937 5.34479C5.29435 4.83229 5.79524 4.29404 6.26832 3.87604C6.50362 3.66814 6.75521 3.46826 7.00855 3.31549C7.23455 3.17925 7.58952 3.00007 7.99976 3.00006Z" fill="currentColor"/><path d="M6.99982 5.00006V20.0001C6.99982 20.5523 7.44753 21.0001 7.99982 21.0001C8.5521 21.0001 8.99982 20.5523 8.99982 20.0001V5.00006C8.99982 4.44778 8.5521 4.00006 7.99982 4.00006C7.44753 4.00006 6.99982 4.44778 6.99982 5.00006Z" fill="currentColor"/></svg>
