<svg xmlns="http://www.w3.org/2000/svg" viewBox="0 0 24 24" fill="none"><path d="M7.99955 3.00055C8.40978 3.00055 8.76475 3.17974 8.99076 3.31598C9.24409 3.46873 9.49571 3.66864 9.731 3.87653C10.2041 4.29452 10.705 4.83279 11.1499 5.34528C11.5991 5.86265 12.0119 6.37699 12.3111 6.76031C12.461 6.95247 12.5832 7.11318 12.6685 7.22614C12.7111 7.2826 12.7451 7.32707 12.7681 7.35797C12.7796 7.3734 12.7883 7.38578 12.7945 7.3941C12.7975 7.39821 12.8006 7.40159 12.8023 7.40387C12.8029 7.40475 12.8038 7.40527 12.8042 7.40582V7.40778H12.8052C13.1324 7.85245 13.0369 8.4788 12.5923 8.80621C12.1476 9.13335 11.5213 9.03788 11.1939 8.59332L11.1929 8.59137C11.1917 8.58981 11.1894 8.58771 11.187 8.58453C11.182 8.57775 11.1748 8.56699 11.1646 8.55328C11.144 8.52559 11.1127 8.48406 11.0728 8.43121C10.9929 8.32548 10.8774 8.17334 10.7349 7.99078C10.4488 7.62417 10.0591 7.13833 9.64017 6.65582C9.42635 6.40955 9.21006 6.16949 8.99955 5.94977V20.0005C8.99955 20.5528 8.55183 21.0005 7.99955 21.0005C7.44732 21.0005 6.99955 20.5528 6.99955 20.0005V5.94977C6.78905 6.16948 6.57274 6.40956 6.35892 6.65582C5.93999 7.13833 5.5503 7.62418 5.2642 7.99078C5.12173 8.17335 5.00617 8.32548 4.92631 8.43121C4.88639 8.48407 4.85514 8.5256 4.83451 8.55328C4.82429 8.56699 4.81707 8.57775 4.81205 8.58453C4.80969 8.58772 4.80734 8.58981 4.80619 8.59137L4.80521 8.59332L4.73978 8.67242C4.39953 9.04816 3.82371 9.11231 3.40678 8.80524C2.96232 8.47781 2.86678 7.85241 3.19389 7.40778H3.19486V7.40582C3.19534 7.40517 3.19696 7.40495 3.19779 7.40387C3.19946 7.40161 3.2016 7.3982 3.20463 7.3941C3.21079 7.38578 3.21949 7.3734 3.23099 7.35797C3.25402 7.32708 3.28794 7.28262 3.3306 7.22614C3.41592 7.11319 3.53805 6.95249 3.68803 6.76031C3.98717 6.37701 4.39996 5.86265 4.84916 5.34528C5.29412 4.83279 5.79503 4.29452 6.2681 3.87653C6.50338 3.66864 6.75501 3.46874 7.00834 3.31598C7.23433 3.17974 7.58934 3.00058 7.99955 3.00055ZM16.7408 13.2349C17.0057 13.0906 17.507 12.8735 18.0601 13.0933L18.1714 13.1431L18.2779 13.2027C18.7837 13.5136 18.911 14.0432 18.9546 14.3414C19.0023 14.6673 18.9995 15.0853 18.9995 15.4888V19.0005H19.9995C20.5518 19.0005 20.9995 19.4483 20.9995 20.0005C20.9995 20.5528 20.5518 21.0005 19.9995 21.0005H15.9995C15.4473 21.0005 14.9995 20.5528 14.9995 20.0005C14.9995 19.4483 15.4473 19.0006 15.9995 19.0005H16.9995V15.4888C16.9995 15.4877 16.9986 15.4861 16.9986 15.4849L16.6001 15.7867C16.1589 16.118 15.5326 16.0292 15.2007 15.5884C14.8688 15.1471 14.9577 14.52 15.399 14.188L15.7984 13.8873C16.1201 13.6453 16.4517 13.3925 16.7408 13.2349ZM17.9995 3.00055C19.6564 3.00055 20.9995 4.3437 20.9995 6.00055V8.00055C20.9995 9.6574 19.6564 11.0005 17.9995 11.0005C16.3428 11.0005 14.9995 9.65736 14.9995 8.00055V6.00055C14.9995 4.34374 16.3428 3.00062 17.9995 3.00055ZM17.9995 5.00055C17.4473 5.00062 16.9995 5.44831 16.9995 6.00055V8.00055C16.9995 8.55279 17.4473 9.00048 17.9995 9.00055C18.5518 9.00055 18.9995 8.55283 18.9995 8.00055V6.00055C18.9995 5.44826 18.5518 5.00055 17.9995 5.00055Z" fill="currentColor" fill-rule="evenodd" clip-rule="evenodd"/></svg>
