<svg xmlns="http://www.w3.org/2000/svg" viewBox="0 0 24 24" fill="none"><path d="M12 13.5C12.8284 13.5 13.5 12.8284 13.5 12C13.5 11.1716 12.8284 10.5 12 10.5C11.1716 10.5 10.5 11.1716 10.5 12C10.5 12.8284 11.1716 13.5 12 13.5Z" stroke="currentColor" stroke-linecap="round" stroke-linejoin="round" stroke-width="2"/><path opacity="0.4" d="M5.25 12C5.25 8.27208 8.27208 5.25 12 5.25C12.5326 5.25 12.9643 5.68173 12.9643 6.21429C12.9643 6.74685 12.5326 7.17857 12 7.17857C9.3372 7.17857 7.17857 9.3372 7.17857 12C7.17857 14.6628 9.3372 16.8214 12 16.8214C14.6628 16.8214 16.8214 14.6628 16.8214 12C16.8214 10.6683 16.2825 9.46466 15.4089 8.5911C15.0323 8.21452 15.0323 7.60317 15.4089 7.2266C15.7855 6.85005 16.3968 6.85003 16.7734 7.2266C17.9939 8.44705 18.75 10.1363 18.75 12C18.75 15.7279 15.7279 18.75 12 18.75C8.27208 18.75 5.25 15.7279 5.25 12Z" fill="currentColor"/><path d="M18.3066 4.29102C18.6941 3.90366 19.3225 3.90358 19.71 4.29102C20.0967 4.67839 20.0968 5.30605 19.71 5.69336L14.1279 11.2744C14.2056 11.5023 14.25 11.7458 14.25 12C14.25 13.2426 13.2426 14.25 12 14.25C10.7574 14.25 9.75 13.2426 9.75 12C9.75 10.7574 10.7574 9.75 12 9.75C12.2538 9.75 12.497 9.79458 12.7246 9.87207L18.3066 4.29102Z" fill="currentColor"/><path opacity="0.4" d="M1.25 12C1.25 6.06294 6.06294 1.25 12 1.25C12.5397 1.25 12.9773 1.68754 12.9773 2.22727C12.9773 2.76701 12.5397 3.20455 12 3.20455C7.14241 3.20455 3.20455 7.1424 3.20455 12C3.20455 16.8576 7.14241 20.7955 12 20.7955C16.8576 20.7955 20.7955 16.8576 20.7955 12C20.7955 9.57093 19.8124 7.37312 18.2196 5.78038C17.838 5.39874 17.838 4.78011 18.2196 4.39846C18.6013 4.01703 19.22 4.01688 19.6015 4.39846C21.5458 6.34276 22.75 9.03174 22.75 12C22.75 17.9371 17.9371 22.75 12 22.75C6.06294 22.75 1.25 17.9371 1.25 12Z" fill="currentColor"/></svg>
