<svg xmlns="http://www.w3.org/2000/svg" viewBox="0 0 24 24" fill="none"><path d="M20 21V3C20 2.44772 20.4477 2 21 2C21.5523 2 22 2.44772 22 3V21C22 21.5523 21.5523 22 21 22C20.4477 22 20 21.5523 20 21Z" fill="currentColor"/><path opacity="0.4" d="M14 21V7C14 6.44772 14.4477 6 15 6C15.5523 6 16 6.44772 16 7V21C16 21.5523 15.5523 22 15 22C14.4477 22 14 21.5523 14 21Z" fill="currentColor"/><path d="M8 21V11C8 10.4477 8.44772 10 9 10C9.55228 10 10 10.4477 10 11V21C10 21.5523 9.55228 22 9 22C8.44772 22 8 21.5523 8 21Z" fill="currentColor"/><path opacity="0.4" d="M2 21V15C2 14.4477 2.44772 14 3 14C3.55228 14 4 14.4477 4 15V21C4 21.5523 3.55228 22 3 22C2.44772 22 2 21.5523 2 21Z" fill="currentColor"/></svg>
