<svg xmlns="http://www.w3.org/2000/svg" viewBox="0 0 24 24" fill="none"><path d="M19.9996 21V3C19.9996 2.44772 20.4473 2 20.9996 2C21.5519 2 21.9996 2.44772 21.9996 3V21C21.9996 21.5523 21.5519 22 20.9996 22C20.4473 22 19.9996 21.5523 19.9996 21Z" fill="currentColor"/><path d="M13.9996 21V7C13.9996 6.44772 14.4473 6 14.9996 6C15.5519 6 15.9996 6.44772 15.9996 7V21C15.9996 21.5523 15.5519 22 14.9996 22C14.4473 22 13.9996 21.5523 13.9996 21Z" fill="currentColor"/><path d="M7.99963 21V11C7.99963 10.4477 8.44735 10 8.99963 10C9.55192 10 9.99963 10.4477 9.99963 11V21C9.99963 21.5523 9.55192 22 8.99963 22C8.44735 22 7.99963 21.5523 7.99963 21Z" fill="currentColor"/><path d="M1.99963 21V15C1.99963 14.4477 2.44735 14 2.99963 14C3.55192 14 3.99963 14.4477 3.99963 15V21C3.99963 21.5523 3.55192 22 2.99963 22C2.44735 22 1.99963 21.5523 1.99963 21Z" fill="currentColor"/></svg>
