<svg xmlns="http://www.w3.org/2000/svg" viewBox="0 0 24 24" fill="none"><path d="M7.75012 2.99963C7.75012 2.03314 8.53362 1.24963 9.50012 1.24963H14.5001C15.4666 1.24963 16.2501 2.03314 16.2501 2.99963C16.2501 3.96613 15.4666 4.74963 14.5001 4.74963H9.50012C8.53362 4.74963 7.75012 3.96613 7.75012 2.99963Z" fill="currentColor" fill-rule="evenodd" clip-rule="evenodd"/><path d="M17.4962 3.13245C18.3503 3.25939 19.0731 3.51898 19.6515 4.09729C20.2532 4.69929 20.5129 5.45787 20.6339 6.35803C20.7502 7.22312 20.7502 8.32384 20.7501 9.68713L20.7501 16.0621C20.7502 17.4254 20.7502 18.5261 20.6339 19.3912C20.5129 20.2914 20.2532 21.05 19.6515 21.652C19.0497 22.2538 18.2916 22.5124 17.3917 22.6334C16.5269 22.7497 15.4275 22.7497 14.0646 22.7496L9.93567 22.7496C8.57274 22.7497 7.47337 22.7497 6.60852 22.6334C5.70866 22.5124 4.95059 22.2538 4.34875 21.652C3.747 21.05 3.48739 20.2914 3.36633 19.3912C3.25008 18.5262 3.2501 17.4253 3.25012 16.0621L3.25012 9.68713C3.2501 8.32396 3.25008 7.22307 3.36633 6.35803C3.48739 5.45787 3.747 4.69929 4.34875 4.09729C4.92688 3.51919 5.64942 3.25944 6.50305 3.13245C6.57255 4.72767 7.88777 5.99963 9.50012 5.99963L14.5001 5.99963C16.1125 5.99963 17.4267 4.72765 17.4962 3.13245ZM9.00012 11.9996C8.44784 11.9996 8.00012 12.4473 8.00012 12.9996C8.00012 13.5519 8.44784 13.9996 9.00012 13.9996L15.0001 13.9996C15.5524 13.9996 16.0001 13.5519 16.0001 12.9996C16.0001 12.4473 15.5524 11.9996 15.0001 11.9996L9.00012 11.9996Z" fill="currentColor"/></svg>
