<svg xmlns="http://www.w3.org/2000/svg" viewBox="0 0 24 24" fill="none"><path opacity="0.4" d="M19.75 10.5352C19.7498 5.68637 15.8355 1.75 11 1.75C6.16462 1.75013 2.25021 5.68645 2.25 10.5352C2.25 13.3171 3.36579 15.4868 5.50391 17.3711C6.54975 18.2927 8.26715 20.0364 9.46094 21.5303C9.8563 22.025 10.4462 22.2499 11 22.25C11.4903 22.25 12.0076 22.0723 12.3945 21.6885C12.148 21.3559 12 20.9458 12 20.5V19.3281C12.0001 18.2672 12.422 17.2499 13.1719 16.5L17.2324 12.4395C17.8338 11.8381 18.6493 11.5 19.5 11.5C19.5673 11.5 19.6344 11.5026 19.7012 11.5068C19.7329 11.1913 19.75 10.8676 19.75 10.5352Z" fill="currentColor"/><path d="M8 10.5C8 8.84323 9.34326 7.50013 11 7.5C12.6569 7.5 14 8.84315 14 10.5C14 12.1569 12.6569 13.5 11 13.5C9.34326 13.4999 8 12.1568 8 10.5Z" fill="currentColor"/><path d="M21.1768 16.3838C21.5438 16.0168 21.75 15.519 21.75 15C21.75 14.481 21.5438 13.9832 21.1768 13.6162L20.8838 13.3232C20.5168 12.9562 20.019 12.75 19.5 12.75C18.981 12.75 18.4832 12.9562 18.1162 13.3232L14.0557 17.3838C13.54 17.8994 13.2501 18.5989 13.25 19.3281V20.5C13.25 20.9142 13.5858 21.25 14 21.25H15.1719C15.9011 21.2499 16.6006 20.96 17.1162 20.4443L21.1768 16.3838Z" fill="currentColor"/></svg>
