<svg xmlns="http://www.w3.org/2000/svg" viewBox="0 0 24 24" fill="none"><path d="M10.9999 1.75C15.8354 1.75 19.7497 5.68637 19.7499 10.5352C19.7499 10.8676 19.7328 11.1913 19.701 11.5068C19.6343 11.5026 19.5672 11.5 19.4999 11.5C18.6492 11.5 17.8336 11.8381 17.2323 12.4395L13.1718 16.5C12.4218 17.2499 12 18.2672 11.9999 19.3281V20.5C11.9999 20.9458 12.1478 21.3559 12.3944 21.6885C12.0075 22.0723 11.4902 22.25 10.9999 22.25C10.4461 22.2499 9.85618 22.025 9.46082 21.5303C8.26703 20.0364 6.54962 18.2927 5.50378 17.3711C3.36567 15.4868 2.24988 13.3171 2.24988 10.5352C2.25009 5.68645 6.1645 1.75013 10.9999 1.75ZM10.9999 7.5C9.34314 7.50013 7.99988 8.84323 7.99988 10.5C7.99988 12.1568 9.34314 13.4999 10.9999 13.5C12.6567 13.5 13.9999 12.1569 13.9999 10.5C13.9999 8.84315 12.6567 7.5 10.9999 7.5Z" fill="currentColor" fill-rule="evenodd" clip-rule="evenodd"/><path d="M21.1766 16.3838C21.5436 16.0168 21.7499 15.519 21.7499 15C21.7499 14.481 21.5436 13.9832 21.1766 13.6162L20.8837 13.3232C20.5166 12.9562 20.0189 12.75 19.4999 12.75C18.9808 12.75 18.4831 12.9562 18.1161 13.3232L14.0555 17.3838C13.5399 17.8994 13.25 18.5989 13.2499 19.3281V20.5C13.2499 20.9142 13.5857 21.25 13.9999 21.25H15.1718C15.901 21.2499 16.6004 20.96 17.1161 20.4443L21.1766 16.3838Z" fill="currentColor"/></svg>
