<svg xmlns="http://www.w3.org/2000/svg" viewBox="0 0 24 24" fill="none"><path opacity="0.4" d="M14.9112 3.96484C14.0829 2.94612 13.1845 2.25 12 2.25C10.8156 2.25 9.91722 2.94612 9.08891 3.96484C8.27715 4.96327 7.40491 6.43387 6.30222 8.29301L6.25591 8.37109L4.3311 11.6162L4.28349 11.6965C3.13484 13.633 2.22824 15.1614 1.72368 16.3945C1.21006 17.6499 1.02508 18.8058 1.62407 19.8633C2.22367 20.9217 3.30973 21.3543 4.64848 21.5537C5.96696 21.75 7.747 21.75 10.002 21.75H10.0752H13.9249H13.9981C16.2531 21.75 18.0331 21.75 19.3516 21.5537C20.6904 21.3543 21.7764 20.9217 22.376 19.8633C22.975 18.8058 22.79 17.6499 22.2764 16.3945C21.7719 15.1614 20.8652 13.6329 19.7166 11.6964L19.669 11.6162L17.7442 8.37109L17.6979 8.29306C16.5952 6.43389 15.723 4.96328 14.9112 3.96484Z" fill="currentColor"/><path d="M10.9999 13V9C10.9999 8.44772 11.4477 8 11.9999 8C12.5522 8 12.9999 8.44772 12.9999 9V13C12.9999 13.5523 12.5522 14 11.9999 14C11.4477 14 10.9999 13.5523 10.9999 13Z" fill="currentColor"/><path d="M11.9999 15.75C12.5522 15.75 12.9999 16.1977 12.9999 16.75C12.9999 17.3023 12.5522 17.75 11.9999 17.75C11.4477 17.75 10.9999 17.3023 10.9999 16.75C10.9999 16.1977 11.4477 15.75 11.9999 15.75Z" fill="currentColor"/></svg>
