<svg xmlns="http://www.w3.org/2000/svg" viewBox="0 0 24 24" fill="none"><path opacity="0.4" d="M16.3955 9.25015C17.6068 9.25085 18.5978 9.25966 19.3916 9.36636C20.2917 9.48738 21.0494 9.74687 21.6514 10.3488C22.2533 10.9507 22.5128 11.7084 22.6338 12.6086C22.7501 13.4735 22.75 14.5727 22.75 15.9357V16.0646C22.75 17.4276 22.7501 18.5268 22.6338 19.3918C22.5128 20.2919 22.2533 21.0496 21.6514 21.6515C21.0494 22.2534 20.2917 22.5129 19.3916 22.6339C18.5267 22.7502 17.4275 22.7502 16.0645 22.7502H7.93555C6.57249 22.7502 5.47331 22.7502 4.6084 22.6339C3.70829 22.5129 2.95055 22.2534 2.34863 21.6515C1.74672 21.0496 1.48723 20.2919 1.36621 19.3918C1.24995 18.5268 1.24997 17.4277 1.25 16.0646V15.9357C1.24997 14.5726 1.24995 13.4735 1.36621 12.6086C1.48723 11.7084 1.74672 10.9507 2.34863 10.3488C2.95055 9.74687 3.70829 9.48738 4.6084 9.36636C5.40195 9.25969 6.39269 9.25085 7.60352 9.25015C7.83181 9.51355 8.08424 9.76327 8.36035 9.9982C8.64033 10.2364 9.05245 10.6279 9.44629 11.0421C9.85439 11.4714 10.1707 11.8507 10.3115 12.0724L10.3125 12.0734C10.6733 12.6408 11.2959 12.9894 11.9688 13.0002L12.0947 12.9982C12.7205 12.9686 13.2987 12.6461 13.6533 12.1252C14.0261 11.5777 15.0647 10.4874 15.6396 9.9982C15.9156 9.76341 16.1673 9.51337 16.3955 9.25015Z" fill="currentColor"/><path d="M7 15.2502C7.41421 15.2502 7.75 15.5859 7.75 16.0002C7.75 16.4144 7.41421 16.7502 7 16.7502H5C4.58579 16.7502 4.25 16.4144 4.25 16.0002C4.25 15.5859 4.58579 15.2502 5 15.2502H7ZM13 15.2502C13.4142 15.2502 13.75 15.5859 13.75 16.0002C13.75 16.4144 13.4142 16.7502 13 16.7502H11C10.5858 16.7502 10.25 16.4144 10.25 16.0002C10.25 15.5859 10.5858 15.2502 11 15.2502H13ZM19 15.2502C19.4142 15.2502 19.75 15.5859 19.75 16.0002C19.75 16.4144 19.4142 16.7502 19 16.7502H17C16.5858 16.7502 16.25 16.4144 16.25 16.0002C16.25 15.5859 16.5858 15.2502 17 15.2502H19Z" fill="currentColor"/><path d="M12 1.25015C14.4634 1.25015 16.5 3.19278 16.5 5.63687C16.4999 7.03947 15.9063 8.13031 14.8301 9.04605C14.2015 9.58081 13.0755 10.7531 12.6201 11.422C12.4781 11.6306 12.2406 11.7541 11.9883 11.7502C11.736 11.7461 11.5025 11.6154 11.3672 11.4025C10.9473 10.7413 9.81247 9.59268 9.16992 9.04605C8.09366 8.13031 7.50011 7.03947 7.5 5.63687C7.5 3.19278 9.53665 1.25015 12 1.25015ZM12.0098 4.00015C11.1813 4.00015 10.5098 4.67173 10.5098 5.50015C10.5098 6.32858 11.1813 7.00015 12.0098 7.00015C12.8382 7.00015 13.5098 6.32858 13.5098 5.50015C13.5098 4.67173 12.8382 4.00015 12.0098 4.00015Z" fill="currentColor"/></svg>
