<svg xmlns="http://www.w3.org/2000/svg" viewBox="0 0 24 24" fill="none"><path opacity="0.4" d="M12 22.75C17.9371 22.75 22.75 17.9371 22.75 12C22.75 6.06294 17.9371 1.25 12 1.25C6.06294 1.25 1.25 6.06294 1.25 12C1.25 17.9371 6.06294 22.75 12 22.75Z" fill="currentColor"/><path d="M15.4003 14.5497C15.649 14.2185 16.1189 14.1516 16.4501 14.4003C16.7812 14.649 16.8481 15.1189 16.5995 15.4501C15.5518 16.845 13.8814 17.7499 11.9999 17.7499C10.1183 17.7499 8.44793 16.845 7.40026 15.4501C7.15159 15.1189 7.2185 14.649 7.54967 14.4003C7.88087 14.1516 8.35075 14.2185 8.59948 14.5497C9.37606 15.5836 10.6101 16.2499 11.9999 16.2499C13.3896 16.2499 14.6237 15.5836 15.4003 14.5497Z" fill="currentColor"/><path d="M16 7.25C16.8799 7.25 17.6442 7.70196 18.1133 8.36816C18.3518 8.70684 18.2704 9.17461 17.9317 9.41309C17.593 9.65153 17.1252 9.57012 16.8868 9.23145C16.6718 8.92625 16.3469 8.75 16 8.75C15.6532 8.75 15.3283 8.92625 15.1133 9.23145C14.8749 9.57012 14.4071 9.65153 14.0684 9.41309C13.7297 9.17461 13.6483 8.70684 13.8868 8.36816C14.3559 7.70196 15.1202 7.25 16 7.25Z" fill="currentColor"/><path d="M8.375 7.25C8.91521 7.25 9.20261 7.66818 9.31055 7.88379C9.4407 8.1441 9.5 8.4517 9.5 8.75C9.5 9.04829 9.4407 9.3559 9.31055 9.61621C9.20261 9.83182 8.91522 10.25 8.375 10.25C7.83479 10.25 7.54739 9.83182 7.43945 9.61621C7.3093 9.3559 7.25 9.04829 7.25 8.75C7.25 8.45171 7.3093 8.1441 7.43945 7.88379C7.54739 7.66817 7.83479 7.25 8.375 7.25Z" fill="currentColor"/></svg>
