<svg xmlns="http://www.w3.org/2000/svg" viewBox="0 0 24 24" fill="none"><path d="M12 22.75C17.9371 22.75 22.75 17.9371 22.75 12C22.75 6.06294 17.9371 1.25 12 1.25C6.06294 1.25 1.25 6.06294 1.25 12C1.25 17.9371 6.06294 22.75 12 22.75ZM8.375 10.25C7.83479 10.25 7.54739 9.83182 7.43945 9.61621C7.3093 9.3559 7.25 9.04829 7.25 8.75C7.25 8.45171 7.3093 8.1441 7.43945 7.88379C7.54739 7.66817 7.83479 7.25 8.375 7.25C8.91521 7.25 9.20261 7.66818 9.31055 7.88379C9.4407 8.1441 9.5 8.4517 9.5 8.75C9.5 9.04829 9.4407 9.3559 9.31055 9.61621C9.20261 9.83182 8.91522 10.25 8.375 10.25ZM17.9316 9.41309C17.593 9.65151 17.1252 9.57011 16.8867 9.23145C16.6717 8.92627 16.3468 8.75 16 8.75C15.6532 8.75001 15.3283 8.92627 15.1133 9.23145C14.8748 9.5701 14.407 9.65153 14.0684 9.41309C13.7297 9.17461 13.6483 8.70683 13.8867 8.36816C14.3558 7.70197 15.1202 7.25002 16 7.25C16.8798 7.25 17.6442 7.70197 18.1133 8.36816C18.3518 8.70684 18.2703 9.17461 17.9316 9.41309ZM12 17.75C10.1185 17.75 8.44807 16.845 7.40039 15.4502C7.15172 15.119 7.21863 14.6491 7.5498 14.4004C7.881 14.1517 8.35089 14.2186 8.59961 14.5498C9.37619 15.5836 10.6103 16.25 12 16.25C13.3897 16.25 14.6238 15.5837 15.4004 14.5498C15.6491 14.2186 16.119 14.1517 16.4502 14.4004C16.7812 14.6491 16.8482 15.119 16.5996 15.4502C15.552 16.8451 13.8815 17.75 12 17.75Z" fill="currentColor"/></svg>
