<svg xmlns="http://www.w3.org/2000/svg" viewBox="0 0 24 24" fill="none"><path opacity="0.4" d="M22 12.25C21.3097 12.25 20.75 11.6904 20.75 11C20.75 10.3097 21.3097 9.75005 22 9.75005C22.4143 9.75005 22.75 9.41426 22.75 9.00005C22.75 8.11836 22.7563 7.53026 22.6221 7.02934C22.2753 5.73538 21.2647 4.72475 19.9707 4.37798C19.4698 4.24376 18.8817 4.25005 18 4.25005H6.00005C5.11836 4.25005 4.53026 4.24376 4.02934 4.37798C2.73538 4.72475 1.72475 5.73538 1.37798 7.02934C1.24376 7.53026 1.25005 8.11836 1.25005 9.00005C1.25005 9.41426 1.58583 9.75005 2.00005 9.75005C2.6904 9.75005 3.25005 10.3097 3.25005 11C3.25005 11.6904 2.6904 12.25 2.00005 12.25C1.58583 12.25 1.25005 12.5858 1.25005 13C1.25005 13.8817 1.24376 14.4698 1.37798 14.9707C1.72475 16.2647 2.73538 17.2753 4.02934 17.6221C4.53026 17.7563 5.11836 17.75 6.00005 17.75H18C18.8817 17.75 19.4698 17.7563 19.9707 17.6221C21.2647 17.2753 22.2753 16.2647 22.6221 14.9707C22.7563 14.4698 22.75 13.8817 22.75 13C22.75 12.5858 22.4143 12.25 22 12.25Z" fill="currentColor"/><path d="M7 13V9C7 8.44772 7.44772 8 8 8C8.55228 8 9 8.44772 9 9V13C9 13.5523 8.55228 14 8 14C7.44772 14 7 13.5523 7 13ZM11 13V9C11 8.44772 11.4477 8 12 8C12.5523 8 13 8.44772 13 9V13C13 13.5523 12.5523 14 12 14C11.4477 14 11 13.5523 11 13ZM15 13V9C15 8.44772 15.4477 8 16 8C16.5523 8 17 8.44772 17 9V13C17 13.5523 16.5523 14 16 14C15.4477 14 15 13.5523 15 13Z" fill="currentColor"/><path d="M3 17.168C3.31454 17.3665 3.65964 17.522 4.0293 17.6211C4.31252 17.697 4.62373 17.7257 5 17.7383V18.749C5 19.3013 4.55228 19.749 4 19.749C3.44772 19.749 3 19.3013 3 18.749V17.168Z" fill="currentColor"/><path d="M9 17.749V18.749C9 19.3013 8.55228 19.749 8 19.749C7.44772 19.749 7 19.3013 7 18.749V17.749H9Z" fill="currentColor"/><path d="M13 17.749V18.749C13 19.3013 12.5523 19.749 12 19.749C11.4477 19.749 11 19.3013 11 18.749V17.749H13Z" fill="currentColor"/><path d="M17 17.749V18.749C17 19.3013 16.5523 19.749 16 19.749C15.4477 19.749 15 19.3013 15 18.749V17.749H17Z" fill="currentColor"/><path d="M21 18.749C21 19.3013 20.5523 19.749 20 19.749C19.4477 19.749 19 19.3013 19 18.749V17.7383C19.3763 17.7257 19.6875 17.697 19.9707 17.6211C20.3404 17.522 20.6855 17.3665 21 17.168V18.749Z" fill="currentColor"/></svg>
