<svg xmlns="http://www.w3.org/2000/svg" viewBox="0 0 24 24" fill="none"><path d="M17.9995 4.25005C18.8811 4.25005 19.4693 4.24379 19.9702 4.37798C21.2641 4.72474 22.2748 5.73543 22.6216 7.02934C22.7558 7.53024 22.7495 8.11841 22.7495 9.00005C22.7495 9.41426 22.4137 9.75005 21.9995 9.75005C21.3092 9.7501 20.7495 10.3098 20.7495 11C20.7495 11.6904 21.3092 12.25 21.9995 12.25C22.4137 12.25 22.7494 12.5859 22.7495 13C22.7495 13.8817 22.7558 14.4698 22.6216 14.9707C22.3739 15.8951 21.786 16.6725 20.9995 17.169V18.75C20.9995 19.3023 20.5518 19.75 19.9995 19.75C19.4472 19.75 18.9995 19.3023 18.9995 18.75V17.7393C18.7103 17.749 18.3826 17.75 17.9995 17.75H16.9995V18.75C16.9995 19.3023 16.5518 19.75 15.9995 19.75C15.4472 19.75 14.9995 19.3023 14.9995 18.75V17.75H12.9995V18.75C12.9995 19.3023 12.5518 19.75 11.9995 19.75C11.4472 19.75 10.9995 19.3023 10.9995 18.75V17.75H8.9995V18.75C8.9995 19.3023 8.55178 19.75 7.9995 19.75C7.44721 19.75 6.9995 19.3023 6.9995 18.75V17.75H5.9995C5.61635 17.75 5.28871 17.749 4.9995 17.7393V18.75C4.9995 19.3023 4.55178 19.75 3.9995 19.75C3.44721 19.75 2.9995 19.3023 2.9995 18.75V17.169C2.21304 16.6725 1.62513 15.895 1.37743 14.9707C1.24324 14.4699 1.2495 13.8817 1.2495 13C1.24955 12.5859 1.58536 12.2501 1.9995 12.25C2.68985 12.25 3.2495 11.6904 3.2495 11C3.24945 10.3097 2.68982 9.75005 1.9995 9.75005C1.58533 9.75 1.2495 9.41423 1.2495 9.00005C1.2495 8.11841 1.24321 7.53024 1.37743 7.02934C1.72421 5.73543 2.73488 4.72476 4.02879 4.37798C4.52969 4.24376 5.11786 4.25005 5.9995 4.25005H17.9995ZM7.9995 8.00005C7.44725 8.00007 6.99952 8.4478 6.9995 9.00005V13C6.9995 13.5523 7.44723 14 7.9995 14C8.55178 14 8.9995 13.5523 8.9995 13V9.00005C8.99947 8.44778 8.55177 8.00005 7.9995 8.00005ZM11.9995 8.00005C11.4472 8.00007 10.9995 8.4478 10.9995 9.00005V13C10.9995 13.5523 11.4472 14 11.9995 14C12.5518 14 12.9995 13.5523 12.9995 13V9.00005C12.9995 8.44778 12.5518 8.00005 11.9995 8.00005ZM15.9995 8.00005C15.4472 8.00007 14.9995 8.4478 14.9995 9.00005V13C14.9995 13.5523 15.4472 14 15.9995 14C16.5518 14 16.9995 13.5523 16.9995 13V9.00005C16.9995 8.44778 16.5518 8.00005 15.9995 8.00005Z" fill="currentColor" fill-rule="evenodd" clip-rule="evenodd"/></svg>
