<svg xmlns="http://www.w3.org/2000/svg" viewBox="0 0 24 24" fill="none"><path opacity="0.4" d="M11.5876 1.24815C12.1575 1.24739 12.662 1.24671 13.1375 1.41538C13.2354 1.45013 13.3315 1.49013 13.4252 1.53519C13.8801 1.75386 14.2363 2.11294 14.6388 2.51858L19.4216 7.32623C19.889 7.79459 20.3038 8.21025 20.5278 8.754C20.7519 9.29776 20.751 9.88651 20.75 10.5499L20.7498 14.0242C20.7499 15.8062 20.7499 17.2425 20.5988 18.3722C20.4419 19.545 20.1063 20.5326 19.3261 21.3169C18.5458 22.1012 17.5634 22.4385 16.3966 22.5962C15.2728 22.7481 13.8439 22.7481 12.0711 22.748C10.2983 22.7481 8.72718 22.7481 7.60334 22.5962C6.43655 22.4385 5.45414 22.1012 4.67389 21.3169C3.89364 20.5326 3.55804 19.545 3.40117 18.3722C3.25008 17.2425 3.2501 15.8062 3.25012 14.0242V14.0242V9.45067V9.45064C3.2501 7.91698 3.25009 6.68045 3.36436 5.69661C3.4826 4.67865 3.7343 3.80644 4.32693 3.06759C4.54447 2.79638 4.79024 2.54933 5.06004 2.33066C5.79507 1.73495 6.66277 1.48194 7.67546 1.36309C8.65422 1.24822 10.0618 1.24813 11.5876 1.24815Z" fill="currentColor"/><circle cx="9.5" cy="12.498" r="2" fill="currentColor"/><path d="M16 13.998C15.3597 13.998 14.7456 14.2524 14.2929 14.7052L8.29102 20.707C9.21419 20.7918 10.3986 20.7935 11.9999 20.7935C13.8606 20.7935 15.1583 20.7912 16.1374 20.6589C17.0886 20.5304 17.5921 20.2952 17.9508 19.9346C18.3096 19.5739 18.5436 19.0678 18.6714 18.1117C18.7547 17.4889 18.7862 16.7378 18.7981 15.7962L17.7071 14.7051C17.2543 14.2524 16.6403 13.998 16 13.998Z" fill="currentColor"/><path d="M13.1373 1.416C13.2353 1.45076 13.3314 1.49075 13.4251 1.53582C13.8799 1.75449 14.2362 2.11356 14.6387 2.51921L19.4215 7.32686L19.4215 7.32686C19.8889 7.79521 20.3036 8.21088 20.5277 8.75463C20.6265 8.99435 20.6816 9.24282 20.7122 9.50258H18.7314C17.3638 9.5026 16.7152 9.50181 15.8483 9.38525C14.9481 9.26424 14.1903 9.00534 13.5884 8.40343C12.9864 7.80151 12.7275 7.04364 12.6065 6.14353C12.4902 5.27834 12.4902 4.63063 12.4902 3.2688V3.26877V1.27734C12.7136 1.30042 12.9283 1.34184 13.1373 1.416Z" fill="currentColor"/></svg>
