<svg xmlns="http://www.w3.org/2000/svg" viewBox="0 0 24 24" fill="none"><path d="M11.5874 1.24815C12.1572 1.24739 12.6619 1.24653 13.1372 1.41514C13.235 1.44985 13.3307 1.49029 13.4243 1.53526C13.8791 1.75392 14.2357 2.11304 14.6382 2.51866L19.4214 7.32628C19.8886 7.79448 20.3028 8.21047 20.5269 8.75401C20.7509 9.29772 20.7505 9.88661 20.7495 10.5499V14.0245C20.7495 15.8063 20.7492 17.2426 20.5981 18.3722C20.4413 19.5448 20.1057 20.5323 19.3257 21.3165C18.5454 22.1008 17.5628 22.4391 16.396 22.5968C15.2722 22.7486 13.8434 22.7482 12.0708 22.7481C10.2982 22.7482 8.72684 22.7486 7.60303 22.5968C6.43625 22.4391 5.45359 22.1008 4.67334 21.3165C3.89327 20.5322 3.55773 19.5449 3.40088 18.3722C3.24981 17.2426 3.24949 15.8063 3.24951 14.0245V9.4503C3.24949 7.91689 3.24951 6.68012 3.36377 5.69639C3.48203 4.67862 3.73411 3.80624 4.32666 3.06749C4.54402 2.79655 4.78955 2.54965 5.05908 2.33116C5.7941 1.73547 6.66263 1.48224 7.67529 1.36338C8.65403 1.24856 10.0619 1.24813 11.5874 1.24815ZM15.9995 13.9982C15.3593 13.9982 14.7452 14.2525 14.2925 14.7052L8.29053 20.7071C9.2137 20.7919 10.3982 20.794 11.9995 20.794C13.8601 20.794 15.1581 20.7916 16.1372 20.6593C17.0882 20.5307 17.592 20.2953 17.9507 19.9347C18.3094 19.5741 18.5435 19.0674 18.6714 18.1114C18.7546 17.4887 18.7855 16.7374 18.7974 15.796L17.7065 14.7052C17.2538 14.2525 16.6398 13.9982 15.9995 13.9982ZM9.49951 10.4982C8.39494 10.4982 7.49951 11.3936 7.49951 12.4982C7.49951 13.6027 8.39494 14.4982 9.49951 14.4982C10.6041 14.4982 11.4995 13.6027 11.4995 12.4982C11.4995 11.3936 10.6041 10.4982 9.49951 10.4982ZM12.4897 3.26866C12.4897 4.63001 12.4897 5.27779 12.606 6.14268C12.7269 7.04253 12.9859 7.80061 13.5874 8.40245C14.1893 9.00436 14.948 9.26385 15.8481 9.38487C16.7149 9.50138 17.3636 9.50208 18.731 9.50206C18.6742 9.36426 18.5686 9.23358 17.9507 8.61241L13.3462 3.9835C12.8133 3.44783 12.6714 3.31456 12.4897 3.25987V3.26866Z" fill="currentColor" fill-rule="evenodd" clip-rule="evenodd"/></svg>
