<svg xmlns="http://www.w3.org/2000/svg" viewBox="0 0 24 24" fill="none"><path d="M11 17V13C11 12.4477 11.4477 12 12 12C12.5523 12 13 12.4477 13 13V17C13 17.5523 12.5523 18 12 18C11.4477 18 11 17.5523 11 17Z" fill="currentColor"/><path opacity="0.4" d="M12 2.25C15.3858 2.25 18.1409 4.94226 18.2451 8.30273C20.7917 8.66457 22.75 10.8535 22.75 13.5C22.75 16.3995 20.3995 18.75 17.5 18.75H14.25V13C14.25 11.7574 13.2426 10.75 12 10.75C10.7574 10.75 9.75 11.7574 9.75 13V18.75H7C3.82436 18.75 1.25 16.1756 1.25 13C1.25 10.2172 3.22647 7.89735 5.85254 7.36523C6.38655 4.45489 8.93559 2.25 12 2.25Z" fill="currentColor"/><path d="M12 19.75C12.5523 19.75 13 20.1977 13 20.75C13 21.3023 12.5523 21.75 12 21.75C11.4477 21.75 11 21.3023 11 20.75C11 20.1977 11.4477 19.75 12 19.75Z" fill="currentColor"/></svg>
