<svg xmlns="http://www.w3.org/2000/svg" viewBox="0 0 24 24" fill="none"><path d="M10.9995 17V13C10.9995 12.4477 11.4472 12 11.9995 12C12.5518 12 12.9995 12.4477 12.9995 13V17C12.9995 17.5523 12.5518 18 11.9995 18C11.4472 18 10.9995 17.5523 10.9995 17Z" fill="currentColor"/><path d="M11.9995 2.25C15.3853 2.25 18.1404 4.94226 18.2446 8.30273C20.7912 8.66457 22.7495 10.8535 22.7495 13.5C22.7495 16.3995 20.399 18.75 17.4995 18.75H14.2495V13C14.2495 11.7574 13.2422 10.75 11.9995 10.75C10.7569 10.75 9.74951 11.7574 9.74951 13V18.75H6.99951C3.82387 18.75 1.24951 16.1756 1.24951 13C1.24951 10.2172 3.22598 7.89735 5.85205 7.36523C6.38606 4.45489 8.9351 2.25 11.9995 2.25Z" fill="currentColor"/><path d="M11.9995 19.75C12.5518 19.75 12.9995 20.1977 12.9995 20.75C12.9995 21.3023 12.5518 21.75 11.9995 21.75C11.4472 21.75 10.9995 21.3023 10.9995 20.75C10.9995 20.1977 11.4472 19.75 11.9995 19.75Z" fill="currentColor"/></svg>
