<svg xmlns="http://www.w3.org/2000/svg" viewBox="0 0 24 24" fill="none"><path opacity="0.4" d="M12.0001 13.0799C13.5349 13.0799 15.0088 13.6783 16.1049 14.7453C16.4901 15.1205 16.496 15.735 16.1182 16.1178C15.7404 16.5003 15.1217 16.5062 14.7363 16.131C14.0056 15.4198 13.0232 15.0211 12.0001 15.0211C10.977 15.0211 9.99463 15.4198 9.26392 16.131C8.87856 16.5062 8.25983 16.5003 7.88199 16.1178C7.50426 15.735 7.51016 15.1205 7.89535 14.7453C8.99144 13.6783 10.4653 13.0799 12.0001 13.0799ZM12.0001 8.22794C12.5398 8.22794 12.9773 8.66253 12.9774 9.19853C12.9774 9.73457 12.5398 10.1691 12.0001 10.1691C9.69786 10.1691 7.48758 11.0661 5.84345 12.6667C5.45803 13.0418 4.8393 13.0351 4.46152 12.6525C4.08374 12.2697 4.08953 11.6552 4.47488 11.28C6.48438 9.32377 9.18625 8.22794 12.0001 8.22794ZM12.0001 3.375C12.5398 3.375 12.9774 3.80955 12.9774 4.34559C12.9774 4.88163 12.5398 5.31618 12.0001 5.31618C8.63467 5.31618 5.38762 6.54847 2.87917 8.77674C2.47691 9.13404 1.85898 9.09939 1.49914 8.69997C1.13936 8.30047 1.17333 7.68677 1.57549 7.32939C4.44229 4.7828 8.1539 3.375 12.0001 3.375Z" fill="currentColor"/><path d="M12.1251 17.4552C12.7413 17.5171 13.2227 18.0334 13.2227 18.6618C13.2227 19.3317 12.6756 19.8748 12.0011 19.875C11.3686 19.875 10.8478 19.3977 10.7852 18.7859L10.7795 18.6618L10.7852 18.5376C10.8478 17.9259 11.3686 17.4485 12.0011 17.4485L12.1251 17.4552ZM21.0819 3.65934C21.4636 3.2803 22.0822 3.2803 22.4639 3.65934C22.8455 4.03838 22.8455 4.65277 22.4639 5.03181L20.223 7.25734L22.4639 9.48287C22.8455 9.86191 22.8455 10.4763 22.4639 10.8553C22.0822 11.2344 21.4636 11.2344 21.0819 10.8553L18.8411 8.62981L16.6002 10.8553C16.2185 11.2344 15.5999 11.2344 15.2183 10.8553C14.8366 10.4763 14.8366 9.86191 15.2183 9.48287L17.4591 7.25734L15.2183 5.03181C14.8366 4.65277 14.8366 4.03838 15.2183 3.65934C15.5999 3.2803 16.2185 3.2803 16.6002 3.65934L18.8411 5.88487L21.0819 3.65934Z" fill="currentColor"/></svg>
