<svg xmlns="http://www.w3.org/2000/svg" fill="none" viewBox="0 0 48 48">
  <g>
    <path fill="#8fbffa" d="M43.0668 2.93317S23.3711 -1.68448 12.0626 9.62405C4.56798 17.1187 3.9351 28.637 10.649 35.351c0.2246 0.2245 0.4545 0.4409 0.6895 0.649 0.7594 0.6542 2.805 2.159 4.9121 2.9444 6.4584 2.4109 14.4468 0.6715 20.1254 -5.007 11.3085 -11.3085 6.6908 -31.00423 6.6908 -31.00423Z" stroke-width="1"></path>
    <path fill="currentColor" fill-opacity="0.4" d="M22.6132 23.27c-2.5451 -0.3447 -4.5158 -0.7503 -5.7372 -1.0345 -0.6834 -0.159 -0.9506 -0.9514 -0.5132 -1.5002 1.7378 -2.1804 5.7754 -7.0814 10.0834 -11.15809 0.6395 -0.60524 1.6614 -0.11622 1.6116 0.76289 -0.198 3.4932 -0.444 6.2822 -0.6713 8.3899 2.5451 0.3447 4.5159 0.7503 5.7372 1.0345 0.6835 0.159 0.9506 0.9514 0.5133 1.5002 -1.7379 2.1804 -5.7755 7.0814 -10.0834 11.1581 -0.6396 0.6052 -1.6615 0.1162 -1.6116 -0.7629 0.1979 -3.4932 0.4439 -6.2822 0.6712 -8.3899Z" stroke-width="1"></path>
    <path stroke="currentColor" stroke-linecap="round" stroke-linejoin="round" d="M8.99989 46c0 -3.3787 0.88924 -6.7441 2.36191 -10" stroke-width="1"></path>
    <path stroke="currentColor" stroke-linecap="round" stroke-linejoin="round" d="M43.0668 2.93317S23.3711 -1.68448 12.0626 9.62405C4.56798 17.1187 3.9351 28.637 10.649 35.351c0.2246 0.2245 0.4545 0.4409 0.6895 0.649 0.7594 0.6542 2.805 2.159 4.9121 2.9444 6.4584 2.4109 14.4468 0.6715 20.1254 -5.007 11.3085 -11.3085 6.6908 -31.00423 6.6908 -31.00423Z" stroke-width="1"></path>
    <path stroke="currentColor" stroke-linejoin="round" d="M22.6132 23.27c-2.5451 -0.3447 -4.5158 -0.7503 -5.7372 -1.0345 -0.6834 -0.159 -0.9506 -0.9514 -0.5132 -1.5002 1.7378 -2.1804 5.7754 -7.0814 10.0834 -11.15809 0.6395 -0.60524 1.6614 -0.11622 1.6116 0.76289 -0.198 3.4932 -0.444 6.2822 -0.6713 8.3899 2.5451 0.3447 4.5159 0.7503 5.7372 1.0345 0.6835 0.159 0.9506 0.9514 0.5133 1.5002 -1.7379 2.1804 -5.7755 7.0814 -10.0834 11.1581 -0.6396 0.6052 -1.6615 0.1162 -1.6116 -0.7629 0.1979 -3.4932 0.4439 -6.2822 0.6712 -8.3899Z" stroke-width="1"></path>
  </g>
</svg>
