<svg xmlns="http://www.w3.org/2000/svg" fill="none" viewBox="0 0 48 48">
  <g>
    <path fill="currentColor" fill-opacity="0.4" fill-rule="evenodd" d="M11.0019 8.56339C17.0412 2.52407 25.2408 0.805091 31.744 0.539161c3.2719 -0.133792 6.1732 0.097187 8.2571 0.361079 1.0433 0.13213 1.8855 0.273 2.4713 0.38184 0.293 0.05444 0.5221 0.10093 0.6805 0.13438 0.0791 0.01673 0.1407 0.03021 0.1837 0.0398l0.0505 0.0114 0.0146 0.00337 0.0046 0.00108 0.0017 0.00038c0.0006 0.00015 0.0011 0.00028 -0.3413 1.46068l0.3424 -1.4604c0.5548 0.13006 0.988 0.56323 1.118 1.11801l-1.4586 0.34197c1.4586 -0.34197 1.4588 -0.34142 1.4589 -0.34079l0.0004 0.00164 0.0011 0.00463 0.0034 0.01463 0.0114 0.0505c0.0095 0.04299 0.023 0.10452 0.0398 0.1837 0.0334 0.15836 0.0799 0.38748 0.1343 0.68046 0.1089 0.58577 0.2497 1.42799 0.3819 2.47134 0.2639 2.08384 0.4948 4.98524 0.3611 8.25704 -0.266 6.5032 -1.985 14.7028 -8.0243 20.7422 -6.057 6.057 -14.6544 7.9853 -21.71 5.3519 -1.0122 -0.3774 -1.9991 -0.8967 -2.8602 -1.4225 -0.7865 2.1734 -1.218 4.3305 -1.218 6.4436 0 1.3807 -1.1192 2.5 -2.49996 2.5 -1.38071 0 -2.5 -1.1193 -2.5 -2.5 0 -3.3818 0.83415 -6.6773 2.16501 -9.7867 -6.56013 -7.4801 -5.48956 -19.3429 2.18855 -27.02101Z" clip-rule="evenodd" stroke-width="1"></path>
    <path fill="currentColor" fill-rule="evenodd" d="M25.7593 8.85077c1.3204 -1.2495 3.3966 -0.20444 3.2974 1.54583 -0.1703 3.0038 -0.376 5.492 -0.5754 7.4789 2.1191 0.3161 3.7812 0.6616 4.8696 0.9149 1.415 0.3293 1.9539 1.9867 1.0686 3.0974 -1.7461 2.1908 -5.8184 7.1356 -10.1781 11.2612 -1.3203 1.2495 -3.3966 0.2044 -3.2973 -1.5458 0.1702 -3.0038 0.3759 -5.492 0.5753 -7.479 -2.1191 -0.316 -3.7812 -0.6616 -4.8695 -0.9148 -1.4151 -0.3293 -1.9539 -1.9867 -1.0686 -3.0975 1.7461 -2.1907 5.8183 -7.1355 10.178 -11.26113Z" clip-rule="evenodd" stroke-width="1"></path>
  </g>
</svg>
