<svg xmlns="http://www.w3.org/2000/svg" fill="none" viewBox="0 0 48 48">
  <g>
    <path fill="currentColor" fill-rule="evenodd" d="M10.6483 8.20983C16.816 2.04217 25.1652 0.307767 31.7236 0.0395776c3.3062 -0.1351963 6.2362 0.0981704 8.3403 0.3646234 1.0539 0.133468 1.9057 0.275894 2.4998 0.386297 0.2972 0.055225 0.5304 0.10251 0.6925 0.136764 0.0811 0.01713 0.1444 0.031008 0.1892 0.041002l0.0532 0.012 0.0159 0.003667 0.0053 0.001226 0.0019 0.000457c0.0008 0.000184 0.0016 0.000352 -0.455 1.947556 1.9472 -0.45652 1.9474 -0.45581 1.9476 -0.45502l0.0004 0.00196 0.0013 0.00527 0.0036 0.01594 0.012 0.05316c0.01 0.04478 0.0239 0.10815 0.041 0.18923 0.0343 0.16213 0.0816 0.39526 0.1368 0.69246 0.1104 0.59415 0.2528 1.44593 0.3863 2.49988 0.2664 2.10406 0.4998 5.03405 0.3646 8.34025 -0.2682 6.5584 -2.0026 14.9076 -8.1702 21.0753 -6.1833 6.1832 -14.9836 8.1745 -22.2382 5.4669 -0.968 -0.3609 -1.9103 -0.8454 -2.747 -1.344 -0.6958 1.8819 -1.0747 3.74 -1.0747 5.5509 0 1.3807 -1.1193 2.5 -2.50001 2.5s-2.5 -1.1193 -2.5 -2.5c0 -3.053 0.77572 -6.016 1.99462 -8.7915 -7.08133 -7.6879 -6.0163 -20.0843 1.92349 -28.02407m32.4184 -5.27666 0.4566 -1.947204c0.7396 0.173424 1.3172 0.750984 1.4906 1.490684zm-1.4393 3.50541c-0.0901 -0.71153 -0.1841 -1.31854 -0.2665 -1.79958 -0.481 -0.08238 -1.0881 -0.17639 -1.7996 -0.26649 -1.9423 -0.24597 -4.6429 -0.46023 -7.6743 -0.33627 -6.1165 0.25012 -13.2694 1.86116 -18.4103 7.00206 -6.86388 6.8639 -7.20416 17.1078 -1.4135 22.8984 0.1926 0.1926 0.3895 0.3782 0.5906 0.5567 0.6673 0.5724 2.4992 1.9075 4.2952 2.577l0.0009 0.0003c5.662 2.1136 12.8381 0.6261 18.0117 -4.5475 5.1409 -5.1409 6.7519 -12.2938 7.0021 -18.4103 0.1239 -3.0314 -0.0903 -5.73204 -0.3363 -7.67432M25.759 8.85076c1.3203 -1.24949 3.3965 -0.20443 3.2973 1.54584 -0.1702 3.0038 -0.3759 5.492 -0.5754 7.4789 2.1192 0.3161 3.7813 0.6616 4.8696 0.9149 1.4151 0.3293 1.9539 1.9867 1.0686 3.0974 -1.7461 2.1908 -5.8184 7.1356 -10.178 11.2612 -1.3204 1.2495 -3.3966 0.2044 -3.2974 -1.5458 0.1703 -3.0038 0.376 -5.492 0.5754 -7.479 -2.1192 -0.316 -3.7812 -0.6616 -4.8696 -0.9148 -1.415 -0.3293 -1.9539 -1.9867 -1.0686 -3.0975 1.7461 -2.1907 5.8184 -7.1355 10.1781 -11.26114" clip-rule="evenodd" stroke-width="1"></path>
  </g>
</svg>
