<svg xmlns="http://www.w3.org/2000/svg" fill="none" viewBox="0 0 48 48">
  <g>
    <path fill="currentColor" fill-rule="evenodd" d="M31.744 0.539161C25.2408 0.805091 17.0412 2.52407 11.0019 8.56339 3.32379 16.2415 2.25322 28.1043 8.81335 35.5844c-1.33086 3.1094 -2.165 6.4049 -2.165 9.7867 0 1.3807 1.11928 2.5 2.5 2.5 1.38075 0 2.49995 -1.1193 2.49995 -2.5 0 -2.1131 0.4315 -4.2702 1.218 -6.4436 0.8611 0.5258 1.848 1.0451 2.8602 1.4225 7.0556 2.6334 15.653 0.7051 21.71 -5.3519 6.0393 -6.0394 7.7583 -14.239 8.0243 -20.7422 0.1337 -3.2718 -0.0972 -6.1732 -0.3611 -8.25704 -0.1322 -1.04335 -0.273 -1.88557 -0.3819 -2.47134 -0.0544 -0.29298 -0.1009 -0.5221 -0.1343 -0.68046 -0.0168 -0.07918 -0.0303 -0.14071 -0.0398 -0.1837l-0.0114 -0.0505 -0.0034 -0.01463 -0.0011 -0.00463 -0.0004 -0.00164c-0.0001 -0.00063 -0.0003 -0.00118 -1.4589 0.34079l1.4586 -0.34197c-0.13 -0.55478 -0.5632 -0.98795 -1.118 -1.11801l-0.3424 1.4604c0.3424 -1.4604 0.3419 -1.46053 0.3413 -1.46068l-0.0017 -0.00038 -0.0046 -0.00108 -0.0146 -0.00337 -0.0505 -0.0114c-0.043 -0.00959 -0.1046 -0.02307 -0.1837 -0.0398 -0.1584 -0.03345 -0.3875 -0.07994 -0.6805 -0.13438 -0.5858 -0.10884 -1.428 -0.24971 -2.4713 -0.38184C37.9172 0.636348 35.0159 0.405369 31.744 0.539161ZM29.0567 10.3966c0.0992 -1.75027 -1.977 -2.79533 -3.2974 -1.54583 -4.3597 4.12563 -8.4319 9.07043 -10.178 11.26113 -0.8853 1.1108 -0.3465 2.7682 1.0686 3.0975 1.0883 0.2532 2.7504 0.5988 4.8695 0.9148 -0.1994 1.987 -0.4051 4.4752 -0.5753 7.479 -0.0993 1.7502 1.9769 2.7953 3.2973 1.5458 4.3597 -4.1256 8.432 -9.0704 10.1781 -11.2612 0.8853 -1.1107 0.3464 -2.7681 -1.0686 -3.0974 -1.0884 -0.2533 -2.7505 -0.5988 -4.8696 -0.9149 0.1994 -1.9869 0.4051 -4.4751 0.5754 -7.4789Z" clip-rule="evenodd" stroke-width="1"></path>
  </g>
</svg>
