<svg xmlns="http://www.w3.org/2000/svg" viewBox="0 0 24 24" fill="none"><path opacity="0.4" d="M17.75 19.1768L17.75 19.1251V14.1251C17.75 13.7108 17.4142 13.3751 17 13.3751H7C6.58579 13.3751 6.25 13.7108 6.25 14.1251V19.1251C6.25 19.811 6.24833 20.4011 6.31153 20.8712C6.37764 21.3627 6.527 21.8337 6.90918 22.2159C7.29137 22.5981 7.76236 22.7474 8.25391 22.8135C8.7121 22.8751 9.28437 22.8751 9.94822 22.8751L10 22.8751H14L14.0518 22.8751C14.7156 22.8751 15.2879 22.8751 15.7461 22.8135C16.2376 22.7474 16.7086 22.5981 17.0908 22.2159C17.473 21.8337 17.6224 21.3627 17.6885 20.8712C17.7501 20.413 17.75 19.8407 17.75 19.1768Z" fill="currentColor"/><path d="M15.3564 6.37506C16.5777 6.37506 17.5454 6.37506 18.3213 6.44537C19.1122 6.51709 19.7778 6.667 20.375 7.01178L20.6397 7.17584C21.244 7.57977 21.7484 8.11817 22.1133 8.75006L22.2344 8.9776C22.4949 9.51577 22.617 10.1119 22.6797 10.8038C22.75 11.5796 22.75 12.5473 22.75 13.7686V13.8448C22.75 14.4305 22.7501 14.9201 22.7139 15.3194C22.6805 15.6881 22.6126 16.0357 22.4551 16.3614L22.3818 16.5001C22.1706 16.8659 21.8781 17.1773 21.5283 17.4112L21.375 17.5069C21.0098 17.7177 20.6159 17.8007 20.1943 17.8389C19.7951 17.8751 19.3054 17.8751 18.7197 17.8751H17.75V14.1251C17.75 13.7108 17.4142 13.3751 17 13.3751H7C6.58579 13.3751 6.25 13.7109 6.25 14.1251V17.8751H5.28027C4.69456 17.8751 4.20493 17.8751 3.80567 17.8389C3.43695 17.8055 3.08939 17.7376 2.76367 17.5801L2.625 17.5069C2.2592 17.2957 1.94773 17.0032 1.71387 16.6534L1.61817 16.5001C1.40735 16.1349 1.32434 15.7409 1.28613 15.3194C1.24995 14.9201 1.24997 14.4305 1.25 13.8448V13.7686C1.25 12.5473 1.25 11.5796 1.32031 10.8038C1.39203 10.0128 1.54194 9.34723 1.88672 8.75006L2.05078 8.48541C2.45471 7.88108 2.99311 7.37663 3.625 7.01178L3.85254 6.89069C4.39071 6.63018 4.9868 6.50811 5.67871 6.44537C6.06665 6.41021 6.50256 6.39264 6.99414 6.38385L8.64356 6.37506H15.3564ZM18.75 9.37506C18.1977 9.37506 17.75 9.82278 17.75 10.3751C17.75 10.9273 18.1977 11.3751 18.75 11.3751C19.3023 11.3751 19.75 10.9273 19.75 10.3751C19.75 9.85739 19.3567 9.43128 18.8525 9.37994L18.75 9.37506Z" fill="currentColor" fill-rule="evenodd" clip-rule="evenodd"/><path opacity="0.4" d="M14.0518 1.37507C14.7156 1.37502 15.2879 1.37499 15.7461 1.43659C16.2376 1.5027 16.7086 1.65207 17.0908 2.03424C17.473 2.41643 17.6224 2.88742 17.6885 3.37897C17.7501 3.83716 17.75 4.40946 17.75 5.07331V6.40729C17.0831 6.37542 16.2946 6.37506 15.3564 6.37507H8.64356C7.7054 6.37506 6.91687 6.37542 6.25 6.40729V5.12507C6.25 4.43916 6.24833 3.84903 6.31153 3.37897C6.37764 2.88742 6.527 2.41643 6.90918 2.03424C7.29137 1.65206 7.76236 1.5027 8.25391 1.43659C8.72397 1.37339 9.3141 1.37507 10 1.37507H14.0518Z" fill="currentColor"/></svg>
