<svg xmlns="http://www.w3.org/2000/svg" viewBox="0 0 24 24" fill="none"><path d="M14.0518 1.37506C14.7156 1.37502 15.2879 1.37499 15.7461 1.43659C16.2376 1.5027 16.7086 1.65206 17.0908 2.03424C17.473 2.41643 17.6224 2.88742 17.6885 3.37897C17.7501 3.83716 17.75 4.40945 17.75 5.07331V6.40729C17.9511 6.41688 18.1415 6.42908 18.3213 6.44538C19.1122 6.51709 19.7778 6.66701 20.375 7.01178L20.6397 7.17584C21.244 7.57977 21.7484 8.11817 22.1133 8.75006L22.2344 8.9776C22.4949 9.51577 22.617 10.1119 22.6797 10.8038C22.75 11.5796 22.75 12.5473 22.75 13.7686V13.8448C22.75 14.4305 22.7501 14.9201 22.7139 15.3194C22.6805 15.6881 22.6126 16.0357 22.4551 16.3614L22.3818 16.5001C22.1706 16.8659 21.8781 17.1773 21.5283 17.4112L21.375 17.5069C21.0098 17.7177 20.6159 17.8007 20.1943 17.8389C19.7951 17.8751 19.3054 17.8751 18.7197 17.8751H17.75V19.1768C17.75 19.8407 17.7501 20.413 17.6885 20.8712C17.6224 21.3627 17.473 21.8337 17.0908 22.2159C16.7086 22.5981 16.2376 22.7474 15.7461 22.8135C15.2879 22.8751 14.7156 22.8751 14.0518 22.8751H9.94824C9.28439 22.8751 8.7121 22.8751 8.25391 22.8135C7.76236 22.7474 7.29137 22.5981 6.90918 22.2159C6.527 21.8337 6.37764 21.3627 6.31153 20.8712C6.24992 20.413 6.24996 19.8407 6.25 19.1768V17.8751H5.28028C4.69456 17.8751 4.20493 17.8751 3.80567 17.8389C3.43695 17.8055 3.08939 17.7376 2.76367 17.5801L2.625 17.5069C2.2592 17.2957 1.94773 17.0032 1.71387 16.6534L1.61817 16.5001C1.40735 16.1349 1.32434 15.7409 1.28613 15.3194C1.24995 14.9201 1.24997 14.4305 1.25 13.8448V13.7686C1.25 12.5473 1.25 11.5796 1.32031 10.8038C1.39203 10.0128 1.54194 9.34724 1.88672 8.75006L2.05078 8.48541C2.45471 7.88108 2.99311 7.37664 3.625 7.01178L3.85254 6.89069C4.39071 6.63019 4.9868 6.50811 5.67871 6.44538C5.85848 6.42908 6.04893 6.41688 6.25 6.40729V5.12506C6.25 4.43916 6.24833 3.84903 6.31153 3.37897C6.37764 2.88742 6.527 2.41643 6.90918 2.03424C7.29137 1.65206 7.76236 1.5027 8.25391 1.43659C8.7121 1.37498 9.28439 1.37502 9.94824 1.37506H14.0518ZM7.75 19.1251C7.75 19.8533 7.75123 20.3241 7.79785 20.671C7.84159 20.9963 7.91264 21.0982 7.96973 21.1553C8.02682 21.2124 8.1288 21.2835 8.4541 21.3272C8.80097 21.3738 9.27178 21.3751 10 21.3751H14C14.7282 21.3751 15.199 21.3738 15.5459 21.3272C15.8712 21.2835 15.9732 21.2124 16.0303 21.1553C16.0874 21.0982 16.1584 20.9963 16.2022 20.671C16.2488 20.3241 16.25 19.8533 16.25 19.1251V14.8751H7.75V19.1251ZM18.75 9.37506C18.1977 9.37506 17.75 9.82278 17.75 10.3751C17.75 10.9273 18.1977 11.3751 18.75 11.3751C19.3023 11.3751 19.75 10.9274 19.75 10.3751C19.75 9.85739 19.3567 9.43128 18.8525 9.37995L18.75 9.37506ZM10 2.87506C9.27178 2.87506 8.80097 2.87629 8.4541 2.92291C8.1288 2.96665 8.02682 3.0377 7.96973 3.09479C7.91264 3.15188 7.84159 3.25386 7.79785 3.57916C7.75123 3.92603 7.75 4.39684 7.75 5.12506V6.37897C8.03863 6.37777 8.34411 6.37506 8.66699 6.37506H15.333C15.6559 6.37506 15.9614 6.37777 16.25 6.37897V5.12506C16.25 4.39684 16.2488 3.92603 16.2022 3.57916C16.1584 3.25386 16.0874 3.15188 16.0303 3.09479C15.9732 3.0377 15.8712 2.96665 15.5459 2.92291C15.199 2.87629 14.7282 2.87506 14 2.87506H10Z" fill="currentColor" fill-rule="evenodd" clip-rule="evenodd"/></svg>
