<svg xmlns="http://www.w3.org/2000/svg" viewBox="0 0 24 24" fill="none"><path d="M17 2.25C20.1436 2.25 22.7499 4.69651 22.75 7.7832C22.75 10.87 20.1436 13.3154 17 13.3154C16.6288 13.3158 16.2589 13.2823 15.8945 13.2139C15.8442 13.2044 15.802 13.1969 15.7656 13.1904L15.749 13.1875C15.7406 13.186 15.7329 13.1839 15.7256 13.1826C15.6819 13.2049 15.6239 13.2357 15.54 13.2803C14.7508 13.6999 13.8292 13.8493 12.9385 13.6836C12.6784 13.6352 12.4633 13.4534 12.3721 13.2051C12.2809 12.9569 12.3265 12.6789 12.4932 12.4736C12.6822 12.2411 12.8131 11.96 12.875 11.6562C12.8722 11.6507 12.8691 11.6424 12.8633 11.6338L12.8252 11.5879C11.8533 10.6009 11.25 9.26169 11.25 7.7832C11.2501 4.69651 13.8564 2.25 17 2.25ZM15.3496 6.64941C14.8805 6.64962 14.5002 7.02989 14.5 7.49902C14.5 7.96834 14.8803 8.3494 15.3496 8.34961C15.819 8.34961 16.2002 7.96847 16.2002 7.49902C16.2 7.02976 15.8189 6.64941 15.3496 6.64941ZM18.6504 6.64941C18.2102 6.64941 17.848 6.98428 17.8047 7.41309L17.7998 7.5L17.8047 7.58691C17.8484 8.01531 18.2104 8.34961 18.6504 8.34961C19.1195 8.3494 19.4998 7.96912 19.5 7.5C19.5 7.06004 19.1657 6.69802 18.7373 6.6543L18.6504 6.64941Z" fill="currentColor"/><path d="M10.25 12.5C10.25 14.2949 8.79493 15.75 7 15.75C5.20507 15.75 3.75 14.2949 3.75 12.5C3.75 10.7051 5.20507 9.25 7 9.25C8.79493 9.25 10.25 10.7051 10.25 12.5Z" fill="currentColor"/><path d="M12.75 21C12.75 17.8244 10.1756 15.25 7 15.25C3.82436 15.25 1.25 17.8244 1.25 21C1.25 21.4142 1.58579 21.75 2 21.75H12C12.4142 21.75 12.75 21.4142 12.75 21Z" fill="currentColor"/></svg>
