<svg xmlns="http://www.w3.org/2000/svg" viewBox="0 0 24 24" fill="none"><path opacity="0.4" d="M5.26648 2.35645C5.00154 2.27006 4.71016 2.25284 4.39148 2.25H3.69226C3.33278 2.25336 3.00709 2.27319 2.71863 2.37695C2.07736 2.6077 1.58482 3.12566 1.36902 3.76953C1.27251 4.05762 1.25316 4.38319 1.24988 4.75293V18V18.0365C1.24986 18.7074 1.24984 19.2826 1.30945 19.7422C1.37259 20.2289 1.51425 20.698 1.88367 21.0811C2.25828 21.4693 2.72545 21.6216 3.20984 21.6885C3.65684 21.7501 4.21449 21.7501 4.85693 21.75L4.91882 21.75H4.96795C5.7068 21.75 6.34193 21.7501 6.84265 21.6777C7.37723 21.6005 7.89144 21.4245 8.27527 20.9678C8.65353 20.5176 8.74883 19.9832 8.74988 19.4404C8.75084 18.9293 8.66553 18.2931 8.56534 17.5458L8.5575 17.4873L6.85047 4.74414C6.78794 4.27755 6.74204 3.87993 6.58875 3.54492C6.33154 2.98309 5.85562 2.54866 5.26648 2.35645Z" fill="currentColor"/><path d="M19.2499 16C20.0386 16 20.6644 16.1539 21.1981 16.4121C21.7115 16.6606 22.0999 16.9893 22.3905 17.2314C22.8145 17.585 22.8718 18.2164 22.5184 18.6406C22.1649 19.0648 21.5335 19.122 21.1093 18.7686C20.8001 18.5109 20.5883 18.3394 20.327 18.2129C20.0858 18.0962 19.761 18 19.2499 18C18.7701 18 18.4495 18.0932 18.1981 18.2139C17.9254 18.3448 17.6973 18.5233 17.3749 18.7812C17.0724 19.0232 16.6753 19.3448 16.1669 19.5889C15.6371 19.8432 15.0199 20 14.2499 20C13.4612 20 12.8354 19.8461 12.3016 19.5879C11.7882 19.3395 11.3998 19.0107 11.1093 18.7686C10.8001 18.5109 10.5883 18.3394 10.327 18.2129C10.0858 18.0962 9.76096 18 9.24988 18C9.0062 18 8.80329 18.024 8.62976 18.0635C8.60847 17.8976 8.58928 17.7247 8.56531 17.5459L8.36804 16.0771C8.6388 16.0277 8.93122 16 9.24988 16C10.0386 16 10.6644 16.1539 11.1981 16.4121C11.7115 16.6606 12.0999 16.9893 12.3905 17.2314C12.6997 17.4891 12.9114 17.6606 13.1727 17.7871C13.414 17.9038 13.7388 18 14.2499 18C14.7296 18 15.0503 17.9068 15.3016 17.7861C15.5743 17.6552 15.8024 17.4767 16.1249 17.2188C16.4273 16.9768 16.8244 16.6552 17.3329 16.4111C17.8627 16.1569 18.4799 16 19.2499 16Z" fill="currentColor"/><path d="M19.2499 10C20.0386 10 20.6644 10.1539 21.1981 10.4121C21.7115 10.6606 22.0999 10.9893 22.3905 11.2314C22.8145 11.585 22.8718 12.2164 22.5184 12.6406C22.1649 13.0648 21.5335 13.122 21.1093 12.7686C20.8001 12.5109 20.5883 12.3394 20.327 12.2129C20.0858 12.0962 19.761 12 19.2499 12C18.7701 12 18.4495 12.0932 18.1981 12.2139C17.9254 12.3448 17.6973 12.5233 17.3749 12.7812C17.0724 13.0232 16.6753 13.3448 16.1669 13.5889C15.6371 13.8432 15.0199 14 14.2499 14C13.4612 14 12.8354 13.8461 12.3016 13.5879C11.7882 13.3395 11.3998 13.0107 11.1093 12.7686C10.8001 12.5109 10.5883 12.3394 10.327 12.2129C10.0858 12.0962 9.76097 12 9.24988 12C8.60141 12 8.21969 12.1689 7.87585 12.4004L7.5946 10.2998C8.05058 10.119 8.58719 10 9.24988 10C10.0386 10 10.6644 10.1539 11.1981 10.4121C11.7115 10.6606 12.0999 10.9893 12.3905 11.2314C12.6997 11.4891 12.9114 11.6606 13.1727 11.7871C13.414 11.9038 13.7388 12 14.2499 12C14.7296 12 15.0503 11.9068 15.3016 11.7861C15.5743 11.6552 15.8024 11.4767 16.1249 11.2188C16.4273 10.9768 16.8244 10.6552 17.3329 10.4111C17.8627 10.1569 18.4799 10 19.2499 10Z" fill="currentColor"/></svg>
