<svg xmlns="http://www.w3.org/2000/svg" viewBox="0 0 24 24" fill="none"><path d="M5.26611 2.35645C5.00117 2.27006 4.7098 2.25284 4.39111 2.25H3.6919C3.33241 2.25336 3.00672 2.27319 2.71826 2.37695C2.07699 2.6077 1.58445 3.12566 1.36865 3.76953C1.27214 4.05762 1.2528 4.38319 1.24951 4.75293V18V18.0365C1.24949 18.7074 1.24947 19.2826 1.30908 19.7422C1.37222 20.2289 1.51389 20.698 1.8833 21.0811C2.25792 21.4693 2.72508 21.6216 3.20947 21.6885C3.65647 21.7501 4.21412 21.7501 4.85656 21.75L4.91846 21.75H4.96759C5.70643 21.75 6.34156 21.7501 6.84229 21.6777C7.37686 21.6005 7.89108 21.4245 8.2749 20.9678C8.65316 20.5176 8.74846 19.9832 8.74951 19.4404C8.75047 18.9293 8.66516 18.2931 8.56498 17.5458L8.55713 17.4873L6.8501 4.74414C6.78757 4.27755 6.74168 3.87993 6.58838 3.54492C6.33118 2.98309 5.85526 2.54866 5.26611 2.35645Z" fill="currentColor"/><path d="M19.2492 10C20.038 10 20.6637 10.1538 21.1975 10.4121C21.7109 10.6606 22.0993 10.9893 22.3899 11.2314C22.8141 11.585 22.8713 12.2164 22.5178 12.6406C22.1642 13.0648 21.5329 13.1221 21.1086 12.7686C20.7994 12.5109 20.5877 12.3394 20.3264 12.2129C20.0851 12.0962 19.7604 12 19.2492 12C18.7694 12 18.4489 12.0932 18.1975 12.2139C17.9248 12.3448 17.6967 12.5232 17.3742 12.7812C17.0718 13.0232 16.6748 13.3448 16.1662 13.5889C15.6364 13.8432 15.0193 14 14.2492 14C13.4604 14 12.8348 13.8462 12.301 13.5879C11.7875 13.3394 11.3992 13.0107 11.1086 12.7686C10.7994 12.5109 10.5877 12.3394 10.3264 12.2129C10.0851 12.0962 9.76045 12 9.24924 12C8.56665 12 8.17993 12.1873 7.8215 12.4375C7.36866 12.7536 6.74507 12.6433 6.42892 12.1904C6.11278 11.7376 6.22413 11.114 6.67697 10.7979C7.30541 10.3591 8.08376 10 9.24924 10C10.038 10 10.6637 10.1538 11.1975 10.4121C11.7109 10.6606 12.0993 10.9893 12.3899 11.2314C12.6991 11.4891 12.9107 11.6606 13.1721 11.7871C13.4133 11.9038 13.738 12 14.2492 12C14.7291 12 15.0496 11.9068 15.301 11.7861C15.5737 11.6552 15.8017 11.4768 16.1242 11.2188C16.4267 10.9768 16.8237 10.6552 17.3322 10.4111C17.8621 10.1568 18.4791 10 19.2492 10Z" fill="currentColor"/><path d="M19.2492 16C20.038 16 20.6637 16.1538 21.1975 16.4121C21.7109 16.6606 22.0993 16.9893 22.3899 17.2314C22.814 17.585 22.8713 18.2164 22.5178 18.6406C22.1642 19.0648 21.5329 19.1221 21.1086 18.7686C20.7994 18.5109 20.5877 18.3394 20.3264 18.2129C20.0851 18.0962 19.7604 18 19.2492 18C18.7694 18 18.4489 18.0932 18.1975 18.2139C17.9248 18.3448 17.6967 18.5232 17.3742 18.7812C17.0718 19.0232 16.6748 19.3448 16.1662 19.5889C15.6364 19.8432 15.0193 20 14.2492 20C13.4604 20 12.8348 19.8462 12.301 19.5879C11.7875 19.3394 11.3992 19.0107 11.1086 18.7686C10.7994 18.5109 10.5877 18.3394 10.3264 18.2129C10.0851 18.0962 9.76044 18 9.24923 18C8.76336 18 8.4404 18.0953 8.18673 18.2188C7.69017 18.4605 7.09156 18.2544 6.84982 17.7578C6.60814 17.2613 6.8152 16.6626 7.31173 16.4209C7.84552 16.1611 8.46849 16 9.24923 16C10.038 16 10.6637 16.1538 11.1975 16.4121C11.7109 16.6606 12.0993 16.9893 12.3899 17.2314C12.6991 17.4891 12.9107 17.6606 13.1721 17.7871C13.4133 17.9038 13.738 18 14.2492 18C14.7291 18 15.0496 17.9068 15.301 17.7861C15.5737 17.6552 15.8017 17.4768 16.1242 17.2188C16.4267 16.9768 16.8237 16.6552 17.3322 16.4111C17.8621 16.1568 18.4791 16 19.2492 16Z" fill="currentColor"/></svg>
