<svg xmlns="http://www.w3.org/2000/svg" viewBox="0 0 24 24" fill="none"><path opacity="0.4" d="M15.1105 2.48327C14.1679 1.75359 13.2677 1.30047 12.2189 1.25476C12.0731 1.24841 11.9271 1.24841 11.7814 1.25476C10.7325 1.30047 9.8323 1.75359 8.88977 2.48327C7.9727 3.19326 6.93762 4.22837 5.62688 5.53913L5.58313 5.58288L5.53937 5.62664C4.22861 6.93737 3.1935 7.97246 2.48352 8.88952C1.75383 9.83205 1.30071 10.7323 1.255 11.7811C1.24866 11.9269 1.24866 12.0729 1.255 12.2186C1.30071 13.2675 1.75383 14.1677 2.48352 15.1102C3.19351 16.0273 4.22863 17.0624 5.5394 18.3731L5.58313 18.4169L5.62685 18.4606C6.9376 19.7714 7.9727 20.8065 8.88977 21.5165C9.8323 22.2462 10.7325 22.6993 11.7814 22.745C11.9271 22.7513 12.0731 22.7513 12.2189 22.745C13.2677 22.6993 14.1679 22.2462 15.1105 21.5165C16.0275 20.8065 17.0627 19.7714 18.3734 18.4606L18.4171 18.4169L18.4608 18.3732C19.7716 17.0624 20.8067 16.0273 21.5167 15.1102C22.2464 14.1677 22.6995 13.2675 22.7452 12.2186C22.7516 12.0729 22.7516 11.9269 22.7452 11.7811C22.6995 10.7323 22.2464 9.83205 21.5167 8.88952C20.8067 7.97245 19.7716 6.93735 18.4608 5.6266L18.4171 5.58288L18.3734 5.53915C17.0626 4.22838 16.0275 3.19326 15.1105 2.48327Z" fill="currentColor"/><path d="M9.70711 15.7071C9.31658 16.0976 8.68357 16.0976 8.29304 15.7071C7.90252 15.3166 7.90252 14.6836 8.29304 14.293L14.293 8.29304C14.6836 7.90252 15.3166 7.90252 15.7071 8.29304C16.0976 8.68357 16.0976 9.31658 15.7071 9.70711L9.70711 15.7071Z" fill="currentColor"/><path d="M9.00012 8C9.55241 8 10.0001 8.44772 10.0001 9C10.0001 9.55229 9.5524 10 9.00012 10C8.44784 10 8.00012 9.55228 8.00012 9C8.00012 8.44772 8.44783 8 9.00012 8Z" fill="currentColor"/><path d="M15.0001 14C15.5524 14 16.0001 14.4477 16.0001 15C16.0001 15.5523 15.5524 16 15.0001 16C14.4478 16 14.0001 15.5523 14.0001 15C14.0001 14.4477 14.4478 14 15.0001 14Z" fill="currentColor"/></svg>
