<svg xmlns="http://www.w3.org/2000/svg" viewBox="0 0 24 24" fill="none"><path d="M12.2189 1.25476C13.2677 1.3005 14.168 1.75361 15.1105 2.48327C16.0275 3.19324 17.0625 4.22827 18.3732 5.53894L18.4611 5.62683C19.7717 6.93741 20.8068 7.97253 21.5167 8.88952C22.2463 9.832 22.6995 10.7323 22.7452 11.7811C22.7516 11.9268 22.7516 12.0729 22.7452 12.2186C22.6995 13.2674 22.2464 14.1677 21.5167 15.1102C20.8068 16.0272 19.7717 17.0623 18.4611 18.3729L18.3732 18.4608C17.0625 19.7715 16.0275 20.8065 15.1105 21.5165C14.168 22.2461 13.2677 22.6992 12.2189 22.745C12.0731 22.7513 11.9271 22.7513 11.7814 22.745C10.7326 22.6993 9.83224 22.2461 8.88977 21.5165C7.97277 20.8065 6.93766 19.7714 5.62707 18.4608L5.53918 18.3729C4.22852 17.0623 3.19349 16.0272 2.48352 15.1102C1.75386 14.1677 1.30074 13.2674 1.255 12.2186C1.24866 12.0729 1.24866 11.9269 1.255 11.7811C1.30071 10.7323 1.75384 9.83204 2.48352 8.88952C3.19347 7.9725 4.22851 6.93747 5.53918 5.62683L5.62707 5.53894C6.93771 4.22827 7.97275 3.19322 8.88977 2.48327C9.83229 1.75359 10.7325 1.30047 11.7814 1.25476C11.9271 1.24842 12.0731 1.24841 12.2189 1.25476ZM15.7071 8.29284C15.3167 7.90236 14.6836 7.90244 14.2931 8.29284L8.29309 14.2928C7.90256 14.6834 7.90256 15.3164 8.29309 15.7069C8.68361 16.0974 9.31664 16.0974 9.70715 15.7069L15.7071 9.7069C16.0975 9.31639 16.0976 8.68333 15.7071 8.29284ZM15.0001 13.9999C14.4478 13.9999 14.0001 14.4476 14.0001 14.9999C14.0001 15.5522 14.4478 15.9999 15.0001 15.9999C15.5523 15.9998 16.0001 15.5521 16.0001 14.9999C16.0001 14.4476 15.5523 13.9999 15.0001 13.9999ZM9.00012 7.99987C8.44783 7.99987 8.00012 8.44759 8.00012 8.99987C8.00012 9.55216 8.44783 9.99987 9.00012 9.99987C9.55234 9.99981 10.0001 9.55212 10.0001 8.99987C10.0001 8.44763 9.55234 7.99994 9.00012 7.99987Z" fill="currentColor" fill-rule="evenodd" clip-rule="evenodd"/></svg>
