<svg xmlns="http://www.w3.org/2000/svg" viewBox="0 0 24 24" fill="none"><path opacity="0.4" d="M10.5001 4.75C6.49606 4.75 3.25012 7.99594 3.25012 12C3.25012 14.4439 4.4614 16.6026 6.31165 17.915L6.54797 19.3379C6.60709 19.6952 6.65838 20.0845 6.84778 20.4004C7.04588 20.7305 7.34711 20.9865 7.7052 21.1279C7.96199 21.2294 8.24662 21.2473 8.52551 21.25H9.05774C9.31731 21.2476 9.58357 21.2318 9.82727 21.1416C10.1673 21.0157 10.4596 20.7867 10.6642 20.4873C10.8595 20.2014 10.9371 19.8457 11.0187 19.5195L11.0861 19.25H12.9142L12.9816 19.5195C13.0631 19.8457 13.1407 20.2014 13.3361 20.4873C13.5406 20.7867 13.833 21.0157 14.173 21.1416C14.4167 21.2318 14.6829 21.2476 14.9425 21.25H15.4747C15.7536 21.2473 16.0383 21.2294 16.295 21.1279C16.6531 20.9865 16.9544 20.7305 17.1525 20.4004C17.3419 20.0845 17.3932 19.6952 17.4523 19.3379L17.6876 17.917C18.6808 17.213 19.4882 16.2656 20.0245 15.1602L20.5402 15.0576L20.572 15.0513C20.9261 14.9804 21.2561 14.9144 21.5226 14.8262C21.8166 14.7288 22.1166 14.5792 22.3536 14.29C22.5907 14.0008 22.6782 13.6766 22.7159 13.3691C22.7502 13.0901 22.7502 12.7528 22.7501 12.391V12.3604V12.0615V12.0368C22.7501 11.6894 22.7502 11.3645 22.7179 11.0947C22.6825 10.7986 22.6002 10.4874 22.379 10.2041C22.1578 9.92076 21.8756 9.76538 21.5968 9.65918C21.3452 9.56336 21.0338 9.4847 20.7003 9.40137C20.5869 8.69646 20.2883 8.05867 19.9396 7.52637C19.5799 6.97752 19.1483 6.50975 18.7501 6.15332V3.5C18.7501 3.08579 18.4143 2.75 18.0001 2.75H17.7365C16.2428 2.75 14.8667 3.5131 14.0685 4.75H10.5001Z" fill="currentColor"/><path d="M15.7501 8.75C16.3024 8.75 16.7501 9.19772 16.7501 9.75C16.7501 10.3023 16.3024 10.75 15.7501 10.75C15.1978 10.75 14.7501 10.3023 14.7501 9.75C14.7501 9.19772 15.1978 8.75 15.7501 8.75Z" fill="currentColor"/><path d="M2.00012 7.25C2.41434 7.25 2.75012 7.58579 2.75012 8V10C2.75012 10.4369 2.97497 10.8205 3.31458 11.0439C3.27334 11.3569 3.25012 11.6758 3.25012 12C3.25012 12.2196 3.26222 12.4368 3.28137 12.6514C2.11165 12.335 1.25012 11.2698 1.25012 10V8C1.25012 7.58579 1.58591 7.25 2.00012 7.25Z" fill="currentColor"/></svg>
