<svg xmlns="http://www.w3.org/2000/svg" viewBox="0 0 24 24" fill="none"><path d="M18.0001 2.75C18.4143 2.75 18.7501 3.08579 18.7501 3.5V6.15332C19.1483 6.50975 19.5799 6.97752 19.9396 7.52637C20.2883 8.05867 20.5869 8.69646 20.7003 9.40137C21.0338 9.4847 21.3452 9.56336 21.5968 9.65918C21.8756 9.76538 22.1578 9.92076 22.379 10.2041C22.6002 10.4874 22.6825 10.7986 22.7179 11.0947C22.7502 11.3645 22.7501 11.6897 22.7501 12.0371V12.3906C22.7502 12.7524 22.7502 13.0901 22.7159 13.3691C22.6782 13.6766 22.5907 14.0008 22.3536 14.29C22.1166 14.5792 21.8166 14.7288 21.5226 14.8262C21.2562 14.9143 20.9263 14.98 20.5724 15.0508L20.5402 15.0576L20.0245 15.1602C19.4882 16.2656 18.6808 17.213 17.6876 17.917L17.4523 19.3379C17.3932 19.6952 17.3419 20.0845 17.1525 20.4004C16.9544 20.7305 16.6531 20.9865 16.295 21.1279C16.0383 21.2294 15.7536 21.2473 15.4747 21.25H14.9425C14.6829 21.2476 14.4167 21.2318 14.173 21.1416C13.833 21.0157 13.5406 20.7867 13.3361 20.4873C13.1407 20.2014 13.0631 19.8457 12.9816 19.5195L12.9142 19.25H11.0861L11.0187 19.5195C10.9371 19.8457 10.8595 20.2014 10.6642 20.4873C10.4596 20.7867 10.1673 21.0157 9.82727 21.1416C9.58357 21.2318 9.31731 21.2476 9.05774 21.25H8.52551C8.24662 21.2473 7.96199 21.2294 7.7052 21.1279C7.34711 20.9865 7.04588 20.7305 6.84778 20.4004C6.65838 20.0845 6.60709 19.6952 6.54797 19.3379L6.31165 17.915C4.62768 16.7206 3.47531 14.8249 3.28137 12.6514C2.11165 12.335 1.25012 11.2698 1.25012 10V8C1.25012 7.58579 1.58591 7.25 2.00012 7.25C2.41434 7.25 2.75012 7.58579 2.75012 8V10C2.75012 10.4369 2.97497 10.8205 3.31458 11.0439C3.78263 7.49187 6.82024 4.75 10.5001 4.75H14.0685C14.8667 3.5131 16.2428 2.75 17.7365 2.75H18.0001ZM15.7501 8.75C15.1978 8.75 14.7501 9.19772 14.7501 9.75C14.7501 10.3023 15.1978 10.75 15.7501 10.75C16.3024 10.75 16.7501 10.3023 16.7501 9.75C16.7501 9.19772 16.3024 8.75 15.7501 8.75Z" fill="currentColor"/></svg>
