<svg xmlns="http://www.w3.org/2000/svg" fill="none" viewBox="0 0 48 48">
  <g>
    <path fill="currentColor" fill-opacity="0.4" fill-rule="evenodd" d="M0.5 18c0 -3.6622 0.184485 -6.4673 0.402728 -8.50447C1.25194 6.23586 3.92224 4.01066 7.05323 3.8541 10.432 3.68516 15.9672 3.5 24 3.5s13.568 0.18516 16.9468 0.3541c3.1309 0.15656 5.8013 2.38176 6.1505 5.64142C47.3155 11.5327 47.5 14.3378 47.5 18c0 3.6622 -0.1845 6.4673 -0.4027 8.5045 -0.3492 3.2596 -3.0195 5.4848 -6.1505 5.6414 -3.3788 0.1689 -8.914 0.3541 -16.9468 0.3541s-13.568 -0.1852 -16.94676 -0.3541c-3.13099 -0.1566 -5.8013 -2.3818 -6.150511 -5.6414C0.684486 24.4673 0.5 21.6622 0.5 18Z" clip-rule="evenodd" stroke-width="3.429"></path>
    <path fill="currentColor" fill-rule="evenodd" d="M47.4692 20.5c-0.0608 2.4698 -0.207 4.4583 -0.3727 6.0045 -0.3492 3.2596 -3.0195 5.4848 -6.1505 5.6414 -3.3787 0.1689 -8.914 0.3541 -16.9467 0.3541 -8.0328 0 -13.5681 -0.1852 -16.94681 -0.3541 -3.13099 -0.1566 -5.8013 -2.3818 -6.150508 -5.6414C0.736343 24.9583 0.590149 22.9698 0.529297 20.5H47.4692Z" clip-rule="evenodd" stroke-width="3.429"></path>
    <path fill="currentColor" fill-rule="evenodd" d="M12.0002 34c1.1046 0 2 0.8954 2 2 0 2.531 -0.9562 4.4417 -1.9 5.7 -0.8235 1.098 -1.6349 1.7128 -1.9072 1.9065 -0.90918 0.6465 -2.22129 0.4563 -2.85689 -0.4971 -0.60919 -0.9138 -0.36718 -2.1466 0.53896 -2.7629 0.03631 -0.0258 0.53734 -0.3961 1.02514 -1.0465 0.55625 -0.7417 1.09999 -1.831 1.09999 -3.3 0 -1.1046 0.8954 -2 2 -2Zm8.0007 0c1.1046 0 2 0.8954 2 2 0 2.4749 -0.4128 4.4281 -0.8428 5.7898 -0.376 1.1904 -0.7635 1.9253 -0.8998 2.1662 -0.5487 0.9692 -1.8121 1.3436 -2.7864 0.759 -0.9895 -0.5937 -1.1888 -1.799 -0.6725 -2.7701 0.0724 -0.1362 0.304 -0.5987 0.5443 -1.3597 0.32 -1.0133 0.6572 -2.5601 0.6572 -4.5852 0 -1.1046 0.8954 -2 2 -2ZM28 34c-1.1046 0 -2 0.8954 -2 2 0 2.4749 0.4128 4.4281 0.8428 5.7898 0.3759 1.1904 0.7635 1.9253 0.8998 2.1662 0.5479 0.9679 1.8121 1.3435 2.7864 0.759 0.9896 -0.5938 1.1887 -1.799 0.6725 -2.7701 -0.0724 -0.1362 -0.304 -0.5987 -0.5443 -1.3597C30.3372 39.5719 30 38.0251 30 36c0 -1.1046 -0.8954 -2 -2 -2Zm8 0c-1.1046 0 -2 0.8954 -2 2 0 2.531 0.9562 4.4417 1.9 5.7 0.8235 1.098 1.6349 1.7128 1.9073 1.9065 0.9105 0.6475 2.2212 0.4564 2.8568 -0.4971 0.6466 -0.9699 0.2948 -2.1268 -0.5809 -2.794 -0.1379 -0.1051 -0.5637 -0.4561 -0.9832 -1.0154 -0.5562 -0.7417 -1.1 -1.831 -1.1 -3.3 0 -1.1046 -0.8954 -2 -2 -2Z" clip-rule="evenodd" stroke-width="3.429"></path>
    <path fill="currentColor" fill-opacity="0.4" fill-rule="evenodd" d="M7.25 26.5c0 -0.9665 0.7835 -1.75 1.75 -1.75h30c0.9665 0 1.75 0.7835 1.75 1.75s-0.7835 1.75 -1.75 1.75H9c-0.9665 0 -1.75 -0.7835 -1.75 -1.75Z" clip-rule="evenodd" stroke-width="3.429"></path>
    <path fill="currentColor" fill-rule="evenodd" d="M33 13.5c-1.1046 0 -2 0.8954 -2 2s0.8954 2 2 2h1c1.1046 0 2 -0.8954 2 -2s-0.8954 -2 -2 -2h-1Zm7 0c-1.1046 0 -2 0.8954 -2 2s0.8954 2 2 2h1c1.1046 0 2 -0.8954 2 -2s-0.8954 -2 -2 -2h-1Z" clip-rule="evenodd" stroke-width="3.429"></path>
  </g>
</svg>
