<svg xmlns="http://www.w3.org/2000/svg" fill="none" viewBox="0 0 48 48">
  <g>
    <path fill="currentColor" fill-rule="evenodd" d="M47.4996 17.5c-0.0158 -3.4186 -0.1933 -6.061 -0.4015 -8.00448 -0.3492 -3.25966 -3.0196 -5.48486 -6.1505 -5.64142 -3.3788 -0.16894 -8.914 -0.3541 -16.9468 -0.3541s-13.568 0.18516 -16.94677 0.3541c-3.13099 0.15656 -5.8013 2.38176 -6.150505 5.64143C0.695322 11.439 0.517842 14.0814 0.501953 17.5H47.4996Zm-46.96876 3c0.060852 2.4698 0.207046 4.4583 0.372685 6.0045 0.349205 3.2596 3.019525 5.4848 6.150505 5.6414 3.37877 0.1689 8.91397 0.3541 16.94677 0.3541s13.568 -0.1852 16.9468 -0.3541c3.131 -0.1566 5.8013 -2.3818 6.1505 -5.6414 0.1656 -1.5462 0.3118 -3.5347 0.3727 -6.0045H0.53084ZM7.5008 26c0 -0.8284 0.67157 -1.5 1.5 -1.5h30c0.8284 0 1.5 0.6716 1.5 1.5s-0.6716 1.5 -1.5 1.5h-30c-0.82843 0 -1.5 -0.6716 -1.5 -1.5Zm32.5 -15c-0.8284 0 -1.5 0.6716 -1.5 1.5s0.6716 1.5 1.5 1.5h1c0.8284 0 1.5 -0.6716 1.5 -1.5s-0.6716 -1.5 -1.5 -1.5h-1Zm-7.5 1.5c0 -0.8284 0.6716 -1.5 1.5 -1.5h1c0.8284 0 1.5 0.6716 1.5 1.5s-0.6716 1.5 -1.5 1.5h-1c-0.8284 0 -1.5 -0.6716 -1.5 -1.5ZM12.0002 34c1.1046 0 2 0.8954 2 2 0 2.531 -0.9562 4.4417 -1.9 5.7 -0.8235 1.098 -1.6349 1.7128 -1.9072 1.9065 -0.90918 0.6465 -2.22129 0.4563 -2.85689 -0.4971 -0.60919 -0.9138 -0.36718 -2.1466 0.53896 -2.7629 0.03631 -0.0258 0.53734 -0.3961 1.02514 -1.0465 0.55625 -0.7417 1.09999 -1.831 1.09999 -3.3 0 -1.1046 0.8954 -2 2 -2Zm24 0c-1.1046 0 -2 0.8954 -2 2 0 2.531 0.9563 4.4417 1.9 5.7 0.8235 1.098 1.6349 1.7128 1.9073 1.9065 0.9106 0.6475 2.2212 0.4564 2.8568 -0.4971 0.6466 -0.9699 0.2948 -2.1268 -0.5809 -2.794 -0.1379 -0.1051 -0.5637 -0.4561 -0.9832 -1.0154 -0.5562 -0.7417 -1.1 -1.831 -1.1 -3.3 0 -1.1046 -0.8954 -2 -2 -2Zm-8 0c-1.1046 0 -2 0.8954 -2 2 0 2.4749 0.4128 4.4281 0.8428 5.7898 0.376 1.1904 0.7635 1.9253 0.8999 2.1662 0.5478 0.968 1.812 1.3435 2.7863 0.759 0.9896 -0.5938 1.1887 -1.799 0.6725 -2.7701 -0.0724 -0.1362 -0.304 -0.5987 -0.5443 -1.3597 -0.32 -1.0133 -0.6572 -2.5601 -0.6572 -4.5852 0 -1.1046 -0.8954 -2 -2 -2Zm-8 0c1.1046 0 2 0.8954 2 2 0 2.4749 -0.4128 4.4281 -0.8428 5.7898 -0.3759 1.1904 -0.7635 1.9253 -0.8998 2.1662 -0.5486 0.9692 -1.812 1.3436 -2.7864 0.759 -0.9895 -0.5937 -1.1887 -1.799 -0.6725 -2.7701 0.0725 -0.1362 0.3041 -0.5987 0.5443 -1.3597 0.32 -1.0133 0.6572 -2.5601 0.6572 -4.5852 0 -1.1046 0.8954 -2 2 -2Z" clip-rule="evenodd" stroke-width="3.429"></path>
  </g>
</svg>
