<svg xmlns="http://www.w3.org/2000/svg" viewBox="0 0 24 24" fill="none"><path opacity="0.4" d="M12 18C12.5523 18 13 18.4477 13 19V21H20C20.5523 21 21 21.4477 21 22C21 22.5523 20.5523 23 20 23H4C3.44772 23 3 22.5523 3 22C3 21.4477 3.44772 21 4 21H11V19C11 18.4477 11.4477 18 12 18Z" fill="currentColor" fill-rule="evenodd" clip-rule="evenodd"/><path d="M12 1C14.4908 1 16.4999 3.02944 16.5 5.52051V7.96973C17.8807 9.20568 18.75 11.0011 18.75 13C18.75 16.7279 15.7279 19.75 12 19.75C8.27208 19.75 5.25 16.7279 5.25 13C5.25 11.0011 6.11934 9.20568 7.5 7.96973V5.52051C7.50007 3.02944 9.50923 1 12 1ZM12 12C11.4477 12 11 12.4477 11 13C11 13.5523 11.4477 14 12 14H12.0088C12.5611 14 13.0088 13.5523 13.0088 13C13.0088 12.4477 12.5611 12 12.0088 12H12ZM12 3C10.6249 3 9.50006 4.12291 9.5 5.52051V6.72949C10.2733 6.42091 11.1166 6.25 12 6.25C12.8834 6.25 13.7267 6.42091 14.5 6.72949V5.52051C14.4999 4.12291 13.3751 3 12 3Z" fill="currentColor"/></svg>
