<svg xmlns="http://www.w3.org/2000/svg" viewBox="0 0 24 24" fill="none"><path d="M14.1373 1.416C14.2353 1.45076 14.3314 1.49075 14.4251 1.53582C14.8799 1.75449 15.2362 2.11356 15.6387 2.51921L20.4215 7.32686L20.4215 7.32686C20.8889 7.79521 21.3036 8.21088 21.5277 8.75463C21.6265 8.99435 21.6816 9.24282 21.7122 9.50258H19.7314C18.3638 9.5026 17.7152 9.50181 16.8483 9.38525C15.9481 9.26424 15.1903 9.00534 14.5884 8.40343C13.9864 7.80151 13.7275 7.04364 13.6065 6.14353C13.4902 5.27834 13.4902 4.63063 13.4902 3.2688V3.26877V1.27734C13.7136 1.30042 13.9283 1.34184 14.1373 1.416Z" fill="currentColor"/><path opacity="0.4" d="M12.5896 1.24815L12.5879 1.24815C11.0624 1.24813 9.65452 1.24856 8.67578 1.36338C7.66314 1.48223 6.79458 1.7355 6.05957 2.33116C5.79006 2.54963 5.5445 2.79657 5.32715 3.06749C4.73462 3.80621 4.48252 4.67866 4.36426 5.69639C4.25 6.6801 4.24998 7.91694 4.25 9.4503V11.088C5.33416 10.3987 6.62009 9.99815 8 9.99815C11.866 9.99815 14.9999 13.1322 15 16.9981C15 19.3794 13.8099 21.4817 11.9932 22.7462C12.3423 22.7475 12.7025 22.7482 13.0713 22.7481H13.0866C14.8521 22.7482 16.276 22.7482 17.3965 22.5968C18.5633 22.4391 19.5459 22.1008 20.3262 21.3165C21.1061 20.5323 21.4418 19.5448 21.5986 18.3722C21.7497 17.2426 21.75 15.8062 21.75 14.0245V10.5499C21.751 9.88665 21.7514 9.29769 21.5273 8.75401C21.3033 8.21051 20.8891 7.79445 20.4219 7.32628L15.6387 2.51866C15.2362 2.11306 14.8796 1.75391 14.4248 1.53526C14.3312 1.4903 14.2355 1.44984 14.1377 1.41514C13.6629 1.24671 13.1586 1.24739 12.5896 1.24815Z" fill="currentColor"/><path d="M7.25 13.999C7.25 14.6849 7.24833 15.2751 7.31152 15.7451C7.37764 16.2367 7.527 16.7077 7.90918 17.0898C8.29136 17.472 8.76236 17.6214 9.25391 17.6875C9.72397 17.7507 10.3141 17.749 11 17.749H13.7002C13.3326 20.5702 10.9214 22.749 8 22.749C4.82436 22.749 2.25 20.1747 2.25 16.999C2.25 14.0776 4.42882 11.6664 7.25 11.2988V13.999Z" fill="currentColor"/><path d="M8.75 11.2988C11.3257 11.6344 13.3646 13.6734 13.7002 16.249H11C10.2718 16.249 9.80097 16.2478 9.4541 16.2012C9.1288 16.1574 9.02682 16.0864 8.96973 16.0293C8.91263 15.9722 8.84159 15.8702 8.79785 15.5449C8.75123 15.1981 8.75 14.7272 8.75 13.999V11.2988Z" fill="currentColor"/></svg>
