<svg xmlns="http://www.w3.org/2000/svg" viewBox="0 0 24 24" fill="none"><path d="M12.5874 1.24815C13.1571 1.24739 13.6619 1.24654 14.1372 1.41514C14.235 1.44984 14.3308 1.4903 14.4243 1.53526C14.8791 1.75391 15.2358 2.11306 15.6382 2.51866L20.4214 7.32628C20.8886 7.79445 21.3028 8.21051 21.5269 8.75401C21.7509 9.29769 21.7505 9.88665 21.7495 10.5499V14.0245C21.7495 15.8062 21.7492 17.2426 21.5981 18.3722C21.4413 19.5448 21.1056 20.5323 20.3257 21.3165C19.5454 22.1008 18.5628 22.4391 17.396 22.5968C16.2722 22.7486 14.8434 22.7482 13.0708 22.7481C12.702 22.7482 12.3419 22.7475 11.9927 22.7462C13.8095 21.4817 14.9995 19.3794 14.9995 16.9981C14.9995 13.1322 11.8655 9.99815 7.99951 9.99815C6.61961 9.99815 5.33368 10.3987 4.24951 11.088V9.4503C4.24949 7.91694 4.24951 6.6801 4.36377 5.69639C4.48203 4.67866 4.73413 3.80621 5.32666 3.06749C5.54401 2.79657 5.78957 2.54963 6.05908 2.33116C6.79409 1.7355 7.66265 1.48223 8.67529 1.36338C9.65403 1.24856 11.0619 1.24813 12.5874 1.24815ZM13.4897 3.26866C13.4897 4.62995 13.4897 5.27785 13.606 6.14268C13.7269 7.04251 13.9859 7.80062 14.5874 8.40245C15.1893 9.00436 15.948 9.26385 16.8481 9.38487C17.7149 9.50138 18.3636 9.50208 19.731 9.50206C19.6741 9.36429 19.5685 9.23344 18.9507 8.61241L14.3462 3.9835C13.8133 3.44787 13.6714 3.31455 13.4897 3.25987V3.26866Z" fill="currentColor" fill-rule="evenodd" clip-rule="evenodd"/><path d="M7.24951 13.999C7.24951 14.6849 7.24784 15.2751 7.31104 15.7451C7.37715 16.2367 7.52651 16.7077 7.90869 17.0898C8.29088 17.472 8.76187 17.6214 9.25342 17.6875C9.72348 17.7507 10.3136 17.749 10.9995 17.749H13.6997C13.3321 20.5702 10.9209 22.749 7.99951 22.749C4.82387 22.749 2.24951 20.1747 2.24951 16.999C2.24951 14.0776 4.42833 11.6664 7.24951 11.2988V13.999Z" fill="currentColor"/><path d="M8.74951 11.2988C11.3252 11.6344 13.3641 13.6734 13.6997 16.249H10.9995C10.2713 16.249 9.80048 16.2478 9.45361 16.2012C9.12831 16.1574 9.02633 16.0864 8.96924 16.0293C8.91215 15.9722 8.8411 15.8702 8.79736 15.5449C8.75074 15.1981 8.74951 14.7272 8.74951 13.999V11.2988Z" fill="currentColor"/></svg>
