<svg xmlns="http://www.w3.org/2000/svg" viewBox="0 0 24 24" fill="none"><path opacity="0.4" d="M6.90152 18.1615C6.90152 18.1615 8.32024 20.9988 11.1577 20.9988C12.977 20.9988 14.213 19.8323 14.8658 18.9952C15.253 18.4988 15.253 17.8242 14.8658 17.3277C14.213 16.4907 12.977 15.3242 11.1577 15.3242C8.32024 15.3242 6.90152 18.1615 6.90152 18.1615Z" fill="currentColor"/><path opacity="0.4" d="M11.5124 12.8431C11.5124 12.8431 12.9311 15.6804 15.7685 15.6804C17.5878 15.6804 18.8239 14.514 19.4767 13.6769C19.8638 13.1805 19.8638 12.5058 19.4767 12.0094C18.8239 11.1723 17.5878 10.0059 15.7685 10.0059C12.9311 10.0059 11.5124 12.8431 11.5124 12.8431Z" fill="currentColor"/><path opacity="0.4" d="M5.83747 17.098C5.83747 17.098 3.00003 15.6794 3.00003 12.8421C3.00003 11.0228 4.16664 9.7868 5.00377 9.13405C5.50019 8.74698 6.17475 8.74698 6.67116 9.13405C7.5083 9.7868 8.67491 11.0228 8.67491 12.8421C8.67491 15.6794 5.83747 17.098 5.83747 17.098Z" fill="currentColor"/><path opacity="0.4" d="M11.1577 12.4886C11.1577 12.4886 8.32022 11.07 8.32022 8.23272C8.32022 6.41343 9.48683 5.17742 10.324 4.52468C10.8204 4.13761 11.4949 4.13761 11.9914 4.52468C12.8285 5.17742 13.9951 6.41343 13.9951 8.23272C13.9951 11.07 11.1577 12.4886 11.1577 12.4886Z" fill="currentColor"/><path d="M16.1634 3.58015C17.5523 2.19128 19.395 2.16137 20.5071 2.30866C21.1311 2.39132 21.608 2.86831 21.6907 3.49226C21.8381 4.60432 21.8092 6.4471 20.4202 7.83601C18.9853 9.27077 17.0667 9.25183 15.9691 9.08894L3.53058 21.5294C3.23782 21.8221 2.76296 21.8219 2.47003 21.5294C2.17735 21.2365 2.17726 20.7617 2.47003 20.4688L14.9085 8.02839C14.7459 6.93051 14.7299 5.01395 16.1634 3.58015Z" fill="currentColor"/></svg>
