<svg xmlns="http://www.w3.org/2000/svg" viewBox="0 0 24 24" fill="none"><path d="M16.1642 3.58061C17.5531 2.19183 19.3949 2.16186 20.507 2.30913C21.131 2.39178 21.6078 2.8688 21.6906 3.49272C21.8379 4.60478 21.8091 6.44757 20.4201 7.83647C18.9851 9.27123 17.0665 9.25232 15.9689 9.0894L14.9748 10.0835C15.2258 10.0343 15.4904 10.0064 15.7687 10.0064C17.5878 10.0065 18.8239 11.1723 19.4767 12.0093C19.8639 12.5058 19.8639 13.1809 19.4767 13.6773C18.8239 14.5143 17.5879 15.6802 15.7687 15.6802C13.6371 15.6802 12.3058 14.0794 11.7756 13.2828L9.28631 15.773C9.82036 15.5044 10.4439 15.3248 11.1574 15.3248C12.9764 15.3248 14.2125 16.4906 14.8654 17.3277C15.2526 17.8241 15.2526 18.4992 14.8654 18.9957C14.2125 19.8327 12.9765 20.9986 11.1574 20.9986C8.32018 20.9984 6.90154 18.1617 6.90154 18.1617C6.90172 18.1613 6.90214 18.1584 6.90447 18.1539L3.53045 21.5298C3.23765 21.8225 2.76279 21.8224 2.4699 21.5298C2.17725 21.237 2.17721 20.7621 2.4699 20.4693L5.8449 17.0933C5.83971 17.096 5.83709 17.0982 5.83709 17.0982C5.8006 17.0798 3.00017 15.6611 3.00017 12.8423C3.00017 11.0231 4.16694 9.78707 5.00408 9.13432C5.50045 8.74739 6.17471 8.74735 6.67107 9.13432C7.50821 9.78707 8.67498 11.0231 8.67498 12.8423C8.67498 13.554 8.49619 14.1763 8.22869 14.7095L10.714 12.2232C9.91599 11.6912 8.32049 10.3608 8.32049 8.23296C8.32049 6.41368 9.48725 5.17769 10.3244 4.52495C10.8208 4.13805 11.495 4.13794 11.9914 4.52495C12.8285 5.17769 13.9953 6.41368 13.9953 8.23296C13.9953 8.50809 13.9673 8.76966 13.9191 9.01811L14.9084 8.02886C14.7458 6.93087 14.7303 5.01444 16.1642 3.58061Z" fill="currentColor" fill-rule="evenodd" clip-rule="evenodd"/></svg>
