<svg xmlns="http://www.w3.org/2000/svg" viewBox="0 0 24 24" fill="none"><path d="M10.0007 18.998C10.0007 18.4458 9.55302 17.998 9.00073 17.998C8.44845 17.998 8.00073 18.4458 8.00073 18.998C8.00073 19.5503 8.44845 19.998 9.00073 19.998C9.55302 19.998 10.0007 19.5503 10.0007 18.998ZM12.0007 18.998C12.0007 20.6549 10.6576 21.998 9.00073 21.998C7.34388 21.998 6.00073 20.6549 6.00073 18.998C6.00073 17.3412 7.34388 15.998 9.00073 15.998C10.6576 15.998 12.0007 17.3412 12.0007 18.998Z" fill="currentColor"/><path opacity="0.4" d="M13.0011 20C17.9716 19.9998 22.0012 15.9705 22.0012 11C22.0012 6.02954 17.9716 2.00016 13.0011 2C8.18584 2 4.2538 5.78167 4.01287 10.5371L4.00115 11C4.001 11.8717 3.80182 13.1817 2.55193 13.8066C2.07375 14.0457 1.868 14.6189 2.08513 15.1074C3.05835 17.2972 4.74173 18.5652 6.60076 19.2803L6.66131 19.3096C6.92329 19.4339 7.22682 19.4378 7.49236 19.3213C7.75763 19.2047 7.95923 18.9789 8.04509 18.7021C8.17166 18.2937 8.55355 17.999 9.00115 17.999C9.49774 17.9992 9.91184 18.3618 9.98845 18.8369C10.042 19.1691 10.2587 19.452 10.5656 19.5898L10.8703 19.7266C10.9329 19.7546 10.9986 19.7763 11.0656 19.791C11.6897 19.9278 12.338 20 13.0011 20Z" fill="currentColor"/><path d="M9.85132 8.00684C10.3554 8.05817 10.7488 8.48428 10.7488 9.00195C10.7488 9.55424 10.3011 10.002 9.74878 10.002C9.19649 10.002 8.74878 9.55424 8.74878 9.00195C8.74878 8.44967 9.19649 8.00195 9.74878 8.00195L9.85132 8.00684ZM16.2488 8.00195C16.8011 8.00195 17.2488 8.44967 17.2488 9.00195C17.2488 9.55424 16.8011 10.002 16.2488 10.002C15.6965 10.002 15.2488 9.55424 15.2488 9.00195C15.2488 8.44967 15.6965 8.00195 16.2488 8.00195Z" fill="currentColor"/><path d="M15.1672 12.4448C15.474 11.9855 16.0956 11.8617 16.5549 12.1685C17.0142 12.4752 17.138 13.0969 16.8313 13.5561C16.0313 14.754 14.5862 15.5005 12.9993 15.5005C11.4124 15.5005 9.96719 14.754 9.16723 13.5561C8.86052 13.0969 8.98433 12.4752 9.4436 12.1685C9.90288 11.8617 10.5246 11.9855 10.8313 12.4448C11.229 13.0404 12.0223 13.5005 12.9993 13.5005C13.9762 13.5005 14.7695 13.0404 15.1672 12.4448Z" fill="currentColor"/><path d="M17.0007 22C18.6576 22 20.0007 20.6569 20.0007 19C20.0007 18.3569 19.7961 17.7616 19.4519 17.2734C18.9828 17.7557 18.46 18.1849 17.8933 18.5527C17.9612 18.6875 18.0007 18.8387 18.0007 19C18.0007 19.5523 17.553 20 17.0007 20C16.6101 20 16.2709 19.7767 16.1062 19.4502C15.4828 19.6793 14.8266 19.8384 14.1472 19.9248C14.5371 21.129 15.6666 22 17.0007 22Z" fill="currentColor"/></svg>
