<svg xmlns="http://www.w3.org/2000/svg" viewBox="0 0 24 24" fill="none"><path d="M17.0008 22C18.6576 22 20.0008 20.6569 20.0008 19C20.0007 18.3569 19.7961 17.7616 19.452 17.2734C21.029 15.6523 22.0018 13.4402 22.0018 11C22.0018 6.02969 17.972 2.0004 13.0018 2C8.18646 2 4.25442 5.78168 4.01348 10.5371L4.00176 11C4.00161 11.8716 3.80211 13.1816 2.55254 13.8066C2.07436 14.0457 1.86861 14.6189 2.08574 15.1074C2.95288 17.0584 4.38421 18.2769 6.00078 19.0254C6.01546 20.6696 7.35311 21.998 9.00078 21.998C10.334 21.998 11.4627 21.1278 11.8533 19.9248C12.2299 19.9729 12.6132 20 13.0018 20C13.3899 20 13.772 19.9725 14.1473 19.9248C14.5371 21.129 15.6667 22 17.0008 22ZM9.74883 10.002C9.1966 10.0019 8.74883 9.5542 8.74883 9.00195C8.74883 8.44971 9.1966 8.00202 9.74883 8.00195L9.85137 8.00684C10.3555 8.05817 10.7488 8.48428 10.7488 9.00195C10.7488 9.55424 10.3011 10.002 9.74883 10.002ZM16.2488 10.002C15.6966 10.0019 15.2488 9.5542 15.2488 9.00195C15.2488 8.44971 15.6966 8.00202 16.2488 8.00195C16.8011 8.00195 17.2488 8.44967 17.2488 9.00195C17.2488 9.55424 16.8011 10.002 16.2488 10.002ZM12.9998 15.5C11.4129 15.5 9.96773 14.7535 9.16778 13.5557C8.8612 13.0964 8.98492 12.4747 9.44414 12.168C9.90332 11.8617 10.5252 11.9854 10.8318 12.4443C11.2295 13.0399 12.0229 13.5 12.9998 13.5C13.9766 13.4999 14.7701 13.0398 15.1678 12.4443C15.4746 11.9855 16.0964 11.8614 16.5555 12.168C17.0145 12.4746 17.1381 13.0964 16.8318 13.5557C16.0319 14.7534 14.5866 15.4999 12.9998 15.5ZM9.00078 19.998C8.44855 19.998 8.00078 19.5503 8.00078 18.998C8.00078 18.8968 8.01579 18.7991 8.04375 18.707C8.04428 18.7054 8.04519 18.7038 8.04571 18.7021C8.05844 18.6611 8.07486 18.6216 8.09258 18.583C8.09841 18.5703 8.10381 18.5574 8.11016 18.5449C8.17891 18.4104 8.27707 18.2937 8.39629 18.2031C8.40075 18.1997 8.40545 18.1967 8.40996 18.1934C8.57612 18.0714 8.78075 17.999 9.00176 17.999C9.15284 17.9991 9.29595 18.0336 9.42461 18.0938C9.76471 18.2534 10.0008 18.5975 10.0008 18.998C10.0008 19.5503 9.55307 19.998 9.00078 19.998ZM17.0008 20C16.6104 20 16.272 19.7765 16.1072 19.4502C16.7393 19.2178 17.337 18.9148 17.8934 18.5537C17.961 18.6883 18.0007 18.839 18.0008 19C18.0008 19.5523 17.5531 20 17.0008 20Z" fill="currentColor" fill-rule="evenodd" clip-rule="evenodd"/></svg>
