<svg xmlns="http://www.w3.org/2000/svg" viewBox="0 0 24 24" fill="none"><path d="M12.0003 18.8749C13.6251 18.8749 15.1546 19.2808 16.4759 19.995C16.9618 20.2576 17.1428 20.8646 16.8802 21.3505C16.6176 21.8363 16.0106 22.0174 15.5247 21.7548C14.4927 21.197 13.2899 20.8749 12.0003 20.8749C10.7108 20.8749 9.50796 21.197 8.47592 21.7548C7.99007 22.0174 7.38306 21.8363 7.12045 21.3505C6.85785 20.8646 7.0389 20.2576 7.52475 19.995C8.84609 19.2808 10.3756 18.8749 12.0003 18.8749Z" fill="currentColor"/><path opacity="0.4" d="M22.75 10.9393V10.8749V8.87488V8.81045C22.75 7.44738 22.7501 6.3482 22.6338 5.48328C22.5128 4.58317 22.2533 3.82543 21.6514 3.22351C21.0495 2.6216 20.2917 2.36211 19.3916 2.24109C18.5267 2.12483 17.4275 2.12485 16.0644 2.12488H16H8H7.93562C6.57252 2.12485 5.47333 2.12483 4.6084 2.24109C3.70829 2.36211 2.95055 2.6216 2.34864 3.22351C1.74672 3.82543 1.48723 4.58317 1.36621 5.48328C1.24995 6.34821 1.24997 7.4474 1.25 8.81049V8.87488V10.8749V10.9393C1.24997 12.3024 1.24995 13.4016 1.36621 14.2665C1.48723 15.1666 1.74672 15.9243 2.34864 16.5262C2.95055 17.1282 3.70829 17.3877 4.6084 17.5087C5.47332 17.6249 6.5725 17.6249 7.93557 17.6249H8H16H16.0644C17.4275 17.6249 18.5267 17.6249 19.3916 17.5087C20.2917 17.3877 21.0495 17.1282 21.6514 16.5262C22.2533 15.9243 22.5128 15.1666 22.6338 14.2665C22.7501 13.4016 22.75 12.3024 22.75 10.9393Z" fill="currentColor"/></svg>
