<svg xmlns="http://www.w3.org/2000/svg" viewBox="0 0 24 24" fill="none"><path opacity="0.4" d="M19 4C19.5523 4 20 4.44772 20 5C20 5.55228 19.5523 6 19 6H7C6.44772 6 6 5.55228 6 5C6 4.44772 6.44772 4 7 4H19Z" fill="currentColor"/><path d="M14 11C14.5523 11 15 11.4477 15 12C15 12.5523 14.5523 13 14 13H4C3.44772 13 3 12.5523 3 12C3 11.4477 3.44772 11 4 11H14Z" fill="currentColor"/><path opacity="0.4" d="M20 18C20.5523 18 21 18.4477 21 19C21 19.5523 20.5523 20 20 20H12C11.4477 20 11 19.5523 11 19C11 18.4477 11.4477 18 12 18H20Z" fill="currentColor"/></svg>
