<svg xmlns="http://www.w3.org/2000/svg" viewBox="0 0 24 24" fill="none"><path d="M18.9996 4C19.5519 4 19.9996 4.44772 19.9996 5C19.9996 5.55228 19.5519 6 18.9996 6H6.99963C6.44735 6 5.99963 5.55228 5.99963 5C5.99963 4.44772 6.44735 4 6.99963 4H18.9996Z" fill="currentColor"/><path d="M13.9996 11C14.5519 11 14.9996 11.4477 14.9996 12C14.9996 12.5523 14.5519 13 13.9996 13H3.99963C3.44735 13 2.99963 12.5523 2.99963 12C2.99963 11.4477 3.44735 11 3.99963 11H13.9996Z" fill="currentColor"/><path d="M19.9996 18C20.5519 18 20.9996 18.4477 20.9996 19C20.9996 19.5523 20.5519 20 19.9996 20H11.9996C11.4473 20 10.9996 19.5523 10.9996 19C10.9996 18.4477 11.4473 18 11.9996 18H19.9996Z" fill="currentColor"/></svg>
