<svg xmlns="http://www.w3.org/2000/svg" viewBox="0 0 24 24" fill="none"><path opacity="0.4" d="M11.75 17.0454V16.9987V14.4987C11.75 14.2825 11.6568 14.0766 11.4942 13.9342L7.49417 10.4342C7.24674 10.2177 6.89232 10.1908 6.6182 10.3532L6.50589 10.4342L2.50589 13.9342C2.34322 14.0766 2.25003 14.2825 2.25003 14.4987V16.9987V17.0454C2.25001 17.9462 2.24999 18.6976 2.33011 19.2936C2.41454 19.9212 2.60034 20.4876 3.0557 20.943C3.51106 21.3984 4.0775 21.5842 4.70511 21.6686C5.30105 21.7487 6.05247 21.7487 6.9533 21.7487H7.00003H7.04676C7.9476 21.7487 8.69901 21.7487 9.29495 21.6686C9.92257 21.5842 10.489 21.3984 10.9444 20.943C11.3997 20.4876 11.5855 19.9212 11.67 19.2936C11.7501 18.6977 11.7501 17.9462 11.75 17.0454Z" fill="currentColor"/><path opacity="0.4" d="M17.0469 21.7507C17.9477 21.7507 18.699 21.7507 19.295 21.6706C19.9226 21.5862 20.489 21.4004 20.9444 20.945C21.3997 20.4897 21.5855 19.9232 21.67 19.2956C21.7501 18.6997 21.7501 17.9483 21.75 17.0475V7.50067C21.75 7.27286 21.6467 7.05704 21.4688 6.91473L16.4688 2.91473C16.229 2.72291 15.9005 2.69936 15.6387 2.84344L15.5313 2.91473L10.5313 6.91473C10.3534 7.05704 10.2501 7.27286 10.25 7.50067V10.6042C10.5122 10.8424 10.78 11.0962 11.0498 11.3513L13.3741 13.5475C14.1766 14.307 14.2108 15.573 13.4532 16.3747C13.3164 16.5192 13.1632 16.639 13 16.7331V17.0475L12.9991 17.6931C12.9954 18.3311 12.9796 18.9393 12.9092 19.4626C12.8098 20.2014 12.5712 21.0402 11.9024 21.7507H17.0469Z" fill="currentColor"/><path d="M7.00001 10.2506C7.60526 10.2506 8.11003 10.4967 8.58888 10.8444C9.05145 11.1802 9.57011 11.6722 10.1914 12.2594L12.5156 14.4557C12.8164 14.7402 12.8293 15.2153 12.5449 15.5162C12.2604 15.817 11.7853 15.8299 11.4844 15.5455L9.16114 13.3492C8.51019 12.7341 8.07344 12.3235 7.70802 12.0582C7.35903 11.8048 7.16206 11.7506 7.00001 11.7506C6.83796 11.7506 6.64099 11.8048 6.292 12.0582C5.92658 12.3235 5.48982 12.7341 4.83888 13.3492L2.51563 15.5455C2.2147 15.8299 1.73963 15.817 1.45509 15.5162C1.17069 15.2153 1.18367 14.7402 1.48438 14.4557L3.8086 12.2594C4.42991 11.6722 4.94857 11.1802 5.41114 10.8444C5.88999 10.4967 6.39476 10.2506 7.00001 10.2506Z" fill="currentColor"/><path d="M7.04691 21.7507C7.38588 21.7507 7.70369 21.7501 8.00003 21.7458V18.0007C8.00003 17.4484 7.55232 17.0007 7.00003 17.0007C6.44775 17.0007 6.00003 17.4484 6.00003 18.0007V21.7458C6.29637 21.7501 6.61418 21.7507 6.95316 21.7507H7.04691Z" fill="currentColor"/><path d="M16 2.25061C16.6128 2.25061 17.1232 2.502 17.6065 2.85706C18.0731 3.20001 18.595 3.70235 19.2217 4.30237L22.5186 7.45862C22.8177 7.74502 22.8283 8.21997 22.542 8.51917C22.2556 8.81828 21.7806 8.82887 21.4815 8.5426L18.1846 5.38538C17.5281 4.75684 17.0871 4.33744 16.7178 4.06604C16.3649 3.80673 16.1652 3.75061 16 3.75061C15.8349 3.75061 15.6352 3.80673 15.2822 4.06604C14.9129 4.33744 14.4719 4.75684 13.8154 5.38538L10.5186 8.5426C10.2194 8.82887 9.74441 8.81828 9.45801 8.51917C9.17175 8.21997 9.18234 7.74502 9.48145 7.45862L12.7783 4.30237C13.405 3.70235 13.9269 3.20001 14.3936 2.85706C14.8768 2.502 15.3872 2.25061 16 2.25061Z" fill="currentColor"/><path d="M16.75 8.50061L16.8272 8.50452C17.2051 8.54314 17.5 8.86244 17.5 9.25061V10.7506L17.4961 10.8278C17.4575 11.2057 17.1382 11.5006 16.75 11.5006H15.25C14.8358 11.5006 14.5 11.1648 14.5 10.7506V9.25061C14.5 8.8364 14.8358 8.50061 15.25 8.50061H16.75Z" fill="currentColor"/><path d="M19.25 6.00061V3.00061C19.25 2.5864 19.5858 2.25061 20 2.25061C20.4142 2.25061 20.75 2.5864 20.75 3.00061V6.00061C20.75 6.41482 20.4142 6.75061 20 6.75061C19.5858 6.75061 19.25 6.41482 19.25 6.00061Z" fill="currentColor"/></svg>
