<svg xmlns="http://www.w3.org/2000/svg" viewBox="0 0 24 24" fill="none"><path d="M8.00001 21.7441C8.49113 21.7371 8.92328 21.7189 9.29493 21.6689C9.92253 21.5845 10.489 21.3987 10.9443 20.9434C11.3997 20.488 11.5855 19.9215 11.6699 19.2939C11.75 18.698 11.75 17.9466 11.75 17.0459V15.7061C12.0211 15.8017 12.3348 15.7377 12.5449 15.5156C12.8293 15.2147 12.8163 14.7396 12.5156 14.4551L10.1914 12.2588C9.57012 11.6716 9.05144 11.1796 8.58888 10.8438C8.13135 10.5116 7.64998 10.2755 7.08009 10.2549C7.06382 10.2531 7.04759 10.2526 7.03126 10.252C7.02086 10.2518 7.01046 10.25 7.00001 10.25C6.99219 10.25 6.98436 10.2519 6.97657 10.252C6.96155 10.2524 6.94662 10.2525 6.93165 10.2539C6.35659 10.2717 5.87183 10.5093 5.41114 10.8438C4.94857 11.1796 4.4299 11.6716 3.8086 12.2588L1.48438 14.4551C1.18367 14.7396 1.17069 15.2147 1.45509 15.5156C1.66525 15.7377 1.97891 15.8018 2.25001 15.7061V17.0459C2.24999 17.9466 2.24997 18.698 2.33009 19.2939C2.41452 19.9215 2.60033 20.488 3.05567 20.9434C3.51103 21.3987 4.07749 21.5845 4.70509 21.6689C5.07674 21.7189 5.50889 21.7371 6.00001 21.7441V17.999C6.00001 17.4467 6.44773 16.999 7.00001 16.999C7.55229 16.999 8.00001 17.4467 8.00001 17.999V21.7441Z" fill="currentColor"/><path d="M17.0469 21.75C17.9477 21.75 18.6991 21.75 19.295 21.6699C19.9226 21.5855 20.489 21.3997 20.9444 20.9443C21.3997 20.489 21.5855 19.9225 21.67 19.2949C21.7501 18.699 21.7501 17.9476 21.75 17.0469V8.70605C22.0196 8.80121 22.3315 8.73838 22.542 8.51855C22.8283 8.21937 22.8177 7.7444 22.5186 7.45801L20.75 5.76562V3C20.75 2.58579 20.4142 2.25001 20 2.25C19.5858 2.25 19.25 2.58579 19.25 3V4.3291L19.2217 4.30176C18.5951 3.70175 18.0732 3.1994 17.6065 2.85645C17.1233 2.5014 16.6128 2.25001 16 2.25C15.3872 2.25 14.8768 2.50141 14.3936 2.85645C13.9269 3.1994 13.405 3.70175 12.7784 4.30176L9.48148 7.45801C9.18237 7.74441 9.17178 8.21936 9.45804 8.51855C9.66855 8.73839 9.98048 8.80125 10.25 8.70605V10.6035C10.5122 10.8418 10.78 11.0955 11.0498 11.3506L13.3741 13.5469C14.1766 14.3063 14.2107 15.5723 13.4532 16.374C13.3164 16.5185 13.1632 16.6383 13 16.7324V17.0469L12.9991 17.6924C12.9954 18.3304 12.9796 18.9386 12.9092 19.4619C12.8098 20.2007 12.5712 21.0395 11.9024 21.75H17.0469ZM15.25 11.5C14.8358 11.5 14.5 11.1642 14.5 10.75V9.25C14.5 8.83579 14.8358 8.5 15.25 8.5H16.75L16.8272 8.50391C17.2051 8.54254 17.5 8.86184 17.5 9.25V10.75L17.4961 10.8271C17.4575 11.2051 17.1382 11.5 16.75 11.5H15.25Z" fill="currentColor" fill-rule="evenodd" clip-rule="evenodd"/></svg>
