<svg xmlns="http://www.w3.org/2000/svg" viewBox="0 0 24 24" fill="none"><path d="M15.1974 15.5342C15.2538 15.2504 15.2501 14.9266 15.2501 14.4981V9.50102C15.2501 9.0725 15.2538 8.74871 15.1974 8.46489C14.9804 7.37399 14.1271 6.52075 13.0362 6.30376C12.7524 6.24736 12.4286 6.25102 12.0001 6.25102C11.5716 6.25102 11.2478 6.24736 10.964 6.30376C9.87308 6.52075 9.01984 7.37399 8.80284 8.46489C8.74645 8.74871 8.75011 9.07251 8.75011 9.50102V14.4981C8.75011 14.9266 8.74644 15.2504 8.80284 15.5342C9.01984 16.6251 9.87308 17.4784 10.964 17.6954C11.2478 17.7518 11.5716 17.7481 12.0001 17.7481C12.4286 17.7481 12.7524 17.7518 13.0362 17.6954C14.1271 17.4784 14.9804 16.6251 15.1974 15.5342Z" fill="currentColor"/><path d="M17.7501 21.751V2.25098C17.7501 1.69869 18.1978 1.25098 18.7501 1.25098C19.3024 1.25098 19.7501 1.69869 19.7501 2.25098V21.751C19.7501 22.3033 19.3024 22.751 18.7501 22.751C18.1978 22.751 17.7501 22.3033 17.7501 21.751Z" fill="currentColor"/><path d="M4.25012 21.749V2.24902C4.25012 1.69674 4.69784 1.24902 5.25012 1.24902C5.80241 1.24902 6.25012 1.69674 6.25012 2.24902V21.749C6.25012 22.3013 5.80241 22.749 5.25012 22.749C4.69784 22.749 4.25012 22.3013 4.25012 21.749Z" fill="currentColor"/></svg>
