<svg xmlns="http://www.w3.org/2000/svg" viewBox="0 0 24 24" fill="none"><path d="M8 6C6.37274 6.02975 5.43781 6.1682 4.80546 6.81237C4 7.63289 4 8.9535 4 11.5947V16.3971C4 19.0384 4 20.359 4.80546 21.1795C5.61091 22 6.90728 22 9.5 22C12.0927 22 13.3891 22 14.1945 21.1795C15 20.359 15 19.0384 15 16.3971V13.4958" stroke="currentColor" stroke-linecap="round" stroke-linejoin="round" stroke-width="2"/><path d="M12.5 6.8647C13.2106 6.2981 14.0929 5.99038 15.0018 5.9922C15.9106 5.99401 16.7917 6.30527 17.5 6.8747M15 10H15.01M10 3.755C11.4189 2.61897 13.1824 2 15 2C16.8176 2 18.5811 2.61897 20 3.755" stroke="currentColor" stroke-linecap="round" stroke-linejoin="round" stroke-width="2"/><path d="M9 19H10" stroke="currentColor" stroke-linecap="round" stroke-linejoin="round" stroke-width="2"/></svg>
