<svg xmlns="http://www.w3.org/2000/svg" viewBox="0 0 24 24" fill="none"><path opacity="0.4" d="M15.6456 2.32715C16.0946 2.24499 16.5135 2.21478 16.937 2.30516C17.5983 2.44631 18.1976 2.79397 18.6493 3.29771C18.9383 3.61998 19.1213 3.99851 19.2747 4.42946C19.4229 4.84571 19.5626 5.36919 19.7332 6.00856L19.7332 6.00857L22.284 15.5683L22.284 15.5683C22.4547 16.2077 22.5944 16.7312 22.6733 17.1661C22.755 17.6164 22.7849 18.0357 22.6952 18.4593C22.5551 19.1215 22.2097 19.7226 21.7079 20.1763C21.3867 20.4667 21.0091 20.6508 20.5794 20.8051C20.1646 20.954 19.643 21.0943 19.0066 21.2655L19.0065 21.2656L18.9457 21.2819C18.3093 21.4532 17.7877 21.5935 17.3544 21.6728C16.9054 21.755 16.4864 21.7852 16.063 21.6948C15.4017 21.5537 14.8024 21.206 14.3507 20.7023C14.0617 20.38 13.8787 20.0015 13.7253 19.5705C13.5771 19.1543 13.4374 18.6308 13.2668 17.9914L13.2668 17.9914L10.7159 8.43159C10.5453 7.79221 10.4056 7.26874 10.3267 6.83388C10.245 6.38359 10.2151 5.96423 10.3047 5.54067C10.4449 4.87851 10.7903 4.27739 11.2921 3.82372C11.6133 3.53327 11.9908 3.34917 12.4206 3.1949C12.8354 3.04599 13.357 2.90566 13.9935 2.73441L14.0542 2.71808C14.6906 2.54682 15.2122 2.40647 15.6456 2.32715Z" fill="currentColor"/><path d="M16.8156 16.9528C16.6726 16.4193 16.9892 15.871 17.5227 15.7281L17.5314 15.7257C18.0648 15.5828 18.6132 15.8994 18.7561 16.4328C18.899 16.9663 18.5825 17.5146 18.049 17.6576L18.0403 17.6599C17.5069 17.8028 16.9585 17.4863 16.8156 16.9528Z" fill="currentColor" fill-rule="evenodd" clip-rule="evenodd"/><path d="M18.2923 6.4264C18.2364 6.21694 18.1859 6.02786 18.1391 5.85617C18.0659 5.58767 17.7847 5.43648 17.5187 5.51833L12.4057 7.09167C12.1515 7.16991 12.0032 7.43347 12.0712 7.69067C12.103 7.81106 12.1372 7.93918 12.1737 8.07597L12.2017 8.18098C12.2748 8.45494 12.5608 8.61335 12.8318 8.52996L18.0098 6.93664C18.2258 6.87017 18.3506 6.64479 18.2923 6.4264Z" fill="currentColor"/><path d="M6.03125 2.25C6.70462 2.24999 7.25556 2.24957 7.70312 2.28613C8.16638 2.32398 8.58485 2.4054 8.97559 2.60449C9.58696 2.91605 10.0839 3.41305 10.3955 4.02441C10.5946 4.41515 10.676 4.83362 10.7139 5.29688C10.7504 5.74443 10.75 6.2954 10.75 6.96875V17.0312C10.75 17.7046 10.7504 18.2556 10.7139 18.7031C10.676 19.1664 10.5946 19.5849 10.3955 19.9756C10.0839 20.587 9.58696 21.0839 8.97559 21.3955C8.58485 21.5946 8.16638 21.676 7.70312 21.7139C7.25557 21.7504 6.70462 21.75 6.03125 21.75H5.96875C5.29538 21.75 4.74444 21.7504 4.29688 21.7139C3.83362 21.676 3.41515 21.5946 3.02441 21.3955C2.41305 21.0839 1.91605 20.587 1.60449 19.9756C1.4054 19.5849 1.32398 19.1664 1.28613 18.7031C1.24957 18.2556 1.24999 17.7046 1.25 17.0312V6.96875C1.24999 6.29538 1.24957 5.74444 1.28613 5.29688C1.32398 4.83362 1.4054 4.41515 1.60449 4.02441C1.91605 3.41305 2.41305 2.91605 3.02441 2.60449C3.41515 2.4054 3.83362 2.32398 4.29688 2.28613C4.74444 2.24957 5.29538 2.24999 5.96875 2.25H6.03125ZM6 16C5.44772 16 5 16.4477 5 17C5 17.5523 5.44772 18 6 18H6.00879C6.56107 18 7.00879 17.5523 7.00879 17C7.00879 16.4477 6.56107 16 6.00879 16H6ZM3.24707 6.25C2.97302 6.25023 2.75038 6.47104 2.75 6.74512V7.25C2.75 7.52614 2.97386 7.75 3.25 7.75H8.75C9.02614 7.75 9.25 7.52614 9.25 7.25V6.74512C9.24963 6.47104 9.02698 6.25023 8.75293 6.25H3.24707Z" fill="currentColor"/></svg>
