<svg xmlns="http://www.w3.org/2000/svg" viewBox="0 0 24 24" fill="none"><path d="M6.03143 2.25C6.70481 2.24999 7.25575 2.24957 7.70331 2.28613C8.16656 2.32398 8.58503 2.4054 8.97577 2.60449C9.58714 2.91605 10.0841 3.41305 10.3957 4.02441C10.5948 4.41515 10.6762 4.83362 10.7141 5.29688C10.7506 5.74443 10.7502 6.2954 10.7502 6.96875V17.0312C10.7502 17.7046 10.7506 18.2556 10.7141 18.7031C10.6762 19.1664 10.5948 19.5849 10.3957 19.9756C10.0841 20.587 9.58714 21.0839 8.97577 21.3955C8.58503 21.5946 8.16656 21.676 7.70331 21.7139C7.25575 21.7504 6.7048 21.75 6.03143 21.75H5.96893C5.29556 21.75 4.74462 21.7504 4.29706 21.7139C3.83381 21.676 3.41533 21.5946 3.0246 21.3955C2.41323 21.0839 1.91624 20.587 1.60468 19.9756C1.40559 19.5849 1.32417 19.1664 1.28632 18.7031C1.24975 18.2556 1.25017 17.7046 1.25018 17.0312V6.96875C1.25017 6.29538 1.24975 5.74444 1.28632 5.29688C1.32417 4.83362 1.40559 4.41515 1.60468 4.02441C1.91624 3.41305 2.41323 2.91605 3.0246 2.60449C3.41533 2.4054 3.83381 2.32398 4.29706 2.28613C4.74462 2.24957 5.29556 2.24999 5.96893 2.25H6.03143ZM6.00018 16C5.4479 16 5.00018 16.4477 5.00018 17C5.00018 17.5523 5.4479 18 6.00018 18H6.00897C6.56126 18 7.00897 17.5523 7.00897 17C7.00897 16.4477 6.56126 16 6.00897 16H6.00018ZM3.24725 6.25C2.9732 6.25023 2.75056 6.47104 2.75018 6.74512V7.25C2.75018 7.52614 2.97404 7.75 3.25018 7.75H8.75018C9.02633 7.75 9.25018 7.52614 9.25018 7.25V6.74512C9.24981 6.47104 9.02716 6.25023 8.75311 6.25H3.24725Z" fill="currentColor"/><path d="M15.6455 2.32737C16.0943 2.24524 16.5133 2.21467 16.9365 2.30491C17.5978 2.44606 18.1977 2.79434 18.6494 3.29807C18.9383 3.62031 19.121 3.99902 19.2744 4.42991C19.4226 4.84614 19.5628 5.3697 19.7334 6.00901L22.2842 15.5686C22.4548 16.2079 22.5939 16.7314 22.6728 17.1662C22.7545 17.6164 22.7849 18.0358 22.6953 18.4592C22.5552 19.1212 22.2096 19.7224 21.708 20.176C21.3868 20.4664 21.0089 20.6506 20.5791 20.8049C20.1644 20.9538 19.6431 21.0946 19.0068 21.2658L18.9453 21.2824C18.3091 21.4536 17.7877 21.5938 17.3545 21.6731C16.9057 21.7552 16.4868 21.7848 16.0635 21.6946C15.4022 21.5534 14.8023 21.2061 14.3506 20.7024C14.0617 20.3801 13.879 20.0014 13.7256 19.5705C13.5774 19.1543 13.4372 18.6307 13.2666 17.9914L10.7158 8.43186C10.5452 7.79257 10.4061 7.26903 10.3271 6.83421C10.2454 6.38404 10.2151 5.96468 10.3047 5.54124C10.4448 4.87908 10.7902 4.27714 11.292 3.82346C11.6132 3.53312 11.9912 3.34978 12.4209 3.19553C12.8356 3.04667 13.3569 2.90579 13.9932 2.7346L14.0537 2.71799C14.6901 2.54675 15.2121 2.40669 15.6455 2.32737ZM18.7558 16.4328C18.6128 15.8995 18.0646 15.5829 17.5312 15.7258L17.5224 15.7287C16.9892 15.8718 16.6725 16.42 16.8154 16.9533C16.9584 17.4865 17.5068 17.8031 18.04 17.6604L18.0488 17.6574C18.5823 17.5145 18.8988 16.9663 18.7558 16.4328ZM17.5185 5.51878L12.4053 7.09202C12.1513 7.17041 12.0034 7.43366 12.0713 7.69065C12.1031 7.81105 12.1373 7.9396 12.1738 8.07639L12.2021 8.18088C12.2752 8.45484 12.561 8.61389 12.832 8.53049L18.0098 6.93674C18.2257 6.87028 18.3501 6.64527 18.292 6.42698C18.2361 6.21758 18.1855 6.02832 18.1387 5.85667C18.0654 5.58817 17.7845 5.43693 17.5185 5.51878Z" fill="currentColor" fill-rule="evenodd" clip-rule="evenodd"/></svg>
