<svg xmlns="http://www.w3.org/2000/svg" viewBox="0 0 24 24" fill="none"><path d="M6.5 16.25C7.19035 16.25 7.74999 16.8097 7.75 17.5V18.5C7.75 19.1904 7.19035 19.75 6.5 19.75H5.5C4.80965 19.75 4.25 19.1904 4.25 18.5V17.5C4.25 16.8096 4.80965 16.25 5.5 16.25H6.5ZM12.5 16.25C13.1903 16.25 13.75 16.8097 13.75 17.5V18.5C13.75 19.1904 13.1904 19.75 12.5 19.75H11.5C10.8096 19.75 10.25 19.1904 10.25 18.5V17.5C10.25 16.8096 10.8096 16.25 11.5 16.25H12.5ZM18.5 16.25C19.1903 16.25 19.75 16.8097 19.75 17.5V18.5C19.75 19.1904 19.1904 19.75 18.5 19.75H17.5C16.8096 19.75 16.25 19.1904 16.25 18.5V17.5C16.25 16.8096 16.8096 16.25 17.5 16.25H18.5ZM6.5 10.25C7.19035 10.25 7.74999 10.8097 7.75 11.5V12.5C7.75 13.1904 7.19035 13.75 6.5 13.75H5.5C4.80965 13.75 4.25 13.1904 4.25 12.5V11.5C4.25 10.8096 4.80965 10.25 5.5 10.25H6.5ZM12.5 10.25C13.1903 10.25 13.75 10.8097 13.75 11.5V12.5C13.75 13.1904 13.1904 13.75 12.5 13.75H11.5C10.8096 13.75 10.25 13.1904 10.25 12.5V11.5C10.25 10.8096 10.8096 10.25 11.5 10.25H12.5ZM18.5 10.25C19.1903 10.25 19.75 10.8097 19.75 11.5V12.5C19.75 13.1904 19.1904 13.75 18.5 13.75H17.5C16.8096 13.75 16.25 13.1904 16.25 12.5V11.5C16.25 10.8096 16.8096 10.25 17.5 10.25H18.5ZM6.5 4.25C7.19035 4.25001 7.74999 4.80966 7.75 5.5V6.5C7.75 7.19035 7.19035 7.75 6.5 7.75H5.5C4.80965 7.75 4.25 7.19035 4.25 6.5V5.5C4.25 4.80964 4.80965 4.25 5.5 4.25H6.5ZM12.5 4.25C13.1903 4.25001 13.75 4.80966 13.75 5.5V6.5C13.75 7.19035 13.1904 7.75 12.5 7.75H11.5C10.8096 7.75 10.25 7.19035 10.25 6.5V5.5C10.25 4.80964 10.8096 4.25 11.5 4.25H12.5ZM18.5 4.25C19.1903 4.25001 19.75 4.80966 19.75 5.5V6.5C19.75 7.19035 19.1904 7.75 18.5 7.75H17.5C16.8096 7.75 16.25 7.19035 16.25 6.5V5.5C16.25 4.80964 16.8096 4.25 17.5 4.25H18.5Z" fill="currentColor"/></svg>
