<svg xmlns="http://www.w3.org/2000/svg" fill="none" viewBox="0 0 48 48">
  <g>
    <path fill="currentColor" fill-opacity="0.4" d="M29.7667 3.22961c2.0967 0.22482 3.6687 2.18071 3.8194 4.68951l0.2675 7.35218c0.0537 1.7557 0.0974 2.4805 0.1226 4.7286L20.1036 43.0402c-1.0854 1.8028 -3.0371 2.9142 -5.141 2.8741 -3.5134 -0.0671 -6.15798 -0.2355 -8.0203 -0.4352 -2.09668 -0.2248 -3.66868 -2.1807 -3.81939 -4.6895 -0.19898 -3.3124 -0.41393 -8.6843 -0.41393 -16.4352 0 -7.751 0.21495 -13.1229 0.41393 -16.43529 0.15071 -2.50879 1.72272 -4.46468 3.81939 -4.6895 2.41991 -0.25947 6.1606 -0.52077 11.4122 -0.52078 5.2516 0 8.9923 0.26131 11.4122 0.52078" stroke-width="1"></path>
    <path fill="currentColor" fill-opacity="0.4" d="M24.3544 45.999c-7.7509 0 -13.1225 -0.2567 -16.43494 -0.4221 -4.42653 0 -5.09327 -4.3667 -5.09327 -9.5769V20.3439c1.93676 -0.0966 3.31879 -0.1978 8.17381 -0.2652L21.3544 20c7.7509 0 16.1228 0.1786 19.4352 0.3439 2.5088 0.1252 4.4647 1.4314 4.6895 3.1735 0.2595 2.0106 0.5208 5.1187 0.5208 9.4821 0 4.3635 -0.2613 7.4715 -0.5208 9.4822 -0.2248 1.742 -2.1807 3.0482 -4.6895 3.1734 -3.3124 0.1653 -8.6843 0.3439 -16.4352 0.3439" stroke-width="1"></path>
    <path stroke="currentColor" stroke-linecap="round" d="M7.91946 45.5769c3.31244 0.1654 8.68404 0.4221 16.43494 0.4221s13.1228 -0.1786 16.4352 -0.3439c2.5088 -0.1252 4.4647 -1.4314 4.6895 -3.1734 0.2595 -2.0107 0.5208 -5.1187 0.5208 -9.4822 0 -4.3634 -0.2613 -7.4715 -0.5208 -9.4821 -0.2248 -1.7421 -2.1807 -3.0483 -4.6895 -3.1735C37.4772 20.1786 29.1053 20 21.3544 20m-18.52821 0.3439c1.93676 -0.0966 3.31879 -0.1978 8.17381 -0.2652" stroke-width="1"></path>
    <path stroke="currentColor" stroke-linecap="round" d="M29.0581 45.6537c0.0893 -2.0135 0.179 -4.8516 0.2183 -8.6036m-0.2183 -16.7044c0.0893 2.0135 0.179 4.8517 0.2183 8.6036" stroke-width="1"></path>
    <path stroke="currentColor" stroke-linecap="round" d="M33.5861 7.91912c-0.1507 -2.5088 -1.7227 -4.46469 -3.8194 -4.68951 -2.4199 -0.25947 -6.1606 -0.52077 -11.4122 -0.52078 -5.2516 0 -8.99229 0.26131 -11.4122 0.52078 -2.09667 0.22481 -3.66868 2.18071 -3.81939 4.6895 -0.19898 3.31239 -0.41393 8.68429 -0.41393 16.43529 0 7.7509 0.21495 13.1228 0.41393 16.4352 0.15071 2.5088 1.72271 4.4647 3.81939 4.6895 2.41991 0.2595 6.1606 0.4662 11.4122 0.4662m15.6217 -25.9454c-0.0252 -2.2481 -0.0689 -2.9729 -0.1226 -4.7286" stroke-width="1"></path>
  </g>
</svg>
