<svg xmlns="http://www.w3.org/2000/svg" fill="none" viewBox="0 0 48 48">
  <g>
    <path fill="currentColor" fill-opacity="0.4" d="M29.4349 4.52479c1.9682 0.21104 3.4439 2.04708 3.5853 4.40215l0.2512 6.90166c0.0504 1.6481 0.0914 2.3285 0.115 4.4388L20.4711 41.7179c-1.0854 1.8028 -3.0365 2.915 -5.1403 2.8719 -3.1952 -0.0655 -5.61032 -0.2209 -7.32173 -0.4044 -1.9682 -0.2111 -3.44388 -2.0471 -3.58535 -4.4022 -0.18679 -3.1094 -0.38856 -8.1521 -0.38856 -15.4281s0.20177 -12.3187 0.38856 -15.42816c0.14147 -2.35507 1.61715 -4.19111 3.58535 -4.40215 2.27163 -0.24357 5.78313 -0.48887 10.71293 -0.48887s8.4413 0.24529 10.7129 0.48887" stroke-width="1"></path>
    <path fill="currentColor" fill-opacity="0.4" d="M24.3546 44.6735c-7.276 0 -12.3185 -0.241 -15.4279 -0.3962 -4.15529 0 -4.78117 -4.0992 -4.78117 -8.9901V20.5904c1.81808 -0.0907 3.11542 -0.1857 7.67297 -0.249l9.7199 -0.0738c7.276 0 15.1349 0.1676 18.2443 0.3228 2.3551 0.1176 4.1911 1.3437 4.4022 2.979 0.2436 1.8875 0.4888 4.8051 0.4888 8.9011 0 4.0961 -0.2452 7.0137 -0.4888 8.9012 -0.2111 1.6353 -2.0471 2.8614 -4.4022 2.9789 -3.1094 0.1552 -8.1521 0.3229 -15.4281 0.3229" stroke-width="1"></path>
    <path fill="currentColor" d="M18.7227 1.53516c5.012 0 8.6124 0.24924 10.9785 0.50293 3.5137 0.37675 5.6218 3.53158 5.8144 6.73828 0.0828 1.37823 -0.9675 2.56273 -2.3457 2.64553 -1.3781 0.0827 -2.5627 -0.9676 -2.6455 -2.34573 -0.0903 -1.50326 -0.9339 -2.0211 -1.3564 -2.0664 -2.177 -0.23341 -5.5989 -0.47461 -10.4453 -0.47461 -4.8469 0 -8.2693 0.24118 -10.44633 0.47461 -0.42256 0.04534 -1.26615 0.56319 -1.35645 2.0664 -0.12354 2.05663 -0.25268 4.99063 -0.32519 8.89353 1.17111 -0.0476 2.70439 -0.0934 5.18947 -0.1279 1.3803 -0.0189 2.5159 1.0845 2.5351 2.4648 0.0192 1.3805 -1.0854 2.5148 -2.4658 2.5342 -2.61861 0.0364 -4.14178 0.0844 -5.31346 0.1348 -0.00163 0.45 -0.00391 0.9092 -0.00391 1.3779 0 7.2297 0.20024 12.2227 0.38379 15.2783 0.09038 1.503 0.93389 2.0201 1.35645 2.0655 0.28224 0.0302 0.58616 0.0593 0.91211 0.0879 3.10072 0.1544 8.05592 0.3876 15.16602 0.3877 0.685 0 1.3499 -0.004 1.9951 -0.0069 0.0525 -1.6003 0.1004 -3.565 0.125 -5.9199 0.0144 -1.3806 1.1457 -2.4881 2.5264 -2.4736 1.3803 0.0146 2.4878 1.145 2.4736 2.5254 -0.0239 2.2872 -0.0699 4.219 -0.1211 5.8173 3.6076 -0.0621 6.3503 -0.1651 8.3047 -0.2627 0.7969 -0.0399 1.3873 -0.2641 1.7314 -0.4961 0.2448 -0.165 0.3043 -0.2841 0.3155 -0.3144 0.2286 -1.7748 0.4678 -4.5827 0.4678 -8.5723 -0.0001 -3.9899 -0.2392 -6.7975 -0.4678 -8.5722 -0.0118 -0.0314 -0.0724 -0.1496 -0.3155 -0.3135 -0.3441 -0.232 -0.9344 -0.4572 -1.7314 -0.4971 -1.6521 -0.0824 -4.702 -0.1692 -8.3037 -0.2314 0.0507 1.5922 0.0963 3.5135 0.1201 5.7861 0.0144 1.3805 -1.0932 2.5117 -2.4736 2.5264 -1.3806 0.0144 -2.5118 -1.0932 -2.5264 -2.4737 -0.0245 -2.3469 -0.0718 -4.3067 -0.124 -5.9043 -1.593 -0.0142 -3.2157 -0.0224 -4.8115 -0.0224 -1.3807 0 -2.5 -1.1193 -2.5 -2.5s1.1193 -2.5 2.5 -2.5c3.1271 0 6.3665 0.0313 9.2968 0.0791 -0.0185 -0.589 -0.0392 -1.1489 -0.0634 -1.9424 -0.0423 -1.3801 1.0427 -2.533 2.4228 -2.5752 1.3798 -0.042 2.5329 1.0421 2.5752 2.4219 0.0267 0.8716 0.0497 1.4851 0.0703 2.2011 1.6944 0.045 3.1006 0.0934 4.0664 0.1417 1.5571 0.0778 3.0624 0.5247 4.2774 1.3437 1.1405 0.7689 2.1289 1.952 2.4287 3.498l0.0508 0.3135 0.0957 0.7989c0.221 1.9763 0.413 4.7509 0.4131 8.4218 0 4.1953 -0.2507 7.2203 -0.5088 9.2207 -0.2195 1.7005 -1.263 2.9924 -2.4795 3.8125 -1.215 0.8189 -2.7203 1.266 -4.2774 1.3438 -3.1539 0.1574 -8.239 0.3261 -15.5527 0.3262 -2.0698 -0.0001 -3.9612 -0.0215 -5.6797 -0.0528 -4.2171 -0.001 -7.4437 -0.1436 -9.77832 -0.3428 -0.03143 -0.0015 -0.0627 -0.0023 -0.09375 -0.0039 -0.08881 -0.0044 -0.17672 -0.0139 -0.26269 -0.0273 -0.27927 -0.0255 -0.54494 -0.0501 -0.79688 -0.0772 -3.51348 -0.3768 -5.62173 -3.5307 -5.81445 -6.7373 -0.19001 -3.163 -0.39258 -8.2564 -0.39258 -15.5781 0.00001 -7.3215 0.20257 -12.4141 0.39258 -15.57713 0.19263 -3.20665 2.30084 -6.36145 5.81445 -6.73828 2.36604 -0.2537 5.96704 -0.50293 10.97954 -0.50293" stroke-width="1"></path>
  </g>
</svg>
