<svg xmlns="http://www.w3.org/2000/svg" viewBox="0 0 24 24" fill="none"><path opacity="0.4" d="M18.5954 10.3693C17.8709 10.2647 16.9132 10.2527 15.7497 10.2512V10.0002L15.7497 9.9484C15.7498 9.28455 15.7498 8.71228 15.6882 8.25409C15.6221 7.76254 15.4727 7.29155 15.0906 6.90937C14.7084 6.52718 14.2374 6.37783 13.7458 6.31171C13.2876 6.25011 12.7154 6.25014 12.0515 6.25019L11.9997 6.25019L11.948 6.25019C11.2841 6.25014 10.7118 6.25011 10.2537 6.31171C9.7621 6.37783 9.29111 6.52718 8.90892 6.90937C8.52674 7.29155 8.37738 7.76254 8.31127 8.25409C8.24807 8.72416 8.24974 9.31428 8.24974 10.0002V10.2512C7.08626 10.2527 6.12863 10.2647 5.40404 10.3693C4.5852 10.4876 3.76241 10.7633 3.39916 11.5891C3.03688 12.4127 3.38546 13.207 3.84838 13.8947C4.31553 14.5886 5.07431 15.4281 6.00975 16.4629L6.05053 16.508L8.50853 19.2267L8.54687 19.2692C9.20063 19.9925 9.74377 20.5934 10.2361 21.006C10.7543 21.4404 11.3118 21.7502 11.9997 21.7502C12.6877 21.7502 13.2452 21.4404 13.7634 21.006C14.2557 20.5934 14.7989 19.9925 15.4526 19.2692L15.491 19.2267L17.949 16.508L17.9898 16.4629C18.9252 15.428 19.684 14.5886 20.1511 13.8947C20.614 13.207 20.9626 12.4127 20.6003 11.5891C20.2371 10.7633 19.4143 10.4876 18.5954 10.3693Z" fill="currentColor"/><path d="M14.7498 2.25019C15.302 2.25019 15.7498 2.69791 15.7498 3.25019C15.7498 3.80248 15.302 4.25019 14.7498 4.25019H9.24976C8.69747 4.25019 8.24976 3.80248 8.24976 3.25019C8.24976 2.69791 8.69747 2.25019 9.24976 2.25019H14.7498Z" fill="currentColor"/></svg>
