<svg xmlns="http://www.w3.org/2000/svg" viewBox="0 0 24 24" fill="none"><path d="M18.5954 10.3698C17.8709 10.2652 16.9132 10.2532 15.7497 10.2517V10.0007L15.7497 9.94889C15.7498 9.28504 15.7498 8.71277 15.6882 8.25458C15.6221 7.76303 15.4727 7.29204 15.0906 6.90986C14.7084 6.52767 14.2374 6.37831 13.7458 6.3122C13.2876 6.2506 12.7154 6.25063 12.0515 6.25067L11.9997 6.25068L11.948 6.25067C11.2841 6.25063 10.7118 6.2506 10.2537 6.3122C9.7621 6.37831 9.29111 6.52767 8.90892 6.90986C8.52674 7.29204 8.37738 7.76303 8.31127 8.25458C8.24807 8.72464 8.24974 9.31477 8.24974 10.0007V10.2517C7.08626 10.2532 6.12863 10.2652 5.40404 10.3698C4.5852 10.4881 3.76241 10.7638 3.39916 11.5895C3.03688 12.4132 3.38546 13.2075 3.84838 13.8952C4.31553 14.5891 5.07431 15.4285 6.00975 16.4634L6.05053 16.5085L8.50853 19.2272L8.54687 19.2696C9.20063 19.993 9.74377 20.5939 10.2361 21.0065C10.7543 21.4409 11.3118 21.7507 11.9997 21.7507C12.6877 21.7507 13.2452 21.4409 13.7634 21.0065C14.2557 20.5939 14.7989 19.993 15.4526 19.2697L15.491 19.2272L17.949 16.5085L17.9898 16.4633C18.9252 15.4285 19.684 14.5891 20.1511 13.8952C20.614 13.2075 20.9626 12.4132 20.6003 11.5895C20.2371 10.7638 19.4143 10.4881 18.5954 10.3698Z" fill="currentColor"/><path d="M14.7498 2.25068C15.302 2.25068 15.7498 2.69839 15.7498 3.25068C15.7498 3.80296 15.302 4.25068 14.7498 4.25068H9.24976C8.69747 4.25068 8.24976 3.80296 8.24976 3.25068C8.24976 2.69839 8.69747 2.25068 9.24976 2.25068H14.7498Z" fill="currentColor"/></svg>
