<svg xmlns="http://www.w3.org/2000/svg" viewBox="0 0 24 24" fill="none"><path opacity="0.4" d="M21.7501 12.0416V12V11.9584C21.7501 9.87807 21.7501 8.24041 21.5782 6.96191C21.4023 5.65356 21.0335 4.60957 20.212 3.78809C19.3905 2.9666 18.3466 2.59783 17.0382 2.42188C15.7597 2.24999 14.1221 2.24999 12.0417 2.25H12.0001H11.9585C9.87818 2.24999 8.24053 2.24999 6.96204 2.42188C5.65368 2.59783 4.60969 2.9666 3.78821 3.78809C2.96672 4.60957 2.59796 5.65356 2.422 6.96191C2.25011 8.24041 2.25011 9.87806 2.25012 11.9584V12V12.0416C2.25011 14.1219 2.25011 15.7596 2.422 17.0381C2.59796 18.3464 2.96672 19.3904 3.78821 20.2119C4.60969 21.0334 5.65368 21.4022 6.96204 21.5781C8.24053 21.75 9.87819 21.75 11.9585 21.75H12.0001H12.0417C14.1221 21.75 15.7597 21.75 17.0382 21.5781C18.3466 21.4022 19.3905 21.0334 20.212 20.2119C21.0335 19.3904 21.4023 18.3464 21.5782 17.0381C21.7501 15.7596 21.7501 14.1219 21.7501 12.0416Z" fill="currentColor"/><path d="M15.0001 12C15.0001 11.2835 14.9998 10.8062 14.9699 10.4395C14.9409 10.0849 14.8894 9.92228 14.837 9.81934C14.6932 9.5371 14.463 9.3069 14.1808 9.16309C14.0778 9.11072 13.9152 9.05924 13.5607 9.03028C13.194 9.00032 12.7167 9 12.0001 9C11.2836 9 10.8063 9.00032 10.4396 9.03028C10.085 9.05924 9.9224 9.11072 9.81946 9.16309C9.53722 9.3069 9.30702 9.5371 9.16321 9.81934C9.11084 9.92228 9.05937 10.0849 9.0304 10.4395C9.00044 10.8062 9.00012 11.2835 9.00012 12C9.00012 12.7165 9.00044 13.1938 9.0304 13.5605C9.05937 13.9151 9.11084 14.0777 9.16321 14.1807C9.30702 14.4629 9.53722 14.6931 9.81946 14.8369C9.9224 14.8893 10.085 14.9408 10.4396 14.9697C10.8063 14.9997 11.2836 15 12.0001 15C12.7167 15 13.194 14.9997 13.5607 14.9697C13.9152 14.9408 14.0778 14.8893 14.1808 14.8369C14.463 14.6931 14.6932 14.4629 14.837 14.1807C14.8894 14.0777 14.9409 13.9151 14.9699 13.5605C14.9998 13.1938 15.0001 12.7165 15.0001 12ZM17.0001 12C17.0001 12.6836 17.0012 13.2566 16.963 13.7236C16.9239 14.2023 16.8383 14.6571 16.6183 15.0889C16.2827 15.7474 15.7475 16.2826 15.089 16.6182C14.6572 16.8382 14.2024 16.9238 13.7238 16.9629C13.2567 17.0011 12.6837 17 12.0001 17C11.3166 17 10.7435 17.0011 10.2765 16.9629C9.79784 16.9238 9.34306 16.8382 8.91126 16.6182C8.25274 16.2826 7.71751 15.7474 7.38196 15.0889C7.16195 14.6571 7.07635 14.2023 7.03723 13.7236C6.99908 13.2566 7.00012 12.6836 7.00012 12C7.00012 11.3164 6.99908 10.7434 7.03723 10.2764C7.07635 9.79772 7.16195 9.34294 7.38196 8.91114C7.71751 8.25262 8.25274 7.71739 8.91126 7.38184C9.34306 7.16182 9.79784 7.07623 10.2765 7.03711C10.7435 6.99895 11.3166 7 12.0001 7C12.6837 7 13.2567 6.99895 13.7238 7.03711C14.2024 7.07623 14.6572 7.16182 15.089 7.38184C15.7475 7.71739 16.2827 8.25262 16.6183 8.91114C16.8383 9.34294 16.9239 9.79772 16.963 10.2764C17.0012 10.7434 17.0001 11.3164 17.0001 12Z" fill="currentColor"/></svg>
