<svg xmlns="http://www.w3.org/2000/svg" viewBox="0 0 24 24" fill="none"><path d="M12.0421 2.25C14.1223 2.24999 15.7598 2.25 17.0382 2.42188C18.3466 2.59783 19.3905 2.9666 20.212 3.78809C21.0335 4.60957 21.4023 5.65356 21.5782 6.96191C21.7501 8.24033 21.7501 9.87786 21.7501 11.958V12.042C21.7501 14.1221 21.7501 15.7597 21.5782 17.0381C21.4023 18.3464 21.0335 19.3904 20.212 20.2119C19.3905 21.0334 18.3466 21.4022 17.0382 21.5781C15.7598 21.75 14.1223 21.75 12.0421 21.75H11.9581C9.87798 21.75 8.24045 21.75 6.96204 21.5781C5.65368 21.4022 4.60969 21.0334 3.78821 20.2119C2.96672 19.3904 2.59796 18.3464 2.422 17.0381C2.25012 15.7597 2.25011 14.1221 2.25012 12.042V11.958C2.25011 9.87786 2.25012 8.24033 2.422 6.96191C2.59796 5.65356 2.96672 4.60957 3.78821 3.78809C4.60969 2.9666 5.65368 2.59783 6.96204 2.42188C8.24045 2.25 9.87798 2.24999 11.9581 2.25H12.0421ZM12.0001 7C11.3166 7 10.7435 6.99895 10.2765 7.03711C9.79784 7.07623 9.34306 7.16182 8.91125 7.38184C8.25274 7.71738 7.71751 8.25262 7.38196 8.91113C7.16194 9.34293 7.07635 9.79771 7.03723 10.2764C6.99907 10.7434 7.00012 11.3164 7.00012 12C7.00012 12.6836 6.99907 13.2566 7.03723 13.7236C7.07635 14.2023 7.16194 14.6571 7.38196 15.0889C7.7175 15.7474 8.25274 16.2826 8.91125 16.6182C9.34306 16.8382 9.79784 16.9238 10.2765 16.9629C10.7435 17.001 11.3166 17 12.0001 17C12.6837 17 13.2567 17.001 13.7238 16.9629C14.2024 16.9238 14.6572 16.8382 15.089 16.6182C15.7475 16.2826 16.2827 15.7474 16.6183 15.0889C16.8383 14.6571 16.9239 14.2023 16.963 13.7236C17.0012 13.2566 17.0001 12.6836 17.0001 12C17.0001 11.3164 17.0012 10.7434 16.963 10.2764C16.9239 9.79771 16.8383 9.34293 16.6183 8.91113C16.2827 8.25262 15.7475 7.71738 15.089 7.38184C14.6572 7.16182 14.2024 7.07623 13.7238 7.03711C13.2567 6.99895 12.6837 7 12.0001 7ZM12.0001 9C12.7167 9 13.194 9.00032 13.5607 9.03027C13.9152 9.05924 14.0778 9.11072 14.1808 9.16309C14.463 9.3069 14.6932 9.5371 14.837 9.81934C14.8894 9.92228 14.9409 10.0849 14.9698 10.4395C14.9998 10.8062 15.0001 11.2835 15.0001 12C15.0001 12.7165 14.9998 13.1938 14.9698 13.5605C14.9409 13.9151 14.8894 14.0777 14.837 14.1807C14.6932 14.4629 14.463 14.6931 14.1808 14.8369C14.0778 14.8893 13.9152 14.9408 13.5607 14.9697C13.194 14.9997 12.7167 15 12.0001 15C11.2836 15 10.8063 14.9997 10.4396 14.9697C10.085 14.9408 9.9224 14.8893 9.81946 14.8369C9.53722 14.6931 9.30702 14.4629 9.16321 14.1807C9.11084 14.0777 9.05936 13.9151 9.0304 13.5605C9.00044 13.1938 9.00012 12.7165 9.00012 12C9.00012 11.2835 9.00044 10.8062 9.0304 10.4395C9.05936 10.0849 9.11084 9.92228 9.16321 9.81934C9.30702 9.53709 9.53722 9.3069 9.81946 9.16309C9.9224 9.11072 10.085 9.05924 10.4396 9.03027C10.8063 9.00032 11.2836 9 12.0001 9Z" fill="currentColor"/></svg>
