<svg xmlns="http://www.w3.org/2000/svg" viewBox="0 0 24 24" fill="none"><path opacity="0.4" d="M22.75 12.5653V12.5008V9.50085V9.43642C22.75 8.07335 22.7501 6.97416 22.6338 6.10925C22.5128 5.20914 22.2533 4.4514 21.6514 3.84948C21.0495 3.24756 20.2917 2.98808 19.3916 2.86706C18.5267 2.75079 17.4275 2.75082 16.0644 2.75085H16H8H7.93561C6.57252 2.75082 5.47333 2.75079 4.6084 2.86706C3.70829 2.98808 2.95055 3.24756 2.34863 3.84948C1.74672 4.4514 1.48723 5.20914 1.36621 6.10925C1.24995 6.97417 1.24997 8.07337 1.25 9.43646V9.50085V12.5008V12.5652C1.24997 13.9283 1.24995 15.0275 1.36621 15.8925C1.48723 16.7926 1.74672 17.5503 2.34863 18.1522C2.95055 18.7541 3.70829 19.0136 4.6084 19.1346C5.47332 19.2509 6.5725 19.2509 7.93557 19.2508H8H16H16.0644C17.4275 19.2509 18.5267 19.2509 19.3916 19.1346C20.2917 19.0136 21.0495 18.7541 21.6514 18.1522C22.2533 17.5503 22.5128 16.7926 22.6338 15.8925C22.7501 15.0275 22.75 13.9284 22.75 12.5653Z" fill="currentColor"/><path d="M15.75 12.5526L15.75 12.5009V9.50085L15.75 9.44907C15.75 8.78522 15.7501 8.21295 15.6885 7.75476C15.6224 7.26321 15.473 6.79222 15.0908 6.41003C14.7086 6.02785 14.2376 5.87849 13.7461 5.81237C13.2879 5.75077 12.7156 5.75081 12.0518 5.75085L12 5.75085H8C7.3141 5.75085 6.72397 5.74918 6.25391 5.81237C5.76236 5.87849 5.29137 6.02785 4.90918 6.41003C4.527 6.79222 4.37764 7.26321 4.31153 7.75476C4.24833 8.22482 4.25 8.81495 4.25 9.50085V12.5009L4.25 12.5526C4.24996 13.2165 4.24993 13.7888 4.31153 14.2469C4.37764 14.7385 4.527 15.2095 4.90918 15.5917C5.29137 15.9739 5.76236 16.1232 6.25391 16.1893C6.7121 16.2509 7.28437 16.2509 7.94822 16.2509L8 16.2509H12L12.0518 16.2509C12.7156 16.2509 13.2879 16.2509 13.7461 16.1893C14.2376 16.1232 14.7086 15.9739 15.0908 15.5917C15.473 15.2095 15.6224 14.7385 15.6885 14.2469C15.7501 13.7888 15.75 13.2165 15.75 12.5526Z" fill="currentColor"/><path d="M19 6.65319C19.4693 6.65319 19.8504 7.03354 19.8506 7.5028C19.8506 7.97224 19.4694 8.35339 19 8.35339C18.5307 8.35317 18.1504 7.97211 18.1504 7.5028C18.1506 7.03367 18.5309 6.6534 19 6.65319Z" fill="currentColor"/><path d="M19 10.6532C19.4693 10.6532 19.8504 11.0335 19.8506 11.5028C19.8506 11.9722 19.4694 12.3534 19 12.3534C18.5307 12.3532 18.1504 11.9721 18.1504 11.5028C18.1506 11.0337 18.5309 10.6534 19 10.6532Z" fill="currentColor"/><path d="M4.25 19.0751C4.36689 19.0971 4.48623 19.1172 4.6084 19.1337C4.95145 19.1798 5.33139 19.2067 5.75 19.2235V20.4999C5.75 20.9141 5.41421 21.2499 5 21.2499C4.58579 21.2499 4.25 20.9141 4.25 20.4999V19.0751Z" fill="currentColor"/><path d="M19.75 20.4999C19.75 20.9141 19.4142 21.2499 19 21.2499C18.5858 21.2499 18.25 20.9141 18.25 20.4999V19.2235C18.6686 19.2067 19.0485 19.1798 19.3916 19.1337C19.5138 19.1172 19.6331 19.0971 19.75 19.0751V20.4999Z" fill="currentColor"/></svg>
