<svg xmlns="http://www.w3.org/2000/svg" fill="none" viewBox="0 0 48 48">
  <g>
    <path fill="currentColor" fill-opacity="0.4" fill-rule="evenodd" d="M24 4.5c-8.9952 0 -14.41209 0.30374 -17.52585 0.5909 -2.91878 0.26917 -5.13239 2.45409 -5.42794 5.3749C0.773522 13.1608 0.5 17.4865 0.5 23.9999c0 6.5136 0.273532 10.8393 0.54623 13.5343 0.29554 2.9207 2.50903 5.1056 5.42774 5.3748C9.58771 43.1962 15.0046 43.5 24 43.5c8.9954 0 14.4123 -0.3038 17.526 -0.591 2.9187 -0.2692 5.1322 -2.4541 5.4278 -5.3748 0.2727 -2.695 0.5462 -7.0207 0.5462 -13.5343 0 -6.5134 -0.2735 -10.8391 -0.5462 -13.5341 -0.2956 -2.92081 -2.5092 -5.10573 -5.428 -5.3749C38.4121 4.80374 32.9952 4.5 24 4.5Z" clip-rule="evenodd" stroke-width="3.429"></path>
    <path fill="currentColor" fill-rule="evenodd" d="M20.5 37.5c-5.0084 0 -8.1111 -0.0954 -9.9578 -0.1901 -2.15269 -0.1103 -3.78476 -1.7993 -3.87849 -3.9246C6.58322 31.5601 6.5 28.5688 6.5 24c0 -4.5688 0.08322 -7.5601 0.16371 -9.3853 0.09373 -2.1253 1.72575 -3.8143 3.87839 -3.9246 1.8467 -0.0946 4.9494 -0.1901 9.9579 -0.1901 5.0085 0 8.1112 0.0955 9.9579 0.1901 2.1526 0.1103 3.7847 1.7993 3.8784 3.9246 0.0805 1.8252 0.1637 4.8165 0.1637 9.3853 0 4.5688 -0.0832 7.5601 -0.1637 9.3853 -0.0937 2.1253 -1.7258 3.8143 -3.8785 3.9246 -1.8467 0.0947 -4.9494 0.1901 -9.9578 0.1901Z" clip-rule="evenodd" stroke-width="3.429"></path>
    <path fill="currentColor" fill-rule="evenodd" d="M37.5 14c0 -1.1046 0.8954 -2 2 -2h2c1.1046 0 2 0.8954 2 2s-0.8954 2 -2 2h-2c-1.1046 0 -2 -0.8954 -2 -2Zm0 20c0 1.1046 0.8954 2 2 2h2c1.1046 0 2 -0.8954 2 -2s-0.8954 -2 -2 -2h-2c-1.1046 0 -2 0.8954 -2 2Zm2 -15c-1.1046 0 -2 0.8954 -2 2s0.8954 2 2 2h2c1.1046 0 2 -0.8954 2 -2s-0.8954 -2 -2 -2h-2Z" clip-rule="evenodd" stroke-width="3.429"></path>
  </g>
</svg>
