<svg xmlns="http://www.w3.org/2000/svg" fill="none" viewBox="0 0 48 48">
  <g>
    <path stroke="currentColor" stroke-linejoin="round" d="M2.53859 10.6168c0.22308 -2.20455 1.86683 -3.82876 4.07331 -4.03224C9.66696 6.30282 15.0357 6 24 6c8.9643 0 14.333 0.30282 17.3881 0.58456 2.2065 0.20348 3.8502 1.82769 4.0733 4.03224 0.2667 2.6362 0.5386 6.9106 0.5386 13.3831 0 6.4727 -0.2719 10.7471 -0.5386 13.3833 -0.2231 2.2045 -1.8667 3.8286 -4.0731 4.0321C38.3332 41.6971 32.9645 42 24 42c-8.9645 0 -14.33323 -0.3029 -17.38826 -0.5847 -2.20641 -0.2035 -3.85006 -1.8276 -4.07313 -4.0321C2.27187 34.747 2 30.4726 2 23.9999c0 -6.4725 0.27186 -10.7469 0.53859 -13.3831Z" stroke-width="3.429"></path>
    <path stroke="currentColor" stroke-linejoin="round" d="M8.16225 33.3193c0.06029 1.3669 1.09018 2.4226 2.45665 2.4926 1.8142 0.093 4.8902 0.1881 9.8811 0.1881s8.0669 -0.0951 9.8811 -0.1881c1.3665 -0.07 2.3964 -1.1257 2.4566 -2.4926C32.9171 31.52 33 28.5511 33 24s-0.0829 -7.52 -0.1623 -9.3193c-0.0602 -1.3669 -1.0901 -2.4225 -2.4566 -2.4926C28.5669 12.0952 25.4909 12 20.5 12s-8.0669 0.0952 -9.8811 0.1881c-1.3665 0.0701 -2.39636 1.1257 -2.45664 2.4926C8.08291 16.48 8 19.4489 8 24s0.08291 7.52 0.16225 9.3193Z" stroke-width="3.429"></path>
    <path stroke="currentColor" stroke-linecap="round" stroke-linejoin="round" d="M40.5 16h-2m2 16h-2m2 -10h-2" stroke-width="3.429"></path>
  </g>
</svg>
