<svg xmlns="http://www.w3.org/2000/svg" fill="none" viewBox="0 0 48 48">
  <g>
    <path fill="currentColor" fill-rule="evenodd" d="M24 9c-8.5161 0 -13.5773 0.28479 -16.416 0.54381 -1.1713 0.10687 -1.96648 0.90739 -2.08026 2.01999C5.25723 13.9742 5 17.9421 5 23.9999c0 6.058 0.25724 10.0259 0.50375 12.4363 0.11378 1.1125 0.90891 1.913 2.08013 2.0199C10.4226 38.7152 15.4837 39 24 39s13.5774 -0.2848 16.4161 -0.5439c1.1712 -0.1069 1.9664 -0.9074 2.0802 -2.0199 0.2465 -2.4104 0.5037 -6.3783 0.5037 -12.4363 0 -6.0578 -0.2572 -10.0257 -0.5037 -12.4361 -0.1138 -1.1126 -0.909 -1.91312 -2.0803 -2.01999C37.5773 9.28479 32.5161 9 24 9ZM7.22053 5.56036C10.2142 5.2872 15.4024 5 24 5s13.7858 0.2872 16.7795 0.56036c3.041 0.27748 5.3839 2.54487 5.696 5.59654 0.2627 2.5689 0.5245 6.675 0.5245 12.843 0 6.1682 -0.2618 10.2743 -0.5245 12.8432 -0.3121 3.0516 -2.6548 5.3189 -5.6958 5.5964C37.786 42.7127 32.5978 43 24 43c-8.5978 0 -13.786 -0.2873 -16.77965 -0.5605 -3.04101 -0.2775 -5.38377 -2.5448 -5.69585 -5.5964C1.26178 34.2742 1 30.1681 1 23.9999c0 -6.168 0.26177 -10.2741 0.52449 -12.843 0.31208 -3.05167 2.65496 -5.31906 5.69604 -5.59654ZM35.5 16c0 -1.1046 0.8954 -2 2 -2h1c1.1046 0 2 0.8954 2 2s-0.8954 2 -2 2h-1c-1.1046 0 -2 -0.8954 -2 -2Zm0 6c0 -1.1046 0.8954 -2 2 -2h1c1.1046 0 2 0.8954 2 2s-0.8954 2 -2 2h-1c-1.1046 0 -2 -0.8954 -2 -2Zm0 10c0 -1.1046 0.8954 -2 2 -2h1c1.1046 0 2 0.8954 2 2s-0.8954 2 -2 2h-1c-1.1046 0 -2 -0.8954 -2 -2ZM10.5933 11.6888c1.825 -0.0935 4.9099 -0.1888 9.9067 -0.1888s8.0817 0.0953 9.9067 0.1888c1.6285 0.0834 2.8591 1.3502 2.9306 2.9699C33.417 16.4666 33.5 19.443 33.5 24s-0.083 7.5334 -0.1627 9.3413c-0.0715 1.6197 -1.3021 2.8865 -2.9307 2.9699 -1.825 0.0936 -4.9099 0.1888 -9.9066 0.1888 -4.9967 0 -8.0816 -0.0952 -9.9066 -0.1888 -1.62861 -0.0834 -2.85923 -1.3502 -2.93066 -2.9699C7.58301 31.5334 7.5 28.557 7.5 24s0.08301 -7.5334 0.16274 -9.3413c0.07143 -1.6197 1.30202 -2.8865 2.93056 -2.9699Z" clip-rule="evenodd" stroke-width="3.429"></path>
  </g>
</svg>
