<svg xmlns="http://www.w3.org/2000/svg" fill="none" viewBox="0 0 48 48">
  <g>
    <path fill="currentColor" fill-rule="evenodd" d="M6.47415 5.0909C9.58791 4.80374 15.0048 4.5 24 4.5c8.9952 0 14.4121 0.30374 17.5258 0.5909 2.9188 0.26917 5.1324 2.45409 5.428 5.3749 0.2727 2.695 0.5462 7.0207 0.5462 13.5341 0 6.5136 -0.2735 10.8393 -0.5462 13.5343 -0.2956 2.9207 -2.5091 5.1056 -5.4278 5.3748 -3.1137 0.2872 -8.5306 0.591 -17.526 0.591s-14.41229 -0.3038 -17.52603 -0.591c-2.91871 -0.2692 -5.1322 -2.4541 -5.42774 -5.3748C0.773532 34.8392 0.5 30.5135 0.5 23.9999c0 -6.5134 0.273522 -10.8391 0.54621 -13.5341 0.29555 -2.92081 2.50916 -5.10573 5.42794 -5.3749ZM20.5 36.5c-4.9967 0 -8.0816 -0.0952 -9.9066 -0.1888 -1.62861 -0.0834 -2.85923 -1.3502 -2.93066 -2.9699C7.58301 31.5334 7.5 28.557 7.5 24s0.08301 -7.5334 0.16274 -9.3413c0.07143 -1.6197 1.30202 -2.8865 2.93056 -2.9699 1.825 -0.0935 4.9099 -0.1888 9.9067 -0.1888s8.0817 0.0953 9.9067 0.1888c1.6285 0.0834 2.8591 1.3502 2.9306 2.9699C33.417 16.4666 33.5 19.443 33.5 24s-0.083 7.5334 -0.1627 9.3413c-0.0715 1.6197 -1.3021 2.8865 -2.9307 2.9699 -1.825 0.0936 -4.9099 0.1888 -9.9066 0.1888Zm17 -21.5c0 -1.1046 0.8954 -2 2 -2h2c1.1046 0 2 0.8954 2 2s-0.8954 2 -2 2h-2c-1.1046 0 -2 -0.8954 -2 -2Zm2 20c-1.1046 0 -2 -0.8954 -2 -2s0.8954 -2 2 -2h2c1.1046 0 2 0.8954 2 2s-0.8954 2 -2 2h-2Zm-2 -13c0 -1.1046 0.8954 -2 2 -2h2c1.1046 0 2 0.8954 2 2s-0.8954 2 -2 2h-2c-1.1046 0 -2 -0.8954 -2 -2Z" clip-rule="evenodd" stroke-width="1"></path>
  </g>
</svg>
