<svg xmlns="http://www.w3.org/2000/svg" viewBox="0 0 24 24" fill="none"><path d="M16.0645 2.75C17.4275 2.74997 18.5267 2.74995 19.3916 2.86621C20.2917 2.98723 21.0494 3.24672 21.6514 3.84863C22.2533 4.45055 22.5128 5.20829 22.6338 6.1084C22.7501 6.97331 22.75 8.07249 22.75 9.43555V12.5645C22.75 13.9275 22.7501 15.0267 22.6338 15.8916C22.5128 16.7917 22.2533 17.5494 21.6514 18.1514C21.1311 18.6716 20.4943 18.9349 19.75 19.0752V20.5C19.75 20.9142 19.4142 21.25 19 21.25C18.5858 21.25 18.25 20.9142 18.25 20.5V19.2236C17.6132 19.2492 16.8869 19.25 16.0645 19.25H7.93555C7.11312 19.25 6.3868 19.2492 5.75 19.2236V20.5C5.75 20.9142 5.41421 21.25 5 21.25C4.58579 21.25 4.25 20.9142 4.25 20.5V19.0752C3.50568 18.9349 2.86885 18.6716 2.34863 18.1514C1.74672 17.5494 1.48723 16.7917 1.36621 15.8916C1.24995 15.0267 1.24997 13.9275 1.25 12.5645V9.43555C1.24997 8.07249 1.24995 6.97331 1.36621 6.1084C1.48723 5.20829 1.74672 4.45055 2.34863 3.84863C2.95055 3.24672 3.70829 2.98723 4.6084 2.86621C5.47331 2.74995 6.57249 2.74997 7.93555 2.75H16.0645ZM8 5.75C7.3141 5.75 6.72397 5.74833 6.25391 5.81152C5.76236 5.87764 5.29136 6.027 4.90918 6.40918C4.527 6.79136 4.37764 7.26236 4.31152 7.75391C4.24833 8.22397 4.25 8.8141 4.25 9.5V12.5518C4.24996 13.2156 4.24992 13.7879 4.31152 14.2461C4.37764 14.7376 4.527 15.2086 4.90918 15.5908C5.29136 15.973 5.76236 16.1224 6.25391 16.1885C6.7121 16.2501 7.28439 16.25 7.94824 16.25H12.0518C12.7156 16.25 13.2879 16.2501 13.7461 16.1885C14.2376 16.1224 14.7086 15.973 15.0908 15.5908C15.473 15.2086 15.6224 14.7376 15.6885 14.2461C15.7501 13.7879 15.75 13.2156 15.75 12.5518V9.44824C15.75 8.78439 15.7501 8.2121 15.6885 7.75391C15.6224 7.26236 15.473 6.79136 15.0908 6.40918C14.7086 6.027 14.2376 5.87764 13.7461 5.81152C13.2879 5.74992 12.7156 5.74996 12.0518 5.75H8ZM19 10.6523C18.5309 10.6526 18.1506 11.0328 18.1504 11.502C18.1504 11.9713 18.5307 12.3523 19 12.3525C19.4694 12.3525 19.8506 11.9714 19.8506 11.502C19.8504 11.0327 19.4693 10.6523 19 10.6523ZM19 6.65234C18.5309 6.65256 18.1506 7.03282 18.1504 7.50195C18.1504 7.97126 18.5307 8.35233 19 8.35254C19.4694 8.35254 19.8506 7.9714 19.8506 7.50195C19.8504 7.03269 19.4693 6.65234 19 6.65234Z" fill="currentColor"/></svg>
