<svg xmlns="http://www.w3.org/2000/svg" viewBox="0 0 24 24" fill="none"><path opacity="0.5" d="M2 14V9C2 7.85033 1.99847 6.91596 2.07129 6.16504C2.14563 5.3989 2.30445 4.71821 2.68946 4.10547C3.04909 3.53317 3.53317 3.04909 4.10547 2.68946C4.71821 2.30445 5.3989 2.14563 6.16504 2.07129C6.91596 1.99847 7.85033 2 9 2C9.55229 2 10 2.44772 10 3C10 3.55229 9.55229 4 9 4C7.81078 4 6.99037 4.00121 6.3584 4.0625C5.74207 4.12229 5.41082 4.2315 5.16992 4.38282C4.85192 4.58263 4.58263 4.85191 4.38282 5.16992C4.2315 5.41082 4.12229 5.74207 4.0625 6.3584C4.00121 6.99037 4 7.81078 4 9V14C4 15.6781 4.00207 16.8361 4.11914 17.707C4.23238 18.5492 4.43663 18.9718 4.73242 19.2676C5.02822 19.5634 5.45076 19.7676 6.29297 19.8809C7.16393 19.9979 8.32193 20 10 20H15C16.1892 20 17.0096 19.9988 17.6416 19.9375C18.2579 19.8777 18.5892 19.7685 18.8301 19.6172C19.1481 19.4174 19.4174 19.1481 19.6172 18.8301C19.7685 18.5892 19.8777 18.2579 19.9375 17.6416C19.9988 17.0096 20 16.1892 20 15C20 14.4477 20.4477 14 21 14C21.5523 14 22 14.4477 22 15C22 16.1497 22.0015 17.084 21.9287 17.835C21.8544 18.6011 21.6956 19.2818 21.3105 19.8945C20.9509 20.4668 20.4668 20.9509 19.8945 21.3105C19.2818 21.6956 18.6011 21.8544 17.835 21.9287C17.084 22.0015 16.1497 22 15 22H10C8.37841 22 7.06157 22.0024 6.02637 21.8633C4.96238 21.7202 4.04769 21.411 3.31836 20.6816C2.58903 19.9523 2.27977 19.0376 2.13672 17.9736C1.99755 16.9384 2 15.6216 2 14Z" fill="currentColor"/><path d="M13.0977 2.00485C15.8532 2.2759 17.9281 2.90655 19.5107 4.48923C21.0934 6.07191 21.7241 8.14673 21.9951 10.9023C22.049 11.4519 21.6472 11.941 21.0977 11.9951C20.5481 12.049 20.0589 11.6472 20.0049 11.0976C19.7511 8.5175 19.1947 7.00132 18.0967 5.90329C16.9986 4.80526 15.4825 4.2489 12.9023 3.99509C12.3528 3.94103 11.951 3.45185 12.0049 2.90231C12.0589 2.35276 12.5481 1.95092 13.0977 2.00485Z" fill="currentColor"/></svg>
