<svg xmlns="http://www.w3.org/2000/svg" viewBox="0 0 24 24" fill="none"><path d="M1.99951 14V9C1.99951 7.85033 1.99798 6.91596 2.0708 6.16504C2.14514 5.3989 2.30396 4.71821 2.68897 4.10547C3.0486 3.53317 3.53268 3.04909 4.10498 2.68946C4.71772 2.30445 5.39842 2.14563 6.16455 2.07129C6.91547 1.99847 7.84985 2 8.99951 2C9.5518 2 9.99951 2.44772 9.99951 3C9.99951 3.55229 9.5518 4 8.99951 4C7.81029 4 6.98988 4.00121 6.35791 4.0625C5.74158 4.12229 5.41033 4.2315 5.16944 4.38282C4.85143 4.58263 4.58215 4.85191 4.38233 5.16992C4.23101 5.41082 4.1218 5.74207 4.06201 6.3584C4.00072 6.99037 3.99951 7.81078 3.99951 9V14C3.99951 15.6781 4.00158 16.8361 4.11866 17.707C4.23189 18.5492 4.43614 18.9718 4.73194 19.2676C5.02773 19.5634 5.45027 19.7676 6.29248 19.8809C7.16344 19.9979 8.32144 20 9.99951 20H14.9995C16.1887 20 17.0091 19.9988 17.6411 19.9375C18.2574 19.8777 18.5887 19.7685 18.8296 19.6172C19.1476 19.4174 19.4169 19.1481 19.6167 18.8301C19.768 18.5892 19.8772 18.2579 19.937 17.6416C19.9983 17.0096 19.9995 16.1892 19.9995 15C19.9995 14.4477 20.4472 14 20.9995 14C21.5518 14 21.9995 14.4477 21.9995 15C21.9995 16.1497 22.0011 17.084 21.9282 17.835C21.8539 18.6011 21.6951 19.2818 21.3101 19.8945C20.9504 20.4668 20.4663 20.9509 19.894 21.3105C19.2813 21.6956 18.6006 21.8544 17.8345 21.9287C17.0836 22.0015 16.1492 22 14.9995 22H9.99951C8.37793 22 7.06109 22.0024 6.02588 21.8633C4.96189 21.7202 4.04721 21.411 3.31787 20.6816C2.58854 19.9523 2.27928 19.0376 2.13623 17.9736C1.99707 16.9384 1.99951 15.6216 1.99951 14Z" fill="currentColor"/><path d="M13.0972 2.00485C15.8528 2.2759 17.9276 2.90655 19.5103 4.48923C21.0929 6.07191 21.7236 8.14673 21.9946 10.9023C22.0486 11.4519 21.6467 11.941 21.0972 11.9951C20.5476 12.049 20.0584 11.6472 20.0044 11.0976C19.7506 8.5175 19.1942 7.00132 18.0962 5.90329C16.9982 4.80526 15.482 4.2489 12.9019 3.99509C12.3523 3.94103 11.9505 3.45185 12.0044 2.90231C12.0585 2.35276 12.5476 1.95092 13.0972 2.00485Z" fill="currentColor"/></svg>
