<svg xmlns="http://www.w3.org/2000/svg" viewBox="0 0 24 24" fill="none"><path d="M17.2764 12.75C19.7762 12.75 21.8026 14.7765 21.8027 17.2764C21.8027 18.1654 21.5472 18.9949 21.1045 19.6943L22.456 21.042C22.847 21.4319 22.8479 22.065 22.458 22.456C22.0681 22.847 21.435 22.8479 21.044 22.458L19.6885 21.1074C18.9902 21.548 18.163 21.8027 17.2764 21.8027C14.7765 21.8026 12.75 19.7762 12.75 17.2764C12.7501 14.7766 14.7766 12.7501 17.2764 12.75ZM17.2764 14.75C15.8811 14.7501 14.7501 15.8811 14.75 17.2764C14.75 18.6717 15.8811 19.8026 17.2764 19.8027C18.6717 19.8027 19.8027 18.6717 19.8027 17.2764C19.8026 15.8811 18.6717 14.75 17.2764 14.75Z" fill="currentColor"/><path opacity="0.4" d="M6.54492 1.46948C6.81982 1.34252 6.95754 1.27904 7.08789 1.34644C7.10278 1.35416 7.12053 1.36545 7.13379 1.37573C7.2496 1.46578 7.25 1.62948 7.25 1.95679V17.3123C7.25 17.5014 7.24981 17.5959 7.20605 17.6677C7.16228 17.7396 7.07164 17.7861 6.89062 17.8796C6.65433 18.0017 6.40125 18.149 6.11816 18.3132C5.49938 18.6722 4.92781 19.0037 4.50195 19.196C4.07119 19.3905 3.60341 19.5389 3.11035 19.4509C2.577 19.3557 2.09848 19.0687 1.75879 18.6472C1.44724 18.2607 1.34375 17.7825 1.29688 17.3064C1.25049 16.835 1.24999 16.2324 1.25 15.5037V7.2644C1.24999 6.71326 1.24962 6.24648 1.28711 5.86011C1.32693 5.44986 1.41356 5.07131 1.62012 4.70874C1.82715 4.34536 2.10818 4.07955 2.44043 3.8396C2.75206 3.61457 3.15106 3.38357 3.61914 3.11206L4.90723 2.36499C5.55418 1.98968 6.08415 1.68232 6.54492 1.46948ZM8.88574 1.29077C9.01451 1.20634 9.1603 1.26215 9.45215 1.37476C9.92536 1.55734 10.4736 1.83019 11.1426 2.16284L13.917 3.54272C14.0789 3.62323 14.1601 3.66349 14.2051 3.73608C14.2499 3.80863 14.25 3.89925 14.25 4.07983V11.8337C14.25 11.9442 14.2502 11.9997 14.2256 12.0447C14.2008 12.0897 14.1517 12.1212 14.0537 12.1833C12.3688 13.2519 11.2501 15.1333 11.25 17.2761C11.25 17.5336 11.2665 17.7879 11.2979 18.0369C11.3479 18.4343 11.3727 18.6335 11.2754 18.7029C11.1778 18.7722 11.0074 18.6881 10.668 18.5193L10.0234 18.198C9.64473 18.0097 9.36378 17.872 9.14258 17.7712C8.94442 17.681 8.84554 17.6354 8.79785 17.5613C8.75024 17.4871 8.75 17.3858 8.75 17.1833V1.89429C8.75 1.5565 8.75 1.38741 8.875 1.29761L8.88574 1.29077ZM18.0527 4.1687C18.9504 4.16867 19.701 4.16787 20.2969 4.24976C20.9276 4.33645 21.4955 4.52815 21.9502 4.99292C22.4026 5.45539 22.5861 6.02901 22.6699 6.66577C22.7496 7.27151 22.75 8.03586 22.75 8.95581V12.9324C22.75 13.6191 22.7501 13.9629 22.6221 14.0125C22.4939 14.0618 22.2461 13.7874 21.751 13.239C20.6481 12.0175 19.0517 11.2498 17.2764 11.2498C16.9286 11.2498 16.5875 11.2791 16.2559 11.3357C16.0133 11.3771 15.8923 11.3976 15.8213 11.3376C15.7503 11.2777 15.75 11.1606 15.75 10.9265V4.3396C15.75 4.24522 15.8266 4.16895 15.9209 4.1687H18.0527Z" fill="currentColor"/></svg>
