<svg xmlns="http://www.w3.org/2000/svg" viewBox="0 0 24 24" fill="none"><path d="M14.1373 1.416C14.2353 1.45076 14.3314 1.49075 14.4251 1.53582C14.8799 1.75449 15.2362 2.11356 15.6387 2.51921L20.4215 7.32686L20.4215 7.32686C20.8889 7.79521 21.3036 8.21088 21.5277 8.75463C21.6265 8.99435 21.6816 9.24282 21.7122 9.50258H19.7314C18.3638 9.5026 17.7152 9.50181 16.8483 9.38525C15.9481 9.26424 15.1903 9.00534 14.5884 8.40343C13.9864 7.80151 13.7275 7.04364 13.6065 6.14353C13.4902 5.27834 13.4902 4.63063 13.4902 3.2688V3.26877V1.27734C13.7136 1.30042 13.9283 1.34184 14.1373 1.416Z" fill="currentColor"/><path d="M8 11.248C11.1756 11.248 13.75 13.8224 13.75 16.998C13.75 20.1737 11.1756 22.748 8 22.748C4.82436 22.748 2.25 20.1737 2.25 16.998C2.25 13.8224 4.82436 11.248 8 11.248ZM8 13.748C7.58579 13.748 7.25 14.0838 7.25 14.498V16.998C7.25 17.2488 7.37534 17.483 7.58398 17.6221L9.08398 18.6221C9.42863 18.8518 9.89426 18.7587 10.124 18.4141C10.3538 18.0694 10.2607 17.6038 9.91602 17.374L8.75 16.5967V14.498C8.75 14.0838 8.41421 13.748 8 13.748Z" fill="currentColor"/><path opacity="0.4" d="M12.5896 1.24815L12.5879 1.24815C11.0624 1.24813 9.65455 1.24856 8.67581 1.36338C7.66317 1.48223 6.79461 1.7355 6.0596 2.33116C5.79009 2.54963 5.54453 2.79657 5.32718 3.06749C4.73465 3.80621 4.48255 4.67866 4.36429 5.69639C4.25003 6.6801 4.25001 7.91694 4.25003 9.4503V11.088C5.33419 10.3987 6.62012 9.99815 8.00003 9.99815C11.866 9.99815 15 13.1322 15 16.9981C15 19.3794 13.81 21.4817 11.9932 22.7462C12.3424 22.7475 12.7025 22.7482 13.0713 22.7481H13.0866C14.8521 22.7482 16.276 22.7482 17.3965 22.5968C18.5633 22.4391 19.546 22.1008 20.3262 21.3165C21.1061 20.5323 21.4418 19.5448 21.5987 18.3722C21.7497 17.2426 21.7501 15.8062 21.75 14.0245V10.5499C21.751 9.88665 21.7514 9.29769 21.5274 8.75401C21.3033 8.21051 20.8891 7.79445 20.4219 7.32628L15.6387 2.51866C15.2363 2.11306 14.8796 1.75391 14.4248 1.53526C14.3313 1.4903 14.2355 1.44984 14.1377 1.41514C13.6629 1.24671 13.1587 1.24739 12.5896 1.24815Z" fill="currentColor"/></svg>
