<svg xmlns="http://www.w3.org/2000/svg" viewBox="0 0 24 24" fill="none"><path d="M7.99951 11.248C11.1751 11.248 13.7495 13.8224 13.7495 16.998C13.7495 20.1737 11.1751 22.748 7.99951 22.748C4.82387 22.748 2.24951 20.1737 2.24951 16.998C2.24951 13.8224 4.82387 11.248 7.99951 11.248ZM7.99951 13.748C7.5853 13.748 7.24951 14.0838 7.24951 14.498V16.998C7.24951 17.2488 7.37485 17.483 7.5835 17.6221L9.0835 18.6221C9.42814 18.8518 9.89377 18.7587 10.1235 18.4141C10.3533 18.0694 10.2602 17.6038 9.91553 17.374L8.74951 16.5967V14.498C8.74951 14.0838 8.41373 13.748 7.99951 13.748Z" fill="currentColor"/><path d="M12.5874 1.24815C13.1572 1.24739 13.6619 1.24654 14.1372 1.41514C14.235 1.44984 14.3308 1.4903 14.4243 1.53526C14.8791 1.75391 15.2358 2.11306 15.6382 2.51866L20.4214 7.32628C20.8886 7.79445 21.3028 8.21051 21.5269 8.75401C21.7509 9.29769 21.7506 9.88665 21.7495 10.5499V14.0245C21.7496 15.8062 21.7492 17.2426 21.5982 18.3722C21.4413 19.5448 21.1056 20.5323 20.3257 21.3165C19.5455 22.1008 18.5628 22.4391 17.396 22.5968C16.2723 22.7486 14.8434 22.7482 13.0708 22.7481C12.702 22.7482 12.3419 22.7475 11.9927 22.7462C13.8095 21.4817 14.9995 19.3794 14.9995 16.9981C14.9995 13.1322 11.8655 9.99815 7.99954 9.99815C6.61964 9.99815 5.33371 10.3987 4.24954 11.088V9.4503C4.24952 7.91694 4.24954 6.6801 4.3638 5.69639C4.48206 4.67866 4.73416 3.80621 5.32669 3.06749C5.54404 2.79657 5.7896 2.54963 6.05911 2.33116C6.79412 1.7355 7.66268 1.48223 8.67532 1.36338C9.65406 1.24856 11.0619 1.24813 12.5874 1.24815ZM13.4898 3.26866C13.4898 4.62995 13.4897 5.27785 13.606 6.14268C13.727 7.04251 13.9859 7.80062 14.5874 8.40245C15.1893 9.00436 15.9481 9.26385 16.8482 9.38487C17.7149 9.50138 18.3636 9.50208 19.731 9.50206C19.6742 9.36429 19.5685 9.23344 18.9507 8.61241L14.3462 3.9835C13.8134 3.44787 13.6714 3.31455 13.4898 3.25987V3.26866Z" fill="currentColor" fill-rule="evenodd" clip-rule="evenodd"/></svg>
