<svg xmlns="http://www.w3.org/2000/svg" viewBox="0 0 24 24" fill="none"><path d="M2.25009 12.9265V3.22059C2.25009 2.68455 2.66583 2.25 3.17866 2.25C3.6915 2.25 4.10723 2.68455 4.10723 3.22059C4.10723 4.18569 4.11541 4.47779 4.17071 4.69353C4.34244 5.36342 4.84288 5.88651 5.48377 6.066C5.69017 6.12381 5.96963 6.13235 6.89295 6.13235H7.82152C8.33436 6.13235 8.75009 6.5669 8.75009 7.10294C8.75009 7.63898 8.33436 8.07353 7.82152 8.07353H6.89295C6.08919 8.07353 5.50526 8.08145 5.00316 7.94083C4.68534 7.85182 4.3848 7.7207 4.10723 7.55316V12.9265C4.10723 13.8514 4.10789 14.4803 4.14985 14.9643C4.19066 15.4349 4.26433 15.6727 4.3557 15.8382C4.5187 16.1333 4.75348 16.3787 5.03581 16.5491L5.17001 16.6164C5.32187 16.6804 5.53413 16.7323 5.87188 16.7643C6.33497 16.8081 6.93661 16.8088 7.82152 16.8088C8.33436 16.8088 8.75009 17.2434 8.75009 17.7794C8.75009 18.3155 8.33436 18.75 7.82152 18.75C6.97075 18.75 6.27049 18.7506 5.70412 18.6969C5.19738 18.6489 4.72852 18.5527 4.29222 18.332L4.10723 18.2296C3.54267 17.8889 3.07391 17.3989 2.74793 16.8088C2.46615 16.2987 2.35337 15.745 2.30087 15.1397C2.24954 14.5477 2.25009 13.8157 2.25009 12.9265Z" fill="currentColor"/><path d="M11.2501 5.3331V7.00009C11.2501 7.686 11.2484 8.27613 11.3116 8.74619C11.3777 9.23774 11.5271 9.70873 11.9093 10.0909C12.2915 10.4731 12.7624 10.6225 13.254 10.6886C13.7122 10.7502 14.2845 10.7501 14.9483 10.7501L15.0001 10.7501H18.5001H18.5264C18.9687 10.7501 19.3505 10.7501 19.6632 10.7218C19.9922 10.6919 20.318 10.6256 20.6251 10.4483L20.7511 10.3702C21.037 10.1789 21.2757 9.92414 21.4483 9.62509L21.5099 9.50888C21.6417 9.23634 21.6957 8.95105 21.7218 8.66318C21.7501 8.35048 21.7501 7.96869 21.7501 7.52634V7.50009V7.47385C21.7501 7.0315 21.7501 6.64971 21.7218 6.33701C21.6957 6.04914 21.6417 5.76385 21.5099 5.49131L21.4483 5.37509C21.2509 5.03316 20.967 4.7493 20.6251 4.55185C20.318 4.37456 19.9922 4.30827 19.6632 4.27841C19.3505 4.25007 18.9687 4.25008 18.5263 4.25009L18.5001 4.25009H17.3751L16.7999 3.48349C16.5796 3.1898 16.3929 2.93146 16.1466 2.73642C15.9034 2.54388 15.6233 2.40334 15.3233 2.32431C15.0195 2.24427 14.7003 2.25009 14.3331 2.25009C13.956 2.25009 13.6312 2.24942 13.3644 2.26963C13.0898 2.29044 12.8157 2.33663 12.5489 2.46103C12.0697 2.68456 11.6846 3.06973 11.461 3.54892C11.3366 3.8157 11.2904 4.08978 11.2696 4.36435C11.2494 4.63115 11.2501 4.95605 11.2501 5.3331Z" fill="currentColor"/><path d="M11.2501 16.3331V18.0001C11.2501 18.686 11.2484 19.2761 11.3116 19.7462C11.3777 20.2377 11.5271 20.7087 11.9093 21.0909C12.2915 21.4731 12.7624 21.6225 13.254 21.6886C13.7122 21.7502 14.2845 21.7501 14.9483 21.7501L15.0001 21.7501H18.5001H18.5264C18.9687 21.7501 19.3505 21.7501 19.6632 21.7218C19.9922 21.6919 20.318 21.6256 20.6251 21.4483L20.7511 21.3702C21.037 21.1789 21.2757 20.9241 21.4483 20.6251L21.5099 20.5089C21.6417 20.2363 21.6957 19.9511 21.7218 19.6632C21.7501 19.3505 21.7501 18.9687 21.7501 18.5263V18.5001V18.4739C21.7501 18.0315 21.7501 17.6497 21.7218 17.337C21.6957 17.0491 21.6417 16.7639 21.5099 16.4913L21.4483 16.3751C21.2509 16.0332 20.967 15.7493 20.6251 15.5519C20.318 15.3746 19.9922 15.3083 19.6632 15.2784C19.3505 15.2501 18.9687 15.2501 18.5263 15.2501L18.5001 15.2501H17.3751L16.7999 14.4835C16.5796 14.1898 16.3929 13.9315 16.1466 13.7364C15.9034 13.5439 15.6233 13.4033 15.3233 13.3243C15.0195 13.2443 14.7003 13.2501 14.3331 13.2501C13.956 13.2501 13.6312 13.2494 13.3644 13.2696C13.0898 13.2904 12.8157 13.3366 12.5489 13.461C12.0697 13.6846 11.6846 14.0697 11.461 14.5489C11.3366 14.8157 11.2904 15.0898 11.2696 15.3644C11.2494 15.6311 11.2501 15.956 11.2501 16.3331Z" fill="currentColor"/></svg>
