<svg xmlns="http://www.w3.org/2000/svg" viewBox="0 0 24 24" fill="none"><path opacity="0.4" d="M12 2.25C12.9011 2.25 13.7353 2.30047 14.5068 2.39453C14.5406 2.92108 14.7567 3.43834 15.1592 3.84082L16.0684 4.75L15.1592 5.65918C14.2805 6.53786 14.2805 7.96214 15.1592 8.84082C16.0379 9.71925 17.4622 9.71942 18.3408 8.84082L19.25 7.93164L20.1592 8.84082C20.8032 9.48467 21.7395 9.65453 22.54 9.35449C22.6892 10.2103 22.75 11.1002 22.75 12C22.75 14.6251 21.9907 17.0854 20.208 18.8906C18.4216 20.6995 15.7071 21.75 12 21.75C10.4515 21.75 9.09789 21.5985 7.91992 21.3096C7.58951 21.2285 7.18966 21.3207 6.83789 21.5801C6.02979 22.1762 4.78902 22.75 3 22.75C2.67 22.75 2.37843 22.5344 2.28223 22.2188C2.18605 21.9031 2.30807 21.561 2.58203 21.377C3.1813 20.9741 3.81966 19.617 2.7373 17.9004C1.63081 16.2122 1.25 14.1434 1.25 12C1.25 9.42427 1.8005 6.95115 3.50098 5.125C5.21037 3.28928 7.94704 2.25 12 2.25Z" fill="currentColor"/><path d="M8 11C8.55228 11 9 11.4477 9 12C9 12.5523 8.55228 13 8 13C7.44772 13 7 12.5523 7 12C7 11.4477 7.44771 11 8 11ZM12.1025 11.0049C12.6066 11.0563 13 11.4824 13 12C13 12.5522 12.5522 12.9999 12 13C11.4823 13 11.0562 12.6067 11.0049 12.1025L11 12L11.0049 11.8975C11.0562 11.3933 11.4823 11 12 11L12.1025 11.0049ZM16 11C16.5523 11 17 11.4477 17 12C17 12.5523 16.5523 13 16 13C15.4477 13 15 12.5523 15 12C15 11.4477 15.4477 11 16 11Z" fill="currentColor"/><path d="M21.0429 1.54289C21.4334 1.15237 22.0664 1.15237 22.457 1.54289C22.8475 1.93342 22.8475 2.56643 22.457 2.95696L20.664 4.74992L22.457 6.54289C22.8475 6.93342 22.8475 7.56643 22.457 7.95696C22.0664 8.34748 21.4334 8.34748 21.0429 7.95696L19.2499 6.16399L17.457 7.95696C17.0664 8.34748 16.4334 8.34748 16.0429 7.95696C15.6524 7.56643 15.6524 6.93342 16.0429 6.54289L17.8359 4.74992L16.0429 2.95696C15.6524 2.56643 15.6524 1.93342 16.0429 1.54289C16.4334 1.15237 17.0664 1.15237 17.457 1.54289L19.2499 3.33586L21.0429 1.54289Z" fill="currentColor"/></svg>
