<svg xmlns="http://www.w3.org/2000/svg" viewBox="0 0 24 24" fill="none"><path opacity="0.4" d="M11.5874 1.2501C12.1573 1.24934 12.6618 1.24866 13.1373 1.41733C13.2353 1.45209 13.3313 1.49208 13.425 1.53715C13.8799 1.75582 14.2361 2.11489 14.6386 2.52054L19.4214 7.32819C19.8888 7.79654 20.3036 8.2122 20.5277 8.75596C20.7517 9.29971 20.7508 9.88846 20.7498 10.5518L20.7497 14.0261C20.7497 15.8081 20.7497 17.2445 20.5986 18.3741C20.4417 19.547 20.1062 20.5345 19.3259 21.3188C18.5457 22.1031 17.5632 22.4405 16.3964 22.5982C15.2726 22.75 13.8437 22.75 12.0709 22.75C10.2981 22.75 8.72699 22.75 7.60316 22.5982C6.43637 22.4405 5.45395 22.1031 4.6737 21.3188C3.89345 20.5345 3.55786 19.547 3.40099 18.3741C3.24989 17.2445 3.24991 15.8081 3.24994 14.0262V14.0261V9.45263V9.4526C3.24992 7.91893 3.2499 6.6824 3.36418 5.69856C3.48242 4.6806 3.73412 3.80839 4.32675 3.06954C4.54429 2.79833 4.79005 2.55128 5.05986 2.33261C5.79489 1.7369 6.66259 1.48389 7.67528 1.36504C8.65404 1.25017 10.0616 1.25008 11.5874 1.2501Z" fill="currentColor"/><path d="M13.1373 1.41698C13.2353 1.45174 13.3313 1.49173 13.425 1.53679C13.8799 1.75546 14.2361 2.11454 14.6386 2.52018L19.4214 7.32783L19.4214 7.32784C19.8888 7.79619 20.3036 8.21185 20.5277 8.7556C20.6264 8.99533 20.6815 9.2438 20.7121 9.50356H18.7313C17.3637 9.50358 16.7152 9.50279 15.8482 9.38623C14.9481 9.26521 14.1902 9.00632 13.5883 8.4044C12.9864 7.80249 12.7275 7.04461 12.6065 6.14451C12.4901 5.27932 12.4902 4.63161 12.4902 3.26977V3.26974V1.27832C12.7136 1.30139 12.9282 1.34281 13.1373 1.41698Z" fill="currentColor"/><path d="M11.9999 11.25C13.5187 11.25 14.7499 12.4812 14.7499 14C14.7499 15.0359 14.1762 15.9364 13.33 16.4053C15.3853 16.8922 17.0136 18.482 17.5556 20.5156C17.2368 20.6697 16.8248 20.7858 16.2558 20.8623C15.2487 20.9977 13.9138 21 11.9999 21C10.0861 21 8.75121 20.9977 7.74408 20.8623C7.17459 20.7857 6.7622 20.6699 6.4433 20.5156C6.98512 18.4821 8.61366 16.8924 10.6689 16.4053C9.82313 15.9362 9.24995 15.0356 9.24994 14C9.24994 12.4812 10.4812 11.25 11.9999 11.25Z" fill="currentColor"/></svg>
