<svg xmlns="http://www.w3.org/2000/svg" viewBox="0 0 24 24" fill="none"><path d="M11.5878 1.2501C12.1576 1.24934 12.6623 1.24848 13.1376 1.4171C13.2354 1.4518 13.3312 1.49224 13.4247 1.53721C13.8796 1.75587 14.2362 2.11499 14.6386 2.52061L19.4218 7.32823C19.889 7.79643 20.3032 8.21242 20.5273 8.75596C20.7513 9.29967 20.751 9.88856 20.7499 10.5519V14.0265C20.75 15.8082 20.7496 17.2445 20.5986 18.3741C20.4417 19.5468 20.1061 20.5342 19.3261 21.3185C18.5459 22.1028 17.5632 22.441 16.3964 22.5987C15.2727 22.7506 13.8438 22.7501 12.0712 22.7501C10.2986 22.7501 8.72727 22.7506 7.60346 22.5987C6.43667 22.441 5.45401 22.1028 4.67377 21.3185C3.8937 20.5342 3.55816 19.5469 3.40131 18.3741C3.25024 17.2445 3.24991 15.8083 3.24994 14.0265V9.45225C3.24992 7.91884 3.24993 6.68207 3.3642 5.69835C3.48246 4.68057 3.73454 3.80819 4.32709 3.06944C4.54445 2.7985 4.78998 2.5516 5.05951 2.33311C5.79453 1.73743 6.66305 1.48419 7.67572 1.36534C8.65446 1.25052 10.0623 1.25008 11.5878 1.2501ZM11.9999 11.2501C10.4812 11.2501 9.24994 12.4813 9.24994 14.0001C9.24996 15.0357 9.82313 15.9364 10.6689 16.4054C8.61366 16.8925 6.98512 18.4823 6.4433 20.5157C6.7622 20.67 7.17459 20.7858 7.74408 20.8624C8.75121 20.9978 10.0861 21.0001 11.9999 21.0001C13.9138 21.0001 15.2487 20.9978 16.2558 20.8624C16.8248 20.7859 17.2368 20.6698 17.5556 20.5157C17.0136 18.4821 15.3853 16.8923 13.33 16.4054C14.1762 15.9365 14.7499 15.036 14.7499 14.0001C14.7499 12.4813 13.5187 11.2501 11.9999 11.2501ZM12.4902 3.27061C12.4902 4.63196 12.4901 5.27975 12.6064 6.14463C12.7274 7.04449 12.9863 7.80257 13.5878 8.4044C14.1897 9.00631 14.9485 9.26581 15.8486 9.38682C16.7153 9.50333 17.364 9.50403 18.7314 9.50401C18.6746 9.36621 18.5691 9.23553 17.9511 8.61436L13.3466 3.98546C12.8137 3.44978 12.6718 3.31651 12.4902 3.26182V3.27061Z" fill="currentColor" fill-rule="evenodd" clip-rule="evenodd"/></svg>
