<svg xmlns="http://www.w3.org/2000/svg" viewBox="0 0 24 24" fill="none"><path opacity="0.4" d="M18.5957 13.6309C17.8711 13.7355 16.9135 13.7475 15.75 13.749L15.75 14.0518C15.75 14.7156 15.7501 15.2879 15.6885 15.7461C15.6223 16.2376 15.473 16.7086 15.0908 17.0908C14.7086 17.473 14.2376 17.6224 13.7461 17.6885C13.2879 17.7501 12.7156 17.75 12.0518 17.75H11.9482C11.2844 17.75 10.7121 17.7501 10.2539 17.6885C9.76234 17.6224 9.29135 17.473 8.90917 17.0908C8.52698 16.7086 8.37763 16.2376 8.31151 15.7461C8.24831 15.276 8.24999 14.6859 8.24999 14V13.749C7.0865 13.7475 6.12887 13.7355 5.40429 13.6309C4.58544 13.5126 3.76265 13.2369 3.3994 12.4111C3.03713 11.5875 3.38571 10.7932 3.84862 10.1055C4.31577 9.41154 5.07456 8.57213 6.00999 7.5373L8.54711 4.73103C9.20087 4.00772 9.74401 3.40681 10.2363 2.99414C10.7545 2.55981 11.312 2.25 12 2.25C12.688 2.25 13.2455 2.55981 13.7637 2.99414C14.256 3.40681 14.7991 4.00772 15.4529 4.73102L17.99 7.53733C18.9254 8.57215 19.6842 9.41154 20.1514 10.1055C20.6143 10.7932 20.9629 11.5875 20.6006 12.4111C20.2373 13.2369 19.4145 13.5126 18.5957 13.6309Z" fill="currentColor"/><path d="M14.75 21.75C15.3023 21.75 15.75 21.3023 15.75 20.75C15.75 20.1977 15.3023 19.75 14.75 19.75H9.25C8.69772 19.75 8.25 20.1977 8.25 20.75C8.25 21.3023 8.69772 21.75 9.25 21.75H14.75Z" fill="currentColor"/></svg>
