<svg xmlns="http://www.w3.org/2000/svg" viewBox="0 0 24 24" fill="none"><path d="M18.5952 13.6313C17.8706 13.736 16.913 13.748 15.7495 13.7495L15.7495 14.0523C15.7495 14.7161 15.7496 15.2884 15.688 15.7466C15.6219 16.2381 15.4725 16.7091 15.0903 17.0913C14.7081 17.4735 14.2371 17.6229 13.7456 17.689C13.2874 17.7506 12.7151 17.7505 12.0513 17.7505H11.9477C11.2839 17.7505 10.7116 17.7506 10.2534 17.689C9.76185 17.6229 9.29087 17.4735 8.90868 17.0913C8.52649 16.7091 8.37714 16.2381 8.31102 15.7466C8.24783 15.2765 8.2495 14.6864 8.2495 14.0005V13.7495C7.08601 13.748 6.12838 13.736 5.4038 13.6313C4.58496 13.5131 3.76216 13.2374 3.39891 12.4116C3.03664 11.588 3.38522 10.7937 3.84813 10.106C4.31529 9.41203 5.07407 8.57262 6.0095 7.53779L8.54662 4.73151C9.20039 4.00821 9.74352 3.4073 10.2358 2.99463C10.754 2.5603 11.3115 2.25049 11.9995 2.25049C12.6875 2.25049 13.245 2.5603 13.7632 2.99463C14.2555 3.4073 14.7986 4.0082 15.4524 4.7315L17.9895 7.53782C18.9249 8.57264 19.6837 9.41203 20.1509 10.106C20.6138 10.7937 20.9624 11.588 20.6001 12.4116C20.2368 13.2374 19.414 13.5131 18.5952 13.6313Z" fill="currentColor"/><path d="M14.7495 21.7505C15.3018 21.7505 15.7495 21.3028 15.7495 20.7505C15.7495 20.1982 15.3018 19.7505 14.7495 19.7505H9.24951C8.69723 19.7505 8.24951 20.1982 8.24951 20.7505C8.24951 21.3028 8.69723 21.7505 9.24951 21.7505H14.7495Z" fill="currentColor"/></svg>
