<svg xmlns="http://www.w3.org/2000/svg" viewBox="0 0 24 24" fill="none"><path opacity="0.4" d="M14.0001 1.99952C16.7615 1.99952 19.0001 4.2381 19.0001 6.99952C19.0001 9.76094 16.7615 11.9995 14.0001 11.9995H10.0001V20.9995C10.0001 21.5518 9.55235 21.9995 9.00006 21.9995C8.44778 21.9995 8.00006 21.5518 8.00006 20.9995V11.9995H6.00006C5.44778 11.9995 5.00006 11.5518 5.00006 10.9995C5.00006 10.4472 5.44778 9.99952 6.00006 9.99952H8.00006V6.99952C8.00006 6.08498 7.99783 5.29814 8.08209 4.67139C8.17025 4.01599 8.36939 3.388 8.87897 2.87842C9.38855 2.36884 10.0165 2.1697 10.6719 2.08155C11.2987 1.99728 12.0855 1.99952 13.0001 1.99952H14.0001ZM13.0001 3.99952C12.029 3.99952 11.401 4.00179 10.9385 4.06397C10.505 4.12229 10.3691 4.21638 10.293 4.29249C10.2169 4.3686 10.1228 4.50445 10.0645 4.93799C10.0023 5.4005 10.0001 6.02844 10.0001 6.99952V9.99952H14.0001C15.6569 9.99952 17.0001 8.65637 17.0001 6.99952C17.0001 5.34267 15.6569 3.99952 14.0001 3.99952H13.0001Z" fill="currentColor" fill-rule="evenodd" clip-rule="evenodd"/><path d="M14.0001 13.9995C14.5524 13.9995 15.0001 14.4472 15.0001 14.9995C15.0001 15.5518 14.5524 15.9995 14.0001 15.9995H6.00012C5.44784 15.9995 5.00012 15.5518 5.00012 14.9995C5.00012 14.4472 5.44784 13.9995 6.00012 13.9995H14.0001Z" fill="currentColor"/></svg>
