<svg xmlns="http://www.w3.org/2000/svg" viewBox="0 0 24 24" fill="none"><path d="M14.0001 1.99952C16.7615 1.99952 19.0001 4.2381 19.0001 6.99952C19.0001 9.76094 16.7615 11.9995 14.0001 11.9995H10.0001V13.9995H14.0001C14.5524 13.9995 15.0001 14.4472 15.0001 14.9995C15.0001 15.5518 14.5524 15.9995 14.0001 15.9995H10.0001V20.9995C10.0001 21.5518 9.55241 21.9995 9.00012 21.9995C8.44784 21.9995 8.00012 21.5518 8.00012 20.9995V15.9995H6.00012C5.44784 15.9995 5.00012 15.5518 5.00012 14.9995C5.00012 14.4472 5.44784 13.9995 6.00012 13.9995H8.00012V11.9995H6.00012C5.44784 11.9995 5.00012 11.5518 5.00012 10.9995C5.00012 10.4472 5.44784 9.99952 6.00012 9.99952H8.00012V6.99952C8.00012 6.08498 7.99789 5.29814 8.08215 4.67139C8.17031 4.01599 8.36945 3.388 8.87903 2.87842C9.38861 2.36884 10.0166 2.1697 10.672 2.08155C11.2987 1.99728 12.0856 1.99952 13.0001 1.99952H14.0001ZM13.0001 3.99952C12.029 3.99952 11.4011 4.00179 10.9386 4.06397C10.5051 4.12229 10.3692 4.21638 10.2931 4.29249C10.217 4.3686 10.1229 4.50445 10.0646 4.93799C10.0024 5.4005 10.0001 6.02844 10.0001 6.99952V9.99952H14.0001C15.657 9.99952 17.0001 8.65637 17.0001 6.99952C17.0001 5.34267 15.657 3.99952 14.0001 3.99952H13.0001Z" fill="currentColor" fill-rule="evenodd" clip-rule="evenodd"/></svg>
