<svg xmlns="http://www.w3.org/2000/svg" viewBox="0 0 24 24" fill="none"><path d="M19.7773 22.875C20.3143 22.875 20.75 22.4372 20.75 21.8975C20.7499 21.3579 20.3142 20.9209 19.7773 20.9209H19.6875C19.6571 20.8848 19.6244 20.8448 19.5928 20.8008C19.4255 20.5684 19.292 20.277 19.292 19.9434C19.292 19.6096 19.4254 19.3174 19.5928 19.085C19.6244 19.0411 19.6572 19.0018 19.6875 18.9658H19.7773C20.3143 18.9658 20.75 18.528 20.75 17.9883L20.75 6.19336C20.7501 5.32863 20.7497 4.58322 20.6699 3.98633C20.5842 3.34592 20.3908 2.73233 19.8955 2.23438C19.4001 1.73638 18.7895 1.54123 18.1523 1.45508C17.5584 1.37481 16.8166 1.37495 15.9561 1.375H10C8.67772 1.37498 7.5876 1.37474 6.72559 1.49121C5.82365 1.61313 5.02746 1.8794 4.38965 2.52051C3.75177 3.16171 3.48749 3.9624 3.36621 4.86914C3.25036 5.73562 3.24998 6.83106 3.25 8.16016L3.25 19.9434C3.2501 21.5625 4.55622 22.875 6.16699 22.875L19.7773 22.875ZM12.2305 14.2539C9.89414 14.2537 8.00021 12.3598 8 10.0234C8 8.48328 8.8238 7.13621 10.0498 6.39746C10.5228 6.1125 11.1369 6.26527 11.4219 6.73828C11.7067 7.21123 11.5549 7.82532 11.082 8.11035C10.4316 8.50228 10 9.21317 10 10.0234C10.0002 11.2552 10.9987 12.2537 12.2305 12.2539C13.0407 12.2539 13.7516 11.8223 14.1436 11.1719C14.4286 10.699 15.0427 10.5472 15.5156 10.832C15.9886 11.1171 16.1414 11.7311 15.8564 12.2041C15.1177 13.4301 13.7706 14.2539 12.2305 14.2539ZM13.5664 9.6875C13.0141 9.6875 12.5664 9.23979 12.5664 8.6875C12.5664 8.13522 13.0141 7.6875 13.5664 7.6875L13.6689 7.69238C14.1731 7.74371 14.5664 8.16982 14.5664 8.6875C14.5664 9.23979 14.1187 9.6875 13.5664 9.6875ZM6.16797 20.9189C5.63111 20.9189 5.19546 20.482 5.19531 19.9424C5.19531 19.4027 5.63103 18.9648 6.16797 18.9648H17.501C17.4091 19.2564 17.3477 19.5833 17.3477 19.9424C17.3477 20.3012 17.4092 20.6275 17.501 20.9189H6.16797Z" fill="currentColor"/></svg>
