<svg xmlns="http://www.w3.org/2000/svg" fill="none" viewBox="0 0 14 14">
  <g>
    <path fill="currentColor" fill-opacity="0.4" d="M0.801409 11.1485 0.75 7.0067C2.3396 4.381 3.63714 2.87706 6.45216 0.921986c0.33017 -0.229315 0.76551 -0.229315 1.09569 0C10.3629 2.87706 11.6604 4.381 13.25 7.0067l-0.0514 4.1418c-0.1078 0.9703 -0.8733 1.7437 -1.8328 1.8561 -2.79238 0.3272 -5.93922 0.3272 -8.7316 0 -0.95949 -0.1124 -1.725026 -0.8858 -1.832791 -1.8561Z" stroke-width="1"></path>
    <path stroke="currentColor" stroke-linecap="round" stroke-linejoin="round" d="M0.801409 11.1485 0.75 7.0067C2.3396 4.38099 3.63714 2.87706 6.45216 0.921986c0.33017 -0.229315 0.76551 -0.229315 1.09569 0C10.3629 2.87706 11.6604 4.38099 13.25 7.0067l-0.0514 4.1418c-0.1078 0.9703 -0.8733 1.7437 -1.8328 1.8561 -2.79238 0.3272 -5.93922 0.3272 -8.7316 0 -0.95949 -0.1124 -1.725026 -0.8858 -1.832791 -1.8561Z" stroke-width="1"></path>
  </g>
</svg>
