<svg xmlns="http://www.w3.org/2000/svg" fill="none" viewBox="0 0 14 14">
  <g>
    <path fill="currentColor" fill-rule="evenodd" d="M6.10656 0.530207C6.37497 0.343793 6.68721 0.25 6.99982 0.25c0.31261 0 0.62486 0.093793 0.89327 0.280207C10.73 2.50049 12.0602 4.04139 13.6593 6.68289l0.0925 0.15281 -0.0529 4.2683 -0.0034 0.0306c-0.1374 1.2369 -1.1123 2.2263 -2.3446 2.3707 -1.39441 0.1633 -2.87376 0.2447 -4.35108 0.2447 -1.47732 0 -2.95666 -0.0814 -4.35106 -0.2447 -1.23235 -0.1444 -2.207207 -1.1338 -2.344586 -2.3707l-0.00339 -0.0306 -0.052981 -4.2683 0.092513 -0.15281C1.93947 4.04139 3.26964 2.50049 6.10656 0.530207ZM6.99987 1.5c0.06249 0 0.1252 0.01857 0.18037 0.05688 2.62578 1.82365 3.84336 3.21084 5.31746 5.6213L12.45 11.0243c-0.0852 0.6517 -0.6052 1.1646 -1.2444 1.2394 -1.34212 0.1573 -2.77284 0.2363 -4.20573 0.2363s-2.86346 -0.079 -4.2056 -0.2363c-0.63919 -0.0748 -1.15915 -0.5877 -1.24433 -1.2394L1.5022 7.17818c1.47408 -2.41046 2.69167 -3.79765 5.31745 -5.6213 0.05517 -0.03831 0.11773 -0.05688 0.18022 -0.05688Z" clip-rule="evenodd" stroke-width="1"></path>
  </g>
</svg>
