<svg xmlns="http://www.w3.org/2000/svg" fill="none" viewBox="0 0 14 14">
  <g>
    <path fill="currentColor" fill-rule="evenodd" d="M7.83306 0.511315c-0.50167 -0.34842 -1.16445 -0.34842 -1.66612 0C3.28936 2.50984 1.94495 4.06741 0.322275 6.74776c-0.048371 0.0799 -0.073396 0.17175 -0.072236 0.26515l0.051409 4.14179c0.000203 0.0164 0.00121 0.0328 0.003017 0.049 0.13318 1.1992 1.078425 2.1577 2.271555 2.2975 2.83103 0.3317 6.01693 0.3317 8.84798 0 1.1931 -0.1398 2.1384 -1.0983 2.2715 -2.2975 0.0018 -0.0162 0.0028 -0.0326 0.0031 -0.049l0.0514 -4.14179c0.0011 -0.0934 -0.0239 -0.18525 -0.0723 -0.26515C12.055 4.06741 10.7106 2.50984 7.83306 0.511315Z" clip-rule="evenodd" stroke-width="1"></path>
  </g>
</svg>
