<svg xmlns="http://www.w3.org/2000/svg" viewBox="0 0 24 24" fill="none"><path opacity="0.4" d="M19.75 15.0579V15V9V8.94211C19.75 7.34052 19.75 6.06221 19.6152 5.05957C19.4759 4.02332 19.18 3.17025 18.5049 2.49512C17.8298 1.81999 16.9767 1.52409 15.9404 1.38477C14.9378 1.24996 13.6595 1.24998 12.0579 1.25H12H11.9421C10.3405 1.24998 9.06221 1.24996 8.05957 1.38477C7.02332 1.52409 6.17025 1.81999 5.49512 2.49512C4.81999 3.17025 4.52409 4.02332 4.38477 5.05957C4.24996 6.06221 4.24998 7.34053 4.25 8.94213V9V15V15.0579C4.24998 16.6595 4.24996 17.9378 4.38477 18.9404C4.52409 19.9767 4.81999 20.8298 5.49512 21.5049C6.17025 22.18 7.02332 22.4759 8.05957 22.6152C9.06221 22.75 10.3405 22.75 11.9421 22.75H12H12.0579C13.6595 22.75 14.9378 22.75 15.9404 22.6152C16.9767 22.4759 17.8298 22.18 18.5049 21.5049C19.18 20.8298 19.4759 19.9767 19.6152 18.9404C19.75 17.9378 19.75 16.6595 19.75 15.0579Z" fill="currentColor"/><path d="M12 18C12.5523 18 13 18.4477 13 19C13 19.5523 12.5523 20 12 20C11.4477 20 11 19.5523 11 19C11 18.4477 11.4477 18 12 18Z" fill="currentColor"/><path d="M12 6.5C13.7949 6.5 15.25 7.94728 15.25 9.73242C15.25 10.7531 14.8437 11.547 14.0312 12.2559C13.4585 12.7556 12.4376 13.8406 12 14.5C11.5835 13.8273 10.5415 12.7556 9.96875 12.2559C9.15629 11.547 8.75004 10.7531 8.75 9.73242C8.75 7.94728 10.2051 6.5 12 6.5ZM12 8.5C11.3096 8.5 10.75 9.05965 10.75 9.75C10.75 10.4404 11.3096 11 12 11C12.6904 11 13.25 10.4404 13.25 9.75C13.25 9.05965 12.6904 8.5 12 8.5Z" fill="currentColor"/></svg>
