<svg xmlns="http://www.w3.org/2000/svg" viewBox="0 0 24 24" fill="none"><path d="M12.0576 1.25C13.6592 1.24998 14.9378 1.24996 15.9404 1.38477C16.9767 1.52409 17.8298 1.81999 18.5049 2.49512C19.18 3.17025 19.4759 4.02332 19.6152 5.05957C19.75 6.06221 19.75 7.34079 19.75 8.94238V15.0576C19.75 16.6592 19.75 17.9378 19.6152 18.9404C19.4759 19.9767 19.18 20.8298 18.5049 21.5049C17.8298 22.18 16.9767 22.4759 15.9404 22.6152C14.9378 22.75 13.6592 22.75 12.0576 22.75H11.9424C10.3408 22.75 9.06221 22.75 8.05957 22.6152C7.02332 22.4759 6.17025 22.18 5.49512 21.5049C4.81999 20.8298 4.52409 19.9767 4.38477 18.9404C4.24996 17.9378 4.24998 16.6592 4.25 15.0576V8.94238C4.24998 7.34078 4.24996 6.06221 4.38477 5.05957C4.52409 4.02332 4.81998 3.17025 5.49512 2.49512C6.17025 1.81998 7.02332 1.52409 8.05957 1.38477C9.06221 1.24996 10.3408 1.24998 11.9424 1.25H12.0576ZM12 18C11.4477 18 11 18.4477 11 19C11 19.5523 11.4477 20 12 20C12.5523 20 13 19.5523 13 19C13 18.4477 12.5523 18 12 18ZM12 6.5C10.2051 6.5 8.75 7.94728 8.75 9.73242C8.75004 10.7531 9.15629 11.547 9.96875 12.2559C10.5415 12.7556 11.5835 13.8273 12 14.5C12.4376 13.8406 13.4585 12.7556 14.0312 12.2559C14.8437 11.547 15.25 10.7531 15.25 9.73242C15.25 7.94728 13.7949 6.5 12 6.5Z" fill="currentColor"/><path d="M12 8.5C12.6904 8.5 13.25 9.05965 13.25 9.75C13.25 10.4404 12.6904 11 12 11C11.3096 11 10.75 10.4404 10.75 9.75C10.75 9.05965 11.3096 8.5 12 8.5Z" fill="currentColor"/></svg>
