<svg xmlns="http://www.w3.org/2000/svg" viewBox="0 0 24 24" fill="none"><path d="M7.58388 1.37601C7.9285 1.14628 8.39414 1.23945 8.62392 1.58401L9.73721 3.25491C9.07658 3.26111 8.49292 3.27681 7.98135 3.32425L7.37588 2.41605C7.14619 2.07141 7.23927 1.60575 7.58388 1.37601Z" fill="currentColor"/><path opacity="0.4" d="M16.9707 3.37793C16.7029 3.30617 16.4097 3.27461 16.0605 3.26074L10.9355 3.25H10.9355C9.57247 3.24997 8.4733 3.24995 7.6084 3.36621C6.7083 3.48723 5.95055 3.74673 5.34863 4.34863C4.74673 4.95054 4.48723 5.70831 4.36621 6.6084C4.24995 7.4733 4.24997 8.5725 4.25 9.93554V9.93555V16.0645C4.24997 17.4275 4.24995 18.5267 4.36621 19.3916C4.48723 20.2917 4.74674 21.0495 5.34863 21.6514C5.95055 22.2533 6.7083 22.5128 7.6084 22.6338C8.47329 22.7501 9.57253 22.75 10.9355 22.75H13.0645C14.4275 22.75 15.5267 22.7501 16.3916 22.6338C17.2917 22.5128 18.0495 22.2533 18.6514 21.6514C19.2533 21.0495 19.5128 20.2917 19.6338 19.3916C19.75 18.5267 19.75 17.4275 19.75 16.0645V8C19.75 7.11834 19.7563 6.5302 19.6221 6.0293C19.2753 4.73536 18.2647 3.7247 16.9707 3.37793Z" fill="currentColor"/><path d="M12 11.25C13.5188 11.25 14.75 12.4812 14.75 14C14.75 15.0359 14.1762 15.9364 13.3301 16.4053C15.3183 16.8764 16.9067 18.3795 17.499 20.3184C17.4714 20.3523 17.4437 20.3845 17.4141 20.4141C17.1915 20.6366 16.8642 20.8045 16.1582 20.8994C15.4234 20.9982 14.4422 21 13 21H11C9.55778 21 8.57657 20.9982 7.8418 20.8994C7.13575 20.8045 6.80851 20.6366 6.58594 20.4141C6.55651 20.3846 6.52845 20.3531 6.50098 20.3193C7.09291 18.3803 8.68084 16.8767 10.6689 16.4053C9.82319 15.9362 9.25 15.0356 9.25 14C9.25 12.4812 10.4812 11.25 12 11.25Z" fill="currentColor"/><path d="M13.4014 7.25002L16.0605 3.26076L16.624 2.41603C16.8537 2.07139 16.7606 1.60575 16.416 1.37599C16.0714 1.1463 15.6057 1.23942 15.376 1.584L14.2656 3.25002L11.5986 7.25002H10C9.5858 7.25002 9.25002 7.58582 9.25 8.00002C9.25 8.41423 9.58579 8.75002 10 8.75002H14C14.4142 8.75002 14.75 8.41423 14.75 8.00002C14.75 7.58582 14.4142 7.25002 14 7.25002H13.4014Z" fill="currentColor"/></svg>
