<svg xmlns="http://www.w3.org/2000/svg" viewBox="0 0 24 24" fill="none"><path d="M7.58399 1.37602C7.92861 1.14629 8.39425 1.23943 8.62402 1.58402L9.73731 3.25492C10.1117 3.25141 10.5108 3.25003 10.9355 3.25004H14.2656L11.5986 7.25004H10C9.58579 7.25004 9.25 7.58583 9.25 8.00004C9.25 8.41425 9.58579 8.75004 10 8.75004H14C14.4142 8.75004 14.75 8.41425 14.75 8.00004C14.75 7.58583 14.4142 7.25004 14 7.25004H13.4014L16.0605 3.26078C16.4097 3.27465 16.7029 3.30621 16.9707 3.37797C18.2647 3.72474 19.2753 4.73539 19.6221 6.02934C19.7563 6.53024 19.75 7.11838 19.75 8.00004V16.0645C19.75 17.4275 19.75 18.5267 19.6338 19.3916C19.5128 20.2917 19.2533 21.0495 18.6514 21.6514C18.0495 22.2533 17.2917 22.5128 16.3916 22.6338C15.5267 22.7501 14.4275 22.7501 13.0645 22.75H10.9355C9.57253 22.7501 8.47329 22.7501 7.6084 22.6338C6.7083 22.5128 5.95055 22.2533 5.34863 21.6514C4.74674 21.0495 4.48723 20.2917 4.36621 19.3916C4.24995 18.5267 4.24997 17.4276 4.25 16.0645V9.93559C4.24997 8.57255 4.24995 7.47334 4.36621 6.60844C4.48723 5.70835 4.74673 4.95058 5.34863 4.34867C5.95055 3.74677 6.7083 3.48727 7.6084 3.36625C7.72823 3.35014 7.85255 3.33621 7.98145 3.32426L7.37598 2.41605C7.14625 2.07141 7.23936 1.60577 7.58399 1.37602ZM12 11.25C10.4812 11.25 9.25 12.4813 9.25 14C9.25 15.0357 9.82319 15.9363 10.6689 16.4053C8.68084 16.8767 7.09291 18.3803 6.50098 20.3194C6.52845 20.3531 6.55651 20.3847 6.58594 20.4141C6.80851 20.6367 7.13576 20.8045 7.8418 20.8995C8.57657 20.9982 9.55778 21 11 21H13C14.4422 21 15.4234 20.9982 16.1582 20.8995C16.8642 20.8045 17.1915 20.6367 17.4141 20.4141C17.4437 20.3845 17.4714 20.3523 17.499 20.3184C16.9067 18.3796 15.3183 16.8764 13.3301 16.4053C14.1762 15.9364 14.75 15.036 14.75 14C14.75 12.4813 13.5188 11.25 12 11.25ZM15.376 1.58402C15.6057 1.23945 16.0714 1.14644 16.416 1.37602C16.7607 1.60578 16.8538 2.07141 16.624 2.41605L16.0615 3.26078C15.7576 3.24871 15.4103 3.25004 15 3.25004H14.2656L15.376 1.58402Z" fill="currentColor" fill-rule="evenodd" clip-rule="evenodd"/></svg>
