<svg xmlns="http://www.w3.org/2000/svg" viewBox="0 0 24 24" fill="none"><path d="M16.9443 3.75196C16.9626 3.75062 16.9814 3.75 17 3.75C17.0224 3.75 17.0445 3.75101 17.0664 3.75293C17.9137 3.76025 18.6475 3.7856 19.2656 3.87403C20.1852 4.0056 20.9912 4.29305 21.6289 4.97168C22.2578 5.64085 22.5153 6.47051 22.6348 7.41602C22.7498 8.32608 22.75 9.4795 22.75 10.8945V13.1055C22.75 14.5205 22.7498 15.6739 22.6348 16.584C22.5153 17.5295 22.2578 18.3592 21.6289 19.0283C20.9912 19.707 20.1852 19.9944 19.2656 20.126C18.6475 20.2144 17.9137 20.2398 17.0664 20.2471C17.0445 20.249 17.0224 20.25 17 20.25C16.9814 20.25 16.9626 20.2494 16.9443 20.248C16.6382 20.2501 16.3176 20.25 15.9824 20.25H8.01758C7.68245 20.25 7.36179 20.2501 7.05566 20.248C7.0374 20.2494 7.01861 20.25 7 20.25C6.97762 20.25 6.95547 20.249 6.93359 20.2471C6.08626 20.2398 5.35247 20.2144 4.73438 20.126C3.81485 19.9944 3.00885 19.707 2.37109 19.0283C1.74224 18.3592 1.4847 17.5295 1.36523 16.584C1.25025 15.6739 1.24998 14.5205 1.25 13.1055V10.8945C1.24998 9.47951 1.25025 8.32608 1.36523 7.41602C1.4847 6.47051 1.74224 5.64085 2.37109 4.97168C3.00885 4.29305 3.81485 4.0056 4.73438 3.87403C5.35247 3.7856 6.08625 3.76025 6.93359 3.75293C6.95547 3.75101 6.97762 3.75 7 3.75C7.01861 3.75 7.0374 3.75062 7.05566 3.75196C7.36158 3.74993 7.68271 3.74999 8.01758 3.75H15.9824C16.3173 3.74999 16.6384 3.74993 16.9443 3.75196ZM8.04981 5.69141C7.88423 5.69151 7.75004 5.82563 7.75 5.99121V18.0088C7.75004 18.1744 7.88423 18.3085 8.04981 18.3086H15.9502C16.1158 18.3085 16.25 18.1744 16.25 18.0088V5.99121C16.25 5.82563 16.1158 5.69152 15.9502 5.69141H8.04981ZM19.4912 14.5C18.9389 14.5 18.4912 14.9477 18.4912 15.5C18.4912 16.0523 18.9389 16.5 19.4912 16.5H19.5C20.0523 16.5 20.5 16.0523 20.5 15.5C20.5 14.9477 20.0523 14.5 19.5 14.5H19.4912ZM4.49902 7.5C3.94674 7.5 3.49902 7.94772 3.49902 8.5C3.49902 9.05229 3.94674 9.5 4.49902 9.5H4.50781C5.0601 9.5 5.50781 9.05229 5.50781 8.5C5.50781 7.94772 5.0601 7.5 4.50781 7.5H4.49902Z" fill="currentColor" fill-rule="evenodd" clip-rule="evenodd"/></svg>
