<svg xmlns="http://www.w3.org/2000/svg" viewBox="0 0 24 24" fill="none"><path opacity="0.4" d="M11.5874 1.24815C12.1574 1.24739 12.6619 1.24671 13.1373 1.41538C13.2353 1.45013 13.3314 1.49013 13.4251 1.53519C13.8799 1.75386 14.2362 2.11294 14.6387 2.51858L19.4215 7.32623C19.8889 7.79459 20.3036 8.21025 20.5277 8.754C20.7518 9.29776 20.7509 9.88651 20.7499 10.5499L20.7497 14.0242C20.7498 15.8062 20.7498 17.2425 20.5987 18.3722C20.4418 19.545 20.1062 20.5326 19.326 21.3169C18.5457 22.1012 17.5633 22.4385 16.3965 22.5962C15.2727 22.7481 13.8438 22.7481 12.071 22.748C10.2982 22.7481 8.72705 22.7481 7.60322 22.5962C6.43643 22.4385 5.45402 22.1012 4.67377 21.3169C3.89352 20.5326 3.55792 19.545 3.40105 18.3722C3.24995 17.2425 3.24997 15.8062 3.25 14.0242V14.0242V9.45067V9.45064C3.24998 7.91698 3.24997 6.68045 3.36424 5.69661C3.48248 4.67865 3.73418 3.80644 4.32681 3.06759C4.54435 2.79638 4.79012 2.54933 5.05992 2.33066C5.79495 1.73495 6.66265 1.48194 7.67534 1.36309C8.6541 1.24822 10.0617 1.24813 11.5874 1.24815Z" fill="currentColor"/><path d="M13.1373 1.416C13.2353 1.45076 13.3314 1.49075 13.4251 1.53582C13.8799 1.75449 14.2362 2.11356 14.6387 2.51921L19.4215 7.32686L19.4215 7.32686C19.8889 7.79521 20.3036 8.21088 20.5277 8.75463C20.6265 8.99435 20.6816 9.24282 20.7122 9.50258H18.7314C17.3638 9.5026 16.7152 9.50181 15.8483 9.38525C14.9481 9.26424 14.1903 9.00534 13.5884 8.40343C12.9864 7.80151 12.7275 7.04364 12.6065 6.14353C12.4902 5.27834 12.4902 4.63063 12.4902 3.2688V3.26877V1.27734C12.7136 1.30042 12.9283 1.34184 13.1373 1.416Z" fill="currentColor"/><path d="M11.0001 17.998V15.9932H9.005C8.45276 15.9932 8.00507 15.5454 8.005 14.9932C8.005 14.4409 8.45272 13.9932 9.005 13.9932H11.0001V11.998C11.0001 11.4458 11.4478 10.998 12.0001 10.998C12.5524 10.9981 13.0001 11.4458 13.0001 11.998V13.9932H15.005C15.5573 13.9932 16.005 14.4409 16.005 14.9932C16.0049 15.5454 15.5573 15.9932 15.005 15.9932H13.0001V17.998C13.0001 18.5503 12.5524 18.998 12.0001 18.998C11.4478 18.998 11.0001 18.5503 11.0001 17.998Z" fill="currentColor"/></svg>
