<svg xmlns="http://www.w3.org/2000/svg" viewBox="0 0 24 24" fill="none"><path opacity="0.4" d="M2.25009 11.0247V12.9747V13.0489C2.25006 14.8254 2.25004 16.2576 2.40148 17.3841C2.55881 18.5541 2.89585 19.539 3.67831 20.3214C4.46077 21.1039 5.44558 21.4409 6.61567 21.5982C7.74211 21.7497 9.17429 21.7497 10.9508 21.7496H11.025H12.975H13.0493C14.8258 21.7497 16.258 21.7497 17.3844 21.5982C18.5545 21.4409 19.5393 21.1039 20.3218 20.3214C21.1042 19.539 21.4413 18.5541 21.5986 17.3841C21.75 16.2576 21.75 14.8254 21.75 13.0489V12.9747V11.3303C21.75 9.81589 21.767 8.78679 21.3786 7.8493C20.9903 6.91202 20.2508 6.19681 19.1801 5.12617L18.8745 4.81958C17.8036 3.7487 17.0878 3.00946 16.1504 2.62108C15.2129 2.23275 14.1839 2.24974 12.6694 2.24974H11.025L10.9508 2.24974C9.17426 2.24971 7.7421 2.24969 6.61567 2.40113C5.44558 2.55846 4.46077 2.8955 3.67831 3.67796C2.89585 4.46042 2.55881 5.44523 2.40148 6.61532C2.25004 7.74176 2.25006 9.17394 2.25009 10.9505V11.0247Z" fill="currentColor"/><path d="M14.25 2.26819C14.9763 2.29953 15.5804 2.38462 16.1504 2.62073C17.0878 3.0091 17.8032 3.74908 18.8741 4.81995L19.1797 5.12659C20.2503 6.19721 20.9906 6.91197 21.3789 7.84924C21.6149 8.41901 21.6991 9.02283 21.7305 9.74866H19.7774C18.9491 9.74591 18.2541 9.73279 17.6758 9.6676C16.9217 9.58255 16.273 9.40101 15.7168 8.97424C15.4572 8.77496 15.2247 8.54246 15.0254 8.28284C14.5988 7.72671 14.4171 7.07784 14.3321 6.32385C14.2669 5.74543 14.2528 5.04989 14.25 4.22131V2.26819Z" fill="currentColor"/><path d="M8.76181 15.3248C9.13437 14.9172 9.76722 14.8888 10.1749 15.2614C10.6938 15.7355 11.3278 15.9996 12.0001 15.9996C12.6724 15.9996 13.3063 15.7355 13.8253 15.2614C14.233 14.8888 14.8658 14.9172 15.2384 15.3248C15.6109 15.7325 15.5825 16.3654 15.1749 16.7379C14.3243 17.5152 13.2196 17.9996 12.0001 17.9996C10.7806 17.9996 9.67591 17.5152 8.82529 16.7379C8.41768 16.3654 8.3893 15.7325 8.76181 15.3248ZM17.0001 12.2506C16.9999 12.9408 16.4403 13.5006 15.7501 13.5006C15.103 13.5006 14.5712 13.0086 14.5069 12.3785L14.5001 12.2506L14.5069 12.1227C14.5709 11.4923 15.1028 11.0006 15.7501 11.0006L15.878 11.0065C16.5083 11.0705 17.0001 11.6034 17.0001 12.2506ZM9.50009 12.2496C9.50009 12.94 8.94045 13.4996 8.25009 13.4996C7.55974 13.4996 7.00009 12.94 7.00009 12.2496C7.00009 11.5593 7.55974 10.9996 8.25009 10.9996C8.94045 10.9996 9.50009 11.5593 9.50009 12.2496Z" fill="currentColor"/></svg>
