<svg xmlns="http://www.w3.org/2000/svg" viewBox="0 0 24 24" fill="none"><path d="M12.669 2.24975C14.1834 2.24975 15.2129 2.23254 16.1504 2.62084C17.0878 3.00922 17.8032 3.74919 18.8741 4.82006L19.1797 5.1267C20.2503 6.19733 20.9906 6.91208 21.3789 7.84936C21.7672 8.78683 21.75 9.8164 21.75 11.3308V13.0486C21.7501 14.8251 21.7501 16.2581 21.5987 17.3845C21.4413 18.5545 21.1037 19.5396 20.3213 20.322C19.539 21.1041 18.5545 21.4411 17.3848 21.5984C16.2584 21.7498 14.8254 21.7498 13.0489 21.7497H10.9512C9.17469 21.7498 7.7417 21.7498 6.61527 21.5984C5.44533 21.441 4.46015 21.1044 3.67777 20.322C2.89538 19.5396 2.55874 18.5545 2.4014 17.3845C2.24995 16.2581 2.25 14.8251 2.25003 13.0486V10.9509C2.25 9.1744 2.24995 7.74142 2.4014 6.61498C2.55872 5.44531 2.89571 4.46075 3.67777 3.67846C4.46016 2.89607 5.44532 2.55846 6.61527 2.40112C7.74159 2.24968 9.17395 2.24972 10.9502 2.24975H12.669ZM10.1748 15.2615C9.76716 14.889 9.13431 14.9173 8.76175 15.3249C8.38924 15.7326 8.41762 16.3655 8.82523 16.738C9.67585 17.5153 10.7805 17.9997 12 17.9997C13.2196 17.9997 14.3242 17.5153 15.1748 16.738C15.5824 16.3655 15.6108 15.7326 15.2383 15.3249C14.8658 14.9173 14.2329 14.889 13.8252 15.2615C13.3063 15.7356 12.6724 15.9997 12 15.9997C11.3277 15.9997 10.6938 15.7356 10.1748 15.2615ZM15.75 11.0007C15.1028 11.0007 14.5708 11.4924 14.5069 12.1228L14.5 12.2507L14.5069 12.3787C14.5711 13.0088 15.103 13.5007 15.75 13.5007C16.4403 13.5007 16.9999 12.9409 17 12.2507C17 11.6035 16.5082 11.0706 15.878 11.0066L15.75 11.0007ZM8.25003 10.9997C7.55968 10.9997 7.00003 11.5594 7.00003 12.2497C7.00003 12.9401 7.55968 13.4997 8.25003 13.4997C8.94039 13.4997 9.50003 12.9401 9.50003 12.2497C9.50003 11.5594 8.94039 10.9997 8.25003 10.9997ZM14.25 4.2224C14.2528 5.05119 14.2668 5.74643 14.3321 6.32494C14.4171 7.07903 14.5987 7.72775 15.0254 8.28393C15.2247 8.54357 15.4572 8.77604 15.7168 8.97533C16.273 9.40206 16.9218 9.58364 17.6758 9.66869C18.2541 9.73387 18.9491 9.747 19.7774 9.74975C19.7518 9.20214 19.6976 8.88708 19.5772 8.59643C19.3718 8.10082 18.9846 7.6884 17.8018 6.50561L17.4951 6.19897C16.3124 5.01621 15.8999 4.629 15.4043 4.42358C15.1135 4.30311 14.7982 4.24795 14.25 4.2224Z" fill="currentColor" fill-rule="evenodd" clip-rule="evenodd"/></svg>
