<svg xmlns="http://www.w3.org/2000/svg" fill="none" viewBox="0 0 48 48">
  <g>
    <path fill="currentColor" fill-opacity="0.4" fill-rule="evenodd" d="M47.5 32.5c0 -3.4486 -0.1767 -6.1088 -0.3892 -8.0607 -0.3537 -3.2501 -3.0273 -5.4475 -6.1381 -5.5975C37.5976 18.679 32.0547 18.5 24 18.5s-13.5976 0.179 -16.97264 0.3418c-3.11081 0.15 -5.78442 2.3474 -6.138166 5.5975C0.676746 26.3912 0.5 29.0514 0.5 32.5c0 3.4486 0.176745 6.1088 0.389194 8.0607 0.353746 3.2501 3.027346 5.4475 6.138156 5.5975C10.4024 46.321 15.9453 46.5 24 46.5c8.0547 0 13.5976 -0.179 16.9726 -0.3418 3.1109 -0.15 5.7845 -2.3474 6.1382 -5.5975 0.2125 -1.9519 0.3892 -4.6121 0.3892 -8.0607Z" clip-rule="evenodd" stroke-width="3.429"></path>
    <path fill="currentColor" fill-rule="evenodd" d="M15.2066 1.40503c-0.8809 -0.666347 -2.1353 -0.492391 -2.8016 0.38855 -0.849 1.12241 -1.3747 2.44622 -1.4037 3.92316 -0.0288 1.46429 0.4331 2.92144 1.2925 4.32676 0.5518 0.9024 0.7165 1.6168 0.7058 2.1614 -0.0104 0.5319 -0.1904 1.0542 -0.5946 1.5887 -0.6664 0.8809 -0.4924 2.1352 0.3885 2.8016 0.881 0.6663 2.1353 0.4924 2.8016 -0.3886 0.8491 -1.1224 1.3747 -2.4462 1.4038 -3.9231 0.0288 -1.4643 -0.4332 -2.92145 -1.2926 -4.32681 -0.5518 -0.90234 -0.7165 -1.61676 -0.7058 -2.16133 0.0105 -0.53192 0.1904 -1.05428 0.5946 -1.58871 0.6664 -0.88094 0.4924 -2.13526 -0.3885 -2.80162Zm10 0c-0.8809 -0.666347 -2.1353 -0.492391 -2.8016 0.38855 -0.849 1.12241 -1.3747 2.44622 -1.4037 3.92316 -0.0288 1.46429 0.4331 2.92144 1.2925 4.32676 0.5518 0.9024 0.7165 1.6168 0.7058 2.1614 -0.0104 0.5319 -0.1904 1.0542 -0.5946 1.5887 -0.6664 0.8809 -0.4924 2.1352 0.3885 2.8016 0.881 0.6663 2.1353 0.4924 2.8016 -0.3886 0.8491 -1.1224 1.3747 -2.4462 1.4038 -3.9231 0.0288 -1.4643 -0.4332 -2.92145 -1.2926 -4.32681 -0.5518 -0.90234 -0.7165 -1.61676 -0.7058 -2.16133 0.0105 -0.53192 0.1904 -1.05428 0.5946 -1.58871 0.6664 -0.88094 0.4924 -2.13526 -0.3885 -2.80162Zm7.1984 0.38855c0.6663 -0.880941 1.9207 -1.054897 2.8016 -0.38855 0.8809 0.66636 1.0549 1.92068 0.3885 2.80162 -0.4042 0.53443 -0.5841 1.05679 -0.5946 1.58871 -0.0107 0.54457 0.154 1.25899 0.7058 2.16133 0.8594 1.40536 1.3214 2.86251 1.2926 4.32681 -0.0291 1.4769 -0.5547 2.8007 -1.4038 3.9231 -0.6663 0.881 -1.9206 1.0549 -2.8016 0.3886 -0.8809 -0.6664 -1.0549 -1.9207 -0.3885 -2.8016 0.4042 -0.5345 0.5842 -1.0568 0.5946 -1.5887 0.0107 -0.5446 -0.154 -1.259 -0.7058 -2.1614 -0.8594 -1.40532 -1.3213 -2.86247 -1.2925 -4.32676 0.029 -1.47694 0.5547 -2.80075 1.4037 -3.92316Z" clip-rule="evenodd" stroke-width="3.429"></path>
    <path fill="currentColor" fill-rule="evenodd" d="M10 24.5c-1.933 0 -3.5 1.567 -3.5 3.5s1.567 3.5 3.5 3.5 3.5 -1.567 3.5 -3.5 -1.567 -3.5 -3.5 -3.5Zm19.5 8c0 -2.3929 -0.0327 -4.1342 -0.0669 -5.3018 -0.039 -1.3331 -0.916 -2.5594 -2.3654 -2.6622 -0.315 -0.0223 -0.6702 -0.036 -1.0677 -0.036 -0.3975 0 -0.7527 0.0137 -1.0677 0.036 -1.4494 0.1028 -2.3264 1.3291 -2.3654 2.6622 -0.0342 1.1676 -0.0669 2.9089 -0.0669 5.3018s0.0327 4.1342 0.0669 5.3018c0.039 1.3331 0.916 2.5594 2.3654 2.6622 0.315 0.0223 0.6702 0.036 1.0677 0.036 0.3975 0 0.7527 -0.0137 1.0677 -0.036 1.4494 -0.1028 2.3264 -1.3291 2.3654 -2.6622 0.0342 -1.1676 0.0669 -2.9089 0.0669 -5.3018Zm11 0c0 -2.3929 -0.0327 -4.1342 -0.0669 -5.3018 -0.039 -1.3331 -0.916 -2.5594 -2.3654 -2.6622 -0.315 -0.0223 -0.6702 -0.036 -1.0677 -0.036 -0.3975 0 -0.7527 0.0137 -1.0677 0.036 -1.4494 0.1028 -2.3264 1.3291 -2.3654 2.6622 -0.0342 1.1676 -0.0669 2.9089 -0.0669 5.3018s0.0327 4.1342 0.0669 5.3018c0.039 1.3331 0.916 2.5594 2.3654 2.6622 0.315 0.0223 0.6702 0.036 1.0677 0.036 0.3975 0 0.7527 -0.0137 1.0677 -0.036 1.4494 -0.1028 2.3264 -1.3291 2.3654 -2.6622 0.0342 -1.1676 0.0669 -2.9089 0.0669 -5.3018Z" clip-rule="evenodd" stroke-width="3.429"></path>
  </g>
</svg>
