<svg xmlns="http://www.w3.org/2000/svg" viewBox="0 0 24 24" fill="none"><path d="M20.2793 1.76811C20.5932 1.78752 20.9128 1.82486 21.2002 1.89604C21.4568 1.95962 21.8348 2.08428 22.125 2.37456C22.4153 2.66484 22.54 3.04281 22.6036 3.29936C22.6747 3.58684 22.7121 3.90642 22.7315 4.22026C22.7705 4.85148 22.7432 5.58782 22.6954 6.26616C22.6471 6.95098 22.5753 7.60784 22.5157 8.09136C22.4858 8.3336 22.4591 8.53391 22.4395 8.67437C22.4297 8.74455 22.4216 8.80022 22.4161 8.83843C22.4133 8.85733 22.4108 8.87212 22.4092 8.88237C22.4085 8.88751 22.4077 8.89225 22.4073 8.89507V8.89897C22.3243 9.44472 21.8144 9.82044 21.2686 9.73784C20.7226 9.65498 20.3469 9.1452 20.4297 8.59917V8.59722C20.43 8.59536 20.4301 8.59238 20.4307 8.58843C20.432 8.58003 20.4341 8.56649 20.4366 8.54937C20.4416 8.5152 20.4489 8.46435 20.4581 8.39897C20.4764 8.2674 20.5019 8.07682 20.5303 7.84624C20.5873 7.38385 20.6552 6.76406 20.7002 6.12554C20.7233 5.79786 20.7395 5.47266 20.7461 5.16655L16.4571 9.45659C16.0666 9.84712 15.4335 9.84712 15.043 9.45659C14.6525 9.06607 14.6525 8.43305 15.043 8.04253L19.3321 3.75249C19.0263 3.7591 18.7014 3.77628 18.3741 3.79937C17.7355 3.84441 17.1158 3.91226 16.6534 3.96929C16.4228 3.99773 16.2322 4.02321 16.1006 4.04155C16.0353 4.05067 15.9844 4.05805 15.9502 4.06304C15.9331 4.06554 15.9196 4.06765 15.9112 4.0689C15.9072 4.06949 15.9042 4.06959 15.9024 4.06987H15.9004C15.3546 4.15271 14.8449 3.77775 14.7618 3.23198C14.6789 2.68604 15.0538 2.17533 15.5997 2.09233H15.6045C15.6074 2.09191 15.6121 2.09115 15.6172 2.09038C15.6275 2.08885 15.6423 2.0863 15.6612 2.08354C15.6994 2.07797 15.7551 2.06989 15.8252 2.06011C15.9657 2.04053 16.166 2.01381 16.4082 1.98394C16.8918 1.92429 17.5486 1.85255 18.2334 1.80425C18.9118 1.7564 19.6481 1.7291 20.2793 1.76811Z" fill="currentColor"/><path opacity="0.4" d="M12.0001 1.74951C12.6524 1.74951 13.2947 1.75552 13.9239 1.76709C13.5919 2.22821 13.4338 2.81458 13.5255 3.41943L13.5264 3.42041C13.7093 4.62046 14.8077 5.45002 16.003 5.31396L14.1592 7.15869C13.2806 8.03731 13.2807 9.46164 14.1592 10.3403C15.0379 11.219 16.4622 11.219 17.3409 10.3403L19.1846 8.49463C19.0474 9.69194 19.8806 10.7919 21.0811 10.9741L21.3106 10.9966C21.8411 11.0226 22.344 10.858 22.7491 10.5601C22.7484 11.3184 22.7353 12.0595 22.71 12.7759C22.6298 15.0491 22.6168 16.5864 21.4024 17.8101C20.7922 18.4249 20.0996 18.7378 19.2589 18.9077C18.4719 19.0667 17.5091 19.1078 16.3419 19.1577L16.2755 19.1606C15.5355 19.1923 14.7696 19.216 13.9835 19.231C13.1864 19.2461 12.9733 19.2602 12.7989 19.3267C12.6239 19.3933 12.4616 19.5193 11.8731 20.0239L9.69342 21.8931C9.42516 22.1231 9.08292 22.2495 8.72955 22.2495C7.91255 22.2493 7.25029 21.587 7.25006 20.77V19.1392C6.26425 19.0954 5.43462 19.0478 4.74127 18.9077C3.90055 18.7378 3.20794 18.4249 2.59772 17.8101C1.38337 16.5864 1.37029 15.0491 1.2901 12.7759C1.26416 12.0405 1.25006 11.279 1.25006 10.4995C1.25006 9.72004 1.26416 8.95857 1.2901 8.22314C1.37029 5.94997 1.38337 4.41263 2.59772 3.18896C3.20794 2.57415 3.90055 2.26122 4.74127 2.09131C5.52821 1.93228 6.49103 1.8912 7.65826 1.84131L7.72467 1.83838C9.07456 1.78063 10.5108 1.74951 12.0001 1.74951Z" fill="currentColor"/></svg>
