<svg xmlns="http://www.w3.org/2000/svg" viewBox="0 0 24 24" fill="none"><path d="M1.98786 14V3C1.98786 2.44772 2.43557 2 2.98786 2C3.54014 2 3.98786 2.44772 3.98786 3V14C3.98786 15.6781 3.98992 16.8361 4.107 17.707C4.22023 18.5492 4.42448 18.9718 4.72028 19.2676C5.01607 19.5634 5.43862 19.7676 6.28083 19.8809C7.15178 19.9979 8.30979 20 9.98786 20H20.9879C21.5401 20 21.9879 20.4477 21.9879 21C21.9879 21.5523 21.5401 22 20.9879 22H9.98786C8.36627 22 7.04943 22.0024 6.01422 21.8633C4.95024 21.7202 4.03555 21.411 3.30622 20.6816C2.57688 19.9523 2.26762 19.0376 2.12458 17.9736C1.98541 16.9384 1.98786 15.6216 1.98786 14Z" fill="currentColor"/><path d="M9.78083 4C10.6685 4 11.434 4.24467 12.0728 4.70312C12.6976 5.15147 13.1452 5.76372 13.482 6.41602C14.1366 7.68381 14.4788 9.33447 14.7974 10.7852C15.1347 12.3207 15.451 13.6643 15.9966 14.6348C16.2592 15.1016 16.5505 15.4334 16.8785 15.6504C17.1966 15.8608 17.6042 15.9999 18.1705 16C18.9418 16 19.5293 15.5213 20.1236 14.498C20.401 14.0205 21.0122 13.8584 21.4898 14.1357C21.9674 14.4131 22.1295 15.0244 21.8521 15.502C21.1504 16.7102 20.0418 18 18.1705 18C17.2471 17.9999 16.4487 17.764 15.775 17.3184C15.1109 16.8791 14.6236 16.2734 14.2535 15.6152C13.5341 14.3358 13.1659 12.679 12.8443 11.2148C12.504 9.66574 12.2126 8.31607 11.7056 7.33398C11.4617 6.86146 11.1964 6.53595 10.9068 6.32812C10.6312 6.13033 10.2798 6 9.78083 6C9.0187 6.00014 8.42801 6.47567 7.85993 7.48926C7.5898 7.97075 6.98025 8.14202 6.4986 7.87207C6.01711 7.60195 5.84584 6.99239 6.11579 6.51074C6.80476 5.28161 7.91953 4.00015 9.78083 4Z" fill="currentColor"/><path d="M11.0923 9.98047C11.6092 10.033 12.0123 10.4703 12.0123 11.001C12.0121 11.5668 11.5536 12.0252 10.9879 12.0254C10.4572 12.0254 10.0199 11.6223 9.96735 11.1055L9.96246 11.001L9.96735 10.8955C10.0199 10.3788 10.4572 9.97559 10.9879 9.97559L11.0923 9.98047Z" fill="currentColor"/><path d="M7.09235 9.98047C7.60919 10.033 8.01227 10.4703 8.01227 11.001C8.01206 11.5668 7.55363 12.0252 6.98785 12.0254C6.45716 12.0254 6.01986 11.6223 5.96735 11.1055L5.96246 11.001L5.96735 10.8955C6.01994 10.3788 6.45722 9.97559 6.98785 9.97559L7.09235 9.98047Z" fill="currentColor"/><path d="M21.0923 9.98047C21.6092 10.033 22.0123 10.4703 22.0123 11.001C22.0121 11.5668 21.5536 12.0252 20.9879 12.0254C20.4572 12.0254 20.0199 11.6223 19.9673 11.1055L19.9625 11.001L19.9673 10.8955C20.0199 10.3788 20.4572 9.97559 20.9879 9.97559L21.0923 9.98047Z" fill="currentColor"/><path d="M17.0923 9.98047C17.6092 10.033 18.0123 10.4703 18.0123 11.001C18.0121 11.5668 17.5536 12.0252 16.9879 12.0254C16.4572 12.0254 16.0199 11.6223 15.9673 11.1055L15.9625 11.001L15.9673 10.8955C16.0199 10.3788 16.4572 9.97559 16.9879 9.97559L17.0923 9.98047Z" fill="currentColor"/></svg>
