<svg xmlns="http://www.w3.org/2000/svg" viewBox="0 0 24 24" fill="none"><path d="M5.00003 13.662L4.87601 13.7236C4.3519 13.9856 3.90707 14.2062 3.56058 14.4267C3.19958 14.6564 2.89089 14.9184 2.66116 15.29C2.43114 15.6622 2.33498 16.0574 2.29105 16.4843C2.25 16.8834 2.25 17.3664 2.25003 17.9355V18.0263C2.25001 18.934 2.24999 19.6909 2.33011 20.29C2.41436 20.9194 2.59969 21.4883 3.0557 21.9443C3.51104 22.3996 4.07754 22.5854 4.70511 22.6699C4.79952 22.6826 4.89785 22.6931 5.00003 22.7021V13.662Z" fill="currentColor"/><path d="M19 22.7021C19.1022 22.6931 19.2005 22.6826 19.295 22.6699C19.9225 22.5854 20.489 22.3996 20.9444 21.9443C21.4004 21.4883 21.5857 20.9194 21.67 20.29C21.7501 19.6909 21.7501 18.934 21.75 18.0263V17.9355C21.7501 17.3664 21.7501 16.8834 21.709 16.4843C21.6651 16.0574 21.5689 15.6622 21.3389 15.29C21.1092 14.9184 20.8005 14.6564 20.4395 14.4267C20.093 14.2062 19.6482 13.9856 19.1241 13.7236L19 13.662V22.7021Z" fill="currentColor"/><path d="M11.25 6.99994V1.99994C11.25 1.58573 11.5858 1.24994 12 1.24994C12.4142 1.24994 12.75 1.58573 12.75 1.99994V6.99994C12.75 7.41415 12.4142 7.74994 12 7.74994C11.5858 7.74994 11.25 7.41415 11.25 6.99994Z" fill="currentColor"/><path d="M14 3.24994C14.4142 3.24994 14.75 3.58573 14.75 3.99994C14.75 4.41415 14.4142 4.74994 14 4.74994H10C9.58582 4.74994 9.25003 4.41415 9.25003 3.99994C9.25003 3.58573 9.58582 3.24994 10 3.24994H14Z" fill="currentColor"/><path d="M9.25003 18.9999C9.25003 17.4812 10.4812 16.2499 12 16.2499C13.5188 16.2499 14.75 17.4812 14.75 18.9999V22.7499H17.75V12.124C17.75 11.6209 17.75 11.1929 17.7168 10.8369C17.6818 10.4614 17.6066 10.112 17.4248 9.7724C17.2431 9.4329 16.9942 9.17677 16.7012 8.93939C16.4225 8.71352 16.0648 8.47542 15.6446 8.19525L15.6348 8.18842L13.3321 6.65326C12.9376 6.39028 12.4741 6.24994 12 6.24994C11.5259 6.24994 11.0625 6.39028 10.668 6.65326L8.36526 8.18842L8.3555 8.19525C7.93524 8.47542 7.57761 8.71352 7.29886 8.93939C7.00591 9.17677 6.75695 9.4329 6.57523 9.7724C6.39349 10.112 6.31825 10.4614 6.28323 10.8369C6.25003 11.1929 6.25003 11.6209 6.25003 12.124L6.25003 22.7499H9.25003V18.9999ZM12 13.2499C11.4477 13.2499 11 12.8022 11 12.2499C11 11.6977 11.4477 11.2499 12 11.2499C12.5523 11.2499 13 11.6977 13 12.2499C13 12.8022 12.5523 13.2499 12 13.2499ZM13.25 18.9999C13.25 18.3096 12.6904 17.7499 12 17.7499C11.3097 17.7499 10.75 18.3096 10.75 18.9999V22.7499H13.25V18.9999Z" fill="currentColor"/></svg>
