<svg xmlns="http://www.w3.org/2000/svg" viewBox="0 0 24 24" fill="none"><path d="M12.5 15.75C13.0523 15.75 13.5 16.1977 13.5 16.75V19.25C13.5 19.5261 13.7239 19.75 14 19.75H16C16.5523 19.75 17 20.1977 17 20.75C17 21.3023 16.5523 21.75 16 21.75H8C7.44772 21.75 7 21.3023 7 20.75C7 20.1977 7.44772 19.75 8 19.75H10C10.2761 19.75 10.5 19.5261 10.5 19.25V16.75C10.5 16.1977 10.9477 15.75 11.5 15.75H12.5Z" fill="currentColor"/><path d="M12 9.25C12.4142 9.25 12.75 9.58579 12.75 10C12.75 10.4142 12.4142 10.75 12 10.75H8C7.58579 10.75 7.25 10.4142 7.25 10C7.25 9.58579 7.58579 9.25 8 9.25H12Z" fill="currentColor"/><path d="M21.6773 2.79783C20.9436 2.06741 19.7557 2.06737 19.022 2.79783L19.0211 2.79881L15.2554 6.55272C14.9381 6.86881 14.7227 7.27268 14.6363 7.7119L14.2759 9.38865C14.1031 10.1928 14.8211 10.8964 15.6158 10.7246L17.3082 10.3584L17.3072 10.3574C17.7461 10.2716 18.1502 10.0589 18.4674 9.74315L18.4713 9.73924L22.2027 5.96678L22.2017 5.9658C22.9331 5.23302 22.9329 4.0485 22.1988 3.31737L21.6773 2.79783Z" fill="currentColor"/><path d="M16.0645 2.25C16.6936 2.24999 17.2665 2.25127 17.7861 2.2627L14.3721 5.66699C13.8832 6.15405 13.5521 6.7751 13.415 7.44922H13.4131L13.2939 8H8C6.89543 8 6 8.89543 6 10C6.00013 11.1045 6.89551 12 8 12H15.4453C15.5879 11.9955 15.7328 11.9778 15.8789 11.9463L17.5713 11.5801C17.5834 11.5775 17.5955 11.5723 17.6074 11.5693C18.2624 11.4291 18.8689 11.1064 19.3486 10.6289L19.3594 10.6182L22.7363 7.20313C22.748 7.72559 22.75 8.30206 22.75 8.93555V11.0645C22.75 12.4275 22.7501 13.5267 22.6338 14.3916C22.5128 15.2917 22.2533 16.0495 21.6514 16.6514C21.0494 17.2533 20.2917 17.5128 19.3916 17.6338C18.5267 17.7501 17.4275 17.75 16.0645 17.75H7.93555C6.57249 17.75 5.47331 17.7501 4.6084 17.6338C3.70829 17.5128 2.95055 17.2533 2.34863 16.6514C1.74672 16.0495 1.48723 15.2917 1.36621 14.3916C1.24995 13.5267 1.24997 12.4275 1.25 11.0645V8.93555C1.24997 7.57249 1.24995 6.47331 1.36621 5.6084C1.48723 4.70829 1.74672 3.95055 2.34863 3.34863C2.95055 2.74672 3.70829 2.48723 4.6084 2.36621C5.47331 2.24995 6.57249 2.24997 7.93555 2.25H16.0645Z" fill="currentColor"/></svg>
