<svg xmlns="http://www.w3.org/2000/svg" viewBox="0 0 24 24" fill="none"><path d="M12.0527 1.75C14.2453 1.74999 15.9673 1.74998 17.3115 1.93066C18.6882 2.11575 19.7805 2.50313 20.6387 3.36133C21.4969 4.21953 21.8842 5.31182 22.0693 6.68848C22.25 8.03274 22.25 9.75468 22.25 11.9473V12.0527C22.25 14.2453 22.25 15.9673 22.0693 17.3115C21.8842 18.6882 21.4969 19.7805 20.6387 20.6387C19.7805 21.4969 18.6882 21.8842 17.3115 22.0693C15.9673 22.25 14.2453 22.25 12.0527 22.25H11.9473C9.75468 22.25 8.03274 22.25 6.68848 22.0693C5.31182 21.8842 4.21953 21.4969 3.36133 20.6387C2.50313 19.7805 2.11575 18.6882 1.93066 17.3115C1.74998 15.9673 1.74999 14.2453 1.75 12.0527V11.9473C1.74999 9.75468 1.74998 8.03274 1.93066 6.68848C2.11575 5.31182 2.50313 4.21953 3.36133 3.36133C4.21953 2.50313 5.31182 2.11575 6.68848 1.93066C8.03274 1.74998 9.75468 1.74999 11.9473 1.75H12.0527ZM10.2578 8.84668C9.89725 8.42868 9.26492 8.38187 8.84668 8.74219L7.31348 10.0645C7.01372 10.3228 6.70972 10.5825 6.49316 10.8271C6.26333 11.0868 6.00012 11.4723 6 12C6 12.5277 6.26332 12.9131 6.49316 13.1729C6.70969 13.4175 7.0137 13.6772 7.31348 13.9355L8.84668 15.2578C9.26499 15.6184 9.89723 15.5716 10.2578 15.1533C10.6182 14.735 10.5715 14.1027 10.1533 13.7422L8.62012 12.4209C8.45627 12.2797 8.32543 12.1667 8.21582 12.0674C8.1892 12.0432 8.16469 12.0207 8.14258 12C8.16469 11.9793 8.1892 11.9567 8.21582 11.9326C8.32543 11.8333 8.45627 11.7203 8.62012 11.5791L10.1533 10.2578C10.5714 9.8972 10.6183 9.26493 10.2578 8.84668ZM15.1533 8.74219C14.7351 8.38187 14.1028 8.42868 13.7422 8.84668C13.3817 9.26493 13.4286 9.8972 13.8467 10.2578L15.3799 11.5791C15.5437 11.7203 15.6746 11.8333 15.7842 11.9326C15.8108 11.9567 15.8353 11.9793 15.8574 12C15.8353 12.0207 15.8108 12.0432 15.7842 12.0674C15.6746 12.1667 15.5437 12.2797 15.3799 12.4209L13.8467 13.7422C13.4285 14.1027 13.3818 14.735 13.7422 15.1533C14.1028 15.5716 14.735 15.6184 15.1533 15.2578L16.6865 13.9355C16.9863 13.6772 17.2903 13.4175 17.5068 13.1729C17.7367 12.9131 18 12.5277 18 12C17.9999 11.4723 17.7367 11.0868 17.5068 10.8271C17.2903 10.5825 16.9863 10.3228 16.6865 10.0645L15.1533 8.74219Z" fill="currentColor"/></svg>
