<svg xmlns="http://www.w3.org/2000/svg" viewBox="0 0 24 24" fill="none"><path d="M1.125 12.0002C1.125 12.6425 1.46527 13.233 2.0127 13.5568L2.125 13.6184L3.03125 14.0705L1.52539 15.2004C1.08362 15.5317 0.993963 16.158 1.3252 16.5998C1.65653 17.0416 2.28279 17.1312 2.72461 16.8L4.36719 15.5686C4.84421 15.2108 5.125 14.6492 5.125 14.0529C5.12498 13.3355 4.71975 12.6796 4.07812 12.3586L3.36133 12.0002L4.07812 11.6418C4.67962 11.3409 5.0732 10.7456 5.12012 10.0813L5.125 9.94747L5.1123 9.72579C5.05206 9.21394 4.7846 8.74491 4.36719 8.43185L2.72461 7.2004C2.28279 6.86917 1.65653 6.95882 1.3252 7.4006C0.993963 7.84242 1.08361 8.46868 1.52539 8.80001L3.03125 9.92892L2.125 10.382L2.0127 10.4436C1.46527 10.7674 1.125 11.3579 1.125 12.0002Z" fill="currentColor"/><path d="M22.875 12.2497C22.875 12.892 22.5347 13.4825 21.9873 13.8064L21.875 13.8679L20.9688 14.32L22.4746 15.4499C22.9164 15.7812 23.006 16.4075 22.6748 16.8493C22.3435 17.2911 21.7172 17.3808 21.2754 17.0495L19.6328 15.8181C19.1558 15.4603 18.875 14.8987 18.875 14.3025C18.875 13.585 19.2803 12.9291 19.9219 12.6081L20.6387 12.2497L19.9219 11.8913C19.3204 11.5904 18.9268 10.9951 18.8799 10.3308L18.875 10.197L18.8877 9.9753C18.9479 9.46346 19.2154 8.99442 19.6328 8.68136L21.2754 7.44991C21.7172 7.11868 22.3435 7.20833 22.6748 7.65011C23.006 8.09193 22.9164 8.71819 22.4746 9.04952L20.9688 10.1784L21.875 10.6316L21.9873 10.6931C22.5347 11.0169 22.875 11.6074 22.875 12.2497Z" fill="currentColor"/><path opacity="0.4" d="M17.625 15.0387V15V9V8.96127C17.625 7.82177 17.625 6.89126 17.5264 6.15723C17.4237 5.39328 17.2015 4.73084 16.6729 4.20215C16.1442 3.67346 15.4817 3.45134 14.7178 3.34863C13.9837 3.24998 13.0532 3.24999 11.9137 3.25H11.875H11.8363C10.6968 3.24999 9.76626 3.24998 9.03223 3.34863C8.26828 3.45134 7.60584 3.67346 7.07715 4.20215C6.54846 4.73084 6.32634 5.39328 6.22363 6.15723C6.12498 6.89126 6.12499 7.82177 6.125 8.96128V9V15V15.0387C6.12499 16.1782 6.12498 17.1087 6.22363 17.8428C6.32634 18.6067 6.54846 19.2692 7.07715 19.7979C7.60584 20.3265 8.26828 20.5487 9.03223 20.6514C9.76626 20.75 10.6968 20.75 11.8363 20.75H11.875H11.9137C13.0532 20.75 13.9837 20.75 14.7178 20.6514C15.4817 20.5487 16.1442 20.3265 16.6729 19.7979C17.2015 19.2692 17.4237 18.6067 17.5264 17.8428C17.625 17.1087 17.625 16.1782 17.625 15.0387Z" fill="currentColor"/></svg>
