<svg xmlns="http://www.w3.org/2000/svg" viewBox="0 0 24 24" fill="none"><path d="M1.25 12.0002C1.25 12.6425 1.59027 13.233 2.1377 13.5568L2.25 13.6184L3.15625 14.0705L1.65039 15.2004C1.20862 15.5317 1.11896 16.158 1.4502 16.5998C1.78153 17.0416 2.40779 17.1312 2.84961 16.8L4.49219 15.5686C4.96921 15.2108 5.25 14.6492 5.25 14.0529C5.24998 13.3355 4.84475 12.6796 4.20312 12.3586L3.48633 12.0002L4.20312 11.6418C4.80462 11.3409 5.1982 10.7456 5.24512 10.0813L5.25 9.94747L5.2373 9.72579C5.17706 9.21394 4.9096 8.74491 4.49219 8.43185L2.84961 7.2004C2.40779 6.86917 1.78153 6.95882 1.4502 7.4006C1.11896 7.84242 1.20861 8.46868 1.65039 8.80001L3.15625 9.92892L2.25 10.382L2.1377 10.4436C1.59027 10.7674 1.25 11.3579 1.25 12.0002Z" fill="currentColor"/><path d="M22.75 12.0002C22.75 12.6425 22.4097 13.233 21.8623 13.5568L21.75 13.6184L20.8438 14.0705L22.3496 15.2004C22.7914 15.5317 22.881 16.158 22.5498 16.5998C22.2185 17.0416 21.5922 17.1312 21.1504 16.8L19.5078 15.5686C19.0308 15.2108 18.75 14.6492 18.75 14.0529C18.75 13.3355 19.1553 12.6796 19.7969 12.3586L20.5137 12.0002L19.7969 11.6418C19.1954 11.3409 18.8018 10.7456 18.7549 10.0813L18.75 9.94747L18.7627 9.72579C18.8229 9.21394 19.0904 8.74491 19.5078 8.43185L21.1504 7.2004C21.5922 6.86917 22.2185 6.95882 22.5498 7.4006C22.881 7.84242 22.7914 8.46868 22.3496 8.80001L20.8438 9.92892L21.75 10.382L21.8623 10.4436C22.4097 10.7674 22.75 11.3579 22.75 12.0002Z" fill="currentColor"/><path d="M17.75 15.0387V15V9V8.96127C17.75 7.82177 17.75 6.89126 17.6514 6.15723C17.5487 5.39328 17.3265 4.73084 16.7979 4.20215C16.2692 3.67346 15.6067 3.45134 14.8428 3.34863C14.1087 3.24998 13.1782 3.24999 12.0387 3.25H12H11.9613C10.8218 3.24999 9.89126 3.24998 9.15723 3.34863C8.39328 3.45134 7.73084 3.67346 7.20215 4.20215C6.67346 4.73084 6.45134 5.39328 6.34863 6.15723C6.24998 6.89126 6.24999 7.82177 6.25 8.96128V9V15V15.0387C6.24999 16.1782 6.24998 17.1087 6.34863 17.8428C6.45134 18.6067 6.67346 19.2692 7.20215 19.7979C7.73084 20.3265 8.39328 20.5487 9.15723 20.6514C9.89126 20.75 10.8218 20.75 11.9613 20.75H12H12.0387C13.1782 20.75 14.1087 20.75 14.8428 20.6514C15.6067 20.5487 16.2692 20.3265 16.7979 19.7979C17.3265 19.2692 17.5487 18.6067 17.6514 17.8428C17.75 17.1087 17.75 16.1782 17.75 15.0387Z" fill="currentColor"/></svg>
