<svg xmlns="http://www.w3.org/2000/svg" viewBox="0 0 24 24" fill="none"><path opacity="0.4" d="M20.7945 16.0206C20.7936 16.0177 20.788 16.0036 20.7697 15.9765C20.727 15.9134 20.6311 15.8062 20.4233 15.6493C19.9913 15.3234 19.3141 14.9501 18.2797 14.3837L17.3769 13.8887L13.8572 16.0299L17.3769 18.1703L18.2797 17.6762C19.3142 17.1097 19.9913 16.7365 20.4233 16.4106C20.6313 16.2535 20.727 16.1464 20.7697 16.0834C20.7885 16.0555 20.7938 16.0416 20.7945 16.0393C20.7949 16.0381 20.7955 16.0366 20.7955 16.0299C20.7954 16.0233 20.7949 16.0218 20.7945 16.0206ZM8.57668 19.24L9.57686 19.7884C10.301 20.1849 10.7851 20.4489 11.1831 20.62C11.5615 20.7827 11.794 20.83 12 20.83C12.206 20.83 12.4385 20.7827 12.8169 20.62C13.2149 20.4489 13.699 20.1849 14.4231 19.7884L15.4224 19.24L12 17.1587L8.57668 19.24ZM3.2055 16.0393C3.20624 16.0416 3.21148 16.0555 3.23031 16.0834C3.27296 16.1464 3.36866 16.2535 3.57675 16.4106C4.0087 16.7365 4.68579 17.1097 5.72026 17.6762L6.62214 18.1703L10.1428 16.0299L6.62214 13.8887L5.72026 14.3837C4.68586 14.9501 4.00871 15.3234 3.57675 15.6493C3.36885 15.8062 3.27302 15.9134 3.23031 15.9765C3.21198 16.0036 3.20643 16.0177 3.2055 16.0206C3.20511 16.0218 3.20455 16.0233 3.20455 16.0299C3.20455 16.0366 3.20511 16.0381 3.2055 16.0393ZM22.75 16.0299C22.75 16.9034 22.1903 17.4977 21.6133 17.9331C21.0396 18.366 20.2079 18.8185 19.2312 19.3534L15.3756 21.4656C14.6838 21.8445 14.1052 22.1621 13.6014 22.3787C13.0783 22.6037 12.5689 22.75 12 22.75C11.4311 22.75 10.9217 22.6037 10.3986 22.3787C9.89477 22.1621 9.3162 21.8445 8.6244 21.4656L4.76875 19.3534C3.79206 18.8185 2.96037 18.366 2.38665 17.9331C1.80973 17.4977 1.25 16.9034 1.25 16.0299C1.25006 15.1565 1.80976 14.5621 2.38665 14.1268C2.96036 13.6939 3.79214 13.2413 4.76875 12.7065L8.11954 10.8717C8.59083 10.6137 9.18605 10.7793 9.44897 11.2421C9.71168 11.705 9.54303 12.2897 9.072 12.548L8.57668 12.819L12 14.9002L15.4224 12.819L14.928 12.548C14.457 12.2897 14.2883 11.705 14.551 11.2421C14.814 10.7793 15.4092 10.6137 15.8805 10.8717L19.2312 12.7065C20.2079 13.2413 21.0396 13.6939 21.6133 14.1268C22.1902 14.5621 22.7499 15.1565 22.75 16.0299Z" fill="currentColor"/><path d="M11.2501 4.55668V12C11.2501 12.4143 11.5859 12.75 12.0001 12.75C12.4143 12.75 12.7501 12.4143 12.7501 12V8.9307L15.8624 7.42875C16.6603 7.04368 17.3383 6.71965 17.8057 6.40238C18.268 6.0886 18.75 5.63252 18.7501 4.92094C18.7501 4.20934 18.268 3.7533 17.8057 3.43949C17.3383 3.12223 16.6603 2.79722 15.8624 2.41215L15.1094 2.04887C14.5068 1.75805 13.9761 1.49985 13.5391 1.36527C13.1166 1.23518 12.612 1.16584 12.1348 1.43168L12.0401 1.4893C11.5439 1.81612 11.3817 2.33774 11.3145 2.8057C11.2485 3.26596 11.2501 3.86673 11.2501 4.55668Z" fill="currentColor"/></svg>
