<svg xmlns="http://www.w3.org/2000/svg" viewBox="0 0 24 24" fill="none"><path d="M20.794 16.0206C20.7931 16.0177 20.7875 16.0036 20.7692 15.9765C20.7265 15.9134 20.6307 15.8062 20.4228 15.6493C19.9908 15.3234 19.3137 14.9501 18.2793 14.3837L17.3764 13.8887L13.8567 16.0299L17.3764 18.1703L18.2793 17.6762C19.3137 17.1097 19.9908 16.7365 20.4228 16.4106C20.6308 16.2535 20.7266 16.1464 20.7692 16.0834C20.788 16.0555 20.7933 16.0416 20.794 16.0393C20.7944 16.0381 20.795 16.0366 20.795 16.0299C20.795 16.0233 20.7944 16.0218 20.794 16.0206ZM8.57619 19.24L9.57637 19.7884C10.3005 20.1849 10.7847 20.4489 11.1826 20.62C11.561 20.7827 11.7935 20.83 11.9995 20.83C12.2055 20.83 12.438 20.7827 12.8165 20.62C13.2144 20.4489 13.6985 20.1849 14.4227 19.7884L15.4219 19.24L11.9995 17.1587L8.57619 19.24ZM3.20501 16.0393C3.20575 16.0416 3.21099 16.0555 3.22983 16.0834C3.27247 16.1464 3.36818 16.2535 3.57626 16.4106C4.00821 16.7365 4.6853 17.1097 5.71977 17.6762L6.62165 18.1703L10.1423 16.0299L6.62165 13.8887L5.71977 14.3837C4.68537 14.9501 4.00822 15.3234 3.57626 15.6493C3.36837 15.8062 3.27253 15.9134 3.22983 15.9765C3.21149 16.0036 3.20595 16.0177 3.20501 16.0206C3.20462 16.0218 3.20407 16.0233 3.20406 16.0299C3.20406 16.0366 3.20462 16.0381 3.20501 16.0393ZM22.7495 16.0299C22.7495 16.9034 22.1898 17.4977 21.6129 17.9331C21.0391 18.366 20.2075 18.8185 19.2308 19.3534L15.3751 21.4656C14.6833 21.8445 14.1047 22.1621 13.6009 22.3787C13.0778 22.6037 12.5685 22.75 11.9995 22.75C11.4306 22.75 10.9212 22.6037 10.3981 22.3787C9.89428 22.1621 9.31571 21.8445 8.62391 21.4656L4.76827 19.3534C3.79157 18.8185 2.95988 18.366 2.38616 17.9331C1.80924 17.4977 1.24951 16.9034 1.24951 16.0299C1.24957 15.1565 1.80927 14.5621 2.38616 14.1268C2.95988 13.6939 3.79165 13.2413 4.76827 12.7065L8.11905 10.8717C8.59034 10.6137 9.18556 10.7793 9.44849 11.2421C9.7112 11.705 9.54254 12.2897 9.07151 12.548L8.57619 12.819L11.9995 14.9002L15.4219 12.819L14.9275 12.548C14.4565 12.2897 14.2878 11.705 14.5505 11.2421C14.8135 10.7793 15.4087 10.6137 15.88 10.8717L19.2308 12.7065C20.2074 13.2413 21.0391 13.6939 21.6129 14.1268C22.1898 14.5621 22.7495 15.1565 22.7495 16.0299Z" fill="currentColor"/><path d="M11.2496 4.55668V12C11.2496 12.4143 11.5854 12.75 11.9996 12.75C12.4138 12.75 12.7496 12.4143 12.7496 12V8.9307L15.8619 7.42875C16.6598 7.04368 17.3378 6.71965 17.8052 6.40238C18.2676 6.0886 18.7495 5.63252 18.7496 4.92094C18.7496 4.20934 18.2675 3.7533 17.8052 3.43949C17.3378 3.12223 16.6598 2.79722 15.8619 2.41215L15.109 2.04887C14.5063 1.75805 13.9756 1.49985 13.5386 1.36527C13.1161 1.23518 12.6115 1.16584 12.1343 1.43168L12.0396 1.4893C11.5434 1.81612 11.3812 2.33774 11.314 2.8057C11.248 3.26596 11.2496 3.86673 11.2496 4.55668Z" fill="currentColor"/></svg>
