<svg xmlns="http://www.w3.org/2000/svg" viewBox="0 0 24 24" fill="none"><path opacity="0.4" d="M21.75 12.0416V12V11.9584C21.75 9.87807 21.75 8.24041 21.5781 6.96191C21.4022 5.65356 21.0334 4.60957 20.2119 3.78809C19.3904 2.9666 18.3464 2.59783 17.0381 2.42188C15.7596 2.24999 14.1219 2.24999 12.0416 2.25H12H11.9584C9.87806 2.24999 8.24041 2.24999 6.96191 2.42188C5.65356 2.59783 4.60957 2.9666 3.78809 3.78809C2.9666 4.60957 2.59783 5.65356 2.42188 6.96191C2.24999 8.24041 2.24999 9.87806 2.25 11.9584V12V12.0416C2.24999 14.1219 2.24999 15.7596 2.42188 17.0381C2.59783 18.3464 2.9666 19.3904 3.78809 20.2119C4.60957 21.0334 5.65356 21.4022 6.96191 21.5781C8.24041 21.75 9.87807 21.75 11.9584 21.75H12H12.0416C14.1219 21.75 15.7596 21.75 17.0381 21.5781C18.3464 21.4022 19.3904 21.0334 20.2119 20.2119C21.0334 19.3904 21.4022 18.3464 21.5781 17.0381C21.75 15.7596 21.75 14.1219 21.75 12.0416Z" fill="currentColor"/><path d="M7.25 15C7.80224 15 8.24992 15.4478 8.25 16C8.25 16.5523 7.80228 17 7.25 17C6.73234 16.9999 6.30614 16.6067 6.25488 16.1025L6.25 16L6.25488 15.8975C6.30627 15.3934 6.73244 15.0001 7.25 15ZM7.25 11C7.80224 11 8.24992 11.4478 8.25 12C8.25 12.5523 7.80228 13 7.25 13C6.69772 13 6.25 12.5523 6.25 12C6.25008 11.4478 6.69776 11 7.25 11ZM7.35254 7.00488C7.85697 7.05593 8.25098 7.48211 8.25098 8C8.25098 8.55217 7.8031 8.99981 7.25098 9C6.69869 9 6.25098 8.55228 6.25098 8C6.25098 7.44772 6.69869 7 7.25098 7L7.35254 7.00488Z" fill="currentColor"/><path d="M17 15C17.5523 15 18 15.4477 18 16C18 16.5523 17.5523 17 17 17H11C10.4477 17 10 16.5523 10 16C10 15.4477 10.4477 15 11 15H17ZM17 11C17.5523 11 18 11.4477 18 12C18 12.5523 17.5523 13 17 13H11C10.4477 13 10 12.5523 10 12C10 11.4477 10.4477 11 11 11H17ZM17 7C17.5523 7 18 7.44772 18 8C18 8.55228 17.5523 9 17 9H11C10.4477 9 10 8.55228 10 8C10 7.44772 10.4477 7 11 7H17Z" fill="currentColor"/></svg>
