<svg xmlns="http://www.w3.org/2000/svg" viewBox="0 0 24 24" fill="none"><path d="M12.042 2.25C14.1221 2.24999 15.7597 2.25 17.0381 2.42187C18.3464 2.59783 19.3904 2.9666 20.2119 3.78809C21.0334 4.60957 21.4022 5.65356 21.5781 6.96191C21.75 8.24033 21.75 9.87786 21.75 11.958V12.042C21.75 14.1221 21.75 15.7597 21.5781 17.0381C21.4022 18.3464 21.0334 19.3904 20.2119 20.2119C19.3904 21.0334 18.3464 21.4022 17.0381 21.5781C15.7597 21.75 14.1221 21.75 12.042 21.75H11.958C9.87786 21.75 8.24033 21.75 6.96191 21.5781C5.65356 21.4022 4.60957 21.0334 3.78809 20.2119C2.9666 19.3904 2.59783 18.3464 2.42188 17.0381C2.25 15.7597 2.24999 14.1221 2.25 12.042V11.958C2.24999 9.87786 2.25 8.24033 2.42188 6.96191C2.59783 5.65356 2.9666 4.60957 3.78809 3.78809C4.60957 2.9666 5.65356 2.59783 6.96191 2.42187C8.24033 2.25 9.87786 2.24999 11.958 2.25H12.042ZM7.25 15C6.73244 15.0001 6.30627 15.3934 6.25488 15.8975L6.25 16L6.25488 16.1025C6.30614 16.6067 6.73234 16.9999 7.25 17C7.80228 17 8.25 16.5523 8.25 16C8.24992 15.4478 7.80224 15 7.25 15ZM11 15C10.4477 15 10 15.4477 10 16C10 16.5523 10.4477 17 11 17L17 17C17.5523 17 18 16.5523 18 16C18 15.4477 17.5523 15 17 15L11 15ZM7.25 11C6.69776 11 6.25008 11.4478 6.25 12C6.25 12.5523 6.69772 13 7.25 13C7.80228 13 8.25 12.5523 8.25 12C8.24992 11.4478 7.80224 11 7.25 11ZM11 11C10.4477 11 10 11.4477 10 12C10 12.5523 10.4477 13 11 13L17 13C17.5523 13 18 12.5523 18 12C18 11.4477 17.5523 11 17 11L11 11ZM7.25098 7C6.69869 7 6.25098 7.44772 6.25098 8C6.25098 8.55228 6.69869 9 7.25098 9C7.8031 8.99981 8.25098 8.55217 8.25098 8C8.25098 7.48211 7.85697 7.05593 7.35254 7.00488L7.25098 7ZM11 7C10.4477 7 10 7.44772 10 8C10 8.55228 10.4477 9 11 9L17 9C17.5523 9 18 8.55228 18 8C18 7.44772 17.5523 7 17 7L11 7Z" fill="currentColor"/></svg>
