<svg xmlns="http://www.w3.org/2000/svg" viewBox="0 0 24 24" fill="none"><path d="M13.2818 10.6769C13.8443 10.9199 14.5795 11.2889 15.3593 11.8191C17.0208 12.949 18.9131 14.8326 19.7236 17.8044C19.8326 18.2041 19.597 18.6164 19.1974 18.7254C18.7978 18.8343 18.3855 18.5987 18.2765 18.1991C17.587 15.6709 15.9792 14.0546 14.5158 13.0595C13.7842 12.562 13.0957 12.2251 12.5923 12.0135C12.4432 11.9509 12.3109 11.8994 12.1992 11.8582C12.124 11.9375 12.0368 12.0326 11.9401 12.1434C11.5904 12.5441 11.1186 13.1479 10.6453 13.9466C9.69962 15.5424 8.75004 17.9117 8.75004 21.0018C8.75004 21.416 8.41426 21.7518 8.00004 21.7518C7.58583 21.7518 7.25004 21.416 7.25004 21.0018C7.25004 17.5918 8.30046 14.9612 9.35482 13.1819C9.87724 12.3004 10.4011 11.6267 10.8002 11.1683C6.63368 8.73656 3.45608 9.8645 2.45297 10.6245C2.12282 10.8747 1.65239 10.8098 1.40225 10.4797C1.1521 10.1495 1.21696 9.67907 1.54711 9.42893C3.08638 8.26268 7.0415 7.10617 11.8314 10.0373C13.4528 8.17221 17.1594 5.71325 22.2228 7.28845C22.6183 7.4115 22.8392 7.83187 22.7162 8.22739C22.5931 8.62291 22.1728 8.84379 21.7773 8.72074C17.7434 7.46583 14.7504 9.19927 13.2818 10.6769Z" fill="currentColor" fill-rule="evenodd" clip-rule="evenodd"/><path opacity="0.4" d="M5.30384 3.72166C5.45768 3.33707 5.89415 3.15001 6.27874 3.30384C9.02822 4.40363 10.7494 6.43044 11.7299 8.22808C12.4392 6.25015 13.771 4.91826 14.5842 4.37616C14.9288 4.1464 15.3945 4.23953 15.6242 4.58417C15.854 4.92882 15.7609 5.39447 15.4162 5.62424C14.5811 6.18099 12.8172 8.04408 12.7521 10.8407C13.7712 12.1948 14.5371 14.2353 14.146 18.0762C14.1041 18.4882 13.736 18.7883 13.3239 18.7463C12.9119 18.7044 12.6118 18.3363 12.6538 17.9242C13.0093 14.4314 12.3238 12.7764 11.5719 11.7669C10.6772 11.851 9.71689 12.2445 8.82286 12.7714C7.82272 13.3607 6.98555 14.0694 6.53409 14.5269C6.24317 14.8218 5.76831 14.825 5.47345 14.5341C5.17859 14.2432 5.1754 13.7683 5.46631 13.4735C6.00147 12.931 6.94023 12.1397 8.06133 11.479C8.93231 10.9658 9.96369 10.5015 11.0331 10.3252C10.4348 8.61935 8.84461 5.94574 5.72166 4.69656C5.33707 4.54272 5.15001 4.10624 5.30384 3.72166Z" fill="currentColor" fill-rule="evenodd" clip-rule="evenodd"/><path d="M3.09961 2.25C3.56892 2.25 3.94998 2.63035 3.9502 3.09961C3.9502 3.56905 3.56905 3.9502 3.09961 3.9502C2.63035 3.94998 2.25 3.56892 2.25 3.09961C2.25021 2.63048 2.63047 2.25021 3.09961 2.25Z" fill="currentColor"/><path d="M16.9004 2.25C17.3697 2.25 17.7508 2.63035 17.751 3.09961C17.751 3.56905 17.3698 3.9502 16.9004 3.9502C16.4311 3.94998 16.0508 3.56892 16.0508 3.09961C16.051 2.63048 16.4313 2.25021 16.9004 2.25Z" fill="currentColor"/><path d="M20.5 11.6514C20.9693 11.6514 21.3504 12.0317 21.3506 12.501C21.3506 12.9704 20.9694 13.3516 20.5 13.3516C20.0307 13.3514 19.6504 12.9703 19.6504 12.501C19.6506 12.0318 20.0309 11.6516 20.5 11.6514Z" fill="currentColor"/><path d="M13.0713 20.0547C13.5 20.0982 13.835 20.4602 13.835 20.9004C13.8348 21.3697 13.4537 21.75 12.9844 21.75C12.5445 21.7499 12.1824 21.4157 12.1387 20.9873L12.1348 20.9004L12.1387 20.8135C12.182 20.3847 12.5442 20.0499 12.9844 20.0498L13.0713 20.0547Z" fill="currentColor"/><path d="M4.18652 15.0547C4.61531 15.0981 4.9502 15.4602 4.9502 15.9004C4.94998 16.3697 4.56892 16.75 4.09961 16.75C3.6598 16.7498 3.29758 16.4156 3.25391 15.9873L3.25 15.9004L3.25391 15.8135C3.29722 15.3848 3.65954 15.05 4.09961 15.0498L4.18652 15.0547Z" fill="currentColor"/><path d="M17.9004 10.25C18.3697 10.25 18.7508 10.6303 18.751 11.0996C18.751 11.5691 18.3698 11.9502 17.9004 11.9502C17.4311 11.95 17.0508 11.5689 17.0508 11.0996C17.051 10.6305 17.4313 10.2502 17.9004 10.25Z" fill="currentColor"/><path d="M11 3.25C11.4693 3.25 11.8504 3.63035 11.8506 4.09961C11.8506 4.56905 11.4694 4.9502 11 4.9502C10.5307 4.94998 10.1504 4.56892 10.1504 4.09961C10.1506 3.63048 10.5309 3.25021 11 3.25Z" fill="currentColor"/></svg>
