<svg xmlns="http://www.w3.org/2000/svg" viewBox="0 0 24 24" fill="none"><path d="M5.30368 3.72141C5.45752 3.33682 5.894 3.14976 6.27858 3.3036C9.02807 4.40339 10.7493 6.4302 11.7298 8.22784C12.439 6.2499 13.7709 4.91802 14.584 4.37592C14.9287 4.14615 15.3943 4.23928 15.6241 4.58393C15.8538 4.92858 15.7607 5.39423 15.4161 5.62399C14.8004 6.03446 13.6799 7.15496 13.1074 8.83611C15.0536 7.32193 18.2127 6.03909 22.2228 7.28662C22.6183 7.40967 22.8392 7.83004 22.7162 8.22556C22.5931 8.62107 22.1728 8.84196 21.7773 8.71891C17.7434 7.46399 14.7504 9.19744 13.2818 10.675C13.8443 10.918 14.5795 11.287 15.3593 11.8173C17.0208 12.9471 18.9131 14.8308 19.7236 17.8026C19.8326 18.2022 19.597 18.6145 19.1974 18.7235C18.7978 18.8325 18.3855 18.5969 18.2765 18.1973C17.587 15.6691 15.9792 14.0528 14.5158 13.0577C14.2289 12.8625 13.9486 12.6921 13.6835 12.5443C14.1632 13.8272 14.4012 15.5676 14.1459 18.0759C14.1039 18.488 13.7359 18.788 13.3238 18.7461C12.9117 18.7041 12.6116 18.3361 12.6536 17.924C12.9607 14.9076 12.4913 13.2619 11.8733 12.2189C11.5316 12.6183 11.0891 13.1959 10.6453 13.9448C9.69962 15.5406 8.75004 17.9099 8.75004 21C8.75004 21.4142 8.41426 21.75 8.00004 21.75C7.58583 21.75 7.25004 21.4142 7.25004 21C7.25004 17.59 8.30046 14.9593 9.35482 13.1801C9.57471 12.809 9.79485 12.4748 10.0058 12.178C9.60618 12.3415 9.20828 12.5439 8.82271 12.7711C7.82257 13.3605 6.9854 14.0691 6.53393 14.5267C6.24301 14.8216 5.76815 14.8248 5.47329 14.5338C5.17843 14.2429 5.17524 13.7681 5.46615 13.4732C6.00131 12.9308 6.94007 12.1394 8.06118 11.4788C8.59441 11.1646 9.18778 10.8687 9.81319 10.646C6.13585 8.91406 3.37527 9.92389 2.45297 10.6227C2.12282 10.8728 1.65239 10.808 1.40225 10.4778C1.1521 10.1477 1.21696 9.67724 1.54711 9.4271C2.95639 8.35934 6.39072 7.29974 10.6367 9.37786C9.84652 7.74714 8.31091 5.73208 5.7215 4.69631C5.33691 4.54248 5.14985 4.106 5.30368 3.72141Z" fill="currentColor" fill-rule="evenodd" clip-rule="evenodd"/><path d="M3.09961 2.25C3.56892 2.25 3.94998 2.63035 3.9502 3.09961C3.9502 3.56905 3.56905 3.9502 3.09961 3.9502C2.63035 3.94998 2.25 3.56892 2.25 3.09961C2.25021 2.63048 2.63047 2.25021 3.09961 2.25Z" fill="currentColor"/><path d="M16.9004 2.25C17.3697 2.25 17.7508 2.63035 17.751 3.09961C17.751 3.56905 17.3698 3.9502 16.9004 3.9502C16.4311 3.94998 16.0508 3.56892 16.0508 3.09961C16.051 2.63048 16.4313 2.25021 16.9004 2.25Z" fill="currentColor"/><path d="M20.5 11.6514C20.9693 11.6514 21.3504 12.0317 21.3506 12.501C21.3506 12.9704 20.9694 13.3516 20.5 13.3516C20.0307 13.3514 19.6504 12.9703 19.6504 12.501C19.6506 12.0318 20.0309 11.6516 20.5 11.6514Z" fill="currentColor"/><path d="M13.0713 20.0547C13.5 20.0982 13.835 20.4602 13.835 20.9004C13.8348 21.3697 13.4537 21.75 12.9844 21.75C12.5445 21.7499 12.1824 21.4157 12.1387 20.9873L12.1348 20.9004L12.1387 20.8135C12.182 20.3847 12.5442 20.0499 12.9844 20.0498L13.0713 20.0547Z" fill="currentColor"/><path d="M4.18652 15.0547C4.61531 15.0981 4.9502 15.4602 4.9502 15.9004C4.94998 16.3697 4.56892 16.75 4.09961 16.75C3.6598 16.7498 3.29758 16.4156 3.25391 15.9873L3.25 15.9004L3.25391 15.8135C3.29722 15.3848 3.65954 15.05 4.09961 15.0498L4.18652 15.0547Z" fill="currentColor"/><path d="M17.9004 10.25C18.3697 10.25 18.7508 10.6303 18.751 11.0996C18.751 11.5691 18.3698 11.9502 17.9004 11.9502C17.4311 11.95 17.0508 11.5689 17.0508 11.0996C17.051 10.6305 17.4313 10.2502 17.9004 10.25Z" fill="currentColor"/><path d="M11 3.25C11.4693 3.25 11.8504 3.63035 11.8506 4.09961C11.8506 4.56905 11.4694 4.9502 11 4.9502C10.5307 4.94998 10.1504 4.56892 10.1504 4.09961C10.1506 3.63048 10.5309 3.25021 11 3.25Z" fill="currentColor"/></svg>
