<svg xmlns="http://www.w3.org/2000/svg" fill="none" viewBox="0 0 48 48">
  <g>
    <path fill="currentColor" fill-opacity="0.4" fill-rule="evenodd" d="M10.2519 37.3968c-3.90072 -3.6962 -6.5426 -8.9379 -7.1286 -14.8537 -0.14288 -1.4424 0.91303 -2.6669 2.35483 -2.8155C8.457 19.4205 14.3055 19 24.0002 19c9.6948 0 15.5433 0.4205 18.5222 0.7276 1.4418 0.1486 2.4977 1.3731 2.3548 2.8155 -0.5858 5.9138 -3.2261 11.154 -7.1247 14.85 1.0069 1.2787 2.0519 2.6512 3.0457 4.0349 0.7366 1.0255 0.7164 2.4129 -0.1561 3.3257 -0.0875 0.0915 -0.1783 0.1846 -0.2723 0.2785 -0.0999 0.0999 -0.1987 0.1962 -0.2957 0.2887 -0.9005 0.8584 -2.2644 0.8883 -3.2822 0.1728 -1.8536 -1.303 -3.6763 -2.7103 -5.2807 -4.0057 -2.3322 0.9768 -4.8644 1.512 -7.511 1.512 -2.6448 0 -5.1755 -0.5345 -7.5065 -1.5101 -1.6038 1.2949 -3.4256 2.7014 -5.2782 4.0038 -1.0178 0.7155 -2.3818 0.6856 -3.2823 -0.1728 -0.09696 -0.0925 -0.1958 -0.1888 -0.2957 -0.2887 -0.09393 -0.0939 -0.18477 -0.187 -0.27227 -0.2785 -0.87247 -0.9128 -0.89275 -2.3002 -0.15615 -3.3257 0.99287 -1.3823 2.03685 -2.7536 3.04282 -4.0312Z" clip-rule="evenodd" stroke-width="3.429"></path>
    <path stroke="currentColor" stroke-linejoin="round" d="M10.2519 37.3968c-3.90072 -3.6962 -6.5426 -8.9379 -7.1286 -14.8537 -0.14288 -1.4424 0.91303 -2.6669 2.35483 -2.8155C8.457 19.4205 14.3055 19 24.0002 19c9.6948 0 15.5433 0.4205 18.5222 0.7276 1.4418 0.1486 2.4977 1.3731 2.3548 2.8155 -0.5858 5.9138 -3.2261 11.154 -7.1247 14.85 1.0069 1.2787 2.0519 2.6512 3.0457 4.0349 0.7366 1.0255 0.7164 2.4129 -0.1561 3.3257 -0.0875 0.0915 -0.1783 0.1846 -0.2723 0.2785 -0.0999 0.0999 -0.1987 0.1962 -0.2957 0.2887 -0.9005 0.8584 -2.2644 0.8883 -3.2822 0.1728 -1.8536 -1.303 -3.6763 -2.7103 -5.2807 -4.0057 -2.3322 0.9768 -4.8644 1.512 -7.511 1.512 -2.6448 0 -5.1755 -0.5345 -7.5065 -1.5101 -1.6038 1.2949 -3.4256 2.7014 -5.2782 4.0038 -1.0178 0.7155 -2.3818 0.6856 -3.2823 -0.1728 -0.09696 -0.0925 -0.1958 -0.1888 -0.2957 -0.2887 -0.09393 -0.0939 -0.18477 -0.187 -0.27227 -0.2785 -0.87247 -0.9128 -0.89275 -2.3002 -0.15615 -3.3257 0.99287 -1.3823 2.03685 -2.7536 3.04282 -4.0312Z" stroke-width="3.429"></path>
    <path stroke="currentColor" stroke-linecap="round" d="M38 24.5c-0.2782 2.6671 -1.7386 5.0931 -4 7" stroke-width="3.429"></path>
    <path stroke="currentColor" stroke-linecap="round" d="M24 2c-1.2533 1.65685 -1.4112 3.69231 0 6 1.4112 2.3077 1.2533 4.3431 0 6" stroke-width="3.429"></path>
    <path stroke="currentColor" stroke-linecap="round" d="M14 2c-1.2533 1.65685 -1.4112 3.69231 0 6 1.4112 2.3077 1.2533 4.3431 0 6" stroke-width="3.429"></path>
    <path stroke="currentColor" stroke-linecap="round" d="M34 2c-1.2533 1.65685 -1.4112 3.69231 0 6 1.4112 2.3077 1.2533 4.3431 0 6" stroke-width="3.429"></path>
  </g>
</svg>
