<svg xmlns="http://www.w3.org/2000/svg" fill="none" viewBox="0 0 48 48">
  <g>
    <path fill="currentColor" fill-opacity="0.4" fill-rule="evenodd" d="M24.0024 18.5c-9.723 0 -15.60623 0.4217 -18.62463 0.7329 -1.95853 0.2019 -3.4476 1.8878 -3.24741 3.9088 0.57633 5.8182 3.06666 11.0234 6.78609 14.8402 -0.83989 1.081 -1.69611 2.2173 -2.51884 3.3627 -0.98383 1.3697 -0.99781 3.2994 0.24546 4.6l0.72276 -0.6908 -0.72275 0.6908c0.09241 0.0967 0.18851 0.1952 0.28803 0.2947 0.10584 0.1058 0.2104 0.2077 0.31282 0.3054 1.28345 1.2234 3.18357 1.2258 4.54737 0.2671 1.7011 -1.1959 3.3728 -2.4757 4.874 -3.6763 2.2948 0.8835 4.7648 1.3645 7.3371 1.3645 2.5733 0 5.0443 -0.4814 7.3398 -1.3655 1.5016 1.2008 3.1737 2.4811 4.8753 3.6773 1.3638 0.9587 3.2639 0.9563 4.5473 -0.2671 0.1025 -0.0977 0.207 -0.1996 0.3129 -0.3054l-0.7071 -0.7071 0.7071 0.7071c0.0995 -0.0995 0.1956 -0.198 0.288 -0.2947 1.2433 -1.3006 1.2293 -3.2303 0.2455 -4.6 -0.8233 -1.1462 -1.6802 -2.2832 -2.5206 -3.3649 3.7182 -3.8166 6.2077 -9.0209 6.7839 -14.838 0.2002 -2.021 -1.2889 -3.7069 -3.2474 -3.9088 -3.0184 -0.3112 -8.9016 -0.7329 -18.6247 -0.7329Z" clip-rule="evenodd" stroke-width="3.429"></path>
    <path fill="currentColor" fill-rule="evenodd" d="M38.2073 23.011c-1.0986 -0.1146 -2.0821 0.6831 -2.1967 1.7817 -0.2137 2.0492 -1.3467 4.0314 -3.3001 5.6785 -0.8444 0.7121 -0.9517 1.9738 -0.2396 2.8183 0.712 0.8444 1.9738 0.9517 2.8182 0.2396 2.5694 -2.1666 4.3573 -5.0365 4.6999 -8.3215 0.1146 -1.0986 -0.6831 -2.0821 -1.7817 -2.1966Z" clip-rule="evenodd" stroke-width="3.429"></path>
    <path fill="currentColor" fill-rule="evenodd" d="M15.2066 1.40503c-0.8809 -0.666347 -2.1353 -0.492392 -2.8016 0.38855 -0.849 1.12241 -1.3747 2.44621 -1.4037 3.92316 -0.0288 1.46429 0.4331 2.92144 1.2925 4.32676 0.5518 0.9024 0.7165 1.6168 0.7058 2.1614 -0.0104 0.5319 -0.1904 1.0542 -0.5946 1.5887 -0.6664 0.8809 -0.4924 2.1352 0.3885 2.8016 0.881 0.6663 2.1353 0.4924 2.8016 -0.3886 0.8491 -1.1224 1.3747 -2.4462 1.4038 -3.9231 0.0288 -1.4643 -0.4332 -2.92145 -1.2926 -4.32681 -0.5518 -0.90234 -0.7165 -1.61676 -0.7058 -2.16133 0.0105 -0.53192 0.1904 -1.05428 0.5946 -1.58871 0.6664 -0.88094 0.4924 -2.13526 -0.3885 -2.80162Zm10 0c-0.8809 -0.666347 -2.1353 -0.492392 -2.8016 0.38855 -0.849 1.12241 -1.3747 2.44621 -1.4037 3.92316 -0.0288 1.46429 0.4331 2.92144 1.2925 4.32676 0.5518 0.9024 0.7165 1.6168 0.7058 2.1614 -0.0104 0.5319 -0.1904 1.0542 -0.5946 1.5887 -0.6664 0.8809 -0.4924 2.1352 0.3885 2.8016 0.881 0.6663 2.1353 0.4924 2.8016 -0.3886 0.8491 -1.1224 1.3747 -2.4462 1.4038 -3.9231 0.0288 -1.4643 -0.4332 -2.92145 -1.2926 -4.32681 -0.5518 -0.90234 -0.7165 -1.61676 -0.7058 -2.16133 0.0105 -0.53192 0.1904 -1.05428 0.5946 -1.58871 0.6664 -0.88094 0.4924 -2.13526 -0.3885 -2.80162Zm7.1984 0.38855c0.6663 -0.880942 1.9207 -1.054897 2.8016 -0.38855 0.8809 0.66636 1.0549 1.92068 0.3885 2.80162 -0.4042 0.53443 -0.5841 1.05679 -0.5946 1.58871 -0.0107 0.54457 0.154 1.25899 0.7058 2.16133 0.8594 1.40536 1.3214 2.86251 1.2926 4.32681 -0.0291 1.4769 -0.5547 2.8007 -1.4038 3.9231 -0.6663 0.881 -1.9206 1.0549 -2.8016 0.3886 -0.8809 -0.6664 -1.0549 -1.9207 -0.3885 -2.8016 0.4042 -0.5345 0.5842 -1.0568 0.5946 -1.5887 0.0107 -0.5446 -0.154 -1.259 -0.7058 -2.1614 -0.8594 -1.40532 -1.3213 -2.86247 -1.2925 -4.32676 0.029 -1.47695 0.5547 -2.80075 1.4037 -3.92316Z" clip-rule="evenodd" stroke-width="3.429"></path>
  </g>
</svg>
