<svg xmlns="http://www.w3.org/2000/svg" fill="none" viewBox="0 0 48 48">
  <g>
    <path fill="currentColor" fill-rule="evenodd" d="M35.1417 1.45562c0.991 0.74962 1.1868 2.16073 0.4372 3.15181 -0.3337 0.4412 -0.468 0.85054 -0.476 1.25495 -0.0082 0.41864 0.1166 1.01264 0.601 1.80487 0.8305 1.35812 1.2896 2.78765 1.261 4.24085 -0.0288 1.4675 -0.552 2.7785 -1.386 3.8812 -0.7496 0.991 -2.1608 1.1868 -3.1518 0.4372 -0.9911 -0.7497 -1.1869 -2.1608 -0.4372 -3.1518 0.3337 -0.4412 0.468 -0.8506 0.4759 -1.255 0.0082 -0.4186 -0.1165 -1.0126 -0.601 -1.8049 -0.8305 -1.35808 -1.2896 -2.7876 -1.261 -4.24086 0.0288 -1.46749 0.552 -2.77843 1.3861 -3.88111 0.7496 -0.991081 2.1607 -1.186822 3.1518 -0.43721ZM16.9422 4.60748c0.7496 -0.99105 0.5539 -2.40217 -0.4371 -3.15182 -0.9911 -0.749641 -2.4022 -0.553941 -3.1519 0.43711 -0.834 1.10269 -1.3573 2.41364 -1.3861 3.88117 -0.0286 1.45329 0.4305 2.88283 1.2611 4.24096 0.4845 0.7922 0.6092 1.3862 0.601 1.8048 -0.008 0.4044 -0.1422 0.8137 -0.476 1.2549 -0.7496 0.9911 -0.5539 2.4022 0.4372 3.1518 0.991 0.7497 2.4021 0.554 3.1518 -0.4371 0.834 -1.1027 1.3573 -2.4136 1.3861 -3.8812 0.0286 -1.4532 -0.4305 -2.88278 -1.2611 -4.24091 -0.4844 -0.79222 -0.6092 -1.3862 -0.601 -1.80481 0.008 -0.40437 0.1422 -0.8137 0.476 -1.2549Zm9.3183 0c0.7497 -0.99105 0.554 -2.40217 -0.4371 -3.15182 -0.991 -0.749641 -2.4022 -0.553941 -3.1518 0.43711 -0.8341 1.10269 -1.3573 2.41364 -1.3862 3.88117 -0.0285 1.45329 0.4306 2.88283 1.2611 4.24096 0.4845 0.7922 0.6093 1.3862 0.6011 1.8048 -0.008 0.4044 -0.1423 0.8137 -0.476 1.2549 -0.7496 0.9911 -0.5539 2.4022 0.4371 3.1518 0.9911 0.7497 2.4022 0.554 3.1518 -0.4371 0.8341 -1.1027 1.3573 -2.4136 1.3862 -3.8812 0.0286 -1.4532 -0.4306 -2.88278 -1.2611 -4.24091 -0.4845 -0.79222 -0.6093 -1.3862 -0.601 -1.80481 0.0079 -0.40437 0.1422 -0.8137 0.4759 -1.2549ZM6.50622 18.6845C9.3654 18.3919 14.8937 18 23.9996 18c9.1058 0 14.6342 0.3919 17.4933 0.6845 2.3665 0.2421 4.235 2.2885 3.9847 4.7968 -0.5281 5.2912 -2.7045 10.0693 -5.9872 13.7061 0.6069 0.7875 1.2171 1.6003 1.8098 2.4193 1.5184 2.0982 0.8442 4.4867 -0.6113 5.9313 -1.4202 1.4096 -3.7711 2.1289 -5.8932 0.6482 -1.4357 -1.0017 -2.8459 -2.0637 -4.1364 -3.0772 -2.0981 0.7313 -4.337 1.1267 -6.6597 1.1267 -2.3211 0 -4.5585 -0.3949 -6.6553 -1.1252 -1.29 1.0131 -2.6995 2.0745 -4.1345 3.0757 -2.1221 1.4807 -4.47298 0.7614 -5.89318 -0.6482 -1.45546 -1.4446 -2.12971 -3.8331 -0.61126 -5.9313 0.5917 -0.8176 1.20092 -1.6291 1.80682 -2.4155 -3.28458 -3.6373 -5.46237 -8.4169 -5.99063 -13.7099 -0.25034 -2.5083 1.61822 -4.5547 3.98467 -4.7968ZM23.9996 22c-8.9936 0 -14.38402 0.3872 -17.08618 0.6637 -0.16291 0.0167 -0.27193 0.0881 -0.33396 0.161 -0.05804 0.0682 -0.08854 0.1505 -0.07768 0.2593 0.49202 4.93 2.68107 9.2791 5.88432 12.3608 0.827 0.7957 0.9324 2.1013 0.2062 3.0199 -0.8815 1.1153 -1.7867 2.299 -2.64645 3.487 -0.0605 0.0836 -0.081 0.1422 -0.08896 0.1743 -0.00802 0.0324 -0.01018 0.0655 -0.00414 0.1064 0.01265 0.0855 0.07376 0.2602 0.28165 0.4666 0.2151 0.2135 0.3987 0.2815 0.4938 0.2966 0.0449 0.0071 0.0808 0.0051 0.1146 -0.0027 0.0335 -0.0078 0.0931 -0.0277 0.1782 -0.0871 1.6395 -1.1439 3.2614 -2.3833 4.7073 -3.539 0.6431 -0.514 1.5062 -0.6305 2.2536 -0.327 1.9053 0.7736 3.9652 1.1959 6.1177 1.1959 2.1539 0 4.2151 -0.4228 6.1214 -1.1974 0.7475 -0.3038 1.6109 -0.1874 2.2541 0.3268 1.4465 1.1561 3.0691 2.3963 4.7094 3.5407 0.0852 0.0594 0.1448 0.0793 0.1782 0.0871 0.0339 0.0078 0.0697 0.0098 0.1146 0.0027 0.0951 -0.0151 0.2787 -0.0831 0.4938 -0.2966 0.2079 -0.2064 0.269 -0.3811 0.2817 -0.4666 0.006 -0.0409 0.0039 -0.074 -0.0042 -0.1064 -0.0079 -0.0321 -0.0284 -0.0907 -0.0889 -0.1743 -0.8606 -1.1892 -1.7668 -2.3741 -2.6492 -3.4904 -0.7261 -0.9185 -0.6209 -2.2239 0.2058 -3.0196 3.2015 -3.0815 5.3892 -7.4293 5.8811 -12.3577 0.0108 -0.1088 -0.0197 -0.191 -0.0777 -0.2593 -0.062 -0.0729 -0.1711 -0.1443 -0.334 -0.161C38.3836 22.3872 32.9931 22 23.9996 22Zm13.2177 2.1623c-1.098 -0.1203 -2.0856 0.6724 -2.2058 1.7704 -0.1376 1.2563 -0.8753 2.5429 -2.2643 3.6583 -0.8612 0.6916 -0.9986 1.9505 -0.307 2.8117 0.6916 0.8612 1.9505 0.9987 2.8117 0.3071 2.0031 -1.6087 3.4561 -3.7879 3.7358 -6.3417 0.1202 -1.098 -0.6724 -2.0856 -1.7704 -2.2058Z" clip-rule="evenodd" stroke-width="1"></path>
  </g>
</svg>
