<svg xmlns="http://www.w3.org/2000/svg" viewBox="0 0 24 24" fill="none"><path opacity="0.4" d="M22.75 12.0253V12V11.9747C22.75 10.5505 22.75 9.42162 22.6533 8.52344C22.5545 7.60603 22.3479 6.84085 21.873 6.18164C21.5805 5.77565 21.2244 5.41946 20.8184 5.12695C20.1592 4.65206 19.394 4.44545 18.4766 4.34668C17.5784 4.24999 16.4495 4.25 15.0253 4.25H15H9H8.97469C7.5505 4.25 6.42162 4.24999 5.52344 4.34668C4.60603 4.44545 3.84085 4.65206 3.18164 5.12695C2.77565 5.41946 2.41946 5.77565 2.12695 6.18164C1.65206 6.84085 1.44545 7.60603 1.34668 8.52344C1.24999 9.42162 1.25 10.5505 1.25 11.9747V12V12.0253C1.25 13.4495 1.24999 14.5784 1.34668 15.4766C1.44545 16.394 1.65206 17.1592 2.12695 17.8184C2.41946 18.2244 2.77565 18.5805 3.18164 18.873C3.84085 19.3479 4.60603 19.5545 5.52344 19.6533C6.42162 19.75 7.5505 19.75 8.9747 19.75H9H15H15.0253C16.4495 19.75 17.5784 19.75 18.4766 19.6533C19.394 19.5545 20.1592 19.3479 20.8184 18.873C21.2243 18.5805 21.5805 18.2244 21.873 17.8184C22.3479 17.1592 22.5545 16.394 22.6533 15.4766C22.75 14.5784 22.75 13.4495 22.75 12.0253Z" fill="currentColor"/><path d="M17 15V9C17 8.44772 17.4477 8 18 8C18.5523 8 19 8.44772 19 9V15C19 15.5523 18.5523 16 18 16C17.4477 16 17 15.5523 17 15Z" fill="currentColor"/><path d="M13 15V9C13 8.44772 13.4477 8 14 8C14.5523 8 15 8.44772 15 9V15C15 15.5523 14.5523 16 14 16C13.4477 16 13 15.5523 13 15Z" fill="currentColor"/><path d="M9 15V9C9 8.44772 9.44772 8 10 8C10.5523 8 11 8.44772 11 9V15C11 15.5523 10.5523 16 10 16C9.44772 16 9 15.5523 9 15Z" fill="currentColor"/><path d="M5 15V9C5 8.44772 5.44772 8 6 8C6.55228 8 7 8.44772 7 9V15C7 15.5523 6.55228 16 6 16C5.44772 16 5 15.5523 5 15Z" fill="currentColor"/></svg>
