<svg xmlns="http://www.w3.org/2000/svg" viewBox="0 0 24 24" fill="none"><path d="M15.0249 4.25C16.4491 4.25 17.5779 4.25 18.4761 4.34668C19.3935 4.44545 20.1587 4.65206 20.8179 5.12695C21.2239 5.41946 21.5801 5.77565 21.8726 6.18164C22.3475 6.84085 22.5541 7.60603 22.6528 8.52344C22.7495 9.4216 22.7495 10.5505 22.7495 11.9746V12.0254C22.7495 13.4495 22.7495 14.5784 22.6528 15.4766C22.5541 16.394 22.3475 17.1592 21.8726 17.8184C21.5801 18.2244 21.2239 18.5805 20.8179 18.873C20.1587 19.3479 19.3935 19.5545 18.4761 19.6533C17.5779 19.75 16.4491 19.75 15.0249 19.75H8.97412C7.54997 19.75 6.42111 19.75 5.52295 19.6533C4.60555 19.5545 3.84036 19.3479 3.18115 18.873C2.77516 18.5805 2.41897 18.2244 2.12646 17.8184C1.65157 17.1592 1.44496 16.394 1.34619 15.4766C1.24951 14.5784 1.24951 13.4495 1.24951 12.0254V11.9746C1.24951 10.5505 1.24951 9.4216 1.34619 8.52344C1.44496 7.60603 1.65157 6.84085 2.12646 6.18164C2.41897 5.77565 2.77516 5.41946 3.18115 5.12695C3.84036 4.65206 4.60555 4.44545 5.52295 4.34668C6.42111 4.25 7.54997 4.25 8.97412 4.25H15.0249ZM5.99951 8C5.44723 8 4.99951 8.44772 4.99951 9V15C4.99951 15.5523 5.44723 16 5.99951 16C6.5518 16 6.99951 15.5523 6.99951 15V9C6.99951 8.44772 6.5518 8 5.99951 8ZM9.99951 8C9.44723 8 8.99951 8.44772 8.99951 9V15C8.99951 15.5523 9.44723 16 9.99951 16C10.5518 16 10.9995 15.5523 10.9995 15V9C10.9995 8.44772 10.5518 8 9.99951 8ZM13.9995 8C13.4472 8 12.9995 8.44772 12.9995 9V15C12.9995 15.5523 13.4472 16 13.9995 16C14.5518 16 14.9995 15.5523 14.9995 15V9C14.9995 8.44772 14.5518 8 13.9995 8ZM17.9995 8C17.4472 8 16.9995 8.44772 16.9995 9V15C16.9995 15.5523 17.4472 16 17.9995 16C18.5518 16 18.9995 15.5523 18.9995 15V9C18.9995 8.44772 18.5518 8 17.9995 8Z" fill="currentColor"/></svg>
