<svg xmlns="http://www.w3.org/2000/svg" viewBox="0 0 24 24" fill="none"><path d="M3 9.25C3.55229 9.25 4 9.69772 4 10.25V14.75C4 16.1925 4.00213 17.1737 4.10092 17.9086C4.19585 18.6146 4.36322 18.9416 4.58579 19.1642C4.80836 19.3868 5.13538 19.5542 5.84144 19.6491C6.57626 19.7479 7.55752 19.75 9 19.75H12C12.5523 19.75 13 20.1977 13 20.75C13 21.3023 12.5523 21.75 12 21.75H8.92943C7.57531 21.75 6.4587 21.7501 5.57494 21.6312C4.64711 21.5065 3.82769 21.2345 3.17158 20.5784C2.51547 19.9223 2.2435 19.1029 2.11876 18.1751C1.99994 17.2913 1.99997 16.1747 2 14.8206L2 10.25C2 9.69772 2.44772 9.25 3 9.25Z" fill="currentColor"/><path d="M3.19143 3.95934C3.19143 2.45786 4.41603 1.25 5.91512 1.25H18.0849C19.584 1.25 20.8086 2.45786 20.8086 3.95934C20.8086 4.50972 20.9532 5.05089 21.2287 5.52939L22.2149 7.24274C22.4737 7.69195 22.6839 8.05669 22.7347 8.66669C22.7553 8.91456 22.7576 9.12312 22.726 9.32441C22.6958 9.51721 22.6381 9.67169 22.5956 9.78539L22.5894 9.80225C22.0565 11.2329 20.6723 12.25 19.0513 12.25C17.695 12.25 16.5023 11.537 15.8374 10.4644C14.9338 11.5575 13.5446 12.25 12 12.25C10.4554 12.25 9.06617 11.5575 8.16259 10.4644C7.49773 11.537 6.30506 12.25 4.94875 12.25C3.32768 12.25 1.94355 11.2329 1.41065 9.80225L1.40436 9.78538C1.3619 9.67169 1.30421 9.51721 1.27397 9.32441C1.2424 9.12312 1.24469 8.91457 1.26533 8.66669C1.31613 8.05668 1.52628 7.69195 1.78509 7.24274L2.77133 5.52939C3.04677 5.05089 3.19143 4.50972 3.19143 3.95934Z" fill="currentColor"/><path d="M6 17C6 16.4477 6.44772 16 7 16H11C11.5523 16 12 16.4477 12 17C12 17.5523 11.5523 18 11 18H7C6.44772 18 6 17.5523 6 17Z" fill="currentColor" fill-rule="evenodd" clip-rule="evenodd"/><path d="M18.5 12.75C20.8337 12.75 22.75 14.6103 22.75 16.9346C22.7499 18.2854 22.0712 19.2611 21.375 20.04C21.1577 20.2831 20.9132 20.5343 20.6836 20.7695C20.5603 20.8958 20.441 21.0171 20.333 21.1309C20.0025 21.4791 19.7218 21.8037 19.5098 22.1416C19.3288 22.4299 18.9963 22.75 18.5059 22.75C18.0234 22.75 17.6897 22.4388 17.5029 22.1611C17.2797 21.8294 16.9905 21.5047 16.6543 21.1514C16.5658 21.0584 16.4728 20.9614 16.377 20.8623C16.1241 20.6009 15.8536 20.3212 15.6074 20.0391C14.9167 19.2475 14.2501 18.2586 14.25 16.9346C14.25 14.6103 16.1663 12.75 18.5 12.75ZM18.4932 15.5C17.6685 15.5001 17 16.1716 17 17C17 17.8284 17.6685 18.4999 18.4932 18.5H18.5068C19.3315 18.4999 20 17.8284 20 17C20 16.1716 19.3315 15.5001 18.5068 15.5H18.4932Z" fill="currentColor"/></svg>
