<svg xmlns="http://www.w3.org/2000/svg" viewBox="0 0 24 24" fill="none"><path opacity="0.4" d="M20.8252 13.1221C21.0583 12.8169 21.25 12.4555 21.25 12C21.25 11.5446 21.0583 11.1831 20.8252 10.878C20.6137 10.6011 20.3125 10.3017 19.9805 9.97156L19.9463 9.93754L16.3828 6.39359L16.3296 6.3407C15.6538 5.66847 15.0868 5.10455 14.6113 4.75101C14.1767 4.42785 13.5769 4.09652 12.9209 4.3223L12.7891 4.37601C12.1029 4.68928 11.9108 5.3961 11.832 5.97855C11.7543 6.55382 11.7502 7.32472 11.75 8.25004H6.5L6.45944 8.25003C6.02175 8.25001 5.6556 8.25 5.35449 8.27054C5.03744 8.29218 4.73762 8.33875 4.44727 8.45902C3.77359 8.73812 3.23809 9.27362 2.95899 9.9473C2.83872 10.2377 2.79215 10.5375 2.77051 10.8545C2.74997 11.1556 2.74998 11.5218 2.75 11.9595L2.75 12L2.75 12.0406C2.74998 12.4783 2.74997 12.8444 2.77051 13.1455C2.79215 13.4626 2.83872 13.7624 2.95899 14.0528C3.23809 14.7265 3.77359 15.2619 4.44727 15.5411C4.73762 15.6613 5.03744 15.7079 5.35449 15.7295C5.6556 15.7501 6.02174 15.7501 6.45941 15.75L6.5 15.75H11.75C11.7502 16.6754 11.7543 17.4463 11.832 18.0215C11.9108 18.604 12.1029 19.3108 12.7891 19.6241C13.4964 19.947 14.1476 19.5938 14.6113 19.2491C15.0868 18.8955 15.6538 18.3316 16.3297 17.6593L16.3828 17.6065L19.9463 14.0625L19.9805 14.0285C20.3125 13.6984 20.6137 13.3989 20.8252 13.1221Z" fill="currentColor"/></svg>
