<svg xmlns="http://www.w3.org/2000/svg" viewBox="0 0 24 24" fill="none"><path d="M12.0001 2.24805C12.5647 2.24805 13.1032 2.26716 13.6163 2.30469V3.30371C13.0109 3.65732 12.5854 4.28567 12.5109 5.01758C12.5035 5.10872 12.4926 5.32147 12.507 5.44238C12.5819 6.31954 13.1609 7.04489 13.9454 7.3457C14.0404 7.42924 14.249 7.64748 14.3859 8.02148C14.6774 8.81798 15.3934 9.38193 16.2335 9.48242C17.0734 9.58226 17.8995 9.20261 18.3702 8.49805L18.3741 8.49219C18.447 8.38797 18.6451 8.10512 18.7794 7.92383C19.0527 7.55517 19.4394 7.05823 19.8907 6.54297C20.2149 6.17295 20.5593 5.81015 20.9064 5.48438C22.332 7.27613 22.7501 9.60277 22.7501 11.998C22.7501 14.6232 21.9909 17.0835 20.2081 18.8887C18.4217 20.6976 15.7072 21.748 12.0001 21.748C10.4516 21.748 9.09802 21.5965 7.92004 21.3076C7.58964 21.2266 7.18979 21.3187 6.83801 21.5781C6.02991 22.1743 4.78914 22.748 3.00012 22.748C2.67012 22.748 2.37855 22.5325 2.28235 22.2168C2.18617 21.9011 2.3082 21.559 2.58215 21.375C3.18142 20.9721 3.81978 19.6151 2.73743 17.8984C1.63093 16.2102 1.25012 14.1414 1.25012 11.998C1.25012 9.42232 1.80062 6.9492 3.5011 5.12305C5.21049 3.28733 7.94716 2.24805 12.0001 2.24805ZM8.00012 10.998C7.44783 10.998 7.00012 11.4458 7.00012 11.998C7.00012 12.5503 7.44784 12.998 8.00012 12.998C8.5524 12.998 9.00012 12.5503 9.00012 11.998C9.00012 11.4458 8.55241 10.998 8.00012 10.998ZM12.0001 10.998C11.4824 10.998 11.0563 11.3914 11.005 11.8955L11.0001 11.998L11.005 12.1006C11.0563 12.6047 11.4825 12.998 12.0001 12.998C12.5523 12.998 13.0001 12.5503 13.0001 11.998C13.0001 11.4804 12.6067 11.0543 12.1027 11.0029L12.0001 10.998ZM16.0001 10.998C15.4478 10.998 15.0001 11.4458 15.0001 11.998C15.0001 12.5503 15.4478 12.998 16.0001 12.998C16.5524 12.998 17.0001 12.5503 17.0001 11.998C17.0001 11.4458 16.5524 10.998 16.0001 10.998Z" fill="currentColor"/><path d="M21.4308 1.30072C21.9541 1.12432 22.5209 1.40539 22.6974 1.92865C22.8738 2.45192 22.5927 3.01876 22.0695 3.19525C21.6195 3.34708 21.0929 3.67692 20.5284 4.14838C19.9735 4.61189 19.4325 5.17035 18.9513 5.71967C18.472 6.26689 18.0642 6.79138 17.7765 7.17963C17.633 7.37321 17.5197 7.53164 17.4435 7.64057C17.4055 7.6949 17.3764 7.73693 17.3575 7.76459C17.3482 7.77824 17.3414 7.78842 17.337 7.79486C17.3351 7.79777 17.334 7.80035 17.3331 7.8017L17.3322 7.80365C17.1231 8.11661 16.7557 8.28562 16.382 8.24115C16.008 8.19651 15.6901 7.94543 15.5607 7.59174C15.3465 7.00615 15.041 6.64197 14.8019 6.43158C14.6804 6.32475 14.5773 6.25888 14.5148 6.22455C14.5063 6.21992 14.4992 6.21584 14.4933 6.21283C14.0657 6.0993 13.7501 5.71132 13.7501 5.24799C13.7501 4.6957 14.1978 4.24799 14.7501 4.24799C14.8925 4.24799 15.0065 4.27857 15.045 4.289C15.1025 4.30458 15.1551 4.32258 15.1993 4.33978C15.289 4.37467 15.3833 4.41979 15.4777 4.47162C15.6679 4.57614 15.8913 4.72661 16.1232 4.9306C16.2805 5.06904 16.4411 5.23405 16.5997 5.42572C16.8451 5.11279 17.1305 4.762 17.4464 4.40131C17.9688 3.80492 18.5853 3.16523 19.2462 2.61322C19.8977 2.06912 20.6455 1.56559 21.4308 1.30072Z" fill="currentColor"/></svg>
