<svg xmlns="http://www.w3.org/2000/svg" viewBox="0 0 24 24" fill="none"><path d="M15.9556 1.25C16.8161 1.24995 17.5579 1.24981 18.1519 1.33008C18.7891 1.41623 19.3996 1.61138 19.895 2.10938C20.3903 2.60734 20.5837 3.22092 20.6694 3.86133C20.7493 4.45822 20.7496 5.20363 20.7495 6.06836V17.8633C20.7495 18.403 20.3138 18.8408 19.7769 18.8408H19.687C19.6567 18.8768 19.6239 18.9161 19.5923 18.96C19.4249 19.1924 19.2915 19.4846 19.2915 19.8184C19.2916 20.152 19.425 20.4434 19.5923 20.6758C19.624 20.7198 19.6566 20.7598 19.687 20.7959H19.7769C20.3137 20.7959 20.7494 21.2329 20.7495 21.7725C20.7495 22.3122 20.3138 22.75 19.7769 22.75H6.1665C4.55573 22.75 3.24961 21.4375 3.24951 19.8184V8.03516C3.24949 6.70606 3.24987 5.61062 3.36572 4.74414C3.487 3.8374 3.75128 3.03671 4.38916 2.39551C5.02698 1.7544 5.82316 1.48814 6.7251 1.36621C7.58711 1.24974 8.67723 1.24998 9.99951 1.25H15.9556ZM6.1665 18.8398C5.62956 18.8398 5.19385 19.2777 5.19385 19.8174C5.19399 20.357 5.62965 20.7939 6.1665 20.7939H17.4995C17.4077 20.5025 17.3472 20.1761 17.3472 19.8174C17.3472 19.4584 17.4076 19.1314 17.4995 18.8398H6.1665ZM11.9995 12.75C11.4472 12.75 10.9995 13.1977 10.9995 13.75C10.9995 14.3023 11.4472 14.75 11.9995 14.75C12.5518 14.75 12.9995 14.3023 12.9995 13.75C12.9995 13.1977 12.5518 12.75 11.9995 12.75ZM11.9995 5C11.4472 5 10.9995 5.44772 10.9995 6V10C10.9995 10.5523 11.4472 11 11.9995 11C12.5518 11 12.9995 10.5523 12.9995 10V6C12.9995 5.44772 12.5518 5 11.9995 5Z" fill="currentColor" fill-rule="evenodd" clip-rule="evenodd"/></svg>
