<svg xmlns="http://www.w3.org/2000/svg" viewBox="0 0 24 24" fill="none"><path d="M11.1202 14.2732C10.3701 14.063 9.34754 14.2338 8.84775 15.0994L6.84677 18.5633C6.37529 19.3799 6.62319 20.5122 7.57627 20.9432C8.92643 21.5535 10.4246 21.8933 12.0001 21.8934C13.5713 21.8934 15.0658 21.5553 16.4132 20.948C17.3675 20.5178 17.6155 19.3854 17.1436 18.5682L15.1427 15.1023C14.6438 14.2383 13.6235 14.0657 12.8741 14.2742C12.5969 14.3514 12.3038 14.3934 12.0001 14.3934C11.6942 14.3933 11.3991 14.3514 11.1202 14.2732Z" fill="currentColor"/><path d="M8.14267 2.97832C7.67012 2.15984 6.56352 1.80928 5.71396 2.42266C3.2845 4.17681 1.61488 6.9234 1.30283 10.0711C1.1999 11.1115 2.05606 11.8933 3.00009 11.8934H7.00009C7.99887 11.8934 8.65835 11.0939 8.85068 10.3387C8.99945 9.7543 9.30716 9.23188 9.72666 8.8211C10.2832 8.2762 10.6424 7.30673 10.1446 6.44414L8.14267 2.97832Z" fill="currentColor"/><path d="M18.2774 2.41485C17.4279 1.80291 16.321 2.1537 15.8487 2.97149L13.8487 6.43633C13.3498 7.30057 13.7112 8.27147 14.2696 8.81621C14.6914 9.22766 15.0012 9.7522 15.1505 10.3387C15.3429 11.0938 16.0015 11.8933 17.0001 11.8934H21.0001C21.9442 11.8934 22.8003 11.1116 22.6974 10.0711C22.3849 6.91921 20.7122 4.16869 18.2774 2.41485Z" fill="currentColor"/><path d="M13.5002 11.1425C13.5002 11.9709 12.8287 12.6425 12.0002 12.6425C11.1718 12.6425 10.5002 11.9709 10.5002 11.1425C10.5002 10.314 11.1718 9.64246 12.0002 9.64246C12.8287 9.64246 13.5002 10.314 13.5002 11.1425Z" fill="currentColor"/></svg>
