<svg xmlns="http://www.w3.org/2000/svg" viewBox="0 0 24 24" fill="none"><path opacity="0.4" d="M19.0001 6C19.5523 6 20.0001 6.44772 20.0001 7C20.0001 7.55228 19.5523 8 19.0001 8H5.00006C4.44778 8 4.00006 7.55228 4.00006 7C4.00006 6.44772 4.44778 6 5.00006 6H19.0001Z" fill="currentColor"/><path d="M20.6055 2.55305C20.8525 2.05907 21.4533 1.85879 21.9473 2.10578C22.4413 2.35277 22.6415 2.9536 22.3945 3.44758L18.3945 11.4476C18.1475 11.9416 17.5467 12.1418 17.0527 11.8948C16.5588 11.6479 16.3585 11.047 16.6055 10.553L20.6055 2.55305Z" fill="currentColor"/><path d="M15.6055 2.55305C15.8525 2.05907 16.4533 1.85879 16.9473 2.10578C17.4413 2.35277 17.6415 2.9536 17.3945 3.44758L13.3945 11.4476C13.1475 11.9416 12.5467 12.1418 12.0527 11.8948C11.5588 11.6479 11.3585 11.047 11.6055 10.553L15.6055 2.55305Z" fill="currentColor"/><path d="M10.6055 2.55305C10.8525 2.05907 11.4533 1.85879 11.9473 2.10578C12.4413 2.35277 12.6415 2.9536 12.3945 3.44758L8.39454 11.4476C8.14755 11.9416 7.54672 12.1418 7.05274 11.8948C6.55876 11.6479 6.35849 11.047 6.60548 10.553L10.6055 2.55305Z" fill="currentColor"/><path d="M5.60548 2.55305C5.85247 2.05907 6.45329 1.85879 6.94727 2.10578C7.44125 2.35277 7.64153 2.9536 7.39454 3.44758L3.39454 11.4476C3.14755 11.9416 2.54672 12.1418 2.05274 11.8948C1.55876 11.6479 1.35849 11.047 1.60548 10.553L5.60548 2.55305Z" fill="currentColor"/><path opacity="0.4" d="M11.0001 21V15C11.0001 14.4477 11.4478 14 12.0001 14C12.5523 14 13.0001 14.4477 13.0001 15V21C13.0001 21.5523 12.5523 22 12.0001 22C11.4478 22 11.0001 21.5523 11.0001 21Z" fill="currentColor"/></svg>
