<svg xmlns="http://www.w3.org/2000/svg" viewBox="0 0 24 24" fill="none"><path d="M11.9994 14.0001C12.5517 14.0001 12.9994 14.4479 12.9994 15.0001V21.0001C12.9994 21.5524 12.5517 22.0001 11.9994 22.0001C11.4473 21.9999 10.9994 21.5523 10.9994 21.0001V15.0001C10.9994 14.448 11.4473 14.0003 11.9994 14.0001ZM20.6049 2.55287C20.8519 2.05911 21.4528 1.85893 21.9467 2.10561C22.4406 2.35258 22.6409 2.95345 22.394 3.4474L18.394 11.4474C18.147 11.9414 17.5462 12.1417 17.0522 11.8947C16.5585 11.6476 16.358 11.0467 16.6049 10.5529L17.8813 8.00014H15.1176L13.394 11.4474C13.147 11.9414 12.5462 12.1417 12.0522 11.8947C11.5585 11.6476 11.358 11.0467 11.6049 10.5529L12.8813 8.00014H10.1176L8.39397 11.4474C8.14698 11.9414 7.54616 12.1417 7.05218 11.8947C6.55847 11.6476 6.35798 11.0467 6.60491 10.5529L7.88128 8.00014H5.11761L3.39397 11.4474C3.14698 11.9414 2.54616 12.1417 2.05218 11.8947C1.55847 11.6476 1.35798 11.0467 1.60491 10.5529L5.60491 2.55287C5.85188 2.05911 6.45284 1.85893 6.94671 2.10561C7.44065 2.35258 7.64087 2.95345 7.39397 3.4474L6.11761 6.00014H8.88128L10.6049 2.55287C10.8519 2.05911 11.4528 1.85893 11.9467 2.10561C12.4406 2.35258 12.6409 2.95345 12.394 3.4474L11.1176 6.00014H13.8813L15.6049 2.55287C15.8519 2.05911 16.4528 1.85893 16.9467 2.10561C17.4406 2.35258 17.6409 2.95345 17.394 3.4474L16.1176 6.00014H18.8813L20.6049 2.55287Z" fill="currentColor" fill-rule="evenodd" clip-rule="evenodd"/></svg>
