<svg xmlns="http://www.w3.org/2000/svg" viewBox="0 0 24 24" fill="none"><path d="M13.0521 1.25195C13.9506 1.25193 14.6998 1.2519 15.2945 1.33187C15.9223 1.41627 16.4891 1.60194 16.9446 2.05741C17.4001 2.51288 17.5857 3.07968 17.6702 3.70748C17.714 4.03334 17.7338 4.70574 17.7427 5.39491C17.7464 5.68126 17.7483 5.82444 17.66 5.91372C17.5717 6.003 17.4268 6.00273 17.1369 6.0022C17.0021 6.00195 16.8645 6.00195 16.7245 6.00195H7.2756C7.13558 6.00195 6.99807 6.00195 6.86324 6.0022C6.57337 6.00273 6.42843 6.003 6.34014 5.91372C6.25184 5.82444 6.2537 5.68126 6.25742 5.39491C6.26636 4.70575 6.28616 4.03334 6.32997 3.70748C6.41438 3.07968 6.60005 2.51288 7.05552 2.05741C7.51099 1.60194 8.07779 1.41627 8.70558 1.33187C9.30035 1.2519 10.0496 1.25193 10.9481 1.25195H13.0521Z" fill="currentColor"/><path d="M21.0434 16.0409C21.4339 15.6504 22.0669 15.6504 22.4574 16.0409C22.8479 16.4315 22.8479 17.0645 22.4574 17.455L20.6644 19.248L22.4574 21.0409C22.8479 21.4315 22.8479 22.0645 22.4574 22.455C22.0669 22.8455 21.4339 22.8455 21.0434 22.455L19.2504 20.662L17.4574 22.455C17.0669 22.8455 16.4339 22.8455 16.0434 22.455C15.6528 22.0645 15.6528 21.4315 16.0434 21.0409L17.8363 19.248L16.0434 17.455C15.6528 17.0645 15.6528 16.4315 16.0434 16.0409C16.4339 15.6504 17.0669 15.6504 17.4574 16.0409L19.2504 17.8339L21.0434 16.0409Z" fill="currentColor"/><path opacity="0.4" d="M18.7879 7.29883C18.2277 7.25207 17.5366 7.25195 16.6786 7.25195H7.32113C6.46299 7.25195 5.77202 7.25203 5.21176 7.29883C4.63455 7.34707 4.13132 7.44863 3.66488 7.68848C3.10666 7.97559 2.62725 8.39247 2.27133 8.9043C1.972 9.33491 1.81345 9.81628 1.70492 10.3711C1.6006 10.9046 1.53185 11.5669 1.44725 12.3818L1.44613 12.3926L1.43832 12.4658C1.33613 13.45 1.2538 14.2432 1.24984 14.8848C1.24581 15.5451 1.32231 16.1298 1.59652 16.667C1.91857 17.2976 2.41632 17.8255 3.02816 18.1924C3.54502 18.5022 4.12862 18.6312 4.80356 18.6924C5.19017 18.7274 5.63393 18.7401 6.14242 18.7461C6.10994 18.9039 6.08214 19.051 6.06039 19.1875C5.99912 19.5722 5.96871 19.9613 6.04574 20.3555C6.21725 21.2325 6.75884 22.0084 7.55453 22.4297C7.92038 22.6234 8.30662 22.6898 8.67856 22.7197C9.03194 22.7481 9.46488 22.7481 9.96317 22.748H9.97348H14.0272C14.2803 22.7481 14.5167 22.7468 14.7342 22.7432C14.4235 22.114 14.4244 21.3712 14.7381 20.7432C14.5361 20.7467 14.2922 20.748 13.9891 20.748H10.0116C9.45985 20.748 9.10484 20.7479 8.83871 20.7266C8.58003 20.7058 8.50666 20.6709 8.49008 20.6621C8.26591 20.5433 8.07269 20.2991 8.00863 19.9717C7.99738 19.914 7.98861 19.7943 8.035 19.5029C8.08223 19.2065 8.17056 18.8223 8.30356 18.2451C8.48623 17.4523 8.53757 17.2834 8.60434 17.1719C8.71816 16.9821 8.87701 16.8556 9.04184 16.7939C9.12304 16.7637 9.24554 16.7481 10.0116 16.748H13.9891C14.2071 16.748 14.3733 16.7494 14.5008 16.752C14.4998 16.1749 14.7196 15.5976 15.16 15.1572C16.0387 14.2787 17.463 14.2786 18.3416 15.1572L19.2508 16.0664L20.16 15.1572L20.3309 15.0029C21.0224 14.439 21.9695 14.3497 22.744 14.7314C22.7294 14.118 22.6555 13.3729 22.5614 12.4658L22.5536 12.3926L22.5524 12.3818C22.4678 11.567 22.3991 10.9045 22.2948 10.3711C22.1862 9.81626 22.0287 9.33492 21.7293 8.9043C21.3733 8.39229 20.8932 7.97563 20.3348 7.68848C19.8684 7.44873 19.3651 7.34704 18.7879 7.29883Z" fill="currentColor"/></svg>
