<svg xmlns="http://www.w3.org/2000/svg" viewBox="0 0 24 24" fill="none"><path d="M13.0516 1.25195C13.9501 1.25193 14.6993 1.2519 15.2941 1.33187C15.9218 1.41627 16.4886 1.60194 16.9441 2.05741C17.3996 2.51288 17.5853 3.07968 17.6697 3.70748C17.7135 4.03334 17.7333 4.70574 17.7422 5.39491C17.7459 5.68126 17.7478 5.82444 17.6595 5.91372C17.5712 6.003 17.4263 6.00273 17.1364 6.0022C17.0016 6.00195 16.864 6.00195 16.7241 6.00195H7.27511C7.13509 6.00195 6.99758 6.00195 6.86275 6.0022C6.57288 6.00273 6.42795 6.003 6.33965 5.91372C6.25135 5.82444 6.25321 5.68126 6.25693 5.39491C6.26587 4.70575 6.28567 4.03334 6.32949 3.70748C6.41389 3.07968 6.59956 2.51288 7.05503 2.05741C7.5105 1.60194 8.0773 1.41627 8.70509 1.33187C9.29986 1.2519 10.0491 1.25193 10.9476 1.25195H13.0516Z" fill="currentColor"/><path d="M21.0429 16.0409C21.4334 15.6504 22.0664 15.6504 22.4569 16.0409C22.8474 16.4315 22.8474 17.0645 22.4569 17.455L20.664 19.248L22.4569 21.0409C22.8474 21.4315 22.8474 22.0645 22.4569 22.455C22.0664 22.8455 21.4334 22.8455 21.0429 22.455L19.2499 20.662L17.4569 22.455C17.0664 22.8455 16.4334 22.8455 16.0429 22.455C15.6523 22.0645 15.6523 21.4315 16.0429 21.0409L17.8358 19.248L16.0429 17.455C15.6523 17.0645 15.6523 16.4315 16.0429 16.0409C16.4334 15.6504 17.0664 15.6504 17.4569 16.0409L19.2499 17.8339L21.0429 16.0409Z" fill="currentColor"/><path d="M18.7874 7.29883C18.2272 7.25207 17.5361 7.25195 16.6781 7.25195H7.32065C6.4625 7.25195 5.77153 7.25203 5.21127 7.29883C4.63407 7.34707 4.13083 7.44863 3.6644 7.68848C3.10618 7.97559 2.62676 8.39247 2.27084 8.9043C1.97151 9.33491 1.81296 9.81628 1.70443 10.3711C1.60011 10.9046 1.53136 11.5669 1.44676 12.3818L1.44565 12.3926L1.43783 12.4658C1.33564 13.45 1.25331 14.2432 1.24936 14.8848C1.24532 15.5451 1.32182 16.1298 1.59604 16.667C1.91808 17.2976 2.41583 17.8255 3.02768 18.1924C3.54453 18.5022 4.12814 18.6312 4.80307 18.6924C5.18969 18.7274 5.63344 18.7401 6.14193 18.7461C6.10945 18.9039 6.08166 19.051 6.0599 19.1875C5.99863 19.5722 5.96822 19.9613 6.04525 20.3555C6.21676 21.2325 6.75835 22.0084 7.55404 22.4297C7.91989 22.6234 8.30614 22.6898 8.67807 22.7197C9.03145 22.7481 9.46439 22.7481 9.96269 22.748H9.97299H14.0267C14.2798 22.7481 14.5162 22.7468 14.7337 22.7432C14.423 22.114 14.4239 21.3712 14.7376 20.7432C14.5356 20.7467 14.2917 20.748 13.9886 20.748H10.0111C9.45936 20.748 9.10435 20.7479 8.83822 20.7266C8.57955 20.7058 8.50617 20.6709 8.48959 20.6621C8.26542 20.5433 8.0722 20.2991 8.00815 19.9717C7.99689 19.914 7.98812 19.7943 8.03451 19.5029C8.08174 19.2065 8.17007 18.8223 8.30307 18.2451C8.48574 17.4523 8.53708 17.2834 8.60385 17.1719C8.71767 16.9821 8.87652 16.8556 9.04135 16.7939C9.12255 16.7637 9.24506 16.7481 10.0111 16.748H13.9886C14.2066 16.748 14.3728 16.7494 14.5003 16.752C14.4993 16.1749 14.7191 15.5976 15.1595 15.1572C16.0382 14.2787 17.4625 14.2786 18.3412 15.1572L19.2503 16.0664L20.1595 15.1572L20.3304 15.0029C21.022 14.439 21.969 14.3497 22.7435 14.7314C22.7289 14.118 22.6551 13.3729 22.5609 12.4658L22.5531 12.3926L22.5519 12.3818C22.4674 11.567 22.3986 10.9045 22.2943 10.3711C22.1857 9.81626 22.0282 9.33492 21.7288 8.9043C21.3729 8.39229 20.8927 7.97563 20.3343 7.68848C19.8679 7.44873 19.3646 7.34704 18.7874 7.29883Z" fill="currentColor"/></svg>
