<svg xmlns="http://www.w3.org/2000/svg" viewBox="0 0 24 24" fill="none"><path opacity="0.4" d="M12.0671 2.25C14.0763 2.24998 15.6833 2.25043 16.9441 2.41992C18.2468 2.59511 19.3247 2.96748 20.1785 3.82129C21.0323 4.6751 21.4046 5.75292 21.5798 7.05566C21.7493 8.31643 21.7498 9.92344 21.7498 11.9326V12.0674C21.7498 14.0766 21.7493 15.6836 21.5798 16.9443C21.4046 18.2471 21.0323 19.3249 20.1785 20.1787C19.3247 21.0325 18.2468 21.4049 16.9441 21.5801C15.6833 21.7496 14.0763 21.75 12.0671 21.75H11.9324C9.9232 21.75 8.31619 21.7496 7.05542 21.5801C5.75267 21.4049 4.67486 21.0325 3.82105 20.1787C2.96723 19.3249 2.59487 18.2471 2.41968 16.9443C2.25019 15.6836 2.24974 14.0766 2.24976 12.0674V11.9326C2.24974 9.92344 2.25018 8.31643 2.41968 7.05566C2.59487 5.75292 2.96723 4.6751 3.82105 3.82129C4.67486 2.96748 5.75267 2.59511 7.05542 2.41992C8.31619 2.25043 9.9232 2.24998 11.9324 2.25H12.0671ZM11.9998 4.2002C9.90394 4.2002 8.42989 4.20268 7.31519 4.35254C6.22869 4.49865 5.63013 4.76904 5.19897 5.2002C4.76807 5.63129 4.49837 6.22938 4.3523 7.31543C4.20243 8.4301 4.19995 9.90425 4.19995 12C4.19995 13.1467 4.20121 14.1074 4.22632 14.9248H19.7732C19.7983 14.1074 19.7996 13.1467 19.7996 12C19.7996 9.90425 19.7971 8.4301 19.6472 7.31543C19.5011 6.22907 19.2307 5.63132 18.7996 5.2002C18.3684 4.76909 17.7707 4.49864 16.6843 4.35254C15.5696 4.20267 14.0956 4.2002 11.9998 4.2002Z" fill="currentColor" fill-rule="evenodd" clip-rule="evenodd"/><path d="M8.40699 7.69445C8.85166 7.36727 9.47801 7.46277 9.80543 7.90734V7.90832C9.80619 7.90934 9.80765 7.91092 9.80934 7.9132L9.8943 8.02648C9.95352 8.10488 10.0394 8.2179 10.1453 8.35363C10.3582 8.6265 10.6483 8.98731 10.9588 9.34484C11.2734 9.7072 11.5906 10.0442 11.8601 10.2823C11.9113 10.3276 11.9587 10.3648 11.9998 10.3976C12.041 10.3647 12.089 10.3278 12.1404 10.2823C12.4099 10.0442 12.7262 9.70716 13.0408 9.34484C13.3512 8.98731 13.6413 8.6265 13.8543 8.35363C13.9602 8.2179 14.046 8.10488 14.1052 8.02648L14.1902 7.9132C14.1919 7.91092 14.1933 7.90934 14.1941 7.90832V7.90734C14.5215 7.46276 15.1479 7.36726 15.5925 7.69445C16.0371 8.02187 16.1326 8.64821 15.8054 9.09289H15.8045V9.09386C15.8041 9.09441 15.8032 9.09589 15.8025 9.09679C15.8012 9.09857 15.7989 9.1006 15.7966 9.10363C15.7919 9.11006 15.7849 9.11919 15.7761 9.13097C15.7586 9.15455 15.7333 9.18873 15.7009 9.23156C15.6363 9.31717 15.5438 9.43879 15.4304 9.5841C15.2045 9.87365 14.8922 10.263 14.5515 10.6554C14.2152 11.0427 13.8315 11.4562 13.4646 11.7804C13.2823 11.9415 13.0799 12.1022 12.8718 12.2277C12.6912 12.3366 12.377 12.5001 11.9998 12.5001C11.6225 12.5001 11.3084 12.3366 11.1277 12.2277C10.9196 12.1022 10.7173 11.9415 10.5349 11.7804C10.1681 11.4562 9.78432 11.0427 9.44801 10.6554C9.10737 10.263 8.79507 9.87364 8.5691 9.5841C8.45569 9.43878 8.36326 9.31717 8.2986 9.23156C8.26624 9.18873 8.24097 9.15455 8.2234 9.13097C8.21463 9.11921 8.20765 9.11005 8.20289 9.10363C8.20065 9.1006 8.19835 9.09857 8.19703 9.09679L8.19508 9.09386V9.09289H8.1941C7.86693 8.64822 7.96243 8.02187 8.40699 7.69445Z" fill="currentColor"/></svg>
