<svg xmlns="http://www.w3.org/2000/svg" fill="none" viewBox="0 0 48 48">
  <g>
    <path fill="#8fbffa" d="M27.9989 13c0 4.2848 -2.4499 7.9974 -6.0254 9.8135 1.4209 0.4809 2.7461 1.1622 3.9404 2.0094 -1.0299 1.2529 -1.5947 2.8182 -1.7167 4.3198 -0.1046 1.288 -0.1982 2.9663 -0.1982 4.8573 0 1.2914 0.1411 2.5899 0.4227 3.8606 -1.9509 0.085 -4.3848 0.1394 -7.419 0.1394 -6.6387 0 -10.40341 -0.2605 -12.5244 -0.5321 -1.73475 -0.2222 -2.74025 -1.6269 -2.41294 -3.3449 1.00643 -5.2827 4.86955 -9.5826 9.96194 -11.3079C8.4502 20.9996 5.9989 17.286 5.9989 13c0 -6.07513 4.9249 -11 11 -11s11 4.92487 11 11Z" stroke-width="1"></path>
    <path fill="currentColor" fill-opacity="0.4" d="M28.1851 29.4666c0.1286 -1.5839 1.078 -2.8713 2.6495 -3.1078C32.1304 26.1638 34.0861 26 37 26s4.8696 0.1638 6.1654 0.3588c1.5715 0.2365 2.5209 1.5239 2.6495 3.1078C45.9127 30.6696 46 32.2378 46 34c0 4.5271 -2.1907 8.8955 -6.1786 11.0381C38.7653 45.6055 37.7584 46 37 46s-1.7653 -0.3945 -2.8214 -0.9619C30.1907 42.8955 28 38.5271 28 34c0 -1.7622 0.0873 -3.3304 0.1851 -4.5334Z" stroke-width="1"></path>
    <path stroke="currentColor" stroke-linejoin="round" d="M28.1851 29.4666c0.1286 -1.5839 1.078 -2.8713 2.6495 -3.1078C32.1304 26.1638 34.0861 26 37 26s4.8696 0.1638 6.1654 0.3588c1.5715 0.2365 2.5209 1.5239 2.6495 3.1078C45.9127 30.6696 46 32.2378 46 34c0 4.5271 -2.1907 8.8955 -6.1786 11.0381C38.7653 45.6055 37.7584 46 37 46s-1.7653 -0.3945 -2.8214 -0.9619C30.1907 42.8955 28 38.5271 28 34c0 -1.7622 0.0873 -3.3304 0.1851 -4.5334Z" stroke-width="1"></path>
    <path stroke="currentColor" stroke-linecap="round" stroke-linejoin="round" d="M24 37.878c-1.8776 0.075 -4.1799 0.122 -7.0012 0.122 -6.6388 0 -10.40341 -0.2605 -12.5244 -0.5321 -1.73475 -0.2222 -2.74026 -1.6269 -2.41295 -3.3449 1.00643 -5.2827 4.86955 -9.5826 9.96195 -11.3079C8.4463 20.9996 5.995 17.286 5.995 13c0 -6.07513 4.9249 -11 11 -11s11 4.92487 11 11c0 4.2848 -2.4499 7.9974 -6.0254 9.8135 1.2603 0.4265 2.4453 1.0107 3.5304 1.7285" stroke-width="1"></path>
  </g>
</svg>
