<svg xmlns="http://www.w3.org/2000/svg" fill="none" viewBox="0 0 48 48">
  <g>
    <path fill="currentColor" fill-opacity="0.4" d="M24 0.5c-9.6901 0 -14.95522 0.69324 -17.74002 1.31517 -2.42815 0.54228 -3.78815 2.59854 -4.02331 4.78126C1.92467 9.49231 1.5 14.4191 1.5 19.8c0 0.5145 0.00388 1.0212 0.01117 1.519 0.13249 9.0454 4.72521 17.4843 12.47903 22.2326 1.7194 1.053 3.4957 2.0253 5.1741 2.7386C20.8141 46.9915 22.5001 47.5 24 47.5c1.4999 0 3.1859 -0.5085 4.8357 -1.2098 1.6784 -0.7133 3.4547 -1.6856 5.1741 -2.7386 7.7538 -4.7483 12.3465 -13.1871 12.479 -22.2326 0.0073 -0.4978 0.0112 -1.0045 0.0112 -1.519 0 -5.381 -0.4247 -10.3077 -0.7367 -13.20357 -0.2351 -2.18272 -1.5951 -4.23898 -4.0233 -4.78125C38.9552 1.19324 33.6901 0.5 24 0.5Z" stroke-width="1"></path>
    <path fill="currentColor" d="M24 9.5c-4.4111 0 -7.2445 0.24863 -9.0489 0.5331 -2.5106 0.3957 -3.94 2.4634 -4.1447 4.6916 -0.1528 1.6637 -0.3064 3.9426 -0.3064 6.3889 0 5.9073 2.9986 11.511 8.1898 14.4888 0.8842 0.5071 1.7951 0.9702 2.6677 1.3099 0.8523 0.3318 1.7715 0.5877 2.6425 0.5877s1.7902 -0.2559 2.6425 -0.5877c0.8726 -0.3397 1.7835 -0.8028 2.6677 -1.3099C34.5014 32.6246 37.5 27.0209 37.5 21.1136c0 -2.4463 -0.1536 -4.7252 -0.3064 -6.3889 -0.2047 -2.2282 -1.6341 -4.2959 -4.1447 -4.6916C31.2445 9.74863 28.4111 9.5 24 9.5Z" stroke-width="1"></path>
  </g>
</svg>
