<svg xmlns="http://www.w3.org/2000/svg" viewBox="0 0 24 24" fill="none"><path d="M1.25 13C1.25 11.4812 2.48122 10.25 4 10.25H20C21.5188 10.25 22.75 11.4812 22.75 13C22.75 14.5188 21.5188 15.75 20 15.75H19C18.5858 15.75 18.25 15.4142 18.25 15C18.25 14.5858 18.5858 14.25 19 14.25H20C20.6904 14.25 21.25 13.6904 21.25 13C21.25 12.3096 20.6904 11.75 20 11.75H12.345L11.056 13.2538C10.7307 13.6334 10.4367 13.9765 10.1625 14.2177C9.86362 14.4807 9.48957 14.7134 9 14.7134C8.51043 14.7134 8.13638 14.4807 7.83746 14.2177C7.56333 13.9765 7.26929 13.6334 6.94402 13.2538L5.65505 11.75H4C3.30964 11.75 2.75 12.3096 2.75 13C2.75 13.6904 3.30964 14.25 4 14.25H5C5.41421 14.25 5.75 14.5858 5.75 15C5.75 15.4142 5.41421 15.75 5 15.75H4C2.48122 15.75 1.25 14.5188 1.25 13Z" fill="currentColor"/><path d="M6.00247 14.4594C5.91302 14.356 5.8683 14.3043 5.80889 14.2772C5.74949 14.25 5.6818 14.25 5.54642 14.25L5.53077 14.25C5.04947 14.25 4.61265 14.2499 4.25874 14.2996C3.86851 14.3545 3.46853 14.4826 3.1462 14.8229C3.00674 14.9701 2.88786 15.1459 2.81731 15.3585C2.74655 15.5718 2.73908 15.7776 2.76079 15.9634C2.79635 16.2677 2.92595 16.5931 3.03471 16.8661L3.05585 16.9193C3.95889 19.1944 6.38224 20.75 9.14594 20.75H14.8541C17.6178 20.75 20.0411 19.1944 20.9442 16.9193L20.9653 16.8661C21.0741 16.5931 21.2037 16.2677 21.2392 15.9634C21.2609 15.7776 21.2535 15.5718 21.1827 15.3585C21.1122 15.1459 20.9933 14.9701 20.8538 14.8229C20.5315 14.4826 20.1315 14.3545 19.7413 14.2996C19.3874 14.2499 18.9506 14.25 18.4693 14.25L12.4541 14.25C12.3187 14.25 12.251 14.25 12.1916 14.2772C12.1322 14.3043 12.0875 14.356 11.998 14.4594C11.7389 14.7589 11.4397 15.0921 11.1537 15.3438C10.7263 15.7199 10.0104 16.2134 9.00025 16.2134C7.99012 16.2134 7.27417 15.7199 6.84682 15.3438C6.56076 15.0921 6.26163 14.7588 6.00247 14.4594Z" fill="currentColor"/><path d="M14.8538 3.25C17.7778 3.25 20.1289 5.53614 20.9681 8.49609C21.083 8.90117 21.2116 9.35277 21.2415 9.71094C21.2774 10.1408 21.1996 10.5479 20.93 10.9463C20.6346 11.3826 20.2303 11.5885 19.7815 11.6768C19.4073 11.7504 18.9515 11.7501 18.4808 11.75H5.51885C5.04816 11.7501 4.59228 11.7504 4.21807 11.6768C3.76929 11.5884 3.36496 11.3826 3.06963 10.9463C2.80006 10.5479 2.72225 10.1408 2.7581 9.71094C2.788 9.3528 2.91657 8.90115 3.03154 8.49609C3.87071 5.53616 6.22186 3.25003 9.1458 3.25H14.8538ZM8.99932 7C8.44703 7 7.99932 7.44772 7.99932 8C7.99932 8.55228 8.44703 9 8.99932 9H9.0081C9.56025 8.99984 10.0081 8.55219 10.0081 8C10.0081 7.44781 9.56025 7.00016 9.0081 7H8.99932ZM15.5306 6.46973C15.2377 6.17688 14.7629 6.17698 14.47 6.46973L13.47 7.46973C13.1771 7.76262 13.1771 8.23738 13.47 8.53027C13.7629 8.82302 14.2377 8.82312 14.5306 8.53027L15.5306 7.53027C15.8233 7.23742 15.8233 6.76258 15.5306 6.46973Z" fill="currentColor" fill-rule="evenodd" clip-rule="evenodd"/></svg>
