<svg xmlns="http://www.w3.org/2000/svg" fill="none" viewBox="0 0 48 48">
  <g>
    <path fill="#8fbffa" d="M45.6632 12.7462c-0.0839 -1.457 -1.2418 -2.5905 -2.7 -2.6516 -1.9099 -0.0801 -4.6421 -0.14631 -7.2505 -0.0376 -1.4684 0.0612 -2.6118 1.2513 -2.6727 2.7197 -0.0778 1.8776 -0.108 3.5169 -0.1198 4.5079 -0.0066 0.5522 -0.4531 0.9995 -1.0053 1.0041 -1.2817 0.0106 -3.667 0.0428 -6.3792 0.14 -1.5258 0.0546 -2.753 1.2665 -2.8148 2.792 -0.0739 1.8225 -0.103 3.4085 -0.1145 4.3763 -0.0065 0.5522 -0.453 0.9995 -1.0053 1.0041 -1.2817 0.0106 -3.667 0.0428 -6.3792 0.1399 -1.5258 0.0547 -2.753 1.2666 -2.8148 2.7921 -0.0738 1.8225 -0.1029 3.4085 -0.1144 4.3763 -0.0066 0.5522 -0.4531 0.9995 -1.0054 1.0041 -1.30701 0.0108 -3.76183 0.044 -6.54069 0.1458 -1.4557 0.0533 -2.65231 1.1642 -2.70953 2.6198 -0.0738 1.8772 -0.0255 3.8306 0.04112 5.3132 0.06488 1.4437 1.1937 2.5785 2.63686 2.6546C7.59733 45.7989 13.2304 46 22.8568 46c10.1445 0 16.7143 -0.2234 20.0355 -0.3772 1.4889 -0.0689 2.6666 -1.2415 2.7408 -2.7302 0.1524 -3.0544 0.3669 -8.6648 0.3669 -16.0369 0 -6.8975 -0.1878 -11.5245 -0.3368 -14.1095Z" stroke-width="1"></path>
    <path fill="currentColor" fill-opacity="0.4" d="M17.1328 2.19666c0.8843 0.09 1.5813 0.78707 1.6711 1.67136 0.4003 3.93734 0.1169 7.33648 -0.2068 9.55338 -0.1972 1.3513 -1.6807 1.9167 -2.7503 1.0677 -0.6766 -0.5371 -1.476 -1.1986 -2.3527 -1.9756 -3.80274 3.661 -6.13288 5.5568 -7.14264 6.3336 -0.37534 0.2887 -0.85021 0.4153 -1.30042 0.2686 -0.5314 -0.1733 -1.27946 -0.5175 -1.95726 -1.1896 -0.69376 -0.688 -1.04106 -1.4608 -1.21163 -1.9998 -0.13734 -0.434 -0.02119 -0.8909 0.25022 -1.2563 0.75023 -1.0101 2.62524 -3.3703 6.34292 -7.18133 -0.76916 -0.87002 -1.42454 -1.66335 -1.95726 -2.33554 -0.84766 -1.06957 -0.28231 -2.5519 1.06807 -2.74933 2.21516 -0.32386 5.612 -0.60761 9.5467 -0.20714Z" stroke-width="1"></path>
    <path stroke="currentColor" stroke-linejoin="round" d="M45.6632 12.7462c-0.0839 -1.457 -1.2418 -2.5905 -2.7 -2.6516 -1.9099 -0.0801 -4.6421 -0.14631 -7.2505 -0.0376 -1.4684 0.0612 -2.6118 1.2513 -2.6727 2.7197 -0.0778 1.8776 -0.108 3.5169 -0.1198 4.5079 -0.0066 0.5522 -0.4531 0.9995 -1.0053 1.0041 -1.2817 0.0106 -3.667 0.0428 -6.3792 0.14 -1.5258 0.0546 -2.753 1.2665 -2.8148 2.792 -0.0739 1.8225 -0.103 3.4085 -0.1145 4.3763 -0.0065 0.5522 -0.453 0.9995 -1.0053 1.0041 -1.2817 0.0106 -3.667 0.0428 -6.3792 0.1399 -1.5258 0.0547 -2.753 1.2666 -2.8148 2.7921 -0.0738 1.8225 -0.1029 3.4085 -0.1144 4.3763 -0.0066 0.5522 -0.4531 0.9995 -1.0054 1.0041 -1.30701 0.0108 -3.76183 0.044 -6.54069 0.1458 -1.4557 0.0533 -2.65231 1.1642 -2.70953 2.6198 -0.0738 1.8772 -0.0255 3.8306 0.04112 5.3132 0.06488 1.4437 1.1937 2.5785 2.63686 2.6546C7.59733 45.7989 13.2304 46 22.8568 46c10.1445 0 16.7143 -0.2234 20.0355 -0.3772 1.4889 -0.0689 2.6666 -1.2415 2.7408 -2.7302 0.1524 -3.0544 0.3669 -8.6648 0.3669 -16.0369 0 -6.8975 -0.1878 -11.5245 -0.3368 -14.1095Z" stroke-width="1"></path>
    <path stroke="currentColor" stroke-linejoin="round" d="M17.1328 2.19666c0.8843 0.09 1.5813 0.78707 1.6711 1.67136 0.4003 3.93734 0.1169 7.33648 -0.2068 9.55338 -0.1972 1.3513 -1.6807 1.9167 -2.7503 1.0677 -0.6766 -0.5371 -1.476 -1.1986 -2.3527 -1.9756 -3.80274 3.661 -6.13288 5.5568 -7.14264 6.3336 -0.37534 0.2887 -0.85021 0.4153 -1.30042 0.2686 -0.5314 -0.1733 -1.27946 -0.5175 -1.95726 -1.1896 -0.69376 -0.688 -1.04106 -1.4608 -1.21163 -1.9998 -0.13734 -0.434 -0.02119 -0.8909 0.25022 -1.2563 0.75023 -1.0101 2.62524 -3.3703 6.34292 -7.18133 -0.76916 -0.87002 -1.42454 -1.66335 -1.95726 -2.33554 -0.84766 -1.06957 -0.28231 -2.5519 1.06807 -2.74933 2.21516 -0.32386 5.612 -0.60761 9.5467 -0.20714Z" stroke-width="1"></path>
  </g>
</svg>
