<svg xmlns="http://www.w3.org/2000/svg" fill="none" viewBox="0 0 48 48">
  <g>
    <path fill="currentColor" d="M17.432 0.6929C13.1717 0.2594 9.4953 0.5665 7.0962 0.9172c-1.864 0.2726 -2.6367 2.3441 -1.4832 3.7995 0.4977 0.628 1.0943 1.3536 1.7837 2.1458 -3.7602 3.8808 -5.6873 6.3065 -6.4816 7.376 -0.3703 0.4986 -0.5568 1.1628 -0.348 1.8228 0.1999 0.6318 0.6081 1.5423 1.4283 2.3557 0.7994 0.7928 1.6796 1.197 2.3028 1.4002 0.6846 0.2232 1.3731 0.0195 1.8815 -0.3716 1.065 -0.8193 3.457 -2.7651 7.3248 -6.4678 0.8001 0.6981 1.5329 1.3018 2.1666 1.8047 1.4554 1.1553 3.5285 0.3824 3.8008 -1.4827 0.3504 -2.4011 0.6572 -6.0798 0.2239 -10.3427C19.574 1.7595 18.6296 0.8148 17.432 0.6929Z" stroke-width="3.429"></path>
    <path fill="currentColor" fill-opacity="0.4" d="M43.9247 9.7806c-1.9595 -0.0821 -4.7694 -0.1504 -7.4572 -0.0384 -1.7783 0.0741 -3.1499 1.5148 -3.2227 3.2709 -0.0798 1.9265 -0.1109 3.6081 -0.1229 4.6249 -0.0034 0.2879 -0.2361 0.5192 -0.521 0.5216 -1.3136 0.0109 -3.7578 0.0438 -6.5375 0.1434 -1.8251 0.0654 -3.297 1.5162 -3.371 3.3455 -0.0758 1.8698 -0.1057 3.4968 -0.1174 4.4898 -0.0035 0.2879 -0.2362 0.5192 -0.521 0.5216 -1.3137 0.0109 -3.7578 0.0439 -6.5376 0.1435 -1.8251 0.0653 -3.2969 1.5161 -3.371 3.3453 -0.0758 1.87 -0.1056 3.4969 -0.1174 4.4899 -0.0034 0.288 -0.2362 0.5193 -0.521 0.5216 -1.3396 0.0112 -3.855 0.0452 -6.7031 0.1494 -1.7355 0.0635 -3.1932 1.3946 -3.263 3.1699 -0.0763 1.9398 -0.0263 3.9532 0.0422 5.4764 0.0782 1.7399 1.4425 3.1107 3.1803 3.2023 2.9584 0.1559 8.728 0.3618 18.5788 0.3618 10.3814 0 17.1076 -0.2286 20.5121 -0.3863 1.7855 -0.0827 3.2008 -1.4916 3.2899 -3.2772 0.1561 -3.1305 0.3758 -8.8765 0.3758 -16.425 0 -7.0626 -0.1924 -11.8041 -0.3453 -14.4578 -0.101 -1.7538 -1.498 -3.1196 -3.25 -3.1931Z" stroke-width="3.429"></path>
  </g>
</svg>
