<svg xmlns="http://www.w3.org/2000/svg" fill="none" viewBox="0 0 48 48">
  <g>
    <path fill="currentColor" fill-rule="evenodd" d="M8.03642 1.39636c2.18558 -0.31954 5.53448 -0.599313 9.41548 -0.20432 1.0969 0.11163 1.9619 0.97687 2.0735 2.07372 0.3947 3.8834 0.1153 7.23454 -0.204 9.42184 -0.2495 1.7089 -2.1495 2.417 -3.4827 1.3587 -0.5747 -0.4562 -1.239 -1.0033 -1.9643 -1.6358 -3.5173 3.3666 -5.69305 5.1366 -6.66257 5.8824 -0.46567 0.3582 -1.09711 0.5454 -1.72562 0.3405 -0.56889 -0.1855 -1.3724 -0.5545 -2.10225 -1.2783 -0.74892 -0.7427 -1.12151 -1.574 -1.304 -2.1507l0.4767 -0.1508 -0.4767 0.1508c-0.19172 -0.6059 -0.02032 -1.2152 0.31887 -1.6718l0.4014 0.2981 -0.4014 -0.2981c0.72315 -0.9737 2.47612 -3.1803 5.8951 -6.7095 -0.62452 -0.71799 -1.16526 -1.37572 -1.61668 -1.94531 -1.05658 -1.33319 -0.34873 -3.23173 1.35917 -3.48143ZM42.185 8.72946c-1.848 -0.07749 -4.5184 -0.14299 -7.088 -0.03591 -2.4841 0.10352 -4.3668 2.11425 -4.4662 4.51155 -0.053 1.2792 -0.0832 2.4433 -0.1004 3.3552 -1.2966 0.0169 -3.1223 0.0518 -5.1361 0.1239 -2.4925 0.0893 -4.512 2.0735 -4.6137 4.5829 -0.0497 1.229 -0.0785 2.3462 -0.0951 3.2277 -1.2967 0.0169 -3.1224 0.0518 -5.1362 0.124 -2.4924 0.0893 -4.512 2.0734 -4.6136 4.5829 -0.0498 1.2289 -0.0786 2.3462 -0.0952 3.2277 -1.32992 0.0173 -3.21652 0.0536 -5.29191 0.1296 -2.35518 0.0862 -4.4129 1.9089 -4.51166 4.4208 -0.073536 1.8705 -0.02512 3.797 0.03973 5.24 0.10825 2.4089 2.00713 4.3147 4.40968 4.4414 2.79393 0.1473 8.20706 0.3399 17.42236 0.3399 9.7127 0 16.0148 -0.2139 19.2174 -0.3622 2.4495 -0.1135 4.399 -2.0536 4.5212 -4.5044 0.1468 -2.9433 0.3527 -8.3324 0.3527 -15.4075 0 -6.6202 -0.1803 -11.0754 -0.3248 -13.5832 -0.1396 -2.4228 -2.0776 -4.31319 -4.4902 -4.41434Zm-6.9214 3.96064c2.4102 -0.1005 4.9556 -0.0395 6.7539 0.0358 0.3712 0.0156 0.6437 0.2893 0.6644 0.648 0.1398 2.427 0.3181 6.8053 0.3181 13.3531 0 6.9987 -0.2037 12.3206 -0.3477 15.2083 -0.0195 0.3912 -0.3183 0.6897 -0.7113 0.7079 -3.1379 0.1453 -9.3782 0.3579 -19.0323 0.3579 -9.1622 0 -14.50317 -0.1915 -17.21175 -0.3343 -0.35259 -0.0186 -0.60872 -0.2792 -0.62432 -0.6265 -0.06235 -1.3873 -0.10614 -3.19 -0.03879 -4.9034 0.0105 -0.2668 0.2372 -0.5651 0.66108 -0.5806 2.62753 -0.0962 4.95068 -0.1276 6.18688 -0.1379 1.6221 -0.0135 2.9238 -1.3248 2.9429 -2.9347 0.0108 -0.9107 0.0382 -2.4047 0.1077 -4.1201 0.0163 -0.4029 0.3397 -0.7323 0.7601 -0.7474 2.5647 -0.0919 4.8221 -0.1223 6.0342 -0.1324 1.6221 -0.0134 2.9238 -1.3248 2.9429 -2.9346 0.0108 -0.9108 0.0383 -2.4048 0.1078 -4.1202 0.0163 -0.4028 0.3397 -0.7323 0.7601 -0.7473 2.5647 -0.0919 4.8221 -0.1223 6.0342 -0.1324 1.6221 -0.0135 2.9238 -1.3248 2.9429 -2.9347 0.0111 -0.9326 0.0396 -2.4768 0.1128 -4.2439 0.0168 -0.406 0.3171 -0.6673 0.6362 -0.6806Z" clip-rule="evenodd" stroke-width="3.429"></path>
  </g>
</svg>
