<svg xmlns="http://www.w3.org/2000/svg" fill="none" viewBox="0 0 48 48">
  <g>
    <path fill="currentColor" fill-rule="evenodd" d="M7.0962 0.9172C9.4953 0.5665 13.1717 0.2594 17.432 0.6929c1.1976 0.1219 2.142 1.0666 2.2638 2.2642 0.4333 4.2629 0.1265 7.9416 -0.2239 10.3427 -0.2723 1.8651 -2.3454 2.6381 -3.8008 1.4827 -0.6337 -0.5029 -1.3665 -1.1065 -2.1666 -1.8047 -3.8678 3.7027 -6.2598 5.6485 -7.3248 6.4678 -0.5084 0.3911 -1.1969 0.5948 -1.8815 0.3716 -0.6232 -0.2032 -1.5034 -0.6074 -2.3028 -1.4002 -0.8202 -0.8134 -1.2284 -1.7239 -1.4283 -2.3557 -0.2088 -0.66 -0.0223 -1.3242 0.348 -1.8228 0.7943 -1.0695 2.7214 -3.4952 6.4816 -7.376 -0.6894 -0.7922 -1.286 -1.5178 -1.7837 -2.1458C4.4595 3.2613 5.2322 1.1898 7.0962 0.9172Zm29.3713 8.825c2.6878 -0.112 5.4977 -0.0437 7.4572 0.0384 1.7521 0.0735 3.149 1.4393 3.2501 3.1931 0.1528 2.6537 0.3452 7.3952 0.3452 14.4579 0 7.5485 -0.2197 13.2944 -0.3758 16.4249 -0.0891 1.7856 -1.5044 3.1945 -3.2898 3.2773 -3.4046 0.1577 -10.1308 0.3862 -20.5121 0.3862 -9.8508 0 -15.6205 -0.2058 -18.5789 -0.3618 -1.7378 -0.0916 -3.1021 -1.4624 -3.1803 -3.2023 -0.0685 -1.5232 -0.1184 -3.5366 -0.0422 -5.4764 0.0698 -1.7753 1.5275 -3.1063 3.263 -3.1698 2.8481 -0.1044 5.3636 -0.1383 6.7031 -0.1494 0.2848 -0.0024 0.5176 -0.2337 0.521 -0.5217 0.0118 -0.9929 0.0416 -2.6199 0.1174 -4.4898 0.0742 -1.8293 1.5459 -3.2801 3.371 -3.3454 2.7798 -0.0996 5.2239 -0.1325 6.5376 -0.1435 0.2848 -0.0023 0.5175 -0.2336 0.521 -0.5216 0.0118 -0.993 0.0416 -2.6199 0.1174 -4.4898 0.074 -1.8293 1.5459 -3.2801 3.371 -3.3454 2.7797 -0.0996 5.2239 -0.1326 6.5375 -0.1435 0.2849 -0.0023 0.5176 -0.2337 0.521 -0.5215 0.0121 -1.0169 0.0431 -2.6985 0.1229 -4.625 0.0728 -1.7561 1.4444 -3.1968 3.2228 -3.2709Z" clip-rule="evenodd" stroke-width="3.429"></path>
  </g>
</svg>
