<svg xmlns="http://www.w3.org/2000/svg" fill="none" viewBox="0 0 48 48">
  <g>
    <path fill="currentColor" fill-opacity="0.4" d="M30.7979 4.26147c5.9023 0.00026 10.6874 4.78511 10.6875 10.68753 0 4.1631 -2.3806 7.7707 -5.8545 9.5351 4.9498 1.6754 8.7054 5.8543 9.6836 10.9883 0.3177 1.6691 -0.6594 3.0342 -2.3448 3.25 -1.4064 0.1801 -3.5569 0.3513 -6.831 0.4443 -0.0023 -0.0123 -0.0035 -0.0248 -0.0059 -0.0371 -0.8366 -4.3912 -3.2023 -8.2191 -6.5039 -10.9629 1.6547 -2.356 2.6618 -5.2057 2.7481 -8.2861l0.0058 -0.4316c0 -5.6808 -3.1193 -10.63245 -7.7383 -13.23733 1.74 -1.22751 3.8621 -1.9502 6.1534 -1.9502" stroke-width="3.429"></path>
    <path stroke="currentColor" stroke-linecap="round" stroke-linejoin="round" d="M26.1533 5.32049c1.4044 -0.67861 2.9798 -1.05902 4.6441 -1.05902 5.9026 0 10.6876 4.78499 10.6876 10.68753 0 4.1632 -2.3803 7.7703 -5.8543 9.5348 4.95 1.6754 8.7054 5.8541 9.6835 10.9883 0.318 1.6692 -0.6589 3.034 -2.3444 3.2499 -1.2472 0.1597 -3.0794 0.3155 -5.7616 0.4136" stroke-width="3.429"></path>
    <path fill="#8fbffa" d="M22.0284 28.9834c3.4739 -1.7645 5.8542 -5.3717 5.8542 -9.5348 0 -5.9026 -4.7849 -10.68758 -10.6875 -10.68758S6.50751 13.546 6.50751 19.4486c0 4.1643 2.38167 7.7723 5.85719 9.5363 -4.94778 1.6763 -8.70118 5.8541 -9.67902 10.9867 -0.31801 1.6692 0.65893 3.0341 2.34441 3.2499 2.06075 0.264 5.71851 0.517 12.16871 0.517s10.1079 -0.253 12.1687 -0.517c1.6855 -0.2158 2.6624 -1.5807 2.3444 -3.2499 -0.9782 -5.1341 -4.7335 -9.3129 -9.6835 -10.9882" stroke-width="3.429"></path>
    <path stroke="currentColor" stroke-linecap="round" stroke-linejoin="round" d="M22.0284 28.9834c3.4739 -1.7645 5.8542 -5.3717 5.8542 -9.5348 0 -5.9026 -4.7849 -10.68758 -10.6875 -10.68758S6.50751 13.546 6.50751 19.4486c0 4.1643 2.38167 7.7723 5.85719 9.5363 -4.94777 1.6763 -8.70118 5.8541 -9.67902 10.9867 -0.31801 1.6692 0.65893 3.0341 2.34441 3.2499 2.06075 0.264 5.71851 0.517 12.16871 0.517s10.1079 -0.253 12.1687 -0.517c1.6855 -0.2158 2.6624 -1.5807 2.3444 -3.2499 -0.9782 -5.1341 -4.7335 -9.3129 -9.6835 -10.9882" stroke-width="3.429"></path>
  </g>
</svg>
