<svg xmlns="http://www.w3.org/2000/svg" fill="none" viewBox="0 0 48 48">
  <g>
    <path fill="currentColor" fill-rule="evenodd" d="M30.7979 2.76147c6.7308 0.00016 12.1874 5.45662 12.1875 12.18753 0 3.7076 -1.6565 7.0265 -4.2657 9.2607 4.1338 2.2631 7.166 6.2453 8.0684 10.9815 0.2275 1.1943 0.0042 2.3809 -0.6768 3.3271 -0.6819 0.9476 -1.7388 1.5362 -2.9511 1.6914 -1.4544 0.1862 -3.6308 0.3594 -6.8916 0.4541 0.0052 -0.5146 -0.0396 -1.029 -0.1358 -1.5342 -0.8366 -4.3912 -3.2023 -8.2191 -6.5039 -10.9629 1.6547 -2.3561 2.6618 -5.2057 2.7481 -8.2861l0.0058 -0.4316c0 -6.2779 -3.8092 -11.6659 -9.2422 -13.97952 2.0928 -1.69259 4.756 -2.70799 7.6573 -2.70801" clip-rule="evenodd" stroke-width="3.429"></path>
    <path fill="currentColor" fill-opacity="0.4" fill-rule="evenodd" d="M17.1954 7.26074c6.7307 0.00013 12.1873 5.45676 12.1875 12.18746 0 3.7077 -1.6565 7.0266 -4.2657 9.2608 4.1338 2.263 7.166 6.2454 8.0684 10.9814 0.2275 1.1943 0.0041 2.381 -0.6768 3.3272 -0.682 0.9476 -1.7388 1.5361 -2.9511 1.6914 -2.1504 0.2753 -5.8789 0.5293 -12.3584 0.5293 -6.4799 0 -10.20902 -0.2539 -12.35941 -0.5293 -1.21232 -0.1553 -2.2692 -0.7439 -2.95117 -1.6914 -0.68081 -0.9462 -0.904275 -2.133 -0.67676 -3.3272 0.90202 -4.7339 3.93149 -8.7159 8.0625 -10.9795 -2.61015 -2.2342 -4.2666 -5.5542 -4.2666 -9.2627 0.00018 -6.7308 5.45664 -12.18743 12.18754 -12.18746" clip-rule="evenodd" stroke-width="3.429"></path>
  </g>
</svg>
