<svg xmlns="http://www.w3.org/2000/svg" fill="none" viewBox="0 0 48 48">
  <g>
    <path stroke="currentColor" stroke-linecap="round" stroke-linejoin="round" d="M26.1533 5.32049c1.4044 -0.67861 2.9798 -1.05902 4.6441 -1.05902 5.9026 0 10.6876 4.78499 10.6876 10.68753 0 4.1632 -2.3803 7.7703 -5.8543 9.5348 4.95 1.6754 8.7054 5.8541 9.6835 10.9883 0.318 1.6692 -0.6589 3.034 -2.3444 3.2499 -1.2472 0.1597 -3.0794 0.3155 -5.7616 0.4136" stroke-width="3.429"></path>
    <path stroke="currentColor" stroke-linecap="round" stroke-linejoin="round" d="M22.0284 28.9834c3.4739 -1.7645 5.8542 -5.3717 5.8542 -9.5348 0 -5.9026 -4.7849 -10.68758 -10.6875 -10.68758S6.50751 13.546 6.50751 19.4486c0 4.1643 2.38167 7.7723 5.85719 9.5363 -4.94777 1.6763 -8.70118 5.8541 -9.67902 10.9867 -0.31801 1.6692 0.65893 3.0341 2.34441 3.2499 2.06075 0.264 5.71851 0.517 12.16871 0.517s10.1079 -0.253 12.1687 -0.517c1.6855 -0.2158 2.6624 -1.5807 2.3444 -3.2499 -0.9782 -5.1341 -4.7335 -9.3129 -9.6835 -10.9882" stroke-width="3.429"></path>
  </g>
</svg>
