<svg xmlns="http://www.w3.org/2000/svg" fill="none" viewBox="0 0 48 48">
  <g>
    <path fill="currentColor" d="M30.7979 2.76172c6.7307 0.00024 12.1874 5.45667 12.1875 12.18748 -0.0001 3.7076 -1.6565 7.0266 -4.2657 9.2608 4.1337 2.263 7.166 6.2454 8.0684 10.9814 0.2274 1.1942 0.0041 2.381 -0.6768 3.3272 -0.6819 0.9474 -1.7389 1.5361 -2.9511 1.6914 -1.8571 0.2378 -4.8913 0.457 -9.8575 0.5127 -0.0884 0.7546 -0.3539 1.4771 -0.8076 2.1074 -0.7585 1.0535 -1.9262 1.6944 -3.2363 1.8623 -2.1189 0.2713 -5.7626 0.5185 -12.0596 0.5185 -6.2975 0 -9.9417 -0.2472 -12.06053 -0.5185 -1.30995 -0.1679 -2.4769 -0.8089 -3.23535 -1.8623 -0.75715 -1.052 -0.994482 -2.3593 -0.74902 -3.6485 0.85831 -4.505 3.63107 -8.3273 7.44043 -10.6494 -2.32174 -2.2472 -3.76837 -5.3977 -3.76856 -8.8877 0 -6.8311 5.53813 -12.36884 12.36913 -12.36911 1.2899 0.00003 2.534 0.19712 3.7031 0.56348 2.2124 -3.07494 5.8221 -5.07706 9.8995 -5.07715M17.1953 11.2754c-4.6219 0.0003 -8.36913 3.7472 -8.36913 8.3691 0.00026 3.2577 1.86163 6.0851 4.58793 7.4688 0.7175 0.3643 1.1471 1.1231 1.0898 1.9258 -0.0577 0.8025 -0.5914 1.4936 -1.3535 1.7519 -4.14296 1.404 -7.25862 4.8945 -8.06739 9.1397 -0.06252 0.3294 0.01911 0.4954 0.06738 0.5625 0.0474 0.0655 0.17351 0.1909 0.49707 0.2324 1.88 0.2407 5.33464 0.4853 11.55174 0.4853 6.2173 0 9.6718 -0.2446 11.5518 -0.4853 0.3237 -0.0415 0.4497 -0.1669 0.497 -0.2324 0.0483 -0.0671 0.1299 -0.2332 0.0674 -0.5625 -0.809 -4.2465 -3.9265 -7.7375 -8.0713 -9.1407 -0.762 -0.2579 -1.2963 -0.9485 -1.3545 -1.7509 -0.0577 -0.8028 0.3725 -1.5622 1.0899 -1.9268 2.7249 -1.3842 4.5847 -4.211 4.585 -7.4678 0 -4.622 -3.7472 -8.369 -8.3692 -8.3691" stroke-width="1"></path>
  </g>
</svg>
