<svg xmlns="http://www.w3.org/2000/svg" fill="none" viewBox="0 0 48 48">
  <g>
    <path fill="currentColor" d="M17.1953 7.26074c6.7308 0.00013 12.1873 5.45676 12.1875 12.18746 0 3.7077 -1.6565 7.0266 -4.2656 9.2608 4.1338 2.263 7.1659 6.2454 8.0683 10.9814 0.2276 1.1943 0.0041 2.381 -0.6767 3.3272 -0.682 0.9475 -1.7388 1.5361 -2.9512 1.6914 -2.1504 0.2753 -5.879 0.5293 -12.3584 0.5293 -6.4798 0 -10.20897 -0.2539 -12.35936 -0.5293 -1.21228 -0.1553 -2.26921 -0.7439 -2.95117 -1.6914 -0.68078 -0.9462 -0.904261 -2.133 -0.67676 -3.3272 0.90202 -4.7339 3.93153 -8.7159 8.0625 -10.9795 -2.61012 -2.2342 -4.2666 -5.5542 -4.2666 -9.2627C5.008 12.7174 10.4645 7.26081 17.1953 7.26074m13.6026 -4.49902c6.7307 0.00027 12.1874 5.45669 12.1875 12.18748 -0.0001 3.7076 -1.6566 7.0266 -4.2657 9.2608 4.1337 2.263 7.166 6.2454 8.0684 10.9814 0.2274 1.1942 0.0041 2.381 -0.6768 3.3272 -0.6819 0.9474 -1.7389 1.5361 -2.9511 1.6914 -1.4544 0.1862 -3.6309 0.3594 -6.8916 0.4541 0.0052 -0.5145 -0.0396 -1.0292 -0.1358 -1.5342 -0.8366 -4.391 -3.2025 -8.2192 -6.5039 -10.9629 1.6546 -2.356 2.6618 -5.2059 2.7481 -8.2861l0.0058 -0.4317c0 -6.2775 -3.8097 -11.66466 -9.2422 -13.9785 2.0929 -1.69282 4.7558 -2.70897 7.6573 -2.70898" stroke-width="1"></path>
  </g>
</svg>
