<svg xmlns="http://www.w3.org/2000/svg" viewBox="0 0 24 24" fill="none"><path d="M12.002 1.25024C15.7299 1.25024 18.752 4.27232 18.752 8.00024C18.752 9.3901 18.3315 10.6815 17.6114 11.7551C18.3323 12.881 18.752 14.2337 18.752 15.6848C18.752 16.5452 18.6026 17.3708 18.3321 18.136C17.0473 17.6209 15.557 16.6445 14.1846 15.4368C13.401 14.7471 12.6757 13.9999 12.0616 13.2483C14.9336 13.2164 17.252 10.8799 17.252 8.00024C17.252 5.10075 14.9015 2.75024 12.002 2.75024C11.4016 2.75024 10.9512 3.21816 10.9512 3.75024C10.9512 4.2827 11.4012 4.75015 12.001 4.75024C12.2766 4.75024 12.5237 4.6498 12.709 4.48853C13.0215 4.21685 13.4948 4.25035 13.7667 4.56274C14.0385 4.87522 14.0059 5.34848 13.6934 5.62036C13.2419 6.01328 12.6474 6.25024 12.001 6.25024C10.6128 6.25015 9.45123 5.15067 9.45123 3.75024C9.45123 3.62919 9.46279 3.51081 9.47955 3.39478C7.85394 4.28703 6.75201 6.01497 6.75201 8.00024C6.75201 10.1463 8.03999 11.9908 9.88483 12.8049C10.7209 14.1143 11.9071 15.4309 13.1944 16.5637C14.611 17.8103 16.2086 18.8856 17.6846 19.4944C16.4906 21.4412 14.4031 22.7502 12.002 22.7502C8.23842 22.7502 5.2522 19.5503 5.25201 15.6848C5.25201 14.2339 5.67094 12.8809 6.39166 11.7551C5.67176 10.6816 5.25201 9.3899 5.25201 8.00024C5.25201 4.27232 8.27409 1.25024 12.002 1.25024Z" fill="currentColor"/><path d="M9.60162 7.64966C10.071 7.64966 10.4521 8.02995 10.4522 8.49927C10.4522 8.96871 10.0711 9.34985 9.60162 9.34985C9.13236 9.34964 8.75201 8.96858 8.75201 8.49927C8.75216 8.03009 9.13245 7.64987 9.60162 7.64966ZM14.4883 7.65259C14.9168 7.69617 15.2508 8.05842 15.251 8.49829C15.251 8.96767 14.8708 9.34877 14.4014 9.34888C13.932 9.34888 13.5508 8.96773 13.5508 8.49829C13.5511 8.02903 13.9321 7.64868 14.4014 7.64868L14.4883 7.65259Z" fill="currentColor"/></svg>
