<svg xmlns="http://www.w3.org/2000/svg" viewBox="0 0 24 24" fill="none"><path opacity="0.4" d="M19.875 4C20.4273 4 20.875 4.44772 20.875 5C20.875 5.55229 20.4273 6 19.875 6L7.875 6C7.32272 6 6.875 5.55228 6.875 5C6.875 4.44772 7.32272 4 7.875 4L19.875 4Z" fill="currentColor"/><path opacity="0.4" d="M19.875 11C20.4273 11 20.875 11.4477 20.875 12C20.875 12.5523 20.4273 13 19.875 13L12.875 13C12.3227 13 11.875 12.5523 11.875 12C11.875 11.4477 12.3227 11 12.875 11L19.875 11Z" fill="currentColor"/><path opacity="0.4" d="M19.875 18C20.4273 18 20.875 18.4477 20.875 19C20.875 19.5523 20.4273 20 19.875 20L12.875 20C12.3227 20 11.875 19.5523 11.875 19C11.875 18.4477 12.3227 18 12.875 18L19.875 18Z" fill="currentColor"/><path d="M4.125 4C4.67728 4 5.125 4.44772 5.125 5C5.125 5.55229 4.67728 6 4.125 6C3.57272 6 3.125 5.55228 3.125 5C3.125 4.44772 3.57271 4 4.125 4Z" fill="currentColor"/><path d="M8.125 11C8.67728 11 9.125 11.4477 9.125 12C9.125 12.5523 8.67728 13 8.125 13C7.57272 13 7.125 12.5523 7.125 12C7.125 11.4477 7.57271 11 8.125 11Z" fill="currentColor"/><path d="M8.125 18C8.67728 18 9.125 18.4477 9.125 19C9.125 19.5523 8.67728 20 8.125 20C7.57272 20 7.125 19.5523 7.125 19C7.125 18.4477 7.57271 18 8.125 18Z" fill="currentColor"/></svg>
