<svg xmlns="http://www.w3.org/2000/svg" viewBox="0 0 24 24" fill="none"><path d="M20 4C20.5523 4 21 4.44772 21 5C21 5.55229 20.5523 6 20 6L8 6C7.44772 6 7 5.55228 7 5C7 4.44772 7.44772 4 8 4L20 4Z" fill="currentColor"/><path d="M20 11C20.5523 11 21 11.4477 21 12C21 12.5523 20.5523 13 20 13L13 13C12.4477 13 12 12.5523 12 12C12 11.4477 12.4477 11 13 11L20 11Z" fill="currentColor"/><path d="M20 18C20.5523 18 21 18.4477 21 19C21 19.5523 20.5523 20 20 20L13 20C12.4477 20 12 19.5523 12 19C12 18.4477 12.4477 18 13 18L20 18Z" fill="currentColor"/><path d="M4.25 4C4.80228 4 5.25 4.44772 5.25 5C5.25 5.55229 4.80228 6 4.25 6C3.69772 6 3.25 5.55228 3.25 5C3.25 4.44772 3.69771 4 4.25 4Z" fill="currentColor"/><path d="M8.25 11C8.80228 11 9.25 11.4477 9.25 12C9.25 12.5523 8.80228 13 8.25 13C7.69772 13 7.25 12.5523 7.25 12C7.25 11.4477 7.69771 11 8.25 11Z" fill="currentColor"/><path d="M8.25 18C8.80228 18 9.25 18.4477 9.25 19C9.25 19.5523 8.80228 20 8.25 20C7.69772 20 7.25 19.5523 7.25 19C7.25 18.4477 7.69771 18 8.25 18Z" fill="currentColor"/></svg>
