<svg xmlns="http://www.w3.org/2000/svg" viewBox="0 0 24 24" fill="none"><path d="M16.7452 21.249V19.2441H14.7501C14.1978 19.2441 13.7501 18.7964 13.7501 18.2441C13.7501 17.6919 14.1978 17.2441 14.7501 17.2441H16.7452V15.249C16.7452 14.6967 17.1929 14.249 17.7452 14.249C18.2974 14.2491 18.7452 14.6968 18.7452 15.249V17.2441H20.7501C21.3023 17.2441 21.7501 17.6919 21.7501 18.2441C21.75 18.7964 21.3023 19.2441 20.7501 19.2441H18.7452V21.249C18.7452 21.8013 18.2974 22.249 17.7452 22.249C17.1929 22.249 16.7452 21.8013 16.7452 21.249Z" fill="currentColor"/><path opacity="0.4" d="M14.2118 2.46094C13.4812 2.02075 12.7871 1.75098 11.9999 1.75098C11.2127 1.75102 10.5186 2.02074 9.78799 2.46094C9.25296 2.78333 8.66064 3.22112 7.96866 3.75391L7.24209 4.31738L5.24209 5.87305C3.97329 6.85989 3.13262 7.49123 2.68252 8.41113C2.23254 9.33125 2.2499 10.3827 2.24991 11.9902V14.501L2.25186 15.6611C2.25781 16.7606 2.28236 17.6804 2.38467 18.4414C2.52399 19.4776 2.81996 20.3307 3.49502 21.0059L3.62295 21.1279C4.27684 21.7174 5.08785 21.9856 6.05948 22.1162C6.85711 22.2234 7.82938 22.2446 8.99991 22.249H13.7323V20.249H8.99991V16C8.99991 14.5861 9.00014 13.8788 9.43936 13.4395C9.87869 13.0003 10.586 13 11.9999 13L17.745 12.999C18.9874 12.9992 19.995 14.0063 19.995 15.249V15.9941H21.744C21.7484 15.5475 21.7499 15.0695 21.7499 14.5586V11.9902C21.7499 10.4832 21.7652 9.46544 21.3964 8.58594L21.3173 8.41113C20.9797 7.72121 20.4226 7.19361 19.6298 6.55664L18.7577 5.87305L16.7577 4.31738L16.7265 4.29297C15.7233 3.51275 14.9178 2.88632 14.2118 2.46094Z" fill="currentColor"/></svg>
