<svg xmlns="http://www.w3.org/2000/svg" viewBox="0 0 24 24" fill="none"><path d="M16.7448 21.249V19.2441H14.7497C14.1974 19.2441 13.7498 18.7964 13.7497 18.2441C13.7497 17.6919 14.1974 17.2441 14.7497 17.2441H16.7448V15.249C16.7448 14.6967 17.1925 14.249 17.7448 14.249C18.297 14.2491 18.7448 14.6968 18.7448 15.249V17.2441H20.7497C21.302 17.2441 21.7497 17.6919 21.7497 18.2441C21.7496 18.7964 21.3019 19.2441 20.7497 19.2441H18.7448V21.249C18.7448 21.8013 18.297 22.249 17.7448 22.249C17.1925 22.249 16.7448 21.8013 16.7448 21.249Z" fill="currentColor"/><path d="M14.2115 2.46094C13.4809 2.02075 12.7867 1.75098 11.9995 1.75098C11.2124 1.75102 10.5182 2.02074 9.78763 2.46094C9.2526 2.78333 8.66027 3.22112 7.96829 3.75391L7.24173 4.31738L5.24173 5.87305C3.97292 6.85989 3.13226 7.49123 2.68216 8.41113C2.23217 9.33125 2.24954 10.3827 2.24954 11.9902V14.501L2.25149 15.6611C2.25744 16.7606 2.28199 17.6804 2.38431 18.4414C2.52362 19.4776 2.81959 20.3307 3.49466 21.0059L3.62259 21.1279C4.27647 21.7174 5.08748 21.9856 6.05911 22.1162C6.85674 22.2234 7.82902 22.2446 8.99954 22.249H13.732V20.249H8.99954V16C8.99954 14.5861 8.99977 13.8788 9.43899 13.4395C9.87832 13.0003 10.5856 13 11.9995 13L17.7447 12.999C18.987 12.9992 19.9947 14.0063 19.9947 15.249V15.9941H21.7437C21.7481 15.5475 21.7495 15.0695 21.7495 14.5586V11.9902C21.7495 10.4832 21.7648 9.46544 21.396 8.58594L21.3169 8.41113C20.9793 7.72121 20.4222 7.19361 19.6294 6.55664L18.7574 5.87305L16.7574 4.31738L16.7261 4.29297C15.723 3.51275 14.9174 2.88632 14.2115 2.46094Z" fill="currentColor"/></svg>
