<svg xmlns="http://www.w3.org/2000/svg" viewBox="0 0 24 24" fill="none"><path opacity="0.4" d="M21.7495 18.0528V18V17.9472C21.7495 17.2835 21.7496 16.7397 21.7134 16.2969C21.6755 15.8336 21.5941 15.4152 21.395 15.0244C21.0835 14.413 20.5865 13.9161 19.9751 13.6045C19.5844 13.4054 19.1659 13.324 18.7026 13.2861C18.2598 13.25 17.716 13.25 17.0523 13.25L16.9995 13.25H6.99951L6.94671 13.25C6.28304 13.25 5.73921 13.25 5.29639 13.2861C4.83314 13.324 4.41466 13.4054 4.02393 13.6045C3.41256 13.9161 2.91557 14.413 2.60401 15.0244C2.40492 15.4152 2.3235 15.8336 2.28565 16.2969C2.24947 16.7397 2.24949 17.2835 2.24951 17.9472L2.24951 18L2.24951 18.0528C2.24949 18.7165 2.24947 19.2603 2.28565 19.7031C2.3235 20.1664 2.40492 20.5849 2.60401 20.9756C2.91557 21.587 3.41256 22.084 4.02393 22.3955C4.41466 22.5946 4.83314 22.676 5.29639 22.7139C5.7392 22.75 6.28303 22.75 6.94668 22.75L6.99951 22.75H16.9995L17.0523 22.75C17.716 22.75 18.2598 22.75 18.7026 22.7139C19.1659 22.676 19.5844 22.5946 19.9751 22.3955C20.5865 22.084 21.0835 21.587 21.395 20.9756C21.5941 20.5849 21.6755 20.1664 21.7134 19.7031C21.7496 19.2603 21.7495 18.7165 21.7495 18.0528Z" fill="currentColor"/><path d="M7.99951 18C7.99951 18.5523 7.5518 19 6.99951 19C6.44723 19 5.99951 18.5523 5.99951 18C5.99951 17.4477 6.44723 17 6.99951 17C7.5518 17 7.99951 17.4477 7.99951 18Z" fill="currentColor"/><path d="M11.9995 18C11.9995 18.5523 11.5518 19 10.9995 19C10.4472 19 9.99951 18.5523 9.99951 18C9.99951 17.4477 10.4472 17 10.9995 17C11.5518 17 11.9995 17.4477 11.9995 18Z" fill="currentColor"/><path d="M10.9996 10.25V4.2002C10.7894 4.41981 10.5727 4.65914 10.359 4.90527C9.94001 5.38779 9.55034 5.87362 9.26423 6.24023C9.12175 6.42281 9.00621 6.57493 8.92634 6.68066C8.88641 6.73353 8.85518 6.77504 8.83454 6.80273C8.82431 6.81646 8.81711 6.8272 8.81208 6.83398C8.80971 6.83719 8.80738 6.83925 8.80622 6.84082L8.80525 6.84277L8.73982 6.92188C8.39956 7.29764 7.82375 7.36177 7.40681 7.05469C6.96231 6.72726 6.86677 6.10187 7.19392 5.65723H7.19489V5.65527C7.19538 5.65461 7.197 5.65443 7.19782 5.65332C7.1995 5.65105 7.20162 5.64766 7.20466 5.64355C7.21083 5.63523 7.21951 5.62287 7.23103 5.60742C7.25406 5.57652 7.28796 5.53209 7.33064 5.47559C7.41595 5.36263 7.53807 5.20195 7.68806 5.00977C7.98721 4.62645 8.39998 4.11211 8.84919 3.59473C9.29417 3.08223 9.79505 2.54398 10.2681 2.12598C10.5034 1.91808 10.755 1.71819 11.0084 1.56543C11.2344 1.42919 11.5893 1.25001 11.9996 1.25C12.4098 1.25 12.7648 1.42918 12.9908 1.56543C13.2441 1.71819 13.4957 1.91807 13.731 2.12598C14.2041 2.54398 14.705 3.08223 15.15 3.59473C15.5992 4.11212 16.012 4.62644 16.3111 5.00977C16.4611 5.20194 16.5832 5.36263 16.6685 5.47559C16.7112 5.53207 16.7451 5.57652 16.7681 5.60742C16.7797 5.62287 16.7883 5.63523 16.7945 5.64355C16.7976 5.64768 16.8006 5.65104 16.8023 5.65332C16.803 5.65422 16.8039 5.65471 16.8043 5.65527V5.65723H16.8052C17.1324 6.1019 17.0369 6.72825 16.5924 7.05566C16.1477 7.38284 15.5213 7.28735 15.1939 6.84277L15.1929 6.84082C15.1918 6.83925 15.1894 6.83718 15.1871 6.83398C15.1821 6.8272 15.1748 6.81646 15.1646 6.80273C15.144 6.77504 15.1128 6.73354 15.0728 6.68066C14.993 6.57492 14.8774 6.42281 14.7349 6.24023C14.4488 5.87362 14.0591 5.3878 13.6402 4.90527C13.4265 4.65913 13.2098 4.41982 12.9996 4.2002V10.25C12.9996 10.8023 12.5519 11.25 11.9996 11.25C11.4473 11.25 10.9996 10.8023 10.9996 10.25Z" fill="currentColor"/></svg>
