<svg xmlns="http://www.w3.org/2000/svg" viewBox="0 0 24 24" fill="none"><path opacity="0.4" d="M20.7296 21.2721C20.7525 21.1239 20.7501 20.9144 20.7501 20.6979V3.66668C20.7501 3.39328 20.7499 3.16379 20.7423 2.98406C20.7351 2.81706 20.7197 2.61196 20.6534 2.42156C20.3301 1.49294 19.3134 1.03096 18.4141 1.35027L18.2364 1.42449C18.0556 1.51176 17.8996 1.64538 17.7755 1.75848C17.6421 1.87999 17.4783 2.04167 17.2833 2.23504C17.1956 2.32192 17.1439 2.37275 17.1036 2.40984C17.0814 2.43025 17.0701 2.44046 17.0655 2.44402C16.9898 2.49312 16.892 2.49855 16.8106 2.45769C16.8059 2.45478 16.7932 2.44648 16.7686 2.4284C16.7245 2.39593 16.6671 2.35078 16.5704 2.2741L16.3985 2.13738C15.9763 1.80254 15.6178 1.50463 15.2022 1.36883C14.746 1.21982 14.2541 1.21982 13.7979 1.36883C13.3823 1.50463 13.0238 1.80254 12.6016 2.13738L12.5343 2.19109C12.3472 2.33942 12.2375 2.42547 12.1514 2.48406C12.1015 2.51804 12.0769 2.53113 12.0684 2.53484C12.0239 2.54703 11.9763 2.54703 11.9317 2.53484C11.9233 2.53113 11.8986 2.51804 11.8487 2.48406C11.7626 2.42547 11.6529 2.33942 11.4659 2.19109L11.3985 2.13738C10.9763 1.80254 10.6178 1.50463 10.2022 1.36883C9.74604 1.21982 9.2541 1.21982 8.79792 1.36883C8.38231 1.50463 8.02381 1.80254 7.60164 2.13738L7.42976 2.2741C7.33308 2.35078 7.27568 2.39593 7.23152 2.4284C7.2069 2.44648 7.19426 2.45478 7.18953 2.45769C7.10816 2.49855 7.01032 2.49312 6.93464 2.44402C6.93009 2.44046 6.91871 2.43025 6.89656 2.40984C6.85629 2.37275 6.80451 2.32192 6.71687 2.23504C6.52183 2.04167 6.35809 1.87999 6.22468 1.75848C6.1005 1.64538 5.94452 1.51176 5.76375 1.42449C4.8839 0.999898 3.83213 1.37707 3.42 2.24187L3.34675 2.42156C3.28048 2.61196 3.26503 2.81706 3.25789 2.98406C3.2502 3.16379 3.25007 3.39328 3.25007 3.66668V20.6979C3.25007 20.9144 3.24767 21.1239 3.27058 21.2721C3.47176 22.5711 4.98088 23.1784 6.03328 22.4128C6.15435 22.3246 6.30134 22.1756 6.45613 22.0221C6.58304 21.8963 6.61051 21.8699 6.63093 21.8532L6.73054 21.7839C6.97413 21.6427 7.28329 21.647 7.52546 21.8044C7.5477 21.8189 7.57834 21.8422 7.71785 21.9528L7.85457 22.0612C8.06146 22.2253 8.23692 22.3682 8.4239 22.4694C9.09475 22.8326 9.90539 22.8326 10.5762 22.4694C10.7632 22.3681 10.9387 22.2253 11.1456 22.0612L11.2159 22.0055C11.543 21.7461 11.614 21.6954 11.6719 21.6677C11.879 21.5687 12.1212 21.5687 12.3282 21.6677C12.3861 21.6954 12.4572 21.7461 12.7843 22.0055L12.8546 22.0612C13.0615 22.2253 13.2369 22.3681 13.4239 22.4694C14.0948 22.8326 14.9054 22.8326 15.5762 22.4694C15.7632 22.3682 15.9387 22.2253 16.1456 22.0612L16.2823 21.9528C16.4218 21.8422 16.4524 21.8189 16.4747 21.8044C16.7513 21.6245 17.1151 21.6449 17.3692 21.8532C17.3896 21.8699 17.4171 21.8963 17.544 22.0221C17.6988 22.1756 17.8458 22.3246 17.9669 22.4128C19.0193 23.1784 20.5284 22.5711 20.7296 21.2721Z" fill="currentColor"/><path d="M14.2501 9.49951C14.2501 8.80916 13.6905 8.24951 13.0001 8.24951C12.3098 8.24951 11.7501 8.80916 11.7501 9.49951V11.2495H13.0001C13.4143 11.2495 13.7501 11.5853 13.7501 11.9995C13.7501 12.4137 13.4143 12.7495 13.0001 12.7495H11.7501V13.9995C11.7501 14.4501 11.6395 14.8742 11.4474 15.2495H15.0001C15.4143 15.2495 15.7501 15.5853 15.7501 15.9995C15.7501 16.4137 15.4143 16.7495 15.0001 16.7495H9.00012C8.58591 16.7495 8.25012 16.4137 8.25012 15.9995C8.25012 15.5853 8.58591 15.2495 9.00012 15.2495C9.69048 15.2495 10.2501 14.6899 10.2501 13.9995V12.7495H9.00012C8.58591 12.7495 8.25012 12.4137 8.25012 11.9995C8.25012 11.5853 8.58591 11.2495 9.00012 11.2495H10.2501V9.49951C10.2501 7.98073 11.4813 6.74951 13.0001 6.74951C14.5189 6.74951 15.7501 7.98073 15.7501 9.49951C15.7501 9.91372 15.4143 10.2495 15.0001 10.2495C14.5859 10.2495 14.2501 9.91373 14.2501 9.49951Z" fill="currentColor"/></svg>
