<svg xmlns="http://www.w3.org/2000/svg" fill="none" viewBox="0 0 48 48">
  <g>
    <path fill="currentColor" fill-opacity="0.4" d="M44.9701 26.4785C42.3563 31.3968 38.6334 39.2308 38 44.9993l-28.00002 0c-0.5939 -5.4085 -3.60795 -12.0301 -5.93546 -16.4801 -1.12335 -2.1478 0.49081 -4.6183 2.79849 -3.877 2.18613 0.7023 4.64139 1.7781 7.07229 3.3582 -0.3834 -6.4657 -1.9629 -12.4957 -3.1292 -16.0801 -0.4844 -1.489 0.7854 -2.99577 2.2395 -2.41471 4.139 1.65401 7.9668 5.18351 11.1591 10.30121 3.9153 -5.6017 8.5804 -8.3944 12.8098 -10.01015 1.6031 -0.61242 3.0632 1.10425 2.4111 2.69155 -1.4465 3.5206 -3.4447 8.9944 -4.6788 14.9376 2.207 -2.5224 5.0595 -3.9728 7.5842 -4.7615 2.2335 -0.6977 3.7372 1.748 2.6391 3.8142Z" stroke-width="1"></path>
    <path stroke="currentColor" stroke-linecap="round" stroke-linejoin="round" d="M24.2047 19.8068c3.9153 -5.6017 8.5804 -8.3944 12.8098 -10.01015 1.6031 -0.61242 3.0632 1.10425 2.4111 2.69155 -1.4465 3.5206 -3.4447 8.9944 -4.6788 14.9376 2.207 -2.5224 5.0595 -3.9728 7.5842 -4.7615 2.2335 -0.6977 3.7372 1.748 2.6391 3.8142C42.3563 31.3968 38.6334 39.2308 38 44.9993l-28.00002 0c-0.5939 -5.4085 -3.60795 -12.0301 -5.93546 -16.4801 -1.12335 -2.1478 0.49081 -4.6183 2.79849 -3.877 2.18613 0.7023 4.64139 1.7781 7.07229 3.3582 -0.3834 -6.4657 -1.9629 -12.4957 -3.1292 -16.0801 -0.4844 -1.489 0.7854 -2.99577 2.2395 -2.41471C17.1846 11.1596 21.0124 14.8822 24.2047 20" stroke-width="1"></path>
    <path stroke="currentColor" stroke-linecap="round" d="m44.8594 45.0244 -41.71975 0" stroke-width="1"></path>
    <path stroke="currentColor" stroke-linecap="round" d="M26.4956 44.9565c0.2756 -5.3252 1.9498 -11.1062 3.5045 -14.9565" stroke-width="1"></path>
    <path stroke="currentColor" stroke-linecap="round" d="M21.9104 44.9561c-0.7133 -5.0959 -2.6239 -8.7164 -4.4426 -10.9561" stroke-width="1"></path>
  </g>
</svg>
