<svg xmlns="http://www.w3.org/2000/svg" fill="none" viewBox="0 0 48 48">
  <g>
    <path fill="currentColor" fill-opacity="0.4" fill-rule="evenodd" d="M13.6021 8.11282c-1.37 -0.5475 -2.7053 -0.08792 -3.521 0.82367 -0.78799 0.88049 -1.11233 2.18521 -0.70144 3.44801 0.96844 2.9764 2.22454 7.6686 2.81204 12.8645 -1.6882 -0.8792 -3.34149 -1.5438 -4.87 -2.0348 -1.80863 -0.5809 -3.46458 0.1156 -4.37626 1.427 -0.87906 1.2645 -1.02361 3.018 -0.21016 4.5733 2.32431 4.4439 5.21328 10.846 5.7736 15.9486 0.08351 0.7605 0.72597 1.3363 1.49103 1.3363l27.99999 0.0001c0.7651 0 1.4075 -0.5758 1.491 -1.3363 0.2942 -2.6787 1.3224 -5.9281 2.6414 -9.179 1.3105 -3.2301 2.8694 -6.3689 4.1623 -8.8016 0.8006 -1.5064 0.685 -3.2229 -0.1439 -4.4754 -0.8646 -1.3065 -2.4761 -2.034 -4.267 -1.4746 -1.4691 0.459 -3.0624 1.133 -4.6028 2.1008 1.1211 -4.0746 2.4737 -7.699 3.5321 -10.275 0.5602 -1.3636 0.2083 -2.7871 -0.6202 -3.73054 -0.8432 -0.96014 -2.253 -1.49032 -3.7137 -0.9323 -3.9522 1.5099 -8.4681 3.92524 -12.3449 8.68104 -3.0375 -4.3294 -6.5407 -7.3688 -10.5321 -8.96378Z" clip-rule="evenodd" stroke-width="1"></path>
    <path fill="currentColor" fill-rule="evenodd" d="M30.5617 28.6095c0.7682 0.3102 1.1395 1.1844 0.8293 1.9525 -1.318 3.264 -2.7146 7.938 -3.2292 12.4628h16.6976c1.1045 0 2 0.8954 2 2s-0.8955 2 -2 2H3.13965c-1.10457 0 -2 -0.8954 -2 -2s0.89543 -2 2 -2H20.0344c-0.8391 -3.6964 -2.3393 -6.3649 -3.7311 -8.0788 -0.5222 -0.6431 -0.4242 -1.5878 0.2189 -2.11 0.6431 -0.5223 1.5878 -0.4243 2.11 0.2188 1.7705 2.1804 3.5662 5.4878 4.4701 9.97h2.0417c0.5223 -4.9814 2.0471 -10.074 3.4652 -13.586 0.3102 -0.7682 1.1844 -1.1395 1.9525 -0.8293Z" clip-rule="evenodd" stroke-width="1"></path>
  </g>
</svg>
