<svg xmlns="http://www.w3.org/2000/svg" fill="none" viewBox="0 0 48 48">
  <g>
    <path fill="currentColor" fill-rule="evenodd" d="M15.9965 27.8851c-0.3881 -6.543 -2.0153 -12.6202 -3.2021 -16.3161 3.4402 1.5211 6.6539 4.5002 9.5614 9.1614 0.1242 0.1991 0.2776 0.3687 0.4513 0.5069 0.0769 0.0749 0.1609 0.1446 0.2517 0.2081 0.9053 0.6328 2.1523 0.4119 2.7851 -0.4935 3.5934 -5.141 7.8357 -7.7167 11.7337 -9.2296l-0.002 0.0052c-1.4723 3.5833 -3.5186 9.1825 -4.7871 15.291 -0.2246 1.0815 0.4701 2.1403 1.5516 2.3649 0.1599 0.0332 0.3193 0.0463 0.4755 0.041 0.5769 0.0174 1.1568 -0.2138 1.5666 -0.6821 1.9136 -2.1872 4.2907 -3.4654 6.5453 -4.1698 0.0885 -0.0276 0.1441 -0.0309 0.1706 -0.0304 0.026 0.0004 0.0381 0.0045 0.0426 0.0062 0.0056 0.0021 0.0435 0.0172 0.0915 0.0896 0.1031 0.1559 0.1856 0.4991 -0.0281 0.9012 -1.3256 2.4944 -2.9435 5.7482 -4.3149 9.1283 -1.1137 2.7449 -2.1001 5.6574 -2.6114 8.3567h-7.6127c0.5131 -4.4494 1.8884 -9.0533 3.1895 -12.2756 0.4136 -1.0242 -0.0814 -2.1898 -1.1057 -2.6033 -1.0242 -0.4136 -2.1897 0.0814 -2.6033 1.1056 -1.4347 3.5531 -2.9809 8.7153 -3.5043 13.7733h-1.0291c-0.9133 -4.6117 -2.7573 -8.026 -4.5918 -10.2852 -0.6963 -0.8574 -1.9559 -0.9881 -2.8134 -0.2918 -0.8574 0.6963 -0.9881 1.9559 -0.2918 2.8133 1.3297 1.6375 2.7796 4.1999 3.6062 7.7637h-7.7943c-0.999 -5.4049 -3.7892 -11.4157 -5.89013 -15.4325 -0.22596 -0.4321 -0.13239 -0.788 -0.01746 -0.9534 0.05548 -0.0798 0.10741 -0.108 0.13753 -0.1186 0.01965 -0.0069 0.10464 -0.0349 0.29453 0.0261 2.03844 0.6548 4.32923 1.6589 6.59403 3.1309 0.3116 0.2025 0.6585 0.3071 1.0046 0.3216 0.0881 0.0065 0.1776 0.0072 0.2682 0.0018 1.1026 -0.0654 1.9435 -1.0122 1.8781 -2.1149m-8.34736 15.139c-0.98118 -4.5607 -3.36204 -9.7651 -5.35663 -13.5787 -0.89739 -1.7157 -0.74556 -3.6689 0.24268 -5.0904 1.0317 -1.4841 2.91281 -2.2687 4.9397 -1.6176 1.31724 0.4231 2.72551 0.973 4.16941 1.6753 -0.6338 -4.7854 -1.83048 -9.0781 -2.7402 -11.8741 -0.4671 -1.4356 -0.1001 -2.92554 0.80427 -3.93613 0.94153 -1.05207 2.49483 -1.5877 4.07923 -0.95455 3.9883 1.59376 7.4755 4.57938 10.4934 8.77168 3.8047 -4.5343 8.1019 -6.99519 12.0197 -8.49192 1.6803 -0.64196 3.3048 -0.02707 4.2678 1.06945 0.9434 1.07427 1.3452 2.69697 0.707 4.25047 -0.9524 2.318 -2.1426 5.4855 -3.1852 9.0624 1.2211 -0.6785 2.4574 -1.1847 3.6445 -1.5555 2.0156 -0.6297 3.8528 0.1947 4.833 1.6759 0.9326 1.4091 1.0529 3.3218 0.1685 4.9859 -1.2882 2.424 -2.8387 5.5463 -4.1405 8.7549 -0.9646 2.3774 -1.7645 4.7345 -2.2347 6.8529h4.4983c1.1045 0 2 0.8954 2 2s-0.8955 2 -2 2H3.13965c-1.10457 0 -2 -0.8954 -2 -2s0.89543 -2 2 -2z" clip-rule="evenodd" stroke-width="3.429"></path>
  </g>
</svg>
