<svg xmlns="http://www.w3.org/2000/svg" fill="none" viewBox="0 0 48 48">
  <g>
    <path fill="currentColor" fill-opacity="0.4" d="M12.3863 7.98924c1.2891 1.38181 2.3407 2.69426 3.0897 3.69156 0.8757 1.1659 1.3052 2.5864 1.3326 4.0444 0.0475 2.523 0.1139 6.9214 0.1139 11.7748 0 5.3603 -0.081 10.4319 -0.128 12.9231 -0.0178 0.939 -0.6911 1.7234 -1.6251 1.8226 -1.1649 0.1238 -2.955 0.2543 -5.32334 0.2543 -0.76615 0 -1.47179 -0.0137 -2.11532 -0.0363 -2.81594 -0.0992 -4.84579 -2.4406 -4.88651 -5.258 -0.03822 -2.6441 -0.0747 -6.1099 -0.0747 -9.7057 0 -4.8534 0.06646 -9.2518 0.11394 -11.7749 0.02744 -1.4579 0.45697 -2.8784 1.33263 -4.0443 0.74895 -0.9972 1.80062 -2.30973 3.08968 -3.69156 1.38378 -1.48337 3.69682 -1.48337 5.08052 0Z" stroke-width="3.429"></path>
    <path fill="currentColor" fill-opacity="0.4" d="M26.5387 7.98924c1.289 1.38181 2.3407 2.69426 3.0896 3.69156 0.8757 1.1659 1.3052 2.5864 1.3327 4.0444 0.0474 2.523 0.1139 6.9214 0.1139 11.7748 0 5.3603 -0.0811 10.4319 -0.1281 12.9231 -0.0177 0.939 -0.6911 1.7234 -1.625 1.8226 -1.165 0.1238 -2.955 0.2543 -5.3234 0.2543 -2.3684 0 -4.1584 -0.1305 -5.3234 -0.2543 -0.934 -0.0992 -1.6073 -0.8836 -1.625 -1.8226 -0.0471 -2.4912 -0.1281 -7.5628 -0.1281 -12.9231 0 -4.8534 0.0664 -9.2518 0.1139 -11.7749 0.0275 -1.4579 0.457 -2.8784 1.3326 -4.0443 0.749 -0.9972 1.8007 -2.30973 3.0897 -3.69156 1.3838 -1.48337 3.6968 -1.48337 5.0806 0Z" stroke-width="3.429"></path>
    <path fill="currentColor" fill-opacity="0.4" d="M35.6137 7.98924c-1.2891 1.38181 -2.3407 2.69426 -3.0897 3.69156 -0.8757 1.1659 -1.3052 2.5864 -1.3326 4.0444 -0.0475 2.523 -0.1139 6.9214 -0.1139 11.7748 0 5.3603 0.081 10.4319 0.128 12.9231 0.0178 0.939 0.6911 1.7234 1.6251 1.8226 1.1649 0.1238 2.955 0.2543 5.3233 0.2543 0.7662 0 1.4718 -0.0137 2.1154 -0.0363 2.8159 -0.0992 4.8458 -2.4406 4.8865 -5.258 0.0382 -2.6441 0.0747 -6.1099 0.0747 -9.7057 0 -4.8534 -0.0665 -9.2518 -0.114 -11.7749 -0.0274 -1.4579 -0.4569 -2.8784 -1.3326 -4.0443 -0.7489 -0.9972 -1.8006 -2.30973 -3.0897 -3.69156 -1.3838 -1.48337 -3.6968 -1.48337 -5.0805 0Z" stroke-width="3.429"></path>
    <path stroke="currentColor" stroke-linejoin="round" d="M12.3863 7.98924c1.2891 1.38181 2.3407 2.69426 3.0897 3.69156 0.8757 1.1659 1.3052 2.5864 1.3326 4.0444 0.0475 2.523 0.1139 6.9214 0.1139 11.7748 0 5.3603 -0.081 10.4319 -0.128 12.9231 -0.0178 0.939 -0.6911 1.7234 -1.6251 1.8226 -1.1649 0.1238 -2.955 0.2543 -5.32334 0.2543 -0.76615 0 -1.47179 -0.0137 -2.11532 -0.0363 -2.81594 -0.0992 -4.84579 -2.4406 -4.88651 -5.258 -0.03822 -2.6441 -0.0747 -6.1099 -0.0747 -9.7057 0 -4.8534 0.06646 -9.2518 0.11394 -11.7749 0.02744 -1.4579 0.45697 -2.8784 1.33263 -4.0443 0.74895 -0.9972 1.80062 -2.30973 3.08968 -3.69156 1.38378 -1.48337 3.69682 -1.48337 5.08052 0Z" stroke-width="3.429"></path>
    <path stroke="currentColor" stroke-linejoin="round" d="M35.6137 7.98924c-1.2891 1.38181 -2.3407 2.69426 -3.0897 3.69156 -0.8757 1.1659 -1.3052 2.5864 -1.3326 4.0444 -0.0475 2.523 -0.1139 6.9214 -0.1139 11.7748 0 5.3603 0.081 10.4319 0.128 12.9231 0.0178 0.939 0.6911 1.7234 1.6251 1.8226 1.1649 0.1238 2.955 0.2543 5.3233 0.2543 0.7662 0 1.4718 -0.0137 2.1154 -0.0363 2.8159 -0.0992 4.8458 -2.4406 4.8865 -5.258 0.0382 -2.6441 0.0747 -6.1099 0.0747 -9.7057 0 -4.8534 -0.0665 -9.2518 -0.114 -11.7749 -0.0274 -1.4579 -0.4569 -2.8784 -1.3326 -4.0443 -0.7489 -0.9972 -1.8006 -2.30973 -3.0897 -3.69156 -1.3838 -1.48337 -3.6968 -1.48337 -5.0805 0Z" stroke-width="3.429"></path>
    <path stroke="currentColor" stroke-linejoin="round" d="M26.5387 7.98924c1.289 1.38181 2.3407 2.69426 3.0896 3.69156 0.8757 1.1659 1.3052 2.5864 1.3327 4.0444 0.0474 2.523 0.1139 6.9214 0.1139 11.7748 0 5.3603 -0.0811 10.4319 -0.1281 12.9231 -0.0177 0.939 -0.6911 1.7234 -1.625 1.8226 -1.165 0.1238 -2.955 0.2543 -5.3234 0.2543 -2.3684 0 -4.1584 -0.1305 -5.3234 -0.2543 -0.934 -0.0992 -1.6073 -0.8836 -1.625 -1.8226 -0.0471 -2.4912 -0.1281 -7.5628 -0.1281 -12.9231 0 -4.8534 0.0664 -9.2518 0.1139 -11.7749 0.0275 -1.4579 0.457 -2.8784 1.3326 -4.0443 0.749 -0.9972 1.8007 -2.30973 3.0897 -3.69156 1.3838 -1.48337 3.6968 -1.48337 5.0806 0Z" stroke-width="3.429"></path>
    <path stroke="currentColor" stroke-linecap="round" d="M23.9971 18v2" stroke-width="3.429"></path>
    <path stroke="currentColor" stroke-linecap="round" d="M9.8457 18v2" stroke-width="3.429"></path>
    <path stroke="currentColor" stroke-linecap="round" d="M38.1543 18v2" stroke-width="3.429"></path>
    <path stroke="currentColor" stroke-linecap="round" d="M9.8457 31.123v2" stroke-width="3.429"></path>
    <path stroke="currentColor" stroke-linecap="round" d="M23.9971 31.123v2" stroke-width="3.429"></path>
    <path stroke="currentColor" stroke-linecap="round" d="M38.1543 31.123v2" stroke-width="3.429"></path>
  </g>
</svg>
