<svg xmlns="http://www.w3.org/2000/svg" fill="none" viewBox="0 0 48 48">
  <g>
    <path fill="currentColor" fill-rule="evenodd" d="M5.84332 6.62521c2.17452 -2.33101 5.83098 -2.33101 8.00548 0 1.2622 1.35304 2.3045 2.63992 3.0735 3.65229 0.769 -1.01233 1.8113 -2.29912 3.0734 -3.65205 2.1745 -2.33101 5.8309 -2.33101 8.0054 0L26.6054 7.9275l1.3957 -1.30205c1.263 1.35387 2.3058 2.6415 3.075 3.65415 0.7691 -1.01268 1.812 -2.30041 3.0751 -3.65439 2.1745 -2.33101 5.831 -2.33101 8.0055 0 1.3479 1.44495 2.4451 2.81444 3.2264 3.85479 1.16 1.5445 1.6988 3.386 1.7331 5.2077 0.0476 2.5306 0.1143 6.9424 0.1143 11.8125 0 3.6084 -0.0366 7.0844 -0.0749 9.7347 -0.0542 3.7458 -2.8025 7.0864 -6.8159 7.2278 -0.6667 0.0235 -1.3958 0.0375 -2.1858 0.0375 -2.4419 0 -4.3025 -0.1345 -5.5346 -0.2654 -0.5709 -0.0607 -1.0907 -0.2406 -1.5429 -0.5104 -0.4524 0.2699 -0.9722 0.4499 -1.5433 0.5106 -1.2322 0.1309 -3.0928 0.2655 -5.5347 0.2655s-4.3025 -0.1346 -5.5347 -0.2655c-0.5704 -0.0606 -1.0897 -0.2403 -1.5417 -0.5096 -0.4518 0.2692 -0.971 0.4488 -1.5413 0.5094 -1.2321 0.1309 -3.0927 0.2654 -5.53464 0.2654 -0.78993 0 -1.51904 -0.014 -2.18573 -0.0375 -4.01338 -0.1414 -6.761756 -3.482 -6.815894 -7.2278 -0.038304 -2.6503 -0.074905 -6.1263 -0.074905 -9.7347 0 -4.8701 0.066675 -9.2819 0.114297 -11.8125C0.91811 13.866 1.4569 12.0245 2.61689 10.48c0.78131 -1.04035 1.87849 -2.40984 3.22643 -3.85479M14.809 15.763c0.0454 2.4128 0.1081 6.5452 0.1132 11.1463 -0.0002 0.1963 -0.0003 0.3933 -0.0003 0.5912 0 0.1978 0.0001 0.3953 0.0003 0.5923 -0.0055 5.0428 -0.0799 9.7532 -0.1253 12.1811 -1.1018 0.1116 -2.7654 0.2263 -4.95084 0.2263 -0.74238 0 -1.42453 -0.0132 -2.0449 -0.0351 -1.6185 -0.057 -2.92984 -1.3991 -2.95714 -3.288 -0.03813 -2.6381 -0.07449 -6.0937 -0.07449 -9.6769 0 -4.8366 0.06625 -9.2216 0.11359 -11.7372 0.02059 -1.0941 0.34087 -2.0936 0.93219 -2.8809 0.71658 -0.9542 1.72274 -2.2096 2.95292 -3.52835 0.59305 -0.63573 1.56257 -0.63573 2.15567 0 1.2301 1.31865 2.2363 2.57415 2.9529 3.52835 0.5913 0.7873 0.9116 1.7868 0.9322 2.8809m22.2671 -6.40925c0.5931 -0.63573 1.5626 -0.63573 2.1557 0 1.2301 1.31875 2.2363 2.57415 2.9529 3.52835 0.5913 0.7873 0.9116 1.7868 0.9322 2.8809 0.0473 2.5156 0.1136 6.9006 0.1136 11.7372 0 3.5832 -0.0364 7.0388 -0.0745 9.6769 -0.0273 1.8889 -1.3387 3.231 -2.9572 3.288 -0.6203 0.0219 -1.3025 0.0351 -2.0449 0.0351 -2.1854 0 -3.849 -0.1147 -4.9508 -0.2263 -0.0472 -2.5228 -0.1256 -7.5099 -0.1256 -12.7737 0 -4.8366 0.0662 -9.2216 0.1135 -11.7372 0.0206 -1.0941 0.3409 -2.0936 0.9322 -2.8809 0.7166 -0.9542 1.7228 -2.2097 2.9529 -3.52835M11.8457 18.0002c0 -1.1045 -0.8954 -2 -2 -2 -1.10457 0 -2 0.8955 -2 2v2c0 1.1046 0.89543 2 2 2 1.1046 0 2 -0.8954 2 -2zm26.3086 -2c1.1046 0 2 0.8955 2 2v2c0 1.1046 -0.8954 2 -2 2s-2 -0.8954 -2 -2v-2c0 -1.1045 0.8954 -2 2 -2M11.8457 31.1233c0 -1.1046 -0.8954 -2 -2 -2 -1.10457 0 -2 0.8954 -2 2v2c0 1.1046 0.89543 2 2 2 1.1046 0 2 -0.8954 2 -2zm12.1514 -15.1231c1.1045 0 2 0.8955 2 2v2c0 1.1046 -0.8955 2 -2 2 -1.1046 0 -2 -0.8954 -2 -2v-2c0 -1.1045 0.8954 -2 2 -2m2 15.1231c0 -1.1046 -0.8955 -2 -2 -2 -1.1046 0 -2 0.8954 -2 2v2c0 1.1046 0.8954 2 2 2 1.1045 0 2 -0.8954 2 -2zm14.1572 0c0 -1.1046 -0.8954 -2 -2 -2s-2 0.8954 -2 2v2c0 1.1046 0.8954 2 2 2s2 -0.8954 2 -2z" clip-rule="evenodd" stroke-width="1"></path>
  </g>
</svg>
