<svg xmlns="http://www.w3.org/2000/svg" fill="none" viewBox="0 0 48 48">
  <g>
    <path fill="currentColor" fill-rule="evenodd" d="M10.3863 7.98948c1.2891 1.38181 2.3407 2.69432 3.0897 3.69152 0.8757 1.166 1.3052 2.5865 1.3326 4.0444 0.0475 2.5231 0.1139 6.9215 0.1139 11.7748 0 5.3604 -0.081 10.4319 -0.128 12.9231 -0.0178 0.9391 -0.6911 1.7234 -1.6251 1.8226 -1.1649 0.1238 -2.955 0.2543 -5.32334 0.2543 -0.76615 0 -1.47179 -0.0136 -2.11532 -0.0363C2.9148 42.3647 0.884946 40.0234 0.844227 37.206c-0.038215 -2.6442 -0.074696 -6.11 -0.074696 -9.7058 0 -4.8533 0.066461 -9.2518 0.113943 -11.7748 0.027436 -1.4579 0.456966 -2.8784 1.332626 -4.0444 0.74895 -0.9972 1.80062 -2.3097 3.08968 -3.69152 1.38378 -1.48337 3.69677 -1.48337 5.08052 0Zm27.2274 0C36.3246 9.37129 35.273 10.6838 34.524 11.681c-0.8757 1.166 -1.3052 2.5865 -1.3326 4.0444 -0.0475 2.5231 -0.1139 6.9215 -0.1139 11.7748 0 5.3604 0.081 10.4319 0.128 12.9231 0.0178 0.9391 0.6911 1.7234 1.6251 1.8226 1.1649 0.1238 2.955 0.2543 5.3233 0.2543 0.7662 0 1.4718 -0.0136 2.1154 -0.0363 2.8159 -0.0992 4.8458 -2.4405 4.8865 -5.2579 0.0382 -2.6442 0.0747 -6.11 0.0747 -9.7058 0 -4.8533 -0.0665 -9.2518 -0.114 -11.7748 -0.0274 -1.4579 -0.4569 -2.8784 -1.3326 -4.0444 -0.7489 -0.9972 -1.8006 -2.3097 -3.0897 -3.69152 -1.3838 -1.48337 -3.6968 -1.48337 -5.0805 0ZM29.6283 11.681c-0.7489 -0.9972 -1.8006 -2.30971 -3.0896 -3.69152 -1.3838 -1.48337 -3.6968 -1.48337 -5.0806 0 -1.289 1.38182 -2.3407 2.69432 -3.0897 3.69152 -0.8756 1.166 -1.3051 2.5865 -1.3326 4.0444 -0.0475 2.523 -0.1139 6.9215 -0.1139 11.7748 0 5.3604 0.081 10.4319 0.1281 12.9231 0.0177 0.9391 0.691 1.7234 1.625 1.8226 1.165 0.1238 2.955 0.2543 5.3234 0.2543 2.3684 0 4.1584 -0.1305 5.3234 -0.2543 0.9339 -0.0992 1.6073 -0.8835 1.625 -1.8226 0.047 -2.4912 0.1281 -7.5627 0.1281 -12.9231 0 -4.8533 -0.0665 -9.2517 -0.1139 -11.7748 -0.0275 -1.4579 -0.457 -2.8784 -1.3327 -4.0444ZM23.9971 16.5c0.8284 0 1.5 0.6716 1.5 1.5v2c0 0.8284 -0.6716 1.5 -1.5 1.5 -0.8285 0 -1.5 -0.6716 -1.5 -1.5v-2c0 -0.8284 0.6715 -1.5 1.5 -1.5ZM9.3457 18c0 -0.8284 -0.67157 -1.5 -1.5 -1.5 -0.82842 0 -1.5 0.6716 -1.5 1.5v2c0 0.8284 0.67158 1.5 1.5 1.5 0.82843 0 1.5 -0.6716 1.5 -1.5v-2Zm30.8086 -1.5c0.8284 0 1.5 0.6716 1.5 1.5v2c0 0.8284 -0.6716 1.5 -1.5 1.5s-1.5 -0.6716 -1.5 -1.5v-2c0 -0.8284 0.6716 -1.5 1.5 -1.5ZM9.3457 31.123c0 -0.8284 -0.67157 -1.5 -1.5 -1.5 -0.82842 0 -1.5 0.6716 -1.5 1.5v2c0 0.8285 0.67158 1.5 1.5 1.5 0.82843 0 1.5 -0.6715 1.5 -1.5v-2Zm14.6514 -1.5c0.8284 0 1.5 0.6716 1.5 1.5v2c0 0.8285 -0.6716 1.5 -1.5 1.5 -0.8285 0 -1.5 -0.6715 -1.5 -1.5v-2c0 -0.8284 0.6715 -1.5 1.5 -1.5Zm17.6572 1.5c0 -0.8284 -0.6716 -1.5 -1.5 -1.5s-1.5 0.6716 -1.5 1.5v2c0 0.8285 0.6716 1.5 1.5 1.5s1.5 -0.6715 1.5 -1.5v-2Z" clip-rule="evenodd" stroke-width="3.429"></path>
  </g>
</svg>
