<svg xmlns="http://www.w3.org/2000/svg" viewBox="0 0 24 24" fill="none"><path opacity="0.4" d="M18.75 15.0644V15V9V8.93557C18.75 7.5725 18.7501 6.47332 18.6338 5.6084C18.5128 4.70829 18.2533 3.95055 17.6514 3.34863C17.0495 2.74672 16.2917 2.48723 15.3916 2.36621C14.5267 2.24995 13.4275 2.24997 12.0644 2.25H12H11.9356C10.5725 2.24997 9.47333 2.24995 8.6084 2.36621C7.70829 2.48723 6.95055 2.74672 6.34863 3.34863C5.74672 3.95055 5.48723 4.70829 5.36621 5.6084C5.24995 6.47333 5.24997 7.57252 5.25 8.93562V9V15V15.0644C5.24997 16.4275 5.24995 17.5267 5.36621 18.3916C5.48723 19.2917 5.74672 20.0495 6.34863 20.6514C6.95055 21.2533 7.70829 21.5128 8.6084 21.6338C9.4733 21.7501 10.5725 21.75 11.9355 21.75H12H12.0645C13.4275 21.75 14.5267 21.7501 15.3916 21.6338C16.2917 21.5128 17.0495 21.2533 17.6514 20.6514C18.2533 20.0495 18.5128 19.2917 18.6338 18.3916C18.7501 17.5267 18.75 16.4275 18.75 15.0644Z" fill="currentColor"/><path d="M14 16C14.5523 16 15 16.4477 15 17C15 17.5523 14.5523 18 14 18H10C9.44772 18 9 17.5523 9 17C9 16.4477 9.44772 16 10 16H14ZM14 11C14.5523 11 15 11.4477 15 12C15 12.5523 14.5523 13 14 13H10C9.44772 13 9 12.5523 9 12C9 11.4477 9.44772 11 10 11H14ZM14 6C14.5523 6 15 6.44772 15 7C15 7.55228 14.5523 8 14 8H10C9.44772 8 9 7.55228 9 7C9 6.44772 9.44772 6 10 6H14Z" fill="currentColor"/><path d="M5.26758 17C5.28281 17.5186 5.31108 17.9815 5.36621 18.3916C5.39454 18.6023 5.43141 18.805 5.47754 19H4.25C3.69772 19 3.25 18.5523 3.25 18C3.25 17.4477 3.69772 17 4.25 17H5.26758Z" fill="currentColor"/><path d="M5.25 13H4.25C3.69772 13 3.25 12.5523 3.25 12C3.25 11.4477 3.69772 11 4.25 11H5.25V13Z" fill="currentColor"/><path d="M5.47754 5C5.43141 5.19496 5.39454 5.39766 5.36621 5.6084C5.31108 6.01853 5.28281 6.48136 5.26758 7H4.25C3.69772 7 3.25 6.55228 3.25 6C3.25 5.44772 3.69772 5 4.25 5H5.47754Z" fill="currentColor"/><path d="M19.75 17C20.3023 17 20.75 17.4477 20.75 18C20.75 18.5523 20.3023 19 19.75 19H18.5225C18.5686 18.805 18.6055 18.6023 18.6338 18.3916C18.6889 17.9815 18.7172 17.5186 18.7324 17H19.75Z" fill="currentColor"/><path d="M19.75 11C20.3023 11 20.75 11.4477 20.75 12C20.75 12.5523 20.3023 13 19.75 13H18.75V11H19.75Z" fill="currentColor"/><path d="M19.75 5C20.3023 5 20.75 5.44772 20.75 6C20.75 6.55228 20.3023 7 19.75 7H18.7324C18.7172 6.48136 18.6889 6.01853 18.6338 5.6084C18.6055 5.39766 18.5686 5.19496 18.5225 5H19.75Z" fill="currentColor"/></svg>
