<svg xmlns="http://www.w3.org/2000/svg" viewBox="0 0 24 24" fill="none"><path d="M12.064 2.25C13.427 2.24997 14.5262 2.24995 15.3911 2.36621C16.2912 2.48723 17.049 2.74672 17.6509 3.34863C18.1119 3.80963 18.3711 4.36225 18.522 5H19.7495C20.3018 5 20.7495 5.44772 20.7495 6C20.7495 6.55228 20.3018 7 19.7495 7H18.7319C18.7488 7.5751 18.7495 8.21883 18.7495 8.93555V11H19.7495C20.3018 11 20.7495 11.4477 20.7495 12C20.7495 12.5523 20.3018 13 19.7495 13H18.7495V15.0645C18.7495 15.7812 18.7488 16.4249 18.7319 17H19.7495C20.3018 17 20.7495 17.4477 20.7495 18C20.7495 18.5523 20.3018 19 19.7495 19H18.522C18.3711 19.6378 18.1119 20.1904 17.6509 20.6514C17.049 21.2533 16.2912 21.5128 15.3911 21.6338C14.5262 21.7501 13.427 21.75 12.064 21.75H11.9351C10.572 21.75 9.47281 21.7501 8.60791 21.6338C7.7078 21.5128 6.95006 21.2533 6.34814 20.6514C5.88715 20.1904 5.62796 19.6378 5.47705 19H4.24951C3.69723 19 3.24951 18.5523 3.24951 18C3.24951 17.4477 3.69723 17 4.24951 17H5.26709C5.2502 16.4249 5.2495 15.7812 5.24951 15.0645V13H4.24951C3.69723 13 3.24951 12.5523 3.24951 12C3.24951 11.4477 3.69723 11 4.24951 11H5.24951V8.93555C5.2495 8.21884 5.2502 7.5751 5.26709 7H4.24951C3.69723 7 3.24951 6.55228 3.24951 6C3.24951 5.44772 3.69723 5 4.24951 5H5.47705C5.62796 4.36225 5.88715 3.80963 6.34814 3.34863C6.95006 2.74672 7.7078 2.48723 8.60791 2.36621C9.47282 2.24995 10.572 2.24997 11.9351 2.25H12.064ZM9.99951 16C9.44723 16 8.99951 16.4477 8.99951 17C8.99951 17.5523 9.44723 18 9.99951 18H13.9995C14.5518 18 14.9995 17.5523 14.9995 17C14.9995 16.4477 14.5518 16 13.9995 16H9.99951ZM9.99951 11C9.44723 11 8.99951 11.4477 8.99951 12C8.99951 12.5523 9.44723 13 9.99951 13H13.9995C14.5518 13 14.9995 12.5523 14.9995 12C14.9995 11.4477 14.5518 11 13.9995 11H9.99951ZM9.99951 6C9.44723 6 8.99951 6.44772 8.99951 7C8.99951 7.55228 9.44723 8 9.99951 8H13.9995C14.5518 8 14.9995 7.55228 14.9995 7C14.9995 6.44772 14.5518 6 13.9995 6H9.99951Z" fill="currentColor"/></svg>
