<svg xmlns="http://www.w3.org/2000/svg" viewBox="0 0 24 24" fill="none"><path d="M10.9537 22.73C9.17581 22.73 7.74279 22.73 6.61573 22.5781C5.44559 22.4205 4.46035 22.0831 3.67786 21.2988C2.89537 20.5145 2.5588 19.5269 2.40148 18.3541C2.24996 17.2244 2.24998 15.788 2.25 14.0061V14.006V11.9085V11.9084C2.24999 11.1148 2.24998 10.3899 2.26335 9.72998H4.21386C4.20045 10.3758 4.20001 11.1177 4.20001 11.98V13.9345C4.20001 15.8049 4.20208 17.1094 4.3341 18.0936C4.46235 19.0498 4.69693 19.5561 5.05673 19.9167C5.41652 20.2774 5.92166 20.5125 6.87557 20.641C7.85752 20.7734 9.15897 20.7754 11.025 20.7754H11.9977C12.5375 20.7754 12.975 21.213 12.975 21.7527C12.975 22.2924 12.5375 22.73 11.9977 22.73H10.9537Z" fill="currentColor"/><path d="M19.7959 10.5278C19.7938 10.0041 19.7908 9.95094 19.7862 9.72998H21.7315C21.7368 9.98018 21.7406 10.244 21.7433 10.5222C21.7486 11.0618 21.3109 11.5 20.7713 11.5C20.2338 11.5 19.798 11.0652 19.7959 10.5278Z" fill="currentColor"/><path opacity="0.4" d="M8.09995 1.22998C8.63843 1.22998 9.07495 1.66752 9.07495 2.20725V3.19282C9.65285 3.18451 10.2784 3.18451 10.9536 3.18453H13.0463C13.7216 3.18451 14.3471 3.18451 14.925 3.19282V2.20725C14.925 1.66752 15.3615 1.22998 15.9 1.22998C16.4384 1.22998 16.875 1.66752 16.875 2.20725V3.27945C17.0512 3.29554 17.2209 3.31435 17.3842 3.33636C18.5544 3.49405 19.5396 3.83139 20.3221 4.61571C21.1046 5.40002 21.4412 6.38756 21.5985 7.56043C21.6748 8.12974 21.7127 8.84427 21.7315 9.72998H2.26331C2.27996 8.90801 2.31739 8.18703 2.40144 7.56043C2.55876 6.38756 2.89532 5.40002 3.67781 4.61571C4.4603 3.83139 5.44554 3.49405 6.61568 3.33636C6.77897 3.31435 6.94869 3.29554 7.12495 3.27945V2.20725C7.12495 1.66752 7.56148 1.22998 8.09995 1.22998Z" fill="currentColor"/><path d="M20.75 21.73V21.229C19.9147 21.8567 18.8764 22.23 17.75 22.23C15.8982 22.23 14.283 21.2227 13.4199 19.731C13.1435 19.253 13.3064 18.6414 13.7842 18.3647C14.2621 18.0883 14.8738 18.2512 15.1504 18.729C15.6706 19.6283 16.6408 20.23 17.75 20.23C18.3622 20.23 18.9311 20.0453 19.4063 19.73H18.75C18.1977 19.73 17.75 19.2823 17.75 18.73C17.75 18.1777 18.1977 17.73 18.75 17.73H19.75C20.1545 17.73 20.544 17.7289 20.8672 17.7622C21.1558 17.792 21.4945 17.8569 21.8135 18.0444L21.9492 18.1323L22.0606 18.2202L22.1641 18.3159L22.29 18.4556C22.5578 18.7877 22.659 19.1644 22.7041 19.4995C22.7518 19.8539 22.75 20.2868 22.75 20.73V21.73C22.75 22.2823 22.3023 22.73 21.75 22.73C21.1977 22.73 20.75 22.2823 20.75 21.73ZM17.75 12.23C19.6018 12.23 21.217 13.2373 22.0801 14.729C22.3566 15.207 22.1936 15.8186 21.7158 16.0952C21.2379 16.3717 20.6263 16.2088 20.3496 15.731C19.8294 14.8316 18.8592 14.23 17.75 14.23C17.1379 14.23 16.5689 14.4146 16.0938 14.73H16.75C17.3023 14.73 17.75 15.1777 17.75 15.73C17.75 16.2823 17.3023 16.73 16.75 16.73H15.75C15.3455 16.73 14.956 16.7311 14.6328 16.6978C14.3029 16.6637 13.9073 16.584 13.5508 16.3276C13.4739 16.2723 13.4026 16.2106 13.3359 16.144C12.9727 15.7808 12.8474 15.3437 12.7959 14.9604C12.7483 14.606 12.75 14.1731 12.75 13.73V12.73C12.75 12.1777 13.1977 11.73 13.75 11.73C14.3023 11.73 14.75 12.1777 14.75 12.73V13.23C15.5853 12.6025 16.6238 12.23 17.75 12.23Z" fill="currentColor"/></svg>
