<svg xmlns="http://www.w3.org/2000/svg" viewBox="0 0 24 24" fill="none"><path opacity="0.4" d="M12.5318 2.25006C14.5614 2.25009 16.1874 2.4012 17.3687 3.3067C18.5713 4.22886 19.0944 5.7566 19.4947 7.79303L20.0338 10.5313L20.0445 10.5831C20.4006 12.3946 20.6884 13.862 20.7418 15.0274C20.7971 16.2361 20.6105 17.3048 19.8433 18.1866C19.0828 19.0605 18.0325 19.421 16.7935 19.588C15.5901 19.75 14.0294 19.7501 12.0836 19.7501H11.9176C9.97194 19.7501 8.41091 19.7501 7.2076 19.588C5.96874 19.4209 4.9183 19.0607 4.1578 18.1866C3.39087 17.3048 3.20407 16.236 3.25936 15.0274C3.31243 13.8683 3.59927 12.4105 3.95272 10.6124L3.96835 10.5313L4.50643 7.79303C4.9067 5.75658 5.43081 4.22887 6.63339 3.3067C7.81473 2.40106 9.44069 2.2501 11.4703 2.25006H12.5318ZM11.4713 4.19537C9.39484 4.19541 8.41401 4.39295 7.81698 4.85065C7.2415 5.2921 6.81362 6.14406 6.41561 8.16901L6.23104 9.10358C9.71585 11.9658 14.6985 11.9414 17.7828 9.16608L17.5875 8.16901C17.1894 6.14358 16.7618 5.292 16.1861 4.85065C15.5891 4.39304 14.609 4.19541 12.5328 4.19537H11.4713Z" fill="currentColor" fill-rule="evenodd" clip-rule="evenodd"/><path d="M15.0003 14.0001C15.5526 14.0001 16.0003 14.4478 16.0003 15.0001C16.0003 15.5523 15.5526 16.0001 15.0003 16.0001C14.4481 16.0001 14.0003 15.5523 14.0003 15.0001C14.0003 14.4478 14.4481 14.0001 15.0003 14.0001Z" fill="currentColor"/><path d="M9.00034 14.0001C9.55263 14.0001 10.0003 14.4478 10.0003 15.0001C10.0003 15.5523 9.55262 16.0001 9.00034 16.0001C8.44806 16.0001 8.00034 15.5523 8.00034 15.0001C8.00034 14.4478 8.44805 14.0001 9.00034 14.0001Z" fill="currentColor"/><path d="M4.66913 18.6661C5.23287 19.0999 5.90707 19.348 6.6662 19.4971L4.70722 21.4571C4.31673 21.8476 3.68369 21.8475 3.29316 21.4571C2.90263 21.0666 2.90263 20.4336 3.29316 20.043L4.66913 18.6661Z" fill="currentColor"/><path d="M20.7072 20.043C21.0976 20.4336 21.0977 21.0666 20.7072 21.4571C20.3167 21.8476 19.6837 21.8475 19.2932 21.4571L17.3332 19.4971C18.0925 19.3481 18.7664 19.0997 19.3303 18.6661L20.7072 20.043Z" fill="currentColor"/></svg>
