<svg xmlns="http://www.w3.org/2000/svg" viewBox="0 0 24 24" fill="none"><path d="M12.5313 2.25006C14.5606 2.25009 16.1868 2.40149 17.3682 3.3067C18.5707 4.22884 19.0939 5.75667 19.4941 7.79303L20.0332 10.5313L20.0439 10.5831C20.4 12.3946 20.6878 13.862 20.7412 15.0274C20.7965 16.2361 20.6099 17.3048 19.8428 18.1866C19.6846 18.3682 19.5133 18.5269 19.3311 18.6671L20.707 20.043C21.0975 20.4336 21.0975 21.0666 20.707 21.4571C20.3165 21.8476 19.6835 21.8475 19.293 21.4571L17.333 19.4971C17.1573 19.5316 16.9773 19.5631 16.793 19.588C15.5896 19.75 14.0284 19.7501 12.083 19.7501H11.917C9.97168 19.7501 8.4102 19.7501 7.20703 19.588C7.02226 19.563 6.84208 19.5317 6.66602 19.4971L4.70703 21.4571C4.31653 21.8476 3.6835 21.8475 3.29297 21.4571C2.90245 21.0666 2.90245 20.4336 3.29297 20.043L4.66895 18.6661C4.48691 18.526 4.31514 18.3681 4.15723 18.1866C3.39055 17.3049 3.20351 16.2359 3.25879 15.0274C3.31186 13.8683 3.59871 12.4105 3.95215 10.6124L3.96777 10.5313L4.50586 7.79303C4.90608 5.75682 5.43054 4.22891 6.63281 3.3067C7.81403 2.40116 9.44044 2.25014 11.4697 2.25006H12.5313ZM9 14.0001C8.44792 14.0003 8 14.4479 8 15.0001C8 15.5522 8.44792 15.9998 9 16.0001C9.55228 16.0001 10 15.5523 10 15.0001C10 14.4478 9.55228 14.0001 9 14.0001ZM15 14.0001C14.4479 14.0003 14 14.4479 14 15.0001C14 15.5522 14.4479 15.9998 15 16.0001C15.5523 16.0001 16 15.5523 16 15.0001C16 14.4478 15.5523 14.0001 15 14.0001ZM11.4707 4.19537C9.39474 4.19546 8.41337 4.393 7.81641 4.85065C7.24115 5.29219 6.81295 6.14457 6.41504 8.16901L6.23047 9.10358C9.71513 11.9657 14.6979 11.941 17.7822 9.16608L17.5869 8.16901C17.1888 6.14367 16.7612 5.29199 16.1855 4.85065C15.5885 4.39327 14.608 4.19541 12.5322 4.19537H11.4707Z" fill="currentColor" fill-rule="evenodd" clip-rule="evenodd"/></svg>
