<svg xmlns="http://www.w3.org/2000/svg" fill="none" viewBox="0 0 48 48">
  <g>
    <path fill="currentColor" fill-rule="evenodd" d="M24 6.2349c12.9898 0 23.52 10.5302 23.52 23.52 0 3.3078 -0.6838 6.4599 -1.919 9.3195 -1.0242 2.3707 -3.7325 2.958 -5.7585 2.1378 -2.2844 -0.9248 -5.2757 -1.8624 -8.911 -2.4251 0.049 -0.3347 0.0745 -0.6771 0.0745 -1.0254 0 -1.2065 -0.305 -2.3419 -0.8422 -3.333l8.2627 -8.2627c0.7817 -0.7816 0.7817 -2.0491 0 -2.8308 -0.7817 -0.7817 -2.0492 -0.7817 -2.8308 0l-8.2627 8.2627c-0.9911 -0.5372 -2.1265 -0.8422 -3.333 -0.8422 -3.8693 0 -7.006 3.1367 -7.006 7.006 0 0.3483 0.0255 0.6907 0.0745 1.0253 -3.6353 0.5627 -6.6268 1.5004 -8.9115 2.425 -2.026 0.82 -4.7341 0.2326 -5.7581 -2.138C1.1637 36.2145 0.48 33.0626 0.48 29.7549c0 -12.9897 10.5303 -23.52 23.52 -23.52Zm0 3.503c1.1055 0 2.0017 0.8962 2.0017 2.0017v1.0008c0 1.1056 -0.8962 2.0017 -2.0017 2.0017s-2.0017 -0.8961 -2.0017 -2.0017v-1.0008c0 -1.1055 0.8962 -2.0017 2.0017 -2.0017Zm14.1547 5.8623c-0.7817 -0.7818 -2.0491 -0.7818 -2.8309 0l-0.7077 0.7077c-0.7816 0.7816 -0.7816 2.0491 0 2.8308 0.7818 0.7817 2.0492 0.7817 2.8309 0l0.7077 -0.7077c0.7817 -0.7818 0.7817 -2.0492 0 -2.8308Zm-28.3089 0.0009c0.7817 -0.7817 2.0491 -0.7817 2.8308 0l0.7078 0.7078c0.7816 0.7816 0.7816 2.049 0 2.8308 -0.7818 0.7816 -2.0492 0.7816 -2.8309 0l-0.7077 -0.7077c-0.7817 -0.7818 -0.7817 -2.0492 0 -2.8309ZM5.9847 27.7532c-1.1055 0 -2.0017 0.8962 -2.0017 2.0017s0.8962 2.0017 2.0017 2.0017h1.0008c1.1055 0 2.0017 -0.8962 2.0017 -2.0017s-0.8962 -2.0017 -2.0017 -2.0017H5.9847Zm38.0323 2.0017c0 -1.1055 -0.8961 -2.0017 -2.0017 -2.0017h-1.0008c-1.1056 0 -2.0017 0.8962 -2.0017 2.0017s0.8961 2.0017 2.0017 2.0017h1.0008c1.1056 0 2.0017 -0.8962 2.0017 -2.0017ZM24 41.7651c2.211 0 4.0034 -1.7924 4.0034 -4.0034 0 -2.211 -1.7924 -4.0034 -4.0034 -4.0034 -2.211 0 -4.0034 1.7924 -4.0034 4.0034 0 2.211 1.7924 4.0034 4.0034 4.0034Z" clip-rule="evenodd" stroke-width="3.429"></path>
  </g>
</svg>
