<svg xmlns="http://www.w3.org/2000/svg" viewBox="0 0 24 24" fill="none"><path d="M18.0526 2.25C18.7162 2.24998 19.2602 2.24995 19.703 2.28613C20.1662 2.32398 20.5847 2.4054 20.9754 2.60449C21.5868 2.91605 22.0838 3.41305 22.3954 4.02442C22.5944 4.41515 22.6759 4.83363 22.7137 5.29688C22.7499 5.7397 22.7499 6.28359 22.7498 6.94727V7.05274C22.7499 7.71641 22.7499 8.26031 22.7137 8.70313C22.6759 9.16638 22.5944 9.58485 22.3954 9.97559C22.0838 10.587 21.5868 11.0839 20.9754 11.3955C20.598 11.5878 20.1945 11.6685 19.7498 11.708V7C19.7498 6.09383 19.0611 5.3483 18.1786 5.25879L17.9998 5.25H5.99985C5.03336 5.25001 4.24985 6.03351 4.24985 7V11.708C3.80525 11.6685 3.40173 11.5878 3.02426 11.3955C2.41289 11.0839 1.9159 10.587 1.60434 9.97559C1.40525 9.58485 1.32383 9.16638 1.28598 8.70313C1.2498 8.26031 1.24982 7.7164 1.24985 7.05274V6.94727C1.24982 6.2836 1.2498 5.73969 1.28598 5.29688C1.32383 4.83362 1.40525 4.41515 1.60434 4.02442C1.9159 3.41305 2.41289 2.91605 3.02426 2.60449C3.415 2.4054 3.83347 2.32398 4.29672 2.28613C4.73954 2.24995 5.28345 2.24998 5.94711 2.25H18.0526Z" fill="currentColor"/><path d="M9.24985 6.25V21.6963C9.0231 21.6804 8.8093 21.6608 8.60825 21.6338C7.70814 21.5128 6.9504 21.2533 6.34848 20.6514C5.74657 20.0494 5.48708 19.2917 5.36606 18.3916C5.2498 17.5267 5.24982 16.4275 5.24985 15.0645V7C5.24985 6.58579 5.58564 6.25 5.99985 6.25H9.24985Z" fill="currentColor"/><path opacity="0.4" d="M17.9998 6.25C18.4141 6.25 18.7498 6.58579 18.7498 7V15.0645C18.7499 16.4275 18.7499 17.5267 18.6336 18.3916C18.5126 19.2917 18.2531 20.0494 17.6512 20.6514C17.0493 21.2533 16.2916 21.5128 15.3914 21.6338C14.5265 21.7501 13.4274 21.75 12.0643 21.75H11.9354C11.5154 21.75 11.1206 21.7475 10.7498 21.7441V6.25H17.9998Z" fill="currentColor"/></svg>
