<svg xmlns="http://www.w3.org/2000/svg" viewBox="0 0 24 24" fill="none"><path d="M12.0524 1.75C14.245 1.74999 15.9669 1.74998 17.3112 1.93066C18.6878 2.11575 19.7801 2.50313 20.6383 3.36133C21.4965 4.21953 21.8839 5.31182 22.069 6.68848C22.2497 8.03274 22.2496 9.75468 22.2496 11.9473V12.0527C22.2496 14.2453 22.2497 15.9673 22.069 17.3115C21.8839 18.6882 21.4965 19.7805 20.6383 20.6387C19.7801 21.4969 18.6878 21.8843 17.3112 22.0693C15.9669 22.25 14.245 22.25 12.0524 22.25H11.9469C9.75432 22.25 8.03237 22.25 6.68811 22.0693C5.31145 21.8843 4.21916 21.4969 3.36096 20.6387C2.50276 19.7805 2.11538 18.6882 1.9303 17.3115C1.74962 15.9673 1.74962 14.2453 1.74963 12.0527V11.9473C1.74962 9.75468 1.74962 8.03274 1.9303 6.68848C2.11538 5.31182 2.50276 4.21953 3.36096 3.36133C4.21916 2.50313 5.31145 2.11575 6.68811 1.93066C8.03237 1.74998 9.75432 1.74999 11.9469 1.75H12.0524ZM10.9996 15C10.4473 15 9.99963 15.4477 9.99963 16C9.99963 16.5523 10.4473 17 10.9996 17H16.9996C17.5519 17 17.9996 16.5523 17.9996 16C17.9996 15.4477 17.5519 15 16.9996 15H10.9996ZM6.99963 11C6.44735 11 5.99963 11.4477 5.99963 12C5.99963 12.5523 6.44735 13 6.99963 13H13.9996C14.5519 13 14.9996 12.5523 14.9996 12C14.9996 11.4477 14.5519 11 13.9996 11H6.99963ZM8.99963 7C8.44735 7 7.99963 7.44772 7.99963 8C7.99963 8.55228 8.44735 9 8.99963 9H16.9996C17.5519 9 17.9996 8.55228 17.9996 8C17.9996 7.44772 17.5519 7 16.9996 7H8.99963Z" fill="currentColor"/></svg>
