<svg xmlns="http://www.w3.org/2000/svg" viewBox="0 0 24 24" fill="none"><path d="M1.51799 1.54289C1.90852 1.15237 2.54153 1.15237 2.93205 1.54289L22.4321 21.0429C22.8226 21.4334 22.8226 22.0664 22.4321 22.457C22.0415 22.8475 21.4085 22.8475 21.018 22.457L1.51799 2.95696C1.12747 2.56643 1.12747 1.93342 1.51799 1.54289Z" fill="currentColor"/><path d="M14.7251 14.75H7.77393V19C7.77393 19.7282 7.77516 20.199 7.82178 20.5459C7.86551 20.8712 7.93656 20.9732 7.99365 21.0303C8.05075 21.0874 8.15273 21.1584 8.47803 21.2021C8.8249 21.2488 9.29571 21.25 10.0239 21.25H14.0239C14.7521 21.25 15.223 21.2488 15.5698 21.2021C15.8951 21.1584 15.9971 21.0874 16.0542 21.0303C16.1113 20.9732 16.1823 20.8712 16.2261 20.5459C16.2727 20.199 16.2739 19.7282 16.2739 19V16.2988L17.7739 17.7988V19.0518C17.774 19.7156 17.774 20.2879 17.7124 20.7461C17.6463 21.2376 17.4969 21.7086 17.1147 22.0908C16.7326 22.473 16.2616 22.6224 15.77 22.6885C15.3118 22.7501 14.7395 22.75 14.0757 22.75H9.97217C9.30832 22.75 8.73602 22.7501 8.27783 22.6885C7.78628 22.6224 7.31529 22.473 6.93311 22.0908C6.55093 21.7086 6.40157 21.2376 6.33545 20.7461C6.27385 20.2879 6.27389 19.7156 6.27393 19.0518V17.75H5.3042C4.71848 17.75 4.22885 17.7501 3.82959 17.7139C3.46087 17.6804 3.11331 17.6126 2.7876 17.4551L2.64893 17.3818C2.28313 17.1706 1.97165 16.8781 1.73779 16.5283L1.64209 16.375C1.43128 16.0098 1.34826 15.6159 1.31006 15.1943C1.27387 14.7951 1.2739 14.3054 1.27393 13.7197V13.6436C1.27392 12.4223 1.27392 11.4546 1.34424 10.6787C1.41596 9.88777 1.56587 9.22217 1.91065 8.625L2.07471 8.36035C2.47864 7.75602 3.01703 7.25157 3.64893 6.88672L3.87647 6.76562C4.41464 6.50512 5.01073 6.38305 5.70264 6.32031C5.87774 6.30444 6.06298 6.29268 6.2583 6.2832L14.7251 14.75Z" fill="currentColor"/><path opacity="0.4" d="M14.0767 1.25L14.0767 1.25H9.97314L9.97308 1.25C9.30926 1.24996 8.73698 1.24993 8.27881 1.31153C7.78726 1.37764 7.31627 1.527 6.93408 1.90918C6.64701 2.19625 6.49057 2.53325 6.40283 2.8916L7.77979 4.26856C7.78437 3.92908 7.794 3.66801 7.82275 3.4541C7.86649 3.1288 7.93754 3.02682 7.99463 2.96973C8.05172 2.91264 8.1537 2.84159 8.479 2.79785C8.82587 2.75123 9.29668 2.75 10.0249 2.75H14.0249C14.7531 2.75 15.2239 2.75123 15.5708 2.79785C15.8961 2.84159 15.9981 2.91264 16.0552 2.96973C16.1123 3.02682 16.1833 3.1288 16.2271 3.4541C16.2737 3.80097 16.2749 4.27178 16.2749 5V6.25391C15.9863 6.25271 15.6808 6.25 15.3579 6.25H9.76123L21.0522 17.541C21.1706 17.4978 21.287 17.447 21.3999 17.3818L21.5532 17.2861C21.903 17.0523 22.1955 16.7408 22.4067 16.375L22.48 16.2363C22.6375 15.9106 22.7054 15.5631 22.7388 15.1943C22.775 14.7951 22.7749 14.3054 22.7749 13.7197V13.6436C22.7749 12.4223 22.7749 11.4546 22.7046 10.6787C22.6419 9.9868 22.5198 9.39071 22.2593 8.85254L22.1382 8.625C21.7733 7.99311 21.2689 7.45471 20.6646 7.05078L20.3999 6.88672C19.8027 6.54195 19.1371 6.39203 18.3462 6.32031C18.1664 6.30402 17.976 6.29182 17.7749 6.28223V4.94824V4.94801C17.7749 4.28426 17.775 3.71205 17.7134 3.25391C17.6473 2.76236 17.4979 2.29137 17.1157 1.90918C16.7335 1.527 16.2625 1.37764 15.771 1.31153C15.3128 1.24993 14.7405 1.24996 14.0767 1.25Z" fill="currentColor"/><path d="M17.7759 10.25C17.7759 9.69772 18.2236 9.25 18.7759 9.25L18.8784 9.25488C19.3825 9.30621 19.7759 9.73233 19.7759 10.25C19.7759 10.8023 19.3282 11.25 18.7759 11.25C18.2236 11.25 17.7759 10.8023 17.7759 10.25Z" fill="currentColor"/></svg>
