<svg xmlns="http://www.w3.org/2000/svg" viewBox="0 0 24 24" fill="none"><path d="M1.51848 1.54289C1.909 1.15237 2.54202 1.15237 2.93254 1.54289L22.4325 21.0429C22.8231 21.4334 22.8231 22.0664 22.4325 22.457C22.042 22.8475 21.409 22.8475 21.0185 22.457L1.51848 2.95696C1.12795 2.56643 1.12795 1.93342 1.51848 1.54289Z" fill="currentColor"/><path d="M14.7256 14.75H7.77442V19C7.77442 19.7282 7.77565 20.199 7.82227 20.5459C7.866 20.8712 7.93705 20.9732 7.99414 21.0303C8.05124 21.0874 8.15322 21.1584 8.47852 21.2022C8.82539 21.2488 9.29619 21.25 10.0244 21.25H14.0244C14.7526 21.25 15.2234 21.2488 15.5703 21.2022C15.8956 21.1584 15.9976 21.0874 16.0547 21.0303C16.1118 20.9732 16.1828 20.8712 16.2266 20.5459C16.2732 20.199 16.2744 19.7282 16.2744 19V16.2988L17.7744 17.7988V19.0518C17.7745 19.7156 17.7745 20.2879 17.7129 20.7461C17.6468 21.2376 17.4974 21.7086 17.1152 22.0908C16.7331 22.473 16.2621 22.6224 15.7705 22.6885C15.3123 22.7501 14.74 22.75 14.0762 22.75H9.97266C9.30881 22.75 8.73651 22.7501 8.27832 22.6885C7.78677 22.6224 7.31578 22.473 6.9336 22.0908C6.55142 21.7086 6.40205 21.2376 6.33594 20.7461C6.27434 20.2879 6.27437 19.7156 6.27442 19.0518V17.75H5.30469C4.71897 17.75 4.22934 17.7501 3.83008 17.7139C3.46136 17.6805 3.1138 17.6126 2.78809 17.4551L2.64942 17.3818C2.28362 17.1706 1.97214 16.8781 1.73828 16.5283L1.64258 16.375C1.43177 16.0098 1.34875 15.6159 1.31055 15.1943C1.27436 14.7951 1.27439 14.3054 1.27442 13.7197V13.6436C1.27441 12.4223 1.27441 11.4546 1.34473 10.6787C1.41644 9.88777 1.56636 9.22217 1.91113 8.625L2.0752 8.36035C2.47913 7.75602 3.01752 7.25157 3.64942 6.88672L3.87695 6.76563C4.41512 6.50512 5.01121 6.38305 5.70313 6.32031C5.87823 6.30444 6.06347 6.29268 6.25879 6.28321L14.7256 14.75Z" fill="currentColor"/><path d="M14.0762 1.25C14.74 1.24996 15.3123 1.24992 15.7705 1.31153C16.2621 1.37764 16.7331 1.527 17.1152 1.90918C17.4974 2.29137 17.6468 2.76236 17.7129 3.25391C17.7745 3.7121 17.7745 4.28439 17.7744 4.94824V6.28223C17.9755 6.29182 18.1659 6.30402 18.3457 6.32031C19.1366 6.39203 19.8022 6.54195 20.3994 6.88672L20.6641 7.05078C21.2684 7.45471 21.7728 7.99311 22.1377 8.625L22.2588 8.85254C22.5193 9.39071 22.6414 9.9868 22.7041 10.6787C22.7744 11.4546 22.7744 12.4223 22.7744 13.6436V13.7197C22.7744 14.3054 22.7745 14.7951 22.7383 15.1943C22.7049 15.5631 22.637 15.9106 22.4795 16.2363L22.4063 16.375C22.1951 16.7408 21.9026 17.0523 21.5527 17.2861L21.3994 17.3818C21.2865 17.447 21.1701 17.4978 21.0518 17.541L9.76074 6.25H15.3574C15.6803 6.25 15.9858 6.25271 16.2744 6.25391V5C16.2744 4.27178 16.2732 3.80097 16.2266 3.4541C16.1828 3.1288 16.1118 3.02682 16.0547 2.96973C15.9976 2.91264 15.8956 2.84159 15.5703 2.79785C15.2234 2.75123 14.7526 2.75 14.0244 2.75H10.0244C9.29619 2.75 8.82539 2.75123 8.47852 2.79785C8.15322 2.84159 8.05124 2.91264 7.99414 2.96973C7.93705 3.02682 7.866 3.1288 7.82227 3.4541C7.79352 3.66801 7.78388 3.92908 7.7793 4.26856L6.40235 2.8916C6.49009 2.53325 6.64653 2.19625 6.9336 1.90918C7.31578 1.527 7.78677 1.37764 8.27832 1.31153C8.73651 1.24992 9.30881 1.24996 9.97266 1.25H14.0762ZM18.7744 9.25C18.2221 9.25 17.7744 9.69772 17.7744 10.25C17.7744 10.8023 18.2221 11.25 18.7744 11.25C19.3267 11.25 19.7744 10.8023 19.7744 10.25C19.7744 9.73233 19.3811 9.30622 18.877 9.25488L18.7744 9.25Z" fill="currentColor" fill-rule="evenodd" clip-rule="evenodd"/></svg>
