<svg xmlns="http://www.w3.org/2000/svg" fill="none" viewBox="0 0 48 48">
  <g>
    <path fill="currentColor" fill-opacity="0.4" d="M11.1354 9.43775C4.21222 12.5444 1.0014 20.7466 2.32695 26.4396c0.24973 1.0726 1.25203 1.6871 2.33016 1.4626 1.97048 -0.4105 5.82439 -1.5383 12.69099 -4.6195 6.8666 -3.0813 10.2711 -5.2105 11.8876 -6.4097 0.8845 -0.6561 1.0917 -1.8135 0.4565 -2.713 -3.3717 -4.77484 -11.6335 -7.82891 -18.5568 -4.72225Z" stroke-width="3.429"></path>
    <path fill="currentColor" fill-opacity="0.4" d="M44 8.5c0 2.4853 -2.0147 4.5 -4.5 4.5S35 10.9853 35 8.5C35 6.01472 37.0147 4 39.5 4S44 6.01472 44 8.5Z" stroke-width="3.429"></path>
    <path fill="#8fbffa" d="M46 35.6398C29.3764 32.199 10.3154 36.641 2 46.001h40c2.2091 0 4 -1.7909 4 -4v-6.3612Z" stroke-width="3.429"></path>
    <path stroke="currentColor" stroke-linecap="round" d="M2 46.001c8.3154 -9.36 27.3764 -13.802 44 -10.3612" stroke-width="3.429"></path>
    <path stroke="currentColor" stroke-linecap="round" d="m17.3926 23.1699 5.6504 12.3959" stroke-width="3.429"></path>
    <path stroke="currentColor" d="M11.1354 9.43775C4.21222 12.5444 1.0014 20.7466 2.32695 26.4396c0.24973 1.0726 1.25203 1.6871 2.33016 1.4626 1.97048 -0.4105 5.82439 -1.5383 12.69099 -4.6195 6.8666 -3.0813 10.2711 -5.2105 11.8876 -6.4097 0.8845 -0.6561 1.0917 -1.8135 0.4565 -2.713 -3.3717 -4.77484 -11.6335 -7.82891 -18.5568 -4.72225Z" stroke-width="3.429"></path>
    <path stroke="currentColor" d="M44 8.5c0 2.4853 -2.0147 4.5 -4.5 4.5S35 10.9853 35 8.5C35 6.01472 37.0147 4 39.5 4S44 6.01472 44 8.5Z" stroke-width="3.429"></path>
  </g>
</svg>
