<svg xmlns="http://www.w3.org/2000/svg" fill="none" viewBox="0 0 48 48">
  <g>
    <path fill="currentColor" fill-rule="evenodd" d="M10.5209 8.06914C6.68305 9.79129 3.91273 12.9067 2.28352 16.3231 0.661976 19.7234 0.112434 23.5451 0.865562 26.7797c0.441408 1.8957 2.251368 2.9753 4.096948 2.5909 1.87854 -0.3913 5.21739 -1.361 10.79819 -3.7533l5.0072 10.9849c0.5727 1.2564 2.0554 1.8106 3.3118 1.2379 1.2563 -0.5727 1.8105 -2.0554 1.2378 -3.3117l-4.9964 -10.9612c5.3852 -2.536 8.2831 -4.3585 9.8078 -5.4896 1.5141 -1.1232 1.9109 -3.1929 0.7881 -4.783 -1.9156 -2.7128 -5.136 -4.84292 -8.7541 -5.89203 -3.6353 -1.05407 -7.8042 -1.05558 -11.642 0.66657Z" clip-rule="evenodd" stroke-width="1"></path>
    <path fill="currentColor" fill-opacity="0.4" fill-rule="evenodd" d="M39.5 2.5c-3.3137 0 -6 2.68629 -6 6 0 3.3137 2.6863 6 6 6s6 -2.6863 6 -6c0 -3.31371 -2.6863 -6 -6 -6Zm6.8041 31.669c-8.536 -1.7668 -17.6781 -1.5089 -25.7625 0.3888C12.4832 36.4495 5.31332 40.011 0.878638 45.0028c-0.392261 0.4415 -0.48891 1.0722 -0.246888 1.6109 0.242023 0.5387 0.77766 0.8853 1.36828 0.8853H46c0.8285 0 1.5 -0.6715 1.5 -1.5V35.6378c0 -0.7112 -0.4995 -1.3247 -1.1959 -1.4688Z" clip-rule="evenodd" stroke-width="1"></path>
  </g>
</svg>
