<svg xmlns="http://www.w3.org/2000/svg" fill="none" viewBox="0 0 48 48">
  <g>
    <path fill="currentColor" fill-rule="evenodd" d="M39.5 2.5c-3.3137 0 -6 2.68629 -6 6 0 3.3137 2.6863 6 6 6s6 -2.6863 6 -6c0 -3.31371 -2.6863 -6 -6 -6M10.5211 8.06961C6.68331 9.79176 3.91299 12.9071 2.28378 16.3235 0.662235 19.7238 0.112693 23.5456 0.865821 26.7801c0.441409 1.8958 2.251369 2.9753 4.096949 2.5909 1.92951 -0.4019 5.39963 -1.414 11.25743 -3.9511l3.97 8.7093C12.1686 36.0488 4.98771 39.6266 0.504838 44.6727c-0.733609 0.8257 -0.658901 2.0899 0.166867 2.8235 0.825765 0.7336 2.089895 0.6589 2.823505 -0.1669 3.78836 -4.2643 10.19809 -7.5668 17.84629 -9.3621 0.6301 -0.148 1.2672 -0.2853 1.9103 -0.4118 0.1126 -0.0118 0.2252 -0.0334 0.3366 -0.0651 7.0376 -1.3392 14.772 -1.3894 22.0063 0.108 1.0816 0.2238 2.1399 -0.4715 2.3638 -1.5532 0.2239 -1.0816 -0.4715 -2.1399 -1.5531 -2.3638 -7.3008 -1.5112 -15.0366 -1.5538 -22.19 -0.3654l-4.3468 -9.5361c5.6765 -2.6467 8.6937 -4.5394 10.2606 -5.7017 1.5141 -1.1232 1.9109 -3.193 0.7881 -4.783 -1.9157 -2.7129 -5.136 -4.84295 -8.7541 -5.89206 -3.6353 -1.05408 -7.8042 -1.05558 -11.6421 0.66657" clip-rule="evenodd" stroke-width="1"></path>
  </g>
</svg>
