<svg xmlns="http://www.w3.org/2000/svg" fill="none" viewBox="0 0 48 48">
  <g>
    <path fill="currentColor" fill-rule="evenodd" d="M39.5 2.5c-3.3137 0 -6 2.68629 -6 6 0 3.3137 2.6863 6 6 6s6 -2.6863 6 -6c0 -3.31371 -2.6863 -6 -6 -6ZM10.5211 8.06961C6.68328 9.79176 3.91297 12.9071 2.28375 16.3235 0.662213 19.7238 0.112671 23.5456 0.865799 26.7801c0.441411 1.8958 2.251371 2.9753 4.096951 2.5909 1.92951 -0.4019 5.39965 -1.414 11.25745 -3.9511l4.1805 9.1712c-8.0011 1.9 -15.11325 5.449 -19.522062 10.4117 -0.392261 0.4415 -0.48891 1.0722 -0.246888 1.6109 0.242023 0.5387 0.77766 0.8853 1.36828 0.8853H46c0.8285 0 1.5 -0.6715 1.5 -1.5V35.6378c0 -0.7112 -0.4995 -1.3247 -1.1959 -1.4688 -7.1931 -1.4889 -14.8165 -1.54 -21.8747 -0.3836l-4.5608 -10.0056c5.6765 -2.6467 8.6937 -4.5394 10.2606 -5.7017 1.5141 -1.1232 1.9108 -3.193 0.7881 -4.783 -1.9157 -2.7129 -5.136 -4.84295 -8.7542 -5.89206 -3.6352 -1.05408 -7.8042 -1.05558 -11.642 0.66657Z" clip-rule="evenodd" stroke-width="1"></path>
  </g>
</svg>
