<svg xmlns="http://www.w3.org/2000/svg" viewBox="0 0 24 24" fill="none"><path opacity="0.4" d="M14.8125 9C14.8125 5.78984 12.2102 3.1875 9 3.1875C5.78984 3.1875 3.1875 5.78984 3.1875 9C3.1875 12.2102 5.78984 14.8125 9 14.8125C12.2102 14.8125 14.8125 12.2102 14.8125 9ZM16.75 9C16.75 13.2802 13.2802 16.75 9 16.75C4.71979 16.75 1.25 13.2802 1.25 9C1.25 4.71979 4.71979 1.25 9 1.25C13.2802 1.25 16.75 4.71979 16.75 9Z" fill="currentColor"/><path d="M20 17.75C21.5188 17.75 22.75 16.5188 22.75 15C22.75 13.4812 21.5188 12.25 20 12.25C18.4812 12.25 17.25 13.4812 17.25 15C17.25 16.5188 18.4812 17.75 20 17.75Z" fill="currentColor"/><path opacity="0.4" d="M19.293 16.2929C19.6835 15.9024 20.3165 15.9024 20.707 16.2929C21.0976 16.6834 21.0976 17.3164 20.707 17.707C19.849 18.565 17.4598 19.9999 14 19.9999C13.4477 19.9999 13 19.5522 13 18.9999C13 18.4476 13.4477 17.9999 14 17.9999C16.9402 17.9999 18.8176 16.7682 19.293 16.2929Z" fill="currentColor"/><path d="M9 7C10.1046 7 11 7.89543 11 9C11 10.1046 10.1046 11 9 11C7.89543 11 7 10.1046 7 9C7 7.89543 7.89543 7 9 7Z" fill="currentColor"/><path d="M14.75 19.0406L14.75 19L14.75 18.9594C14.75 18.5217 14.75 18.1556 14.7295 17.8545C14.7079 17.5374 14.6613 17.2376 14.541 16.9473C14.2619 16.2736 13.7264 15.7381 13.0527 15.459C12.7624 15.3387 12.4626 15.2921 12.1455 15.2705C11.8444 15.25 11.4783 15.25 11.0406 15.25L11 15.25H7L6.95943 15.25C6.52175 15.25 6.1556 15.25 5.85449 15.2705C5.53744 15.2921 5.23762 15.3387 4.94727 15.459C4.27359 15.7381 3.73809 16.2736 3.45899 16.9473C3.33872 17.2376 3.29215 17.5374 3.27051 17.8545C3.24997 18.1556 3.24998 18.5217 3.25 18.9594L3.25 19L3.25 19.0406C3.24998 19.4783 3.24997 19.8444 3.27051 20.1455C3.29215 20.4626 3.33872 20.7624 3.45899 21.0527C3.73809 21.7264 4.27359 22.2619 4.94727 22.541C5.23762 22.6613 5.53744 22.7079 5.85449 22.7295C6.1556 22.75 6.52175 22.75 6.95944 22.75L7 22.75H11L11.0406 22.75C11.4783 22.75 11.8444 22.75 12.1455 22.7295C12.4626 22.7079 12.7624 22.6613 13.0527 22.541C13.7264 22.2619 14.2619 21.7264 14.541 21.0527C14.6613 20.7624 14.7079 20.4626 14.7295 20.1455C14.75 19.8444 14.75 19.4783 14.75 19.0406Z" fill="currentColor"/></svg>
