<svg xmlns="http://www.w3.org/2000/svg" viewBox="0 0 24 24" fill="none"><path d="M14.812 9C14.812 5.78984 12.2097 3.1875 8.99951 3.1875C5.78936 3.1875 3.18701 5.78984 3.18701 9C3.18701 12.2102 5.78936 14.8125 8.99951 14.8125C12.2097 14.8125 14.812 12.2102 14.812 9ZM16.7495 9C16.7495 13.2802 13.2797 16.75 8.99951 16.75C4.71931 16.75 1.24951 13.2802 1.24951 9C1.24951 4.71979 4.71931 1.25 8.99951 1.25C13.2797 1.25 16.7495 4.71979 16.7495 9Z" fill="currentColor"/><path d="M19.9995 17.75C21.5183 17.75 22.7495 16.5188 22.7495 15C22.7495 13.4812 21.5183 12.25 19.9995 12.25C18.4807 12.25 17.2495 13.4812 17.2495 15C17.2495 16.5188 18.4807 17.75 19.9995 17.75Z" fill="currentColor"/><path d="M19.2925 16.2929C19.683 15.9024 20.316 15.9024 20.7065 16.2929C21.0971 16.6834 21.0971 17.3164 20.7065 17.707C19.8485 18.565 17.4593 19.9999 13.9995 19.9999C13.4472 19.9999 12.9995 19.5522 12.9995 18.9999C12.9995 18.4476 13.4472 17.9999 13.9995 17.9999C16.9397 17.9999 18.8172 16.7682 19.2925 16.2929Z" fill="currentColor"/><path d="M8.99951 7C10.1041 7 10.9995 7.89543 10.9995 9C10.9995 10.1046 10.1041 11 8.99951 11C7.89494 11 6.99951 10.1046 6.99951 9C6.99951 7.89543 7.89494 7 8.99951 7Z" fill="currentColor"/><path d="M14.7495 19.0406L14.7495 19L14.7495 18.9594C14.7495 18.5217 14.7495 18.1556 14.729 17.8545C14.7074 17.5374 14.6608 17.2376 14.5405 16.9473C14.2614 16.2736 13.7259 15.7381 13.0522 15.459C12.7619 15.3387 12.4621 15.2921 12.145 15.2705C11.8439 15.25 11.4778 15.25 11.0401 15.25L10.9995 15.25H6.99951L6.95894 15.25C6.52126 15.25 6.15511 15.25 5.85401 15.2705C5.53695 15.2921 5.23713 15.3387 4.94678 15.459C4.2731 15.7381 3.7376 16.2736 3.4585 16.9473C3.33823 17.2376 3.29166 17.5374 3.27002 17.8545C3.24948 18.1556 3.24949 18.5217 3.24951 18.9594L3.24951 19L3.24951 19.0406C3.24949 19.4783 3.24948 19.8444 3.27002 20.1455C3.29166 20.4626 3.33823 20.7624 3.4585 21.0527C3.7376 21.7264 4.2731 22.2619 4.94678 22.541C5.23713 22.6613 5.53695 22.7079 5.85401 22.7295C6.15511 22.75 6.52126 22.75 6.95895 22.75L6.99951 22.75H10.9995L11.0401 22.75C11.4778 22.75 11.8439 22.75 12.145 22.7295C12.4621 22.7079 12.7619 22.6613 13.0522 22.541C13.7259 22.2619 14.2614 21.7264 14.5405 21.0527C14.6608 20.7624 14.7074 20.4626 14.729 20.1455C14.7495 19.8444 14.7495 19.4783 14.7495 19.0406Z" fill="currentColor"/></svg>
