<svg xmlns="http://www.w3.org/2000/svg" viewBox="0 0 24 24" fill="none"><path d="M20.7502 21.25V20.7461C19.9146 21.3744 18.8772 21.75 17.7502 21.75C15.8983 21.75 14.2831 20.7427 13.4201 19.251C13.1436 18.773 13.3065 18.1614 13.7843 17.8848C14.2623 17.6083 14.8739 17.7712 15.1506 18.249C15.6708 19.1483 16.641 19.75 17.7502 19.75C18.3623 19.75 18.9313 19.5654 19.4064 19.25H18.7502C18.1979 19.25 17.7502 18.8023 17.7502 18.25C17.7502 17.6977 18.1979 17.25 18.7502 17.25H19.7502C20.1933 17.25 20.6262 17.2482 20.9806 17.2959C21.3158 17.341 21.6924 17.4422 22.0246 17.71L22.1642 17.8359L22.2902 17.9756C22.558 18.3077 22.6592 18.6844 22.7043 19.0195C22.7519 19.374 22.7502 19.8069 22.7502 20.25V21.25C22.7502 21.8023 22.3024 22.25 21.7502 22.25C21.1979 22.25 20.7502 21.8023 20.7502 21.25ZM17.7502 11.75C19.602 11.75 21.2172 12.7573 22.0802 14.249C22.3567 14.727 22.1938 15.3386 21.716 15.6152C21.238 15.8917 20.6264 15.7288 20.3498 15.251C19.8295 14.3517 18.8593 13.75 17.7502 13.75C17.138 13.75 16.5691 13.9346 16.0939 14.25H16.7502C17.3024 14.25 17.7502 14.6977 17.7502 15.25C17.7502 15.8023 17.3024 16.25 16.7502 16.25H15.7502C15.307 16.25 14.8741 16.2518 14.5197 16.2041C14.1365 16.1526 13.6993 16.0273 13.3361 15.6641C12.9729 15.3008 12.8476 14.8637 12.7961 14.4805C12.7484 14.126 12.7502 13.6931 12.7502 13.25V12.25C12.7502 11.6977 13.1979 11.25 13.7502 11.25C14.3024 11.25 14.7502 11.6977 14.7502 12.25V12.7529C15.5857 12.1248 16.6234 11.75 17.7502 11.75Z" fill="currentColor"/><path d="M6.94437 1.75009C8.04898 1.75009 8.79587 1.73827 9.46292 1.98837C10.9534 2.54733 11.5502 3.92365 12.0371 4.89755L12.4639 5.75009H16.7744C17.8006 5.75008 18.6274 5.7501 19.2901 5.81747C19.9704 5.88668 20.561 6.03328 21.083 6.38192C21.4925 6.65549 21.8446 7.00767 22.1182 7.41708C22.4669 7.93908 22.6134 8.52968 22.6826 9.21005C22.75 9.87289 22.75 10.7002 22.75 11.7267V11.7833C22.75 12.2109 22.7497 12.6159 22.7481 12.9991C21.6104 11.4856 19.7969 10.5001 17.75 10.5001C16.9744 10.5001 16.2325 10.6437 15.5479 10.9024C15.1374 10.3557 14.4863 10.0001 13.75 10.0001C12.5074 10.0001 11.5 11.0075 11.5 12.2501V13.2501C11.5 13.6614 11.4953 14.1913 11.5567 14.6475C11.6266 15.1677 11.8174 15.9132 12.4522 16.5479C12.6105 16.7063 12.7755 16.8374 12.9424 16.9454C12.0361 17.618 11.7598 18.8777 12.3379 19.877L12.5508 20.2188C12.8009 20.5931 13.0925 20.9374 13.416 21.2491C13.3721 21.2491 13.3276 21.2501 13.2832 21.2501H11.9346C9.63048 21.2501 7.82379 21.2501 6.41409 21.0606C4.96942 20.8664 3.82938 20.4603 2.9346 19.5655C2.03987 18.6707 1.63372 17.5307 1.43948 16.086C1.25003 14.6764 1.25001 12.8704 1.25003 10.5665V7.4288C1.25003 6.54156 1.25003 5.82644 1.30081 5.25009C1.3528 4.66044 1.46267 4.14419 1.72562 3.67294C2.06449 3.06572 2.56567 2.56455 3.17288 2.22567C3.64412 1.96273 4.16039 1.85285 4.75003 1.80087C5.32638 1.75008 6.04152 1.75009 6.92874 1.75009H6.94437Z" fill="currentColor"/></svg>
