<svg xmlns="http://www.w3.org/2000/svg" viewBox="0 0 24 24" fill="none"><path opacity="0.4" d="M18.0214 11.832C17.4462 11.7543 16.6753 11.7502 15.75 11.75V6.5L15.75 6.45941C15.75 6.02174 15.75 5.6556 15.7294 5.35449C15.7078 5.03744 15.6612 4.73762 15.541 4.44727C15.2619 3.77359 14.7264 3.23809 14.0527 2.95899C13.7623 2.83872 13.4625 2.79215 13.1455 2.77051C12.8444 2.74997 12.4782 2.74998 12.0405 2.75L12 2.75L11.9594 2.75C11.5217 2.74998 11.1556 2.74997 10.8544 2.77051C10.5374 2.79215 10.2376 2.83872 9.94722 2.95899C9.27354 3.23809 8.73804 3.77359 8.45894 4.44727C8.33867 4.73762 8.2921 5.03744 8.27046 5.35449C8.24992 5.6556 8.24994 6.02175 8.24995 6.45944L8.24996 6.5V11.75C7.32464 11.7502 6.55374 11.7543 5.97847 11.832C5.43235 11.9059 4.77631 12.079 4.43843 12.666L4.37593 12.7891C4.053 13.4964 4.40619 14.1476 4.75093 14.6113C5.10448 15.0868 5.66841 15.6538 6.34065 16.3297L6.39351 16.3828L9.93746 19.9463L9.97149 19.9805C10.3016 20.3126 10.601 20.6137 10.8779 20.8252C11.1831 21.0583 11.5445 21.25 12 21.25C12.4554 21.25 12.8169 21.0583 13.122 20.8252C13.3989 20.6137 13.6983 20.3126 14.0284 19.9805L14.0625 19.9463L17.6064 16.3828L17.6593 16.3296C18.3315 15.6538 18.8954 15.0868 19.249 14.6113C19.5721 14.1767 19.9035 13.5769 19.6777 12.9209L19.624 12.7891L19.5615 12.666C19.2236 12.079 18.5676 11.9059 18.0214 11.832Z" fill="currentColor"/></svg>
