<svg xmlns="http://www.w3.org/2000/svg" viewBox="0 0 24 24" fill="none"><path d="M6.94443 1.75009C8.0491 1.75009 8.7959 1.73823 9.46298 1.98837C10.9535 2.54734 11.5503 3.92365 12.0372 4.89755L12.464 5.75009H16.7735C17.8 5.75008 18.6273 5.75008 19.2901 5.81747C19.9705 5.88669 20.5611 6.03324 21.0831 6.38193C21.4925 6.65551 21.8447 7.00764 22.1183 7.41708C22.4669 7.93909 22.6135 8.52967 22.6827 9.21005C22.7501 9.87289 22.7501 10.7002 22.7501 11.7267V11.7833C22.7501 12.0321 22.7485 12.2734 22.7481 12.5069C21.4836 10.6901 19.3814 9.50009 17.0001 9.50009C13.1341 9.50009 10.0001 12.6341 10.0001 16.5001C10.0001 18.3332 10.7053 20.0012 11.8585 21.2491C9.59047 21.2491 7.80837 21.248 6.41415 21.0606C4.96942 20.8664 3.82947 20.4603 2.93466 19.5655C2.03988 18.6707 1.63378 17.5307 1.43955 16.086C1.25008 14.6764 1.25007 12.8704 1.25009 10.5665V7.4288C1.25009 6.54156 1.25009 5.82644 1.30087 5.25009C1.35286 4.66044 1.46273 4.14419 1.72568 3.67294C2.06456 3.06572 2.56572 2.56454 3.17294 2.22568C3.6442 1.96273 4.16042 1.85285 4.75009 1.80087C5.32633 1.7501 6.04083 1.75009 6.92783 1.75009H6.94443Z" fill="currentColor"/><path d="M17.0001 10.75C20.1757 10.75 22.7501 13.3244 22.7501 16.5C22.7501 19.6756 20.1757 22.25 17.0001 22.25C13.8245 22.25 11.2501 19.6756 11.2501 16.5C11.2501 13.3244 13.8245 10.75 17.0001 10.75ZM17.0001 13.25C16.5859 13.25 16.2501 13.5858 16.2501 14V16.5C16.2501 16.7841 16.411 17.0439 16.6651 17.1709L18.6651 18.1709C19.0355 18.3558 19.4858 18.2053 19.671 17.835C19.8559 17.4646 19.7054 17.0143 19.3351 16.8291L17.7501 16.0361V14C17.7501 13.5858 17.4143 13.25 17.0001 13.25Z" fill="currentColor"/></svg>
