<svg xmlns="http://www.w3.org/2000/svg" viewBox="0 0 24 24" fill="none"><path d="M2.54312 2.54265C2.93365 2.15212 3.56666 2.15212 3.95718 2.54265L21.4572 20.0426C21.8477 20.4332 21.8477 21.0662 21.4572 21.4567C21.0667 21.8472 20.4336 21.8472 20.0431 21.4567L2.54312 3.95671C2.1526 3.56619 2.1526 2.93317 2.54312 2.54265Z" fill="currentColor"/><path d="M20.6192 20.6179C20.5426 20.8157 20.4306 21.0035 20.2656 21.1687C20.1304 21.3041 19.9782 21.4217 19.8135 21.5193C19.3857 21.7727 18.9149 21.7894 18.4727 21.698C18.0426 21.6091 17.5821 21.4081 17.0996 21.1482C16.146 20.6345 14.9068 19.7785 13.3291 18.6882L13.2803 18.6541C12.8778 18.3759 12.6207 18.1993 12.4112 18.0837C12.2164 17.9764 12.1195 17.9551 12.0498 17.9509C12.0169 17.949 11.9831 17.949 11.9502 17.9509C11.8806 17.9551 11.7836 17.9764 11.5889 18.0837C11.3794 18.1993 11.1223 18.3759 10.7197 18.6541L10.6709 18.6882C9.09326 19.7785 7.85401 20.6345 6.90041 21.1482C6.41796 21.4081 5.95741 21.6091 5.52737 21.698C5.08508 21.7894 4.61433 21.7727 4.18655 21.5193C4.02188 21.4217 3.86968 21.3041 3.7344 21.1687C3.37799 20.8119 3.25399 20.3548 3.25002 19.9021C3.24625 19.4666 3.35109 18.9817 3.50881 18.4685C3.82105 17.4527 4.41758 16.0928 5.17483 14.366L5.19729 14.3142L7.97658 7.97534L20.6192 20.6179Z" fill="currentColor"/><path opacity="0.4" d="M12 2.24963C12.926 2.24968 13.5281 2.9065 13.9854 3.64026C14.4454 4.37846 14.9186 5.45691 15.503 6.78967L15.5284 6.84827L18.8028 14.316L18.8321 14.3824C19.0857 14.9608 19.3185 15.4991 19.5313 15.9957L9.0596 5.52405C9.40305 4.76446 9.71087 4.12781 10.0147 3.64026C10.472 2.90649 11.074 2.24963 12 2.24963Z" fill="currentColor"/></svg>
