<svg xmlns="http://www.w3.org/2000/svg" fill="none" viewBox="0 0 48 48">
  <g>
    <path fill="currentColor" fill-opacity="0.4" d="M1.5 26c0 -6.4091 0.25444 -10.9912 0.50975 -13.9758 0.28204 -3.29701 2.85871 -5.79145 6.13517 -6.03236C11.4123 5.75159 16.6004 5.5 24 5.5c7.3996 0 12.5877 0.25159 15.8551 0.49184 3.2764 0.24091 5.8531 2.73536 6.1352 6.03236 0.2553 2.9846 0.5097 7.5667 0.5097 13.9758s-0.2544 10.9912 -0.5097 13.9758c-0.2821 3.297 -2.8588 5.7914 -6.1352 6.0324 -3.2674 0.2402 -8.4555 0.4918 -15.8551 0.4918 -7.3996 0 -12.5877 -0.2516 -15.85508 -0.4918 -3.27646 -0.241 -5.85313 -2.7354 -6.13517 -6.0325C1.75443 36.9912 1.5 32.4091 1.5 26Z" stroke-width="1"></path>
    <path fill="currentColor" d="M14.5 13c-0.6222 0 -1.1473 -0.0211 -1.5891 -0.0545 -1.7772 -0.1345 -2.7909 -1.6006 -2.8547 -3.14778C10.0252 9.047 10 8.0991 10 7s0.0252 -2.047 0.0562 -2.79772c0.0638 -1.54714 1.0775 -3.01332 2.8547 -3.14779C13.3527 1.02106 13.8778 1 14.5 1s1.1473 0.02106 1.5891 0.05449c1.7772 0.13447 2.7909 1.60065 2.8547 3.14779C18.9748 4.953 19 5.9009 19 7s-0.0252 2.047 -0.0562 2.79772c-0.0638 1.54718 -1.0775 3.01328 -2.8547 3.14778 -0.4418 0.0334 -0.9669 0.0545 -1.5891 0.0545Z" stroke-width="1"></path>
    <path fill="currentColor" d="M33.5 13c-0.6222 0 -1.1473 -0.0211 -1.5891 -0.0545 -1.7772 -0.1345 -2.7909 -1.6006 -2.8547 -3.14778C29.0252 9.047 29 8.0991 29 7s0.0252 -2.047 0.0562 -2.79772c0.0638 -1.54714 1.0775 -3.01332 2.8547 -3.14779C32.3527 1.02106 32.8778 1 33.5 1s1.1473 0.02106 1.5891 0.05449c1.7772 0.13447 2.7909 1.60065 2.8547 3.14779C37.9748 4.953 38 5.9009 38 7s-0.0252 2.047 -0.0562 2.79772c-0.0638 1.54718 -1.0775 3.01328 -2.8547 3.14778 -0.4418 0.0334 -0.9669 0.0545 -1.5891 0.0545Z" stroke-width="1"></path>
    <path fill="currentColor" d="M26.1397 16.044c-1.3253 -0.8061 -2.9526 -0.806 -4.2779 0.0001 -2.2221 1.3516 -6.3315 4.2454 -10.6806 9.303 -0.7039 0.8186 -0.8703 1.8686 -0.5047 2.7641 0.3669 0.8988 1.2249 1.5307 2.3107 1.6051 0.3095 0.0212 0.6466 0.0422 1.0132 0.0626v2.2055c0 1.8914 0.1272 3.4009 0.2719 4.5058 0.2301 1.7567 1.6164 3.0331 3.3404 3.2094 1.4088 0.1441 3.5192 0.2848 6.3877 0.2848 2.8684 0 4.9788 -0.1407 6.3876 -0.2848 1.7241 -0.1763 3.1104 -1.4527 3.3404 -3.2094 0.1447 -1.1049 0.272 -2.6144 0.272 -4.5058V29.779c0.3669 -0.0205 0.7043 -0.0415 1.0141 -0.0627 1.0858 -0.0744 1.9437 -0.7063 2.3107 -1.6051 0.3656 -0.8955 0.1992 -1.9455 -0.5046 -2.764 -4.3492 -5.0581 -8.4586 -7.9517 -10.6809 -9.3032Z" stroke-width="1"></path>
    <path fill="currentColor" fill-opacity="0.4" d="M26.6172 37.9299c0.4963 -0.0215 0.8828 -0.4332 0.8828 -0.9299 0 -1.9592 -0.0544 -3.5016 -0.1124 -4.5896 -0.0632 -1.1835 -0.8013 -2.1996 -1.9788 -2.3343C25.0081 30.0302 24.5394 30 24 30c-0.5394 0 -1.0081 0.0302 -1.4088 0.0761 -1.1775 0.1347 -1.9156 1.1508 -1.9788 2.3343 -0.058 1.088 -0.1124 2.6304 -0.1124 4.5896 0 0.4967 0.3866 0.9085 0.8828 0.9299 0.7739 0.0335 1.6451 0.0541 2.6165 0.0541 0.9721 0 1.8437 -0.0207 2.6179 -0.0541Z" stroke-width="1"></path>
  </g>
</svg>
