<svg xmlns="http://www.w3.org/2000/svg" fill="none" viewBox="0 0 48 48">
  <g>
    <path stroke="currentColor" d="M30.1639 9.1313c0.0484 1.6975 1.1195 3.0463 2.817 3.098 0.2266 0.0069 0.4708 0.0107 0.7339 0.0107s0.5073 -0.0038 0.7339 -0.0107c1.6974 -0.0517 2.7685 -1.4005 2.817 -3.098 0.0169 -0.5902 0.0282 -1.263 0.0282 -2.0043s-0.0113 -1.4142 -0.0282 -2.0044c-0.0485 -1.6975 -1.1196 -3.0464 -2.817 -3.098 -0.2266 -0.0069 -0.4708 -0.0107 -0.7339 -0.0107s-0.5073 0.0038 -0.7339 0.0107c-1.6975 0.0516 -2.7686 1.4005 -2.817 3.098 -0.0169 0.5902 -0.0282 1.263 -0.0282 2.0044s0.0113 1.4141 0.0282 2.0043Z" stroke-width="3.429"></path>
    <path stroke="currentColor" d="M10.7343 9.1313c0.0485 1.6975 1.1196 3.0463 2.817 3.098 0.2266 0.0069 0.4708 0.0107 0.7339 0.0107s0.5073 -0.0038 0.734 -0.0107c1.6974 -0.0517 2.7685 -1.4005 2.8169 -3.098 0.0169 -0.5902 0.0283 -1.263 0.0283 -2.0043s-0.0114 -1.4142 -0.0283 -2.0044c-0.0484 -1.6975 -1.1195 -3.0464 -2.8169 -3.098 -0.2267 -0.0069 -0.4709 -0.0107 -0.734 -0.0107s-0.5073 0.0038 -0.7339 0.0107c-1.6974 0.0516 -2.7685 1.4005 -2.817 3.098 -0.0169 0.5902 -0.0282 1.263 -0.0282 2.0044s0.0113 1.4141 0.0282 2.0043Z" stroke-width="3.429"></path>
    <path stroke="currentColor" d="M13.5513 12.2293c-1.6974 -0.0517 -2.7685 -1.4005 -2.817 -3.098 -0.0144 -0.5039 -0.0247 -1.068 -0.0275 -1.6836 -1.0587 0.0575 -1.9932 0.1182 -2.8079 0.1781 -2.6111 0.192 -4.6348 2.161 -4.858 4.7697 -0.2571 3.0056 -0.5157 7.6474 -0.5157 14.161 0 6.5135 0.2586 11.1555 0.5157 14.161 0.2232 2.6087 2.2469 4.5777 4.858 4.7698 3.3011 0.2426 8.5689 0.4988 16.1011 0.4988s12.8 -0.2561 16.1011 -0.4988c2.6111 -0.1921 4.6349 -2.1611 4.858 -4.7698 0.2571 -3.0055 0.5157 -7.6474 0.5157 -14.161 0 -6.5135 -0.2586 -11.1554 -0.5157 -14.161 -0.2231 -2.6087 -2.2469 -4.5777 -4.858 -4.7697 -0.8147 -0.0599 -1.7492 -0.1206 -2.8079 -0.1781 -0.0028 0.6156 -0.0131 1.1797 -0.0275 1.6836 -0.0485 1.6975 -1.1196 3.0463 -2.817 3.098 -0.2266 0.0069 -0.4708 0.0107 -0.7339 0.0107s-0.5073 -0.0038 -0.7339 -0.0107c-1.6975 -0.0517 -2.7686 -1.4005 -2.817 -3.098 -0.0164 -0.574 -0.0276 -1.226 -0.0282 -1.9433 -1.8496 -0.0383 -3.8922 -0.061 -6.1357 -0.061s-4.2861 0.0227 -6.1356 0.061c-0.0007 0.7173 -0.0119 1.3693 -0.0283 1.9433 -0.0484 1.6975 -1.1195 3.0463 -2.8169 3.098 -0.2267 0.0069 -0.4709 0.0107 -0.734 0.0107s-0.5073 -0.0038 -0.7339 -0.0107Z" stroke-width="3.429"></path>
    <path stroke="currentColor" stroke-linejoin="round" d="M12.184 25.9616c-1.2263 1.3847 -0.4414 3.3169 1.4051 3.4247 0.3694 0.0216 0.7708 0.0426 1.2065 0.0628v3.2273c0 1.8882 0.1271 3.3874 0.2695 4.4749 0.171 1.3068 1.1948 2.2633 2.506 2.3974 1.4048 0.1436 3.5282 0.286 6.428 0.286s5.0231 -0.1424 6.428 -0.286c1.3112 -0.1341 2.3349 -1.0906 2.506 -2.3974 0.1425 -1.0875 0.2695 -2.5867 0.2695 -4.4749v-3.2273c0.4361 -0.0202 0.8378 -0.0412 1.2075 -0.0628 1.8464 -0.1079 2.6313 -2.0399 1.4052 -3.4246 -3.9176 -4.4243 -7.5774 -7.0915 -9.7565 -8.4627 -1.2739 -0.8019 -2.8447 -0.8018 -4.1186 0.0001 -2.179 1.3714 -5.8387 4.0386 -9.7562 8.4625Z" stroke-width="3.429"></path>
    <path stroke="currentColor" stroke-linejoin="round" d="M27.5791 39.7318v-1.9266c0 -2.0035 -0.0556 -3.5808 -0.1149 -4.6933 -0.0646 -1.2103 -0.8194 -2.2494 -2.0235 -2.3871 -0.4098 -0.047 -0.8891 -0.0778 -1.4407 -0.0778 -0.5516 0 -1.0309 0.0308 -1.4406 0.0778 -1.2042 0.1377 -1.959 1.1768 -2.0236 2.3871 -0.0593 1.1126 -0.1149 2.6898 -0.1149 4.6933v1.9267c0.9971 0.0608 2.1872 0.1022 3.5784 0.1022 1.3918 0 2.5824 -0.0414 3.5798 -0.1023Z" stroke-width="3.429"></path>
  </g>
</svg>
