<svg xmlns="http://www.w3.org/2000/svg" fill="none" viewBox="0 0 48 48">
  <g>
    <path fill="currentColor" fill-rule="evenodd" d="M37.805 5.9399c-0.002 -0.9182 -0.0213 -1.7277 -0.0461 -2.4012 -0.0575 -1.558 -1.0597 -2.9246 -2.7374 -3.0232C34.6448 0.4934 34.2118 0.48 33.7148 0.48s-0.9301 0.0134 -1.3067 0.0355c-1.6777 0.0986 -2.68 1.4652 -2.7374 3.0232 -0.0222 0.6001 -0.0398 1.3083 -0.0449 2.105 -1.7152 -0.032 -3.5886 -0.0507 -5.6258 -0.0507s-3.9106 0.0187 -5.6258 0.0507c-0.005 -0.7967 -0.0227 -1.5049 -0.0449 -2.105 -0.0574 -1.558 -1.0597 -2.9246 -2.7374 -3.0232C15.2153 0.4934 14.7822 0.48 14.2852 0.48s-0.93 0.0134 -1.3067 0.0355c-1.6777 0.0986 -2.6799 1.4652 -2.7374 3.0232 -0.0248 0.6735 -0.0441 1.483 -0.0461 2.4012 -0.8941 0.0508 -1.696 0.1037 -2.4085 0.1561 -3.3506 0.2464 -5.9855 2.7972 -6.2739 6.1687 -0.2611 3.0521 -0.5213 7.7378 -0.5213 14.2918s0.2602 11.2397 0.5213 14.2918c0.2884 3.3715 2.9233 5.9223 6.2739 6.1688 3.3412 0.2456 8.6466 0.5029 16.2135 0.5029s12.8723 -0.2573 16.2136 -0.5029c3.3504 -0.2465 5.9854 -2.7973 6.2739 -6.1688 0.261 -3.0521 0.5212 -7.7377 0.5212 -14.2918 0 -6.554 -0.2602 -11.2397 -0.5212 -14.2917 -0.2885 -3.3716 -2.9235 -5.9224 -6.2739 -6.1688 -0.7126 -0.0524 -1.5145 -0.1053 -2.4086 -0.1561ZM21.8135 16.3755c1.3552 -0.8243 3.0193 -0.8244 4.3746 -0.0001 2.2725 1.3821 6.4748 4.3411 10.9224 9.5136 0.7197 0.837 0.8898 1.9107 0.516 2.8265 -0.3753 0.9191 -1.2526 1.5653 -2.363 1.6413 -0.3168 0.0217 -0.6618 0.0432 -1.037 0.0642v2.2552c0 1.9342 -0.1302 3.4778 -0.2781 4.6077 -0.2352 1.7964 -1.6529 3.1017 -3.416 3.282 -1.4406 0.1473 -3.5987 0.2912 -6.532 0.2912s-5.0915 -0.1439 -6.5321 -0.2912c-1.763 -0.1803 -3.1806 -1.4856 -3.4159 -3.282 -0.148 -1.1299 -0.2781 -2.6735 -0.2781 -4.6077v-2.2553c-0.3749 -0.0209 -0.7196 -0.0424 -1.0361 -0.0641 -1.1103 -0.076 -1.9877 -0.7222 -2.3629 -1.6413 -0.3739 -0.9158 -0.2037 -1.9895 0.5161 -2.8266 4.4474 -5.172 8.6497 -8.1312 10.9221 -9.5134Zm5.7656 21.4297c0 0.5079 -0.3952 0.929 -0.9027 0.9509 -0.7917 0.0342 -1.683 0.0554 -2.6771 0.0554 -0.9934 0 -1.8843 -0.0211 -2.6757 -0.0554 -0.5074 -0.0218 -0.9027 -0.443 -0.9027 -0.9509 0 -2.0035 0.0556 -3.5808 0.1149 -4.6933 0.0646 -1.2103 0.8194 -2.2494 2.0235 -2.3871 0.4098 -0.047 0.8891 -0.0778 1.4407 -0.0778 0.5516 0 1.0309 0.0308 1.4407 0.0778 1.2041 0.1377 1.9589 1.1768 2.0235 2.3871 0.0593 1.1126 0.1149 2.6898 0.1149 4.6933Z" clip-rule="evenodd" stroke-width="3.429"></path>
  </g>
</svg>
