<svg xmlns="http://www.w3.org/2000/svg" viewBox="0 0 24 24" fill="none"><path opacity="0.4" d="M19.1426 21.7502C19.8777 21.7502 20.4369 21.7608 20.9082 21.5959C21.6981 21.3196 22.3193 20.6983 22.5957 19.9084C22.7606 19.4371 22.75 18.8779 22.75 18.1428C22.75 17.6073 22.7608 17.1481 22.624 16.7571C22.3979 16.1108 21.8895 15.6024 21.2432 15.3762C20.9499 15.2736 20.6184 15.2537 20.2451 15.2502H19.75V7.96216C19.75 6.82249 19.75 5.89159 19.6514 5.15747C19.5487 4.39355 19.3265 3.73108 18.7979 3.20239C18.2692 2.6737 17.6067 2.45159 16.8428 2.34888C16.1088 2.25023 15.1784 2.25023 14.0391 2.25024H4C2.48122 2.25025 1.25 3.48146 1.25 5.00024V6.46411C1.24998 6.93542 1.24997 7.34241 1.28223 7.67505C1.31644 8.02735 1.39224 8.37525 1.59473 8.69751C1.77454 8.98362 2.01661 9.22572 2.30274 9.40552C2.62502 9.60801 2.97288 9.68382 3.3252 9.71802C3.65786 9.75028 4.06479 9.75026 4.53613 9.75024H5.25V19.0002C5.25007 20.519 6.48126 21.7502 8 21.7502H19.1426ZM4.57129 8.25024C4.05554 8.25024 3.72238 8.24924 3.4707 8.22485C3.23062 8.20157 3.14409 8.16233 3.10059 8.13501C3.00552 8.07519 2.92506 7.99471 2.86524 7.89966C2.83792 7.85618 2.79869 7.76964 2.77539 7.52954C2.75101 7.27789 2.75 6.94464 2.75 6.42896V5.00024C2.75 4.30989 3.30965 3.75024 4 3.75024C4.69036 3.75024 5.25 4.30989 5.25 5.00024V8.25024H4.57129ZM10.4473 20.2502C10.6393 19.875 10.75 19.4508 10.75 19.0002C10.75 18.2721 10.7512 17.8012 10.7979 17.4543C10.8416 17.1292 10.9126 17.0271 10.9697 16.97C11.0268 16.9129 11.1288 16.8418 11.4541 16.7981C11.801 16.7515 12.2718 16.7502 13 16.7502H19.8574C20.5184 16.7502 20.6581 16.7608 20.748 16.7922C20.9632 16.8676 21.1326 17.037 21.208 17.2522C21.2395 17.3421 21.25 17.4821 21.25 18.1428C21.25 19.0035 21.2392 19.2432 21.1797 19.4133C21.054 19.7721 20.7719 20.0543 20.4131 20.1799C20.2429 20.2395 20.0033 20.2502 19.1426 20.2502H10.4473Z" fill="currentColor" fill-rule="evenodd" clip-rule="evenodd"/><path d="M15 6.25C15.4142 6.25 15.75 6.58579 15.75 7C15.75 7.41421 15.4142 7.75 15 7.75H10C9.58579 7.75 9.25 7.41421 9.25 7C9.25 6.58579 9.58579 6.25 10 6.25H15Z" fill="currentColor"/><path d="M13 10.25C13.4142 10.25 13.75 10.5858 13.75 11C13.75 11.4142 13.4142 11.75 13 11.75H10C9.58579 11.75 9.25 11.4142 9.25 11C9.25 10.5858 9.58579 10.25 10 10.25H13Z" fill="currentColor"/></svg>
