<svg xmlns="http://www.w3.org/2000/svg" viewBox="0 0 24 24" fill="none"><path opacity="0.4" d="M15.6586 2.94717C14.1449 1.88966 12.047 2.03476 10.6957 3.38564C10.4238 3.65757 10.2014 3.96147 10.0268 4.28408C8.72944 3.93342 7.28551 4.26464 6.26605 5.28408C5.41437 6.13589 5.04412 7.28405 5.14887 8.39443C4.51548 8.56541 3.91644 8.89937 3.41937 9.39638C1.90348 10.9123 1.90351 13.3697 3.41937 14.8856C4.69887 16.1651 4.69876 18.2399 3.41937 19.5194L2.47016 20.4686C2.17726 20.7615 2.17727 21.2363 2.47016 21.5292C2.76305 21.8221 3.23781 21.8221 3.5307 21.5292L4.47992 20.58C5.75949 19.3006 7.83421 19.3005 9.11371 20.58C10.6296 22.0959 13.0871 22.0959 14.603 20.58C15.1004 20.0826 15.4332 19.483 15.6039 18.8495C16.7146 18.9548 17.863 18.5853 18.7153 17.7333C19.7351 16.7134 20.0656 15.2692 19.7143 13.9716C20.0369 13.7973 20.3415 13.5767 20.6137 13.3046C21.9654 11.953 22.1105 9.8526 21.0522 8.33877C22.0854 6.82765 21.933 4.74986 20.5912 3.4081C19.2493 2.06628 17.1701 1.9131 15.6586 2.94717Z" fill="currentColor"/><path d="M14.4702 8.46964C14.763 8.17677 15.2378 8.1768 15.5307 8.46964C15.8236 8.76254 15.8236 9.2373 15.5307 9.53019L8.5307 16.5302C8.23781 16.8231 7.76305 16.8231 7.47016 16.5302C7.17727 16.2373 7.17726 15.7625 7.47016 15.4696L14.4702 8.46964Z" fill="currentColor"/></svg>
