<svg xmlns="http://www.w3.org/2000/svg" viewBox="0 0 24 24" fill="none"><path d="M10.6952 3.38564C12.0465 2.03476 14.1444 1.88966 15.6581 2.94717C17.1696 1.9131 19.2488 2.06628 20.5908 3.4081C21.9325 4.74986 22.0849 6.82768 21.0517 8.33877C22.1099 9.85259 21.9648 11.953 20.6132 13.3046C20.341 13.5767 20.0364 13.7973 19.7138 13.9716C20.0651 15.2692 19.7346 16.7135 18.7148 17.7333C17.8626 18.5853 16.7141 18.9547 15.6034 18.8495C15.4327 19.483 15.0998 20.0826 14.6025 20.58C13.0866 22.0958 10.6291 22.0958 9.11321 20.58C7.83371 19.3005 5.75899 19.3006 4.47942 20.58L3.5302 21.5292C3.23733 21.822 2.76255 21.822 2.46966 21.5292C2.17677 21.2363 2.17679 20.7615 2.46966 20.4686L3.41888 19.5194C4.69824 18.2399 4.69829 16.1651 3.41888 14.8856C1.90302 13.3698 1.903 10.9123 3.41888 9.39638C3.91594 8.89937 4.51498 8.56541 5.14837 8.39443C5.04362 7.28406 5.41388 6.13589 6.26556 5.28408C7.28501 4.26464 8.72894 3.93342 10.0263 4.28408C10.2009 3.96148 10.4233 3.65756 10.6952 3.38564ZM15.5302 8.46963C15.2373 8.17679 14.7625 8.17675 14.4697 8.46963L7.46966 15.4696C7.17678 15.7625 7.17677 16.2373 7.46966 16.5302C7.76255 16.823 8.23733 16.823 8.5302 16.5302L15.5302 9.53017C15.8231 9.23731 15.823 8.76253 15.5302 8.46963Z" fill="currentColor" fill-rule="evenodd" clip-rule="evenodd"/></svg>
