<svg xmlns="http://www.w3.org/2000/svg" viewBox="0 0 24 24" fill="none"><path opacity="0.4" d="M22.75 12.05V12V11.95C22.75 10.1092 22.75 8.65129 22.5967 7.51074C22.439 6.33844 22.1067 5.38991 21.3584 4.6416C20.6101 3.89329 19.6616 3.56096 18.4893 3.40332C17.3487 3.24998 15.8908 3.24999 14.0499 3.25H14H10H9.95006C8.10924 3.24999 6.6513 3.24998 5.51074 3.40332C4.33844 3.56096 3.38991 3.89329 2.6416 4.6416C1.89329 5.38991 1.56096 6.33844 1.40332 7.51074C1.24998 8.6513 1.24999 10.1092 1.25 11.9501V12V12.0499C1.24999 13.8908 1.24998 15.3487 1.40332 16.4893C1.56096 17.6616 1.89329 18.6101 2.6416 19.3584C3.38991 20.1067 4.33844 20.439 5.51074 20.5967C6.65129 20.75 8.10922 20.75 9.95003 20.75H10H14H14.05C15.8908 20.75 17.3487 20.75 18.4893 20.5967C19.6616 20.439 20.6101 20.1067 21.3584 19.3584C22.1067 18.6101 22.439 17.6616 22.5967 16.4893C22.75 15.3487 22.75 13.8908 22.75 12.05Z" fill="currentColor"/><path d="M11.96 8.00195C11.9733 8.00143 11.9866 8 12 8C12.0197 8 12.0392 8.00181 12.0586 8.00293C12.978 8.00865 13.7661 8.03059 14.4248 8.11914C15.3526 8.24388 16.172 8.51577 16.8281 9.17188C17.4842 9.82798 17.7561 10.6474 17.8809 11.5752C18.0017 12.4742 18 13.6142 18 15V20.6504C17.4107 20.7051 16.7465 20.7275 16 20.7383V15C16 13.5578 15.9982 12.5766 15.8994 11.8418C15.8045 11.1357 15.6366 10.8085 15.4141 10.5859C15.1915 10.3634 14.8643 10.1955 14.1582 10.1006C13.8283 10.0563 13.4487 10.0335 13 10.0195V20.75H11V10H1.26172C1.2725 9.25352 1.29397 8.58925 1.34863 8H11C11.3343 8 11.6542 8.00044 11.96 8.00195Z" fill="currentColor"/></svg>
