<svg xmlns="http://www.w3.org/2000/svg" viewBox="0 0 24 24" fill="none"><path d="M12.9995 10.0195C13.4482 10.0335 13.8278 10.0563 14.1577 10.1006C14.8638 10.1955 15.191 10.3634 15.4136 10.5859C15.6361 10.8085 15.804 11.1357 15.8989 11.8418C15.9977 12.5766 15.9995 13.5578 15.9995 15V20.7383C15.4032 20.7469 14.7543 20.75 14.0493 20.75H12.9995V10.0195ZM10.9995 10V20.75H9.94971C8.1089 20.75 6.6508 20.75 5.51025 20.5967C4.33795 20.439 3.38942 20.1067 2.64111 19.3584C1.8928 18.6101 1.56047 17.6616 1.40283 16.4893C1.24949 15.3487 1.2495 13.8906 1.24951 12.0498V11.9502C1.24951 11.2452 1.25262 10.5963 1.26123 10H10.9995ZM14.0493 3.25C15.8901 3.24999 17.3482 3.24998 18.4888 3.40332C19.6611 3.56096 20.6096 3.89329 21.3579 4.6416C22.1062 5.38991 22.4386 6.33844 22.5962 7.51074C22.7495 8.65129 22.7495 10.1094 22.7495 11.9502V12.0498C22.7495 13.8906 22.7495 15.3487 22.5962 16.4893C22.4386 17.6616 22.1062 18.6101 21.3579 19.3584C20.6096 20.1067 19.6611 20.439 18.4888 20.5967C18.3318 20.6178 18.1687 20.6347 17.9995 20.6504V15C17.9995 13.6142 18.0012 12.4742 17.8804 11.5752C17.7556 10.6474 17.4837 9.82798 16.8276 9.17188C16.1715 8.51577 15.3521 8.24388 14.4243 8.11914C13.7656 8.03059 12.9775 8.00865 12.0581 8.00293C12.0387 8.00181 12.0192 8 11.9995 8C11.9861 8 11.9728 8.00143 11.9595 8.00195C11.6537 8.00044 11.3338 8 10.9995 8H1.34814C1.36384 7.8308 1.38172 7.66775 1.40283 7.51074C1.56047 6.33844 1.8928 5.38991 2.64111 4.6416C3.38942 3.89329 4.33795 3.56096 5.51025 3.40332C6.65081 3.24998 8.10889 3.24999 9.94971 3.25H14.0493Z" fill="currentColor"/></svg>
