<svg xmlns="http://www.w3.org/2000/svg" viewBox="0 0 24 24" fill="none"><path opacity="0.4" d="M22.75 14.0645V14V13.9355C22.75 12.5725 22.7501 11.4733 22.6338 10.6084C22.5128 9.70829 22.2533 8.95055 21.6514 8.34863C21.0495 7.74672 20.2917 7.48723 19.3916 7.36621C18.5267 7.24995 17.4275 7.24997 16.0644 7.25H16H8H7.93561C6.57252 7.24997 5.47333 7.24995 4.6084 7.36621C3.70829 7.48723 2.95055 7.74672 2.34863 8.34863C1.74672 8.95055 1.48723 9.70829 1.36621 10.6084C1.24995 11.4733 1.24997 12.5725 1.25 13.9356V14V14.0644C1.24997 15.4275 1.24995 16.5267 1.36621 17.3916C1.48723 18.2917 1.74672 19.0495 2.34863 19.6514C2.95055 20.2533 3.70829 20.5128 4.6084 20.6338C5.47332 20.7501 6.5725 20.75 7.93557 20.75H8H16H16.0644C17.4275 20.75 18.5267 20.7501 19.3916 20.6338C20.2917 20.5128 21.0495 20.2533 21.6514 19.6514C22.2533 19.0495 22.5128 18.2917 22.6338 17.3916C22.7501 16.5267 22.75 15.4275 22.75 14.0645Z" fill="currentColor"/><path d="M7.52637 3.25C7.96866 3.24999 8.35041 3.24998 8.66309 3.27832C8.99212 3.30817 9.31793 3.37447 9.625 3.55176C9.96694 3.74921 10.2508 4.03306 10.4482 4.375L10.5098 4.49121C10.6416 4.76376 10.6956 5.04904 10.7217 5.33691C10.7393 5.53179 10.7446 5.75352 10.7471 6H8C6.64213 6 5.42247 5.99508 4.44141 6.12695C4.37825 6.13545 4.31526 6.1463 4.25195 6.15625C4.25325 5.84647 4.257 5.57214 4.27832 5.33691C4.30817 5.00788 4.37447 4.68207 4.55176 4.375C4.74921 4.03306 5.03306 3.74921 5.375 3.55176C5.68207 3.37447 6.00788 3.30817 6.33691 3.27832C6.64959 3.24998 7.03134 3.24999 7.47363 3.25H7.52637Z" fill="currentColor"/><path d="M16.5264 3.25C16.9687 3.24999 17.3504 3.24998 17.6631 3.27832C17.9921 3.30817 18.3179 3.37447 18.625 3.55176C18.9669 3.74921 19.2508 4.03306 19.4482 4.375L19.5098 4.49121C19.6416 4.76376 19.6956 5.04904 19.7217 5.33691C19.743 5.57214 19.7458 5.84647 19.7471 6.15625C19.6841 6.14636 19.6214 6.1354 19.5586 6.12695C18.5775 5.99508 17.3579 6 16 6H13.2529C13.2554 5.75352 13.2607 5.53179 13.2783 5.33691C13.3082 5.00788 13.3745 4.68207 13.5518 4.375C13.7492 4.03306 14.0331 3.74921 14.375 3.55176C14.6821 3.37447 15.0079 3.30817 15.3369 3.27832C15.6496 3.24998 16.0313 3.24999 16.4736 3.25H16.5264Z" fill="currentColor"/></svg>
