<svg xmlns="http://www.w3.org/2000/svg" viewBox="0 0 24 24" fill="none"><path d="M22.7495 14.0645V14V13.9355C22.7495 12.5725 22.7496 11.4733 22.6333 10.6084C22.5123 9.70829 22.2528 8.95055 21.6509 8.34863C21.049 7.74672 20.2912 7.48723 19.3911 7.36621C18.5262 7.24995 17.427 7.24997 16.0639 7.25H15.9995H7.99951H7.93513C6.57203 7.24997 5.47284 7.24995 4.60791 7.36621C3.7078 7.48723 2.95006 7.74672 2.34815 8.34863C1.74623 8.95055 1.48674 9.70829 1.36572 10.6084C1.24946 11.4733 1.24948 12.5725 1.24951 13.9356V14V14.0644C1.24948 15.4275 1.24946 16.5267 1.36572 17.3916C1.48674 18.2917 1.74623 19.0495 2.34815 19.6514C2.95006 20.2533 3.7078 20.5128 4.60791 20.6338C5.47283 20.7501 6.57201 20.75 7.93508 20.75H7.99951H15.9995H16.0639C17.427 20.75 18.5262 20.7501 19.3911 20.6338C20.2912 20.5128 21.049 20.2533 21.6509 19.6514C22.2528 19.0495 22.5123 18.2917 22.6333 17.3916C22.7496 16.5267 22.7495 15.4275 22.7495 14.0645Z" fill="currentColor"/><path d="M7.52588 3.25C7.96817 3.24999 8.34992 3.24998 8.6626 3.27832C8.99163 3.30817 9.31744 3.37447 9.62451 3.55176C9.96645 3.74921 10.2503 4.03306 10.4478 4.375L10.5093 4.49121C10.6411 4.76376 10.6951 5.04904 10.7212 5.33691C10.7389 5.53179 10.7441 5.75352 10.7466 6H7.99951C6.64164 6 5.42198 5.99508 4.44092 6.12695C4.37776 6.13545 4.31477 6.1463 4.25146 6.15625C4.25277 5.84647 4.25651 5.57214 4.27783 5.33691C4.30769 5.00788 4.37398 4.68207 4.55127 4.375C4.74872 4.03306 5.03258 3.74921 5.37451 3.55176C5.68159 3.37447 6.00739 3.30817 6.33643 3.27832C6.6491 3.24998 7.03085 3.24999 7.47314 3.25H7.52588Z" fill="currentColor"/><path d="M16.5259 3.25C16.9682 3.24999 17.3499 3.24998 17.6626 3.27832C17.9916 3.30817 18.3174 3.37447 18.6245 3.55176C18.9664 3.74921 19.2503 4.03306 19.4478 4.375L19.5093 4.49121C19.6411 4.76376 19.6951 5.04904 19.7212 5.33691C19.7425 5.57214 19.7453 5.84647 19.7466 6.15625C19.6836 6.14636 19.6209 6.1354 19.5581 6.12695C18.577 5.99508 17.3574 6 15.9995 6H13.2524C13.2549 5.75352 13.2602 5.53179 13.2778 5.33691C13.3077 5.00788 13.374 4.68207 13.5513 4.375C13.7487 4.03306 14.0326 3.74921 14.3745 3.55176C14.6816 3.37447 15.0074 3.30817 15.3364 3.27832C15.6491 3.24998 16.0308 3.24999 16.4731 3.25H16.5259Z" fill="currentColor"/></svg>
