<svg xmlns="http://www.w3.org/2000/svg" viewBox="0 0 24 24" fill="none"><path d="M3.25 22.748C2.97386 22.748 2.75 22.5242 2.75 22.248V21.1581C2.75 20.4382 3.03597 19.7478 3.545 19.2388L9.05589 13.7279C9.36312 13.4206 9.7798 13.248 10.2143 13.248C10.6488 13.248 11.0655 13.4206 11.3727 13.7279L11.7702 14.1254C12.0774 14.4326 12.25 14.8493 12.25 15.2838C12.25 15.7182 12.0774 16.1349 11.7702 16.4422L6.25928 21.9531C5.75025 22.4621 5.05987 22.748 4.33999 22.748H3.25Z" fill="currentColor"/><path opacity="0.4" d="M12.0896 1.2479L12.0879 1.24791C10.5624 1.24789 9.15452 1.24832 8.17578 1.36314C7.16314 1.48199 6.29458 1.73526 5.55957 2.33091C5.29006 2.54939 5.0445 2.79633 4.82715 3.06724C4.23462 3.80597 3.98252 4.67841 3.86426 5.69615C3.75 6.67985 3.74998 7.91669 3.75 9.45005V14.0243C3.74998 15.246 3.75102 16.3054 3.79981 17.2147L8.17188 12.8436C8.71341 12.3021 9.44806 11.998 10.2139 11.9979C10.9798 11.9979 11.7152 12.302 12.2568 12.8436L12.6543 13.2411C13.1959 13.7827 13.5 14.5181 13.5 15.284C13.4999 16.0498 13.1958 16.7845 12.6543 17.326L7.49121 22.4881C7.68953 22.5299 7.89311 22.5681 8.10352 22.5965C9.22431 22.748 10.7903 22.7479 12.557 22.7479H12.5713H12.5866C14.3521 22.7479 15.776 22.748 16.8965 22.5965C18.0633 22.4388 19.0459 22.1006 19.8262 21.3163C20.6061 20.532 20.9418 19.5446 21.0986 18.3719C21.2497 17.2424 21.25 15.806 21.25 14.0243V10.5497C21.251 9.8864 21.2514 9.29744 21.0273 8.75377C20.8033 8.21027 20.3891 7.79421 19.9219 7.32603L15.1387 2.51841C14.7362 2.11282 14.3796 1.75366 13.9248 1.53502C13.8312 1.49005 13.7355 1.4496 13.6377 1.4149C13.1629 1.24647 12.6586 1.24714 12.0896 1.2479Z" fill="currentColor"/><path d="M13.6373 1.416C13.7353 1.45076 13.8314 1.49075 13.9251 1.53582C14.3799 1.75449 14.7362 2.11356 15.1387 2.51921L19.9215 7.32686L19.9215 7.32686C20.3889 7.79521 20.8036 8.21088 21.0277 8.75463C21.1265 8.99435 21.1816 9.24282 21.2122 9.50258H19.2314C17.8638 9.5026 17.2152 9.50181 16.3483 9.38525C15.4481 9.26424 14.6903 9.00534 14.0884 8.40343C13.4864 7.80151 13.2275 7.04364 13.1065 6.14353C12.9902 5.27834 12.9902 4.63063 12.9902 3.2688V3.26877V1.27734C13.2136 1.30042 13.4283 1.34184 13.6373 1.416Z" fill="currentColor"/></svg>
