<svg xmlns="http://www.w3.org/2000/svg" viewBox="0 0 24 24" fill="none"><path d="M3.24951 22.748C2.97337 22.748 2.74951 22.5242 2.74951 22.248V21.1581C2.74951 20.4382 3.03548 19.7478 3.54451 19.2388L9.0554 13.7279C9.36263 13.4206 9.77931 13.248 10.2138 13.248C10.6483 13.248 11.065 13.4206 11.3722 13.7279L11.7697 14.1254C12.0769 14.4326 12.2495 14.8493 12.2495 15.2838C12.2495 15.7182 12.0769 16.1349 11.7697 16.4422L6.25879 21.9531C5.74977 22.4621 5.05938 22.748 4.33951 22.748H3.24951Z" fill="currentColor"/><path d="M12.0874 1.24791C12.6571 1.24714 13.1619 1.2463 13.6372 1.4149C13.735 1.4496 13.8308 1.49005 13.9243 1.53502C14.3791 1.75366 14.7358 2.11282 15.1382 2.51841L19.9214 7.32603C20.3886 7.79421 20.8028 8.21027 21.0269 8.75377C21.2509 9.29744 21.2505 9.8864 21.2495 10.5497V14.0243C21.2495 15.806 21.2492 17.2424 21.0981 18.3719C20.9413 19.5446 20.6056 20.532 19.8257 21.3163C19.0454 22.1006 18.0628 22.4388 16.896 22.5965C15.7722 22.7484 14.3434 22.7479 12.5708 22.7479C10.7982 22.7479 9.22684 22.7484 8.10303 22.5965C7.89262 22.5681 7.68905 22.5299 7.49072 22.4881L12.6538 17.326C13.1953 16.7845 13.4994 16.0498 13.4995 15.284C13.4995 14.5181 13.1954 13.7827 12.6538 13.2411L12.2563 12.8436C11.7147 12.302 10.9794 11.9979 10.2134 11.9979C9.44757 11.998 8.71292 12.3021 8.17139 12.8436L3.79932 17.2147C3.75053 16.3054 3.74949 15.246 3.74951 14.0243V9.45005C3.74949 7.91669 3.74951 6.67985 3.86377 5.69615C3.98203 4.67841 4.23413 3.80597 4.82666 3.06724C5.04401 2.79633 5.28957 2.54939 5.55908 2.33091C6.29409 1.73526 7.16265 1.48199 8.17529 1.36314C9.15403 1.24832 10.5619 1.24789 12.0874 1.24791ZM12.9897 3.26841C12.9897 4.62971 12.9897 5.2776 13.106 6.14244C13.2269 7.04226 13.4859 7.80038 14.0874 8.4022C14.6893 9.00411 15.448 9.26361 16.3481 9.38462C17.2149 9.50113 17.8636 9.50183 19.231 9.50181C19.1741 9.36405 19.0685 9.2332 18.4507 8.61216L13.8462 3.98326C13.3133 3.44763 13.1714 3.31431 12.9897 3.25962V3.26841Z" fill="currentColor" fill-rule="evenodd" clip-rule="evenodd"/></svg>
