<svg xmlns="http://www.w3.org/2000/svg" viewBox="0 0 24 24" fill="none"><path d="M6.94397 2.25009C8.04864 2.25009 8.79545 2.23823 9.46252 2.48837C10.953 3.04734 11.5498 4.42365 12.0367 5.39755L12.4635 6.25009H16.7731C17.7995 6.25008 18.6269 6.25008 19.2897 6.31747C19.9701 6.38669 20.5606 6.53324 21.0826 6.88193C21.4921 7.15551 21.8442 7.50764 22.1178 7.91708C22.4665 8.43909 22.613 9.02967 22.6823 9.71005C22.7496 10.3729 22.7496 11.2002 22.7496 12.2267V12.2833C22.7496 14.0073 22.7496 15.3584 22.6403 16.4337C22.5289 17.5282 22.2981 18.4202 21.7809 19.1944C21.3614 19.8223 20.8218 20.3618 20.194 20.7813C19.4197 21.2986 18.5278 21.5294 17.4332 21.6407C16.358 21.7501 15.0068 21.7501 13.2828 21.7501H11.9342C9.63008 21.7501 7.82339 21.7501 6.4137 21.5606C4.96897 21.3664 3.82901 20.9603 2.9342 20.0655C2.03943 19.1707 1.63332 18.0307 1.43909 16.586C1.24963 15.1764 1.24962 13.3704 1.24963 11.0665V7.9288C1.24963 7.04156 1.24963 6.32644 1.30042 5.75009C1.3524 5.16044 1.46227 4.64419 1.72522 4.17294C2.0641 3.56572 2.56526 3.06454 3.17249 2.72568C3.64374 2.46273 4.15996 2.35285 4.74963 2.30087C5.32587 2.2501 6.04037 2.25009 6.92737 2.25009H6.94397ZM15.9996 10.0001C15.4473 10.0001 14.9996 10.4478 14.9996 11.0001V17.0001C14.9996 17.5524 15.4473 18.0001 15.9996 18.0001C16.5519 18.0001 16.9996 17.5524 16.9996 17.0001V11.0001C16.9996 10.4478 16.5519 10.0001 15.9996 10.0001ZM7.99963 10.0001C7.44735 10.0001 6.99963 10.4478 6.99963 11.0001V15.0001C6.99963 15.5524 7.44735 16.0001 7.99963 16.0001C8.55192 16.0001 8.99963 15.5524 8.99963 15.0001V11.0001C8.99963 10.4478 8.55192 10.0001 7.99963 10.0001ZM11.9996 10.0001C11.4473 10.0001 10.9996 10.4478 10.9996 11.0001V13.0001C10.9996 13.5524 11.4473 14.0001 11.9996 14.0001C12.5519 14.0001 12.9996 13.5524 12.9996 13.0001V11.0001C12.9996 10.4478 12.5519 10.0001 11.9996 10.0001Z" fill="currentColor" fill-rule="evenodd" clip-rule="evenodd"/></svg>
