<svg xmlns="http://www.w3.org/2000/svg" viewBox="0 0 24 24" fill="none"><path opacity="0.4" d="M19.75 15.0579V15V9V8.94208C19.75 7.3405 19.75 6.0622 19.6152 5.05957C19.4759 4.02332 19.18 3.17025 18.5049 2.49512C17.8298 1.81999 16.9767 1.52409 15.9404 1.38477C14.9378 1.24996 13.6595 1.24998 12.0579 1.25H12H11.9421C10.3405 1.24998 9.06221 1.24996 8.05957 1.38477C7.02332 1.52409 6.17025 1.81999 5.49512 2.49512C4.81999 3.17025 4.52409 4.02332 4.38477 5.05957C4.24996 6.06221 4.24998 7.34053 4.25 8.94213V9V15V15.0579C4.24998 16.6595 4.24996 17.9378 4.38477 18.9404C4.52409 19.9767 4.81999 20.8298 5.49512 21.5049C6.17025 22.18 7.02332 22.4759 8.05957 22.6152C9.06221 22.75 10.3405 22.75 11.9421 22.75H12H12.0579C13.6595 22.75 14.9378 22.75 15.9404 22.6152C16.9767 22.4759 17.8298 22.18 18.5049 21.5049C19.18 20.8298 19.4759 19.9767 19.6152 18.9404C19.75 17.9378 19.75 16.6595 19.75 15.0579Z" fill="currentColor"/><path d="M14.25 11V9C14.25 7.75736 13.2426 6.75 12 6.75C10.7574 6.75 9.75 7.75736 9.75 9V11C9.75 12.2426 10.7574 13.25 12 13.25C12.4142 13.25 12.75 13.5858 12.75 14C12.75 14.4142 12.4142 14.75 12 14.75C9.92893 14.75 8.25 13.0711 8.25 11V9C8.25 6.92893 9.92893 5.25 12 5.25C14.0711 5.25 15.75 6.92893 15.75 9V11C15.75 11.4142 15.4142 11.75 15 11.75C14.5858 11.75 14.25 11.4142 14.25 11Z" fill="currentColor"/><path d="M11.25 11V9C11.25 8.58579 11.5858 8.25 12 8.25C12.4142 8.25 12.75 8.58579 12.75 9V11C12.75 11.4142 12.4142 11.75 12 11.75C11.5858 11.75 11.25 11.4142 11.25 11Z" fill="currentColor"/><path d="M12 18C12.5523 18 13 18.4477 13 19C13 19.5523 12.5523 20 12 20C11.4477 20 11 19.5523 11 19C11 18.4477 11.4477 18 12 18Z" fill="currentColor"/></svg>
