<svg xmlns="http://www.w3.org/2000/svg" viewBox="0 0 24 24" fill="none"><path d="M12.0576 1.25C13.6592 1.24998 14.9378 1.24996 15.9404 1.38477C16.9767 1.52409 17.8298 1.81999 18.5049 2.49512C19.18 3.17025 19.4759 4.02332 19.6152 5.05957C19.75 6.0622 19.75 7.34081 19.75 8.94238L19.75 15.0576C19.75 16.6592 19.75 17.9378 19.6152 18.9404C19.4759 19.9767 19.18 20.8298 18.5049 21.5049C17.8298 22.18 16.9767 22.4759 15.9404 22.6152C14.9378 22.75 13.6592 22.75 12.0576 22.75H11.9424C10.3408 22.75 9.06221 22.75 8.05957 22.6152C7.02332 22.4759 6.17025 22.18 5.49512 21.5049C4.81999 20.8298 4.52409 19.9767 4.38477 18.9404C4.24996 17.9378 4.24998 16.6592 4.25 15.0576L4.25 8.94238C4.24998 7.34078 4.24996 6.06221 4.38477 5.05957C4.52409 4.02332 4.81998 3.17025 5.49512 2.49512C6.17025 1.81998 7.02332 1.52409 8.05957 1.38477C9.06221 1.24996 10.3408 1.24998 11.9424 1.25L12.0576 1.25ZM12 18C11.4477 18 11 18.4477 11 19C11 19.5523 11.4477 20 12 20C12.5523 20 13 19.5523 13 19C13 18.4477 12.5523 18 12 18ZM12 5.25C9.92893 5.25 8.25 6.92893 8.25 9L8.25 11C8.25 13.0711 9.92893 14.75 12 14.75C12.4142 14.75 12.75 14.4142 12.75 14C12.75 13.5858 12.4142 13.25 12 13.25C10.7574 13.25 9.75 12.2426 9.75 11L9.75 9C9.75 7.75736 10.7574 6.75 12 6.75C13.2426 6.75 14.25 7.75736 14.25 9V11C14.25 11.4142 14.5858 11.75 15 11.75C15.4142 11.75 15.75 11.4142 15.75 11V9C15.75 6.92893 14.0711 5.25 12 5.25ZM12 8.25C11.5858 8.25 11.25 8.58579 11.25 9L11.25 11C11.25 11.4142 11.5858 11.75 12 11.75C12.4142 11.75 12.75 11.4142 12.75 11V9C12.75 8.58579 12.4142 8.25 12 8.25Z" fill="currentColor"/></svg>
