<svg xmlns="http://www.w3.org/2000/svg" viewBox="0 0 24 24" fill="none"><path opacity="0.4" d="M22.75 16.0388V16.0001V11.0001V10.9473C22.75 10.2836 22.75 9.73976 22.7139 9.29694C22.676 8.83368 22.5946 8.41521 22.3955 8.02448C22.0839 7.41311 21.587 6.91611 20.9756 6.60455C20.5849 6.40546 20.1664 6.32404 19.7031 6.28619C19.3052 6.25368 18.8257 6.25143 18.251 6.25104L14.8496 3.70026L14.8103 3.67079C14.264 3.26104 13.8026 2.91491 13.3936 2.67682C12.9578 2.4232 12.5143 2.25006 12 2.25006C11.4857 2.25006 11.0422 2.4232 10.6064 2.67682C10.1974 2.91491 9.73597 3.26104 9.18969 3.67079L9.15039 3.70026L5.74805 6.25104C5.17377 6.25143 4.69458 6.2537 4.29688 6.28619C3.83363 6.32404 3.41515 6.40546 3.02442 6.60455C2.41305 6.91611 1.91606 7.41311 1.60449 8.02448C1.40541 8.41521 1.32399 8.83368 1.28614 9.29694C1.24996 9.73975 1.24998 10.2836 1.25 10.9473L1.25 11.0001V16.0001L1.25 16.0388C1.24999 17.1783 1.24998 18.1088 1.34864 18.8428C1.45135 19.6068 1.67346 20.2692 2.20215 20.7979C2.73084 21.3266 3.39328 21.5487 4.15723 21.6514C4.89126 21.7501 5.82177 21.7501 6.96127 21.7501H7H17H17.0387C18.1782 21.7501 19.1087 21.7501 19.8428 21.6514C20.6067 21.5487 21.2692 21.3266 21.7979 20.7979C22.3265 20.2692 22.5487 19.6068 22.6514 18.8428C22.75 18.1088 22.75 17.1783 22.75 16.0388Z" fill="currentColor"/><path d="M12 15.5001C13.1046 15.5001 14 16.3955 14 17.5001V21.7501H10V17.5001C10 16.3955 10.8954 15.5001 12 15.5001Z" fill="currentColor"/><path d="M6.5 10.2501L6.57715 10.254C6.95512 10.2926 7.25 10.6119 7.25 11.0001V12.0001L7.24609 12.0772C7.20747 12.4552 6.88817 12.7501 6.5 12.7501H5.5C5.08579 12.7501 4.75 12.4143 4.75 12.0001V11.0001C4.75 10.5858 5.08579 10.2501 5.5 10.2501H6.5Z" fill="currentColor"/><path d="M6.5 14.7501L6.57715 14.754C6.95512 14.7926 7.25 15.1119 7.25 15.5001V16.5001L7.24609 16.5772C7.20747 16.9552 6.88817 17.2501 6.5 17.2501H5.5C5.08579 17.2501 4.75 16.9143 4.75 16.5001V15.5001C4.75 15.0858 5.08579 14.7501 5.5 14.7501H6.5Z" fill="currentColor"/><path d="M18.5 10.2501L18.5771 10.254C18.9551 10.2926 19.25 10.6119 19.25 11.0001V12.0001L19.2461 12.0772C19.2075 12.4552 18.8882 12.7501 18.5 12.7501H17.5C17.0858 12.7501 16.75 12.4143 16.75 12.0001V11.0001C16.75 10.5858 17.0858 10.2501 17.5 10.2501H18.5Z" fill="currentColor"/><path d="M18.5 14.7501L18.5771 14.754C18.9551 14.7926 19.25 15.1119 19.25 15.5001V16.5001L19.2461 16.5772C19.2075 16.9552 18.8882 17.2501 18.5 17.2501H17.5C17.0858 17.2501 16.75 16.9143 16.75 16.5001V15.5001C16.75 15.0858 17.0858 14.7501 17.5 14.7501H18.5Z" fill="currentColor"/><path d="M12 12.0001C13.3807 12.0001 14.5 10.8808 14.5 9.50006C14.5 8.11936 13.3807 7.00006 12 7.00006C10.6193 7.00006 9.5 8.11936 9.5 9.50006C9.5 10.8808 10.6193 12.0001 12 12.0001Z" fill="currentColor"/></svg>
