<svg xmlns="http://www.w3.org/2000/svg" viewBox="0 0 24 24" fill="none"><path d="M12 2.25006C12.5143 2.25006 12.9578 2.4232 13.3936 2.67682C13.8026 2.91491 14.2643 3.26121 14.8105 3.67096L14.8496 3.70026L18.251 6.25104C18.8257 6.25143 19.3052 6.25368 19.7031 6.28619C20.1664 6.32404 20.5849 6.40546 20.9756 6.60455C21.587 6.91611 22.0839 7.41311 22.3955 8.02448C22.5946 8.41521 22.676 8.83368 22.7139 9.29694C22.75 9.73976 22.75 10.2837 22.75 10.9473V16.0391C22.75 17.1785 22.75 18.1089 22.6514 18.8428C22.5487 19.6068 22.3265 20.2692 21.7979 20.7979C21.2692 21.3266 20.6067 21.5487 19.8428 21.6514C19.1088 21.7501 18.1784 21.7501 17.0391 21.7501H6.96094C5.82159 21.7501 4.89119 21.7501 4.15723 21.6514C3.39328 21.5487 2.73084 21.3266 2.20215 20.7979C1.67346 20.2692 1.45134 19.6068 1.34863 18.8428C1.24999 18.1089 1.24999 17.1785 1.25 16.0391V10.9473C1.24998 10.2837 1.24995 9.73975 1.28613 9.29694C1.32398 8.83368 1.4054 8.41521 1.60449 8.02448C1.91605 7.41311 2.41305 6.91611 3.02442 6.60455C3.41515 6.40546 3.83362 6.32404 4.29688 6.28619C4.69457 6.2537 5.17377 6.25143 5.74805 6.25104L9.15039 3.70026L9.18945 3.67096C9.73573 3.26121 10.1974 2.91491 10.6064 2.67682C11.0422 2.4232 11.4857 2.25006 12 2.25006ZM12 15.5001C10.8954 15.5001 10 16.3955 10 17.5001V20.2501H14V17.5001C14 16.3955 13.1046 15.5001 12 15.5001ZM5.5 14.7501C5.08579 14.7501 4.75 15.0858 4.75 15.5001V16.5001C4.75 16.9143 5.08579 17.2501 5.5 17.2501H6.5C6.88817 17.2501 7.20747 16.9552 7.2461 16.5772L7.25 16.5001V15.5001C7.25 15.1119 6.95512 14.7926 6.57715 14.754L6.5 14.7501H5.5ZM17.5 14.7501C17.0858 14.7501 16.75 15.0858 16.75 15.5001V16.5001C16.75 16.9143 17.0858 17.2501 17.5 17.2501H18.5C18.8882 17.2501 19.2075 16.9552 19.2461 16.5772L19.25 16.5001V15.5001C19.25 15.1119 18.9551 14.7926 18.5772 14.754L18.5 14.7501H17.5ZM5.5 10.2501C5.08579 10.2501 4.75 10.5858 4.75 11.0001V12.0001C4.75 12.4143 5.08579 12.7501 5.5 12.7501H6.5C6.88817 12.7501 7.20747 12.4552 7.2461 12.0772L7.25 12.0001V11.0001C7.25 10.6119 6.95512 10.2926 6.57715 10.254L6.5 10.2501H5.5ZM17.5 10.2501C17.0858 10.2501 16.75 10.5858 16.75 11.0001V12.0001C16.75 12.4143 17.0858 12.7501 17.5 12.7501H18.5C18.8882 12.7501 19.2075 12.4552 19.2461 12.0772L19.25 12.0001V11.0001C19.25 10.6119 18.9551 10.2926 18.5772 10.254L18.5 10.2501H17.5ZM12 7.00006C10.6193 7.00006 9.5 8.11936 9.5 9.50006C9.5 10.8808 10.6193 12.0001 12 12.0001C13.3807 12.0001 14.5 10.8808 14.5 9.50006C14.5 8.11936 13.3807 7.00006 12 7.00006Z" fill="currentColor" fill-rule="evenodd" clip-rule="evenodd"/></svg>
