<svg xmlns="http://www.w3.org/2000/svg" fill="none" viewBox="0 0 48 48">
  <g>
    <g>
      <path fill="#8fbffa" d="M37.5792 37.5794c1.5089 -0.1159 2.7521 -0.2475 3.7753 -0.3836 2.7883 -0.3709 3.594 -2.8436 2.1168 -5.2373l-1.4556 -2.3586c-1.3252 -2.1472 -2.1237 -4.5775 -2.3304 -7.0922l-0.5387 -6.5547C38.4985 8.06867 31.9106 2 23.9997 2c-5.9158 0 -11.0919 3.39377 -13.5973 8.4027l27.1768 27.1767Z" stroke-width="1"></path>
      <path fill="#8fbffa" d="M8.96613 14.9663c-0.04805 0.3254 -0.0859 0.6544 -0.1132 0.9866l-0.53875 6.5548c-0.20669 2.5147 -1.00523 4.945 -2.33039 7.0922L4.5282 31.9585c-1.47725 2.3937 -0.67147 4.8664 2.1168 5.2373 3.18819 0.4241 8.5122 0.8042 17.3547 0.8042 3.0186 0 5.6271 -0.0443 7.8806 -0.1195L8.96613 14.9663Z" stroke-width="1"></path>
    </g>
    <path fill="currentColor" fill-opacity="0.4" d="M16.0009 37.877c2.2805 0.0776 4.9275 0.1235 7.9991 0.1235s5.7186 -0.0459 7.9991 -0.1235c0.0006 0.041 0.0009 0.0822 0.0009 0.1235 0 4.4182 -3.5817 8 -8 8s-8 -3.5818 -8 -8c0 -0.0413 0.0003 -0.0825 0.0009 -0.1235Z" stroke-width="1"></path>
    <path stroke="currentColor" stroke-linejoin="round" d="M16.0009 37.877c2.2805 0.0776 4.9275 0.1235 7.9991 0.1235s5.7186 -0.0459 7.9991 -0.1235c0.0006 0.041 0.0009 0.0822 0.0009 0.1235 0 4.4182 -3.5817 8 -8 8s-8 -3.5818 -8 -8c0 -0.0413 0.0003 -0.0825 0.0009 -0.1235Z" stroke-width="1"></path>
    <path stroke="currentColor" stroke-linecap="round" stroke-linejoin="round" d="m2 2 44 44" stroke-width="1"></path>
    <path stroke="currentColor" stroke-linecap="round" stroke-linejoin="round" d="M37.5792 37.5794c1.5089 -0.1159 2.7521 -0.2475 3.7753 -0.3836 2.7883 -0.3709 3.594 -2.8436 2.1168 -5.2373l-1.4556 -2.3586c-1.3252 -2.1472 -2.1237 -4.5775 -2.3304 -7.0922l-0.5387 -6.5547C38.4985 8.06867 31.9106 2 23.9997 2c-5.9158 0 -11.0919 3.39377 -13.5973 8.4027M8.86076 15.861c-0.0027 0.0306 -0.00531 0.0613 -0.00783 0.0919l-0.53875 6.5548c-0.20669 2.5147 -1.00523 4.945 -2.33039 7.0922L4.5282 31.9585c-1.47725 2.3937 -0.67147 4.8664 2.1168 5.2373 3.18819 0.4241 8.5122 0.8042 17.3547 0.8042 2.5948 0 4.8866 -0.0327 6.9103 -0.0897" stroke-width="1"></path>
  </g>
</svg>
