<svg xmlns="http://www.w3.org/2000/svg" fill="none" viewBox="0 0 48 48">
  <g>
    <path fill="currentColor" fill-opacity="0.4" fill-rule="evenodd" d="M7.35887 15.8301C8.07085 7.16763 15.309 0.5 24.0006 0.5c8.6917 0 15.9298 6.66763 16.6418 15.3301l0.5388 6.5547c0.1873 2.279 0.911 4.4814 2.1119 6.4273l1.877 3.0415c0.7898 1.2797 1.0893 2.784 0.5922 4.1402 -0.5186 1.4149 -1.7787 2.3273 -3.3837 2.5715 -3.1761 0.4833 -8.7164 0.9347 -18.378 0.9347 -9.6615 0 -15.20177 -0.4514 -18.37791 -0.9347 -1.60495 -0.2442 -2.86514 -1.1566 -3.38371 -2.5715 -0.49706 -1.3562 -0.19757 -2.8605 0.59223 -4.1402l1.877 -3.0414c1.20093 -1.946 1.9246 -4.1484 2.11192 -6.4274l0.53874 -6.5547ZM24.001 42.4998c-3.2669 0 -6.0804 -0.0511 -8.5049 -0.1385 1.5576 3.1193 4.7808 5.2616 8.5044 5.2616 3.7236 0 6.9468 -2.1423 8.5044 -5.2615 -2.4242 0.0873 -5.2374 0.1384 -8.5039 0.1384Z" clip-rule="evenodd" stroke-width="3.429"></path>
    <path fill="currentColor" fill-rule="evenodd" d="M1.62868 1.62868c1.17157 -1.171573 3.07107 -1.171573 4.24264 0L46.3713 42.1287c1.1716 1.1716 1.1716 3.071 0 4.2426 -1.1716 1.1716 -3.071 1.1716 -4.2426 0L1.62868 5.87132c-1.171573 -1.17157 -1.171573 -3.07107 0 -4.24264Z" clip-rule="evenodd" stroke-width="3.429"></path>
  </g>
</svg>
