<svg xmlns="http://www.w3.org/2000/svg" fill="none" viewBox="0 0 48 48">
  <g>
    <path fill="currentColor" fill-rule="evenodd" d="M3.91421 1.08579c-0.78105 -0.781052 -2.04738 -0.781052 -2.82842 0 -0.781052 0.78104 -0.781052 2.04737 0 2.82842L36.0759 38.9044c0.0571 0.0649 0.1183 0.1261 0.1832 0.1831l7.8267 7.8267c0.781 0.7811 2.0474 0.7811 2.8284 0 0.7811 -0.781 0.7811 -2.0474 0 -2.8284l-4.9507 -4.9507c1.8093 -0.334 3.2771 -1.3826 3.916 -3.0448 0.6504 -1.6919 0.2605 -3.5539 -0.7126 -5.1089 -1.8374 -2.9359 -3.2375 -5.4159 -3.4883 -8.4247l-0.5387 -6.4637C40.4036 7.25869 32.9278 0.5 24 0.5c-5.6222 0 -10.6613 2.67714 -13.8102 6.86141L3.91421 1.08579ZM9.03918 14.1765c1.10022 0.0984 1.91232 1.07 1.81392 2.1702l-0.0068 0.0786 -0.5388 6.4637c-0.33973 4.0761 -2.25659 7.295 -4.0837 10.2145l-1.69536 -1.0611 1.69536 1.0611c-0.5041 0.8054 -0.44995 1.3429 -0.36971 1.5516 0.05115 0.1331 0.23123 0.4613 1.05126 0.5689 1.9924 0.2613 4.89485 0.5104 9.09225 0.653 0.0157 -0.0001 0.0314 0.0001 0.0471 0.0004l0.0201 0.0006c2.2565 0.072 4.882 0.1148 7.9352 0.1148 3.0532 0 5.6788 -0.0428 7.9352 -0.1148 0.5357 -0.0171 1.0558 0.1814 1.4437 0.5512 0.388 0.3697 0.6113 0.8797 0.6199 1.4155 0.0008 0.0492 0.0012 0.0986 0.0012 0.1481 0 5.3676 -4.5996 9.5042 -10 9.5042 -4.7729 0 -8.9204 -3.2312 -9.8197 -7.6877 -3.4221 -0.1509 -5.94069 -0.376 -7.79517 -0.6193 -1.96824 -0.2582 -3.58519 -1.332 -4.26468 -3.0997 -0.6504 -1.6919 -0.26052 -3.5539 0.71263 -5.1089 1.83741 -2.9359 3.23747 -5.4159 3.48826 -8.4247l0.53874 -6.4637c0.00286 -0.0342 0.00581 -0.0685 0.00887 -0.1027 0.09841 -1.1002 1.07005 -1.9123 2.17023 -1.8138ZM24 40c-2.0475 0 -3.9109 -0.02 -5.6068 -0.056 0.8439 2.0298 2.9681 3.553 5.6068 3.553 2.6407 0 4.7661 -1.5254 5.6088 -3.5575 -1.648 0.0333 -3.4553 0.0522 -5.4374 0.0533 -0.0565 0.0048 -0.1137 0.0072 -0.1714 0.0072Z" clip-rule="evenodd" stroke-width="1"></path>
  </g>
</svg>
