<svg xmlns="http://www.w3.org/2000/svg" viewBox="0 0 24 24" fill="none"><path d="M7.24951 3C7.24951 2.0335 8.03301 1.25 8.99951 1.25H13.9995C14.966 1.25 15.7495 2.0335 15.7495 3C15.7495 3.9665 14.966 4.75 13.9995 4.75H8.99951C8.03301 4.75 7.24951 3.9665 7.24951 3Z" fill="currentColor" fill-rule="evenodd" clip-rule="evenodd"/><path d="M12.6567 10.1944C13.1014 9.86726 13.7268 9.9628 14.0542 10.4073C14.3817 10.852 14.287 11.4782 13.8423 11.8057H13.8413C13.8403 11.8065 13.8387 11.808 13.8364 11.8096L13.7231 11.8946C13.6447 11.9538 13.5317 12.0397 13.396 12.1456C13.1231 12.3585 12.7623 12.6486 12.4048 12.9591C12.3893 12.9725 12.3743 12.9866 12.3589 13.0001H20.2495C20.8018 13.0001 21.2495 13.4478 21.2495 14.0001C21.2495 14.5524 20.8018 15.0001 20.2495 15.0001H12.3589C12.3743 15.0135 12.3893 15.0276 12.4048 15.0411C12.7623 15.3515 13.1231 15.6416 13.396 15.8546C13.5317 15.9605 13.6447 16.0463 13.7231 16.1055L13.8364 16.1905C13.8387 16.1922 13.8403 16.1937 13.8413 16.1944H13.8423C14.2869 16.5218 14.3824 17.1482 14.0552 17.5928C13.7278 18.0374 13.1014 18.1329 12.6567 17.8057V17.8048H12.6558C12.6552 17.8044 12.6537 17.8035 12.6528 17.8028C12.6511 17.8015 12.649 17.7992 12.646 17.7969C12.6396 17.7922 12.6304 17.7852 12.6187 17.7764C12.5951 17.7589 12.5609 17.7336 12.5181 17.7012C12.4325 17.6366 12.3108 17.5441 12.1655 17.4307C11.876 17.2048 11.4866 16.8925 11.0942 16.5518C10.7069 16.2155 10.2934 15.8318 9.96924 15.4649C9.80812 15.2826 9.64742 15.0802 9.52197 14.8721C9.41307 14.6915 9.24951 14.3773 9.24951 14.0001C9.24952 13.6228 9.41307 13.3087 9.52197 13.128C9.64742 12.9199 9.80812 12.7176 9.96924 12.5352C10.2934 12.1684 10.7069 11.7846 11.0942 11.4483C11.4866 11.1077 11.876 10.7954 12.1655 10.5694C12.3109 10.456 12.4325 10.3636 12.5181 10.2989C12.5609 10.2665 12.5951 10.2413 12.6187 10.2237C12.6304 10.2149 12.6396 10.208 12.646 10.2032C12.649 10.201 12.6511 10.1986 12.6528 10.1973L12.6558 10.1954H12.6567V10.1944Z" fill="currentColor"/><path opacity="0.4" d="M16.9956 3.13281C17.8497 3.25976 18.5725 3.51934 19.1509 4.09766C19.7526 4.69966 20.0122 5.45824 20.1333 6.3584C20.2496 7.22349 20.2495 8.3242 20.2495 9.6875V11.75H15.3706C15.5857 11.1391 15.5344 10.4452 15.188 9.8584L15.061 9.66602L14.9146 9.48828C14.1657 8.66147 12.9096 8.50498 11.9761 9.14746C11.8872 9.21459 11.5482 9.4652 11.396 9.58398C11.0961 9.81807 10.6889 10.1454 10.2749 10.5049C9.87218 10.8546 9.41055 11.2805 9.03272 11.708C8.84592 11.9194 8.63119 12.1847 8.45166 12.4824C8.30809 12.7206 7.99954 13.2759 7.99951 14C7.99957 14.7242 8.30816 15.2795 8.45166 15.5176C8.63125 15.8154 8.84585 16.0815 9.03272 16.293C9.41062 16.7205 9.8721 17.1464 10.2749 17.4961C10.6889 17.8555 11.097 18.182 11.397 18.416C11.5492 18.5348 11.9206 18.807 12.0093 18.874C13.003 19.5328 14.348 19.3034 15.062 18.334L15.189 18.1416C15.5354 17.5545 15.5858 16.8606 15.3706 16.25H20.2495C20.2493 17.5271 20.2442 18.5665 20.1333 19.3916C20.0122 20.2918 19.7526 21.0503 19.1509 21.6523C18.549 22.2542 17.791 22.5128 16.8911 22.6338C16.0263 22.7501 14.9269 22.75 13.564 22.75H9.43506C8.07213 22.75 6.97276 22.7501 6.10791 22.6338C5.20805 22.5128 4.44998 22.2542 3.84815 21.6523C3.24639 21.0503 2.98678 20.2918 2.86572 19.3916C2.74947 18.5266 2.74949 17.4257 2.74951 16.0625V9.6875C2.74949 8.32433 2.74947 7.22343 2.86572 6.3584C2.98678 5.45824 3.24639 4.69966 3.84815 4.09766C4.42627 3.51955 5.14881 3.25981 6.00244 3.13281C6.07194 4.72804 7.38716 6 8.99951 6H13.9995C15.6118 6 16.9261 4.72802 16.9956 3.13281Z" fill="currentColor"/></svg>
