<svg xmlns="http://www.w3.org/2000/svg" viewBox="0 0 24 24" fill="none"><path d="M7.24951 3.00049C7.24951 2.03399 8.03301 1.25049 8.99951 1.25049H13.9995C14.966 1.25049 15.7495 2.03399 15.7495 3.00049C15.7495 3.96699 14.966 4.75049 13.9995 4.75049H8.99951C8.03301 4.75049 7.24951 3.96699 7.24951 3.00049Z" fill="currentColor" fill-rule="evenodd" clip-rule="evenodd"/><path d="M12.6567 10.1949C13.1014 9.86775 13.7268 9.96329 14.0542 10.4078C14.3817 10.8525 14.287 11.4787 13.8423 11.8062H13.8413C13.8403 11.807 13.8387 11.8084 13.8364 11.8101L13.7231 11.8951C13.6447 11.9543 13.5317 12.0401 13.396 12.1461C13.1231 12.359 12.7623 12.6491 12.4048 12.9595C12.3893 12.973 12.3743 12.9871 12.3589 13.0006H20.2495C20.8018 13.0006 21.2495 13.4483 21.2495 14.0006C21.2495 14.5528 20.8018 15.0006 20.2495 15.0006H12.3589C12.3743 15.014 12.3893 15.0281 12.4048 15.0416C12.7623 15.352 13.1231 15.6421 13.396 15.8551C13.5317 15.961 13.6447 16.0468 13.7231 16.106L13.8364 16.191C13.8387 16.1927 13.8403 16.1941 13.8413 16.1949H13.8423C14.2869 16.5223 14.3824 17.1487 14.0552 17.5933C13.7278 18.0379 13.1014 18.1334 12.6567 17.8062V17.8052H12.6558C12.6552 17.8048 12.6537 17.804 12.6528 17.8033C12.6511 17.802 12.649 17.7997 12.646 17.7974C12.6396 17.7927 12.6304 17.7857 12.6187 17.7769C12.5951 17.7594 12.5609 17.7341 12.5181 17.7017C12.4325 17.6371 12.3108 17.5446 12.1655 17.4312C11.876 17.2053 11.4866 16.893 11.0942 16.5523C10.7069 16.216 10.2934 15.8323 9.96924 15.4654C9.80812 15.2831 9.64742 15.0807 9.52197 14.8726C9.41307 14.692 9.24951 14.3778 9.24951 14.0006C9.24952 13.6233 9.41307 13.3091 9.52197 13.1285C9.64742 12.9204 9.80812 12.7181 9.96924 12.5357C10.2934 12.1689 10.7069 11.7851 11.0942 11.4488C11.4866 11.1082 11.876 10.7959 12.1655 10.5699C12.3109 10.4565 12.4325 10.3641 12.5181 10.2994C12.5609 10.267 12.5951 10.2418 12.6187 10.2242C12.6304 10.2154 12.6396 10.2084 12.646 10.2037C12.649 10.2014 12.6511 10.1991 12.6528 10.1978L12.6558 10.1959H12.6567V10.1949Z" fill="currentColor"/><path d="M16.9956 3.1333C17.8497 3.26024 18.5725 3.51983 19.1509 4.09814C19.7526 4.70015 20.0122 5.45873 20.1333 6.35889C20.2496 7.22398 20.2495 8.32469 20.2495 9.68799V11.7505H15.3706C15.5857 11.1396 15.5344 10.4456 15.188 9.85889L15.061 9.6665L14.9146 9.48877C14.1657 8.66196 12.9096 8.50547 11.9761 9.14795C11.8872 9.21508 11.5482 9.46569 11.396 9.58447C11.0961 9.81856 10.6889 10.1459 10.2749 10.5054C9.87218 10.855 9.41055 11.281 9.03272 11.7085C8.84592 11.9199 8.63119 12.1852 8.45166 12.4829C8.30809 12.7211 7.99954 13.2764 7.99951 14.0005C7.99957 14.7246 8.30816 15.28 8.45166 15.5181C8.63125 15.8159 8.84585 16.082 9.03272 16.2935C9.41062 16.721 9.8721 17.1469 10.2749 17.4966C10.6889 17.856 11.097 18.1824 11.397 18.4165C11.5492 18.5353 11.9206 18.8075 12.0093 18.8745C13.003 19.5333 14.348 19.3039 15.062 18.3345L15.189 18.1421C15.5354 17.555 15.5858 16.8611 15.3706 16.2505H20.2495C20.2493 17.5276 20.2442 18.567 20.1333 19.3921C20.0122 20.2922 19.7526 21.0508 19.1509 21.6528C18.549 22.2546 17.791 22.5132 16.8911 22.6343C16.0263 22.7506 14.9269 22.7505 13.564 22.7505H9.43506C8.07213 22.7505 6.97276 22.7506 6.10791 22.6343C5.20805 22.5132 4.44998 22.2546 3.84815 21.6528C3.24639 21.0508 2.98678 20.2922 2.86572 19.3921C2.74947 18.5271 2.74949 17.4262 2.74951 16.063V9.68799C2.74949 8.32482 2.74947 7.22392 2.86572 6.35889C2.98678 5.45873 3.24639 4.70015 3.84815 4.09814C4.42627 3.52004 5.14881 3.2603 6.00244 3.1333C6.07194 4.72853 7.38716 6.00049 8.99951 6.00049H13.9995C15.6118 6.00049 16.9261 4.72851 16.9956 3.1333Z" fill="currentColor"/></svg>
