<svg xmlns="http://www.w3.org/2000/svg" viewBox="0 0 24 24" fill="none"><path opacity="0.4" d="M15.9562 1.24964C16.8167 1.24958 17.5585 1.24945 18.1524 1.32971C18.7896 1.41586 19.4002 1.61101 19.8956 2.10901C20.3909 2.60697 20.5843 3.22055 20.67 3.86096C20.7498 4.45786 20.7502 5.20327 20.7501 6.068V17.8629C20.7501 18.4027 20.3144 18.8405 19.7774 18.8405H19.6876C19.6573 18.8765 19.6245 18.9157 19.5929 18.9596C19.4255 19.1921 19.2921 19.4842 19.2921 19.818C19.2921 20.1516 19.4256 20.443 19.5929 20.6754C19.6245 20.7194 19.6572 20.7595 19.6876 20.7955H19.7774C20.3143 20.7955 20.75 21.2325 20.7501 21.7721C20.7501 22.3118 20.3144 22.7496 19.7774 22.7496H6.16709C4.55632 22.7496 3.2502 21.4371 3.2501 19.818V8.03479C3.25008 6.70569 3.25046 5.61026 3.36631 4.74378C3.48759 3.83703 3.75186 3.03634 4.38975 2.39514C5.02756 1.75403 5.82375 1.48777 6.72569 1.36585C7.5877 1.24937 8.67782 1.24961 10.0001 1.24964H15.9562ZM6.16709 18.8395C5.63015 18.8395 5.19444 19.2773 5.19444 19.817C5.19458 20.3566 5.63024 20.7936 6.16709 20.7936H17.5001C17.4083 20.5022 17.3478 20.1758 17.3478 19.817C17.3478 19.458 17.4082 19.1311 17.5001 18.8395H6.16709Z" fill="currentColor" fill-rule="evenodd" clip-rule="evenodd"/><path d="M11.2452 13.7491C9.90507 12.7563 7.2501 10.4866 7.2501 8.44406C7.2501 7.09404 8.2501 5.99963 9.6251 5.99963C10.3376 5.99963 11.0501 6.23493 12.0001 7.17609C12.9501 6.23493 13.6626 5.99963 14.3751 5.99963C15.7501 5.99963 16.7501 7.09404 16.7501 8.44406C16.7501 10.4866 14.0951 12.7563 12.755 13.7491C12.3041 14.0832 11.6961 14.0832 11.2452 13.7491Z" fill="currentColor"/></svg>
