<svg xmlns="http://www.w3.org/2000/svg" viewBox="0 0 24 24" fill="none"><path d="M15.9561 1.24964C16.8167 1.24958 17.5585 1.24945 18.1524 1.32971C18.7896 1.41586 19.4002 1.61101 19.8956 2.10901C20.3909 2.60697 20.5843 3.22055 20.67 3.86096C20.7498 4.45786 20.7501 5.20327 20.7501 6.068V17.8629C20.7501 18.4027 20.3144 18.8405 19.7774 18.8405H19.6876C19.6573 18.8765 19.6245 18.9157 19.5929 18.9596C19.4255 19.1921 19.2921 19.4842 19.2921 19.818C19.2921 20.1516 19.4255 20.443 19.5929 20.6754C19.6245 20.7194 19.6572 20.7595 19.6876 20.7955H19.7774C20.3143 20.7955 20.7499 21.2325 20.7501 21.7721C20.7501 22.3118 20.3144 22.7496 19.7774 22.7496H6.16708C4.55631 22.7496 3.25019 21.4371 3.25009 19.818V8.03479C3.25007 6.70569 3.25045 5.61026 3.3663 4.74378C3.48758 3.83704 3.75186 3.03634 4.38974 2.39514C5.02756 1.75403 5.82374 1.48777 6.72568 1.36585C7.58769 1.24937 8.67781 1.24961 10.0001 1.24964H15.9561ZM6.16708 18.8395C5.63014 18.8395 5.19443 19.2773 5.19443 19.817C5.19457 20.3566 5.63023 20.7936 6.16708 20.7936H17.5001C17.4083 20.5022 17.3478 20.1758 17.3477 19.817C17.3477 19.458 17.4082 19.1311 17.5001 18.8395H6.16708ZM14.3751 5.99964C13.6626 5.99964 12.9501 6.23523 12.0001 7.17639C11.0501 6.23523 10.3376 5.99964 9.62509 5.99964C8.25012 5.99964 7.25014 7.094 7.25009 8.44397C7.25009 10.4864 9.90505 12.7558 11.2452 13.7487C11.6962 14.0827 12.304 14.0827 12.755 13.7487C14.0951 12.7558 16.7501 10.4864 16.7501 8.44397C16.75 7.094 15.7501 5.99964 14.3751 5.99964Z" fill="currentColor" fill-rule="evenodd" clip-rule="evenodd"/></svg>
