<svg xmlns="http://www.w3.org/2000/svg" viewBox="0 0 24 24" fill="none"><path opacity="0.4" d="M2.45282 21.4881C4.03941 19.7957 5.28692 17.9241 6.28258 16.001H17.7174C18.713 17.9241 19.9605 19.7957 21.5471 21.4881C21.7516 21.7062 21.807 22.0249 21.6882 22.2992C21.5693 22.5735 21.2989 22.751 21 22.751H17C16.6719 22.751 16.3819 22.5378 16.2841 22.2246C15.6352 20.1471 13.9212 18.751 12 18.751C10.0788 18.751 8.36471 20.1471 7.71587 22.2246C7.61806 22.5378 7.32806 22.751 6.99997 22.751H2.99997C2.70102 22.751 2.43062 22.5735 2.31178 22.2992C2.19294 22.0249 2.24835 21.7062 2.45282 21.4881Z" fill="currentColor"/><path opacity="0.4" d="M7.22522 14.001C7.65526 12.9972 8.02612 11.9913 8.34982 11.001H15.6501C15.9738 11.9913 16.3447 12.9972 16.7747 14.001H7.22522Z" fill="currentColor"/><path opacity="0.4" d="M11.25 2.00104V3.25104C10.6979 3.25104 10.223 3.64015 10.1078 4.18002C9.79665 5.63804 9.36866 7.48454 8.95048 9.00104H15.0495C14.6313 7.48455 14.2033 5.63807 13.8922 4.18005C13.777 3.64016 13.302 3.25104 12.75 3.25104V2.00104C12.75 1.58682 12.4142 1.25104 12 1.25104C11.5857 1.25104 11.25 1.58682 11.25 2.00104Z" fill="currentColor"/><path d="M6.75 11.001C6.75 10.5868 7.08579 10.251 7.5 10.251H16.5C16.9142 10.251 17.25 10.5868 17.25 11.001C17.25 11.4153 16.9142 11.751 16.5 11.751H7.5C7.08579 11.751 6.75 11.4153 6.75 11.001Z" fill="currentColor" fill-rule="evenodd" clip-rule="evenodd"/><path d="M5.25 16.001C5.25 15.5868 5.58579 15.251 6 15.251H18C18.4142 15.251 18.75 15.5868 18.75 16.001C18.75 16.4153 18.4142 16.751 18 16.751H6C5.58579 16.751 5.25 16.4153 5.25 16.001Z" fill="currentColor" fill-rule="evenodd" clip-rule="evenodd"/></svg>
