<svg xmlns="http://www.w3.org/2000/svg" viewBox="0 0 24 24" fill="none"><path d="M6.75 10.9991C6.75 10.5849 7.08579 10.2491 7.5 10.2491H16.5C16.9142 10.2491 17.25 10.5849 17.25 10.9991C17.25 11.4133 16.9142 11.7491 16.5 11.7491H7.5C7.08579 11.7491 6.75 11.4133 6.75 10.9991Z" fill="currentColor" fill-rule="evenodd" clip-rule="evenodd"/><path d="M5.25 15.9991C5.25 15.5849 5.58579 15.2491 6 15.2491H18C18.4142 15.2491 18.75 15.5849 18.75 15.9991C18.75 16.4133 18.4142 16.7491 18 16.7491H6C5.58579 16.7491 5.25 16.4133 5.25 15.9991Z" fill="currentColor" fill-rule="evenodd" clip-rule="evenodd"/><path d="M2.45282 21.4861C4.03941 19.7938 5.28692 17.9222 6.28258 15.9991H17.7174C18.713 17.9222 19.9605 19.7938 21.5471 21.4861C21.7516 21.7042 21.807 22.0229 21.6882 22.2972C21.5693 22.5715 21.2989 22.7491 21 22.7491H17C16.6719 22.7491 16.3819 22.5358 16.2841 22.2227C15.6352 20.1451 13.9212 18.7491 12 18.7491C10.0788 18.7491 8.36471 20.1451 7.71587 22.2227C7.61806 22.5358 7.32806 22.7491 6.99997 22.7491H2.99997C2.70102 22.7491 2.43062 22.5715 2.31178 22.2972C2.19294 22.0229 2.24835 21.7042 2.45282 21.4861Z" fill="currentColor"/><path d="M7.22522 13.9991C7.65526 12.9952 8.02612 11.9894 8.34982 10.9991H15.6501C15.9738 11.9894 16.3447 12.9952 16.7747 13.9991H7.22522Z" fill="currentColor"/><path d="M11.25 1.99908V3.24908C10.6979 3.24908 10.223 3.63819 10.1078 4.17807C9.79665 5.63609 9.36866 7.48259 8.95048 8.99908H15.0495C14.6313 7.4826 14.2033 5.63612 13.8922 4.1781C13.777 3.63821 13.302 3.24908 12.75 3.24908V1.99908C12.75 1.58487 12.4142 1.24908 12 1.24908C11.5857 1.24908 11.25 1.58487 11.25 1.99908Z" fill="currentColor"/></svg>
