<svg xmlns="http://www.w3.org/2000/svg" viewBox="0 0 24 24" fill="none"><path opacity="0.4" d="M12 22.75C17.9371 22.75 22.75 17.9371 22.75 12C22.75 6.06294 17.9371 1.25 12 1.25C6.06294 1.25 1.25 6.06294 1.25 12C1.25 17.9371 6.06294 22.75 12 22.75Z" fill="currentColor"/><path d="M13.8413 16.2481C14.2569 15.8843 14.8877 15.9263 15.2515 16.3418C15.6152 16.7574 15.5733 17.3882 15.1577 17.752C14.2819 18.5187 13.198 19 11.9995 19C10.801 19 9.71716 18.5187 8.84132 17.752C8.42578 17.3882 8.38382 16.7574 8.74757 16.3418C9.11134 15.9263 9.74217 15.8843 10.1577 16.2481C10.729 16.7481 11.3598 17 11.9995 17C12.6392 17 13.2701 16.7481 13.8413 16.2481Z" fill="currentColor"/><path d="M8.375 10.75C8.91521 10.75 9.20261 11.1682 9.31055 11.3838C9.4407 11.6441 9.5 11.9517 9.5 12.25C9.5 12.5483 9.4407 12.8559 9.31055 13.1162C9.20261 13.3318 8.91522 13.75 8.375 13.75C7.83479 13.75 7.54739 13.3318 7.43945 13.1162C7.3093 12.8559 7.25 12.5483 7.25 12.25C7.25 11.9517 7.3093 11.6441 7.43945 11.3838C7.54739 11.1682 7.83479 10.75 8.375 10.75ZM15.625 10.75C16.1652 10.75 16.4526 11.1682 16.5605 11.3838C16.6907 11.6441 16.75 11.9517 16.75 12.25C16.75 12.5483 16.6907 12.8559 16.5605 13.1162C16.4526 13.3318 16.1652 13.75 15.625 13.75C15.0848 13.75 14.7974 13.3318 14.6895 13.1162C14.5593 12.8559 14.5 12.5483 14.5 12.25C14.5 11.9517 14.5593 11.6441 14.6895 11.3838C14.7974 11.1682 15.0848 10.75 15.625 10.75Z" fill="currentColor"/></svg>
