<svg xmlns="http://www.w3.org/2000/svg" viewBox="0 0 24 24" fill="none"><path d="M8.44819 9.16775C10.2113 7.40472 13.0699 7.40467 14.833 9.16775C16.596 10.9308 16.596 13.7894 14.833 15.5525C14.4425 15.943 13.8094 15.943 13.4189 15.5525C13.0284 15.162 13.0284 14.529 13.4189 14.1385C14.4009 13.1564 14.4009 11.5639 13.4189 10.5818C12.4369 9.59978 10.8443 9.59983 9.86225 10.5818C9.47173 10.9723 8.83872 10.9723 8.44819 10.5818C8.05774 10.1913 8.05769 9.55826 8.44819 9.16775Z" fill="currentColor"/><path d="M6.00777 5.69345C5.72722 5.41519 5.37296 5.16793 4.91207 5.12997L4.70797 5.12704C4.18609 5.15398 3.81292 5.40939 3.52535 5.7413C3.27368 6.03185 3.04111 6.43823 2.79781 6.85556C0.456442 10.8716 1.00462 16.1102 4.44722 19.5528C7.88983 22.9954 13.1284 23.5436 17.1445 21.2022C17.5618 20.9589 17.9682 20.7264 18.2587 20.4747C18.5907 20.1871 18.8461 19.814 18.873 19.2921C18.902 18.7299 18.6246 18.3129 18.3066 17.9923C18.0156 17.699 17.5957 17.3924 17.1318 17.0537L17.0986 17.0294C15.2938 15.7114 13.5046 14.0907 11.707 12.2931C9.90933 10.4954 8.28866 8.70622 6.97066 6.90146L6.94643 6.86828C6.60771 6.40439 6.30108 5.98446 6.00777 5.69345Z" fill="currentColor"/><path d="M20.8749 2.12509C21.4272 2.12509 21.8749 2.57281 21.8749 3.12509C21.8749 3.67738 21.4272 4.12509 20.8749 4.12509C20.3227 4.12509 19.8749 3.67738 19.8749 3.12509C19.8749 2.57281 20.3227 2.12509 20.8749 2.12509Z" fill="currentColor"/><path d="M17.3752 5.62509C17.9275 5.62509 18.3752 6.07281 18.3752 6.62509C18.3752 7.17738 17.9275 7.62509 17.3752 7.62509C16.8229 7.62509 16.3752 7.17738 16.3752 6.62509C16.3752 6.07281 16.8229 5.62509 17.3752 5.62509Z" fill="currentColor"/></svg>
