<svg xmlns="http://www.w3.org/2000/svg" viewBox="0 0 24 24" fill="none"><path d="M10.9703 3.46997C11.2632 3.17708 11.7379 3.17708 12.0308 3.46997L13.0308 4.46997C13.3237 4.76286 13.3237 5.23762 13.0308 5.53052C12.7379 5.82341 12.2632 5.82341 11.9703 5.53052L10.9703 4.53052C10.6774 4.23762 10.6774 3.76286 10.9703 3.46997ZM18.9703 3.46997C19.2632 3.17708 19.7379 3.17708 20.0308 3.46997C20.3237 3.76286 20.3237 4.23762 20.0308 4.53052L19.0308 5.53052C18.7379 5.82341 18.2632 5.82341 17.9703 5.53052C17.6774 5.23762 17.6774 4.76286 17.9703 4.46997L18.9703 3.46997ZM14.7506 4.00024V2.00024C14.7506 1.58603 15.0863 1.25024 15.5006 1.25024C15.9148 1.25024 16.2506 1.58603 16.2506 2.00024V4.00024C16.2506 4.41446 15.9148 4.75024 15.5006 4.75024C15.0863 4.75024 14.7506 4.41446 14.7506 4.00024Z" fill="currentColor"/><path opacity="0.4" d="M22.7506 14.5261V14.5002V14.4743C22.7506 13.5654 22.7506 12.8228 22.6862 12.2278C22.6195 11.6132 22.4766 11.0677 22.1295 10.5901C21.9291 10.3142 21.6866 10.0718 21.4108 9.87134C20.9194 9.51433 20.3482 9.36933 19.693 9.30591C19.3615 7.28907 17.6113 5.75024 15.5006 5.75024C13.4094 5.75024 11.6723 7.26086 11.318 9.25024H6.50061H6.4747C5.56578 9.25024 4.82314 9.25023 4.22815 9.3147C3.61362 9.38131 3.06811 9.5243 2.59045 9.87134C2.31462 10.0718 2.07213 10.3142 1.8717 10.5901C1.52467 11.0677 1.38168 11.6132 1.31506 12.2278C1.2506 12.8228 1.2506 13.5654 1.25061 14.4743V14.5002V14.5261C1.2506 15.4351 1.2506 16.1777 1.31506 16.7727C1.38168 17.3872 1.52467 17.9327 1.8717 18.4104C2.07213 18.6862 2.31462 18.9287 2.59045 19.1292C3.06811 19.4762 3.61362 19.6192 4.22815 19.6858C4.82315 19.7503 5.56579 19.7502 6.47471 19.7502H6.50061H17.5006H17.5265C18.4354 19.7502 19.1781 19.7503 19.7731 19.6858C20.3876 19.6192 20.9331 19.4762 21.4108 19.1292C21.6866 18.9287 21.9291 18.6862 22.1295 18.4104C22.4766 17.9327 22.6195 17.3872 22.6862 16.7727C22.7506 16.1777 22.7506 15.4351 22.7506 14.5261Z" fill="currentColor"/><path d="M15.5006 7.25024C13.9818 7.25024 12.7506 8.48146 12.7506 10.0002C12.7506 11.519 13.9818 12.7502 15.5006 12.7502C17.0194 12.7502 18.2506 11.519 18.2506 10.0002C18.2506 8.48146 17.0194 7.25024 15.5006 7.25024Z" fill="currentColor"/><path d="M6.00061 13.0002C6.55289 13.0002 7.00061 13.448 7.00061 14.0002C7.00061 14.5525 6.55289 15.0002 6.00061 15.0002C5.44833 15.0002 5.00061 14.5525 5.00061 14.0002C5.00061 13.448 5.44832 13.0002 6.00061 13.0002Z" fill="currentColor"/><path d="M6.47428 19.7502H6.96452L5.67155 22.3352C5.48638 22.7055 5.03609 22.8561 4.66569 22.6711C4.29534 22.486 4.14481 22.0357 4.32975 21.6653L5.29069 19.7424C5.64911 19.7493 6.04296 19.7502 6.47428 19.7502Z" fill="currentColor"/><path d="M19.6715 21.6653C19.8565 22.0357 19.706 22.486 19.3356 22.6711C18.9652 22.8561 18.5149 22.7055 18.3298 22.3352L17.0368 19.7502H17.526C17.9572 19.7502 18.3513 19.7493 18.7096 19.7424L19.6715 21.6653Z" fill="currentColor"/></svg>
