<svg xmlns="http://www.w3.org/2000/svg" viewBox="0 0 24 24" fill="none"><path d="M15.5006 5.75013C17.6113 5.75013 19.3615 7.28896 19.693 9.30579C20.3482 9.36922 20.9194 9.51422 21.4108 9.87122C21.6866 10.0716 21.9291 10.3141 22.1295 10.59C22.4766 11.0676 22.6195 11.6131 22.6862 12.2277C22.7506 12.8226 22.7506 13.5651 22.7506 14.4738V14.5265C22.7506 15.4352 22.7506 16.1777 22.6862 16.7726C22.6195 17.3871 22.4766 17.9326 22.1295 18.4103C21.9291 18.6861 21.6866 18.9286 21.4108 19.129C20.9331 19.4761 20.3876 19.6191 19.7731 19.6857C19.4603 19.7196 19.1067 19.7347 18.7096 19.7423L19.6715 21.6652C19.8564 22.0356 19.7059 22.4859 19.3356 22.671C18.9652 22.8559 18.5149 22.7054 18.3297 22.3351L17.0367 19.7501H6.96448L5.67151 22.3351C5.48633 22.7054 5.03605 22.8559 4.66565 22.671C4.2953 22.4859 4.14478 22.0356 4.32971 21.6652L5.29065 19.7423C4.89395 19.7347 4.54068 19.7195 4.22815 19.6857C3.61362 19.6191 3.06811 19.4761 2.59045 19.129C2.31462 18.9286 2.07213 18.6861 1.8717 18.4103C1.52467 17.9326 1.38168 17.3871 1.31506 16.7726C1.25061 16.1777 1.2506 15.4352 1.25061 14.5265V14.4738C1.2506 13.5651 1.25061 12.8226 1.31506 12.2277C1.38168 11.6131 1.52467 11.0676 1.8717 10.59C2.07213 10.3141 2.31462 10.0716 2.59045 9.87122C3.06811 9.52419 3.61362 9.3812 4.22815 9.31458C4.82304 9.25013 5.56553 9.25012 6.47424 9.25013H11.318C11.6723 7.26074 13.4094 5.75013 15.5006 5.75013ZM6.00061 13.0001C5.44832 13.0001 5.00061 13.4478 5.00061 14.0001C5.00061 14.5524 5.44833 15.0001 6.00061 15.0001C6.55289 15.0001 7.00061 14.5524 7.00061 14.0001C7.00061 13.4478 6.55289 13.0001 6.00061 13.0001ZM15.5006 7.25013C13.9818 7.25013 12.7506 8.48135 12.7506 10.0001C12.7506 11.5189 13.9818 12.7501 15.5006 12.7501C17.0194 12.7501 18.2506 11.5189 18.2506 10.0001C18.2506 8.48135 17.0194 7.25013 15.5006 7.25013ZM10.9703 3.46986C11.2632 3.17699 11.738 3.17697 12.0309 3.46986L13.0309 4.46986C13.3237 4.76274 13.3237 5.23752 13.0309 5.5304C12.738 5.82329 12.2632 5.82327 11.9703 5.5304L10.9703 4.5304C10.6774 4.23751 10.6774 3.76275 10.9703 3.46986ZM18.9703 3.46986C19.2632 3.17699 19.738 3.17697 20.0309 3.46986C20.3237 3.76274 20.3237 4.23752 20.0309 4.5304L19.0309 5.5304C18.738 5.82329 18.2632 5.82327 17.9703 5.5304C17.6774 5.23751 17.6774 4.76275 17.9703 4.46986L18.9703 3.46986ZM15.5006 1.25013C15.9148 1.25016 16.2506 1.58594 16.2506 2.00013V4.00013C16.2506 4.41432 15.9148 4.7501 15.5006 4.75013C15.0864 4.75013 14.7506 4.41434 14.7506 4.00013V2.00013C14.7506 1.58592 15.0864 1.25013 15.5006 1.25013Z" fill="currentColor"/></svg>
