<svg xmlns="http://www.w3.org/2000/svg" viewBox="0 0 24 24" fill="none"><path d="M7.86216 14.1766C7.48372 13.4598 6.63933 13.1693 5.94614 13.2732L5.73716 13.3191C3.83222 13.9545 2.80543 16.0181 3.4354 17.9256L3.93638 19.4285C4.63201 21.2243 6.6177 22.1798 8.4647 21.5642L8.66196 21.4754C8.98382 21.3053 9.262 21.041 9.45395 20.742C9.67089 20.4039 9.83653 19.9242 9.702 19.4139L7.86216 14.1766Z" fill="currentColor"/><path d="M18.0544 13.2732C17.3612 13.1693 16.5168 13.4598 16.1383 14.1766L14.2985 19.4139C14.164 19.9242 14.3296 20.4039 14.5465 20.742C14.7659 21.0837 15.0981 21.3805 15.4792 21.5428L15.7145 21.6189C17.5692 22.1342 19.5168 21.1013 20.1276 19.2517L20.6198 17.7459C21.1138 15.9499 20.1729 14.0603 18.4391 13.3826L18.0544 13.2732Z" fill="currentColor"/><path d="M21.6923 2.91494C21.5079 2.39447 20.9365 2.12218 20.416 2.30654C19.5379 2.61756 18.6984 3.21038 17.9619 3.85634C17.2149 4.51145 16.5161 5.2721 15.9228 5.9833C15.5047 6.48452 15.1328 6.96872 14.8261 7.38564C14.7325 7.27334 14.6359 7.16705 14.5351 7.06923C14.0757 6.62334 13.4533 6.24892 12.7499 6.24892C12.1977 6.24892 11.7499 6.69664 11.7499 7.24892C11.7499 7.8012 12.1977 8.24892 12.7499 8.24892C12.7393 8.24892 12.8891 8.25879 13.1425 8.50478C13.378 8.73347 13.6293 9.10066 13.8124 9.5956C13.9443 9.95201 14.2666 10.2029 14.6445 10.2431C15.0223 10.2831 15.3899 10.1057 15.5937 9.78505L15.5947 9.78408L15.6005 9.77529C15.6057 9.76723 15.6139 9.75413 15.6249 9.7372C15.6469 9.70336 15.6807 9.65267 15.7245 9.58681C15.8125 9.4548 15.9423 9.26304 16.1074 9.02919C16.4384 8.56022 16.9071 7.92603 17.4589 7.26454C18.0126 6.60084 18.6376 5.92384 19.2802 5.36025C19.9333 4.78752 20.5503 4.3803 21.0839 4.1913C21.6044 4.00685 21.8767 3.43547 21.6923 2.91494Z" fill="currentColor"/><path opacity="0.4" d="M12 2.24887C13.4796 2.24887 14.8815 2.57794 16.1377 3.16391C15.6269 3.66394 15.1551 4.18545 14.7363 4.67856C13.8847 4.36144 12.963 4.18637 12 4.18637C7.69221 4.18637 4.20024 7.65617 4.2002 11.9364C4.2002 13.1937 4.60364 15.181 5.06934 16.5692C5.17747 17.0482 4.90456 17.5403 4.42578 17.6991C3.91502 17.8682 3.36277 17.5942 3.19238 17.0868L3.00586 16.492C2.58183 15.0512 2.25 13.2721 2.25 11.9364C2.25004 6.5861 6.61525 2.24887 12 2.24887Z" fill="currentColor"/><path opacity="0.4" d="M20.2783 6.82016C21.2099 8.3051 21.75 10.0577 21.75 11.9364C21.75 13.4629 21.3169 15.5687 20.8076 17.0868C20.6372 17.5942 20.085 17.8682 19.5742 17.6991C19.0635 17.5298 18.7868 16.981 18.957 16.4735C19.4227 15.0853 19.7998 13.1937 19.7998 11.9364C19.7998 10.6183 19.468 9.37756 18.8838 8.29086C19.3303 7.76174 19.8069 7.25142 20.2783 6.82016Z" fill="currentColor"/></svg>
