<svg xmlns="http://www.w3.org/2000/svg" viewBox="0 0 24 24" fill="none"><path d="M10.9998 20V8C10.9998 7.44772 11.4475 7 11.9998 7C12.552 7 12.9998 7.44772 12.9998 8V20C12.9998 20.5523 12.552 21 11.9998 21C11.4475 21 10.9998 20.5523 10.9998 20Z" fill="currentColor"/><path d="M6.40697 14.1944C6.85164 13.8673 7.47799 13.9628 7.80541 14.4073L7.80638 14.4093C7.80788 14.4113 7.81097 14.4147 7.81419 14.4191C7.82064 14.4278 7.83045 14.4416 7.84349 14.4591C7.86959 14.4941 7.90864 14.5461 7.95873 14.6124C8.05928 14.7455 8.20538 14.9366 8.38451 15.1661C8.74376 15.6265 9.23309 16.2374 9.76048 16.8448C10.2923 17.4573 10.8431 18.0441 11.3249 18.4698C11.5668 18.6835 11.7679 18.8355 11.9226 18.9288C11.9521 18.9466 11.9791 18.9571 11.9997 18.9679C12.0203 18.9571 12.0474 18.9466 12.0769 18.9288C12.2316 18.8355 12.4327 18.6835 12.6745 18.4698C13.1564 18.0441 13.7072 17.4573 14.239 16.8448C14.7664 16.2374 15.2557 15.6265 15.615 15.1661C15.7941 14.9366 15.9402 14.7455 16.0408 14.6124C16.0908 14.5461 16.1299 14.4941 16.156 14.4591C16.169 14.4416 16.1788 14.4278 16.1853 14.4191C16.1885 14.4147 16.1916 14.4113 16.1931 14.4093L16.1941 14.4073C16.5216 13.9626 17.1478 13.8679 17.5925 14.1954C18.037 14.5228 18.1325 15.1482 17.8054 15.5929H17.8044V15.5939L17.8035 15.5948C17.8029 15.5956 17.8024 15.5966 17.8015 15.5978C17.7995 15.6005 17.7964 15.6045 17.7927 15.6095C17.7852 15.6197 17.7737 15.6344 17.7595 15.6534C17.731 15.6917 17.6895 15.7473 17.6365 15.8175C17.5305 15.9578 17.3787 16.1576 17.1921 16.3966C16.8198 16.8737 16.3065 17.513 15.7488 18.1554C15.1953 18.7928 14.5779 19.4561 13.9988 19.9679C13.7103 20.2227 13.4079 20.4616 13.1091 20.6417C12.8378 20.8053 12.4429 21.0001 11.9997 21.0001C11.5566 21.0001 11.1617 20.8053 10.8904 20.6417C10.5916 20.4616 10.2892 20.2227 10.0007 19.9679C9.42155 19.4561 8.80421 18.7929 8.25072 18.1554C7.69294 17.5129 7.17968 16.8737 6.80736 16.3966C6.62082 16.1576 6.46899 15.9578 6.36302 15.8175C6.31002 15.7473 6.26846 15.6917 6.23998 15.6534C6.22576 15.6343 6.21433 15.6197 6.20677 15.6095C6.20303 15.6044 6.20001 15.6005 6.19798 15.5978C6.19713 15.5966 6.19657 15.5956 6.19603 15.5948L6.19505 15.5939V15.5929H6.19408C5.8669 15.1482 5.96239 14.5219 6.40697 14.1944Z" fill="currentColor"/><path opacity="0.4" d="M16.9998 3C17.552 3 17.9998 3.44772 17.9998 4C17.9998 4.55228 17.552 5 16.9998 5H6.99976C6.44747 5 5.99976 4.55228 5.99976 4C5.99976 3.44772 6.44747 3 6.99976 3H16.9998Z" fill="currentColor"/></svg>
