<svg xmlns="http://www.w3.org/2000/svg" viewBox="0 0 24 24" fill="none"><path d="M11.9996 7.00049C12.5518 7.00049 12.9996 7.4482 12.9996 8.00049V18.1665C13.3959 17.7842 13.8238 17.3232 14.2388 16.8452C14.7662 16.2378 15.2555 15.6268 15.6148 15.1665C15.7939 14.937 15.94 14.7459 16.0406 14.6128C16.0907 14.5465 16.1297 14.4945 16.1558 14.4595C16.1688 14.442 16.1787 14.4281 16.1851 14.4194C16.1883 14.4151 16.1914 14.4117 16.1929 14.4097L16.1939 14.4077C16.5214 13.9631 17.1476 13.8684 17.5923 14.1958C18.0368 14.5232 18.1323 15.1486 17.8052 15.5933H17.8042V15.5942L17.8033 15.5952C17.8027 15.5959 17.8022 15.597 17.8013 15.5981C17.7993 15.6009 17.7962 15.6048 17.7925 15.6099C17.785 15.6201 17.7735 15.6348 17.7593 15.6538C17.7308 15.692 17.6893 15.7477 17.6363 15.8179C17.5303 15.9582 17.3785 16.1579 17.1919 16.397C16.8196 16.8741 16.3064 17.5133 15.7486 18.1558C15.1951 18.7932 14.5777 19.4565 13.9986 19.9683C13.7101 20.2231 13.4077 20.462 13.1089 20.6421C12.8597 20.7923 12.5063 20.9668 12.107 20.9946C12.0717 20.9984 12.0358 21.0005 11.9996 21.0005C11.9629 21.0005 11.9268 20.9985 11.8912 20.9946C11.4923 20.9665 11.1392 20.7922 10.8902 20.6421C10.5914 20.462 10.2889 20.2231 10.0005 19.9683C9.42139 19.4565 8.80398 18.7932 8.25053 18.1558C7.69279 17.5134 7.17948 16.874 6.80717 16.397C6.62068 16.158 6.46878 15.9581 6.36284 15.8179C6.30988 15.7478 6.26826 15.692 6.23979 15.6538C6.22561 15.6348 6.21413 15.62 6.20659 15.6099C6.20289 15.6049 6.19981 15.6009 6.1978 15.5981C6.197 15.597 6.19637 15.5959 6.19584 15.5952L6.19487 15.5942V15.5933H6.19389C5.86682 15.1486 5.96226 14.5222 6.40678 14.1948C6.85142 13.8677 7.47778 13.9632 7.80522 14.4077L7.8062 14.4097C7.80768 14.4117 7.81082 14.4151 7.81401 14.4194C7.82044 14.4281 7.83031 14.442 7.8433 14.4595C7.86938 14.4945 7.9085 14.5465 7.95854 14.6128C8.05907 14.7459 8.20523 14.937 8.38432 15.1665C8.74356 15.6268 9.23294 16.2378 9.7603 16.8452C10.1752 17.3231 10.6032 17.7842 10.9996 18.1665V8.00049C10.9996 7.44824 11.4473 7.00055 11.9996 7.00049ZM16.9996 3.00049C17.5518 3.00049 17.9996 3.4482 17.9996 4.00049C17.9996 4.55277 17.5518 5.00049 16.9996 5.00049H6.99955C6.44733 5.00042 5.99956 4.55273 5.99956 4.00049C5.99956 3.44824 6.44733 3.00055 6.99955 3.00049H16.9996Z" fill="currentColor" fill-rule="evenodd" clip-rule="evenodd"/></svg>
