<svg xmlns="http://www.w3.org/2000/svg" viewBox="0 0 24 24" fill="none"><path d="M19.0001 16.9995V12.9995C19.0001 12.4472 19.4478 11.9995 20.0001 11.9995C20.5524 11.9995 21.0001 12.4472 21.0001 12.9995V16.9995C21.0001 17.5518 20.5524 17.9995 20.0001 17.9995C19.4478 17.9995 19.0001 17.5518 19.0001 16.9995Z" fill="currentColor"/><path d="M17.7501 12.9995C17.7501 11.7569 18.7575 10.7495 20.0001 10.7495H22.7501C22.7499 9.00281 22.7445 7.60913 22.5968 6.51025C22.5838 6.41385 22.5664 6.31947 22.5509 6.22607L21.8976 6.63525C21.8932 6.63799 21.8883 6.6414 21.8839 6.64404L15.3165 10.561C14.089 11.2932 13.0775 11.7495 12.0001 11.7495C10.9228 11.7495 9.91127 11.2931 8.68372 10.561L2.11633 6.64404C2.11194 6.64141 2.10701 6.63798 2.10266 6.63525L1.44739 6.22607C1.43195 6.31937 1.41639 6.41395 1.40344 6.51025C1.2501 7.6508 1.25011 9.10889 1.25012 10.9497V11.0493C1.25011 12.8901 1.2501 14.3482 1.40344 15.4888C1.56108 16.661 1.89346 17.6096 2.64172 18.3579C3.39 19.1062 4.33865 19.4385 5.51086 19.5962C6.65137 19.7495 8.10963 19.7495 9.95032 19.7495H14.0499C15.5147 19.7495 16.7372 19.7477 17.7501 19.6704V12.9995Z" fill="currentColor"/><path d="M18.4894 2.40283C17.3488 2.24951 15.8907 2.2495 14.0499 2.24951H9.95032C8.10962 2.2495 6.65137 2.24951 5.51086 2.40283C4.33865 2.56048 3.39 2.89287 2.64172 3.64111C2.31734 3.96551 2.07063 4.32744 1.88293 4.729L2.88391 5.35498L9.45129 9.27197C10.6444 9.98356 11.3557 10.2495 12.0001 10.2495C12.6445 10.2495 13.3558 9.98359 14.549 9.27197L21.1163 5.35498L22.1163 4.729C21.9287 4.32757 21.6828 3.96542 21.3585 3.64111C20.6102 2.89287 19.6616 2.56048 18.4894 2.40283Z" fill="currentColor"/><path d="M20.0001 19.7495C20.5524 19.7495 21.0001 20.1972 21.0001 20.7495C21.0001 21.3018 20.5524 21.7495 20.0001 21.7495C19.4478 21.7495 19.0001 21.3018 19.0001 20.7495C19.0001 20.1972 19.4478 19.7495 20.0001 19.7495Z" fill="currentColor"/></svg>
