<svg xmlns="http://www.w3.org/2000/svg" viewBox="0 0 24 24" fill="none"><path d="M6.0001 21.7496V10.7496C6.0001 10.1973 6.44781 9.74963 7.0001 9.74963C7.55238 9.74963 8.0001 10.1973 8.0001 10.7496V21.7496C8.0001 22.3019 7.55238 22.7496 7.0001 22.7496C6.44781 22.7496 6.0001 22.3019 6.0001 21.7496Z" fill="currentColor"/><path opacity="0.4" d="M8.0001 16.7496C10.0712 16.7496 11.7501 15.0707 11.7501 12.9996V8.99963C11.7501 6.92857 10.0712 5.24963 8.0001 5.24963H6.0001C3.92903 5.24963 2.2501 6.92857 2.2501 8.99963V12.9996C2.2501 15.0707 3.92903 16.7496 6.0001 16.7496H8.0001Z" fill="currentColor"/><path opacity="0.4" d="M11.9815 1.24963C12.5249 1.24974 13.0429 1.48067 13.4054 1.88538L17.3517 6.2926C17.607 6.56274 17.7501 6.91982 17.7501 7.2926C17.7501 7.94141 17.3254 8.48969 16.7394 8.67834L19.3233 11.2623C19.5965 11.5356 19.7501 11.9062 19.7501 12.2926C19.7501 12.9414 19.3254 13.4897 18.7394 13.6783L21.3233 16.2623C21.5965 16.5356 21.7501 16.9062 21.7501 17.2926C21.7501 18.0973 21.0977 18.7496 20.2931 18.7496H9.2501V17.8424C11.4067 17.2874 13.0001 15.3295 13.0001 12.9996V8.99963C13.0001 6.38264 10.9895 4.23566 8.42881 4.01819C8.44248 4.00198 8.45472 3.98447 8.46983 3.96936L10.63 1.8092C10.9884 1.45095 11.4748 1.24963 11.9815 1.24963Z" fill="currentColor"/><path d="M14.0001 21.7496C14.0001 22.3019 13.5524 22.7496 13.0001 22.7496C12.4478 22.7496 12.0001 22.3019 12.0001 21.7496V18.7496H14.0001V21.7496Z" fill="currentColor"/></svg>
