<svg xmlns="http://www.w3.org/2000/svg" viewBox="0 0 24 24" fill="none"><path d="M21.1602 9.15137C21.9765 8.34914 22.75 7.17449 22.75 5.62012V3.64942C22.75 2.96225 22.2481 2.40542 21.6094 2.29102C20.7992 2.14616 20.0854 1.86594 19.5918 1.63281L19.1758 1.42188L19.0137 1.34668C18.6836 1.2179 18.3164 1.21789 17.9863 1.34668L17.8242 1.42188C17.4353 1.6337 16.691 1.99228 15.7871 2.20801L15.3906 2.29102C14.7519 2.40542 14.25 2.96225 14.25 3.64942V5.62012C14.25 7.17449 15.0235 8.34914 15.8398 9.15137C16.6527 9.95005 17.5585 10.4333 17.9707 10.6299C18.3073 10.7904 18.6927 10.7904 19.0293 10.6299C19.4415 10.4333 20.3473 9.95005 21.1602 9.15137Z" fill="currentColor"/><path opacity="0.4" d="M13.0322 3.25C13.0125 3.37999 13 3.51311 13 3.64941V5.62012C13 7.6231 14.0035 9.09929 14.9639 10.043C15.9153 10.9778 16.9586 11.5317 17.4326 11.7578L17.5605 11.8145C18.2066 12.0793 18.9327 12.0604 19.5674 11.7578L20.0195 11.5264C20.5575 11.2313 21.3225 10.7441 22.0361 10.043C22.2764 9.80688 22.5188 9.53703 22.748 9.23438C22.7487 9.45988 22.75 9.69357 22.75 9.93555V12.0645C22.75 13.4275 22.7501 14.5267 22.6338 15.3916C22.5128 16.2917 22.2533 17.0495 21.6514 17.6514C21.0494 18.2533 20.2917 18.5128 19.3916 18.6338C18.5267 18.7501 17.4275 18.75 16.0645 18.75H7.93555C6.57249 18.75 5.47331 18.7501 4.6084 18.6338C3.70829 18.5128 2.95055 18.2533 2.34863 17.6514C1.74672 17.0495 1.48723 16.2917 1.36621 15.3916C1.24995 14.5267 1.24997 13.4275 1.25 12.0645V9.93555C1.24997 8.57249 1.24995 7.47331 1.36621 6.6084C1.48723 5.70829 1.74672 4.95055 2.34863 4.34863C2.95055 3.74672 3.70829 3.48723 4.6084 3.36621C5.47331 3.24995 6.57249 3.24997 7.93555 3.25H13.0322Z" fill="currentColor"/><path d="M13.5 20.25C13.5 20.5261 13.7239 20.75 14 20.75H16C16.5523 20.75 17 21.1977 17 21.75C17 22.3023 16.5523 22.75 16 22.75H8C7.44772 22.75 7 22.3023 7 21.75C7 21.1977 7.44772 20.75 8 20.75H10C10.2761 20.75 10.5 20.5261 10.5 20.25V18.75H13.5V20.25Z" fill="currentColor"/></svg>
