<svg xmlns="http://www.w3.org/2000/svg" viewBox="0 0 24 24" fill="none"><path d="M12.5 16.7499C13.0523 16.7499 13.5 17.1976 13.5 17.7499V20.2499C13.5 20.526 13.7239 20.7499 14 20.7499H16C16.5523 20.7499 17 21.1976 17 21.7499C17 22.3022 16.5523 22.7499 16 22.7499H8C7.44772 22.7499 7 22.3022 7 21.7499C7 21.1976 7.44772 20.7499 8 20.7499H10C10.2761 20.7499 10.5 20.526 10.5 20.2499V17.7499C10.5 17.1976 10.9477 16.7499 11.5 16.7499H12.5Z" fill="currentColor"/><path d="M21.1602 9.15128C21.9765 8.34905 22.75 7.1744 22.75 5.62003V3.64932C22.75 2.96216 22.2481 2.40532 21.6094 2.29093C20.7992 2.14607 20.0854 1.86585 19.5918 1.63272L19.1758 1.42179L19.0137 1.34659C18.6836 1.2178 18.3164 1.2178 17.9863 1.34659L17.8242 1.42179C17.4353 1.63361 16.691 1.99218 15.7871 2.20792L15.3906 2.29093C14.7519 2.40532 14.25 2.96216 14.25 3.64932V5.62003C14.25 7.1744 15.0235 8.34905 15.8398 9.15128C16.6527 9.94996 17.5585 10.4332 17.9707 10.6298C18.3073 10.7903 18.6927 10.7903 19.0293 10.6298C19.4415 10.4332 20.3473 9.94996 21.1602 9.15128Z" fill="currentColor"/><path d="M13.0322 3.24991C13.0125 3.3799 13 3.51302 13 3.64932V5.62003C13 7.623 14.0035 9.0992 14.9639 10.0429C15.9153 10.9777 16.9586 11.5316 17.4326 11.7577L17.5605 11.8144C18.2066 12.0792 18.9327 12.0603 19.5674 11.7577L20.0195 11.5263C20.5575 11.2312 21.3225 10.744 22.0361 10.0429C22.2764 9.80679 22.5188 9.53694 22.748 9.23428C22.7487 9.45979 22.75 9.69348 22.75 9.93546V12.0644C22.75 13.4274 22.7501 14.5266 22.6338 15.3915C22.5128 16.2916 22.2533 17.0494 21.6514 17.6513C21.0494 18.2532 20.2917 18.5127 19.3916 18.6337C18.5267 18.75 17.4275 18.7499 16.0645 18.7499H7.93555C6.57249 18.7499 5.47331 18.75 4.6084 18.6337C3.70829 18.5127 2.95055 18.2532 2.34863 17.6513C1.74672 17.0494 1.48723 16.2916 1.36621 15.3915C1.24995 14.5266 1.24997 13.4274 1.25 12.0644V9.93546C1.24997 8.5724 1.24995 7.47322 1.36621 6.60831C1.48723 5.7082 1.74672 4.95046 2.34863 4.34854C2.95055 3.74663 3.70829 3.48714 4.6084 3.36612C5.47331 3.24986 6.57249 3.24988 7.93555 3.24991H13.0322Z" fill="currentColor"/></svg>
