<svg xmlns="http://www.w3.org/2000/svg" fill="none" viewBox="0 0 48 48">
  <g>
    <path fill="currentColor" fill-rule="evenodd" d="M24 0.48c-6.2627 0 -10.7463 0.2614 -13.6743 0.5248 -3.5529 0.3196 -6.1177 3.216 -6.3629 6.7219C3.728 11.0844 3.4826 16.4095 3.4826 24s0.2454 12.9156 0.4802 16.2733c0.2452 3.5059 2.81 6.4023 6.3629 6.722 2.928 0.2633 7.4115 0.5247 13.6743 0.5247 6.2627 0 10.7463 -0.2614 13.6743 -0.5247 3.553 -0.3196 6.1177 -3.2161 6.3629 -6.722 0.2348 -3.3577 0.4802 -8.6828 0.4802 -16.2733s-0.2454 -12.9156 -0.4802 -16.2733c-0.2452 -3.5059 -2.8099 -6.4023 -6.3629 -6.7219C34.7463 0.7414 30.2628 0.48 24 0.48Zm-2.0017 4.0127c-5.1086 0.0482 -8.8274 0.2757 -11.3139 0.4994 -1.4191 0.1276 -2.6072 1.2868 -2.7279 3.0138C7.7286 11.2638 7.486 16.4955 7.486 24s0.2426 12.7362 0.4705 15.9941c0.1207 1.727 1.3088 2.8862 2.7279 3.0138 2.4865 0.2237 6.2053 0.4511 11.3139 0.4994V4.4927Zm4.0034 39.0146c5.1086 -0.0482 8.8274 -0.2757 11.3139 -0.4993 1.4191 -0.1277 2.6071 -1.2869 2.7279 -3.014 0.2278 -3.2578 0.4705 -8.4895 0.4705 -15.994s-0.2427 -12.7362 -0.4705 -15.994c-0.1208 -1.7271 -1.3088 -2.8863 -2.7279 -3.0139 -2.4865 -0.2237 -6.2053 -0.4512 -11.3139 -0.4994v39.0146Zm7.006 -20.0077c0 -1.3819 -1.1203 -2.5021 -2.5022 -2.5021s-2.5021 1.1202 -2.5021 2.5021v1.0008c0 1.3819 1.1202 2.5022 2.5021 2.5022s2.5022 -1.1203 2.5022 -2.5022v-1.0008Zm-15.5132 -2.5022c1.3819 0 2.5021 1.1203 2.5021 2.5022v1.0008c0 1.3819 -1.1202 2.5022 -2.5021 2.5022s-2.5022 -1.1203 -2.5022 -2.5022v-1.0008c0 -1.3819 1.1203 -2.5022 2.5022 -2.5022Z" clip-rule="evenodd" stroke-width="1"></path>
  </g>
</svg>
