<svg xmlns="http://www.w3.org/2000/svg" fill="none" viewBox="0 0 48 48">
  <g>
    <path fill="currentColor" fill-rule="evenodd" d="M22.5 0.503906c-5.6402 0.037653 -9.7447 0.283702 -12.4931 0.530344 -3.29606 0.29579 -5.76594 2.88681 -6.00037 6.15291C3.76212 10.5923 3.5 16.0881 3.5 23.9989c0 7.9109 0.26212 13.4067 0.50652 16.8118 0.23443 3.2661 2.7043 5.8572 6.00038 6.1529 2.7484 0.2467 6.8529 0.4927 12.4931 0.5304l0 -46.990094Zm3 46.990094c5.6402 -0.0377 9.7447 -0.2837 12.4931 -0.5303 3.2961 -0.2958 5.7659 -2.8869 6.0004 -6.153 0.2444 -3.4051 0.5065 -8.9009 0.5065 -16.8117 0 -7.9109 -0.2621 -13.4067 -0.5065 -16.81183 -0.2345 -3.2661 -2.7043 -5.85713 -6.0004 -6.15292C35.2447 0.787612 31.1402 0.54156 25.5 0.503906l0 46.990094ZM30 21.4989c1.1046 0 2 0.8955 2 2v1c0 1.1046 -0.8954 2 -2 2s-2 -0.8954 -2 -2v-1c0 -1.1045 0.8954 -2 2 -2Zm-14 2c0 -1.1045 0.8954 -2 2 -2s2 0.8955 2 2v1c0 1.1046 -0.8954 2 -2 2s-2 -0.8954 -2 -2v-1Z" clip-rule="evenodd" stroke-width="3.429"></path>
  </g>
</svg>
