<svg xmlns="http://www.w3.org/2000/svg" fill="none" viewBox="0 0 48 48">
  <path fill="currentColor" fill-rule="evenodd" d="M19.0449 20.6523c0 2.2894 -0.0411 6.5895 -0.0699 7.3454 -0.0264 0.6964 -0.5435 1.1068 -0.8983 1.2956 -0.3956 0.2106 -0.8799 0.3196 -1.3853 0.3437 -0.1971 0.0094 -0.4071 0.0153 -0.623 0.0153 -0.1833 0 -0.3622 -0.0043 -0.5327 -0.0113 0.1864 0.2163 0.3319 0.5004 0.3456 0.8613 0.0287 0.7559 0.0699 5.056 0.0699 7.3454 0 2.2893 -0.0412 6.5894 -0.0699 7.3453 -0.0265 0.6964 -0.5435 1.1068 -0.8983 1.2957 -0.3957 0.2105 -0.88 0.3195 -1.3853 0.3436 -0.1972 0.0094 -0.4072 0.0154 -0.6231 0.0154 -0.2159 0 -0.4259 -0.006 -0.623 -0.0154 -0.5054 -0.0241 -0.9897 -0.1331 -1.3854 -0.3436 -0.3547 -0.1889 -0.8718 -0.5993 -0.8983 -1.2957 -0.0287 -0.7559 -0.06985 -5.056 -0.06985 -7.3453 0 -2.2894 0.04115 -6.5895 0.06985 -7.3454 0.0265 -0.6964 0.5436 -1.1068 0.8983 -1.2956 0.3957 -0.2106 0.88 -0.3196 1.3854 -0.3437 0.1971 -0.0094 0.4071 -0.0153 0.623 -0.0153 0.1832 0 0.3622 0.0043 0.5327 0.0113 -0.1864 -0.2163 -0.3319 -0.5004 -0.3456 -0.8613 -0.0287 -0.7559 -0.0699 -5.056 -0.0699 -7.3454 0 -2.2893 0.0412 -6.5894 0.0699 -7.3453 0.0265 -0.6964 0.5435 -1.1068 0.8983 -1.2957 0.3957 -0.2105 0.8799 -0.3195 1.3853 -0.3436 0.1972 -0.0094 0.4072 -0.0154 0.6231 -0.0154 0.2159 0 0.4259 0.006 0.623 0.0154 0.5054 0.0241 0.9897 0.1331 1.3853 0.3436 0.3548 0.1889 0.8719 0.5993 0.8983 1.2957 0.0288 0.7559 0.0699 5.056 0.0699 7.3453ZM37.998 37.8477c0 2.2893 -0.0411 6.5894 -0.0698 7.3453 -0.0265 0.6964 -0.5436 1.1068 -0.8983 1.2957 -0.3957 0.2105 -0.88 0.3195 -1.3854 0.3436 -0.1971 0.0094 -0.4071 0.0154 -0.623 0.0154 -0.2159 0 -0.4259 -0.006 -0.6231 -0.0154 -0.5054 -0.0241 -0.9896 -0.1331 -1.3853 -0.3436 -0.3548 -0.1889 -0.8718 -0.5993 -0.8983 -1.2957 -0.0287 -0.7559 -0.0699 -5.056 -0.0699 -7.3453 0 -2.2894 0.0412 -6.5895 0.0699 -7.3454 0.0137 -0.3589 0.1576 -0.6418 0.3424 -0.8576 -0.1409 0.0048 -0.2869 0.0076 -0.4357 0.0076 -0.2159 0 -0.4259 -0.0059 -0.6231 -0.0153 -0.5054 -0.0241 -0.9896 -0.1331 -1.3853 -0.3437 -0.3548 -0.1888 -0.8718 -0.5992 -0.8983 -1.2956 -0.0287 -0.7559 -0.0699 -5.056 -0.0699 -7.3454 0 -2.2893 0.0412 -6.5894 0.0699 -7.3453 0.0265 -0.6964 0.5435 -1.1068 0.8983 -1.2957 0.3957 -0.2105 0.8799 -0.3195 1.3853 -0.3436 0.1972 -0.0094 0.4072 -0.0154 0.6231 -0.0154 0.2159 0 0.4259 0.006 0.623 0.0154 0.5054 0.0241 0.9897 0.1331 1.3854 0.3436 0.3547 0.1889 0.8718 0.5993 0.8983 1.2957 0.0287 0.7559 0.0698 5.056 0.0698 7.3453 0 2.2894 -0.0411 6.5895 -0.0698 7.3454 -0.0137 0.3589 -0.1576 0.6418 -0.3425 0.8576 0.141 -0.0048 0.287 -0.0076 0.4358 -0.0076 0.2159 0 0.4259 0.0059 0.623 0.0153 0.5054 0.0241 0.9897 0.1331 1.3854 0.3437 0.3547 0.1888 0.8718 0.5992 0.8983 1.2956 0.0287 0.7559 0.0698 5.056 0.0698 7.3454Z" clip-rule="evenodd" stroke-width="1"></path>
  <path fill="currentColor" fill-opacity="0.4" fill-rule="evenodd" d="M39.498 9.09012c0 -1.58853 -0.0448 -2.84805 -0.1028 -3.8127 -0.133 -2.21244 -1.9107 -3.80537 -4.0251 -3.9031 -2.2062 -0.10197 -5.9533 -0.22198 -11.3701 -0.22198 -5.4168 0 -9.1639 0.12001 -11.3701 0.22198 -2.1144 0.09772 -3.89213 1.69066 -4.02512 3.9031 -0.05798 0.96465 -0.10283 2.22417 -0.10283 3.8127 0 1.58858 0.04485 2.84808 0.10283 3.81268 0.13299 2.2125 1.91072 3.8054 4.02512 3.9031 2.2062 0.102 5.9533 0.222 11.3701 0.222 5.4168 0 9.1639 -0.12 11.3701 -0.222 2.1144 -0.0977 3.8921 -1.6906 4.0251 -3.9031 0.058 -0.9646 0.1028 -2.2241 0.1028 -3.81268Zm1.0235 21.12398c0 -0.5276 -0.0166 -0.9959 -0.0435 -1.4084 -0.1426 -2.1856 -1.9847 -3.4719 -3.855 -3.5197 -2.2739 -0.058 -6.4254 -0.1337 -12.623 -0.1337 -6.1976 0 -10.3491 0.0757 -12.623 0.1337 -1.87031 0.0478 -3.71242 1.3341 -3.85497 3.5197 -0.0269 0.4125 -0.04351 0.8808 -0.04351 1.4084 0 0.5277 0.01661 0.996 0.04351 1.4084 0.14255 2.1857 1.98465 3.472 3.85497 3.5197 2.2739 0.0581 6.4254 0.1337 12.623 0.1337 6.1976 0 10.3491 -0.0756 12.623 -0.1337 1.8703 -0.0477 3.7124 -1.334 3.855 -3.5197 0.0269 -0.4124 0.0435 -0.8807 0.0435 -1.4084Z" clip-rule="evenodd" stroke-width="1"></path>
</svg>
