<svg xmlns="http://www.w3.org/2000/svg" fill="none" viewBox="0 0 48 48">
  <path stroke="currentColor" stroke-linejoin="round" d="M35.3008 2.62272c1.3987 0.06465 2.5131 1.09702 2.5971 2.4947 0.0561 0.93289 0.1001 2.16234 0.1001 3.7227 0 1.56038 -0.044 2.78978 -0.1001 3.72268 -0.084 1.3977 -1.1984 2.4301 -2.5971 2.4947 -2.1821 0.1009 -5.9061 0.2204 -11.3008 0.2204s-9.1187 -0.1195 -11.3008 -0.2204c-1.3987 -0.0646 -2.5131 -1.097 -2.5971 -2.4947 -0.0561 -0.9329 -0.1001 -2.1623 -0.1001 -3.72268 0 -1.56036 0.044 -2.78981 0.1001 -3.7227 0.084 -1.39768 1.1984 -2.43006 2.5971 -2.4947 2.1821 -0.10086 5.9061 -0.22038 11.3008 -0.22038s9.1187 0.11952 11.3008 0.22038Z" stroke-width="3.429"></path>
  <path stroke="currentColor" stroke-linejoin="round" d="M36.5847 26.5356c1.2596 0.0321 2.3145 0.8605 2.3965 2.1178 0.0247 0.3788 0.0403 0.8145 0.0403 1.3107 0 0.4963 -0.0156 0.932 -0.0403 1.3108 -0.082 1.2573 -1.1369 2.0857 -2.3965 2.1178 -2.2606 0.0578 -6.3993 0.1332 -12.5847 0.1332s-10.3241 -0.0754 -12.5847 -0.1332c-1.2596 -0.0321 -2.31445 -0.8605 -2.39646 -2.1178 -0.02471 -0.3788 -0.04032 -0.8145 -0.04032 -1.3108 0 -0.4962 0.01561 -0.9319 0.04032 -1.3107 0.08201 -1.2573 1.13686 -2.0857 2.39646 -2.1178 2.2606 -0.0578 6.3993 -0.1333 12.5847 -0.1333s10.3241 0.0755 12.5847 0.1333Z" stroke-width="3.429"></path>
  <path stroke="currentColor" stroke-linejoin="round" d="M11.0279 33.3574c-0.0175 1.4492 -0.0306 3.0938 -0.0306 4.2407 0 2.2925 0.0522 6.5736 0.0875 7.3074 0.0162 0.3361 0.6664 0.6401 1.6849 0.6784 0.2325 0.0087 0.4779 0.0142 0.728 0.0142 0.2502 0 0.4955 -0.0055 0.728 -0.0142 1.0185 -0.0383 1.6688 -0.3423 1.6849 -0.6784 0.0353 -0.7338 0.0875 -5.0149 0.0875 -7.3074 0 -1.1152 -0.0123 -2.701 -0.0291 -4.1201 -1.9602 -0.0255 -3.472 -0.0572 -4.5537 -0.0848 -0.1317 -0.0034 -0.2611 -0.0154 -0.3874 -0.0358Z" stroke-width="3.429"></path>
  <path stroke="currentColor" stroke-linejoin="round" d="M32.0264 33.4781c-0.0167 1.4191 -0.0291 3.0048 -0.0291 4.12 0 2.2925 0.0522 6.5736 0.0875 7.3074 0.0162 0.3361 0.6664 0.6401 1.6849 0.6784 0.2325 0.0087 0.4779 0.0142 0.728 0.0142 0.2502 0 0.4955 -0.0055 0.728 -0.0142 1.0185 -0.0383 1.6688 -0.3423 1.6849 -0.6784 0.0353 -0.7338 0.0875 -5.0149 0.0875 -7.3074 0 -1.1467 -0.013 -2.791 -0.0305 -4.24 -0.1249 0.02 -0.2528 0.0318 -0.3829 0.0351 -1.0825 0.0276 -2.5958 0.0594 -4.5583 0.0849Z" stroke-width="3.429"></path>
  <path stroke="currentColor" stroke-linejoin="round" d="M14.4993 20.8398c0 -1.5631 0.0242 -4.0507 0.0509 -5.708 1.3141 0.0456 2.9439 0.0883 4.9008 0.1156 0.0259 1.6556 0.0491 4.0653 0.0491 5.5924 0 1.5225 -0.023 3.922 -0.0488 5.5771 -1.9131 0.0127 -3.5442 0.0325 -4.9023 0.0545 -0.0262 -1.6566 -0.0497 -4.0924 -0.0497 -5.6316Z" stroke-width="3.429"></path>
  <path stroke="currentColor" stroke-linejoin="round" d="M33.4504 26.4714c0.0262 -1.6566 0.0497 -4.0924 0.0497 -5.6316 0 -1.5631 -0.0243 -4.0506 -0.0509 -5.7079 -1.3142 0.0456 -2.944 0.0882 -4.9009 0.1155 -0.0259 1.6556 -0.049 4.0653 -0.049 5.5924 0 1.5225 0.023 3.922 0.0488 5.5771 1.9131 0.0127 3.5442 0.0325 4.9023 0.0545Z" stroke-width="3.429"></path>
</svg>
