<svg xmlns="http://www.w3.org/2000/svg" fill="none" viewBox="0 0 48 48">
  <path fill="currentColor" fill-rule="evenodd" d="M35.998 8.43778c0 -1.52281 -0.0429 -2.71216 -0.0965 -3.60271 -0.011 -0.18367 -0.0831 -0.31885 -0.1869 -0.41746 -0.108 -0.10267 -0.2771 -0.18878 -0.5061 -0.19937C33.0584 4.11887 29.3652 4 24 4c-5.3652 0 -9.0584 0.11887 -11.2085 0.21824 -0.229 0.01059 -0.3981 0.09669 -0.5061 0.19937 -0.1038 0.09861 -0.1759 0.23379 -0.1869 0.41746 -0.0536 0.89055 -0.0965 2.0799 -0.0965 3.60271 0 1.5228 0.0429 2.71212 0.0965 3.60272 0.011 0.1837 0.0831 0.3188 0.1869 0.4174 0.108 0.1027 0.2771 0.1888 0.5061 0.1994 2.1501 0.0994 5.8433 0.2183 11.2085 0.2183 5.3652 0 9.0584 -0.1189 11.2085 -0.2183 0.229 -0.0106 0.3981 -0.0967 0.5061 -0.1994 0.1038 -0.0986 0.1759 -0.2337 0.1869 -0.4174 0.0536 -0.8906 0.0965 -2.07991 0.0965 -3.60272Zm3.8963 -3.84271c0.0586 0.97524 0.1037 2.24478 0.1037 3.84271 0 1.59792 -0.0451 2.86742 -0.1037 3.84272 -0.1493 2.484 -2.1482 4.2638 -4.5012 4.3726 -0.1051 0.0048 -0.2137 0.0097 -0.3257 0.0146 0.0149 1.1614 0.0268 2.6168 0.0268 3.574 0 1.0366 -0.0139 2.6574 -0.0306 3.8563 0.5982 0.0122 1.1219 0.0244 1.5722 0.0359 2.0739 0.0529 4.1784 1.4919 4.3411 3.987 0.0276 0.4236 0.0446 0.9027 0.0446 1.4409 0 0.5382 -0.017 1.0173 -0.0446 1.4409 -0.1375 2.1078 -1.6606 3.4619 -3.3805 3.8634 0.0185 1.3088 0.0349 3.2623 0.0349 4.4767 0 1.7769 -0.0351 5.1361 -0.0605 5.743 -0.0415 0.9923 -0.8269 1.4765 -1.1618 1.6384 -0.4328 0.2091 -0.9299 0.304 -1.4124 0.3249 -0.1755 0.0076 -0.3634 0.0124 -0.5574 0.0124 -0.1941 0 -0.382 -0.0048 -0.5575 -0.0124 -0.4825 -0.0209 -0.9795 -0.1158 -1.4124 -0.3249 -0.3349 -0.1619 -1.1203 -0.6461 -1.1618 -1.6384 -0.0254 -0.6069 -0.0605 -3.9661 -0.0605 -5.743 0 -1.1485 0.0146 -2.9581 0.0319 -4.2582 -2.0039 0.023 -4.4247 0.039 -7.2789 0.039 -2.8561 0 -5.2782 -0.016 -7.2829 -0.0391 0.0172 1.3002 0.0319 3.1098 0.0319 4.2583 0 1.7769 -0.0351 5.1361 -0.0605 5.743 -0.0415 0.9923 -0.8269 1.4765 -1.1618 1.6384 -0.4329 0.2091 -0.9299 0.304 -1.4124 0.3249 -0.1755 0.0076 -0.3634 0.0124 -0.5575 0.0124 -0.194 0 -0.3819 -0.0048 -0.5574 -0.0124 -0.4825 -0.0209 -0.9796 -0.1158 -1.4124 -0.3249 -0.3349 -0.1619 -1.1203 -0.6461 -1.1618 -1.6384 -0.0254 -0.6069 -0.0606 -3.9661 -0.0606 -5.743 0 -1.2147 0.0165 -3.1688 0.035 -4.4776 -1.71822 -0.4027 -3.23915 -1.7563 -3.37652 -3.8625 -0.02763 -0.4236 -0.04456 -0.9027 -0.04456 -1.4409 0 -0.5382 0.01693 -1.0173 0.04456 -1.4409 0.16274 -2.4951 2.26726 -3.9341 4.34112 -3.987 0.4504 -0.0115 0.974 -0.0237 1.5724 -0.0359 -0.0168 -1.1989 -0.0307 -2.8197 -0.0307 -3.8563 0 -0.9572 0.0119 -2.4126 0.0269 -3.574 -0.1121 -0.0049 -0.2208 -0.0098 -0.3259 -0.0147 -2.353 -0.1087 -4.35191 -1.8885 -4.50122 -4.3725 -0.05861 -0.9753 -0.10373 -2.2448 -0.10373 -3.84272 0 -1.59793 0.04512 -2.86747 0.10373 -3.84271C8.255 2.11104 10.2539 0.331259 12.6069 0.222507 14.821 0.120172 18.5758 0 24 0c5.4242 0 9.179 0.120173 11.3931 0.222508 2.353 0.108752 4.3519 1.888532 4.5012 4.372562ZM19.2607 24.0158C20.682 24.006 22.2605 24 24 24s3.3181 0.006 4.7394 0.0158c-0.0162 -1.1899 -0.0295 -2.7611 -0.0295 -3.7741 0 -0.9097 0.0107 -2.2695 0.0246 -3.3991 -1.4071 0.0204 -2.9839 0.033 -4.7345 0.033 -1.7506 0 -3.3273 -0.0126 -4.7344 -0.033 0.0139 1.1297 0.0247 2.4894 0.0247 3.3991 0 1.013 -0.0133 2.5842 -0.0296 3.7741Zm17.7247 4.3654c0.0218 0.3341 0.0361 0.7264 0.0361 1.1806 0 0.4542 -0.0143 0.8465 -0.0361 1.1806 -0.003 0.0464 -0.0128 0.0685 -0.0176 0.0779 -0.0056 0.011 -0.0167 0.028 -0.0418 0.0495 -0.0529 0.0451 -0.1801 0.1158 -0.3923 0.1212 -2.2429 0.0573 -6.3646 0.1326 -12.5337 0.1326 -6.1691 0 -10.2908 -0.0753 -12.5337 -0.1326 -0.2122 -0.0054 -0.3394 -0.0761 -0.3923 -0.1212 -0.0251 -0.0215 -0.0362 -0.0385 -0.0418 -0.0495 -0.0048 -0.0094 -0.0146 -0.0315 -0.0176 -0.0779 -0.0218 -0.3341 -0.0361 -0.7264 -0.0361 -1.1806 0 -0.4542 0.0143 -0.8465 0.0361 -1.1806 0.003 -0.0464 0.0128 -0.0685 0.0176 -0.0779 0.0056 -0.011 0.0167 -0.028 0.0418 -0.0495 0.0529 -0.0451 0.1801 -0.1158 0.3923 -0.1212C13.7092 28.0753 17.8309 28 24 28c6.1691 0 10.2908 0.0753 12.5337 0.1326 0.2122 0.0054 0.3394 0.0761 0.3923 0.1212 0.0251 0.0215 0.0362 0.0385 0.0418 0.0495 0.0048 0.0094 0.0146 0.0315 0.0176 0.0779Z" clip-rule="evenodd" stroke-width="3.429"></path>
</svg>
