<svg xmlns="http://www.w3.org/2000/svg" fill="none" viewBox="0 0 48 48">
  <path fill="currentColor" fill-rule="evenodd" d="M39.498 8.67997c0 -1.58854 -0.0448 -2.84805 -0.1028 -3.81271 -0.133 -2.21244 -1.9107 -3.80537 -4.0251 -3.903097C33.1639 0.862198 29.4168 0.742188 24 0.742188c-5.4168 0 -9.1639 0.120009 -11.3701 0.221974 -2.1144 0.097728 -3.89213 1.690658 -4.02512 3.903098 -0.05798 0.96466 -0.10283 2.22417 -0.10283 3.81271 0 1.58853 0.04485 2.84803 0.10283 3.81273 0.13299 2.2124 1.91072 3.8053 4.02512 3.9031 0.1533 0.0071 0.314 0.0142 0.4822 0.0214 -0.0119 1.3438 -0.0203 2.7899 -0.0203 3.825 0 1.2366 0.012 3.06 0.0276 4.5945 -0.6699 0.0132 -1.2502 0.0266 -1.7424 0.0392 -1.87031 0.0478 -3.71242 1.334 -3.85497 3.5197 -0.0269 0.4124 -0.04351 0.8807 -0.04351 1.4084 0 0.5277 0.01661 0.996 0.04351 1.4084 0.10706 1.6416 1.17288 2.7758 2.48927 3.259 -0.008 1.0765 -0.01325 2.1493 -0.01325 2.9661 0 2.2894 0.04115 6.5895 0.06985 7.3453 0.0265 0.6965 0.5436 1.1069 0.8983 1.2957 0.3957 0.2106 0.88 0.3196 1.3854 0.3436 0.1971 0.0094 0.4071 0.0154 0.623 0.0154 0.2159 0 0.4259 -0.006 0.6231 -0.0154 0.5053 -0.024 0.9896 -0.133 1.3853 -0.3436 0.3548 -0.1888 0.8718 -0.5992 0.8983 -1.2957 0.0287 -0.7558 0.0699 -5.0559 0.0699 -7.3453 0 -0.7293 -0.0042 -1.6626 -0.0108 -2.6203 2.1445 0.028 4.823 0.0486 8.0596 0.0486 3.2346 0 5.9118 -0.0206 8.0557 -0.0486 -0.0066 0.9578 -0.0108 1.8911 -0.0108 2.6203 0 2.2894 0.0412 6.5895 0.0699 7.3453 0.0265 0.6965 0.5435 1.1069 0.8983 1.2957 0.3957 0.2106 0.8799 0.3196 1.3853 0.3436 0.1972 0.0094 0.4072 0.0154 0.6231 0.0154 0.2159 0 0.4259 -0.006 0.623 -0.0154 0.5054 -0.024 0.9897 -0.133 1.3854 -0.3436 0.3547 -0.1888 0.8718 -0.5992 0.8983 -1.2957 0.0287 -0.7558 0.0698 -5.0559 0.0698 -7.3453 0 -0.8165 -0.0052 -1.8887 -0.0132 -2.9646 1.3182 -0.4824 2.386 -1.6173 2.4932 -3.2605 0.0269 -0.4124 0.0435 -0.8807 0.0435 -1.4084 0 -0.5277 -0.0166 -0.996 -0.0435 -1.4084 -0.1426 -2.1857 -1.9847 -3.4719 -3.855 -3.5197 -0.4701 -0.012 -1.0205 -0.0248 -1.6526 -0.0375 0.0156 -1.5348 0.0276 -3.3591 0.0276 -4.5962 0 -1.0361 -0.0084 -2.484 -0.0203 -3.8288 0.1358 -0.0059 0.2666 -0.0118 0.3924 -0.0176 2.1144 -0.0978 3.8921 -1.6907 4.0251 -3.9031 0.058 -0.9647 0.1028 -2.2242 0.1028 -3.81273ZM29.0638 16.5798c-1.4885 0.0233 -3.1746 0.0379 -5.0638 0.0379 -1.8513 0 -3.5076 -0.014 -4.9739 -0.0365 0.0111 1.2964 0.0188 2.6679 0.0188 3.661 0 1.216 -0.0116 2.9994 -0.0268 4.5175 1.4834 -0.0109 3.1425 -0.0175 4.9819 -0.0175 1.8766 0 3.5656 0.0069 5.0717 0.0182 -0.0152 -1.5183 -0.0268 -3.302 -0.0268 -4.5182 0 -0.9935 0.0078 -2.3656 0.0189 -3.6624Z" clip-rule="evenodd" stroke-width="3.429"></path>
</svg>
