<svg xmlns="http://www.w3.org/2000/svg" viewBox="0 0 24 24" fill="none"><path d="M17.542 12.25C18.4434 12.25 19.1811 12.2504 19.7725 12.3145C20.387 12.3811 20.9325 12.5241 21.4102 12.8711C21.686 13.0715 21.9285 13.314 22.1289 13.5899C22.4759 14.0675 22.6189 14.613 22.6855 15.2275C22.7496 15.8189 22.75 16.5566 22.75 17.458V17.542C22.75 18.4434 22.7496 19.1811 22.6855 19.7725C22.6189 20.387 22.4759 20.9325 22.1289 21.4102C21.9285 21.686 21.686 21.9285 21.4102 22.1289C20.9325 22.4759 20.387 22.6189 19.7725 22.6856C19.1811 22.7496 18.4434 22.75 17.542 22.75H12.458C11.5566 22.75 10.8189 22.7496 10.2275 22.6856C9.61301 22.6189 9.0675 22.4759 8.58984 22.1289C8.31401 21.9285 8.07152 21.686 7.87109 21.4102C7.52406 20.9325 7.38107 20.387 7.31445 19.7725C7.25038 19.1811 7.24998 18.4434 7.25 17.542V17.458C7.24998 16.5566 7.25038 15.8189 7.31445 15.2275C7.38107 14.613 7.52406 14.0675 7.87109 13.5899C8.07152 13.314 8.31401 13.0715 8.58984 12.8711C9.0675 12.5241 9.61301 12.3811 10.2275 12.3145C10.8189 12.2504 11.5566 12.25 12.458 12.25H17.542ZM13.7578 15.3467C13.3972 14.9284 12.765 14.8816 12.3467 15.2422L11.4268 16.0352L11.3955 16.0625C11.231 16.2041 11.0394 16.3698 10.8965 16.5313C10.731 16.7182 10.5 17.0412 10.5 17.5C10.5 17.9588 10.731 18.2818 10.8965 18.4688C11.0394 18.6302 11.231 18.7959 11.3955 18.9375L11.4268 18.9649L12.3467 19.7578C12.765 20.1184 13.3972 20.0716 13.7578 19.6533C14.1184 19.235 14.0716 18.6028 13.6533 18.2422L12.791 17.5L13.6533 16.7578C14.0716 16.3972 14.1184 15.765 13.7578 15.3467ZM17.6533 15.2422C17.235 14.8816 16.6028 14.9284 16.2422 15.3467C15.8816 15.765 15.9284 16.3972 16.3467 16.7578L17.209 17.5L16.3467 18.2422C15.9284 18.6028 15.8816 19.235 16.2422 19.6533C16.6028 20.0716 17.235 20.1184 17.6533 19.7578L18.5732 18.9649L18.6045 18.9375C18.769 18.7959 18.9606 18.6302 19.1035 18.4688C19.269 18.2818 19.5 17.9588 19.5 17.5C19.5 17.0412 19.269 16.7182 19.1035 16.5313C18.9606 16.3698 18.769 16.2041 18.6045 16.0625L18.5732 16.0352L17.6533 15.2422Z" fill="currentColor"/><path d="M12.0473 1.24999H9.95269C8.17568 1.24996 6.74175 1.24994 5.61368 1.40359C4.44069 1.56336 3.45425 1.90538 2.67241 2.69746C1.89268 3.4874 1.55794 4.48045 1.40121 5.66141C1.24996 6.80117 1.24998 8.25121 1.25 10.054V10.1946C1.24998 11.9975 1.24996 13.4475 1.40121 14.5873C1.55794 15.7682 1.89268 16.7613 2.67241 17.5512C3.29565 18.1826 4.05283 18.5313 4.93946 18.7268C5.46523 18.8428 5.98572 18.5118 6.102 17.9875C6.21828 17.4632 5.88632 16.9442 5.36054 16.8283C4.7369 16.6908 4.35465 16.4836 4.06217 16.1873C3.69961 15.82 3.46321 15.3031 3.33436 14.3322C3.20201 13.3349 3.2 12.014 3.2 10.1243C3.2 9.00433 3.20071 8.08411 3.22884 7.31264C3.23844 7.04959 3.24323 6.91806 3.33039 6.83402C3.41755 6.74999 3.5516 6.74999 3.81971 6.74999H18.1803C18.4484 6.74999 18.5825 6.74999 18.6696 6.83402C18.7568 6.91806 18.7616 7.04959 18.7712 7.31264C18.7993 8.08411 18.8 9.00433 18.8 10.1243C18.8 10.6613 19.2365 11.0966 19.775 11.0966C20.3135 11.0966 20.75 10.6613 20.75 10.1243V10.0541C20.75 8.25122 20.75 6.80118 20.5988 5.66141C20.4421 4.48045 20.1073 3.4874 19.3276 2.69746C18.5458 1.90538 17.5593 1.56336 16.3863 1.40359C15.2583 1.24994 13.8243 1.24996 12.0473 1.24999Z" fill="currentColor"/></svg>
