<svg xmlns="http://www.w3.org/2000/svg" viewBox="0 0 24 24" fill="none"><path d="M17.75 8.25V6.25H15.75C15.1977 6.25 14.75 5.80228 14.75 5.25C14.75 4.69772 15.1977 4.25 15.75 4.25H17.75V2.25C17.75 1.69772 18.1977 1.25 18.75 1.25C19.3023 1.25 19.75 1.69772 19.75 2.25V4.25H21.75C22.3023 4.25 22.75 4.69772 22.75 5.25C22.75 5.80228 22.3023 6.25 21.75 6.25H19.75V8.25C19.75 8.80228 19.3023 9.25 18.75 9.25C18.1977 9.25 17.75 8.80228 17.75 8.25Z" fill="currentColor"/><path d="M13.5 2.26074V5.25C13.5 6.49264 14.5074 7.5 15.75 7.5H16.5V8.25C16.5 9.49264 17.5074 10.5 18.75 10.5C19.9926 10.5 21 9.49264 21 8.25V7.5H22.6602C22.6794 7.88308 22.6947 8.2899 22.71 8.72363C22.7359 9.45905 22.75 10.2205 22.75 11C22.75 11.7795 22.7359 12.5409 22.71 13.2764C22.6298 15.5495 22.6167 17.0869 21.4023 18.3105C20.7921 18.9254 20.0995 19.2383 19.2588 19.4082C18.4723 19.5671 17.51 19.6084 16.3438 19.6582H16.3418L16.2754 19.6611C15.5355 19.6928 14.7696 19.7165 13.9834 19.7314C13.1863 19.7466 12.9733 19.7607 12.7988 19.8271C12.6239 19.8938 12.4615 20.0198 11.873 20.5244L9.69336 22.3936C9.4251 22.6236 9.08286 22.75 8.72949 22.75C7.91249 22.7498 7.25022 22.0875 7.25 21.2705V19.6396C6.26419 19.5959 5.43456 19.5483 4.74121 19.4082C3.90049 19.2383 3.20788 18.9254 2.59766 18.3105C1.38331 17.0869 1.37023 15.5495 1.29004 13.2764C1.26409 12.5409 1.25 11.7795 1.25 11C1.25 10.2205 1.26409 9.45905 1.29004 8.72363C1.37023 6.45046 1.38331 4.91312 2.59766 3.68945C3.20788 3.07464 3.90049 2.76171 4.74121 2.5918C5.52763 2.43287 6.49005 2.39165 7.65625 2.3418H7.6582L7.72461 2.33887C9.0745 2.28112 10.5108 2.25 12 2.25C12.5066 2.25 13.007 2.25372 13.5 2.26074ZM8 10C7.44771 10 7 10.4477 7 11C7 11.5523 7.44772 12 8 12C8.55228 12 9 11.5523 9 11C9 10.4477 8.55228 10 8 10ZM12.001 10C11.4833 10 11.0572 10.3933 11.0059 10.8975L11.001 11L11.0059 11.1025C11.0572 11.6067 11.4833 12 12.001 12C12.5532 11.9999 13.001 11.5522 13.001 11C13.001 10.4821 12.607 10.0559 12.1025 10.0049L12.001 10Z" fill="currentColor"/></svg>
