<svg xmlns="http://www.w3.org/2000/svg" viewBox="0 0 24 24" fill="none"><path d="M5.00012 8.99902C5.00012 10.3569 4.99521 11.5766 5.12708 12.5576C5.26678 13.5964 5.59248 14.6616 6.46497 15.5342C7.3375 16.4067 8.40277 16.7323 9.44153 16.8721C10.4225 17.0039 11.6424 16.999 13.0001 16.999H16.0001C16.6082 16.999 17.1889 16.9981 17.7325 16.9873C17.7174 17.5107 17.6895 17.9774 17.6339 18.3906C17.5129 19.2907 17.2534 20.0485 16.6515 20.6504C16.0496 21.2523 15.2918 21.5118 14.3917 21.6328C13.5268 21.7491 12.4276 21.7491 11.0646 21.749H7.93567C6.57261 21.7491 5.47343 21.7491 4.60852 21.6328C3.70841 21.5118 2.95067 21.2523 2.34876 20.6504C1.74684 20.0485 1.48735 19.2907 1.36633 18.3906C1.25007 17.5257 1.25009 16.4265 1.25012 15.0635V14.9346C1.25009 13.5715 1.25007 12.4723 1.36633 11.6074C1.48735 10.7073 1.74684 9.94957 2.34876 9.34766C2.95067 8.74574 3.70841 8.48625 4.60852 8.36523C4.73437 8.34832 4.86524 8.33462 5.0011 8.32227C5.0007 8.54357 5.00012 8.76932 5.00012 8.99902Z" fill="currentColor"/><path opacity="0.4" d="M22.7091 6.45313C22.7488 7.15813 22.7501 7.98184 22.7501 8.93457V9.06348C22.7502 10.4265 22.7502 11.5257 22.6339 12.3906C22.5129 13.2907 22.2534 14.0485 21.6515 14.6504C21.0496 15.2522 20.2917 15.5118 19.3917 15.6328C18.5269 15.749 17.4275 15.7491 16.0646 15.749H12.9357C11.5728 15.7491 10.4734 15.7491 9.60852 15.6328C8.70857 15.5118 7.95059 15.2522 7.34876 14.6504C6.74697 14.0485 6.48734 13.2906 6.36633 12.3906C6.25008 11.5257 6.25009 10.4265 6.25012 9.06348V8.93457C6.2501 7.99154 6.25069 7.17483 6.28919 6.47461L6.8927 6.79004L11.0646 8.98047C12.5003 9.73393 13.4415 10.2499 14.5001 10.25C15.5587 10.25 16.5001 9.73387 17.9357 8.98047L22.1075 6.79102C22.1133 6.78799 22.1194 6.78444 22.1251 6.78125L22.7091 6.45313Z" fill="currentColor"/><path opacity="0.4" d="M16.0646 2.24902C17.4275 2.24899 18.5269 2.24902 19.3917 2.36524C20.2917 2.48624 21.0496 2.74587 21.6515 3.34766C22.0779 3.77407 22.3303 4.27939 22.4855 4.85742L21.3917 5.47168L17.2384 7.65234C15.6669 8.4771 15.1032 8.75 14.5001 8.75C13.8972 8.74988 13.3334 8.47714 11.7618 7.65234L7.58997 5.46289L7.58899 5.46192L6.50403 4.89453C6.65823 4.30086 6.91325 3.78324 7.34876 3.34766C7.95059 2.74582 8.70857 2.48627 9.60852 2.36524C10.4734 2.24898 11.5728 2.24899 12.9357 2.24902H16.0646Z" fill="currentColor"/></svg>
