<svg xmlns="http://www.w3.org/2000/svg" viewBox="0 0 24 24" fill="none"><path d="M7.16125 6.53969C7.39096 6.50924 7.62481 6.58688 7.79114 6.75356L15.5958 14.5817C15.7452 14.7317 15.8245 14.9386 15.8136 15.15C15.8025 15.3616 15.7024 15.5592 15.5382 15.693C14.9254 16.1917 14.2576 16.5978 13.5577 16.9166C13.7593 17.1706 13.9373 17.4438 14.0851 17.7311C14.2392 18.0307 14.4347 18.3944 14.5031 18.7575C14.5884 19.2121 14.4803 19.6228 14.2101 20.0143C13.912 20.4459 13.5177 20.6679 13.0421 20.7301C12.6553 20.7806 12.202 20.722 11.7814 20.6725C10.1135 20.4761 8.92781 20.009 8.32532 19.112C8.3191 19.1027 8.31255 19.0932 8.30676 19.0836L7.34875 17.5055C5.31882 17.0196 3.4245 15.8637 2.07532 14.0319C1.86225 13.7426 1.64352 13.4503 1.49329 13.1354C1.32693 12.7865 1.25014 12.4299 1.25012 11.9967C1.25018 11.5635 1.32687 11.2069 1.49329 10.8581C1.64364 10.543 1.86213 10.25 2.07532 9.96059C3.36058 8.21574 5.14118 7.0824 7.06262 6.55922L7.16125 6.53969ZM6.00012 10.9997C5.44792 10.9997 5.00025 11.4475 5.00012 11.9997C5.00012 12.5519 5.44784 12.9997 6.00012 12.9997C6.55241 12.9997 7.00012 12.5519 7.00012 11.9997C7 11.4475 6.55233 10.9997 6.00012 10.9997Z" fill="currentColor" fill-rule="evenodd" clip-rule="evenodd"/><path opacity="0.4" d="M12.8576 3.24999C13.353 3.24302 13.8198 3.39118 14.1925 3.82616C14.5364 4.22765 14.6493 4.66912 14.5861 5.14745C14.5345 5.53684 14.3598 5.96395 14.2013 6.36327C14.0897 6.64424 13.9475 6.92045 13.7755 7.17968C15.2615 7.90399 16.5776 9.03938 17.5333 10.581C17.7904 10.2818 18.0992 9.96408 18.4533 9.66503C19.3193 8.93347 20.5407 8.23143 22.0001 8.23143C22.3038 8.23143 22.5776 8.41556 22.6935 8.69628C22.8092 8.9771 22.7439 9.3006 22.5284 9.51464C22.2343 9.80681 21.7267 10.6726 21.4474 11.7461C21.1692 12.8159 21.1748 13.8722 21.629 14.624C21.7689 14.8554 21.7733 15.1443 21.6408 15.3799C21.5078 15.6156 21.2581 15.7617 20.9874 15.7617C20.5062 15.7617 20.0414 15.555 19.6661 15.335C19.2737 15.1047 18.8834 14.8017 18.5314 14.498C17.8332 13.8958 17.1873 13.2018 16.9132 12.9277L12.0197 8.03417C11.9797 8.00125 11.9425 7.96504 11.9103 7.92479L9.27357 5.28807C9.09577 5.11012 9.01928 4.85392 9.06946 4.60741C9.11989 4.36118 9.29047 4.15563 9.52357 4.06151C10.0851 3.83483 10.7847 3.6447 11.4327 3.49413C11.9391 3.37648 12.4375 3.25591 12.8576 3.24999Z" fill="currentColor"/><path d="M1.54308 1.54265C1.9336 1.15212 2.56661 1.15212 2.95714 1.54265L22.4571 21.0426C22.8477 21.4332 22.8477 22.0662 22.4571 22.4567C22.0666 22.8472 21.4336 22.8472 21.0431 22.4567L1.54308 2.95671C1.15255 2.56619 1.15255 1.93317 1.54308 1.54265Z" fill="currentColor"/></svg>
