<svg xmlns="http://www.w3.org/2000/svg" viewBox="0 0 24 24" fill="none"><path d="M7.16125 6.53978C7.39096 6.50933 7.62481 6.58697 7.79114 6.75365L15.5958 14.5818C15.7452 14.7318 15.8245 14.9387 15.8136 15.1501C15.8025 15.3617 15.7024 15.5593 15.5382 15.6931C14.9254 16.1918 14.2576 16.5979 13.5577 16.9167C13.7593 17.1707 13.9373 17.4439 14.0851 17.7312C14.2392 18.0308 14.4347 18.3945 14.5031 18.7576C14.5884 19.2122 14.4803 19.6229 14.2101 20.0144C13.912 20.446 13.5177 20.668 13.0421 20.7302C12.6553 20.7807 12.202 20.7221 11.7814 20.6726C10.1135 20.4762 8.92781 20.0091 8.32532 19.1121C8.3191 19.1028 8.31255 19.0933 8.30676 19.0837L7.34875 17.5056C5.31882 17.0197 3.4245 15.8638 2.07532 14.032C1.86225 13.7427 1.64352 13.4503 1.49329 13.1355C1.32693 12.7866 1.25014 12.43 1.25012 11.9968C1.25018 11.5636 1.32687 11.207 1.49329 10.8581C1.64364 10.5431 1.86213 10.2501 2.07532 9.96068C3.36058 8.21583 5.14118 7.08249 7.06262 6.55932L7.16125 6.53978ZM12.8575 3.24974C13.353 3.24278 13.8198 3.39093 14.1925 3.82592C14.5364 4.22741 14.6492 4.66888 14.5861 5.14721C14.5344 5.53659 14.3598 5.9637 14.2013 6.36303C14.0897 6.644 13.9475 6.92021 13.7755 7.17943C15.2615 7.90374 16.5775 9.03914 17.5333 10.5808C17.7904 10.2815 18.0992 9.96383 18.4532 9.66478C19.3193 8.93322 20.5407 8.23119 22.0001 8.23119C22.3038 8.23119 22.5776 8.41532 22.6935 8.69603C22.8091 8.97685 22.7439 9.30036 22.5284 9.51439C22.2343 9.80656 21.7267 10.6724 21.4474 11.7458C21.1692 12.8156 21.1748 13.8719 21.629 14.6238C21.7689 14.8552 21.7733 15.144 21.6407 15.3796C21.5078 15.6154 21.2581 15.7615 20.9874 15.7615C20.5062 15.7614 20.0414 15.5548 19.6661 15.3347C19.2737 15.1045 18.8834 14.8014 18.5314 14.4978C17.8332 13.8955 17.1873 13.2016 16.9132 12.9275L12.0197 8.03392C11.9797 8.001 11.9425 7.9648 11.9103 7.92455L9.27356 5.28783C9.09577 5.10988 9.01928 4.85368 9.06946 4.60717C9.11989 4.36094 9.29046 4.15539 9.52356 4.06127C10.0851 3.83458 10.7847 3.64446 11.4327 3.49389C11.9391 3.37623 12.4375 3.25567 12.8575 3.24974ZM6.00012 10.9997C5.44792 10.9997 5.00025 11.4476 5.00012 11.9997C5.00012 12.552 5.44784 12.9997 6.00012 12.9997C6.55241 12.9997 7.00012 12.552 7.00012 11.9997C7 11.4476 6.55233 10.9997 6.00012 10.9997Z" fill="currentColor" fill-rule="evenodd" clip-rule="evenodd"/><path d="M1.54308 1.54265C1.9336 1.15212 2.56661 1.15212 2.95714 1.54265L22.4571 21.0426C22.8477 21.4332 22.8477 22.0662 22.4571 22.4567C22.0666 22.8472 21.4336 22.8472 21.0431 22.4567L1.54308 2.95671C1.15255 2.56619 1.15255 1.93317 1.54308 1.54265Z" fill="currentColor"/></svg>
