<svg xmlns="http://www.w3.org/2000/svg" fill="none" viewBox="0 0 48 48">
  <g>
    <path fill="#8fbffa" d="M2.7891 38.0695c0.2729 1.4789 1.5785 2.2952 3.079 2.3946 2.6946 0.1783 8.1123 0.4084 18.1319 0.4084 9.33 0 14.6696 -0.1108 17.5361 -0.2061 1.8482 -0.0614 3.4688 -1.0933 3.7387 -2.9227 0.1176 -0.7975 0.1997 -1.79 0.1997 -3.0068 0 -1.2167 -0.0821 -2.2092 -0.1997 -3.0067 -0.2699 -1.8294 -1.8905 -2.8613 -3.7387 -2.9227 -2.8665 -0.0953 -8.2061 -0.2061 -17.5361 -0.2061 -9.33 0 -14.6697 0.1108 -17.5361 0.2061 -1.8482 0.0614 -3.4688 1.0933 -3.7387 2.9227 -0.1176 0.7975 -0.1997 1.79 -0.1997 3.0067 0 1.4271 0.1129 2.5154 0.2637 3.3326Z" stroke-width="3.429"></path>
    <path fill="currentColor" fill-opacity="0.4" d="M31.0663 28.626c0.02 -0.0676 0.0438 -0.1346 0.0713 -0.2005 1.2096 -2.9017 4.674 -11.1028 8.088 -18.1593 0.4671 -0.9655 1.6065 -1.3937 2.599 -0.9867l0.4838 0.1985c0.9924 0.4071 1.5029 1.512 1.1573 2.5275 -2.0971 6.1645 -4.7242 12.9156 -6.2281 16.6962 -1.6814 -0.0306 -3.7183 -0.0575 -6.1713 -0.0757Z" stroke-width="3.429"></path>
    <path fill="currentColor" fill-opacity="0.4" d="M16.9342 28.626c-0.02 -0.0676 -0.0438 -0.1346 -0.0713 -0.2005 -1.2096 -2.9017 -4.674 -11.1028 -8.088 -18.1593 -0.4672 -0.9655 -1.6065 -1.3937 -2.5989 -0.9867l-0.4839 0.1985c-0.9923 0.4071 -1.5028 1.512 -1.1573 2.5275C6.6319 18.17 9.259 24.9211 10.7629 28.7017c1.6814 -0.0306 3.7183 -0.0575 6.1713 -0.0757Z" stroke-width="3.429"></path>
    <path fill="currentColor" fill-opacity="0.4" d="M7.6385 40.5649c1.5093 0.0755 3.5136 0.151 6.1348 0.2081 -0.0034 1.1878 -0.0217 2.1431 -0.0442 2.8855 -0.0378 1.2463 -0.8986 2.256 -2.1444 2.3085 -0.2648 0.011 -0.5572 0.0177 -0.8785 0.0177 -0.3214 0 -0.6139 -0.0067 -0.8786 -0.0177 -1.2458 -0.0525 -2.1066 -1.0622 -2.1444 -2.3085 -0.0238 -0.7853 -0.0429 -1.8088 -0.0447 -3.0936Z" stroke-width="3.429"></path>
    <path fill="currentColor" fill-opacity="0.4" d="M34.226 40.8183c2.6209 -0.0317 4.6252 -0.0736 6.1344 -0.1155 -0.003 1.2209 -0.0216 2.1999 -0.0445 2.9571 -0.0377 1.2464 -0.8985 2.2561 -2.1444 2.3085 -0.2647 0.0112 -0.5572 0.0177 -0.8785 0.0177 -0.3213 0 -0.6137 -0.0065 -0.8785 -0.0177 -1.2458 -0.0524 -2.1066 -1.0621 -2.1444 -2.3085 -0.0222 -0.7332 -0.0403 -1.6742 -0.0441 -2.8416Z" stroke-width="3.429"></path>
    <path fill="#8fbffa" d="M27.0678 17.3528c0 1.6944 -1.3735 3.0678 -3.0678 3.0678s-3.0678 -1.3734 -3.0678 -3.0678S22.3057 14.285 24 14.285s3.0678 1.3735 3.0678 3.0678Z" stroke-width="3.429"></path>
    <path stroke="currentColor" stroke-linecap="round" stroke-linejoin="round" d="M2.7891 38.0695c0.2729 1.4789 1.5785 2.2952 3.079 2.3946 2.6946 0.1783 8.1123 0.4084 18.1319 0.4084 9.33 0 14.6696 -0.1108 17.5361 -0.2061 1.8482 -0.0614 3.4688 -1.0933 3.7387 -2.9227 0.1176 -0.7975 0.1997 -1.79 0.1997 -3.0068 0 -1.2167 -0.0821 -2.2092 -0.1997 -3.0067 -0.2699 -1.8294 -1.8905 -2.8613 -3.7387 -2.9227 -2.8665 -0.0953 -8.2061 -0.2061 -17.5361 -0.2061 -9.33 0 -14.6697 0.1108 -17.5361 0.2061 -1.8482 0.0614 -3.4688 1.0933 -3.7387 2.9227 -0.1176 0.7975 -0.1997 1.79 -0.1997 3.0067 0 1.4271 0.1129 2.5154 0.2637 3.3326Z" stroke-width="3.429"></path>
    <path stroke="currentColor" stroke-linecap="round" stroke-linejoin="round" d="M16.9341 28.6256c-0.02 -0.0674 -0.0437 -0.1343 -0.0712 -0.2001 -1.2096 -2.9017 -4.674 -11.1028 -8.088 -18.1593 -0.4672 -0.9655 -1.6065 -1.3937 -2.5989 -0.9867l-0.4839 0.1985c-0.9923 0.4071 -1.5028 1.512 -1.1573 2.5275 2.0971 6.1643 4.724 12.915 6.2279 16.6958" stroke-width="3.429"></path>
    <path stroke="currentColor" stroke-linecap="round" stroke-linejoin="round" d="M13.7733 40.773c-0.0034 1.1878 -0.0217 2.1431 -0.0442 2.8855 -0.0378 1.2463 -0.8986 2.256 -2.1444 2.3085 -0.2648 0.011 -0.5572 0.0177 -0.8785 0.0177 -0.3214 0 -0.6139 -0.0067 -0.8786 -0.0177 -1.2458 -0.0525 -2.1066 -1.0622 -2.1444 -2.3085 -0.0238 -0.7853 -0.0429 -1.8088 -0.0447 -3.0936" stroke-width="3.429"></path>
    <path stroke="currentColor" stroke-linecap="round" stroke-linejoin="round" d="M40.3604 40.7028c-0.003 1.2209 -0.0216 2.1999 -0.0445 2.9571 -0.0377 1.2464 -0.8985 2.2561 -2.1444 2.3085 -0.2647 0.0112 -0.5572 0.0177 -0.8785 0.0177 -0.3213 0 -0.6137 -0.0065 -0.8785 -0.0177 -1.2458 -0.0524 -2.1066 -1.0621 -2.1445 -2.3085 -0.0221 -0.7332 -0.0402 -1.6742 -0.044 -2.8416" stroke-width="3.429"></path>
    <path stroke="currentColor" stroke-linecap="round" stroke-linejoin="round" d="M31.0663 28.6256c0.02 -0.0674 0.0437 -0.1343 0.0712 -0.2001 1.2096 -2.9017 4.674 -11.1028 8.088 -18.1593 0.4671 -0.9655 1.6065 -1.3937 2.5988 -0.9867l0.484 0.1985c0.9924 0.4071 1.5028 1.512 1.1573 2.5275 -2.097 6.1643 -4.724 12.915 -6.228 16.6958" stroke-width="3.429"></path>
    <path stroke="currentColor" stroke-linecap="round" stroke-linejoin="round" d="M9.6837 34.7369h1.0226" stroke-width="3.429"></path>
    <path stroke="currentColor" stroke-linecap="round" stroke-linejoin="round" d="M38.3163 34.7369H26.0452" stroke-width="3.429"></path>
    <path stroke="currentColor" stroke-linecap="round" stroke-linejoin="round" d="M15.8192 34.7369h1.0226" stroke-width="3.429"></path>
    <path stroke="currentColor" stroke-linecap="round" stroke-linejoin="round" d="M13.7741 6.1043c5.6475 -5.4539 14.8043 -5.4539 20.4519 0" stroke-width="3.429"></path>
    <path stroke="currentColor" stroke-linecap="round" stroke-linejoin="round" d="M17.8644 10.706c3.3886 -3.4087 8.8826 -3.4087 12.2712 0" stroke-width="3.429"></path>
    <path stroke="currentColor" stroke-linecap="round" stroke-linejoin="round" d="M27.0678 17.3528c0 1.6944 -1.3735 3.0678 -3.0678 3.0678s-3.0678 -1.3734 -3.0678 -3.0678S22.3057 14.285 24 14.285s3.0678 1.3735 3.0678 3.0678Z" stroke-width="3.429"></path>
  </g>
</svg>
