<svg xmlns="http://www.w3.org/2000/svg" fill="none" viewBox="0 0 48 48">
  <g>
    <path fill="currentColor" fill-rule="evenodd" d="M9.56158 11.3522c-0.57335 -1.185 -1.96945 -1.70679 -3.18128 -1.2097l-0.47322 0.1941c-1.21182 0.4971 -1.83937 1.849 -1.41537 3.0953 1.53287 4.5058 3.35358 9.3284 4.79013 13.0225 0.71846 1.8475 1.34126 3.4137 1.78446 4.5182 0.2216 0.5523 0.3984 0.9892 0.5198 1.2881 0.0607 0.1494 0.1075 0.2644 0.1392 0.3421l0.0484 0.1183c0.0677 0.165 0.2182 0.2815 0.3949 0.3056 2.0177 0.2757 4.4449 -0.7199 5.6878 -2.3331 0.1089 -0.1413 0.134 -0.3304 0.0663 -0.4954l-0.0484 -0.1177c-0.032 -0.0776 -0.0794 -0.1923 -0.1411 -0.3414 -0.1235 -0.298 -0.3045 -0.7332 -0.5345 -1.282 -0.4601 -1.0976 -1.1166 -2.65 -1.9025 -4.4698 -1.5714 -3.6388 -3.6618 -8.3508 -5.73462 -12.6351Zm2.31852 35.63c-0.266 0.0112 -0.559 0.0178 -0.8801 0.0178 -0.3211 0 -0.6141 -0.0066 -0.8801 -0.0178 -1.51893 -0.0639 -2.53216 -1.3016 -2.5758 -2.7419C7.51945 43.4268 7.5 42.3554 7.5 41s0.01945 -2.4268 0.0441 -3.2403c0.04364 -1.4403 1.05687 -2.678 2.5758 -2.7419 0.266 -0.0112 0.559 -0.0178 0.8801 -0.0178 0.3211 0 0.6141 0.0066 0.8801 0.0178 1.5189 0.0639 2.5322 1.3016 2.5758 2.7419 0.0246 0.8135 0.0441 1.8849 0.0441 3.2403s-0.0195 2.4268 -0.0441 3.2403c-0.0436 1.4403 -1.0569 2.678 -2.5758 2.7419Zm24.2398 0c0.266 0.0112 0.559 0.0178 0.8801 0.0178 0.3211 0 0.6141 -0.0066 0.8801 -0.0178 1.5189 -0.0639 2.5322 -1.3016 2.5758 -2.7419 0.0246 -0.8135 0.0441 -1.8849 0.0441 -3.2403s-0.0195 -2.4268 -0.0441 -3.2403c-0.0436 -1.4403 -1.0569 -2.678 -2.5758 -2.7419C37.6141 35.0066 37.3211 35 37 35c-0.3211 0 -0.6141 0.0066 -0.8801 0.0178 -1.5189 0.0639 -2.5322 1.3016 -2.5758 2.7419 -0.0246 0.8135 -0.0441 1.8849 -0.0441 3.2403s0.0195 2.4268 0.0441 3.2403c0.0436 1.4403 1.0569 2.678 2.5758 2.7419Zm0.1057 -14.2612 0.0483 -0.1182c0.0317 -0.0777 0.0786 -0.1927 0.1393 -0.3421 0.1213 -0.2989 0.2981 -0.7358 0.5197 -1.2881 0.4432 -1.1045 1.066 -2.6707 1.7845 -4.5182 1.4365 -3.6941 3.2572 -8.5167 4.7901 -13.0225 0.424 -1.2463 -0.2035 -2.5982 -1.4154 -3.0953l-0.4732 -0.1941c-1.2118 -0.49709 -2.6079 0.0247 -3.1813 1.2097 -2.0728 4.2843 -4.1632 8.9963 -5.7346 12.6351 -0.7859 1.8198 -1.4424 3.3722 -1.9025 4.4698 -0.23 0.5488 -0.411 0.984 -0.5345 1.282 -0.0617 0.1491 -0.1091 0.2638 -0.1411 0.3414l-0.0484 0.1177s-0.5391 -0.1898 -0.0765 0h0.0765c-0.0677 0.165 -0.0425 0.3541 0.0663 0.4954 1.2429 1.6132 3.6701 2.6088 5.6878 2.3331 0.1767 -0.0241 0.3273 -0.1407 0.395 -0.3057Z" clip-rule="evenodd" stroke-width="1"></path>
    <path fill="currentColor" fill-opacity="0.4" d="M24 43.5c-10.3143 0 -15.67919 -0.2487 -18.21711 -0.4293 -1.64827 -0.1172 -3.46157 -1.065 -3.91439 -3.1155C1.65793 39.0018 1.5 37.7157 1.5 36c0 -1.5233 0.12449 -2.7335 0.29692 -3.6792 0.43425 -2.3816 2.54704 -3.5304 4.52358 -3.6018C9.01428 28.6218 14.3201 28.5 24 28.5s14.9857 0.1218 17.6795 0.219c1.9765 0.0713 4.0893 1.2202 4.5236 3.6018 0.1724 0.9457 0.2969 2.1559 0.2969 3.6792 0 1.5233 -0.1245 2.7335 -0.2969 3.6792 -0.4343 2.3816 -2.5471 3.5304 -4.5236 3.6018 -2.6938 0.0972 -7.9996 0.219 -17.6795 0.219Z" stroke-width="1"></path>
    <path fill="currentColor" fill-rule="evenodd" d="M32.6107 8.93868c-4.7478 -4.58491 -12.4736 -4.58491 -17.2214 0 -0.7945 0.7673 -2.0607 0.7452 -2.828 -0.04937 -0.7673 -0.79456 -0.7452 -2.06069 0.0494 -2.82799 6.2979 -6.0817594 16.4807 -6.0817594 22.7786 0 0.7946 0.7673 0.8167 2.03343 0.0494 2.82799 -0.7673 0.79457 -2.0334 0.81667 -2.828 0.04937ZM19.4184 13.41c2.5317 -2.5467 6.6315 -2.5467 9.1632 0 0.7788 0.7834 2.0451 0.7871 2.8284 0.0084 0.7834 -0.7788 0.7871 -2.0451 0.0084 -2.8284 -4.0957 -4.11999 -10.7411 -4.11999 -14.8368 0 -0.7787 0.7833 -0.775 2.0496 0.0084 2.8284 0.7833 0.7787 2.0496 0.775 2.8284 -0.0084ZM24 14c-1.933 0 -3.5 1.567 -3.5 3.5S22.067 21 24 21s3.5 -1.567 3.5 -3.5S25.933 14 24 14Z" clip-rule="evenodd" stroke-width="1"></path>
    <path fill="currentColor" fill-rule="evenodd" d="M7 36c0 -1.1046 0.89543 -2 2 -2h1c1.1046 0 2 0.8954 2 2s-0.8954 2 -2 2H9c-1.10457 0 -2 -0.8954 -2 -2Zm17 -2h14c1.1046 0 2 0.8954 2 2s-0.8954 2 -2 2l-14 0c-1.1046 0 -2 -0.8954 -2 -2s0.8954 -2 2 -2Zm-8 0c-1.1046 0 -2 0.8954 -2 2s0.8954 2 2 2h1c1.1046 0 2 -0.8954 2 -2s-0.8954 -2 -2 -2h-1Z" clip-rule="evenodd" stroke-width="1"></path>
  </g>
</svg>
