<svg xmlns="http://www.w3.org/2000/svg" fill="none" viewBox="0 0 48 48">
  <g>
    <path fill="currentColor" fill-rule="evenodd" d="M32.1156 8.22131c-4.4729 -4.29508 -11.7574 -4.29508 -16.2304 0 -0.7967 0.76504 -2.0628 0.73935 -2.8278 -0.05738 -0.7651 -0.79673 -0.7394 -2.0628 0.0574 -2.82784 6.0209 -5.781453 15.7504 -5.781453 21.7713 0 0.7967 0.76504 0.8224 2.03111 0.0574 2.82784 -0.7651 0.79673 -2.0311 0.82242 -2.8279 0.05738Zm-3.8293 4.22259c-2.3671 -2.3677 -6.2047 -2.3677 -8.5717 0 -0.781 0.7811 -2.0473 0.7813 -2.8285 0.0003 -0.7811 -0.7809 -0.7813 -2.0473 -0.0003 -2.82842 3.9292 -3.93018 10.3 -3.93018 14.2293 0 0.7809 0.78112 0.7808 2.04752 -0.0004 2.82842 -0.7811 0.781 -2.0474 0.7808 -2.8284 -0.0003Zm-8.0376 4.6123c0 -2.072 1.6799 -3.7515 3.7519 -3.7515 2.0719 0 3.7518 1.6795 3.7518 3.7515 0 2.0721 -1.6799 3.7516 -3.7518 3.7516 -2.072 0 -3.7519 -1.6795 -3.7519 -3.7516ZM24 26.3125c-2.7406 0 -5.1311 0.0103 -7.2115 0.0275 -1.5774 -3.7232 -4.3046 -10.0219 -7.00177 -15.5967 -0.63161 -1.30544 -2.16869 -1.87869 -3.50121 -1.33211l-0.47323 0.19412c-1.33251 0.54659 -2.02424 2.03409 -1.55716 3.40709 1.59152 4.6782 3.49288 9.6972 4.9537 13.4431 -0.95646 0.0235 -1.75921 0.0478 -2.42769 0.0713 -2.52017 0.0886 -5.1358 1.6563 -5.56664 4.7443C1.08567 32.1945 1 33.3133 1 34.6562c0 1.5741 0.11769 2.8157 0.28759 3.7894 0.46643 2.6732 2.72259 3.9789 4.84156 4.1272 0.26913 0.0188 0.56467 0.0382 0.88843 0.0577 0.00737 0.4182 0.01655 0.7923 0.02661 1.1242 0.05034 1.6617 1.23505 3.1497 3.05451 3.2263 0.2732 0.0115 0.5732 0.0182 0.9012 0.0182 0.3279 0 0.6279 -0.0067 0.9011 -0.0182 1.8195 -0.0766 3.0042 -1.5646 3.0545 -3.2263 0.0077 -0.2535 0.0149 -0.5317 0.0211 -0.8353C17.4518 42.9685 20.4304 43 24 43c3.5734 0 6.5516 -0.0176 9.0232 -0.0449 0.0061 0.2903 0.013 0.5571 0.0204 0.801 0.0504 1.6617 1.2351 3.1497 3.0545 3.2263 0.2732 0.0115 0.5732 0.0182 0.9012 0.0182 0.3279 0 0.6279 -0.0067 0.9012 -0.0182 1.8194 -0.0766 3.0041 -1.5646 3.0545 -3.2263 0.0087 -0.2884 0.0168 -0.6087 0.0236 -0.9622l0.2403 -0.0082c2.5201 -0.0886 5.1358 -1.6563 5.5666 -4.7443 0.1288 -0.9234 0.2145 -2.0422 0.2145 -3.3852 0 -1.3429 -0.0857 -2.4618 -0.2145 -3.3851 -0.4308 -3.0881 -3.0465 -4.6557 -5.5666 -4.7443 -0.6681 -0.0234 -1.4702 -0.0478 -2.4258 -0.0712 1.4608 -3.7459 3.3622 -8.765 4.9537 -13.4432 0.4671 -1.373 -0.2246 -2.8605 -1.5571 -3.40709l-0.4733 -0.19412c-1.3325 -0.54658 -2.8696 0.02667 -3.5012 1.33211 -2.6972 5.5748 -5.4243 11.8735 -7.0017 15.5967 -2.0809 -0.0172 -4.4721 -0.0275 -7.2135 -0.0275Zm0 4c-9.1088 0 -14.30581 0.1144 -17.07839 0.2119 -1.09456 0.0384 -1.64853 0.6045 -1.74548 1.2994C5.07485 32.5497 5 33.4831 5 34.6562c0 1.3768 0.1031 2.3857 0.22805 3.1019 0.0454 0.2601 0.15686 0.417 0.30947 0.5351 0.17531 0.1358 0.46663 0.2611 0.87091 0.2893C8.98175 38.7627 14.2301 39 24 39c9.1088 0 14.3058 -0.1144 17.0784 -0.2119 1.0945 -0.0384 1.6485 -0.6045 1.7455 -1.2994 0.1012 -0.7259 0.1761 -1.6593 0.1761 -2.8325 0 -1.1731 -0.0749 -2.1065 -0.1761 -2.8324 -0.097 -0.6949 -0.651 -1.261 -1.7455 -1.2994 -2.7726 -0.0975 -7.9696 -0.2119 -17.0784 -0.2119Zm-14 2.3437c-1.10457 0 -2 0.8955 -2 2 0 1.1046 0.89543 2 2 2h1c1.1046 0 2 -0.8954 2 -2 0 -1.1045 -0.8954 -2 -2 -2h-1Zm14 2c0 -1.1045 0.8954 -2 2 -2l12 0.0001c1.1046 0 2 0.8954 2 1.9999 0 1.1046 -0.8954 2 -2 2H26c-1.1046 0 -2 -0.8954 -2 -2Zm-8 -2c-1.1046 0 -2 0.8955 -2 2 0 1.1046 0.8954 2 2 2h1c1.1046 0 2 -0.8954 2 -2 0 -1.1045 -0.8954 -2 -2 -2h-1Z" clip-rule="evenodd" stroke-width="3.429"></path>
  </g>
</svg>
