<svg xmlns="http://www.w3.org/2000/svg" fill="none" viewBox="0 0 48 48">
  <g>
    <path fill="currentColor" fill-rule="evenodd" d="M15.0979 8.1704c4.9085 -4.74 12.8957 -4.74 17.8042 0 0.8215 0.7933 2.1305 0.7705 2.9238 -0.051 0.7932 -0.8214 0.7704 -2.1304 -0.0511 -2.9237 -6.5111 -6.2876 -17.0385 -6.2876 -23.5496 0 -0.8215 0.7933 -0.8443 2.1022 -0.051 2.9237 0.7932 0.8215 2.1023 0.8443 2.9237 0.051Zm4.1654 4.6227c2.6174 -2.6329 6.856 -2.6329 9.4734 0 0.8051 0.8099 2.1143 0.8137 2.9241 0.0087 0.8099 -0.8052 0.8137 -2.1143 0.0087 -2.9241 -4.2343 -4.2595 -11.1047 -4.2595 -15.339 0 -0.805 0.8098 -0.8012 2.1189 0.0087 2.9241 0.8098 0.805 2.119 0.8012 2.9241 -0.0087Zm4.7367 0.61c-1.9984 0 -3.6185 1.62 -3.6185 3.6184S22.0016 20.64 24 20.64s3.6185 -1.62 3.6185 -3.6185S25.9984 13.4031 24 13.4031ZM9.0729 8.598C8.4801 7.3728 7.0368 6.8334 5.784 7.3473h-0.0001l-0.2446 0.1004 -0.2446 0.1003c-1.2528 0.514 -1.9016 1.9116 -1.4633 3.2001 1.7542 5.1563 3.8735 10.7154 5.4158 14.6505 1.8815 -0.0338 4.2816 -0.0644 7.3144 -0.0841 -1.5785 -3.7405 -4.5512 -10.6451 -7.4887 -16.7165Zm29.6797 16.8006c-1.8815 -0.0338 -4.2815 -0.0644 -7.3145 -0.0841 1.5786 -3.7405 4.5512 -10.6451 7.4888 -16.7165 0.5927 -1.2252 2.036 -1.7646 3.289 -1.2507l0.2446 0.1004 0.2446 0.1003c1.2528 0.5139 1.9015 1.9116 1.4633 3.2001 -1.7542 5.1563 -3.8735 10.7155 -5.4158 14.6505ZM24 27.8769c-10.0075 0 -15.4929 0.1259 -18.2779 0.2264 -2.0434 0.0739 -4.2277 1.2615 -4.6767 3.7237 -0.1782 0.9777 -0.3069 2.2289 -0.3069 3.8038 0 1.7737 0.1632 3.1034 0.3809 4.089 0.4682 2.1199 2.3429 3.0998 4.0469 3.221 0.4891 0.0348 1.0799 0.072 1.7864 0.1097 0.0083 0.6208 0.0205 1.1582 0.0344 1.6164 0.0452 1.489 1.0927 2.7686 2.663 2.8347 0.275 0.0116 0.5779 0.0184 0.9099 0.0184 0.332 0 0.6349 -0.0068 0.9099 -0.0184 1.5703 -0.0661 2.6179 -1.3457 2.663 -2.8347 0.012 -0.3968 0.0228 -0.8528 0.0309 -1.3711 2.6538 0.0537 5.8956 0.0888 9.8362 0.0888 3.9442 0 7.186 -0.0195 9.8368 -0.0494 0.008 0.502 0.0187 0.945 0.0303 1.3317 0.0451 1.489 1.0927 2.7686 2.663 2.8347 0.275 0.0116 0.5779 0.0184 0.9099 0.0184 0.332 0 0.6349 -0.0068 0.9099 -0.0184 1.5703 -0.0661 2.6179 -1.3457 2.663 -2.8347 0.0128 -0.4214 0.0242 -0.9098 0.0323 -1.4684 0.4597 -0.0136 0.8692 -0.0273 1.2327 -0.0403 2.0434 -0.0738 4.2277 -1.2615 4.6767 -3.7237 0.1782 -0.9777 0.3069 -2.2289 0.3069 -3.8037 0 -1.5749 -0.1287 -2.8261 -0.3069 -3.8038 -0.449 -2.4622 -2.6333 -3.65 -4.6767 -3.7237 -2.785 -0.1005 -8.2704 -0.2264 -18.2779 -0.2264ZM8.4923 33.5631c-1.1419 0 -2.0677 0.9257 -2.0677 2.0677s0.9258 2.0677 2.0677 2.0677h1.0339c1.142 0 2.0677 -0.9258 2.0677 -2.0677s-0.9258 -2.0677 -2.0677 -2.0677H8.4923Zm29.9816 0H24c-1.142 0 -2.0677 0.9257 -2.0677 2.0677S22.858 37.6985 24 37.6985h14.4739c1.1419 0 2.0676 -0.9258 2.0676 -2.0677s-0.9257 -2.0677 -2.0676 -2.0677Zm-24.8124 2.0677c0 -1.142 0.9258 -2.0677 2.0677 -2.0677h1.0339c1.142 0 2.0677 0.9257 2.0677 2.0677s-0.9257 2.0677 -2.0677 2.0677h-1.0339c-1.142 0 -2.0677 -0.9258 -2.0677 -2.0677Z" clip-rule="evenodd" stroke-width="3.429"></path>
  </g>
</svg>
