<svg xmlns="http://www.w3.org/2000/svg" viewBox="0 0 24 24" fill="none"><path d="M10.125 20.8752C10.125 17.0093 6.99099 13.8752 3.125 13.8752C2.57272 13.8752 2.125 13.4275 2.125 12.8752C2.125 12.323 2.57272 11.8752 3.125 11.8752C8.09556 11.8752 12.125 15.9047 12.125 20.8752C12.125 21.4275 11.6773 21.8752 11.125 21.8752C10.5727 21.8752 10.125 21.4275 10.125 20.8752Z" fill="currentColor"/><path d="M3.625 18.8752C4.45342 18.8752 5.125 19.5468 5.125 20.3752C5.125 21.2037 4.45342 21.8752 3.625 21.8752C2.79657 21.8752 2.125 21.2037 2.125 20.3752C2.125 19.5468 2.79657 18.8752 3.625 18.8752Z" fill="currentColor"/><path d="M16.125 2.12524C19.3006 2.12524 21.875 4.69961 21.875 7.87524C21.875 11.0509 19.3006 13.6252 16.125 13.6252C12.9494 13.6252 10.375 11.0509 10.375 7.87524C10.375 4.69961 12.9494 2.12524 16.125 2.12524ZM16.125 9.12524C15.7108 9.12524 15.375 9.46103 15.375 9.87524C15.375 10.2895 15.7108 10.6252 16.125 10.6252H16.1338C16.548 10.6252 16.8838 10.2895 16.8838 9.87524C16.8838 9.46103 16.548 9.12524 16.1338 9.12524H16.125ZM16.125 4.62524C15.7108 4.62524 15.375 4.96103 15.375 5.37524V7.37524C15.375 7.78946 15.7108 8.12524 16.125 8.12524C16.5392 8.12524 16.875 7.78946 16.875 7.37524V5.37524C16.875 4.96103 16.5392 4.62524 16.125 4.62524Z" fill="currentColor"/><path d="M17.125 20.8752C17.125 19.5808 16.9498 18.3285 16.6221 17.1409C16.4754 16.6087 16.7873 16.0584 17.3193 15.9114C17.8517 15.7644 18.4029 16.0772 18.5498 16.6096C18.9249 17.9688 19.125 19.3994 19.125 20.8752C19.125 21.4275 18.6773 21.8752 18.125 21.8752C17.5727 21.8752 17.125 21.4275 17.125 20.8752ZM3.125 4.87524C4.6008 4.87524 6.03147 5.07535 7.39062 5.45044C7.923 5.59738 8.2358 6.14853 8.08887 6.68091C7.94181 7.21295 7.39153 7.52486 6.85938 7.37817C5.67178 7.0504 4.41946 6.87524 3.125 6.87524C2.57272 6.87524 2.125 6.42753 2.125 5.87524C2.125 5.32296 2.57272 4.87524 3.125 4.87524Z" fill="currentColor"/></svg>
