<svg xmlns="http://www.w3.org/2000/svg" viewBox="0 0 24 24" fill="none"><path opacity="0.4" d="M16.9999 13.3154C20.1436 13.3154 22.7499 10.87 22.7499 7.7832C22.7499 4.69651 20.1435 2.25 16.9999 2.25C13.8563 2.25 11.25 4.69651 11.2499 7.7832C11.2499 9.26169 11.8532 10.6009 12.8251 11.5879L12.8632 11.6338C12.869 11.6424 12.8721 11.6507 12.8749 11.6562C12.813 11.96 12.6822 12.2411 12.4931 12.4736C12.3264 12.6789 12.2808 12.9569 12.372 13.2051C12.4633 13.4534 12.6783 13.6352 12.9384 13.6836C13.8291 13.8493 14.7508 13.6999 15.54 13.2803C15.6238 13.2357 15.6819 13.2049 15.7255 13.1826C15.7328 13.1839 15.7405 13.186 15.749 13.1875L15.7658 13.1905C15.8022 13.197 15.8441 13.2044 15.8945 13.2139C16.2589 13.2823 16.6288 13.3158 16.9999 13.3154Z" fill="currentColor"/><path d="M17.0869 9.05469C17.5157 9.09804 17.8505 9.46016 17.8505 9.90039C17.8505 10.3698 17.4694 10.75 16.9999 10.75C16.56 10.7498 16.1977 10.4158 16.1542 9.98731L16.1503 9.90039L16.1542 9.81348C16.1977 9.38496 16.56 9.05098 16.9999 9.05078L17.0869 9.05469ZM17.0068 4.75489C17.4209 4.75613 17.7559 5.09276 17.7548 5.50684L17.7499 7.00196C17.7487 7.41617 17.4122 7.75124 16.998 7.75C16.5839 7.74871 16.2489 7.41209 16.2499 6.99805L16.2548 5.50293C16.2561 5.08882 16.5927 4.7538 17.0068 4.75489Z" fill="currentColor"/><path d="M10.2499 12.5C10.2499 14.2949 8.79487 15.75 6.99994 15.75C5.20501 15.75 3.74994 14.2949 3.74994 12.5C3.74994 10.7051 5.20501 9.25 6.99994 9.25C8.79487 9.25 10.2499 10.7051 10.2499 12.5Z" fill="currentColor"/><path d="M12.7499 21C12.7499 17.8244 10.1756 15.25 6.99994 15.25C3.8243 15.25 1.24994 17.8244 1.24994 21C1.24994 21.4142 1.58573 21.75 1.99994 21.75H11.9999C12.4142 21.75 12.7499 21.4142 12.7499 21Z" fill="currentColor"/></svg>
