<svg xmlns="http://www.w3.org/2000/svg" viewBox="0 0 24 24" fill="none"><path opacity="0.4" d="M21.75 5.19922C21.75 3.57068 20.4293 2.25 18.8008 2.25H5.19922C3.57068 2.25 2.25 3.57068 2.25 5.19922C2.25021 6.47975 3.07687 7.6138 4.2959 8.00586L4.79688 8.16699C5.30762 8.33116 5.61209 8.43002 5.8291 8.52832C6.02317 8.61625 6.05165 8.66405 6.05664 8.6709C6.06345 8.67993 6.0976 8.72548 6.12109 8.92969C6.14827 9.1664 6.15039 9.48685 6.15039 10.0234V12.7109V15.3984L4.2959 15.9941C3.07687 16.3862 2.25021 17.5203 2.25 18.8008C2.25 20.4293 3.57068 21.75 5.19922 21.75H18.8008C20.4293 21.75 21.75 20.4293 21.75 18.8008C21.7498 17.5202 20.9231 16.3862 19.7041 15.9941L19.2031 15.833C18.6924 15.6688 18.3879 15.57 18.1709 15.4717C17.9768 15.3837 17.9484 15.336 17.9434 15.3291C17.9366 15.3201 17.9024 15.2745 17.8789 15.0703C17.8517 14.8336 17.8496 14.5131 17.8496 13.9766V11.2886V8.60059L19.7041 8.00586C20.9231 7.6138 21.7498 6.47975 21.75 5.19922Z" fill="currentColor"/><path d="M6.15039 12.7109V15.3984L17.8496 11.2886V8.60059L6.15039 12.7109Z" fill="currentColor"/></svg>
