<svg xmlns="http://www.w3.org/2000/svg" viewBox="0 0 24 24" fill="none"><path d="M18.8003 2.25C20.4288 2.25 21.7495 3.57068 21.7495 5.19922C21.7493 6.47975 20.9226 7.6138 19.7036 8.00586L17.8491 8.60059V13.9766C17.8491 14.5131 17.8512 14.8336 17.8784 15.0703C17.9019 15.2745 17.9361 15.3201 17.9429 15.3291C17.9479 15.336 17.9763 15.3837 18.1704 15.4717C18.3874 15.57 18.6919 15.6688 19.2026 15.833L19.7036 15.9941C20.9226 16.3862 21.7493 17.5202 21.7495 18.8008C21.7495 20.4293 20.4288 21.75 18.8003 21.75H5.19873C3.57019 21.75 2.24951 20.4293 2.24951 18.8008C2.24972 17.5203 3.07638 16.3862 4.29541 15.9941L6.1499 15.3984V10.0234C6.1499 9.48685 6.14778 9.1664 6.12061 8.92969C6.09711 8.72548 6.06296 8.67993 6.05615 8.6709C6.05116 8.66405 6.02268 8.61625 5.82861 8.52832C5.6116 8.43002 5.30713 8.33116 4.79639 8.16699L4.29541 8.00586C3.07638 7.6138 2.24972 6.47975 2.24951 5.19922C2.24951 3.57068 3.57019 2.25 5.19873 2.25H18.8003ZM4.89307 17.8506C4.48006 17.9833 4.19974 18.3679 4.19971 18.8018C4.1999 19.3532 4.64727 19.7998 5.19873 19.7998H18.8003C19.3518 19.7998 19.7991 19.3532 19.7993 18.8018C19.7993 18.3679 19.519 17.9833 19.106 17.8506L18.606 17.6904L18.5737 17.6797C18.1187 17.5335 17.7002 17.3986 17.3657 17.2471C17.0002 17.0814 16.6423 16.8575 16.3667 16.4795C16.0912 16.1015 15.9868 15.6925 15.9409 15.2939C15.9079 15.0068 15.9032 14.6733 15.9019 14.3115L4.89307 17.8506ZM5.19873 4.2002C4.64715 4.2002 4.19971 4.64764 4.19971 5.19922C4.19983 5.63294 4.48013 6.01766 4.89307 6.15039L5.39209 6.31055C5.85995 6.46093 6.2907 6.59772 6.6333 6.75293C6.99888 6.91859 7.35668 7.14336 7.63232 7.52148C7.90775 7.89945 8.01128 8.30848 8.05713 8.70703C8.09009 8.99399 8.09483 9.32699 8.09619 9.68848L19.106 6.15039C19.5189 6.01766 19.7992 5.63294 19.7993 5.19922C19.7993 4.64764 19.3519 4.2002 18.8003 4.2002H5.19873Z" fill="currentColor" fill-rule="evenodd" clip-rule="evenodd"/></svg>
