<svg xmlns="http://www.w3.org/2000/svg" fill="none" viewBox="0 0 48 48">
  <g>
    <path fill="currentColor" d="M29 47.5c5.4107 0 9.3662 -0.1833 12.0392 -0.3777 3.2996 -0.2399 5.8432 -2.7835 6.0831 -6.0831 0.1943 -2.673 0.3777 -6.6285 0.3777 -12.0392 0 -5.4107 -0.1834 -9.3662 -0.3777 -12.0392 -0.2399 -3.2996 -2.7835 -5.8432 -6.0831 -6.0831C38.3662 10.6834 34.4107 10.5 29 10.5c-5.4107 0 -9.3662 0.1834 -12.0392 0.3777 -3.2996 0.2399 -5.8432 2.7835 -6.0831 6.0831C10.6834 19.6338 10.5 23.5893 10.5 29c0 5.4107 0.1834 9.3662 0.3777 12.0392 0.2399 3.2997 2.7835 5.8432 6.0831 6.0831 2.673 0.1944 6.6285 0.3777 12.0392 0.3777Z" stroke-width="1"></path>
    <path fill="currentColor" fill-opacity="0.4" d="M19 0.5C13.5893 0.5 9.63379 0.683352 6.96079 0.877687 3.66115 1.11758 1.11758 3.66116 0.877687 6.96079 0.683352 9.63379 0.5 13.5893 0.5 19s0.183352 9.3662 0.377687 12.0392c0.239893 3.2996 2.783463 5.8432 6.083103 6.0831C9.63378 37.3167 13.5893 37.5 19 37.5s9.3662 -0.1833 12.0392 -0.3777c3.2996 -0.2399 5.8432 -2.7835 6.0831 -6.0831 0.1943 -2.673 0.3777 -6.6285 0.3777 -12.0392 0 -5.4107 -0.1834 -9.36621 -0.3777 -12.03921 -0.2399 -3.29963 -2.7835 -5.84321 -6.0831 -6.083103C28.3662 0.683352 24.4107 0.5 19 0.5Z" stroke-width="1"></path>
    <path fill="currentColor" fill-rule="evenodd" d="M12.4142 5.58579c0.7811 0.78104 0.7811 2.04738 0 2.82842L8.41421 12.4142c-0.78104 0.7811 -2.04738 0.7811 -2.82842 0 -0.78105 -0.781 -0.78105 -2.0474 0 -2.82841l4 -4c0.78101 -0.78105 2.04741 -0.78105 2.82841 0Z" clip-rule="evenodd" stroke-width="1"></path>
    <path fill="currentColor" fill-rule="evenodd" d="M12.4142 25.5858c0.7811 0.781 0.7811 2.0474 0 2.8284l-3.99999 4c-0.78104 0.7811 -2.04738 0.7811 -2.82842 0 -0.78105 -0.781 -0.78105 -2.0474 0 -2.8284l4 -4c0.78101 -0.7811 2.04741 -0.7811 2.82841 0Z" clip-rule="evenodd" stroke-width="1"></path>
    <path fill="currentColor" fill-rule="evenodd" d="M25.5858 15.5858c-0.7811 0.781 -0.7811 2.0474 0 2.8284l4 4c0.781 0.7811 2.0474 0.7811 2.8284 0 0.7811 -0.781 0.7811 -2.0474 0 -2.8284l-4 -4c-0.781 -0.7811 -2.0474 -0.7811 -2.8284 0Z" clip-rule="evenodd" stroke-width="1"></path>
    <path fill="currentColor" fill-rule="evenodd" d="M32.4142 5.58579c0.7811 0.78104 0.7811 2.04738 0 2.82842l-4 3.99999c-0.781 0.7811 -2.0474 0.7811 -2.8284 0 -0.7811 -0.781 -0.7811 -2.0474 0 -2.82841l4 -4c0.781 -0.78105 2.0474 -0.78105 2.8284 0Z" clip-rule="evenodd" stroke-width="1"></path>
    <path fill="currentColor" fill-rule="evenodd" d="M32.4142 25.5858c0.7811 0.781 0.7811 2.0474 0 2.8284l-4 4c-0.781 0.7811 -2.0474 0.7811 -2.8284 0 -0.7811 -0.781 -0.7811 -2.0474 0 -2.8284l4 -4c0.781 -0.7811 2.0474 -0.7811 2.8284 0Z" clip-rule="evenodd" stroke-width="1"></path>
    <path fill="currentColor" fill-rule="evenodd" d="M5.58579 15.5858c-0.78105 0.781 -0.78105 2.0474 0 2.8284l4 4c0.78101 0.7811 2.04741 0.7811 2.82841 0 0.7811 -0.781 0.7811 -2.0474 0 -2.8284l-3.99999 -4c-0.78105 -0.7811 -2.04737 -0.7811 -2.82842 0Z" clip-rule="evenodd" stroke-width="1"></path>
    <path fill="currentColor" fill-rule="evenodd" d="M22.4142 5.58579c0.7811 0.78104 0.7811 2.04738 0 2.82842l-4 3.99999c-0.781 0.7811 -2.0474 0.7811 -2.8284 0 -0.7811 -0.781 -0.7811 -2.0474 0 -2.82841l4 -4c0.781 -0.78105 2.0474 -0.78105 2.8284 0Z" clip-rule="evenodd" stroke-width="1"></path>
    <path fill="currentColor" fill-rule="evenodd" d="M22.4142 25.5858c0.7811 0.781 0.7811 2.0474 0 2.8284l-4 4c-0.781 0.7811 -2.0474 0.7811 -2.8284 0 -0.7811 -0.781 -0.7811 -2.0474 0 -2.8284l4 -4c0.781 -0.7811 2.0474 -0.7811 2.8284 0Z" clip-rule="evenodd" stroke-width="1"></path>
    <path fill="currentColor" fill-rule="evenodd" d="M15.5858 15.5858c-0.7811 0.781 -0.7811 2.0474 0 2.8284l4 4c0.781 0.7811 2.0474 0.7811 2.8284 0 0.7811 -0.781 0.7811 -2.0474 0 -2.8284l-4 -4c-0.781 -0.7811 -2.0474 -0.7811 -2.8284 0Z" clip-rule="evenodd" stroke-width="1"></path>
  </g>
</svg>
