<svg xmlns="http://www.w3.org/2000/svg" fill="none" viewBox="0 0 48 48">
  <g>
    <path fill="currentColor" fill-rule="evenodd" d="M7.30942 0.870509C9.93545 0.67959 13.8141 0.499997 19.1139 0.5c5.2999 0.000003 9.1785 0.179598 11.8046 0.37052 3.4891 0.25367 6.1852 2.94978 6.4389 6.43889 0.0654 0.89988 0.1295 1.94685 0.1855 3.14769 1.2004 0.056 2.247 0.1201 3.1466 0.1855 3.4892 0.2536 6.1853 2.9497 6.4389 6.4389 0.1909 2.626 0.3705 6.5047 0.3706 11.8045 0 5.2998 -0.1797 9.1785 -0.3706 11.8045 -0.2536 3.4891 -2.9497 6.1852 -6.4389 6.4389 -2.626 0.1909 -6.5047 0.3705 -11.8045 0.3705 -5.2998 0 -9.1785 -0.1796 -11.8045 -0.3705 -3.4891 -0.2537 -6.1852 -2.9498 -6.4389 -6.4389 -0.0654 -0.8999 -0.1295 -1.9469 -0.1855 -3.1477 -1.20044 -0.056 -2.24707 -0.12 -3.1467 -0.1855 -3.48912 -0.2536 -6.18522 -2.9497 -6.438891 -6.4388C0.67959 28.2924 0.499997 24.4137 0.5 19.1139c0.000003 -5.2998 0.179598 -9.17847 0.37052 -11.8045l1.77487 0.12904L0.870521 7.3094C1.12419 3.82028 3.8203 1.12418 7.30942 0.870509l0.14502 1.994731L7.30942 0.870509ZM33.3679 7.59946c0.0924 1.27085 0.183 2.86104 0.2503 4.79214 0.0001 0.0194 0.0004 0.0388 0.0011 0.0582 0.0651 1.8902 0.1077 4.1049 0.1077 6.6643 0 5.2097 -0.1765 8.9913 -0.36 11.5144 -0.1038 1.4276 -1.113 2.5081 -2.4994 2.7131 -0.0785 0.0116 -0.1583 0.0204 -0.2392 0.0263 -2.5231 0.1834 -6.3048 0.36 -11.5145 0.36s-8.9914 -0.1766 -11.51445 -0.36c-1.50869 -0.1097 -2.62978 -1.2308 -2.73947 -2.7395C4.67654 28.1053 4.5 24.3236 4.5 19.1139s0.17655 -8.9914 0.35999 -11.51445c0.10969 -1.50869 1.23079 -2.62978 2.73947 -2.73947C10.1226 4.67654 13.9042 4.5 19.1139 4.5c5.2097 0 8.9914 0.17655 11.5145 0.35999 1.5087 0.10969 2.6298 1.23078 2.7395 2.73947ZM13.6873 9.77854c0.7811 -0.78104 0.7811 -2.04737 0 -2.82842 -0.781 -0.78105 -2.0473 -0.78105 -2.8284 0L6.94914 10.8599c-0.78105 0.781 -0.78105 2.0474 0 2.8284 0.78105 0.7811 2.04738 0.7811 2.82843 0l3.90973 -3.90976Zm0 14.76266c0.7811 0.781 0.7811 2.0473 0 2.8284l-3.90973 3.9097c-0.78105 0.7811 -2.04738 0.7811 -2.82843 0 -0.78105 -0.781 -0.78105 -2.0473 0 -2.8284l3.90976 -3.9097c0.7811 -0.7811 2.0474 -0.7811 2.8284 0ZM24.54 18.5741c-0.7811 -0.7811 -0.7811 -2.0474 0 -2.8285 0.781 -0.781 2.0473 -0.781 2.8284 0l3.9098 3.9098c0.781 0.7811 0.781 2.0474 0 2.8284 -0.7811 0.7811 -2.0474 0.7811 -2.8285 0L24.54 18.5741Zm6.7393 -11.62398c0.7811 0.78105 0.7811 2.04738 0 2.82842l-3.9097 3.90976c-0.7811 0.7811 -2.0474 0.7811 -2.8284 0 -0.7811 -0.781 -0.7811 -2.0474 0 -2.8284l3.9097 -3.90978c0.7811 -0.78105 2.0474 -0.78105 2.8284 0Zm0 20.41948c0.7811 -0.7811 0.7811 -2.0474 0 -2.8284 -0.781 -0.7811 -2.0473 -0.7811 -2.8284 0l-3.9097 3.9097c-0.7811 0.7811 -0.7811 2.0474 0 2.8284 0.781 0.7811 2.0473 0.7811 2.8284 0l3.9097 -3.9097ZM6.94893 15.7456c-0.78105 0.7811 -0.78105 2.0474 0 2.8285l3.90977 3.9097c0.781 0.7811 2.0474 0.7811 2.8284 0 0.7811 -0.781 0.7811 -2.0473 0 -2.8284l-3.90974 -3.9098c-0.78105 -0.781 -2.04738 -0.781 -2.82843 0ZM22.4829 9.77854c0.781 -0.78104 0.781 -2.04737 0 -2.82842 -0.7811 -0.78105 -2.0474 -0.78105 -2.8285 0l-3.9097 3.90978c-0.7811 0.781 -0.7811 2.0474 0 2.8284 0.781 0.7811 2.0473 0.7811 2.8284 0l3.9098 -3.90976Zm0 14.76266c0.781 0.781 0.781 2.0473 0 2.8284l-3.9098 3.9097c-0.7811 0.7811 -2.0474 0.7811 -2.8284 0 -0.7811 -0.781 -0.7811 -2.0473 0 -2.8284l3.9097 -3.9097c0.7811 -0.7811 2.0474 -0.7811 2.8285 0Zm-6.7385 -5.9671c-0.781 -0.7811 -0.781 -2.0474 0 -2.8285 0.7811 -0.781 2.0474 -0.781 2.8285 0l3.9097 3.9098c0.7811 0.7811 0.7811 2.0474 0 2.8284 -0.781 0.7811 -2.0473 0.7811 -2.8284 0l-3.9098 -3.9097Z" clip-rule="evenodd" stroke-width="1"></path>
  </g>
</svg>
