<svg xmlns="http://www.w3.org/2000/svg" fill="none" viewBox="0 0 48 48">
  <g>
    <path fill="currentColor" fill-rule="evenodd" d="M19 0.5C13.5893 0.5 9.63379 0.683352 6.96079 0.877687 3.66115 1.11758 1.11758 3.66116 0.877687 6.96079 0.683352 9.63379 0.5 13.5893 0.5 19s0.183352 9.3662 0.377687 12.0392c0.239893 3.2996 2.783463 5.8432 6.083103 6.0831C9.63378 37.3167 13.5893 37.5 19 37.5s9.3662 -0.1833 12.0392 -0.3777c3.2996 -0.2399 5.8432 -2.7835 6.0831 -6.0831 0.1943 -2.673 0.3777 -6.6285 0.3777 -12.0392 0 -5.4107 -0.1834 -9.36621 -0.3777 -12.03921 -0.2399 -3.29963 -2.7835 -5.84321 -6.0831 -6.083103C28.3662 0.683352 24.4107 0.5 19 0.5Zm-6.5858 5.08579c0.7811 0.78105 0.7811 2.04737 0 2.82842L8.41421 12.4142c-0.78105 0.7811 -2.04737 0.7811 -2.82842 0 -0.78105 -0.781 -0.78105 -2.0474 0 -2.82841l4 -4c0.78101 -0.78105 2.04741 -0.78105 2.82841 0Zm0 22.82841c0.7811 -0.781 0.7811 -2.0474 0 -2.8284 -0.781 -0.7811 -2.0474 -0.7811 -2.82841 0l-4 4c-0.78105 0.781 -0.78105 2.0474 0 2.8284 0.78105 0.7811 2.04737 0.7811 2.82842 0l3.99999 -4Zm13.1716 -12.8284c-0.7811 0.781 -0.7811 2.0474 0 2.8284l4 4c0.781 0.7811 2.0474 0.7811 2.8284 0 0.7811 -0.781 0.7811 -2.0474 0 -2.8284l-4 -4c-0.781 -0.7811 -2.0474 -0.7811 -2.8284 0Zm6.8284 -7.17159c0.7811 -0.78105 0.7811 -2.04737 0 -2.82842 -0.781 -0.78105 -2.0474 -0.78105 -2.8284 0l-4 4c-0.7811 0.78101 -0.7811 2.04741 0 2.82841 0.781 0.7811 2.0474 0.7811 2.8284 0l4 -3.99999Zm0 17.17159c0.7811 0.781 0.7811 2.0474 0 2.8284l-4 4c-0.781 0.7811 -2.0474 0.7811 -2.8284 0 -0.7811 -0.781 -0.7811 -2.0474 0 -2.8284l4 -4c0.781 -0.7811 2.0474 -0.7811 2.8284 0ZM5.58579 18.4142c-0.78105 -0.781 -0.78105 -2.0474 0 -2.8284 0.78105 -0.7811 2.04737 -0.7811 2.82842 0l3.99999 4c0.7811 0.781 0.7811 2.0474 0 2.8284 -0.781 0.7811 -2.0474 0.7811 -2.82841 0l-4 -4ZM22.4142 5.58579c0.7811 0.78105 0.7811 2.04737 0 2.82842l-4 3.99999c-0.781 0.7811 -2.0474 0.7811 -2.8284 0 -0.7811 -0.781 -0.7811 -2.0474 0 -2.82841l4 -4c0.781 -0.78105 2.0474 -0.78105 2.8284 0Zm0 22.82841c0.7811 -0.781 0.7811 -2.0474 0 -2.8284 -0.781 -0.7811 -2.0474 -0.7811 -2.8284 0l-4 4c-0.7811 0.781 -0.7811 2.0474 0 2.8284 0.781 0.7811 2.0474 0.7811 2.8284 0l4 -4Zm-6.8284 -12.8284c-0.7811 0.781 -0.7811 2.0474 0 2.8284l4 4c0.781 0.7811 2.0474 0.7811 2.8284 0 0.7811 -0.781 0.7811 -2.0474 0 -2.8284l-4 -4c-0.781 -0.7811 -2.0474 -0.7811 -2.8284 0Zm3.4139 24.9139c5.4783 0 9.5066 -0.1856 12.2568 -0.3856 4.7849 -0.3478 8.5098 -4.0727 8.8576 -8.8576 0.2 -2.7502 0.3856 -6.7785 0.3856 -12.2568 0 -3.2098 -0.0637 -5.9218 -0.1567 -8.1706 0.241 0.016 0.4729 0.0321 0.6959 0.0483 3.2997 0.2399 5.8432 2.7835 6.0831 6.0831 0.1944 2.673 0.3777 6.6286 0.3777 12.0392 0 5.4107 -0.1833 9.3662 -0.3777 12.0392 -0.2399 3.2997 -2.7834 5.8432 -6.0831 6.0831 -2.673 0.1944 -6.6285 0.3777 -12.0392 0.3777 -5.4106 0 -9.3662 -0.1833 -12.0392 -0.3777 -3.2996 -0.2399 -5.8432 -2.7834 -6.0831 -6.0831 -0.0162 -0.223 -0.0323 -0.4549 -0.0483 -0.6959 2.2488 0.093 4.9608 0.1567 8.1706 0.1567Z" clip-rule="evenodd" stroke-width="3.429"></path>
  </g>
</svg>
