<svg xmlns="http://www.w3.org/2000/svg" viewBox="0 0 24 24" fill="none"><path d="M15.5546 15.542C15.9455 15.152 16.5786 15.1531 16.9687 15.544L18.7509 17.3292L20.5332 15.544C20.9233 15.1533 21.5564 15.153 21.9472 15.543C22.3381 15.9332 22.3383 16.5662 21.9482 16.9571L20.164 18.7442L21.9589 20.543C22.3489 20.9339 22.3478 21.567 21.957 21.9571C21.5661 22.3471 20.933 22.3469 20.5429 21.9561L18.7509 20.1602L16.9589 21.9561C16.5689 22.3469 15.9358 22.3479 15.5449 21.9581C15.1541 21.568 15.1531 20.9349 15.5429 20.544L17.3378 18.7442L15.5537 16.9561C15.1635 16.5652 15.1638 15.9322 15.5546 15.542Z" fill="currentColor"/><path d="M16.4435 1.92011C15.1828 1.75061 13.5758 1.75016 11.5666 1.75018H11.4318C9.42265 1.75016 7.81564 1.75061 6.55487 1.92011C5.25212 2.09529 4.17431 2.46766 3.3205 3.32147C2.46668 4.17529 2.09432 5.2531 1.91913 6.55585C1.74964 7.81662 1.74919 9.42362 1.74921 11.4328V11.5676C1.74919 13.5767 1.74964 15.1838 1.91913 16.4445C2.09432 17.7473 2.46668 18.8251 3.3205 19.6789C4.17431 20.5327 5.25212 20.9051 6.55487 21.0803C7.81564 21.2498 9.42265 21.2502 11.4318 21.2502H11.5666C12.082 21.2502 12.4992 20.8323 12.4992 20.3169V20.2767C12.4992 19.7372 12.0611 19.3 11.5216 19.3H11.4982C9.40248 19.3 7.92833 19.2975 6.81366 19.1476C5.7273 19.0015 5.12955 18.7311 4.69843 18.3C4.26733 17.8688 3.99686 17.2712 3.85077 16.1848C3.7009 15.07 3.69843 13.596 3.69843 11.5002C3.69843 9.80724 3.69987 8.52002 3.77948 7.50018H19.217C19.2966 8.52003 19.298 9.80724 19.298 11.5002V11.5221C19.298 12.0619 19.7355 12.5002 20.2752 12.5002H20.3159C20.8313 12.5002 21.2492 12.083 21.2492 11.5676V11.4328C21.2492 9.42362 21.2488 7.81661 21.0793 6.55585C20.9041 5.2531 20.5317 4.17529 19.6779 3.32147C18.8241 2.46766 17.7463 2.09529 16.4435 1.92011Z" fill="currentColor"/><path d="M7.49921 14.3986C8.05149 14.3986 8.49921 14.8463 8.49921 15.3986C8.49921 15.9509 8.05149 16.3986 7.49921 16.3986H6.49921C5.94692 16.3986 5.49921 15.9509 5.49921 15.3986C5.49921 14.8463 5.94692 14.3986 6.49921 14.3986H7.49921ZM12.4992 14.3986C13.0515 14.3986 13.4992 14.8463 13.4992 15.3986C13.4992 15.9509 13.0515 16.3986 12.4992 16.3986H11.4992C10.9469 16.3986 10.4992 15.9509 10.4992 15.3986C10.4992 14.8463 10.9469 14.3986 11.4992 14.3986H12.4992Z" fill="currentColor"/><path d="M7.49921 10.3986C8.05149 10.3986 8.49921 10.8463 8.49921 11.3986C8.49921 11.9509 8.05149 12.3986 7.49921 12.3986H6.49921C5.94692 12.3986 5.49921 11.9509 5.49921 11.3986C5.49921 10.8463 5.94692 10.3986 6.49921 10.3986H7.49921ZM16.4992 10.3986C17.0515 10.3986 17.4992 10.8463 17.4992 11.3986C17.4992 11.9509 17.0515 12.3986 16.4992 12.3986H11.4992C10.9469 12.3986 10.4992 11.9509 10.4992 11.3986C10.4992 10.8463 10.9469 10.3986 11.4992 10.3986H16.4992Z" fill="currentColor"/></svg>
