<svg xmlns="http://www.w3.org/2000/svg" viewBox="0 0 24 24" fill="none"><path opacity="0.4" d="M21.75 12.0416V12V11.9584C21.75 9.87807 21.75 8.24041 21.5781 6.96191C21.4022 5.65356 21.0334 4.60957 20.2119 3.78809C19.3904 2.9666 18.3464 2.59783 17.0381 2.42188C15.7596 2.24999 14.1219 2.24999 12.0416 2.25H12H11.9584C9.87806 2.24999 8.24041 2.24999 6.96191 2.42188C5.65356 2.59783 4.60957 2.9666 3.78809 3.78809C2.9666 4.60957 2.59783 5.65356 2.42188 6.96191C2.24999 8.24041 2.24999 9.87806 2.25 11.9584V12V12.0416C2.24999 14.1219 2.24999 15.7596 2.42188 17.0381C2.59783 18.3464 2.9666 19.3904 3.78809 20.2119C4.60957 21.0334 5.65356 21.4022 6.96191 21.5781C8.24041 21.75 9.87807 21.75 11.9584 21.75H12H12.0416C14.1219 21.75 15.7596 21.75 17.0381 21.5781C18.3464 21.4022 19.3904 21.0334 20.2119 20.2119C21.0334 19.3904 21.4022 18.3464 21.5781 17.0381C21.75 15.7596 21.75 14.1219 21.75 12.0416Z" fill="currentColor"/><path d="M15.3209 7.32475C16.2068 7.02945 16.6504 6.88125 16.8843 7.11479C17.1182 7.34867 16.9707 7.79222 16.6754 8.67827L15.7017 11.5982C15.1983 13.1084 14.9464 13.8633 14.4048 14.4048C13.8633 14.9463 13.1084 15.1983 11.5982 15.7017L8.67828 16.6753C7.79223 16.9707 7.34869 17.1182 7.11481 16.8843C6.88126 16.6503 7.02946 16.2068 7.32477 15.3208L8.29742 12.4009C8.80079 10.8908 9.0528 10.1358 9.5943 9.59428C10.1358 9.05279 10.8908 8.80078 12.4009 8.29741L15.3209 7.32475ZM11.9996 10.9996C11.4475 10.9997 10.9997 11.4475 10.9996 11.9996C10.9996 12.5518 11.4474 12.9994 11.9996 12.9996C12.5519 12.9996 12.9996 12.5518 12.9996 11.9996C12.9994 11.4474 12.5518 10.9996 11.9996 10.9996Z" fill="currentColor" fill-rule="evenodd" clip-rule="evenodd"/></svg>
