<svg xmlns="http://www.w3.org/2000/svg" viewBox="0 0 24 24" fill="none"><path d="M12.042 2.25C14.1221 2.24999 15.7597 2.25 17.0381 2.42188C18.3464 2.59783 19.3904 2.9666 20.2119 3.78809C21.0334 4.60957 21.4022 5.65356 21.5781 6.96191C21.75 8.24033 21.75 9.87786 21.75 11.958V12.042C21.75 14.1221 21.75 15.7597 21.5781 17.0381C21.4022 18.3464 21.0334 19.3904 20.2119 20.2119C19.3904 21.0334 18.3464 21.4022 17.0381 21.5781C15.7597 21.75 14.1221 21.75 12.042 21.75H11.958C9.87786 21.75 8.24033 21.75 6.96191 21.5781C5.65356 21.4022 4.60957 21.0334 3.78809 20.2119C2.9666 19.3904 2.59783 18.3464 2.42188 17.0381C2.25 15.7597 2.24999 14.1221 2.25 12.042V11.958C2.24999 9.87786 2.25 8.24033 2.42188 6.96191C2.59783 5.65356 2.9666 4.60957 3.78809 3.78809C4.60957 2.9666 5.65356 2.59783 6.96191 2.42188C8.24033 2.25 9.87786 2.24999 11.958 2.25H12.042ZM16.8848 7.11523C16.6509 6.88134 16.2074 7.02883 15.3213 7.32422L12.4014 8.29785C10.8912 8.80125 10.1362 9.05322 9.59473 9.59473C9.05322 10.1362 8.80125 10.8912 8.29785 12.4014L7.32422 15.3213C7.02883 16.2074 6.88134 16.6509 7.11523 16.8848C7.34913 17.1187 7.79256 16.9712 8.67871 16.6758L11.5986 15.7021C13.1088 15.1988 13.8638 14.9468 14.4053 14.4053C14.9468 13.8638 15.1988 13.1088 15.7021 11.5986L16.6758 8.67871C16.9712 7.79256 17.1187 7.34913 16.8848 7.11523Z" fill="currentColor"/><path d="M12 11C12.5523 11 13 11.4477 13 12C13 12.5523 12.5523 13 12 13C11.4477 13 11 12.5523 11 12C11 11.4477 11.4477 11 12 11Z" fill="currentColor"/></svg>
