<svg xmlns="http://www.w3.org/2000/svg" viewBox="0 0 24 24" fill="none"><path d="M22.7511 16.0329V15.9827V9.9583V9.89538C22.7511 8.19785 22.7511 6.83788 22.6046 5.83721C22.4571 4.83025 22.126 3.92523 21.2296 3.47588C20.3321 3.0262 19.4088 3.30395 18.5157 3.79033C17.6291 4.27326 16.5439 5.08896 15.1897 6.10679L15.1378 6.1458L7.12314 12.1702L7.08079 12.202C5.13197 13.6668 3.60592 14.8138 2.63193 15.7688C1.70071 16.682 0.969503 17.7072 1.35361 18.8626C1.73828 20.0191 2.9386 20.4009 4.23057 20.5716C5.57674 20.7494 7.47497 20.7493 9.89798 20.7493H9.97764H17.9933H18.0495C18.9477 20.7494 19.6971 20.7494 20.2921 20.6692C20.9212 20.5845 21.4894 20.3977 21.9454 19.9407C22.4009 19.4841 22.5865 18.9159 22.671 18.2864C22.7511 17.6892 22.7511 16.9361 22.7511 16.0329Z" fill="currentColor"/></svg>
