<svg xmlns="http://www.w3.org/2000/svg" viewBox="0 0 24 24" fill="none"><path opacity="0.4" d="M12.5879 2.25879C12.1576 2.68812 11.8273 3.09542 11.6055 3.3916C11.492 3.5366 11 4.15554 11 5C11 5.83407 11.4804 6.44784 11.6016 6.60254L11.6055 6.60742L11.6045 6.6084C11.9767 7.10543 12.6552 7.91576 13.5986 8.61719C14.5402 9.31725 15.8714 10 17.5 10C19.1286 10 20.4598 9.31725 21.4014 8.61719C21.6929 8.4004 21.9575 8.17142 22.1973 7.94629C22.6047 9.21112 22.75 10.5936 22.75 12C22.75 14.6251 21.9907 17.0854 20.208 18.8906C18.4216 20.6995 15.7071 21.75 12 21.75C10.4515 21.75 9.09789 21.5985 7.91992 21.3096C7.58951 21.2285 7.18966 21.3207 6.83789 21.5801C6.02979 22.1762 4.78902 22.75 3 22.75C2.67 22.75 2.37843 22.5344 2.28223 22.2188C2.18605 21.9031 2.30807 21.561 2.58203 21.377C3.1813 20.9741 3.81966 19.617 2.7373 17.9004C1.63081 16.2122 1.25 14.1434 1.25 12C1.25 9.42427 1.8005 6.95115 3.50098 5.125C5.21037 3.28928 7.94704 2.25 12 2.25C12.1992 2.25 12.3951 2.25411 12.5879 2.25879Z" fill="currentColor"/><path d="M8 11C8.55228 11 9 11.4477 9 12C9 12.5523 8.55228 13 8 13C7.44772 13 7 12.5523 7 12C7 11.4477 7.44771 11 8 11ZM12.1025 11.0049C12.6066 11.0563 13 11.4824 13 12C13 12.5522 12.5522 12.9999 12 13C11.4823 13 11.0562 12.6067 11.0049 12.1025L11 12L11.0049 11.8975C11.0562 11.3933 11.4823 11 12 11L12.1025 11.0049ZM16 11C16.5523 11 17 11.4477 17 12C17 12.5523 16.5523 13 16 13C15.4477 13 15 12.5523 15 12C15 11.4477 15.4477 11 16 11Z" fill="currentColor"/><path d="M17.5 1.25C18.7699 1.25 19.8439 1.78254 20.6553 2.38574C21.4673 2.98951 22.0639 3.69869 22.3955 4.1416C22.5029 4.28084 22.75 4.60208 22.75 5C22.75 5.39792 22.5029 5.71916 22.3955 5.8584C22.0639 6.30131 21.4673 7.01049 20.6553 7.61426C19.8439 8.21746 18.7699 8.75 17.5 8.75C16.2301 8.75 15.1561 8.21746 14.3447 7.61426C13.5327 7.01049 12.9361 6.30131 12.6045 5.8584C12.4971 5.71916 12.25 5.39792 12.25 5C12.25 4.60208 12.4971 4.28084 12.6045 4.1416C12.9361 3.69869 13.5327 2.98951 14.3447 2.38574C15.1561 1.78254 16.2301 1.25 17.5 1.25ZM17.4932 3.5C16.6685 3.50007 16 4.17162 16 5C16 5.82838 16.6685 6.49993 17.4932 6.5H17.5068C18.3315 6.49993 19 5.82838 19 5C19 4.17162 18.3315 3.50007 17.5068 3.5H17.4932Z" fill="currentColor"/></svg>
