<svg xmlns="http://www.w3.org/2000/svg" viewBox="0 0 24 24" fill="none"><path opacity="0.4" d="M14.8281 11.0996C15.7645 12.0359 16.527 12.7984 17.022 13.4647C17.5343 14.1543 17.8687 14.8823 17.7126 15.7232C17.5564 16.5642 16.9829 17.1236 16.2572 17.5833C15.5561 18.0275 14.5706 18.4655 13.3605 19.0033L9.93361 20.5263C7.89855 21.4308 6.29585 22.1431 5.07595 22.4947C3.88395 22.8383 2.71447 22.9418 1.88691 22.1143C1.05936 21.2867 1.16289 20.1172 1.50645 18.9252C1.85805 17.7053 2.57038 16.1026 3.47487 14.0676L4.99794 10.6407L4.99794 10.6407C5.53573 9.43057 5.97368 8.44514 6.41787 7.74396C6.87759 7.01827 7.43704 6.44478 8.27796 6.28864C9.11888 6.1325 9.84691 6.46693 10.5365 6.97922C11.2028 7.47421 11.9653 8.23675 12.9017 9.17315L14.8281 11.0995L14.8281 11.0996Z" fill="currentColor"/><path d="M5.84615 8.78687L15.213 18.1542C14.7825 18.3658 14.2968 18.5856 13.7617 18.8242L5.17613 10.2382C5.41472 9.70308 5.63458 9.21735 5.84615 8.78687Z" fill="currentColor"/><path d="M10.3843 20.3255L3.67487 13.6156L3.47408 14.0674C3.31762 14.4194 3.16691 14.7585 3.02283 15.0849L8.91501 20.9775C9.2415 20.8334 9.58069 20.6826 9.93282 20.5261L10.3843 20.3255Z" fill="currentColor"/><path d="M19.5296 4.46967C19.8225 4.76256 19.8225 5.23744 19.5296 5.53033L16.5296 8.53033C16.2367 8.82322 15.7618 8.82322 15.4689 8.53033C15.176 8.23744 15.176 7.76256 15.4689 7.46967L18.4689 4.46967C18.7618 4.17678 19.2367 4.17678 19.5296 4.46967Z" fill="currentColor" fill-rule="evenodd" clip-rule="evenodd"/><path opacity="0.4" d="M13.8113 1.35661C14.1667 1.14385 14.6273 1.25949 14.8401 1.61489C15.4179 2.58025 15.6948 4.72593 13.4801 6.57574C13.1622 6.84127 12.6892 6.79881 12.4237 6.4809C12.1581 6.16299 12.2006 5.69002 12.5185 5.42449C14.135 4.0743 13.7733 2.75332 13.553 2.38534C13.3403 2.02994 13.4559 1.56936 13.8113 1.35661Z" fill="currentColor" fill-rule="evenodd" clip-rule="evenodd"/><path opacity="0.4" d="M17.4237 10.5189C19.2735 8.30416 21.4192 8.581 22.3845 9.15889C22.7399 9.37164 22.8555 9.83222 22.6428 10.1876C22.43 10.543 21.9695 10.6587 21.6141 10.4459C21.2461 10.2256 19.9251 9.86391 18.5749 11.4804C18.3094 11.7983 17.8364 11.8408 17.5185 11.5753C17.2006 11.3097 17.1581 10.8368 17.4237 10.5189Z" fill="currentColor" fill-rule="evenodd" clip-rule="evenodd"/><path d="M21.7493 5C22.3016 5 22.7493 5.44772 22.7493 6C22.7493 6.55229 22.3015 7 21.7493 7C21.197 7 20.7493 6.55228 20.7493 6C20.7493 5.44772 21.197 5 21.7493 5Z" fill="currentColor"/><path d="M20.7493 12.25C21.3016 12.25 21.7493 12.6977 21.7493 13.25C21.7493 13.8023 21.3015 14.25 20.7493 14.25C20.197 14.25 19.7493 13.8023 19.7493 13.25C19.7493 12.6977 20.197 12.25 20.7493 12.25Z" fill="currentColor"/><path d="M17.9993 1.25C18.5516 1.25 18.9993 1.69772 18.9993 2.25C18.9993 2.80229 18.5515 3.25 17.9993 3.25C17.447 3.25 16.9993 2.80228 16.9993 2.25C16.9993 1.69772 17.447 1.25 17.9993 1.25Z" fill="currentColor"/><path d="M10.9993 2.25C11.5516 2.25 11.9993 2.69772 11.9993 3.25C11.9993 3.80229 11.5515 4.25 10.9993 4.25C10.447 4.25 9.99927 3.80228 9.99927 3.25C9.99927 2.69772 10.447 2.25 10.9993 2.25Z" fill="currentColor"/></svg>
