<svg xmlns="http://www.w3.org/2000/svg" viewBox="0 0 24 24" fill="none"><path d="M8.91539 20.9763C7.35536 21.665 6.08521 22.2031 5.07653 22.4939C3.88455 22.8375 2.71463 22.9415 1.88707 22.114C1.05971 21.2865 1.16268 20.1165 1.50621 18.9246C1.79703 17.9158 2.33504 16.645 3.02379 15.0847L8.91539 20.9763ZM13.7621 18.823C13.6311 18.8814 13.4975 18.9419 13.3607 19.0027L10.3851 20.325L3.67516 13.615L4.9984 10.6404C5.05922 10.5035 5.1187 10.369 5.17711 10.238L13.7621 18.823ZM8.27868 6.28784C9.11926 6.132 9.84713 6.46716 10.5365 6.97925C11.2027 7.47418 11.9655 8.23638 12.9017 9.17261L14.8285 11.0994C15.7647 12.0355 16.5269 12.7984 17.0218 13.4646C17.5339 14.1539 17.869 14.8819 17.7132 15.7224C17.5571 16.5632 16.9828 17.1231 16.2572 17.5828C15.9592 17.7715 15.6093 17.9584 15.2132 18.1531L5.84703 8.78687C6.04158 8.39102 6.22965 8.04175 6.41832 7.7439C6.878 7.01836 7.43788 6.44396 8.27868 6.28784ZM20.7494 12.2498C21.3017 12.2498 21.7494 12.6975 21.7494 13.2498C21.7494 13.802 21.3017 14.2498 20.7494 14.2498C20.1971 14.2498 19.7494 13.802 19.7494 13.2498C19.7494 12.6975 20.1971 12.2498 20.7494 12.2498ZM17.4242 10.5183C19.2738 8.30419 21.4187 8.58117 22.3841 9.15894C22.7395 9.37167 22.8556 9.83187 22.6429 10.1873C22.4303 10.5425 21.9699 10.6584 21.6146 10.446C21.2466 10.2258 19.9248 9.8637 18.5746 11.4802C18.309 11.7979 17.8367 11.8403 17.5189 11.575C17.201 11.3094 17.1587 10.8362 17.4242 10.5183ZM18.4691 4.46948C18.762 4.17659 19.2368 4.17659 19.5297 4.46948C19.8225 4.76238 19.8225 5.23714 19.5297 5.53003L16.5297 8.53003C16.2368 8.82292 15.762 8.82292 15.4691 8.53003C15.1762 8.23714 15.1762 7.76238 15.4691 7.46948L18.4691 4.46948ZM21.7494 4.99976C22.3017 4.99976 22.7494 5.44747 22.7494 5.99976C22.7494 6.55204 22.3017 6.99976 21.7494 6.99976C21.1971 6.99976 20.7494 6.55204 20.7494 5.99976C20.7494 5.44747 21.1971 4.99976 21.7494 4.99976ZM13.8119 1.3562C14.1672 1.14377 14.6275 1.25972 14.8402 1.61499C15.418 2.58047 15.6943 4.72629 13.4798 6.57593C13.1619 6.84108 12.6896 6.798 12.4242 6.48022C12.1587 6.16232 12.201 5.69008 12.5189 5.42456C14.135 4.07471 13.7734 2.75385 13.5531 2.3855C13.3403 2.0301 13.4565 1.56895 13.8119 1.3562ZM10.9994 2.24976C11.5517 2.24976 11.9994 2.69747 11.9994 3.24976C11.9994 3.80204 11.5517 4.24976 10.9994 4.24976C10.4471 4.24976 9.99938 3.80204 9.99938 3.24976C9.99938 2.69747 10.4471 2.24976 10.9994 2.24976ZM17.9994 1.24976C18.5517 1.24976 18.9994 1.69747 18.9994 2.24976C18.9994 2.80204 18.5517 3.24976 17.9994 3.24976C17.4471 3.24976 16.9994 2.80204 16.9994 2.24976C16.9994 1.69747 17.4471 1.24976 17.9994 1.24976Z" fill="currentColor" fill-rule="evenodd" clip-rule="evenodd"/></svg>
