<svg xmlns="http://www.w3.org/2000/svg" fill="none" viewBox="0 0 48 48">
  <g>
    <path fill="currentColor" fill-opacity="0.4" d="M37.0017 1.5c-0.9449 0 -1.866 0.12424 -2.5867 0.25824 -1.1205 0.20836 -1.8419 1.20028 -1.8513 2.28648 -0.0048 0.56049 -0.0106 1.25145 -0.0167 2.01808 -2.1368 -1.69802 -4.3306 -3.0949 -6.482 -3.95336 -1.3253 -0.5288 -2.8013 -0.52872 -4.1264 0.00017 -3.8529 1.53768 -7.8425 4.80226 -11.3975 8.43089 -3.5826 3.657 -6.84602 7.8112 -9.23733 11.2901 -1.404558 2.0433 -0.21023 4.7971 2.33367 5.0331 0.54652 0.0507 1.18399 0.1031 1.92418 0.1552 0.08283 5.7887 0.23428 10.8162 0.34083 13.8813 0.08857 2.5477 1.95489 4.7341 4.58845 5.0068 2.7078 0.2803 7.1519 0.5927 13.5109 0.5927 6.3592 0 10.8057 -0.3124 13.5157 -0.5927 2.6354 -0.2727 4.5027 -2.4614 4.59 -5.0109 0.1049 -3.0653 0.2539 -8.091 0.3354 -13.8772 0.7394 -0.0521 1.3762 -0.1045 1.9223 -0.1551 2.5446 -0.236 3.7384 -2.9907 2.3334 -5.0339 -1.4524 -2.1122 -3.2259 -4.4736 -5.1971 -6.8215 0.0001 -0.1963 0.0002 -0.3849 0.0002 -0.564 0 -2.8338 -0.0405 -7.90701 -0.062 -10.39968 -0.0094 -1.0862 -0.7308 -2.07812 -1.8513 -2.28648 -0.7207 -0.134 -1.6418 -0.25824 -2.5867 -0.25824Z" stroke-width="3.429"></path>
    <path fill="currentColor" d="M31 40.037c0 1.0138 -0.7978 1.8484 -1.8111 1.8817 -1.5387 0.0506 -3.2661 0.0813 -5.1927 0.0813 -1.9236 0 -3.6483 -0.0306 -5.1848 -0.081C17.798 41.8857 17 41.051 17 40.037c0 -2.4013 0.0464 -6.3406 0.0841 -9.1397 0.0257 -1.9099 1.403 -3.5328 3.3046 -3.7136C21.4712 27.0809 22.7269 27 24 27s2.5288 0.0809 3.6113 0.1837c1.9016 0.1808 3.2789 1.8037 3.3046 3.7136 0.0377 2.7991 0.0841 6.7384 0.0841 9.1397Z" stroke-width="3.429"></path>
  </g>
</svg>
