<svg xmlns="http://www.w3.org/2000/svg" viewBox="0 0 24 24" fill="none"><path opacity="0.4" d="M12 20.75C17.7722 20.75 22.75 16.98 22.75 12C22.75 7.01998 17.7722 3.25 12 3.25C6.22776 3.25 1.25 7.01998 1.25 12C1.25 16.98 6.22776 20.75 12 20.75Z" fill="currentColor"/><path d="M14.5371 13.0381C15.2141 12.5868 15.75 11.8811 15.75 11C15.75 10.1189 15.2141 9.41323 14.5371 8.96191C13.8549 8.50713 12.9558 8.25 12 8.25C11.0442 8.25 10.1451 8.50713 9.46289 8.96191C8.78591 9.41323 8.25 10.1189 8.25 11C8.25 11.8811 8.78591 12.5868 9.46289 13.0381C10.1451 13.4929 11.0442 13.75 12 13.75C12.9558 13.75 13.8549 13.4929 14.5371 13.0381Z" fill="currentColor"/></svg>
