<svg xmlns="http://www.w3.org/2000/svg" viewBox="0 0 24 24" fill="none"><path d="M11.9995 3.25C17.7717 3.25 22.7495 7.01998 22.7495 12C22.7495 16.98 17.7717 20.75 11.9995 20.75C6.22727 20.75 1.24951 16.98 1.24951 12C1.24951 7.01998 6.22727 3.25 11.9995 3.25ZM11.9995 8.25C11.0437 8.25 10.1446 8.50713 9.4624 8.96191C8.78542 9.41323 8.24951 10.1189 8.24951 11C8.24951 11.8811 8.78542 12.5868 9.4624 13.0381C10.1446 13.4929 11.0437 13.75 11.9995 13.75C12.9553 13.75 13.8544 13.4929 14.5366 13.0381C15.2136 12.5868 15.7495 11.8811 15.7495 11C15.7495 10.1189 15.2136 9.41323 14.5366 8.96191C13.8544 8.50713 12.9553 8.25 11.9995 8.25Z" fill="currentColor"/></svg>
