<svg xmlns="http://www.w3.org/2000/svg" fill="none" viewBox="0 0 48 48">
  <g>
    <path fill="currentColor" fill-opacity="0.4" fill-rule="evenodd" d="m25.5073 3.50287 0.5559 -1.39319c-1.3253 -0.5288 -2.8013 -0.52871 -4.1265 0.00017 -3.8528 1.53768 -7.8425 4.80226 -11.3974 8.43095 -3.58263 3.6569 -6.84605 7.8112 -9.23736 11.29 -1.404559 2.0433 -0.21023 4.7972 2.33367 5.0331 0.54652 0.0507 1.18399 0.1032 1.92418 0.1553 0.08283 5.7886 0.23428 10.8162 0.34083 13.8813 0.08857 2.5477 1.95489 4.734 4.58838 5.0067 2.7079 0.2804 7.152 0.5927 13.511 0.5927 6.3591 0 10.8057 -0.3124 13.5157 -0.5927 2.6353 -0.2726 4.5027 -2.4614 4.59 -5.0108 0.1048 -3.0653 0.2539 -8.0911 0.3354 -13.8773 0.7393 -0.052 1.3762 -0.1045 1.9223 -0.1551 2.5446 -0.236 3.7383 -2.9906 2.3334 -5.0338 -2.3919 -3.4785 -5.6548 -7.6327 -9.2369 -11.2897 -3.5543 -3.62861 -7.5434 -6.89329 -11.3967 -8.43082l-0.5559 1.39319Z" clip-rule="evenodd" stroke-width="3.429"></path>
    <path fill="currentColor" fill-rule="evenodd" d="M32.1344 17.2814c-1.1206 -0.7718 -2.6999 -1.2951 -4.2791 -1.6063 -0.5951 -0.1173 -1.2184 -0.21 -1.8553 -0.2738l-0.0001 -1.4014c0 -1.1046 -0.8955 -2 -2.0001 -1.9999 -1.1046 0.0001 -1.9999 0.8955 -1.9999 2.0001L22 15.4137c-1.5134 0.177 -3.0587 0.585 -4.3245 1.3803 -1.5415 0.9685 -2.6756 2.5387 -2.6756 4.7059 0 1.1949 0.3349 2.2592 0.9872 3.1512 0.6315 0.8635 1.4745 1.4489 2.3162 1.8638 1.5626 0.7701 3.5424 1.1392 5.1783 1.4442l0.1512 0.0283c1.8362 0.3428 3.2816 0.6286 4.2955 1.1283 0.4708 0.2321 0.7215 0.4536 0.8557 0.637 0.1133 0.155 0.2159 0.3777 0.2159 0.79 0 0.3741 -0.1421 0.7195 -0.774 1.1014 -0.7012 0.4238 -1.8153 0.7421 -3.2121 0.8689 -1.3665 0.1239 -2.8399 0.0496 -4.137 -0.1779 -1.3461 -0.2362 -2.2912 -0.6001 -2.7424 -0.9108 -0.9096 -0.6266 -2.155 -0.3971 -2.7816 0.5126 -0.6265 0.9096 -0.397 2.155 0.5127 2.7816 1.1415 0.7862 2.7427 1.2797 4.3202 1.5564 0.5834 0.1023 1.1927 0.18 1.8143 0.2304l0.0001 1.4948c0.0001 1.1046 0.8956 2 2.0001 1.9999 1.1046 -0.0001 2 -0.8956 1.9999 -2.0001L26 36.4284c1.5097 -0.1935 3.0422 -0.6039 4.2949 -1.361 1.4954 -0.9038 2.705 -2.3987 2.705 -4.5247 0 -1.1948 -0.3348 -2.2591 -0.9871 -3.1511 -0.6315 -0.8636 -1.4745 -1.449 -2.3162 -1.8638 -1.5627 -0.7702 -3.5424 -1.1393 -5.1782 -1.4443l-0.1513 -0.0282c-1.8362 -0.3429 -3.2817 -0.6287 -4.2955 -1.1283 -0.4708 -0.2321 -0.7216 -0.4536 -0.8557 -0.637 -0.1133 -0.155 -0.216 -0.3778 -0.216 -0.7901 0 -0.5612 0.2178 -0.9509 0.8036 -1.3189 0.6783 -0.4262 1.7656 -0.7365 3.153 -0.8416 1.3554 -0.1027 2.8245 0.0038 4.1254 0.2602 1.3444 0.2649 2.3115 0.6508 2.7836 0.976 0.9096 0.6266 2.155 0.3971 2.7815 -0.5126 0.6266 -0.9097 0.3971 -2.155 -0.5126 -2.7816Z" clip-rule="evenodd" stroke-width="3.429"></path>
  </g>
</svg>
