<svg xmlns="http://www.w3.org/2000/svg" fill="none" viewBox="0 0 48 48">
  <g>
    <path stroke="currentColor" stroke-linejoin="round" d="M4.89257 24.4134c-1.97113 -0.1694 -2.81835 -2.1213 -1.58083 -3.6649 1.58862 -1.9815 4.15134 -4.9398 8.14286 -9.0071 4.9514 -5.04558 8.4369 -7.53108 10.4569 -8.71938 1.3115 -0.77147 2.8657 -0.77156 4.1772 -0.0002 2.0202 1.18822 5.506 3.67372 10.4568 8.71958 3.9902 4.0668 6.5528 7.0249 8.1416 9.0064 1.2379 1.5438 0.3907 3.4963 -1.5808 3.6657 -0.6197 0.0533 -1.3282 0.1071 -2.1356 0.1595 -0.069 6.78 -0.2451 12.7924 -0.3641 16.2721 -0.0634 1.8506 -1.4035 3.3796 -3.2453 3.5701C34.705 44.69 30.31 45 24 45c-6.3099 0 -10.7023 -0.31 -13.3565 -0.5848 -1.84031 -0.1905 -3.17947 -1.7177 -3.24375 -3.5668 -0.12095 -3.4792 -0.29988 -9.4933 -0.37001 -16.2754 -0.80811 -0.0524 -1.51714 -0.1063 -2.13717 -0.1596Z" stroke-width="1"></path>
    <path stroke="currentColor" stroke-linecap="round" stroke-linejoin="round" d="M31 18.9286S28.2 17 24 17c-3.4999 0 -7 1.9286 -7 4.5 0 6.4286 14 2.5714 14 9 0 2.5714 -3.5 4.5 -7 4.5 -4.2 0 -7 -1.9286 -7 -1.9286" stroke-width="1"></path>
    <path stroke="currentColor" stroke-linecap="round" stroke-linejoin="round" d="M24.0002 17 24 14" stroke-width="1"></path>
    <path stroke="currentColor" stroke-linecap="round" stroke-linejoin="round" d="M24.0002 38 24 35" stroke-width="1"></path>
  </g>
</svg>
