<svg xmlns="http://www.w3.org/2000/svg" fill="none" viewBox="0 0 48 48">
  <g>
    <path fill="currentColor" fill-rule="evenodd" d="M27.0978 2.10386C25.1633 0.963298 22.8373 0.963464 20.903 2.10414c-2.1605 1.27401 -5.6904 3.81619 -10.5952 8.80226 -3.88821 3.9526 -6.42371 6.8625 -8.0291 8.8536 -1.03931 1.289 -1.323736 2.9421 -0.70022 4.3921 0.6227 1.4481 2.01561 2.3792 3.66111 2.5185l0.18949 0.0158c0.07849 5.826 0.23083 10.9129 0.33823 14.0067 0.09656 2.7812 2.13895 5.1876 5.03939 5.4843 2.6729 0.2735 7.0141 0.5737 13.1937 0.5737 6.1797 0 10.5233 -0.3002 13.1982 -0.5737 2.9024 -0.2967 4.946 -2.7052 5.0411 -5.4885 0.1057 -3.0938 0.2556 -8.1789 0.3329 -14.0026l0.1873 -0.0156c1.6459 -0.1393 3.0389 -1.0707 3.6616 -2.519 0.6234 -1.4501 0.3389 -3.1034 -0.7007 -4.3925 -1.6055 -1.991 -4.1407 -4.9006 -8.0276 -8.8526 -4.9044 -4.98652 -8.4346 -7.52876 -10.5954 -8.80274Zm-4.163 3.44582c0.6808 -0.40149 1.4507 -0.40152 2.1315 -0.00012 1.8015 1.06216 5.0618 3.3696 9.7751 8.16184 3.8098 3.8737 6.2551 6.6854 7.7657 8.5587 0.1097 0.136 0.1334 0.2292 0.1388 0.2628 0.0031 0.019 0.0023 0.0299 0.0018 0.0339l-0.0006 0.0034 -0.0001 0.0008 -0.0003 0.0009 -0.0007 0.0011 -0.0006 0.001 -0.0024 0.0032c-0.0032 0.0038 -0.0113 0.0127 -0.0283 0.0243 -0.0305 0.0209 -0.1167 0.0686 -0.2921 0.0834 -0.5699 0.0482 -1.2195 0.0971 -1.9574 0.1449 -1.0444 0.0675 -1.8601 0.9289 -1.8708 1.9754 -0.0668 6.5425 -0.2363 12.3516 -0.3524 15.7471 -0.0314 0.9188 -0.6674 1.5659 -1.4502 1.6459 -2.5336 0.259 -6.7412 0.5529 -12.7914 0.5529 -6.05 0 -10.2551 -0.2939 -12.7865 -0.5529 -0.7817 -0.08 -1.41713 -0.726 -1.44899 -1.6439 -0.11786 -3.3949 -0.29017 -9.2053 -0.358 -15.7494 -0.01085 -1.0464 -0.8265 -1.9076 -1.87077 -1.9751 -0.73866 -0.0478 -1.38887 -0.0967 -1.95919 -0.145 -0.17535 -0.0148 -0.26152 -0.0625 -0.29197 -0.0834 -0.01696 -0.0116 -0.02509 -0.0205 -0.02821 -0.0242 -0.00173 -0.0021 -0.00264 -0.0035 -0.00305 -0.0042l-0.00059 -0.0011 -0.00027 -0.0008c-0.00014 -0.0005 -0.00046 -0.0018 -0.00073 -0.0041 -0.00048 -0.0039 -0.00131 -0.0147 0.00175 -0.0337 0.00541 -0.0335 0.02904 -0.1266 0.13872 -0.2626 1.51034 -1.8732 3.95569 -4.685 7.7667 -8.5592 4.714 -4.79202 7.9741 -7.09955 9.7755 -8.16182Zm3.0651 8.45022L26 15.1275c1.5234 0.1949 2.8156 0.5854 3.8074 0.9757 0.7024 0.2765 1.2614 0.5557 1.6546 0.7724 0.1969 0.1084 0.3531 0.2018 0.4659 0.2719 0.0564 0.0351 0.1021 0.0645 0.1366 0.0871 0.0172 0.0113 0.0317 0.021 0.0434 0.0288l0.0154 0.0104 0.0061 0.0042 0.0026 0.0018 0.0013 0.0009c0.0006 0.0004 0.0011 0.0008 -1.1198 1.6282l1.1209 -1.6274c0.9097 0.6265 1.1392 1.8719 0.5126 2.7816 -0.6244 0.9066 -1.8635 1.1376 -2.7724 0.5188l-0.0041 -0.0027c-0.0086 -0.0056 -0.0272 -0.0177 -0.0555 -0.0353 -0.0568 -0.0353 -0.1522 -0.0927 -0.2834 -0.165 -0.263 -0.1449 -0.6665 -0.3479 -1.1891 -0.5536 -1.0487 -0.4127 -2.548 -0.8253 -4.3426 -0.8253 -1.414 0 -2.7967 0.3967 -3.7681 0.9914 -1.0142 0.621 -1.2319 1.2066 -1.2319 1.5086 0 0.4123 0.1027 0.6335 0.2147 0.7865 0.133 0.1814 0.3824 0.4014 0.8526 0.6317 1.0129 0.4961 2.4576 0.7774 4.294 1.1147l0.1517 0.0278c1.6355 0.3 3.6158 0.6631 5.1793 1.4289 0.8423 0.4126 1.6867 0.9962 2.3193 1.8594 0.6536 0.8917 0.9884 1.9562 0.9884 3.151 0 2.2694 -1.5323 3.9338 -3.1431 4.92 -1.1233 0.6877 -2.4606 1.1702 -3.8567 1.4089l0 1.171c0.0001 1.1045 -0.8953 2 -1.9999 2.0001 -1.1045 0.0001 -2 -0.8953 -2.0001 -1.9999l0 -1.1276c-1.5235 -0.1949 -2.8157 -0.5853 -3.8076 -0.9757 -0.7024 -0.2765 -1.2614 -0.5557 -1.6546 -0.7724 -0.1969 -0.1084 -0.3531 -0.2018 -0.4659 -0.2719 -0.0564 -0.0351 -0.1021 -0.0645 -0.1366 -0.0871 -0.0172 -0.0113 -0.0317 -0.021 -0.0434 -0.0288l-0.0154 -0.0104 -0.0061 -0.0042 -0.0026 -0.0018 -0.0013 -0.0009c-0.0006 -0.0004 -0.0011 -0.0008 1.1333 -1.6479l-1.1344 1.6471c-0.9097 -0.6265 -1.1392 -1.8719 -0.5127 -2.7816 0.6245 -0.9065 1.8635 -1.1376 2.7724 -0.5189l0.0042 0.0028c0.0086 0.0056 0.0272 0.0177 0.0555 0.0353 0.0568 0.0353 0.1521 0.0927 0.2834 0.165 0.263 0.1449 0.6665 0.3479 1.1891 0.5536 1.0487 0.4127 2.5479 0.8253 4.3424 0.8253m0.0001 0c1.4141 0 2.7968 -0.3967 3.7682 -0.9914 1.0142 -0.6209 1.2318 -1.2066 1.2318 -1.5086 0 -0.4123 -0.1026 -0.6335 -0.2147 -0.7865 -0.1329 -0.1814 -0.3823 -0.4014 -0.8525 -0.6317 -1.0129 -0.4961 -2.4576 -0.7774 -4.2941 -1.1147l-0.1517 -0.0278c-1.6355 -0.3 -3.6158 -0.6631 -5.1792 -1.4289 -0.8423 -0.4126 -1.6867 -0.9962 -2.3193 -1.8594 -0.6536 -0.8917 -0.9885 -1.9562 -0.9885 -3.151 0 -2.2694 1.5324 -3.9338 3.1433 -4.92 1.1233 -0.6877 2.4607 -1.1702 3.8568 -1.409l-0.0001 -1.1709c0 -1.1046 0.8954 -2 1.9999 -2.0001 1.1046 -0.0001 2.0001 0.8953 2.0001 1.9999m3.8667 6.5765c-0.0006 -0.0003 -0.0011 -0.0007 1.1333 -1.6478l-1.1344 1.6471 0.0011 0.0007Z" clip-rule="evenodd" stroke-width="3.429"></path>
  </g>
</svg>
