<svg xmlns="http://www.w3.org/2000/svg" fill="none" viewBox="0 0 48 48">
  <g>
    <path fill="currentColor" fill-rule="evenodd" d="M21.9367 2.11156c1.3252 -0.52888 2.8012 -0.52897 4.1265 -0.00017 3.8533 1.53753 7.8424 4.80221 11.3967 8.43081 3.5821 3.657 6.845 7.8112 9.2369 11.2897 1.4049 2.0432 0.2112 4.7978 -2.3334 5.0338 -0.5461 0.0506 -1.183 0.1031 -1.9223 0.1551 -0.0815 5.7863 -0.2306 10.812 -0.3354 13.8773 -0.0873 2.5494 -1.9547 4.7382 -4.59 5.0108 -2.71 0.2803 -7.1566 0.5928 -13.5157 0.5927 -6.359 0 -10.8031 -0.3123 -13.511 -0.5927 -2.63349 -0.2726 -4.49981 -2.459 -4.58838 -5.0067 -0.10656 -3.0651 -0.258 -8.0927 -0.34083 -13.8813 -0.74019 -0.0521 -1.37767 -0.1046 -1.92418 -0.1553 -2.5439 -0.2359 -3.73823 -2.9898 -2.33367 -5.0331 2.39131 -3.4788 5.65473 -7.6331 9.23736 -11.29 3.5549 -3.62868 7.5446 -6.89326 11.3974 -8.43094Zm4.0632 11.88974c0 -1.1045 -0.8955 -1.9999 -2.0001 -1.9998 -1.1046 0 -1.9999 0.8955 -1.9999 2.0001L22 15.1725c-1.3961 0.2387 -2.7335 0.7212 -3.8568 1.409 -1.6109 0.9862 -3.1433 2.6506 -3.1433 4.92 0 1.1948 0.3349 2.2593 0.9885 3.151 0.6326 0.8632 1.477 1.4468 2.3193 1.8594 1.5634 0.7657 3.5437 1.1289 5.1792 1.4288l0.1517 0.0279c0.1222 0.0224 0.2426 0.0446 0.3612 0.0666l0 4.9663c-1.7945 -0.0001 -3.2937 -0.4126 -4.3424 -0.8254 -0.5226 -0.2057 -0.9261 -0.4086 -1.1891 -0.5535 -0.1313 -0.0724 -0.2266 -0.1297 -0.2834 -0.165 -0.0283 -0.0177 -0.0469 -0.0297 -0.0555 -0.0354l-0.0042 -0.0027c-0.9088 -0.6187 -2.1479 -0.3877 -2.7724 0.5189 -0.6265 0.9097 -0.397 2.155 0.5127 2.7816l1.1344 -1.6471c-1.1344 1.6471 -1.1339 1.6475 -1.1333 1.6479l0.0012 0.0008 0.0027 0.0019 0.0061 0.0041 0.0154 0.0104c0.0117 0.0079 0.0262 0.0175 0.0434 0.0289 0.0345 0.0226 0.0802 0.052 0.1366 0.0871 0.1127 0.0701 0.269 0.1634 0.4659 0.2719 0.3932 0.2167 0.9522 0.4959 1.6546 0.7723 0.9919 0.3904 2.2841 0.7809 3.8075 0.9757l0.0001 1.1277c0.0001 1.1046 0.8956 1.9999 2.0001 1.9999 1.1046 -0.0001 2 -0.8956 1.9999 -2.0002L26 36.8304c1.3961 -0.2387 2.7335 -0.7212 3.8567 -1.4089 1.6109 -0.9863 3.1432 -2.6506 3.1432 -4.92 0 -1.1948 -0.3349 -2.2594 -0.9884 -3.1511 -0.6326 -0.8631 -1.477 -1.4468 -2.3193 -1.8593 -1.5635 -0.7658 -3.5438 -1.129 -5.1793 -1.4289l-0.1517 -0.0278c-0.1221 -0.0225 -0.2426 -0.0447 -0.3613 -0.0667l0 -4.9662c1.7946 0 3.2939 0.4125 4.3426 0.8253 0.5226 0.2057 0.9261 0.4086 1.1891 0.5536 0.1312 0.0723 0.2266 0.1296 0.2833 0.165 0.0284 0.0176 0.047 0.0297 0.0556 0.0353l0.0041 0.0027c0.9089 0.6188 2.148 0.3877 2.7724 -0.5189 0.6266 -0.9096 0.3971 -2.155 -0.5126 -2.7816l-1.1209 1.6275c1.1209 -1.6275 1.1203 -1.6279 1.1198 -1.6283l-0.0013 -0.0008 -0.0026 -0.0018 -0.0061 -0.0042 -0.0154 -0.0104c-0.0117 -0.0079 -0.0262 -0.0175 -0.0434 -0.0288 -0.0345 -0.0227 -0.0802 -0.052 -0.1366 -0.0871 -0.1128 -0.0702 -0.269 -0.1635 -0.4659 -0.272 -0.3932 -0.2166 -0.9522 -0.4958 -1.6546 -0.7723 -0.9918 -0.3904 -2.284 -0.7808 -3.8074 -0.9757l-0.0001 -1.1277Zm-2.0001 5.0002 0 -7 0.0001 7 -0.0001 0Zm0 0 0 4.9662c-1.6654 -0.309 -2.9871 -0.585 -3.9326 -1.0481 -0.4702 -0.2303 -0.7196 -0.4502 -0.8526 -0.6317 -0.1121 -0.1529 -0.2147 -0.3741 -0.2147 -0.7864 0 -0.3021 0.2177 -0.8877 1.2319 -1.5086 0.9714 -0.5948 2.354 -0.9914 3.768 -0.9914Zm0.0001 9.0337 -0.0001 0 0 -4.0675 0.0001 0 0 4.0675Zm0 0c1.6655 0.309 2.9873 0.585 3.9328 1.0481 0.4702 0.2303 0.7195 0.4502 0.8525 0.6317 0.1121 0.1529 0.2147 0.3741 0.2147 0.7865 0 0.302 -0.2176 0.8876 -1.2318 1.5085 -0.9714 0.5948 -2.3541 0.9915 -3.7682 0.9915l0 -4.9663Zm5.8667 -7.4573c-0.0006 -0.0004 -0.0011 -0.0008 1.1333 -1.6479l-1.1344 1.6471 0.0011 0.0008Z" clip-rule="evenodd" stroke-width="3.429"></path>
  </g>
</svg>
