<svg xmlns="http://www.w3.org/2000/svg" viewBox="0 0 24 24" fill="none"><path d="M3.2041 3.2041C3.86749 3.2041 4.46392 3.20215 4.94336 3.2666C5.45073 3.33483 5.97104 3.49373 6.39746 3.91992C6.82396 4.34642 6.98351 4.86747 7.05176 5.375C7.11617 5.85432 7.11328 6.45012 7.11328 7.11328V8.09082C7.11328 8.63043 6.67629 9.06817 6.13672 9.06836C5.59699 9.06836 5.15918 8.63055 5.15918 8.09082V7.11328C5.15918 6.87327 5.15619 6.66429 5.1543 6.48047C3.93524 7.99038 3.2041 9.90887 3.2041 12C3.2041 16.8576 7.1424 20.7959 12 20.7959C12.6035 20.7959 13.192 20.7353 13.7598 20.6201C14.2886 20.5128 14.8056 20.8541 14.9131 21.3828C15.0201 21.9115 14.678 22.4276 14.1494 22.5352C13.4543 22.6763 12.735 22.75 12 22.75C6.06294 22.75 1.25 17.9371 1.25 12C1.25 9.40238 2.17366 7.01998 3.70703 5.16211C3.55618 5.16118 3.38914 5.15918 3.2041 5.15918H2.22754C1.68781 5.15918 1.25 4.72137 1.25 4.18164C1.2501 3.64199 1.68787 3.2041 2.22754 3.2041H3.2041ZM12 1.25C17.9371 1.25 22.75 6.06294 22.75 12C22.75 14.5972 21.826 16.9791 20.293 18.8369C20.4439 18.8378 20.6108 18.8408 20.7959 18.8408H21.7725C22.3122 18.8408 22.75 19.2786 22.75 19.8184C22.7499 20.358 22.3121 20.7959 21.7725 20.7959H20.7959C20.1325 20.7959 19.5361 20.7979 19.0566 20.7334C18.5493 20.6652 18.0289 20.5063 17.6025 20.0801C17.176 19.6536 17.0165 19.1325 16.9482 18.625C16.8838 18.1457 16.8867 17.5499 16.8867 16.8867V15.9092C16.8867 15.3696 17.3238 14.9319 17.8633 14.9316C18.403 14.9316 18.8408 15.3694 18.8408 15.9092V16.8867C18.8408 17.128 18.8438 17.3379 18.8457 17.5225C20.0657 16.0123 20.7959 14.0922 20.7959 12C20.7959 7.1424 16.8576 3.2041 12 3.2041C11.3965 3.2041 10.808 3.26467 10.2402 3.37988C9.7114 3.48723 9.19443 3.14594 9.08691 2.61719C8.97987 2.08854 9.32203 1.57236 9.85059 1.46484C10.5457 1.32373 11.265 1.25 12 1.25ZM12 5.64746C12.5397 5.64747 12.9775 6.08527 12.9775 6.625V7.11328L13.1279 7.11719C14.6772 7.19556 15.9092 8.4772 15.9092 10.0459C15.9091 10.6737 15.7091 11.2535 15.373 11.7305C15.9994 12.2681 16.3973 13.0639 16.3975 13.9541C16.3975 15.5733 15.085 16.8867 13.4658 16.8867H12.9775V17.375C12.9775 17.9147 12.5397 18.3525 12 18.3525C11.4603 18.3525 11.0225 17.9147 11.0225 17.375V16.8867H9.06836C8.52866 16.8867 8.09087 16.4489 8.09082 15.9092C8.09082 15.3694 8.52863 14.9316 9.06836 14.9316H9.55664V9.06836H9.06836C8.52863 9.06836 8.09082 8.63055 8.09082 8.09082C8.09087 7.55113 8.52866 7.11328 9.06836 7.11328H11.0225V6.625C11.0225 6.08527 11.4603 5.64746 12 5.64746ZM11.5117 14.9316H13.4658C14.0056 14.9316 14.4434 14.4938 14.4434 13.9541C14.4431 13.4146 14.0054 12.9775 13.4658 12.9775H11.5117V14.9316ZM11.5117 11.0225H12.9775C13.517 11.0224 13.9548 10.5854 13.9551 10.0459C13.9551 9.50623 13.5172 9.06847 12.9775 9.06836H11.5117V11.0225Z" fill="currentColor"/></svg>
