<svg xmlns="http://www.w3.org/2000/svg" viewBox="0 0 24 24" fill="none"><path d="M18.5 7.24988C20.0188 7.24988 21.25 6.01866 21.25 4.49988C21.25 2.98109 20.0188 1.74988 18.5 1.74988C16.9812 1.74988 15.75 2.98109 15.75 4.49988C15.75 6.01866 16.9812 7.24988 18.5 7.24988Z" fill="currentColor"/><path d="M4.5 21.2499C6.01878 21.2499 7.25 20.0187 7.25 18.4999C7.25 16.9811 6.01878 15.7499 4.5 15.7499C2.98122 15.7499 1.75 16.9811 1.75 18.4999C1.75 20.0187 2.98122 21.2499 4.5 21.2499Z" fill="currentColor"/><path d="M3.5 16.4999C3.5 9.32018 9.3203 3.49988 16.5 3.49988C17.0523 3.49988 17.5 3.94759 17.5 4.49988C17.5 5.05216 17.0523 5.49988 16.5 5.49988C10.4249 5.49988 5.5 10.4247 5.5 16.4999C5.5 17.0522 5.05228 17.4999 4.5 17.4999C3.94772 17.4999 3.5 17.0522 3.5 16.4999Z" fill="currentColor"/><path opacity="0.4" d="M21.6192 21.4425C22.0233 21.0383 22.25 20.4897 22.25 19.9181C22.25 19.3465 22.0233 18.7979 21.6192 18.3937L19.6045 16.38C19.6959 16.323 19.8041 16.2576 19.9341 16.1792L19.9492 16.17L19.9828 16.1498C20.4384 15.8748 20.8392 15.6329 21.125 15.4093C21.405 15.1903 21.7565 14.8547 21.8086 14.3429C21.8244 14.1876 21.8153 14.0312 21.7832 13.879L21.7442 13.7286L21.6738 13.5558C21.4852 13.1768 21.1338 12.964 20.8545 12.8273C20.5206 12.6639 20.0649 12.5073 19.5469 12.3273L14.4043 10.5402C13.4594 10.2117 12.6703 9.93545 12.0557 9.81751C11.45 9.7013 10.7444 9.68391 10.2139 10.214C9.68344 10.7443 9.70107 11.4495 9.8174 12.0548C9.93358 12.6594 10.2028 13.4328 10.5246 14.3572L10.5401 14.4015L12.333 19.5519L12.3443 19.5842C12.5177 20.0825 12.6701 20.5204 12.8281 20.8439C12.9824 21.1597 13.2338 21.5686 13.7158 21.7286C13.9241 21.7978 14.1453 21.8208 14.3633 21.796C14.8677 21.7386 15.198 21.3906 15.4141 21.1134C15.6343 20.8308 15.8723 20.436 16.1431 19.9868L16.1651 19.9503C16.2434 19.8204 16.3083 19.7119 16.3653 19.6202L18.3535 21.6085C18.7645 22.0193 19.3222 22.2501 19.9033 22.2501C20.4843 22.25 21.0413 22.0192 21.4522 21.6085L21.6192 21.4425Z" fill="currentColor"/></svg>
