<svg xmlns="http://www.w3.org/2000/svg" viewBox="0 0 24 24" fill="none"><path d="M18.4995 7.24988C20.0183 7.24988 21.2495 6.01866 21.2495 4.49988C21.2495 2.98109 20.0183 1.74988 18.4995 1.74988C16.9807 1.74988 15.7495 2.98109 15.7495 4.49988C15.7495 6.01866 16.9807 7.24988 18.4995 7.24988Z" fill="currentColor"/><path d="M4.49951 21.2499C6.01829 21.2499 7.24951 20.0187 7.24951 18.4999C7.24951 16.9811 6.01829 15.7499 4.49951 15.7499C2.98073 15.7499 1.74951 16.9811 1.74951 18.4999C1.74951 20.0187 2.98073 21.2499 4.49951 21.2499Z" fill="currentColor"/><path d="M3.49951 16.4999C3.49951 9.32018 9.31981 3.49988 16.4995 3.49988C17.0518 3.49988 17.4995 3.94759 17.4995 4.49988C17.4995 5.05216 17.0518 5.49988 16.4995 5.49988C10.4244 5.49988 5.49951 10.4247 5.49951 16.4999C5.49951 17.0522 5.0518 17.4999 4.49951 17.4999C3.94723 17.4999 3.49951 17.0522 3.49951 16.4999Z" fill="currentColor"/><path d="M21.6187 21.4425C22.0229 21.0383 22.2495 20.4897 22.2495 19.9181C22.2495 19.3465 22.0228 18.7979 21.6187 18.3937L19.604 16.38C19.6954 16.323 19.8036 16.2576 19.9336 16.1792L19.9487 16.17L19.9823 16.1498C20.4379 15.8748 20.8387 15.6329 21.1245 15.4093C21.4045 15.1903 21.756 14.8547 21.8081 14.3429C21.8239 14.1876 21.8148 14.0312 21.7827 13.879L21.7437 13.7286L21.6734 13.5558C21.4847 13.1768 21.1333 12.964 20.854 12.8273C20.5201 12.6639 20.0644 12.5073 19.5464 12.3273L14.4038 10.5402C13.4589 10.2117 12.6698 9.93545 12.0552 9.81751C11.4495 9.7013 10.7439 9.68391 10.2134 10.214C9.68295 10.7443 9.70058 11.4495 9.81691 12.0548C9.93309 12.6594 10.2023 13.4328 10.5241 14.3572L10.5396 14.4015L12.3325 19.5519L12.3438 19.5842C12.5172 20.0825 12.6696 20.5204 12.8277 20.8439C12.9819 21.1597 13.2333 21.5686 13.7153 21.7286C13.9236 21.7978 14.1448 21.8208 14.3628 21.796C14.8672 21.7386 15.1975 21.3906 15.4136 21.1134C15.6338 20.8308 15.8718 20.436 16.1426 19.9868L16.1646 19.9503C16.2429 19.8204 16.3078 19.7119 16.3648 19.6202L18.353 21.6085C18.764 22.0193 19.3218 22.2501 19.9029 22.2501C20.4838 22.25 21.0408 22.0192 21.4517 21.6085L21.6187 21.4425Z" fill="currentColor"/></svg>
