<svg xmlns="http://www.w3.org/2000/svg" viewBox="0 0 24 24" fill="none"><path d="M12.5195 1.25C14.2488 1.24999 15.6277 1.24997 16.708 1.4043C17.8246 1.56387 18.7318 1.90135 19.4434 2.65723C20.149 3.40692 20.4591 4.3522 20.6064 5.5166C20.75 6.65128 20.75 8.10201 20.75 9.93848V19C20.75 21.071 19.009 22.7499 16.8613 22.75H7.13867C4.991 22.7499 3.25 21.071 3.25 19V9.93848C3.24998 8.102 3.24998 6.65128 3.39355 5.5166C3.54091 4.3522 3.85105 3.40692 4.55664 2.65723C5.26817 1.90135 6.17536 1.56387 7.29199 1.4043C8.37231 1.24997 9.75124 1.24999 11.4805 1.25H12.5195ZM7.13867 17.125C6.06488 17.1251 5.19434 17.9645 5.19434 19C5.19434 20.0355 6.06488 20.8749 7.13867 20.875H16.8613C17.9351 20.8749 18.8057 20.0355 18.8057 19C18.8057 17.9645 17.9351 17.1251 16.8613 17.125H7.13867ZM7.25 18C7.80228 18 8.25 18.4477 8.25 19C8.25 19.5523 7.80228 20 7.25 20C6.69772 20 6.25 19.5523 6.25 19C6.25 18.4477 6.69771 18 7.25 18ZM10.75 18C11.3023 18 11.75 18.4477 11.75 19C11.75 19.5523 11.3023 20 10.75 20C10.1977 20 9.75 19.5523 9.75 19C9.75 18.4477 10.1977 18 10.75 18ZM9 9.25C7.48122 9.25 6.25 10.4812 6.25 12C6.25 12.4142 6.58579 12.75 7 12.75H12C12.4142 12.75 12.75 12.4142 12.75 12C12.75 10.4812 11.5188 9.25 10 9.25H9ZM14.5 9.25C14.0858 9.25 13.75 9.58579 13.75 10V12C13.75 12.4142 14.0858 12.75 14.5 12.75H17C17.4142 12.75 17.75 12.4142 17.75 12C17.75 10.4812 16.5188 9.25 15 9.25H14.5ZM9.5 5.25C8.67157 5.25 8 5.92157 8 6.75C8 7.57843 8.67157 8.25 9.5 8.25C10.3284 8.25 11 7.57843 11 6.75C11 5.92157 10.3284 5.25 9.5 5.25ZM14.5 5.25C13.6716 5.25 13 5.92157 13 6.75C13 7.57843 13.6716 8.25 14.5 8.25C15.3284 8.25 16 7.57843 16 6.75C16 5.92157 15.3284 5.25 14.5 5.25Z" fill="currentColor"/></svg>
