<svg xmlns="http://www.w3.org/2000/svg" viewBox="0 0 24 24" fill="none"><path opacity="0.4" d="M9.26962 1.29988C9.45836 1.37252 9.60975 1.5183 9.68948 1.70415L13.8667 11.4422L13.8798 11.4746C14.1669 12.1766 14.4018 12.751 14.5512 13.2431C14.7074 13.7577 14.7875 14.2338 14.7333 14.7429C14.6791 15.2517 14.5007 15.701 14.2398 16.1723C13.9901 16.6235 13.6395 17.138 13.2106 17.7673L10.7503 21.3774C10.3584 21.9523 9.92743 22.4822 9.2846 22.6742C8.64711 22.8645 7.99517 22.6631 7.35647 22.4132L5.03319 21.5042C4.49287 21.2927 3.97064 21.0445 3.63757 20.5695C3.30079 20.0892 3.25023 19.512 3.25023 18.9184L3.25019 11.6939C3.25002 11.584 3.25877 11.6939 3.25877 11.6939C3.25877 11.6939 3.25023 11.0006 3.40225 10.8486C3.5006 10.6706 3.74438 10.3902 4.08564 10.2126C6.12917 8.80715 6.30313 6.57921 5.68229 5.06795C5.68229 5.06795 5.40733 4.39876 5.3326 4.16106C5.29338 4.03629 5.25625 3.89486 5.24144 3.74967C5.22662 3.60444 5.22885 3.407 5.31527 3.20244C5.48483 2.80108 5.84819 2.53653 6.11626 2.37289C6.41484 2.19061 8.3561 1.4499 8.68707 1.31832C8.87082 1.23388 9.08089 1.22723 9.26962 1.29988Z" fill="currentColor"/><path d="M10.0002 13.9998C10.0002 13.4475 10.4459 12.9998 10.9957 12.9998H11.0047C11.5545 12.9998 12.0002 13.4475 12.0002 13.9998C12.0002 14.5521 11.5545 14.9998 11.0047 14.9998H10.9957C10.4459 14.9998 10.0002 14.5521 10.0002 13.9998Z" fill="currentColor" fill-rule="evenodd" clip-rule="evenodd"/><path d="M15.0373 1.25067C15.0787 1.25269 15.119 1.25881 15.1584 1.26727C15.1985 1.27597 15.238 1.28806 15.2766 1.30341C15.285 1.30675 15.2937 1.30953 15.3019 1.31317C15.3055 1.31475 15.3091 1.31642 15.3127 1.31805L16.9025 1.90204C17.2333 2.03354 17.5846 2.19061 17.883 2.37274C18.151 2.53633 18.5151 2.80072 18.6848 3.20184C18.816 3.51244 18.7651 3.84942 18.6672 4.16083C18.5925 4.3985 18.457 4.72864 18.3176 5.06805C17.6968 6.57929 17.8708 8.80717 19.9142 10.2126C20.1719 10.3898 20.4426 10.5675 20.5978 10.8483C20.7427 11.1105 20.7497 11.4024 20.7492 11.694V18.9186C20.7492 19.512 20.6989 20.0889 20.3625 20.569C20.0295 21.0439 19.5071 21.2922 18.967 21.5036L16.6437 22.4128C16.005 22.6627 15.3525 22.8649 14.715 22.6745C14.0723 22.4825 13.641 21.9525 13.2492 21.3776C13.1049 21.1659 12.8605 20.9191 12.8605 20.653C12.8606 20.4989 12.9541 20.3621 13.1398 20.0895L14.2697 18.4323C14.6769 17.8349 15.0552 17.2792 15.3332 16.777C15.6408 16.221 15.8978 15.6071 15.9758 14.8747C16.0537 14.1417 15.9309 13.4876 15.7463 12.8796C15.5463 12.2212 15.2754 11.5849 15.0148 10.9489L13.0178 6.29364C12.8512 5.90528 12.7678 5.71086 12.7678 5.50555C12.7678 5.30018 12.8511 5.10507 13.0178 4.71649L13.8615 2.74969H10.1379L9.68964 1.7038C9.60988 1.51807 9.45836 1.37211 9.26971 1.2995C9.17606 1.26346 9.07703 1.24785 8.9787 1.25067C8.98584 1.25047 8.99299 1.24969 9.00018 1.24969H15.0236C15.0282 1.24984 15.0327 1.25044 15.0373 1.25067Z" fill="currentColor"/></svg>
