<svg xmlns="http://www.w3.org/2000/svg" viewBox="0 0 24 24" fill="none"><path d="M15.0373 1.25079C15.0787 1.25281 15.119 1.25893 15.1584 1.2674C15.1985 1.2761 15.238 1.28818 15.2766 1.30353C15.285 1.30688 15.2937 1.30964 15.3019 1.31329C15.3055 1.31488 15.3091 1.31653 15.3127 1.31818L16.9025 1.90216C17.2333 2.03367 17.5846 2.19071 17.883 2.37286C18.151 2.53647 18.5151 2.80077 18.6848 3.20197C18.816 3.5126 18.7651 3.84951 18.6672 4.16095C18.5924 4.39865 18.457 4.72872 18.3176 5.06818C17.6968 6.57943 17.8708 8.8073 19.9142 10.2127C20.172 10.3899 20.4427 10.5676 20.5978 10.8484C20.7427 11.1107 20.7497 11.4025 20.7492 11.6942V18.9188C20.7492 19.5121 20.6989 20.0891 20.3625 20.5692C20.0295 21.044 19.5071 21.2923 18.967 21.5037L16.6437 22.4129C16.0051 22.6628 15.3525 22.865 14.715 22.6746C14.0723 22.4827 13.641 21.9527 13.2492 21.3777C13.1049 21.166 12.8605 20.9193 12.8605 20.6531C12.8605 20.499 12.954 20.3623 13.1398 20.0897L14.2697 18.4324C14.6769 17.835 15.0552 17.2794 15.3332 16.7772C15.6409 16.2211 15.8978 15.6073 15.9758 14.8748C16.0537 14.1417 15.9309 13.4878 15.7463 12.8797C15.5463 12.2213 15.2754 11.5851 15.0148 10.949L13.0178 6.29376C12.8511 5.90532 12.7678 5.71101 12.7678 5.50568C12.7678 5.30025 12.851 5.10529 13.0178 4.71661L13.8615 2.74982H10.1379L13.8664 11.4422L13.8801 11.4744C14.1671 12.1763 14.4015 12.7509 14.551 13.243C14.7072 13.7575 14.7878 14.2339 14.7336 14.743C14.6794 15.2518 14.5003 15.7013 14.2394 16.1727C13.9898 16.6237 13.6389 17.1383 13.2101 17.7674L10.7502 21.3777C10.3584 21.9526 9.92708 22.4827 9.28437 22.6746C8.647 22.8648 7.9952 22.6628 7.35663 22.4129L5.03339 21.5037C4.49307 21.2923 3.97095 21.0442 3.63788 20.5692C3.30124 20.089 3.25021 19.5122 3.25019 18.9188V11.6942C3.25002 11.5843 3.25896 11.694 3.25897 11.6942C3.25897 11.694 3.25053 11.0005 3.40253 10.8484C3.50095 10.6705 3.745 10.3902 4.08612 10.2127C6.12938 8.80725 6.30262 6.57936 5.68183 5.06818C5.68147 5.06731 5.4069 4.3985 5.33222 4.16095C5.29303 4.03628 5.25621 3.89488 5.2414 3.74982C5.22658 3.60459 5.2292 3.40652 5.31562 3.20197C5.48527 2.8009 5.84845 2.53644 6.1164 2.37286C6.41528 2.19051 8.35502 1.45003 8.68671 1.31818C8.69114 1.31614 8.69592 1.31426 8.70038 1.31232C8.70652 1.30963 8.71271 1.30703 8.71894 1.3045C8.75867 1.28843 8.79959 1.2764 8.84101 1.2674C8.88035 1.25888 8.92072 1.25286 8.9621 1.25079C8.96698 1.25054 8.97186 1.24997 8.97675 1.24982H15.0236C15.0282 1.24996 15.0327 1.25056 15.0373 1.25079ZM10.9953 12.9998C10.4457 13 10.0002 13.4477 10.0002 13.9998C10.0002 14.552 10.4457 14.9996 10.9953 14.9998H11.0051C11.5547 14.9996 12.0002 14.552 12.0002 13.9998C12.0002 13.4477 11.5547 13 11.0051 12.9998H10.9953Z" fill="currentColor" fill-rule="evenodd" clip-rule="evenodd"/></svg>
