<svg xmlns="http://www.w3.org/2000/svg" viewBox="0 0 24 24" fill="none"><path opacity="0.4" d="M17.9997 13C19.6565 13 20.9997 14.3431 20.9997 16V20C20.9997 20.5523 20.552 21 19.9997 21C19.4475 20.9999 18.9997 20.5522 18.9997 20V19H16.9997V20C16.9997 20.5523 16.552 21 15.9997 21C15.4475 20.9999 14.9997 20.5522 14.9997 20V16C14.9997 14.3432 16.3429 13.0001 17.9997 13ZM17.9997 15C17.4475 15.0001 16.9997 15.4478 16.9997 16V17H18.9997V16C18.9997 15.4477 18.552 15 17.9997 15Z" fill="currentColor"/><path d="M7.99976 3C8.41002 3 8.76497 3.17918 8.99098 3.31543C9.24432 3.46819 9.49591 3.66807 9.73121 3.87598C10.2043 4.29398 10.7052 4.83223 11.1502 5.34473C11.5994 5.86212 12.0121 6.37644 12.3113 6.75977C12.4613 6.95194 12.5834 7.11263 12.6687 7.22559C12.7114 7.28207 12.7453 7.32652 12.7683 7.35742C12.7798 7.37288 12.7885 7.38523 12.7947 7.39355C12.7977 7.39768 12.8008 7.40104 12.8025 7.40332C12.8032 7.40422 12.804 7.40471 12.8045 7.40527V7.40723H12.8054C13.1326 7.8519 13.0371 8.47825 12.5925 8.80566C12.1479 9.13284 11.5215 9.03735 11.1941 8.59277L11.1931 8.59082C11.192 8.58925 11.1896 8.58718 11.1873 8.58398C11.1822 8.5772 11.175 8.56646 11.1648 8.55273C11.1442 8.52504 11.1129 8.48354 11.073 8.43066C10.9931 8.32492 10.8776 8.17281 10.7351 7.99023C10.449 7.62362 10.0593 7.1378 9.64039 6.65527C9.21713 6.16777 8.78273 5.70602 8.40699 5.37402C8.24166 5.22796 8.10448 5.12471 7.99976 5.05664C7.89505 5.12471 7.75786 5.22797 7.59254 5.37402C7.2168 5.70602 6.78241 6.16778 6.35914 6.65527C5.94019 7.13779 5.55052 7.62362 5.26441 7.99023C5.12193 8.17281 5.00639 8.32493 4.92652 8.43066C4.88659 8.48353 4.85536 8.52504 4.83473 8.55273C4.8245 8.56646 4.81729 8.5772 4.81226 8.58398C4.80989 8.58719 4.80756 8.58925 4.80641 8.59082L4.80543 8.59277L4.74 8.67188C4.39975 9.04764 3.82394 9.11177 3.40699 8.80469C2.96249 8.47726 2.86696 7.85187 3.1941 7.40723H3.19508V7.40527C3.19556 7.40461 3.19718 7.40443 3.19801 7.40332C3.19968 7.40105 3.2018 7.39766 3.20484 7.39355C3.21101 7.38523 3.2197 7.37287 3.23121 7.35742C3.25424 7.32652 3.28814 7.28209 3.33082 7.22559C3.41614 7.11263 3.53826 6.95195 3.68824 6.75977C3.98739 6.37645 4.40016 5.86211 4.84937 5.34473C5.29435 4.83223 5.79524 4.29398 6.26832 3.87598C6.50362 3.66808 6.75521 3.46819 7.00855 3.31543C7.23455 3.17919 7.58952 3.00001 7.99976 3Z" fill="currentColor"/><path d="M6.99982 5V20C6.99982 20.5523 7.44753 21 7.99982 21C8.5521 21 8.99982 20.5523 8.99982 20V5C8.99982 4.44772 8.5521 4 7.99982 4C7.44753 4 6.99982 4.44772 6.99982 5Z" fill="currentColor"/><path opacity="0.4" d="M18.3651 3.00004C18.7927 3.00004 19.2273 2.99703 19.5643 3.04593C19.8645 3.08955 20.4216 3.21864 20.7322 3.75199L20.7908 3.86332L20.8397 3.98051C21.0503 4.56041 20.7923 5.07061 20.6336 5.32914C20.4554 5.61939 20.1751 5.95165 19.9012 6.28031L17.6346 9.00004H19.9998C20.5521 9.00004 20.9998 9.44775 20.9998 10C20.9998 10.5523 20.5521 11 19.9998 11H17.6346C17.2069 11 16.7723 11.003 16.4354 10.9541C16.1152 10.9076 15.5028 10.7641 15.2088 10.1368C14.9148 9.5091 15.1968 8.94669 15.366 8.67093C15.5442 8.38068 15.8246 8.04842 16.0984 7.71976L18.3651 5.00004H15.9998C15.4475 5.00004 14.9998 4.55232 14.9998 4.00004C14.9998 3.44775 15.4475 3.00004 15.9998 3.00004H18.3651Z" fill="currentColor"/></svg>
