<svg xmlns="http://www.w3.org/2000/svg" viewBox="0 0 24 24" fill="none"><path d="M7.99955 3.00052C8.40978 3.00052 8.76475 3.17971 8.99076 3.31595C9.24409 3.46871 9.49571 3.66861 9.731 3.8765C10.2041 4.2945 10.705 4.83276 11.1499 5.34525C11.5991 5.86262 12.0119 6.37697 12.3111 6.76029C12.461 6.95244 12.5832 7.11316 12.6685 7.22611C12.7111 7.28258 12.7451 7.32705 12.7681 7.35795C12.7796 7.37338 12.7883 7.38575 12.7945 7.39408C12.7975 7.39818 12.8006 7.40157 12.8023 7.40384C12.8029 7.40472 12.8038 7.40524 12.8042 7.4058V7.40775H12.8052C13.1324 7.85243 13.0369 8.47877 12.5923 8.80619C12.1476 9.13333 11.5213 9.03786 11.1939 8.5933L11.1929 8.59134C11.1917 8.58978 11.1894 8.58768 11.187 8.58451C11.182 8.57772 11.1748 8.56696 11.1646 8.55326C11.144 8.52557 11.1127 8.48404 11.0728 8.43119C10.9929 8.32545 10.8774 8.17332 10.7349 7.99076C10.4488 7.62414 10.0591 7.13831 9.64017 6.6558C9.42635 6.40952 9.21006 6.16947 8.99955 5.94974V20.0005C8.99955 20.5528 8.55183 21.0005 7.99955 21.0005C7.44732 21.0005 6.99955 20.5528 6.99955 20.0005V5.94974C6.78905 6.16946 6.57274 6.40954 6.35892 6.6558C5.93999 7.1383 5.5503 7.62416 5.2642 7.99076C5.12173 8.17332 5.00617 8.32546 4.92631 8.43119C4.88639 8.48404 4.85514 8.52557 4.83451 8.55326C4.82429 8.56697 4.81707 8.57773 4.81205 8.58451C4.80969 8.58769 4.80734 8.58978 4.80619 8.59134L4.80521 8.5933L4.73978 8.6724C4.39953 9.04813 3.82371 9.11228 3.40678 8.80521C2.96232 8.47778 2.86678 7.85238 3.19389 7.40775H3.19486V7.4058C3.19534 7.40514 3.19696 7.40493 3.19779 7.40384C3.19946 7.40158 3.2016 7.39817 3.20463 7.39408C3.21079 7.38576 3.21949 7.37338 3.23099 7.35795C3.25402 7.32705 3.28794 7.2826 3.3306 7.22611C3.41592 7.11316 3.53805 6.95246 3.68803 6.76029C3.98717 6.37698 4.39996 5.86263 4.84916 5.34525C5.29412 4.83277 5.79503 4.2945 6.2681 3.8765C6.50338 3.66862 6.75501 3.46871 7.00834 3.31595C7.23433 3.17972 7.58934 3.00055 7.99955 3.00052ZM17.9995 13.0005C19.6564 13.0005 20.9995 14.3437 20.9995 16.0005V20.0005C20.9995 20.5528 20.5518 21.0005 19.9995 21.0005C19.4473 21.0005 18.9995 20.5528 18.9995 20.0005V19.0005H16.9995V20.0005C16.9995 20.5528 16.5518 21.0005 15.9995 21.0005C15.4473 21.0005 14.9995 20.5528 14.9995 20.0005V16.0005C14.9995 14.3437 16.3428 13.0006 17.9995 13.0005ZM17.9995 15.0005C17.4473 15.0006 16.9995 15.4483 16.9995 16.0005V17.0005H18.9995V16.0005C18.9995 15.4482 18.5518 15.0005 17.9995 15.0005ZM18.3648 3.00052C18.7924 3.00052 19.2271 2.99753 19.564 3.04642C19.8642 3.09003 20.4214 3.2192 20.732 3.75248L20.7906 3.86381L20.8394 3.98099C21.05 4.5609 20.792 5.0711 20.6333 5.32963C20.4552 5.61987 20.1748 5.95215 19.9009 6.2808L17.6343 9.00052H19.9995C20.5518 9.00052 20.9995 9.44826 20.9995 10.0005C20.9995 10.5528 20.5518 11.0005 19.9995 11.0005H17.6343C17.2067 11.0005 16.772 11.0035 16.4351 10.9546C16.1149 10.9081 15.5025 10.7645 15.2085 10.1372C14.9146 9.50964 15.1965 8.94718 15.3658 8.67142C15.5439 8.38118 15.8243 8.0489 16.0982 7.72025L18.3648 5.00052H15.9995C15.4473 5.00046 14.9995 4.55277 14.9995 4.00052C14.9996 3.4483 15.4473 3.00059 15.9995 3.00052H18.3648Z" fill="currentColor" fill-rule="evenodd" clip-rule="evenodd"/></svg>
