<svg xmlns="http://www.w3.org/2000/svg" viewBox="0 0 24 24" fill="none"><path d="M11.0576 1.25C11.9166 1.24999 12.6829 1.25069 13.3633 1.27148C12.3266 1.53999 11.5 2.66526 11.5 3.75C11.5 4.52991 11.8973 5.21645 12.5 5.62012V8.87891C11.897 9.28254 11.5 9.9699 11.5 10.75C11.5 11.9926 12.5074 13 13.75 13H14.6309C14.94 13.8734 15.7707 14.5 16.75 14.5C17.6223 14.5 18.377 14.0031 18.75 13.2773V15.0576C18.75 16.6592 18.75 17.9378 18.6152 18.9404C18.4759 19.9767 18.18 20.8298 17.5049 21.5049C16.8298 22.18 15.9767 22.4759 14.9404 22.6152C13.9378 22.75 12.6592 22.75 11.0576 22.75H10.9424C9.34079 22.75 8.06221 22.75 7.05957 22.6152C6.02332 22.4759 5.17025 22.18 4.49512 21.5049C3.81999 20.8298 3.52409 19.9767 3.38477 18.9404C3.24996 17.9378 3.24998 16.6592 3.25 15.0576V8.94238C3.24998 7.34078 3.24996 6.06221 3.38477 5.05957C3.52409 4.02332 3.81999 3.17025 4.49512 2.49512C5.17025 1.81999 6.02332 1.52409 7.05957 1.38477C8.06221 1.24996 9.34078 1.24998 10.9424 1.25H11.0576ZM11 18C10.4477 18 10 18.4477 10 19C10 19.5523 10.4477 20 11 20C11.5523 20 12 19.5523 12 19C12 18.4477 11.5523 18 11 18Z" fill="currentColor" fill-rule="evenodd" clip-rule="evenodd"/><path d="M18.75 8.75C18.75 8.47386 18.5261 8.25 18.25 8.25H15.75V9.75H18.25C18.5261 9.75 18.75 9.52614 18.75 9.25V8.75ZM18.25 5.25C18.25 4.97386 18.0261 4.75 17.75 4.75H15.75V6.25H17.75C18.0261 6.25 18.25 6.02614 18.25 5.75V5.25ZM20.25 5.75C20.25 6.17533 20.1424 6.57514 19.9551 6.92578C20.443 7.38202 20.75 8.0293 20.75 8.75V9.25C20.75 10.6307 19.6307 11.75 18.25 11.75H17.75V12.25C17.75 12.8023 17.3023 13.25 16.75 13.25C16.1977 13.25 15.75 12.8023 15.75 12.25V11.75H13.75C13.1977 11.75 12.75 11.3023 12.75 10.75C12.75 10.1977 13.1977 9.75 13.75 9.75V4.75C13.1977 4.75 12.75 4.30228 12.75 3.75C12.75 3.19772 13.1977 2.75 13.75 2.75H15.75V2.25C15.75 1.69772 16.1977 1.25 16.75 1.25C17.3023 1.25 17.75 1.69772 17.75 2.25V2.75C19.1307 2.75 20.25 3.86929 20.25 5.25V5.75Z" fill="currentColor"/></svg>
