<svg xmlns="http://www.w3.org/2000/svg" viewBox="0 0 24 24" fill="none"><path opacity="0.4" d="M17.125 20.875C17.125 19.2369 16.8446 17.6664 16.3291 16.208C16.1451 15.6873 16.4178 15.1167 16.9385 14.9326C17.4592 14.7486 18.0298 15.0213 18.2139 15.542C18.8039 17.2114 19.125 19.0068 19.125 20.875C19.125 21.4273 18.6773 21.875 18.125 21.875C17.5727 21.875 17.125 21.4273 17.125 20.875ZM3.125 4.875C5.39869 4.875 7.56412 5.35012 9.52539 6.20703C10.0314 6.42819 10.2621 7.01739 10.041 7.52344C9.81987 8.02948 9.23067 8.26017 8.72461 8.03906C7.01115 7.29045 5.11787 6.875 3.125 6.875C2.57272 6.875 2.125 6.42728 2.125 5.875C2.125 5.32272 2.57272 4.875 3.125 4.875Z" fill="currentColor"/><path opacity="0.4" d="M10.125 20.875C10.125 17.009 6.99099 13.875 3.125 13.875C2.57272 13.875 2.125 13.4273 2.125 12.875C2.125 12.3227 2.57272 11.875 3.125 11.875C8.09556 11.875 12.125 15.9044 12.125 20.875C12.125 21.4273 11.6773 21.875 11.125 21.875C10.5727 21.875 10.125 21.4273 10.125 20.875Z" fill="currentColor"/><path d="M3.625 18.875C4.45342 18.875 5.125 19.5466 5.125 20.375C5.125 21.2034 4.45342 21.875 3.625 21.875C2.79657 21.875 2.125 21.2034 2.125 20.375C2.125 19.5466 2.79657 18.875 3.625 18.875Z" fill="currentColor"/><path d="M17.125 2.125C17.9465 2.125 18.6847 2.48599 19.1875 3.05566C19.4616 3.36622 19.4316 3.84017 19.1211 4.11426C18.8106 4.38827 18.3366 4.35922 18.0625 4.04883C17.8324 3.78808 17.4982 3.625 17.125 3.625C16.4346 3.625 15.875 4.18464 15.875 4.875V6.125H18.6514C19.0937 6.12499 19.4754 6.12498 19.7881 6.15332C20.1171 6.18317 20.4429 6.24947 20.75 6.42676C21.0919 6.62421 21.3758 6.90806 21.5732 7.25L21.6348 7.36621C21.7666 7.63876 21.8206 7.92404 21.8467 8.21191C21.875 8.52459 21.875 8.90634 21.875 9.34863V9.40137C21.875 9.84366 21.875 10.2254 21.8467 10.5381C21.8206 10.826 21.7666 11.1112 21.6348 11.3838L21.5732 11.5C21.4006 11.7991 21.1619 12.0538 20.876 12.2451L20.75 12.3232C20.4429 12.5005 20.1171 12.5668 19.7881 12.5967C19.4754 12.625 19.0937 12.625 18.6514 12.625H15.5986C15.1563 12.625 14.7746 12.625 14.4619 12.5967C14.174 12.5706 13.8888 12.5166 13.6162 12.3848L13.5 12.3232C13.1581 12.1258 12.8742 11.8419 12.6768 11.5C12.4995 11.1929 12.4332 10.8671 12.4033 10.5381C12.375 10.2254 12.375 9.84366 12.375 9.40137V9.34863C12.375 8.90634 12.375 8.52459 12.4033 8.21191C12.4332 7.88288 12.4995 7.55707 12.6768 7.25C12.8742 6.90806 13.1581 6.62421 13.5 6.42676C13.78 6.26511 14.0756 6.1967 14.375 6.16309V4.875C14.375 3.35622 15.6062 2.125 17.125 2.125Z" fill="currentColor"/></svg>
