<svg xmlns="http://www.w3.org/2000/svg" fill="none" viewBox="0 0 48 48">
  <g>
    <path fill="currentColor" fill-opacity="0.4" fill-rule="evenodd" d="M0.5 24C0.5 36.9787 11.0213 47.5 24 47.5S47.5 36.9787 47.5 24 36.9787 0.5 24 0.5 0.5 11.0213 0.5 24Z" clip-rule="evenodd" stroke-width="1"></path>
    <path fill="currentColor" fill-rule="evenodd" d="M25.2477 9.84288c1.3222 -1.23935 3.396 -0.19785 3.2994 1.55222 -0.2043 3.7011 -0.4559 6.7381 -0.6983 9.1306 2.6603 0.3919 4.7082 0.8267 5.9738 1.127 1.4064 0.3338 1.9515 1.9843 1.0668 3.0983 -1.9618 2.4702 -6.8933 8.4909 -12.1369 13.4062 -1.3222 1.2394 -3.396 0.1979 -3.2994 -1.5522 0.2043 -3.701 0.456 -6.7381 0.6984 -9.1306 -2.6604 -0.3918 -4.7083 -0.8266 -5.9739 -1.127 -1.4064 -0.3338 -1.9515 -1.9843 -1.0668 -3.0982 1.9618 -2.4703 6.8933 -8.4909 12.1369 -13.40632Z" clip-rule="evenodd" stroke-width="1"></path>
  </g>
</svg>
