<svg xmlns="http://www.w3.org/2000/svg" fill="none" viewBox="0 0 48 48">
  <g>
    <path stroke="currentColor" stroke-linejoin="round" d="M24 2c12.1503 0 22 9.8497 22 22s-9.8497 22 -22 22S2 36.1503 2 24 11.8497 2 24 2Z" stroke-width="3.429"></path>
    <path stroke="currentColor" stroke-linejoin="round" d="M21.2462 26.6192c-3.0932 -0.4189 -5.4512 -0.9158 -6.8378 -1.2448 -0.6828 -0.1621 -0.951 -0.9539 -0.5146 -1.5034 1.9542 -2.4607 6.8491 -8.4348 12.0377 -13.2986 0.6425 -0.60222 1.6655 -0.1117 1.617 0.7675 -0.2318 4.1995 -0.5246 7.5369 -0.7947 10.0409 3.0932 0.4189 5.4512 0.9158 6.8378 1.2448 0.6828 0.1621 0.951 0.9539 0.5146 1.5034 -1.9542 2.4607 -6.8491 8.4348 -12.0377 13.2986 -0.6425 0.6022 -1.6655 0.1117 -1.617 -0.7675 0.2318 -4.1995 0.5246 -7.5369 0.7947 -10.0409Z" stroke-width="3.429"></path>
  </g>
</svg>
