<svg xmlns="http://www.w3.org/2000/svg" fill="none" viewBox="0 0 48 48">
  <g>
    <path fill="currentColor" fill-rule="evenodd" d="M4 24c0 11.0457 8.9543 20 20 20s20 -8.9543 20 -20S35.0457 4 24 4 4 12.9543 4 24m20 24C10.7452 48 0 37.2548 0 24S10.7452 0.0000034324 24 0.000002853 48 10.7452 48 24 37.2548 48 24 48m1.2475 -38.15712c1.3222 -1.23935 3.396 -0.19785 3.2994 1.55222 -0.2043 3.7011 -0.4559 6.7381 -0.6984 9.1306 2.6604 0.3919 4.7083 0.8267 5.9739 1.127 1.4064 0.3338 1.9515 1.9843 1.0668 3.0983 -1.9618 2.4702 -6.8933 8.4909 -12.1369 13.4062 -1.3222 1.2394 -3.396 0.1979 -3.2994 -1.5522 0.2043 -3.701 0.4559 -6.7381 0.6983 -9.1306 -2.6603 -0.3918 -4.7082 -0.8266 -5.9738 -1.127 -1.4064 -0.3338 -1.9515 -1.9843 -1.0668 -3.0982 1.9618 -2.4703 6.8933 -8.4909 12.1369 -13.40632" clip-rule="evenodd" stroke-width="1"></path>
  </g>
</svg>
