<svg xmlns="http://www.w3.org/2000/svg" fill="none" viewBox="0 0 48 48">
  <g>
    <path fill="currentColor" fill-rule="evenodd" d="M24 47.5C11.0213 47.5 0.5 36.9787 0.5 24S11.0213 0.5 24 0.5 47.5 11.0213 47.5 24 36.9787 47.5 24 47.5Zm4.5471 -36.1049c0.0966 -1.75007 -1.9772 -2.79157 -3.2994 -1.55222C20.0041 14.7583 15.0726 20.7789 13.1108 23.2492c-0.8847 1.1139 -0.3396 2.7644 1.0668 3.0982 1.2656 0.3004 3.3135 0.7352 5.9739 1.127 -0.2425 2.3925 -0.4941 5.4296 -0.6984 9.1306 -0.0966 1.7501 1.9772 2.7916 3.2994 1.5522 5.2436 -4.9153 10.1751 -10.936 12.1369 -13.4062 0.8847 -1.114 0.3396 -2.7645 -1.0668 -3.0983 -1.2656 -0.3003 -3.3135 -0.7351 -5.9738 -1.127 0.2424 -2.3925 0.494 -5.4295 0.6983 -9.1306Z" clip-rule="evenodd" stroke-width="1"></path>
  </g>
</svg>
