<svg xmlns="http://www.w3.org/2000/svg" viewBox="0 0 24 24" fill="none"><path opacity="0.4" d="M9.4626 2.48873C8.82373 2.24916 8.11205 2.24948 7.08264 2.24993C6.2039 2.24992 5.32205 2.24996 4.7497 2.30041C4.15996 2.35239 3.64388 2.46235 3.17258 2.72537C2.56533 3.06425 2.06428 3.5653 1.7254 4.17255C1.46238 4.64385 1.35242 5.15993 1.30044 5.74967C1.24999 6.32202 1.24999 7.03074 1.25 7.90947V11.0574C1.24999 13.3657 1.24998 15.1748 1.43975 16.5863C1.63399 18.031 2.03933 19.171 2.93414 20.0658C3.82895 20.9606 4.96897 21.366 6.41371 21.5602C7.82519 21.75 9.63423 21.75 11.9426 21.75H13.1485C12.7848 21.5127 12.4628 21.2675 12.188 21.0397C11.6636 20.6051 10.7692 19.6101 10.4341 19.2373C10.4208 19.2225 10.4084 19.2087 10.3969 19.196C9.86694 18.4857 9.86834 17.5122 10.3972 16.8034C10.4086 16.7908 10.4209 16.7771 10.434 16.7625C10.7688 16.3901 11.6634 15.3949 12.188 14.9601C13.2215 14.1035 14.9228 12.9999 16.9999 12.9999C19.0769 12.9999 20.7782 14.1035 21.8117 14.9601C22.1495 15.2401 22.4455 15.5183 22.6933 15.769C22.75 14.8166 22.75 13.6745 22.75 12.2922C22.75 11.2732 22.75 10.3688 22.683 9.70946C22.6137 9.0289 22.4669 8.43869 22.118 7.91658C21.8444 7.50712 21.4929 7.15556 21.0834 6.88196C20.5613 6.5331 19.9711 6.38625 19.2905 6.31702C18.6312 6.24995 17.8095 6.24996 16.7905 6.24997L13.2361 6.24997C12.92 6.24997 12.7396 6.24905 12.6064 6.23528C12.5044 6.22814 12.4348 6.15252 12.4128 6.1156C12.3409 6.00267 12.0838 5.48906 11.9425 5.20633C11.4704 4.25118 10.8581 3.01202 9.4626 2.48873Z" fill="currentColor"/><path d="M16.9999 14.2499C18.6416 14.2499 20.0604 15.1328 21.0135 15.9227C21.5005 16.3264 21.893 16.7281 22.1639 17.0292C22.2954 17.1754 22.513 17.4426 22.5936 17.5419L22.6004 17.5517C22.799 17.8177 22.799 18.183 22.6004 18.4491L22.5936 18.4579C22.5133 18.5568 22.2956 18.8242 22.1639 18.9706C21.893 19.2717 21.5005 19.6734 21.0135 20.077C20.0604 20.867 18.6416 21.7498 16.9999 21.7499C15.3581 21.7499 13.9383 20.8671 12.9852 20.077C12.4982 19.6733 12.1056 19.2716 11.8348 18.9706L11.3983 18.4481C11.2 18.1821 11.2008 17.8166 11.3993 17.5507C11.4098 17.5377 11.7014 17.1775 11.8348 17.0292C12.1056 16.7281 12.4982 16.3264 12.9852 15.9227C13.9383 15.1327 15.3581 14.2499 16.9999 14.2499ZM16.993 16.4999C16.1684 16.5 15.4999 17.1715 15.4999 17.9999C15.4999 18.8283 16.1684 19.4998 16.993 19.4999H17.0067C17.8313 19.4998 18.4999 18.8283 18.4999 17.9999C18.4999 17.1715 17.8313 16.5 17.0067 16.4999H16.993Z" fill="currentColor" fill-rule="evenodd" clip-rule="evenodd"/></svg>
