<svg xmlns="http://www.w3.org/2000/svg" fill="none" viewBox="0 0 48 48">
  <g>
    <path fill="currentColor" fill-rule="evenodd" d="M6.8469 39.3769c0.0002 0.0004 0.0003 0.0007 0.4963 -0.1695l-0.496 0.1702c0.0727 0.2119 0.272 0.3542 0.496 0.3542h33.3144c0.224 0 0.4232 -0.1423 0.4959 -0.3542l-0.4959 -0.1702c0.4959 0.1702 0.496 0.1699 0.4961 0.1695l0.0003 -0.0008 0.0007 -0.0021 0.0019 -0.0055 0.0057 -0.0175c0.0046 -0.0146 0.011 -0.035 0.0191 -0.0616 0.0161 -0.0533 0.0385 -0.1314 0.0666 -0.2377 0.0562 -0.2124 0.135 -0.5378 0.2295 -1.0013 0.1888 -0.927 0.4407 -2.4091 0.7 -4.6508 0.5183 -4.4828 1.067 -12.0125 1.1967 -24.229 0.038 -3.5754 -2.1778 -6.7818 -5.8054 -7.3483 -3.0351 -0.474 -7.4533 -0.8956 -13.5685 -0.8956 -6.115 0 -10.5333 0.4216 -13.5684 0.8956 -3.6276 0.5665 -5.8434 3.7729 -5.8054 7.3483 0.1297 12.2165 0.6784 19.7462 1.1968 24.229 0.2592 2.2417 0.5111 3.7238 0.6999 4.6508 0.0945 0.4635 0.1732 0.7889 0.2295 1.0013 0.0281 0.1063 0.0506 0.1844 0.0666 0.2377 0.008 0.0266 0.0144 0.047 0.0191 0.0616l0.0057 0.0175 0.0019 0.0055 0.0007 0.0021 0.0002 0.0008Z" clip-rule="evenodd" stroke-width="1"></path>
    <path fill="currentColor" fill-opacity="0.4" fill-rule="evenodd" d="M19.2803 14.0365c0 -0.8688 -0.7044 -1.5731 -1.5732 -1.5731s-1.5732 0.7043 -1.5732 1.5731v1.0488c0 0.8688 0.7044 1.5732 1.5732 1.5732s1.5732 -0.7044 1.5732 -1.5732v-1.0488Zm12.5854 0c0 -0.8688 -0.7044 -1.5731 -1.5732 -1.5731s-1.5732 0.7043 -1.5732 1.5731v1.0488c0 0.8688 0.7044 1.5732 1.5732 1.5732s1.5732 -0.7044 1.5732 -1.5732v-1.0488Z" clip-rule="evenodd" stroke-width="1"></path>
    <path fill="currentColor" fill-opacity="0.4" fill-rule="evenodd" d="M5.9644 47.0733h36.0712c2.4779 0 4.5373 -1.9216 4.6966 -4.3969 0.4728 -7.344 0.6873 -12.6977 0.7845 -16.0445 0.0406 -1.3976 -0.294 -2.8059 -1.0203 -3.8883 -0.7361 -1.0969 -1.8766 -1.8552 -3.3813 -1.8874 -0.5556 -0.0119 -2.2119 0.0174 -2.8707 0.1039 -2.6263 0.3449 -4.2639 2.7326 -4.4904 5.2179 -0.2164 2.3746 -0.3728 4.6112 -0.4844 6.6708 -2.5618 -0.2215 -6.4332 -0.4585 -11.2706 -0.4585 -4.8362 0 -8.7067 0.2369 -11.2686 0.4583 -0.1116 -2.0596 -0.2679 -4.2962 -0.4843 -6.6706 -0.2266 -2.4853 -1.8641 -4.873 -4.4905 -5.2179 -0.6587 -0.0865 -2.3151 -0.1158 -2.8707 -0.1039 -1.5047 0.0322 -2.6452 0.7905 -3.3812 1.8874C0.7773 23.826 0.4427 25.2343 0.4833 26.6319c0.0973 3.3468 0.3117 8.7005 0.7844 16.0445 0.1594 2.4753 2.2188 4.3969 4.6967 4.3969Z" clip-rule="evenodd" stroke-width="1"></path>
  </g>
</svg>
