<svg xmlns="http://www.w3.org/2000/svg" fill="none" viewBox="0 0 48 48">
  <g>
    <path stroke="currentColor" stroke-linecap="round" stroke-linejoin="round" d="M7.24944 21.0105c-2.74172 0.1057 -4.24195 2.6807 -4.14115 5.4226 0.11818 3.2151 0.3659 8.1856 0.88513 14.8976C4.15374 43.4031 5.88814 45 7.96677 45H40.0341c2.0787 0 3.8131 -1.5969 3.9734 -3.6693 0.5192 -6.712 0.7669 -11.6825 0.8851 -14.8976 0.1008 -2.7419 -1.3994 -5.3169 -4.1411 -5.4226l-0.0032 -0.0001c0.1079 -3.0108 0.1886 -6.8666 0.2269 -10.7776 0.0307 -3.14692 -1.8779 -5.9075 -4.9846 -6.41022C33.289 3.38541 29.3812 3 23.9997 3c-5.3814 0 -9.2892 0.38541 -11.9909 0.82258 -3.10661 0.50272 -5.0153 3.26331 -4.98455 6.41022 0.03823 3.911 0.11897 7.7668 0.22691 10.7777l-0.00172 0Z" stroke-width="3.429"></path>
    <path stroke="currentColor" stroke-linecap="round" stroke-linejoin="round" d="M33.3334 31.3807C30.9748 31.1798 27.8018 31 23.9995 31c-3.801 0 -6.9732 0.1797 -9.3315 0.3805" stroke-width="3.429"></path>
    <path stroke="currentColor" stroke-linecap="round" stroke-linejoin="round" d="M3.10829 26.4331c-0.1008 -2.7419 1.39943 -5.3169 4.14115 -5.4226 0.82009 -0.0316 1.75708 0.0049 2.80936 0.1519 2.2779 0.3183 3.8627 2.3128 4.1105 4.5994C15.3907 37.0336 14.9052 45 14.9052 45l-5.35713 0 -1.5813 0c-2.07863 0 -3.81303 -1.5969 -3.97335 -3.6693 -0.51923 -6.712 -0.76695 -11.6825 -0.88513 -14.8976Z" stroke-width="3.429"></path>
    <path stroke="currentColor" stroke-linecap="round" stroke-linejoin="round" d="M44.8922 26.4331c0.1008 -2.7419 -1.3995 -5.3169 -4.1412 -5.4226 -0.8201 -0.0316 -1.7571 0.0049 -2.8094 0.1519 -2.2778 0.3183 -3.8626 2.3128 -4.1104 4.5994C32.6097 37.0336 33.0952 45 33.0952 45l5.3572 0 1.5813 0c2.0786 0 3.813 -1.5969 3.9733 -3.6693 0.5193 -6.712 0.767 -11.6825 0.8852 -14.8976Z" stroke-width="3.429"></path>
    <path stroke="currentColor" stroke-linecap="round" stroke-linejoin="round" d="M18 14v1" stroke-width="3.429"></path>
    <path stroke="currentColor" stroke-linecap="round" stroke-linejoin="round" d="M30 14v1" stroke-width="3.429"></path>
  </g>
</svg>
