<svg xmlns="http://www.w3.org/2000/svg" viewBox="0 0 24 24" fill="none"><path d="M18.6582 21.9102C19.877 21.2752 22.25 19.6623 22.25 16.6562V15.0869C22.25 14.5124 22.2714 13.9612 21.9404 13.4199C21.6173 12.8917 21.2253 12.7074 20.8193 12.5029C19.867 12.0232 18.721 11.75 17.5 11.75C16.2789 11.75 15.133 12.0232 14.1806 12.5029C13.7747 12.7074 13.3827 12.8917 13.0595 13.4199C12.7285 13.9612 12.75 14.5124 12.75 15.0869V16.6562C12.75 19.6623 15.1229 21.2752 16.3418 21.9102C16.6712 22.0818 16.9777 22.25 17.5 22.25C18.0222 22.25 18.3288 22.0818 18.6582 21.9102Z" fill="currentColor"/><path opacity="0.4" d="M12.5498 1.75C14.3906 1.74999 15.8487 1.74998 16.9892 1.90332C18.1615 2.06096 19.1101 2.39329 19.8584 3.1416C20.6067 3.88991 20.939 4.83844 21.0966 6.01074C21.25 7.15129 21.25 8.60939 21.25 10.4502V11.3223C20.1409 10.7902 18.8496 10.5 17.5 10.5C16.0968 10.5 14.756 10.8135 13.6181 11.3867C13.2178 11.5884 12.5204 11.9057 11.9931 12.7676C11.582 13.4399 11.5102 14.1335 11.5 14.6445V16.6562C11.5 18.694 12.3736 20.1938 13.3799 21.248C13.1123 21.2486 12.8356 21.25 12.5498 21.25H10.4502C8.60936 21.25 7.15126 21.25 6.01071 21.0967C4.83841 20.939 3.88988 20.6067 3.14157 19.8584C2.39326 19.1101 2.06093 18.1616 1.90329 16.9893C1.74995 15.8487 1.74996 14.3906 1.74997 12.5498V10.4502C1.74996 8.60937 1.74995 7.15129 1.90329 6.01074C2.06093 4.83844 2.39326 3.88991 3.14157 3.1416C3.88988 2.39329 4.83841 2.06096 6.01071 1.90332C7.15126 1.74998 8.60934 1.74999 10.4502 1.75H12.5498Z" fill="currentColor"/><path d="M15.25 1.77637C15.7993 1.79405 16.298 1.82424 16.75 1.875V7.75H21.2236C21.2385 8.21335 21.2455 8.71261 21.248 9.25H12.25V12.4043C12.1616 12.5135 12.075 12.6337 11.9931 12.7676C11.582 13.4399 11.5102 14.1335 11.5 14.6445V15.25H7.74997V21.2227C7.20061 21.205 6.70193 21.1748 6.24997 21.124V15.25H1.77634C1.76142 14.7866 1.75448 14.2874 1.75192 13.75H10.75V9.25H1.75192C1.75448 8.71261 1.76142 8.21335 1.77634 7.75H6.24997V1.875C6.70191 1.82424 7.20064 1.79405 7.74997 1.77637V7.75H15.25V1.77637Z" fill="currentColor"/></svg>
