<svg xmlns="http://www.w3.org/2000/svg" viewBox="0 0 24 24" fill="none"><path d="M18.6577 21.9102C19.8765 21.2752 22.2495 19.6623 22.2495 16.6562V15.0869C22.2495 14.5124 22.2709 13.9612 21.9399 13.4199C21.6168 12.8917 21.2248 12.7074 20.8188 12.5029C19.8665 12.0232 18.7205 11.75 17.4995 11.75C16.2785 11.75 15.1325 12.0232 14.1802 12.5029C13.7742 12.7074 13.3822 12.8917 13.0591 13.4199C12.728 13.9612 12.7495 14.5124 12.7495 15.0869V16.6562C12.7495 19.6623 15.1224 21.2752 16.3413 21.9102C16.6707 22.0818 16.9772 22.25 17.4995 22.25C18.0217 22.25 18.3283 22.0818 18.6577 21.9102Z" fill="currentColor"/><path d="M11.4995 16.6562C11.4995 18.6933 12.3725 20.1928 13.3784 21.2471C13.1111 21.2479 12.8348 21.25 12.5493 21.25H10.4497C9.43752 21.25 8.54101 21.2481 7.74948 21.2227V15.25H11.4995V16.6562Z" fill="currentColor"/><path d="M6.24948 21.124C6.1683 21.1149 6.0884 21.1072 6.01022 21.0967C4.83792 20.939 3.88939 20.6067 3.14108 19.8584C2.39277 19.1101 2.06044 18.1616 1.9028 16.9893C1.83377 16.4758 1.79671 15.898 1.77585 15.25H6.24948V21.124Z" fill="currentColor"/><path d="M10.7495 13.75H1.75143C1.74962 13.3694 1.74948 12.9695 1.74948 12.5498V10.4502C1.74948 10.0305 1.74962 9.63064 1.75143 9.25H10.7495V13.75Z" fill="currentColor"/><path d="M21.2495 10.4502V11.3223C20.1404 10.7902 18.8491 10.5 17.4995 10.5C16.0963 10.5 14.7555 10.8135 13.6176 11.3867C13.2796 11.557 12.7298 11.8099 12.2495 12.4033V9.25H21.2475C21.2493 9.63063 21.2495 10.0305 21.2495 10.4502Z" fill="currentColor"/><path d="M6.24948 7.75H1.77585C1.79671 7.10196 1.83377 6.52418 1.9028 6.01074C2.06044 4.83844 2.39277 3.88991 3.14108 3.1416C3.88939 2.39329 4.83792 2.06096 6.01022 1.90332C6.08843 1.89281 6.16826 1.88412 6.24948 1.875V7.75Z" fill="currentColor"/><path d="M12.5493 1.75C13.5614 1.74999 14.4579 1.75088 15.2495 1.77637V7.75H7.74948V1.77637C8.54102 1.75088 9.43752 1.74999 10.4497 1.75H12.5493Z" fill="currentColor"/><path d="M16.9887 1.90332C18.161 2.06096 19.1096 2.39329 19.8579 3.1416C20.6062 3.88991 20.9385 4.83844 21.0962 6.01074C21.1652 6.52418 21.2022 7.10196 21.2231 7.75H16.7495V1.875C16.8307 1.88412 16.9105 1.89281 16.9887 1.90332Z" fill="currentColor"/></svg>
