<svg xmlns="http://www.w3.org/2000/svg" viewBox="0 0 24 24" fill="none"><path d="M19.8 12C19.8 7.69218 16.3078 4.2 12 4.2C7.69218 4.2 4.2 7.69218 4.2 12C4.2 16.3078 7.69218 19.8 12 19.8C16.3078 19.8 19.8 16.3078 19.8 12ZM21.75 12C21.75 17.3848 17.3848 21.75 12 21.75C6.61522 21.75 2.25 17.3848 2.25 12C2.25 6.61522 6.61522 2.25 12 2.25C17.3848 2.25 21.75 6.61522 21.75 12Z" fill="currentColor"/><path opacity="0.4" d="M8.99712 2.7571C9.66451 2.70359 10.3441 2.75303 11.0059 2.91042C12.4983 3.26544 13.803 4.14571 14.6094 5.39186C15.4191 6.64351 15.6494 8.14986 15.2315 9.56862C14.9913 10.3839 14.5509 11.1186 13.9639 11.7307C14.4057 11.8017 14.846 11.7882 15.2618 11.6878C16.1334 11.4771 16.8634 10.9015 17.2901 10.0676C17.7195 9.2282 17.8116 8.18048 17.5049 7.15261C17.3696 6.69922 17.1625 6.2698 16.8965 5.88405C16.5912 5.44077 16.7033 4.83417 17.1465 4.52858C17.5898 4.22313 18.1964 4.33442 18.502 4.77761C18.8821 5.32881 19.1785 5.94217 19.3731 6.59401C19.8119 8.06416 19.7026 9.63471 19.0264 10.9563C18.3473 12.2835 17.1575 13.2358 15.7198 13.5833C14.8937 13.7828 14.0373 13.7699 13.2139 13.5676C13.3731 13.9852 13.6059 14.3588 13.9004 14.6682C14.5188 15.3178 15.3828 15.662 16.3184 15.6145C17.2601 15.5666 18.2135 15.1226 18.9502 14.343C19.2752 13.9991 19.5431 13.6051 19.7442 13.1819C19.9753 12.6957 20.5567 12.489 21.043 12.72C21.5292 12.9511 21.7367 13.5325 21.5059 14.0188C21.2185 14.6237 20.8346 15.1873 20.3672 15.6819C19.3135 16.7969 17.8986 17.4866 16.4161 17.5618C14.9274 17.6371 13.508 17.0841 12.4883 16.013C11.9026 15.3975 11.4858 14.6493 11.2491 13.8352C10.9676 14.1818 10.7613 14.5703 10.6407 14.9798C10.3876 15.8397 10.5208 16.7589 11.0294 17.5452C11.5417 18.3369 12.4036 18.9405 13.4473 19.1887C13.9068 19.298 14.3805 19.3333 14.8467 19.2962C15.3835 19.2533 15.8536 19.654 15.8965 20.1907C15.9393 20.7272 15.5394 21.1964 15.003 21.2395C14.3363 21.2928 13.6572 21.2434 12.9961 21.0862C11.5035 20.7312 10.1981 19.8502 9.39165 18.6038C8.5822 17.3522 8.35271 15.8466 8.77056 14.428C9.01041 13.6139 9.4486 12.8794 10.0342 12.2678C9.59321 12.1972 9.15334 12.2115 8.73833 12.3118C7.86684 12.5225 7.13664 13.0982 6.71001 13.9319C6.28061 14.7714 6.18937 15.82 6.49615 16.8479C6.6313 17.3005 6.83821 17.7283 7.10357 18.1135C7.40899 18.5569 7.29671 19.1644 6.85357 19.47C6.41017 19.7752 5.80255 19.6633 5.49712 19.22C5.11781 18.6693 4.82136 18.0565 4.62701 17.4055C4.18834 15.9356 4.29871 14.3656 4.97466 13.0442C5.65369 11.7171 6.84274 10.7638 8.28033 10.4163C9.10559 10.2168 9.96144 10.23 10.7842 10.4319C10.625 10.0146 10.3931 9.64071 10.0987 9.33132C9.48046 8.68189 8.61705 8.3377 7.68169 8.38503C6.74 8.43289 5.78669 8.87693 5.04986 9.65651C4.72536 9.9999 4.45787 10.3932 4.25689 10.8157C4.02558 11.3017 3.44324 11.5086 2.95708 11.2776C2.47083 11.0464 2.26398 10.4641 2.49517 9.9778C2.78239 9.37394 3.16528 8.81148 3.63189 8.31765C4.68562 7.20256 6.10047 6.51203 7.58306 6.43679C9.0719 6.36138 10.4911 6.91622 11.5108 7.98757C12.0961 8.60267 12.5123 9.35 12.7491 10.1633C13.0318 9.81603 13.2404 9.42749 13.3614 9.01686C13.6145 8.1568 13.4804 7.23773 12.9717 6.45143C12.4594 5.6598 11.5984 5.05618 10.5547 4.80788C10.0947 4.69847 9.6202 4.66307 9.15337 4.70046C8.61662 4.74351 8.14565 4.34268 8.10259 3.80593C8.05977 3.26938 8.46057 2.80021 8.99712 2.7571Z" fill="currentColor"/></svg>
