<svg xmlns="http://www.w3.org/2000/svg" viewBox="0 0 24 24" fill="none"><path d="M11.9995 2.25C17.3843 2.25 21.7495 6.61522 21.7495 12C21.7495 17.3848 17.3843 21.75 11.9995 21.75C6.61474 21.75 2.24951 17.3848 2.24951 12C2.24951 6.61522 6.61474 2.25 11.9995 2.25ZM10.0337 12.2686C9.59268 12.1979 9.15279 12.2122 8.73779 12.3125C7.86635 12.5233 7.13706 13.0989 6.71045 13.9326C6.28094 14.7722 6.18873 15.8206 6.49561 16.8486C6.62068 17.2675 6.80993 17.6632 7.04736 18.0254C7.95355 18.771 9.03078 19.3148 10.2114 19.5918C9.90154 19.2959 9.62484 18.9657 9.39111 18.6045C8.58166 17.353 8.35217 15.8473 8.77002 14.4287C9.00986 13.6146 9.44807 12.8802 10.0337 12.2686ZM11.2485 13.835C10.9668 14.1817 10.7608 14.5708 10.6401 14.9805C10.387 15.8404 10.5202 16.7597 11.0288 17.5459C11.5412 18.3376 12.403 18.9412 13.4468 19.1895C13.8737 19.291 14.3125 19.3257 14.7466 19.3008C15.8691 18.8782 16.8668 18.2035 17.6743 17.3467C17.2649 17.466 16.8432 17.5408 16.4155 17.5625C14.9269 17.6378 13.5074 17.0848 12.4878 16.0137C11.9018 15.398 11.4852 14.6494 11.2485 13.835ZM19.4692 9.75391C19.3681 10.1699 19.2217 10.5743 19.0259 10.957C18.3468 12.2841 17.1569 13.2366 15.7192 13.584C14.8931 13.7835 14.0368 13.7697 13.2134 13.5674C13.3726 13.9853 13.6052 14.3593 13.8999 14.6689C14.5182 15.3185 15.3823 15.6627 16.3179 15.6152C17.2595 15.5673 18.2129 15.1233 18.9497 14.3438C19.2497 14.0263 19.4978 13.6646 19.6929 13.2783C19.7615 12.8623 19.7993 12.4355 19.7993 12C19.7993 11.219 19.6829 10.4653 19.4692 9.75391ZM7.68115 8.38574C6.73945 8.4336 5.78614 8.87764 5.04932 9.65723C4.74926 9.97477 4.50023 10.3361 4.30518 10.7227C4.23668 11.1384 4.19971 11.5649 4.19971 12C4.19971 12.7813 4.31599 13.5354 4.52979 14.2471C4.63104 13.8313 4.7784 13.4276 4.97412 13.0449C5.65312 11.7178 6.84223 10.7646 8.27979 10.417C9.10504 10.2176 9.9609 10.2308 10.7837 10.4326C10.6244 10.0153 10.3925 9.64143 10.0981 9.33203C9.47991 8.6826 8.61653 8.33839 7.68115 8.38574ZM13.7915 4.4082C14.1004 4.70347 14.3758 5.03237 14.6089 5.39258C15.4186 6.64422 15.6489 8.15057 15.231 9.56934C14.9907 10.3847 14.5504 11.1193 13.9634 11.7314C14.4051 11.8024 14.8454 11.7879 15.2612 11.6875C16.1329 11.4768 16.8628 10.9022 17.2896 10.0684C17.719 9.22894 17.811 8.18122 17.5044 7.15332C17.3793 6.7342 17.1902 6.33717 16.9526 5.97461C16.0473 5.2295 14.9709 4.68554 13.7915 4.4082ZM9.2583 4.69531C8.13271 5.11791 7.13202 5.79442 6.32275 6.65332C6.73245 6.53365 7.15448 6.45923 7.58252 6.4375C9.07121 6.3621 10.4906 6.91616 11.5103 7.9873C12.0956 8.6023 12.5127 9.34988 12.7495 10.1631C13.0318 9.81602 13.24 9.42781 13.3608 9.01758C13.614 8.1575 13.4799 7.23846 12.9712 6.45215C12.4589 5.66049 11.5978 5.05689 10.5542 4.80859C10.1287 4.7074 9.69098 4.67088 9.2583 4.69531Z" fill="currentColor"/></svg>
