<svg xmlns="http://www.w3.org/2000/svg" viewBox="0 0 24 24" fill="none"><path d="M10 18C10.5523 18 11 18.4477 11 19C11 19.5523 10.5523 20 10 20C9.44772 20 9 19.5523 9 19C9 18.4477 9.44771 18 10 18Z" fill="currentColor"/><path d="M18.041 6.25C18.4785 6.24998 18.8445 6.24997 19.1455 6.27051C19.4626 6.29215 19.7624 6.33872 20.0527 6.45899C20.7264 6.73809 21.2619 7.27359 21.541 7.94727C21.6613 8.23762 21.7079 8.53744 21.7295 8.85449C21.75 9.1555 21.75 9.5215 21.75 9.95899V10.041C21.75 10.4785 21.75 10.8445 21.7295 11.1455C21.7079 11.4626 21.6613 11.7624 21.541 12.0527C21.2619 12.7264 20.7264 13.2619 20.0527 13.541C19.7624 13.6613 19.4626 13.7079 19.1455 13.7295C18.8445 13.75 18.4785 13.75 18.041 13.75L13.2266 13.75L10.416 15.624C10.186 15.7774 9.89031 15.7915 9.64649 15.6611C9.40262 15.5306 9.25 15.2766 9.25 15V13.7422C9.10744 13.7392 8.97561 13.7378 8.85449 13.7295C8.53744 13.7079 8.23762 13.6613 7.94727 13.541C7.27359 13.2619 6.73809 12.7264 6.45899 12.0527C6.33872 11.7624 6.29215 11.4626 6.27051 11.1455C6.24997 10.8445 6.24998 10.4785 6.25 10.041V9.95899C6.24998 9.5215 6.24997 9.1555 6.27051 8.85449C6.29215 8.53744 6.33872 8.23762 6.45899 7.94727C6.73809 7.27359 7.27359 6.73809 7.94727 6.45899C8.23762 6.33872 8.53744 6.29215 8.85449 6.27051C9.1555 6.24997 9.5215 6.24998 9.95899 6.25L18.041 6.25ZM10.5 9C9.94771 9 9.5 9.44772 9.5 10C9.5 10.5523 9.94772 11 10.5 11C11.0523 11 11.5 10.5523 11.5 10C11.5 9.44772 11.0523 9 10.5 9ZM14 9C13.4477 9 13 9.44772 13 10C13 10.5523 13.4477 11 14 11C14.5523 11 15 10.5523 15 10C15 9.44772 14.5523 9 14 9ZM17.5 9C16.9477 9 16.5 9.44772 16.5 10C16.5 10.5523 16.9477 11 17.5 11C18.0523 11 18.5 10.5523 18.5 10C18.5 9.44772 18.0523 9 17.5 9Z" fill="currentColor" fill-rule="evenodd" clip-rule="evenodd"/><path opacity="0.4" d="M10.0576 1.25C11.6592 1.24998 12.9378 1.24996 13.9404 1.38477C14.9767 1.52409 15.8298 1.81999 16.5049 2.49512C17.4063 3.39652 17.6425 4.63452 17.7148 6.25H9.95898C9.5215 6.24998 9.1555 6.24997 8.85449 6.27051C8.53744 6.29215 8.23762 6.33872 7.94727 6.45898C7.27359 6.73809 6.73809 7.27359 6.45898 7.94727C6.33872 8.23762 6.29215 8.53744 6.27051 8.85449C6.24997 9.1555 6.24998 9.5215 6.25 9.95899V10.041C6.24998 10.4785 6.24997 10.8445 6.27051 11.1455C6.29215 11.4626 6.33872 11.7624 6.45898 12.0527C6.73809 12.7264 7.27359 13.2619 7.94727 13.541C8.23762 13.6613 8.53744 13.7079 8.85449 13.7295C8.97561 13.7378 9.10744 13.7392 9.25 13.7422V15C9.25 15.2766 9.40262 15.5306 9.64648 15.6611C9.89031 15.7915 10.186 15.7774 10.416 15.624L13.2266 13.75H17.7432L17.75 14.9951V15.0576C17.75 16.6592 17.75 17.9378 17.6152 18.9404C17.4759 19.9767 17.18 20.8298 16.5049 21.5049C15.8298 22.18 14.9767 22.4759 13.9404 22.6152C12.9378 22.75 11.6592 22.75 10.0576 22.75H9.94238C8.34079 22.75 7.06221 22.75 6.05957 22.6152C5.02332 22.4759 4.17025 22.18 3.49512 21.5049C2.81999 20.8298 2.52409 19.9767 2.38477 18.9404C2.24996 17.9378 2.24998 16.6592 2.25 15.0576V8.94238C2.24998 7.34078 2.24996 6.06221 2.38477 5.05957C2.52409 4.02332 2.81999 3.17025 3.49512 2.49512C4.17025 1.81999 5.02332 1.52409 6.05957 1.38477C7.06221 1.24996 8.34078 1.24998 9.94238 1.25H10.0576Z" fill="currentColor"/></svg>
