<svg xmlns="http://www.w3.org/2000/svg" viewBox="0 0 24 24" fill="none"><path d="M10.0576 1.25C11.6592 1.24998 12.9378 1.24996 13.9404 1.38477C14.9767 1.52409 15.8298 1.81999 16.5049 2.49512C17.4064 3.39661 17.6426 4.63431 17.7148 6.25H18.041C18.4785 6.24998 18.8445 6.24997 19.1455 6.27051C19.4626 6.29215 19.7624 6.33872 20.0527 6.45898C20.7264 6.73809 21.2619 7.27358 21.541 7.94727C21.6613 8.23762 21.7079 8.53744 21.7295 8.85449C21.75 9.1555 21.75 9.5215 21.75 9.95898V10.041C21.75 10.4785 21.75 10.8445 21.7295 11.1455C21.7079 11.4626 21.6613 11.7624 21.541 12.0527C21.2619 12.7264 20.7264 13.2619 20.0527 13.541C19.7624 13.6613 19.4626 13.7079 19.1455 13.7295C18.8445 13.75 18.4785 13.75 18.041 13.75H17.7432L17.75 14.9951V15.0576C17.75 16.6592 17.75 17.9378 17.6152 18.9404C17.4759 19.9767 17.18 20.8298 16.5049 21.5049C15.8298 22.18 14.9767 22.4759 13.9404 22.6152C12.9378 22.75 11.6592 22.75 10.0576 22.75H9.94238C8.34079 22.75 7.06221 22.75 6.05957 22.6152C5.02332 22.4759 4.17025 22.18 3.49512 21.5049C2.81999 20.8298 2.52409 19.9767 2.38477 18.9404C2.24996 17.9378 2.24998 16.6592 2.25 15.0576L2.25 8.94238C2.24998 7.34078 2.24996 6.06221 2.38477 5.05957C2.52409 4.02332 2.81998 3.17025 3.49512 2.49512C4.17025 1.81998 5.02332 1.52409 6.05957 1.38477C7.06221 1.24996 8.34078 1.24998 9.94238 1.25L10.0576 1.25ZM10 18C9.44771 18 9 18.4477 9 19C9 19.5523 9.44772 20 10 20C10.5523 20 11 19.5523 11 19C11 18.4477 10.5523 18 10 18ZM10 7.75C9.52397 7.75 9.20446 7.75071 8.95703 7.76758C8.71632 7.784 8.59864 7.81277 8.52148 7.84473C8.2152 7.97159 7.97159 8.2152 7.84473 8.52148C7.81277 8.59864 7.784 8.71632 7.76758 8.95703C7.75071 9.20446 7.75 9.52397 7.75 10C7.75 10.476 7.75071 10.7955 7.76758 11.043C7.784 11.2837 7.81277 11.4014 7.84473 11.4785C7.97159 11.7848 8.2152 12.0284 8.52148 12.1553C8.59864 12.1872 8.71632 12.216 8.95703 12.2324C9.20446 12.2493 9.52397 12.25 10 12.25C10.4142 12.25 10.75 12.5858 10.75 13V14.1895L12.4697 12.4697L12.584 12.376C12.7063 12.2944 12.8508 12.25 13 12.25L18 12.25C18.476 12.25 18.7955 12.2493 19.043 12.2324C19.2837 12.216 19.4014 12.1872 19.4785 12.1553C19.7848 12.0284 20.0284 11.7848 20.1553 11.4785C20.1872 11.4014 20.216 11.2837 20.2324 11.043C20.2493 10.7955 20.25 10.476 20.25 10C20.25 9.52397 20.2493 9.20446 20.2324 8.95703C20.216 8.71632 20.1872 8.59864 20.1553 8.52148C20.0284 8.2152 19.7848 7.97159 19.4785 7.84473C19.4014 7.81277 19.2837 7.784 19.043 7.76758C18.7955 7.75071 18.476 7.75 18 7.75L10 7.75ZM10.5 9C11.0523 9 11.5 9.44772 11.5 10C11.5 10.5523 11.0523 11 10.5 11C9.94772 11 9.5 10.5523 9.5 10C9.5 9.44772 9.94771 9 10.5 9ZM14 9C14.5523 9 15 9.44772 15 10C15 10.5523 14.5523 11 14 11C13.4477 11 13 10.5523 13 10C13 9.44772 13.4477 9 14 9ZM17.5 9C18.0523 9 18.5 9.44772 18.5 10C18.5 10.5523 18.0523 11 17.5 11C16.9477 11 16.5 10.5523 16.5 10C16.5 9.44772 16.9477 9 17.5 9Z" fill="currentColor"/></svg>
