<svg xmlns="http://www.w3.org/2000/svg" fill="none" viewBox="0 0 48 48">
  <g>
    <path fill="currentColor" fill-opacity="0.4" d="M18.75 1.25c-10.82843 0 -17.5 7.67157 -17.5 16.5 0 4.0247 1.62145 7.7584 2.82668 9.9944 0.71772 1.3316 1.16626 2.7528 1.22594 4.1707 0.17818 4.2333 0.83299 7.7952 2.45419 10.3256C9.47207 44.9178 12.1386 46.25 15.75 46.25c3.1584 0 5.9624 -1.0031 8.0267 -3.1301 2.0499 -2.112 3.2117 -5.1682 3.4338 -8.9817 0.0157 -0.2704 0.1815 -0.5629 0.4653 -0.7386C30.3017 31.7739 36.25 27.0517 36.25 17.75c0 -8.82843 -6.6716 -16.5 -17.5 -16.5Z" stroke-width="1"></path>
    <path fill="currentColor" fill-rule="evenodd" d="M30.75 42.75c6.6274 0 12 -5.3726 12 -12 0 -1.1046 0.8954 -2 2 -2s2 0.8954 2 2c0 8.8366 -7.1634 16 -16 16 -1.1046 0 -2 -0.8954 -2 -2s0.8954 -2 2 -2Zm0 -7c2.7614 0 5 -2.2386 5 -5 0 -1.1046 0.8954 -2 2 -2s2 0.8954 2 2c0 4.9706 -4.0294 9 -9 9 -1.1046 0 -2 -0.8954 -2 -2s0.8954 -2 2 -2Z" clip-rule="evenodd" stroke-width="1"></path>
    <path fill="currentColor" fill-rule="evenodd" d="M18.75 7.25c-3.345 0 -6.133 1.24139 -8.0739 3.3683C8.74958 12.7294 7.75 15.6088 7.75 18.75c0 3.0676 1.32373 5.4974 2.5642 7.3593 0.311 0.4669 0.6241 0.9083 0.9115 1.3125l0.0336 0.0473c0.2788 0.3919 0.5283 0.7429 0.75 1.0759 0.4844 0.7272 0.7075 1.1873 0.7698 1.4992 0.1774 0.8869 0.0049 1.7138 -0.2416 2.3548 -0.1217 0.3165 -0.2553 0.5708 -0.355 0.7409 -0.0495 0.0844 -0.0895 0.1462 -0.1139 0.1825 -0.0122 0.0181 -0.0204 0.0298 -0.0238 0.0345l-0.001 0.0014c-0.4897 0.6622 -0.3538 1.5967 0.3062 2.0917 0.6627 0.4971 1.6029 0.3627 2.1 -0.3l0.003 -0.004 0.0035 -0.0047 0.0086 -0.0117 0.0235 -0.0327c0.0184 -0.0257 0.0419 -0.0595 0.0698 -0.101 0.0556 -0.0828 0.1289 -0.1967 0.2122 -0.3389 0.1659 -0.283 0.3761 -0.685 0.5669 -1.181 0.3785 -0.984 0.706 -2.4071 0.3834 -4.0202 -0.1877 -0.9381 -0.7146 -1.823 -1.2146 -2.5738 -0.2481 -0.3725 -0.522 -0.7577 -0.7918 -1.137l-0.0438 -0.0616c-0.2887 -0.4061 -0.5772 -0.8131 -0.8599 -1.2374 -1.1345 -1.703 -2.0608 -3.5232 -2.0608 -5.696 0 -2.5137 0.7959 -4.6343 2.1421 -6.1095 1.3318 -1.4593 3.2938 -2.3905 5.8579 -2.3905 2.5501 0 4.5142 0.9542 5.8533 2.4353 1.3546 1.4981 2.1467 3.6241 2.1467 6.0647 0 0.8284 0.6716 1.5 1.5 1.5s1.5 -0.6716 1.5 -1.5c0 -3.0814 -1.0033 -5.9554 -2.9215 -8.0768C24.8949 8.53475 22.109 7.25 18.75 7.25Z" clip-rule="evenodd" stroke-width="1"></path>
  </g>
</svg>
