<svg xmlns="http://www.w3.org/2000/svg" fill="none" viewBox="0 0 48 48">
  <g>
    <path fill="currentColor" fill-rule="evenodd" d="M19.119 1.5C8.2525 1.5 1.5 9.2289 1.5 18.1431c0 4.0599 1.63103 7.7983 2.82349 10.0107 0.67047 1.244 1.07891 2.5526 1.13309 3.8399 0.17483 4.1537 0.81739 7.7514 2.4799 10.3463 1.78793 2.7906 4.57562 4.1606 8.25392 4.1606 3.1995 0 6.0856 -1.0191 8.22 -3.2182 2.115 -2.1793 3.2805 -5.299 3.5024 -9.11 0.0046 -0.0787 0.063 -0.211 0.2013 -0.2966 2.637 -1.6326 8.6238 -6.3857 8.6238 -15.7327C36.7379 9.2289 29.9854 1.5 19.119 1.5ZM5.5 18.1431C5.5 11.438 10.4617 5.5 19.119 5.5c8.6572 0 13.6189 5.938 13.6189 12.6431 0 7.356 -4.6416 11.0392 -6.7293 12.3317 -1.1737 0.7266 -2.0039 2.0033 -2.0891 3.4651 -0.1835 3.152 -1.1157 5.2545 -2.3795 6.5567 -1.2446 1.2823 -3.0186 2.004 -5.3496 2.004 -2.537 0 -3.9456 -0.8509 -4.8859 -2.3185 -1.0657 -1.6634 -1.68329 -4.3613 -1.85146 -8.3567 -0.08463 -2.0108 -0.71273 -3.9075 -1.60843 -5.5694C6.7711 24.2643 5.5 21.2243 5.5 18.1431ZM30.8334 42.5C37.2767 42.5 42.5 37.2766 42.5 30.8331c0 -1.1045 0.8954 -2 2 -2s2 0.8955 2 2C46.5 39.4857 39.4859 46.5 30.8334 46.5c-1.1046 0 -2 -0.8954 -2 -2s0.8954 -2 2 -2ZM35.75 31.2255c0 2.4989 -2.0256 4.5245 -4.5243 4.5245 -1.1046 0 -2 0.8954 -2 2s0.8954 2 2 2c4.7079 0 8.5243 -3.8166 8.5243 -8.5245 0 -1.1045 -0.8954 -2 -2 -2s-2 0.8955 -2 2ZM19.119 8.86328c-3.0565 0 -5.6457 1.13922 -7.4564 3.12342 -1.79141 1.9631 -2.69776 4.6149 -2.69776 7.4601 0 2.8456 1.23056 5.076 2.32046 6.7119 0.2738 0.4109 0.5483 0.7979 0.7947 1.1445l0.0257 0.0361 0.0001 0.0001c0.242 0.3404 0.4503 0.6333 0.6345 0.9099 0.412 0.6186 0.5313 0.9127 0.5551 1.0316 0.1177 0.5889 0.0065 1.157 -0.1738 1.6259 -0.0881 0.229 -0.1845 0.4122 -0.2543 0.5313 -0.0345 0.0588 -0.061 0.0994 -0.0745 0.1196l-0.0079 0.0116c-0.647 0.8826 -0.4644 2.1238 0.4133 2.782 0.8837 0.6628 2.1373 0.4837 2.8 -0.4l-1.5811 -1.1858c1.5811 1.1858 1.5816 1.1852 1.582 1.1846L16 33.9488l0.002 -0.0026 0.0043 -0.0058 0.01 -0.0136c0.0073 -0.01 0.0158 -0.0217 0.0255 -0.0353 0.0193 -0.0271 0.0432 -0.0614 0.0708 -0.1025 0.0552 -0.0821 0.1259 -0.1923 0.2055 -0.328 0.1581 -0.2698 0.3567 -0.6499 0.5369 -1.1183 0.3561 -0.926 0.6741 -2.2892 0.3627 -3.8462 -0.1908 -0.954 -0.7153 -1.8144 -1.1482 -2.4644 -0.2192 -0.3292 -0.4602 -0.6681 -0.69 -0.9912l-0.0395 -0.0556c-0.2481 -0.349 -0.4899 -0.6903 -0.7258 -1.0443 -0.9487 -1.424 -1.6494 -2.8417 -1.6494 -4.4942 0 -2.0087 0.6348 -3.6486 1.6525 -4.7638 0.9984 -1.0941 2.4863 -1.8197 4.5017 -1.8197 1.9967 0 3.4874 0.7405 4.4956 1.8557 1.0289 1.1379 1.6586 2.7851 1.6586 4.7278 0 1.1046 0.8955 2 2 2 1.1046 0 2 -0.8954 2 -2 0 -2.7971 -0.9113 -5.4416 -2.6916 -7.4105 -1.8008 -1.9917 -4.3872 -3.17302 -7.4626 -3.17302Z" clip-rule="evenodd" stroke-width="3.429"></path>
  </g>
</svg>
