<svg xmlns="http://www.w3.org/2000/svg" viewBox="0 0 24 24" fill="none"><path opacity="0.4" d="M20.208 18.3906C21.9907 16.5854 22.75 14.1251 22.75 11.5C22.75 8.94321 22.2742 6.46411 20.6045 4.63086C18.9234 2.7851 16.1777 1.75 12 1.75C7.94704 1.75 5.21037 2.78928 3.50098 4.625C1.8005 6.45115 1.25 8.92427 1.25 11.5C1.25 13.6434 1.63081 15.7122 2.7373 17.4004C3.81966 19.117 3.1813 20.4741 2.58203 20.877C2.30807 21.061 2.18605 21.4031 2.28223 21.7188C2.37843 22.0344 2.67 22.25 3 22.25C4.78902 22.25 6.02979 21.6762 6.83789 21.0801C7.18966 20.8207 7.58951 20.7285 7.91992 20.8096C9.09789 21.0985 10.4515 21.25 12 21.25C15.7071 21.25 18.4216 20.1995 20.208 18.3906Z" fill="currentColor"/><path d="M12 14.75C12.5523 14.75 13 15.1977 13 15.75C13 16.3023 12.5523 16.75 12 16.75C11.4477 16.75 11 16.3023 11 15.75C11 15.1977 11.4477 14.75 12 14.75Z" fill="currentColor"/><path d="M11 12.5C11 11.7672 11.3371 11.1833 11.6699 10.7627C11.9945 10.3524 12.4097 9.98484 12.6816 9.73145C12.8788 9.54759 13 9.28878 13 9C13 8.44772 12.5523 8 12 8C11.4823 8 11.0562 8.39333 11.0049 8.89746L10.9951 9.10254C10.9438 9.60667 10.5177 10 10 10C9.44772 10 9 9.55228 9 9C9 7.34315 10.3431 6 12 6C13.6569 6 15 7.34315 15 9C15 9.86662 14.6312 10.649 14.0449 11.1953C13.7109 11.5066 13.4437 11.7433 13.2383 12.0029C13.041 12.2522 13 12.4046 13 12.5C13 13.0523 12.5523 13.5 12 13.5C11.4477 13.5 11 13.0523 11 12.5Z" fill="currentColor"/></svg>
