<svg xmlns="http://www.w3.org/2000/svg" viewBox="0 0 24 24" fill="none"><path d="M13.5 5.25C15.7053 5.25 17.5 7.02921 17.5 9.23242C17.5 10.5003 16.9753 11.4905 16.0244 12.3203C15.4838 12.792 14.5142 13.8286 14.125 14.415C13.9837 14.6278 13.7437 14.754 13.4883 14.75C13.2328 14.746 12.9968 14.6118 12.8623 14.3945C12.5049 13.8174 11.5297 12.8038 10.9756 12.3203C10.0247 11.4905 9.50004 10.5003 9.5 9.23242C9.5 7.02921 11.2947 5.25 13.5 5.25ZM13.5 7.75C12.6716 7.75 12 8.42158 12 9.25C12 10.0784 12.6716 10.75 13.5 10.75C14.3284 10.75 15 10.0784 15 9.25C15 8.42157 14.3284 7.75 13.5 7.75Z" fill="currentColor"/><path d="M12 1.25C17.9371 1.25 22.75 6.06294 22.75 12C22.75 17.9371 17.9371 22.75 12 22.75C9.39131 22.75 7.00038 21.8199 5.13867 20.2744L10.4668 14.9473L15.5596 20.04C18.6427 18.6731 20.7947 15.5888 20.7949 11.999C20.7949 7.14143 16.8566 3.20312 11.999 3.20312C8.40947 3.20331 5.3241 5.35462 3.95703 8.4375L9.05273 13.5332L3.72461 18.8604C2.17965 16.9988 1.25 14.6082 1.25 12C1.25 6.06294 6.06294 1.25 12 1.25Z" fill="currentColor"/></svg>
