<svg xmlns="http://www.w3.org/2000/svg" viewBox="0 0 24 24" fill="none"><path opacity="0.4" d="M12 1.25C17.9371 1.25 22.75 6.06294 22.75 12C22.75 17.9371 17.9371 22.75 12 22.75C6.06294 22.75 1.25 17.9371 1.25 12C1.25 6.06294 6.06294 1.25 12 1.25Z" fill="currentColor"/><path d="M12 15.75C12.6904 15.75 13.25 16.3096 13.25 17C13.25 17.6904 12.6904 18.25 12 18.25C11.3096 18.25 10.75 17.6904 10.75 17C10.75 16.3096 11.3096 15.75 12 15.75ZM12 10.75C12.6904 10.75 13.25 11.3096 13.25 12C13.25 12.6904 12.6904 13.25 12 13.25C11.3096 13.25 10.75 12.6904 10.75 12C10.75 11.3096 11.3096 10.75 12 10.75ZM12 5.75C12.6904 5.75 13.25 6.30964 13.25 7C13.25 7.69035 12.6904 8.25 12 8.25C11.3528 8.25 10.8209 7.75817 10.7568 7.12793L10.75 7L10.7568 6.87207C10.8209 6.24183 11.3528 5.75 12 5.75Z" fill="currentColor"/></svg>
