<svg xmlns="http://www.w3.org/2000/svg" viewBox="0 0 24 24" fill="none"><g transform="scale(0.5)"><g> <g> <path fill="currentColor" fill-rule="evenodd" d="M36.4888 7.15202c-1.6003 -1.07521 -3.5931 -1.07504 -5.1933 0.00021 -3.6311 2.44002 -6.6854 5.77957 -9.432 8.97837 -0.8012 0.9332 -1.1342 2.1829 -0.5297 3.3085 0.462 0.8601 1.3537 1.4184 2.4868 1.6839 0.0129 3.0428 0.0733 6.0872 0.1687 9.1252 0.0171 0.5428 0.4642 0.9728 1.0073 0.9686l17.8097 -0.1375c0.5372 -0.0042 0.9752 -0.4321 0.9918 -0.9691 0.0924 -2.9907 0.1557 -5.9896 0.1659 -8.9877 1.1325 -0.2659 2.0236 -0.8244 2.4854 -1.6843 0.6043 -1.1256 0.2716 -2.3752 -0.5297 -3.3084 -2.7463 -3.1983 -5.7999 -6.5381 -9.4309 -8.97778Z" clip-rule="evenodd"></path> <path fill="currentColor" fill-rule="evenodd" d="M32.3418 19.1287c0.4233 -0.0486 0.9331 -0.0799 1.5447 -0.0799 0.6116 0 1.1215 0.0313 1.5448 0.0799 1.4311 0.1645 2.1744 1.3827 2.2191 2.6643 0.0253 0.7215 0.0445 1.7106 0.0445 3.0493 0 0.7417 -0.0059 1.2745 -0.0154 1.7243 -2.537 -0.1354 -5.0789 -0.1115 -7.5853 0.0624 -0.0099 -0.4714 -0.0161 -1.0286 -0.0161 -1.7867 0 -1.3387 0.0193 -2.3278 0.0445 -3.0493 0.0448 -1.2816 0.7881 -2.4998 2.2192 -2.6643Z" clip-rule="evenodd" opacity="0.4"></path> </g> <path fill="currentColor" fill-rule="evenodd" d="M11.4132 2.13505c-1.104 -0.964 -2.71158 -0.96389 -3.81555 0.00013C6.19951 3.35607 3.63579 5.96856 0.987786 10.5515 0.224278 11.8729 0.731666 13.6181 2.159 14.2146c-0.45476 0.8145 -0.91719 1.6965 -1.381464 2.6497 -0.7576677 1.5556 0.173367 3.4427 1.917744 3.6748 1.48073 0.197 3.01152 0.3275 4.55863 0.3917l0 4.1376c0 1.3807 1.11928 2.5 2.5 2.5 1.38069 0 2.49999 -1.1193 2.49999 -2.5v-4.1605c1.3778 -0.07 2.7398 -0.193 4.0618 -0.3688 1.7443 -0.2321 2.6754 -2.1192 1.9177 -3.6748 -0.4642 -0.9532 -0.9266 -1.8353 -1.3814 -2.6497 1.4273 -0.5965 1.9346 -2.3416 1.1712 -3.663 -2.648 -4.58334 -5.2117 -7.19572 -6.61 -8.41655Z" clip-rule="evenodd"></path> <path fill="currentColor" fill-rule="evenodd" d="M4.34613 23.4301c5.15917 -0.4189 12.31157 0.5355 18.10697 6.2315 0.8503 0.8357 1.2576 1.9652 1.2576 3.0732v6.2649c0 2.4853 -2.0147 4.5 -4.5 4.5H0.498047V27.746c0 -2.1269 1.532943 -4.1279 3.848083 -4.3159Z" clip-rule="evenodd"></path> <path fill="currentColor" fill-rule="evenodd" d="M43.8349 29.7184c-7.9679 -1.2752 -16.3202 -0.8592 -23.7488 0.9503 -7.4094 1.8048 -14.0243 5.0276 -18.40314 9.4764C0.881338 40.9596 0.5 42.0406 0.5 43.1022 0.5 45.5311 2.46894 47.5 4.89775 47.5H43c2.4853 0 4.5 -2.0147 4.5 -4.5v-8.9176c0 -2.117 -1.4917 -4.0161 -3.6651 -4.364Z" clip-rule="evenodd" opacity="0.4"></path> </g></g></svg>
