<svg xmlns="http://www.w3.org/2000/svg" viewBox="0 0 24 24" fill="none"><g transform="scale(0.5)"><g> <path stroke="currentColor" stroke-linejoin="round" d="M42.7957 31.0793c0.0606 -1.9613 0.1305 -6.0929 0.167 -9.1087 0.0028 -0.238 -0.0154 -0.4712 -0.053 -0.6978 2.7832 -0.2647 3.4788 -2.0587 2.2485 -3.4915 -0.9199 -1.0714 -2.1615 -2.4371 -3.8166 -4.1239 -2.3694 -2.4149 -4.1739 -3.84254 -5.4134 -4.67534 -1.2629 -0.84856 -2.8149 -0.84845 -4.0777 0.00018 -1.2394 0.83282 -3.0439 2.26046 -5.4135 4.67516 -1.6558 1.6872 -2.8977 3.0532 -3.8176 4.1246 -1.2305 1.4331 -0.5343 3.2271 2.2497 3.4909 -0.0375 0.2266 -0.0557 0.4598 -0.0528 0.6977 0.0371 3.0174 0.1081 7.2847 0.1697 9.2462" stroke-width="4"></path> <path stroke="currentColor" stroke-linejoin="round" d="M3.06581 12.9134c-0.81281 -0.0865 -1.18825 -0.9037 -0.77931 -1.6115 2.56015 -4.43086 5.01543 -6.91715 6.2977 -8.03687 0.53884 -0.47053 1.30354 -0.47057 1.8424 -0.00007 1.2823 1.11962 3.7376 3.60576 6.2977 8.03704 0.4089 0.7077 0.0335 1.5249 -0.7793 1.6114 -0.4061 0.0432 -0.9094 0.0865 -1.5287 0.1246 0.7884 1.2627 1.624 2.7491 2.4685 4.4831 0.332 0.6816 -0.0155 1.4311 -0.767 1.5311 -0.8184 0.1088 -2.0798 0.222 -3.9738 0.2783H6.86673c-1.89398 -0.0563 -3.15537 -0.1695 -3.97373 -0.2783 -0.75155 -0.1 -1.09897 -0.8495 -0.76699 -1.5311 0.84455 -1.734 1.68015 -3.2204 2.46862 -4.4831 -0.6193 -0.0381 -1.12268 -0.0814 -1.52882 -0.1246Z" stroke-width="4"></path> <path stroke="currentColor" stroke-linecap="round" d="M2 42.001c8.3154 -9.36 27.3764 -13.802 44 -10.3612" stroke-width="4"></path> <path stroke="currentColor" stroke-linecap="round" d="M2.0002 25.2527c5.11229 -0.9506 13.7494 -0.7575 20.2127 6.3185l0.1201 0.1311" stroke-width="4"></path> <path stroke="currentColor" stroke-linecap="round" d="m9.75342 19.3301 0 5.7383" stroke-width="4"></path> <path stroke="currentColor" stroke-linejoin="round" d="M30.6242 30.5977c-0.0249 -0.7147 -0.0441 -1.4214 -0.0441 -2.7554 0 -1.3341 0.0192 -2.3172 0.0441 -3.0319 0.0391 -1.1175 0.6658 -2.0572 1.7766 -2.1849 0.4023 -0.0463 0.893 -0.0767 1.4877 -0.0767s1.0853 0.0304 1.4876 0.0767c1.1109 0.1277 1.7375 1.0674 1.7766 2.1849 0.025 0.7147 0.0442 1.6978 0.0442 3.0319 0 1.334 -0.0192 1.986 -0.0442 2.7007" stroke-width="4"></path> </g></g></svg>
