<svg xmlns="http://www.w3.org/2000/svg" viewBox="0 0 24 24" fill="none"><g transform="scale(0.5)"><g> <path fill="currentColor" fill-rule="evenodd" d="M7.92647 2.5118c0.91559 -0.79952 2.24223 -0.79961 3.15783 -0.00011 1.3596 1.18709 3.8872 3.75739 6.5059 8.29001 0.3584 0.6202 0.4003 1.3488 0.1057 1.9684 -0.2919 0.6139 -0.8772 1.0396 -1.5959 1.1319 0.5508 0.9566 1.1157 2.0147 1.6839 3.1813 0.291 0.5976 0.3062 1.2794 0.0222 1.8605 -0.2892 0.5918 -0.8554 1.0064 -1.5564 1.0996 -0.8601 0.1145 -2.1568 0.2296 -4.0759 0.2867 -0.0099 0.0003 -0.0198 0.0004 -0.0298 0.0004h-0.3906v3.5678c2.7657 0.6002 5.6395 1.7495 8.3342 3.7386C12.2292 29.5154 5.25423 32.962 0.901242 37.7598c-0.136768 0.1436 -0.270571 0.2879 -0.401242 0.4324v-12.941c0 -0.7226 0.5153 -1.3426 1.2258 -1.4747 1.68887 -0.314 3.76229 -0.5129 6.02762 -0.4016l0 -3.0444h-0.88668c-0.00991 0 -0.01982 -0.0001 -0.02973 -0.0004 -1.91913 -0.0571 -3.21573 -0.1722 -4.07586 -0.2867 -0.70103 -0.0932 -1.26723 -0.5078 -1.55642 -1.0996 -0.283962 -0.5811 -0.268798 -1.263 0.02226 -1.8606 0.56816 -1.1665 1.13314 -2.2246 1.68395 -3.1811 -0.71872 -0.0923 -1.30413 -0.5181 -1.59604 -1.1321 -0.29458 -0.6195 -0.25261 -1.3481 0.10576 -1.9683 2.61871 -4.53232 5.14629 -7.10273 6.50581 -8.2899ZM31.2928 5.15223c1.6001 -1.07525 3.593 -1.07542 5.1932 -0.00021 1.305 0.87681 3.1611 2.35035 5.5695 4.80504 1.6688 1.70084 2.9256 3.08284 3.8614 4.17274 0.8106 0.944 1.12 2.2012 0.4958 3.3219 -0.4662 0.8371 -1.3421 1.3887 -2.4516 1.6586 -0.0294 2.399 -0.0792 5.4658 -0.1287 7.594 -1.8658 -0.293 -3.7524 -0.4949 -5.643 -0.6096 0.0046 -0.349 0.0072 -0.754 0.0072 -1.2524 0 -1.3434 -0.0193 -2.3383 -0.0447 -3.0668 -0.0506 -1.4457 -0.9105 -2.9422 -2.6618 -3.1435 -0.4443 -0.051 -0.9733 -0.0832 -1.6018 -0.0832 -0.6286 0 -1.1576 0.0322 -1.6019 0.0832 -1.7513 0.2013 -2.6112 1.6978 -2.6618 3.1435 -0.0254 0.7284 -0.0447 1.7234 -0.0447 3.0668 0 0.5227 0.0029 0.9508 0.008 1.3214 -1.908 0.1453 -3.7935 0.3759 -5.6384 0.6877 -0.0505 -2.1632 -0.1014 -5.3292 -0.1314 -7.7406 -1.1099 -0.2695 -1.9861 -0.8209 -2.4526 -1.658 -0.6247 -1.1206 -0.3154 -2.378 0.4953 -3.3222 0.9359 -1.0901 2.193 -2.4723 3.8625 -4.17361 2.4087 -2.45448 4.2647 -3.92795 5.5695 -4.80476ZM45.7106 30.0894c0.339 0.0667 0.6905 0.1529 1.0405 0.2502 0.4534 0.2623 0.7489 0.7516 0.7489 1.2986v14.3604c0 0.8284 -0.6715 1.5 -1.5 1.5H2c-0.82843 0 -1.5 -0.6716 -1.5 -1.5v-2.8977c0.52845 -0.8175 1.4389 -2.0826 2.58537 -3.2845l0.0134 -0.014 0.01303 -0.0144c3.87859 -4.2825 10.3977 -7.5599 18.1092 -9.3356 7.6844 -1.7694 16.3888 -2.0076 24.4805 -0.3648l0.0091 0.0018Z" clip-rule="evenodd"></path> </g></g></svg>
