<svg xmlns="http://www.w3.org/2000/svg" viewBox="0 0 24 24" fill="none"><path opacity="0.4" d="M6.67294 15.5821C6.756 15.272 6.75009 14.9167 6.75009 14.5001V8.50009C6.75009 8.08347 6.756 7.72819 6.67294 7.41806C6.46489 6.6416 5.85858 6.03529 5.08212 5.82724C4.772 5.74418 4.41672 5.75009 4.00009 5.75009C3.58347 5.75009 3.22819 5.74418 2.91806 5.82724C2.1416 6.03529 1.53529 6.6416 1.32724 7.41806C1.24418 7.72819 1.25009 8.08347 1.25009 8.50009V14.5001C1.25009 14.9167 1.24418 15.272 1.32724 15.5821C1.53529 16.3586 2.1416 16.9649 2.91806 17.1729C3.22819 17.256 3.58347 17.2501 4.00009 17.2501C4.41672 17.2501 4.772 17.256 5.08212 17.1729C5.85858 16.9649 6.46489 16.3586 6.67294 15.5821Z" fill="currentColor"/><path d="M7.94141 6.75C8.86303 6.75001 9.77594 6.93511 10.623 7.29297L15.2158 9.23242C16.2471 9.6681 16.9169 10.6684 16.917 11.7744C16.917 11.8576 16.9106 11.9398 16.9014 12.0205H20.3926C21.6944 12.0207 22.7499 13.0615 22.75 14.3447C22.7499 15.3822 22.052 16.294 21.04 16.5791L15.9629 18.0098C15.3957 18.1694 14.8076 18.25 14.2178 18.25C13.6656 18.2499 13.1155 18.1783 12.582 18.0381L6.27539 16.3799C6.45673 16.1466 6.59385 15.8769 6.67285 15.582C6.75447 15.2772 6.7492 14.9289 6.74902 14.5215L13.083 16.1865C13.4531 16.2838 13.8348 16.3329 14.2178 16.333C14.6272 16.333 15.036 16.2769 15.4297 16.166L20.5059 14.7363C20.683 14.6862 20.8056 14.5264 20.8057 14.3447C20.8055 14.12 20.6205 13.9377 20.3926 13.9375H14C13.9661 13.9375 13.9325 13.935 13.8994 13.9316C13.1371 13.909 12.3838 13.7571 11.6748 13.4775L10.2363 12.9111C9.7379 12.7146 9.49516 12.1564 9.69434 11.665C9.89378 11.1739 10.4596 10.9346 10.958 11.1309L12.3975 11.6982C12.9376 11.9112 13.514 12.0205 14.0957 12.0205H14.7227C14.8604 12.0204 14.9717 11.9103 14.9717 11.7744C14.9716 11.4354 14.7672 11.1289 14.4512 10.9951L9.85645 9.05371C9.25144 8.79816 8.59962 8.66701 7.94141 8.66699H6.75V8.5C6.75 8.08342 6.75591 7.72807 6.67285 7.41797C6.60816 7.17657 6.50495 6.95165 6.37012 6.75H7.94141Z" fill="currentColor"/></svg>
