<svg xmlns="http://www.w3.org/2000/svg" viewBox="0 0 24 24" fill="none"><path d="M20.8049 14.3446C20.8048 14.1198 20.62 13.9376 20.3919 13.9375H13.9994C13.9654 13.9375 13.9319 13.9352 13.8987 13.9319C13.1365 13.9092 12.3833 13.7576 11.6742 13.478L10.2358 12.9108C9.7374 12.7143 9.49452 12.1565 9.6937 11.6652C9.89307 11.1739 10.4589 10.9345 10.9574 11.1308L12.3967 11.698C12.937 11.911 13.5134 12.0208 14.0953 12.0208H14.7219C14.8598 12.0208 14.9716 11.9106 14.9716 11.7747C14.9716 11.4355 14.7666 11.1289 14.4504 10.9951L9.85605 9.05412C9.25099 8.79851 8.59933 8.66668 7.94104 8.66667H6.22161C5.68467 8.66667 5.24939 8.23761 5.24939 7.70833C5.24939 7.17906 5.68467 6.75 6.22161 6.75H7.94104C8.86266 6.75001 9.77514 6.93495 10.6222 7.29281L15.2156 9.23287C16.247 9.66858 16.9161 10.6686 16.9161 11.7747C16.9161 11.858 16.9102 11.94 16.9009 12.0208H20.3919C21.6939 12.021 22.7493 13.0613 22.7494 14.3446C22.7494 15.3822 22.0516 16.2944 21.0395 16.5795L15.9628 18.0095C15.3955 18.1692 14.8078 18.25 14.2178 18.25C13.6655 18.25 13.1155 18.1788 12.5819 18.0385L5.97096 16.3006C5.45229 16.1641 5.14429 15.6393 5.28262 15.1279C5.42107 14.6167 5.95353 14.3131 6.47226 14.4494L13.0822 16.1864C13.4525 16.2837 13.8345 16.3333 14.2178 16.3333C14.6273 16.3333 15.0355 16.2767 15.4292 16.1658L20.5049 14.7367C20.6823 14.6868 20.8049 14.5265 20.8049 14.3446Z" fill="currentColor"/><path d="M6.67246 15.5821C6.75552 15.272 6.7496 14.9167 6.7496 14.5001V8.50009C6.7496 8.08347 6.75552 7.72819 6.67246 7.41806C6.4644 6.6416 5.85809 6.03529 5.08163 5.82724C4.77151 5.74418 4.41623 5.75009 3.9996 5.75009C3.58298 5.75009 3.2277 5.74418 2.91757 5.82724C2.14112 6.03529 1.5348 6.6416 1.32675 7.41806C1.24369 7.72819 1.2496 8.08347 1.2496 8.50009V14.5001C1.2496 14.9167 1.24369 15.272 1.32675 15.5821C1.5348 16.3586 2.14111 16.9649 2.91757 17.1729C3.2277 17.256 3.58298 17.2501 3.9996 17.2501C4.41623 17.2501 4.77151 17.256 5.08163 17.1729C5.85809 16.9649 6.4644 16.3586 6.67246 15.5821Z" fill="currentColor"/></svg>
