<svg xmlns="http://www.w3.org/2000/svg" fill="none" viewBox="0 0 48 48">
  <g>
    <path stroke="currentColor" stroke-linejoin="round" d="M4.89428 24.4134c-1.97113 -0.1694 -2.81835 -2.1213 -1.58083 -3.6649 1.58862 -1.9815 4.15134 -4.9398 8.14285 -9.0071 4.9514 -5.04558 8.4369 -7.53108 10.4569 -8.71938 1.3115 -0.77147 2.8657 -0.77156 4.1772 -0.0002 2.0202 1.18822 5.506 3.67372 10.4568 8.71958 3.9903 4.0668 6.5528 7.0249 8.1416 9.0064 1.2379 1.5438 0.3907 3.4963 -1.5808 3.6657 -0.6197 0.0533 -1.3282 0.1071 -2.1356 0.1595 -0.069 6.78 -0.2451 12.7924 -0.3641 16.2721 -0.0634 1.8506 -1.4035 3.3796 -3.2452 3.5701C34.7067 44.69 30.3117 45 24.0017 45c-6.3099 0 -10.7023 -0.31 -13.3564 -0.5848 -1.8404 -0.1905 -3.17956 -1.7177 -3.24384 -3.5668 -0.12095 -3.4792 -0.29988 -9.4933 -0.37002 -16.2754 -0.8081 -0.0524 -1.51713 -0.1063 -2.13716 -0.1596Z" stroke-width="3.429"></path>
    <path stroke="currentColor" stroke-linejoin="round" d="M40.9991 16.4515c0.0004 -0.3582 0.0007 -0.6968 0.0007 -1.0071 0 -2.5754 -0.0336 -7.00416 -0.0558 -9.66003 -0.011 -1.3113 -0.8756 -2.47145 -2.1744 -2.65282C38.2226 3.05516 37.6147 3 36.9998 3c-0.615 0 -1.2229 0.05516 -1.7699 0.13155 -1.2988 0.18137 -2.1634 1.34152 -2.1744 2.65281 -0.0062 0.74343 -0.0133 1.62577 -0.0203 2.56749 1.0743 0.97652 2.2444 2.09935 3.5103 3.38955 1.7449 1.7783 3.2168 3.3447 4.4536 4.7101Z" stroke-width="3.429"></path>
    <path stroke="currentColor" stroke-linejoin="round" d="M30.9822 44.8474c-1.9531 0.0917 -4.2718 0.1526 -6.986 0.1526 -2.7112 0 -5.0273 -0.0607 -6.9784 -0.1523C17.0066 43.1716 17 41.3583 17 40.037c0 -2.6474 0.0565 -7.164 0.0953 -9.9613 0.02 -1.4324 1.0523 -2.6467 2.476 -2.807C20.8101 27.1291 22.3912 27 24 27s3.1899 0.1291 4.4287 0.2687c1.4237 0.1603 2.456 1.3746 2.476 2.807 0.0388 2.7973 0.0953 7.3139 0.0953 9.9613 0 1.3212 -0.0066 3.1344 -0.0178 4.8104Z" stroke-width="3.429"></path>
  </g>
</svg>
