<svg xmlns="http://www.w3.org/2000/svg" fill="none" viewBox="0 0 48 48">
  <g>
    <path fill="currentColor" fill-rule="evenodd" d="M22.9273 5.05006c0.6848 -0.40265 1.4619 -0.40268 2.1467 -0.00012 1.8372 1.08004 5.1842 3.44395 10.0352 8.38586 3.9483 4.0222 6.4632 6.9268 8.0027 8.8459 0.1085 0.1352 0.1315 0.2275 0.1368 0.2605 0.0029 0.0187 0.0021 0.0295 0.0016 0.0337l-0.0005 0.0029c-0.0004 0.002 -0.0008 0.0029 -0.0008 0.003l-0.0009 0.0016c-0.0006 0.0012 -0.0018 0.0029 -0.0038 0.0053 -0.0036 0.0044 -0.0123 0.0137 -0.0298 0.0257 -0.0316 0.0217 -0.1185 0.0694 -0.2934 0.0844 -0.6043 0.0519 -1.2982 0.1047 -2.0921 0.1562 -1.0443 0.0676 -1.8599 0.9289 -1.8705 1.9754 -0.0688 6.7507 -0.2442 12.7389 -0.3629 16.2043 -0.0313 0.9156 -0.6667 1.5638 -1.4496 1.6448 -1.2827 0.1326 -2.9946 0.2749 -5.1574 0.3846 0.0043 -1.0088 0.0067 -1.9765 0.0067 -2.7681 0 -2.6524 -0.0565 -7.1705 -0.0954 -9.9631 -0.0264 -1.9008 -1.4063 -3.5633 -3.3621 -3.7835 -1.2606 -0.1419 -2.8801 -0.2746 -4.5372 -0.2746 -1.6571 0 -3.2766 0.1327 -4.5373 0.2746 -1.9557 0.2202 -3.3356 1.8827 -3.362 3.7835 -0.0389 2.7926 -0.0954 7.3107 -0.0954 9.9631 0 0.7916 0.0024 1.7593 0.0067 2.768 -2.1611 -0.1096 -3.8713 -0.2519 -5.1525 -0.3845 -0.7821 -0.0809 -1.41665 -0.728 -1.44846 -1.6426 -0.1205 -3.4647 -0.29877 -9.4543 -0.36863 -16.2068 -0.01082 -1.0463 -0.82634 -1.9074 -1.87053 -1.9751 -0.79457 -0.0515 -1.48906 -0.1043 -2.09368 -0.1563 -0.17487 -0.015 -0.26172 -0.0627 -0.29331 -0.0844 -0.01751 -0.0119 -0.02617 -0.0213 -0.02976 -0.0256 -0.00183 -0.0022 -0.00297 -0.0039 -0.00366 -0.005l-0.00096 -0.0018c-0.00008 -0.0002 -0.00078 -0.0016 -0.0013 -0.0058 -0.0005 -0.0041 -0.00133 -0.0149 0.00163 -0.0335 0.00521 -0.033 0.02822 -0.1251 0.13664 -0.2603 1.53921 -1.919 4.05423 -4.8238 8.00362 -8.8464 4.8518 -4.94169 8.1986 -7.30568 10.0356 -8.38584Zm3.1603 -1.72425 1.0136 -1.72414C25.1649 0.463379 22.836 0.463539 20.8999 1.60195c-2.2 1.29355 -5.8188 3.89451 -10.8624 9.03165 -4.02754 4.1021 -6.63407 7.1067 -8.2697 9.1459 -1.035734 1.2913 -1.313701 2.9436 -0.68805 4.3902 0.62433 1.4436 2.01442 2.3732 3.65659 2.5143 0.10706 0.0092 0.21662 0.0184 0.32873 0.0276 0.08071 6.0337 0.23884 11.2972 0.34899 14.4643 0.09665 2.779 2.13837 5.1827 5.03424 5.4823 2.7237 0.2819 7.1816 0.5947 13.5522 0.5947 6.3707 0 10.8311 -0.3128 13.5569 -0.5947 2.8979 -0.2996 4.9407 -2.7058 5.0359 -5.4867 0.1084 -3.1672 0.264 -8.4288 0.3434 -14.4599 0.1115 -0.0092 0.2204 -0.0183 0.3268 -0.0275 1.6425 -0.1411 3.0327 -1.071 3.657 -2.5148 0.6255 -1.4468 0.3474 -3.0992 -0.6885 -4.3906 -1.0099 -1.2589 -2.3898 -2.8858 -4.2454 -4.9117 -0.0058 -2.6188 -0.0348 -6.41624 -0.0547 -8.79039 -0.0144 -1.7202 -1.1659 -3.37078 -3.0344 -3.63161 -0.5798 -0.08093 -1.2348 -0.14099 -1.9068 -0.14099 -0.672 0 -1.3271 0.06006 -1.9068 0.14099 -1.5589 0.2176 -2.6187 1.40248 -2.9355 2.78809 -2.1301 -1.76733 -3.8122 -2.90535 -5.0472 -3.63142l-1.0136 1.72414Z" clip-rule="evenodd" stroke-width="1"></path>
  </g>
</svg>
