<svg xmlns="http://www.w3.org/2000/svg" viewBox="0 0 24 24" fill="none"><path d="M15.0431 15.0426C15.4336 14.6521 16.0666 14.6521 16.4571 15.0426L21.4571 20.0426C21.8477 20.4332 21.8477 21.0662 21.4571 21.4567C21.0666 21.8472 20.4336 21.8472 20.0431 21.4567L15.0431 16.4567C14.6526 16.0662 14.6526 15.4332 15.0431 15.0426Z" fill="currentColor"/><path d="M11.838 3.89429C10.7848 2.84106 9.35584 2.24976 7.86633 2.24976C4.76459 2.24977 2.25014 4.76423 2.25012 7.86597C2.25012 9.35547 2.84143 10.7844 3.89465 11.8376L8.36829 16.3113L8.37479 16.3178C8.99542 16.9384 9.49576 17.4388 9.93469 17.8064C10.3827 18.1816 10.8207 18.4659 11.3351 18.6111C11.9917 18.7963 12.6872 18.7962 13.3439 18.6111C13.8585 18.4659 14.2971 18.1817 14.7452 17.8064C15.1782 17.4438 15.6703 16.9516 16.2793 16.3426L16.3107 16.3113L16.3413 16.2807C16.9509 15.6711 17.4439 15.1781 17.8068 14.7449C18.1821 14.2968 18.4663 13.8581 18.6115 13.3435C18.7966 12.6869 18.7967 11.9913 18.6115 11.3347C18.4663 10.8203 18.182 10.3823 17.8068 9.93433C17.4392 9.49545 16.9389 8.99519 16.3184 8.37466L16.3116 8.36792L11.838 3.89429Z" fill="currentColor"/></svg>
