<svg xmlns="http://www.w3.org/2000/svg" viewBox="0 0 24 24" fill="none"><path d="M6.75 2.20429V4.84974C6.75 5.3468 7.17736 5.74974 7.70455 5.74974C8.23173 5.74974 8.65909 5.3468 8.65909 4.84974V2.20429C8.65909 1.67711 8.23173 1.24974 7.70455 1.24974C7.17736 1.24974 6.75 1.67711 6.75 2.20429Z" fill="currentColor"/><path d="M11.0455 2.20429V4.84974C11.0455 5.3468 11.4728 5.74974 12 5.74974C12.5272 5.74974 12.9545 5.3468 12.9545 4.84974V2.20429C12.9545 1.67711 12.5272 1.24974 12 1.24974C11.4728 1.24974 11.0455 1.67711 11.0455 2.20429Z" fill="currentColor"/><path d="M15.3409 2.20429V4.84974C15.3409 5.3468 15.7683 5.74974 16.2955 5.74974C16.8226 5.74974 17.25 5.3468 17.25 4.84974V2.20429C17.25 1.67711 16.8226 1.24974 16.2955 1.24974C15.7683 1.24974 15.3409 1.67711 15.3409 2.20429Z" fill="currentColor"/><path opacity="0.4" d="M20.75 15.0582V15.0003V10.7497V10.6918C20.75 9.09026 20.75 7.81195 20.6152 6.80931C20.4759 5.77306 20.18 4.91999 19.5049 4.24486C18.8298 3.56973 17.9767 3.27383 16.9404 3.13451C15.9378 2.99971 14.6595 2.99972 13.0579 2.99974H13H11H10.9421C9.34051 2.99972 8.06221 2.99971 7.05957 3.13451C6.02332 3.27383 5.17025 3.56973 4.49512 4.24486C3.81999 4.91999 3.52409 5.77306 3.38477 6.80931C3.24996 7.81195 3.24998 9.09027 3.25 10.6919V10.7497V15.0003V15.0581C3.24998 16.6597 3.24996 17.938 3.38477 18.9407C3.52409 19.9769 3.81999 20.83 4.49512 21.5051C5.17025 22.1803 6.02332 22.4762 7.05957 22.6155C8.06221 22.7503 9.34052 22.7503 10.9421 22.7503H11H13H13.0579C14.6595 22.7503 15.9378 22.7503 16.9404 22.6155C17.9767 22.4762 18.8298 22.1803 19.5049 21.5051C20.18 20.83 20.4759 19.9769 20.6152 18.9407C20.75 17.938 20.75 16.6597 20.75 15.0582Z" fill="currentColor"/><path d="M9.91401 9.03128C10.1728 8.70784 10.6452 8.65534 10.9687 8.91409C11.2921 9.17285 11.3446 9.64534 11.0859 9.96878L9.08588 12.4688C8.95261 12.6354 8.75396 12.7373 8.54096 12.7491C8.32812 12.7607 8.12041 12.681 7.96967 12.5303L6.96967 11.5303C6.67678 11.2374 6.67678 10.7627 6.96967 10.4698C7.24427 10.1952 7.67899 10.1777 7.97358 10.418L8.03022 10.4698L8.43744 10.877L9.91401 9.03128Z" fill="currentColor"/><path d="M17 16.2497C17.4142 16.2497 17.75 16.5855 17.75 16.9997C17.75 17.414 17.4142 17.7497 17 17.7497H14C13.5858 17.7497 13.25 17.414 13.25 16.9997C13.25 16.5855 13.5858 16.2497 14 16.2497H17ZM17 10.2497C17.4142 10.2497 17.75 10.5855 17.75 10.9997C17.75 11.414 17.4142 11.7497 17 11.7497H14C13.5858 11.7497 13.25 11.414 13.25 10.9997C13.25 10.5855 13.5858 10.2497 14 10.2497H17Z" fill="currentColor"/><path d="M8.5 15.9997C9.05228 15.9997 9.5 16.4475 9.5 16.9997C9.5 17.552 9.05228 17.9997 8.5 17.9997H8.49023C7.93795 17.9997 7.49023 17.552 7.49023 16.9997C7.49023 16.4475 7.93795 15.9997 8.49023 15.9997H8.5Z" fill="currentColor"/></svg>
