<svg xmlns="http://www.w3.org/2000/svg" viewBox="0 0 24 24" fill="none"><path d="M19.043 1.54302C19.4335 1.15249 20.0665 1.15249 20.457 1.54302C20.8475 1.93354 20.8475 2.56657 20.457 2.95708L19.9141 3.50005L20.457 4.04302C20.8475 4.43354 20.8475 5.06657 20.457 5.45708C20.0665 5.84749 19.4335 5.84752 19.043 5.45708L18.5 4.91411L16.5176 6.89555C16.6661 7.23373 16.75 7.60699 16.75 8.00005C16.75 9.5188 15.5188 10.75 14 10.75C12.4812 10.75 11.25 9.5188 11.25 8.00005C11.25 6.48126 12.4812 5.25005 14 5.25005C14.3926 5.25005 14.7656 5.33323 15.1035 5.48149L19.043 1.54302Z" fill="currentColor"/><path opacity="0.4" d="M15.9561 1.25C16.5422 1.24996 17.0732 1.25202 17.54 1.27734L14.7451 4.07129C14.5036 4.02545 14.2546 4 14 4C11.7909 4 10 5.79086 10 8C10.0002 10.2089 11.7909 12 14 12C16.2091 12 17.9998 10.2089 18 8C18 7.74419 17.974 7.49411 17.9277 7.25195L18.5371 6.64356C19.2051 7.07225 20.049 7.11149 20.75 6.76367V17.8633C20.75 18.403 20.3143 18.8408 19.7773 18.8408H19.6875C19.6572 18.8768 19.6244 18.9161 19.5928 18.96C19.4254 19.1924 19.292 19.4846 19.292 19.8184C19.292 20.152 19.4255 20.4434 19.5928 20.6758C19.6244 20.7198 19.6571 20.7598 19.6875 20.7959H19.7773C20.3142 20.7959 20.7499 21.2329 20.75 21.7725C20.75 22.3122 20.3143 22.75 19.7773 22.75H6.16699C4.55622 22.75 3.2501 21.4375 3.25 19.8184V8.03516C3.24998 6.70606 3.25036 5.61062 3.36621 4.74414C3.48749 3.8374 3.75177 3.0367 4.38965 2.39551C5.02746 1.7544 5.82365 1.48813 6.72559 1.36621C7.5876 1.24974 8.67772 1.24998 10 1.25H15.9561ZM6.16699 18.8398C5.63005 18.8398 5.19434 19.2777 5.19434 19.8174C5.19448 20.357 5.63014 20.7939 6.16699 20.7939H17.5C17.4082 20.5025 17.3477 20.1761 17.3477 19.8174C17.3477 19.4584 17.4081 19.1314 17.5 18.8398H6.16699Z" fill="currentColor" fill-rule="evenodd" clip-rule="evenodd"/></svg>
