<svg xmlns="http://www.w3.org/2000/svg" viewBox="0 0 24 24" fill="none"><path d="M19.0425 1.54302C19.433 1.15249 20.066 1.15249 20.4565 1.54302C20.847 1.93354 20.847 2.56657 20.4565 2.95708L19.9136 3.50005L20.4565 4.04302C20.847 4.43354 20.847 5.06657 20.4565 5.45708C20.066 5.84749 19.433 5.84752 19.0425 5.45708L18.4995 4.91411L16.5171 6.89555C16.6657 7.23373 16.7495 7.60699 16.7495 8.00005C16.7495 9.5188 15.5183 10.75 13.9995 10.75C12.4808 10.75 11.2496 9.5188 11.2495 8.00005C11.2495 6.48126 12.4807 5.25005 13.9995 5.25005C14.3921 5.25005 14.7651 5.33323 15.103 5.48149L19.0425 1.54302Z" fill="currentColor"/><path d="M15.9556 1.25C16.5418 1.24996 17.0727 1.25202 17.5396 1.27734L14.7446 4.07129C14.5031 4.02545 14.2541 4 13.9995 4C11.7904 4 9.99951 5.79086 9.99951 8C9.99971 10.2089 11.7905 12 13.9995 12C16.2086 12 17.9993 10.2089 17.9995 8C17.9995 7.74419 17.9735 7.49411 17.9272 7.25195L18.5366 6.64356C19.2046 7.07225 20.0485 7.11149 20.7495 6.76367V17.8633C20.7495 18.403 20.3138 18.8408 19.7769 18.8408H19.687C19.6567 18.8768 19.6239 18.9161 19.5923 18.96C19.4249 19.1924 19.2915 19.4846 19.2915 19.8184C19.2916 20.152 19.425 20.4434 19.5923 20.6758C19.624 20.7198 19.6566 20.7598 19.687 20.7959H19.7769C20.3137 20.7959 20.7494 21.2329 20.7495 21.7725C20.7495 22.3122 20.3138 22.75 19.7769 22.75H6.1665C4.55573 22.75 3.24961 21.4375 3.24951 19.8184V8.03516C3.24949 6.70606 3.24987 5.61062 3.36572 4.74414C3.487 3.8374 3.75128 3.0367 4.38916 2.39551C5.02698 1.7544 5.82316 1.48813 6.7251 1.36621C7.58711 1.24974 8.67723 1.24998 9.99951 1.25H15.9556ZM6.1665 18.8398C5.62956 18.8398 5.19385 19.2777 5.19385 19.8174C5.19399 20.357 5.62965 20.7939 6.1665 20.7939H17.4995C17.4077 20.5025 17.3472 20.1761 17.3472 19.8174C17.3472 19.4584 17.4076 19.1314 17.4995 18.8398H6.1665Z" fill="currentColor" fill-rule="evenodd" clip-rule="evenodd"/></svg>
