<svg xmlns="http://www.w3.org/2000/svg" viewBox="0 0 24 24" fill="none"><path opacity="0.4" d="M22 13.75C21.0335 13.75 20.25 12.9665 20.25 12C20.25 11.0335 21.0335 10.25 22 10.25C22.4142 10.25 22.75 9.91421 22.75 9.5V9.44768C22.75 8.31655 22.75 7.40375 22.668 6.67578C22.5829 5.92169 22.4014 5.27298 21.9746 4.7168C21.7753 4.45713 21.5429 4.2247 21.2832 4.02539C20.727 3.59862 20.0783 3.41708 19.3242 3.33203C18.5963 3.24996 17.6834 3.24998 16.5523 3.25H16.5H7.5H7.4477C6.31656 3.24998 5.40375 3.24996 4.67578 3.33203C3.92169 3.41708 3.27298 3.59862 2.7168 4.02539C2.45713 4.2247 2.2247 4.45713 2.02539 4.7168C1.59862 5.27298 1.41708 5.92169 1.33203 6.67578C1.24996 7.40375 1.24998 8.31656 1.25 9.4477V9.5C1.25 9.91421 1.58579 10.25 2 10.25C2.9665 10.25 3.75 11.0335 3.75 12C3.75 12.9665 2.9665 13.75 2 13.75C1.58579 13.75 1.25 14.0858 1.25 14.5V14.5523C1.24998 15.6834 1.24996 16.5963 1.33203 17.3242C1.41708 18.0783 1.59862 18.727 2.02539 19.2832C2.2247 19.5429 2.45713 19.7753 2.7168 19.9746C3.27298 20.4014 3.92169 20.5829 4.67578 20.668C5.40375 20.75 6.31655 20.75 7.44768 20.75H7.5H16.5H16.5523C17.6835 20.75 18.5963 20.75 19.3242 20.668C20.0783 20.5829 20.727 20.4014 21.2832 19.9746C21.5429 19.7753 21.7753 19.5429 21.9746 19.2832C22.4014 18.727 22.5829 18.0783 22.668 17.3242C22.75 16.5963 22.75 15.6835 22.75 14.5523V14.5C22.75 14.0858 22.4142 13.75 22 13.75Z" fill="currentColor"/><path d="M9.70711 15.7071C9.31658 16.0976 8.68357 16.0976 8.29304 15.7071C7.90252 15.3166 7.90252 14.6836 8.29304 14.293L14.293 8.29304C14.6836 7.90252 15.3166 7.90252 15.7071 8.29304C16.0976 8.68357 16.0976 9.31658 15.7071 9.70711L9.70711 15.7071Z" fill="currentColor"/><path d="M9 8C9.55228 8 10 8.44772 10 9C10 9.55229 9.55228 10 9 10C8.44772 10 8 9.55228 8 9C8 8.44772 8.44771 8 9 8Z" fill="currentColor"/><path d="M15 14C15.5523 14 16 14.4477 16 15C16 15.5523 15.5523 16 15 16C14.4477 16 14 15.5523 14 15C14 14.4477 14.4477 14 15 14Z" fill="currentColor"/></svg>
