<svg xmlns="http://www.w3.org/2000/svg" viewBox="0 0 24 24" fill="none"><path opacity="0.4" d="M1.82601 15.823C3.37382 11.428 7.3198 8.24979 11.9999 8.24979C16.68 8.24979 20.626 11.428 22.1738 15.823L22.1973 15.8897C22.4408 16.5807 22.6628 17.2107 22.7287 17.7744C22.805 18.4267 22.6798 19.0143 22.2599 19.5972C21.8149 20.2149 21.2207 20.5022 20.5155 20.6322C19.8772 20.7499 19.0773 20.7499 18.146 20.7498H18.146H5.85383H5.85379C4.92247 20.7499 4.12257 20.7499 3.48426 20.6322C2.77906 20.5022 2.18489 20.2149 1.73989 19.5972C1.31997 19.0143 1.19477 18.4267 1.27108 17.7744C1.33701 17.2107 1.55902 16.5807 1.80249 15.8898L1.82601 15.823Z" fill="currentColor"/><path d="M8.97106 4.24894C10.7339 2.91704 13.2658 2.91708 15.0287 4.24894C15.4728 4.58453 16.0271 4.79177 16.6088 4.83292L16.808 4.84757C18.9861 5.00181 20.7891 6.62581 20.9798 8.74503C21.0233 9.22754 21.2353 9.6949 21.5931 10.0673C22.9962 11.527 23.1245 13.6858 21.9642 15.2753C21.6453 14.4921 21.2496 13.7519 20.7855 13.0673C20.8351 12.4752 20.6338 11.8677 20.1732 11.3886C19.5197 10.7086 19.1158 9.83813 19.0326 8.91495C18.933 7.80812 17.9646 6.85732 16.6673 6.76554L16.4681 6.75089C15.5113 6.6832 14.5909 6.34302 13.8382 5.77433C12.7774 4.97286 11.2223 4.97285 10.1615 5.77433C9.40881 6.34297 8.48834 6.6832 7.5316 6.75089L7.33238 6.76554C6.0352 6.85734 5.06677 7.80813 4.96715 8.91495C4.88396 9.83817 4.48005 10.7086 3.82652 11.3886C3.36598 11.8677 3.16364 12.4752 3.21324 13.0673C2.74921 13.7519 2.35345 14.4921 2.03453 15.2753C0.874711 13.6858 1.00371 11.5268 2.4066 10.0673C2.76445 9.69489 2.97642 9.22758 3.01988 8.74503C3.21063 6.62588 5.01368 5.0019 7.19176 4.84757L7.39195 4.83292C7.97343 4.79172 8.52697 4.58444 8.97106 4.24894Z" fill="currentColor" fill-rule="evenodd" clip-rule="evenodd"/><path d="M5.9895 13.9998C5.9895 13.4475 6.43722 12.9998 6.9895 12.9998H6.99844C7.55073 12.9998 7.99844 13.4475 7.99844 13.9998C7.99844 14.5521 7.55073 14.9998 6.99844 14.9998H6.9895C6.43722 14.9998 5.9895 14.5521 5.9895 13.9998ZM4.48828 16.9998C4.48828 16.4475 4.936 15.9998 5.48828 15.9998H5.49722C6.04951 15.9998 6.49722 16.4475 6.49722 16.9998C6.49722 17.5521 6.04951 17.9998 5.49722 17.9998H5.48828C4.936 17.9998 4.48828 17.5521 4.48828 16.9998Z" fill="currentColor" fill-rule="evenodd" clip-rule="evenodd"/></svg>
