<svg xmlns="http://www.w3.org/2000/svg" viewBox="0 0 24 24" fill="none"><path d="M8.97092 4.24894C10.7338 2.91702 13.2662 2.91702 15.0291 4.24894C15.4733 4.58453 16.0267 4.79225 16.6083 4.8334L16.8077 4.84751C18.986 5.00162 20.7889 6.62597 20.9796 8.74529C21.0231 9.228 21.2355 9.69547 21.5936 10.068C23.0245 11.5566 23.1305 13.7732 21.8948 15.3707C21.568 15.7933 20.9548 15.8752 20.5253 15.5536C20.0958 15.232 20.0126 14.6287 20.3394 14.2061C20.9959 13.3573 20.9461 12.1931 20.1735 11.3893C19.5198 10.7092 19.1158 9.8384 19.0327 8.91493C18.9331 7.80809 17.9648 6.8574 16.6676 6.76563L16.4681 6.75152C15.5113 6.68382 14.5914 6.34288 13.8387 5.77418C12.7779 4.9727 11.2221 4.9727 10.1613 5.77418C9.40864 6.34288 8.48866 6.68382 7.53187 6.75152L7.33245 6.76563C6.03524 6.8574 5.06693 7.80809 4.9673 8.91493C4.88418 9.8384 4.48024 10.7092 3.82648 11.3893C3.05387 12.1931 3.00406 13.3573 3.66055 14.2061C3.98741 14.6287 3.9042 15.232 3.47469 15.5536C3.04518 15.8752 2.43203 15.7933 2.10517 15.3707C0.869545 13.7732 0.975465 11.5566 2.40642 10.068C2.76446 9.69547 2.97693 9.228 3.02038 8.74529C3.21114 6.62597 5.01397 5.00162 7.19226 4.84751L7.39169 4.8334C7.97329 4.79225 8.52675 4.58453 8.97092 4.24894Z" fill="currentColor" fill-rule="evenodd" clip-rule="evenodd"/><path d="M11.9998 8.25C16.6799 8.25 20.6259 11.4282 22.1737 15.8232L22.1971 15.8896C22.4406 16.5805 22.6624 17.2108 22.7284 17.7744C22.8047 18.4268 22.6795 19.0148 22.2596 19.5977C21.8146 20.2151 21.2206 20.5028 20.5155 20.6328C19.8773 20.7505 19.0774 20.7501 18.1463 20.75H5.85336C4.92224 20.7501 4.12242 20.7505 3.48422 20.6328C2.7791 20.5028 2.18507 20.2152 1.74008 19.5977C1.32016 19.0148 1.19502 18.4268 1.27133 17.7744C1.33729 17.2108 1.55914 16.5805 1.80258 15.8896L1.82602 15.8232C3.37382 11.4283 7.31978 8.25003 11.9998 8.25ZM5.48813 16C4.93592 16.0001 4.48813 16.4478 4.48813 17C4.48813 17.5522 4.93592 17.9999 5.48813 18H5.49691C6.0492 18 6.49691 17.5523 6.49691 17C6.49691 16.4477 6.0492 16 5.49691 16H5.48813ZM6.9891 13C6.43701 13.0002 5.9891 13.4479 5.9891 14C5.9891 14.5521 6.43701 14.9998 6.9891 15H6.99887C7.55097 14.9998 7.99887 14.5522 7.99887 14C7.99887 13.4478 7.55097 13.0002 6.99887 13H6.9891Z" fill="currentColor" fill-rule="evenodd" clip-rule="evenodd"/></svg>
