<svg xmlns="http://www.w3.org/2000/svg" viewBox="0 0 24 24" fill="none"><path d="M12 2.25C12.9653 2.25 13.8539 2.30727 14.6709 2.41504C14.5597 2.75658 14.5 3.12134 14.5 3.5C14.5 4.07499 14.6397 4.61584 14.8848 5.09277C13.7375 6.00818 13 7.41614 13 9C13 10.1046 13.8954 11 15 11H21C21.6863 11 22.2912 10.6538 22.6514 10.127C22.7204 10.7409 22.75 11.368 22.75 12C22.75 14.6251 21.9907 17.0854 20.208 18.8906C18.4216 20.6995 15.7071 21.75 12 21.75C10.4515 21.75 9.09789 21.5985 7.91992 21.3096C7.58951 21.2285 7.18966 21.3207 6.83789 21.5801C6.02979 22.1762 4.78902 22.75 3 22.75C2.67 22.75 2.37843 22.5344 2.28223 22.2188C2.18605 21.9031 2.30807 21.561 2.58203 21.377C3.1813 20.9741 3.81966 19.617 2.7373 17.9004C1.63081 16.2122 1.25 14.1434 1.25 12C1.25 9.42427 1.8005 6.95115 3.50098 5.125C5.21037 3.28928 7.94704 2.25 12 2.25ZM8 11C7.44771 11 7 11.4477 7 12C7 12.5523 7.44772 13 8 13C8.55228 13 9 12.5523 9 12C9 11.4477 8.55228 11 8 11ZM12 11C11.4823 11 11.0562 11.3933 11.0049 11.8975L11 12L11.0049 12.1025C11.0562 12.6067 11.4823 13 12 13C12.5522 12.9999 13 12.5522 13 12C13 11.4824 12.6066 11.0563 12.1025 11.0049L12 11Z" fill="currentColor"/><path d="M18 1.25C19.2426 1.25 20.25 2.25736 20.25 3.5C20.25 4.32167 19.8081 5.03795 19.1504 5.43066C20.6585 5.91637 21.75 7.33034 21.75 9C21.75 9.41421 21.4142 9.75 21 9.75H15C14.5858 9.75 14.25 9.41421 14.25 9C14.25 7.33066 15.3409 5.91663 16.8486 5.43066C16.1914 5.03785 15.75 4.32137 15.75 3.5C15.75 2.25736 16.7574 1.25 18 1.25Z" fill="currentColor"/></svg>
