<svg xmlns="http://www.w3.org/2000/svg" viewBox="0 0 24 24" fill="none"><path opacity="0.4" d="M4.36621 4.6084C4.24995 5.47333 4.24997 6.57252 4.25 7.93562V10H19.75V7.93554V7.93551C19.75 6.57247 19.7501 5.47331 19.6338 4.6084C19.5128 3.70829 19.2533 2.95055 18.6514 2.34864C18.0495 1.74672 17.2917 1.48723 16.3916 1.36621C15.5267 1.24995 14.4275 1.24997 13.0644 1.25H10.9356C9.57252 1.24997 8.47333 1.24995 7.6084 1.36621C6.70829 1.48723 5.95055 1.74672 5.34864 2.34864C4.74672 2.95055 4.48723 3.70829 4.36621 4.6084Z" fill="currentColor"/><path d="M7.25 7V5C7.25 4.58579 7.58579 4.25 8 4.25C8.41421 4.25 8.75 4.58579 8.75 5V7C8.75 7.41421 8.41421 7.75 8 7.75C7.58579 7.75 7.25 7.41421 7.25 7Z" fill="currentColor"/><path d="M19.75 10V16.0645L19.748 17.0381C19.7426 17.9627 19.721 18.743 19.6338 19.3916C19.5128 20.2917 19.2533 21.0495 18.6514 21.6514C18.0495 22.2533 17.2917 22.5128 16.3916 22.6338C15.5267 22.7501 14.4275 22.75 13.0645 22.75H10.9355C9.57249 22.75 8.47331 22.7501 7.6084 22.6338C6.70829 22.5128 5.95055 22.2533 5.34863 21.6514C4.74672 21.0494 4.48723 20.2917 4.36621 19.3916C4.24995 18.5267 4.24997 17.4275 4.25 16.0645V10H19.75ZM8 12.25C7.58579 12.25 7.25 12.5858 7.25 13V17C7.25 17.4142 7.58579 17.75 8 17.75C8.41421 17.75 8.75 17.4142 8.75 17V13C8.75 12.5858 8.41421 12.25 8 12.25Z" fill="currentColor"/></svg>
