<svg xmlns="http://www.w3.org/2000/svg" fill="none" viewBox="0 0 48 48">
  <g>
    <path fill="currentColor" fill-opacity="0.4" d="M32 27.5c0 -6.7624 -0.1993 -11.0573 -0.4053 -13.6921 -0.2286 -2.9243 -2.3937 -5.1696 -5.3403 -5.43912C24.1231 8.17384 20.9701 8 16.5001 8c-4.4702 0 -7.62327 0.17385 -9.75451 0.36879 -2.94651 0.26952 -5.1116 2.51471 -5.34023 5.43901C1.19937 16.4426 1 20.7375 1 27.5c0 6.7625 0.19937 11.0574 0.40536 13.6922 0.22863 2.9243 2.39372 5.1695 5.34023 5.439 2.13124 0.195 5.28431 0.3688 9.75451 0.3688 4.47 0 7.623 -0.1738 9.7543 -0.3688 2.9466 -0.2695 5.1117 -2.5148 5.3403 -5.4391C31.8007 38.5573 32 34.2624 32 27.5Z" stroke-width="3.429"></path>
    <path fill="currentColor" fill-rule="evenodd" d="M9.5 13.5c1.1046 0 2 0.8954 2 2v2c0 1.1046 -0.8954 2 -2 2 -1.10457 0 -2 -0.8954 -2 -2v-2c0 -1.1046 0.89543 -2 2 -2Zm-8.49805 13H31.999c-0.0044 -1.4506 -0.0181 -2.781 -0.0391 -4H1.04107c-0.02102 1.219 -0.03477 2.5494 -0.03912 4ZM11.5 31.5c0 -1.1046 -0.8954 -2 -2 -2 -1.10457 0 -2 0.8954 -2 2v2c0 1.1046 0.89543 2 2 2 1.1046 0 2 -0.8954 2 -2v-2Z" clip-rule="evenodd" stroke-width="3.429"></path>
    <path fill="currentColor" fill-rule="evenodd" d="M43.5 14.5c0 -5.52285 -4.4772 -10 -10 -10 -1.1046 0 -2 -0.89543 -2 -2s0.8954 -2 2 -2c7.732 0 14 6.26801 14 14 0 1.1046 -0.8954 2 -2 2s-2 -0.8954 -2 -2Zm-6 0c0 -2.2091 -1.7909 -4 -4 -4 -1.1046 0 -2 -0.89543 -2 -2s0.8954 -2 2 -2c4.4183 0 8 3.5817 8 8 0 1.1046 -0.8954 2 -2 2s-2 -0.8954 -2 -2Z" clip-rule="evenodd" stroke-width="3.429"></path>
  </g>
</svg>
