<svg xmlns="http://www.w3.org/2000/svg" fill="none" viewBox="0 0 48 48">
  <g>
    <path fill="currentColor" fill-rule="evenodd" d="M42.4973 22.5c0.0018 0.4886 0.0027 0.9885 0.0027 1.5 0 8.9916 -0.2867 14.4055 -0.5576 17.5163 -0.2535 2.9114 -2.4128 5.1534 -5.3425 5.4576 -2.5636 0.2662 -6.6014 0.5261 -12.5998 0.5261 -5.9985 0 -10.0364 -0.2599 -12.6 -0.5261 -2.9296 -0.3042 -5.0889 -2.5461 -5.34243 -5.4574C5.78675 38.4057 5.5 32.9918 5.5 24c0 -0.5115 0.00093 -1.0114 0.00273 -1.5H42.4973Zm-0.0232 -3c-0.0764 -6.3595 -0.3094 -10.46339 -0.5317 -13.01632 -0.2535 -2.91134 -2.4128 -5.15337 -5.3425 -5.4576C34.0363 0.759867 29.9985 0.5 24.0001 0.5c-5.9985 0 -10.0364 0.259875 -12.6 0.5261 -2.92959 0.30422 -5.08889 2.54613 -5.34243 5.4574 -0.22233 2.55293 -0.45532 6.6569 -0.53175 13.0165H42.4741ZM13 5.5c0.8284 0 1.5 0.67157 1.5 1.5v8c0 0.8284 -0.6716 1.5 -1.5 1.5s-1.5 -0.6716 -1.5 -1.5V7c0 -0.82843 0.6716 -1.5 1.5 -1.5Zm0 20c0.8284 0 1.5 0.6716 1.5 1.5v8c0 0.8284 -0.6716 1.5 -1.5 1.5s-1.5 -0.6716 -1.5 -1.5v-8c0 -0.8284 0.6716 -1.5 1.5 -1.5Z" clip-rule="evenodd" stroke-width="3.429"></path>
  </g>
</svg>
