<svg xmlns="http://www.w3.org/2000/svg" viewBox="0 0 24 24" fill="none"><path d="M12.0791 1.75C14.2001 1.74997 15.8924 1.75039 17.2188 1.92871C18.5894 2.11307 19.715 2.50403 20.6055 3.39453C21.496 4.28504 21.8869 5.41065 22.0713 6.78125C22.2496 8.10757 22.25 9.79993 22.25 11.9209V12.0791C22.25 14.2001 22.2496 15.8924 22.0713 17.2188C21.8869 18.5894 21.496 19.715 20.6055 20.6055C19.715 21.496 18.5894 21.8869 17.2188 22.0713C15.8924 22.2496 14.2001 22.25 12.0791 22.25H11.9209C9.79993 22.25 8.10757 22.2496 6.78125 22.0713C5.78704 21.9376 4.92278 21.6934 4.18262 21.2305L10.9561 14.457L16.5957 20.0967C16.6195 20.1204 16.6413 20.1454 16.6621 20.1709C16.7633 20.16 16.8629 20.1506 16.959 20.1377C18.1132 19.9825 18.7582 19.6929 19.2256 19.2256C19.693 18.7582 19.9825 18.1132 20.1377 16.959C20.2967 15.7765 20.2988 14.2143 20.2988 12.001C20.2988 9.78779 20.2966 8.22545 20.1377 7.04297C19.9825 5.88871 19.693 5.2428 19.2256 4.77539C18.7582 4.30818 18.113 4.01944 16.959 3.86426C15.7765 3.70528 14.2143 3.70313 12.001 3.70313C9.78766 3.70313 8.22547 3.7053 7.04297 3.86426C5.88871 4.01948 5.2428 4.30798 4.77539 4.77539C4.30803 5.24279 4.01947 5.88878 3.86426 7.04297C3.85203 7.13394 3.84236 7.22762 3.83203 7.32324L3.83008 7.33789C3.85601 7.35898 3.88112 7.3821 3.90527 7.40625L9.54199 13.043L2.76856 19.8164C2.30606 19.0765 2.06237 18.2125 1.92871 17.2188C1.75039 15.8924 1.74997 14.2001 1.75 12.0791V11.9209C1.74997 9.79991 1.75039 8.10758 1.92871 6.78125C2.11307 5.41065 2.50403 4.28504 3.39453 3.39453C4.28504 2.50403 5.41065 2.11307 6.78125 1.92871C8.10758 1.75039 9.79991 1.74997 11.9209 1.75H12.0791Z" fill="currentColor"/><path d="M14.5008 5.25C16.1739 5.25012 17.7618 6.26574 18.4265 7.86426C19.0478 9.35863 18.7014 10.6443 18.0213 11.7041C17.3766 12.7086 16.381 13.5831 15.6502 14.2871C15.3415 14.5843 14.9289 14.7499 14.5008 14.75C14.0728 14.75 13.6609 14.5841 13.3523 14.2871L13.3504 14.2852C12.6235 13.5808 11.626 12.7064 10.9812 11.7041C10.3001 10.6452 9.95289 9.36049 10.575 7.86426C11.2398 6.26573 12.8275 5.25003 14.5008 5.25ZM14.4998 8C13.6715 8.00012 12.9998 8.67166 12.9998 9.5C12.9998 10.3284 13.6715 10.9999 14.4998 11C15.3282 11 15.9998 10.3284 15.9998 9.5C15.9998 8.67157 15.3282 8 14.4998 8Z" fill="currentColor" fill-rule="evenodd" clip-rule="evenodd"/></svg>
