<svg xmlns="http://www.w3.org/2000/svg" viewBox="0 0 24 24" fill="none"><path opacity="0.4" d="M11.9999 20.75C17.3847 20.75 21.7499 16.3848 21.7499 11V10V9.93551C21.75 8.57247 21.75 7.4733 21.6337 6.6084C21.5127 5.70829 21.2532 4.95055 20.6513 4.34863C20.0494 3.74672 19.2917 3.48723 18.3915 3.36621C17.5266 3.24995 16.4274 3.24997 15.0643 3.25H14.9999H8.99994H8.93555C7.57246 3.24997 6.47327 3.24995 5.60834 3.36621C4.70823 3.48723 3.95049 3.74672 3.34857 4.34863C2.74666 4.95055 2.48717 5.70829 2.36615 6.6084C2.24989 7.47333 2.24991 8.57252 2.24994 9.93562V10V11C2.24994 16.3848 6.61516 20.75 11.9999 20.75Z" fill="currentColor"/><path d="M14.793 9.29289C15.1835 8.90237 15.8165 8.90237 16.207 9.29289C16.5975 9.68342 16.5975 10.3164 16.207 10.707L13.5605 13.3534C13.1466 13.7673 12.5853 13.9999 12 13.9999C11.4146 13.9999 10.8533 13.7673 10.4394 13.3534L7.79295 10.707C7.40243 10.3164 7.40243 9.68342 7.79295 9.29289C8.18348 8.90237 8.81649 8.90237 9.20702 9.29289L11.8535 11.9394C11.8923 11.9782 11.9451 11.9999 12 11.9999C12.0549 11.9999 12.1076 11.9782 12.1465 11.9394L14.793 9.29289Z" fill="currentColor"/></svg>
