<svg xmlns="http://www.w3.org/2000/svg" viewBox="0 0 24 24" fill="none"><path d="M15.064 3.25C16.4271 3.24997 17.5263 3.24995 18.3912 3.36621C19.2913 3.48723 20.049 3.74672 20.6509 4.34863C21.2529 4.95055 21.5123 5.70829 21.6334 6.6084C21.7496 7.4733 21.7496 8.5725 21.7496 9.93555V11C21.7496 16.3848 17.3843 20.75 11.9996 20.75C6.6148 20.75 2.24957 16.3848 2.24957 11V9.93555C2.24954 8.57249 2.24952 7.47331 2.36578 6.6084C2.4868 5.70829 2.74629 4.95055 3.34821 4.34863C3.95012 3.74672 4.70786 3.48723 5.60797 3.36621C6.47288 3.24995 7.57206 3.24997 8.93512 3.25H15.064ZM16.2066 9.29297C15.8161 8.90244 15.1831 8.90244 14.7925 9.29297L12.1461 11.9395C12.1072 11.9782 12.0545 12 11.9996 12C11.9447 12 11.8919 11.9782 11.8531 11.9395L9.2066 9.29297C8.81608 8.90244 8.18307 8.90244 7.79254 9.29297C7.40208 9.6835 7.40204 10.3165 7.79254 10.707L10.439 13.3535C10.8529 13.7674 11.4143 14 11.9996 14C12.5849 14 13.1462 13.7674 13.5601 13.3535L16.2066 10.707C16.5971 10.3165 16.5971 9.68349 16.2066 9.29297Z" fill="currentColor"/></svg>
