<svg xmlns="http://www.w3.org/2000/svg" viewBox="0 0 24 24" fill="none"><path opacity="0.4" d="M13.3174 2.96973C13.0183 2.61082 12.6021 2.25 12 2.25C11.3978 2.25 10.9816 2.61083 10.6826 2.96973C10.3892 3.32193 10.0814 3.8295 9.72849 4.40723L8.3906 6.59766C7.99699 7.24207 7.65559 7.79708 7.45993 8.25586C7.26287 8.71801 7.12194 9.28968 7.42576 9.85059C7.73312 10.4178 8.29375 10.6026 8.78904 10.6777C9.26626 10.7501 9.89364 10.75 10.6149 10.75L10.6621 10.75H13.3379L13.385 10.75C14.1063 10.75 14.7337 10.7501 15.2109 10.6777C15.7062 10.6026 16.2668 10.4178 16.5742 9.85059C16.878 9.28968 16.7371 8.71801 16.54 8.25586C16.3444 7.79708 16.003 7.24207 15.6093 6.59766L14.2715 4.40723C13.9186 3.8295 13.6107 3.32193 13.3174 2.96973Z" fill="currentColor"/><path d="M17.5 21.75C19.8472 21.75 21.75 19.8472 21.75 17.5C21.75 15.1528 19.8472 13.25 17.5 13.25C15.1528 13.25 13.25 15.1528 13.25 17.5C13.25 19.8472 15.1528 21.75 17.5 21.75Z" fill="currentColor"/><path d="M10.75 17.5408V17.5V17.4592C10.75 16.7908 10.75 16.233 10.7041 15.7813C10.6559 15.3078 10.5507 14.8686 10.2861 14.4727C10.0855 14.1724 9.82762 13.9145 9.52735 13.7139C9.13139 13.4493 8.69217 13.3441 8.21875 13.2959C7.76705 13.25 7.20926 13.25 6.54097 13.25H6.5H6.45924C5.79085 13.25 5.233 13.25 4.78125 13.2959C4.30783 13.3441 3.86862 13.4493 3.47266 13.7139C3.17238 13.9145 2.9145 14.1724 2.71387 14.4727C2.44934 14.8686 2.34406 15.3078 2.2959 15.7813C2.24996 16.233 2.24998 16.7908 2.25 17.4592V17.5V17.5408C2.24998 18.2092 2.24996 18.767 2.2959 19.2188C2.34406 19.6922 2.44934 20.1314 2.71387 20.5273C2.9145 20.8276 3.17239 21.0855 3.47266 21.2861C3.86862 21.5507 4.30783 21.6559 4.78125 21.7041C5.23298 21.75 5.79082 21.75 6.45919 21.75H6.5H6.54074C7.20914 21.75 7.767 21.75 8.21875 21.7041C8.69217 21.6559 9.13139 21.5507 9.52735 21.2861C9.82762 21.0855 10.0855 20.8276 10.2861 20.5273C10.5507 20.1314 10.6559 19.6922 10.7041 19.2188C10.75 18.767 10.75 18.2092 10.75 17.5408Z" fill="currentColor"/></svg>
