<svg xmlns="http://www.w3.org/2000/svg" viewBox="0 0 24 24" fill="none"><path d="M1.25 18.9668C1.25 16.8957 2.92893 15.2168 5 15.2168C7.07107 15.2168 8.75 16.8957 8.75 18.9668C8.75 21.0379 7.07107 22.7168 5 22.7168C2.92893 22.7168 1.25 21.0379 1.25 18.9668Z" fill="currentColor"/><path opacity="0.4" d="M5 9.9668C5 7.61859 7.16489 5.9668 9.5 5.9668H11C11.5523 5.9668 12 6.41451 12 6.9668C12 7.51908 11.5523 7.9668 11 7.9668H9.5C7.96911 7.9668 7 9.00129 7 9.9668C7 10.9323 7.96911 11.9668 9.5 11.9668H12.5C14.8351 11.9668 17 13.6186 17 15.9668C17 18.315 14.8351 19.9668 12.5 19.9668H11C10.4477 19.9668 10 19.5191 10 18.9668C10 18.4145 10.4477 17.9668 11 17.9668H12.5C14.0309 17.9668 15 16.9323 15 15.9668C15 15.0013 14.0309 13.9668 12.5 13.9668H9.5C7.16489 13.9668 5 12.315 5 9.9668Z" fill="currentColor" fill-rule="evenodd" clip-rule="evenodd"/><path d="M18.25 1.2832C20.7134 1.2832 22.75 3.22583 22.75 5.66992C22.7499 7.07252 22.1563 8.16336 21.0801 9.0791C20.4515 9.61386 19.3255 10.7861 18.8701 11.4551C18.7281 11.6637 18.4906 11.7871 18.2383 11.7832C17.986 11.7792 17.7525 11.6484 17.6172 11.4355C17.1973 10.7743 16.0625 9.62573 15.4199 9.0791C14.3437 8.16336 13.7501 7.07252 13.75 5.66992C13.75 3.22583 15.7866 1.2832 18.25 1.2832ZM18.2598 4.0332C17.4313 4.0332 16.7598 4.70478 16.7598 5.5332C16.7598 6.36163 17.4313 7.0332 18.2598 7.0332C19.0882 7.0332 19.7598 6.36163 19.7598 5.5332C19.7598 4.70478 19.0882 4.0332 18.2598 4.0332Z" fill="currentColor"/></svg>
