<svg xmlns="http://www.w3.org/2000/svg" viewBox="0 0 24 24" fill="none"><path opacity="0.4" d="M20.958 15.7109C21.971 14.9029 22.6504 13.6902 22.7402 12.3135L22.75 12C22.75 10.4947 22.0478 9.15616 20.958 8.28711C21.1129 6.90327 20.6641 5.46193 19.6006 4.39844C18.5369 3.33496 17.0951 2.88482 15.7109 3.04004C14.8419 1.9515 13.5044 1.25 12 1.25C10.4954 1.25 9.15635 1.95089 8.28711 3.04004C6.90357 2.88542 5.46266 3.33541 4.39941 4.39844C3.3362 5.46165 2.88541 6.90307 3.04004 8.28711C1.95089 9.15635 1.25 10.4954 1.25 12L1.25977 12.3135C1.34955 13.6896 2.02772 14.9028 3.04004 15.7109C2.88474 17.0957 3.33572 18.5379 4.39941 19.6016C5.46273 20.6647 6.90351 21.1137 8.28711 20.959C9.15634 22.0485 10.4952 22.75 12 22.75C13.5047 22.75 14.8419 22.0479 15.7109 20.959C17.0952 21.1143 18.5368 20.6652 19.6006 19.6016C20.6646 18.5376 21.1135 17.0955 20.958 15.7109Z" fill="currentColor"/><path d="M14.2929 8.29289C14.6834 7.90237 15.3164 7.90237 15.707 8.29289C16.0975 8.68342 16.0975 9.31643 15.707 9.70696L9.70696 15.707C9.31643 16.0975 8.68342 16.0975 8.29289 15.707C7.90237 15.3164 7.90237 14.6834 8.29289 14.2929L14.2929 8.29289Z" fill="currentColor"/><path d="M9.25 8.25C9.80228 8.25 10.25 8.69772 10.25 9.25C10.25 9.80229 9.80228 10.25 9.25 10.25C8.69772 10.25 8.25 9.80228 8.25 9.25C8.25 8.69772 8.69771 8.25 9.25 8.25Z" fill="currentColor"/><path d="M14.75 13.75C15.3023 13.75 15.75 14.1977 15.75 14.75C15.75 15.3023 15.3023 15.75 14.75 15.75C14.1977 15.75 13.75 15.3023 13.75 14.75C13.75 14.1977 14.1977 13.75 14.75 13.75Z" fill="currentColor"/></svg>
