<svg xmlns="http://www.w3.org/2000/svg" viewBox="0 0 24 24" fill="none"><path d="M12 1.25C13.5044 1.25 14.8419 1.9515 15.7109 3.04004C17.0951 2.88482 18.5369 3.33496 19.6006 4.39844C20.6641 5.46193 21.1129 6.90327 20.958 8.28711C22.0478 9.15616 22.75 10.4947 22.75 12L22.7402 12.3135C22.6504 13.6902 21.971 14.9029 20.958 15.7109C21.1135 17.0955 20.6646 18.5376 19.6006 19.6016C18.5368 20.6652 17.0952 21.1143 15.7109 20.959C14.8419 22.0479 13.5047 22.75 12 22.75C10.4952 22.75 9.15634 22.0485 8.28711 20.959C6.90351 21.1137 5.46273 20.6647 4.39941 19.6016C3.33572 18.5379 2.88474 17.0957 3.04004 15.7109C2.02772 14.9028 1.34955 13.6896 1.25977 12.3135L1.25 12C1.25 10.4954 1.95089 9.15635 3.04004 8.28711C2.88541 6.90307 3.3362 5.46165 4.39941 4.39844C5.46266 3.33541 6.90357 2.88542 8.28711 3.04004C9.15635 1.95089 10.4954 1.25 12 1.25ZM15.707 8.29297C15.3165 7.90244 14.6835 7.90244 14.293 8.29297L8.29297 14.293C7.90244 14.6835 7.90244 15.3165 8.29297 15.707C8.6835 16.0975 9.31653 16.0975 9.70703 15.707L15.707 9.70703C16.0975 9.31653 16.0975 8.6835 15.707 8.29297ZM14.75 13.75C14.1977 13.75 13.75 14.1977 13.75 14.75C13.75 15.3023 14.1977 15.75 14.75 15.75C15.3023 15.75 15.75 15.3023 15.75 14.75C15.75 14.1977 15.3023 13.75 14.75 13.75ZM9.25 8.25C8.69771 8.25 8.25 8.69772 8.25 9.25C8.25 9.80229 8.69772 10.25 9.25 10.25C9.80228 10.25 10.25 9.80229 10.25 9.25C10.25 8.69772 9.80228 8.25 9.25 8.25Z" fill="currentColor"/></svg>
