<svg xmlns="http://www.w3.org/2000/svg" viewBox="0 0 24 24" fill="none"><path opacity="0.4" d="M21.011 6.55957C21.4843 6.08613 21.7502 5.44389 21.7502 4.77441C21.7501 3.38024 20.6198 2.25016 19.2258 2.25C18.5564 2.25 17.9141 2.51597 17.4407 2.98926L7.13597 13.293H4.98949L4.96733 13.293C4.89854 13.293 4.83676 13.2929 4.77855 13.2939L4.59398 13.3027C4.39664 13.3191 4.20125 13.3569 4.01195 13.415C3.90014 13.4494 3.79296 13.4923 3.65557 13.5472L3.64183 13.5527L3.63877 13.554C3.40504 13.6475 3.19629 13.731 3.03832 13.8057C2.92555 13.859 2.72759 13.9553 2.56957 14.124L2.50414 14.2012C2.13312 14.691 2.17244 15.378 2.59691 15.8223C2.78538 16.0195 3.03811 16.1084 3.17308 16.1543C3.32947 16.2074 3.53155 16.2625 3.75827 16.3243L3.80101 16.3359L6.83519 17.1641L7.66429 20.1992L7.67592 20.2419C7.73773 20.4686 7.79281 20.6707 7.84593 20.8271C7.89179 20.9621 7.98072 21.2148 8.17797 21.4033C8.62228 21.8278 9.30923 21.8672 9.79906 21.4961C10.0164 21.3314 10.1336 21.0909 10.1946 20.9619C10.2693 20.8038 10.3529 20.5949 10.4465 20.361L10.4475 20.3584L10.4531 20.3445C10.508 20.2072 10.5509 20.1 10.5852 19.9883C10.6433 19.799 10.6811 19.6036 10.6975 19.4062C10.7075 19.2856 10.7063 19.1662 10.7063 19.0107V16.8643L21.011 6.55957Z" fill="currentColor"/><path d="M17.7504 18.3125C17.7504 18.8765 17.619 19.4331 17.3666 19.9375C16.8063 21.0568 15.1922 21.0089 14.6986 19.8584L13.1313 16.2051L17.7504 11.5869V18.3125Z" fill="currentColor"/><path d="M7.79239 10.8672L4.142 9.30176C2.99142 8.80826 2.94356 7.19407 4.0629 6.63379L4.2543 6.54492C4.70643 6.35066 5.19435 6.25001 5.6879 6.25H12.4115L7.79239 10.8672Z" fill="currentColor"/></svg>
