<svg xmlns="http://www.w3.org/2000/svg" viewBox="0 0 24 24" fill="none"><path opacity="0.4" d="M17.4962 17.3711C19.6344 15.4868 20.7501 13.3171 20.7501 10.5352C20.7499 5.68637 16.8356 1.75 12.0001 1.75C7.16457 1.75 3.25027 5.68637 3.25006 10.5352C3.25006 13.3171 4.36576 15.4868 6.50397 17.3711C7.54983 18.2927 9.26721 20.0364 10.461 21.5303C10.8564 22.0251 11.4462 22.25 12.0001 22.25C12.5539 22.25 13.1437 22.0251 13.5391 21.5303C14.7329 20.0364 16.4503 18.2927 17.4962 17.3711Z" fill="currentColor"/><path d="M13.7926 7.29406C14.1828 6.90325 14.8158 6.90202 15.2067 7.29211C15.5975 7.68225 15.5977 8.3153 15.2076 8.70617L13.4215 10.4952L15.2164 12.2941C15.6062 12.6849 15.6052 13.3181 15.2145 13.7081C14.8236 14.098 14.1905 14.0969 13.8004 13.7062L12.0084 11.9112L10.2164 13.7062C9.82624 14.097 9.19225 14.0983 8.8014 13.7081C8.41075 13.318 8.41062 12.6849 8.80042 12.2941L10.5944 10.4952L8.80921 8.70617C8.41914 8.31531 8.41938 7.68226 8.81019 7.29211C9.20105 6.90206 9.8341 6.90326 10.2242 7.29406L12.0084 9.08019L13.7926 7.29406Z" fill="currentColor"/></svg>
