<svg xmlns="http://www.w3.org/2000/svg" viewBox="0 0 24 24" fill="none"><path d="M11.9998 1.75C16.8353 1.75 20.7496 5.68637 20.7498 10.5352C20.7498 13.3171 19.6341 15.4868 17.4959 17.3711C16.45 18.2927 14.7327 20.0364 13.5389 21.5303C13.1435 22.0251 12.5536 22.25 11.9998 22.25C11.446 22.25 10.8562 22.0251 10.4608 21.5303C9.26697 20.0364 7.54959 18.2927 6.50372 17.3711C4.36552 15.4868 3.24982 13.3171 3.24982 10.5352C3.25003 5.68637 7.16433 1.75 11.9998 1.75ZM15.2068 7.29199C14.8161 6.90199 14.183 6.9034 13.7928 7.29395L12.0086 9.08008L10.2244 7.29395C9.83437 6.90324 9.20125 6.90222 8.81036 7.29199C8.41956 7.68215 8.41932 8.3152 8.80939 8.70605L10.5945 10.4951L8.8006 12.2939C8.41079 12.6848 8.41093 13.3179 8.80157 13.708C9.19244 14.0981 9.82647 14.0969 10.2166 13.7061L12.0086 11.9111L13.8006 13.7061C14.1907 14.0966 14.8238 14.0978 15.2147 13.708C15.6051 13.318 15.6062 12.6848 15.2166 12.2939L13.4217 10.4951L15.2078 8.70605C15.5975 8.31522 15.5974 7.68206 15.2068 7.29199Z" fill="currentColor"/></svg>
