<svg xmlns="http://www.w3.org/2000/svg" viewBox="0 0 24 24" fill="none"><path d="M19.043 1.54289C19.4336 1.15237 20.0666 1.15237 20.4571 1.54289C20.8476 1.93342 20.8476 2.56643 20.4571 2.95696L15.4571 7.95696C15.0666 8.34748 14.4336 8.34748 14.043 7.95696L12.043 5.95696C11.6525 5.56643 11.6525 4.93342 12.043 4.54289C12.4336 4.15237 13.0666 4.15237 13.4571 4.54289L14.7501 5.83586L19.043 1.54289Z" fill="currentColor"/><path opacity="0.4" d="M15.9561 1.25C16.5422 1.24996 17.0732 1.25202 17.54 1.27734L14.75 4.06836L14.3408 3.65918L14.1699 3.50488C13.3451 2.83202 12.1549 2.83207 11.3301 3.50488L11.1592 3.65918C10.2807 4.53787 10.2806 5.96219 11.1592 6.84082L13.1592 8.84082C14.0378 9.71929 15.4622 9.7193 16.3408 8.84082L20.7207 4.45996C20.7469 4.93308 20.75 5.47229 20.75 6.06836V17.8633C20.75 18.403 20.3143 18.8408 19.7773 18.8408H19.6875C19.6572 18.8768 19.6244 18.9161 19.5928 18.96C19.4254 19.1924 19.292 19.4846 19.292 19.8184C19.292 20.152 19.4255 20.4434 19.5928 20.6758C19.6244 20.7198 19.6571 20.7598 19.6875 20.7959H19.7773C20.3142 20.7959 20.7499 21.2329 20.75 21.7725C20.75 22.3122 20.3143 22.75 19.7773 22.75H6.16699C4.55622 22.75 3.2501 21.4375 3.25 19.8184V8.03516C3.24998 6.70606 3.25036 5.61062 3.36621 4.74414C3.48749 3.8374 3.75177 3.0367 4.38965 2.39551C5.02746 1.7544 5.82365 1.48813 6.72559 1.36621C7.5876 1.24974 8.67772 1.24998 10 1.25H15.9561ZM6.16699 18.8398C5.63005 18.8398 5.19434 19.2777 5.19434 19.8174C5.19448 20.357 5.63014 20.7939 6.16699 20.7939H17.5C17.4082 20.5025 17.3477 20.1761 17.3477 19.8174C17.3477 19.4584 17.4081 19.1314 17.5 18.8398H6.16699Z" fill="currentColor" fill-rule="evenodd" clip-rule="evenodd"/></svg>
