<svg xmlns="http://www.w3.org/2000/svg" viewBox="0 0 24 24" fill="none"><path d="M19.0426 1.54289C19.4331 1.15237 20.0661 1.15237 20.4566 1.54289C20.8471 1.93342 20.8471 2.56643 20.4566 2.95696L15.4566 7.95696C15.0661 8.34748 14.4331 8.34748 14.0426 7.95696L12.0426 5.95696C11.652 5.56643 11.652 4.93342 12.0426 4.54289C12.4331 4.15237 13.0661 4.15237 13.4566 4.54289L14.7496 5.83586L19.0426 1.54289Z" fill="currentColor"/><path d="M15.9556 1.25C16.5418 1.24996 17.0727 1.25202 17.5396 1.27734L14.7495 4.06836L14.3403 3.65918L14.1694 3.50488C13.3446 2.83202 12.1544 2.83207 11.3296 3.50488L11.1587 3.65918C10.2802 4.53787 10.2801 5.96219 11.1587 6.84082L13.1587 8.84082C14.0373 9.71929 15.4617 9.7193 16.3403 8.84082L20.7202 4.45996C20.7464 4.93308 20.7495 5.47229 20.7495 6.06836V17.8633C20.7495 18.403 20.3138 18.8408 19.7769 18.8408H19.687C19.6567 18.8768 19.6239 18.9161 19.5923 18.96C19.4249 19.1924 19.2915 19.4846 19.2915 19.8184C19.2916 20.152 19.425 20.4434 19.5923 20.6758C19.624 20.7198 19.6566 20.7598 19.687 20.7959H19.7769C20.3137 20.7959 20.7494 21.2329 20.7495 21.7725C20.7495 22.3122 20.3138 22.75 19.7769 22.75H6.1665C4.55573 22.75 3.24961 21.4375 3.24951 19.8184V8.03516C3.24949 6.70606 3.24987 5.61062 3.36572 4.74414C3.487 3.8374 3.75128 3.0367 4.38916 2.39551C5.02698 1.7544 5.82316 1.48813 6.7251 1.36621C7.58711 1.24974 8.67723 1.24998 9.99951 1.25H15.9556ZM6.1665 18.8398C5.62956 18.8398 5.19385 19.2777 5.19385 19.8174C5.19399 20.357 5.62965 20.7939 6.1665 20.7939H17.4995C17.4077 20.5025 17.3472 20.1761 17.3472 19.8174C17.3472 19.4584 17.4076 19.1314 17.4995 18.8398H6.1665Z" fill="currentColor" fill-rule="evenodd" clip-rule="evenodd"/></svg>
