<svg xmlns="http://www.w3.org/2000/svg" fill="none" viewBox="0 0 48 48">
  <g>
    <path fill="currentColor" fill-opacity="0.4" fill-rule="evenodd" d="M24.6506 16.4298c-0.2305 0.9089 -1.0594 1.3937 -1.9958 1.4427C21.4646 17.9347 19.4044 18 16 18s-5.4646 -0.0653 -6.65484 -0.1275c-0.93639 -0.049 -1.76525 -0.5338 -1.99572 -1.4427C7.16252 15.6926 7 14.5935 7 13c0 -1.5935 0.16252 -2.6926 0.34944 -3.42977 0.23047 -0.9089 1.05932 -1.39376 1.99571 -1.44271C10.5354 8.06531 12.5956 8 16 8s5.4646 0.06531 6.6548 0.12752c0.9364 0.04895 1.7653 0.53381 1.9958 1.44271C24.8375 10.3074 25 11.4065 25 13s-0.1625 2.6926 -0.3494 3.4298ZM9.5219 32.5221c1.0341 0.2119 2.5612 0.4872 4.4754 0.7248 -0.1808 1.5362 -0.3756 3.5428 -0.5369 6.0349 -0.0556 0.8603 0.9261 1.358 1.5741 0.7892 3.3185 -2.9131 6.4115 -6.311 7.9494 -8.0643 0.4811 -0.5485 0.209 -1.3807 -0.5057 -1.5272 -1.0342 -0.212 -2.5612 -0.4872 -4.4754 -0.7248 0.1807 -1.5362 0.3755 -3.5429 0.5368 -6.0349 0.0557 -0.8604 -0.9261 -1.3581 -1.574 -0.7893 -3.3185 2.9132 -6.4116 6.311 -7.94943 8.0643 -0.48111 0.5485 -0.20903 1.3808 0.50573 1.5273Z" clip-rule="evenodd" stroke-width="1"></path>
    <path fill="#8fbffa" d="M37.3484 7.0735c-1.1491 0.06431 -2.036 0.81225 -2.1742 1.95484C35.0774 9.82835 35 10.9521 35 12.5c0 0.1112 0.0004 0.2202 0.0012 0.3271C35.0241 15.9813 37.3457 18 40.5 18s5.4759 -2.0187 5.4988 -5.1729c0.0008 -0.1069 0.0012 -0.2159 0.0012 -0.3271 0 -1.5479 -0.0774 -2.67165 -0.1742 -3.47166 -0.1382 -1.14259 -1.0251 -1.89053 -2.1742 -1.95484C42.9089 7.03193 41.887 7 40.5 7c-1.387 0 -2.4089 0.03193 -3.1516 0.0735Z" stroke-width="1"></path>
    <path fill="#8fbffa" d="M30 41.0052C30 43.2143 28.2104 45 26.0012 45L16 45 5.99875 45C3.78961 45 2 43.2143 2 41.0052l0 -16.5418c0 -6.6848 0.1455 -11.585 0.30056 -14.90912 0.15542 -3.33206 2.53193 -6.00495 5.85702 -6.27071C10.1672 3.12296 12.7628 3 16 3c3.2372 0 5.8328 0.12295 7.8424 0.28357 3.3251 0.26575 5.7016 2.93865 5.857 6.27072C29.8545 12.8784 30 17.7786 30 24.4634l0 16.5418Z" stroke-width="1"></path>
    <path fill="currentColor" fill-opacity="0.4" d="M22.6548 17.8725c0.9364 -0.049 1.7653 -0.5338 1.9958 -1.4427C24.8375 15.6926 25 14.5935 25 13c0 -1.5935 -0.1625 -2.6926 -0.3494 -3.42977 -0.2305 -0.9089 -1.0594 -1.39376 -1.9958 -1.44271C21.4646 8.06531 19.4044 8 16 8s-5.4646 0.06531 -6.65485 0.12752c-0.93639 0.04895 -1.76524 0.53381 -1.99571 1.44271C7.16252 10.3074 7 11.4065 7 13s0.16252 2.6926 0.34944 3.4298c0.23047 0.9089 1.05933 1.3937 1.99572 1.4427C10.5354 17.9347 12.5956 18 16 18s5.4646 -0.0653 6.6548 -0.1275Z" stroke-width="1"></path>
    <path fill="currentColor" fill-opacity="0.4" d="M13.9973 33.2469c-1.9142 -0.2376 -3.4413 -0.5129 -4.4754 -0.7248 -0.71476 -0.1465 -0.98684 -0.9788 -0.50573 -1.5273 1.53783 -1.7533 4.63093 -5.1511 7.94943 -8.0643 0.6479 -0.5688 1.6297 -0.0711 1.574 0.7893 -0.1613 2.492 -0.3561 4.4987 -0.5368 6.0349 1.9142 0.2376 3.4412 0.5128 4.4754 0.7248 0.7147 0.1465 0.9868 0.9787 0.5057 1.5272 -1.5379 1.7533 -4.6309 5.1512 -7.9494 8.0643 -0.648 0.5688 -1.6297 0.0711 -1.5741 -0.7892 0.1613 -2.4921 0.3561 -4.4987 0.5369 -6.0349Z" stroke-width="1"></path>
    <path stroke="currentColor" stroke-linecap="round" stroke-linejoin="round" d="M30 38h11.3619C43.9234 38 46 35.9234 46 33.3619c0 -1.484 -0.71 -2.8783 -1.9101 -3.7511l-1.9426 -1.4128c-1.035 -0.7527 -1.6473 -1.9552 -1.6473 -3.2349V18" stroke-width="1"></path>
    <path stroke="currentColor" stroke-linejoin="round" d="M37.3484 7.0735c-1.1491 0.06431 -2.036 0.81225 -2.1742 1.95484C35.0774 9.82835 35 10.9521 35 12.5c0 0.1112 0.0004 0.2202 0.0012 0.3271C35.0241 15.9813 37.3457 18 40.5 18s5.4759 -2.0187 5.4988 -5.1729c0.0008 -0.1069 0.0012 -0.2159 0.0012 -0.3271 0 -1.5479 -0.0774 -2.67165 -0.1742 -3.47166 -0.1382 -1.14259 -1.0251 -1.89053 -2.1742 -1.95484C42.9089 7.03193 41.887 7 40.5 7c-1.387 0 -2.4089 0.03193 -3.1516 0.0735Z" stroke-width="1"></path>
    <path stroke="currentColor" stroke-linecap="round" stroke-linejoin="round" d="M43.5 7V3" stroke-width="1"></path>
    <path stroke="currentColor" stroke-linecap="round" stroke-linejoin="round" d="M37.5 7V3" stroke-width="1"></path>
    <path stroke="currentColor" stroke-linejoin="round" d="M30 41.0052C30 43.2143 28.2104 45 26.0012 45L16 45 5.99875 45C3.78961 45 2 43.2143 2 41.0052l0 -16.5418c0 -6.6848 0.1455 -11.585 0.30056 -14.90912 0.15542 -3.33206 2.53193 -6.00495 5.85702 -6.27071C10.1672 3.12296 12.7628 3 16 3c3.2372 0 5.8328 0.12295 7.8424 0.28357 3.3251 0.26575 5.7016 2.93865 5.857 6.27072C29.8545 12.8784 30 17.7786 30 24.4634l0 16.5418Z" stroke-width="1"></path>
    <path stroke="currentColor" stroke-linejoin="round" d="M22.6548 17.8725c0.9364 -0.049 1.7653 -0.5338 1.9958 -1.4427C24.8375 15.6926 25 14.5935 25 13c0 -1.5935 -0.1625 -2.6926 -0.3494 -3.42977 -0.2305 -0.9089 -1.0594 -1.39376 -1.9958 -1.44271C21.4646 8.06531 19.4044 8 16 8s-5.4646 0.06531 -6.65485 0.12752c-0.93639 0.04895 -1.76524 0.53381 -1.99571 1.44271C7.16252 10.3074 7 11.4065 7 13s0.16252 2.6926 0.34944 3.4298c0.23047 0.9089 1.05933 1.3937 1.99572 1.4427C10.5354 17.9347 12.5956 18 16 18s5.4646 -0.0653 6.6548 -0.1275Z" stroke-width="1"></path>
    <path stroke="currentColor" stroke-linejoin="round" d="M13.9973 33.2469c-1.9142 -0.2376 -3.4413 -0.5129 -4.4754 -0.7248 -0.71476 -0.1465 -0.98684 -0.9788 -0.50573 -1.5273 1.53783 -1.7533 4.63093 -5.1511 7.94943 -8.0643 0.6479 -0.5688 1.6297 -0.0711 1.574 0.7893 -0.1613 2.492 -0.3561 4.4987 -0.5368 6.0349 1.9142 0.2376 3.4412 0.5128 4.4754 0.7248 0.7147 0.1465 0.9868 0.9787 0.5057 1.5272 -1.5379 1.7533 -4.6309 5.1512 -7.9494 8.0643 -0.648 0.5688 -1.6297 0.0711 -1.5741 -0.7892 0.1613 -2.4921 0.3561 -4.4987 0.5369 -6.0349Z" stroke-width="1"></path>
  </g>
</svg>
