<svg xmlns="http://www.w3.org/2000/svg" fill="none" viewBox="0 0 48 48">
  <g>
    <path fill="currentColor" fill-rule="evenodd" d="M44.471 2.5861c0.9472 -0.5683 2.1757 -0.26117 2.744 0.68599 0.5683 0.94716 0.2612 2.17568 -0.686 2.74398L44 7.53346v4.28004c0 1.9528 -0.9644 3.9287 -2.8531 4.9551 -1.0716 0.5824 -2.1673 1.1019 -2.9862 1.4727L38 18.3137v2.5402c0 0.3748 0.1053 0.7421 0.304 1.06l3.48 5.568c0.7946 1.2714 1.216 2.7406 1.216 4.24v0.2792c0 4.4183 -3.5817 8 -8 8h-5c-1.1046 0 -2 -0.8954 -2 -2s0.8954 -2 2 -2h5c2.2091 0 4 -1.7909 4 -4v-0.2792c0 -0.7497 -0.2107 -1.4843 -0.608 -2.12l-3.48 -5.568c-0.596 -0.9536 -0.912 -2.0555 -0.912 -3.18v-8.5881c0 -2.1075 1.1058 -4.06057 2.913 -5.14491l7.558 -4.53479Z" clip-rule="evenodd" stroke-width="1"></path>
    <path fill="currentColor" fill-opacity="0.4" fill-rule="evenodd" d="M26.0012 46.5c3.0357 0 5.4988 -2.4554 5.4988 -5.4948V24.4634c0 -6.7065 -0.146 -11.6301 -0.3022 -14.979 -0.1875 -4.01979 -3.093 -7.36495 -7.2359 -7.69606C21.9107 1.62439 19.2751 1.5 16 1.5c-3.2752 0 -5.9107 0.1244 -7.96193 0.28834C3.89524 2.11945 0.989689 5.46461 0.802184 9.48439 0.64597 12.8333 0.5 17.7569 0.5 24.4634v16.5418C0.5 44.0446 2.96309 46.5 5.99875 46.5H26.0012Z" clip-rule="evenodd" stroke-width="1"></path>
    <path fill="currentColor" fill-rule="evenodd" d="M26.5 13c0 1.6934 -0.1725 2.9192 -0.3955 3.7985 -0.4427 1.7461 -2.011 2.5008 -3.3714 2.5719 -1.2236 0.064 -3.3112 0.1296 -6.7331 0.1296 -3.4219 0 -5.5095 -0.0656 -6.73314 -0.1296 -1.36038 -0.0711 -2.92862 -0.8258 -3.37141 -2.5719C5.6725 15.9192 5.5 14.6934 5.5 13s0.1725 -2.9192 0.39545 -3.79846c0.44279 -1.74618 2.01103 -2.50086 3.37141 -2.57197C10.4905 6.56561 12.5781 6.5 16 6.5c3.4219 0 5.5095 0.06561 6.7331 0.12957 1.3604 0.0711 2.9287 0.82579 3.3714 2.57196 0.223 0.87927 0.3955 2.10507 0.3955 3.79847Zm-9.8642 11.5537c0.9944 -0.8729 2.4863 -0.0919 2.4028 1.1973 -0.1452 2.2435 -0.3175 4.0963 -0.4827 5.5693 1.6998 0.224 3.0677 0.4726 4.0227 0.6683 1.0982 0.2251 1.5102 1.5157 0.7812 2.3468 -1.5429 1.7591 -4.6526 5.1759 -7.9954 8.1103 -0.9944 0.8729 -2.4863 0.0919 -2.4028 -1.1972 0.1452 -2.2435 0.3175 -4.0963 0.4827 -5.5693 -1.6998 -0.2241 -3.0677 -0.4726 -4.02273 -0.6684 -1.09817 -0.225 -1.51016 -1.5156 -0.78122 -2.3467 1.54295 -1.7591 4.65265 -5.1759 7.99545 -8.1104Z" clip-rule="evenodd" stroke-width="1"></path>
  </g>
</svg>
