<svg xmlns="http://www.w3.org/2000/svg" fill="none" viewBox="0 0 48 48">
  <g>
    <path fill="currentColor" fill-rule="evenodd" d="M26.0012 46.5c3.0357 0 5.4988 -2.4554 5.4988 -5.4948v-1.0041H35c4.4183 0 8 -3.5817 8 -8v-0.2792c0 -1.4994 -0.4214 -2.9686 -1.216 -4.24l-3.48 -5.568c-0.1987 -0.3179 -0.304 -0.6852 -0.304 -1.06v-2.5402l0.1607 -0.0724c0.8189 -0.3708 1.9146 -0.8903 2.9862 -1.4727C43.0356 15.7422 44 13.7663 44 11.8135V7.53346l2.529 -1.51739c0.9472 -0.5683 1.2543 -1.79682 0.686 -2.74398 -0.5683 -0.94716 -1.7968 -1.25429 -2.744 -0.68599l-7.558 4.53479C35.1058 8.20523 34 10.1583 34 12.2658v8.5881c0 1.1245 0.316 2.2264 0.912 3.18l3.48 5.568c0.3973 0.6357 0.608 1.3703 0.608 2.12v0.2792c0 2.2091 -1.7909 4 -4 4h-3.5V24.4634c0 -6.7065 -0.146 -11.6301 -0.3022 -14.979 -0.1875 -4.01979 -3.093 -7.36495 -7.2359 -7.69606C21.9107 1.62439 19.2751 1.5 16 1.5c-3.2752 0 -5.9107 0.1244 -7.96193 0.28834C3.89524 2.11945 0.989689 5.46461 0.802184 9.48439 0.64597 12.8333 0.5 17.7569 0.5 24.4634v16.5418C0.5 44.0446 2.96309 46.5 5.99875 46.5H26.0012ZM26.5 13c0 1.6934 -0.1725 2.9192 -0.3955 3.7985 -0.4427 1.7461 -2.011 2.5008 -3.3714 2.5719 -1.2236 0.064 -3.3112 0.1296 -6.7331 0.1296 -3.4219 0 -5.5095 -0.0656 -6.73314 -0.1296 -1.36038 -0.0711 -2.92862 -0.8258 -3.37141 -2.5719C5.6725 15.9192 5.5 14.6934 5.5 13s0.1725 -2.9192 0.39545 -3.79846c0.44279 -1.74618 2.01103 -2.50086 3.37141 -2.57197C10.4905 6.56561 12.5781 6.5 16 6.5c3.4219 0 5.5095 0.06561 6.7331 0.12957 1.3604 0.07111 2.9287 0.82579 3.3714 2.57196 0.223 0.87927 0.3955 2.10507 0.3955 3.79847Zm-9.8642 11.5537c0.9944 -0.8729 2.4863 -0.0919 2.4028 1.1973 -0.1452 2.2435 -0.3175 4.0963 -0.4827 5.5693 1.6998 0.224 3.0677 0.4726 4.0227 0.6683 1.0982 0.2251 1.5102 1.5157 0.7812 2.3468 -1.5429 1.7591 -4.6526 5.1759 -7.9954 8.1103 -0.9944 0.8729 -2.4863 0.0919 -2.4028 -1.1972 0.1452 -2.2435 0.3175 -4.0963 0.4827 -5.5693 -1.6998 -0.2241 -3.0677 -0.4726 -4.02273 -0.6684 -1.09817 -0.225 -1.51016 -1.5156 -0.78122 -2.3467 1.54295 -1.7591 4.65265 -5.1759 7.99545 -8.1104Z" clip-rule="evenodd" stroke-width="3.429"></path>
  </g>
</svg>
