<svg xmlns="http://www.w3.org/2000/svg" viewBox="0 0 24 24" fill="none"><path opacity="0.4" d="M12.003 1.24963C17.8565 1.24963 22.6143 5.92808 22.7472 11.7496H20.003C18.7604 11.7496 17.753 12.757 17.753 13.9996V21.0797C16.0897 22.1352 14.1188 22.7496 12.003 22.7496C6.06596 22.7496 1.25302 17.9367 1.25302 11.9996C1.25302 6.06257 6.06596 1.24963 12.003 1.24963Z" fill="currentColor"/><path d="M19.003 17.9996V13.9996C19.003 13.4473 19.4507 12.9996 20.003 12.9996C20.5553 12.9996 21.003 13.4473 21.003 13.9996V17.9996C21.003 18.5519 20.5553 18.9996 20.003 18.9996C19.4507 18.9996 19.003 18.5519 19.003 17.9996Z" fill="currentColor"/><path d="M20.003 20.7496C20.5553 20.7496 21.003 21.1974 21.003 21.7496C21.003 22.3019 20.5553 22.7496 20.003 22.7496C19.4507 22.7496 19.003 22.3019 19.003 21.7496C19.003 21.1974 19.4507 20.7496 20.003 20.7496Z" fill="currentColor"/><path d="M12.003 6.99963C12.5553 6.99963 13.003 7.44735 13.003 7.99963V11.5854L14.7101 13.2925C15.1007 13.6831 15.1007 14.3162 14.7101 14.7067C14.3196 15.0973 13.6864 15.0973 13.2959 14.7067L11.2959 12.7067C11.1084 12.5192 11.003 12.2649 11.003 11.9996V7.99963C11.003 7.44735 11.4507 6.99963 12.003 6.99963Z" fill="currentColor" fill-rule="evenodd" clip-rule="evenodd"/></svg>
