<svg xmlns="http://www.w3.org/2000/svg" fill="none" viewBox="0 0 48 48">
  <g>
    <path stroke="currentColor" d="M36.6603 3.7926c2.5089 0.2136 4.4763 2.135 4.6925 4.6437 0.282 3.274 0.587 8.4573 0.587 15.5637 0 8.6438 -0.2256 14.8652 -0.3818 18.1362 -0.071 1.4861 -1.2979 2.6362 -2.7857 2.6362H9.2382c-1.4922 0 -2.7219 -1.1557 -2.7915 -2.6463 -0.1563 -3.348 -0.3865 -9.7073 -0.3865 -18.1261 0 -6.9323 0.3121 -12.1757 0.5969 -15.5168 0.2157 -2.5309 2.1983 -4.4798 4.7293 -4.6945 3.1513 -0.2674 7.7258 -0.5611 12.6136 -0.5611 4.912 0 9.5076 0.2967 12.6603 0.565Z" stroke-width="3.429"></path>
    <path stroke="currentColor" stroke-linejoin="round" d="M28.6752 44.7724h-9.3504c-0.0269 -0.958 -0.0458 -2.1944 -0.0458 -3.7768 0 -2.0946 0.0331 -3.583 0.0739 -4.6219 0.0553 -1.4046 0.8403 -2.593 2.2327 -2.7854 0.6237 -0.0863 1.4164 -0.1463 2.4144 -0.1463s1.7907 0.06 2.4144 0.1463c1.3924 0.1924 2.1774 1.3808 2.2327 2.7854 0.0408 1.0389 0.0739 2.5273 0.0739 4.6219 0 1.5824 -0.0189 2.8188 -0.0458 3.7768Z" stroke-width="3.429"></path>
    <path stroke="currentColor" stroke-linecap="round" stroke-linejoin="round" d="M20.2232 11.7254h-7.5536" stroke-width="3.429"></path>
    <path stroke="currentColor" stroke-linecap="round" stroke-linejoin="round" d="M35.3304 11.7254h-7.5536" stroke-width="3.429"></path>
    <path stroke="currentColor" stroke-linecap="round" stroke-linejoin="round" d="M20.2232 18.3348h-7.5536" stroke-width="3.429"></path>
    <path stroke="currentColor" stroke-linecap="round" stroke-linejoin="round" d="M35.3304 18.3348h-7.5536" stroke-width="3.429"></path>
    <path stroke="currentColor" stroke-linecap="round" stroke-linejoin="round" d="M20.2232 24.9442h-7.5536" stroke-width="3.429"></path>
    <path stroke="currentColor" stroke-linecap="round" stroke-linejoin="round" d="M35.3304 24.9442h-7.5536" stroke-width="3.429"></path>
  </g>
</svg>
