<svg xmlns="http://www.w3.org/2000/svg" fill="none" viewBox="0 0 48 48">
  <g>
    <path fill="currentColor" fill-rule="evenodd" d="M11.1623 5.07349C14.3771 4.79978 19.0345 4.5 24.0005 4.5c4.9905 0 9.6695 0.30276 12.8856 0.57755 1.6354 0.13973 2.8786 1.37568 3.0167 2.98471 0.286 3.33184 0.5981 8.63964 0.5981 15.93804 0 8.9122 -0.2318 15.3198 -0.3914 18.6767 -0.0219 0.4592 -0.3957 0.8236 -0.8751 0.8236h-9.3762c0.0062 -0.576 0.0097 -1.2111 0.0097 -1.9106 0 -2.1782 -0.0343 -3.732 -0.077 -4.823 -0.0696 -1.7763 -1.1045 -3.5488 -3.1643 -3.8345 -0.6944 -0.0963 -1.5582 -0.1608 -2.6272 -0.1608 -1.069 0 -1.9328 0.0645 -2.6272 0.1608 -2.0598 0.2857 -3.0947 2.0582 -3.1643 3.8345 -0.0427 1.091 -0.077 2.6448 -0.077 4.823 0 0.6995 0.0035 1.3346 0.0097 1.9106H8.77732c-0.48132 0 -0.85932 -0.3672 -0.88094 -0.832C7.7364 39.2292 7.5 32.6784 7.5 24.0003c0 -7.1155 0.3192 -12.4861 0.60836 -15.89134 0.139 -1.63702 1.40273 -2.89487 3.05394 -3.03547ZM24.0005 0.5c-5.1153 0 -9.8927 0.308233 -13.1775 0.58791 -3.56903 0.30388 -6.39442 3.08036 -6.7003 6.68261C3.82456 11.2816 3.5 16.7653 3.5 24.0003c0 8.7495 0.23832 15.3631 0.4007 18.8542 0.12191 2.6209 2.28014 4.6461 4.87662 4.6461H39.2344c2.5892 0 4.746 -2.0163 4.8705 -4.6335 0.1625 -3.4144 0.396 -9.8857 0.396 -18.8668 0 -7.4126 -0.317 -12.8345 -0.6127 -16.28013 -0.3077 -3.58421 -3.1223 -6.3257 -6.6616 -6.6281C33.9404 0.811287 29.141 0.5 24.0005 0.5Zm-1.895 10.7956c0 1.1045 -0.8955 2 -2 2h-7.7897c-1.1046 0 -2 -0.8955 -2 -2 0 -1.1046 0.8954 -2.00005 2 -2.00005h7.7897c1.1045 0 2 0.89545 2 2.00005Zm13.58 2c1.1046 0 2 -0.8955 2 -2 0 -1.1046 -0.8954 -2.00005 -2 -2.00005h-7.7896c-1.1046 0 -2 0.89545 -2 2.00005 0 1.1045 0.8954 2 2 2h7.7896Zm-13.58 4.8427c0 1.1045 -0.8955 2 -2 2h-7.7897c-1.1046 0 -2 -0.8955 -2 -2 0 -1.1046 0.8954 -2 2 -2h7.7897c1.1045 0 2 0.8954 2 2Zm13.58 2c1.1046 0 2 -0.8955 2 -2 0 -1.1046 -0.8954 -2 -2 -2h-7.7896c-1.1046 0 -2 0.8954 -2 2 0 1.1045 0.8954 2 2 2h7.7896Zm-13.58 4.8388c0 1.1046 -0.8955 2 -2 2h-7.7897c-1.1046 0 -2 -0.8954 -2 -2s0.8954 -2 2 -2h7.7897c1.1045 0 2 0.8954 2 2Zm13.58 2c1.1046 0 2 -0.8954 2 -2s-0.8954 -2 -2 -2h-7.7896c-1.1046 0 -2 0.8954 -2 2s0.8954 2 2 2h7.7896Z" clip-rule="evenodd" stroke-width="1"></path>
  </g>
</svg>
