<svg xmlns="http://www.w3.org/2000/svg" fill="none" viewBox="0 0 48 48">
  <g>
    <path fill="currentColor" fill-opacity="0.4" d="M23.9999 39.5c3.9857 0 7.6541 -0.2647 10.6396 -0.5858 5.2076 -0.5601 9.248 -4.9944 8.6324 -10.3753 -0.8145 -7.1192 -3.2132 -14.0219 -6.5427 -19.18541C33.4476 4.26426 29.0047 0.5 23.9999 0.5 18.995 0.499998 14.5521 4.26426 11.2706 9.35349 7.94106 14.517 5.54235 21.4197 4.72787 28.5389c-0.61561 5.3809 3.42473 9.8152 8.63243 10.3753 2.9855 0.3211 6.6539 0.5858 10.6396 0.5858Z" stroke-width="1"></path>
    <path fill="currentColor" fill-rule="evenodd" d="M13.25 45.75c0 -0.9665 0.7835 -1.75 1.75 -1.75h18c0.9665 0 1.75 0.7835 1.75 1.75S33.9665 47.5 33 47.5H15c-0.9665 0 -1.75 -0.7835 -1.75 -1.75Z" clip-rule="evenodd" stroke-width="1"></path>
    <path fill="currentColor" d="M26.4528 16.1844c-0.0555 -1.059 -0.54 -2.1178 -1.5766 -2.3419 -0.2613 -0.0565 -0.5541 -0.0925 -0.8762 -0.0925 -0.3221 0 -0.6149 0.036 -0.8762 0.0925 -1.0365 0.2241 -1.5211 1.2829 -1.5765 2.3419l-0.4388 8.3842c-0.3082 -0.18 -0.6344 -0.3695 -0.9793 -0.5686 -1.5017 -0.8671 -2.6696 -1.5193 -3.5303 -1.9899 -1.153 -0.6303 -2.5299 -0.4528 -3.2107 0.6711 -0.0453 0.0749 -0.0914 0.1528 -0.1382 0.2338 -0.0467 0.081 -0.0912 0.1599 -0.1333 0.2366 -0.633 1.1515 -0.0982 2.4327 1.0241 3.116 0.8379 0.5102 1.9867 1.1955 3.4884 2.0625 1.3113 0.7571 2.3681 1.3505 3.1881 1.802L20 45.75h8l-1.0276 -19.6352c0.8155 -0.4494 1.8621 -1.0372 3.1567 -1.7847 1.5018 -0.867 2.6506 -1.5523 3.4884 -2.0625 1.1224 -0.6833 1.6571 -1.9645 1.0241 -3.116 -0.0421 -0.0767 -0.0865 -0.1556 -0.1333 -0.2366 -0.0467 -0.081 -0.0928 -0.1589 -0.1382 -0.2338 -0.6808 -1.1239 -2.0577 -1.3013 -3.2107 -0.6711 -0.8607 0.4706 -2.0285 1.1228 -3.5303 1.9899 -0.3331 0.1923 -0.649 0.3757 -0.9479 0.5503l-0.2284 -4.3659Z" stroke-width="1"></path>
  </g>
</svg>
