<svg xmlns="http://www.w3.org/2000/svg" viewBox="0 0 24 24" fill="none"><path d="M17.501 10.3334C20.3916 10.3334 22.7509 12.6502 22.751 15.5277C22.751 17.1805 22.0683 18.4689 20.8047 19.5638C20.118 20.1588 18.9186 21.4148 18.2832 22.2758C17.8898 22.8089 17.0926 22.7896 16.7168 22.2601C16.1089 21.4037 14.8937 20.1673 14.1973 19.5638C12.9336 18.4689 12.251 17.1805 12.251 15.5277C12.251 12.6502 14.6103 10.3334 17.501 10.3334ZM17.501 13.5834C16.3964 13.5834 15.501 14.4788 15.501 15.5834C15.501 16.6879 16.3964 17.5834 17.501 17.5834H17.5098C18.6143 17.5834 19.5098 16.6879 19.5098 15.5834C19.5098 14.4788 18.6143 13.5834 17.5098 13.5834H17.501Z" fill="currentColor"/><path opacity="0.4" d="M1.25098 10.164C1.25098 5.2941 5.16141 1.33337 10.001 1.33337C14.4255 1.33337 18.0735 4.64395 18.6666 8.93319C18.2875 8.86756 17.898 8.83337 17.501 8.83337C16.2341 8.83337 15.0435 9.18148 14.0254 9.78878C13.8746 7.71719 12.1462 6.08337 10.0361 6.08337C7.82699 6.08337 6.03613 7.87424 6.03613 10.0834C6.03613 12.2925 7.82699 14.0834 10.0361 14.0834C10.3438 14.0834 10.6433 14.0486 10.931 13.9829C10.8133 14.4781 10.751 14.9952 10.751 15.5278C10.751 17.3407 11.4062 18.8207 12.5338 20.0403C11.8531 20.8085 11.228 21.5794 10.8019 22.2219C10.4224 22.794 9.57952 22.794 9.2001 22.2219C8.13212 20.6116 5.81439 18.1953 4.50356 17.0337C2.3654 15.1389 1.25098 12.9588 1.25098 10.164Z" fill="currentColor"/></svg>
