<svg xmlns="http://www.w3.org/2000/svg" viewBox="0 0 24 24" fill="none"><path d="M12.0003 18.8749C13.6251 18.8749 15.1546 19.2809 16.4759 19.9951C16.9618 20.2577 17.1428 20.8647 16.8802 21.3505C16.6176 21.8364 16.0106 22.0174 15.5247 21.7548C14.4927 21.197 13.2899 20.8749 12.0003 20.8749C10.7108 20.8749 9.50796 21.197 8.47592 21.7548C7.99007 22.0174 7.38306 21.8364 7.12045 21.3505C6.85785 20.8647 7.0389 20.2577 7.52475 19.9951C8.84609 19.2809 10.3756 18.8749 12.0003 18.8749Z" fill="currentColor"/><path opacity="0.4" d="M22.75 10.9394V10.8749V8.87494V8.81051C22.75 7.44744 22.7501 6.34826 22.6338 5.48334C22.5128 4.58323 22.2533 3.82549 21.6514 3.22357C21.0495 2.62166 20.2917 2.36217 19.3916 2.24115C18.5267 2.12489 17.4275 2.12491 16.0644 2.12494H16H8H7.93562C6.57252 2.12491 5.47333 2.12489 4.6084 2.24115C3.70829 2.36217 2.95055 2.62166 2.34864 3.22357C1.74672 3.82549 1.48723 4.58323 1.36621 5.48334C1.24995 6.34827 1.24997 7.44746 1.25 8.81056V8.87494V10.8749V10.9393C1.24997 12.3024 1.24995 13.4016 1.36621 14.2665C1.48723 15.1667 1.74672 15.9244 2.34864 16.5263C2.95055 17.1282 3.70829 17.3877 4.6084 17.5087C5.47332 17.625 6.5725 17.625 7.93557 17.6249H8H16H16.0644C17.4275 17.625 18.5267 17.625 19.3916 17.5087C20.2917 17.3877 21.0495 17.1282 21.6514 16.5263C22.2533 15.9244 22.5128 15.1667 22.6338 14.2665C22.7501 13.4016 22.75 12.3024 22.75 10.9394Z" fill="currentColor"/><path d="M13 6.87494L13 9.87494C13 10.4272 12.5523 10.8749 12 10.8749C11.4477 10.8749 11 10.4272 11 9.87494L11 6.87494C11 6.32265 11.4477 5.87494 12 5.87494C12.5523 5.87494 13 6.32265 13 6.87494Z" fill="currentColor"/><path d="M12.1026 12.3804C12.6068 12.4317 13 12.8577 13 13.3755C12.9998 13.9275 12.5525 14.3747 12.0005 14.3749C11.4828 14.3749 11.0567 13.9817 11.0054 13.4775L11 13.3755L11.0054 13.2724C11.0568 12.7683 11.4829 12.3749 12.0005 12.3749L12.1026 12.3804Z" fill="currentColor"/></svg>
