<svg xmlns="http://www.w3.org/2000/svg" viewBox="0 0 24 24" fill="none"><path d="M12.0003 18.8749C13.6251 18.8749 15.1546 19.2809 16.4759 19.9951C16.9618 20.2577 17.1428 20.8647 16.8802 21.3505C16.6176 21.8364 16.0106 22.0174 15.5247 21.7548C14.4927 21.197 13.2899 20.8749 12.0003 20.8749C10.7108 20.8749 9.50796 21.197 8.47592 21.7548C7.99007 22.0174 7.38306 21.8364 7.12045 21.3505C6.85785 20.8647 7.0389 20.2577 7.52475 19.9951C8.84609 19.2809 10.3756 18.8749 12.0003 18.8749Z" fill="currentColor"/><path d="M16.0645 2.12494C17.4275 2.12491 18.5267 2.12489 19.3916 2.24115C20.2917 2.36217 21.0494 2.62166 21.6514 3.22357C22.2533 3.82549 22.5128 4.58323 22.6338 5.48334C22.7501 6.34825 22.75 7.44743 22.75 8.81049V10.9394C22.75 12.3025 22.7501 13.4016 22.6338 14.2665C22.5128 15.1666 22.2533 15.9244 21.6514 16.5263C21.0494 17.1282 20.2917 17.3877 19.3916 17.5087C18.5267 17.625 17.4275 17.625 16.0645 17.6249H7.93555C6.57249 17.625 5.47331 17.625 4.6084 17.5087C3.70829 17.3877 2.95055 17.1282 2.34863 16.5263C1.74672 15.9244 1.48723 15.1666 1.36621 14.2665C1.24995 13.4016 1.24997 12.3025 1.25 10.9394V8.81049C1.24997 7.44743 1.24995 6.34825 1.36621 5.48334C1.48723 4.58323 1.74672 3.82549 2.34863 3.22357C2.95055 2.62166 3.70829 2.36217 4.6084 2.24115C5.47331 2.12489 6.57249 2.12491 7.93555 2.12494H16.0645ZM12.001 12.3749C11.4833 12.3749 11.0573 12.7683 11.0059 13.2724L11 13.3759L11.0059 13.4775C11.0572 13.9817 11.4832 14.3749 12.001 14.3749C12.5526 14.3745 12.9995 13.9276 13 13.3759C13 12.8582 12.6067 12.4321 12.1025 12.3808L12.001 12.3749ZM12 5.87494C11.4477 5.87494 11 6.32265 11 6.87494V9.87494C11 10.4272 11.4477 10.8749 12 10.8749C12.5523 10.8749 13 10.4272 13 9.87494V6.87494C13 6.32265 12.5523 5.87494 12 5.87494Z" fill="currentColor"/></svg>
