<svg xmlns="http://www.w3.org/2000/svg" viewBox="0 0 24 24" fill="none"><path d="M10.4927 11.5C10.4927 10.6715 11.1613 9.99997 11.986 9.99997H11.9994C12.8241 9.99997 13.4927 10.6715 13.4927 11.5C13.4927 12.3284 12.8241 13 11.9994 13H11.986C11.1613 13 10.4927 12.3284 10.4927 11.5Z" fill="currentColor" fill-rule="evenodd" clip-rule="evenodd"/><path d="M12 3.24997C17.1086 3.24997 21.25 7.39134 21.25 12.5C21.25 14.7576 20.4398 16.8278 19.0957 18.4336C18.5718 19.0594 18.2501 19.7478 18.25 20.4316C18.25 21.7119 17.2119 22.75 15.9316 22.75L8.06836 22.75C6.78809 22.75 5.75 21.7119 5.75 20.4316C5.74993 19.7478 5.42815 19.0594 4.9043 18.4336C3.56019 16.8278 2.75 14.7576 2.75 12.5C2.75 7.39134 6.89137 3.24997 12 3.24997ZM14.6436 18.6142C14.4304 18.2591 13.9694 18.1443 13.6143 18.3574C13.2328 18.5862 12.6645 18.75 12 18.75C11.3355 18.75 10.7672 18.5863 10.3857 18.3574C10.0306 18.1443 9.57059 18.2592 9.35742 18.6142C9.14429 18.9694 9.25908 19.4304 9.61426 19.6435C10.2636 20.0331 11.1074 20.25 12 20.25C12.8926 20.25 13.7364 20.0331 14.3857 19.6435C14.7409 19.4304 14.8565 18.9694 14.6436 18.6142ZM12 7.24997C9.28684 7.24997 6.75 8.98827 6.75 11.5C6.75 14.0117 9.28684 15.75 12 15.75C14.7132 15.75 17.25 14.0117 17.25 11.5C17.25 8.98827 14.7132 7.24997 12 7.24997Z" fill="currentColor"/><path d="M4.257 2.04278C4.32074 1.5493 4.80305 1.19725 5.33425 1.25647C6.60942 1.39862 7.5113 2.02818 8.09856 2.71986C8.67169 3.3949 8.97181 4.15535 9.07759 4.68599C9.17501 5.17471 8.82752 5.64426 8.30145 5.73477C7.77537 5.82527 7.26993 5.50245 7.17251 5.01373C7.11683 4.73441 6.93258 4.25294 6.57734 3.83453C6.23623 3.43277 5.76573 3.11738 5.10341 3.04355C4.57221 2.98433 4.19325 2.53627 4.257 2.04278ZM19.743 2.04278C19.8067 2.53627 19.4278 2.98433 18.8966 3.04355C18.2343 3.11738 17.7638 3.43277 17.4227 3.83453C17.0674 4.25294 16.8832 4.73441 16.8275 5.01373C16.7301 5.50245 16.2246 5.82527 15.6986 5.73477C15.1725 5.64426 14.825 5.17471 14.9224 4.68599C15.0282 4.15535 15.3283 3.3949 15.9014 2.71986C16.4887 2.02818 17.3906 1.39862 18.6657 1.25647C19.197 1.19725 19.6793 1.5493 19.743 2.04278Z" fill="currentColor" fill-rule="evenodd" clip-rule="evenodd"/></svg>
