<svg xmlns="http://www.w3.org/2000/svg" viewBox="0 0 24 24" fill="none"><path opacity="0.4" d="M12.208 1.25488C12.1391 1.25168 12.0697 1.25 12 1.25C6.06294 1.25 1.25 6.06294 1.25 12C1.25 17.7517 5.76707 22.4486 11.4473 22.7363L12 22.75C12.0697 22.75 12.139 22.7473 12.208 22.7441C18.049 22.6333 22.75 17.8675 22.75 12C22.75 6.13245 18.049 1.36576 12.208 1.25488Z" fill="currentColor"/><path d="M16.8857 4.54297C16.7511 4.31852 16.6081 4.1024 16.459 3.89453C19.3149 5.46899 21.25 8.50825 21.25 12C21.25 15.4916 19.3147 18.53 16.459 20.1045C16.6079 19.8968 16.7512 19.6812 16.8857 19.457C18.0526 17.5123 18.75 14.874 18.75 12C18.75 9.12602 18.0526 6.48771 16.8857 4.54297Z" fill="currentColor"/><path d="M11.0088 6C11.5611 6 12.0088 6.44772 12.0088 7C12.0088 7.55228 11.5611 8 11.0088 8H11C10.4477 8 10 7.55228 10 7C10 6.44772 10.4477 6 11 6H11.0088Z" fill="currentColor"/><path d="M8.5 16.5C9.60457 16.5 10.5 15.6046 10.5 14.5C10.5 13.3954 9.60457 12.5 8.5 12.5C7.39543 12.5 6.5 13.3954 6.5 14.5C6.5 15.6046 7.39543 16.5 8.5 16.5Z" fill="currentColor"/></svg>
