<svg xmlns="http://www.w3.org/2000/svg" viewBox="0 0 24 24" fill="none"><path d="M12.208 1.25488C18.049 1.36576 22.75 6.13245 22.75 12C22.75 17.8675 18.049 22.6333 12.208 22.7441C12.139 22.7473 12.0697 22.75 12 22.75L11.4473 22.7363C5.76707 22.4486 1.25 17.7517 1.25 12C1.25 6.06294 6.06294 1.25 12 1.25C12.0697 1.25 12.1391 1.25168 12.208 1.25488ZM16.459 3.89453C16.6081 4.1024 16.7511 4.31852 16.8857 4.54297C18.0526 6.48771 18.75 9.12602 18.75 12C18.75 14.874 18.0526 17.5123 16.8857 19.457C16.7512 19.6812 16.6079 19.8968 16.459 20.1045C19.3147 18.53 21.25 15.4916 21.25 12C21.25 8.50825 19.3149 5.46899 16.459 3.89453ZM8.5 12.5C7.39543 12.5 6.5 13.3954 6.5 14.5C6.5 15.6046 7.39543 16.5 8.5 16.5C9.60457 16.5 10.5 15.6046 10.5 14.5C10.5 13.3954 9.60457 12.5 8.5 12.5ZM11 6C10.4477 6 10 6.44772 10 7C10 7.55228 10.4477 8 11 8H11.0088C11.5611 8 12.0088 7.55228 12.0088 7C12.0088 6.44772 11.5611 6 11.0088 6H11Z" fill="currentColor"/></svg>
