<svg xmlns="http://www.w3.org/2000/svg" viewBox="0 0 24 24" fill="none"><path opacity="0.4" d="M22.6728 20.082C22.7558 19.7719 22.7499 19.4166 22.7499 19V6C22.7499 5.55281 22.759 5.1611 22.6347 4.78809C22.5103 4.41521 22.2682 4.10766 21.9999 3.75L21.4003 2.9502C21.0698 2.50953 20.5508 2.25 19.9999 2.25C19.4491 2.25 18.93 2.50954 18.5995 2.9502L17.9999 3.75C17.7317 4.10765 17.4895 4.41521 17.3652 4.78809C17.2408 5.1611 17.2499 5.55281 17.2499 6V19C17.2499 19.4166 17.244 19.7719 17.3271 20.082C17.5351 20.8585 18.1414 21.4648 18.9179 21.6729C19.228 21.7559 19.5833 21.75 19.9999 21.75C20.4166 21.75 20.7718 21.7559 21.082 21.6729C21.8584 21.4648 22.4647 20.8585 22.6728 20.082Z" fill="currentColor"/><path opacity="0.4" d="M14.6728 20.082C14.7558 19.7719 14.7499 19.4166 14.7499 19V6C14.7499 5.55281 14.759 5.1611 14.6347 4.78809C14.5103 4.41521 14.2682 4.10766 13.9999 3.75L13.4003 2.9502C13.0698 2.50953 12.5508 2.25 11.9999 2.25C11.4491 2.25 10.93 2.50954 10.5995 2.9502L9.99993 3.75C9.73169 4.10765 9.48953 4.41521 9.36517 4.78809C9.24083 5.1611 9.24993 5.55281 9.24993 6V19C9.24993 19.4166 9.24402 19.7719 9.32708 20.082C9.53513 20.8585 10.1414 21.4648 10.9179 21.6729C11.228 21.7559 11.5833 21.75 11.9999 21.75C12.4166 21.75 12.7718 21.7559 13.082 21.6729C13.8584 21.4648 14.4647 20.8585 14.6728 20.082Z" fill="currentColor"/><path opacity="0.4" d="M6.67279 20.082C6.75585 19.7719 6.74993 19.4166 6.74993 19V6C6.74993 5.55281 6.75904 5.1611 6.6347 4.78809C6.51033 4.41521 6.26818 4.10766 5.99993 3.75L5.40033 2.9502C5.06983 2.50953 4.55076 2.25 3.99993 2.25C3.44911 2.25 2.93004 2.50954 2.59954 2.9502L1.99993 3.75C1.73169 4.10765 1.48953 4.41521 1.36517 4.78809C1.24083 5.1611 1.24993 5.55281 1.24993 6V19C1.24993 19.4166 1.24402 19.7719 1.32708 20.082C1.53513 20.8585 2.14145 21.4648 2.9179 21.6729C3.22803 21.7559 3.58331 21.75 3.99993 21.75C4.41656 21.75 4.77184 21.7559 5.08197 21.6729C5.85842 21.4648 6.46474 20.8585 6.67279 20.082Z" fill="currentColor"/><path d="M17.2498 19H14.7498V17H17.2498V19Z" fill="currentColor"/><path d="M9.24982 19H6.74982V17H9.24982V19Z" fill="currentColor"/><path d="M17.2498 9H14.7498V7H17.2498V9Z" fill="currentColor"/><path d="M9.24982 9H6.74982V7H9.24982V9Z" fill="currentColor"/></svg>
