<svg xmlns="http://www.w3.org/2000/svg" viewBox="0 0 24 24" fill="none"><path d="M22.6724 20.082C22.7555 19.7719 22.7496 19.4166 22.7496 19V6C22.7496 5.55281 22.7587 5.1611 22.6343 4.78809C22.51 4.41521 22.2678 4.10766 21.9996 3.75L21.4 2.9502C21.0695 2.50953 20.5504 2.25 19.9996 2.25C19.4487 2.25 18.9297 2.50954 18.5992 2.9502L17.9996 3.75C17.7313 4.10765 17.4892 4.41521 17.3648 4.78809C17.2405 5.1611 17.2496 5.55281 17.2496 6V19C17.2496 19.4166 17.2437 19.7719 17.3267 20.082C17.5348 20.8585 18.1411 21.4648 18.9175 21.6729C19.2277 21.7559 19.5829 21.75 19.9996 21.75C20.4162 21.75 20.7715 21.7559 21.0816 21.6729C21.8581 21.4648 22.4644 20.8585 22.6724 20.082Z" fill="currentColor"/><path d="M14.6724 20.082C14.7555 19.7719 14.7496 19.4166 14.7496 19V6C14.7496 5.55281 14.7587 5.1611 14.6343 4.78809C14.51 4.41521 14.2678 4.10766 13.9996 3.75L13.4 2.9502C13.0695 2.50953 12.5504 2.25 11.9996 2.25C11.4487 2.25 10.9297 2.50954 10.5992 2.9502L9.99957 3.75C9.73133 4.10765 9.48917 4.41521 9.3648 4.78809C9.24047 5.1611 9.24957 5.55281 9.24957 6V19C9.24957 19.4166 9.24366 19.7719 9.32672 20.082C9.53477 20.8585 10.1411 21.4648 10.9175 21.6729C11.2277 21.7559 11.5829 21.75 11.9996 21.75C12.4162 21.75 12.7715 21.7559 13.0816 21.6729C13.8581 21.4648 14.4644 20.8585 14.6724 20.082Z" fill="currentColor"/><path d="M6.67242 20.082C6.75548 19.7719 6.74957 19.4166 6.74957 19V6C6.74957 5.55281 6.75867 5.1611 6.63433 4.78809C6.50997 4.41521 6.26781 4.10766 5.99957 3.75L5.39996 2.9502C5.06946 2.50953 4.55039 2.25 3.99957 2.25C3.44874 2.25 2.92967 2.50954 2.59918 2.9502L1.99957 3.75C1.73133 4.10765 1.48917 4.41521 1.3648 4.78809C1.24047 5.1611 1.24957 5.55281 1.24957 6V19C1.24957 19.4166 1.24366 19.7719 1.32672 20.082C1.53477 20.8585 2.14108 21.4648 2.91754 21.6729C3.22766 21.7559 3.58294 21.75 3.99957 21.75C4.41619 21.75 4.77147 21.7559 5.0816 21.6729C5.85806 21.4648 6.46437 20.8585 6.67242 20.082Z" fill="currentColor"/><path d="M10.9996 17C11.5519 17 11.9996 17.4477 11.9996 18C11.9996 18.5523 11.5519 19 10.9996 19H4.99957C4.44729 19 3.99957 18.5523 3.99957 18C3.99957 17.4477 4.44729 17 4.99957 17H10.9996ZM18.9996 17C19.5519 17 19.9996 17.4477 19.9996 18C19.9996 18.5523 19.5519 19 18.9996 19H12.9996C12.4473 19 11.9996 18.5523 11.9996 18C11.9996 17.4477 12.4473 17 12.9996 17H18.9996ZM10.9996 7C11.5519 7 11.9996 7.44772 11.9996 8C11.9996 8.55228 11.5519 9 10.9996 9H4.99957C4.44729 9 3.99957 8.55228 3.99957 8C3.99957 7.44772 4.44729 7 4.99957 7H10.9996ZM18.9996 7C19.5519 7 19.9996 7.44772 19.9996 8C19.9996 8.55228 19.5519 9 18.9996 9H12.9996C12.4473 9 11.9996 8.55228 11.9996 8C11.9996 7.44772 12.4473 7 12.9996 7H18.9996Z" fill="currentColor"/></svg>
