<svg xmlns="http://www.w3.org/2000/svg" viewBox="0 0 24 24" fill="none"><path d="M15.2926 14.2926C15.6832 13.9022 16.3162 13.9021 16.7067 14.2926L19.9801 17.566C19.9739 17.4452 19.9674 17.3224 19.9587 17.1988C19.9214 16.6706 19.8653 16.1565 19.818 15.773C19.7945 15.5822 19.7736 15.4248 19.7585 15.316C19.7509 15.2618 19.744 15.2192 19.7399 15.191L19.735 15.1519L19.7341 15.151C19.6512 14.605 20.027 14.0952 20.5729 14.0123C21.1188 13.9296 21.6286 14.3044 21.7116 14.8502V14.8521L21.7126 14.8551C21.7129 14.8574 21.713 14.8609 21.7135 14.8648C21.7148 14.8735 21.7171 14.8862 21.7194 14.9019C21.7241 14.934 21.7308 14.981 21.7389 15.0396C21.7554 15.1574 21.7784 15.326 21.8034 15.5289C21.8533 15.9335 21.9133 16.484 21.9538 17.0582C21.9938 17.626 22.0172 18.2481 21.9841 18.7847C21.9676 19.0515 21.9354 19.3294 21.8727 19.5826C21.8176 19.8048 21.705 20.1566 21.4303 20.4312C21.1557 20.7059 20.8039 20.8185 20.5817 20.8736C20.3285 20.9363 20.0506 20.9684 19.7839 20.9849C19.2472 21.0181 18.6251 20.9947 18.0573 20.9547C17.4831 20.9142 16.9326 20.8542 16.528 20.8043C16.3251 20.7793 16.1565 20.7562 16.0387 20.7398C15.9801 20.7317 15.9332 20.725 15.901 20.7203C15.8853 20.718 15.8726 20.7157 15.8639 20.7144C15.86 20.7138 15.8565 20.7138 15.8542 20.7135C15.8532 20.7133 15.8519 20.7127 15.8512 20.7125H15.8493C15.3035 20.6295 14.9287 20.1196 15.0114 19.5738C15.0944 19.0279 15.6041 18.6521 16.1501 18.7349L16.151 18.7359C16.1526 18.7361 16.1556 18.7364 16.1589 18.7369C16.1657 18.7379 16.1763 18.7398 16.1901 18.7418C16.2183 18.7459 16.2609 18.7518 16.3151 18.7594C16.4239 18.7745 16.5814 18.7954 16.7721 18.8189C17.1557 18.8662 17.6698 18.9223 18.1979 18.9595C18.3221 18.9683 18.4456 18.9748 18.5671 18.981L15.2926 15.7066C14.9021 15.3161 14.9021 14.6831 15.2926 14.2926Z" fill="currentColor" fill-rule="evenodd" clip-rule="evenodd"/><path opacity="0.4" d="M19.7839 3.01554C20.0506 3.03203 20.3285 3.06415 20.5817 3.12687C20.7761 3.17504 21.0697 3.26736 21.3239 3.47355L21.4303 3.56925L21.526 3.67569C21.7322 3.92993 21.8245 4.22348 21.8727 4.41788C21.9354 4.67109 21.9676 4.949 21.9841 5.21573C22.0172 5.75242 21.9938 6.37442 21.9538 6.9423C21.9133 7.51656 21.8533 8.06698 21.8034 8.47159C21.7784 8.67453 21.7554 8.84306 21.7389 8.96085C21.7308 9.01953 21.7241 9.06644 21.7194 9.09855C21.7171 9.11433 21.7148 9.12702 21.7135 9.13566C21.713 9.13965 21.7129 9.14307 21.7126 9.14542C21.7124 9.14646 21.7118 9.14765 21.7116 9.14835V9.1503C21.6286 9.69611 21.1188 10.071 20.5729 9.98819C20.027 9.90526 19.6512 9.3955 19.7341 8.84952L19.735 8.84855L19.7399 8.80948C19.744 8.78128 19.7509 8.73878 19.7585 8.68448C19.7736 8.57567 19.7945 8.4183 19.818 8.22745C19.8653 7.84393 19.9214 7.32989 19.9587 6.80167C19.9674 6.67746 19.9739 6.55396 19.9801 6.43253L15.7067 10.7069C15.283 11.1307 14.9036 11.5128 14.5573 11.7851C14.1932 12.0713 13.7657 12.3192 13.2243 12.3681C13.0751 12.3815 12.9243 12.3815 12.7751 12.3681C12.2337 12.3192 11.8061 12.0713 11.4421 11.7851C11.0958 11.5128 10.7164 11.1307 10.2926 10.7069C9.83389 10.2482 9.55136 9.96821 9.32097 9.78702C9.21411 9.70299 9.14532 9.66241 9.1032 9.64249C9.06738 9.62558 9.05168 9.6236 9.0446 9.62296C9.01478 9.62027 8.98458 9.62028 8.95476 9.62296C8.94772 9.62359 8.93209 9.62553 8.89616 9.64249C8.85405 9.6624 8.78532 9.70294 8.67839 9.78702C8.44798 9.96821 8.16553 10.2481 7.70671 10.7069L3.70671 14.7069C3.31621 15.0974 2.68318 15.0974 2.29265 14.7069C1.90212 14.3164 1.90212 13.6834 2.29265 13.2929L6.29265 9.29288C6.71639 8.86914 7.09579 8.48705 7.44206 8.21476C7.80613 7.92847 8.23364 7.68061 8.77507 7.63175C8.92427 7.61831 9.07509 7.61831 9.22429 7.63175C9.76568 7.68063 10.1932 7.92848 10.5573 8.21476C10.9035 8.48705 11.283 8.86918 11.7067 9.29288C12.1655 9.75165 12.448 10.0316 12.6784 10.2128C12.7853 10.2968 12.8541 10.3374 12.8962 10.3573C12.9321 10.3743 12.9477 10.3762 12.9548 10.3769C12.9846 10.3795 13.0148 10.3796 13.0446 10.3769C13.0517 10.3762 13.0674 10.3743 13.1032 10.3573C13.1453 10.3374 13.2141 10.2969 13.321 10.2128C13.5514 10.0316 13.8338 9.75169 14.2926 9.29288L18.5661 5.01847C18.445 5.02469 18.3218 5.03219 18.1979 5.04093C17.6697 5.07819 17.1557 5.13425 16.7721 5.18155C16.5813 5.2051 16.4239 5.22596 16.3151 5.24112C16.2608 5.2487 16.2183 5.25459 16.1901 5.2587C16.1763 5.26072 16.1657 5.26256 16.1589 5.26359C16.1555 5.26408 16.1526 5.26434 16.151 5.26456L16.1501 5.26554L16.0475 5.2753C15.5415 5.30016 15.0892 4.93836 15.0114 4.42667C14.9286 3.88082 15.3035 3.37103 15.8493 3.288H15.8512C15.8519 3.28783 15.8531 3.28718 15.8542 3.28702C15.8565 3.28669 15.8599 3.28664 15.8639 3.28605C15.8726 3.28476 15.8853 3.28249 15.901 3.28019C15.9332 3.2755 15.9801 3.26884 16.0387 3.26066C16.1565 3.24424 16.3251 3.22123 16.528 3.1962C16.9326 3.1463 17.483 3.08632 18.0573 3.04581C18.6252 3.00577 19.2472 2.98239 19.7839 3.01554Z" fill="currentColor" fill-rule="evenodd" clip-rule="evenodd"/></svg>
