<svg xmlns="http://www.w3.org/2000/svg" viewBox="0 0 24 24" fill="none"><path d="M15.2924 14.2931C15.6829 13.9026 16.3159 13.9026 16.7065 14.2931L19.9799 17.5666C19.9737 17.4454 19.9672 17.3223 19.9584 17.1984C19.9212 16.6702 19.8651 16.1561 19.8178 15.7726C19.7943 15.5818 19.7734 15.4244 19.7582 15.3156C19.7507 15.2614 19.7438 15.2188 19.7397 15.1906L19.7348 15.1515L19.7338 15.1505C19.651 14.6046 20.0267 14.0948 20.5727 14.0119C21.1186 13.9291 21.6283 14.304 21.7113 14.8498V14.8517C21.7116 14.8524 21.7122 14.8536 21.7123 14.8546C21.7126 14.857 21.7127 14.8605 21.7133 14.8644C21.7146 14.873 21.7169 14.8858 21.7192 14.9015C21.7238 14.9336 21.7305 14.9806 21.7387 15.0392C21.7551 15.157 21.7781 15.3256 21.8031 15.5285C21.853 15.9331 21.913 16.4835 21.9535 17.0578C21.9936 17.6256 22.017 18.2477 21.9838 18.7843C21.9673 19.051 21.9352 19.329 21.8725 19.5822C21.8174 19.8044 21.7047 20.1562 21.4301 20.4308C21.1554 20.7055 20.8037 20.8181 20.5815 20.8732C20.3283 20.9359 20.0504 20.968 19.7836 20.9845C19.2469 21.0177 18.6249 20.9943 18.0571 20.9543C17.4828 20.9138 16.9324 20.8538 16.5278 20.8039C16.3248 20.7788 16.1563 20.7558 16.0385 20.7394C15.9798 20.7312 15.9329 20.7246 15.9008 20.7199C15.885 20.7176 15.8723 20.7153 15.8637 20.714C15.8597 20.7134 15.8563 20.7134 15.8539 20.713C15.8529 20.7129 15.8517 20.7123 15.851 20.7121H15.849C15.3033 20.629 14.9285 20.1192 15.0112 19.5734C15.0941 19.0275 15.6039 18.6517 16.1498 18.7345L16.1508 18.7355C16.1524 18.7357 16.1553 18.736 16.1586 18.7365C16.1654 18.7375 16.176 18.7393 16.1899 18.7414C16.2181 18.7455 16.2606 18.7514 16.3149 18.7589C16.4237 18.7741 16.581 18.795 16.7719 18.8185C17.1554 18.8658 17.6695 18.9219 18.1977 18.9591C18.3216 18.9679 18.4447 18.9744 18.5658 18.9806L15.2924 15.7072C14.9019 15.3167 14.9019 14.6837 15.2924 14.2931ZM19.7836 3.01481C20.0504 3.0313 20.3283 3.06342 20.5815 3.12613C20.7759 3.17431 21.0694 3.26663 21.3237 3.47281L21.4301 3.56852L21.5258 3.67496C21.732 3.92919 21.8243 4.22275 21.8725 4.41715C21.9352 4.67035 21.9673 4.94826 21.9838 5.215C22.017 5.75169 21.9936 6.37369 21.9535 6.94156C21.913 7.51583 21.8531 8.06624 21.8031 8.47086C21.7781 8.6738 21.7551 8.84233 21.7387 8.96012C21.7305 9.0188 21.7238 9.0657 21.7192 9.09781C21.7169 9.1136 21.7146 9.12629 21.7133 9.13492C21.7127 9.13892 21.7127 9.14234 21.7123 9.14469C21.7122 9.14573 21.7115 9.14692 21.7113 9.14762V9.14957C21.6283 9.69537 21.1186 10.0702 20.5727 9.98746C20.0267 9.90452 19.651 9.39477 19.7338 8.84879L19.7348 8.84781L19.7397 8.80875C19.7438 8.78055 19.7507 8.73804 19.7582 8.68375C19.7734 8.57494 19.7943 8.41757 19.8178 8.22672C19.8651 7.84319 19.9212 7.32915 19.9584 6.80094C19.9672 6.67706 19.9737 6.55389 19.9799 6.43277L15.7065 10.7072C15.2827 11.1309 14.9033 11.513 14.5571 11.7853C14.193 12.0716 13.7654 12.3194 13.224 12.3683C13.0749 12.3818 12.924 12.3818 12.7748 12.3683C12.2334 12.3195 11.8059 12.0716 11.4418 11.7853C11.0956 11.513 10.7161 11.1309 10.2924 10.7072C9.83364 10.2484 9.55112 9.96845 9.32072 9.78727C9.21387 9.70324 9.14507 9.66266 9.10295 9.64274C9.06714 9.62582 9.05143 9.62385 9.04436 9.6232C9.01453 9.62052 8.98434 9.62052 8.95451 9.6232C8.94748 9.62384 8.93185 9.62577 8.89592 9.64274C8.85381 9.66264 8.78508 9.70318 8.67815 9.78727C8.44774 9.96845 8.16528 10.2484 7.70647 10.7072L3.70647 14.7072C3.31597 15.0977 2.68293 15.0976 2.2924 14.7072C1.90188 14.3167 1.90188 13.6837 2.2924 13.2931L6.2924 9.29313C6.71614 8.86939 7.09555 8.48729 7.44182 8.215C7.80588 7.92872 8.2334 7.68086 8.77483 7.63199C8.92402 7.61856 9.07485 7.61855 9.22405 7.63199C9.76544 7.68087 10.193 7.92873 10.5571 8.215C10.9033 8.48729 11.2828 8.86942 11.7065 9.29313C12.1652 9.7519 12.4478 10.0319 12.6781 10.213C12.785 10.2971 12.8538 10.3377 12.8959 10.3576C12.9318 10.3745 12.9475 10.3765 12.9545 10.3771C12.9843 10.3798 13.0145 10.3798 13.0444 10.3771C13.0514 10.3765 13.0671 10.3745 13.103 10.3576C13.1451 10.3377 13.2138 10.2971 13.3207 10.213C13.5511 10.0319 13.8336 9.75194 14.2924 9.29313L18.5668 5.01774C18.4454 5.02397 18.3219 5.03144 18.1977 5.0402C17.6694 5.07746 17.1554 5.13352 16.7719 5.18082C16.581 5.20436 16.4237 5.22522 16.3149 5.24039C16.2606 5.24796 16.2181 5.25385 16.1899 5.25797C16.176 5.25999 16.1654 5.26183 16.1586 5.26285C16.1553 5.26335 16.1524 5.26361 16.1508 5.26383L16.1498 5.26481L16.0473 5.27457C15.5413 5.29943 15.0889 4.93763 15.0112 4.42594C14.9284 3.88008 15.3033 3.3703 15.849 3.28727H15.851C15.8517 3.28709 15.8529 3.28645 15.8539 3.28629C15.8563 3.28596 15.8597 3.28591 15.8637 3.28531C15.8723 3.28402 15.885 3.28176 15.9008 3.27945C15.9329 3.27477 15.9798 3.2681 16.0385 3.25992C16.1563 3.2435 16.3248 3.2205 16.5278 3.19547C16.9324 3.14557 17.4828 3.08559 18.0571 3.04508C18.6249 3.00504 19.2469 2.98166 19.7836 3.01481Z" fill="currentColor" fill-rule="evenodd" clip-rule="evenodd"/></svg>
