<svg xmlns="http://www.w3.org/2000/svg" viewBox="0 0 24 24" fill="none"><path opacity="0.4" d="M11.5874 1.2501C12.1573 1.24934 12.6618 1.24866 13.1373 1.41733C13.2352 1.45209 13.3313 1.49208 13.425 1.53715C13.8799 1.75582 14.2361 2.11489 14.6386 2.52054L19.4214 7.32819C19.8888 7.79654 20.3036 8.2122 20.5276 8.75596C20.7517 9.29971 20.7508 9.88846 20.7498 10.5518L20.7497 14.0261C20.7497 15.8081 20.7497 17.2445 20.5986 18.3741C20.4417 19.547 20.1061 20.5345 19.3259 21.3188C18.5456 22.1031 17.5632 22.4405 16.3964 22.5982C15.2726 22.75 13.8437 22.75 12.0709 22.75C10.2981 22.75 8.72698 22.75 7.60314 22.5982C6.43635 22.4405 5.45394 22.1031 4.67369 21.3188C3.89344 20.5345 3.55784 19.547 3.40097 18.3741C3.24988 17.2445 3.2499 15.8081 3.24992 14.0262V14.0261V9.45263V9.4526C3.2499 7.91893 3.24989 6.6824 3.36417 5.69856C3.4824 4.6806 3.7341 3.80839 4.32673 3.06954C4.54427 2.79833 4.79004 2.55128 5.05985 2.33261C5.79487 1.7369 6.66258 1.48389 7.67527 1.36504C8.65402 1.25017 10.0616 1.25008 11.5874 1.2501Z" fill="currentColor"/><path d="M13.1373 1.416C13.2352 1.45076 13.3313 1.49075 13.425 1.53582C13.8799 1.75449 14.2361 2.11356 14.6386 2.51921L19.4214 7.32686L19.4214 7.32686C19.8888 7.79521 20.3036 8.21088 20.5276 8.75463C20.6264 8.99435 20.6815 9.24282 20.7121 9.50258H18.7313C17.3637 9.5026 16.7151 9.50181 15.8482 9.38525C14.9481 9.26424 14.1902 9.00534 13.5883 8.40343C12.9864 7.80151 12.7275 7.04364 12.6065 6.14353C12.4901 5.27834 12.4901 4.63063 12.4902 3.2688V3.26877V1.27734C12.7135 1.30042 12.9282 1.34184 13.1373 1.416Z" fill="currentColor"/><path d="M9.40715 12.1944C9.85183 11.8673 10.4782 11.9628 10.8056 12.4073C11.1328 12.852 11.0373 13.4784 10.5927 13.8058L10.5878 13.8087C10.5839 13.8116 10.5776 13.8162 10.5693 13.8224C10.5526 13.8348 10.5274 13.8536 10.495 13.878C10.4303 13.9269 10.3369 13.9983 10.2245 14.086C9.99853 14.2624 9.70023 14.5018 9.4052 14.7579C9.10525 15.0183 8.83092 15.2767 8.63957 15.4933C8.63759 15.4955 8.63566 15.4979 8.63371 15.5001C8.63566 15.5023 8.63759 15.5047 8.63957 15.5069C8.83092 15.7235 9.10526 15.9819 9.4052 16.2423C9.70023 16.4985 9.99854 16.7378 10.2245 16.9142C10.3369 17.0019 10.4303 17.0733 10.495 17.1222C10.5274 17.1466 10.5526 17.1654 10.5693 17.1778C10.5776 17.184 10.5839 17.1886 10.5878 17.1915L10.5917 17.1944H10.5927C11.0374 17.522 11.1321 18.1482 10.8046 18.5929C10.4772 19.0374 9.85179 19.1329 9.40715 18.8058V18.8048H9.40617L9.40422 18.8028C9.40265 18.8017 9.40013 18.8 9.39738 18.798C9.39191 18.7939 9.38374 18.7887 9.37395 18.7814C9.35408 18.7665 9.32581 18.745 9.28996 18.7179C9.21802 18.6635 9.11597 18.5855 8.99406 18.4903C8.75135 18.3009 8.42455 18.0385 8.09465 17.7521C7.76979 17.47 7.41885 17.145 7.14153 16.8312C7.00385 16.6753 6.86268 16.498 6.7509 16.3126C6.66755 16.1743 6.53782 15.932 6.50676 15.6319L6.49992 15.5001L6.50676 15.3683C6.53781 15.0682 6.66755 14.8259 6.7509 14.6876C6.86268 14.5022 7.00385 14.3249 7.14153 14.1691C7.41885 13.8552 7.76978 13.5302 8.09465 13.2482C8.42456 12.9617 8.75134 12.6993 8.99406 12.5099C9.11597 12.4147 9.21802 12.3367 9.28996 12.2823C9.32581 12.2553 9.35407 12.2337 9.37395 12.2189C9.38373 12.2116 9.39191 12.2063 9.39738 12.2023C9.40012 12.2002 9.40265 12.1985 9.40422 12.1974L9.40617 12.1954H9.40715V12.1944Z" fill="currentColor"/><path d="M14.5927 12.1944C14.148 11.8673 13.5217 11.9628 13.1943 12.4073C12.8671 12.852 12.9626 13.4784 13.4072 13.8058L13.412 13.8087C13.416 13.8116 13.4223 13.8162 13.4306 13.8224C13.4473 13.8348 13.4725 13.8536 13.5048 13.878C13.5695 13.9269 13.6629 13.9983 13.7753 14.086C14.0013 14.2624 14.2996 14.5018 14.5947 14.7579C14.8946 15.0183 15.1689 15.2767 15.3603 15.4933C15.3623 15.4955 15.3642 15.4979 15.3661 15.5001C15.3642 15.5023 15.3623 15.5047 15.3603 15.5069C15.1689 15.7235 14.8946 15.9819 14.5947 16.2423C14.2996 16.4985 14.0013 16.7378 13.7753 16.9142C13.6629 17.0019 13.5695 17.0733 13.5048 17.1222C13.4725 17.1466 13.4473 17.1654 13.4306 17.1778C13.4223 17.184 13.416 17.1886 13.412 17.1915L13.4081 17.1944H13.4072C12.9625 17.522 12.8677 18.1482 13.1952 18.5929C13.5227 19.0374 14.1481 19.1329 14.5927 18.8058V18.8048H14.5937L14.5956 18.8028C14.5972 18.8017 14.5997 18.8 14.6025 18.798C14.6079 18.7939 14.6161 18.7887 14.6259 18.7814C14.6458 18.7665 14.674 18.745 14.7099 18.7179C14.7818 18.6635 14.8839 18.5855 15.0058 18.4903C15.2485 18.3009 15.5753 18.0385 15.9052 17.7521C16.2301 17.47 16.581 17.145 16.8583 16.8312C16.996 16.6753 17.1372 16.498 17.2489 16.3126C17.3323 16.1743 17.462 15.932 17.4931 15.6319L17.4999 15.5001L17.4931 15.3683C17.462 15.0682 17.3323 14.8259 17.2489 14.6876C17.1372 14.5022 16.996 14.3249 16.8583 14.1691C16.581 13.8552 16.2301 13.5302 15.9052 13.2482C15.5753 12.9617 15.2485 12.6993 15.0058 12.5099C14.8839 12.4147 14.7818 12.3367 14.7099 12.2823C14.674 12.2553 14.6458 12.2337 14.6259 12.2189C14.6161 12.2116 14.6079 12.2063 14.6025 12.2023C14.5997 12.2002 14.5972 12.1985 14.5956 12.1974L14.5937 12.1954H14.5927V12.1944Z" fill="currentColor"/></svg>
