<svg xmlns="http://www.w3.org/2000/svg" viewBox="0 0 24 24" fill="none"><path d="M11.5873 1.2501C12.1571 1.24934 12.6618 1.24848 13.1371 1.4171C13.2349 1.4518 13.3307 1.49224 13.4242 1.53721C13.8791 1.75587 14.2357 2.11499 14.6381 2.52061L19.4213 7.32823C19.8885 7.79643 20.3027 8.21242 20.5268 8.75596C20.7508 9.29967 20.7505 9.88856 20.7494 10.5519V14.0265C20.7495 15.8082 20.7491 17.2445 20.5981 18.3741C20.4412 19.5468 20.1056 20.5342 19.3256 21.3185C18.5454 22.1028 17.5627 22.441 16.3959 22.5987C15.2722 22.7506 13.8433 22.7501 12.0707 22.7501C10.2981 22.7501 8.72676 22.7506 7.60295 22.5987C6.43617 22.441 5.45351 22.1028 4.67326 21.3185C3.8932 20.5342 3.55766 19.5469 3.4008 18.3741C3.24974 17.2445 3.24941 15.8083 3.24944 14.0265V9.45225C3.24942 7.91884 3.24943 6.68207 3.36369 5.69835C3.48195 4.68057 3.73403 3.80819 4.32658 3.06944C4.54394 2.7985 4.78948 2.5516 5.05901 2.33311C5.79402 1.73743 6.66255 1.48419 7.67522 1.36534C8.65396 1.25052 10.0618 1.25008 11.5873 1.2501ZM10.8051 12.4073C10.4777 11.9628 9.85131 11.8673 9.40666 12.1944V12.1954H9.40569L9.40373 12.1974C9.40217 12.1985 9.39961 12.2002 9.3969 12.2023C9.39143 12.2063 9.38322 12.2116 9.37346 12.2189C9.35359 12.2337 9.3253 12.2553 9.28947 12.2823C9.21754 12.3367 9.11546 12.4148 8.99358 12.5099C8.75087 12.6993 8.42405 12.9617 8.09416 13.2482C7.76931 13.5302 7.41836 13.8553 7.14104 14.169C7.00338 14.3248 6.86218 14.5022 6.75041 14.6876C6.66707 14.8259 6.53734 15.0682 6.50627 15.3683L6.49944 15.5001L6.50627 15.6319C6.53733 15.932 6.66706 16.1743 6.75041 16.3126C6.86217 16.498 7.00338 16.6754 7.14104 16.8312C7.41834 17.1449 7.76932 17.47 8.09416 17.7521C8.42404 18.0385 8.75087 18.3009 8.99358 18.4903C9.11545 18.5854 9.21754 18.6635 9.28947 18.7179C9.32529 18.7449 9.35359 18.7665 9.37346 18.7814C9.38323 18.7886 9.39142 18.7939 9.3969 18.798C9.39961 18.8 9.40216 18.8017 9.40373 18.8028L9.40569 18.8048H9.40666V18.8058C9.85131 19.1329 10.4767 19.0374 10.8041 18.5929C11.1316 18.1482 11.0369 17.5219 10.5922 17.1944H10.5912L10.5873 17.1915C10.5834 17.1886 10.577 17.184 10.5688 17.1778C10.5521 17.1654 10.5268 17.1466 10.4946 17.1222C10.4298 17.0733 10.3364 17.0018 10.224 16.9142C9.99805 16.7378 9.69972 16.4984 9.40471 16.2423C9.10479 15.9819 8.83043 15.7235 8.63908 15.5069C8.63712 15.5047 8.63516 15.5023 8.63322 15.5001C8.63516 15.4979 8.63712 15.4955 8.63908 15.4933C8.83043 15.2767 9.10479 15.0183 9.40471 14.7579C9.69972 14.5018 9.99806 14.2624 10.224 14.086C10.3364 13.9984 10.4298 13.9269 10.4946 13.878C10.5268 13.8536 10.5521 13.8348 10.5688 13.8224C10.5771 13.8162 10.5834 13.8116 10.5873 13.8087L10.5922 13.8058C11.0367 13.4783 11.1323 12.852 10.8051 12.4073ZM14.5922 12.1944C14.1476 11.8673 13.5212 11.9628 13.1938 12.4073C12.8666 12.852 12.9621 13.4783 13.4067 13.8058L13.4115 13.8087C13.4155 13.8116 13.4218 13.8162 13.4301 13.8224C13.4468 13.8348 13.472 13.8536 13.5043 13.878C13.569 13.9269 13.6625 13.9984 13.7748 14.086C14.0008 14.2624 14.2991 14.5018 14.5942 14.7579C14.8941 15.0183 15.1684 15.2767 15.3598 15.4933C15.3618 15.4955 15.3637 15.4979 15.3656 15.5001C15.3637 15.5023 15.3618 15.5047 15.3598 15.5069C15.1684 15.7235 14.8941 15.9819 14.5942 16.2423C14.2992 16.4984 14.0008 16.7378 13.7748 16.9142C13.6625 17.0018 13.5691 17.0733 13.5043 17.1222C13.472 17.1466 13.4468 17.1654 13.4301 17.1778C13.4218 17.184 13.4155 17.1886 13.4115 17.1915L13.4076 17.1944H13.4067C12.962 17.5219 12.8673 18.1482 13.1947 18.5929C13.5222 19.0374 14.1476 19.1329 14.5922 18.8058V18.8048H14.5932L14.5951 18.8028C14.5967 18.8017 14.5993 18.8 14.602 18.798C14.6074 18.7939 14.6156 18.7886 14.6254 18.7814C14.6453 18.7665 14.6736 18.7449 14.7094 18.7179C14.7813 18.6635 14.8834 18.5854 15.0053 18.4903C15.248 18.3009 15.5748 18.0385 15.9047 17.7521C16.2296 17.47 16.5805 17.1449 16.8578 16.8312C16.9955 16.6754 17.1367 16.498 17.2485 16.3126C17.3318 16.1743 17.4615 15.932 17.4926 15.6319L17.4994 15.5001L17.4926 15.3683C17.4615 15.0682 17.3318 14.8259 17.2485 14.6876C17.1367 14.5022 16.9955 14.3248 16.8578 14.169C16.5805 13.8553 16.2296 13.5302 15.9047 13.2482C15.5748 12.9617 15.248 12.6993 15.0053 12.5099C14.8834 12.4148 14.7813 12.3367 14.7094 12.2823C14.6736 12.2553 14.6453 12.2337 14.6254 12.2189C14.6157 12.2116 14.6074 12.2063 14.602 12.2023C14.5993 12.2002 14.5967 12.1985 14.5951 12.1974L14.5932 12.1954H14.5922V12.1944ZM12.4897 3.27061C12.4897 4.63196 12.4896 5.27975 12.6059 6.14463C12.7269 7.04449 12.9858 7.80257 13.5873 8.4044C14.1892 9.00631 14.948 9.26581 15.8481 9.38682C16.7148 9.50333 17.3635 9.50403 18.7309 9.50401C18.6741 9.36621 18.5686 9.23553 17.9506 8.61436L13.3461 3.98546C12.8132 3.44978 12.6713 3.31651 12.4897 3.26182V3.27061Z" fill="currentColor" fill-rule="evenodd" clip-rule="evenodd"/></svg>
