<svg xmlns="http://www.w3.org/2000/svg" viewBox="0 0 24 24" fill="none"><path opacity="0.4" d="M12.8659 12.1266C12.8659 11.5744 12.4182 11.1266 11.8659 11.1266C11.3137 11.1266 10.8659 11.5744 10.8659 12.1266C10.8659 12.6789 11.3137 13.1266 11.8659 13.1266C12.4182 13.1266 12.8659 12.6789 12.8659 12.1266ZM14.8659 12.1266C14.8659 13.7835 13.5228 15.1266 11.8659 15.1266C10.2091 15.1266 8.86594 13.7835 8.86594 12.1266C8.86594 10.4698 10.2091 9.12665 11.8659 9.12665C13.5228 9.12665 14.8659 10.4698 14.8659 12.1266Z" fill="currentColor"/><path opacity="0.4" d="M5.73939 14.1481C6.2328 13.9001 6.83409 14.0991 7.08217 14.5925C7.32372 15.0731 7.63383 15.5141 8.00014 15.902C8.37934 16.3036 8.36162 16.9369 7.9601 17.3161C7.55857 17.6952 6.92521 17.6766 6.54603 17.2751C6.04768 16.7473 5.62478 16.1469 5.29506 15.4909C5.04704 14.9975 5.24596 14.3962 5.73939 14.1481ZM16.9171 14.5925C17.1651 14.0991 17.7665 13.9003 18.2599 14.1481C18.7534 14.3962 18.9523 14.9974 18.7042 15.4909C18.3745 16.1469 17.9517 16.7473 17.4533 17.2751C17.0742 17.6765 16.4417 17.6949 16.0402 17.3161C15.6386 16.9369 15.62 16.3036 15.9992 15.902C16.3655 15.5141 16.6755 15.0731 16.9171 14.5925ZM12.0001 4.62665C12.3902 4.62666 12.7744 4.65678 13.1495 4.71454C13.6952 4.79877 14.0695 5.30945 13.9855 5.85516C13.9013 6.40083 13.3906 6.77509 12.8449 6.6911C12.5701 6.64879 12.288 6.62666 12.0001 6.62665C11.7122 6.62665 11.4293 6.64878 11.1544 6.6911C10.6089 6.77486 10.099 6.40066 10.0148 5.85516C9.93075 5.30931 10.3049 4.79858 10.8507 4.71454C11.2259 4.65678 11.61 4.62665 12.0001 4.62665Z" fill="currentColor"/><path d="M13.0735 14.8718C13.027 15.1158 13.0002 15.3679 13.0002 15.6267C13.0003 17.8357 14.7911 19.6267 17.0002 19.6267C17.3279 19.6266 17.6456 19.5869 17.9485 19.5134C18.485 19.3834 19.0261 19.7132 19.1565 20.2497C19.2865 20.7861 18.9564 21.3272 18.4201 21.4577C17.9641 21.5684 17.488 21.6266 17.0002 21.6267C14.9125 21.6267 13.074 20.5598 11.9992 18.9421C10.9244 20.5593 9.08751 21.6265 7.00021 21.6267C6.5121 21.6267 6.03562 21.5685 5.57931 21.4577C5.04279 21.3273 4.71379 20.7863 4.84396 20.2497C4.97432 19.713 5.51529 19.383 6.05197 19.5134C6.35483 19.5869 6.67245 19.6267 7.00021 19.6267C9.20909 19.6264 11.0001 17.8356 11.0002 15.6267C11.0002 15.4068 10.9814 15.1916 10.9475 14.9821C11.2371 15.0752 11.5459 15.1267 11.8664 15.1267C12.2961 15.1266 12.7039 15.0346 13.0735 14.8718Z" fill="currentColor"/><path d="M7.44552 2.72139C7.80524 2.30267 8.4367 2.25445 8.85568 2.61397C9.27409 2.97366 9.32237 3.60523 8.9631 4.02412C8.36246 4.72417 8.00031 5.63186 8.00021 6.62666C8.0003 8.01805 8.71271 9.24266 9.79318 9.95967C9.23064 10.4979 8.87658 11.2519 8.86642 12.0896C8.30958 11.7948 7.67561 11.6267 7.00021 11.6267C5.13447 11.6267 3.56419 12.9054 3.12326 14.6355C2.98659 15.1702 2.44235 15.4934 1.90744 15.3571C1.37241 15.2207 1.04959 14.6764 1.18576 14.1413C1.83161 11.6073 4.08942 9.71737 6.8049 9.63057C6.29311 8.74738 6.00026 7.72137 6.00021 6.62666C6.00031 5.13625 6.5455 3.77031 7.44552 2.72139Z" fill="currentColor"/><path d="M15.1447 2.61397C15.5638 2.25462 16.1953 2.30257 16.5549 2.72139C17.4547 3.77026 18.0001 5.13641 18.0002 6.62666C18.0002 7.72179 17.7048 8.74727 17.1926 9.63057C19.9091 9.71637 22.1686 11.6065 22.8147 14.1413C22.9506 14.676 22.6275 15.2204 22.093 15.3571C21.558 15.4935 21.0129 15.1702 20.8762 14.6355C20.4353 12.9056 18.8657 11.6269 17.0002 11.6267C16.2128 11.6267 15.4811 11.8556 14.8625 12.2478C14.8641 12.2076 14.8664 12.1672 14.8664 12.1267C14.8664 11.3269 14.5513 10.6019 14.0412 10.0642C15.2138 9.36589 16.0001 8.08813 16.0002 6.62666C16.0001 5.63202 15.6378 4.72412 15.0373 4.02412C14.6778 3.6051 14.7259 2.97366 15.1447 2.61397Z" fill="currentColor"/></svg>
