<svg xmlns="http://www.w3.org/2000/svg" viewBox="0 0 24 24" fill="none"><path d="M15.1447 2.61378C15.5637 2.25443 16.1952 2.30239 16.5548 2.72121C17.4548 3.7701 18.0001 5.13617 18.0002 6.62648C18.0001 7.72167 17.7048 8.74704 17.1925 9.63039C19.9091 9.71616 22.1686 11.6063 22.8146 14.1411C22.9507 14.6759 22.6275 15.2202 22.0929 15.3569C21.5579 15.4933 21.0127 15.1702 20.8761 14.6353C20.4352 12.9054 18.8657 11.6267 17.0002 11.6265C16.2127 11.6265 15.4809 11.8555 14.8625 12.2476C14.8158 13.4229 14.0931 14.4223 13.0724 14.8716C13.026 15.1157 13.0002 15.3677 13.0002 15.6265C13.0002 17.8356 14.791 19.6265 17.0002 19.6265C17.3279 19.6264 17.6456 19.5868 17.9484 19.5132C18.4849 19.3832 19.0261 19.713 19.1564 20.2495C19.2865 20.7859 18.9564 21.327 18.4201 21.4575C17.964 21.5683 17.488 21.6264 17.0002 21.6265C14.9124 21.6265 13.0739 20.5597 11.9992 18.9419C10.9243 20.5592 9.08751 21.6264 7.00015 21.6265C6.51201 21.6265 6.03559 21.5684 5.57926 21.4575C5.04268 21.3271 4.71364 20.7861 4.8439 20.2495C4.97427 19.7129 5.51524 19.3828 6.05191 19.5132C6.3548 19.5867 6.67235 19.6265 7.00015 19.6265C9.20912 19.6263 11.0002 17.8355 11.0002 15.6265C11.0002 15.4066 10.9813 15.1914 10.9474 14.9819C9.74003 14.5939 8.86636 13.4628 8.86636 12.1265C8.86636 12.1141 8.86621 12.1017 8.86636 12.0894C8.30954 11.7946 7.67555 11.6265 7.00015 11.6265C5.13442 11.6265 3.56413 12.9053 3.1232 14.6353C2.98659 15.1701 2.44237 15.4933 1.90738 15.3569C1.37231 15.2205 1.04944 14.6762 1.1857 14.1411C1.83156 11.6071 4.08936 9.71719 6.80484 9.63039C6.29302 8.74715 6.00017 7.72125 6.00015 6.62648C6.00025 5.13603 6.54541 3.77014 7.44547 2.72121C7.80518 2.30249 8.43664 2.25426 8.85562 2.61378C9.27414 2.97346 9.32234 3.60501 8.96304 4.02394C8.36237 4.724 8.00025 5.63164 8.00015 6.62648C8.00018 8.01824 8.71221 9.24351 9.79312 9.96046C10.3319 9.44476 11.0617 9.12648 11.8664 9.12648C12.7233 9.12662 13.4946 9.48769 14.0412 10.064C15.2137 9.36573 16.0001 8.08801 16.0002 6.62648C16.0001 5.63178 15.6378 4.72396 15.0373 4.02394C14.6777 3.6049 14.7258 2.97347 15.1447 2.61378ZM5.73941 14.148C6.23281 13.9 6.83412 14.099 7.08218 14.5923C7.32373 15.0729 7.63386 15.514 8.00015 15.9019C8.37931 16.3034 8.36159 16.9367 7.96011 17.3159C7.5586 17.695 6.92523 17.6764 6.54605 17.2749C6.0477 16.7472 5.62479 16.1467 5.29508 15.4907C5.04706 14.9973 5.24598 14.396 5.73941 14.148ZM16.9171 14.5923C17.1651 14.099 17.7665 13.9002 18.2599 14.148C18.7533 14.396 18.9522 14.9973 18.7043 15.4907C18.3745 16.1467 17.9517 16.7472 17.4533 17.2749C17.0742 17.6763 16.4417 17.6947 16.0402 17.3159C15.6387 16.9367 15.62 16.3034 15.9992 15.9019C16.3655 15.5139 16.6756 15.0729 16.9171 14.5923ZM11.8664 11.1265C11.3141 11.1265 10.8664 11.5742 10.8664 12.1265C10.8664 12.6788 11.3141 13.1265 11.8664 13.1265C12.4184 13.1262 12.8664 12.6786 12.8664 12.1265C12.8664 11.5744 12.4184 11.1267 11.8664 11.1265ZM12.0002 4.62648C12.3902 4.6265 12.7744 4.65662 13.1496 4.71437C13.6951 4.79864 14.0695 5.30931 13.9855 5.855C13.9013 6.40064 13.3906 6.77488 12.8449 6.69093C12.5701 6.64863 12.288 6.6265 12.0002 6.62648C11.7122 6.62648 11.4293 6.64862 11.1545 6.69093C10.6089 6.77469 10.099 6.40048 10.0148 5.855C9.93076 5.30914 10.3049 4.79841 10.8507 4.71437C11.2259 4.65662 11.61 4.62648 12.0002 4.62648Z" fill="currentColor" fill-rule="evenodd" clip-rule="evenodd"/></svg>
