<svg xmlns="http://www.w3.org/2000/svg" fill="none" viewBox="0 0 48 48">
  <g>
    <path fill="currentColor" fill-opacity="0.4" d="M35.1123 14.7114c0.3731 -0.7194 1.4022 -0.7194 1.7753 0l2.3879 4.6038 4.9965 0.9839c0.7616 0.1499 1.0694 1.0726 0.5505 1.6498L41.3 25.8664l0.6521 5.2842c0.0977 0.7916 -0.7254 1.3734 -1.4391 1.0172L36 29.9152l-4.5131 2.2526c-0.7137 0.3562 -1.5368 -0.2256 -1.4391 -1.0172l0.6522 -5.2842 -3.5226 -3.9175c-0.5189 -0.5772 -0.2111 -1.4999 0.5505 -1.6498l4.9965 -0.9839 2.3879 -4.6038Z" stroke-width="1"></path>
    <path fill="#8fbffa" d="M36.7955 7.34709c0.8734 0.6721 -0.0899 2.07218 -1.1753 1.88098C34.7694 9.07818 33.8938 9 33 9c-8.2843 0 -15 6.7157 -15 15s6.7157 15 15 15c0.8938 0 1.7694 -0.0782 2.6202 -0.2281 1.0854 -0.1912 2.0487 1.2089 1.1753 1.881C33.2528 43.379 28.8157 45 24 45 12.402 45 3 35.598 3 24S12.402 3 24 3c4.8157 0 9.2528 1.62098 12.7955 4.34709Z" stroke-width="1"></path>
    <path stroke="currentColor" stroke-linejoin="round" d="M36.7955 7.34709c0.8734 0.6721 -0.0899 2.07218 -1.1753 1.88098C34.7694 9.07818 33.8938 9 33 9c-8.2843 0 -15 6.7157 -15 15s6.7157 15 15 15c0.8938 0 1.7694 -0.0782 2.6202 -0.2281 1.0854 -0.1912 2.0487 1.2089 1.1753 1.881C33.2528 43.379 28.8157 45 24 45 12.402 45 3 35.598 3 24S12.402 3 24 3c4.8157 0 9.2528 1.62098 12.7955 4.34709Z" stroke-width="1"></path>
    <path stroke="currentColor" stroke-linejoin="round" d="M35.1123 14.7114c0.3731 -0.7194 1.4022 -0.7194 1.7753 0l2.3879 4.6038 4.9965 0.9839c0.7616 0.1499 1.0694 1.0726 0.5505 1.6498L41.3 25.8664l0.6521 5.2842c0.0977 0.7916 -0.7254 1.3734 -1.4391 1.0172L36 29.9152l-4.5131 2.2526c-0.7137 0.3562 -1.5368 -0.2256 -1.4391 -1.0172l0.6522 -5.2842 -3.5226 -3.9175c-0.5189 -0.5772 -0.2111 -1.4999 0.5505 -1.6498l4.9965 -0.9839 2.3879 -4.6038Z" stroke-width="1"></path>
  </g>
</svg>
