<svg xmlns="http://www.w3.org/2000/svg" fill="none" viewBox="0 0 48 48">
  <g>
    <path fill="currentColor" fill-opacity="0.4" d="M23.936 1.5C11.5096 1.5 1.43604 11.5736 1.43604 24S11.5096 46.5 23.936 46.5c5.2505 0 10.0822 -1.799 13.9103 -4.8139 0.3268 -0.2574 0.4988 -0.6028 0.5222 -0.969 0.0225 -0.3529 -0.094 -0.6903 -0.2755 -0.9648 -0.3549 -0.537 -1.0529 -0.9633 -1.8337 -0.8129 -0.9367 0.1804 -1.9045 0.2749 -2.8947 0.2749 -8.4026 0 -15.2143 -6.8117 -15.2143 -15.2143S24.962 8.78574 33.3646 8.78574c0.9903 0 1.958 0.09455 2.8948 0.27497 0.7808 0.15038 1.4788 -0.27589 1.8337 -0.81288 0.1815 -0.27454 0.298 -0.6119 0.2755 -0.96481 -0.0234 -0.36628 -0.1954 -0.71163 -0.5222 -0.96902C34.0182 3.29905 29.1865 1.5 23.936 1.5Z" stroke-width="1"></path>
    <path fill="currentColor" d="M37.839 13.9578c-0.5597 -1.0791 -2.1033 -1.0792 -2.6631 0l-2.4329 4.6907 -5.0804 1.0003c-1.1424 0.225 -1.6041 1.6089 -0.8256 2.4747l3.5939 3.997 -0.6661 5.3978c-0.1465 1.1875 1.088 2.0602 2.1586 1.5258l4.5841 -2.288 4.584 2.288c1.0706 0.5344 2.3052 -0.3383 2.1586 -1.5258l-0.6661 -5.3978 3.594 -3.997c0.7784 -0.8658 0.3167 -2.2497 -0.8256 -2.4747l-5.0804 -1.0003 -2.433 -4.6907Z" stroke-width="1"></path>
  </g>
</svg>
