<svg xmlns="http://www.w3.org/2000/svg" fill="none" viewBox="0 0 48 48">
  <g>
    <path fill="currentColor" fill-rule="evenodd" d="M5.49976 23.9999c0 -10.2248 8.25474 -18.50039 18.42104 -18.50039 2.9006 0 5.6426 0.67216 8.0823 1.87055 -8.8567 0.3527 -15.9169 7.67004 -15.9169 16.62984 0 8.9597 7.0602 16.277 15.9168 16.6298 -2.4396 1.1983 -5.1816 1.8705 -8.0822 1.8705 -10.1663 0 -18.42104 -8.2756 -18.42104 -18.5003ZM23.9208 1.49951c-12.3901 0 -22.42104 10.08109 -22.42104 22.50039 0 12.4192 10.03094 22.5003 22.42104 22.5003 5.1415 0 9.8831 -1.7391 13.6654 -4.6609 0.6603 -0.51 1.0456 -1.242 1.1007 -2.034 0.0513 -0.737 -0.1889 -1.3882 -0.503 -1.872 -0.5956 -0.9173 -1.8241 -1.7455 -3.3115 -1.4824 -0.7129 0.1261 -1.4478 0.1921 -2.1997 0.1921 -6.944 0 -12.5865 -5.6532 -12.5865 -12.6431 0 -6.9899 5.6425 -12.6431 12.5865 -12.6431 0.7519 0 1.4868 0.066 2.1997 0.192 1.4874 0.2631 2.7159 -0.5651 3.3115 -1.4823 0.3141 -0.48391 0.5543 -1.13504 0.503 -1.87212 -0.055 -0.79192 -0.4404 -1.52394 -1.1007 -2.03396 -3.7822 -2.92181 -8.5239 -4.66091 -13.6654 -4.66091ZM34.7237 15.6563c0.8942 -1.7273 3.363 -1.7273 4.2572 0l1.8102 3.4968 3.7738 0.7445c1.8282 0.3607 2.5602 2.5746 1.3199 3.9567L43.18 26.8684l0.5017 4.0732c0.2332 1.8936 -1.7347 3.2977 -3.4509 2.4395l-3.3785 -1.6896 -3.3785 1.6896c-1.7163 0.8582 -3.6841 -0.5459 -3.4509 -2.4395l0.5017 -4.0732 -2.7049 -3.0141c-1.2403 -1.3821 -0.5083 -3.596 1.32 -3.9567l3.7738 -0.7445 1.8102 -3.4968Z" clip-rule="evenodd" stroke-width="1"></path>
  </g>
</svg>
