<svg xmlns="http://www.w3.org/2000/svg" fill="none" viewBox="0 0 48 48">
  <g>
    <path fill="currentColor" fill-rule="evenodd" d="M1.43604 24c0 -12.4264 10.07356 -22.5 22.49996 -22.5 5.2505 0 10.0822 1.79905 13.9104 4.814 0.3268 0.25739 0.4988 0.60274 0.5222 0.96902 0.0225 0.35291 -0.094 0.69027 -0.2755 0.96481 -0.3549 0.53699 -1.0529 0.96326 -1.8337 0.81288 -0.9368 -0.18042 -1.9045 -0.27497 -2.8948 -0.27497 -8.4026 0 -15.2143 6.81166 -15.2143 15.21426s6.8117 15.2143 15.2143 15.2143c0.9902 0 1.958 -0.0945 2.8947 -0.2749 0.7808 -0.1504 1.4788 0.2759 1.8337 0.8129 0.1815 0.2745 0.298 0.6119 0.2755 0.9648 -0.0234 0.3662 -0.1954 0.7116 -0.5222 0.969C34.0182 44.701 29.1865 46.5 23.936 46.5 11.5096 46.5 1.43604 36.4264 1.43604 24ZM37.839 13.9573c-0.5597 -1.0791 -2.1034 -1.0791 -2.6631 0l-2.433 4.6907 -5.0803 1.0004c-1.1424 0.2249 -1.6041 1.6089 -0.8257 2.4746l3.594 3.9971 -0.6661 5.3977c-0.1466 1.1875 1.088 2.0602 2.1586 1.5259l4.584 -2.2881 4.5841 2.288c1.0706 0.5344 2.3051 -0.3383 2.1586 -1.5258l-0.6661 -5.3977 3.5939 -3.9971c0.7785 -0.8657 0.3168 -2.2497 -0.8256 -2.4746l-5.0804 -1.0004 -2.4329 -4.6907Z" clip-rule="evenodd" stroke-width="3.429"></path>
  </g>
</svg>
