<svg xmlns="http://www.w3.org/2000/svg" viewBox="0 0 24 24" fill="none"><path d="M4.6876 9.06934C5.22608 9.06934 5.6626 9.50687 5.6626 10.0466C5.6626 10.5863 5.22608 11.0238 4.6876 11.0238H3.2251C2.68662 11.0238 2.2501 10.5863 2.2501 10.0466C2.2501 9.50687 2.68662 9.06934 3.2251 9.06934H4.6876ZM10.0501 9.06934C10.5886 9.06934 11.0251 9.50687 11.0251 10.0466C11.0251 10.5863 10.5886 11.0238 10.0501 11.0238H8.5876C8.04912 11.0238 7.6126 10.5863 7.6126 10.0466C7.6126 9.50687 8.04912 9.06934 8.5876 9.06934H10.0501ZM15.4126 9.06934C15.9511 9.06934 16.3876 9.50687 16.3876 10.0466C16.3876 10.5863 15.9511 11.0238 15.4126 11.0238H13.9501C13.4116 11.0238 12.9751 10.5863 12.9751 10.0466C12.9751 9.50687 13.4116 9.06934 13.9501 9.06934H15.4126ZM20.7751 9.06934C21.3136 9.06934 21.7501 9.50687 21.7501 10.0466C21.7501 10.5863 21.3136 11.0238 20.7751 11.0238H19.3126C18.7741 11.0238 18.3376 10.5863 18.3376 10.0466C18.3376 9.50687 18.7741 9.06934 19.3126 9.06934H20.7751Z" fill="currentColor"/><path opacity="0.4" d="M13.9503 12.9785C14.605 12.9785 15.2035 12.9782 15.7462 12.9912C15.7962 12.9833 15.8473 12.9785 15.8995 12.9785C15.9732 12.9785 16.0454 12.9864 16.1144 13.002C16.5443 13.0186 16.9358 13.0471 17.2892 13.0947C18.1938 13.2166 18.9932 13.4828 19.6329 14.124C20.2724 14.7651 20.5377 15.5661 20.6593 16.4727C20.7066 16.8258 20.7325 17.217 20.7491 17.6465C20.765 17.7165 20.7755 17.7894 20.7755 17.8643C20.7755 17.9162 20.7686 17.9668 20.7608 18.0166C20.7739 18.5613 20.7755 19.162 20.7755 19.8193V21.7734C20.7755 22.3132 20.3384 22.751 19.7999 22.751C19.2615 22.7509 18.8253 22.3131 18.8253 21.7734V19.8193C18.8253 19.466 18.825 19.1409 18.8233 18.8408H16.8751V21.7734C16.8751 22.3132 16.438 22.751 15.8995 22.751C15.3612 22.7508 14.9249 22.313 14.9249 21.7734V18.8408H12.9747V21.7734C12.9747 22.3132 12.5386 22.751 12.0001 22.751C11.4616 22.751 11.0255 22.3132 11.0255 21.7734V18.8408H9.07529V21.7734C9.07529 22.3132 8.63819 22.751 8.09971 22.751C7.56141 22.7508 7.1251 22.313 7.1251 21.7734V18.8408H5.17686C5.17517 19.1409 5.1749 19.466 5.1749 19.8193V21.7734C5.1749 22.3131 4.73867 22.7509 4.20029 22.751C3.66182 22.751 3.22471 22.3132 3.22471 21.7734V19.8193C3.22471 19.162 3.22531 18.5613 3.23838 18.0166C3.23059 17.9669 3.22472 17.9162 3.22471 17.8643C3.22471 17.7894 3.23422 17.7165 3.2501 17.6465C3.26671 17.217 3.29358 16.8258 3.34092 16.4727C3.46252 15.5661 3.72782 14.7652 4.36729 14.124C5.00699 13.4828 5.8064 13.2166 6.71104 13.0947C7.0641 13.0472 7.45527 13.0186 7.88486 13.002C7.95396 12.9864 8.02592 12.9785 8.09971 12.9785C8.15178 12.9785 8.20317 12.9833 8.25303 12.9912C8.79599 12.9782 9.39476 12.9785 10.0499 12.9785H13.9503ZM6.9708 15.0313C6.28241 15.124 5.9632 15.2884 5.74619 15.5059C5.52929 15.7234 5.36606 16.0436 5.27354 16.7334C5.26685 16.7833 5.26176 16.8344 5.25596 16.8867H7.1251V15.0127C7.07246 15.0186 7.02101 15.0245 6.9708 15.0313ZM10.0499 14.9326C9.69797 14.9326 9.37419 14.9329 9.07529 14.9346V16.8867H11.0255V14.9326H10.0499ZM16.8751 16.8867H18.7442C18.7384 16.8344 18.7333 16.7833 18.7267 16.7334C18.6341 16.0436 18.4709 15.7234 18.254 15.5059C18.037 15.2884 17.7178 15.124 17.0294 15.0313C16.9792 15.0245 16.9277 15.0186 16.8751 15.0127V16.8867ZM12.9747 16.8867H14.9249V14.9346C14.626 14.9329 14.3022 14.9326 13.9503 14.9326H12.9747V16.8867Z" fill="currentColor" fill-rule="evenodd" clip-rule="evenodd"/><path opacity="0.4" d="M19.8294 1.25045C20.3675 1.26678 20.7908 1.71804 20.7747 2.25729C20.7294 3.76095 20.574 5.04284 19.6468 5.97018C19.0063 6.61071 18.2067 6.87566 17.3011 6.99752C16.9445 7.04548 16.5484 7.07273 16.1136 7.08932C16.0448 7.10474 15.9732 7.11373 15.8997 7.11373C15.8478 7.11371 15.7971 7.10792 15.7474 7.10006C15.2052 7.11294 14.6071 7.11471 13.9535 7.11471H10.0462C9.39205 7.11471 8.79392 7.11297 8.25131 7.10006C8.20192 7.10779 8.15149 7.11373 8.09994 7.11373C8.02639 7.11372 7.95497 7.1048 7.88607 7.08932C7.45147 7.07273 7.05605 7.04546 6.69955 6.99752C5.79375 6.87569 4.9935 6.61083 4.35287 5.97018C3.42585 5.04285 3.27024 3.76085 3.22494 2.25729C3.20895 1.71813 3.63233 1.26691 4.17025 1.25045C4.70846 1.23416 5.15884 1.65926 5.17514 2.1987C5.22129 3.73044 5.40408 4.26029 5.72982 4.58639C5.94768 4.80427 6.2688 4.96913 6.95932 5.06198C7.01317 5.06921 7.06868 5.07334 7.12533 5.07955V2.22799C7.12533 1.68832 7.56154 1.25054 8.09994 1.25045C8.63842 1.25045 9.07553 1.68827 9.07553 2.22799V5.15768C9.37345 5.15933 9.69595 5.15963 10.0462 5.15963H11.0247V2.22799C11.0247 1.68827 11.4619 1.25045 12.0003 1.25045C12.5387 1.25056 12.9749 1.68834 12.9749 2.22799V5.15963H13.9535C14.304 5.15963 14.6271 5.15933 14.9251 5.15768V2.22799C14.9251 1.68841 15.3615 1.25067 15.8997 1.25045C16.4382 1.25045 16.8753 1.68827 16.8753 2.22799V5.07955C16.9317 5.07338 16.9868 5.06917 17.0404 5.06198C17.7308 4.96913 18.052 4.80425 18.2699 4.58639C18.5957 4.2603 18.7794 3.73067 18.8255 2.1987C18.8418 1.6593 19.2913 1.23424 19.8294 1.25045Z" fill="currentColor" fill-rule="evenodd" clip-rule="evenodd"/></svg>
