<svg xmlns="http://www.w3.org/2000/svg" viewBox="0 0 24 24" fill="none"><path d="M13.9503 12.978C14.605 12.978 15.2035 12.9776 15.7462 12.9907C15.7962 12.9827 15.8473 12.978 15.8995 12.978C15.9732 12.978 16.0454 12.9859 16.1144 13.0014C16.5443 13.0181 16.9358 13.0466 17.2892 13.0942C18.1938 13.2161 18.9932 13.4823 19.6329 14.1235C20.2724 14.7646 20.5377 15.5656 20.6593 16.4721C20.7067 16.8258 20.7335 17.2176 20.7501 17.6479C20.7659 17.7177 20.7755 17.7902 20.7755 17.8647C20.7755 17.9163 20.7695 17.9667 20.7618 18.0161C20.7749 18.5607 20.7755 19.1615 20.7755 19.8188V21.7729C20.7755 22.3126 20.3384 22.7504 19.7999 22.7504C19.2615 22.7503 18.8253 22.3126 18.8253 21.7729V19.8188C18.8253 19.4662 18.825 19.1417 18.8233 18.8422H16.8751V21.7729C16.8751 22.3126 16.438 22.7504 15.8995 22.7504C15.3612 22.7502 14.9249 22.3125 14.9249 21.7729V18.8422H12.9747V21.7729C12.9747 22.3126 12.5386 22.7504 12.0001 22.7504C11.4616 22.7504 11.0255 22.3126 11.0255 21.7729V18.8422H9.07529V21.7729C9.07529 22.3126 8.63819 22.7504 8.09971 22.7504C7.56141 22.7502 7.1251 22.3125 7.1251 21.7729V18.8422H5.17686C5.17518 19.1417 5.1749 19.4662 5.1749 19.8188V21.7729C5.1749 22.3126 4.73867 22.7503 4.20029 22.7504C3.66182 22.7504 3.22471 22.3126 3.22471 21.7729V19.8188C3.22471 19.1615 3.22531 18.5607 3.23838 18.0161C3.2307 17.9667 3.22471 17.9163 3.22471 17.8647C3.22471 17.7902 3.23338 17.7176 3.24912 17.6479C3.26572 17.2176 3.2935 16.8258 3.34092 16.4721C3.46252 15.5656 3.72782 14.7646 4.36729 14.1235C5.00699 13.4823 5.8064 13.2161 6.71104 13.0942C7.0641 13.0466 7.45527 13.0181 7.88486 13.0014C7.95396 12.9858 8.02592 12.978 8.09971 12.978C8.15178 12.978 8.20317 12.9828 8.25303 12.9907C8.79599 12.9776 9.39476 12.978 10.0499 12.978H13.9503ZM6.9708 15.0307C6.28241 15.1235 5.9632 15.2878 5.74619 15.5053C5.52929 15.7228 5.36606 16.0431 5.27354 16.7329C5.26681 16.7831 5.26179 16.8345 5.25596 16.8872H7.1251V15.0122C7.07246 15.018 7.02101 15.024 6.9708 15.0307ZM10.0499 14.9321C9.69797 14.9321 9.37419 14.9324 9.07529 14.934V16.8872H11.0255V14.9321H10.0499ZM12.9747 16.8872H14.9249V14.934C14.626 14.9324 14.3022 14.9321 13.9503 14.9321H12.9747V16.8872ZM16.8751 16.8872H18.7442C18.7384 16.8345 18.7334 16.7831 18.7267 16.7329C18.6341 16.0431 18.4709 15.7228 18.254 15.5053C18.037 15.2878 17.7178 15.1235 17.0294 15.0307C16.9792 15.024 16.9277 15.018 16.8751 15.0122V16.8872ZM4.6876 9.0688C5.22608 9.0688 5.66221 9.50662 5.66221 10.0463C5.66205 10.5859 5.22598 11.0229 4.6876 11.0229H3.22471C2.68651 11.0227 2.25025 10.5858 2.2501 10.0463C2.2501 9.50675 2.68641 9.06901 3.22471 9.0688H4.6876ZM10.0499 9.0688C10.5884 9.0688 11.0255 9.50662 11.0255 10.0463C11.0253 10.5859 10.5883 11.0229 10.0499 11.0229H8.58799C8.04961 11.0229 7.61256 10.5859 7.6124 10.0463C7.6124 9.50662 8.04951 9.0688 8.58799 9.0688H10.0499ZM15.4122 9.0688C15.9507 9.0688 16.3878 9.50662 16.3878 10.0463C16.3876 10.5859 15.9506 11.0229 15.4122 11.0229H13.9503C13.4119 11.0229 12.9749 10.5859 12.9747 10.0463C12.9747 9.50662 13.4118 9.0688 13.9503 9.0688H15.4122ZM20.7755 9.0688C21.3138 9.06901 21.7501 9.50675 21.7501 10.0463C21.7499 10.5858 21.3137 11.0227 20.7755 11.0229H19.3126C18.7742 11.0229 18.3381 10.5859 18.338 10.0463C18.338 9.50662 18.7741 9.0688 19.3126 9.0688H20.7755ZM19.8292 1.25044C20.3672 1.26677 20.7915 1.71804 20.7755 2.25728C20.7302 3.76095 20.5738 5.04282 19.6466 5.97017C19.006 6.61068 18.2065 6.87567 17.3009 6.99751C16.9442 7.04547 16.5483 7.07272 16.1134 7.08931C16.0446 7.10473 15.9729 7.11372 15.8995 7.11372C15.8476 7.1137 15.7969 7.10791 15.7472 7.10005C15.2051 7.11292 14.6076 7.1147 13.9542 7.1147H10.046C9.39221 7.1147 8.7944 7.11294 8.25205 7.10005C8.20244 7.10785 8.15151 7.11372 8.09971 7.11372C8.02616 7.11369 7.95473 7.10481 7.88584 7.08931C7.4513 7.07272 7.05577 7.04544 6.69932 6.99751C5.79366 6.87568 4.99418 6.61067 4.35361 5.97017C3.4264 5.04282 3.27001 3.76095 3.22471 2.25728C3.20871 1.71803 3.63296 1.26677 4.171 1.25044C4.70899 1.23443 5.15862 1.65941 5.1749 2.19868C5.22106 3.73065 5.40473 4.26029 5.73057 4.58638C5.94839 4.80412 6.26897 4.96914 6.95908 5.06197C7.01287 5.06919 7.06852 5.07334 7.1251 5.07954V2.22798C7.1251 1.68839 7.56141 1.25065 8.09971 1.25044C8.63819 1.25044 9.07529 1.68826 9.07529 2.22798V5.15767C9.37321 5.15932 9.69571 5.15962 10.046 5.15962H11.0255V2.22798C11.0255 1.68827 11.4616 1.25046 12.0001 1.25044C12.5386 1.25044 12.9747 1.68826 12.9747 2.22798V5.15962H13.9542C14.3045 5.15962 14.627 5.15932 14.9249 5.15767V2.22798C14.9249 1.68839 15.3612 1.25065 15.8995 1.25044C16.438 1.25044 16.8751 1.68826 16.8751 2.22798V5.07954C16.9316 5.07334 16.9874 5.06919 17.0411 5.06197C17.7312 4.96913 18.0518 4.80414 18.2696 4.58638C18.5955 4.26029 18.7791 3.73065 18.8253 2.19868C18.8416 1.65937 19.2912 1.23436 19.8292 1.25044Z" fill="currentColor" fill-rule="evenodd" clip-rule="evenodd"/></svg>
