<svg xmlns="http://www.w3.org/2000/svg" viewBox="0 0 24 24" fill="none"><path d="M9.50018 17.5C9.50018 19.3856 9.50003 20.3283 8.91425 20.9141C8.32846 21.4998 7.38579 21.5 5.50018 21.5C3.61457 21.5 2.6719 21.4998 2.08612 20.9141C1.50034 20.3283 1.50018 19.3856 1.50018 17.5V8.25H9.50018V17.5ZM5.50018 16.5C4.9479 16.5 4.50018 16.9477 4.50018 17.5C4.50018 18.0523 4.9479 18.5 5.50018 18.5H5.50897C6.06126 18.5 6.50897 18.0523 6.50897 17.5C6.50897 16.9477 6.06126 16.5 5.50897 16.5H5.50018ZM5.50018 2.5C7.38577 2.5 8.32846 2.50018 8.91425 3.08594C9.50003 3.67172 9.50018 4.61438 9.50018 6.5V6.75H1.50018V6.5C1.50019 4.61442 1.50036 3.67172 2.08612 3.08594C2.6719 2.50016 3.6146 2.5 5.50018 2.5Z" fill="currentColor"/><path d="M14.3147 4.00231C16.0436 3.54473 16.9089 3.31516 17.6057 3.68102C17.6358 3.69681 17.6654 3.71354 17.6946 3.73082C18.3394 4.11228 18.5976 4.90379 19.0569 6.44957L11.4905 8.72008C11.4974 8.74621 11.5049 8.77265 11.512 8.79918L11.8772 10.1703L19.4846 7.88707L21.886 15.9896C22.4414 17.8637 22.719 18.8011 22.2932 19.5394C21.8674 20.2778 20.9126 20.5149 19.0032 20.9886L18.8733 21.0209C17.0574 21.4714 16.1489 21.6967 15.4387 21.2806C14.7285 20.8643 14.4891 19.9655 14.01 18.1693L11.511 8.79918C11.0432 7.04525 10.8085 6.16823 11.1926 5.47008C11.2092 5.43993 11.2272 5.41047 11.2454 5.38121C11.6654 4.70371 12.5484 4.46979 14.3147 4.00231ZM19.0452 17.2416C18.9022 16.7081 18.354 16.3916 17.8206 16.5345L17.8118 16.5365C17.2785 16.6794 16.962 17.2278 17.1047 17.7611C17.2477 18.2945 17.7959 18.611 18.3293 18.4681L18.3381 18.4662C18.8716 18.3232 19.1881 17.775 19.0452 17.2416Z" fill="currentColor" fill-rule="evenodd" clip-rule="evenodd"/></svg>
