<svg xmlns="http://www.w3.org/2000/svg" viewBox="0 0 24 24" fill="none"><path opacity="0.4" d="M8.03044 2.66361C6.18819 1.71173 3.94079 2.45856 3.00896 4.31302L1.65642 7.0054C0.727695 8.85413 1.44822 11.1231 3.28435 12.0718L12.133 16.6441C13.4864 17.3432 15.1357 16.7927 15.8185 15.4341L18.0734 10.9468C18.753 9.5937 18.2264 7.93106 16.8791 7.2349L8.03044 2.66361Z" fill="currentColor"/><path d="M12.1211 10.0359C12.3927 9.60917 12.9518 9.44399 13.419 9.68529C13.9112 9.93965 14.0977 10.5411 13.8535 11.0271C13.6064 11.5186 13.0032 11.724 12.5049 11.4665C12.0128 11.2121 11.8272 10.6106 12.0713 10.1247L12.1211 10.0359Z" fill="currentColor"/><path d="M21.2094 10.7905C21.4522 10.7925 21.6912 10.8521 21.9066 10.9634C22.6718 11.359 22.9666 12.2992 22.5834 13.062L20.1566 17.8911C19.7704 18.6598 18.8334 18.9752 18.0619 18.5767C17.8465 18.4653 17.6603 18.3053 17.518 18.1099L16.4877 16.6948C16.6571 16.4819 16.8081 16.2489 16.935 15.9966L19.1898 11.5093L19.1908 11.5083C19.3103 11.2702 19.4031 11.0251 19.4721 10.7769L21.2094 10.7905Z" fill="currentColor"/><path d="M9.01407 15.0327L8.8754 15.731C8.72642 16.4758 8.59792 17.124 8.42813 17.6372C8.24967 18.1765 7.99186 18.6791 7.51407 19.0708C7.03622 19.4625 6.49297 19.6168 5.92911 19.686C5.39255 19.7519 4.73181 19.7505 3.97208 19.7505H3.25137V20.7505C3.25137 21.3028 2.80366 21.7505 2.25137 21.7505C1.69909 21.7505 1.25137 21.3028 1.25137 20.7505V16.7505C1.25142 16.1982 1.69912 15.7505 2.25137 15.7505C2.80363 15.7505 3.25133 16.1982 3.25137 16.7505V17.7505H3.97208C4.78177 17.7505 5.29846 17.7491 5.68497 17.7017C6.04388 17.6576 6.1704 17.5855 6.24551 17.5239C6.3206 17.4624 6.41603 17.3527 6.52969 17.0093C6.65203 16.6395 6.75464 16.1326 6.91348 15.3384L7.16544 14.0776L9.01407 15.0327Z" fill="currentColor"/></svg>
