<svg xmlns="http://www.w3.org/2000/svg" fill="none" viewBox="0 0 48 48">
  <g>
    <path fill="currentColor" fill-rule="evenodd" d="M40.0802 22.0264c-0.2336 -0.1325 -0.5302 -0.0592 -0.6752 0.1669 -1.5998 2.493 -3.9397 5.5478 -7.1243 8.3275 -0.1221 0.1065 -0.1857 0.2649 -0.1712 0.4263 0.0145 0.1614 0.1054 0.306 0.2444 0.389 0.5228 0.3122 1.0885 0.6412 1.7007 0.9873 3.3488 1.893 5.5455 2.859 6.9009 3.352 1.3144 0.4782 2.6564 -0.0101 3.4272 -1.1427 0.3927 -0.5771 0.8911 -1.3555 1.5028 -2.3927 0.5553 -0.9418 0.9686 -1.6977 1.275 -2.2942 0.6827 -1.3287 0.3826 -2.8569 -0.8114 -3.7857 -1.1534 -0.8973 -3.0913 -2.2328 -6.2689 -4.0337Zm-24.5843 2.8918c-0.1324 -0.0729 -0.2904 -0.083 -0.4309 -0.0272 -0.1404 0.0557 -0.2487 0.1714 -0.2949 0.3152l-2.3075 7.1722c-0.0712 0.2215 -0.2845 0.3659 -0.5167 0.3497l-4.4104 -0.3074c-0.0142 -0.9987 -0.0322 -1.7447 -0.0496 -2.2909 -0.032 -1.01 -0.7237 -1.8912 -1.8068 -1.9734 -0.4326 -0.0327 -0.9843 -0.056 -1.6797 -0.056 -0.6743 0 -1.2135 0.0218 -1.64 0.0531 -1.1091 0.0812 -1.8068 0.9933 -1.8287 2.0219C0.5063 31.3265 0.48 33.3439 0.48 36.6998c0 3.3562 0.0263 5.3737 0.0507 6.5247 0.0219 1.0285 0.7194 1.9404 1.8283 2.0217 0.4266 0.0312 0.9659 0.0531 1.6404 0.0531 0.6956 0 1.2474 -0.0232 1.6801 -0.0561 1.0829 -0.0821 1.7744 -0.9633 1.8064 -1.9731 0.0179 -0.5638 0.0366 -1.3406 0.0509 -2.3884 1.9695 -0.2259 4.5562 -0.5747 7.4576 -1.0964 1.5997 -0.2877 2.912 -1.4359 3.3975 -2.9904 0.9921 -3.1761 1.7765 -6.2745 2.3334 -8.6893 0.0522 -0.2267 -0.0568 -0.4598 -0.2643 -0.5649 -1.6671 -0.8446 -3.3291 -1.7203 -4.9652 -2.6225Z" clip-rule="evenodd" stroke-width="3.429"></path>
    <path fill="currentColor" fill-opacity="0.4" fill-rule="evenodd" d="M17.4252 3.153c-1.8012 -0.8721 -4.0031 -0.476 -5.2687 1.1275 -2.9546 3.7437 -5.6972 8.3919 -7.5353 12.7708 -0.7923 1.8875 -0.0716 4.026 1.6224 5.1314 6.7912 4.4317 14.7938 8.4665 22.0774 11.6802 1.4305 0.6313 3.1157 0.4835 4.3644 -0.5077 5.0734 -4.0278 8.2755 -8.8666 9.949 -11.8889 1.0523 -1.9006 0.3623 -4.1885 -1.4186 -5.3504 -7.6336 -4.9803 -15.6095 -9.0012 -23.7906 -12.9629Z" clip-rule="evenodd" stroke-width="3.429"></path>
    <path fill="currentColor" fill-rule="evenodd" d="M15.0039 9.6001c-0.7187 1.1978 -0.3304 2.7514 0.8675 3.4701l2.5292 1.5175c1.1978 0.7187 2.7515 0.3304 3.4702 -0.8675 0.7186 -1.1977 0.3302 -2.7514 -0.8676 -3.4701L18.474 8.7326c-1.1979 -0.7187 -2.7514 -0.3303 -3.4701 0.8675Z" clip-rule="evenodd" stroke-width="3.429"></path>
  </g>
</svg>
