<svg xmlns="http://www.w3.org/2000/svg" fill="none" viewBox="0 0 48 48">
  <g>
    <path stroke="currentColor" stroke-linejoin="round" d="M12.5181 4.6509c1.1026 -1.397 3.0357 -1.7584 4.6375 -0.9827 8.1551 3.949 16.0829 7.9465 23.6655 12.8935 1.5738 1.0269 2.1591 3.0242 1.2489 4.6681 -1.6496 2.9793 -4.8036 7.743 -9.7924 11.7036 -1.0865 0.8626 -2.5653 1 -3.8345 0.4399 -7.2478 -3.198 -15.2004 -7.2085 -21.941 -11.6072 -1.4953 -0.9758 -2.1194 -2.8525 -1.4283 -4.4988 1.8151 -4.324 4.5263 -8.9192 7.4443 -12.6164Z" stroke-width="1"></path>
    <path stroke="currentColor" stroke-linejoin="round" d="m15.6404 27.1502 -1.7238 5.3581c-0.1421 0.4418 -0.5674 0.7296 -1.0305 0.6974l-4.8607 -0.3389c-0.0147 -1.2305 -0.0355 -2.1166 -0.0553 -2.739 -0.025 -0.7882 -0.5492 -1.4211 -1.3355 -1.4807 -0.4172 -0.0317 -0.9544 -0.0544 -1.6367 -0.0544 -0.6616 0 -1.1868 0.0214 -1.5984 0.0516 -0.8061 0.059 -1.3388 0.7156 -1.3559 1.5236 -0.0243 1.1432 -0.0505 3.151 -0.0505 6.4948 0 3.344 0.0262 5.3518 0.0505 6.4949 0.0171 0.8079 0.5497 1.4644 1.3556 1.5235 0.4116 0.0302 0.9369 0.0517 1.5987 0.0517 0.6825 0 1.2198 -0.0228 1.637 -0.0545 0.7861 -0.0597 1.3102 -0.6925 1.3352 -1.4805 0.0202 -0.6353 0.0414 -1.5458 0.0562 -2.8169 2.0022 -0.2215 4.7427 -0.5802 7.8453 -1.1382 1.4116 -0.2539 2.5679 -1.2665 2.9955 -2.6355 0.752 -2.4076 1.3842 -4.7715 1.8874 -6.8233 -1.71 -0.8451 -3.4223 -1.7246 -5.114 -2.6337Z" stroke-width="1"></path>
    <path stroke="currentColor" stroke-linejoin="round" d="M34.1176 31.366c3.1673 1.7397 5.1601 2.5582 6.3093 2.9425 0.8178 0.2734 1.6456 -0.0227 2.1438 -0.7265 0.4142 -0.5849 0.9889 -1.4582 1.7388 -2.7299 0.7002 -1.1874 1.1695 -2.0716 1.4813 -2.7076 0.4148 -0.8463 0.2249 -1.7931 -0.5046 -2.3897 -0.7873 -0.6438 -2.0896 -1.5985 -4.1796 -2.88 -1.5215 2.4639 -3.813 5.5934 -6.989 8.4912Z" stroke-width="1"></path>
    <path stroke="currentColor" stroke-linecap="round" stroke-linejoin="round" d="m16.1157 9.9305 2.5218 1.5131" stroke-width="1"></path>
  </g>
</svg>
