<svg xmlns="http://www.w3.org/2000/svg" fill="none" viewBox="0 0 48 48">
  <g>
    <path fill="currentColor" fill-rule="evenodd" d="M17.0969 7.1792c-0.759 -0.36754 -1.5633 -0.15596 -1.9838 0.37679 -2.6729 3.38671 -5.1677 7.61531 -6.82949 11.57411 -0.26715 0.6364 -0.04669 1.4143 0.6118 1.844C15.2055 25.0918 22.6888 28.8692 29.547 31.8954c0.5881 0.2595 1.1998 0.1677 1.6081 -0.1564 4.4835 -3.5594 7.3394 -7.8635 8.8382 -10.5705 0.3172 -0.573 0.1661 -1.3533 -0.5348 -1.8106 -7.1218 -4.6465 -14.589 -8.4149 -22.3616 -12.1787Zm-5.1236 -2.10135c1.6838 -2.13343 4.5689 -2.61154 6.8669 -1.49877 7.7911 3.77277 15.4543 7.63362 22.8039 12.42872 2.3027 1.5023 3.2684 4.5338 1.8486 7.0983 -0.1371 0.2476 -0.2847 0.5077 -0.4429 0.7788 1.461 0.9348 2.4382 1.6596 3.0787 2.1833 0.8822 0.7215 1.1083 1.8788 0.6139 2.8874 -0.3041 0.6203 -0.7583 1.4755 -1.4318 2.6178 -0.7213 1.2232 -1.2773 2.0685 -1.6819 2.64 -0.5953 0.8409 -1.6108 1.2132 -2.6123 0.8784 -0.9921 -0.3317 -2.5957 -0.9829 -5.022 -2.2618 -0.7337 0.6943 -1.5172 1.3789 -2.3522 2.0418 -1.6653 1.3221 -3.8758 1.4925 -5.71 0.6832 -2.7145 -1.1978 -5.5382 -2.5167 -8.3613 -3.9332 -0.4221 1.6459 -0.9207 3.4466 -1.4917 5.2746 -0.4641 1.4858 -1.7184 2.5831 -3.2472 2.858 -2.7531 0.4951 -5.20833 0.8265 -7.08047 1.0415 -0.01363 0.9888 -0.03129 1.7228 -0.04824 2.2564 -0.03076 0.9689 -0.69476 1.8164 -1.73606 1.8955 -0.41221 0.0312 -0.93767 0.0534 -1.59991 0.0534 -0.64221 0 -1.15577 -0.0208 -1.56217 -0.0506 -1.0662 -0.0782 -1.73594 -0.9553 -1.75689 -1.9419C1.02499 41.9134 1 39.9937 1 36.8003c0 -3.1931 0.02499 -5.1128 0.04825 -6.2082 0.02096 -0.9867 0.6909 -1.8639 1.75725 -1.942 0.40634 -0.0298 0.91979 -0.0505 1.56182 -0.0505 0.66207 0 1.18742 0.022 1.59958 0.0533 1.04143 0.079 1.70563 0.9266 1.7364 1.8956 0.01641 0.5167 0.03349 1.2212 0.04692 2.1628l4.17918 0.2914c0.2124 0.0148 0.4074 -0.1172 0.4726 -0.3198l1.3323 -4.1413c-2.4249 -1.3488 -4.7911 -2.76 -7.02487 -4.2177 -2.19517 -1.4324 -3.16579 -4.2365 -2.11405 -6.742 1.80229 -4.2935 4.48189 -8.83474 7.37792 -12.50405Zm3.2875 5.24905c-0.5683 0.9472 -0.2612 2.1757 0.686 2.744l2.4065 1.4439c0.9472 0.5683 2.1757 0.2612 2.744 -0.686 0.5683 -0.9472 0.2612 -2.1757 -0.686 -2.744l-2.4065 -1.44389c-0.9472 -0.56829 -2.1757 -0.26116 -2.744 0.68599Z" clip-rule="evenodd" stroke-width="1"></path>
  </g>
</svg>
