<svg xmlns="http://www.w3.org/2000/svg" fill="none" viewBox="0 0 48 48">
  <g>
    <path fill="currentColor" fill-rule="evenodd" d="M17.4252 3.153c-1.8011 -0.8722 -4.0031 -0.4761 -5.2686 1.1275 -2.9547 3.7437 -5.6973 8.3919 -7.5354 12.7708 -0.7923 1.8874 -0.0716 4.026 1.6224 5.1314 2.5226 1.6461 5.2124 3.2375 7.9703 4.7524l-1.7513 5.4433c-0.0712 0.2216 -0.2845 0.3659 -0.5167 0.3497l-4.4104 -0.3074c-0.0142 -0.9987 -0.0322 -1.7447 -0.0496 -2.2909 -0.032 -1.01 -0.7237 -1.8912 -1.8068 -1.9733 -0.4326 -0.0328 -0.9843 -0.0561 -1.6797 -0.0561 -0.6743 0 -1.2135 0.0219 -1.64 0.0531 -1.1091 0.0813 -1.8069 0.9933 -1.8287 2.0219C0.5063 31.3265 0.48 33.344 0.48 36.6999c0 3.3561 0.0263 5.3736 0.0507 6.5247 0.0218 1.0285 0.7194 1.9404 1.8283 2.0216 0.4266 0.0313 0.9659 0.0532 1.6404 0.0532 0.6956 0 1.2474 -0.0232 1.6801 -0.0561 1.0829 -0.0821 1.7743 -0.9633 1.8064 -1.9731 0.0179 -0.5638 0.0366 -1.3406 0.0509 -2.3884 1.9695 -0.226 4.5562 -0.5747 7.4576 -1.0964 1.5997 -0.2878 2.9121 -1.4358 3.3976 -2.9904 0.7379 -2.3622 1.3608 -4.6816 1.8608 -6.7085 2.7225 1.3522 5.4421 2.6178 8.0682 3.7765 1.4306 0.6313 3.1158 0.4835 4.3645 -0.5078 5.0734 -4.0278 8.2755 -8.8666 9.949 -11.8889 1.0523 -1.9006 0.3623 -4.1885 -1.4186 -5.3504 -7.6336 -4.9803 -15.6096 -9.0013 -23.7907 -12.9629ZM15.0039 9.6c-0.7187 1.1979 -0.3303 2.7514 0.8675 3.4702l2.5293 1.5175c1.1977 0.7187 2.7514 0.3303 3.4701 -0.8675 0.7186 -1.1978 0.3302 -2.7515 -0.8675 -3.4702L18.474 8.7325c-1.1978 -0.7186 -2.7514 -0.3302 -3.4701 0.8675Zm21.3283 23.9654c3.4644 -3.1763 5.937 -6.586 7.5601 -9.2357 1.0665 0.6949 1.8649 1.2708 2.4567 1.7311 1.194 0.929 1.4943 2.4571 0.8116 3.7858 -0.3065 0.5965 -0.7199 1.3524 -1.2752 2.2941 -0.6116 1.0373 -1.1099 1.8157 -1.5028 2.3928 -0.7708 1.1325 -2.1127 1.6209 -3.4271 1.1427 -1.0203 -0.371 -2.5172 -1.0101 -4.6233 -2.1108Z" clip-rule="evenodd" stroke-width="3.429"></path>
  </g>
</svg>
