<svg xmlns="http://www.w3.org/2000/svg" viewBox="0 0 24 24" fill="none"><path d="M3.00809 4.31346C3.93999 2.45916 6.1874 1.71221 8.02957 2.66405L16.8782 7.23534C18.2252 7.93157 18.7519 9.5943 18.0725 10.9473L15.8177 15.4346C15.1348 16.7931 13.4855 17.3434 12.1321 16.6445L9.01297 15.0322L8.8743 15.7305C8.72532 16.4753 8.59682 17.1235 8.42703 17.6367C8.24858 18.176 7.99077 18.6786 7.51297 19.0703C7.03512 19.462 6.49188 19.6163 5.92801 19.6855C5.39145 19.7514 4.73071 19.75 3.97098 19.75H3.25027V20.75C3.25027 21.3023 2.80256 21.75 2.25027 21.75C1.69799 21.75 1.25027 21.3023 1.25027 20.75V16.75C1.25032 16.1977 1.69802 15.75 2.25027 15.75C2.80253 15.75 3.25023 16.1977 3.25027 16.75V17.75H3.97098C4.78067 17.75 5.29736 17.7486 5.68387 17.7012C6.04279 17.6571 6.1693 17.585 6.24442 17.5234C6.3195 17.4619 6.41493 17.3522 6.52859 17.0088C6.65093 16.639 6.75354 16.1321 6.91238 15.3379L7.16434 14.0771L3.28348 12.0723C1.44736 11.1235 0.726827 8.85457 1.65555 7.00585L3.00809 4.31346ZM21.2083 10.791C21.4511 10.7929 21.6901 10.8526 21.9055 10.9639C22.6707 11.3595 22.9655 12.2997 22.5823 13.0625L20.1555 17.8916C19.7693 18.6603 18.8323 18.9757 18.0608 18.5771C17.8454 18.4658 17.6592 18.3058 17.5169 18.1103L16.4866 16.6953C16.656 16.4824 16.807 16.2494 16.9339 15.9971L19.1888 11.5098L19.1897 11.5088C19.3092 11.2707 19.402 11.0256 19.471 10.7773L21.2083 10.791ZM13.4182 9.68553C12.9512 9.44432 12.3921 9.60975 12.1204 10.0361L12.0706 10.125C11.8265 10.6109 12.012 11.2124 12.5042 11.4668C13.0024 11.7239 13.6057 11.5187 13.8528 11.0273C14.0966 10.5416 13.9101 9.93994 13.4182 9.68553Z" fill="currentColor" fill-rule="evenodd" clip-rule="evenodd"/></svg>
