<svg xmlns="http://www.w3.org/2000/svg" viewBox="0 0 24 24" fill="none"><path opacity="0.4" d="M17.5264 10.3506C17.957 9.78622 18.25 9.20174 18.25 8.5C18.25 7.79826 17.957 7.21378 17.5264 6.64941C17.1171 6.11309 16.5199 5.51594 15.7952 4.79128L15.752 4.74805L15.7087 4.7048C14.9841 3.98009 14.3869 3.3829 13.8506 2.97363C13.3568 2.59686 12.8474 2.32558 12.2578 2.26367L12 2.25C11.2983 2.25 10.7138 2.54304 10.1494 2.97363C9.60247 3.39102 8.99225 4.00384 8.24805 4.74805C7.50384 5.49225 6.89102 6.10247 6.47363 6.64941C6.04304 7.21378 5.75 7.79826 5.75 8.5C5.75 9.20174 6.04304 9.78622 6.47363 10.3506C6.88291 10.8869 7.4801 11.4841 8.20481 12.2087L8.24805 12.252L8.29128 12.2952C9.01594 13.0199 9.61309 13.6171 10.1494 14.0264C10.7138 14.457 11.2983 14.75 12 14.75L12.2578 14.7363C12.8474 14.6744 13.3568 14.4031 13.8506 14.0264C14.3869 13.6171 14.9841 13.0199 15.7087 12.2952L15.752 12.252L15.7952 12.2087C16.5199 11.4841 17.1171 10.8869 17.5264 10.3506Z" fill="currentColor"/><path d="M12 7.5C12.5523 7.5 13 7.94772 13 8.5C13 9.05229 12.5523 9.5 12 9.5C11.4477 9.5 11 9.05228 11 8.5C11 7.94772 11.4477 7.5 12 7.5Z" fill="currentColor"/><path d="M6.04688 12.25C6.94765 12.25 7.69901 12.25 8.29492 12.3301C8.30735 12.3318 8.31965 12.3342 8.33203 12.3359C9.03838 13.0423 9.62318 13.6248 10.1494 14.0264C10.2986 14.1402 10.4498 14.2433 10.6035 14.335C10.63 14.4557 10.653 14.579 10.6699 14.7051C10.75 15.301 10.75 16.0524 10.75 16.9531V17.0469C10.75 17.9476 10.75 18.699 10.6699 19.2949C10.5855 19.9225 10.3997 20.489 9.94434 20.9443C9.48898 21.3997 8.92253 21.5855 8.29492 21.6699C7.69901 21.75 6.94765 21.75 6.04688 21.75H5.95313C5.05236 21.75 4.30099 21.75 3.70508 21.6699C3.07747 21.5855 2.51102 21.3997 2.05566 20.9443C1.60031 20.489 1.41451 19.9225 1.33008 19.2949C1.24996 18.699 1.24998 17.9476 1.25 17.0469V16.9531C1.24998 16.0524 1.24996 15.301 1.33008 14.7051C1.41451 14.0775 1.60031 13.511 2.05566 13.0557C2.51102 12.6003 3.07747 12.4145 3.70508 12.3301C4.30099 12.25 5.05236 12.25 5.95313 12.25H6.04688Z" fill="currentColor"/><path d="M18.0469 12.25C18.9476 12.25 19.699 12.25 20.2949 12.3301C20.9225 12.4145 21.489 12.6003 21.9443 13.0557C22.3997 13.511 22.5855 14.0775 22.6699 14.7051C22.75 15.301 22.75 16.0524 22.75 16.9531V17.0469C22.75 17.9476 22.75 18.699 22.6699 19.2949C22.5855 19.9225 22.3997 20.489 21.9443 20.9443C21.489 21.3997 20.9225 21.5855 20.2949 21.6699C19.699 21.75 18.9476 21.75 18.0469 21.75H17.9531C17.0524 21.75 16.301 21.75 15.7051 21.6699C15.0775 21.5855 14.511 21.3997 14.0557 20.9443C13.6003 20.489 13.4145 19.9225 13.3301 19.2949C13.25 18.699 13.25 17.9476 13.25 17.0469V16.9531C13.25 16.0524 13.25 15.301 13.3301 14.7051C13.3471 14.5786 13.3699 14.455 13.3965 14.334C13.5501 14.2424 13.7016 14.1401 13.8506 14.0264C14.3767 13.6249 14.9609 13.0421 15.667 12.3359C15.6797 12.3341 15.6923 12.3318 15.7051 12.3301C16.301 12.25 17.0524 12.25 17.9531 12.25H18.0469Z" fill="currentColor"/></svg>
