<svg xmlns="http://www.w3.org/2000/svg" viewBox="0 0 24 24" fill="none"><path d="M10.75 17.0467V17V16.9533C10.75 16.0524 10.75 15.301 10.6699 14.7051C10.5855 14.0775 10.3997 13.511 9.94434 13.0557C9.48898 12.6003 8.92254 12.4145 8.29492 12.3301C7.69897 12.25 6.94754 12.25 6.04669 12.25H6H5.95332C5.05246 12.25 4.30103 12.25 3.70508 12.3301C3.07747 12.4145 2.51103 12.6003 2.05567 13.0557C1.60031 13.511 1.41451 14.0775 1.33008 14.7051C1.24996 15.301 1.24998 16.0525 1.25 16.9533V17V17.0467C1.24998 17.9475 1.24996 18.699 1.33008 19.2949C1.41451 19.9225 1.60031 20.489 2.05567 20.9443C2.51103 21.3997 3.07747 21.5855 3.70508 21.6699C4.30102 21.75 5.05244 21.75 5.95327 21.75H6H6.04673C6.94757 21.75 7.69898 21.75 8.29492 21.6699C8.92254 21.5855 9.48898 21.3997 9.94434 20.9443C10.3997 20.489 10.5855 19.9225 10.6699 19.2949C10.75 18.699 10.75 17.9476 10.75 17.0467Z" fill="currentColor"/><path d="M16.75 8.5C16.75 8.25809 16.6628 7.99051 16.334 7.55957C15.992 7.11136 15.4657 6.58287 14.6914 5.80859C13.9171 5.03431 13.3886 4.50802 12.9404 4.16602C12.5631 3.87813 12.311 3.77496 12.0918 3.75391L12 3.75C11.7581 3.75 11.4905 3.83722 11.0596 4.16602C10.6114 4.50802 10.0829 5.03431 9.30859 5.80859C8.53431 6.58287 8.00802 7.11136 7.66602 7.55957C7.33722 7.99051 7.25 8.25809 7.25 8.5C7.25 8.74191 7.33722 9.00949 7.66602 9.44043C8.00802 9.88864 8.53431 10.4171 9.30859 11.1914C10.0829 11.9657 10.6114 12.492 11.0596 12.834C11.4905 13.1628 11.7581 13.25 12 13.25C12.2419 13.25 12.5095 13.1628 12.9404 12.834C13.3886 12.492 13.9171 11.9657 14.6914 11.1914C15.4657 10.4171 15.992 9.88864 16.334 9.44043C16.6628 9.00949 16.75 8.74191 16.75 8.5ZM18.25 8.5C18.25 9.20174 17.957 9.78622 17.5264 10.3506C17.109 10.8975 16.4962 11.5077 15.752 12.252C15.0078 12.9962 14.3975 13.609 13.8506 14.0264C13.3568 14.4031 12.8474 14.6744 12.2578 14.7363L12 14.75C11.2983 14.75 10.7138 14.457 10.1494 14.0264C9.60247 13.609 8.99225 12.9962 8.24805 12.252C7.50384 11.5078 6.89102 10.8975 6.47363 10.3506C6.04304 9.78622 5.75 9.20174 5.75 8.5C5.75 7.79826 6.04304 7.21378 6.47363 6.64941C6.89102 6.10247 7.50384 5.49225 8.24805 4.74805C8.99225 4.00384 9.60247 3.39102 10.1494 2.97363C10.7138 2.54304 11.2983 2.25 12 2.25L12.2578 2.26367C12.8474 2.32558 13.3568 2.59686 13.8506 2.97363C14.3975 3.39102 15.0077 4.00384 15.752 4.74805C16.4962 5.49225 17.109 6.10247 17.5264 6.64941C17.957 7.21378 18.25 7.79826 18.25 8.5Z" fill="currentColor"/><path d="M22.75 17.0467V17V16.9533C22.75 16.0524 22.75 15.301 22.6699 14.7051C22.5855 14.0775 22.3997 13.511 21.9443 13.0557C21.489 12.6003 20.9225 12.4145 20.2949 12.3301C19.699 12.25 18.9475 12.25 18.0467 12.25H18H17.9533C17.0525 12.25 16.301 12.25 15.7051 12.3301C15.0775 12.4145 14.511 12.6003 14.0557 13.0557C13.6003 13.511 13.4145 14.0775 13.3301 14.7051C13.25 15.301 13.25 16.0525 13.25 16.9533V17V17.0467C13.25 17.9475 13.25 18.699 13.3301 19.2949C13.4145 19.9225 13.6003 20.489 14.0557 20.9443C14.511 21.3997 15.0775 21.5855 15.7051 21.6699C16.301 21.75 17.0524 21.75 17.9533 21.75H18H18.0467C18.9476 21.75 19.699 21.75 20.2949 21.6699C20.9225 21.5855 21.489 21.3997 21.9443 20.9443C22.3997 20.489 22.5855 19.9225 22.6699 19.2949C22.75 18.699 22.75 17.9476 22.75 17.0467Z" fill="currentColor"/><path d="M12 7.5C12.5523 7.5 13 7.94772 13 8.5C13 9.05229 12.5523 9.5 12 9.5C11.4477 9.5 11 9.05228 11 8.5C11 7.94772 11.4477 7.5 12 7.5Z" fill="currentColor"/></svg>
