<svg xmlns="http://www.w3.org/2000/svg" viewBox="0 0 24 24" fill="none"><path d="M2.25012 14.9722V6.22222C2.25012 5.68528 2.68385 5.25 3.21887 5.25C3.7539 5.25 4.18762 5.68528 4.18762 6.22222V14.9722C4.18762 16.6037 4.18962 17.7295 4.30304 18.5763C4.41274 19.3951 4.61061 19.8059 4.89716 20.0935C5.18371 20.3811 5.59305 20.5796 6.40894 20.6897C7.25268 20.8035 8.37449 20.8056 10.0001 20.8056H16.7814C17.3164 20.8056 17.7501 21.2408 17.7501 21.7778C17.7501 22.3147 17.3164 22.75 16.7814 22.75H10.0001C8.42921 22.75 7.15352 22.7524 6.15067 22.6171C5.11993 22.478 4.23383 22.1773 3.52729 21.4683C2.82075 20.7592 2.52115 19.8699 2.38257 18.8355C2.24775 17.829 2.25012 16.5488 2.25012 14.9722Z" fill="currentColor"/><path opacity="0.4" d="M21.7501 11.0579V11V9V8.94211C21.7501 7.34052 21.7502 6.06221 21.6154 5.05957C21.476 4.02332 21.1801 3.17025 20.505 2.49512C19.8299 1.81999 18.9768 1.52409 17.9406 1.38477C16.9379 1.24996 15.6596 1.24998 14.058 1.25H14.0001H13.9423C12.3407 1.24998 11.0623 1.24996 10.0597 1.38477C9.02344 1.52409 8.17037 1.81999 7.49524 2.49512C6.82011 3.17025 6.52421 4.02332 6.38489 5.05957C6.25009 6.06221 6.2501 7.34053 6.25012 8.94213V9V11V11.0579C6.2501 12.6595 6.25009 13.9378 6.38489 14.9404C6.52421 15.9767 6.82011 16.8298 7.49524 17.5049C8.17037 18.18 9.02344 18.4759 10.0597 18.6152C11.0623 18.75 12.3406 18.75 13.9422 18.75H14.0001H14.058C15.6596 18.75 16.9379 18.75 17.9406 18.6152C18.9768 18.4759 19.8299 18.18 20.505 17.5049C21.1801 16.8298 21.476 15.9767 21.6154 14.9404C21.7502 13.9378 21.7501 12.6595 21.7501 11.0579Z" fill="currentColor"/><path d="M17.9542 7.7005C17.7884 7.17387 17.227 6.88071 16.7003 7.0462C15.3708 7.46477 14.0909 8.64494 13.2267 9.56574C12.9594 9.85054 12.7179 10.128 12.5089 10.3763C12.3299 10.2085 12.152 10.0757 11.9786 9.97296C11.753 9.83928 11.5464 9.76256 11.3751 9.71906C11.29 9.69743 11.129 9.6673 11.0001 9.6673C10.4478 9.6673 10.0001 10.115 10.0001 10.6673C10.0003 11.1827 10.3906 11.6054 10.8917 11.6595C11.0304 11.7266 11.3253 11.9506 11.629 12.4905C11.7967 12.7885 12.105 12.9809 12.4464 12.9993C12.7877 13.0177 13.1148 12.8594 13.3136 12.5814C13.3779 12.4955 13.567 12.2442 13.6886 12.0911C13.9328 11.7836 14.2783 11.368 14.6847 10.9349C15.5409 10.0225 16.512 9.20269 17.2999 8.95441C17.8266 8.78862 18.1197 8.22715 17.9542 7.7005Z" fill="currentColor"/></svg>
