<svg xmlns="http://www.w3.org/2000/svg" viewBox="0 0 24 24" fill="none"><path d="M2.25012 14.9722V6.22222C2.25012 5.68528 2.68385 5.25 3.21887 5.25C3.7539 5.25 4.18762 5.68528 4.18762 6.22222V14.9722C4.18762 16.6037 4.18962 17.7295 4.30304 18.5763C4.41274 19.3951 4.61061 19.8059 4.89716 20.0935C5.18371 20.3811 5.59305 20.5796 6.40894 20.6897C7.25268 20.8035 8.37449 20.8056 10.0001 20.8056H16.7814C17.3164 20.8056 17.7501 21.2408 17.7501 21.7778C17.7501 22.3147 17.3164 22.75 16.7814 22.75H10.0001C8.42921 22.75 7.15352 22.7524 6.15067 22.6171C5.11993 22.478 4.23383 22.1773 3.52729 21.4683C2.82075 20.7592 2.52115 19.8699 2.38257 18.8355C2.24775 17.829 2.25012 16.5488 2.25012 14.9722Z" fill="currentColor"/><path d="M14.0577 1.25C15.6593 1.24998 16.9379 1.24996 17.9406 1.38477C18.9768 1.52409 19.8299 1.81999 20.505 2.49512C21.1801 3.17025 21.476 4.02332 21.6154 5.05957C21.7502 6.06221 21.7501 7.34079 21.7501 8.94238V11.0576C21.7501 12.6592 21.7502 13.9378 21.6154 14.9404C21.476 15.9767 21.1801 16.8298 20.505 17.5049C19.8299 18.18 18.9768 18.4759 17.9406 18.6152C16.9379 18.75 15.6593 18.75 14.0577 18.75H13.9425C12.3409 18.75 11.0623 18.75 10.0597 18.6152C9.02344 18.4759 8.17037 18.18 7.49524 17.5049C6.82011 16.8298 6.52421 15.9767 6.38489 14.9404C6.25009 13.9378 6.2501 12.6592 6.25012 11.0576V8.94238C6.2501 7.34078 6.25009 6.06221 6.38489 5.05957C6.52421 4.02332 6.82011 3.17025 7.49524 2.49512C8.17037 1.81998 9.02344 1.52409 10.0597 1.38477C11.0623 1.24996 12.3409 1.24998 13.9425 1.25H14.0577ZM17.9542 7.7002C17.7883 7.17377 17.2268 6.88049 16.7003 7.0459C15.3708 7.46444 14.0909 8.64465 13.2267 9.56543C12.9595 9.85017 12.7179 10.1277 12.5089 10.376C12.33 10.2083 12.1519 10.0754 11.9786 9.97266C11.7531 9.83902 11.5464 9.76225 11.3751 9.71875C11.29 9.69713 11.129 9.66699 11.0001 9.66699C10.4479 9.66699 10.0003 10.1148 10.0001 10.667C10.0003 11.1824 10.3906 11.6051 10.8917 11.6592C11.0304 11.7262 11.3254 11.9505 11.629 12.4902C11.7967 12.7882 12.105 12.9805 12.4464 12.999C12.7877 13.0174 13.1148 12.859 13.3136 12.5811C13.3781 12.4951 13.5671 12.2438 13.6886 12.0908C13.9328 11.7833 14.2784 11.3676 14.6847 10.9346C15.5409 10.0223 16.512 9.20237 17.2999 8.9541C17.8265 8.78828 18.1197 8.22681 17.9542 7.7002Z" fill="currentColor"/></svg>
