<svg xmlns="http://www.w3.org/2000/svg" viewBox="0 0 24 24" fill="none"><path opacity="0.4" d="M14.4642 8.83991V12.7343L8.4628 6.63698C7.95496 6.12101 7.13158 6.12101 6.62373 6.63698C6.11581 7.15302 6.1159 7.98971 6.62392 8.50565L10.4356 12.3767C10.6298 12.5741 10.6297 12.8944 10.4356 13.092C10.2412 13.2895 9.92606 13.2894 9.73161 13.092L4.48402 7.76047C4.07335 7.34322 3.4075 7.34322 2.99683 7.76047C2.58612 8.17774 2.58615 8.85427 2.99689 9.27151L8.24484 14.6025C8.43914 14.8 8.43907 15.1203 8.24484 15.3178C8.05044 15.5153 7.73527 15.5153 7.54084 15.3178L3.29724 11.0063C2.88668 10.5892 2.22103 10.5892 1.81047 11.0063C1.39991 11.4235 1.39991 12.0998 1.81047 12.5169L6.05406 16.8283C6.24842 17.0259 6.24846 17.3461 6.05406 17.5436C5.85966 17.7411 5.54448 17.7411 5.35006 17.5436L3.46946 15.6329C2.96318 15.1185 2.14285 15.1168 1.63449 15.6291C1.12316 16.1443 1.12146 16.9837 1.63069 17.5011L4.23085 20.1428C5.87409 21.8123 8.10301 22.75 10.4269 22.75H11.1785C14.8079 22.75 17.7497 19.7609 17.7499 16.0736V8.83991C17.7499 7.91811 17.0148 7.17043 16.1075 7.17031C15.2002 7.17031 14.4642 7.91803 14.4642 8.83991Z" fill="currentColor"/><path d="M21.1075 4.2559C22.0148 4.25602 22.75 5.00408 22.7501 5.92582V13.1592C22.75 16.1183 21.2664 18.4305 18.6423 19.3063C19.1351 18.267 19.4639 17.0579 19.464 15.8317V9.82035V5.92582C19.4641 5.00408 20.2003 4.25602 21.1075 4.2559Z" fill="currentColor"/><path d="M11.6241 3.72269C12.1319 3.20704 12.9552 3.207 13.463 3.72269L15.6622 5.95804C14.7198 6.10448 13.9375 6.70497 13.5265 7.52445L11.6241 5.59183C11.1161 5.0759 11.1162 4.23874 11.6241 3.72269Z" fill="currentColor"/><path d="M4.50024 4.25C4.91446 4.25 5.25024 4.58579 5.25024 5C5.25024 5.41421 4.91446 5.75 4.50024 5.75H3.00024C2.58603 5.75 2.25024 5.41421 2.25024 5C2.25024 4.58579 2.58603 4.25 3.00024 4.25H4.50024ZM6.25024 3.5V2C6.25024 1.58579 6.58603 1.25 7.00024 1.25C7.41446 1.25 7.75024 1.58579 7.75024 2V3.5C7.75024 3.91421 7.41446 4.25 7.00024 4.25C6.58603 4.25 6.25024 3.91421 6.25024 3.5Z" fill="currentColor"/></svg>
