<svg xmlns="http://www.w3.org/2000/svg" viewBox="0 0 24 24" fill="none"><path opacity="0.4" d="M15.9368 10.6694C15.337 10.7522 14.5244 10.75 13.5838 10.75H10.4196C9.47905 10.75 8.66647 10.7522 8.06663 10.6694C7.53995 10.5967 6.80687 10.4126 6.44244 9.742L6.37414 9.60101C6.0405 8.81397 6.45665 8.11782 6.79796 7.67474C7.16232 7.20181 7.73848 6.64217 8.40344 5.99292L9.98646 4.44842C10.2828 4.15911 10.5717 3.87405 10.8416 3.67297C11.1337 3.45535 11.5126 3.25 12.0017 3.25C12.4908 3.25 12.8697 3.45535 13.1619 3.67297C13.4317 3.87405 13.7207 4.15911 14.017 4.44842L15.6 5.99292L15.6469 6.03872C16.292 6.66853 16.8497 7.21297 17.2055 7.67474C17.5255 8.09016 17.9107 8.72787 17.6826 9.45452L17.6293 9.60101L17.561 9.742C17.1966 10.4126 16.4635 10.5967 15.9368 10.6694Z" fill="currentColor"/><path d="M15.9368 13.3306C15.337 13.2478 14.5244 13.25 13.5838 13.25H10.4196C9.47905 13.25 8.66647 13.2478 8.06663 13.3306C7.53995 13.4033 6.80687 13.5874 6.44244 14.258L6.37414 14.399C6.0405 15.186 6.45665 15.8822 6.79796 16.3253C7.16232 16.7982 7.73848 17.3578 8.40344 18.0071L9.98646 19.5516C10.2828 19.8409 10.5717 20.1259 10.8416 20.327C11.1337 20.5446 11.5126 20.75 12.0017 20.75C12.4908 20.75 12.8697 20.5446 13.1619 20.327C13.4317 20.1259 13.7207 19.8409 14.017 19.5516L15.6 18.0071L15.6469 17.9613C16.292 17.3315 16.8497 16.787 17.2055 16.3253C17.5255 15.9098 17.9107 15.2721 17.6826 14.5455L17.6293 14.399L17.561 14.258C17.1966 13.5874 16.4635 13.4033 15.9368 13.3306Z" fill="currentColor"/></svg>
