<svg xmlns="http://www.w3.org/2000/svg" viewBox="0 0 24 24" fill="none"><path d="M13.5838 10.75C14.5244 10.75 15.337 10.7522 15.9368 10.6694C16.4635 10.5967 17.1966 10.4126 17.561 9.742L17.6293 9.60101L17.6826 9.45452C17.9107 8.72787 17.5255 8.09016 17.2055 7.67474C16.8411 7.20181 16.265 6.64217 15.6 5.99292L14.017 4.44842C13.7207 4.15911 13.4317 3.87405 13.1619 3.67297C12.8697 3.45535 12.4908 3.25 12.0017 3.25C11.5126 3.25 11.1337 3.45535 10.8416 3.67297C10.5717 3.87405 10.2828 4.15911 9.98646 4.44842L8.40344 5.99292C7.73848 6.64217 7.16232 7.20181 6.79796 7.67474C6.45665 8.11782 6.0405 8.81397 6.37414 9.60101L6.44244 9.742C6.80687 10.4126 7.53995 10.5967 8.06663 10.6694C8.66647 10.7522 9.47905 10.75 10.4196 10.75H13.5838ZM10.4196 8.875C9.41493 8.875 8.76753 8.87257 8.33421 8.81274C8.33041 8.81222 8.32669 8.81144 8.32298 8.81091C8.32483 8.80849 8.3267 8.80604 8.32859 8.80358C8.59147 8.46237 9.04671 8.01417 9.75724 7.32043L11.3393 5.77502C11.6734 5.44881 11.8582 5.27234 12.0017 5.16528C12.1453 5.27234 12.33 5.44881 12.6641 5.77502L14.2462 7.32043C14.9567 8.01417 15.412 8.46237 15.6749 8.80358C15.6766 8.80589 15.6778 8.80863 15.6795 8.81091C15.6761 8.81139 15.6727 8.81226 15.6692 8.81274C15.2359 8.87257 14.5885 8.875 13.5838 8.875H10.4196Z" fill="currentColor"/><path d="M15.9368 13.3306C15.337 13.2478 14.5244 13.25 13.5838 13.25H10.4196C9.47905 13.25 8.66647 13.2478 8.06663 13.3306C7.53995 13.4033 6.80687 13.5874 6.44244 14.258L6.37414 14.399C6.0405 15.186 6.45665 15.8822 6.79796 16.3253C7.16232 16.7982 7.73848 17.3578 8.40344 18.0071L9.98646 19.5516C10.2828 19.8409 10.5717 20.1259 10.8416 20.327C11.1337 20.5446 11.5126 20.75 12.0017 20.75C12.4908 20.75 12.8697 20.5446 13.1619 20.327C13.4317 20.1259 13.7207 19.8409 14.017 19.5516L15.6469 17.9613C16.292 17.3315 16.8497 16.787 17.2055 16.3253C17.5255 15.9098 17.9107 15.2721 17.6826 14.5455L17.6293 14.399L17.561 14.258C17.1966 13.5874 16.4635 13.4033 15.9368 13.3306Z" fill="currentColor"/></svg>
