<svg xmlns="http://www.w3.org/2000/svg" viewBox="0 0 24 24" fill="none"><path opacity="0.4" d="M12.0001 22.2495C17.661 22.2495 22.2501 17.6604 22.2501 11.9995C22.2501 6.33859 17.661 1.74951 12.0001 1.74951C6.3392 1.74951 1.75012 6.33859 1.75012 11.9995C1.75012 13.1291 1.93302 14.2176 2.27161 15.2358C2.70969 16.5531 2.43626 18.1709 2.07629 19.1313L2.00305 19.314C1.80215 19.7875 1.84822 20.4078 2.27942 20.8394C2.55433 21.1143 2.95568 21.2704 3.37805 21.2065C3.71661 21.1553 4.05391 21.0488 4.34108 20.9581L4.35852 20.9526C4.66743 20.8551 4.9447 20.7683 5.23645 20.7134C5.7824 20.6107 6.38523 20.6196 7.14465 21.0288C8.59058 21.8079 10.2449 22.2495 12.0001 22.2495Z" fill="currentColor"/><path d="M15.5001 14.4996C15.5001 13.3951 14.6047 12.4996 13.5001 12.4996H9.71301C9.90072 12.6553 10.0774 12.7987 10.2247 12.9137C10.3371 13.0014 10.4305 13.0728 10.4952 13.1217C10.5276 13.1461 10.5528 13.1649 10.5695 13.1774C10.5778 13.1835 10.5841 13.1881 10.588 13.191L10.5919 13.194H10.5929C11.0376 13.5215 11.1323 14.1477 10.8048 14.5924C10.4774 15.0369 9.85199 15.1324 9.40735 14.8053V14.8043H9.40637L9.40442 14.8024C9.40285 14.8012 9.40033 14.7995 9.39758 14.7975C9.39211 14.7934 9.38394 14.7882 9.37415 14.7809C9.35427 14.7661 9.32601 14.7445 9.29016 14.7174C9.21822 14.6631 9.11617 14.585 8.99426 14.4899C8.75155 14.3004 8.42475 14.038 8.09485 13.7516C7.76999 13.4695 7.41905 13.1445 7.14172 12.8307C7.00405 12.6749 6.86288 12.4975 6.7511 12.3121C6.66775 12.1738 6.53802 11.9315 6.50696 11.6315L6.50012 11.4996L6.50696 11.3678C6.53801 11.0677 6.66774 10.8254 6.7511 10.6871C6.86288 10.5017 7.00404 10.3244 7.14172 10.1686C7.41905 9.85475 7.76998 9.52973 8.09485 9.24767C8.42475 8.96124 8.75154 8.6988 8.99426 8.50938C9.11617 8.41425 9.21822 8.33618 9.29016 8.28185C9.32601 8.25477 9.35427 8.23318 9.37415 8.21837C9.38393 8.21108 9.39211 8.20582 9.39758 8.20177C9.40031 8.19974 9.40285 8.19804 9.40442 8.19688L9.40637 8.19493H9.40735V8.19395C9.85202 7.86677 10.4784 7.96227 10.8058 8.40685C11.133 8.85152 11.0375 9.47787 10.5929 9.80528L10.5919 9.80431V9.80528C10.5911 9.80591 10.5898 9.80691 10.588 9.80821C10.5841 9.81114 10.5778 9.8157 10.5695 9.82188C10.5528 9.83432 10.5276 9.85314 10.4952 9.87755C10.4305 9.92645 10.3371 9.99786 10.2247 10.0856C10.0774 10.2005 9.90072 10.344 9.71301 10.4996H13.5001C15.7092 10.4996 17.5001 12.2905 17.5001 14.4996C17.5001 15.0519 17.0524 15.4996 16.5001 15.4996C15.9478 15.4996 15.5001 15.0519 15.5001 14.4996Z" fill="currentColor"/></svg>
