<svg xmlns="http://www.w3.org/2000/svg" viewBox="0 0 24 24" fill="none"><path d="M12.0001 1.74951C17.661 1.74951 22.2501 6.33859 22.2501 11.9995C22.2501 17.6604 17.661 22.2495 12.0001 22.2495C10.2449 22.2495 8.59058 21.8079 7.14465 21.0288C6.38523 20.6196 5.7824 20.6107 5.23645 20.7134C4.9447 20.7683 4.66743 20.8551 4.35852 20.9526L4.34094 20.9585C4.05382 21.0491 3.71652 21.1553 3.37805 21.2065C2.95568 21.2704 2.55433 21.1143 2.27942 20.8394C1.84822 20.4078 1.80215 19.7875 2.00305 19.314L2.07629 19.1313C2.43626 18.1709 2.70969 16.5531 2.27161 15.2358C1.93302 14.2176 1.75012 13.1291 1.75012 11.9995C1.75012 6.33859 6.3392 1.74951 12.0001 1.74951ZM10.8058 8.40674C10.4784 7.96224 9.852 7.86673 9.40735 8.19385V8.19482H9.40637L9.40442 8.19678C9.40286 8.19793 9.4003 8.19965 9.39758 8.20166C9.39212 8.20571 9.38391 8.21099 9.37415 8.21826C9.35428 8.23307 9.32598 8.25468 9.29016 8.28174C9.21823 8.33607 9.11614 8.41416 8.99426 8.50928C8.75155 8.69869 8.42474 8.96115 8.09485 9.24756C7.77 9.52961 7.41904 9.85466 7.14172 10.1685C7.00406 10.3243 6.86287 10.5016 6.7511 10.687C6.66775 10.8253 6.53803 11.0676 6.50696 11.3677L6.50012 11.4995L6.50696 11.6313C6.53801 11.9314 6.66775 12.1737 6.7511 12.312C6.86286 12.4974 7.00406 12.6748 7.14172 12.8306C7.41903 13.1444 7.77 13.4694 8.09485 13.7515C8.42473 14.0379 8.75155 14.3003 8.99426 14.4897C9.11614 14.5849 9.21822 14.6629 9.29016 14.7173C9.32598 14.7443 9.35428 14.766 9.37415 14.7808C9.38391 14.788 9.39211 14.7933 9.39758 14.7974C9.4003 14.7994 9.40285 14.8011 9.40442 14.8022L9.40637 14.8042H9.40735V14.8052C9.85199 15.1323 10.4774 15.0368 10.8048 14.5923C11.1323 14.1476 11.0376 13.5213 10.5929 13.1938H10.5919L10.588 13.1909C10.5841 13.188 10.5777 13.1834 10.5695 13.1772C10.5528 13.1648 10.5275 13.146 10.4952 13.1216C10.4305 13.0727 10.3371 13.0013 10.2247 12.9136C10.0774 12.7986 9.9007 12.6551 9.71301 12.4995H13.5001C14.6046 12.4995 15.5001 13.395 15.5001 14.4995C15.5001 15.0518 15.9478 15.4995 16.5001 15.4995C17.0524 15.4995 17.5001 15.0518 17.5001 14.4995C17.5001 12.2904 15.7092 10.4995 13.5001 10.4995H9.71301C9.90071 10.3439 10.0774 10.2004 10.2247 10.0854C10.3371 9.99777 10.4305 9.92633 10.4952 9.87744C10.5275 9.85306 10.5528 9.83421 10.5695 9.82178C10.5777 9.81561 10.5841 9.81103 10.588 9.80811C10.5897 9.80682 10.5911 9.8058 10.5919 9.80518V9.8042L10.5929 9.80518C11.0374 9.47775 11.133 8.8514 10.8058 8.40674Z" fill="currentColor"/></svg>
