<svg xmlns="http://www.w3.org/2000/svg" viewBox="0 0 24 24" fill="none"><path opacity="0.4" d="M15.9561 1.25C16.8166 1.24995 17.5584 1.24981 18.1523 1.33008C18.7895 1.41623 19.4001 1.61138 19.8955 2.10938C20.3908 2.60734 20.5842 3.22092 20.6699 3.86133C20.7497 4.45822 20.7501 5.20363 20.75 6.06836V17.8633C20.75 18.403 20.3143 18.8408 19.7773 18.8408H19.6875C19.6572 18.8768 19.6244 18.9161 19.5928 18.96C19.4254 19.1924 19.292 19.4846 19.292 19.8184C19.292 20.152 19.4255 20.4434 19.5928 20.6758C19.6244 20.7198 19.6571 20.7598 19.6875 20.7959H19.7773C20.3142 20.7959 20.7499 21.2329 20.75 21.7725C20.75 22.3122 20.3143 22.75 19.7773 22.75H6.16699C4.55622 22.75 3.2501 21.4375 3.25 19.8184V8.03516C3.24998 6.70606 3.25036 5.61063 3.36621 4.74414C3.48749 3.8374 3.75177 3.03671 4.38965 2.39551C5.02747 1.7544 5.82365 1.48814 6.72559 1.36621C7.5876 1.24974 8.67772 1.24998 10 1.25H15.9561ZM6.16699 18.8398C5.63005 18.8398 5.19434 19.2777 5.19434 19.8174C5.19448 20.357 5.63014 20.7939 6.16699 20.7939H17.5C17.4082 20.5025 17.3477 20.1761 17.3477 19.8174C17.3477 19.4584 17.4081 19.1314 17.5 18.8398H6.16699Z" fill="currentColor" fill-rule="evenodd" clip-rule="evenodd"/><path d="M12 5.25C13.2426 5.25 14.25 6.25736 14.25 7.5C14.25 8.30205 13.829 9.00393 13.1973 9.40234C15.241 9.93305 16.75 11.7902 16.75 14C16.75 14.4142 16.4142 14.75 16 14.75H8C7.58579 14.75 7.25 14.4142 7.25 14C7.25 11.7906 8.75849 9.93336 10.8018 9.40234C10.1704 9.00385 9.75 8.30175 9.75 7.5C9.75 6.25736 10.7574 5.25 12 5.25Z" fill="currentColor"/></svg>
