<svg xmlns="http://www.w3.org/2000/svg" fill="none" viewBox="0 0 48 48">
  <g>
    <path fill="currentColor" fill-opacity="0.4" d="M8.01518 40.9353c0.06264 -1.1111 1.01506 -1.726 2.12722 -1.7651C12.22 39.097 16.4064 39 24 39c7.5936 0 11.78 0.097 13.8576 0.1702 1.1122 0.0391 2.0646 0.654 2.1272 1.7651 0.0097 0.1719 0.0152 0.3597 0.0152 0.5647 0 0.205 -0.0055 0.3928 -0.0152 0.5647 -0.0626 1.1111 -1.015 1.726 -2.1272 1.7651C35.78 43.903 31.5936 44 24 44c-7.5936 0 -11.78 -0.097 -13.8576 -0.1702 -1.11216 -0.0391 -2.06458 -0.654 -2.12722 -1.7651C8.00549 41.8928 8 41.705 8 41.5c0 -0.205 0.00549 -0.3928 0.01518 -0.5647Z" stroke-width="1"></path>
    <path fill="#8fbffa" d="M39.9567 6.99446C39.992 5.33795 38.656 4 36.9991 4H10.9992C9.34236 4 8.00645 5.33791 8.0417 6.99439c0.05009 2.3539 0.15925 6.09561 0.39714 11.22511 0.23647 5.0991 3.79596 9.2909 8.89146 9.5948 1.8762 0.1119 4.0908 0.1857 6.6689 0.1857 2.578 0 4.7926 -0.0738 6.6688 -0.1857 5.0956 -0.3039 8.6551 -4.4958 8.8915 -9.5949 0.2379 -5.1294 0.3471 -8.87106 0.3972 -11.22494Z" stroke-width="1"></path>
    <path fill="currentColor" fill-opacity="0.4" fill-rule="evenodd" d="M39.7411 13.9899c0.0947 -2.4365 0.1547 -4.42727 0.1928 -5.97232 1.4819 0.05214 2.8915 0.21528 3.8821 0.35577 0.9282 0.13162 1.8376 0.56103 2.0576 1.47233 0.0756 0.31322 0.1264 0.69492 0.1264 1.15482 0 0.4601 -0.0508 0.8418 -0.1265 1.1551 -0.22 0.9112 -1.1292 1.3405 -2.0572 1.4722 -1.0336 0.1466 -2.5232 0.3179 -4.0752 0.3621ZM8.06601 8.01758c0.03808 1.54505 0.09814 3.53582 0.19284 5.97232 -1.55196 -0.0442 -3.04156 -0.2155 -4.07512 -0.3621 -0.92805 -0.1317 -1.83726 -0.561 -2.05727 -1.4722C2.05081 11.8423 2 11.4606 2 11.0005c0 -0.4599 0.05079 -0.8416 0.12641 -1.15482 0.21998 -0.9113 1.12936 -1.34071 2.05755 -1.47233 0.99066 -0.14049 2.40021 -0.30362 3.88205 -0.35577Z" clip-rule="evenodd" stroke-width="1"></path>
    <path stroke="currentColor" stroke-linecap="round" stroke-linejoin="round" d="M16 33v2m8 -2v2m8 -2v2" stroke-width="1"></path>
    <path stroke="currentColor" stroke-linejoin="round" d="M8.01518 40.9353c0.06264 -1.1111 1.01506 -1.726 2.12722 -1.7651C12.22 39.097 16.4064 39 24 39c7.5936 0 11.78 0.097 13.8576 0.1702 1.1122 0.0391 2.0646 0.654 2.1272 1.7651 0.0097 0.1719 0.0152 0.3597 0.0152 0.5647 0 0.205 -0.0055 0.3928 -0.0152 0.5647 -0.0626 1.1111 -1.015 1.726 -2.1272 1.7651C35.78 43.903 31.5936 44 24 44c-7.5936 0 -11.78 -0.097 -13.8576 -0.1702 -1.11216 -0.0391 -2.06458 -0.654 -2.12722 -1.7651C8.00549 41.8928 8 41.705 8 41.5c0 -0.205 0.00549 -0.3928 0.01518 -0.5647Z" stroke-width="1"></path>
    <path stroke="currentColor" stroke-linejoin="round" d="M39.9567 6.99446C39.992 5.33795 38.656 4 36.9991 4H10.9992C9.34236 4 8.00645 5.33791 8.0417 6.99439c0.05009 2.3539 0.15925 6.09561 0.39714 11.22511 0.23647 5.0991 3.79596 9.2909 8.89146 9.5948 1.8762 0.1119 4.0908 0.1857 6.6689 0.1857 2.578 0 4.7926 -0.0738 6.6688 -0.1857 5.0956 -0.3039 8.6551 -4.4958 8.8915 -9.5949 0.2379 -5.1294 0.3471 -8.87106 0.3972 -11.22494Z" stroke-width="1"></path>
    <path stroke="currentColor" stroke-linejoin="round" d="M8.06601 8.01758c0.03808 1.54505 0.09814 3.53582 0.19284 5.97232 -1.55196 -0.0442 -3.04156 -0.2155 -4.07512 -0.3621 -0.92805 -0.1317 -1.83726 -0.561 -2.05727 -1.4722C2.05081 11.8423 2 11.4606 2 11.0005c0 -0.4599 0.05079 -0.8416 0.12641 -1.15482 0.21998 -0.9113 1.12936 -1.34071 2.05755 -1.47234 0.99066 -0.14048 2.40021 -0.30362 3.88205 -0.35576Z" stroke-width="1"></path>
    <path stroke="currentColor" stroke-linejoin="round" d="M39.7402 13.9899c0.0947 -2.4365 0.1548 -4.42727 0.1929 -5.97232 1.4819 0.05214 2.8914 0.21528 3.8821 0.35576 0.9282 0.13163 1.8376 0.56104 2.0576 1.47234 0.0756 0.31322 0.1264 0.69492 0.1264 1.15482 0 0.4601 -0.0508 0.8418 -0.1265 1.1551 -0.22 0.9112 -1.1292 1.3405 -2.0573 1.4722 -1.0335 0.1466 -2.5232 0.3179 -4.0752 0.3621Z" stroke-width="1"></path>
  </g>
</svg>
