<svg xmlns="http://www.w3.org/2000/svg" fill="none" viewBox="0 0 48 48">
  <g>
    <path fill="currentColor" fill-rule="evenodd" d="M7.9864 7.9864c-1.844 0 -3.6807 0.2064 -4.8904 0.378C2.1134 8.5037 0.9164 8.99 0.6205 10.216 0.535 10.5703 0.48 10.9918 0.48 11.4893c0 0.4975 0.055 0.9191 0.1406 1.2734 0.2959 1.2259 1.4927 1.7121 2.4751 1.8515 1.2097 0.1716 3.0466 0.3781 4.8907 0.3781 0.2764 0 0.5004 -0.224 0.5004 -0.5004V8.4868c0 -0.2764 -0.224 -0.5004 -0.5004 -0.5004Zm32.0272 0c-0.2763 0 -0.5004 0.224 -0.5004 0.5004v6.0051c0 0.2764 0.2241 0.5005 0.5004 0.5005 1.8441 0 3.6809 -0.2066 4.8907 -0.3782 0.9824 -0.1394 2.1792 -0.6256 2.4752 -1.8514l-0.4865 -0.1174 0.4865 0.1174c0.0855 -0.3543 0.1405 -0.776 0.1405 -1.2735 0 -0.4974 -0.055 -0.919 -0.1405 -1.2733 -0.296 -1.226 -1.4929 -1.7123 -2.4755 -1.8516 -1.2097 -0.1716 -3.0464 -0.378 -4.8904 -0.378Z" clip-rule="evenodd" stroke-width="1"></path>
    <path fill="currentColor" fill-opacity="0.4" fill-rule="evenodd" d="M37.0122 2.9821c2.4823 0 4.5146 2.0134 4.461 4.5303 -0.0505 2.3684 -0.1602 6.1258 -0.3988 11.272 -0.2666 5.7485 -4.3272 10.6754 -10.3094 11.0322 -1.9087 0.1139 -4.155 0.1885 -6.7638 0.1885 -2.6089 0 -4.8552 -0.0746 -6.764 -0.1885 -5.9821 -0.3568 -10.0427 -5.2836 -10.3093 -11.032 -0.2387 -5.1464 -0.3484 -8.9039 -0.3988 -11.2723 -0.0535 -2.5168 1.9787 -4.5302 4.461 -4.5302h26.0221Z" clip-rule="evenodd" stroke-width="1"></path>
    <path fill="currentColor" fill-rule="evenodd" d="M17.9949 34.5089c0 -1.1055 -0.8962 -2.0017 -2.0017 -2.0017s-2.0017 0.8962 -2.0017 2.0017v2.0017c0 1.1056 0.8962 2.0017 2.0017 2.0017s2.0017 -0.8961 2.0017 -2.0017v-2.0017Zm8.0068 0c0 -1.1055 -0.8962 -2.0017 -2.0017 -2.0017s-2.0017 0.8962 -2.0017 2.0017v2.0017c0 1.1056 0.8962 2.0017 2.0017 2.0017s2.0017 -0.8961 2.0017 -2.0017v-2.0017Zm6.0051 -2.0017c1.1056 0 2.0017 0.8962 2.0017 2.0017v2.0017c0 1.1056 -0.8961 2.0017 -2.0017 2.0017s-2.0017 -0.8961 -2.0017 -2.0017v-2.0017c0 -1.1055 0.8962 -2.0017 2.0017 -2.0017ZM9.8899 40.1566c2.001 -0.0593 6.2207 -0.143 14.1101 -0.143 7.8894 0 12.1091 0.0837 14.1101 0.143 0.5635 0.0168 1.1318 0.1683 1.5802 0.491 0.4617 0.3322 0.7793 0.8367 0.814 1.4892 0.0063 0.1189 0.0097 0.2451 0.0097 0.379 0 0.1338 -0.0034 0.26 -0.0097 0.3789 -0.0347 0.6525 -0.3523 1.157 -0.814 1.4892 -0.4484 0.3227 -1.0167 0.4742 -1.5802 0.491 -2.001 0.0593 -6.2207 0.143 -14.1101 0.143 -7.8894 0 -12.1091 -0.0837 -14.1101 -0.143 -0.5634 -0.0167 -1.1317 -0.1683 -1.5802 -0.491 -0.4617 -0.3322 -0.7793 -0.8367 -0.814 -1.4892 -0.0063 -0.1189 -0.0097 -0.2451 -0.0097 -0.379 0 -0.1338 0.0034 -0.26 0.0097 -0.3789 0.0347 -0.6525 0.3523 -1.157 0.814 -1.4892 0.4484 -0.3227 1.0167 -0.4742 1.5802 -0.491Z" clip-rule="evenodd" stroke-width="1"></path>
  </g>
</svg>
