<svg xmlns="http://www.w3.org/2000/svg" fill="none" viewBox="0 0 48 48">
  <g>
    <path fill="currentColor" fill-rule="evenodd" d="M10.9992 2.5c-2.75462 0 -5.01665 2.23619 -4.95705 5.03694l0.00237 0.11033c-0.75921 0.07053 -1.4457 0.15662 -2.00096 0.23536 -0.95494 0.13541 -1.7583 0.52931 -2.30773 1.22443C1.19756 9.78806 1 10.636 1 11.4999c0 0.8639 0.1975 1.7118 0.73569 2.3928 0.54935 0.6951 1.35266 1.0891 2.30758 1.2245 0.61474 0.0873 1.39069 0.1835 2.24834 0.2577 0.04312 1.0672 0.0926 2.213 0.14937 3.4372 0.27632 5.9584 4.49942 11.1246 10.77022 11.4987 1.9174 0.1143 4.1718 0.1892 6.788 0.1892s4.8705 -0.0749 6.7879 -0.1892c6.2709 -0.3741 10.494 -5.5404 10.7703 -11.4988 0.0567 -1.2242 0.1062 -2.3699 0.1493 -3.4371 0.8577 -0.0742 1.6336 -0.1704 2.2483 -0.2577 0.9549 -0.1354 1.7583 -0.5294 2.3076 -1.2245 0.5382 -0.681 0.7357 -1.5289 0.7357 -2.3928 0 -0.8639 -0.1976 -1.71184 -0.7358 -2.39284 -0.5495 -0.69512 -1.3528 -1.08901 -2.3078 -1.22443 -0.5552 -0.07874 -1.2417 -0.16482 -2.0008 -0.23535l0.0023 -0.11024C42.0159 4.73626 39.7538 2.5 36.9991 2.5H10.9992Zm-0.958 4.95184c-0.0109 -0.51221 0.3989 -0.95184 0.958 -0.95184h25.9999c0.5591 0 0.9689 0.43965 0.958 0.95189 -0.0497 2.33717 -0.1583 6.06211 -0.3954 11.17481 -0.1966 4.2399 -3.0926 7.4573 -7.0128 7.6912 -1.835 0.1094 -4.0098 0.1821 -6.5497 0.1821 -2.5399 0 -4.7148 -0.0727 -6.5498 -0.1821 -3.9202 -0.2339 -6.8161 -3.4512 -7.0127 -7.6911 -0.2371 -5.1128 -0.3457 -8.83779 -0.3955 -11.17496ZM16 31.75c1.1046 0 2 0.8954 2 2v2c0 1.1046 -0.8954 2 -2 2s-2 -0.8954 -2 -2v-2c0 -1.1046 0.8954 -2 2 -2Zm8 0c1.1046 0 2 0.8954 2 2v2c0 1.1046 -0.8954 2 -2 2s-2 -0.8954 -2 -2v-2c0 -1.1046 0.8954 -2 2 -2Zm8 0c1.1046 0 2 0.8954 2 2v2c0 1.1046 -0.8954 2 -2 2s-2 -0.8954 -2 -2v-2c0 -1.1046 0.8954 -2 2 -2ZM24 39c-7.5994 0 -11.7951 0.0971 -13.8839 0.1706 -1.33175 0.0469 -2.75696 0.8268 -2.84973 2.4725 -0.01052 0.1866 -0.01637 0.3886 -0.01637 0.6069s0.00585 0.4203 0.01637 0.6069c0.09277 1.6457 1.51798 2.4256 2.84973 2.4725 2.0888 0.0735 6.2845 0.1706 13.8839 0.1706s11.7951 -0.0971 13.8839 -0.1706c1.3317 -0.0469 2.757 -0.8268 2.8497 -2.4725 0.0106 -0.1866 0.0164 -0.3886 0.0164 -0.6069s-0.0058 -0.4203 -0.0164 -0.6069c-0.0927 -1.6457 -1.518 -2.4256 -2.8497 -2.4725C35.7951 39.0971 31.5994 39 24 39Z" clip-rule="evenodd" stroke-width="3.429"></path>
  </g>
</svg>
