<svg xmlns="http://www.w3.org/2000/svg" fill="none" viewBox="0 0 48 48">
  <g>
    <path fill="currentColor" fill-rule="evenodd" d="M41.4729 7.5124c0.0535 -2.5169 -1.9787 -4.5303 -4.4611 -4.5303H10.9897c-2.4822 0 -4.5145 2.0134 -4.4609 4.5302 0.0035 0.1642 0.0073 0.3352 0.0114 0.5128 -1.3231 0.0678 -2.5536 0.213 -3.4442 0.3393C2.1134 8.5037 0.9164 8.99 0.6205 10.216 0.535 10.5703 0.48 10.9917 0.48 11.4893s0.055 0.9191 0.1406 1.2734c0.2959 1.2259 1.4927 1.7121 2.4751 1.8515 0.9404 0.1334 2.2599 0.288 3.6671 0.3501 0.0466 1.1747 0.1011 2.4481 0.1647 3.8203 0.2666 5.7484 4.3273 10.6751 10.3094 11.032 1.9087 0.1139 4.155 0.1885 6.7639 0.1885s4.8551 -0.0747 6.7639 -0.1885c5.9821 -0.3568 10.0428 -5.2837 10.3093 -11.0322 0.0637 -1.3721 0.1181 -2.6455 0.1648 -3.8202 1.4066 -0.0622 2.7254 -0.2167 3.6655 -0.35 0.9824 -0.1394 2.1792 -0.6256 2.4752 -1.8514 0.0856 -0.3543 0.1405 -0.776 0.1405 -1.2735s-0.0549 -0.919 -0.1405 -1.2733c-0.296 -1.226 -1.4929 -1.7123 -2.4755 -1.8516 -0.8903 -0.1263 -2.1201 -0.2714 -3.4426 -0.3393 0.0041 -0.1776 0.008 -0.3485 0.0115 -0.5127ZM15.9932 32.5072c1.1055 0 2.0017 0.8962 2.0017 2.0017v2.0017c0 1.1056 -0.8962 2.0017 -2.0017 2.0017s-2.0017 -0.8961 -2.0017 -2.0017v-2.0017c0 -1.1055 0.8962 -2.0017 2.0017 -2.0017ZM24 40.0136c-7.8894 0 -12.1091 0.0837 -14.1101 0.143 -0.5634 0.0167 -1.1317 0.1683 -1.5802 0.491 -0.4617 0.3322 -0.7793 0.8367 -0.814 1.4892 -0.0063 0.1189 -0.0097 0.2451 -0.0097 0.3789s0.0034 0.2601 0.0097 0.379c0.0347 0.6525 0.3523 1.1569 0.814 1.4892 0.4484 0.3227 1.0167 0.4742 1.5802 0.4909 2.001 0.0594 6.2207 0.1431 14.1101 0.1431 7.8894 0 12.1091 -0.0837 14.1101 -0.1431 0.5635 -0.0167 1.1318 -0.1682 1.5802 -0.4909 0.4617 -0.3323 0.7793 -0.8367 0.814 -1.4892 0.0063 -0.1189 0.0097 -0.2451 0.0097 -0.379 0 -0.1338 -0.0034 -0.26 -0.0097 -0.3789 -0.0347 -0.6525 -0.3523 -1.157 -0.814 -1.4893 -0.4484 -0.3226 -1.0167 -0.4741 -1.5802 -0.4909 -2.001 -0.0593 -6.2207 -0.143 -14.1101 -0.143Zm2.0017 -5.5047c0 -1.1055 -0.8962 -2.0017 -2.0017 -2.0017s-2.0017 0.8962 -2.0017 2.0017v2.0017c0 1.1056 0.8962 2.0017 2.0017 2.0017s2.0017 -0.8961 2.0017 -2.0017v-2.0017Zm6.0051 -2.0017c1.1056 0 2.0017 0.8962 2.0017 2.0017v2.0017c0 1.1056 -0.8961 2.0017 -2.0017 2.0017s-2.0017 -0.8961 -2.0017 -2.0017v-2.0017c0 -1.1055 0.8962 -2.0017 2.0017 -2.0017Z" clip-rule="evenodd" stroke-width="3.429"></path>
  </g>
</svg>
