<svg xmlns="http://www.w3.org/2000/svg" viewBox="0 0 24 24" fill="none"><path d="M3.5 12.25C2.25736 12.25 1.25 13.2574 1.25 14.5C1.25 15.7138 2.21122 16.7032 3.41401 16.7484L3.7043 17.9095C4.12164 19.5789 5.62158 20.75 7.34233 20.75H16.6577C18.3784 20.75 19.8784 19.5789 20.2957 17.9095L20.586 16.7484C21.7888 16.7032 22.75 15.7138 22.75 14.5C22.75 13.2574 21.7426 12.25 20.5 12.25H18.6056C18.0626 12.25 17.5319 12.4107 17.0801 12.7119L15.1387 14.0062C15.0547 14.0621 14.9453 14.0621 14.8613 14.0062L12.9199 12.7119C12.4681 12.4107 11.9374 12.25 11.3944 12.25H3.5ZM12.0878 13.9599L14.0293 15.2542L3.5 15.25C3.08579 15.25 2.75 14.9142 2.75 14.5C2.75 14.0858 3.08579 13.75 3.5 13.75H11.3944C11.6412 13.75 11.8825 13.823 12.0878 13.9599ZM21.25 14.5C21.25 14.9142 20.9142 15.25 20.5 15.25H18.5L15.9707 15.2542L17.9122 13.9599C18.1175 13.823 18.3588 13.75 18.6056 13.75H20.5C20.9142 13.75 21.25 14.0858 21.25 14.5Z" fill="currentColor" fill-rule="evenodd" clip-rule="evenodd"/><path d="M14.8541 3.25C17.7025 3.25007 20.0907 5.16963 20.9586 7.79297C21.0709 8.13167 21.2088 8.54677 21.2409 8.87598C21.2816 9.29528 21.1888 9.69035 20.8981 10.0586C20.5874 10.4522 20.1812 10.6177 19.7614 10.6885C19.3972 10.7499 18.9509 10.7501 18.4752 10.75H5.52407C5.04849 10.7501 4.60203 10.7499 4.23794 10.6885C3.81837 10.6177 3.41281 10.4519 3.10219 10.0586C2.81147 9.69033 2.71863 9.29529 2.75942 8.87598C2.79148 8.54678 2.92843 8.13166 3.04067 7.79297C3.90856 5.16951 6.2977 3.25 9.14614 3.25H14.8541ZM11.0299 5.96973C10.737 5.67701 10.2622 5.67689 9.96938 5.96973L8.96938 6.96973C8.67672 7.26258 8.67672 7.73742 8.96938 8.03027C9.26222 8.32311 9.73702 8.32299 10.0299 8.03027L11.0299 7.03027C11.3228 6.73738 11.3228 6.26262 11.0299 5.96973ZM14.9987 6C14.4465 6.00008 13.9987 6.44777 13.9987 7C13.9987 7.55223 14.4465 7.99992 14.9987 8H15.0075C15.5598 8 16.0075 7.55228 16.0075 7C16.0075 6.44772 15.5598 6 15.0075 6H14.9987Z" fill="currentColor" fill-rule="evenodd" clip-rule="evenodd"/></svg>
