<svg xmlns="http://www.w3.org/2000/svg" viewBox="0 0 24 24" fill="none"><path opacity="0.4" d="M20.775 21.7496C21.3135 21.7496 21.75 21.3131 21.75 20.7746V19.5721C21.75 18.3015 21.7626 17.4398 21.4825 16.6299C21.2023 15.82 20.6603 15.1496 19.8752 14.1505L13.2398 5.70589L14.7166 3.82729C15.0492 3.40398 14.9759 2.79084 14.5528 2.4581C14.1295 2.12549 13.5163 2.19872 13.1836 2.62187L12.0001 4.12722L10.8166 2.62187C10.4839 2.19871 9.87072 2.12549 9.44741 2.4581C9.02426 2.79084 8.95104 3.40398 9.28364 3.82729L10.7595 5.70589L4.12494 14.1515C3.34009 15.1504 2.79783 15.8201 2.51773 16.6299C2.23761 17.4398 2.2502 18.3015 2.25018 19.5721V20.7746C2.25018 21.0332 2.35298 21.2811 2.53582 21.464C2.71867 21.6468 2.96659 21.7496 3.22517 21.7496H20.775Z" fill="currentColor"/><path d="M21.7501 19.7496C22.3024 19.7496 22.7501 20.1973 22.7501 20.7496C22.7501 21.3019 22.3024 21.7496 21.7501 21.7496H2.2501C1.69781 21.7496 1.2501 21.3019 1.2501 20.7496C1.2501 20.1973 1.69781 19.7496 2.2501 19.7496H21.7501Z" fill="currentColor"/><path d="M10.2112 16.423L8.0001 20.9996L16.0001 20.9996L13.789 16.423C13.0084 14.8074 12.6181 13.9996 12.0001 13.9996C11.3821 13.9996 10.9918 14.8074 10.2112 16.423Z" fill="currentColor"/></svg>
