<svg xmlns="http://www.w3.org/2000/svg" viewBox="0 0 24 24" fill="none"><path d="M21.7501 19.7495C22.3024 19.7495 22.7501 20.1972 22.7501 20.7495C22.7501 21.3018 22.3024 21.7495 21.7501 21.7495H2.2501C1.69781 21.7495 1.2501 21.3018 1.2501 20.7495C1.2501 20.1972 1.69781 19.7495 2.2501 19.7495H21.7501Z" fill="currentColor"/><path d="M13.1834 2.62173C13.516 2.19868 14.1292 2.12534 14.5525 2.45767C14.9756 2.79034 15.049 3.4035 14.7166 3.82681L13.24 5.70571L19.8748 14.1501C20.6597 15.149 21.202 15.8197 21.4822 16.6295C21.7623 17.4395 21.7498 18.3014 21.7498 19.5719V20.7741C21.7498 21.3125 21.3136 21.7496 20.7752 21.7497H3.22537C2.96678 21.7497 2.71876 21.6464 2.53591 21.4635C2.35314 21.2807 2.24978 21.0326 2.24978 20.7741V19.5719C2.2498 18.3014 2.23724 17.4395 2.51736 16.6295C2.79747 15.8197 3.33996 15.1499 4.12478 14.151L10.7595 5.70571L9.28396 3.82681C8.95143 3.40352 9.02398 2.7904 9.44705 2.45767C9.87029 2.12511 10.4834 2.19875 10.8162 2.62173L11.9998 4.12661L13.1834 2.62173ZM11.9998 13.9997C11.382 13.9999 10.992 14.8075 10.2117 16.4225L7.99978 20.9997H15.9998L13.7888 16.4225C13.0084 14.8072 12.6178 13.9997 11.9998 13.9997Z" fill="currentColor" fill-rule="evenodd" clip-rule="evenodd"/></svg>
