<svg xmlns="http://www.w3.org/2000/svg" viewBox="0 0 24 24" fill="none"><path opacity="0.4" d="M9.13291 1.26901C9.40263 1.28907 9.67177 1.33326 9.93468 1.45333C10.427 1.67818 10.8218 2.07297 11.0467 2.56532C11.1667 2.82823 11.2109 3.09737 11.231 3.3671C11.25 3.62301 11.25 3.93285 11.25 4.29198V15.708C11.25 16.0671 11.25 16.377 11.231 16.6329C11.2109 16.9026 11.1667 17.1718 11.0467 17.4347C10.8218 17.927 10.427 18.3218 9.93468 18.5467C9.67177 18.6667 9.40263 18.7109 9.13291 18.731C8.877 18.75 8.56715 18.75 8.20802 18.75C7.21604 18.75 6.37378 18.75 5.73829 18.7028C5.08881 18.6545 4.53704 18.5538 4.02678 18.3208C2.98738 17.8461 2.15393 17.0126 1.67925 15.9732C1.44622 15.463 1.34555 14.9112 1.29725 14.2617C1.24999 13.6262 1.25 12.8401 1.25 11.8481V8.1519V8.15189C1.25 7.15992 1.24999 6.37377 1.29725 5.73829C1.34555 5.08881 1.44622 4.53704 1.67925 4.02678C2.15393 2.98738 2.98738 2.15393 4.02678 1.67925C4.53704 1.44622 5.08881 1.34555 5.73829 1.29725C6.37377 1.24999 7.21606 1.25 8.20803 1.25H8.20806C8.56717 1.24999 8.877 1.24998 9.13291 1.26901Z" fill="currentColor"/><path d="M7.25 14C7.25 14.5523 6.80228 15 6.25 15L6.24102 15C5.68873 15 5.24102 14.5523 5.24102 14C5.24102 13.4477 5.68873 13 6.24102 13L6.25 13C6.80229 13 7.25 13.4477 7.25 14Z" fill="currentColor" fill-rule="evenodd" clip-rule="evenodd"/><path d="M6.25 4.75C6.66421 4.75 7 5.08579 7 5.5V6.25H7.75C8.16421 6.25 8.5 6.58579 8.5 7C8.5 7.41421 8.16421 7.75 7.75 7.75H7V8.5C7 8.91421 6.66421 9.25 6.25 9.25C5.83579 9.25 5.5 8.91421 5.5 8.5V7.75H4.75C4.33579 7.75 4 7.41421 4 7C4 6.58579 4.33579 6.25 4.75 6.25H5.5V5.5C5.5 5.08579 5.83579 4.75 6.25 4.75Z" fill="currentColor" fill-rule="evenodd" clip-rule="evenodd"/><path d="M15.792 5.25C16.7839 5.25 17.6262 5.24962 18.2617 5.29688C18.9112 5.34518 19.4634 5.44666 19.9736 5.67969C21.0126 6.15433 21.8457 6.98738 22.3203 8.02637C22.5533 8.53663 22.6548 9.08881 22.7031 9.73828C22.7504 10.3738 22.75 11.1604 22.75 12.1523V15.8477C22.75 16.8396 22.7504 17.6262 22.7031 18.2617C22.6548 18.9112 22.5533 19.4634 22.3203 19.9736C21.8457 21.0126 21.0126 21.8457 19.9736 22.3203C19.4634 22.5533 18.9112 22.6548 18.2617 22.7031C17.6262 22.7504 16.784 22.75 15.792 22.75C15.4329 22.75 15.1231 22.7505 14.8672 22.7314C14.5975 22.7114 14.3283 22.6669 14.0654 22.5469C13.5731 22.322 13.178 21.9269 12.9531 21.4346C12.8331 21.1717 12.7886 20.9025 12.7686 20.6328C12.7495 20.3769 12.75 20.0671 12.75 19.708V8.29199C12.75 7.93294 12.7495 7.62307 12.7686 7.36719C12.7886 7.09752 12.8331 6.82829 12.9531 6.56543C13.178 6.07308 13.5731 5.67797 14.0654 5.45313C14.3283 5.33312 14.5975 5.28861 14.8672 5.26856C15.1231 5.24954 15.4329 5.24999 15.792 5.25ZM17.75 14.75C17.3358 14.75 17 15.0858 17 15.5V16.25H16.25C15.8358 16.25 15.5 16.5858 15.5 17C15.5 17.4142 15.8358 17.75 16.25 17.75H17V18.5C17 18.9142 17.3358 19.25 17.75 19.25C18.1642 19.25 18.5 18.9142 18.5 18.5V17.75H19.25C19.6642 17.75 20 17.4142 20 17C20 16.5858 19.6642 16.25 19.25 16.25H18.5V15.5C18.5 15.0858 18.1642 14.75 17.75 14.75ZM17.7412 9C17.1889 9 16.7412 9.44772 16.7412 10C16.7412 10.5523 17.1889 11 17.7412 11H17.75C18.3023 11 18.75 10.5523 18.75 10C18.75 9.44772 18.3023 9 17.75 9H17.7412Z" fill="currentColor" fill-rule="evenodd" clip-rule="evenodd"/></svg>
