<svg xmlns="http://www.w3.org/2000/svg" viewBox="0 0 24 24" fill="none"><path d="M8.20801 1.25C8.56706 1.24999 8.87694 1.24954 9.13281 1.26856C9.40248 1.28861 9.67171 1.33312 9.93457 1.45313C10.4269 1.67797 10.822 2.07308 11.0469 2.56543C11.1669 2.82829 11.2114 3.09752 11.2314 3.36719C11.2505 3.62308 11.25 3.93293 11.25 4.29199V15.708C11.25 16.0671 11.2505 16.3769 11.2314 16.6328C11.2114 16.9025 11.1669 17.1717 11.0469 17.4346C10.822 17.9269 10.4269 18.322 9.93457 18.5469C9.67171 18.6669 9.40248 18.7114 9.13281 18.7314C8.87693 18.7505 8.56708 18.75 8.20801 18.75C7.21605 18.75 6.37377 18.7504 5.73828 18.7031C5.08881 18.6548 4.53663 18.5533 4.02637 18.3203C2.98737 17.8457 2.15433 17.0126 1.67969 15.9736C1.44666 15.4634 1.34517 14.9112 1.29688 14.2617C1.24962 13.6262 1.25 12.8396 1.25 11.8477V8.15235C1.25 7.16039 1.24962 6.37377 1.29688 5.73828C1.34517 5.08881 1.44666 4.53663 1.67969 4.02637C2.15433 2.98738 2.98737 2.15433 4.02637 1.67969C4.53663 1.44666 5.08881 1.34518 5.73828 1.29688C6.37376 1.24962 7.21606 1.25 8.20801 1.25ZM6.24121 13C5.68893 13 5.24121 13.4477 5.24121 14C5.24121 14.5523 5.68893 15 6.24121 15H6.25C6.80229 15 7.25 14.5523 7.25 14C7.25 13.4477 6.80229 13 6.25 13H6.24121ZM6.25 4.75C5.83579 4.75 5.5 5.08579 5.5 5.5V6.25H4.75C4.33579 6.25 4 6.58579 4 7C4 7.41422 4.33579 7.75 4.75 7.75H5.5V8.5C5.5 8.91422 5.83579 9.25 6.25 9.25C6.66421 9.25 7 8.91422 7 8.5V7.75H7.75C8.16421 7.75 8.5 7.41422 8.5 7C8.5 6.58579 8.16421 6.25 7.75 6.25H7V5.5C7 5.08579 6.66421 4.75 6.25 4.75Z" fill="currentColor" fill-rule="evenodd" clip-rule="evenodd"/><path d="M15.792 5.25C16.7839 5.25 17.6262 5.24962 18.2617 5.29688C18.9112 5.34518 19.4634 5.44666 19.9736 5.67969C21.0126 6.15433 21.8457 6.98738 22.3203 8.02637C22.5533 8.53663 22.6548 9.08881 22.7031 9.73828C22.7504 10.3738 22.75 11.1604 22.75 12.1523V15.8477C22.75 16.8396 22.7504 17.6262 22.7031 18.2617C22.6548 18.9112 22.5533 19.4634 22.3203 19.9736C21.8457 21.0126 21.0126 21.8457 19.9736 22.3203C19.4634 22.5533 18.9112 22.6548 18.2617 22.7031C17.6262 22.7504 16.784 22.75 15.792 22.75C15.4329 22.75 15.1231 22.7505 14.8672 22.7314C14.5975 22.7114 14.3283 22.6669 14.0654 22.5469C13.5731 22.322 13.178 21.9269 12.9531 21.4346C12.8331 21.1717 12.7886 20.9025 12.7686 20.6328C12.7495 20.3769 12.75 20.0671 12.75 19.708V8.29199C12.75 7.93294 12.7495 7.62307 12.7686 7.36719C12.7886 7.09752 12.8331 6.82829 12.9531 6.56543C13.178 6.07308 13.5731 5.67797 14.0654 5.45313C14.3283 5.33312 14.5975 5.28861 14.8672 5.26856C15.1231 5.24954 15.4329 5.24999 15.792 5.25ZM17.75 14.75C17.3358 14.75 17 15.0858 17 15.5V16.25H16.25C15.8358 16.25 15.5 16.5858 15.5 17C15.5 17.4142 15.8358 17.75 16.25 17.75H17V18.5C17 18.9142 17.3358 19.25 17.75 19.25C18.1642 19.25 18.5 18.9142 18.5 18.5V17.75H19.25C19.6642 17.75 20 17.4142 20 17C20 16.5858 19.6642 16.25 19.25 16.25H18.5V15.5C18.5 15.0858 18.1642 14.75 17.75 14.75ZM17.7412 9C17.1889 9 16.7412 9.44772 16.7412 10C16.7412 10.5523 17.1889 11 17.7412 11H17.75C18.3023 11 18.75 10.5523 18.75 10C18.75 9.44772 18.3023 9 17.75 9H17.7412Z" fill="currentColor" fill-rule="evenodd" clip-rule="evenodd"/></svg>
