<svg xmlns="http://www.w3.org/2000/svg" viewBox="0 0 24 24" fill="none"><path d="M2 13V3C2 2.44772 2.44772 2 3 2C3.55229 2 4 2.44772 4 3V13C4 14.9139 4.00229 16.2487 4.1377 17.2559C4.26924 18.2342 4.5099 18.7521 4.87891 19.1211C5.24792 19.4901 5.7658 19.7308 6.74414 19.8623C7.75128 19.9977 9.08611 20 11 20H21C21.5523 20 22 20.4477 22 21C22 21.5523 21.5523 22 21 22H11C9.14265 22 7.64892 22.0022 6.47754 21.8447C5.27745 21.6834 4.26738 21.3377 3.46485 20.5352C2.66231 19.7326 2.31664 18.7226 2.15528 17.5225C1.99779 16.3511 2 14.8573 2 13Z" fill="currentColor"/><path opacity="0.4" d="M20 13.0989L20 13.0262V11.3661L20 11.2811C20.0001 10.3302 20.0001 9.50793 19.9131 8.89634C19.8339 8.34067 19.6332 7.57547 18.9141 7.19614L18.7637 7.12485L18.6064 7.06919C17.8311 6.83325 17.1493 7.23188 16.6992 7.56821C16.2002 7.94109 15.6115 8.5259 14.9294 9.20355L14.8808 9.2518L13.5869 10.537C13.2613 10.8604 13.0838 11.0344 12.9453 11.1405C12.9426 11.1425 12.939 11.1435 12.9365 11.1454C12.9341 11.1439 12.9312 11.143 12.9287 11.1415C12.7809 11.0482 12.5882 10.8904 12.2344 10.5975L12.041 10.4374C11.7285 10.1786 11.4209 9.92216 11.1387 9.74399C10.8704 9.57468 10.5424 9.42064 10.1455 9.39927H9.97069C9.49445 9.42082 9.12669 9.62711 8.83886 9.84751C8.57387 10.0504 8.29154 10.3342 8.0039 10.62L7.12401 11.494C6.90875 11.7078 6.71937 11.8915 6.56542 12.1043C6.29528 12.4781 6.1152 12.9101 6.04003 13.3651C5.99722 13.6245 5.99999 13.888 5.99999 14.1903C5.99999 14.875 5.98681 15.4649 6.15819 15.9696C6.45879 16.8548 7.15709 17.5467 8.04296 17.8436C8.54751 18.0127 9.13742 17.9999 9.82812 17.9999H15L15.0797 17.9999C15.9604 17.9999 16.7192 18 17.3271 17.9188C17.9813 17.8314 18.6093 17.6342 19.1191 17.1278C19.6299 16.6204 19.8296 15.9937 19.918 15.3407C20.0001 14.7337 20.0001 13.9761 20 13.0989Z" fill="currentColor"/></svg>
