<svg xmlns="http://www.w3.org/2000/svg" viewBox="0 0 24 24" fill="none"><path d="M1.99964 13V3C1.99964 2.44772 2.44735 2 2.99964 2C3.55192 2 3.99964 2.44772 3.99964 3V13C3.99964 14.9139 4.00192 16.2487 4.13733 17.2559C4.26887 18.2342 4.50953 18.7521 4.87854 19.1211C5.24755 19.4901 5.76544 19.7308 6.74378 19.8623C7.75091 19.9977 9.08575 20 10.9996 20H20.9996C21.5519 20 21.9996 20.4477 21.9996 21C21.9996 21.5523 21.5519 22 20.9996 22H10.9996C9.14229 22 7.64855 22.0022 6.47717 21.8447C5.27708 21.6834 4.26701 21.3377 3.46448 20.5352C2.66195 19.7326 2.31627 18.7226 2.15491 17.5225C1.99742 16.3511 1.99964 14.8573 1.99964 13Z" fill="currentColor"/><path d="M19.9996 13.0989L19.9996 13.0262V11.3661L19.9996 11.2811C19.9997 10.3302 19.9998 9.50793 19.9127 8.89634C19.8336 8.34067 19.6329 7.57547 18.9137 7.19614L18.7633 7.12485L18.6061 7.06919C17.8308 6.83325 17.1489 7.23188 16.6988 7.56821C16.1998 7.94109 15.6112 8.5259 14.9291 9.20355L14.8805 9.2518L13.5865 10.537C13.261 10.8604 13.0835 11.0344 12.9449 11.1405C12.9423 11.1425 12.9387 11.1435 12.9361 11.1454C12.9338 11.1439 12.9309 11.143 12.9283 11.1415C12.7806 11.0482 12.5878 10.8904 12.234 10.5975L12.0406 10.4374C11.7281 10.1786 11.4206 9.92216 11.1383 9.74399C10.87 9.57468 10.542 9.42064 10.1451 9.39927H9.97033C9.49408 9.42082 9.12633 9.62711 8.83849 9.84751C8.5735 10.0504 8.29117 10.3342 8.00353 10.62L7.12365 11.494C6.90839 11.7078 6.719 11.8915 6.56505 12.1043C6.29491 12.4781 6.11483 12.9101 6.03966 13.3651C5.99685 13.6245 5.99962 13.888 5.99962 14.1903C5.99962 14.875 5.98645 15.4649 6.15783 15.9696C6.45843 16.8548 7.15673 17.5467 8.04259 17.8436C8.54714 18.0127 9.13706 17.9999 9.82775 17.9999H14.9996L15.0794 17.9999C15.9601 17.9999 16.7188 18 17.3268 17.9188C17.981 17.8314 18.6089 17.6342 19.1188 17.1278C19.6296 16.6204 19.8292 15.9937 19.9176 15.3407C19.9997 14.7337 19.9997 13.9761 19.9996 13.0989Z" fill="currentColor"/></svg>
