<svg xmlns="http://www.w3.org/2000/svg" viewBox="0 0 24 24" fill="none"><path d="M18.0526 2.25C18.7163 2.24998 19.2602 2.24995 19.703 2.28613C20.1663 2.32398 20.5848 2.4054 20.9755 2.60449C21.5869 2.91605 22.0839 3.41305 22.3954 4.02442C22.5945 4.41515 22.6759 4.83363 22.7138 5.29688C22.75 5.7397 22.7499 6.28359 22.7499 6.94727V7.05274C22.7499 7.71641 22.75 8.26031 22.7138 8.70313C22.6759 9.16638 22.5945 9.58485 22.3954 9.97559C22.0839 10.587 21.5869 11.0839 20.9755 11.3955C20.598 11.5878 20.1945 11.6685 19.7499 11.708V7C19.7499 6.09383 19.0612 5.3483 18.1786 5.25879L17.9999 5.25H5.99991C5.03342 5.25001 4.24991 6.03351 4.24991 7V11.708C3.80531 11.6685 3.40179 11.5878 3.02432 11.3955C2.41296 11.0839 1.91596 10.587 1.6044 9.97559C1.40531 9.58485 1.32389 9.16638 1.28604 8.70313C1.24986 8.26031 1.24989 7.7164 1.24991 7.05274V6.94727C1.24989 6.2836 1.24986 5.73969 1.28604 5.29688C1.32389 4.83362 1.40531 4.41515 1.6044 4.02442C1.91596 3.41305 2.41296 2.91605 3.02432 2.60449C3.41506 2.4054 3.83353 2.32398 4.29678 2.28613C4.7396 2.24995 5.28351 2.24998 5.94718 2.25H18.0526Z" fill="currentColor"/><path opacity="0.4" d="M18.7499 15.0644V15V7C18.7499 6.58579 18.4141 6.25 17.9999 6.25H5.99991C5.5857 6.25 5.24991 6.58579 5.24991 7V15V15.0644C5.24988 16.4275 5.24986 17.5267 5.36612 18.3916C5.48714 19.2917 5.74663 20.0494 6.34854 20.6514C6.95046 21.2533 7.7082 21.5128 8.60831 21.6338C9.47323 21.7501 10.5724 21.75 11.9355 21.75H11.9999H12.0643C13.4274 21.75 14.5266 21.7501 15.3915 21.6338C16.2916 21.5128 17.0494 21.2533 17.6513 20.6514C18.2532 20.0494 18.5127 19.2917 18.6337 18.3916C18.75 17.5267 18.7499 16.4275 18.7499 15.0644Z" fill="currentColor"/><path d="M11.9999 9.25C12.4141 9.25 12.7499 9.58579 12.7499 10V10.75H13.9999C14.4141 10.75 14.7499 11.0858 14.7499 11.5C14.7499 11.9142 14.4141 12.25 13.9999 12.25H10.9999C10.8618 12.25 10.7499 12.3619 10.7499 12.5V13C10.7499 13.1381 10.8618 13.25 10.9999 13.25H12.9999C13.9664 13.25 14.7499 14.0335 14.7499 15V15.5C14.7499 16.4665 13.9664 17.25 12.9999 17.25H12.7499V18C12.7499 18.4142 12.4141 18.75 11.9999 18.75C11.5857 18.75 11.2499 18.4142 11.2499 18V17.25H9.99991C9.58569 17.25 9.24991 16.9142 9.24991 16.5C9.24991 16.0858 9.58569 15.75 9.99991 15.75H12.9999C13.138 15.75 13.2499 15.6381 13.2499 15.5V15C13.2499 14.8619 13.138 14.75 12.9999 14.75H10.9999C10.0334 14.75 9.24991 13.9665 9.24991 13V12.5C9.24991 11.5335 10.0334 10.75 10.9999 10.75H11.2499V10C11.2499 9.58579 11.5857 9.25 11.9999 9.25Z" fill="currentColor"/></svg>
