<svg xmlns="http://www.w3.org/2000/svg" viewBox="0 0 24 24" fill="none"><path d="M16.7502 19.2499C16.7502 18.6976 16.3025 18.2499 15.7502 18.2499C15.1979 18.2499 14.7502 18.6976 14.7502 19.2499C14.7502 19.8022 15.1979 20.2499 15.7502 20.2499C16.3025 20.2499 16.7502 19.8022 16.7502 19.2499ZM18.7502 19.2499C18.7502 20.9068 17.407 22.2499 15.7502 22.2499C14.0933 22.2499 12.7502 20.9068 12.7502 19.2499C12.7502 17.5931 14.0933 16.2499 15.7502 16.2499C16.2126 16.2499 16.649 16.358 17.0402 16.5448L21.0432 12.5429C21.4337 12.1524 22.0667 12.1524 22.4572 12.5429C22.8477 12.9334 22.8477 13.5664 22.4572 13.957L21.9142 14.4999L22.4572 15.0429C22.8477 15.4334 22.8477 16.0664 22.4572 16.457C22.0667 16.8475 21.4337 16.8475 21.0432 16.457L20.5002 15.914L18.4543 17.9589C18.6415 18.3504 18.7502 18.787 18.7502 19.2499Z" fill="currentColor"/><path d="M6.9444 1.75009C8.04907 1.75009 8.79587 1.73823 9.46295 1.98837C10.9534 2.54734 11.5502 3.92365 12.0372 4.89755L12.4639 5.75009H16.7735C17.8 5.75008 18.6273 5.75008 19.2901 5.81747C19.9705 5.88669 20.5611 6.03324 21.0831 6.38193C21.4925 6.65551 21.8446 7.00764 22.1182 7.41708C22.4669 7.93909 22.6135 8.52967 22.6827 9.21005C22.7389 9.76353 22.7446 10.4315 22.7462 11.2345C21.9712 10.8513 21.0224 10.9403 20.3301 11.505L20.1592 11.6593L16.7061 15.1104C16.4 15.039 16.08 15.0001 15.7501 15.0001C13.4029 15.0002 11.5001 16.9029 11.5001 19.2501C11.5001 19.9733 11.6814 20.654 12.0001 21.2501H11.9346C9.63051 21.2501 7.82382 21.2501 6.41412 21.0606C4.96939 20.8664 3.82944 20.4603 2.93463 19.5655C2.03985 18.6707 1.63375 17.5307 1.43951 16.086C1.25005 14.6764 1.25004 12.8704 1.25006 10.5665V7.4288C1.25006 6.54156 1.25006 5.82644 1.30084 5.25009C1.35283 4.66044 1.4627 4.14419 1.72565 3.67294C2.06453 3.06572 2.56569 2.56454 3.17291 2.22568C3.64417 1.96273 4.16039 1.85285 4.75006 1.80087C5.3263 1.7501 6.0408 1.75009 6.9278 1.75009H6.9444Z" fill="currentColor"/></svg>
