<svg xmlns="http://www.w3.org/2000/svg" viewBox="0 0 24 24" fill="none"><path opacity="0.4" d="M6.25 21.75H17.75V8V7.96127C17.75 6.82177 17.75 5.89126 17.6514 5.15723C17.5487 4.39328 17.3265 3.73084 16.7979 3.20215C16.2692 2.67346 15.6067 2.45134 14.8428 2.34863C14.1087 2.24998 13.1782 2.24999 12.0387 2.25H12H11.9613C10.8218 2.24999 9.89126 2.24998 9.15723 2.34863C8.39328 2.45134 7.73084 2.67346 7.20215 3.20215C6.67346 3.73084 6.45134 4.39328 6.34863 5.15723C6.24998 5.89126 6.24999 6.82177 6.25 7.96128V8V21.75Z" fill="currentColor"/><path d="M12 15.25C13.5188 15.25 14.75 16.4812 14.75 18V21.75H9.25V18C9.25 16.4812 10.4812 15.25 12 15.25Z" fill="currentColor"/><path d="M11.251 11V9.74512H10.0059C9.59168 9.74512 9.25592 9.40928 9.25586 8.99512C9.25586 8.5809 9.59165 8.24512 10.0059 8.24512H11.251V7C11.251 6.58579 11.5868 6.25 12.001 6.25C12.4151 6.25006 12.751 6.58583 12.751 7V8.24512H14.0059C14.4201 8.24512 14.7559 8.5809 14.7559 8.99512C14.7558 9.40928 14.42 9.74512 14.0059 9.74512H12.751V11C12.751 11.4142 12.4151 11.7499 12.001 11.75C11.5868 11.75 11.251 11.4142 11.251 11Z" fill="currentColor"/><path d="M5 21.7432C4.50888 21.7361 4.07673 21.7189 3.70508 21.6689C3.07747 21.5845 2.51102 21.3987 2.05566 20.9434C1.60031 20.488 1.41451 19.9216 1.33008 19.2939C1.24996 18.698 1.24998 17.9467 1.25 17.0459V12.9521C1.24998 12.0514 1.24996 11.3 1.33008 10.7041C1.41451 10.0765 1.60031 9.51005 2.05566 9.05469C2.51102 8.59933 3.07747 8.41354 3.70508 8.3291C4.07674 8.27913 4.50887 8.26097 5 8.25391V21.7432Z" fill="currentColor"/><path d="M19 8.25781C19.4911 8.26488 19.9233 8.28206 20.2949 8.33203C20.9225 8.41646 21.489 8.60226 21.9443 9.05762C22.3997 9.51298 22.5855 10.0794 22.6699 10.707C22.75 11.3029 22.75 12.0543 22.75 12.9551V17.0488C22.75 17.9496 22.75 18.701 22.6699 19.2969C22.5855 19.9245 22.3997 20.4909 21.9443 20.9463C21.489 21.4016 20.9225 21.5874 20.2949 21.6719C19.9233 21.7218 19.4911 21.739 19 21.7461V8.25781Z" fill="currentColor"/></svg>
