<svg xmlns="http://www.w3.org/2000/svg" fill="none" viewBox="0 0 48 48">
  <g>
    <path fill="currentColor" fill-rule="evenodd" d="M8.09521 1.54553C11.3813 1.27854 16.5861 1 24 1s12.6187 0.27855 15.9048 0.54554c3.532 0.28697 6.2627 3.01764 6.5497 6.54967C46.7214 11.3813 47 16.5861 47 24s-0.2786 12.6187 -0.5455 15.9048c-0.287 3.532 -3.0177 6.2627 -6.5497 6.5497C36.6187 46.7215 31.4139 47 24 47s-12.6187 -0.2785 -15.90479 -0.5455c-3.53204 -0.287 -6.26271 -3.0177 -6.54968 -6.5497C1.27854 36.6187 1 31.4139 1 24s0.27855 -12.6187 0.54553 -15.90479C1.8325 4.56317 4.56318 1.8325 8.09521 1.54553ZM24 5c-7.3141 0 -12.4104 0.27481 -15.58086 0.5324 -1.57857 0.12825 -2.75849 1.30817 -2.88674 2.88674C5.27481 11.5895 5 16.6859 5 24s0.2748 12.4105 0.53239 15.5809c0.12826 1.5785 1.30818 2.7585 2.88674 2.8867C11.5895 42.7252 16.6859 43 24 43c7.3141 0 12.4104 -0.2748 15.5809 -0.5324 1.5785 -0.1282 2.7584 -1.3082 2.8867 -2.8867C42.7252 36.4105 43 31.3141 43 24s-0.2748 -12.4105 -0.5324 -15.58086c-0.1283 -1.57857 -1.3082 -2.75849 -2.8867 -2.88674C36.4104 5.27481 31.3141 5 24 5ZM9 10.5c0 -1.10457 0.89543 -2 2 -2h2c1.1046 0 2 0.89543 2 2 0 1.1046 -0.8954 2 -2 2h-2c-1.10457 0 -2 -0.8954 -2 -2Zm30 0c0 -1.10457 -0.8954 -2 -2 -2h-2c-1.1046 0 -2 0.89543 -2 2 0 1.1046 0.8954 2 2 2h2c1.1046 0 2 -0.8954 2 -2Zm-10 -2c1.1046 0 2 0.89543 2 2 0 1.1046 -0.8954 2 -2 2h-2c-1.1046 0 -2 -0.8954 -2 -2 0 -1.10457 0.8954 -2 2 -2h2Zm-16.5478 7.7989C14.7614 16.156 18.5337 16 24 16s9.2386 0.156 11.5478 0.2989c2.1485 0.1329 3.9042 1.7179 4.1203 3.9105C39.8395 21.9485 40 24.5087 40 28c0 3.4913 -0.1605 6.0515 -0.3319 7.7906 -0.2161 2.1926 -1.9718 3.7776 -4.1203 3.9105C33.2386 39.844 29.4663 40 24 40s-9.2386 -0.156 -11.5478 -0.2989c-2.1485 -0.1329 -3.90416 -1.7179 -4.1203 -3.9105C8.16047 34.0515 8 31.4913 8 28c0 -3.4913 0.16047 -6.0515 0.3319 -7.7906 0.21614 -2.1926 1.9718 -3.7776 4.1203 -3.9105Zm20.7139 4.708c1.1007 0.0917 1.9187 1.0584 1.827 2.1592 -0.0917 1.1007 -1.0584 1.9187 -2.1592 1.827 -5.814 -0.4845 -11.8538 -0.4845 -17.6678 0 -1.1008 0.0917 -2.0675 -0.7263 -2.1592 -1.827 -0.0917 -1.1008 0.7263 -2.0675 1.827 -2.1592 6.0351 -0.5029 12.2971 -0.5029 18.3322 0Z" clip-rule="evenodd" stroke-width="3.429"></path>
  </g>
</svg>
