<svg xmlns="http://www.w3.org/2000/svg" fill="none" viewBox="0 0 48 48">
  <g>
    <path fill="currentColor" fill-rule="evenodd" d="M8.1357 45.9561c3.2716 0.2658 8.4629 0.5439 15.8643 0.5439 7.4014 0 12.5927 -0.2781 15.8643 -0.5439 3.2878 -0.2671 5.8247 -2.8039 6.0918 -6.0918 0.2658 -3.2716 0.5439 -8.4629 0.5439 -15.8643 0 -7.4014 -0.2781 -12.5927 -0.5439 -15.8643 -0.2671 -3.28785 -2.804 -5.82468 -6.0918 -6.09181C36.5927 1.77808 31.4014 1.5 24 1.5c-7.4014 0 -12.5927 0.27808 -15.86429 0.54389 -3.28786 0.26713 -5.82469 2.80396 -6.09182 6.09181C1.77808 11.4073 1.5 16.5986 1.5 24c0 7.4014 0.27808 12.5927 0.54389 15.8643 0.26713 3.2878 2.80396 5.8247 6.09181 6.0918Zm4.2856 -5.7559c2.3203 0.1436 6.103 0.2998 11.5787 0.2998s9.2584 -0.1562 11.5787 -0.2998c2.3807 -0.1473 4.3455 -1.9113 4.587 -4.3606 0.1731 -1.7564 0.3343 -4.333 0.3343 -7.8396 0 -3.5066 -0.1612 -6.0832 -0.3343 -7.8396 -0.2415 -2.4493 -2.2063 -4.2133 -4.587 -4.3606C33.2584 15.6562 29.4757 15.5 24 15.5s-9.2584 0.1562 -11.5787 0.2998c-2.3807 0.1473 -4.34554 1.9113 -4.58699 4.3606C7.66118 21.9168 7.5 24.4934 7.5 28c0 3.5066 0.16118 6.0832 0.33431 7.8396 0.24145 2.4493 2.20629 4.2133 4.58699 4.3606ZM9 9c0 -1.10457 0.89543 -2 2 -2h2c1.1046 0 2 0.89543 2 2 0 1.1046 -0.8954 2 -2 2h-2c-1.10457 0 -2 -0.8954 -2 -2Zm30 0c0 -1.10457 -0.8954 -2 -2 -2h-2c-1.1046 0 -2 0.89543 -2 2 0 1.1046 0.8954 2 2 2h2c1.1046 0 2 -0.8954 2 -2ZM28 7c1.1046 0 2 0.89543 2 2 0 1.1046 -0.8954 2 -2 2h-2c-1.1046 0 -2 -0.8954 -2 -2 0 -1.10457 0.8954 -2 2 -2h2Zm6.1248 13.0038c1.1024 0.0689 1.9403 1.0185 1.8714 2.1209 -0.0689 1.1024 -1.0185 1.9402 -2.1209 1.8713 -6.5501 -0.4093 -13.2003 -0.4093 -19.7505 0 -1.1024 0.0689 -2.0519 -0.7689 -2.1208 -1.8713 -0.0689 -1.1024 0.7689 -2.052 1.8713 -2.1209 6.7163 -0.4197 13.5332 -0.4197 20.2495 0Z" clip-rule="evenodd" stroke-width="1"></path>
  </g>
</svg>
