<svg xmlns="http://www.w3.org/2000/svg" viewBox="0 0 24 24" fill="none"><path d="M12.75 20.75C12.4739 20.75 12.25 20.5261 12.25 20.25V19.16C12.25 18.4401 12.536 17.7497 13.045 17.2407L18.5559 11.7298C18.8631 11.4226 19.2798 11.25 19.7143 11.25C20.1488 11.25 20.5655 11.4226 20.8727 11.7298L21.2702 12.1273C21.5774 12.4345 21.75 12.8512 21.75 13.2857C21.75 13.7202 21.5774 14.1369 21.2702 14.4441L15.7593 19.955C15.2503 20.464 14.5599 20.75 13.84 20.75H12.75Z" fill="currentColor"/><path opacity="0.4" d="M12 12.8778C12.5396 12.8778 12.9771 13.3091 12.9773 13.8407C12.9773 14.3725 12.5397 14.8036 12 14.8036C10.9769 14.8036 9.99452 15.1991 9.26382 15.9047C8.87846 16.2768 8.25973 16.271 7.88189 15.8915C7.50416 15.5118 7.51005 14.9022 7.89525 14.5299C8.99133 13.4714 10.4652 12.8778 12 12.8778ZM12 8.06437C13.5394 8.06437 15.0454 8.38945 16.4226 9.00186C16.9145 9.22062 17.1332 9.79128 16.9112 10.276C16.6892 10.7607 16.11 10.9762 15.618 10.7574C14.4912 10.2564 13.2594 9.99012 12 9.99012C9.69776 9.99012 7.48748 10.88 5.84335 12.4678C5.45793 12.8399 4.83921 12.8334 4.46142 12.4537C4.08364 12.074 4.08944 11.4644 4.47478 11.0922C6.48427 9.15149 9.18615 8.06437 12 8.06437ZM12 3.25C15.8462 3.25 19.5578 4.64661 22.4246 7.17296C22.8268 7.5275 22.8607 8.13633 22.5009 8.53265C22.1411 8.9289 21.5232 8.96328 21.1209 8.60881C18.6125 6.39825 15.3654 5.17575 12 5.17575C8.63457 5.17575 5.38752 6.39825 2.87907 8.60881C2.47682 8.96328 1.85888 8.9289 1.49905 8.53265C1.13927 8.13633 1.17324 7.5275 1.5754 7.17296C4.44219 4.64661 8.15379 3.25 12 3.25Z" fill="currentColor"/></svg>
