<svg xmlns="http://www.w3.org/2000/svg" viewBox="0 0 24 24" fill="none"><path d="M12.7495 20.75C12.4734 20.75 12.2495 20.5261 12.2495 20.25V19.16C12.2495 18.4401 12.5355 17.7497 13.0445 17.2407L18.5554 11.7298C18.8626 11.4226 19.2793 11.25 19.7138 11.25C20.1483 11.25 20.565 11.4226 20.8722 11.7298L21.2697 12.1273C21.5769 12.4345 21.7495 12.8512 21.7495 13.2857C21.7495 13.7202 21.5769 14.1369 21.2697 14.4441L15.7588 19.955C15.2498 20.464 14.5594 20.75 13.8395 20.75H12.7495Z" fill="currentColor"/><path d="M11.9995 12.8778C12.5391 12.8778 12.9766 13.3091 12.9768 13.8407C12.9768 14.3725 12.5392 14.8036 11.9995 14.8036C10.9764 14.8036 9.99403 15.1991 9.26333 15.9047C8.87797 16.2768 8.25924 16.271 7.8814 15.8915C7.50367 15.5118 7.50957 14.9022 7.89476 14.5299C8.99085 13.4714 10.4647 12.8778 11.9995 12.8778ZM11.9995 8.06437C13.5389 8.06437 15.0449 8.38945 16.4221 9.00186C16.914 9.22062 17.1327 9.79128 16.9107 10.276C16.6887 10.7607 16.1095 10.9762 15.6175 10.7574C14.4907 10.2564 13.2589 9.99012 11.9995 9.99012C9.69727 9.99012 7.48699 10.88 5.84286 12.4678C5.45744 12.8399 4.83872 12.8334 4.46093 12.4537C4.08315 12.074 4.08895 11.4644 4.47429 11.0922C6.48379 9.15149 9.18566 8.06437 11.9995 8.06437ZM11.9995 3.25C15.8457 3.25 19.5573 4.64661 22.4241 7.17296C22.8263 7.5275 22.8602 8.13633 22.5005 8.53265C22.1406 8.9289 21.5227 8.96328 21.1204 8.60881C18.612 6.39825 15.3649 5.17575 11.9995 5.17575C8.63408 5.17575 5.38703 6.39825 2.87858 8.60881C2.47633 8.96328 1.8584 8.9289 1.49856 8.53265C1.13878 8.13633 1.17275 7.5275 1.57491 7.17296C4.44171 4.64661 8.15331 3.25 11.9995 3.25Z" fill="currentColor"/></svg>
