<svg xmlns="http://www.w3.org/2000/svg" viewBox="0 0 24 24" fill="none"><path opacity="0.4" d="M18.6763 18.0425V18V15.2568C20.2227 13.2667 20.8514 11.5273 20.7369 9.96094C20.6179 8.33415 19.7118 7.07553 18.6236 6.07324C17.5451 5.08002 16.1952 4.25781 15.0709 3.54004C14.4956 3.17283 13.9784 2.83322 13.5474 2.49902C13.1123 2.16163 12.8069 1.8612 12.6246 1.58594C12.4857 1.37629 12.2511 1.25001 11.9996 1.25C11.7797 1.25003 11.5726 1.3464 11.4312 1.51074L11.3746 1.58594C11.1921 1.86124 10.8868 2.16163 10.4517 2.49902C10.0207 2.83323 9.50347 3.17283 8.92828 3.54004C7.8039 4.25784 6.45401 5.07999 5.37554 6.07324C4.28731 7.07552 3.38249 8.33423 3.26324 9.96094C3.14844 11.5275 3.77569 13.2673 5.32183 15.2578V18.001L5.32184 18.0593C5.322 18.955 5.32212 19.7014 5.40094 20.2939C5.4842 20.9199 5.66754 21.4857 6.11773 21.9414C6.56915 22.3983 7.13182 22.5852 7.75445 22.6699C8.34325 22.7501 9.08476 22.75 9.9715 22.75H10.023H13.9752H14.026C14.9131 22.75 15.6547 22.7501 16.2437 22.6699C16.8665 22.5851 17.4299 22.3985 17.8814 21.9414C18.3316 21.4856 18.5141 20.9191 18.5972 20.293C18.6764 19.6968 18.6763 18.9453 18.6763 18.0425Z" fill="currentColor"/><path d="M7.18531 20.8877C7.05693 20.7578 6.95002 20.5587 6.88843 20.0957C6.84314 19.7549 6.82881 19.3326 6.82422 18.7758C8.10247 17.8591 8.74496 17.0236 9.68069 17.0009C9.80115 16.998 9.92169 17.0019 10.0417 17.0125C10.6756 17.0688 11.2449 17.3721 12.0002 17.9447L12.2303 18.1122C13.2627 17.3849 13.9165 17.018 14.6388 17.0008C14.7481 16.9982 14.8575 17.0017 14.9664 17.0112C15.7459 17.0791 16.35 17.8055 17.1753 18.6673C17.172 19.2782 17.1592 19.7331 17.1111 20.0957C17.0496 20.5586 16.9425 20.7567 16.8142 20.8867C16.6871 21.0154 16.4949 21.1219 16.0418 21.1836C15.5661 21.2483 14.928 21.25 13.9753 21.25H10.0232C9.07074 21.25 8.43232 21.2483 7.95679 21.1836C7.50452 21.122 7.31239 21.0161 7.18531 20.8877Z" fill="currentColor"/><path d="M8.25 10.2696C8.25 8.82069 9.02464 7.55291 10.1787 6.85752C10.5335 6.64384 10.9943 6.75863 11.208 7.11338C11.4216 7.46808 11.3077 7.9289 10.9531 8.14267C10.2307 8.57795 9.75 9.36811 9.75 10.2696C9.75016 11.6395 10.8606 12.7499 12.2305 12.7501C13.132 12.7501 13.9221 12.2694 14.3574 11.547C14.5712 11.1924 15.032 11.0785 15.3867 11.2921C15.7415 11.5058 15.8563 11.9666 15.6426 12.3214C14.9472 13.4755 13.6794 14.2501 12.2305 14.2501C10.0322 14.2499 8.25016 12.4679 8.25 10.2696Z" fill="currentColor"/><path d="M14.1025 7.50488C14.6067 7.55621 15 7.98232 15 8.5C15 9.05229 14.5523 9.5 14 9.5C13.4477 9.5 13 9.05228 13 8.5C13 7.94772 13.4477 7.5 14 7.5L14.1025 7.50488Z" fill="currentColor"/></svg>
