<svg xmlns="http://www.w3.org/2000/svg" viewBox="0 0 24 24" fill="none"><path d="M14.0254 22.75C14.9124 22.75 15.6542 22.75 16.2432 22.6699C16.8659 22.5852 17.4294 22.3984 17.8809 21.9414C18.3311 21.4856 18.5135 20.9191 18.5967 20.293C18.6758 19.6968 18.6758 18.9448 18.6758 18.042V15.2568C20.2221 13.2667 20.8508 11.5273 20.7363 9.96094C20.6174 8.33415 19.7113 7.07553 18.623 6.07324C17.5446 5.08007 16.1947 4.25778 15.0703 3.54004C14.4951 3.17287 13.9778 2.83319 13.5469 2.49902C13.1119 2.16167 12.8063 1.86117 12.624 1.58594C12.4851 1.37635 12.2505 1.25001 11.999 1.25C11.7792 1.2501 11.572 1.34645 11.4307 1.51074L11.374 1.58594C11.1916 1.86121 10.8862 2.16167 10.4512 2.49902C10.0202 2.83319 9.50286 3.17287 8.92773 3.54004C7.80338 4.25781 6.4534 5.08003 5.37499 6.07324C4.28682 7.0755 3.38193 8.33429 3.26269 9.96094C3.14789 11.5274 3.77521 13.2674 5.32128 15.2578L5.32128 18.0596C5.32143 18.9551 5.32158 19.7015 5.40038 20.2939C5.48364 20.9199 5.66707 21.4857 6.11718 21.9414C6.56855 22.3983 7.13136 22.5851 7.7539 22.6699C8.34259 22.75 9.08416 22.75 9.9707 22.75H14.0254ZM12.2305 14.25C10.0322 14.2498 8.25015 12.4678 8.24999 10.2695C8.25002 8.82063 9.02465 7.5528 10.1787 6.85742C10.5334 6.64397 10.9943 6.75863 11.208 7.11328C11.4215 7.46788 11.3075 7.92875 10.9531 8.14258C10.2308 8.57784 9.75002 9.36805 9.74999 10.2695C9.75015 11.6394 10.8606 12.7498 12.2305 12.75C13.1318 12.7499 13.9222 12.2692 14.3574 11.5469C14.5712 11.1924 15.0321 11.0785 15.3867 11.292C15.7412 11.5058 15.856 11.9666 15.6426 12.3213C14.9472 13.4753 13.6793 14.2499 12.2305 14.25ZM14 9.5C13.4477 9.5 13 9.05228 13 8.5C13 7.94772 13.4477 7.5 14 7.5L14.1025 7.50488C14.6065 7.55636 15 7.98243 15 8.5C15 9.05218 14.5521 9.49983 14 9.5ZM10.0225 21.25C9.07022 21.25 8.4315 21.2483 7.95605 21.1836C7.50407 21.122 7.31161 21.0161 7.18456 20.8877C7.05627 20.7577 6.94924 20.5585 6.88769 20.0957C6.8424 19.755 6.8288 19.3321 6.82421 18.7754C8.1022 17.8589 8.74502 17.0236 9.68066 17.001C9.8009 16.9981 9.92121 17.0021 10.041 17.0127C10.6749 17.0689 11.2447 17.3718 12 17.9443L12.2305 18.1123C13.2627 17.3852 13.9164 17.0182 14.6387 17.001C14.7478 16.9984 14.8571 17.0013 14.9658 17.0107C15.7452 17.0786 16.3496 17.8053 17.1748 18.667C17.1714 19.2779 17.1585 19.7331 17.1103 20.0957C17.0489 20.5586 16.9418 20.7567 16.8135 20.8867C16.6863 21.0153 16.4939 21.122 16.041 21.1836C15.5654 21.2483 14.9269 21.25 13.9746 21.25H10.0225Z" fill="currentColor" fill-rule="evenodd" clip-rule="evenodd"/></svg>
