<svg xmlns="http://www.w3.org/2000/svg" viewBox="0 0 24 24" fill="none"><path opacity="0.4" d="M12.6846 9.25C13.0455 8.58031 13.251 7.81407 13.251 7C13.251 4.37665 11.1244 2.25 8.50102 2.25C6.42752 2.25 4.66526 3.57778 4.01664 5.42871L1.73441 6.29883C1.39476 6.42817 1.19697 6.78259 1.26469 7.13965C1.39096 7.80392 1.74631 8.47279 2.39359 8.96973C2.95747 9.40256 3.70082 9.67403 4.62016 9.73633C4.81166 10.0075 5.03164 10.2563 5.27445 10.4814C3.74434 11.62 2.75102 13.443 2.75102 15.5C2.75102 18.9506 5.54438 21.75 8.99223 21.75H13.001C15.8544 21.75 18.2572 21.1026 19.9707 19.9316C21.6866 18.759 22.7 17.0602 22.7178 15.0537C22.7186 15.0464 22.7198 15.0383 22.7207 15.0293C22.7246 14.991 22.73 14.9379 22.7344 14.8711C22.7433 14.7372 22.7508 14.5473 22.7481 14.3115C22.7427 13.8406 22.6954 13.1814 22.5313 12.4072C22.2022 10.8548 21.4018 8.84029 19.5313 6.96973C19.3168 6.75525 18.9941 6.6906 18.7139 6.80664C18.4336 6.92273 18.251 7.19665 18.251 7.5C18.251 8.08699 18.1119 8.53894 17.9024 8.82324C17.7145 9.07801 17.4359 9.24992 16.9786 9.25H12.6846Z" fill="currentColor"/><path d="M2.39359 8.96973C2.95747 9.40256 3.70082 9.67403 4.62016 9.73633C5.11667 8.32539 4.42469 6.27669 4.01664 5.42871L1.73441 6.29883C1.39476 6.42817 1.19697 6.78259 1.26469 7.13965C1.39096 7.80392 1.74631 8.47279 2.39359 8.96973Z" fill="currentColor"/><path d="M18.2515 13C18.2515 12.5858 17.9157 12.25 17.5015 12.25H11.0015C9.20654 12.25 7.75146 13.7051 7.75146 15.5C7.75146 17.2949 9.20654 18.75 11.0015 18.75H12.5015C13.8873 18.75 15.3169 17.9014 16.3599 16.8584C17.4029 15.8154 18.2515 14.3858 18.2515 13Z" fill="currentColor"/><path d="M8.24951 5.25C8.80179 5.25 9.24951 5.69771 9.24951 6.25C9.24951 6.80228 8.8018 7.25 8.24951 7.25C7.69722 7.25 7.24951 6.80228 7.24951 6.25C7.24951 5.69772 7.69723 5.25 8.24951 5.25Z" fill="currentColor"/></svg>
