<svg xmlns="http://www.w3.org/2000/svg" viewBox="0 0 24 24" fill="none"><path d="M8.50144 2.25C11.1246 2.2502 13.2514 4.37677 13.2514 7C13.2514 7.814 13.0459 8.58034 12.685 9.25H16.979C17.4361 9.24983 17.7149 9.07794 17.9028 8.82324C18.1122 8.53893 18.2514 8.08687 18.2514 7.5C18.2514 7.19665 18.4341 6.92273 18.7143 6.80664C18.9945 6.69078 19.3173 6.75533 19.5317 6.96973C21.4021 8.84024 22.2027 10.8548 22.5317 12.4072C22.6958 13.1814 22.7431 13.8406 22.7485 14.3115C22.7512 14.5472 22.7437 14.7372 22.7348 14.8711C22.7304 14.9379 22.725 14.991 22.7212 15.0293C22.7203 15.0382 22.719 15.0464 22.7182 15.0537C22.7004 17.0601 21.6868 18.759 19.9712 19.9316C18.2577 21.1026 15.8547 21.7499 13.0014 21.75H8.99265C5.5448 21.75 2.75144 18.9506 2.75144 15.5C2.75144 13.443 3.74477 11.62 5.27488 10.4814C5.03212 10.2564 4.81206 10.0074 4.62058 9.73633C3.70138 9.67404 2.95786 9.40245 2.39402 8.96973C1.74676 8.47281 1.39139 7.80389 1.26511 7.13965C1.1974 6.78259 1.39519 6.42817 1.73484 6.29883L4.01707 5.42871C4.66572 3.57784 6.42799 2.25 8.50144 2.25ZM11.0014 12.25C9.20655 12.25 7.75144 13.7051 7.75144 15.5C7.75144 17.2949 9.20655 18.75 11.0014 18.75H12.5014C13.8872 18.75 15.3168 17.9014 16.3598 16.8584C17.4028 15.8154 18.2514 14.3858 18.2514 13C18.2514 12.5858 17.9157 12.25 17.5014 12.25H11.0014ZM16.6225 13.75C16.4111 14.4164 15.9475 15.1497 15.2993 15.7979C14.3946 16.7025 13.3248 17.25 12.5014 17.25H11.0014C10.035 17.25 9.25144 16.4665 9.25144 15.5C9.25144 14.5335 10.035 13.75 11.0014 13.75H16.6225ZM2.97605 7.43066C3.06263 7.55666 3.17101 7.67577 3.30711 7.78027C3.58713 7.99522 4.01829 8.18098 4.66551 8.2334C4.81203 7.932 4.79431 7.56771 4.59617 7.2793L4.34226 6.91016L2.97605 7.43066ZM8.24949 5.25C7.69724 5.25004 7.24949 5.69774 7.24949 6.25C7.24949 6.80226 7.69724 7.24996 8.24949 7.25C8.80177 7.25 9.24949 6.80228 9.24949 6.25C9.24949 5.69771 8.80177 5.25 8.24949 5.25Z" fill="currentColor" fill-rule="evenodd" clip-rule="evenodd"/></svg>
