<svg xmlns="http://www.w3.org/2000/svg" viewBox="0 0 24 24" fill="none"><path opacity="0.4" d="M18.75 17.0406L18.75 17L18.75 16.9594C18.75 16.5217 18.75 16.1556 18.7295 15.8545C18.7079 15.5374 18.6613 15.2376 18.541 14.9473C18.2619 14.2736 17.7264 13.7381 17.0527 13.459C16.7624 13.3387 16.4626 13.2921 16.1455 13.2705C15.8444 13.25 15.4783 13.25 15.0406 13.25L15 13.25H9L8.95943 13.25C8.52175 13.25 8.1556 13.25 7.85449 13.2705C7.53744 13.2921 7.23762 13.3387 6.94727 13.459C6.27359 13.7381 5.73809 14.2736 5.45899 14.9473C5.33872 15.2376 5.29215 15.5374 5.27051 15.8545C5.24997 16.1556 5.24998 16.5217 5.25 16.9594L5.25 17L5.25 17.0406C5.24998 17.4783 5.24997 17.8444 5.27051 18.1455C5.29215 18.4626 5.33872 18.7624 5.45899 19.0527C5.73809 19.7264 6.27359 20.2619 6.94727 20.541C7.23762 20.6613 7.53744 20.7079 7.85449 20.7295C8.1556 20.75 8.52175 20.75 8.95944 20.75L9 20.75H15L15.0406 20.75C15.4783 20.75 15.8444 20.75 16.1455 20.7295C16.4626 20.7079 16.7624 20.6613 17.0527 20.541C17.7264 20.2619 18.2619 19.7264 18.541 19.0527C18.6613 18.7624 18.7079 18.4626 18.7295 18.1455C18.75 17.8444 18.75 17.4783 18.75 17.0406Z" fill="currentColor"/><path opacity="0.4" d="M18.75 7.0406L18.75 7L18.75 6.95941C18.75 6.52174 18.75 6.1556 18.7295 5.85449C18.7079 5.53744 18.6613 5.23762 18.541 4.94727C18.2619 4.27359 17.7264 3.73809 17.0527 3.45899C16.7624 3.33872 16.4626 3.29215 16.1455 3.27051C15.8444 3.24997 15.4783 3.24998 15.0406 3.25L15 3.25H9L8.95943 3.25C8.52175 3.24998 8.1556 3.24997 7.85449 3.27051C7.53744 3.29215 7.23762 3.33872 6.94727 3.45899C6.27359 3.73809 5.73809 4.27359 5.45899 4.94727C5.33872 5.23762 5.29215 5.53744 5.27051 5.85449C5.24997 6.1556 5.24998 6.52175 5.25 6.95943L5.25 7L5.25 7.04057C5.24998 7.47826 5.24997 7.8444 5.27051 8.14551C5.29215 8.46256 5.33872 8.76239 5.45899 9.05274C5.73809 9.72642 6.27359 10.2619 6.94727 10.541C7.23762 10.6613 7.53744 10.7079 7.85449 10.7295C8.1556 10.75 8.52175 10.75 8.95944 10.75L9 10.75H15L15.0406 10.75C15.4783 10.75 15.8444 10.75 16.1455 10.7295C16.4626 10.7079 16.7624 10.6613 17.0527 10.541C17.7264 10.2619 18.2619 9.72642 18.541 9.05274C18.6613 8.76239 18.7079 8.46256 18.7295 8.14551C18.75 7.84441 18.75 7.47827 18.75 7.0406Z" fill="currentColor"/><path d="M21.1567 9.19444C21.6014 8.86726 22.2278 8.96276 22.5552 9.40733C22.8824 9.85201 22.7869 10.4784 22.3423 10.8058L22.3394 10.8077C22.3363 10.81 22.3312 10.8137 22.3247 10.8185C22.3117 10.8282 22.2916 10.8431 22.2661 10.8624C22.215 10.901 22.1411 10.9571 22.0522 11.0265C21.8731 11.1663 21.6373 11.3558 21.4048 11.5577C21.226 11.7129 21.062 11.8648 20.9302 12.0001C21.062 12.1354 21.226 12.2873 21.4048 12.4425C21.6373 12.6444 21.8731 12.8339 22.0522 12.9737C22.1411 13.0431 22.215 13.0992 22.2661 13.1378C22.2916 13.1571 22.3117 13.172 22.3247 13.1817C22.3312 13.1866 22.3363 13.1903 22.3394 13.1925L22.3423 13.1944C22.787 13.522 22.8817 14.1482 22.5542 14.5929C22.2268 15.0374 21.6014 15.1329 21.1567 14.8058V14.8048H21.1558L21.1538 14.8038C21.1525 14.8028 21.1512 14.8006 21.1489 14.7989C21.1444 14.7956 21.1375 14.7913 21.1294 14.7853C21.1131 14.7732 21.0902 14.7555 21.061 14.7335C21.0028 14.6895 20.9202 14.6268 20.8218 14.5499C20.626 14.3971 20.3615 14.1853 20.0942 13.9532C19.8319 13.7254 19.5434 13.4581 19.313 13.1974C19.1988 13.0681 19.0771 12.9167 18.979 12.754C18.9077 12.6357 18.7858 12.4109 18.7563 12.1261L18.7495 12.0001L18.7563 11.8741C18.7858 11.5893 18.9077 11.3645 18.979 11.2462C19.0771 11.0836 19.1988 10.9321 19.313 10.8028C19.5434 10.5421 19.8318 10.2748 20.0942 10.047C20.3615 9.81492 20.626 9.60309 20.8218 9.4503C20.9202 9.37347 21.0028 9.31072 21.061 9.26671C21.0902 9.24471 21.1131 9.22706 21.1294 9.21495C21.1375 9.20889 21.1444 9.20367 21.1489 9.2003C21.151 9.19878 21.1526 9.19731 21.1538 9.1964L21.1558 9.19542H21.1567V9.19444Z" fill="currentColor"/><path d="M1.44478 9.40733C1.7722 8.96276 2.39854 8.86726 2.84322 9.19444L2.84419 9.19542L2.84615 9.1964C2.84738 9.19731 2.84898 9.19878 2.85103 9.2003C2.85557 9.20367 2.86243 9.20889 2.87056 9.21495C2.88681 9.22706 2.90979 9.24471 2.93892 9.26671C2.99719 9.31072 3.07972 9.37347 3.17818 9.4503C3.37395 9.60309 3.63842 9.81492 3.90572 10.047C4.16811 10.2748 4.45651 10.5421 4.68697 10.8028C4.80115 10.9321 4.92287 11.0836 5.02095 11.2462C5.10251 11.3815 5.25045 11.6557 5.25044 12.0001C5.25044 12.3445 5.10251 12.6187 5.02095 12.754C4.92287 12.9166 4.80115 13.0681 4.68697 13.1974C4.45652 13.4581 4.1681 13.7254 3.90572 13.9532C3.63842 14.1853 3.37395 14.3971 3.17818 14.5499C3.07971 14.6268 2.99719 14.6895 2.93892 14.7335C2.90978 14.7555 2.88681 14.7732 2.87056 14.7853C2.86243 14.7913 2.85557 14.7956 2.85103 14.7989C2.84877 14.8006 2.84747 14.8028 2.84615 14.8038L2.84419 14.8048L2.84322 14.8058C2.39857 15.1329 1.77319 15.0374 1.44576 14.5929C1.11824 14.1482 1.21298 13.522 1.65767 13.1944L1.6606 13.1925C1.66361 13.1903 1.66879 13.1866 1.67525 13.1817C1.68829 13.172 1.70832 13.1571 1.73384 13.1378C1.78491 13.0992 1.85882 13.0431 1.94771 12.9737C2.12683 12.8339 2.36264 12.6444 2.59517 12.4425C2.77371 12.2875 2.93703 12.1353 3.0688 12.0001C2.93703 11.8649 2.77371 11.7127 2.59517 11.5577C2.36264 11.3558 2.12683 11.1663 1.94771 11.0265C1.85882 10.9571 1.78491 10.901 1.73384 10.8624C1.70831 10.8431 1.68829 10.8282 1.67525 10.8185C1.66879 10.8137 1.66361 10.81 1.6606 10.8077L1.65767 10.8058L1.57857 10.7403C1.20291 10.4002 1.13802 9.82426 1.44478 9.40733Z" fill="currentColor"/></svg>
