<svg xmlns="http://www.w3.org/2000/svg" viewBox="0 0 24 24" fill="none"><path d="M18.7495 17.0406L18.7495 17L18.7495 16.9594C18.7495 16.5217 18.7495 16.1556 18.729 15.8545C18.7074 15.5374 18.6608 15.2376 18.5405 14.9473C18.2614 14.2736 17.7259 13.7381 17.0522 13.459C16.7619 13.3387 16.4621 13.2921 16.145 13.2705C15.8439 13.25 15.4778 13.25 15.0401 13.25L14.9995 13.25H8.99951L8.95894 13.25C8.52126 13.25 8.15511 13.25 7.85401 13.2705C7.53695 13.2921 7.23713 13.3387 6.94678 13.459C6.2731 13.7381 5.7376 14.2736 5.4585 14.9473C5.33823 15.2376 5.29166 15.5374 5.27002 15.8545C5.24948 16.1556 5.24949 16.5217 5.24951 16.9594L5.24951 17L5.24951 17.0406C5.24949 17.4783 5.24948 17.8444 5.27002 18.1455C5.29166 18.4626 5.33823 18.7624 5.4585 19.0527C5.7376 19.7264 6.2731 20.2619 6.94678 20.541C7.23713 20.6613 7.53695 20.7079 7.85401 20.7295C8.15511 20.75 8.52126 20.75 8.95895 20.75L8.99951 20.75H14.9995L15.0401 20.75C15.4778 20.75 15.8439 20.75 16.145 20.7295C16.4621 20.7079 16.7619 20.6613 17.0522 20.541C17.7259 20.2619 18.2614 19.7264 18.5405 19.0527C18.6608 18.7624 18.7074 18.4626 18.729 18.1455C18.7495 17.8444 18.7495 17.4783 18.7495 17.0406Z" fill="currentColor"/><path d="M18.7495 7.0406L18.7495 7L18.7495 6.95941C18.7495 6.52174 18.7495 6.1556 18.729 5.85449C18.7074 5.53744 18.6608 5.23762 18.5405 4.94727C18.2614 4.27359 17.7259 3.73809 17.0522 3.45899C16.7619 3.33872 16.4621 3.29215 16.145 3.27051C15.8439 3.24997 15.4778 3.24998 15.0401 3.25L14.9995 3.25H8.99951L8.95894 3.25C8.52126 3.24998 8.15511 3.24997 7.85401 3.27051C7.53695 3.29215 7.23713 3.33872 6.94678 3.45899C6.2731 3.73809 5.7376 4.27359 5.4585 4.94727C5.33823 5.23762 5.29166 5.53744 5.27002 5.85449C5.24948 6.1556 5.24949 6.52175 5.24951 6.95943L5.24951 7L5.24951 7.04057C5.24949 7.47826 5.24948 7.8444 5.27002 8.14551C5.29166 8.46256 5.33823 8.76239 5.4585 9.05274C5.7376 9.72642 6.2731 10.2619 6.94678 10.541C7.23713 10.6613 7.53695 10.7079 7.85401 10.7295C8.15511 10.75 8.52126 10.75 8.95895 10.75L8.99951 10.75H14.9995L15.0401 10.75C15.4778 10.75 15.8439 10.75 16.145 10.7295C16.4621 10.7079 16.7619 10.6613 17.0522 10.541C17.7259 10.2619 18.2614 9.72642 18.5405 9.05274C18.6608 8.76239 18.7074 8.46256 18.729 8.14551C18.7495 7.84441 18.7495 7.47827 18.7495 7.0406Z" fill="currentColor"/><path d="M21.1562 9.19444C21.6009 8.86726 22.2273 8.96276 22.5547 9.40733C22.8819 9.85201 22.7864 10.4784 22.3418 10.8058L22.3389 10.8077C22.3359 10.81 22.3307 10.8137 22.3242 10.8185C22.3112 10.8282 22.2912 10.8431 22.2656 10.8624C22.2146 10.901 22.1406 10.9571 22.0518 11.0265C21.8726 11.1663 21.6368 11.3558 21.4043 11.5577C21.2255 11.7129 21.0615 11.8648 20.9297 12.0001C21.0615 12.1354 21.2255 12.2873 21.4043 12.4425C21.6368 12.6444 21.8726 12.8339 22.0518 12.9737C22.1406 13.0431 22.2146 13.0992 22.2656 13.1378C22.2912 13.1571 22.3112 13.172 22.3242 13.1817C22.3307 13.1866 22.3359 13.1903 22.3389 13.1925L22.3418 13.1944C22.7865 13.522 22.8812 14.1482 22.5537 14.5929C22.2263 15.0374 21.6009 15.1329 21.1562 14.8058V14.8048H21.1553L21.1533 14.8038C21.152 14.8028 21.1507 14.8006 21.1484 14.7989C21.1439 14.7956 21.137 14.7913 21.1289 14.7853C21.1127 14.7732 21.0897 14.7555 21.0605 14.7335C21.0023 14.6895 20.9198 14.6268 20.8213 14.5499C20.6255 14.3971 20.3611 14.1853 20.0938 13.9532C19.8314 13.7254 19.543 13.4581 19.3125 13.1974C19.1983 13.0681 19.0766 12.9167 18.9785 12.754C18.9072 12.6357 18.7854 12.4109 18.7559 12.1261L18.749 12.0001L18.7559 11.8741C18.7853 11.5893 18.9072 11.3645 18.9785 11.2462C19.0766 11.0836 19.1983 10.9321 19.3125 10.8028C19.543 10.5421 19.8314 10.2748 20.0938 10.047C20.3611 9.81492 20.6255 9.60309 20.8213 9.4503C20.9197 9.37347 21.0023 9.31072 21.0605 9.26671C21.0897 9.24471 21.1127 9.22706 21.1289 9.21495C21.137 9.20889 21.1439 9.20367 21.1484 9.2003C21.1505 9.19878 21.1521 9.19731 21.1533 9.1964L21.1553 9.19542H21.1562V9.19444Z" fill="currentColor"/><path d="M1.44429 9.40733C1.77171 8.96276 2.39805 8.86726 2.84273 9.19444L2.84371 9.19542L2.84566 9.1964C2.8469 9.19731 2.84849 9.19878 2.85054 9.2003C2.85508 9.20367 2.86194 9.20889 2.87007 9.21495C2.88632 9.22706 2.90931 9.24471 2.93843 9.26671C2.9967 9.31072 3.07923 9.37347 3.17769 9.4503C3.37347 9.60309 3.63793 9.81492 3.90523 10.047C4.16762 10.2748 4.45602 10.5421 4.68648 10.8028C4.80066 10.9321 4.92238 11.0836 5.02046 11.2462C5.10202 11.3815 5.24996 11.6557 5.24996 12.0001C5.24995 12.3445 5.10202 12.6187 5.02046 12.754C4.92239 12.9166 4.80066 13.0681 4.68648 13.1974C4.45603 13.4581 4.16761 13.7254 3.90523 13.9532C3.63793 14.1853 3.37346 14.3971 3.17769 14.5499C3.07922 14.6268 2.9967 14.6895 2.93843 14.7335C2.9093 14.7555 2.88632 14.7732 2.87007 14.7853C2.86194 14.7913 2.85508 14.7956 2.85054 14.7989C2.84828 14.8006 2.84698 14.8028 2.84566 14.8038L2.84371 14.8048L2.84273 14.8058C2.39808 15.1329 1.7727 15.0374 1.44527 14.5929C1.11775 14.1482 1.21249 13.522 1.65718 13.1944L1.66011 13.1925C1.66312 13.1903 1.6683 13.1866 1.67476 13.1817C1.6878 13.172 1.70783 13.1571 1.73335 13.1378C1.78442 13.0992 1.85834 13.0431 1.94722 12.9737C2.12634 12.8339 2.36215 12.6444 2.59468 12.4425C2.77322 12.2875 2.93654 12.1353 3.06831 12.0001C2.93654 11.8649 2.77322 11.7127 2.59468 11.5577C2.36215 11.3558 2.12635 11.1663 1.94722 11.0265C1.85833 10.9571 1.78442 10.901 1.73335 10.8624C1.70783 10.8431 1.6878 10.8282 1.67476 10.8185C1.6683 10.8137 1.66312 10.81 1.66011 10.8077L1.65718 10.8058L1.57808 10.7403C1.20242 10.4002 1.13753 9.82426 1.44429 9.40733Z" fill="currentColor"/></svg>
