<svg xmlns="http://www.w3.org/2000/svg" viewBox="0 0 24 24" fill="none"><path opacity="0.4" d="M11.5874 1.2501C12.1573 1.24934 12.6618 1.24866 13.1373 1.41733C13.2352 1.45209 13.3313 1.49208 13.425 1.53715C13.8799 1.75582 14.2361 2.11489 14.6386 2.52054L19.4214 7.32819C19.8888 7.79654 20.3036 8.2122 20.5276 8.75596C20.7517 9.29971 20.7508 9.88846 20.7498 10.5518L20.7497 14.0261C20.7497 15.8081 20.7497 17.2445 20.5986 18.3741C20.4417 19.547 20.1061 20.5345 19.3259 21.3188C18.5456 22.1031 17.5632 22.4405 16.3964 22.5982C15.2726 22.75 13.8437 22.75 12.0709 22.75C10.2981 22.75 8.72698 22.75 7.60314 22.5982C6.43635 22.4405 5.45394 22.1031 4.67369 21.3188C3.89344 20.5345 3.55784 19.547 3.40097 18.3741C3.24988 17.2445 3.2499 15.8081 3.24992 14.0262V14.0261V9.45263V9.4526C3.2499 7.91893 3.24989 6.6824 3.36417 5.69856C3.4824 4.6806 3.7341 3.80839 4.32673 3.06954C4.54427 2.79833 4.79004 2.55128 5.05985 2.33261C5.79487 1.7369 6.66258 1.48389 7.67527 1.36504C8.65402 1.25017 10.0616 1.25008 11.5874 1.2501Z" fill="currentColor"/><path d="M13.1373 1.416C13.2352 1.45076 13.3313 1.49075 13.425 1.53582C13.8799 1.75449 14.2361 2.11356 14.6386 2.51921L19.4214 7.32686L19.4214 7.32686C19.8888 7.79521 20.3036 8.21088 20.5276 8.75463C20.6264 8.99435 20.6815 9.24282 20.7121 9.50258H18.7313C17.3637 9.5026 16.7151 9.50181 15.8482 9.38525C14.9481 9.26424 14.1902 9.00534 13.5883 8.40343C12.9864 7.80151 12.7275 7.04364 12.6065 6.14353C12.4901 5.27834 12.4901 4.63063 12.4902 3.2688V3.26877V1.27734C12.7135 1.30042 12.9282 1.34184 13.1373 1.416Z" fill="currentColor"/><path d="M13.9999 13C14.5522 13 14.9999 13.4477 14.9999 14V15H15.9999C16.5522 15 16.9999 15.4477 16.9999 16C16.9999 16.5523 16.5522 17 15.9999 17H14.9999V18C14.9999 18.5523 14.5522 19 13.9999 19C13.4476 19 12.9999 18.5523 12.9999 18V14C12.9999 13.4477 13.4476 13 13.9999 13Z" fill="currentColor"/><path d="M9.99992 15C10.5522 15 10.9999 15.4477 10.9999 16C10.9999 16.5523 10.5522 17 9.99992 17H7.99992C7.44764 17 6.99992 16.5523 6.99992 16C6.99992 15.4477 7.44764 15 7.99992 15H9.99992Z" fill="currentColor"/></svg>
