<svg xmlns="http://www.w3.org/2000/svg" viewBox="0 0 24 24" fill="none"><path opacity="0.4" d="M20.7506 16.0388V16V8.00003C20.7506 7.74147 20.6173 7.50135 20.3981 7.36428L12.3981 2.36428C12.1852 2.23122 11.9223 2.21458 11.6969 2.31448L11.6032 2.36428L3.60317 7.36428C3.41126 7.48426 3.28491 7.68313 3.25649 7.90432L3.25063 8.00003V16V16.0388C3.25061 17.1783 3.2506 18.1088 3.34926 18.8428C3.45197 19.6068 3.67408 20.2692 4.20277 20.7979C4.73147 21.3266 5.3939 21.5487 6.15785 21.6514C6.89189 21.75 7.82239 21.75 8.96189 21.75H9.00063H15.0006H15.0394C16.1789 21.75 17.1094 21.75 17.8434 21.6514C18.6074 21.5487 19.2698 21.3266 19.7985 20.7979C20.3272 20.2692 20.5493 19.6068 20.652 18.8428C20.7506 18.1088 20.7506 17.1783 20.7506 16.0388Z" fill="currentColor"/><path d="M8.25063 17V21.75H15.7506V17C15.7506 14.9289 14.0717 13.25 12.0006 13.25C9.92956 13.25 8.25063 14.9289 8.25063 17Z" fill="currentColor"/><path d="M12.0003 2.25C12.607 2.25 13.149 2.43235 13.7171 2.72461C14.2691 3.00862 14.9029 3.42773 15.6829 3.94141L19.2503 6.29102V4C19.2503 3.58579 19.5861 3.25 20.0003 3.25C20.4145 3.25 20.7503 3.58579 20.7503 4V7.27832L22.4124 8.37402C22.7583 8.60182 22.854 9.06618 22.6262 9.41211C22.3984 9.75801 21.9341 9.85372 21.5882 9.62598L14.8577 5.19434C14.0507 4.66286 13.4943 4.29718 13.0305 4.05859C12.5828 3.82828 12.2828 3.75 12.0003 3.75C11.7177 3.75 11.4177 3.82828 10.97 4.05859C10.5062 4.29718 9.94987 4.66286 9.14285 5.19434L2.41238 9.62598C2.06646 9.85372 1.60209 9.75801 1.37429 9.41211C1.14655 9.06619 1.24226 8.60182 1.58816 8.37402L8.31765 3.94141C9.09764 3.42773 9.73143 3.00862 10.2835 2.72461C10.8516 2.43235 11.3935 2.25 12.0003 2.25Z" fill="currentColor"/><path d="M12.0006 8.25C12.5529 8.25 13.0006 8.69772 13.0006 9.25C13.0006 9.80229 12.5529 10.25 12.0006 10.25C11.4483 10.25 11.0006 9.80228 11.0006 9.25C11.0006 8.69772 11.4483 8.25 12.0006 8.25Z" fill="currentColor"/></svg>
