<svg xmlns="http://www.w3.org/2000/svg" viewBox="0 0 24 24" fill="none"><path d="M12.0007 14.75C13.2433 14.75 14.2507 15.7574 14.2507 17V21.75H9.75068V17C9.75068 15.7574 10.7581 14.7501 12.0007 14.75ZM12.0007 2.25C12.6073 2.25004 13.1494 2.43239 13.7175 2.72461C14.2579 3.00268 14.8768 3.41018 15.6345 3.90918L15.6833 3.94141L19.2507 6.29102V4C19.2507 3.58579 19.5865 3.25 20.0007 3.25C20.4148 3.25011 20.7507 3.58585 20.7507 4V7.27832L22.4128 8.37402C22.7585 8.60184 22.8543 9.06624 22.6267 9.41211C22.3989 9.75796 21.9345 9.8536 21.5886 9.62598L20.7507 9.07422V16.0391C20.7507 17.1784 20.7507 18.1088 20.6521 18.8428C20.5493 19.6067 20.3272 20.2692 19.7985 20.7979C19.2699 21.3265 18.6073 21.5486 17.8435 21.6514C17.2685 21.7286 16.5728 21.7444 15.7507 21.748V17C15.7507 14.9289 14.0718 13.25 12.0007 13.25C9.92969 13.2501 8.25068 14.929 8.25068 17V21.748C7.42852 21.7444 6.73293 21.7286 6.15791 21.6514C5.39401 21.5487 4.73151 21.3265 4.20283 20.7979C3.67414 20.2692 3.45203 19.6067 3.34932 18.8428C3.25067 18.1088 3.25067 17.1784 3.25068 16.0391V9.07422L2.41279 9.62598C2.0669 9.8537 1.60253 9.75794 1.37471 9.41211C1.14697 9.06619 1.24267 8.60182 1.58857 8.37402L8.31807 3.94141L8.36689 3.90918C9.12449 3.41022 9.74345 3.00265 10.2839 2.72461C10.8519 2.4324 11.394 2.25 12.0007 2.25ZM12.0007 8.25C11.4485 8.25008 11.0007 8.69777 11.0007 9.25C11.0007 9.80223 11.4485 10.2499 12.0007 10.25C12.553 10.25 13.0007 9.80229 13.0007 9.25C13.0007 8.69772 12.553 8.25 12.0007 8.25Z" fill="currentColor" fill-rule="evenodd" clip-rule="evenodd"/></svg>
