<svg xmlns="http://www.w3.org/2000/svg" viewBox="0 0 24 24" fill="none"><path opacity="0.4" d="M22.25 12.0526V12V11.9474C22.25 9.75475 22.25 8.03277 22.0693 6.68848C21.8842 5.31182 21.4969 4.21953 20.6387 3.36133C19.7805 2.50313 18.6882 2.11575 17.3115 1.93066C15.9672 1.74998 14.2452 1.74999 12.0526 1.75H12H11.9474C9.75476 1.74999 8.03277 1.74998 6.68848 1.93066C5.31182 2.11575 4.21953 2.50313 3.36133 3.36133C2.50313 4.21953 2.11575 5.31182 1.93066 6.68848C1.74998 8.03277 1.74999 9.75476 1.75 11.9474V12V12.0526C1.74999 14.2452 1.74998 15.9672 1.93066 17.3115C2.11575 18.6882 2.50313 19.7805 3.36133 20.6387C4.21953 21.4969 5.31182 21.8842 6.68848 22.0693C8.03277 22.25 9.75475 22.25 11.9474 22.25H12H12.0526C14.2452 22.25 15.9672 22.25 17.3115 22.0693C18.6882 21.8842 19.7805 21.4969 20.6387 20.6387C21.4969 19.7805 21.8842 18.6882 22.0693 17.3115C22.25 15.9672 22.25 14.2452 22.25 12.0526Z" fill="currentColor"/><path d="M6 12.0002C6 10.6506 6.4469 9.40249 7.2002 8.3996C7.5319 7.95807 8.15902 7.86871 8.60059 8.20038C9.04207 8.5321 9.13049 9.15923 8.79883 9.60077C8.29683 10.2692 8 11.0986 8 12.0002C8 14.2093 9.79086 16.0002 12 16.0002C14.2091 16.0002 16 14.2093 16 12.0002C16 11.0986 15.7032 10.2692 15.2012 9.60077C14.8695 9.15923 14.9579 8.5321 15.3994 8.20038C15.841 7.86871 16.4681 7.95807 16.7998 8.3996C17.5531 9.40249 18 10.6506 18 12.0002C18 15.3139 15.3137 18.0002 12 18.0002C8.68629 18.0002 6 15.3139 6 12.0002Z" fill="currentColor"/><path d="M11 12V7C11 6.44772 11.4477 6 12 6C12.5523 6 13 6.44772 13 7V12C13 12.5523 12.5523 13 12 13C11.4477 13 11 12.5523 11 12Z" fill="currentColor"/></svg>
