<svg xmlns="http://www.w3.org/2000/svg" viewBox="0 0 24 24" fill="none"><path d="M12.0522 1.75C14.2448 1.74999 15.9668 1.74998 17.311 1.93066C18.6877 2.11575 19.78 2.50313 20.6382 3.36133C21.4964 4.21953 21.8838 5.31182 22.0688 6.68848C22.2495 8.03274 22.2495 9.75468 22.2495 11.9473V12.0527C22.2495 14.2453 22.2495 15.9673 22.0688 17.3115C21.8838 18.6882 21.4964 19.7805 20.6382 20.6387C19.78 21.4969 18.6877 21.8842 17.311 22.0693C15.9668 22.25 14.2448 22.25 12.0522 22.25H11.9468C9.75419 22.25 8.03225 22.25 6.68799 22.0693C5.31133 21.8842 4.21904 21.4969 3.36084 20.6387C2.50264 19.7805 2.11526 18.6882 1.93018 17.3115C1.74949 15.9673 1.7495 14.2453 1.74951 12.0527V11.9473C1.7495 9.75468 1.74949 8.03274 1.93018 6.68848C2.11526 5.31182 2.50264 4.21953 3.36084 3.36133C4.21904 2.50313 5.31133 2.11575 6.68799 1.93066C8.03225 1.74998 9.75419 1.74999 11.9468 1.75H12.0522ZM8.6001 8.2002C8.15858 7.86863 7.53141 7.95802 7.19971 8.39941C6.44644 9.40225 5.99955 10.6505 5.99951 12C5.99951 15.3137 8.6858 18 11.9995 18C15.3132 18 17.9995 15.3137 17.9995 12C17.9995 10.6505 17.5526 9.40225 16.7993 8.39941C16.4676 7.95802 15.8404 7.86863 15.3989 8.2002C14.9575 8.53188 14.8691 9.15905 15.2007 9.60059C15.7026 10.2689 15.9995 11.0985 15.9995 12C15.9995 14.2091 14.2087 16 11.9995 16C9.79037 16 7.99951 14.2091 7.99951 12C7.99955 11.0985 8.29638 10.2689 8.79834 9.60059C9.12989 9.15905 9.04154 8.53188 8.6001 8.2002ZM11.9995 6C11.4472 6 10.9995 6.44772 10.9995 7V12C10.9995 12.5523 11.4472 13 11.9995 13C12.5518 13 12.9995 12.5523 12.9995 12V7C12.9995 6.44772 12.5518 6 11.9995 6Z" fill="currentColor"/></svg>
