<svg xmlns="http://www.w3.org/2000/svg" viewBox="0 0 24 24" fill="none"><path opacity="0.4" d="M22.2501 12.0521V11.9995V11.9469C22.2501 9.75427 22.2501 8.03228 22.0694 6.68799C21.8843 5.31133 21.497 4.21904 20.6388 3.36084C19.7806 2.50264 18.6883 2.11526 17.3116 1.93018C15.9673 1.74949 14.2453 1.7495 12.0527 1.74951H12.0001H11.9475C9.75486 1.7495 8.03287 1.74949 6.68858 1.93018C5.31192 2.11526 4.21963 2.50264 3.36143 3.36084C2.50323 4.21904 2.11585 5.31133 1.93076 6.68799C1.75008 8.03228 1.75009 9.75427 1.7501 11.9469V11.9995V12.0521C1.75009 14.2447 1.75008 15.9667 1.93076 17.311C2.11585 18.6877 2.50323 19.78 3.36143 20.6382C4.21963 21.4964 5.31192 21.8838 6.68858 22.0688C8.03287 22.2495 9.75485 22.2495 11.9475 22.2495H12.0001H12.0527C14.2453 22.2495 15.9673 22.2495 17.3116 22.0688C18.6883 21.8838 19.7806 21.4964 20.6388 20.6382C21.497 19.78 21.8843 18.6877 22.0694 17.311C22.2501 15.9667 22.2501 14.2448 22.2501 12.0521Z" fill="currentColor"/><path d="M15.0001 15.9995V9.94287L12.8575 13.5142C12.6768 13.8153 12.3513 13.9995 12.0001 13.9995C11.6489 13.9995 11.3234 13.8153 11.1427 13.5142L9.0001 9.94287V15.9995C9.0001 16.5518 8.55238 16.9995 8.0001 16.9995C7.44781 16.9995 7.0001 16.5518 7.0001 15.9995V8.63818C7.0001 7.73327 7.73386 6.99951 8.63877 6.99951L8.85166 7.01318C9.2732 7.06841 9.65761 7.28573 9.92197 7.61865L10.044 7.79541L12.0001 11.0552L13.9562 7.79541C14.2522 7.30194 14.786 6.99957 15.3614 6.99951C16.2663 6.99951 17.0001 7.73327 17.0001 8.63818V15.9995C17.0001 16.5518 16.5524 16.9995 16.0001 16.9995C15.4478 16.9995 15.0001 16.5518 15.0001 15.9995Z" fill="currentColor"/></svg>
