<svg xmlns="http://www.w3.org/2000/svg" viewBox="0 0 24 24" fill="none"><path d="M12.0528 1.74951C14.2454 1.7495 15.9674 1.74949 17.3116 1.93018C18.6883 2.11526 19.7806 2.50264 20.6388 3.36084C21.497 4.21904 21.8843 5.31133 22.0694 6.68799C22.2501 8.03225 22.2501 9.75419 22.2501 11.9468V12.0522C22.2501 14.2448 22.2501 15.9668 22.0694 17.311C21.8843 18.6877 21.497 19.78 20.6388 20.6382C19.7806 21.4964 18.6883 21.8838 17.3116 22.0688C15.9674 22.2495 14.2454 22.2495 12.0528 22.2495H11.9474C9.75478 22.2495 8.03284 22.2495 6.68858 22.0688C5.31192 21.8838 4.21963 21.4964 3.36143 20.6382C2.50323 19.78 2.11585 18.6877 1.93076 17.311C1.75008 15.9668 1.75009 14.2448 1.7501 12.0522V11.9468C1.75009 9.75419 1.75008 8.03225 1.93076 6.68799C2.11585 5.31133 2.50323 4.21904 3.36143 3.36084C4.21963 2.50264 5.31192 2.11526 6.68858 1.93018C8.03284 1.74949 9.75478 1.7495 11.9474 1.74951H12.0528ZM15.3614 6.99951C14.786 6.99957 14.2522 7.30194 13.9562 7.79541L12.0001 11.0552L10.044 7.79541L9.92197 7.61865C9.65761 7.28573 9.2732 7.06841 8.85166 7.01318L8.63877 6.99951C7.73386 6.99951 7.0001 7.73327 7.0001 8.63818V15.9995C7.0001 16.5518 7.44781 16.9995 8.0001 16.9995C8.55238 16.9995 9.0001 16.5518 9.0001 15.9995V9.94287L11.1427 13.5142C11.3234 13.8153 11.6489 13.9995 12.0001 13.9995C12.3513 13.9995 12.6768 13.8153 12.8575 13.5142L15.0001 9.94287V15.9995C15.0001 16.5518 15.4478 16.9995 16.0001 16.9995C16.5524 16.9995 17.0001 16.5518 17.0001 15.9995V8.63818C17.0001 7.73327 16.2663 6.99951 15.3614 6.99951Z" fill="currentColor"/></svg>
