<svg xmlns="http://www.w3.org/2000/svg" viewBox="0 0 24 24" fill="none"><path d="M11.7901 1.25012C13.4248 1.25034 14.7498 2.57543 14.7501 4.21008V19.7892C14.7501 21.424 13.4249 22.749 11.7901 22.7491C11.5327 22.7491 11.2761 22.7158 11.0274 22.6495L7.51862 21.714L7.47858 21.7032C6.62187 21.4748 5.91538 21.2865 5.36237 21.0665C4.78221 20.8358 4.29429 20.5421 3.92291 20.0587C3.55158 19.5754 3.39386 19.0283 3.32037 18.4083C3.25005 17.8149 3.25005 17.0802 3.25006 16.1886V7.81067C3.25006 6.91925 3.25005 6.18432 3.32037 5.59094C3.39386 4.97096 3.5516 4.42391 3.92291 3.94055C4.29427 3.45722 4.78227 3.16346 5.36237 2.93274C5.91664 2.71233 6.62512 2.52314 7.48444 2.29407L7.51862 2.28528L11.0274 1.34973C11.2761 1.28347 11.5328 1.25012 11.7901 1.25012ZM11.0001 10.2501C10.5858 10.2501 10.2501 10.5859 10.2501 11.0001V13.0001C10.2501 13.4143 10.5858 13.7501 11.0001 13.7501C11.4143 13.7501 11.7501 13.4143 11.7501 13.0001V11.0001C11.7501 10.5859 11.4143 10.2501 11.0001 10.2501Z" fill="currentColor"/><path d="M17.5 3.25005C17.9285 3.25005 18.2523 3.24638 18.5361 3.30278C19.6271 3.51975 20.4803 4.37301 20.6973 5.46392C20.7537 5.74769 20.75 6.0716 20.75 6.50005V17.5C20.75 17.9285 20.7536 18.2524 20.6973 18.5362C20.4803 19.6271 19.6271 20.4803 18.5361 20.6973C18.2523 20.7537 17.9285 20.75 17.5 20.75H17.4922L15.8916 20.7325C15.9611 20.4291 16 20.1136 16 19.7891V4.21001C15.9999 3.87966 15.9607 3.55848 15.8887 3.25005H17.5Z" fill="currentColor"/></svg>
