<svg xmlns="http://www.w3.org/2000/svg" viewBox="0 0 24 24" fill="none"><path opacity="0.4" d="M18.8356 12C18.8356 8.22192 15.7728 5.15914 11.9947 5.15914C8.21654 5.15914 5.15376 8.22191 5.15376 12C5.15376 15.7781 8.21654 18.841 11.9947 18.841C15.7728 18.841 18.8356 15.7781 18.8356 12ZM20.7901 12C20.7901 16.8576 16.8522 20.7955 11.9947 20.7955C7.13707 20.7955 3.19922 16.8576 3.19922 12C3.19922 7.14245 7.13708 3.20459 11.9947 3.20459C16.8522 3.20459 20.7901 7.14244 20.7901 12Z" fill="currentColor"/><path opacity="0.4" d="M12.9726 11.9999C12.9726 11.4602 12.535 11.0227 11.9953 11.0227C11.4556 11.0227 11.018 11.4602 11.018 11.9999C11.018 12.5397 11.4556 12.9772 11.9953 12.9772C12.535 12.9772 12.9726 12.5397 12.9726 11.9999ZM14.9271 11.9999C14.9271 13.6191 13.6145 14.9318 11.9953 14.9318C10.3761 14.9318 9.06348 13.6191 9.06348 11.9999C9.06348 10.3807 10.3761 9.06812 11.9953 9.06812C13.6145 9.06812 14.9271 10.3807 14.9271 11.9999Z" fill="currentColor"/><path d="M12.9727 21.7725C12.9727 22.3121 12.5348 22.7499 11.9951 22.75C11.4554 22.7499 11.0176 22.3122 11.0176 21.7725V20.7393C11.3386 20.7748 11.6647 20.7959 11.9951 20.7959C12.3256 20.7959 12.6516 20.7748 12.9727 20.7393V21.7725Z" fill="currentColor"/><path d="M6.77832 19.0801C7.30065 19.4656 7.86706 19.7939 8.46875 20.0576L7.95508 20.9492C7.68525 21.4165 7.08849 21.5763 6.62109 21.3066C6.15381 21.0368 5.99398 20.44 6.26367 19.9727L6.77832 19.0801Z" fill="currentColor"/><path d="M17.7363 19.9717C18.0062 20.439 17.8462 21.0367 17.3789 21.3066C16.9116 21.5763 16.3148 21.4164 16.0449 20.9492L15.5273 20.0547C16.1294 19.7903 16.6963 19.4616 17.2188 19.0752L17.7363 19.9717Z" fill="currentColor"/><path d="M9.7666 13.9023C10.1935 14.402 10.7845 14.755 11.457 14.8799L9.4541 18.3516C8.84173 18.1064 8.2737 17.7753 7.76367 17.373L9.7666 13.9023Z" fill="currentColor"/><path d="M3.93457 15.5215C4.1981 16.1238 4.52654 16.691 4.91211 17.2139L4.02246 17.7285C3.55508 17.9982 2.95732 17.8374 2.6875 17.3701C2.41818 16.903 2.57813 16.3061 3.04492 16.0361L3.93457 15.5215Z" fill="currentColor"/><path d="M20.9551 16.0361C21.422 16.3062 21.5812 16.9029 21.3115 17.3701C21.0417 17.8374 20.4449 17.9981 19.9775 17.7285L19.0801 17.21C19.4653 16.687 19.7934 16.1199 20.0566 15.5176L20.9551 16.0361Z" fill="currentColor"/><path d="M6.07324 15.416C6.08632 15.4387 6.09733 15.4621 6.1084 15.4854C6.0837 15.4437 6.05996 15.4016 6.03613 15.3594C6.04861 15.3779 6.06189 15.3964 6.07324 15.416Z" fill="currentColor"/><path d="M3.25586 11.0176C3.21999 11.3402 3.19922 11.6678 3.19922 12C3.19922 12.3288 3.21876 12.6532 3.25391 12.9727H2.22754C1.68787 12.9727 1.2501 12.5348 1.25 11.9951C1.25006 11.4554 1.68784 11.0176 2.22754 11.0176H3.25586Z" fill="currentColor"/><path d="M18.7646 11.0176C18.8108 11.3384 18.8359 11.6664 18.8359 12C18.8359 12.3303 18.8109 12.6549 18.7656 12.9727H14.7578C14.8651 12.668 14.9268 12.3414 14.9268 12C14.9268 11.655 14.8643 11.325 14.7549 11.0176H18.7646Z" fill="currentColor"/><path d="M21.7725 11.0176C22.3122 11.0176 22.7499 11.4554 22.75 11.9951C22.7499 12.5348 22.3121 12.9727 21.7725 12.9727H20.7363C20.7715 12.6533 20.79 12.3288 20.79 12C20.79 11.6678 20.7702 11.3402 20.7344 11.0176H21.7725Z" fill="currentColor"/><path d="M11.5078 12.8389C11.5286 12.8508 11.5479 12.8647 11.5674 12.8779C11.5222 12.8559 11.4785 12.8312 11.4375 12.8027C11.4611 12.8139 11.4848 12.8256 11.5078 12.8389Z" fill="currentColor"/><path d="M5.15918 11.9951C5.15918 12.0178 5.15679 12.0402 5.15527 12.0625C5.15509 12.0417 5.1543 12.0208 5.1543 12C5.1543 11.9769 5.15504 11.9538 5.15527 11.9307C5.15667 11.952 5.15918 11.9734 5.15918 11.9951Z" fill="currentColor"/><path d="M11.4639 9.11816C10.7906 9.24147 10.1986 9.59391 9.77051 10.0928L7.76953 6.62207C8.28027 6.22024 8.84887 5.88908 9.46191 5.64453L11.4639 9.11816Z" fill="currentColor"/><path d="M6.07812 8.5752C6.06734 8.59386 6.05477 8.61122 6.04297 8.62891C6.06479 8.59047 6.08586 8.55164 6.1084 8.51367C6.09849 8.53396 6.08958 8.55534 6.07812 8.5752Z" fill="currentColor"/><path d="M19.9727 6.26367C20.4398 5.99412 21.0366 6.15331 21.3066 6.62012C21.5764 7.0873 21.4171 7.68502 20.9502 7.95508L20.0527 8.47266C19.7888 7.87064 19.4601 7.3038 19.0742 6.78125L19.9727 6.26367Z" fill="currentColor"/><path d="M2.69336 6.62012C2.96339 6.15329 3.56018 5.99407 4.02734 6.26367L4.91797 6.77734C4.53193 7.29957 4.20267 7.86606 3.93848 8.46777L3.0498 7.95508C2.58288 7.68503 2.42362 7.08732 2.69336 6.62012Z" fill="currentColor"/><path d="M16.0361 3.04492C16.3062 2.57796 16.9039 2.41872 17.3711 2.68848C17.838 2.95845 17.9981 3.55527 17.7285 4.02246L17.2109 4.91895C16.688 4.53311 16.121 4.20418 15.5186 3.94043L16.0361 3.04492Z" fill="currentColor"/><path d="M6.62988 2.6875C7.09742 2.418 7.69524 2.57845 7.96484 3.0459L8.47852 3.9375C7.87564 4.20081 7.30757 4.52854 6.78418 4.91406L6.27051 4.02246C6.0011 3.55488 6.16234 2.95702 6.62988 2.6875Z" fill="currentColor"/><path d="M11.9951 1.25C12.5348 1.25008 12.9727 1.68786 12.9727 2.22754V3.25977C12.6516 3.22426 12.3256 3.20509 11.9951 3.20508C11.6647 3.20508 11.3385 3.22428 11.0176 3.25977V2.22754C11.0176 1.68784 11.4554 1.25006 11.9951 1.25Z" fill="currentColor"/></svg>
