<svg xmlns="http://www.w3.org/2000/svg" viewBox="0 0 24 24" fill="none"><path d="M11.9951 1.25C12.5348 1.25008 12.9727 1.68786 12.9727 2.22754V3.25977C13.8689 3.35891 14.7242 3.59263 15.5186 3.94043L16.0361 3.04492C16.3062 2.57796 16.9039 2.41872 17.3711 2.68848C17.838 2.95845 17.9981 3.55527 17.7285 4.02246L17.2109 4.91895C17.9213 5.44307 18.5498 6.07111 19.0742 6.78125L19.9727 6.26367C20.4398 5.99412 21.0366 6.15331 21.3066 6.62012C21.5764 7.0873 21.4171 7.68502 20.9502 7.95508L20.0527 8.47266C20.4008 9.26672 20.6348 10.1216 20.7344 11.0176H21.7725C22.3122 11.0176 22.7499 11.4554 22.75 11.9951C22.7499 12.5348 22.3121 12.9727 21.7725 12.9727H20.7363C20.6378 13.8686 20.4037 14.7233 20.0566 15.5176L20.9551 16.0361C21.422 16.3062 21.5812 16.9029 21.3115 17.3701C21.0417 17.8374 20.4449 17.9981 19.9775 17.7285L19.0801 17.21C18.5564 17.921 17.9287 18.5501 17.2188 19.0752L17.7363 19.9717C18.0062 20.439 17.8462 21.0367 17.3789 21.3066C16.9116 21.5763 16.3148 21.4164 16.0449 20.9492L15.5273 20.0547C14.7304 20.4047 13.8723 20.6397 12.9727 20.7393V21.7725C12.9727 22.3121 12.5348 22.7499 11.9951 22.75C11.4554 22.7499 11.0176 22.3122 11.0176 21.7725V20.7393C10.1201 20.64 9.26403 20.4061 8.46875 20.0576L7.95508 20.9492C7.68525 21.4165 7.08849 21.5763 6.62109 21.3066C6.15381 21.0368 5.99398 20.44 6.26367 19.9727L6.77832 19.0801C6.06672 18.5549 5.43699 17.9257 4.91211 17.2139L4.02246 17.7285C3.55508 17.9982 2.95732 17.8374 2.6875 17.3701C2.41818 16.903 2.57813 16.3061 3.04492 16.0361L3.93457 15.5215C3.58661 14.7262 3.35264 13.87 3.25391 12.9727H2.22754C1.68787 12.9727 1.2501 12.5348 1.25 11.9951C1.25006 11.4554 1.68784 11.0176 2.22754 11.0176H3.25586C3.35565 10.1199 3.58927 9.26312 3.93848 8.46777L3.0498 7.95508C2.58288 7.68503 2.42362 7.08732 2.69336 6.62012C2.96339 6.15329 3.56018 5.99407 4.02734 6.26367L4.91797 6.77734C5.44322 6.06679 6.0727 5.43814 6.78418 4.91406L6.27051 4.02246C6.0011 3.55488 6.16234 2.95702 6.62988 2.6875C7.09742 2.418 7.69524 2.57845 7.96484 3.0459L8.47852 3.9375C9.27101 3.59137 10.1239 3.35859 11.0176 3.25977V2.22754C11.0176 1.68784 11.4554 1.25006 11.9951 1.25ZM14.7578 12.9727C14.3563 14.1131 13.2729 14.9316 11.9951 14.9316C11.8112 14.9316 11.6316 14.9123 11.457 14.8799L9.4541 18.3516C10.2398 18.6662 11.097 18.8408 11.9951 18.8408C15.4428 18.8407 18.2933 16.2899 18.7656 12.9727H14.7578ZM7.76953 6.62207C7.10628 7.1439 6.54117 7.78453 6.1084 8.51367C6.09849 8.53396 6.08958 8.55534 6.07812 8.5752C6.06734 8.59386 6.05477 8.61122 6.04297 8.62891C5.48877 9.6053 5.16719 10.7306 5.15527 11.9307C5.15667 11.952 5.15918 11.9734 5.15918 11.9951C5.15918 12.0178 5.15679 12.0402 5.15527 12.0625C5.166 13.2603 5.48498 14.3839 6.03613 15.3594C6.04861 15.3779 6.06189 15.3964 6.07324 15.416C6.08632 15.4387 6.09733 15.4621 6.1084 15.4854C6.53982 16.2124 7.103 16.851 7.76367 17.3721L9.7666 13.9023C9.32893 13.3901 9.06348 12.7265 9.06348 12C9.06348 11.2712 9.33041 10.6056 9.77051 10.0928L7.76953 6.62207ZM11.9951 11.0225C11.4554 11.0225 11.0176 11.4603 11.0176 12C11.0176 12.3325 11.1838 12.6262 11.4375 12.8027C11.4611 12.8139 11.4848 12.8256 11.5078 12.8389C11.5286 12.8508 11.5479 12.8647 11.5674 12.8779C11.6967 12.941 11.8416 12.9775 11.9951 12.9775C12.5348 12.9775 12.9727 12.5397 12.9727 12C12.9727 11.4603 12.5348 11.0225 11.9951 11.0225ZM11.9951 5.15918C11.1001 5.15918 10.2454 5.33198 9.46191 5.64453L11.4639 9.11816C11.6362 9.08659 11.8136 9.06836 11.9951 9.06836C13.2693 9.06839 14.3507 9.88213 14.7549 11.0176H18.7646C18.2882 7.70504 15.4395 5.15928 11.9951 5.15918Z" fill="currentColor" fill-rule="evenodd" clip-rule="evenodd"/></svg>
