<svg xmlns="http://www.w3.org/2000/svg" viewBox="0 0 24 24" fill="none"><path opacity="0.4" d="M8.99986 13.6758V3C8.99986 2.44772 9.44758 2 9.99986 2C10.5521 2 10.9999 2.44772 10.9999 3V13.6758C10.9999 14.6962 11.0015 15.5457 10.9227 16.2354C10.841 16.9506 10.6645 17.5947 10.245 18.1768C9.8254 18.7589 9.26981 19.1299 8.61705 19.4336C7.98767 19.7263 7.18167 19.9938 6.21373 20.3164L4.31627 20.9482C3.79242 21.1229 3.22638 20.8402 3.05162 20.3164C2.87701 19.7926 3.1597 19.2265 3.68346 19.0518L5.58092 18.4189C6.59253 18.0817 7.27121 17.8536 7.7733 17.6201C8.25212 17.3974 8.47525 17.2104 8.62193 17.0068C8.76862 16.8033 8.87551 16.5325 8.93541 16.0078C8.99817 15.4577 8.99986 14.7419 8.99986 13.6758Z" fill="currentColor"/><path opacity="0.4" d="M12.9999 12.0215V3C12.9999 2.44772 13.4476 2 13.9999 2C14.5522 2 14.9999 2.44772 14.9999 3V12.0215C14.9999 13.2482 15.0027 14.0557 15.0887 14.6357C15.1707 15.1877 15.3 15.3227 15.3905 15.3896C15.4856 15.46 15.6648 15.5468 16.2382 15.4707C16.8349 15.3915 17.6311 15.1704 18.8309 14.833L19.7294 14.5801C20.261 14.4307 20.8133 14.7409 20.9628 15.2725C21.112 15.804 20.8019 16.3564 20.2704 16.5059L19.372 16.7578C18.2325 17.0782 17.2738 17.3506 16.5018 17.4531C15.7066 17.5587 14.9022 17.5157 14.2011 16.9971C13.4956 16.4751 13.2273 15.7178 13.1102 14.9287C12.9973 14.1674 12.9999 13.183 12.9999 12.0215Z" fill="currentColor"/><path d="M20.9696 19.2576C20.8357 18.7219 20.2934 18.3962 19.7577 18.53L13.7577 20.03C13.222 20.164 12.8963 20.7062 13.0301 21.242C13.1641 21.7777 13.7063 22.1033 14.2421 21.9695L20.2421 20.4695C20.7778 20.3356 21.1034 19.7933 20.9696 19.2576Z" fill="currentColor"/><path d="M19.742 10.034C20.2756 9.89175 20.8233 10.2086 20.9657 10.742C21.108 11.2756 20.7912 11.8233 20.2577 11.9657L5.25767 15.9657C4.72411 16.108 4.17644 15.7912 4.03404 15.2577C3.89175 14.7241 4.20855 14.1764 4.74204 14.034L19.742 10.034Z" fill="currentColor"/></svg>
