<svg xmlns="http://www.w3.org/2000/svg" viewBox="0 0 24 24" fill="none"><path d="M19.7577 18.5303C20.2934 18.3965 20.8357 18.7221 20.9696 19.2578C21.1032 19.7934 20.7776 20.3358 20.2421 20.4697L14.2421 21.9697C13.7064 22.1035 13.1642 21.7778 13.0301 21.2422C12.8963 20.7065 13.222 20.1642 13.7577 20.0303L19.7577 18.5303ZM13.9999 2C14.5521 2.00006 14.9999 2.44775 14.9999 3V11.2979L19.7421 10.0342C20.2756 9.89196 20.8233 10.2087 20.9657 10.7422C21.1078 11.2757 20.791 11.8234 20.2577 11.9658L15.0087 13.3652C15.0183 13.8894 15.039 14.3005 15.0887 14.6357C15.1707 15.1877 15.3 15.3227 15.3905 15.3896C15.4856 15.4599 15.665 15.5467 16.2381 15.4707C16.8349 15.3915 17.6311 15.1704 18.8309 14.833L19.7294 14.5801C20.2609 14.4308 20.8133 14.7409 20.9628 15.2725C21.112 15.804 20.8018 16.3563 20.2704 16.5059L19.3719 16.7578C18.2325 17.0782 17.2738 17.3506 16.5018 17.4531C15.7066 17.5587 14.9022 17.5156 14.201 16.9971C13.4956 16.4751 13.2273 15.7178 13.1102 14.9287C13.0644 14.6197 13.037 14.274 13.0213 13.8945L10.995 14.4355C10.9915 15.1261 10.981 15.7246 10.9227 16.2354C10.841 16.9506 10.6645 17.5947 10.245 18.1768C9.82542 18.7588 9.26976 19.1299 8.61705 19.4336C7.9877 19.7263 7.18162 19.9938 6.21373 20.3164L4.31627 20.9482C3.79244 21.1229 3.2264 20.8401 3.05162 20.3164C2.87701 19.7926 3.1597 19.2265 3.68346 19.0518L5.58092 18.4189C6.59247 18.0818 7.27123 17.8536 7.7733 17.6201C8.25204 17.3974 8.47526 17.2103 8.62193 17.0068C8.76859 16.8033 8.87552 16.5324 8.93541 16.0078C8.96857 15.7171 8.98325 15.3802 8.99108 14.9697L5.25768 15.9658C4.72418 16.1081 4.17652 15.7912 4.03404 15.2578C3.89176 14.7243 4.20856 14.1766 4.74205 14.0342L8.99986 12.8984V3C8.99986 2.44772 9.44758 2 9.99986 2C10.5521 2.00007 10.9999 2.44776 10.9999 3V12.3652L12.9999 11.832V3C12.9999 2.44772 13.4476 2 13.9999 2Z" fill="currentColor" fill-rule="evenodd" clip-rule="evenodd"/></svg>
