<svg xmlns="http://www.w3.org/2000/svg" viewBox="0 0 24 24" fill="none"><path d="M18.7496 16C18.7496 16.9665 17.9661 17.75 16.9996 17.75H15.9996C15.0331 17.75 14.2496 16.9665 14.2496 16V9.75H18.7496V16ZM16.9996 4.25C17.9661 4.25 18.7496 5.0335 18.7496 6V8.25H14.2496V6C14.2496 5.0335 15.0331 4.25 15.9996 4.25H16.9996Z" fill="currentColor"/><path d="M11.7496 16C11.7496 16.9665 10.9661 17.75 9.99963 17.75H8.99963C8.03314 17.75 7.24963 16.9665 7.24963 16V13.75H11.7496V16ZM9.99963 8.25C10.9661 8.25 11.7496 9.0335 11.7496 10V12.25H7.24963V10C7.24963 9.0335 8.03314 8.25 8.99963 8.25H9.99963Z" fill="currentColor"/><path d="M1.99964 13V3C1.99964 2.44772 2.44735 2 2.99964 2C3.55192 2 3.99964 2.44772 3.99964 3V13C3.99964 14.9139 4.00192 16.2487 4.13733 17.2559C4.26887 18.2342 4.50953 18.7521 4.87854 19.1211C5.24755 19.4901 5.76544 19.7308 6.74378 19.8623C7.75091 19.9977 9.08575 20 10.9996 20H20.9996C21.5519 20 21.9996 20.4477 21.9996 21C21.9996 21.5523 21.5519 22 20.9996 22H10.9996C9.14229 22 7.64855 22.0022 6.47717 21.8447C5.27708 21.6834 4.26701 21.3377 3.46448 20.5352C2.66195 19.7326 2.31627 18.7226 2.15491 17.5225C1.99742 16.3511 1.99964 14.8573 1.99964 13Z" fill="currentColor"/></svg>
