<svg xmlns="http://www.w3.org/2000/svg" viewBox="0 0 24 24" fill="none"><path d="M20.9041 14.796C20.1762 14.068 18.9958 14.068 18.2678 14.796L13.9128 19.15C13.4888 19.5741 13.2506 20.1494 13.2505 20.749V22.0789C13.2505 22.4496 13.5509 22.75 13.9216 22.75H15.2506C15.8504 22.75 16.4264 22.5118 16.8505 22.0877L16.8497 22.0868L21.2047 17.7327C21.9324 17.0048 21.9324 15.8254 21.2047 15.0974L20.9041 14.796Z" fill="currentColor"/><path d="M12.0581 1.25C13.6597 1.24998 14.9383 1.24996 15.9409 1.38477C16.9772 1.52409 17.8302 1.81999 18.5054 2.49512C19.1805 3.17025 19.4764 4.02332 19.6157 5.05957C19.7505 6.06221 19.7505 7.34079 19.7505 8.94238V13.0059C18.8997 12.9611 18.0342 13.2623 17.3843 13.9121L13.0288 18.2666C12.3705 18.9251 12.0007 19.8183 12.0005 20.749V22.0791C12.0005 22.315 12.0447 22.5403 12.1226 22.749C12.1012 22.749 12.0796 22.75 12.0581 22.75H9.94287C8.34128 22.75 7.0627 22.75 6.06006 22.6152C5.02381 22.4759 4.17074 22.18 3.49561 21.5049C2.82047 20.8298 2.52458 19.9767 2.38525 18.9404C2.25045 17.9378 2.25047 16.6592 2.25049 15.0576V8.94238C2.25047 7.34078 2.25045 6.06221 2.38525 5.05957C2.52458 4.02332 2.82047 3.17025 3.49561 2.49512C4.17074 1.81998 5.02381 1.52409 6.06006 1.38477C7.0627 1.24996 8.34127 1.24998 9.94287 1.25H12.0581ZM7.00049 13.25C6.58627 13.25 6.25049 13.5858 6.25049 14C6.25049 14.4142 6.58627 14.75 7.00049 14.75H13.0005C13.4147 14.75 13.7505 14.4142 13.7505 14C13.7505 13.5858 13.4147 13.25 13.0005 13.25H7.00049ZM7.00049 9.25C6.58627 9.25 6.25049 9.58579 6.25049 10C6.25049 10.4142 6.58627 10.75 7.00049 10.75H15.0005C15.4147 10.75 15.7505 10.4142 15.7505 10C15.7505 9.58579 15.4147 9.25 15.0005 9.25H7.00049ZM11.0005 5.25C10.5863 5.25 10.2505 5.58579 10.2505 6C10.2505 6.41421 10.5863 6.75 11.0005 6.75H15.0005C15.4147 6.75 15.7505 6.41421 15.7505 6C15.7505 5.58579 15.4147 5.25 15.0005 5.25H11.0005Z" fill="currentColor"/></svg>
