<svg xmlns="http://www.w3.org/2000/svg" viewBox="0 0 24 24" fill="none"><path opacity="0.4" d="M18.9995 16.0005C18.9995 15.4482 18.5518 15.0005 17.9995 15.0005C17.4472 15.0005 16.9995 15.4482 16.9995 16.0005V18.0005C16.9995 18.5528 17.4472 19.0005 17.9995 19.0005C18.5518 19.0005 18.9995 18.5528 18.9995 18.0005V16.0005ZM20.9995 18.0005C20.9995 19.6573 19.6564 21.0005 17.9995 21.0005C16.3427 21.0005 14.9995 19.6573 14.9995 18.0005V16.0005C14.9995 14.3436 16.3427 13.0005 17.9995 13.0005C19.6564 13.0005 20.9995 14.3436 20.9995 16.0005V18.0005Z" fill="currentColor"/><path opacity="0.4" d="M16.7406 3.23491C17.0055 3.09057 17.5068 2.87347 18.0599 3.09331L18.1713 3.14312L18.2777 3.20269C18.7836 3.51363 18.9108 4.04322 18.9545 4.34136C19.0022 4.6673 18.9994 5.08528 18.9994 5.48882V9.00054H19.9994C20.5517 9.00054 20.9994 9.44825 20.9994 10.0005C20.9993 10.5528 20.5516 11.0005 19.9994 11.0005H15.9994C15.4472 11.0005 14.9994 10.5527 14.9994 10.0005C14.9994 9.4483 15.4472 9.00061 15.9994 9.00054H16.9994V5.48882L16.9984 5.48491L16.6 5.78667C16.1588 6.11791 15.5324 6.0292 15.2006 5.58843C14.8687 5.14708 14.9575 4.52001 15.3988 4.18804L15.7982 3.88726C16.1199 3.64535 16.4515 3.3925 16.7406 3.23491Z" fill="currentColor"/><path d="M7.99938 3.00049C8.55167 3.00049 8.99938 3.4482 8.99938 4.00049V18.0503C9.20973 17.8307 9.42635 17.5913 9.64001 17.3452C10.0589 16.8627 10.4486 16.3769 10.7347 16.0103C10.8772 15.8277 10.9928 15.6756 11.0726 15.5698C11.1125 15.517 11.1438 15.4754 11.1644 15.4478C11.1746 15.434 11.1819 15.4233 11.1869 15.4165C11.1892 15.4133 11.1927 15.4097 11.1927 15.4097L11.1937 15.4077C11.5211 14.9632 12.1475 14.8677 12.5922 15.1948C13.0367 15.5222 13.1322 16.1486 12.805 16.5933L12.8041 16.5952L12.8021 16.5972C12.8004 16.5994 12.7974 16.6028 12.7943 16.6069C12.7881 16.6153 12.7794 16.6276 12.7679 16.6431C12.7449 16.674 12.711 16.7184 12.6683 16.7749C12.583 16.8879 12.4609 17.0486 12.3109 17.2407C12.0118 17.624 11.599 18.1384 11.1498 18.6558C10.7048 19.1683 10.2039 19.7065 9.73083 20.1245C9.49553 20.3324 9.24394 20.5323 8.99059 20.6851C8.76459 20.8213 8.40963 21.0005 7.99938 21.0005C7.58918 21.0005 7.23416 20.8213 7.00817 20.6851C6.75487 20.5323 6.5032 20.3324 6.26794 20.1245C5.79488 19.7065 5.29394 19.1682 4.84899 18.6558C4.39981 18.1384 3.98699 17.624 3.68786 17.2407C3.53791 17.0486 3.41574 16.8878 3.33044 16.7749C3.2878 16.7185 3.25384 16.6739 3.23083 16.6431C3.21936 16.6277 3.21061 16.6152 3.20446 16.6069C3.20146 16.6029 3.19929 16.5994 3.19762 16.5972L3.19469 16.5952V16.5933C2.86765 16.1486 2.96215 15.5232 3.40661 15.1958C3.85127 14.8683 4.47751 14.9631 4.80505 15.4077L4.80602 15.4097C4.80602 15.4097 4.80954 15.4134 4.81188 15.4165C4.81689 15.4233 4.82416 15.4341 4.83434 15.4478C4.85497 15.4754 4.88625 15.517 4.92614 15.5698C5.00599 15.6755 5.12159 15.8277 5.26403 16.0103C5.55012 16.3768 5.93985 16.8627 6.35876 17.3452C6.57239 17.5913 6.78906 17.8307 6.99938 18.0503V4.00049C6.99938 3.44825 7.44716 3.00057 7.99938 3.00049Z" fill="currentColor"/></svg>
