<svg xmlns="http://www.w3.org/2000/svg" viewBox="0 0 24 24" fill="none"><path d="M7.99953 3.0009C8.55182 3.0009 8.99953 3.44861 8.99953 4.0009V18.0507C9.20988 17.8311 9.42651 17.5917 9.64016 17.3456C10.0591 16.8631 10.4488 16.3773 10.7349 16.0107C10.8774 15.8281 10.9929 15.676 11.0728 15.5702C11.1127 15.5174 11.1439 15.4758 11.1646 15.4482C11.1748 15.4345 11.182 15.4237 11.187 15.4169C11.1894 15.4137 11.1917 15.4116 11.1929 15.4101L11.1939 15.4081C11.5213 14.9636 12.1476 14.8681 12.5923 15.1952C13.0369 15.5226 13.1323 16.149 12.8052 16.5937H12.8042V16.5956C12.8038 16.5962 12.8029 16.5967 12.8023 16.5976C12.8006 16.5998 12.7975 16.6032 12.7945 16.6073C12.7883 16.6157 12.7796 16.628 12.7681 16.6435C12.7451 16.6744 12.7111 16.7188 12.6685 16.7753C12.5832 16.8883 12.461 17.049 12.3111 17.2411C12.0119 17.6245 11.5991 18.1388 11.1499 18.6562C10.705 19.1687 10.2041 19.7069 9.73098 20.1249C9.49568 20.3328 9.24409 20.5327 8.99074 20.6855C8.76474 20.8217 8.40979 21.0009 7.99953 21.0009C7.58932 21.0009 7.23431 20.8217 7.00832 20.6855C6.75501 20.5327 6.50335 20.3328 6.26809 20.1249C5.79503 19.7069 5.29409 19.1686 4.84914 18.6562C4.39996 18.1388 3.98714 17.6244 3.68801 17.2411C3.53806 17.049 3.41589 16.8882 3.33059 16.7753C3.28795 16.7189 3.25399 16.6744 3.23098 16.6435C3.2195 16.6281 3.21076 16.6156 3.20461 16.6073C3.20161 16.6033 3.19944 16.5998 3.19777 16.5976C3.19693 16.5966 3.19532 16.5963 3.19485 16.5956V16.5937H3.19387C2.86682 16.149 2.96229 15.5236 3.40676 15.1962C3.85142 14.8687 4.47766 14.9635 4.8052 15.4081L4.80617 15.4101C4.80732 15.4116 4.80969 15.4138 4.81203 15.4169C4.81705 15.4237 4.8243 15.4345 4.83449 15.4482C4.85512 15.4758 4.88639 15.5174 4.92629 15.5702C5.00614 15.676 5.12173 15.8281 5.26418 16.0107C5.55027 16.3773 5.93999 16.8631 6.35891 17.3456C6.57254 17.5917 6.78921 17.8311 6.99953 18.0507V4.0009C6.99953 3.44865 7.4473 3.00096 7.99953 3.0009ZM17.9995 13.0009C19.6564 13.0009 20.9995 14.344 20.9995 16.0009V18.0009C20.9995 19.6578 19.6564 21.0009 17.9995 21.0009C16.3427 21.0008 14.9995 19.6577 14.9995 18.0009V16.0009C14.9995 14.3441 16.3427 13.001 17.9995 13.0009ZM17.9995 15.0009C17.4473 15.001 16.9995 15.4487 16.9995 16.0009V18.0009C16.9995 18.5531 17.4473 19.0008 17.9995 19.0009C18.5518 19.0009 18.9995 18.5532 18.9995 18.0009V16.0009C18.9995 15.4486 18.5518 15.0009 17.9995 15.0009ZM16.7407 3.23527C17.0056 3.09093 17.507 2.87385 18.0601 3.09367L18.1714 3.14348L18.2779 3.20305C18.7837 3.51399 18.9109 4.04358 18.9546 4.34172C19.0023 4.66767 18.9995 5.08561 18.9995 5.48918V9.0009H19.9995C20.5518 9.0009 20.9995 9.44861 20.9995 10.0009C20.9995 10.5532 20.5518 11.0009 19.9995 11.0009H15.9995C15.4473 11.0008 14.9995 10.5531 14.9995 10.0009C14.9995 9.44865 15.4473 9.00096 15.9995 9.0009H16.9995V5.48918C16.9995 5.48805 16.9986 5.48641 16.9986 5.48527L16.6001 5.78703C16.1589 6.11831 15.5326 6.02958 15.2007 5.58879C14.8688 5.14743 14.9577 4.52036 15.3989 4.1884L15.7984 3.88762C16.12 3.6457 16.4517 3.39285 16.7407 3.23527Z" fill="currentColor" fill-rule="evenodd" clip-rule="evenodd"/></svg>
