<svg xmlns="http://www.w3.org/2000/svg" viewBox="0 0 24 24" fill="none"><path opacity="0.4" d="M2 11.9999C2 9.4394 2.964 7.10147 4.54688 5.33295C4.91523 4.92162 5.54753 4.88656 5.95898 5.25483C6.37026 5.62315 6.40527 6.25548 6.03711 6.66693C4.76974 8.08295 4 9.95036 4 11.9999C4 16.4182 7.58172 19.9999 12 19.9999C16.4183 19.9999 20 16.4182 20 11.9999C20 9.95036 19.2303 8.08295 17.9629 6.66693C17.5947 6.25548 17.6297 5.62315 18.041 5.25483C18.4525 4.88656 19.0848 4.92162 19.4531 5.33295C21.036 7.10147 22 9.4394 22 11.9999C22 17.5228 17.5228 21.9999 12 21.9999C6.47715 21.9999 2 17.5228 2 11.9999Z" fill="currentColor"/><path d="M11 12V3C11 2.44772 11.4477 2 12 2C12.5523 2 13 2.44772 13 3V12C13 12.5523 12.5523 13 12 13C11.4477 13 11 12.5523 11 12Z" fill="currentColor"/></svg>
