<svg xmlns="http://www.w3.org/2000/svg" viewBox="0 0 24 24" fill="none"><path opacity="0.4" d="M22.7474 15.9387V15.876L22.7523 9.85846V9.79341C22.7524 8.43061 22.7524 7.33064 22.6361 6.46588C22.5151 5.56579 22.2556 4.80802 21.6537 4.20612C20.8382 3.3907 19.723 3.19759 18.3207 3.13776L16.5277 1.34479C16.4223 1.23941 16.2889 1.16859 16.1449 1.13971L15.9974 1.12506H7.99744C7.84828 1.12506 7.70372 1.16951 7.58142 1.25104L7.46716 1.34479L5.67322 3.13776C4.27585 3.1981 3.16437 3.39286 2.35095 4.20612C1.74906 4.80801 1.48955 5.56581 1.36853 6.46588C1.25227 7.33065 1.25229 8.42967 1.25232 9.79245L1.25232 9.85748L1.24744 15.8751V15.9383C1.24741 17.3018 1.24739 18.4015 1.36365 19.2667C1.48467 20.1668 1.74415 20.9255 2.34607 21.5274C2.94793 22.1291 3.70591 22.3879 4.60584 22.5089C5.47072 22.6251 6.56982 22.6251 7.93282 22.6251H7.99744H15.9974H16.0621C17.4251 22.6251 18.5242 22.6251 19.389 22.5089C20.289 22.3879 21.0469 22.1291 21.6488 21.5274C22.2507 20.9255 22.5102 20.1668 22.6312 19.2667C22.7475 18.4016 22.7475 17.3021 22.7474 15.9387Z" fill="currentColor"/><path d="M14.1273 21.1251H9.86951L11.1449 12.6251H12.8519L14.1273 21.1251Z" fill="currentColor"/><path d="M10.6918 9.69147C11.0837 9.28897 11.5123 8.74113 11.9984 8.10651C12.4845 8.74113 12.9131 9.28897 13.3051 9.69147C13.4003 9.7893 13.5025 9.88496 13.6078 9.9776L13.0345 11.1251H10.9623L10.3881 9.9776C10.4936 9.88482 10.5963 9.78947 10.6918 9.69147Z" fill="currentColor"/><path d="M7.43884 5.89752L6.85291 4.08014L7.93591 2.99811L11.0453 6.88483C10.4519 7.66288 10.006 8.24569 9.61658 8.64557C9.13117 9.14393 8.95173 9.12736 8.91052 9.12018C8.83264 9.10656 8.66248 9.05282 8.38611 8.49713C8.17944 8.08152 7.97406 7.51046 7.71619 6.73834L7.43884 5.89752Z" fill="currentColor"/><path d="M14.3802 8.64557C13.9907 8.24561 13.5441 7.66311 12.9506 6.88483L16.0609 2.99811L17.1429 4.08014L16.558 5.89752C16.16 7.11272 15.8863 7.94304 15.6107 8.49713C15.3343 9.05282 15.1642 9.10656 15.0863 9.12018C15.0451 9.12736 14.8657 9.14393 14.3802 8.64557Z" fill="currentColor"/><path d="M14.4379 2.62506L11.9984 5.67389L9.55896 2.62506H14.4379Z" fill="currentColor"/></svg>
