<svg xmlns="http://www.w3.org/2000/svg" viewBox="0 0 24 24" fill="none"><path d="M15.9974 1.12506L16.1449 1.13971C16.2889 1.16859 16.4223 1.23941 16.5277 1.34479L18.3207 3.13776C19.723 3.19759 20.8382 3.3907 21.6537 4.20612C22.2556 4.80802 22.5151 5.56579 22.6361 6.46588C22.7524 7.33056 22.7523 8.43041 22.7523 9.79303V9.85846L22.7474 15.876V15.9385C22.7475 17.302 22.7475 18.4016 22.6312 19.2667C22.5102 20.1668 22.2507 20.9255 21.6488 21.5274C21.0469 22.1291 20.289 22.3879 19.389 22.5089C18.5242 22.6251 17.4249 22.6251 16.0619 22.6251H7.93298C6.56998 22.6251 5.47072 22.6251 4.60583 22.5089C3.70591 22.3879 2.94793 22.1291 2.34607 21.5274C1.74415 20.9255 1.48466 20.1668 1.36365 19.2667C1.24739 18.4016 1.24741 17.3019 1.24744 15.9385V15.8751L1.25232 9.85748V9.79205C1.25229 8.42946 1.25228 7.33056 1.36853 6.46588C1.48955 5.56581 1.74905 4.80801 2.35095 4.20612C3.16437 3.39286 4.27585 3.1981 5.67322 3.13776L7.46716 1.34479L7.58142 1.25104C7.70372 1.16951 7.84828 1.12506 7.99744 1.12506H15.9974ZM11.1449 12.6251L9.86951 21.1251H14.1273L12.8519 12.6251H11.1449ZM11.9984 8.10651C11.5123 8.74113 11.0837 9.28897 10.6918 9.69147C10.5963 9.78947 10.4936 9.88482 10.3881 9.9776L10.9623 11.1251H13.0345L13.6078 9.9776C13.5025 9.88496 13.4003 9.7893 13.3051 9.69147C12.9131 9.28897 12.4845 8.74113 11.9984 8.10651ZM6.85291 4.08014L7.43884 5.89752L7.71619 6.73834C7.97406 7.51046 8.17944 8.08152 8.38611 8.49713C8.66248 9.05282 8.83264 9.10656 8.91052 9.12018C8.95173 9.12736 9.13117 9.14393 9.61658 8.64557C10.006 8.24569 10.4519 7.66288 11.0453 6.88483L7.93591 2.99811L6.85291 4.08014ZM12.9506 6.88483C13.5441 7.66311 13.9907 8.24561 14.3802 8.64557C14.8657 9.14393 15.0451 9.12736 15.0863 9.12018C15.1642 9.10656 15.3343 9.05282 15.6107 8.49713C15.8863 7.94304 16.16 7.11272 16.558 5.89752L17.1429 4.08014L16.0609 2.99811L12.9506 6.88483ZM9.55896 2.62506L11.9984 5.67389L14.4379 2.62506H9.55896Z" fill="currentColor"/></svg>
