<svg xmlns="http://www.w3.org/2000/svg" viewBox="0 0 24 24" fill="none"><path d="M13.1045 2.01747C13.7854 1.92771 14.3961 2.22021 14.8945 2.53114C15.4426 2.87308 16.0999 3.39951 16.8838 4.02528C17.3987 4.43631 17.8526 4.79678 18.1826 5.12782C18.5228 5.46908 18.8408 5.88306 18.9512 6.43641C19.0182 6.77275 19.0158 7.11933 18.9453 7.45497C18.8293 8.00721 18.5078 8.41804 18.1641 8.75575C17.8306 9.0833 17.3726 9.43904 16.8535 9.84461L14.0937 11.9999L16.8545 14.1571C17.3735 14.5627 17.8306 14.9184 18.1641 15.246C18.5078 15.5837 18.8293 15.9945 18.9453 16.5468C19.0158 16.8824 19.0182 17.229 18.9512 17.5653C18.8408 18.1187 18.5228 18.5326 18.1826 18.8739C17.8526 19.2049 17.3987 19.5654 16.8838 19.9764C16.0999 20.6022 15.4426 21.1286 14.8945 21.4706C14.3629 21.8022 13.7038 22.1134 12.9678 21.9618C12.5525 21.8762 12.1661 21.6847 11.8457 21.4081C11.2819 20.9211 11.1174 20.2147 11.0459 19.5878C10.9721 18.941 10.9736 18.0928 10.9736 17.079V14.4384L6.61523 17.8436C6.18006 18.1835 5.55191 18.1068 5.21191 17.6718C4.87187 17.2366 4.94957 16.6075 5.38476 16.2675L10.8447 12.0009L5.38476 7.73426C4.94957 7.39422 4.87187 6.76516 5.21191 6.32997C5.55191 5.89486 6.18005 5.8182 6.61523 6.15809L10.9736 9.56239V6.92274C10.9736 5.90895 10.9721 5.06072 11.0459 4.41395C11.1174 3.78702 11.2819 3.08059 11.8457 2.59364C12.1662 2.31699 12.5525 2.12555 12.9678 2.03993L13.1045 2.01747ZM12.9736 17.079C12.9736 18.1439 12.9745 18.855 13.0322 19.3612C13.0761 19.7462 13.1407 19.871 13.1572 19.8973C13.2172 19.9481 13.2869 19.9819 13.3603 19.9989C13.3894 19.9954 13.5221 19.9701 13.8359 19.7743C14.2615 19.5088 14.8107 19.0715 15.6357 18.413C16.1882 17.972 16.5357 17.6934 16.7666 17.4618C16.8753 17.3528 16.9313 17.2793 16.9609 17.2323C16.9849 17.1943 16.9886 17.1779 16.9893 17.1747C17.0035 17.1033 17.0032 17.0291 16.9883 16.9579C16.988 16.9567 16.986 16.9408 16.96 16.9003C16.9299 16.8537 16.8726 16.7807 16.7627 16.6727C16.5294 16.4436 16.1799 16.1684 15.623 15.7333L12.9736 13.663V17.079ZM12.9736 10.3378L15.623 8.26844C16.1799 7.83333 16.5294 7.55814 16.7627 7.32899C16.8726 7.22102 16.9299 7.14807 16.96 7.10145C16.986 7.06097 16.988 7.04506 16.9883 7.04383C17.0032 6.97259 17.0035 6.89845 16.9893 6.82704C16.9887 6.82393 16.985 6.80758 16.9609 6.76942C16.9313 6.72245 16.8753 6.64898 16.7666 6.53993C16.5357 6.30828 16.1882 6.02978 15.6357 5.58875C14.8107 4.93019 14.2615 4.49289 13.8359 4.22743C13.5216 4.03138 13.3891 4.0053 13.3603 4.00184C13.287 4.01879 13.2172 4.05281 13.1572 4.1034C13.1824 4.07896 13.0896 4.13775 13.0322 4.64051C12.9745 5.1467 12.9736 5.8578 12.9736 6.92274V10.3378Z" fill="currentColor"/><path d="M5.35254 11.0057C5.85667 11.0571 6.25 11.4832 6.25 12.0009C6.25 12.5531 5.80228 13.0009 5.25 13.0009C4.69772 13.0009 4.25 12.5531 4.25 12.0009C4.25 11.4486 4.69771 11.0009 5.25 11.0009L5.35254 11.0057ZM18.75 11.0009C19.3023 11.0009 19.75 11.4486 19.75 12.0009C19.75 12.5531 19.3023 13.0009 18.75 13.0009C18.1977 13.0009 17.75 12.5531 17.75 12.0009C17.75 11.4486 18.1977 11.0009 18.75 11.0009Z" fill="currentColor"/></svg>
