<svg xmlns="http://www.w3.org/2000/svg" viewBox="0 0 24 24" fill="none"><path d="M19 9.75C21.0711 9.75 22.75 8.07107 22.75 6C22.75 3.92893 21.0711 2.25 19 2.25C16.9289 2.25 15.25 3.92893 15.25 6C15.25 8.07107 16.9289 9.75 19 9.75Z" fill="currentColor"/><path opacity="0.4" d="M15.6943 2.25C14.6558 3.1662 14 4.5062 14 6C14 8.76142 16.2386 11 19 11C20.4938 11 21.8338 10.3442 22.75 9.30566V11.0547C22.75 12.4222 22.7503 13.5247 22.6338 14.3916C22.5128 15.2917 22.2533 16.0495 21.6514 16.6514C21.0494 17.2533 20.2917 17.5128 19.3916 17.6338C18.5247 17.7503 17.4222 17.75 16.0547 17.75H7.94531C6.57782 17.75 5.47534 17.7503 4.6084 17.6338C3.70829 17.5128 2.95055 17.2533 2.34863 16.6514C1.74672 16.0495 1.48723 15.2917 1.36621 14.3916C1.24968 13.5247 1.24998 12.4222 1.25 11.0547V8.94531C1.24998 7.57783 1.24968 6.47533 1.36621 5.6084C1.48723 4.70829 1.74672 3.95055 2.34863 3.34863C2.95055 2.74672 3.70829 2.48723 4.6084 2.36621C5.47533 2.24968 6.57783 2.24998 7.94531 2.25H15.6943Z" fill="currentColor"/><path d="M13.5 19.25C13.5 19.5261 13.7239 19.75 14 19.75H16C16.5523 19.75 17 20.1977 17 20.75C17 21.3023 16.5523 21.75 16 21.75H8C7.44772 21.75 7 21.3023 7 20.75C7 20.1977 7.44772 19.75 8 19.75H10C10.2761 19.75 10.5 19.5261 10.5 19.25V17.75H13.5V19.25Z" fill="currentColor"/></svg>
