<svg xmlns="http://www.w3.org/2000/svg" viewBox="0 0 24 24" fill="none"><path d="M10.4995 16.75C10.4995 16.1977 10.9472 15.75 11.4995 15.75H12.4995C13.0518 15.75 13.4995 16.1977 13.4995 16.75V19.25C13.4995 19.5261 13.7234 19.75 13.9995 19.75H15.9995C16.5518 19.75 16.9995 20.1977 16.9995 20.75C16.9995 21.3023 16.5518 21.75 15.9995 21.75H7.99951C7.44723 21.75 6.99951 21.3023 6.99951 20.75C6.99951 20.1977 7.44723 19.75 7.99951 19.75H9.99951C10.2757 19.75 10.4995 19.5261 10.4995 19.25V16.75Z" fill="currentColor" fill-rule="evenodd" clip-rule="evenodd"/><path d="M18.9995 9.75C21.0706 9.75 22.7495 8.07107 22.7495 6C22.7495 3.92893 21.0706 2.25 18.9995 2.25C16.9284 2.25 15.2495 3.92893 15.2495 6C15.2495 8.07107 16.9284 9.75 18.9995 9.75Z" fill="currentColor"/><path d="M15.6938 2.25C14.6553 3.1662 13.9995 4.5062 13.9995 6C13.9995 8.76142 16.2381 11 18.9995 11C20.4933 11 21.8333 10.3442 22.7495 9.30566V11.0547C22.7495 12.4222 22.7498 13.5247 22.6333 14.3916C22.5123 15.2917 22.2528 16.0495 21.6509 16.6514C21.049 17.2533 20.2912 17.5128 19.3911 17.6338C18.5242 17.7503 17.4217 17.75 16.0542 17.75H7.94482C6.57733 17.75 5.47485 17.7503 4.60791 17.6338C3.7078 17.5128 2.95006 17.2533 2.34815 16.6514C1.74623 16.0495 1.48674 15.2917 1.36572 14.3916C1.24919 13.5247 1.24949 12.4222 1.24951 11.0547V8.94531C1.24949 7.57783 1.24919 6.47533 1.36572 5.6084C1.48674 4.70829 1.74623 3.95055 2.34815 3.34863C2.95006 2.74672 3.7078 2.48723 4.60791 2.36621C5.47485 2.24968 6.57734 2.24998 7.94482 2.25H15.6938Z" fill="currentColor"/></svg>
