<svg xmlns="http://www.w3.org/2000/svg" fill="none" viewBox="0 0 48 48">
  <g>
    <path fill="#8fbffa" d="M10.4197 28.9382c-2.97747 1.4905 -5.09984 2.7705 -6.46897 3.6706 -1.04368 0.6861 -1.04368 2.0968 0 2.7829 1.60007 1.0519 4.2289 2.6228 8.04907 4.4419 4.8725 2.3202 8.776 3.4292 10.6986 3.8889 0.8586 0.2053 1.7441 0.2053 2.6027 0 1.9226 -0.4597 5.8261 -1.5687 10.6987 -3.8889 3.8201 -1.8191 6.4489 -3.39 8.049 -4.4419 1.0437 -0.6861 1.0437 -2.0968 0 -2.7829 -1.3692 -0.9001 -3.4915 -2.1801 -6.4689 -3.6706 -0.5023 0.2514 -1.0288 0.5088 -1.5801 0.7714 -4.8726 2.3202 -8.7761 3.4292 -10.6987 3.8889 -0.8586 0.2053 -1.7441 0.2053 -2.6027 0 -1.9226 -0.4597 -5.8261 -1.5687 -10.6986 -3.8889 -0.5514 -0.2626 -1.0779 -0.52 -1.5801 -0.7714Z" stroke-width="1"></path>
    <path fill="#8fbffa" d="M22.6984 4.27801c0.8586 -0.20531 1.7441 -0.20531 2.6027 0 1.9226 0.45975 5.8261 1.5687 10.6987 3.88895 3.8201 1.8191 6.4489 3.39004 8.049 4.44184 1.0437 0.6861 1.0437 2.0969 0 2.7829 -1.6001 1.0519 -4.2289 2.6228 -8.049 4.4419 -4.8726 2.3203 -8.7761 3.4292 -10.6987 3.889 -0.8586 0.2053 -1.7441 0.2053 -2.6027 0 -1.9226 -0.4598 -5.8261 -1.5687 -10.6986 -3.889 -3.82017 -1.8191 -6.449 -3.39 -8.04907 -4.4419 -1.04368 -0.686 -1.04368 -2.0968 0 -2.7829 1.60007 -1.0518 4.2289 -2.62274 8.04907 -4.44184 4.8725 -2.32025 8.776 -3.4292 10.6986 -3.88895Z" stroke-width="1"></path>
    <path fill="currentColor" fill-opacity="0.4" d="M10.1729 18.9382c-2.84829 1.4374 -4.89116 2.6716 -6.22217 3.5466 -1.04368 0.6861 -1.04368 2.0968 0 2.7829 1.60007 1.0518 4.2289 2.6227 8.04907 4.4419 4.8725 2.3202 8.776 3.4292 10.6986 3.8889 0.8586 0.2053 1.7441 0.2053 2.6027 0 1.9226 -0.4597 5.8261 -1.5687 10.6987 -3.8889 3.8201 -1.8192 6.4489 -3.3901 8.049 -4.4419 1.0437 -0.6861 1.0437 -2.0968 0 -2.7829 -1.331 -0.875 -3.3739 -2.1092 -6.2222 -3.5466 -0.5758 0.2906 -1.1845 0.5895 -1.8268 0.8954 -4.8726 2.3202 -8.7761 3.4292 -10.6987 3.8889 -0.8586 0.2053 -1.7441 0.2053 -2.6027 0 -1.9226 -0.4597 -5.8261 -1.5687 -10.6986 -3.8889 -0.6424 -0.3059 -1.2511 -0.6048 -1.8269 -0.8954Z" stroke-width="1"></path>
    <path stroke="currentColor" stroke-linecap="round" stroke-linejoin="round" d="M42 31.335c0.8118 0.4798 1.4925 0.9082 2.0488 1.2739 1.0437 0.6861 1.0437 2.0968 0 2.7829 -1.6001 1.0519 -4.2289 2.6228 -8.049 4.4419 -4.8726 2.3202 -8.7761 3.4292 -10.6987 3.8889 -0.8586 0.2053 -1.7441 0.2053 -2.6027 0 -1.9226 -0.4597 -5.8261 -1.5687 -10.6986 -3.8889 -3.82017 -1.8191 -6.449 -3.39 -8.04907 -4.4419 -1.04368 -0.6861 -1.04368 -2.0968 0 -2.7829 0.5563 -0.3657 1.23695 -0.7941 2.04878 -1.2739" stroke-width="1"></path>
    <path stroke="currentColor" stroke-linecap="round" stroke-linejoin="round" d="M42 21.2109c0.8118 0.4798 1.4925 0.9083 2.0488 1.274 1.0437 0.6861 1.0437 2.0968 0 2.7829 -1.6001 1.0518 -4.2289 2.6228 -8.049 4.4419 -4.8726 2.3202 -8.7761 3.4292 -10.6987 3.8889 -0.8586 0.2053 -1.7441 0.2053 -2.6027 0 -1.9226 -0.4597 -5.8261 -1.5687 -10.6986 -3.8889 -3.82017 -1.8191 -6.449 -3.3901 -8.04907 -4.4419 -1.04368 -0.6861 -1.04368 -2.0968 0 -2.7829 0.5563 -0.3657 1.23695 -0.7942 2.04878 -1.274" stroke-width="1"></path>
    <path stroke="currentColor" stroke-linecap="round" stroke-linejoin="round" d="M22.6984 4.27801c0.8586 -0.20531 1.7441 -0.20531 2.6027 0 1.9226 0.45975 5.8261 1.5687 10.6987 3.88895 3.8201 1.8191 6.4489 3.39004 8.049 4.44184 1.0437 0.6861 1.0437 2.0969 0 2.7829 -1.6001 1.0519 -4.2289 2.6228 -8.049 4.4419 -4.8726 2.3203 -8.7761 3.4292 -10.6987 3.889 -0.8586 0.2053 -1.7441 0.2053 -2.6027 0 -1.9226 -0.4598 -5.8261 -1.5687 -10.6986 -3.889 -3.82017 -1.8191 -6.449 -3.39 -8.04907 -4.4419 -1.04368 -0.686 -1.04368 -2.0968 0 -2.7829 1.60007 -1.0518 4.2289 -2.62274 8.04907 -4.44184 4.8725 -2.32025 8.776 -3.4292 10.6986 -3.88895Z" stroke-width="1"></path>
  </g>
</svg>
