<svg xmlns="http://www.w3.org/2000/svg" fill="none" viewBox="0 0 48 48">
  <g>
    <path fill="currentColor" fill-opacity="0.4" d="M25.6499 22.8182c-1.0879 -0.2602 -2.2124 -0.2602 -3.3003 0 -2.0047 0.4793 -6.0105 1.62 -10.9947 3.9935 -3.88186 1.8485 -6.57054 3.4531 -8.22814 4.5427 -1.94505 1.2787 -1.94506 4.0112 0 5.2898 1.6576 1.0897 4.34628 2.6943 8.22814 4.5427 4.9842 2.3735 8.99 3.5142 10.9947 3.9936 1.0879 0.2601 2.2124 0.2601 3.3003 0 2.0047 -0.4794 6.0105 -1.6201 10.9948 -3.9936 3.8818 -1.8484 6.5704 -3.453 8.228 -4.5427 1.9451 -1.2786 1.9451 -4.0111 0 -5.2898 -1.6576 -1.0896 -4.3462 -2.6942 -8.228 -4.5427 -4.9843 -2.3735 -8.9901 -3.5142 -10.9948 -3.9935Z" stroke-width="1"></path>
    <path fill="currentColor" d="M25.6499 12.8182c-1.0879 -0.2602 -2.2124 -0.2602 -3.3003 0 -2.0047 0.4793 -6.0105 1.62 -10.9947 3.9935 -3.88186 1.8485 -6.57054 3.4531 -8.22814 4.5427 -1.94505 1.2787 -1.94506 4.0112 0 5.2898 1.6576 1.0897 4.34628 2.6943 8.22814 4.5427 4.9842 2.3735 8.99 3.5142 10.9947 3.9936 1.0879 0.2601 2.2124 0.2601 3.3003 0 2.0047 -0.4794 6.0105 -1.6201 10.9948 -3.9936 3.8818 -1.8484 6.5704 -3.453 8.228 -4.5427 1.9451 -1.2786 1.9451 -4.0111 0 -5.2898 -1.6576 -1.0896 -4.3462 -2.6942 -8.228 -4.5427 -4.9843 -2.3735 -8.9901 -3.5142 -10.9948 -3.9935Z" stroke-width="1"></path>
    <path fill="currentColor" fill-opacity="0.4" d="M25.6499 2.81816c-1.0879 -0.26015 -2.2124 -0.26015 -3.3003 0 -2.0047 0.47936 -6.0105 1.62009 -10.9947 3.99353 -3.88186 1.84848 -6.57054 3.45311 -8.22814 4.54271 -1.94505 1.2787 -1.94506 4.0112 0 5.2898 1.6576 1.0897 4.34628 2.6943 8.22814 4.5427 4.9842 2.3735 8.99 3.5142 10.9947 3.9936 1.0879 0.2601 2.2124 0.2601 3.3003 0 2.0047 -0.4794 6.0105 -1.6201 10.9948 -3.9936 3.8818 -1.8484 6.5704 -3.453 8.228 -4.5427 1.9451 -1.2786 1.9451 -4.0111 0 -5.2898 -1.6576 -1.0896 -4.3462 -2.69423 -8.228 -4.54271 -4.9843 -2.37345 -8.9901 -3.51417 -10.9948 -3.99353Z" stroke-width="1"></path>
  </g>
</svg>
