<svg xmlns="http://www.w3.org/2000/svg" viewBox="0 0 24 24" fill="none"><path d="M20.9995 9.09082C21.2432 9.14977 21.4818 9.23024 21.7085 9.375C22.0898 9.6186 22.3892 9.97158 22.5669 10.3877C22.6724 10.635 22.7128 10.8838 22.731 11.1338C22.7484 11.3749 22.7476 11.6657 22.7476 12C22.7476 12.3343 22.7484 12.6251 22.731 12.8662C22.7129 13.1162 22.6724 13.365 22.5669 13.6123C22.3893 14.0284 22.0897 14.3814 21.7085 14.625C21.4819 14.7698 21.2431 14.8502 20.9995 14.9092C20.9799 14.9139 20.9593 14.9163 20.939 14.9209C21.0036 14.0677 21.0024 13.0774 21.0024 12C21.0024 10.9222 21.0036 9.93158 20.939 9.07812C20.9594 9.08277 20.9798 9.08606 20.9995 9.09082Z" fill="currentColor"/><path opacity="0.3" d="M19.7524 12.0644V12V11.9356C19.7525 10.5725 19.7525 9.47332 19.6362 8.6084C19.5152 7.70829 19.2557 6.95055 18.6538 6.34863C18.0519 5.74672 17.2942 5.48723 16.394 5.36621C15.5291 5.24995 14.4299 5.24997 13.0668 5.25H13.0024H8.00244H7.93806C6.57496 5.24997 5.47577 5.24995 4.61084 5.36621C3.71073 5.48723 2.95299 5.74672 2.35108 6.34863C1.74916 6.95055 1.48967 7.70829 1.36865 8.6084C1.25239 9.47333 1.25241 10.5725 1.25244 11.9356V12V12.0644C1.25241 13.4275 1.25239 14.5267 1.36865 15.3916C1.48967 16.2917 1.74916 17.0495 2.35108 17.6514C2.95299 18.2533 3.71073 18.5128 4.61084 18.6338C5.47576 18.7501 6.57494 18.75 7.93801 18.75H8.00244H13.0024H13.0669C14.4299 18.75 15.5291 18.7501 16.394 18.6338C17.2942 18.5128 18.0519 18.2533 18.6538 17.6514C19.2557 17.0495 19.5152 16.2917 19.6362 15.3916C19.7525 14.5267 19.7525 13.4275 19.7524 12.0644Z" fill="currentColor"/><path d="M9.49744 12V8C9.49744 7.44772 9.94515 7 10.4974 7C11.0497 7 11.4974 7.44772 11.4974 8V12C11.4974 12.5523 11.0497 13 10.4974 13C9.94515 13 9.49744 12.5523 9.49744 12Z" fill="currentColor"/><path d="M10.4974 14.75C11.0497 14.75 11.4974 15.1977 11.4974 15.75C11.4974 16.3023 11.0497 16.75 10.4974 16.75C9.94515 16.75 9.49744 16.3023 9.49744 15.75C9.49744 15.1977 9.94515 14.75 10.4974 14.75Z" fill="currentColor"/></svg>
