<svg xmlns="http://www.w3.org/2000/svg" viewBox="0 0 24 24" fill="none"><path d="M20.999 9.09082C21.2427 9.14977 21.4814 9.23024 21.708 9.375C22.0893 9.6186 22.3888 9.97158 22.5664 10.3877C22.6719 10.635 22.7124 10.8838 22.7305 11.1338C22.7479 11.3749 22.7471 11.6657 22.7471 12C22.7471 12.3343 22.7479 12.6251 22.7305 12.8662C22.7124 13.1162 22.6719 13.365 22.5664 13.6123C22.3888 14.0284 22.0893 14.3814 21.708 14.625C21.4814 14.7698 21.2426 14.8502 20.999 14.9092C20.9794 14.9139 20.9588 14.9163 20.9385 14.9209C21.0031 14.0677 21.002 13.0774 21.002 12C21.002 10.9222 21.0032 9.93158 20.9385 9.07812C20.9589 9.08277 20.9793 9.08606 20.999 9.09082Z" fill="currentColor"/><path d="M13.0664 5.25C14.4295 5.24997 15.5286 5.24995 16.3936 5.36621C17.2937 5.48723 18.0514 5.74672 18.6533 6.34863C19.2552 6.95055 19.5147 7.70829 19.6357 8.6084C19.752 9.47331 19.752 10.5725 19.752 11.9355V12.0645C19.752 13.4275 19.752 14.5267 19.6357 15.3916C19.5147 16.2917 19.2552 17.0495 18.6533 17.6514C18.0514 18.2533 17.2937 18.5128 16.3936 18.6338C15.5286 18.7501 14.4295 18.75 13.0664 18.75H7.9375C6.57444 18.75 5.47526 18.7501 4.61035 18.6338C3.71024 18.5128 2.9525 18.2533 2.35059 17.6514C1.74867 17.0495 1.48918 16.2917 1.36816 15.3916C1.2519 14.5267 1.25192 13.4275 1.25195 12.0645V11.9355C1.25192 10.5725 1.2519 9.47331 1.36816 8.6084C1.48918 7.70829 1.74867 6.95055 2.35059 6.34863C2.9525 5.74672 3.71024 5.48723 4.61035 5.36621C5.47526 5.24995 6.57444 5.24997 7.9375 5.25H13.0664ZM10.4971 14.75C9.94478 14.75 9.49707 15.1977 9.49707 15.75C9.49707 16.3023 9.94479 16.75 10.4971 16.75C11.0493 16.7499 11.4971 16.3022 11.4971 15.75C11.4971 15.1978 11.0493 14.7501 10.4971 14.75ZM10.4971 7C9.94479 7 9.49707 7.44772 9.49707 8V12C9.49707 12.5523 9.94479 13 10.4971 13C11.0493 12.9999 11.4971 12.5522 11.4971 12V8C11.4971 7.44776 11.0493 7.00007 10.4971 7Z" fill="currentColor"/></svg>
