<svg xmlns="http://www.w3.org/2000/svg" viewBox="0 0 24 24" fill="none"><path d="M13.9996 17.75C14.9661 17.75 15.7496 16.9665 15.7496 16V15C15.7496 14.0335 14.9661 13.25 13.9996 13.25H7.99963C7.03314 13.25 6.24963 14.0335 6.24963 15V16C6.24963 16.9665 7.03314 17.75 7.99963 17.75H13.9996Z" fill="currentColor"/><path d="M17.9996 10.75C18.9661 10.75 19.7496 9.9665 19.7496 9V8C19.7496 7.0335 18.9661 6.25 17.9996 6.25H7.99963C7.03314 6.25 6.24963 7.0335 6.24963 8V9C6.24963 9.9665 7.03314 10.75 7.99963 10.75H17.9996Z" fill="currentColor"/><path d="M1.99964 13V3C1.99964 2.44772 2.44735 2 2.99964 2C3.55192 2 3.99964 2.44772 3.99964 3V13C3.99964 14.9139 4.00192 16.2487 4.13733 17.2559C4.26887 18.2342 4.50953 18.7521 4.87854 19.1211C5.24755 19.4901 5.76544 19.7308 6.74378 19.8623C7.75091 19.9977 9.08575 20 10.9996 20H20.9996C21.5519 20 21.9996 20.4477 21.9996 21C21.9996 21.5523 21.5519 22 20.9996 22H10.9996C9.14229 22 7.64855 22.0022 6.47717 21.8447C5.27708 21.6834 4.26701 21.3377 3.46448 20.5352C2.66195 19.7326 2.31627 18.7226 2.15491 17.5225C1.99742 16.3511 1.99964 14.8573 1.99964 13Z" fill="currentColor"/></svg>
