<svg xmlns="http://www.w3.org/2000/svg" viewBox="0 0 24 24" fill="none"><path d="M15.0156 3.25C16.5618 3.24996 17.8218 3.24992 18.8154 3.38281C19.8551 3.52191 20.7492 3.82322 21.4619 4.53223C22.1743 5.24113 22.4764 6.13003 22.6162 7.16406C22.7501 8.15458 22.75 9.41076 22.75 10.9531V13.0469C22.75 14.5892 22.7501 15.8454 22.6162 16.8359C22.4764 17.87 22.1743 18.7589 21.4619 19.4678C20.7492 20.1768 19.8551 20.4781 18.8154 20.6172C17.8218 20.7501 16.5618 20.75 15.0156 20.75H8.98438C7.43822 20.75 6.17825 20.7501 5.18457 20.6172C4.14488 20.4781 3.25078 20.1768 2.53809 19.4678C1.82573 18.7589 1.52359 17.87 1.38379 16.8359C1.24994 15.8454 1.24997 14.5892 1.25 13.0469V10.9531C1.24997 9.41076 1.24994 8.15458 1.38379 7.16406C1.52359 6.13003 1.82573 5.24113 2.53809 4.53223C3.25078 3.82322 4.14488 3.52191 5.18457 3.38281C6.17824 3.24992 7.43824 3.24996 8.98438 3.25H15.0156ZM3.24805 8.25C3.20727 8.97718 3.20508 9.87642 3.20508 11.0273V12.9727C3.20508 14.6038 3.20787 15.7295 3.32227 16.5762C3.43292 17.3949 3.63186 17.8062 3.9209 18.0938C4.20996 18.3813 4.6233 18.5794 5.44629 18.6895C6.29745 18.8033 7.42941 18.8057 9.06934 18.8057H14.9326C16.5725 18.8057 17.7045 18.8033 18.5557 18.6895C19.3787 18.5794 19.792 18.3813 20.0811 18.0938C20.3701 17.8062 20.569 17.3949 20.6797 16.5762C20.7941 15.7295 20.7969 14.6038 20.7969 12.9727V11.0273C20.7969 9.87642 20.7947 8.97718 20.7539 8.25H3.24805Z" fill="currentColor" fill-rule="evenodd" clip-rule="evenodd"/><path d="M16 14.5275C16.5523 14.5275 17 14.9752 17 15.5275C17 16.0798 16.5523 16.5275 16 16.5275H12C11.4477 16.5275 11 16.0798 11 15.5275C11 14.9752 11.4477 14.5275 12 14.5275H16Z" fill="currentColor"/><path d="M6.24256 10.8745C6.60315 10.4563 7.23538 10.4095 7.65369 10.77L8.88025 11.8276C9.11571 12.0306 9.37165 12.2483 9.55604 12.4565C9.75371 12.6799 10.0004 13.0345 10.0004 13.5278C10.0004 14.0212 9.75371 14.3758 9.55604 14.5991C9.37165 14.8074 9.11571 15.0251 8.88025 15.228L7.65369 16.2857C7.23538 16.6462 6.60315 16.5994 6.24256 16.1812C5.88201 15.7628 5.92879 15.1306 6.34705 14.77L7.57361 13.7134C7.65458 13.6436 7.72384 13.5819 7.78553 13.5278C7.72384 13.4738 7.65458 13.4121 7.57361 13.3423L6.34705 12.2857C5.92879 11.9251 5.88201 11.2928 6.24256 10.8745Z" fill="currentColor"/></svg>
