<svg xmlns="http://www.w3.org/2000/svg" viewBox="0 0 24 24" fill="none"><path d="M12 1.25C12.8796 1.25 13.2421 2.15541 12.9902 2.77148C12.8357 3.14952 12.75 3.5638 12.75 4C12.75 5.79493 14.2051 7.25 16 7.25C16.4463 7.25 16.8698 7.16041 17.2549 6.99902C17.6381 6.83837 18.0196 6.93907 18.2725 7.1123C18.5247 7.28508 18.75 7.59735 18.75 8C18.75 9.24264 19.7574 10.25 21 10.25C21.0858 10.25 21.1702 10.2456 21.2529 10.2363C21.8612 10.1684 22.6882 10.5512 22.7344 11.4229C22.7445 11.614 22.75 11.8064 22.75 12C22.75 17.9371 17.9371 22.75 12 22.75C6.06294 22.75 1.25 17.9371 1.25 12C1.25 6.06294 6.06294 1.25 12 1.25ZM15.5264 14.4619C14.403 13.9288 13.0709 14.4451 12.5098 15.5283C11.9409 16.6266 12.3268 17.9977 13.4717 18.541C14.595 19.0741 15.927 18.5576 16.4883 17.4746C17.0572 16.3764 16.671 15.0054 15.5264 14.4619ZM13.8418 16.2178C14.06 15.7971 14.5445 15.6568 14.8828 15.8174C15.1996 15.9678 15.3665 16.3784 15.1562 16.7842C14.9382 17.2051 14.4536 17.346 14.1152 17.1855C13.7983 17.0351 13.6315 16.6237 13.8418 16.2178ZM7.99902 15C7.44674 15 6.99902 15.4477 6.99902 16C6.99902 16.5523 7.44674 17 7.99902 17H8.00781C8.5601 17 9.00781 16.5523 9.00781 16C9.00781 15.4477 8.5601 15 8.00781 15H7.99902ZM8.69238 7.4707C8.06509 7.12128 7.37589 7.22089 6.83105 7.5293C6.29182 7.83472 5.84459 8.36103 5.5625 9C5.27969 9.64076 5.18785 10.3354 5.29004 10.9551C5.39069 11.5649 5.70071 12.1911 6.30762 12.5293C6.93511 12.8788 7.625 12.7793 8.16992 12.4707C8.70907 12.1652 9.15549 11.6389 9.4375 11C9.72026 10.3593 9.81212 9.66549 9.70996 9.0459C9.60936 8.43584 9.29957 7.80896 8.69238 7.4707ZM13.999 10C13.4467 10 12.999 10.4477 12.999 11C12.999 11.5523 13.4467 12 13.999 12H14.0078C14.5601 12 15.0078 11.5523 15.0078 11C15.0078 10.4477 14.5601 10 14.0078 10H13.999ZM7.57031 8.83496C7.7771 8.71794 7.89838 8.74597 7.96191 8.78125C8.04567 8.8279 8.17665 8.9696 8.22949 9.29004C8.28073 9.60089 8.23942 10.0003 8.06543 10.3945C7.89074 10.7903 7.64348 11.0454 7.43066 11.166C7.22343 11.2834 7.10159 11.2541 7.03809 11.2188C6.95436 11.1721 6.82339 11.0311 6.77051 10.7109C6.71926 10.4002 6.76071 10.0006 6.93457 9.60645C7.10931 9.21054 7.35745 8.95553 7.57031 8.83496Z" fill="currentColor"/></svg>
