<svg xmlns="http://www.w3.org/2000/svg" fill="none" viewBox="0 0 48 48">
  <g>
    <path fill="#8fbffa" d="M29.6194 30.0903c1.2025 0.0959 2.0524 0.9709 2.1671 2.1717C31.8982 33.4308 32 35.2502 32 38c0 2.7498 -0.1018 4.5692 -0.2135 5.738 -0.1147 1.2008 -0.9646 2.0758 -2.1671 2.1717C28.9649 45.9618 28.1077 46 27 46c-1.1077 0 -1.9649 -0.0382 -2.6194 -0.0903 -1.2025 -0.0959 -2.0524 -0.9709 -2.1671 -2.1717C22.1018 42.5692 22 40.7498 22 38c0 -2.7498 0.1018 -4.5692 0.2135 -5.738 0.1147 -1.2008 0.9646 -2.0758 2.1671 -2.1717C25.0351 30.0382 25.8923 30 27 30c1.1077 0 1.9649 0.0382 2.6194 0.0903Z" stroke-width="1"></path>
    <path fill="currentColor" fill-opacity="0.4" d="M11.0927 5.84992c0.0991 -1.92407 1.4174 -3.31693 3.3372 -3.4788C16.6824 2.1812 20.5275 2 27 2s10.3176 0.1812 12.5701 0.37112c1.9198 0.16187 3.2381 1.55473 3.3372 3.4788C42.961 6.89175 43 8.25072 43 10c0 1.7493 -0.039 3.1083 -0.0927 4.1501 -0.0991 1.9241 -1.4174 3.3169 -3.3372 3.4788C37.3176 17.8188 33.4725 18 27 18s-10.3176 -0.1812 -12.5701 -0.3711c-1.9198 -0.1619 -3.2381 -1.5547 -3.3372 -3.4788C11.039 13.1083 11 11.7493 11 10c0 -1.74928 0.039 -3.10826 0.0927 -4.15008Z" stroke-width="1"></path>
    <path stroke="currentColor" stroke-linecap="round" stroke-linejoin="round" d="m11 11 -3.01765 0c-1.55641 0 -2.85008 1.1891 -2.91449 2.7442 -0.05706 1.3775 -0.09529 3.1397 -0.04329 4.9662 0.05448 1.9138 1.57825 3.4115 3.48512 3.583 3.40591 0.3064 9.04381 0.8178 14.86891 1.3644C25.4318 23.8504 27 25.5749 27 27.6371V30" stroke-width="1"></path>
    <path stroke="currentColor" stroke-linecap="round" stroke-linejoin="round" d="M11.0927 5.84992c0.0991 -1.92407 1.4174 -3.31693 3.3372 -3.4788C16.6824 2.1812 20.5275 2 27 2s10.3176 0.1812 12.5701 0.37112c1.9198 0.16187 3.2381 1.55473 3.3372 3.4788C42.961 6.89175 43 8.25072 43 10c0 1.7493 -0.039 3.1083 -0.0927 4.1501 -0.0991 1.9241 -1.4174 3.3169 -3.3372 3.4788C37.3176 17.8188 33.4725 18 27 18s-10.3176 -0.1812 -12.5701 -0.3711c-1.9198 -0.1619 -3.2381 -1.5547 -3.3372 -3.4788C11.039 13.1083 11 11.7493 11 10c0 -1.74928 0.039 -3.10826 0.0927 -4.15008Z" stroke-width="1"></path>
    <path stroke="currentColor" stroke-linecap="round" stroke-linejoin="round" d="M29.6194 30.0903c1.2025 0.0959 2.0524 0.9709 2.1671 2.1717C31.8982 33.4308 32 35.2502 32 38c0 2.7498 -0.1018 4.5692 -0.2135 5.738 -0.1147 1.2008 -0.9646 2.0758 -2.1671 2.1717C28.9649 45.9618 28.1077 46 27 46c-1.1077 0 -1.9649 -0.0382 -2.6194 -0.0903 -1.2025 -0.0959 -2.0524 -0.9709 -2.1671 -2.1717C22.1018 42.5692 22 40.7498 22 38c0 -2.7498 0.1018 -4.5692 0.2135 -5.738 0.1147 -1.2008 0.9646 -2.0758 2.1671 -2.1717C25.0351 30.0382 25.8923 30 27 30c1.1077 0 1.9649 0.0382 2.6194 0.0903Z" stroke-width="1"></path>
  </g>
</svg>
