<svg xmlns="http://www.w3.org/2000/svg" fill="none" viewBox="0 0 48 48">
  <g>
    <path fill="currentColor" d="M8.5034 7.486h2.9848c0.5604 0 1.0113 0.4602 1.0063 1.0207 -0.0028 0.3125 -0.0043 0.6393 -0.0043 0.981 0 0.3416 0.0015 0.6684 0.0043 0.9809 0.005 0.5605 -0.4459 1.0208 -1.0063 1.0208H8.5034c-0.5347 0 -0.919 0.3997 -0.9374 0.8603 -0.0645 1.6099 -0.1124 3.721 -0.053 5.7985 0.0235 0.8216 0.6829 1.5615 1.6633 1.6497 3.4101 0.3068 9.0556 0.8188 14.8891 1.3662 3.0851 0.2894 5.4393 2.8801 5.4393 5.9757v4.3606c0 0.5727 -0.4797 1.0281 -1.0523 1.0162 -0.2939 -0.006 -0.6099 -0.0094 -0.9494 -0.0094s-0.6556 0.0034 -0.9494 0.0094c-0.5726 0.0119 -1.0523 -0.4435 -1.0523 -1.0162v-4.3606c0 -1.0323 -0.7848 -1.8936 -1.8098 -1.9898 -5.8265 -0.5467 -11.4664 -1.0582 -14.8739 -1.3648 -2.8366 -0.2552 -5.2203 -2.5132 -5.3064 -5.5225 -0.063 -2.2029 -0.0119 -4.4133 0.0546 -6.0732 0.1074 -2.6809 2.3284 -4.7035 4.9376 -4.7035Z" stroke-width="1"></path>
    <path fill="currentColor" fill-opacity="0.4" d="M27.503 0.48c-6.4936 0 -10.3724 0.1817 -12.6649 0.375 -2.4314 0.205 -4.1311 2.0134 -4.2555 4.4276 -0.0547 1.0622 -0.0941 2.4396 -0.0941 4.2051 0 1.7654 0.0394 3.1428 0.0941 4.205 0.1244 2.4143 1.8241 4.2226 4.2555 4.4276 2.2926 0.1934 6.1713 0.375 12.6649 0.375s10.3724 -0.1816 12.6649 -0.375c2.4313 -0.205 4.1311 -2.0133 4.2555 -4.4276 0.0547 -1.0622 0.0941 -2.4396 0.0941 -4.205s-0.0394 -3.1429 -0.0941 -4.2051C44.299 2.8684 42.5992 1.06 40.1679 0.855 37.8754 0.6617 33.9966 0.48 27.503 0.48Z" stroke-width="1"></path>
    <path fill="currentColor" d="M27.503 30.5055c-1.1261 0 -2.0071 0.0363 -2.6894 0.087 -1.7031 0.1268 -2.9463 1.3833 -3.1093 3.0598 -0.1108 1.1394 -0.2064 2.8488 -0.2064 5.3605s0.0956 4.2211 0.2064 5.3604c0.163 1.6766 1.4063 2.933 3.1093 3.0598 0.6823 0.0508 1.5633 0.087 2.6894 0.087s2.0071 -0.0362 2.6894 -0.087c1.703 -0.1268 2.9463 -1.3833 3.1093 -3.0598 0.1108 -1.1393 0.2064 -2.8487 0.2064 -5.3604 0 -2.5117 -0.0956 -4.2211 -0.2064 -5.3605 -0.163 -1.6765 -1.4063 -2.933 -3.1093 -3.0598 -0.6823 -0.0507 -1.5634 -0.087 -2.6894 -0.087Z" stroke-width="1"></path>
  </g>
</svg>
