<svg xmlns="http://www.w3.org/2000/svg" fill="none" viewBox="0 0 48 48">
  <g>
    <path fill="currentColor" fill-rule="evenodd" d="M27 5c-6.4411 0 -10.2256 0.18054 -12.4021 0.36405 -0.9008 0.07596 -1.459 0.64085 -1.5078 1.58878C13.0384 7.95568 13 9.27999 13 11c0 1.72 0.0384 3.0443 0.0901 4.0472 0.0488 0.9479 0.607 1.5128 1.5078 1.5888C16.7744 16.8195 20.5589 17 27 17c6.4411 0 10.2256 -0.1805 12.4021 -0.364 0.9008 -0.076 1.459 -0.6409 1.5078 -1.5888C40.9616 14.0443 41 12.72 41 11c0 -1.72001 -0.0384 -3.04432 -0.0901 -4.04717 -0.0488 -0.94793 -0.607 -1.51282 -1.5078 -1.58878C37.2256 5.18054 33.4411 5 27 5ZM14.2618 1.37819C16.5905 1.18186 20.4962 1 27 1c6.5038 0 10.4095 0.18186 12.7382 0.37819 2.9387 0.24779 5.017 2.46861 5.1664 5.36882C44.9603 7.82781 45 9.22146 45 11c0 1.7785 -0.0397 3.1722 -0.0954 4.253 -0.1494 2.9002 -2.2277 5.121 -5.1664 5.3688C37.4095 20.8181 33.5038 21 27 21c-6.5038 0 -10.4095 -0.1819 -12.7382 -0.3782 -2.9387 -0.2478 -5.01702 -2.4686 -5.16644 -5.3688 -0.0195 -0.3783 -0.03703 -0.795 -0.05158 -1.253H7.98235c-0.53258 0 -0.89815 0.3912 -0.9162 0.827 -0.05581 1.3472 -0.09267 3.0604 -0.04239 4.8265 0.02329 0.8181 0.68293 1.5596 1.66513 1.648 3.40721 0.3065 9.04791 0.8181 14.87651 1.365C26.6478 22.9557 29 25.5442 29 28.6371v1.4114c0.2387 0.0127 0.458 0.0274 0.6591 0.0434 1.4553 0.116 2.4884 1.1913 2.6252 2.6225 0.1135 1.1884 0.2157 3.0241 0.2157 5.7856s-0.1022 4.5972 -0.2157 5.7856c-0.1368 1.4312 -1.1699 2.5065 -2.6252 2.6225C28.9896 46.9615 28.119 47 27 47s-1.9896 -0.0385 -2.6591 -0.0919c-1.4553 -0.116 -2.4884 -1.1913 -2.6252 -2.6225 -0.1135 -1.1884 -0.2157 -3.0241 -0.2157 -5.7856s0.1022 -4.5972 0.2157 -5.7856c0.1368 -1.4312 1.1699 -2.5065 2.6252 -2.6225 0.2011 -0.016 0.4204 -0.0307 0.6591 -0.0434v-1.4114c0 -1.0314 -0.7841 -1.892 -1.8082 -1.9881 -5.8216 -0.5462 -11.4567 -1.0573 -14.86131 -1.3636 -2.83153 -0.2547 -5.21944 -2.5087 -5.30511 -5.5181 -0.05372 -1.8869 -0.01412 -3.6981 0.04419 -5.1059C3.18035 11.987 5.40211 10 7.98235 10h1.02202c0.01176 -1.31176 0.04619 -2.38359 0.09099 -3.25299 0.14942 -2.90022 2.22774 -5.12103 5.16644 -5.36882Z" clip-rule="evenodd" stroke-width="1"></path>
  </g>
</svg>
