<svg xmlns="http://www.w3.org/2000/svg" fill="none" viewBox="0 0 48 48">
  <g>
    <path fill="currentColor" fill-rule="evenodd" d="M27.503 0.48c-6.4936 0 -10.3724 0.1817 -12.6649 0.375 -2.4314 0.205 -4.1311 2.0134 -4.2555 4.4276 -0.032 0.6216 -0.0588 1.3512 -0.0755 2.2034H8.5034c-2.6092 0 -4.8302 2.0226 -4.9376 4.7035 -0.0665 1.6599 -0.1176 3.8704 -0.0546 6.0732 0.0861 3.0093 2.4698 5.2673 5.3064 5.5225 3.4075 0.3066 9.0474 0.8181 14.8739 1.3648 1.025 0.0962 1.8098 0.9575 1.8098 1.9898v3.4107c-0.2489 0.0122 -0.4777 0.0264 -0.6877 0.042 -1.7031 0.1268 -2.9463 1.3833 -3.1093 3.0598 -0.1108 1.1394 -0.2064 2.8488 -0.2064 5.3605s0.0956 4.2211 0.2064 5.3604c0.163 1.6766 1.4063 2.933 3.1093 3.0598 0.6823 0.0508 1.5633 0.087 2.6894 0.087s2.0071 -0.0362 2.6894 -0.087c1.703 -0.1268 2.9463 -1.3833 3.1093 -3.0598 0.1108 -1.1393 0.2064 -2.8487 0.2064 -5.3604 0 -2.5117 -0.0956 -4.2211 -0.2064 -5.3605 -0.163 -1.6765 -1.4063 -2.933 -3.1093 -3.0598 -0.21 -0.0156 -0.4388 -0.0298 -0.6877 -0.042v-3.4107c0 -3.0956 -2.3542 -5.6863 -5.4392 -5.9757 -5.8336 -0.5474 -11.4791 -1.0594 -14.8892 -1.3662 -0.9804 -0.0883 -1.6398 -0.8281 -1.6633 -1.6497 -0.0594 -2.0775 -0.0115 -4.1886 0.053 -5.7985 0.0185 -0.4606 0.4027 -0.8603 0.9374 -0.8603h2.0037c0.0168 0.8521 0.0435 1.5817 0.0755 2.2033 0.1244 2.4143 1.8242 4.2226 4.2555 4.4276 2.2926 0.1934 6.1713 0.375 12.6649 0.375s10.3723 -0.1816 12.6649 -0.375c2.4313 -0.205 4.1311 -2.0133 4.2555 -4.4276 0.0547 -1.0622 0.0941 -2.4396 0.0941 -4.205 0 -1.7655 -0.0394 -3.1429 -0.0941 -4.2052C44.299 2.8683 42.5992 1.06 40.1679 0.855 37.8754 0.6617 33.9966 0.48 27.503 0.48Z" clip-rule="evenodd" stroke-width="1"></path>
  </g>
</svg>
