<svg xmlns="http://www.w3.org/2000/svg" viewBox="0 0 24 24" fill="none"><path opacity="0.4" d="M16.0001 17.75C19.728 17.75 22.7501 14.7279 22.7501 11V5.61816C22.7501 4.86262 22.1375 4.25 21.3819 4.25C20.8503 4.25005 20.4195 4.55297 20.1798 4.92773C19.6567 5.74556 18.7483 6.25 17.7638 6.25H15.7364C14.2849 6.25 12.943 6.96985 12.1358 8.14551C12.1057 8.18933 12.072 8.21842 12.045 8.23438C12.0198 8.24929 12.0051 8.25 12.0001 8.25C11.9951 8.25 11.9804 8.24929 11.9552 8.23438C11.9283 8.21842 11.8945 8.18933 11.8644 8.14551C11.0572 6.96985 9.71527 6.25 8.26378 6.25H6.23643C5.25188 6.25 4.34348 5.74556 3.82042 4.92773C3.61061 4.59978 3.25456 4.32678 2.81261 4.26367L2.61827 4.25C1.86273 4.25 1.25011 4.86262 1.25011 5.61816V11C1.25011 14.7279 4.27218 17.75 8.00011 17.75C8.94612 17.75 9.83017 18.0674 10.6183 19.0615C10.9326 19.458 11.4255 19.75 12.0001 19.75C12.5747 19.75 13.0676 19.458 13.3819 19.0615C14.17 18.0674 15.0541 17.75 16.0001 17.75Z" fill="currentColor"/><path d="M18.0001 10C18.5524 10 19.0001 10.4477 19.0001 11C19.0001 11.5523 18.5524 12 18.0001 12C17.2223 12 16.2563 12.3925 15.9483 13.3164C15.7736 13.8402 15.2075 14.1229 14.6837 13.9482C14.1599 13.7735 13.8772 13.2074 14.0519 12.6836C14.744 10.6077 16.778 10 18.0001 10Z" fill="currentColor"/><path d="M6.00011 10C7.22222 10 9.25622 10.6077 9.94835 12.6836C10.123 13.2074 9.84027 13.7735 9.31651 13.9482C8.79267 14.1229 8.22663 13.8402 8.05186 13.3164C7.7439 12.3925 6.77793 12 6.00011 12C5.44782 12 5.00011 11.5523 5.00011 11C5.00011 10.4477 5.44782 10 6.00011 10Z" fill="currentColor"/></svg>
