<svg xmlns="http://www.w3.org/2000/svg" viewBox="0 0 24 24" fill="none"><path d="M21.3817 4.25C22.1372 4.25 22.7499 4.86262 22.7499 5.61816V11C22.7499 14.7279 19.7278 17.75 15.9999 17.75C15.0538 17.75 14.1698 18.0674 13.3817 19.0615C13.0674 19.458 12.5744 19.75 11.9999 19.75C11.4253 19.75 10.9324 19.458 10.618 19.0615C9.82993 18.0674 8.94588 17.75 7.99986 17.75C4.27194 17.75 1.24986 14.7279 1.24986 11V5.61816C1.24986 4.86262 1.86248 4.25 2.61803 4.25L2.81236 4.26367C3.25432 4.32678 3.61037 4.59978 3.82018 4.92773C4.34323 5.74556 5.25164 6.25 6.23619 6.25H8.26353C9.71503 6.25 11.0569 6.96985 11.8641 8.14551C11.8942 8.18933 11.928 8.21842 11.9549 8.23438C11.9801 8.24929 11.9948 8.25 11.9999 8.25C12.0049 8.25 12.0196 8.24929 12.0448 8.23438C12.0717 8.21842 12.1055 8.18933 12.1356 8.14551C12.9428 6.96985 14.2847 6.25 15.7362 6.25H17.7635C18.7481 6.25 19.6565 5.74556 20.1796 4.92773C20.4193 4.55297 20.85 4.25005 21.3817 4.25ZM5.99986 10C5.44758 10 4.99986 10.4477 4.99986 11C4.99986 11.5523 5.44758 12 5.99986 12C6.77769 12 7.74366 12.3925 8.05162 13.3164C8.22638 13.8402 8.79242 14.1229 9.31627 13.9482C9.84002 13.7735 10.1227 13.2074 9.9481 12.6836C9.25597 10.6077 7.22198 10 5.99986 10ZM17.9999 10C16.7777 10 14.7438 10.6077 14.0516 12.6836C13.877 13.2074 14.1597 13.7735 14.6835 13.9482C15.2073 14.1228 15.7733 13.8402 15.9481 13.3164C16.2561 12.3925 17.222 12 17.9999 12C18.5521 12 18.9999 11.5523 18.9999 11C18.9999 10.4477 18.5521 10 17.9999 10Z" fill="currentColor"/></svg>
