<svg xmlns="http://www.w3.org/2000/svg" viewBox="0 0 24 24" fill="none"><path d="M11.9995 1.25C12.5392 1.25 12.9768 1.68754 12.9768 2.22727C12.9768 2.76701 12.5392 3.20455 11.9995 3.20455C11.8151 3.20455 11.5407 3.29394 11.1883 3.66646C10.8338 4.04131 10.4688 4.63692 10.1423 5.45304C9.57428 6.87336 9.17897 8.81778 9.08774 11.0227H21.7722C22.312 11.0227 22.7495 11.4603 22.7495 12C22.7495 17.9371 17.9366 22.75 11.9995 22.75C6.06245 22.75 1.24951 17.9371 1.24951 12C1.24951 6.06294 6.06245 1.25 11.9995 1.25ZM9.08774 12.9773C9.17897 15.1822 9.57428 17.1266 10.1423 18.547C10.4688 19.3631 10.8338 19.9587 11.1883 20.3335C11.5407 20.7061 11.8151 20.7955 11.9995 20.7955C12.1839 20.7955 12.4583 20.7061 12.8107 20.3335C13.1652 19.9587 13.5303 19.3631 13.8567 18.547C14.4247 17.1266 14.8201 15.1822 14.9113 12.9773H9.08774ZM3.25941 12.9773C3.62169 16.2539 5.78322 18.9855 8.73462 20.1665C8.58898 19.8835 8.45271 19.5849 8.32806 19.2732C7.65406 17.5882 7.2243 15.3883 7.13224 12.9773H3.25941ZM16.8668 12.9773C16.7747 15.3883 16.345 17.5882 15.671 19.2732C15.5463 19.585 15.4092 19.8834 15.2635 20.1665C18.2153 18.9857 20.3773 16.2542 20.7396 12.9773H16.8668ZM8.73462 3.83252C5.78305 5.01345 3.6217 7.74602 3.25941 11.0227H7.13224C7.2243 8.61166 7.65406 6.41178 8.32806 4.72676C8.45282 4.41486 8.58883 4.1158 8.73462 3.83252Z" fill="currentColor"/><path d="M21.0426 1.54289C21.4331 1.15237 22.0661 1.15237 22.4566 1.54289C22.8471 1.93342 22.8471 2.56643 22.4566 2.95696L20.1637 5.24992L22.4566 7.54289C22.8471 7.93342 22.8471 8.56643 22.4566 8.95696C22.0661 9.34748 21.4331 9.34748 21.0426 8.95696L18.7496 6.66399L16.4566 8.95696C16.0661 9.34748 15.4331 9.34748 15.0426 8.95696C14.652 8.56643 14.652 7.93342 15.0426 7.54289L17.3355 5.24992L15.0426 2.95696C14.652 2.56643 14.652 1.93342 15.0426 1.54289C15.4331 1.15237 16.0661 1.15237 16.4566 1.54289L18.7496 3.83586L21.0426 1.54289Z" fill="currentColor"/></svg>
