<svg xmlns="http://www.w3.org/2000/svg" viewBox="0 0 24 24" fill="none"><path d="M6.94385 2.25009C8.04852 2.25009 8.79532 2.23823 9.4624 2.48837C10.9529 3.04734 11.5497 4.42365 12.0366 5.39755L12.4634 6.25009H16.7729C17.7994 6.25008 18.6267 6.25008 19.2896 6.31747C19.9699 6.38669 20.5605 6.53324 21.0825 6.88193C21.492 7.15551 21.8441 7.50764 22.1177 7.91708C22.4664 8.43909 22.6129 9.02967 22.6821 9.71005C22.7495 10.3729 22.7495 11.2002 22.7495 12.2267V12.2833C22.7495 14.0073 22.7495 15.3584 22.6401 16.4337C22.5288 17.5282 22.298 18.4202 21.7808 19.1944C21.3613 19.8223 20.8217 20.3618 20.1938 20.7813C19.4196 21.2986 18.5277 21.5294 17.4331 21.6407C16.3578 21.7501 15.0067 21.7501 13.2827 21.7501H12.9995V16.5597C14.0233 16.1594 14.7495 15.1657 14.7495 14.0001C14.7495 12.4813 13.5183 11.2501 11.9995 11.2501C10.4807 11.2501 9.24951 12.4813 9.24951 14.0001C9.24951 15.1657 9.9757 16.1594 10.9995 16.5597V21.7481C9.13402 21.745 7.62691 21.7237 6.41357 21.5606C4.96884 21.3664 3.82889 20.9603 2.93408 20.0655C2.0393 19.1707 1.6332 18.0307 1.43897 16.586C1.2495 15.1764 1.24949 13.3704 1.24951 11.0665V7.9288C1.24951 7.04156 1.24951 6.32644 1.30029 5.75009C1.35228 5.16044 1.46215 4.64419 1.7251 4.17294C2.06398 3.56572 2.56514 3.06454 3.17236 2.72568C3.64362 2.46273 4.15984 2.35285 4.74951 2.30087C5.32575 2.2501 6.04025 2.25009 6.92725 2.25009H6.94385Z" fill="currentColor" fill-rule="evenodd" clip-rule="evenodd"/></svg>
