<svg xmlns="http://www.w3.org/2000/svg" viewBox="0 0 24 24" fill="none"><path d="M5.33307 2.24922C7.44713 2.2464 9.50323 2.8588 11.2501 3.99238V21.7492C9.59407 20.3943 7.50117 19.6476 5.33405 19.6506H5.3194C4.55623 19.6506 3.94565 19.6506 3.48542 19.6213C3.11129 19.5975 2.57255 19.4745 2.24128 19.3117C2.11718 19.2323 1.99337 19.1439 1.87507 19.0256C1.75677 18.9073 1.66836 18.7835 1.58893 18.6594C1.37449 18.3241 1.31 17.9276 1.28034 17.551C1.25007 17.1662 1.25006 16.6729 1.25007 16.0754L1.25007 6.40156C1.25007 5.7112 1.24805 5.10633 1.32819 4.60469C1.41474 4.06301 1.60345 3.58864 2.00495 3.16523C2.79144 2.33589 3.67618 2.32058 4.74323 2.26386C4.93858 2.25349 5.13525 2.24922 5.33307 2.24922Z" fill="currentColor"/><path d="M22.7039 16.449C22.5381 15.9223 21.9766 15.6292 21.45 15.7947C20.1204 16.2132 18.8405 17.3934 17.9763 18.3142C17.709 18.599 17.4676 18.8765 17.2585 19.1248C17.0796 18.957 16.9016 18.8242 16.7283 18.7214C16.5026 18.5878 16.296 18.511 16.1248 18.4675C16.0396 18.4459 15.875 18.4158 15.7498 18.4158C15.1975 18.4158 14.7498 18.8635 14.7498 19.4158C14.7499 19.9312 15.1402 20.3539 15.6414 20.408C15.8008 20.4907 16.075 20.6991 16.3787 21.239C16.5464 21.537 16.8546 21.7293 17.196 21.7478C17.5373 21.7662 17.8644 21.6078 18.0632 21.3298C18.1275 21.244 18.3166 20.9927 18.4382 20.8396C18.6824 20.5321 19.0279 20.1164 19.4343 19.6834C20.2905 18.771 21.2616 17.9512 22.0496 17.7029C22.5762 17.5371 22.8694 16.9756 22.7039 16.449Z" fill="currentColor"/><path d="M19.2569 2.26386C19.0615 2.25349 18.8649 2.24922 18.6671 2.24922C16.553 2.2464 14.4969 2.8588 12.7501 3.99238V18.1393H13.8975C14.3035 17.5515 14.9818 17.1662 15.7501 17.1662C16.0185 17.1662 16.2942 17.2219 16.4327 17.257C16.622 17.3051 16.8283 17.3776 17.046 17.4797L17.0655 17.4592C17.9358 16.5319 19.4084 15.1275 21.0753 14.6027L21.2989 14.5451C21.8045 14.4411 22.3125 14.5182 22.7501 14.7355V6.40156L22.7501 6.35206C22.7501 5.68226 22.7502 5.0943 22.6719 4.60469C22.5854 4.06302 22.3967 3.58864 21.9952 3.16523C21.2087 2.3359 20.3239 2.32058 19.2569 2.26386Z" fill="currentColor"/></svg>
