<svg xmlns="http://www.w3.org/2000/svg" viewBox="0 0 24 24" fill="none"><path opacity="0.4" d="M12 16C14.2091 16 16 14.2091 16 12C16 9.79086 14.2091 8 12 8C9.79086 8 8 9.79086 8 12C8 14.2091 9.79086 16 12 16Z" fill="currentColor"/><path d="M8.12598 11C8.04371 11.3196 8 11.6547 8 12C8 12.3453 8.04371 12.6804 8.12598 13H3C2.44772 13 2 12.5523 2 12C2 11.4477 2.44772 11 3 11H8.12598Z" fill="currentColor"/><path d="M21 11C21.5523 11 22 11.4477 22 12C22 12.5523 21.5523 13 21 13H15.874C15.9563 12.6804 16 12.3453 16 12C16 11.6547 15.9563 11.3196 15.874 11H21Z" fill="currentColor"/></svg>
