<svg xmlns="http://www.w3.org/2000/svg" viewBox="0 0 24 24" fill="none"><path d="M11.9995 16C14.2087 16 15.9995 14.2091 15.9995 12C15.9995 9.79086 14.2087 8 11.9995 8C9.79037 8 7.99951 9.79086 7.99951 12C7.99951 14.2091 9.79037 16 11.9995 16Z" fill="currentColor"/><path d="M8.99951 11C9.5518 11 9.99951 11.4477 9.99951 12C9.99951 12.5523 9.5518 13 8.99951 13H2.99951C2.44723 13 1.99951 12.5523 1.99951 12C1.99951 11.4477 2.44723 11 2.99951 11H8.99951ZM20.9995 11C21.5518 11 21.9995 11.4477 21.9995 12C21.9995 12.5523 21.5518 13 20.9995 13H14.9995C14.4472 13 13.9995 12.5523 13.9995 12C13.9995 11.4477 14.4472 11 14.9995 11H20.9995Z" fill="currentColor"/></svg>
