<svg xmlns="http://www.w3.org/2000/svg" viewBox="0 0 24 24" fill="none"><path d="M22.75 7.0406L22.75 7L22.75 6.95941C22.75 6.52174 22.75 6.1556 22.7295 5.85449C22.7079 5.53744 22.6613 5.23762 22.541 4.94727C22.2619 4.27359 21.7264 3.73809 21.0527 3.45899C20.7624 3.33872 20.4626 3.29215 20.1455 3.27051C19.8444 3.24997 19.4783 3.24998 19.0406 3.25L19 3.25H17L16.9594 3.25C16.5217 3.24998 16.1556 3.24997 15.8545 3.27051C15.5374 3.29215 15.2376 3.33872 14.9473 3.45899C14.2736 3.73809 13.7381 4.27359 13.459 4.94727C13.3387 5.23762 13.2921 5.53744 13.2705 5.85449C13.25 6.1556 13.25 6.52175 13.25 6.95943L13.25 7L13.25 7.04057C13.25 7.47826 13.25 7.8444 13.2705 8.14551C13.2921 8.46256 13.3387 8.76239 13.459 9.05274C13.7381 9.72642 14.2736 10.2619 14.9473 10.541C15.2376 10.6613 15.5374 10.7079 15.8545 10.7295C16.1556 10.75 16.5217 10.75 16.9594 10.75L17 10.75H19L19.0406 10.75C19.4783 10.75 19.8444 10.75 20.1455 10.7295C20.4626 10.7079 20.7624 10.6613 21.0527 10.541C21.7264 10.2619 22.2619 9.72642 22.541 9.05274C22.6613 8.76239 22.7079 8.46256 22.7295 8.14551C22.75 7.84441 22.75 7.47827 22.75 7.0406Z" fill="currentColor"/><path d="M7.25 6C3.93629 6 1.25 8.68629 1.25 12C1.25 15.3137 3.93629 18 7.25 18H7.9873L7.10938 18.7324C6.68547 19.0863 6.62866 19.7166 6.98242 20.1406C7.33625 20.5646 7.96659 20.6214 8.39062 20.2676L9.69238 19.1816C10.0691 18.8674 10.4323 18.5673 10.6885 18.2871C10.9562 17.9943 11.25 17.5738 11.25 17C11.25 16.4262 10.9562 16.0058 10.6885 15.7129C10.4323 15.4327 10.0691 15.1327 9.69238 14.8184L8.39062 13.7324C7.96658 13.3786 7.33625 13.4354 6.98242 13.8594C6.62866 14.2834 6.68546 14.9137 7.10938 15.2676L7.9873 16H7.25C5.04086 16 3.25 14.2091 3.25 12C3.25 9.79086 5.04086 8 7.25 8H10.25C10.8023 8 11.25 7.55228 11.25 7C11.25 6.44772 10.8023 6 10.25 6H7.25Z" fill="currentColor"/><path d="M22.75 17.0406L22.75 17L22.75 16.9594C22.75 16.5217 22.75 16.1556 22.7295 15.8545C22.7079 15.5374 22.6613 15.2376 22.541 14.9473C22.2619 14.2736 21.7264 13.7381 21.0527 13.459C20.7624 13.3387 20.4626 13.2921 20.1455 13.2705C19.8444 13.25 19.4783 13.25 19.0406 13.25L19 13.25H17L16.9594 13.25C16.5217 13.25 16.1556 13.25 15.8545 13.2705C15.5374 13.2921 15.2376 13.3387 14.9473 13.459C14.2736 13.7381 13.7381 14.2736 13.459 14.9473C13.3387 15.2376 13.2921 15.5374 13.2705 15.8545C13.25 16.1556 13.25 16.5217 13.25 16.9594L13.25 17L13.25 17.0406C13.25 17.4783 13.25 17.8444 13.2705 18.1455C13.2921 18.4626 13.3387 18.7624 13.459 19.0527C13.7381 19.7264 14.2736 20.2619 14.9473 20.541C15.2376 20.6613 15.5374 20.7079 15.8545 20.7295C16.1556 20.75 16.5217 20.75 16.9594 20.75L17 20.75H19L19.0406 20.75C19.4783 20.75 19.8444 20.75 20.1455 20.7295C20.4626 20.7079 20.7624 20.6613 21.0527 20.541C21.7264 20.2619 22.2619 19.7264 22.541 19.0527C22.6613 18.7624 22.7079 18.4626 22.7295 18.1455C22.75 17.8444 22.75 17.4783 22.75 17.0406Z" fill="currentColor"/></svg>
