<svg xmlns="http://www.w3.org/2000/svg" viewBox="0 0 24 24" fill="none"><path opacity="0.4" d="M22.7101 12.7759C22.736 12.0405 22.7501 11.279 22.7501 10.4995C22.7501 9.72004 22.736 8.95857 22.7101 8.22314C22.6299 5.94997 22.6168 4.41263 21.4025 3.18896C20.7922 2.57415 20.0996 2.26122 19.2589 2.09131C18.4719 1.93227 17.509 1.89111 16.3417 1.84121L16.2755 1.83838C14.9256 1.78063 13.4894 1.74951 12.0001 1.74951C10.5109 1.74951 9.07462 1.78063 7.72473 1.83838L7.65855 1.84121C6.49121 1.89111 5.52832 1.93227 4.74133 2.09131C3.90061 2.26122 3.208 2.57415 2.59778 3.18896C1.38343 4.41263 1.37035 5.94997 1.29016 8.22314C1.26422 8.95857 1.25012 9.72004 1.25012 10.4995C1.25012 11.279 1.26422 12.0405 1.29016 12.7759C1.37035 15.0491 1.38343 16.5864 2.59778 17.8101C3.208 18.4249 3.90061 18.7378 4.74133 18.9077C5.43468 19.0478 6.26431 19.0954 7.25012 19.1392V20.77C7.25035 21.587 7.91261 22.2493 8.72961 22.2495C9.08298 22.2495 9.42523 22.1231 9.69348 21.8931L11.8732 20.0239C12.4617 19.5193 12.624 19.3933 12.799 19.3267C12.9734 19.2602 13.1864 19.2461 13.9835 19.231C14.7697 19.216 15.5356 19.1923 16.2755 19.1606L16.3417 19.1578C17.509 19.1079 18.4719 19.0668 19.2589 18.9077C20.0996 18.7378 20.7922 18.4249 21.4025 17.8101C22.6168 16.5864 22.6299 15.0491 22.7101 12.7759Z" fill="currentColor"/><path d="M9.40735 6.69395C9.85202 6.36677 10.4784 6.46227 10.8058 6.90685C11.133 7.35152 11.0375 7.97787 10.5929 8.30528H10.5919C10.5909 8.30604 10.5893 8.30751 10.587 8.30919L10.4738 8.39415C10.3954 8.45337 10.2823 8.5392 10.1466 8.64513C9.87373 8.85808 9.51293 9.14818 9.1554 9.4586C8.79307 9.7732 8.45606 10.0895 8.2179 10.359C8.17252 10.4103 8.13449 10.4575 8.10168 10.4986C8.13459 10.54 8.17225 10.5876 8.2179 10.6393C8.45606 10.9088 8.79303 11.226 9.1554 11.5406C9.51293 11.8511 9.87373 12.1412 10.1466 12.3541C10.2823 12.46 10.3954 12.5459 10.4738 12.6051L10.587 12.69C10.5893 12.6917 10.5909 12.6932 10.5919 12.694H10.5929C11.0376 13.0215 11.1323 13.6477 10.8048 14.0924C10.4774 14.5369 9.85199 14.6324 9.40735 14.3053V14.3043H9.40637C9.40583 14.3039 9.40435 14.303 9.40344 14.3024C9.40167 14.301 9.39964 14.2987 9.39661 14.2965C9.39018 14.2917 9.38102 14.2847 9.36926 14.276C9.34569 14.2584 9.31151 14.2331 9.26868 14.2008C9.18306 14.1361 9.06147 14.0437 8.91614 13.9303C8.62659 13.7043 8.23719 13.392 7.84485 13.0514C7.45751 12.7151 7.04404 12.3313 6.71985 11.9645C6.55873 11.7821 6.39803 11.5798 6.27258 11.3717C6.17732 11.2137 6.0398 10.9535 6.00696 10.6383L6.00012 10.4996L6.00696 10.3609C6.03979 10.0457 6.17732 9.78559 6.27258 9.62755C6.39803 9.41945 6.55873 9.21712 6.71985 9.03478C7.04405 8.66792 7.45749 8.28418 7.84485 7.94786C8.23719 7.60723 8.62659 7.29492 8.91614 7.06895C9.06145 6.95555 9.18306 6.86311 9.26868 6.79845C9.31151 6.7661 9.34569 6.74082 9.36926 6.72325C9.38103 6.71448 9.39018 6.7075 9.39661 6.70274C9.39963 6.7005 9.40166 6.6982 9.40344 6.69688L9.40637 6.69493H9.40735V6.69395Z" fill="currentColor"/><path d="M13.1944 6.90685C13.5219 6.46227 14.1482 6.36677 14.5929 6.69395V6.69493H14.5939C14.5944 6.69533 14.5959 6.69622 14.5968 6.69688C14.5986 6.6982 14.6006 6.7005 14.6036 6.70274C14.6101 6.7075 14.6192 6.71448 14.631 6.72325C14.6545 6.74082 14.6887 6.7661 14.7316 6.79845C14.8172 6.86311 14.9388 6.95555 15.0841 7.06895C15.3736 7.29492 15.763 7.60723 16.1554 7.94786C16.5427 8.28418 16.9562 8.66792 17.2804 9.03478C17.4415 9.21712 17.6022 9.41945 17.7276 9.62755C17.8365 9.80821 18.0001 10.1224 18.0001 10.4996C18.0001 10.8769 17.8365 11.191 17.7276 11.3717C17.6022 11.5798 17.4415 11.7821 17.2804 11.9645C16.9562 12.3313 16.5427 12.7151 16.1554 13.0514C15.763 13.392 15.3736 13.7043 15.0841 13.9303C14.9388 14.0437 14.8172 14.1361 14.7316 14.2008C14.6887 14.2331 14.6545 14.2584 14.631 14.276C14.6192 14.2847 14.61 14.2917 14.6036 14.2965C14.6006 14.2987 14.5986 14.301 14.5968 14.3024L14.5939 14.3043H14.5929V14.3053C14.1482 14.6324 13.5229 14.5369 13.1954 14.0924C12.8679 13.6477 12.9626 13.0215 13.4073 12.694H13.4083C13.4093 12.6932 13.4109 12.6917 13.4132 12.69L13.5265 12.6051C13.6049 12.5459 13.7179 12.46 13.8536 12.3541C14.1265 12.1412 14.4873 11.8511 14.8448 11.5406C15.2072 11.226 15.5442 10.9088 15.7823 10.6393C15.8278 10.5878 15.8647 10.5399 15.8976 10.4986C15.8648 10.4576 15.8275 10.4101 15.7823 10.359C15.5442 10.0895 15.2072 9.7732 14.8448 9.4586C14.4873 9.14818 14.1265 8.85808 13.8536 8.64513C13.7179 8.5392 13.6049 8.45337 13.5265 8.39415L13.4132 8.30919C13.4109 8.30751 13.4093 8.30604 13.4083 8.30528H13.4073C12.9628 7.97787 12.8673 7.35152 13.1944 6.90685Z" fill="currentColor"/></svg>
