<svg xmlns="http://www.w3.org/2000/svg" viewBox="0 0 24 24" fill="none"><path d="M12.0001 1.74951C13.4894 1.74951 14.9256 1.78063 16.2755 1.83838L16.3419 1.84131C17.5092 1.8912 18.472 1.93228 19.2589 2.09131C20.0996 2.26122 20.7922 2.57415 21.4025 3.18896C22.6168 4.41263 22.6299 5.94997 22.7101 8.22314C22.736 8.95857 22.7501 9.72004 22.7501 10.4995C22.7501 11.279 22.736 12.0405 22.7101 12.7759C22.6299 15.0491 22.6168 16.5864 21.4025 17.8101C20.7922 18.4249 20.0996 18.7378 19.2589 18.9077C18.472 19.0667 17.5092 19.1078 16.3419 19.1577L16.2755 19.1606C15.5356 19.1923 14.7697 19.216 13.9835 19.231C13.1864 19.2461 12.9734 19.2602 12.799 19.3267C12.624 19.3933 12.4617 19.5193 11.8732 20.0239L9.69348 21.8931C9.42523 22.1231 9.08298 22.2495 8.72961 22.2495C7.91261 22.2493 7.25035 21.587 7.25012 20.77V19.1392C6.26431 19.0954 5.43468 19.0478 4.74133 18.9077C3.90061 18.7378 3.208 18.4249 2.59778 17.8101C1.38343 16.5864 1.37035 15.0491 1.29016 12.7759C1.26422 12.0405 1.25012 11.279 1.25012 10.4995C1.25012 9.72004 1.26422 8.95857 1.29016 8.22314C1.37035 5.94997 1.38343 4.41263 2.59778 3.18896C3.208 2.57415 3.90061 2.26122 4.74133 2.09131C5.52827 1.93228 6.49109 1.8912 7.65833 1.84131L7.72473 1.83838C9.07462 1.78063 10.5109 1.74951 12.0001 1.74951ZM10.8058 6.90674C10.4784 6.46224 9.852 6.36673 9.40735 6.69385V6.69482H9.40637L9.40344 6.69678C9.40167 6.69808 9.39961 6.70041 9.39661 6.70264C9.39019 6.70739 9.38101 6.71439 9.36926 6.72314C9.34569 6.74071 9.31148 6.76601 9.26868 6.79834C9.18307 6.86299 9.06143 6.95546 8.91614 7.06885C8.6266 7.2948 8.23718 7.60714 7.84485 7.94775C7.45751 8.28405 7.04404 8.66783 6.71985 9.03467C6.55875 9.21699 6.39803 9.41937 6.27258 9.62744C6.17733 9.78547 6.03981 10.0457 6.00696 10.3608L6.00012 10.4995L6.00696 10.6382C6.0398 10.9534 6.17732 11.2135 6.27258 11.3716C6.39802 11.5797 6.55875 11.782 6.71985 11.9644C7.04403 12.3312 7.45752 12.715 7.84485 13.0513C8.23717 13.3919 8.6266 13.7042 8.91614 13.9302C9.06144 14.0436 9.18307 14.136 9.26868 14.2007C9.31148 14.233 9.34569 14.2583 9.36926 14.2759C9.38099 14.2846 9.39019 14.2916 9.39661 14.2964C9.39961 14.2986 9.40168 14.3009 9.40344 14.3022C9.40432 14.3029 9.40579 14.3038 9.40637 14.3042H9.40735V14.3052C9.85199 14.6323 10.4774 14.5368 10.8048 14.0923C11.1323 13.6476 11.0376 13.0213 10.5929 12.6938H10.5919C10.5909 12.6931 10.5893 12.6916 10.587 12.6899L10.4738 12.605C10.3954 12.5458 10.2823 12.4599 10.1466 12.354C9.87374 12.1411 9.5129 11.8509 9.1554 11.5405C8.79305 11.2259 8.45605 10.9087 8.2179 10.6392C8.17228 10.5875 8.13458 10.5399 8.10168 10.4985C8.13448 10.4574 8.17254 10.4102 8.2179 10.3589C8.45605 10.0894 8.7931 9.77307 9.1554 9.4585C9.51291 9.14809 9.87374 8.85796 10.1466 8.64502C10.2823 8.53912 10.3954 8.45325 10.4738 8.39404L10.587 8.30908C10.5893 8.30742 10.5909 8.30592 10.5919 8.30518H10.5929C11.0374 7.97775 11.133 7.3514 10.8058 6.90674ZM14.5929 6.69385C14.1482 6.36672 13.5219 6.46224 13.1945 6.90674C12.8673 7.3514 12.9628 7.97775 13.4073 8.30518H13.4083C13.4093 8.30592 13.411 8.30741 13.4132 8.30908L13.5265 8.39404C13.6049 8.45325 13.7179 8.53911 13.8536 8.64502C14.1265 8.85796 14.4873 9.14809 14.8448 9.4585C15.2071 9.77307 15.5442 10.0894 15.7823 10.3589C15.8275 10.41 15.8649 10.4575 15.8976 10.4985C15.8648 10.5398 15.8278 10.5877 15.7823 10.6392C15.5442 10.9087 15.2072 11.2259 14.8448 11.5405C14.4873 11.8509 14.1265 12.1411 13.8536 12.354C13.7179 12.4599 13.6049 12.5458 13.5265 12.605L13.4132 12.6899C13.411 12.6916 13.4093 12.6931 13.4083 12.6938H13.4073C12.9627 13.0213 12.868 13.6476 13.1954 14.0923C13.5229 14.5368 14.1482 14.6323 14.5929 14.3052V14.3042H14.5939L14.5968 14.3022C14.5986 14.3009 14.6006 14.2986 14.6036 14.2964C14.6101 14.2916 14.6193 14.2846 14.631 14.2759C14.6546 14.2583 14.6888 14.233 14.7316 14.2007C14.8172 14.136 14.9388 14.0436 15.0841 13.9302C15.3736 13.7042 15.7631 13.3919 16.1554 13.0513C16.5427 12.715 16.9562 12.3312 17.2804 11.9644C17.4415 11.782 17.6022 11.5797 17.7277 11.3716C17.8366 11.1909 18.0001 10.8767 18.0001 10.4995C18.0001 10.1223 17.8366 9.80809 17.7277 9.62744C17.6022 9.41937 17.4415 9.21699 17.2804 9.03467C16.9562 8.66783 16.5427 8.28405 16.1554 7.94775C15.7631 7.60713 15.3736 7.2948 15.0841 7.06885C14.9388 6.95546 14.8172 6.863 14.7316 6.79834C14.6888 6.766 14.6546 6.74071 14.631 6.72314C14.6192 6.71439 14.6101 6.70739 14.6036 6.70264C14.6006 6.7004 14.5986 6.69808 14.5968 6.69678C14.5959 6.69611 14.5944 6.69522 14.5939 6.69482H14.5929V6.69385Z" fill="currentColor"/></svg>
