<svg xmlns="http://www.w3.org/2000/svg" viewBox="0 0 24 24" fill="none"><path d="M17.5 1.24902C18.7699 1.24902 19.8439 1.78156 20.6553 2.38477C21.4673 2.98853 22.0639 3.69771 22.3955 4.14062C22.5029 4.27986 22.75 4.60111 22.75 4.99902C22.75 5.39694 22.5029 5.71818 22.3955 5.85742C22.0639 6.30033 21.4673 7.00952 20.6553 7.61328C19.8439 8.21649 18.7699 8.74902 17.5 8.74902C16.2301 8.74902 15.1561 8.21649 14.3447 7.61328C13.5327 7.00952 12.9361 6.30033 12.6045 5.85742C12.4971 5.71818 12.25 5.39694 12.25 4.99902C12.25 4.60111 12.4971 4.27986 12.6045 4.14062C12.9361 3.69771 13.5327 2.98853 14.3447 2.38477C15.1561 1.78156 16.2301 1.24902 17.5 1.24902ZM17.4932 3.49902C16.6685 3.49909 16 4.17064 16 4.99902C16 5.82741 16.6685 6.49895 17.4932 6.49902H17.5068C18.3315 6.49895 19 5.82741 19 4.99902C19 4.17064 18.3315 3.49909 17.5068 3.49902H17.4932Z" fill="currentColor"/><path d="M12.5869 2.25977C12.1573 2.68856 11.827 3.09478 11.6055 3.39062C11.492 3.53563 11 4.15456 11 4.99902C11 5.83309 11.4804 6.44686 11.6016 6.60156L11.6055 6.60645L11.6045 6.60742C11.9767 7.10446 12.6552 7.91478 13.5986 8.61621C14.5402 9.31627 15.8714 9.99902 17.5 9.99902C19.1286 9.99902 20.4598 9.31627 21.4014 8.61621C21.6927 8.39958 21.9567 8.17028 22.1963 7.94531C22.6042 9.2107 22.75 10.5938 22.75 12.001C22.75 14.6261 21.9907 17.0864 20.208 18.8916C18.4216 20.7005 15.7071 21.751 12 21.751C10.4515 21.751 9.09789 21.5995 7.91992 21.3105C7.58951 21.2295 7.18966 21.3216 6.83789 21.5811C6.02979 22.1772 4.78902 22.751 3 22.751C2.67 22.751 2.37843 22.5354 2.28223 22.2197C2.18605 21.904 2.30807 21.5619 2.58203 21.3779C3.1813 20.975 3.81966 19.618 2.7373 17.9014C1.63081 16.2132 1.25 14.1444 1.25 12.001C1.25 9.42525 1.8005 6.95213 3.50098 5.12598C5.21037 3.29026 7.94704 2.25098 12 2.25098C12.1989 2.25098 12.3945 2.2551 12.5869 2.25977ZM8 13.249C7.58579 13.249 7.25 13.5848 7.25 13.999C7.25 14.4132 7.58579 14.749 8 14.749H16C16.4142 14.749 16.75 14.4132 16.75 13.999C16.75 13.5848 16.4142 13.249 16 13.249H8ZM8 9.24902C7.58579 9.24902 7.25 9.58481 7.25 9.99902C7.25 10.4132 7.58579 10.749 8 10.749H12C12.4142 10.749 12.75 10.4132 12.75 9.99902C12.75 9.58481 12.4142 9.24902 12 9.24902H8Z" fill="currentColor"/></svg>
