<svg xmlns="http://www.w3.org/2000/svg" viewBox="0 0 24 24" fill="none"><path opacity="0.4" d="M20.7955 19.7773V5.19393C20.7955 4.65699 21.2331 4.22171 21.7728 4.22171C22.3125 4.22171 22.7501 4.65699 22.7501 5.19393V19.7773C22.7501 20.3142 22.3125 20.7495 21.7728 20.7495C21.2331 20.7495 20.7955 20.3142 20.7955 19.7773Z" fill="currentColor"/><path opacity="0.4" d="M16.8865 19.7773V10.055C16.8865 9.5181 17.324 9.08282 17.8637 9.08282C18.4035 9.08282 18.841 9.5181 18.841 10.055V19.7773C18.841 20.3142 18.4035 20.7495 17.8637 20.7495C17.324 20.7495 16.8865 20.3142 16.8865 19.7773Z" fill="currentColor"/><path opacity="0.4" d="M12.9774 19.7773V12.4856C12.9774 11.9487 13.415 11.5134 13.9547 11.5134C14.4944 11.5134 14.932 11.9487 14.932 12.4856L14.932 19.7773C14.932 20.3142 14.4944 20.7495 13.9547 20.7495C13.415 20.7495 12.9774 20.3142 12.9774 19.7773Z" fill="currentColor"/><path opacity="0.4" d="M9.06836 19.7773L9.06836 13.9439C9.06836 13.407 9.5059 12.9717 10.0456 12.9717C10.5854 12.9717 11.0229 13.407 11.0229 13.9439L11.0229 19.7773C11.0229 20.3142 10.5854 20.7495 10.0456 20.7495C9.5059 20.7495 9.06836 20.3142 9.06836 19.7773Z" fill="currentColor"/><path opacity="0.4" d="M5.15918 19.7773L5.15918 13.9439C5.15918 13.407 5.59672 12.9717 6.13645 12.9717C6.67618 12.9717 7.11372 13.407 7.11372 13.9439L7.11372 19.7773C7.11372 20.3142 6.67618 20.7495 6.13645 20.7495C5.59672 20.7495 5.15918 20.3142 5.15918 19.7773Z" fill="currentColor"/><path opacity="0.4" d="M9.06836 9.56893V4.70782C9.06836 4.17087 9.5059 3.7356 10.0456 3.7356C10.5854 3.7356 11.0229 4.17087 11.0229 4.70782L11.0229 9.56893C11.0229 10.1059 10.5854 10.5412 10.0456 10.5412C9.5059 10.5412 9.06836 10.1059 9.06836 9.56893Z" fill="currentColor"/><path opacity="0.4" d="M5.15918 9.56893L5.15918 4.70782C5.15918 4.17087 5.59672 3.7356 6.13645 3.7356C6.67618 3.7356 7.11372 4.17087 7.11372 4.70782V9.56893C7.11372 10.1059 6.67618 10.5412 6.13645 10.5412C5.59672 10.5412 5.15918 10.1059 5.15918 9.56893Z" fill="currentColor"/><path opacity="0.4" d="M1.25012 19.7773L1.25012 9.08282C1.25012 8.54587 1.68766 8.1106 2.22739 8.1106C2.76713 8.1106 3.20467 8.54587 3.20467 9.08282L3.20467 19.7773C3.20467 20.3142 2.76713 20.7495 2.22739 20.7495C1.68766 20.7495 1.25012 20.3142 1.25012 19.7773Z" fill="currentColor"/><path d="M20.9779 4.62904C21.2916 4.19211 21.9015 4.09098 22.3407 4.40308C22.7799 4.71517 22.8816 5.32194 22.5678 5.75887C17.5282 12.7779 11.6936 14.9162 8.09103 14.9162C4.52042 14.9162 1.25012 12.7219 1.25012 9.08285C1.25012 7.33126 1.99383 5.84204 3.25525 4.80849C4.50165 3.78734 6.20104 3.24951 8.09103 3.24951C11.3996 3.24951 13.5896 4.91429 15.1343 6.45101C15.5159 6.83069 15.5159 7.44612 15.1343 7.82579C14.7526 8.20547 14.134 8.20547 13.7523 7.82579C12.3652 6.44584 10.6461 5.19396 8.09103 5.19396C6.56071 5.19396 5.32814 5.62846 4.49784 6.30859C3.68269 6.97642 3.20467 7.91787 3.20467 9.08285C3.20467 11.2771 5.18485 12.9717 8.09103 12.9717C10.9653 12.9717 16.2448 11.2211 20.9779 4.62904Z" fill="currentColor"/></svg>
