<svg xmlns="http://www.w3.org/2000/svg" viewBox="0 0 24 24" fill="none"><path d="M8.09092 3.24963C11.3992 3.24963 13.5892 4.91418 15.1339 6.45081C15.5155 6.83048 15.5155 7.44613 15.1339 7.82581C14.7522 8.20536 14.1337 8.20544 13.7521 7.82581C12.9756 7.05342 12.0954 6.32085 11.0226 5.82581V9.56897C11.0226 10.1058 10.5856 10.5414 10.046 10.5416C9.50626 10.5416 9.06846 10.1059 9.06846 9.56897V5.2594C8.75662 5.21764 8.43123 5.19397 8.09092 5.19397C7.74987 5.19397 7.4237 5.21637 7.11338 5.25745V9.56897C7.11338 10.1058 6.67637 10.5414 6.13682 10.5416C5.59708 10.5416 5.15928 10.1059 5.15928 9.56897V5.86682C4.9169 5.99853 4.69618 6.14699 4.49815 6.3092C3.6831 6.97697 3.20429 7.91784 3.2042 9.08264C3.2042 11.2769 5.18478 12.9723 8.09092 12.9723C10.9616 12.9723 16.2305 11.2248 20.9591 4.65295C20.9815 4.61964 21.007 4.58846 21.0333 4.55823C21.041 4.54933 21.0497 4.5414 21.0577 4.53284C21.07 4.51971 21.0819 4.50621 21.0948 4.49377C21.1063 4.48272 21.118 4.47195 21.13 4.46155C21.1422 4.45091 21.1553 4.4413 21.1681 4.43127C21.1808 4.4213 21.194 4.41223 21.2071 4.40295C21.2201 4.39376 21.2328 4.38418 21.2462 4.37561C21.2572 4.36861 21.2682 4.36163 21.2794 4.3551C21.2947 4.34616 21.3104 4.33783 21.3263 4.32971C21.3402 4.32262 21.3541 4.31561 21.3683 4.3092C21.385 4.30163 21.4018 4.29437 21.419 4.28772C21.4271 4.28461 21.4353 4.28183 21.4435 4.27893C21.4634 4.27184 21.4835 4.26522 21.504 4.2594C21.5202 4.2548 21.5364 4.25046 21.5528 4.2467C21.5651 4.24389 21.5775 4.24124 21.5899 4.23889C21.61 4.2351 21.6303 4.23265 21.6505 4.2301C21.6618 4.22869 21.6732 4.22722 21.6847 4.2262C21.7397 4.22121 21.7953 4.22086 21.8507 4.22522C21.8602 4.22596 21.8696 4.22714 21.879 4.22815C21.8967 4.23006 21.9142 4.23309 21.9317 4.23596C21.9488 4.23874 21.9658 4.24111 21.9825 4.24475C21.9868 4.24568 21.991 4.2467 21.9952 4.24768C22.053 4.26107 22.1089 4.27928 22.1622 4.30237C22.1745 4.30768 22.1862 4.3141 22.1983 4.31995C22.2117 4.32642 22.2253 4.33242 22.2384 4.33948L22.256 4.34924C22.2652 4.35449 22.2742 4.36026 22.2833 4.36584C22.2988 4.37533 22.3143 4.38483 22.3292 4.39514C22.333 4.39779 22.3371 4.40024 22.3409 4.40295C22.3481 4.40806 22.3544 4.41429 22.3614 4.41956C22.379 4.43283 22.3965 4.44617 22.4132 4.46057C22.4183 4.46494 22.4229 4.46979 22.4278 4.47424C22.4446 4.48937 22.461 4.50487 22.4767 4.52112C22.4889 4.53377 22.5004 4.54699 22.5118 4.56018C22.5197 4.56926 22.5277 4.57816 22.5353 4.58752C22.5446 4.59913 22.5539 4.61072 22.5626 4.62268C22.5738 4.63798 22.5845 4.6536 22.5948 4.66956C22.6035 4.68297 22.6113 4.6968 22.6192 4.71057C22.6257 4.7218 22.6317 4.73325 22.6378 4.74475C22.6473 4.76286 22.6568 4.78084 22.6651 4.79944C22.6696 4.80942 22.6737 4.81955 22.6778 4.82971C22.6845 4.84616 22.6906 4.86276 22.6964 4.87952C22.702 4.89595 22.7072 4.91251 22.712 4.92932C22.7147 4.93875 22.7174 4.94814 22.7198 4.95764C22.7389 5.03338 22.7501 5.11237 22.7501 5.19397V19.777C22.7501 20.3139 22.3123 20.7496 21.7726 20.7496C21.2329 20.7495 20.796 20.3138 20.796 19.777V7.99475C20.1484 8.7357 19.4936 9.40465 18.838 10.0084C18.8387 10.0239 18.8409 10.0396 18.8409 10.0553V19.777C18.8409 20.3139 18.4031 20.7496 17.8634 20.7496C17.3238 20.7494 16.8868 20.3138 16.8868 19.777V11.6188C16.2282 12.1018 15.5745 12.5225 14.9317 12.8873V19.777C14.9317 20.3139 14.4939 20.7496 13.9542 20.7496C13.4147 20.7494 12.9776 20.3138 12.9776 19.777V13.8473C12.3023 14.127 11.6478 14.3441 11.0226 14.5084V19.777C11.0226 20.3138 10.5856 20.7494 10.046 20.7496C9.50626 20.7496 9.06846 20.3139 9.06846 19.777V14.8658C8.72736 14.8993 8.40089 14.9166 8.09092 14.9166C7.76171 14.9166 7.43516 14.8967 7.11338 14.86V19.777C7.11338 20.3138 6.67637 20.7494 6.13682 20.7496C5.59708 20.7496 5.15928 20.3139 5.15928 19.777V14.3903C4.43417 14.1146 3.7712 13.7333 3.2042 13.2574V19.777C3.2042 20.3138 2.76725 20.7495 2.22764 20.7496C1.68791 20.7496 1.2501 20.3139 1.2501 19.777V9.08264C1.25019 7.3312 1.99365 5.84172 3.25498 4.80823C4.50136 3.78712 6.20098 3.24965 8.09092 3.24963Z" fill="currentColor"/></svg>
