<svg xmlns="http://www.w3.org/2000/svg" viewBox="0 0 24 24" fill="none"><path opacity="0.4" d="M9.92969 1.26968C10.4586 1.16231 10.9747 1.50441 11.082 2.03335C11.1893 2.56221 10.8472 3.07834 10.3184 3.18569C6.25931 4.00987 3.2041 7.59992 3.2041 11.9016C3.2041 12.0855 3.20969 12.2682 3.2207 12.4494C3.23325 12.6548 3.45025 12.776 3.63965 12.6955C3.68938 12.6743 3.73738 12.654 3.7832 12.6359C4.05227 12.5264 4.48647 12.387 4.97168 12.2961C5.44049 12.2083 6.02068 12.1543 6.56641 12.259C7.19937 12.3328 7.88905 12.5127 8.64844 12.8322C9.13914 13.0494 10.3542 13.6524 11.292 14.3391C11.4988 14.4844 11.711 14.6421 11.915 14.7941C11.9196 14.7975 12.366 15.1297 12.5693 15.2717L12.5752 15.2756C13.0625 15.622 14.1937 16.3525 14.9521 16.6389C15.5105 16.8835 16.1083 17.0841 16.6055 17.1994C16.9298 17.2893 17.8775 17.4419 18.7861 17.2658C18.9433 17.2313 19.0927 17.1872 19.2344 17.134C19.2869 17.1142 19.3318 17.0782 19.3643 17.0324C20.0629 16.0451 20.5652 14.9088 20.8145 13.6808C20.922 13.1522 21.438 12.8109 21.9668 12.9182C22.4957 13.0255 22.8378 13.5416 22.7305 14.0705C21.7251 19.0226 17.3481 22.7502 12.0986 22.7502C6.10713 22.7502 1.25005 17.893 1.25 11.9016C1.25 6.65198 4.97756 2.27502 9.92969 1.26968Z" fill="currentColor"/><path d="M16.5004 1.24997C18.9408 1.24997 21.2835 2.66649 22.269 4.92868C23.1893 7.04127 22.6827 8.8515 21.6636 10.3672C20.8298 11.6072 19.61 12.7103 18.5434 13.6748L17.9965 14.1719C17.5895 14.5461 17.0521 14.75 16.5004 14.75C15.9489 14.7499 15.4123 14.546 15.0053 14.1719L15.0034 14.1709C14.818 13.9994 14.6238 13.8227 14.4243 13.6416C13.3686 12.6834 12.1645 11.5908 11.3393 10.3662C10.3191 8.8521 9.81071 7.04362 10.7319 4.92868C11.7174 2.66656 14.0602 1.25006 16.5004 1.24997ZM16.5004 4.99997C15.2578 4.99997 14.2504 6.00733 14.2504 7.24997C14.2504 8.49261 15.2578 9.49997 16.5004 9.49997C17.7429 9.49978 18.7504 8.4925 18.7504 7.24997C18.7504 6.00744 17.7429 5.00016 16.5004 4.99997Z" fill="currentColor"/></svg>
