<svg xmlns="http://www.w3.org/2000/svg" viewBox="0 0 24 24" fill="none"><path opacity="0.4" d="M10.6973 17.5342C10.7537 17.2504 10.75 16.9266 10.75 16.4981V7.50102C10.75 7.0725 10.7537 6.74871 10.6973 6.46489C10.4803 5.37399 9.62708 4.52075 8.53618 4.30376C8.25236 4.24736 7.92857 4.25102 7.50005 4.25102C7.07153 4.25102 6.74774 4.24736 6.46392 4.30376C5.37302 4.52075 4.51978 5.37399 4.30278 6.46489C4.24639 6.74871 4.25005 7.07251 4.25005 7.50102V16.4981C4.25005 16.9266 4.24638 17.2504 4.30278 17.5342C4.51978 18.6251 5.37302 19.4784 6.46392 19.6954C6.74773 19.7518 7.07153 19.7481 7.50005 19.7481C7.92857 19.7481 8.25236 19.7518 8.53618 19.6954C9.62708 19.4784 10.4803 18.6251 10.6973 17.5342Z" fill="currentColor"/><path opacity="0.4" d="M19.6973 14.5342C19.7537 14.2504 19.75 13.9266 19.75 13.4981V10.501C19.75 10.0725 19.7537 9.74871 19.6973 9.46489C19.4803 8.37399 18.6271 7.52075 17.5362 7.30376C17.2524 7.24736 16.9286 7.25102 16.5 7.25102C16.0715 7.25102 15.7477 7.24736 15.4639 7.30376C14.373 7.52075 13.5198 8.37399 13.3028 9.46489C13.2464 9.74871 13.25 10.0725 13.25 10.501V13.4981C13.25 13.9266 13.2464 14.2504 13.3028 14.5342C13.5198 15.6251 14.373 16.4784 15.4639 16.6954C15.7477 16.7518 16.0715 16.7481 16.5 16.7481C16.9286 16.7481 17.2524 16.7518 17.5362 16.6954C18.6271 16.4784 19.4803 15.6251 19.6973 14.5342Z" fill="currentColor"/><path d="M13.2501 21.749V2.24902C13.2501 1.69674 13.6978 1.24902 14.2501 1.24902C14.8023 1.24902 15.2501 1.69674 15.2501 2.24902V21.749C15.2501 22.3013 14.8023 22.749 14.2501 22.749C13.6978 22.749 13.2501 22.3013 13.2501 21.749Z" fill="currentColor"/><path d="M4.25006 21.75V2.25C4.25006 1.69772 4.69778 1.25 5.25006 1.25C5.80235 1.25 6.25006 1.69772 6.25006 2.25V21.75C6.25006 22.3023 5.80235 22.75 5.25006 22.75C4.69778 22.75 4.25006 22.3023 4.25006 21.75Z" fill="currentColor"/></svg>
