<svg xmlns="http://www.w3.org/2000/svg" viewBox="0 0 24 24" fill="none"><path d="M2.79674 7.60999C3.33534 7.63129 3.75497 8.08479 3.73384 8.62336C3.71654 9.06098 3.70737 9.53762 3.70238 10.059C3.69723 10.5982 3.25577 11.0309 2.71666 11.0257C2.17778 11.0204 1.74508 10.5798 1.75001 10.0409C1.7551 9.50889 1.76501 9.01054 1.78338 8.54614C1.80489 8.00775 2.25833 7.5889 2.79674 7.60999ZM21.2032 7.60999C21.7416 7.5889 22.195 8.00775 22.2166 8.54614C22.2349 9.01054 22.2448 9.50889 22.2499 10.0409C22.2549 10.5798 21.8222 11.0204 21.2833 11.0257C20.7442 11.0309 20.3027 10.5982 20.2976 10.059C20.2926 9.53762 20.2834 9.06098 20.2661 8.62336C20.245 8.08479 20.6646 7.63129 21.2032 7.60999ZM12 1.75C14.1596 1.75 15.8776 1.74768 17.2212 1.92827C18.5928 2.11262 19.7192 2.50378 20.6102 3.39446C21.0116 3.79567 21.3183 4.25201 21.5492 4.77008C21.7687 5.26247 21.5477 5.83943 21.0554 6.05896C20.5631 6.27836 19.9862 6.0573 19.7666 5.56514C19.6272 5.25237 19.4532 4.99721 19.2308 4.77485C18.7629 4.30714 18.1163 4.01876 16.961 3.86349C15.7777 3.70444 14.2147 3.70238 12 3.70238C9.78519 3.70238 8.22228 3.70444 7.03896 3.86349C5.88368 4.01876 5.23699 4.30714 4.76913 4.77485C4.54673 4.99721 4.37277 5.25237 4.23338 5.56514C4.01377 6.0573 3.43681 6.27836 2.9445 6.05896C2.45219 5.83943 2.23125 5.26247 2.45069 4.77008C2.68159 4.25201 2.98836 3.79567 3.3897 3.39446C4.28074 2.50378 5.40719 2.11262 6.77871 1.92827C8.12231 1.74768 9.84036 1.75 12 1.75Z" fill="currentColor"/><path opacity="0.4" d="M8.61957 20.2667C9.05741 20.284 9.53452 20.2931 10.0562 20.2981C10.5951 20.3035 11.028 20.7448 11.0229 21.2838C11.0176 21.8229 10.5762 22.2556 10.0371 22.2505C9.50492 22.2454 9.0069 22.2355 8.54236 22.2171C8.00392 22.1957 7.58511 21.7422 7.60621 21.2038C7.6275 20.6651 8.08095 20.2455 8.61957 20.2667ZM15.3804 20.2667C15.919 20.2455 16.3725 20.6651 16.3938 21.2038C16.4149 21.7422 15.9961 22.1957 15.4576 22.2171C14.9931 22.2355 14.4951 22.2454 13.9629 22.2505C13.4238 22.2556 12.9824 21.8228 12.9771 21.2838C12.972 20.7449 13.4049 20.3035 13.9438 20.2981C14.4654 20.2931 14.9426 20.284 15.3804 20.2667ZM2.94454 17.9473C3.43684 17.7278 4.0138 17.9489 4.23341 18.4411C4.3728 18.7538 4.54676 19.009 4.76917 19.2314C4.9916 19.4537 5.24651 19.6277 5.55946 19.7671C6.05195 19.9865 6.27358 20.5635 6.05422 21.056C5.83485 21.5483 5.25775 21.77 4.76535 21.5508C4.24723 21.32 3.79104 21.0129 3.38973 20.6118C2.9884 20.2105 2.68162 19.7542 2.45072 19.2361C2.23128 18.7437 2.45222 18.1668 2.94454 17.9473ZM19.7666 18.4411C19.9862 17.9489 20.5632 17.7278 21.0555 17.9473C21.5478 18.1668 21.7687 18.7437 21.5493 19.2361C21.3184 19.7542 21.0116 20.2105 20.6103 20.6118C20.209 21.0129 19.7528 21.32 19.2346 21.5508C18.7422 21.77 18.1652 21.5483 17.9458 21.056C17.7264 20.5635 17.948 19.9865 18.4405 19.7671C18.7535 19.6277 19.0084 19.4537 19.2308 19.2314C19.4532 19.009 19.6272 18.7538 19.7666 18.4411ZM2.7167 12.9805C3.2558 12.9754 3.69726 13.4081 3.70242 13.9472C3.70741 14.4686 3.71657 14.9452 3.73387 15.3829C3.75499 15.9214 3.33537 16.3749 2.79677 16.3962C2.25837 16.4173 1.80493 15.9985 1.78341 15.4601C1.76504 14.9956 1.75513 14.4974 1.75004 13.9653C1.74506 13.4264 2.17779 12.9858 2.7167 12.9805ZM21.2833 12.9805C21.8222 12.9858 22.2549 13.4264 22.25 13.9653C22.2449 14.4974 22.235 14.9956 22.2166 15.4601C22.1951 15.9985 21.7416 16.4173 21.2032 16.3962C20.6646 16.3749 20.245 15.9214 20.2661 15.3829C20.2834 14.9452 20.2926 14.4686 20.2976 13.9472C20.3027 13.4081 20.7442 12.9754 21.2833 12.9805Z" fill="currentColor"/></svg>
