<svg xmlns="http://www.w3.org/2000/svg" viewBox="0 0 24 24" fill="none"><path d="M8.61905 20.2661C9.05689 20.2834 9.53401 20.2926 10.0557 20.2976C10.5946 20.3029 11.0275 20.7443 11.0223 21.2833C11.0171 21.8223 10.5757 22.2551 10.0366 22.25C9.50441 22.2449 9.00638 22.2349 8.54184 22.2166C8.0034 22.1951 7.58459 21.7417 7.60569 21.2032C7.62698 20.6646 8.08044 20.2449 8.61905 20.2661ZM15.3799 20.2661C15.9185 20.2449 16.372 20.6646 16.3933 21.2032C16.4144 21.7417 15.9956 22.1951 15.4571 22.2166C14.9926 22.2349 14.4945 22.2449 13.9623 22.25C13.4233 22.2551 12.9819 21.8223 12.9766 21.2833C12.9715 20.7443 13.4044 20.303 13.9433 20.2976C14.4649 20.2926 14.9421 20.2834 15.3799 20.2661ZM2.94402 17.9467C3.43632 17.7273 4.01329 17.9484 4.23289 18.4405C4.37228 18.7533 4.54625 19.0085 4.76865 19.2308C4.99108 19.4532 5.24599 19.6272 5.55894 19.7666C6.05143 19.9859 6.27306 20.563 6.05371 21.0555C5.83433 21.5478 5.25724 21.7694 4.76483 21.5502C4.24671 21.3195 3.79052 21.0124 3.38921 20.6112C2.98788 20.21 2.6811 19.7537 2.4502 19.2356C2.23077 18.7432 2.4517 18.1662 2.94402 17.9467ZM19.7661 18.4405C19.9857 17.9484 20.5626 17.7273 21.0549 17.9467C21.5473 18.1662 21.7682 18.7432 21.5488 19.2356C21.3179 19.7537 21.0111 20.21 20.6098 20.6112C20.2084 21.0124 19.7523 21.3195 19.2341 21.5502C18.7417 21.7694 18.1646 21.5478 17.9453 21.0555C17.7259 20.563 17.9475 19.9859 18.44 19.7666C18.753 19.6272 19.0079 19.4532 19.2303 19.2308C19.4527 19.0085 19.6267 18.7533 19.7661 18.4405ZM2.71618 12.98C3.25529 12.9748 3.69674 13.4075 3.7019 13.9466C3.70689 14.4681 3.71605 14.9447 3.73336 15.3823C3.75447 15.9209 3.33485 16.3744 2.79625 16.3957C2.25785 16.4168 1.80441 15.9979 1.78289 15.4595C1.76452 14.9951 1.75461 14.4968 1.74952 13.9647C1.74454 13.4259 2.17727 12.9852 2.71618 12.98ZM21.2828 12.98C21.8217 12.9852 22.2544 13.4258 22.2494 13.9647C22.2443 14.4968 22.2344 14.9951 22.2161 15.4595C22.1946 15.9979 21.7411 16.4168 21.2027 16.3957C20.6641 16.3744 20.2445 15.9209 20.2656 15.3823C20.2829 14.9447 20.2921 14.4681 20.2971 13.9466C20.3022 13.4075 20.7437 12.9748 21.2828 12.98ZM2.79625 7.60999C3.33486 7.63129 3.75448 8.08479 3.73336 8.62336C3.71605 9.06098 3.70689 9.53762 3.7019 10.059C3.69674 10.5982 3.25529 11.0309 2.71618 11.0257C2.1773 11.0204 1.74459 10.5798 1.74952 10.0409C1.75462 9.50889 1.76452 9.01054 1.78289 8.54614C1.8044 8.00775 2.25785 7.5889 2.79625 7.60999ZM21.2027 7.60999C21.7411 7.5889 22.1946 8.00775 22.2161 8.54614C22.2344 9.01054 22.2443 9.50889 22.2494 10.0409C22.2544 10.5798 21.8217 11.0204 21.2828 11.0257C20.7437 11.0309 20.3022 10.5982 20.2971 10.059C20.2921 9.53762 20.2829 9.06098 20.2656 8.62336C20.2445 8.08479 20.6641 7.63129 21.2027 7.60999ZM11.9995 1.75C14.1591 1.75 15.8771 1.74768 17.2207 1.92827C18.5923 2.11262 19.7187 2.50378 20.6098 3.39446C21.0111 3.79567 21.3179 4.25201 21.5488 4.77008C21.7682 5.26247 21.5473 5.83943 21.0549 6.05896C20.5626 6.27836 19.9857 6.0573 19.7661 5.56514C19.6267 5.25237 19.4527 4.99721 19.2303 4.77485C18.7625 4.30714 18.1158 4.01876 16.9605 3.86349C15.7772 3.70444 14.2143 3.70238 11.9995 3.70238C9.78471 3.70238 8.22179 3.70444 7.03847 3.86349C5.8832 4.01876 5.2365 4.30714 4.76865 4.77485C4.54625 4.99721 4.37228 5.25237 4.23289 5.56514C4.01328 6.0573 3.43632 6.27836 2.94402 6.05896C2.4517 5.83943 2.23077 5.26247 2.4502 4.77008C2.6811 4.25201 2.98788 3.79567 3.38921 3.39446C4.28025 2.50378 5.4067 2.11262 6.77822 1.92827C8.12183 1.74768 9.83987 1.75 11.9995 1.75Z" fill="currentColor"/></svg>
