<svg xmlns="http://www.w3.org/2000/svg" viewBox="0 0 24 24" fill="none"><path d="M15.9562 1.24964C16.8167 1.24958 17.5585 1.24945 18.1525 1.32971C18.7897 1.41586 19.4002 1.61101 19.8956 2.10901C20.3909 2.60697 20.5844 3.22055 20.67 3.86096C20.7499 4.45786 20.7502 5.20327 20.7501 6.068V17.8629C20.7501 18.4027 20.3144 18.8405 19.7775 18.8405H19.6876C19.6573 18.8765 19.6245 18.9157 19.5929 18.9596C19.4255 19.1921 19.2921 19.4842 19.2921 19.818C19.2922 20.1516 19.4256 20.443 19.5929 20.6754C19.6246 20.7194 19.6572 20.7595 19.6876 20.7955H19.7775C20.3143 20.7955 20.75 21.2325 20.7501 21.7721C20.7501 22.3118 20.3144 22.7496 19.7775 22.7496H6.16711C4.55634 22.7496 3.25022 21.4371 3.25012 19.818V8.03479C3.2501 6.70569 3.25048 5.61026 3.36633 4.74378C3.48761 3.83704 3.75189 3.03634 4.38977 2.39514C5.02759 1.75403 5.82378 1.48777 6.72571 1.36585C7.58772 1.24937 8.67784 1.24961 10.0001 1.24964H15.9562ZM6.16711 18.8395C5.63017 18.8395 5.19446 19.2773 5.19446 19.817C5.1946 20.3566 5.63026 20.7936 6.16711 20.7936H17.5001C17.4083 20.5022 17.3478 20.1758 17.3478 19.817C17.3478 19.458 17.4082 19.1311 17.5001 18.8395H6.16711ZM15.2072 6.79261C14.8166 6.40208 14.1836 6.40208 13.7931 6.79261L12.0001 8.58557L10.2072 6.79261C9.81663 6.40208 9.18362 6.40208 8.79309 6.79261C8.40263 7.18313 8.40259 7.81616 8.79309 8.20667L10.5861 9.99964L8.79309 11.7926C8.40263 12.1831 8.40259 12.8162 8.79309 13.2067C9.1836 13.5972 9.81663 13.5971 10.2072 13.2067L12.0001 11.4137L13.7931 13.2067C14.1836 13.5972 14.8166 13.5971 15.2072 13.2067C15.5977 12.8161 15.5977 12.1831 15.2072 11.7926L13.4142 9.99964L15.2072 8.20667C15.5977 7.81615 15.5977 7.18313 15.2072 6.79261Z" fill="currentColor" fill-rule="evenodd" clip-rule="evenodd"/></svg>
