<svg xmlns="http://www.w3.org/2000/svg" viewBox="0 0 24 24" fill="none"><path d="M13.5419 3.25C14.4757 3.24999 15.2367 3.25003 15.8564 3.31738C16.5037 3.38777 17.0661 3.53726 17.58 3.87988C18.0939 4.22243 18.4478 4.68371 18.7617 5.25391C19.0623 5.80012 19.3556 6.50308 19.7148 7.36523L20.3212 8.82129L21.5498 7.90039C21.881 7.65195 22.351 7.71872 22.5996 8.04981C22.848 8.38108 22.7813 8.85103 22.4501 9.09961L21.0175 10.1738L21.3437 10.6631C21.9503 11.5725 22.3416 12.1605 22.5459 12.835C22.75 13.5094 22.7502 14.2155 22.75 15.3086V20C22.75 20.4142 22.4142 20.75 22 20.75H19.75C19.3357 20.75 19 20.4142 19 20V19C19 18.5076 18.998 18.2136 18.9697 18.0029C18.9556 17.8495 18.8154 17.7906 18.747 17.7803C18.5358 17.752 17.4924 17.75 17 17.75H6.99995C6.50749 17.75 5.46409 17.752 5.25288 17.7803C5.18478 17.7861 5.04496 17.8386 5.03023 18.0029C5.00192 18.2136 4.99995 18.5076 4.99995 19V20C4.99995 20.4142 4.66417 20.75 4.24995 20.75H1.99995C1.58576 20.75 1.24995 20.4142 1.24995 20V15.3086C1.24972 14.2155 1.24991 13.5094 1.45406 12.835C1.65827 12.1605 2.04962 11.5725 2.6562 10.6631L2.98238 10.1738L1.54976 9.09961C1.21868 8.85102 1.1519 8.38106 1.40034 8.04981C1.64893 7.71869 2.11888 7.65194 2.45015 7.90039L3.67866 8.82129L4.28511 7.36523C4.64434 6.50305 4.93762 5.80014 5.23823 5.25391C5.55209 4.6837 5.90606 4.22244 6.41988 3.87988C6.93384 3.53724 7.49624 3.38777 8.14351 3.31738C8.76322 3.25002 9.52422 3.24999 10.458 3.25H13.5419ZM5.99995 13C5.44767 13 4.99995 13.4477 4.99995 14V14.0098C4.99995 14.5621 5.44767 15.0098 5.99995 15.0098C6.55224 15.0098 6.99995 14.5621 6.99995 14.0098V14C6.99995 13.4477 6.55224 13 5.99995 13ZM18 13C17.4477 13 17 13.4477 17 14V14.0098C17 14.5621 17.4477 15.0098 18 15.0098C18.5522 15.0098 19 14.5621 19 14.0098V14C19 13.4477 18.5522 13 18 13ZM10.5 4.75C9.5142 4.75 8.83399 4.75103 8.30464 4.80859C7.79391 4.86417 7.49362 4.96683 7.25191 5.12793C7.01009 5.28914 6.7996 5.52712 6.55171 5.97754C6.29501 6.44399 6.03236 7.07066 5.65327 7.98047L5.0273 9.4834L6.11909 9.75H17.9169L18.9726 9.4834L18.3457 7.98047C17.9666 7.07072 17.7039 6.44397 17.4472 5.97754C17.1994 5.52732 16.9897 5.28912 16.748 5.12793C16.5062 4.96672 16.2054 4.86417 15.6943 4.80859C15.165 4.75105 14.4855 4.75 13.5 4.75H10.5Z" fill="currentColor" fill-rule="evenodd" clip-rule="evenodd"/></svg>
