<svg xmlns="http://www.w3.org/2000/svg" viewBox="0 0 24 24" fill="none"><path d="M21.0001 3.49963C21.5524 3.49963 22.0001 3.94735 22.0001 4.49963C22.0001 5.05192 21.5524 5.49963 21.0001 5.49963H3.00012C2.44784 5.49963 2.00012 5.05192 2.00012 4.49963C2.00012 3.94735 2.44784 3.49963 3.00012 3.49963H21.0001Z" fill="currentColor"/><path d="M8.00012 10.4996C8.55241 10.4996 9.00012 10.9473 9.00012 11.4996C9.00012 12.0519 8.55241 12.4996 8.00012 12.4996H3.00012C2.44784 12.4996 2.00012 12.0519 2.00012 11.4996C2.00012 10.9473 2.44784 10.4996 3.00012 10.4996H8.00012Z" fill="currentColor"/><path d="M8.00012 17.4996C8.55241 17.4996 9.00012 17.9473 9.00012 18.4996C9.00012 19.0519 8.55241 19.4996 8.00012 19.4996H3.00012C2.44784 19.4996 2.00012 19.0519 2.00012 18.4996C2.00012 17.9473 2.44784 17.4996 3.00012 17.4996H8.00012Z" fill="currentColor"/><path opacity="0.4" d="M20.0001 14.9996C20.0001 13.0666 18.4331 11.4996 16.5001 11.4996C15.552 11.4996 14.6918 11.877 14.0607 12.4908C14.3118 12.4976 14.6174 12.4996 15.0001 12.4996H16.0001C16.5524 12.4996 17.0001 12.9473 17.0001 13.4996C17.0001 14.0519 16.5524 14.4996 16.0001 14.4996H15.0001C14.3213 14.4996 13.7114 14.5021 13.2208 14.4362C12.7015 14.3663 12.169 14.2036 11.7326 13.7672C11.2961 13.3308 11.1334 12.7983 11.0636 12.2789C10.9977 11.7883 11.0001 11.1785 11.0001 10.4996V9.49963C11.0001 8.94735 11.4478 8.49963 12.0001 8.49963C12.5524 8.49963 13.0001 8.94735 13.0001 9.49963V10.4996C13.0001 10.5897 13.001 10.6756 13.0011 10.7574C13.9515 9.97268 15.1701 9.49963 16.5001 9.49963C19.5377 9.49963 22.0001 11.9621 22.0001 14.9996C22.0001 18.0372 19.5377 20.4996 16.5001 20.4996C14.5924 20.4996 12.9119 19.5276 11.9269 18.0563C11.6197 17.5974 11.7425 16.9758 12.2013 16.6686C12.6602 16.3614 13.2817 16.4842 13.589 16.943C14.2186 17.8835 15.2876 18.4996 16.5001 18.4996C18.4331 18.4996 20.0001 16.9326 20.0001 14.9996Z" fill="currentColor"/></svg>
