<svg xmlns="http://www.w3.org/2000/svg" fill="none" viewBox="0 0 48 48">
  <g>
    <path fill="currentColor" fill-opacity="0.4" d="M29.4715 9.20458c0.8182 -1.69725 3.2354 -1.69725 4.0536 0l2.9987 6.22042c0.2211 0.4586 0.5911 0.8287 1.0497 1.0498l6.2205 2.9987c1.6972 0.8182 1.6973 3.2353 0 4.0535l-6.2205 2.9988c-0.4586 0.221 -0.8286 0.5911 -1.0497 1.0497l-2.9987 6.2204c-0.8182 1.6973 -3.2354 1.6973 -4.0536 0l-2.9987 -6.2204c-0.2211 -0.4586 -0.5911 -0.8287 -1.0497 -1.0497l-6.2205 -2.9987c-1.6972 -0.8183 -1.6972 -3.2354 0 -4.0536l6.2205 -2.9987c0.4586 -0.2211 0.8286 -0.5912 1.0497 -1.0498l2.9987 -6.22042Z" stroke-width="1"></path>
    <path stroke="currentColor" stroke-linejoin="round" d="M29.4715 9.20458c0.8182 -1.69725 3.2354 -1.69725 4.0536 0l2.9987 6.22042c0.2211 0.4586 0.5911 0.8287 1.0497 1.0498l6.2205 2.9987c1.6972 0.8182 1.6973 3.2353 0 4.0535l-6.2205 2.9988c-0.4586 0.221 -0.8286 0.5911 -1.0497 1.0497l-2.9987 6.2204c-0.8182 1.6973 -3.2354 1.6973 -4.0536 0l-2.9987 -6.2204c-0.2211 -0.4586 -0.5911 -0.8287 -1.0497 -1.0497l-6.2205 -2.9987c-1.6972 -0.8183 -1.6972 -3.2354 0 -4.0536l6.2205 -2.9987c0.4586 -0.2211 0.8286 -0.5912 1.0497 -1.0498l2.9987 -6.22042Z" stroke-width="1"></path>
    <path fill="currentColor" fill-opacity="0.4" d="M10.9715 26.2046c0.8182 -1.6973 3.2354 -1.6973 4.0536 0l1.8603 3.8589c0.221 0.4586 0.5911 0.8286 1.0497 1.0497l3.8589 1.8603c1.6973 0.8182 1.6973 3.2354 0 4.0536l-3.8589 1.8602c-0.4586 0.2211 -0.8287 0.5912 -1.0497 1.0497l-1.8603 3.8589c-0.8182 1.6973 -3.2354 1.6973 -4.0536 0L9.11126 39.937c-0.22107 -0.4585 -0.59114 -0.8286 -1.04973 -1.0497l-3.8589 -1.8602c-1.69726 -0.8182 -1.69726 -3.2354 0 -4.0536l3.8589 -1.8603c0.45859 -0.2211 0.82865 -0.5911 1.04973 -1.0497l1.86024 -3.8589Z" stroke-width="1"></path>
    <path stroke="currentColor" stroke-linejoin="round" d="M10.9715 26.2046c0.8182 -1.6973 3.2354 -1.6973 4.0536 0l1.8603 3.8589c0.221 0.4586 0.5911 0.8286 1.0497 1.0497l3.8589 1.8603c1.6973 0.8182 1.6973 3.2354 0 4.0536l-3.8589 1.8602c-0.4586 0.2211 -0.8287 0.5912 -1.0497 1.0497l-1.8603 3.8589c-0.8182 1.6973 -3.2354 1.6973 -4.0536 0L9.11126 39.937c-0.22107 -0.4585 -0.59114 -0.8286 -1.04973 -1.0497l-3.8589 -1.8602c-1.69726 -0.8182 -1.69726 -3.2354 0 -4.0536l3.8589 -1.8603c0.45859 -0.2211 0.82865 -0.5911 1.04973 -1.0497l1.86024 -3.8589Z" stroke-width="1"></path>
    <path fill="currentColor" fill-opacity="0.4" d="M9.47153 4.20458c0.81817 -1.69725 3.23537 -1.69725 4.05357 0l1.3724 2.84681c0.221 0.45859 0.5911 0.82865 1.0497 1.04972l2.8468 1.37237c1.6973 0.81822 1.6973 3.23532 0 4.05362l-2.8468 1.3723c-0.4586 0.2211 -0.8287 0.5912 -1.0497 1.0497l-1.3724 2.8468c-0.8182 1.6973 -3.2354 1.6973 -4.05357 0l-1.37237 -2.8468c-0.22107 -0.4585 -0.59114 -0.8286 -1.04973 -1.0497l-2.8468 -1.3723c-1.69726 -0.8182 -1.69726 -3.2354 0 -4.05362l2.8468 -1.37236c0.45859 -0.22108 0.82866 -0.59114 1.04973 -1.04973l1.37237 -2.84681Z" stroke-width="1"></path>
    <path stroke="currentColor" stroke-linejoin="round" d="M9.47153 4.20458c0.81817 -1.69725 3.23537 -1.69725 4.05357 0l1.3724 2.84681c0.221 0.45859 0.5911 0.82865 1.0497 1.04972l2.8468 1.37237c1.6973 0.81822 1.6973 3.23532 0 4.05362l-2.8468 1.3723c-0.4586 0.2211 -0.8287 0.5912 -1.0497 1.0497l-1.3724 2.8468c-0.8182 1.6973 -3.2354 1.6973 -4.05357 0l-1.37237 -2.8468c-0.22107 -0.4585 -0.59114 -0.8286 -1.04973 -1.0497l-2.8468 -1.3723c-1.69726 -0.8182 -1.69726 -3.2354 0 -4.05362l2.8468 -1.37236c0.45859 -0.22108 0.82866 -0.59114 1.04973 -1.04973l1.37237 -2.84681Z" stroke-width="1"></path>
  </g>
</svg>
