<svg xmlns="http://www.w3.org/2000/svg" viewBox="0 0 24 24" fill="none"><path d="M12 2.25C13.7397 2.25 15.2304 2.43164 16.5 2.77441V3H15.75C14.5074 3 13.5 4.00736 13.5 5.25C13.5 6.49264 14.5074 7.5 15.75 7.5H16.5V8.25L16.5117 8.48047C16.6271 9.61484 17.5852 10.5 18.75 10.5L18.9805 10.4883C20.1148 10.3729 21 9.41483 21 8.25V7.5H22.041C22.569 8.88235 22.75 10.4263 22.75 12C22.75 14.6251 21.9907 17.0854 20.208 18.8906C18.4216 20.6995 15.7071 21.75 12 21.75C10.4515 21.75 9.09789 21.5985 7.91992 21.3096C7.58951 21.2285 7.18966 21.3207 6.83789 21.5801C6.02979 22.1762 4.78902 22.75 3 22.75C2.67 22.75 2.37843 22.5344 2.28223 22.2188C2.18605 21.9031 2.30807 21.561 2.58203 21.377C3.1813 20.9741 3.81966 19.617 2.7373 17.9004C1.63081 16.2122 1.25 14.1434 1.25 12C1.25 9.42427 1.8005 6.95115 3.50098 5.125C5.21037 3.28928 7.94704 2.25 12 2.25ZM8 11C7.44771 11 7 11.4477 7 12C7 12.5523 7.44772 13 8 13C8.55228 13 9 12.5523 9 12C9 11.4477 8.55228 11 8 11ZM12 11C11.4823 11 11.0562 11.3933 11.0049 11.8975L11 12L11.0049 12.1025C11.0562 12.6067 11.4823 13 12 13C12.5522 12.9999 13 12.5522 13 12C13 11.4824 12.6066 11.0563 12.1025 11.0049L12 11ZM16 11C15.4477 11 15 11.4477 15 12C15 12.5523 15.4477 13 16 13C16.5523 13 17 12.5523 17 12C17 11.4477 16.5523 11 16 11Z" fill="currentColor"/><path d="M17.75 8.25V6.25H15.75C15.1977 6.25 14.75 5.80228 14.75 5.25C14.75 4.69772 15.1977 4.25 15.75 4.25H17.75V2.25C17.75 1.69772 18.1977 1.25 18.75 1.25C19.3023 1.25 19.75 1.69772 19.75 2.25V4.25H21.75C22.3023 4.25 22.75 4.69772 22.75 5.25C22.75 5.80228 22.3023 6.25 21.75 6.25H19.75V8.25C19.75 8.80228 19.3023 9.25 18.75 9.25C18.1977 9.25 17.75 8.80228 17.75 8.25Z" fill="currentColor"/></svg>
